<?xml version="1.0" encoding="UTF-8" standalone="no"?>
<!-- Uploaded to: SVG Repo, www.svgrepo.com, Transformed by: SVG Repo Mixer Tools -->

<svg
   height="96"
   width="96"
   version="1.1"
   id="Layer_1"
   viewBox="0 0 96 96"
   xml:space="preserve"
   fill="#000000"
   sodipodi:docname="update.svg"
   inkscape:version="1.3.2 (091e20e, 2023-11-25)"
   xmlns:inkscape="http://www.inkscape.org/namespaces/inkscape"
   xmlns:sodipodi="http://sodipodi.sourceforge.net/DTD/sodipodi-0.dtd"
   xmlns="http://www.w3.org/2000/svg"
   xmlns:svg="http://www.w3.org/2000/svg"><defs
   id="defs10" /><sodipodi:namedview
   id="namedview10"
   pagecolor="#ffffff"
   bordercolor="#000000"
   borderopacity="0.25"
   inkscape:showpageshadow="2"
   inkscape:pageopacity="0.0"
   inkscape:pagecheckerboard="0"
   inkscape:deskcolor="#d1d1d1"
   inkscape:current-layer="Layer_1" />





<g
   id="SVGRepo_iconCarrier"
   transform="scale(0.1875)"
   style="stroke-width:5.33333"> <path
   style="fill:#ededed;stroke-width:5.33333"
   d="m 411.826,256 c 0,86.061 -69.766,155.826 -155.826,155.826 -86.06,0 -155.826,-69.765 -155.826,-155.826 0,-86.061 69.765,-155.826 155.826,-155.826 86.061,0 155.826,69.765 155.826,155.826 z"
   id="path1" /> <path
   style="fill:#ffdb57;stroke-width:5.33333"
   d="m 241.302,512 v 0 c -4.746,0 -9.2,-2.293 -11.96,-6.155 l -44.787,-62.701 c -4.207,-5.89 -6.469,-12.948 -6.469,-20.187 0,-7.239 2.262,-14.297 6.469,-20.187 l 44.787,-62.701 c 2.759,-3.862 7.214,-6.155 11.96,-6.155 v 0 c 8.117,0 14.698,6.58 14.698,14.698 v 17.242 c 60.67,0 109.853,-49.183 109.853,-109.853 H 478.609 C 478.609,378.944 378.944,478.61 256,478.61 v 18.694 C 256,505.42 249.42,512 241.302,512 Z"
   id="path2" /> <path
   style="fill:#ffbc00;stroke-width:5.33333"
   d="m 477.986,272.696 c -2.051,27.656 -9.164,53.899 -20.4,77.823 l -14.443,10.317 c -5.89,4.207 -12.948,6.469 -20.187,6.469 -7.239,0 -14.297,-2.262 -20.187,-6.469 l -57.374,-40.981 c 6.581,-9.197 11.775,-19.454 15.283,-30.462 0,0 4.743,-11.252 3.913,-16.696 0.83,-5.444 1.261,-11.019 1.261,-16.696 h 110.263 c 0.827,5.501 1.455,11.068 1.871,16.695 z"
   id="path3" /> <path
   style="fill:#73a4bc;stroke-width:5.33333"
   d="m 512,270.698 v 0 c 0,4.746 -2.293,9.2 -6.155,11.96 l -62.701,44.787 c -5.89,4.207 -12.948,6.469 -20.187,6.469 -7.239,0 -14.297,-2.262 -20.187,-6.469 l -62.701,-44.787 c -3.862,-2.759 -6.155,-7.214 -6.155,-11.96 v 0 c 0,-8.117 6.58,-14.698 14.698,-14.698 h 17.242 c 0,-60.67 -49.183,-109.853 -109.853,-109.853 V 33.391 c 122.943,0 222.609,99.665 222.609,222.609 h 18.694 c 8.116,0 14.696,6.58 14.696,14.698 z"
   id="path4" /> <path
   style="fill:#56889b;stroke-width:5.33333"
   d="m 272.696,34.013 c 27.656,2.05 53.899,9.164 77.823,20.4 l 10.317,14.443 c 4.207,5.89 6.469,12.948 6.469,20.187 0,7.239 -2.262,14.297 -6.47,20.187 l -40.981,57.374 c -9.197,-6.581 -19.454,-11.775 -30.462,-15.283 0,0 -11.252,-4.743 -16.696,-3.913 -5.444,-0.83 -11.019,-1.261 -16.696,-1.261 V 35.885 c 5.502,-0.827 11.069,-1.455 16.696,-1.872 z"
   id="path5" /> <path
   style="fill:#b6e152;stroke-width:5.33333"
   d="m 270.698,0 v 0 c 4.746,0 9.2,2.293 11.96,6.155 l 44.787,62.701 c 4.207,5.89 6.469,12.948 6.469,20.187 0,7.239 -2.262,14.297 -6.469,20.187 l -44.787,62.701 c -2.759,3.862 -7.214,6.155 -11.96,6.155 v 0 c -8.117,0 -14.698,-6.58 -14.698,-14.698 v -17.242 c -60.67,0 -109.853,49.183 -109.853,109.853 H 33.391 C 33.391,133.056 133.056,33.39 256,33.39 V 14.698 C 256,6.58 262.58,0 270.698,0 Z"
   id="path6" /> <path
   style="fill:#92b703;stroke-width:5.33333"
   d="m 35.885,256 c -0.827,-5.502 -1.455,-11.069 -1.872,-16.696 2.051,-27.656 9.164,-53.899 20.4,-77.823 l 14.443,-10.317 c 5.891,-4.207 12.949,-6.469 20.188,-6.469 7.239,0 14.297,2.262 20.187,6.469 l 57.374,40.981 c -6.581,9.197 -11.775,19.454 -15.283,30.462 0,0 -5.175,27.716 -5.175,33.391 H 35.885 Z"
   id="path7" /> <path
   style="fill:#ff6029;stroke-width:5.33333"
   d="m 0,241.302 v 0 c 0,-4.746 2.293,-9.2 6.155,-11.96 l 62.701,-44.787 c 5.89,-4.207 12.948,-6.469 20.187,-6.469 7.239,0 14.297,2.262 20.187,6.469 l 62.701,44.787 c 3.862,2.759 6.155,7.214 6.155,11.96 v 0 c 0,8.117 -6.58,14.698 -14.698,14.698 h -17.242 c 0,60.67 49.183,109.853 109.853,109.853 V 478.609 C 133.056,478.609 33.39,378.944 33.39,256 H 14.698 C 6.58,256 0,249.42 0,241.302 Z"
   id="path8" /> <path
   style="fill:#b7441c;stroke-width:5.33333"
   d="m 256,365.853 v 110.246 c -5.547,0.835 -11.163,1.461 -16.837,1.879 -27.605,-2.065 -53.799,-9.174 -77.682,-20.391 l -10.317,-14.443 c -4.207,-5.89 -6.469,-12.948 -6.469,-20.187 0,-7.239 2.262,-14.297 6.47,-20.187 l 40.981,-57.374 c 9.197,6.581 19.454,11.775 30.462,15.283 0.001,-10e-4 27.697,5.174 33.392,5.174 z"
   id="path9" /> <path
   style="fill:#ffdb57;stroke-width:5.33333"
   d="m 311.652,471.595 c -17.788,4.578 -36.435,7.013 -55.652,7.013 v 18.694 C 256,505.419 249.42,512 241.302,512 v 0 c -4.746,0 -9.2,-2.293 -11.96,-6.155 l -44.787,-62.701 c -4.207,-5.89 -6.469,-12.948 -6.469,-20.187 0,-7.239 2.262,-14.297 6.47,-20.187 l 44.787,-62.701 c 2.759,-3.862 7.213,-6.155 11.96,-6.155 v 0 c 8.117,0 14.698,6.58 14.698,14.698 v 17.242 c 20.311,0 39.33,-5.518 55.652,-15.13 v 120.872 h -0.001 z"
   id="path10" /> </g>

</svg>
