<?xml version="1.0" encoding="UTF-8" standalone="no"?>
<!-- Generator: Adobe Illustrator 16.0.0, SVG Export Plug-In . SVG Version: 6.00 Build 0)  -->

<svg
   version="1.1"
   id="Layer_1"
   x="0px"
   y="0px"
   width="512"
   height="512"
   viewBox="0 0 512 512"
   enable-background="new 0 0 500 600"
   xml:space="preserve"
   sodipodi:docname="app_icon.svg"
   inkscape:version="1.3.2 (091e20e, 2023-11-25)"
   xmlns:inkscape="http://www.inkscape.org/namespaces/inkscape"
   xmlns:sodipodi="http://sodipodi.sourceforge.net/DTD/sodipodi-0.dtd"
   xmlns="http://www.w3.org/2000/svg"
   xmlns:svg="http://www.w3.org/2000/svg"><defs
   id="defs39" /><sodipodi:namedview
   id="namedview39"
   pagecolor="#ffffff"
   bordercolor="#000000"
   borderopacity="0.25"
   inkscape:showpageshadow="2"
   inkscape:pageopacity="0.0"
   inkscape:pagecheckerboard="0"
   inkscape:deskcolor="#d1d1d1"
   inkscape:zoom="0.61063557"
   inkscape:cx="255.47152"
   inkscape:cy="342.26634"
   inkscape:window-width="1440"
   inkscape:window-height="803"
   inkscape:window-x="0"
   inkscape:window-y="25"
   inkscape:window-maximized="0"
   inkscape:current-layer="g39" />






























<g
   id="g39"
   transform="matrix(1.2311971,0,0,1.2311868,10.50239,5.884401)"
   style="stroke-width:0.812221"
   inkscape:label="logo"
   inkscape:highlight-color="#7dfd57"><circle
     fill="#f8b62d"
     stroke="#000000"
     stroke-miterlimit="10"
     cx="199.94774"
     cy="203.09201"
     r="28.774"
     id="circle1"
     style="stroke-width:0.812221" /><circle
     fill="#f8b62d"
     stroke="#000000"
     stroke-miterlimit="10"
     cx="228.71973"
     cy="150.438"
     r="28.773001"
     id="circle3"
     style="stroke-width:0.812221" /><circle
     fill="#f8b62d"
     stroke="#000000"
     stroke-miterlimit="10"
     cx="142.40373"
     cy="203.09201"
     r="28.774"
     id="circle4"
     style="stroke-width:0.812221" /><circle
     fill="#f8b62d"
     stroke="#000000"
     stroke-miterlimit="10"
     cx="257.49472"
     cy="203.09201"
     r="28.773001"
     id="circle5"
     style="stroke-width:0.812221" /><circle
     fill="#f8b62d"
     stroke="#000000"
     stroke-miterlimit="10"
     cx="169.60373"
     cy="255.314"
     r="28.774"
     id="circle6"
     style="stroke-width:0.812221" /><circle
     fill="#f8b62d"
     stroke="#000000"
     stroke-miterlimit="10"
     cx="227.47772"
     cy="255.67902"
     r="28.773001"
     id="circle7"
     style="stroke-width:0.812221" /><path
     fill="#f8b62d"
     stroke="#000000"
     stroke-miterlimit="10"
     d="m 142.40174,150.438 c 0,15.892 12.884,28.776 28.772,28.776 15.891,0 28.775,-12.884 28.775,-28.776 0,-15.891 -12.885,-28.772 -28.775,-28.772 -15.888,-10e-4 -28.772,12.881 -28.772,28.772 z"
     id="path7"
     style="stroke-width:0.812221" /><path
     fill="#c9caca"
     stroke="#000000"
     stroke-miterlimit="10"
     d="m 171.17474,92.29 c 0,15.892 12.884,28.776 28.772,28.776 15.892,0 28.777,-12.884 28.777,-28.776 0,-15.891 -12.886,-28.773 -28.777,-28.773 -15.888,0 -28.772,12.881 -28.772,28.773 z"
     id="path8"
     style="stroke-width:0.812221" /><path
     fill="#c9caca"
     stroke="#000000"
     stroke-miterlimit="10"
     d="m 171.17374,29.272 c 0,15.892 12.884,28.776 28.772,28.776 15.893,0 28.778,-12.884 28.778,-28.776 0,-15.891 -12.886,-28.772 -28.778,-28.772 -15.888,0 -28.772,12.881 -28.772,28.772 z"
     id="path9"
     style="stroke-width:0.812221" /><path
     fill="#c9caca"
     stroke="#000000"
     stroke-miterlimit="10"
     d="m 113.76774,49.39 c 5.436,14.934 21.948,22.634 36.881,17.2 14.932,-5.436 22.634,-21.949 17.199,-36.884 -5.436,-14.933 -21.95,-22.629 -36.882,-17.194 -14.931,5.433 -22.633,21.945 -17.198,36.878 z"
     id="path10"
     style="stroke-width:0.812221" /><path
     fill="#c9caca"
     stroke="#000000"
     stroke-miterlimit="10"
     d="m 64.69874,91.751 c 10.214,12.174 28.364,13.763 40.539,3.55 12.17,-10.215 13.761,-28.367 3.543,-40.543 -10.212,-12.172 -28.364,-13.757 -40.538,-3.541 -12.172,10.21 -13.762,28.361 -3.544,40.534 z"
     id="path11"
     style="stroke-width:0.812221" /><path
     fill="#c9caca"
     stroke="#000000"
     stroke-miterlimit="10"
     d="m 34.10774,145.984 c 13.761,7.946 31.358,3.232 39.307,-10.529 7.946,-13.761 3.229,-31.363 -10.536,-39.31 -13.759,-7.947 -31.358,-3.226 -39.304,10.537 -7.947,13.758 -3.233,31.357 10.533,39.302 z"
     id="path12"
     style="stroke-width:0.812221" /><path
     fill="#c9caca"
     stroke="#000000"
     stroke-miterlimit="10"
     d="m 24.28274,205.817 c 15.65,2.764 30.575,-7.684 33.336,-23.333 2.761,-15.647 -7.692,-30.576 -23.347,-33.336 -15.645,-2.761 -30.5690001,7.694 -33.32800007,23.344 -2.76200003,15.646 7.68599997,30.573 23.33900007,33.325 z"
     id="path13"
     style="stroke-width:0.812221" /><path
     fill="#c9caca"
     stroke="#000000"
     stroke-miterlimit="10"
     d="m 34.27374,265.105 c 15.65,-2.758 26.103,-17.68 23.344,-33.33 -2.758,-15.647 -17.686,-26.1 -33.344,-23.34 C 8.6317399,211.191 -1.8182601,226.121 0.94173993,241.771 3.6997399,257.415 18.62074,267.868 34.27374,265.105 Z"
     id="path14"
     style="stroke-width:0.812221" /><path
     fill="#c9caca"
     stroke="#000000"
     stroke-miterlimit="10"
     d="m 68.46074,314.798 c 13.891,-7.723 18.893,-25.24 11.171,-39.129 -7.719,-13.889 -25.242,-18.891 -39.138,-11.164 -13.883,7.717 -18.884,25.24 -11.159,39.129 7.716,13.887 25.235,18.889 39.126,11.164 z"
     id="path15"
     style="stroke-width:0.812221" /><path
     fill="#c9caca"
     stroke="#000000"
     stroke-miterlimit="10"
     d="m 113.10674,354.933 c 10.215,-12.174 8.631,-30.32 -3.541,-40.537 -12.172,-10.213 -30.327,-8.625 -40.546,3.553 -10.209,12.164 -8.62,30.318 3.555,40.535 12.168,10.214 30.317,8.628 40.532,-3.551 z"
     id="path16"
     style="stroke-width:0.812221" /><path
     fill="#c9caca"
     stroke="#000000"
     stroke-miterlimit="10"
     d="m 167.84674,375.065 c 5.436,-14.936 -2.262,-31.447 -17.194,-36.883 -14.931,-5.434 -31.448,2.268 -36.885,17.207 -5.434,14.922 2.268,31.438 17.204,36.873 14.929,5.438 31.441,-2.259 36.875,-17.197 z"
     id="path17"
     style="stroke-width:0.812221" /><path
     fill="#c9caca"
     stroke="#000000"
     stroke-miterlimit="10"
     d="m 228.71874,377.028 c 0,-15.893 -12.879,-28.777 -28.773,-28.777 -15.887,-0.002 -28.774,12.885 -28.774,28.783 -0.002,15.883 12.885,28.766 28.778,28.766 15.89,0.004 28.771,-12.879 28.769,-28.772 z"
     id="path18"
     style="stroke-width:0.812221" /><path
     fill="#c9caca"
     stroke="#000000"
     stroke-miterlimit="10"
     d="m 284.53274,355.384 c -5.437,-14.934 -21.943,-22.635 -36.878,-17.201 -14.933,5.434 -22.635,21.951 -17.194,36.893 5.429,14.924 21.945,22.621 36.881,17.188 14.931,-5.435 22.631,-21.945 17.191,-36.88 z"
     id="path20"
     style="stroke-width:0.812221" /><path
     fill="#c9caca"
     stroke="#000000"
     stroke-miterlimit="10"
     d="m 330.67074,317.946 c -10.218,-12.174 -28.36,-13.766 -40.538,-3.549 -12.175,10.211 -13.763,28.367 -3.54,40.549 10.207,12.164 28.358,13.752 40.533,3.535 12.174,-10.212 13.767,-28.361 3.545,-40.535 z"
     id="path21"
     style="stroke-width:0.812221" /><path
     fill="#c9caca"
     stroke="#000000"
     stroke-miterlimit="10"
     d="m 358.55374,264.732 c -13.766,-7.945 -31.355,-3.234 -39.312,10.531 -7.944,13.762 -3.225,31.361 10.548,39.314 13.75,7.938 31.351,3.223 39.295,-10.545 7.946,-13.758 3.236,-31.355 -10.531,-39.3 z"
     id="path22"
     style="stroke-width:0.812221" /><path
     fill="#c9caca"
     stroke="#000000"
     stroke-miterlimit="10"
     d="m 372.47174,207.433 c -15.653,-2.756 -30.57,7.684 -33.339,23.342 -2.758,15.646 7.698,30.572 23.359,33.336 15.633,2.756 30.56,-7.695 33.318,-23.348 2.76,-15.648 -7.68,-30.574 -23.338,-33.33 z"
     id="path23"
     style="stroke-width:0.812221" /><path
     fill="#c9caca"
     stroke="#000000"
     stroke-miterlimit="10"
     d="m 364.52174,149.411 c -15.651,2.764 -26.097,17.676 -23.344,33.336 2.761,15.646 17.688,26.095 33.351,23.337 15.633,-2.758 26.086,-17.684 23.324,-33.335 -2.759,-15.648 -17.675,-26.104 -33.331,-23.338 z"
     id="path24"
     style="stroke-width:0.812221" /><path
     fill="#c9caca"
     stroke="#000000"
     stroke-miterlimit="10"
     d="m 335.62474,96.748 c -13.768,7.951 -18.482,25.536 -10.537,39.311 7.945,13.758 25.545,18.473 39.321,10.524 13.747,-7.939 18.462,-25.54 10.517,-39.304 -7.945,-13.761 -25.54,-18.485 -39.301,-10.531 z"
     id="path25"
     style="stroke-width:0.812221" /><path
     fill="#c9caca"
     stroke="#000000"
     stroke-miterlimit="10"
     d="m 291.25674,56.354 c -10.223,12.18 -8.635,30.318 3.54,40.543 12.173,10.21 30.326,8.621 40.553,-3.558 10.202,-12.161 8.609,-30.315 -3.56,-40.531 -12.174,-10.214 -30.326,-8.635 -40.533,3.546 z"
     id="path26"
     style="stroke-width:0.812221" /><path
     fill="#c9caca"
     stroke="#000000"
     stroke-miterlimit="10"
     d="m 232.05174,31.307 c -5.441,14.942 2.257,31.443 17.193,36.887 14.934,5.433 31.442,-2.27 36.888,-17.211 5.431,-14.918 -2.276,-31.432 -17.204,-36.87 -14.937,-5.436 -31.451,2.259 -36.877,17.194 z"
     id="path27"
     style="stroke-width:0.812221" /><path
     fill="#c9caca"
     stroke="#000000"
     stroke-miterlimit="10"
     d="m 115.91074,115.087 c 7.945,13.763 25.544,18.479 39.306,10.534 13.761,-7.945 18.477,-25.545 10.53,-39.308 -7.945,-13.763 -25.544,-18.476 -39.306,-10.53 -13.757,7.945 -18.476,25.542 -10.53,39.304 z"
     id="path28"
     style="stroke-width:0.812221" /><path
     fill="#c9caca"
     stroke="#000000"
     stroke-miterlimit="10"
     d="m 92.02274,173.625 c 13.761,7.946 31.361,3.229 39.306,-10.531 7.946,-13.761 3.228,-31.361 -10.533,-39.306 -13.762,-7.946 -31.361,-3.227 -39.307,10.534 -7.94,13.758 -3.23,31.354 10.534,39.303 z"
     id="path29"
     style="stroke-width:0.812221" /><path
     fill="#c9caca"
     stroke="#000000"
     stroke-miterlimit="10"
     d="m 83.25874,231.862 c 15.888,0 28.773,-12.884 28.773,-28.772 0.002,-15.891 -12.885,-28.774 -28.775,-28.774 -15.89,0 -28.772,12.887 -28.772,28.777 0.002,15.883 12.881,28.769 28.774,28.769 z"
     id="path30"
     style="stroke-width:0.812221" /><path
     fill="#c9caca"
     stroke="#000000"
     stroke-miterlimit="10"
     d="m 120.43974,282.347 c 13.758,-7.941 18.474,-25.545 10.532,-39.303 -7.946,-13.764 -25.545,-18.477 -39.307,-10.531 -13.764,7.945 -18.477,25.545 -10.531,39.307 7.945,13.755 25.541,18.476 39.306,10.527 z"
     id="path31"
     style="stroke-width:0.812221" /><path
     fill="#c9caca"
     stroke="#000000"
     stroke-miterlimit="10"
     d="m 165.72774,320.282 c 7.944,-13.758 3.228,-31.357 -10.531,-39.303 -13.765,-7.949 -31.363,-3.23 -39.306,10.533 -7.949,13.762 -3.228,31.359 10.533,39.305 13.757,7.942 31.356,3.231 39.304,-10.535 z"
     id="path32"
     style="stroke-width:0.812221" /><path
     fill="#c9caca"
     stroke="#000000"
     stroke-miterlimit="10"
     d="m 228.71874,312.86 c 0,-15.885 -12.884,-28.77 -28.771,-28.771 -15.896,0 -28.777,12.885 -28.775,28.773 0,15.895 12.887,28.775 28.775,28.773 15.887,0.001 28.771,-12.878 28.771,-28.775 z"
     id="path33"
     style="stroke-width:0.812221" /><path
     fill="#c9caca"
     stroke="#000000"
     stroke-miterlimit="10"
     d="m 283.21074,289.763 c -7.945,-13.76 -25.546,-18.477 -39.307,-10.533 -13.766,7.947 -18.477,25.547 -10.531,39.305 7.946,13.768 25.55,18.479 39.307,10.533 13.756,-7.946 18.478,-25.54 10.531,-39.305 z"
     id="path34"
     style="stroke-width:0.812221" /><path
     fill="#c9caca"
     stroke="#000000"
     stroke-miterlimit="10"
     d="m 306.83574,230.759 c -13.761,-7.939 -31.361,-3.227 -39.307,10.533 -7.951,13.766 -3.229,31.363 10.531,39.305 13.762,7.951 31.365,3.227 39.307,-10.531 7.941,-13.756 3.23,-31.356 -10.531,-39.307 z"
     id="path35"
     style="stroke-width:0.812221" /><path
     fill="#c9caca"
     stroke="#000000"
     stroke-miterlimit="10"
     d="m 316.64074,174.317 c -15.892,0.004 -28.775,12.886 -28.775,28.773 0,15.899 12.884,28.778 28.775,28.772 15.891,0.006 28.774,-12.889 28.774,-28.772 -0.005,-15.882 -12.883,-28.769 -28.774,-28.773 z"
     id="path36"
     style="stroke-width:0.812221" /><path
     fill="#c9caca"
     stroke="#000000"
     stroke-miterlimit="10"
     d="m 278.05774,124.921 c -13.757,7.948 -18.478,25.546 -10.532,39.307 7.95,13.767 25.545,18.479 39.307,10.53 13.767,-7.942 18.477,-25.55 10.531,-39.305 -7.946,-13.753 -25.54,-18.474 -39.306,-10.532 z"
     id="path37"
     style="stroke-width:0.812221" /><path
     fill="#c9caca"
     stroke="#000000"
     stroke-miterlimit="10"
     d="m 234.16874,86.313 c -7.94,13.762 -3.229,31.362 10.531,39.306 13.771,7.948 31.366,3.231 39.307,-10.534 7.951,-13.761 3.225,-31.366 -10.531,-39.305 -13.757,-7.939 -31.356,-3.23 -39.307,10.533 z"
     id="path38"
     style="stroke-width:0.812221" /></g></svg>
