<?xml version="1.0" encoding="UTF-8" standalone="no"?>
<!-- Created with Inkscape (http://www.inkscape.org/) -->

<svg
   width="16"
   height="16"
   id="svg11071"
   version="1.1"
   inkscape:version="1.3.2 (091e20e, 2023-11-25)"
   sodipodi:docname="hdmi_micro_socket.svg"
   xml:space="preserve"
   xmlns:inkscape="http://www.inkscape.org/namespaces/inkscape"
   xmlns:sodipodi="http://sodipodi.sourceforge.net/DTD/sodipodi-0.dtd"
   xmlns="http://www.w3.org/2000/svg"
   xmlns:svg="http://www.w3.org/2000/svg"
   xmlns:rdf="http://www.w3.org/1999/02/22-rdf-syntax-ns#"
   xmlns:cc="http://creativecommons.org/ns#"
   xmlns:dc="http://purl.org/dc/elements/1.1/"><defs
     id="defs1" /><sodipodi:namedview
     id="base"
     pagecolor="#ffffff"
     bordercolor="#666666"
     borderopacity="1.0"
     inkscape:pageopacity="0.0"
     inkscape:pageshadow="2"
     inkscape:zoom="10.857976"
     inkscape:cx="1.9801112"
     inkscape:cy="15.288301"
     inkscape:document-units="px"
     inkscape:current-layer="layer1"
     showgrid="false"
     fit-margin-top="1"
     fit-margin-left="1"
     fit-margin-bottom="1"
     fit-margin-right="1"
     inkscape:window-width="1680"
     inkscape:window-height="769"
     inkscape:window-x="0"
     inkscape:window-y="25"
     inkscape:window-maximized="0"
     inkscape:showpageshadow="2"
     inkscape:pagecheckerboard="0"
     inkscape:deskcolor="#d1d1d1" /><g
     inkscape:label="Micro HDMI"
     inkscape:groupmode="layer"
     id="layer1"
     transform="translate(-214.86075,-453.57029)"
     style="display:inline"><g
       id="g29"
       transform="translate(0,0.49999999)"><path
         id="path29"
         style="fill:#404040;fill-opacity:1;stroke:none;stroke-width:0.0499999;stroke-linecap:square;stroke-linejoin:round;stroke-miterlimit:4.7;stroke-dasharray:none;stroke-opacity:1"
         d="m 218.77711,465.93336 -0.44836,-0.57509 v -0.81935 -0.81934 h 4.4805 4.4805 v 0.86457 0.86457 l -0.44005,0.5284 -0.44005,0.52843 -3.59207,10e-4 -3.59209,10e-4 z"
         sodipodi:nodetypes="ccccccccccccc" /><path
         style="display:inline;fill:none;stroke:#ffcc00;stroke-width:0.65;stroke-linecap:square;stroke-linejoin:round;stroke-miterlimit:4.7;stroke-dasharray:none;stroke-opacity:1"
         d="m 218.18575,463.39529 h 9.35 v 2.10448 l -1.03889,1.24552 h -7.27222 l -1.03889,-1.33141 z"
         id="path1"
         sodipodi:nodetypes="ccccccc"
         inkscape:label="box" /><g
         id="g28"
         transform="matrix(1.0809573,0,0,1.076973,-17.663741,-31.381946)"
         inkscape:label="pins"
         style="display:inline;stroke-width:0.926815"><path
           style="display:inline;fill:#000000;fill-opacity:1;stroke:none;stroke-width:0.0463408;stroke-linecap:square;stroke-linejoin:round;stroke-miterlimit:4.7;stroke-dasharray:none;stroke-opacity:1"
           d="M 219.07657,461.05947 V 460.305 h 6.92462 l -3.6e-4,0.89057 -0.43726,0.414 -6.06927,-0.0103 z"
           id="path4"
           sodipodi:nodetypes="ccccccc" /><g
           id="g12"
           inkscape:label="pins2"
           transform="translate(-0.50017896)"
           style="stroke-width:0.926815"><rect
             style="fill:#ffcc00;fill-opacity:1;stroke:none;stroke-width:0.0463408;stroke-linecap:square;stroke-linejoin:round;stroke-miterlimit:4.7;stroke-dasharray:none;stroke-opacity:1"
             id="rect4"
             width="0.30000001"
             height="0.30000001"
             x="219.94481"
             y="460.32031" /><rect
             style="fill:#ffcc00;fill-opacity:1;stroke:none;stroke-width:0.0463408;stroke-linecap:square;stroke-linejoin:round;stroke-miterlimit:4.7;stroke-dasharray:none;stroke-opacity:1"
             id="rect6"
             width="0.30000001"
             height="0.30000001"
             x="220.64905"
             y="460.32031" /><rect
             style="fill:#ffcc00;fill-opacity:1;stroke:none;stroke-width:0.0463408;stroke-linecap:square;stroke-linejoin:round;stroke-miterlimit:4.7;stroke-dasharray:none;stroke-opacity:1"
             id="rect7"
             width="0.30000001"
             height="0.30000001"
             x="221.35327"
             y="460.32031" /><rect
             style="fill:#ffcc00;fill-opacity:1;stroke:none;stroke-width:0.0463408;stroke-linecap:square;stroke-linejoin:round;stroke-miterlimit:4.7;stroke-dasharray:none;stroke-opacity:1"
             id="rect8"
             width="0.30000001"
             height="0.30000001"
             x="222.05751"
             y="460.32031" /><rect
             style="fill:#ffcc00;fill-opacity:1;stroke:none;stroke-width:0.0463408;stroke-linecap:square;stroke-linejoin:round;stroke-miterlimit:4.7;stroke-dasharray:none;stroke-opacity:1"
             id="rect9"
             width="0.30000001"
             height="0.30000001"
             x="222.76173"
             y="460.32031" /><rect
             style="fill:#ffcc00;fill-opacity:1;stroke:none;stroke-width:0.0463408;stroke-linecap:square;stroke-linejoin:round;stroke-miterlimit:4.7;stroke-dasharray:none;stroke-opacity:1"
             id="rect10"
             width="0.30000001"
             height="0.30000001"
             x="223.46597"
             y="460.32031" /><rect
             style="fill:#ffcc00;fill-opacity:1;stroke:none;stroke-width:0.0463408;stroke-linecap:square;stroke-linejoin:round;stroke-miterlimit:4.7;stroke-dasharray:none;stroke-opacity:1"
             id="rect11"
             width="0.30000001"
             height="0.30000001"
             x="224.1702"
             y="460.32031" /><rect
             style="fill:#ffcc00;fill-opacity:1;stroke:none;stroke-width:0.0463408;stroke-linecap:square;stroke-linejoin:round;stroke-miterlimit:4.7;stroke-dasharray:none;stroke-opacity:1"
             id="rect12"
             width="0.30000001"
             height="0.30000001"
             x="224.87444"
             y="460.32031" /></g><g
           id="g27"
           inkscape:label="pins1"
           transform="translate(-0.20017896,0.9499975)"
           style="stroke-width:0.926815"><rect
             style="fill:#ffcc00;fill-opacity:1;stroke:none;stroke-width:0.0463408;stroke-linecap:square;stroke-linejoin:round;stroke-miterlimit:4.7;stroke-dasharray:none;stroke-opacity:1"
             id="rect20"
             width="0.30000001"
             height="0.30000001"
             x="219.94481"
             y="460.32031" /><rect
             style="fill:#ffcc00;fill-opacity:1;stroke:none;stroke-width:0.0463408;stroke-linecap:square;stroke-linejoin:round;stroke-miterlimit:4.7;stroke-dasharray:none;stroke-opacity:1"
             id="rect21"
             width="0.30000001"
             height="0.30000001"
             x="220.64905"
             y="460.32031" /><rect
             style="fill:#ffcc00;fill-opacity:1;stroke:none;stroke-width:0.0463408;stroke-linecap:square;stroke-linejoin:round;stroke-miterlimit:4.7;stroke-dasharray:none;stroke-opacity:1"
             id="rect22"
             width="0.30000001"
             height="0.30000001"
             x="221.35327"
             y="460.32031" /><rect
             style="fill:#ffcc00;fill-opacity:1;stroke:none;stroke-width:0.0463408;stroke-linecap:square;stroke-linejoin:round;stroke-miterlimit:4.7;stroke-dasharray:none;stroke-opacity:1"
             id="rect23"
             width="0.30000001"
             height="0.30000001"
             x="222.05751"
             y="460.32031" /><rect
             style="fill:#ffcc00;fill-opacity:1;stroke:none;stroke-width:0.0463408;stroke-linecap:square;stroke-linejoin:round;stroke-miterlimit:4.7;stroke-dasharray:none;stroke-opacity:1"
             id="rect24"
             width="0.30000001"
             height="0.30000001"
             x="222.76173"
             y="460.32031" /><rect
             style="fill:#ffcc00;fill-opacity:1;stroke:none;stroke-width:0.0463408;stroke-linecap:square;stroke-linejoin:round;stroke-miterlimit:4.7;stroke-dasharray:none;stroke-opacity:1"
             id="rect25"
             width="0.30000001"
             height="0.30000001"
             x="223.46597"
             y="460.32031" /><rect
             style="fill:#ffcc00;fill-opacity:1;stroke:none;stroke-width:0.0463408;stroke-linecap:square;stroke-linejoin:round;stroke-miterlimit:4.7;stroke-dasharray:none;stroke-opacity:1"
             id="rect26"
             width="0.30000001"
             height="0.30000001"
             x="224.1702"
             y="460.32031" /><rect
             style="fill:#ffcc00;fill-opacity:1;stroke:none;stroke-width:0.0463408;stroke-linecap:square;stroke-linejoin:round;stroke-miterlimit:4.7;stroke-dasharray:none;stroke-opacity:1"
             id="rect27"
             width="0.30000001"
             height="0.30000001"
             x="224.87444"
             y="460.32031" /></g></g></g><g
       id="text28"
       style="font-size:4.62735px;line-height:1;font-family:'Helvetica Neue';-inkscape-font-specification:'Helvetica Neue, Normal';text-align:center;text-anchor:middle;stroke-width:0.0500001;stroke-linecap:square;stroke-linejoin:round;stroke-miterlimit:4.7"
       aria-label="micro&#10;HDMI"><path
         d="m 217.33684,455.65411 v 2.39234 h 0.39333 v -1.49001 q 0,-0.0694 0.0324,-0.17121 0.037,-0.10643 0.11105,-0.2036 0.0787,-0.0972 0.19898,-0.16659 0.12494,-0.0694 0.29615,-0.0694 0.13419,0 0.21748,0.0417 0.0879,0.037 0.13883,0.11105 0.0509,0.0694 0.0694,0.16659 0.0231,0.0972 0.0231,0.21286 v 1.56867 h 0.39333 v -1.49001 q 0,-0.27764 0.16658,-0.44422 0.16659,-0.16659 0.45811,-0.16659 0.14345,0 0.23137,0.0417 0.0925,0.0416 0.14344,0.11568 0.0509,0.0694 0.0694,0.16659 0.0185,0.0972 0.0185,0.20823 v 1.56867 h 0.39333 v -1.75377 q 0,-0.18509 -0.0602,-0.31466 -0.0555,-0.13419 -0.16195,-0.21748 -0.10181,-0.0833 -0.24988,-0.12031 -0.14345,-0.0416 -0.32392,-0.0416 -0.23599,0 -0.43497,0.10643 -0.19434,0.10643 -0.31466,0.30078 -0.074,-0.22212 -0.2545,-0.31466 -0.18047,-0.0925 -0.40258,-0.0925 -0.50438,0 -0.77277,0.40721 h -0.009 v -0.35168 z m 4.36359,-0.43035 v -0.48124 h -0.39332 v 0.48124 z m -0.39332,0.43035 v 2.39234 h 0.39332 v -2.39234 z m 2.62833,0.76814 h 0.40721 q -0.0231,-0.21286 -0.11106,-0.36556 -0.0879,-0.15733 -0.22674,-0.25913 -0.13419,-0.10181 -0.31465,-0.14808 -0.17584,-0.0509 -0.37945,-0.0509 -0.28227,0 -0.49512,0.1018 -0.21286,0.0972 -0.35631,0.27302 -0.13882,0.17121 -0.20823,0.4072 -0.0694,0.23137 -0.0694,0.49976 0,0.26838 0.0694,0.49512 0.074,0.22211 0.21286,0.38407 0.14345,0.16196 0.35168,0.24988 0.21285,0.0879 0.48587,0.0879 0.45811,0 0.72186,-0.24062 0.26839,-0.24063 0.33317,-0.68485 h -0.40258 q -0.037,0.27764 -0.2036,0.43034 -0.16196,0.1527 -0.45348,0.1527 -0.18509,0 -0.31929,-0.074 -0.13419,-0.074 -0.21748,-0.19435 -0.0833,-0.12494 -0.12494,-0.28227 -0.037,-0.15733 -0.037,-0.32391 0,-0.18047 0.037,-0.34706 0.037,-0.17121 0.12031,-0.30077 0.0879,-0.12957 0.23137,-0.20823 0.14345,-0.0787 0.3563,-0.0787 0.24988,0 0.39796,0.12494 0.14807,0.12494 0.19434,0.35168 z m 0.84681,-0.76814 v 2.39234 h 0.39333 v -1.06429 q 0,-0.23137 0.0463,-0.40721 0.0463,-0.18047 0.14808,-0.3054 0.1018,-0.12494 0.26838,-0.18973 0.16659,-0.0648 0.40258,-0.0648 v -0.41646 q -0.31929,-0.009 -0.52752,0.12957 -0.20823,0.13882 -0.35167,0.43034 h -0.009 v -0.50438 z m 1.7584,1.19848 q 0,-0.21748 0.0555,-0.38407 0.0601,-0.17121 0.16195,-0.28689 0.10181,-0.11569 0.236,-0.17584 0.13882,-0.0602 0.29152,-0.0602 0.1527,0 0.2869,0.0602 0.13882,0.0602 0.24062,0.17584 0.1018,0.11568 0.15733,0.28689 0.0602,0.16659 0.0602,0.38407 0,0.21749 -0.0602,0.3887 -0.0555,0.16658 -0.15733,0.28227 -0.1018,0.11105 -0.24062,0.17121 -0.1342,0.0602 -0.2869,0.0602 -0.1527,0 -0.29152,-0.0602 -0.13419,-0.0602 -0.236,-0.17121 -0.1018,-0.11569 -0.16195,-0.28227 -0.0555,-0.17121 -0.0555,-0.3887 z m -0.41646,0 q 0,0.26376 0.074,0.4905 0.074,0.22674 0.22212,0.39795 0.14807,0.16659 0.36556,0.26376 0.21748,0.0926 0.49975,0.0926 0.2869,0 0.49976,-0.0926 0.21748,-0.0972 0.36556,-0.26376 0.14807,-0.17121 0.22211,-0.39795 0.074,-0.22674 0.074,-0.4905 0,-0.26376 -0.074,-0.4905 -0.074,-0.23137 -0.22211,-0.39795 -0.14808,-0.17121 -0.36556,-0.26839 -0.21286,-0.0972 -0.49976,-0.0972 -0.28227,0 -0.49975,0.0972 -0.21749,0.0972 -0.36556,0.26839 -0.14808,0.16658 -0.22212,0.39795 -0.074,0.22674 -0.074,0.4905 z"
         id="path30" /><path
         d="m 217.27437,459.36987 v 3.30393 h 0.4396 v -1.51315 h 1.73988 v 1.51315 h 0.4396 v -3.30393 h -0.4396 v 1.4206 h -1.73988 v -1.4206 z m 3.78055,2.93374 v -2.56355 h 0.74037 q 0.30541,0 0.51364,0.0879 0.20823,0.0833 0.33779,0.24987 0.1342,0.16196 0.18973,0.39796 0.0601,0.23136 0.0601,0.52751 0,0.30541 -0.0648,0.52289 -0.0602,0.21286 -0.15733,0.35631 -0.0972,0.14345 -0.22211,0.22674 -0.12032,0.0833 -0.24525,0.12957 -0.12494,0.0416 -0.236,0.0555 -0.11106,0.009 -0.18509,0.009 z m -0.4396,-2.93374 v 3.30393 h 1.1337 q 0.41183,0 0.71261,-0.11569 0.30078,-0.11568 0.49513,-0.33317 0.19435,-0.22211 0.28689,-0.5414 0.0925,-0.32391 0.0925,-0.74037 0,-0.79591 -0.41183,-1.1846 -0.41184,-0.3887 -1.17535,-0.3887 z m 3.26691,0 v 3.30393 h 0.41646 v -2.74865 h 0.009 l 1.03189,2.74865 h 0.37482 l 1.0319,-2.74865 h 0.009 v 2.74865 h 0.41646 v -3.30393 h -0.60155 l -1.04578,2.77641 -1.04116,-2.77641 z m 4.03968,0 v 3.30393 h 0.43959 v -3.30393 z"
         id="path31" /></g></g><metadata
     id="metadata1"><rdf:RDF><cc:Work><dc:format>image/svg+xml</dc:format><dc:type
           rdf:resource="http://purl.org/dc/dcmitype/StillImage" /><cc:license
           rdf:resource="http://creativecommons.org/publicdomain/zero/1.0/" /><dc:publisher><cc:Agent
             rdf:about="http://openclipart.org/"><dc:title>Openclipart</dc:title></cc:Agent></dc:publisher><dc:date>2014-04-07T04:06:50</dc:date><dc:description>A BNC female at axis view.</dc:description><dc:source>https://openclipart.org/detail/192558/bnc-female-axis-view-by-boudinpg-192558</dc:source><dc:creator><cc:Agent><dc:title>boudinpg</dc:title></cc:Agent></dc:creator><dc:subject><rdf:Bag><rdf:li>BNC</rdf:li><rdf:li>computer</rdf:li><rdf:li>connector</rdf:li><rdf:li>digital</rdf:li><rdf:li>electric</rdf:li><rdf:li>electronic</rdf:li><rdf:li>female</rdf:li><rdf:li>plug</rdf:li><rdf:li>television</rdf:li><rdf:li>tv</rdf:li></rdf:Bag></dc:subject></cc:Work><cc:License
         rdf:about="http://creativecommons.org/licenses/publicdomain/"><cc:permits
           rdf:resource="http://creativecommons.org/ns#Reproduction" /><cc:permits
           rdf:resource="http://creativecommons.org/ns#Distribution" /><cc:permits
           rdf:resource="http://creativecommons.org/ns#DerivativeWorks" /></cc:License></rdf:RDF></metadata></svg>
