<?xml version="1.0" encoding="UTF-8" standalone="no"?>
<!-- Uploaded to: SVG Repo, www.svgrepo.com, Generator: SVG Repo Mixer Tools -->

<svg
   fill="#000000"
   height="16"
   width="16"
   version="1.1"
   id="Layer_1"
   viewBox="0 0 16 16"
   xml:space="preserve"
   sodipodi:docname="jack_plug_male.svg"
   inkscape:version="1.3.2 (091e20e, 2023-11-25)"
   xmlns:inkscape="http://www.inkscape.org/namespaces/inkscape"
   xmlns:sodipodi="http://sodipodi.sourceforge.net/DTD/sodipodi-0.dtd"
   xmlns="http://www.w3.org/2000/svg"
   xmlns:svg="http://www.w3.org/2000/svg"><defs
   id="defs2" /><sodipodi:namedview
   id="namedview2"
   pagecolor="#ffffff"
   bordercolor="#000000"
   borderopacity="0.25"
   inkscape:showpageshadow="2"
   inkscape:pageopacity="0.0"
   inkscape:pagecheckerboard="0"
   inkscape:deskcolor="#d1d1d1"
   inkscape:current-layer="g2" />
<g
   id="g2"
   transform="matrix(0.02978525,0,0,-0.02978525,0.49995491,15.5)">
	<g
   id="g1">
		<path
   id="path1"
   style="display:inline"
   d="m 226.82049,450.9494 c -5.01198,-2.902 -8.59015,-8.27876 -8.59015,-14.49176 v -33.57366 h -8.39342 c -4.635,0 -8.39342,-3.75742 -8.39342,-8.39342 V 235.01565 c 0,-4.63498 3.75742,-8.39341 8.39342,-8.39341 v -25.18025 c 0,-4.635 3.75742,-8.39342 8.39342,-8.39342 V 83.934162 c -0.001,-0.26 0.0416,-0.523883 0.0656,-0.786883 0.005,-0.055 -0.006,-0.07715 0,-0.131147 0.027,-0.242 0.0822,-0.479309 0.13115,-0.721309 0.015,-0.072 -0.016,-0.190294 0,-0.262294 0.074,-0.32 0.21286,-0.602032 0.32786,-0.91803 0.073,-0.203 0.10972,-0.395162 0.19672,-0.590162 0.05,-0.111 0.14073,-0.217868 0.19673,-0.327868 0.14598,-0.29 0.28201,-0.582458 0.45901,-0.852456 l 0.0656,-0.06557 c 8.284,-12.422976 8.284,-28.626077 0,-41.049051 -0.064,-0.096 -0.13672,-0.165294 -0.19672,-0.262294 -0.115,-0.188 -0.22788,-0.393164 -0.32786,-0.590162 -0.098,-0.191 -0.1813,-0.397163 -0.2623,-0.590163 -0.057,-0.135998 -0.14672,-0.254441 -0.19672,-0.393441 -0.084,-0.232 -0.13572,-0.487309 -0.19672,-0.721309 -0.031,-0.119 -0.0396,-0.207868 -0.0656,-0.327868 -0.05,-0.235 -0.10215,-0.485309 -0.13115,-0.721309 -0.019,-0.147 -0.0546,-0.311015 -0.0656,-0.459015 -0.014,-0.2 -0.001,-0.391162 0,-0.590162 0,-0.199 -0.014,-0.390162 0,-0.590162 0.011,-0.149 0.0466,-0.312015 0.0656,-0.459015 0.029,-0.236 0.0802,-0.486311 0.13115,-0.721309 0.026,-0.121 0.0346,-0.208868 0.0656,-0.327868 0.062,-0.234 0.11372,-0.490311 0.19672,-0.721309 0.05,-0.139 0.13972,-0.257442 0.19672,-0.393442 0.082,-0.193 0.1643,-0.400162 0.2623,-0.590162 0.099,-0.197 0.21286,-0.401162 0.32786,-0.590162 0.06,-0.098 0.0672,-0.166294 0.13115,-0.262294 L 236.45979,3.7376932 C 238.01677,1.4026978 240.6046,0 243.41058,0 h 16.78684 c 2.80598,0 5.39581,1.4066978 6.95079,3.7376932 l 16.78684,25.1802488 c 0.064,0.096 0.13672,0.165294 0.19672,0.262294 0.115,0.189 0.22786,0.393162 0.32786,0.590162 0.097,0.19 0.1813,0.397162 0.2623,0.590162 0.057,0.137 0.14672,0.254442 0.19672,0.393442 0.084,0.231998 0.13572,0.487309 0.19672,0.721309 0.031,0.119 0.0396,0.207868 0.0656,0.327868 0.05,0.234998 0.10215,0.485309 0.13115,0.721309 0.019,0.148 0.0546,0.310015 0.0656,0.459015 0.014,0.2 10e-4,0.391162 0,0.590162 0,0.2 0.014,0.390162 0,0.590162 -0.011,0.148 -0.0466,0.312015 -0.0656,0.459015 -0.029,0.236 -0.0802,0.486309 -0.13115,0.721309 -0.026,0.121 -0.0346,0.208868 -0.0656,0.327868 -0.062,0.234 -0.11372,0.489309 -0.19672,0.721309 -0.049,0.139 -0.13972,0.257443 -0.19672,0.393441 -0.081,0.193 -0.1643,0.399163 -0.2623,0.590163 -0.1,0.196998 -0.21386,0.336588 -0.32786,0.524588 -0.06,0.097 -0.13272,0.230868 -0.19672,0.327868 -8.284,12.422974 -8.284,28.626075 0,41.049051 l 0.0656,0.06557 c 0.177,0.269998 0.31303,0.562456 0.45901,0.852456 0.056,0.11 0.14673,0.216868 0.19673,0.327868 0.087,0.195 0.12372,0.387162 0.19672,0.590162 0.115,0.316998 0.25386,0.59803 0.32786,0.91803 0.017,0.072 -0.015,0.190294 0,0.262294 0.049,0.242 0.10415,0.479309 0.13115,0.721309 0.006,0.055 -0.005,0.07615 0,0.131147 0.024,0.262 0.0666,0.526883 0.0656,0.786883 V 193.04857 c 4.635,0 8.39342,3.75742 8.39342,8.39342 v 25.18025 c 4.635,0 8.39342,3.75743 8.39342,8.39341 v 159.47491 c 0,4.635 -3.75742,8.39342 -8.39342,8.39342 h -8.39342 v 33.57366 c 0,6.212 -3.34764,11.65435 -8.36062,14.55733 -0.0466,17.53017 -0.0469,35.06001 0,52.59 h -50.19661 c 0,0 0,-33.52763 0,-52.65557 z"
   sodipodi:nodetypes="cscssscsccsccccccccsccscsccccccccscccccsscsccccscccccccccsccccccccccccccscssscscccc" /><path
   style="display:inline;fill:#000000"
   d="m 285.378,386.1 h -8.36 c -0.011,0 -0.022,-0.002 -0.034,-0.002 h -50.361 c -0.011,0 -0.022,0.002 -0.034,0.002 h -8.36 V 243.412 h 67.148 V 386.1 Z"
   id="path17" /><path
   style="display:inline;fill:#e4e4e4;fill-opacity:1"
   d="m 226.624,209.838 h 50.361 v 16.787 h -50.361 z"
   id="path16" /><path
   style="display:inline;fill:#3366cc"
   d="m 268.591,402.887 v 33.572 h -33.574 v -33.572 z"
   id="path15" /><path
   style="display:inline;fill:#808080"
   d="m 243.411,453.248 h 16.787 v 33.572 h -16.787 z"
   id="path14" /><path
   style="display:inline;fill:#e4e4e4;fill-opacity:1"
   d="m 263.651,75.541 h -23.694 c 3.578,-10.895 3.578,-22.679 0,-33.574 h 23.694 c -3.578,10.895 -3.578,22.679 0,33.574 z"
   id="path13" /><path
   style="display:inline;fill:#e4e4e4;fill-opacity:1"
   d="m 235.017,125.902 h 33.574 v 67.149 h -33.574 z"
   id="path12" /><path
   style="display:inline;fill:#e4e4e4;fill-opacity:1"
   d="m 247.903,16.787 h 7.803 l 5.596,8.393 h -18.994 z"
   id="path11" /><path
   style="display:inline;fill:#e4e4e4;fill-opacity:1"
   d="m 235.017,92.33 h 33.574 v 16.785 h -33.574 z"
   id="path4" />
	</g>
</g>
</svg>
