<?xml version="1.0" encoding="UTF-8" standalone="no"?>
<!-- Uploaded to: SVG Repo, www.svgrepo.com, Generator: SVG Repo Mixer Tools -->

<svg
   height="16"
   width="16"
   version="1.1"
   id="Layer_1"
   viewBox="0 0 16 16"
   xml:space="preserve"
   sodipodi:docname="jack_mini_plug_male.svg"
   inkscape:version="1.3.2 (091e20e, 2023-11-25)"
   xmlns:inkscape="http://www.inkscape.org/namespaces/inkscape"
   xmlns:sodipodi="http://sodipodi.sourceforge.net/DTD/sodipodi-0.dtd"
   xmlns="http://www.w3.org/2000/svg"
   xmlns:svg="http://www.w3.org/2000/svg"><defs
   id="defs6" /><sodipodi:namedview
   id="namedview6"
   pagecolor="#ffffff"
   bordercolor="#000000"
   borderopacity="0.25"
   inkscape:showpageshadow="2"
   inkscape:pageopacity="0.0"
   inkscape:pagecheckerboard="0"
   inkscape:deskcolor="#d1d1d1"
   inkscape:current-layer="g6" />
<g
   id="g6"
   transform="matrix(0.03615329,0,0,-0.03615329,3.2127983,15.5)">
	
	<polygon
   style="fill:#808080"
   points="105.931,414.9 158.897,414.9 158.897,361.935 105.931,361.935 "
   id="polygon1" />
	<polygon
   style="fill:#404040"
   points="88.276,361.935 176.552,361.935 176.552,238.348 88.276,238.348 "
   id="polygon2" />
	<polygon
   style="fill:#808080"
   points="97.103,238.348 167.724,238.348 167.724,203.038 97.103,203.038 "
   id="polygon3" />
	<polygon
   style="fill:#dbb780"
   points="105.931,203.038 158.897,203.038 158.897,79.452 105.931,79.452 "
   id="polygon4" />
	<g
   id="g5"
   style="display:inline">
		<path
   style="fill:#f4e197"
   d="m 158.897,123.586 h -52.966 c -4.873,0 -8.828,-3.946 -8.828,-8.828 0,-4.882 3.955,-8.828 8.828,-8.828 h 52.966 c 4.873,0 8.828,3.946 8.828,8.828 -0.001,4.882 -3.956,8.828 -8.828,8.828"
   id="path4" />
		<path
   style="fill:#f4e197"
   d="m 158.897,26.483 h -52.966 c 10.69,16.031 10.69,36.935 0,52.966 h 52.966 c -10.691,-16.032 -10.691,-36.935 0,-52.966"
   id="path5" />
	</g>
	<polygon
   style="fill:#dbb780"
   points="123.586,0 141.241,0 158.897,26.483 105.931,26.483 "
   id="polygon5" />
</g>
</svg>
