<?xml version="1.0" encoding="UTF-8" standalone="no"?>
<svg
   width="16"
   height="16"
   fill="currentColor"
   class="bi bi-ethernet"
   viewBox="0 0 16 16"
   version="1.1"
   id="svg2"
   sodipodi:docname="midi_socket.svg"
   inkscape:version="1.3.2 (091e20e, 2023-11-25)"
   xmlns:inkscape="http://www.inkscape.org/namespaces/inkscape"
   xmlns:sodipodi="http://sodipodi.sourceforge.net/DTD/sodipodi-0.dtd"
   xmlns="http://www.w3.org/2000/svg"
   xmlns:svg="http://www.w3.org/2000/svg">
  <defs
     id="defs2" />
  <sodipodi:namedview
     id="namedview2"
     pagecolor="#ffffff"
     bordercolor="#000000"
     borderopacity="0.25"
     inkscape:showpageshadow="2"
     inkscape:pageopacity="0.0"
     inkscape:pagecheckerboard="0"
     inkscape:deskcolor="#d1d1d1"
     inkscape:zoom="21.622963"
     inkscape:cx="7.9082592"
     inkscape:cy="9.4344145"
     inkscape:window-width="1672"
     inkscape:window-height="919"
     inkscape:window-x="0"
     inkscape:window-y="25"
     inkscape:window-maximized="0"
     inkscape:current-layer="g6"
     showgrid="false" />
  <g
     id="g5">
    <g
       id="g6"
       transform="matrix(0.83829297,0,0,0.83829269,1.397631,1.041148)"
       style="stroke-width:1.19436;stroke-dasharray:none">
      <circle
         style="fill:#000000;stroke:none;stroke-width:0.801427;stroke-linecap:round;stroke-linejoin:round;stroke-dasharray:none;stroke-opacity:1"
         id="path4"
         cx="11.991476"
         cy="8.3012199"
         r="0.89467525" />
      <circle
         style="fill:#000000;stroke:none;stroke-width:0.801427;stroke-linecap:round;stroke-linejoin:round;stroke-dasharray:none;stroke-opacity:1"
         id="circle4"
         cx="3.760463"
         cy="8.3012199"
         r="0.89467525" />
      <circle
         style="fill:#000000;stroke:none;stroke-width:0.801427;stroke-linecap:round;stroke-linejoin:round;stroke-dasharray:none;stroke-opacity:1"
         id="circle5"
         cx="10.786072"
         cy="5.3911166"
         r="0.89467525" />
      <path
         d="M 7.8759685,1.5911531 A 6.709517,6.7095189 0 0 0 1.1659038,8.3012199 6.709517,6.7095189 0 0 0 6.4337706,14.836545 1.6234846,1.5054135 0 0 1 8.0320707,13.482883 1.6234846,1.5054135 0 0 1 9.6350305,14.766649 6.709517,6.7095189 0 0 0 14.586033,8.3012199 6.709517,6.7095189 0 0 0 7.8759685,1.5911531 Z"
         style="fill:none;stroke:#000000;stroke-width:1.1929;stroke-linecap:round;stroke-linejoin:round"
         id="path3" />
      <circle
         style="fill:#000000;stroke:none;stroke-width:0.801427;stroke-linecap:round;stroke-linejoin:round;stroke-dasharray:none;stroke-opacity:1"
         id="circle1"
         cx="7.8759689"
         cy="4.1857123"
         r="0.89467525" />
      <circle
         style="fill:#000000;stroke:none;stroke-width:0.801427;stroke-linecap:round;stroke-linejoin:round;stroke-dasharray:none;stroke-opacity:1"
         id="circle2"
         cx="4.9658666"
         cy="5.3911166"
         r="0.89467525" />
      <path
         d="M 0.71856625,-1.2419863 A 2.3858008,2.3858016 0 0 0 -1.6672345,1.1438153 V 15.458625 a 2.3858008,2.3858016 0 0 0 2.38580075,2.385802 H 15.033371 a 2.3858008,2.3858016 0 0 0 2.385801,-2.385802 V 1.1438153 a 2.3858008,2.3858016 0 0 0 -2.385801,-2.3858016 z m -1.1929004,2.3858016 a 1.1929004,1.1929008 0 0 1 1.1929004,-1.19290076 H 15.033371 a 1.1929004,1.1929008 0 0 1 1.1929,1.19290076 V 15.458625 a 1.1929004,1.1929008 0 0 1 -1.1929,1.192901 H 0.71856625 a 1.1929004,1.1929008 0 0 1 -1.1929004,-1.192901 z"
         id="path2"
         style="stroke-width:1.42475" />
    </g>
  </g>
</svg>
