<?xml version="1.0" encoding="UTF-8" standalone="no"?>
<!-- Uploaded to: SVG Repo, www.svgrepo.com, Generator: SVG Repo Mixer Tools -->

<svg
   fill="#000000"
   height="16"
   width="16"
   version="1.1"
   id="Layer_1"
   viewBox="0 0 16 16"
   xml:space="preserve"
   sodipodi:docname="power_iec_c_13_14_socket_male.svg"
   inkscape:version="1.3.2 (091e20e, 2023-11-25)"
   xmlns:inkscape="http://www.inkscape.org/namespaces/inkscape"
   xmlns:sodipodi="http://sodipodi.sourceforge.net/DTD/sodipodi-0.dtd"
   xmlns="http://www.w3.org/2000/svg"
   xmlns:svg="http://www.w3.org/2000/svg"><defs
   id="defs4">
	

		
	</defs><sodipodi:namedview
   id="namedview4"
   pagecolor="#ffffff"
   bordercolor="#000000"
   borderopacity="0.25"
   inkscape:showpageshadow="2"
   inkscape:pageopacity="0.0"
   inkscape:pagecheckerboard="0"
   inkscape:deskcolor="#d1d1d1"
   inkscape:zoom="9.5173318"
   inkscape:cx="11.242647"
   inkscape:cy="3.4673583"
   inkscape:window-width="1536"
   inkscape:window-height="449"
   inkscape:window-x="0"
   inkscape:window-y="25"
   inkscape:window-maximized="0"
   inkscape:current-layer="Layer_1" />
<g
   id="g2"
   transform="translate(-42,-42)">
			
			<path
   id="path2"
   d="M 56.897246,48.54374 54.469502,46.116 c -0.235986,-0.23599 -0.549756,-0.36601 -0.88374,-0.36601 h -7.171524 c -0.334013,0 -0.647754,0.12999 -0.88374,0.36601 l -2.427744,2.42774 C 42.714014,48.93225 42.5,49.44951 42.5,50 c 0,0.55049 0.214014,1.06775 0.602754,1.45626 l 2.428506,2.42851 c 0.235488,0.23548 0.548994,0.36524 0.883008,0.36524 h 7.171494 c 0.334013,0 0.647754,-0.12999 0.88374,-0.36601 l 2.427744,-2.42774 C 57.285986,51.06775 57.5,50.55049 57.5,50 c 0,-0.55049 -0.214014,-1.06775 -0.602754,-1.45626 z M 44,50.50001 c -0.27624,0 -0.50001,-0.224 -0.50001,-0.50001 0,-0.27624 0.223741,-0.50001 0.50001,-0.50001 0.276269,0 0.50001,0.22377 0.50001,0.50001 0,0.27601 -0.22377,0.50001 -0.50001,0.50001 z m 9.75,1.99998 c 0,0.13825 -0.112002,0.24999 -0.24999,0.24999 h -7.00002 c -0.137988,0 -0.24999,-0.11174 -0.24999,-0.24999 v -4.99998 c 0,-0.13825 0.112002,-0.24999 0.24999,-0.24999 h 6.99999 c 0.137989,0 0.249991,0.11174 0.249991,0.24999 v 4.99998 z M 56,50.50001 c -0.27624,0 -0.50001,-0.224 -0.50001,-0.50001 0,-0.27624 0.22374,-0.50001 0.50001,-0.50001 0.27624,0 0.50001,0.22374 0.50001,0.50001 0,0.27601 -0.22377,0.50001 -0.50001,0.50001 z M 46.75001,52.25 h 6.50001 v -4.5 h -6.50001 z m 5.25,-3.75 c 0,-0.13825 0.112002,-0.24999 0.24999,-0.24999 0.137988,0 0.24999,0.11174 0.24999,0.24999 V 50 c 0,0.13825 -0.112002,0.24999 -0.24999,0.24999 -0.137988,0 -0.24999,-0.11174 -0.24999,-0.24999 z m -2.25,1.5 c 0,-0.13825 0.112002,-0.24999 0.24999,-0.24999 0.137988,0 0.24999,0.11174 0.24999,0.24999 v 1.5 c 0,0.13825 -0.112002,0.24999 -0.24999,0.24999 -0.137988,0 -0.24999,-0.11174 -0.24999,-0.24999 z m -2.25,-1.5 c 0,-0.13825 0.112002,-0.24999 0.24999,-0.24999 0.137988,0 0.24999,0.11174 0.24999,0.24999 V 50 c 0,0.13825 -0.112002,0.24999 -0.24999,0.24999 -0.137988,0 -0.24999,-0.11174 -0.24999,-0.24999 z"
   style="stroke-width:0.0292969" />
		</g>
</svg>
