<?xml version="1.0" encoding="UTF-8" standalone="no"?>
<!-- Uploaded to: SVG Repo, www.svgrepo.com, Generator: SVG Repo Mixer Tools -->

<svg
   fill="#000000"
   height="16"
   width="16"
   version="1.1"
   id="Layer_1"
   viewBox="0 0 16 16"
   xml:space="preserve"
   sodipodi:docname="power_iec_c_13_14_socket.svg"
   inkscape:version="1.3.2 (091e20e, 2023-11-25)"
   xmlns:inkscape="http://www.inkscape.org/namespaces/inkscape"
   xmlns:sodipodi="http://sodipodi.sourceforge.net/DTD/sodipodi-0.dtd"
   xmlns="http://www.w3.org/2000/svg"
   xmlns:svg="http://www.w3.org/2000/svg"><defs
   id="defs9">
	

		
	</defs><sodipodi:namedview
   id="namedview9"
   pagecolor="#ffffff"
   bordercolor="#000000"
   borderopacity="0.25"
   inkscape:showpageshadow="2"
   inkscape:pageopacity="0.0"
   inkscape:pagecheckerboard="0"
   inkscape:deskcolor="#d1d1d1"
   inkscape:zoom="14.75"
   inkscape:cx="8"
   inkscape:cy="8"
   inkscape:window-width="1536"
   inkscape:window-height="449"
   inkscape:window-x="0"
   inkscape:window-y="25"
   inkscape:window-maximized="0"
   inkscape:current-layer="Layer_1" />
<g
   id="g7">
			
			
			
			
			
			
			<path
   id="path7"
   d="m 10.25,8.24999 c 0.138076,0 0.24999,-0.11191 0.24999,-0.24999 V 6.5 c 0,-0.13808 -0.111943,-0.24999 -0.24999,-0.24999 -0.138076,0 -0.24999,0.11191 -0.24999,0.24999 V 8 c 0,0.13808 0.111914,0.24999 0.24999,0.24999 z M 8,9.74999 C 8.1380762,9.74999 8.2499902,9.63808 8.2499902,9.5 V 8 C 8.2499902,7.86192 8.1380762,7.75001 8,7.75001 7.8619238,7.75001 7.7500098,7.86192 7.7500098,8 v 1.5 c 0,0.13808 0.111914,0.24999 0.2499902,0.24999 z m -2.25,-1.5 C 5.8880762,8.24999 5.9999902,8.13808 5.9999902,8 V 6.5 C 5.9999902,6.36192 5.8880762,6.25001 5.75,6.25001 5.6119238,6.25001 5.5000098,6.36192 5.5000098,6.5 V 8 c 0,0.13808 0.111914,0.24999 0.2499902,0.24999 z M 11.50001,5.25005 H 4.4999902 C 4.3619141,5.25005 4.25,5.36196 4.25,5.50004 v 5.00001 c 0,0.13807 0.1119141,0.24999 0.2499902,0.24999 H 11.49998 c 0.138077,0 0.249991,-0.11194 0.249991,-0.24999 V 5.50004 C 11.75,5.36199 11.638086,5.25005 11.50001,5.25005 Z m -0.25002,5.00001 H 4.7500098 v -4.5 H 11.25002 v 4.5 z M 14,7.49999 c -0.276006,0 -0.50001,0.224 -0.50001,0.50001 0,0.27601 0.224004,0.50001 0.50001,0.50001 0.276006,0 0.50001,-0.224 0.50001,-0.50001 0,-0.27601 -0.224004,-0.50001 -0.50001,-0.50001 z m -12,0 C 1.7239941,7.49999 1.4999902,7.72399 1.4999902,8 1.4999902,8.27601 1.7239941,8.50001 2,8.50001 2.2760059,8.50001 2.5000098,8.27601 2.5000098,8 2.5000098,7.72399 2.2760059,7.49999 2,7.49999 Z M 14.897275,6.54371 12.469531,4.11597 C 12.235156,3.88159 11.917314,3.74999 11.585762,3.74999 H 4.4142383 c -0.3315528,0 -0.6493946,0.1316 -0.8837696,0.36598 L 1.1027246,6.54371 C 0.71647461,6.92996 0.5,7.45326 0.5,8 c 0,0.54674 0.21647461,1.07004 0.6027246,1.45629 0.2231543,0.22315 0.5003906,0.50039 1.095293,1.09535 0.6633691,0.6634 1.0663183,1.06635 1.3332715,1.33318 0.2341992,0.2342 0.55125,0.36519 0.8829785,0.36519 h 7.1714944 c 0.331552,0 0.649394,-0.1316 0.883769,-0.36598 L 14.897275,9.45629 C 15.283525,9.07004 15.5,8.54674 15.5,8 15.5,7.45326 15.283525,6.92996 14.897275,6.54371 Z m -0.353554,2.55902 -2.427744,2.42775 C 11.975381,11.67107 11.784746,11.75 11.585762,11.75 H 4.4142383 C 4.2149316,11.75 4.0251172,11.6716 3.8847559,11.53121 3.6178027,11.2644 3.2148828,10.86145 2.551748,10.19826 1.9566699,9.60312 1.6794336,9.32589 1.4562793,9.1027 1.1638672,8.81029 1.0000098,8.4142 1.0000098,7.99997 c 0,-0.41423 0.1638574,-0.81029 0.4562695,-1.10273 L 3.8840234,4.46949 C 4.0246191,4.3289 4.2152539,4.24997 4.4142383,4.24997 h 7.1714937 c 0.198985,0 0.389649,0.0789 0.530215,0.21952 l 2.427744,2.42775 c 0.292413,0.29241 0.45627,0.6885 0.45627,1.10273 2.9e-5,0.41426 -0.163799,0.81032 -0.45624,1.10276 z"
   style="stroke-width:0.0292969" />
		</g>
</svg>
