<?xml version="1.0" encoding="UTF-8" standalone="no"?>
<!-- Uploaded to: SVG Repo, www.svgrepo.com, Generator: SVG Repo Mixer Tools -->

<svg
   fill="#000000"
   height="16"
   width="16"
   version="1.1"
   id="Layer_1"
   viewBox="0 0 16 16"
   xml:space="preserve"
   sodipodi:docname="power_type_c_plug_male.svg"
   inkscape:version="1.3.2 (091e20e, 2023-11-25)"
   xmlns:inkscape="http://www.inkscape.org/namespaces/inkscape"
   xmlns:sodipodi="http://sodipodi.sourceforge.net/DTD/sodipodi-0.dtd"
   xmlns="http://www.w3.org/2000/svg"
   xmlns:svg="http://www.w3.org/2000/svg"><defs
   id="defs2">
	

		
	</defs><sodipodi:namedview
   id="namedview2"
   pagecolor="#ffffff"
   bordercolor="#000000"
   borderopacity="0.25"
   inkscape:showpageshadow="2"
   inkscape:pageopacity="0.0"
   inkscape:pagecheckerboard="0"
   inkscape:deskcolor="#d1d1d1"
   inkscape:current-layer="Layer_1" />
<path
   d="m 12.696586,4.6337879 h -1.174154 v -2.959634 c 0,-0.6469394 -0.526849,-1.17415399 -1.174155,-1.17415399 -0.6473645,0 -1.1741535,0.52721459 -1.1741535,1.17415399 v 2.959634 h -2.348308 v -2.959634 c 0,-0.6469394 -0.52685,-1.17415399 -1.1741542,-1.17415399 -0.6473649,0 -1.174154,0.52721459 -1.174154,1.17415399 v 2.959634 H 3.3033532 c -0.2164163,0 -0.3913847,0.174968 -0.3913847,0.3913847 v 1.5655389 c 0,0.2164155 0.1749684,0.3913847 0.3913847,0.3913847 h 0.3913847 v 2.7396915 c 0,2.0739763 1.2876799,3.5224633 3.1310776,3.5224633 h 0.7523823 c -0.1285979,0.775598 -1.0044993,1.213543 -1.3534982,1.540865 -0.3489989,0.327321 0.067856,0.88668 0.4136888,0.663835 0.7463657,-0.465955 1.5826163,-0.987882 1.7301147,-2.204639 h 0.8056814 c 1.8433985,0 3.1310785,-1.448488 3.1310785,-3.5224623 V 6.9821565 h 0.391384 c 0.216417,0 0.391385,-0.174968 0.391385,-0.3913847 V 5.0252341 C 13.08797,4.8087559 12.913002,4.6337879 12.696586,4.6337879 Z M 9.9568925,1.6741539 c 0,-0.2160516 0.1753335,-0.3913846 0.3913845,-0.3913846 0.216052,0 0.391384,0.175333 0.391384,0.3913846 v 2.959634 H 9.9568925 Z m -4.6966158,0 c 0,-0.2160516 0.175333,-0.3913846 0.3913846,-0.3913846 0.2160517,0 0.3913847,0.175333 0.3913847,0.3913846 v 2.959634 H 5.2602767 Z m 6.2621553,8.0476338 c 0,1.3635873 -0.726006,2.7396933 -2.3483085,2.7396933 h -2.348308 c -1.6223018,0 -2.3483082,-1.376106 -2.3483082,-2.7396933 V 6.9820962 h 7.0449247 z m 0.782769,-3.5224609 h -0.391324 -6e-5 -7.8276942 -6.1e-5 -0.3913237 V 5.4165573 h 1.1664357 c 0.00262,6.03e-5 0.00511,3.64e-4 0.00771,3.64e-4 0.00262,0 0.00511,-3.64e-4 0.00771,-3.64e-4 h 4.6811807 c 0.0026,6.03e-5 0.0051,3.64e-4 0.0077,3.64e-4 0.0026,0 0.0051,-3.64e-4 0.0077,-3.64e-4 h 2.7319735 z"
   id="path1"
   style="stroke-width:0.834247"
   inkscape:label="plug"
   sodipodi:nodetypes="scsssccssscsssscssczccsscsscssssccssssccsssssccsccccccccsscsscc" />
</svg>
