<?xml version="1.0" encoding="UTF-8" standalone="no"?>
<svg
   width="16"
   height="16"
   fill="currentColor"
   viewBox="0 0 16 16"
   version="1.1"
   id="svg2"
   sodipodi:docname="power_dc_socket.svg"
   inkscape:version="1.3.2 (091e20e, 2023-11-25)"
   xmlns:inkscape="http://www.inkscape.org/namespaces/inkscape"
   xmlns:sodipodi="http://sodipodi.sourceforge.net/DTD/sodipodi-0.dtd"
   xmlns="http://www.w3.org/2000/svg"
   xmlns:svg="http://www.w3.org/2000/svg">
  <defs
     id="defs1" />
  <sodipodi:namedview
     inkscape:zoom="5.711204"
     inkscape:cx="23.637748"
     inkscape:cy="24.688314"
     inkscape:window-width="1536"
     inkscape:window-height="815"
     inkscape:window-x="144"
     inkscape:window-y="25"
     inkscape:window-maximized="0"
     inkscape:current-layer="svg2"
     id="namedview1"
     pagecolor="#ffffff"
     bordercolor="#000000"
     borderopacity="0.25"
     inkscape:showpageshadow="2"
     inkscape:pageopacity="0.0"
     inkscape:pagecheckerboard="0"
     inkscape:deskcolor="#d1d1d1" />
  <g
     id="g5"
     inkscape:label="main">
    <path
       id="rect1"
       style="display:inline;fill:#808080;stroke-width:1.19435;stroke-linecap:square;stroke-linejoin:round;stroke-miterlimit:4.7;stroke-dasharray:none"
       d="M 3,-2.243649e-8 V 8.8010913 H 3.023437 A 5,4.8894952 0 0 0 3,9.1105048 5,4.8894952 0 0 0 8,14 5,4.8894952 0 0 0 13,9.1105048 5,4.8894952 0 0 0 12.988284,8.8010913 H 13 V -2.243649e-8 Z"
       inkscape:label="back"
       sodipodi:insensitive="true" />
    <circle
       style="display:inline;fill:#000000;stroke-width:0.999995;stroke-linecap:square;stroke-linejoin:round;stroke-miterlimit:4.7"
       id="circle4"
       cx="8"
       cy="8.5"
       r="3.5" />
    <path
       d="m 9.7237011,5.7399506 c -0.4840629,-0.337485 -1.0599043,-0.51856 -1.65,-0.5188474 -0.5904412,0.00123 -1.166313,0.1834421 -1.65,0.5220704 v 0.7428221 c 0,0.4570495 0.102692,0.4513811 0.5597365,0.4492801 h 2.2164705 c 0.4570447,-0.0021 0.523793,0.00777 0.523793,-0.4492797 z"
       style="display:inline;fill:#bfbfbf;stroke-width:0.999987;stroke-linecap:square;stroke-linejoin:round;stroke-miterlimit:4.7"
       id="path4"
       sodipodi:nodetypes="cccssssc" />
    <circle
       style="display:inline;fill:#ffffff;stroke-width:1;stroke-linecap:square;stroke-linejoin:round;stroke-miterlimit:4.7"
       id="path2"
       cx="8"
       cy="8.5"
       r="1"
       sodipodi:insensitive="true" />
  </g>
</svg>
