<?xml version="1.0" encoding="UTF-8" standalone="no"?>
<!-- Uploaded to: SVG Repo, www.svgrepo.com, Generator: SVG Repo Mixer Tools -->

<svg
   fill="#000000"
   height="16"
   width="16"
   version="1.1"
   id="Layer_1"
   viewBox="0 0 16 16"
   xml:space="preserve"
   sodipodi:docname="power_type_a_plug_male.svg"
   inkscape:version="1.3.2 (091e20e, 2023-11-25)"
   xmlns:inkscape="http://www.inkscape.org/namespaces/inkscape"
   xmlns:sodipodi="http://sodipodi.sourceforge.net/DTD/sodipodi-0.dtd"
   xmlns="http://www.w3.org/2000/svg"
   xmlns:svg="http://www.w3.org/2000/svg"><defs
   id="defs2">
	

		
	</defs><sodipodi:namedview
   id="namedview2"
   pagecolor="#ffffff"
   bordercolor="#000000"
   borderopacity="0.25"
   inkscape:showpageshadow="2"
   inkscape:pageopacity="0.0"
   inkscape:pagecheckerboard="0"
   inkscape:deskcolor="#d1d1d1"
   inkscape:current-layer="Layer_1" />
<path
   d="M 12.696586,4.6337879 H 10.577421 V 0.39662611 H 9.8654913 V 4.6337879 H 6.1645068 V 0.39662611 H 5.4797514 V 4.6337879 H 3.303353 c -0.2164163,0 -0.3913847,0.174968 -0.3913847,0.3913847 v 1.5655389 c 0,0.2164155 0.1749684,0.3913847 0.3913847,0.3913847 h 1.0975961 c 1.6347516,2.5865393 2.0827172,6.2338378 2.0827172,6.2338378 0,0 1.0596792,0.529475 0.8733766,1.939972 -0.057959,0.438807 1.3813443,0.490142 1.3268798,0.05089 -0.1779165,-1.434894 0.9553112,-1.926547 0.9553112,-1.926547 0,0 0.3773131,-3.9006248 1.8668821,-6.2980905 h 1.190531 c 0.216417,0 0.391385,-0.174968 0.391385,-0.3913847 V 5.0252341 C 13.08797,4.8087559 12.913002,4.6337879 12.696586,4.6337879 Z M 9.0909345,12.461481 H 7.0552417 c 0,0 -0.2369624,-3.0458416 -1.8715232,-5.4793848 H 10.668918 C 9.0757133,9.5396114 9.0909345,12.461481 9.0909345,12.461481 Z M 12.305201,6.1993268 H 3.6947379 V 5.4165573 h 8.6104101 z"
   id="path1"
   style="stroke-width:0.834247"
   inkscape:label="plug"
   sodipodi:nodetypes="sccccccccssssccssccsscscccccccccc" />
</svg>
