<?xml version="1.0" encoding="UTF-8" standalone="no"?>
<svg
   width="16"
   height="16"
   fill="currentColor"
   viewBox="0 0 16 16"
   version="1.1"
   id="svg2"
   sodipodi:docname="dc_socket.svg"
   xmlns:sodipodi="http://sodipodi.sourceforge.net/DTD/sodipodi-0.dtd"
   xmlns="http://www.w3.org/2000/svg"
   xmlns:svg="http://www.w3.org/2000/svg">
  <defs
     id="defs2" />
  <sodipodi:namedview
     id="namedview2"
     pagecolor="#ffffff"
     bordercolor="#000000"
     borderopacity="0.25"
     inkscape:showpageshadow="2"
     inkscape:pageopacity="0.0"
     inkscape:pagecheckerboard="0"
     inkscape:deskcolor="#d1d1d1"
     inkscape:zoom="5.711204"
     inkscape:cx="23.725295"
     inkscape:cy="24.688314"
     inkscape:window-width="1536"
     inkscape:window-height="815"
     inkscape:window-x="144"
     inkscape:window-y="25"
     inkscape:window-maximized="0"
     inkscape:current-layer="g5"
     showgrid="false" />
  <g
     id="g5">
    <g
       id="g6"
       transform="matrix(0.67922794,0,0,0.55121306,2.6300847,0.64649931)"
       style="stroke-width:1.6363;stroke-dasharray:none"
       sodipodi:insensitive="true">
      <path
         id="rect1"
         style="display:inline;fill:#808080;stroke-width:1.95193;stroke-linecap:square;stroke-linejoin:round;stroke-miterlimit:4.7"
         d="M 0.54461143,-1.1728665 V 14.793902 h 0.0345061 a 7.3612991,8.8704269 0 0 0 -0.0345061,0.561332 7.3612991,8.8704269 0 0 0 7.36129907,8.870427 7.3612991,8.8704269 0 0 0 7.3612995,-8.870427 7.3612991,8.8704269 0 0 0 -0.01725,-0.561332 h 0.01725 V -1.1728665 Z"
         inkscape:label="back"
         sodipodi:insensitive="true" />
    </g>
    <circle
       style="display:inline;fill:#000000;stroke-width:0.999995;stroke-linecap:square;stroke-linejoin:round;stroke-miterlimit:4.7"
       id="circle4"
       cx="8"
       cy="8.5"
       r="3.5" />
    <path
       d="m 9.7237011,5.7399506 c -0.4840629,-0.337485 -1.0599043,-0.51856 -1.65,-0.5188474 -0.5904412,0.00123 -1.166313,0.1834421 -1.65,0.5220704 v 0.7428221 c 0,0.4570495 0.102692,0.4513811 0.5597365,0.4492801 h 2.2164705 c 0.4570447,-0.0021 0.523793,0.00777 0.523793,-0.4492797 z"
       style="display:inline;fill:#bfbfbf;stroke-width:0.999987;stroke-linecap:square;stroke-linejoin:round;stroke-miterlimit:4.7"
       id="path4"
       sodipodi:nodetypes="cccssssc" />
    <circle
       style="display:inline;fill:#ffffff;stroke-width:1;stroke-linecap:square;stroke-linejoin:round;stroke-miterlimit:4.7"
       id="path2"
       cx="8"
       cy="8.5"
       r="1"
       sodipodi:insensitive="true" />
  </g>
</svg>
