<?xml version="1.0" encoding="UTF-8" standalone="no"?>
<!-- Created with Inkscape (http://www.inkscape.org/) -->

<svg
   width="16"
   height="16"
   viewBox="0 0 16 16"
   version="1.1"
   id="svg1"
   sodipodi:docname="usb3_a_socket.svg"
   inkscape:version="1.3.2 (091e20e, 2023-11-25)"
   xmlns:inkscape="http://www.inkscape.org/namespaces/inkscape"
   xmlns:sodipodi="http://sodipodi.sourceforge.net/DTD/sodipodi-0.dtd"
   xmlns="http://www.w3.org/2000/svg"
   xmlns:svg="http://www.w3.org/2000/svg">
  <sodipodi:namedview
     id="namedview1"
     pagecolor="#ffffff"
     bordercolor="#000000"
     borderopacity="0.25"
     inkscape:showpageshadow="2"
     inkscape:pageopacity="0.0"
     inkscape:pagecheckerboard="0"
     inkscape:deskcolor="#d1d1d1"
     inkscape:document-units="px"
     inkscape:zoom="18.49107"
     inkscape:cx="8.4094648"
     inkscape:cy="5.8947374"
     inkscape:window-width="1672"
     inkscape:window-height="765"
     inkscape:window-x="0"
     inkscape:window-y="25"
     inkscape:window-maximized="0"
     inkscape:current-layer="layer1" />
  <defs
     id="defs1" />
  <g
     inkscape:label="Слой 1"
     inkscape:groupmode="layer"
     id="layer1">
    <rect
       style="fill:#3366cc;stroke:none;stroke-width:0.999996;stroke-linecap:square;stroke-linejoin:round;stroke-miterlimit:4.7"
       id="rect2"
       width="14"
       height="2"
       x="1"
       y="12"
       rx="0.029530456"
       ry="0.029530456" />
    <rect
       style="fill:none;stroke:#000000;stroke-width:1;stroke-linecap:square;stroke-linejoin:round;stroke-miterlimit:4.7"
       id="rect1"
       width="13"
       height="5"
       x="1.5"
       y="9.5"
       rx="0.029530458"
       ry="0.029530456" />
    <g
       id="g6"
       transform="matrix(1,0,0,2,-0.5,-12.2)"
       style="stroke-width:0.707107">
      <rect
         style="fill:#000000;stroke:none;stroke-width:0.707107;stroke-linecap:square;stroke-linejoin:round;stroke-miterlimit:4.7"
         id="rect3"
         width="1.5"
         height="0.5"
         x="4"
         y="12"
         rx="0.029530458"
         ry="0.014765228" />
      <rect
         style="fill:#000000;stroke:none;stroke-width:0.707107;stroke-linecap:square;stroke-linejoin:round;stroke-miterlimit:4.7"
         id="rect4"
         width="1.5"
         height="0.5"
         x="6.5"
         y="12"
         rx="0.029530458"
         ry="0.014765228" />
      <rect
         style="fill:#000000;stroke:none;stroke-width:0.707107;stroke-linecap:square;stroke-linejoin:round;stroke-miterlimit:4.7"
         id="rect5"
         width="1.5"
         height="0.5"
         x="9"
         y="12"
         rx="0.029530458"
         ry="0.014765228" />
      <rect
         style="fill:#000000;stroke:none;stroke-width:0.707107;stroke-linecap:square;stroke-linejoin:round;stroke-miterlimit:4.7"
         id="rect6"
         width="1.5"
         height="0.5"
         x="11.5"
         y="12"
         rx="0.029530458"
         ry="0.014765228" />
    </g>
    <path
       d="M 2.125251,3.0607884 H 1.5000001 v 2.162326 q 0,0.3126254 0.082498,0.5080163 0.082498,0.1953909 0.221443,0.3039414 0.1389446,0.1042085 0.3169674,0.1389447 0.1780229,0.034736 0.3690717,0.034736 0.1910489,0 0.3690718,-0.039078 0.1780228,-0.039078 0.3169674,-0.1519707 0.1389447,-0.1128926 0.221443,-0.3039414 0.082498,-0.195391 0.082498,-0.4906483 V 3.0607884 H 2.8547103 v 2.162326 q 0,0.1172345 -0.017368,0.217101 -0.013026,0.095524 -0.056446,0.1693388 -0.039078,0.069472 -0.1085505,0.1128925 -0.069472,0.039078 -0.1823649,0.039078 -0.1085505,0 -0.1823648,-0.039078 Q 2.2381435,5.6790265 2.1947233,5.6095542 2.1556451,5.5357398 2.138277,5.4402154 2.125251,5.3403489 2.125251,5.2231144 Z M 4.3787599,5.1927202 H 3.7535091 v 0.1259186 q 0,0.42986 0.225785,0.6599871 0.2301271,0.230127 0.7598535,0.230127 0.5080163,0 0.7902476,-0.221443 0.2865734,-0.225785 0.2865734,-0.7164333 0,-0.1432867 -0.026052,-0.2605212 Q 5.7638643,4.8931209 5.694392,4.7975964 5.6292617,4.69773 5.5163692,4.6152316 5.4034767,4.5283912 5.2254538,4.4502348 L 4.7434896,4.2418179 Q 4.5437567,4.1593195 4.4829684,4.063795 4.4221801,3.9639286 4.4221801,3.8206419 q 0,-0.069472 0.013026,-0.1346026 0.017368,-0.06513 0.056446,-0.1128925 0.04342,-0.052104 0.1128925,-0.082498 0.069472,-0.030394 0.1736808,-0.030394 0.1823648,0 0.2605212,0.1215765 0.078156,0.1172346 0.078156,0.3386776 h 0.5991988 v -0.08684 q 0,-0.221443 -0.073814,-0.3777558 Q 5.5728154,3.2952575 5.4425548,3.195391 5.3166363,3.0911826 5.1386134,3.0477624 4.9649326,3.0000001 4.7565157,3.0000001 q -0.4472281,0 -0.7034073,0.2257851 -0.2561791,0.225785 -0.2561791,0.6860391 0,0.1910489 0.047762,0.3386776 0.047762,0.1432867 0.1476287,0.2561792 0.1042084,0.1085505 0.2561791,0.1910489 0.1519707,0.082498 0.3603877,0.1519707 0.1563127,0.052104 0.2605212,0.1042084 0.1085505,0.047762 0.1736808,0.1085505 0.06513,0.060788 0.091182,0.1389447 0.030394,0.073814 0.030394,0.1780228 0,0.1953909 -0.1172346,0.2909154 -0.1128925,0.091182 -0.2561792,0.091182 -0.1215765,0 -0.2040749,-0.034736 Q 4.5090205,5.6920526 4.4612583,5.6312643 4.4134961,5.570476 4.396128,5.4836356 4.3787599,5.3924532 4.3787599,5.2839027 Z M 6.753841,5.7007366 V 4.7672023 h 0.2692053 q 0.1042084,0 0.1910488,0.02171 0.08684,0.02171 0.1476287,0.078156 0.06513,0.052104 0.099867,0.1432867 0.039078,0.08684 0.039078,0.221443 0,0.2692053 -0.1389447,0.3690717 -0.1389446,0.099867 -0.3647297,0.099867 z m 0,-1.3677363 V 3.5210425 h 0.2257851 q 0.234469,0 0.3430195,0.091182 0.1085505,0.091182 0.1085505,0.3126254 0,0.221443 -0.1215765,0.3169675 -0.1172346,0.091182 -0.3777558,0.091182 z M 6.1285901,3.0607884 V 6.1609907 H 7.183701 q 0.2735473,0 0.4559121,-0.073814 Q 7.82632,6.013362 7.9392125,5.8917855 8.056447,5.7658669 8.1042092,5.6008701 q 0.047762,-0.1649967 0.047762,-0.3473616 0,-0.3126254 -0.1519707,-0.4993323 Q 7.8480301,4.5674694 7.5875089,4.5327332 v -0.00868 Q 7.8219779,4.4589189 7.9392125,4.280896 8.056447,4.0985312 8.056447,3.846694 q 0,-0.221443 -0.06513,-0.3734137 Q 7.9261864,3.3213096 7.8089519,3.2301272 7.6917173,3.1389448 7.5267206,3.0998666 7.3660658,3.0607884 7.175017,3.0607884 Z M 10.053775,5.2621926 H 9.4545759 v 0.013026 q 0,0.4472281 0.221443,0.6903812 0.221443,0.2431531 0.6686711,0.2431531 0.321309,0 0.5167,-0.082498 0.199733,-0.082498 0.312626,-0.217101 0.112892,-0.1346027 0.151971,-0.2995994 0.03908,-0.1649968 0.03908,-0.3213095 0,-0.2909154 -0.125919,-0.4819642 Q 11.11757,4.6108896 10.81797,4.5631273 v -0.00868 q 0.221443,-0.047762 0.34302,-0.221443 0.125918,-0.1780228 0.125918,-0.4559121 0,-0.4081499 -0.234469,-0.5991988 -0.230127,-0.1910489 -0.651303,-0.1910489 -0.4428858,0 -0.6730128,0.2257851 -0.2301271,0.221443 -0.2301271,0.6816971 h 0.5731469 q 0,-0.1085505 0.0087,-0.1997329 0.01303,-0.091182 0.04776,-0.1563127 0.03474,-0.069472 0.09552,-0.1042085 0.06513,-0.039078 0.164997,-0.039078 0.151971,0 0.225785,0.091182 0.07381,0.091182 0.07381,0.3126255 0,0.095524 -0.02171,0.1823648 -0.01737,0.08684 -0.06079,0.1563127 -0.03908,0.06513 -0.10855,0.1085505 -0.06513,0.039078 -0.164997,0.039078 h -0.204075 v 0.4081499 h 0.208417 q 0.130261,0 0.208417,0.04342 0.07816,0.04342 0.121576,0.1172345 0.04342,0.073814 0.05645,0.1693388 0.01737,0.091182 0.01737,0.1953909 0,0.099866 -0.01303,0.1910489 -0.0087,0.091182 -0.04776,0.1606548 -0.03474,0.06513 -0.104209,0.1042084 -0.06513,0.039078 -0.178023,0.039078 -0.204075,0 -0.273547,-0.1389446 -0.06513,-0.1432867 -0.06947,-0.4124919 z m 2.205744,0.221443 h -0.573147 v 0.6773551 h 0.573147 z m 0.312624,-0.7555115 q 0,0.4081499 0.04342,0.6947232 0.04776,0.2822313 0.156313,0.4602541 0.112893,0.1780229 0.299599,0.2518372 0.186707,0.073814 0.464597,0.073814 0.343019,0 0.534068,-0.1302606 Q 14.265531,5.9482317 14.361055,5.7224467 14.45658,5.4923196 14.47829,5.1970623 14.5,4.9018049 14.5,4.5804954 q 0,-0.4081499 -0.04776,-0.6903812 -0.04342,-0.2865733 -0.156313,-0.4645961 -0.10855,-0.1780228 -0.295257,-0.2561792 -0.182365,-0.082498 -0.464596,-0.082498 -0.34302,0 -0.538411,0.1389447 -0.191049,0.1346026 -0.286573,0.3647297 -0.09553,0.225785 -0.117235,0.5210424 -0.02171,0.2952573 -0.02171,0.6165668 z m 0.625251,0.1346026 V 4.5283912 q 0,-0.2952574 0.01303,-0.4949903 0.01737,-0.1997329 0.0521,-0.3169675 0.03908,-0.1215765 0.104209,-0.1693387 0.06513,-0.052104 0.169339,-0.052104 0.09987,0 0.164996,0.039078 0.06513,0.039078 0.104209,0.1476287 0.03908,0.1042085 0.0521,0.2909153 0.01737,0.1823649 0.01737,0.4732802 v 0.3343355 q 0,0.2952574 -0.01737,0.4949903 -0.01303,0.1997329 -0.0521,0.3213095 -0.03474,0.1172346 -0.09987,0.1693388 -0.06513,0.047762 -0.169338,0.047762 -0.09987,0 -0.164997,-0.039078 -0.06513,-0.039078 -0.104209,-0.1432866 -0.03908,-0.1085505 -0.05645,-0.2909154 -0.01303,-0.1867068 -0.01303,-0.4776222 z"
       id="text6"
       style="font-weight:bold;font-stretch:condensed;font-size:4.34202px;font-family:'Helvetica Neue';-inkscape-font-specification:'Helvetica Neue, Bold Condensed';stroke-width:0.999997;stroke-linecap:square;stroke-linejoin:round;stroke-miterlimit:4.7"
       aria-label="USB 3.0" />
    <text
       xml:space="preserve"
       style="font-style:normal;font-variant:normal;font-weight:bold;font-stretch:condensed;font-size:3.84558px;font-family:'Helvetica Neue';-inkscape-font-specification:'Helvetica Neue, Bold Condensed';font-variant-ligatures:normal;font-variant-caps:normal;font-variant-numeric:normal;font-variant-east-asian:normal;fill:#000000;stroke:none;stroke-linecap:square;stroke-linejoin:round;stroke-miterlimit:4.7"
       x="12.384357"
       y="1.2979238"
       id="text8"><tspan
         sodipodi:role="line"
         id="tspan8"></tspan></text>
  </g>
</svg>
