<?xml version="1.0" encoding="UTF-8" standalone="no"?>
<!-- Created with Inkscape (http://www.inkscape.org/) -->

<svg
   width="16"
   height="16"
   viewBox="0 0 16 16"
   version="1.1"
   id="svg1"
   sodipodi:docname="usb_type_c_socket.svg"
   inkscape:version="1.3.2 (091e20e, 2023-11-25)"
   xmlns:inkscape="http://www.inkscape.org/namespaces/inkscape"
   xmlns:sodipodi="http://sodipodi.sourceforge.net/DTD/sodipodi-0.dtd"
   xmlns="http://www.w3.org/2000/svg"
   xmlns:svg="http://www.w3.org/2000/svg">
  <sodipodi:namedview
     id="namedview1"
     pagecolor="#ffffff"
     bordercolor="#000000"
     borderopacity="0.25"
     inkscape:showpageshadow="2"
     inkscape:pageopacity="0.0"
     inkscape:pagecheckerboard="0"
     inkscape:deskcolor="#d1d1d1"
     inkscape:document-units="px"
     inkscape:zoom="14.75"
     inkscape:cx="8"
     inkscape:cy="8"
     inkscape:window-width="1536"
     inkscape:window-height="449"
     inkscape:window-x="0"
     inkscape:window-y="25"
     inkscape:window-maximized="0"
     inkscape:current-layer="layer1" />
  <defs
     id="defs1" />
  <g
     inkscape:label="Слой 1"
     inkscape:groupmode="layer"
     id="layer1">
    <path
       d="m 1.6282396,3.1592734 v 2.0313193 q 0,0.2444695 0.066674,0.4667145 0.071118,0.2178001 0.2178001,0.3822614 0.1511266,0.1644613 0.3822614,0.2622491 0.2355797,0.093343 0.5645023,0.093343 0.3333676,0 0.5645024,-0.093343 Q 3.659559,6.2040299 3.8062407,6.0395686 3.9573673,5.8751073 4.0240408,5.6573072 4.0951592,5.4350622 4.0951592,5.1905927 V 3.1592734 H 3.792906 v 1.9646458 q 0,0.2755838 -0.062229,0.4711594 -0.062229,0.1911307 -0.1822409,0.3155879 -0.1200123,0.1200123 -0.2933634,0.177796 -0.1733511,0.053339 -0.3955962,0.053339 -0.2178001,0 -0.3911512,-0.053339 Q 2.2949746,6.0306788 2.1749623,5.9106665 2.05495,5.7862093 1.9927214,5.5950786 1.9304928,5.399503 1.9304928,5.1239192 V 3.1592734 Z M 4.846345,5.2883805 H 4.5440918 q -0.013335,0.2933634 0.075563,0.5022737 0.093343,0.2089103 0.2622491,0.3422573 0.1689062,0.133347 0.4089308,0.2000205 0.2400246,0.062229 0.5200533,0.062229 0.2800287,0 0.4800492,-0.053339 Q 6.490958,6.2929279 6.624305,6.2129197 6.7620969,6.1284666 6.8376602,6.0262339 6.9176684,5.9240012 6.9576725,5.8262134 7.0021215,5.7239807 7.0110113,5.6350827 7.024346,5.5461847 7.024346,5.4928459 q 0,-0.1955756 -0.066674,-0.3333675 Q 6.8954439,5.0216865 6.7798765,4.9283436 6.668754,4.8305558 6.5176274,4.7683272 6.3709457,4.7016537 6.2020395,4.6572047 L 5.4286269,4.466074 Q 5.3308391,4.4438495 5.2419411,4.4082903 5.157488,4.3727311 5.0908145,4.3149474 5.024141,4.2571637 4.9841369,4.1771555 4.9485777,4.0927024 4.9485777,3.9815799 q 0,-0.177796 0.066673,-0.2978083 0.066674,-0.1200123 0.1733511,-0.1911307 0.1111225,-0.075563 0.2533593,-0.1066776 0.1466817,-0.035559 0.3022532,-0.035559 0.1689062,0 0.3200328,0.048894 0.1555715,0.044449 0.2711389,0.1377919 0.1200123,0.088898 0.1911307,0.2266899 0.075563,0.133347 0.084453,0.3155879 h 0.3022532 q 0,-0.2444695 -0.097788,-0.4267104 Q 6.7220928,3.4659715 6.5620764,3.3415143 6.40206,3.2170571 6.1887048,3.1548285 5.9753496,3.0925999 5.7397699,3.0925999 q -0.3333675,0 -0.5467227,0.097788 -0.2133552,0.093343 -0.3378124,0.2311348 -0.1200123,0.1377919 -0.1644613,0.2933634 -0.044449,0.1555715 -0.044449,0.2711389 0,0.1866858 0.057784,0.3155879 0.062229,0.1289021 0.1600164,0.2178001 0.097788,0.088898 0.2266899,0.1422368 0.133347,0.053339 0.2711389,0.088898 l 0.7067391,0.1733511 q 0.1111225,0.026669 0.2266899,0.071118 0.1155674,0.040004 0.2089103,0.1066776 0.097788,0.066673 0.1555715,0.1644613 0.062229,0.097788 0.062229,0.2311348 0,0.1733511 -0.084453,0.2978083 -0.084453,0.1200123 -0.2133552,0.2000205 -0.1244572,0.075563 -0.2711389,0.1111225 -0.1466817,0.035559 -0.2711389,0.035559 -0.2178001,0 -0.4089308,-0.040004 Q 5.2819452,6.0573482 5.1397084,5.9595604 5.0019165,5.8617726 4.9219083,5.6973113 4.8419001,5.53285 4.846345,5.2883805 Z M 7.8066446,4.5505271 V 3.4170776 h 1.0401066 q 0.7156289,0 0.7156289,0.5956166 0,0.1111225 -0.044449,0.2089103 -0.044449,0.097788 -0.133347,0.1733511 -0.088898,0.071118 -0.222245,0.1155674 -0.133347,0.040004 -0.3155879,0.040004 z M 7.5043914,3.1592734 V 6.332932 h 1.3423598 q 0.2578042,0 0.4400451,-0.044449 0.1866858,-0.048894 0.311143,-0.1200123 0.1289021,-0.075563 0.2044654,-0.1733511 0.075563,-0.097788 0.1155674,-0.1955756 0.040004,-0.1022327 0.053339,-0.1955756 0.013335,-0.097788 0.013335,-0.1733511 0,-0.311143 -0.1822409,-0.5200533 Q 9.6201638,4.6972088 9.3134657,4.6572047 v -0.00889 q 0.1244572,-0.026669 0.222245,-0.093343 0.1022327,-0.066674 0.1733511,-0.1600164 0.075563,-0.097788 0.1155674,-0.2133552 0.040004,-0.1200123 0.040004,-0.2444695 0,-0.222245 -0.084453,-0.3689267 Q 9.6957271,3.4170776 9.5534903,3.3281796 9.4156984,3.2348367 9.2290126,3.1992775 9.0467717,3.1592734 8.8467512,3.1592734 Z M 7.8066446,6.0751278 V 4.8083313 h 1.0401066 q 0.4044859,0 0.6178411,0.1555715 0.2178001,0.1511266 0.2178001,0.4578247 0,0.1911307 -0.066674,0.3200328 Q 9.5490454,5.8662175 9.433478,5.9417808 9.3179106,6.0173441 9.166784,6.0484584 9.0156574,6.0751278 8.8467512,6.0751278 Z m 6.2184134,-1.955756 h 0.302253 Q 14.296197,3.8704574 14.176185,3.6793267 14.060617,3.488196 13.882821,3.3592939 13.70947,3.2259469 13.49167,3.1592734 q -0.213355,-0.066673 -0.440045,-0.066673 -0.373372,0 -0.657845,0.1377919 -0.280029,0.133347 -0.466715,0.3644818 -0.186685,0.2266899 -0.280028,0.5244982 -0.09334,0.2978083 -0.09334,0.6267309 0,0.3289226 0.09334,0.6267309 0.09334,0.2978083 0.280028,0.5244982 0.186686,0.2266899 0.466715,0.3644818 0.284473,0.133347 0.657845,0.133347 0.280029,0 0.506719,-0.088898 0.231134,-0.088898 0.400041,-0.2533593 0.168906,-0.1644613 0.275583,-0.400041 0.106678,-0.2355797 0.137792,-0.5289431 h -0.302253 q -0.02222,0.2133552 -0.102233,0.400041 -0.08001,0.1822409 -0.20891,0.3200328 -0.128902,0.1377919 -0.306698,0.2178001 -0.177796,0.080008 -0.400041,0.080008 -0.315588,0 -0.542278,-0.1200123 -0.22669,-0.1200123 -0.373371,-0.3155879 -0.142237,-0.2000205 -0.213356,-0.4489349 -0.06667,-0.2533593 -0.06667,-0.5111635 0,-0.2622491 0.06667,-0.5111635 0.07112,-0.2489144 0.213356,-0.44449 0.146681,-0.2000205 0.373371,-0.3200328 0.22669,-0.1200123 0.542278,-0.1200123 0.173351,0 0.328923,0.053339 0.160016,0.048894 0.288918,0.1466817 0.133347,0.097788 0.222245,0.2444695 0.09334,0.1422368 0.133347,0.3244777 z"
       id="text2"
       style="font-weight:300;font-size:4.4449px;font-family:'Helvetica Neue';-inkscape-font-specification:'Helvetica Neue, Light';stroke:#000000;stroke-width:0.185203;stroke-linecap:round;stroke-linejoin:round;paint-order:fill markers stroke"
       aria-label="USB C" />
    <g
       id="g3"
       style="stroke-width:1.1929;stroke-dasharray:none"
       transform="matrix(0.83829297,0,0,0.83829269,1.397631,0.9460543)">
      <rect
         style="fill:none;stroke:#000000;stroke-width:1.1929;stroke-linecap:square;stroke-linejoin:round;stroke-miterlimit:4.7;stroke-dasharray:none;stroke-dashoffset:0;paint-order:normal"
         id="rect2"
         width="15.153425"
         height="4.4173136"
         x="0.29925585"
         y="10.267814"
         ry="2.2085617"
         rx="2.2085619" />
      <rect
         style="fill:#000000;fill-opacity:1;stroke:#000000;stroke-width:1.1929;stroke-linecap:square;stroke-linejoin:round;stroke-miterlimit:4.7;stroke-dasharray:none;stroke-dashoffset:0;paint-order:normal"
         id="rect3"
         width="10.751727"
         height="2.3958168e-07"
         x="2.5001049"
         y="12.476373"
         ry="0.035229344"
         rx="0.035226889" />
    </g>
  </g>
</svg>
