<?xml version="1.0" encoding="UTF-8" standalone="no"?>
<!-- Uploaded to: SVG Repo, www.svgrepo.com, Generator: SVG Repo Mixer Tools -->

<svg
   width="16"
   height="16"
   viewBox="0 0 16 16"
   fill="none"
   version="1.1"
   id="svg7"
   sodipodi:docname="usb-micro-two-svgrepo-com.svg"
   inkscape:version="1.3.2 (091e20e, 2023-11-25)"
   xmlns:inkscape="http://www.inkscape.org/namespaces/inkscape"
   xmlns:sodipodi="http://sodipodi.sourceforge.net/DTD/sodipodi-0.dtd"
   xmlns="http://www.w3.org/2000/svg"
   xmlns:svg="http://www.w3.org/2000/svg">
  <defs
     id="defs7" />
  <sodipodi:namedview
     id="namedview7"
     pagecolor="#ffffff"
     bordercolor="#000000"
     borderopacity="0.25"
     inkscape:showpageshadow="2"
     inkscape:pageopacity="0.0"
     inkscape:pagecheckerboard="0"
     inkscape:deskcolor="#d1d1d1"
     inkscape:current-layer="svg7" />
  <g
     id="g7"
     transform="matrix(0.9333331,0,0,-0.9333331,-0.86666454,23.633329)">
    <path
       d="m 2.6818182,14.704545 c 0,-0.564852 0.457892,-1.022727 1.0227273,-1.022727 H 15.295455 c 0.564852,0 1.022727,0.457875 1.022727,1.022727 v 2.093046 c 0,0.191693 -0.05386,0.3795 -0.155455,0.542045 L 14.91408,19.3375 c -0.186921,0.299011 -0.514671,0.480682 -0.867273,0.480682 H 4.9531932 c -0.3526125,0 -0.6803659,-0.181671 -0.8672557,-0.480682 L 2.8372727,17.339636 C 2.7356852,17.177091 2.6818182,16.989284 2.6818182,16.797591 Z"
       fill="#2f88ff"
       stroke="#000000"
       stroke-width="1.36364"
       stroke-linecap="round"
       stroke-linejoin="round"
       id="path1"
       style="fill:#808080" />
    <path
       d="m 5.0681818,13.681818 h 8.8636362 v 2.727273 H 5.0681818 Z"
       fill="#2f88ff"
       stroke="#ffffff"
       stroke-width="1.36364"
       stroke-linecap="round"
       stroke-linejoin="round"
       id="path2"
       style="fill:#808080" />
    <path
       d="M 8.4772727,16.409091 V 15.727273"
       stroke="#ffffff"
       stroke-width="1.36364"
       stroke-linecap="round"
       stroke-linejoin="round"
       id="path3" />
    <path
       d="M 10.522727,16.409091 V 15.727273"
       stroke="#ffffff"
       stroke-width="1.36364"
       stroke-linecap="round"
       stroke-linejoin="round"
       id="path4" />
    <path
       d="M 12.227273,16.409091 V 15.727273"
       stroke="#ffffff"
       stroke-width="1.36364"
       stroke-linecap="round"
       stroke-linejoin="round"
       id="path5" />
    <path
       d="M 6.7727273,16.409091 V 15.727273"
       stroke="#ffffff"
       stroke-width="1.36364"
       stroke-linecap="round"
       stroke-linejoin="round"
       id="path6" />
    <path
       d="M 4.0454545,13.681818 H 14.954545"
       stroke="#000000"
       stroke-width="1.36364"
       stroke-linecap="round"
       stroke-linejoin="round"
       id="path7" />
  </g>
</svg>
