<?xml version="1.0" encoding="UTF-8" standalone="no"?>
<!-- Created with Inkscape (http://www.inkscape.org/) -->

<svg
   width="16"
   height="16"
   viewBox="0 0 16 16"
   version="1.1"
   id="svg1"
   sodipodi:docname="usb_a_socket.svg"
   inkscape:version="1.3.2 (091e20e, 2023-11-25)"
   xmlns:inkscape="http://www.inkscape.org/namespaces/inkscape"
   xmlns:sodipodi="http://sodipodi.sourceforge.net/DTD/sodipodi-0.dtd"
   xmlns="http://www.w3.org/2000/svg"
   xmlns:svg="http://www.w3.org/2000/svg">
  <sodipodi:namedview
     id="namedview1"
     pagecolor="#ffffff"
     bordercolor="#000000"
     borderopacity="0.25"
     inkscape:showpageshadow="2"
     inkscape:pageopacity="0.0"
     inkscape:pagecheckerboard="0"
     inkscape:deskcolor="#d1d1d1"
     inkscape:document-units="px"
     inkscape:zoom="15.889986"
     inkscape:cx="5.8527426"
     inkscape:cy="10.635629"
     inkscape:window-width="1536"
     inkscape:window-height="449"
     inkscape:window-x="0"
     inkscape:window-y="25"
     inkscape:window-maximized="0"
     inkscape:current-layer="layer1" />
  <defs
     id="defs1" />
  <g
     inkscape:label="Слой 1"
     inkscape:groupmode="layer"
     id="layer1">
    <rect
       style="fill:#808080;stroke:none;stroke-width:0.999996;stroke-linecap:square;stroke-linejoin:round;stroke-miterlimit:4.7"
       id="rect2"
       width="14"
       height="2"
       x="1"
       y="12"
       rx="0.029530456"
       ry="0.029530456" />
    <path
       d="m 1.6282396,3.1592734 v 2.0313193 q 0,0.2444695 0.066674,0.4667145 0.071118,0.2178001 0.2178001,0.3822614 0.1511266,0.1644613 0.3822614,0.2622491 0.2355797,0.093343 0.5645023,0.093343 0.3333676,0 0.5645024,-0.093343 Q 3.659559,6.2040299 3.8062407,6.0395686 3.9573673,5.8751073 4.0240408,5.6573072 4.0951592,5.4350622 4.0951592,5.1905927 V 3.1592734 H 3.792906 v 1.9646458 q 0,0.2755838 -0.062229,0.4711594 -0.062229,0.1911307 -0.1822409,0.3155879 -0.1200123,0.1200123 -0.2933634,0.177796 -0.1733511,0.053339 -0.3955962,0.053339 -0.2178001,0 -0.3911512,-0.053339 Q 2.2949746,6.0306788 2.1749623,5.9106665 2.05495,5.7862093 1.9927214,5.5950786 1.9304928,5.399503 1.9304928,5.1239192 V 3.1592734 Z M 4.846345,5.2883805 H 4.5440918 q -0.013335,0.2933634 0.075563,0.5022737 0.093343,0.2089103 0.2622491,0.3422573 0.1689062,0.133347 0.4089308,0.2000205 0.2400246,0.062229 0.5200533,0.062229 0.2800287,0 0.4800492,-0.053339 Q 6.490958,6.2929279 6.624305,6.2129197 6.7620969,6.1284666 6.8376602,6.0262339 6.9176684,5.9240012 6.9576725,5.8262134 7.0021215,5.7239807 7.0110113,5.6350827 7.024346,5.5461847 7.024346,5.4928459 q 0,-0.1955756 -0.066674,-0.3333675 Q 6.8954439,5.0216865 6.7798765,4.9283436 6.668754,4.8305558 6.5176274,4.7683272 6.3709457,4.7016537 6.2020395,4.6572047 L 5.4286269,4.466074 Q 5.3308391,4.4438495 5.2419411,4.4082903 5.157488,4.3727311 5.0908145,4.3149474 5.024141,4.2571637 4.9841369,4.1771555 4.9485777,4.0927024 4.9485777,3.9815799 q 0,-0.177796 0.066673,-0.2978083 0.066674,-0.1200123 0.1733511,-0.1911307 0.1111225,-0.075563 0.2533593,-0.1066776 0.1466817,-0.035559 0.3022532,-0.035559 0.1689062,0 0.3200328,0.048894 0.1555715,0.044449 0.2711389,0.1377919 0.1200123,0.088898 0.1911307,0.2266899 0.075563,0.133347 0.084453,0.3155879 h 0.3022532 q 0,-0.2444695 -0.097788,-0.4267104 Q 6.7220928,3.4659715 6.5620764,3.3415143 6.40206,3.2170571 6.1887048,3.1548285 5.9753496,3.0925999 5.7397699,3.0925999 q -0.3333675,0 -0.5467227,0.097788 -0.2133552,0.093343 -0.3378124,0.2311348 -0.1200123,0.1377919 -0.1644613,0.2933634 -0.044449,0.1555715 -0.044449,0.2711389 0,0.1866858 0.057784,0.3155879 0.062229,0.1289021 0.1600164,0.2178001 0.097788,0.088898 0.2266899,0.1422368 0.133347,0.053339 0.2711389,0.088898 l 0.7067391,0.1733511 q 0.1111225,0.026669 0.2266899,0.071118 0.1155674,0.040004 0.2089103,0.1066776 0.097788,0.066673 0.1555715,0.1644613 0.062229,0.097788 0.062229,0.2311348 0,0.1733511 -0.084453,0.2978083 -0.084453,0.1200123 -0.2133552,0.2000205 -0.1244572,0.075563 -0.2711389,0.1111225 -0.1466817,0.035559 -0.2711389,0.035559 -0.2178001,0 -0.4089308,-0.040004 Q 5.2819452,6.0573482 5.1397084,5.9595604 5.0019165,5.8617726 4.9219083,5.6973113 4.8419001,5.53285 4.846345,5.2883805 Z M 7.8066446,4.5505271 V 3.4170776 h 1.0401066 q 0.7156289,0 0.7156289,0.5956166 0,0.1111225 -0.044449,0.2089103 -0.044449,0.097788 -0.133347,0.1733511 -0.088898,0.071118 -0.222245,0.1155674 -0.133347,0.040004 -0.3155879,0.040004 z M 7.5043914,3.1592734 V 6.332932 h 1.3423598 q 0.2578042,0 0.4400451,-0.044449 0.1866858,-0.048894 0.311143,-0.1200123 0.1289021,-0.075563 0.2044654,-0.1733511 0.075563,-0.097788 0.1155674,-0.1955756 0.040004,-0.1022327 0.053339,-0.1955756 0.013335,-0.097788 0.013335,-0.1733511 0,-0.311143 -0.1822409,-0.5200533 Q 9.6201638,4.6972088 9.3134657,4.6572047 v -0.00889 q 0.1244572,-0.026669 0.222245,-0.093343 0.1022327,-0.066674 0.1733511,-0.1600164 0.075563,-0.097788 0.1155674,-0.2133552 0.040004,-0.1200123 0.040004,-0.2444695 0,-0.222245 -0.084453,-0.3689267 Q 9.6957271,3.4170776 9.5534903,3.3281796 9.4156984,3.2348367 9.2290126,3.1992775 9.0467717,3.1592734 8.8467512,3.1592734 Z M 7.8066446,6.0751278 V 4.8083313 h 1.0401066 q 0.4044859,0 0.6178411,0.1555715 0.2178001,0.1511266 0.2178001,0.4578247 0,0.1911307 -0.066674,0.3200328 Q 9.5490454,5.8662175 9.433478,5.9417808 9.3179106,6.0173441 9.166784,6.0484584 9.0156574,6.0751278 8.8467512,6.0751278 Z M 12.153755,5.08836 12.789376,3.4615266 13.402772,5.08836 Z M 12.633804,3.1592734 11.358118,6.332932 h 0.320033 l 0.382261,-0.9867678 h 1.444593 l 0.386706,0.9867678 h 0.324478 L 12.971617,3.1592734 Z"
       id="text2"
       style="font-weight:300;font-size:4.4449px;font-family:'Helvetica Neue';-inkscape-font-specification:'Helvetica Neue, Light';stroke:#000000;stroke-width:0.185203;stroke-linecap:round;stroke-linejoin:round;paint-order:fill markers stroke"
       aria-label="USB A" />
    <rect
       style="fill:none;stroke:#000000;stroke-width:1;stroke-linecap:square;stroke-linejoin:round;stroke-miterlimit:4.7"
       id="rect1"
       width="13"
       height="5"
       x="1.5"
       y="9.5"
       rx="0.029530458"
       ry="0.029530456" />
    <g
       id="g6"
       transform="matrix(1,0,0,2,-0.5,-12.2)"
       style="stroke-width:0.707107">
      <rect
         style="fill:#000000;stroke:none;stroke-width:0.707107;stroke-linecap:square;stroke-linejoin:round;stroke-miterlimit:4.7"
         id="rect3"
         width="1.5"
         height="0.5"
         x="4"
         y="12"
         rx="0.029530458"
         ry="0.014765228" />
      <rect
         style="fill:#000000;stroke:none;stroke-width:0.707107;stroke-linecap:square;stroke-linejoin:round;stroke-miterlimit:4.7"
         id="rect4"
         width="1.5"
         height="0.5"
         x="6.5"
         y="12"
         rx="0.029530458"
         ry="0.014765228" />
      <rect
         style="fill:#000000;stroke:none;stroke-width:0.707107;stroke-linecap:square;stroke-linejoin:round;stroke-miterlimit:4.7"
         id="rect5"
         width="1.5"
         height="0.5"
         x="9"
         y="12"
         rx="0.029530458"
         ry="0.014765228" />
      <rect
         style="fill:#000000;stroke:none;stroke-width:0.707107;stroke-linecap:square;stroke-linejoin:round;stroke-miterlimit:4.7"
         id="rect6"
         width="1.5"
         height="0.5"
         x="11.5"
         y="12"
         rx="0.029530458"
         ry="0.014765228" />
    </g>
  </g>
</svg>
