<?xml version="1.0" encoding="UTF-8" standalone="no"?>
<svg
   version="1.1"
   x="0"
   y="0"
   width="16"
   height="16"
   viewBox="0 0 16 16"
   id="svg6"
   sodipodi:docname="usb_mini_b_socket.svg"
   inkscape:version="1.3.2 (091e20e, 2023-11-25)"
   xmlns:inkscape="http://www.inkscape.org/namespaces/inkscape"
   xmlns:sodipodi="http://sodipodi.sourceforge.net/DTD/sodipodi-0.dtd"
   xmlns="http://www.w3.org/2000/svg"
   xmlns:svg="http://www.w3.org/2000/svg">
  <defs
     id="defs1" />
  <sodipodi:namedview
     id="namedview6"
     pagecolor="#ffffff"
     bordercolor="#000000"
     borderopacity="0.25"
     inkscape:showpageshadow="2"
     inkscape:pageopacity="0.0"
     inkscape:pagecheckerboard="0"
     inkscape:deskcolor="#d1d1d1"
     inkscape:zoom="12.77861"
     inkscape:cx="4.5779627"
     inkscape:cy="20.229117"
     inkscape:window-width="1536"
     inkscape:window-height="932"
     inkscape:window-x="0"
     inkscape:window-y="25"
     inkscape:window-maximized="0"
     inkscape:current-layer="g1" />
  <style
     type="text/css"
     id="style1">
	.st0{fill:#808080;stroke:#000;}
	.st1{fill:#B3B3B3;stroke:#000;stroke-width:2;}
	.st2{fill:#FCEE21;stroke:#000;stroke-width:3;}
	.st3{font-family:Liberation Sans,Arial;}
	.st4{font-size:48px;}
	.st5{font-size:60px;}
</style>
  <g
     id="usb"
     transform="matrix(0.04671218,0,0,0.05351409,-1.2793746,0.0932932)"
     style="stroke-width:5.00024021;stroke-dasharray:none">
    <g
       id="g1"
       style="stroke-width:5.00024;stroke-dasharray:none"
       transform="matrix(0.98235005,0,0,0.98235005,3.5061635,0.34837504)">
      <path
         id="infill"
         class="st0"
         d="m 312.7,91.1 c 7.6,0 13.8,6.2 13.8,13.8 v 23.5 c 0,2.9 -1,5.8 -2.7,8.1 l -9.8,12.9 c -4.1,5.4 -6.3,11.9 -6.3,18.6 v 28.1 c 0,7 -5.7,12.7 -12.7,12.7 H 102 c -7,0 -12.7,-5.7 -12.7,-12.7 V 168 c 0,-6.7 -2.2,-13.3 -6.3,-18.6 l -9.8,-12.9 c -1.8,-2.3 -2.7,-5.2 -2.7,-8.1 v -23.5 c 0,-7.6 6.2,-13.8 13.8,-13.8 h 228.4"
         style="display:inline;stroke-width:5.00024;stroke-dasharray:none" />
      <path
         id="frame"
         class="st1"
         d="m 308.3,93.3 c 7.3,0 13.3,6 13.3,13.3 v 22.6 c 0,2.8 -0.9,5.6 -2.6,7.8 l -9.4,12.4 c -3.9,5.2 -6,11.4 -6,17.9 v 27.1 c 0,6.8 -5.5,12.3 -12.3,12.3 H 105.8 c -6.8,0 -12.3,-5.5 -12.3,-12.3 v -27.1 c 0,-6.5 -2.1,-12.8 -6,-17.9 L 78.1,137 c -1.7,-2.3 -2.6,-5 -2.6,-7.8 v -22.6 c 0,-7.3 5.9,-13.3 13.3,-13.3 h 219.5 m 0,-16 H 88.8 c -16.2,0 -29.3,13.1 -29.3,29.3 v 26.7 c 0,3.6 1.2,7.2 3.4,10.1 l 11.9,15.7 c 1.8,2.4 2.8,5.3 2.8,8.3 v 27.1 c 0,15.6 12.7,28.3 28.3,28.3 h 185.5 c 15.6,0 28.3,-12.7 28.3,-28.3 v -27.1 c 0,-3 1,-5.9 2.8,-8.3 l 11.9,-15.7 c 2.2,-2.9 3.4,-6.5 3.4,-10.1 V 106.6 C 337.6,90.4 324.5,77.3 308.3,77.3 Z"
         style="display:inline;stroke-width:10.18015974;stroke-dasharray:none;stroke:none;stroke-opacity:1;fill:#000000;fill-opacity:1" />
      <g
         id="g6"
         transform="translate(0,-11.983618)">
        <path
           id="centre"
           d="M 260.2,191.4 H 137.4 c -4,0 -7.7,-1.8 -10.2,-4.9 l -12.6,-15.9 c -1.2,-1.5 -1.9,-3.4 -1.9,-5.4 v -19.6 c 0,-6.7 5.4,-12.1 12.1,-12.1 h 147.4 c 6.7,0 12.1,5.4 12.1,12.1 v 22.1 c 0,2.2 -0.8,4.2 -2.2,5.8 l -12.3,13.6 c -2.5,2.7 -6,4.3 -9.6,4.3 z"
           style="fill:#ffffff;fill-opacity:1;stroke-width:5.00024;stroke-dasharray:none" />
        <g
           id="pins"
           style="stroke-width:5.00024;stroke-dasharray:none"
           transform="translate(-0.60000001,27.850003)">
          <rect
             id="pin1"
             x="133"
             y="122.2"
             class="st2"
             width="15"
             height="13"
             style="fill:#000000;fill-opacity:1;stroke:none;stroke-width:5.00024;stroke-dasharray:none" />
          <rect
             id="pin2"
             x="162.39999"
             y="122.2"
             class="st2"
             width="15"
             height="13"
             style="fill:#000000;fill-opacity:1;stroke:none;stroke-width:5.00024;stroke-dasharray:none" />
          <rect
             id="pin3"
             x="191.7"
             y="122.2"
             class="st2"
             width="15"
             height="13"
             style="fill:#000000;fill-opacity:1;stroke:none;stroke-width:5.00024;stroke-dasharray:none" />
          <rect
             id="pin4"
             x="221.10001"
             y="122.2"
             class="st2"
             width="15"
             height="13"
             style="fill:#000000;fill-opacity:1;stroke:none;stroke-width:5.00024;stroke-dasharray:none" />
          <rect
             id="pin5"
             x="250.5"
             y="122.2"
             class="st2"
             width="15"
             height="13"
             style="fill:#000000;fill-opacity:1;stroke:none;stroke-width:5.00864;stroke-dasharray:none" />
        </g>
      </g>
    </g>
  </g>
</svg>
