<?xml version="1.0" encoding="UTF-8" standalone="no"?>
<svg
   width="16"
   height="16"
   fill="currentColor"
   class="bi bi-ethernet"
   viewBox="0 0 16 16"
   version="1.1"
   id="svg2"
   sodipodi:docname="xlr_mini_socket_male.svg"
   inkscape:version="1.3.2 (091e20e, 2023-11-25)"
   xmlns:inkscape="http://www.inkscape.org/namespaces/inkscape"
   xmlns:sodipodi="http://sodipodi.sourceforge.net/DTD/sodipodi-0.dtd"
   xmlns="http://www.w3.org/2000/svg"
   xmlns:svg="http://www.w3.org/2000/svg">
  <defs
     id="defs2" />
  <sodipodi:namedview
     id="namedview2"
     pagecolor="#ffffff"
     bordercolor="#000000"
     borderopacity="0.25"
     inkscape:showpageshadow="2"
     inkscape:pageopacity="0.0"
     inkscape:pagecheckerboard="0"
     inkscape:deskcolor="#d1d1d1"
     inkscape:zoom="18.232983"
     inkscape:cx="-3.2907396"
     inkscape:cy="0.63072509"
     inkscape:window-width="1640"
     inkscape:window-height="786"
     inkscape:window-x="0"
     inkscape:window-y="25"
     inkscape:window-maximized="0"
     inkscape:current-layer="svg2" />
  <g
     id="g6"
     transform="matrix(0.57632643,0,0,0.57632624,3.4608712,2.7157895)"
     style="stroke-width:1.19436;stroke-dasharray:none">
    <path
       d="M 7.8759685,1.1058097 C 2.7675521,1.0493929 0.72893389,5.7793852 0.72322597,8.3012199 0.72368206,12.251379 3.9258107,15.453509 7.8759685,15.453965 11.826126,15.453509 15.028255,12.251379 15.028711,8.3012199 14.939428,3.786241 11.7515,1.1486107 7.8759685,1.1058097 Z M 4.2972673,7.1083192 c 0.6588208,0 1.1929006,0.5340799 1.1929004,1.1929007 2e-7,0.6588209 -0.5340795,1.1929008 -1.1929004,1.1929008 -0.6588208,-10e-8 -1.1929005,-0.53408 -1.1929003,-1.1929008 -2e-7,-0.6588208 0.5340795,-1.1929006 1.1929003,-1.1929007 z m 7.1574027,0 c 0.658821,2e-7 1.1929,0.53408 1.1929,1.1929007 0,0.6588207 -0.534079,1.1929006 -1.1929,1.1929008 -0.658821,3e-7 -1.192901,-0.5340797 -1.192901,-1.1929008 0,-0.6588211 0.53408,-1.192901 1.192901,-1.1929007 z M 7.8759685,10.687021 c 0.6588209,0 1.1929006,0.53408 1.1929003,1.192901 3e-7,0.658821 -0.5340794,1.192901 -1.1929003,1.192901 -0.6588209,0 -1.1929007,-0.53408 -1.1929004,-1.192901 -3e-7,-0.658821 0.5340795,-1.192901 1.1929004,-1.192901 z"
       style="stroke-width:1.42475;stroke-linecap:square;stroke-linejoin:round;stroke-miterlimit:4.7"
       id="path3"
       sodipodi:nodetypes="scccssssssssssssssss" />
    <path
       d="M -1.6672345,-1.2419863 V 17.844426 H 17.419171 V -1.2419863 Z m 9.543203,0.59645043 A 8.946023,8.9460258 0 0 1 16.822721,8.3012199 8.946023,8.9460258 0 0 1 7.8759685,17.247976 8.946023,8.9460258 0 0 1 -1.0707844,8.3012199 8.946023,8.9460258 0 0 1 7.8759685,-0.64553587 Z"
       style="display:none;stroke-width:1.42475;stroke-linecap:square;stroke-linejoin:round;stroke-miterlimit:4.7"
       id="path2" />
    <ellipse
       style="fill:#000000;fill-opacity:1;stroke:none;stroke-width:1.42475;stroke-linecap:square;stroke-linejoin:round;stroke-miterlimit:4.7"
       id="path4"
       cx="12.51028"
       cy="2.9330275"
       rx="1.1929004"
       ry="1.1929008" />
    <ellipse
       style="fill:none;fill-opacity:1;stroke:#000000;stroke-width:0.894675;stroke-linecap:square;stroke-linejoin:round;stroke-miterlimit:4.7;stroke-dasharray:none;stroke-opacity:1"
       id="path5"
       cx="7.8759685"
       cy="8.3012199"
       rx="9.0958652"
       ry="9.0958691" />
  </g>
</svg>
