<?xml version="1.0" encoding="UTF-8" standalone="no"?>
<!-- Uploaded to: SVG Repo, www.svgrepo.com, Generator: SVG Repo Mixer Tools -->

<svg
   fill="#000000"
   height="70"
   width="100"
   version="1.1"
   id="Capa_1"
   viewBox="0 0 100 70"
   xml:space="preserve"
   sodipodi:docname="accordion_1.svg"
   inkscape:version="1.3.2 (091e20e, 2023-11-25)"
   xmlns:inkscape="http://www.inkscape.org/namespaces/inkscape"
   xmlns:sodipodi="http://sodipodi.sourceforge.net/DTD/sodipodi-0.dtd"
   xmlns="http://www.w3.org/2000/svg"
   xmlns:svg="http://www.w3.org/2000/svg"><defs
   id="defs94" /><sodipodi:namedview
   id="namedview94"
   pagecolor="#ffffff"
   bordercolor="#000000"
   borderopacity="0.25"
   inkscape:showpageshadow="2"
   inkscape:pageopacity="0.0"
   inkscape:pagecheckerboard="0"
   inkscape:deskcolor="#d1d1d1"
   inkscape:zoom="2.36"
   inkscape:cx="50"
   inkscape:cy="50"
   inkscape:window-width="1440"
   inkscape:window-height="449"
   inkscape:window-x="0"
   inkscape:window-y="25"
   inkscape:window-maximized="0"
   inkscape:current-layer="Capa_1" />
<g
   id="g94"
   transform="matrix(0.1972397,0,0,0.1972397,-2.0058884e-4,34.069919)"
   style="stroke-width:5.06997">
	
	
	
	
	
	
	
	
	
	
	
	
	
	
	
	
	
	
	
	
	
	
	
	
	
	
	
	
	
	
	
	
	
	
	
	
	
	
	
	
	
	
	
	
	
	
	
	
	
	
	
	
	
	
	
	
	
	
	
	
	
	
	
	
	
	
	
	
	
	
	
	
	
	
	
	
	
	
	
	
	
	
	
	
	
	
	
	
	
	
	
	
	
	
	<path
   id="path94"
   style="stroke-width:5.06997"
   d="m 488.59771,-101.24026 c -1.889,-5.104 -5.751,-9.238 -10.551,-11.803 l -31.376,-16.766 c -0.936,-0.499 -2.032,-0.608 -3.047,-0.299 -0.18,0.055 -19.225,6.96 -20.852,7.583 -2.43,-6.858 -5.133,-13.721 -8.057,-20.449 -0.853,-1.961 -3.098,-2.906 -5.095,-2.143 -6.862,2.619 -13.655,5.501 -20.247,8.589 -3.155,-6.532 -6.586,-13.041 -10.225,-19.396 -1.069,-1.866 -3.422,-2.556 -5.328,-1.556 -6.47,3.39 -12.844,7.028 -18.997,10.843 -3.845,-6.122 -7.958,-12.185 -12.258,-18.068 -1.274,-1.742 -3.7,-2.16 -5.482,-0.945 -6.013,4.098 -11.91,8.432 -17.574,12.915 -4.495,-5.644 -9.251,-11.198 -14.176,-16.556 -1.462,-1.59 -3.921,-1.732 -5.558,-0.321 -5.507,4.752 -10.872,9.722 -15.99,14.812 -5.108,-5.105 -10.465,-10.09 -15.967,-14.854 -1.631,-1.413 -4.089,-1.277 -5.554,0.307 -4.949,5.347 -9.733,10.895 -14.259,16.533 -5.672,-4.498 -11.584,-8.847 -17.62,-12.959 -1.778,-1.21 -4.194,-0.8 -5.471,0.931 -4.346,5.891 -8.504,11.959 -12.394,18.088 -6.193,-3.829 -12.609,-7.475 -19.122,-10.865 -1.896,-0.988 -4.235,-0.31 -5.308,1.541 -3.696,6.374 -7.188,12.909 -10.405,19.475 -6.658,-3.087 -13.523,-5.961 -20.459,-8.564 0,0 -1.891,-0.354 -2.844,0.013 l -123.452,47.565995 c -11.168,4.304 -16.753,16.892 -12.45,28.06 l 90.812,235.684005 c 3.205,8.317 11.346,13.906 20.258,13.906 2.668,0 5.292,-0.489 7.8,-1.456 l 123.486,-47.568 c 13.578,-5.231 27.836,-5.857 40.755,-1.889 2.922,0.897 5.722,2.142 8.417,3.585 8.015,4.293 28.984,15.514 28.984,15.514 3.141,1.678 6.672,2.564 10.214,2.564 8.034,0 15.375,-4.398 19.159,-11.479 l 119.034,-222.768005 c 2.944,-5.507 3.387,-11.892 1.199,-17.804995 z m -52.052,-18.107 -101.273,189.529995 87.954,-184.342995 c 2.52,-0.915 11.359,-4.448 13.319,-5.187 z m -20.539,1.74 -106.679,223.59 81.381,-234.278 c 5.915,-2.83 12.005,-5.501 18.182,-7.952 2.585,6.158 4.963,12.407 7.116,18.64 z m -41.895,-30.963 c 3.224,5.798 6.25,11.705 9.05,17.618 l -78.023,224.611995 51.944,-232.260995 c 5.515,-3.48 11.217,-6.826 17.029,-9.969 z m -35.725,-8.254 c 3.827,5.381 7.473,10.894 10.897,16.444 l -55.46,247.983 28.826,-252.593 c 5.072,-4.083 10.341,-8.054 15.737,-11.834 z m -36.32,-4.163 c 4.396,4.908 8.624,9.968 12.635,15.087 l -28.099,246.224 1.454,-248.062 c 4.492,-4.528 9.18,-8.972 14.01,-13.249 z m -36.556,-0.051 c 5.024,4.466 9.894,9.112 14.543,13.847 l -1.466,250.136 -25.797,-248.908 c 4.042,-5.118 8.299,-10.174 12.72,-15.075 z m -36.44,4.079 c 5.412,3.793 10.692,7.775 15.768,11.869 l 27.082,261.322 -54.346,-255.977 c 3.6,-5.81 7.452,-11.584 11.496,-17.214 z m -35.966,8.232 c 5.594,3.008 11.086,6.208 16.41,9.537 l 54.053,254.596 -79.699,-246.401 c 2.863,-5.957 5.953,-11.903 9.236,-17.732 z m -16.803,20.331 58.42,180.613995 -71.887,-186.566995 c 4.565,1.877 9.061,3.871 13.467,5.953 z m -87.277,16.997 29.51,-11.37 100.668,261.264 -29.51,11.37 z m -55.218,21.275995 47.753,-18.399995 3.577,9.283995 -60.042,23.135 c -0.533,-5.94 2.876,-11.77 8.712,-14.019 z m -6.336,21.677 60.542,-23.328 87.761,227.766005 -60.542,23.328 z m 107.004,239.587005 c -1.586,0.611 -3.243,0.921 -4.924,0.921 -4.339,0 -8.382,-2.103 -10.937,-5.472 l 60.037,-23.133 3.577,9.284 z m 92.192,-35.523 -100.668,-261.264 27.529,-10.607 100.668,261.264 z m 253.678,-222.823005 -119.034,222.767005 c -2.39,4.472 -7.027,7.249 -12.104,7.249 -2.263,0 -4.431,-0.545 -6.444,-1.621 l -28.286,-15.114 131.952,-246.943 28.286,15.115 c 3.229,1.725 5.593,4.604 6.656,8.106995 1.063,3.503 0.699,7.211 -1.026,10.44 z m -47.82001,19.498 a 4.3000002,4.3000002 0 0 1 -4.3,4.3 4.3000002,4.3000002 0 0 1 -4.3,-4.3 4.3000002,4.3000002 0 0 1 4.3,-4.3 4.3000002,4.3000002 0 0 1 4.3,4.3 z m -7.233,13.536 a 4.3000002,4.3000002 0 0 1 -4.3,4.3 4.3000002,4.3000002 0 0 1 -4.3,-4.3 4.3000002,4.3000002 0 0 1 4.3,-4.3 4.3000002,4.3000002 0 0 1 4.3,4.3 z m -7.232,13.535 a 4.3000002,4.3000002 0 0 1 -4.3,4.3 4.3000002,4.3000002 0 0 1 -4.3,-4.3 4.3000002,4.3000002 0 0 1 4.3,-4.3 4.3000002,4.3000002 0 0 1 4.3,4.3 z m -7.23199,13.53501 a 4.3000002,4.3000002 0 0 1 -4.3,4.3 4.3000002,4.3000002 0 0 1 -4.3,-4.3 4.3000002,4.3000002 0 0 1 4.3,-4.3 4.3000002,4.3000002 0 0 1 4.3,4.3 z m 33.46799,-42.90101 a 4.3000002,4.3000002 0 0 1 -4.3,4.30001 4.3000002,4.3000002 0 0 1 -4.3,-4.30001 4.3000002,4.3000002 0 0 1 4.3,-4.3 4.3000002,4.3000002 0 0 1 4.3,4.3 z m -7.232,13.53499 a 4.3000002,4.3000002 0 0 1 -4.3,4.3 4.3000002,4.3000002 0 0 1 -4.3,-4.3 4.3000002,4.3000002 0 0 1 4.3,-4.3 4.3000002,4.3000002 0 0 1 4.3,4.3 z m -7.23199,13.53501 a 4.3000002,4.3000002 0 0 1 -4.3,4.3 4.3000002,4.3000002 0 0 1 -4.3,-4.3 4.3000002,4.3000002 0 0 1 4.3,-4.3 4.3000002,4.3000002 0 0 1 4.3,4.3 z m -7.233,13.535 a 4.3000002,4.3000002 0 0 1 -4.3,4.3 4.3000002,4.3000002 0 0 1 -4.3,-4.3 4.3000002,4.3000002 0 0 1 4.3,-4.3 4.3000002,4.3000002 0 0 1 4.3,4.3 z m -7.232,13.535 a 4.3000002,4.3000002 0 0 1 -4.3,4.3 4.3000002,4.3000002 0 0 1 -4.3,-4.3 4.3000002,4.3000002 0 0 1 4.3,-4.3 4.3000002,4.3000002 0 0 1 4.3,4.3 z m 40.79999,-56.596 a 4.3000002,4.3000002 0 0 1 -4.3,4.3 4.3000002,4.3000002 0 0 1 -4.3,-4.3 4.3000002,4.3000002 0 0 1 4.3,-4.3 4.3000002,4.3000002 0 0 1 4.3,4.3 z m -7.233,13.535 a 4.3000002,4.3000002 0 0 1 -4.3,4.3 4.3000002,4.3000002 0 0 1 -4.3,-4.3 4.3000002,4.3000002 0 0 1 4.3,-4.3 4.3000002,4.3000002 0 0 1 4.3,4.3 z m -7.232,13.536 a 4.3000002,4.3000002 0 0 1 -4.3,4.3 4.3000002,4.3000002 0 0 1 -4.3,-4.3 4.3000002,4.3000002 0 0 1 4.3,-4.30001 4.3000002,4.3000002 0 0 1 4.3,4.30001 z m -7.23199,13.535 a 4.3000002,4.3000002 0 0 1 -4.3,4.3 4.3000002,4.3000002 0 0 1 -4.3,-4.3 4.3000002,4.3000002 0 0 1 4.3,-4.3 4.3000002,4.3000002 0 0 1 4.3,4.3 z m -7.233,13.535 a 4.3000002,4.3000002 0 0 1 -4.3,4.3 4.3000002,4.3000002 0 0 1 -4.3,-4.3 4.3000002,4.3000002 0 0 1 4.3,-4.3 4.3000002,4.3000002 0 0 1 4.3,4.3 z m 40.70099,-56.436 a 4.3000002,4.3000002 0 0 1 -4.3,4.3 4.3000002,4.3000002 0 0 1 -4.3,-4.3 4.3000002,4.3000002 0 0 1 4.3,-4.3 4.3000002,4.3000002 0 0 1 4.3,4.3 z m -7.232,13.535 a 4.3000002,4.3000002 0 0 1 -4.3,4.3 4.3000002,4.3000002 0 0 1 -4.3,-4.3 4.3000002,4.3000002 0 0 1 4.3,-4.3 4.3000002,4.3000002 0 0 1 4.3,4.3 z m -7.23199,13.53501 a 4.3000002,4.3000002 0 0 1 -4.3,4.3 4.3000002,4.3000002 0 0 1 -4.3,-4.3 4.3000002,4.3000002 0 0 1 4.3,-4.30001 4.3000002,4.3000002 0 0 1 4.3,4.30001 z m -7.23301,13.53498 a 4.3000002,4.3000002 0 0 1 -4.3,4.3 4.3000002,4.3000002 0 0 1 -4.3,-4.3 4.3000002,4.3000002 0 0 1 4.3,-4.3 4.3000002,4.3000002 0 0 1 4.3,4.3 z m -7.23199,13.53501 a 4.3000002,4.3000002 0 0 1 -4.3,4.3 4.3000002,4.3000002 0 0 1 -4.3,-4.3 4.3000002,4.3000002 0 0 1 4.3,-4.3 4.3000002,4.3000002 0 0 1 4.3,4.3 z m -7.233,13.5359901 a 4.3000002,4.3000002 0 0 1 -4.3,4.3 4.3000002,4.3000002 0 0 1 -4.3,-4.3 4.3000002,4.3000002 0 0 1 4.3,-4.3000001 4.3000002,4.3000002 0 0 1 4.3,4.3000001 z m -28.29599,-6.4939901 a 4.3000002,4.3000002 0 0 1 -4.3,4.3000001 4.3000002,4.3000002 0 0 1 -4.3,-4.3000001 4.3000002,4.3000002 0 0 1 4.3,-4.3 4.3000002,4.3000002 0 0 1 4.3,4.3 z m -7.233,13.53499012 a 4.3000002,4.3000002 0 0 1 -4.3,4.29999998 4.3000002,4.3000002 0 0 1 -4.3,-4.29999998 4.3000002,4.3000002 0 0 1 4.3,-4.30000002 4.3000002,4.3000002 0 0 1 4.3,4.30000002 z m -7.232,13.53500988 a 4.3000002,4.3000002 0 0 1 -4.3,4.3 4.3000002,4.3000002 0 0 1 -4.3,-4.3 4.3000002,4.3000002 0 0 1 4.3,-4.2999999 4.3000002,4.3000002 0 0 1 4.3,4.2999999 z m -7.23202,13.53599 a 4.3000002,4.3000002 0 0 1 -4.3,4.3 4.3000002,4.3000002 0 0 1 -4.3,-4.3 4.3000002,4.3000002 0 0 1 4.3,-4.3 4.3000002,4.3000002 0 0 1 4.3,4.3 z m -7.233,13.53501 a 4.3000002,4.3000002 0 0 1 -4.30001,4.3 4.3000002,4.3000002 0 0 1 -4.3,-4.3 4.3000002,4.3000002 0 0 1 4.3,-4.3 4.3000002,4.3000002 0 0 1 4.30001,4.3 z m -7.232,13.535 a 4.3000002,4.3000002 0 0 1 -4.3,4.3 4.3000002,4.3000002 0 0 1 -4.3,-4.3 4.3000002,4.3000002 0 0 1 4.3,-4.3 4.3000002,4.3000002 0 0 1 4.3,4.3 z m -7.233,13.535 a 4.3000002,4.3000002 0 0 1 -4.3,4.3 4.3000002,4.3000002 0 0 1 -4.3,-4.3 4.3000002,4.3000002 0 0 1 4.3,-4.3 4.3000002,4.3000002 0 0 1 4.3,4.3 z m -7.232,13.53501 a 4.3000002,4.3000002 0 0 1 -4.3,4.3 4.3000002,4.3000002 0 0 1 -4.3,-4.3 4.3000002,4.3000002 0 0 1 4.3,-4.3 4.3000002,4.3000002 0 0 1 4.3,4.3 z m 55.16602,-83.5070099 a 4.3000002,4.3000002 0 0 1 -4.3,4.3 4.3000002,4.3000002 0 0 1 -4.3,-4.3 4.3000002,4.3000002 0 0 1 4.3,-4.3 4.3000002,4.3000002 0 0 1 4.3,4.3 z m -7.23199,13.5359999 a 4.3000002,4.3000002 0 0 1 -4.30001,4.3 4.3000002,4.3000002 0 0 1 -4.3,-4.3 4.3000002,4.3000002 0 0 1 4.3,-4.2999999 4.3000002,4.3000002 0 0 1 4.30001,4.2999999 z m -7.23301,13.535 a 4.3000002,4.3000002 0 0 1 -4.3,4.3 4.3000002,4.3000002 0 0 1 -4.3,-4.3 4.3000002,4.3000002 0 0 1 4.3,-4.3 4.3000002,4.3000002 0 0 1 4.3,4.3 z m -7.23202,13.53501 a 4.3000002,4.3000002 0 0 1 -4.3,4.3 4.3000002,4.3000002 0 0 1 -4.3,-4.3 4.3000002,4.3000002 0 0 1 4.3,-4.3 4.3000002,4.3000002 0 0 1 4.3,4.3 z m -7.233,13.535 a 4.3000002,4.3000002 0 0 1 -4.3,4.3 4.3000002,4.3000002 0 0 1 -4.3,-4.3 4.3000002,4.3000002 0 0 1 4.3,-4.3 4.3000002,4.3000002 0 0 1 4.3,4.3 z m -7.232,13.53598 a 4.3000002,4.3000002 0 0 1 -4.3,4.3 4.3000002,4.3000002 0 0 1 -4.3,-4.3 4.3000002,4.3000002 0 0 1 4.3,-4.3 4.3000002,4.3000002 0 0 1 4.3,4.3 z m -7.23199,13.535 a 4.3000002,4.3000002 0 0 1 -4.3,4.3 4.3000002,4.3000002 0 0 1 -4.3,-4.3 4.3000002,4.3000002 0 0 1 4.3,-4.3 4.3000002,4.3000002 0 0 1 4.3,4.3 z m -7.233,13.53501 a 4.3000002,4.3000002 0 0 1 -4.3,4.3 4.3000002,4.3000002 0 0 1 -4.3,-4.3 4.3000002,4.3000002 0 0 1 4.3,-4.3 4.3000002,4.3000002 0 0 1 4.3,4.3 z m 62.497,-97.2019999 a 4.3000002,4.3000002 0 0 1 -4.3,4.30000002 4.3000002,4.3000002 0 0 1 -4.3,-4.30000002 4.3000002,4.3000002 0 0 1 4.3,-4.3 4.3000002,4.3000002 0 0 1 4.3,4.3 z m -7.23199,13.535 a 4.3000002,4.3000002 0 0 1 -4.3,4.3000099 4.3000002,4.3000002 0 0 1 -4.3,-4.3000099 4.3000002,4.3000002 0 0 1 4.3,-4.3 4.3000002,4.3000002 0 0 1 4.3,4.3 z m -7.233,13.5349899 a 4.3000002,4.3000002 0 0 1 -4.3,4.3 4.3000002,4.3000002 0 0 1 -4.3,-4.3 4.3000002,4.3000002 0 0 1 4.3,-4.3 4.3000002,4.3000002 0 0 1 4.3,4.3 z m -7.232,13.536 a 4.3000002,4.3000002 0 0 1 -4.3,4.3 4.3000002,4.3000002 0 0 1 -4.3,-4.3 4.3000002,4.3000002 0 0 1 4.3,-4.3 4.3000002,4.3000002 0 0 1 4.3,4.3 z m -7.23202,13.535 a 4.3000002,4.3000002 0 0 1 -4.3,4.3 4.3000002,4.3000002 0 0 1 -4.3,-4.3 4.3000002,4.3000002 0 0 1 4.3,-4.3 4.3000002,4.3000002 0 0 1 4.3,4.3 z m -7.233,13.53501 a 4.3000002,4.3000002 0 0 1 -4.3,4.3 4.3000002,4.3000002 0 0 1 -4.3,-4.3 4.3000002,4.3000002 0 0 1 4.3,-4.3 4.3000002,4.3000002 0 0 1 4.3,4.3 z m -7.232,13.535 a 4.3000002,4.3000002 0 0 1 -4.3,4.3 4.3000002,4.3000002 0 0 1 -4.3,-4.3 4.3000002,4.3000002 0 0 1 4.3,-4.3 4.3000002,4.3000002 0 0 1 4.3,4.3 z m -7.233,13.535 a 4.3000002,4.3000002 0 0 1 -4.3,4.3 4.3000002,4.3000002 0 0 1 -4.3,-4.3 4.3000002,4.3000002 0 0 1 4.3,-4.3 4.3000002,4.3000002 0 0 1 4.3,4.3 z m -7.23199,13.536015 a 4.3000002,4.3000002 0 0 1 -4.3,4.3 4.3000002,4.3000002 0 0 1 -4.3,-4.3 4.3000002,4.3000002 0 0 1 4.3,-4.300005 4.3000002,4.3000002 0 0 1 4.3,4.300005 z M 424.42772,6.4527451 a 4.3000002,4.3000002 0 0 1 -4.3,4.2999999 4.3000002,4.3000002 0 0 1 -4.3,-4.2999999 4.3000002,4.3000002 0 0 1 4.3,-4.3 4.3000002,4.3000002 0 0 1 4.3,4.3 z m -7.232,13.5349899 a 4.3000002,4.3000002 0 0 1 -4.3,4.3 4.3000002,4.3000002 0 0 1 -4.3,-4.3 4.3000002,4.3000002 0 0 1 4.3,-4.30001 4.3000002,4.3000002 0 0 1 4.3,4.30001 z m -7.23202,13.535 a 4.3000002,4.3000002 0 0 1 -4.3,4.3 4.3000002,4.3000002 0 0 1 -4.3,-4.3 4.3000002,4.3000002 0 0 1 4.3,-4.3 4.3000002,4.3000002 0 0 1 4.3,4.3 z m -7.23297,13.535 a 4.3000002,4.3000002 0 0 1 -4.3,4.3 4.3000002,4.3000002 0 0 1 -4.30001,-4.3 4.3000002,4.3000002 0 0 1 4.30001,-4.3 4.3000002,4.3000002 0 0 1 4.3,4.3 z m -7.23203,13.53501 a 4.3000002,4.3000002 0 0 1 -4.3,4.3 4.3000002,4.3000002 0 0 1 -4.3,-4.3 4.3000002,4.3000002 0 0 1 4.3,-4.3 4.3000002,4.3000002 0 0 1 4.3,4.3 z m -7.233,13.53598 a 4.3000002,4.3000002 0 0 1 -4.3,4.3 4.3000002,4.3000002 0 0 1 -4.3,-4.3 4.3000002,4.3000002 0 0 1 4.3,-4.3 4.3000002,4.3000002 0 0 1 4.3,4.3 z m -7.232,13.535 a 4.3000002,4.3000002 0 0 1 -4.3,4.3 4.3000002,4.3000002 0 0 1 -4.3,-4.3 4.3000002,4.3000002 0 0 1 4.3,-4.3 4.3000002,4.3000002 0 0 1 4.3,4.3 z m -7.23199,13.535005 a 4.3000002,4.3000002 0 0 1 -4.3,4.3 4.3000002,4.3000002 0 0 1 -4.3,-4.3 4.3000002,4.3000002 0 0 1 4.3,-4.300005 4.3000002,4.3000002 0 0 1 4.3,4.300005 z m -7.233,13.53501 a 4.3000002,4.3000002 0 0 1 -4.3,4.3 4.3000002,4.3000002 0 0 1 -4.3,-4.3 4.3000002,4.3000002 0 0 1 4.3,-4.3 4.3000002,4.3000002 0 0 1 4.3,4.3 z m -214.188,16.27301 a 6.2909999,6.2909999 0 0 1 -6.291,6.291 6.2909999,6.2909999 0 0 1 -6.291,-6.291 6.2909999,6.2909999 0 0 1 6.291,-6.291 6.2909999,6.2909999 0 0 1 6.291,6.291 z m -8.072,-20.95102 a 6.2909999,6.2909999 0 0 1 -6.291,6.291 6.2909999,6.2909999 0 0 1 -6.291,-6.291 6.2909999,6.2909999 0 0 1 6.291,-6.291 6.2909999,6.2909999 0 0 1 6.291,6.291 z m -8.073,-20.949985 a 6.2909999,6.2909999 0 0 1 -6.291,6.291 6.2909999,6.2909999 0 0 1 -6.291,-6.291 6.2909999,6.2909999 0 0 1 6.291,-6.291 6.2909999,6.2909999 0 0 1 6.291,6.291 z m -8.072,-20.95102 a 6.2909999,6.2909999 0 0 1 -6.291,6.291 6.2909999,6.2909999 0 0 1 -6.291,-6.291 6.2909999,6.2909999 0 0 1 6.291,-6.291 6.2909999,6.2909999 0 0 1 6.291,6.291 z m -8.073,-20.94998 a 6.2909999,6.2909999 0 0 1 -6.291,6.291 6.2909999,6.2909999 0 0 1 -6.291,-6.291 6.2909999,6.2909999 0 0 1 6.291,-6.291 6.2909999,6.2909999 0 0 1 6.291,6.291 z m -8.072,-20.95102 a 6.2909999,6.2909999 0 0 1 -6.291,6.291 6.2909999,6.2909999 0 0 1 -6.291003,-6.291 6.2909999,6.2909999 0 0 1 6.291003,-6.291 6.2909999,6.2909999 0 0 1 6.291,6.291 z m -8.073,-20.9499899 a 6.2909999,6.2909999 0 0 1 -6.291001,6.2909999 6.2909999,6.2909999 0 0 1 -6.291,-6.2909999 6.2909999,6.2909999 0 0 1 6.291,-6.29099998 6.2909999,6.2909999 0 0 1 6.291001,6.29099998 z m -8.072,-20.9510001 a 6.2909999,6.2909999 0 0 1 -6.291,6.2910001 6.2909999,6.2909999 0 0 1 -6.291,-6.2910001 6.2909999,6.2909999 0 0 1 6.291,-6.291 6.2909999,6.2909999 0 0 1 6.291,6.291 z m -8.072998,-20.95 a 6.2909999,6.2909999 0 0 1 -6.291,6.291 6.2909999,6.2909999 0 0 1 -6.291,-6.291 6.2909999,6.2909999 0 0 1 6.291,-6.291 6.2909999,6.2909999 0 0 1 6.291,6.291 z m -8.072002,-20.951 a 6.2909999,6.2909999 0 0 1 -6.291,6.291 6.2909999,6.2909999 0 0 1 -6.291,-6.291 6.2909999,6.2909999 0 0 1 6.291,-6.291 6.2909999,6.2909999 0 0 1 6.291,6.291 z M 160.6217,115.64374 a 6.2909999,6.2909999 0 0 1 -6.291,6.291 6.2909999,6.2909999 0 0 1 -6.291,-6.291 6.2909999,6.2909999 0 0 1 6.291,-6.291 6.2909999,6.2909999 0 0 1 6.291,6.291 z m -8.07299,-20.950015 a 6.2909999,6.2909999 0 0 1 -6.291,6.291005 6.2909999,6.2909999 0 0 1 -6.291,-6.291005 6.2909999,6.2909999 0 0 1 6.291,-6.291 6.2909999,6.2909999 0 0 1 6.291,6.291 z m -8.072,-20.95099 a 6.2909999,6.2909999 0 0 1 -6.291,6.291 6.2909999,6.2909999 0 0 1 -6.291,-6.291 6.2909999,6.2909999 0 0 1 6.291,-6.291 6.2909999,6.2909999 0 0 1 6.291,6.291 z m -8.073,-20.95099 a 6.2909999,6.2909999 0 0 1 -6.291,6.291 6.2909999,6.2909999 0 0 1 -6.291,-6.291 6.2909999,6.2909999 0 0 1 6.291,-6.291 6.2909999,6.2909999 0 0 1 6.291,6.291 z m -8.072,-20.95001 a 6.2909999,6.2909999 0 0 1 -6.291,6.291 6.2909999,6.2909999 0 0 1 -6.291,-6.291 6.2909999,6.2909999 0 0 1 6.291,-6.291 6.2909999,6.2909999 0 0 1 6.291,6.291 z m -8.073,-20.95101 a 6.2909999,6.2909999 0 0 1 -6.291,6.291 6.2909999,6.2909999 0 0 1 -6.291,-6.291 6.2909999,6.2909999 0 0 1 6.291,-6.2909899 6.2909999,6.2909999 0 0 1 6.291,6.2909899 z m -8.072,-20.94999 a 6.2909999,6.2909999 0 0 1 -6.291,6.2910001 6.2909999,6.2909999 0 0 1 -6.291004,-6.2910001 6.2909999,6.2909999 0 0 1 6.291004,-6.291 6.2909999,6.2909999 0 0 1 6.291,6.291 z m -8.073,-20.95101 a 6.2909999,6.2909999 0 0 1 -6.291002,6.291 6.2909999,6.2909999 0 0 1 -6.291,-6.291 6.2909999,6.2909999 0 0 1 6.291,-6.291 6.2909999,6.2909999 0 0 1 6.291002,6.291 z m -8.072001,-20.94999 a 6.2909999,6.2909999 0 0 1 -6.290999,6.291 6.2909999,6.2909999 0 0 1 -6.291,-6.291 6.2909999,6.2909999 0 0 1 6.291,-6.291 6.2909999,6.2909999 0 0 1 6.290999,6.291 z m -8.072998,-20.95101 a 6.2909999,6.2909999 0 0 1 -6.290999,6.291 6.2909999,6.2909999 0 0 1 -6.291,-6.291 6.2909999,6.2909999 0 0 1 6.291,-6.291 6.2909999,6.2909999 0 0 1 6.290999,6.291 z M 135.96271,125.14475 a 6.2909999,6.2909999 0 0 1 -6.291,6.291 6.2909999,6.2909999 0 0 1 -6.291,-6.291 6.2909999,6.2909999 0 0 1 6.291,-6.291 6.2909999,6.2909999 0 0 1 6.291,6.291 z m -8.072,-20.95001 a 6.2909999,6.2909999 0 0 1 -6.291,6.291 6.2909999,6.2909999 0 0 1 -6.291,-6.291 6.2909999,6.2909999 0 0 1 6.291,-6.291005 6.2909999,6.2909999 0 0 1 6.291,6.291005 z m -8.073,-20.950995 a 6.2909999,6.2909999 0 0 1 -6.291,6.291 6.2909999,6.2909999 0 0 1 -6.291,-6.291 6.2909999,6.2909999 0 0 1 6.291,-6.291 6.2909999,6.2909999 0 0 1 6.291,6.291 z m -8.072,-20.95002 a 6.2909999,6.2909999 0 0 1 -6.291,6.291 6.2909999,6.2909999 0 0 1 -6.290998,-6.291 6.2909999,6.2909999 0 0 1 6.290998,-6.291 6.2909999,6.2909999 0 0 1 6.291,6.291 z m -8.073,-20.95098 a 6.2909999,6.2909999 0 0 1 -6.291004,6.291 6.2909999,6.2909999 0 0 1 -6.291,-6.291 6.2909999,6.2909999 0 0 1 6.291,-6.291 6.2909999,6.2909999 0 0 1 6.291004,6.291 z m -8.072002,-20.95002 a 6.2909999,6.2909999 0 0 1 -6.291,6.291 6.2909999,6.2909999 0 0 1 -6.291,-6.291 6.2909999,6.2909999 0 0 1 6.291,-6.291 6.2909999,6.2909999 0 0 1 6.291,6.291 z M 87.52771,-0.55825488 a 6.2909999,6.2909999 0 0 1 -6.291,6.29099998 6.2909999,6.2909999 0 0 1 -6.291,-6.29099998 6.2909999,6.2909999 0 0 1 6.291,-6.29100002 6.2909999,6.2909999 0 0 1 6.291,6.29100002 z M 79.455711,-21.508275 a 6.2909999,6.2909999 0 0 1 -6.291,6.291 6.2909999,6.2909999 0 0 1 -6.291,-6.291 6.2909999,6.2909999 0 0 1 6.291,-6.291 6.2909999,6.2909999 0 0 1 6.291,6.291 z m -8.073002,-20.95099 a 6.2909999,6.2909999 0 0 1 -6.291,6.291 6.2909999,6.2909999 0 0 1 -6.291,-6.291 6.2909999,6.2909999 0 0 1 6.291,-6.291 6.2909999,6.2909999 0 0 1 6.291,6.291 z m -8.071999,-20.94999 a 6.2909999,6.2909999 0 0 1 -6.290999,6.291 6.2909999,6.2909999 0 0 1 -6.291,-6.291 6.2909999,6.2909999 0 0 1 6.291,-6.291 6.2909999,6.2909999 0 0 1 6.290999,6.291 z m 64.412,203.917005 a 6.2909999,6.2909999 0 0 1 -6.291,6.291 6.2909999,6.2909999 0 0 1 -6.291,-6.291 6.2909999,6.2909999 0 0 1 6.291,-6.291 6.2909999,6.2909999 0 0 1 6.291,6.291 z m -8.073,-20.95001 a 6.2909999,6.2909999 0 0 1 -6.291,6.291 6.2909999,6.2909999 0 0 1 -6.291,-6.291 6.2909999,6.2909999 0 0 1 6.291,-6.291 6.2909999,6.2909999 0 0 1 6.291,6.291 z m -8.072,-20.950995 a 6.2909999,6.2909999 0 0 1 -6.291,6.291005 6.2909999,6.2909999 0 0 1 -6.290997,-6.291005 6.2909999,6.2909999 0 0 1 6.290997,-6.291 6.2909999,6.2909999 0 0 1 6.291,6.291 z m -8.073,-20.95001 a 6.2909999,6.2909999 0 0 1 -6.291003,6.291 6.2909999,6.2909999 0 0 1 -6.291,-6.291 6.2909999,6.2909999 0 0 1 6.291,-6.291 6.2909999,6.2909999 0 0 1 6.291003,6.291 z m -8.072002,-20.95099 a 6.2909999,6.2909999 0 0 1 -6.291,6.291 6.2909999,6.2909999 0 0 1 -6.290999,-6.291 6.2909999,6.2909999 0 0 1 6.290999,-6.291 6.2909999,6.2909999 0 0 1 6.291,6.291 z M 87.35971,35.755735 a 6.2909999,6.2909999 0 0 1 -6.291,6.291 6.2909999,6.2909999 0 0 1 -6.291,-6.291 6.2909999,6.2909999 0 0 1 6.291,-6.291 6.2909999,6.2909999 0 0 1 6.291,6.291 z m -8.071998,-20.951 a 6.2909999,6.2909999 0 0 1 -6.291,6.291 6.2909999,6.2909999 0 0 1 -6.291,-6.291 6.2909999,6.2909999 0 0 1 6.291,-6.2909999 6.2909999,6.2909999 0 0 1 6.291,6.2909999 z M 71.21471,-6.1452649 a 6.2909999,6.2909999 0 0 1 -6.291,6.29100002 6.2909999,6.2909999 0 0 1 -6.291,-6.29100002 6.2909999,6.2909999 0 0 1 6.291,-6.2910001 6.2909999,6.2909999 0 0 1 6.291,6.2910001 z M 63.142711,-27.096265 a 6.2909999,6.2909999 0 0 1 -6.291,6.291 6.2909999,6.2909999 0 0 1 -6.291,-6.291 6.2909999,6.2909999 0 0 1 6.291,-6.291 6.2909999,6.2909999 0 0 1 6.291,6.291 z m -8.073002,-20.95 a 6.2909999,6.2909999 0 0 1 -6.291,6.291 6.2909999,6.2909999 0 0 1 -6.290999,-6.291 6.2909999,6.2909999 0 0 1 6.290999,-6.291 6.2909999,6.2909999 0 0 1 6.291,6.291 z" />
</g>
</svg>
