<svg xmlns="http://www.w3.org/2000/svg" xml:space="preserve" width="100" height="70"><path d="M488.598-101.24c-1.89-5.104-5.751-9.238-10.551-11.803L446.67-129.81a4 4 0 0 0-3.047-.3c-.18.056-19.225 6.96-20.852 7.584a318 318 0 0 0-8.057-20.45 4 4 0 0 0-5.095-2.142 300 300 0 0 0-20.247 8.589 314 314 0 0 0-10.225-19.396 4 4 0 0 0-5.328-1.556 303 303 0 0 0-18.997 10.843 311 311 0 0 0-12.258-18.068 4 4 0 0 0-5.482-.945 307 307 0 0 0-17.574 12.915 309 309 0 0 0-14.176-16.556 4 4 0 0 0-5.558-.321 309 309 0 0 0-15.99 14.812 306 306 0 0 0-15.967-14.854 4 4 0 0 0-5.554.307 311 311 0 0 0-14.26 16.533 303 303 0 0 0-17.62-12.96 4 4 0 0 0-5.47.932 314 314 0 0 0-12.394 18.088 299 299 0 0 0-19.122-10.865 4 4 0 0 0-5.308 1.54 317 317 0 0 0-10.405 19.476 296 296 0 0 0-20.46-8.564s-1.89-.354-2.843.013L30.93-97.588c-11.168 4.304-16.753 16.892-12.45 28.06l90.812 235.684c3.205 8.317 11.346 13.906 20.258 13.906a21.6 21.6 0 0 0 7.8-1.456l123.486-47.568c13.578-5.231 27.836-5.857 40.755-1.89 2.922.898 5.722 2.143 8.417 3.586 8.015 4.293 28.984 15.514 28.984 15.514a21.75 21.75 0 0 0 10.214 2.564 21.68 21.68 0 0 0 19.159-11.48L487.399-83.434c2.944-5.507 3.387-11.892 1.199-17.805m-52.052-18.107L335.273 70.183l87.954-184.343c2.52-.915 11.359-4.448 13.319-5.187m-20.54 1.74-106.678 223.59 81.38-234.278a290 290 0 0 1 18.183-7.952 308 308 0 0 1 7.116 18.64m-41.894-30.963a304 304 0 0 1 9.05 17.618L305.139 93.66l51.944-232.261a295 295 0 0 1 17.029-9.97m-35.725-8.254a302 302 0 0 1 10.897 16.444l-55.46 247.983L322.65-144.99a296 296 0 0 1 15.737-11.834m-36.32-4.163a300 300 0 0 1 12.635 15.087l-28.1 246.224 1.455-248.062a299 299 0 0 1 14.01-13.25m-36.556-.051a297 297 0 0 1 14.543 13.847l-1.466 250.136-25.797-248.908a302 302 0 0 1 12.72-15.075m-36.44 4.079a294 294 0 0 1 15.768 11.869l27.082 261.322-54.346-255.977a305 305 0 0 1 11.496-17.214m-35.966 8.232a291 291 0 0 1 16.41 9.537l54.053 254.596-79.7-246.401a309 309 0 0 1 9.237-17.732m-16.803 20.33 58.42 180.615-71.887-186.567a287 287 0 0 1 13.467 5.953m-87.277 16.998 29.51-11.37 100.668 261.264-29.51 11.37zM33.807-90.123l47.753-18.4 3.577 9.284-60.042 23.135c-.533-5.94 2.876-11.77 8.712-14.02M27.47-68.446l60.542-23.328 87.76 227.766-60.541 23.328zM134.475 171.14a13.7 13.7 0 0 1-4.924.92c-4.34 0-8.382-2.102-10.937-5.471l60.037-23.133 3.577 9.284zm92.192-35.523L125.999-125.646l27.529-10.607L254.196 125.01zM480.345-87.205 361.31 135.562a13.7 13.7 0 0 1-12.104 7.249c-2.263 0-4.431-.545-6.444-1.621l-28.286-15.114 131.952-246.943 28.286 15.115a13.6 13.6 0 0 1 6.656 8.107 13.62 13.62 0 0 1-1.026 10.44m-47.82 19.498a4.3 4.3 0 0 1-4.3 4.3 4.3 4.3 0 0 1-4.3-4.3 4.3 4.3 0 0 1 4.3-4.3 4.3 4.3 0 0 1 4.3 4.3m-7.233 13.536a4.3 4.3 0 0 1-4.3 4.3 4.3 4.3 0 0 1-4.3-4.3 4.3 4.3 0 0 1 4.3-4.3 4.3 4.3 0 0 1 4.3 4.3m-7.232 13.535a4.3 4.3 0 0 1-4.3 4.3 4.3 4.3 0 0 1-4.3-4.3 4.3 4.3 0 0 1 4.3-4.3 4.3 4.3 0 0 1 4.3 4.3m-7.232 13.535a4.3 4.3 0 0 1-4.3 4.3 4.3 4.3 0 0 1-4.3-4.3 4.3 4.3 0 0 1 4.3-4.3 4.3 4.3 0 0 1 4.3 4.3m33.468-42.901a4.3 4.3 0 0 1-4.3 4.3 4.3 4.3 0 0 1-4.3-4.3 4.3 4.3 0 0 1 4.3-4.3 4.3 4.3 0 0 1 4.3 4.3m-7.232 13.535a4.3 4.3 0 0 1-4.3 4.3 4.3 4.3 0 0 1-4.3-4.3 4.3 4.3 0 0 1 4.3-4.3 4.3 4.3 0 0 1 4.3 4.3m-7.232 13.535a4.3 4.3 0 0 1-4.3 4.3 4.3 4.3 0 0 1-4.3-4.3 4.3 4.3 0 0 1 4.3-4.3 4.3 4.3 0 0 1 4.3 4.3m-7.233 13.535a4.3 4.3 0 0 1-4.3 4.3 4.3 4.3 0 0 1-4.3-4.3 4.3 4.3 0 0 1 4.3-4.3 4.3 4.3 0 0 1 4.3 4.3m-7.232 13.535a4.3 4.3 0 0 1-4.3 4.3 4.3 4.3 0 0 1-4.3-4.3 4.3 4.3 0 0 1 4.3-4.3 4.3 4.3 0 0 1 4.3 4.3m40.8-56.596a4.3 4.3 0 0 1-4.3 4.3 4.3 4.3 0 0 1-4.3-4.3 4.3 4.3 0 0 1 4.3-4.3 4.3 4.3 0 0 1 4.3 4.3m-7.233 13.535a4.3 4.3 0 0 1-4.3 4.3 4.3 4.3 0 0 1-4.3-4.3 4.3 4.3 0 0 1 4.3-4.3 4.3 4.3 0 0 1 4.3 4.3m-7.232 13.536a4.3 4.3 0 0 1-4.3 4.3 4.3 4.3 0 0 1-4.3-4.3 4.3 4.3 0 0 1 4.3-4.3 4.3 4.3 0 0 1 4.3 4.3m-7.232 13.535a4.3 4.3 0 0 1-4.3 4.3 4.3 4.3 0 0 1-4.3-4.3 4.3 4.3 0 0 1 4.3-4.3 4.3 4.3 0 0 1 4.3 4.3m-7.233 13.535a4.3 4.3 0 0 1-4.3 4.3 4.3 4.3 0 0 1-4.3-4.3 4.3 4.3 0 0 1 4.3-4.3 4.3 4.3 0 0 1 4.3 4.3m40.7-56.436a4.3 4.3 0 0 1-4.3 4.3 4.3 4.3 0 0 1-4.3-4.3 4.3 4.3 0 0 1 4.3-4.3 4.3 4.3 0 0 1 4.3 4.3m-7.231 13.535a4.3 4.3 0 0 1-4.3 4.3 4.3 4.3 0 0 1-4.3-4.3 4.3 4.3 0 0 1 4.3-4.3 4.3 4.3 0 0 1 4.3 4.3m-7.232 13.535a4.3 4.3 0 0 1-4.3 4.3 4.3 4.3 0 0 1-4.3-4.3 4.3 4.3 0 0 1 4.3-4.3 4.3 4.3 0 0 1 4.3 4.3m-7.233 13.535a4.3 4.3 0 0 1-4.3 4.3 4.3 4.3 0 0 1-4.3-4.3 4.3 4.3 0 0 1 4.3-4.3 4.3 4.3 0 0 1 4.3 4.3m-7.232 13.535a4.3 4.3 0 0 1-4.3 4.3 4.3 4.3 0 0 1-4.3-4.3 4.3 4.3 0 0 1 4.3-4.3 4.3 4.3 0 0 1 4.3 4.3m-7.233 13.536a4.3 4.3 0 0 1-4.3 4.3 4.3 4.3 0 0 1-4.3-4.3 4.3 4.3 0 0 1 4.3-4.3 4.3 4.3 0 0 1 4.3 4.3m-28.296-6.494a4.3 4.3 0 0 1-4.3 4.3 4.3 4.3 0 0 1-4.3-4.3 4.3 4.3 0 0 1 4.3-4.3 4.3 4.3 0 0 1 4.3 4.3M396.247-.036a4.3 4.3 0 0 1-4.3 4.3 4.3 4.3 0 0 1-4.3-4.3 4.3 4.3 0 0 1 4.3-4.3 4.3 4.3 0 0 1 4.3 4.3m-7.232 13.535a4.3 4.3 0 0 1-4.3 4.3 4.3 4.3 0 0 1-4.3-4.3 4.3 4.3 0 0 1 4.3-4.3 4.3 4.3 0 0 1 4.3 4.3m-7.232 13.536a4.3 4.3 0 0 1-4.3 4.3 4.3 4.3 0 0 1-4.3-4.3 4.3 4.3 0 0 1 4.3-4.3 4.3 4.3 0 0 1 4.3 4.3M374.55 40.57a4.3 4.3 0 0 1-4.3 4.3 4.3 4.3 0 0 1-4.3-4.3 4.3 4.3 0 0 1 4.3-4.3 4.3 4.3 0 0 1 4.3 4.3m-7.232 13.535a4.3 4.3 0 0 1-4.3 4.3 4.3 4.3 0 0 1-4.3-4.3 4.3 4.3 0 0 1 4.3-4.3 4.3 4.3 0 0 1 4.3 4.3m-7.233 13.535a4.3 4.3 0 0 1-4.3 4.3 4.3 4.3 0 0 1-4.3-4.3 4.3 4.3 0 0 1 4.3-4.3 4.3 4.3 0 0 1 4.3 4.3m-7.232 13.535a4.3 4.3 0 0 1-4.3 4.3 4.3 4.3 0 0 1-4.3-4.3 4.3 4.3 0 0 1 4.3-4.3 4.3 4.3 0 0 1 4.3 4.3m55.166-83.507a4.3 4.3 0 0 1-4.3 4.3 4.3 4.3 0 0 1-4.3-4.3 4.3 4.3 0 0 1 4.3-4.3 4.3 4.3 0 0 1 4.3 4.3m-7.232 13.536a4.3 4.3 0 0 1-4.3 4.3 4.3 4.3 0 0 1-4.3-4.3 4.3 4.3 0 0 1 4.3-4.3 4.3 4.3 0 0 1 4.3 4.3m-7.233 13.535a4.3 4.3 0 0 1-4.3 4.3 4.3 4.3 0 0 1-4.3-4.3 4.3 4.3 0 0 1 4.3-4.3 4.3 4.3 0 0 1 4.3 4.3m-7.232 13.535a4.3 4.3 0 0 1-4.3 4.3 4.3 4.3 0 0 1-4.3-4.3 4.3 4.3 0 0 1 4.3-4.3 4.3 4.3 0 0 1 4.3 4.3m-7.233 13.535a4.3 4.3 0 0 1-4.3 4.3 4.3 4.3 0 0 1-4.3-4.3 4.3 4.3 0 0 1 4.3-4.3 4.3 4.3 0 0 1 4.3 4.3m-7.232 13.536a4.3 4.3 0 0 1-4.3 4.3 4.3 4.3 0 0 1-4.3-4.3 4.3 4.3 0 0 1 4.3-4.3 4.3 4.3 0 0 1 4.3 4.3m-7.232 13.535a4.3 4.3 0 0 1-4.3 4.3 4.3 4.3 0 0 1-4.3-4.3 4.3 4.3 0 0 1 4.3-4.3 4.3 4.3 0 0 1 4.3 4.3m-7.233 13.535a4.3 4.3 0 0 1-4.3 4.3 4.3 4.3 0 0 1-4.3-4.3 4.3 4.3 0 0 1 4.3-4.3 4.3 4.3 0 0 1 4.3 4.3m62.497-97.202a4.3 4.3 0 0 1-4.3 4.3 4.3 4.3 0 0 1-4.3-4.3 4.3 4.3 0 0 1 4.3-4.3 4.3 4.3 0 0 1 4.3 4.3m-7.232 13.535a4.3 4.3 0 0 1-4.3 4.3 4.3 4.3 0 0 1-4.3-4.3 4.3 4.3 0 0 1 4.3-4.3 4.3 4.3 0 0 1 4.3 4.3m-7.233 13.535a4.3 4.3 0 0 1-4.3 4.3 4.3 4.3 0 0 1-4.3-4.3 4.3 4.3 0 0 1 4.3-4.3 4.3 4.3 0 0 1 4.3 4.3m-7.232 13.536a4.3 4.3 0 0 1-4.3 4.3 4.3 4.3 0 0 1-4.3-4.3 4.3 4.3 0 0 1 4.3-4.3 4.3 4.3 0 0 1 4.3 4.3m-7.232 13.535a4.3 4.3 0 0 1-4.3 4.3 4.3 4.3 0 0 1-4.3-4.3 4.3 4.3 0 0 1 4.3-4.3 4.3 4.3 0 0 1 4.3 4.3m-7.233 13.535a4.3 4.3 0 0 1-4.3 4.3 4.3 4.3 0 0 1-4.3-4.3 4.3 4.3 0 0 1 4.3-4.3 4.3 4.3 0 0 1 4.3 4.3m-7.232 13.535a4.3 4.3 0 0 1-4.3 4.3 4.3 4.3 0 0 1-4.3-4.3 4.3 4.3 0 0 1 4.3-4.3 4.3 4.3 0 0 1 4.3 4.3m-7.233 13.535a4.3 4.3 0 0 1-4.3 4.3 4.3 4.3 0 0 1-4.3-4.3 4.3 4.3 0 0 1 4.3-4.3 4.3 4.3 0 0 1 4.3 4.3m-7.232 13.536a4.3 4.3 0 0 1-4.3 4.3 4.3 4.3 0 0 1-4.3-4.3 4.3 4.3 0 0 1 4.3-4.3 4.3 4.3 0 0 1 4.3 4.3m62.398-97.042a4.3 4.3 0 0 1-4.3 4.3 4.3 4.3 0 0 1-4.3-4.3 4.3 4.3 0 0 1 4.3-4.3 4.3 4.3 0 0 1 4.3 4.3m-7.232 13.535a4.3 4.3 0 0 1-4.3 4.3 4.3 4.3 0 0 1-4.3-4.3 4.3 4.3 0 0 1 4.3-4.3 4.3 4.3 0 0 1 4.3 4.3m-7.232 13.535a4.3 4.3 0 0 1-4.3 4.3 4.3 4.3 0 0 1-4.3-4.3 4.3 4.3 0 0 1 4.3-4.3 4.3 4.3 0 0 1 4.3 4.3m-7.233 13.535a4.3 4.3 0 0 1-4.3 4.3 4.3 4.3 0 0 1-4.3-4.3 4.3 4.3 0 0 1 4.3-4.3 4.3 4.3 0 0 1 4.3 4.3m-7.232 13.535a4.3 4.3 0 0 1-4.3 4.3 4.3 4.3 0 0 1-4.3-4.3 4.3 4.3 0 0 1 4.3-4.3 4.3 4.3 0 0 1 4.3 4.3m-7.233 13.536a4.3 4.3 0 0 1-4.3 4.3 4.3 4.3 0 0 1-4.3-4.3 4.3 4.3 0 0 1 4.3-4.3 4.3 4.3 0 0 1 4.3 4.3m-7.232 13.535a4.3 4.3 0 0 1-4.3 4.3 4.3 4.3 0 0 1-4.3-4.3 4.3 4.3 0 0 1 4.3-4.3 4.3 4.3 0 0 1 4.3 4.3m-7.232 13.535a4.3 4.3 0 0 1-4.3 4.3 4.3 4.3 0 0 1-4.3-4.3 4.3 4.3 0 0 1 4.3-4.3 4.3 4.3 0 0 1 4.3 4.3m-7.233 13.535a4.3 4.3 0 0 1-4.3 4.3 4.3 4.3 0 0 1-4.3-4.3 4.3 4.3 0 0 1 4.3-4.3 4.3 4.3 0 0 1 4.3 4.3M152.38 131.007a6.29 6.29 0 0 1-6.291 6.29 6.29 6.29 0 0 1-6.291-6.29 6.29 6.29 0 0 1 6.29-6.291 6.29 6.29 0 0 1 6.292 6.29m-8.072-20.951a6.29 6.29 0 0 1-6.291 6.29 6.29 6.29 0 0 1-6.291-6.29 6.29 6.29 0 0 1 6.29-6.291 6.29 6.29 0 0 1 6.292 6.29m-8.073-20.95a6.29 6.29 0 0 1-6.291 6.29 6.29 6.29 0 0 1-6.291-6.29 6.29 6.29 0 0 1 6.29-6.291 6.29 6.29 0 0 1 6.292 6.29m-8.072-20.951a6.29 6.29 0 0 1-6.291 6.29 6.29 6.29 0 0 1-6.291-6.29 6.29 6.29 0 0 1 6.29-6.291 6.29 6.29 0 0 1 6.292 6.29m-8.073-20.95a6.29 6.29 0 0 1-6.291 6.29 6.29 6.29 0 0 1-6.291-6.29 6.29 6.29 0 0 1 6.29-6.291 6.29 6.29 0 0 1 6.292 6.29m-8.072-20.951a6.29 6.29 0 0 1-6.291 6.29 6.29 6.29 0 0 1-6.291-6.29 6.29 6.29 0 0 1 6.29-6.291 6.29 6.29 0 0 1 6.292 6.29m-8.073-20.95a6.29 6.29 0 0 1-6.291 6.29 6.29 6.29 0 0 1-6.291-6.29 6.29 6.29 0 0 1 6.29-6.291 6.29 6.29 0 0 1 6.292 6.29m-8.072-20.951a6.29 6.29 0 0 1-6.291 6.29 6.29 6.29 0 0 1-6.291-6.29 6.29 6.29 0 0 1 6.29-6.291 6.29 6.29 0 0 1 6.292 6.29M87.8-36.597a6.29 6.29 0 0 1-6.291 6.29 6.29 6.29 0 0 1-6.291-6.29 6.29 6.29 0 0 1 6.29-6.291 6.29 6.29 0 0 1 6.292 6.29m-8.072-20.951a6.29 6.29 0 0 1-6.291 6.29 6.29 6.29 0 0 1-6.291-6.29 6.29 6.29 0 0 1 6.29-6.291 6.29 6.29 0 0 1 6.292 6.29m80.893 173.192a6.29 6.29 0 0 1-6.291 6.29 6.29 6.29 0 0 1-6.291-6.29 6.29 6.29 0 0 1 6.29-6.291 6.29 6.29 0 0 1 6.292 6.29m-8.073-20.95a6.29 6.29 0 0 1-6.291 6.29 6.29 6.29 0 0 1-6.291-6.29 6.29 6.29 0 0 1 6.29-6.291 6.29 6.29 0 0 1 6.292 6.29m-8.072-20.951a6.29 6.29 0 0 1-6.291 6.29 6.29 6.29 0 0 1-6.291-6.29 6.29 6.29 0 0 1 6.29-6.291 6.29 6.29 0 0 1 6.292 6.29m-8.073-20.951a6.29 6.29 0 0 1-6.291 6.29 6.29 6.29 0 0 1-6.291-6.29 6.29 6.29 0 0 1 6.29-6.291 6.29 6.29 0 0 1 6.292 6.29m-8.072-20.95a6.29 6.29 0 0 1-6.291 6.29 6.29 6.29 0 0 1-6.291-6.29 6.29 6.29 0 0 1 6.29-6.291 6.29 6.29 0 0 1 6.292 6.29m-8.073-20.951a6.29 6.29 0 0 1-6.291 6.29 6.29 6.29 0 0 1-6.291-6.29 6.29 6.29 0 0 1 6.29-6.291 6.29 6.29 0 0 1 6.292 6.29m-8.072-20.95a6.29 6.29 0 0 1-6.291 6.29 6.29 6.29 0 0 1-6.291-6.29 6.29 6.29 0 0 1 6.29-6.291 6.29 6.29 0 0 1 6.292 6.29m-8.073-20.951a6.29 6.29 0 0 1-6.291 6.29 6.29 6.29 0 0 1-6.291-6.29 6.29 6.29 0 0 1 6.29-6.291 6.29 6.29 0 0 1 6.292 6.29m-8.072-20.95a6.29 6.29 0 0 1-6.291 6.29 6.29 6.29 0 0 1-6.291-6.29 6.29 6.29 0 0 1 6.29-6.291 6.29 6.29 0 0 1 6.292 6.29m-8.073-20.951a6.29 6.29 0 0 1-6.291 6.29 6.29 6.29 0 0 1-6.291-6.29 6.29 6.29 0 0 1 6.29-6.291 6.29 6.29 0 0 1 6.292 6.29m47.994 198.056a6.29 6.29 0 0 1-6.291 6.29 6.29 6.29 0 0 1-6.291-6.29 6.29 6.29 0 0 1 6.29-6.291 6.29 6.29 0 0 1 6.292 6.29m-8.072-20.95a6.29 6.29 0 0 1-6.291 6.29 6.29 6.29 0 0 1-6.291-6.29 6.29 6.29 0 0 1 6.29-6.291 6.29 6.29 0 0 1 6.292 6.29m-8.073-20.951a6.29 6.29 0 0 1-6.291 6.29 6.29 6.29 0 0 1-6.291-6.29 6.29 6.29 0 0 1 6.29-6.291 6.29 6.29 0 0 1 6.292 6.29m-8.072-20.95a6.29 6.29 0 0 1-6.291 6.29 6.29 6.29 0 0 1-6.291-6.29 6.29 6.29 0 0 1 6.29-6.291 6.29 6.29 0 0 1 6.292 6.29m-8.073-20.951a6.29 6.29 0 0 1-6.291 6.29 6.29 6.29 0 0 1-6.291-6.29 6.29 6.29 0 0 1 6.29-6.291 6.29 6.29 0 0 1 6.292 6.29M95.6 20.393a6.29 6.29 0 0 1-6.291 6.29 6.29 6.29 0 0 1-6.291-6.29 6.29 6.29 0 0 1 6.29-6.291 6.29 6.29 0 0 1 6.292 6.29M87.528-.558a6.29 6.29 0 0 1-6.291 6.29 6.29 6.29 0 0 1-6.291-6.29 6.29 6.29 0 0 1 6.29-6.291 6.29 6.29 0 0 1 6.292 6.29m-8.072-20.95a6.29 6.29 0 0 1-6.291 6.29 6.29 6.29 0 0 1-6.291-6.29 6.29 6.29 0 0 1 6.29-6.291 6.29 6.29 0 0 1 6.292 6.29m-8.073-20.95a6.29 6.29 0 0 1-6.291 6.29 6.29 6.29 0 0 1-6.291-6.29 6.29 6.29 0 0 1 6.29-6.291 6.29 6.29 0 0 1 6.292 6.29M63.31-63.41a6.29 6.29 0 0 1-6.291 6.29 6.29 6.29 0 0 1-6.291-6.29 6.29 6.29 0 0 1 6.29-6.291 6.29 6.29 0 0 1 6.292 6.29m64.412 203.917a6.29 6.29 0 0 1-6.291 6.29 6.29 6.29 0 0 1-6.291-6.29 6.29 6.29 0 0 1 6.29-6.291 6.29 6.29 0 0 1 6.292 6.29m-8.073-20.95a6.29 6.29 0 0 1-6.291 6.29 6.29 6.29 0 0 1-6.291-6.29 6.29 6.29 0 0 1 6.29-6.291 6.29 6.29 0 0 1 6.292 6.29m-8.072-20.951a6.29 6.29 0 0 1-6.291 6.29 6.29 6.29 0 0 1-6.291-6.29 6.29 6.29 0 0 1 6.29-6.291 6.29 6.29 0 0 1 6.292 6.29m-8.073-20.95a6.29 6.29 0 0 1-6.291 6.29 6.29 6.29 0 0 1-6.291-6.29 6.29 6.29 0 0 1 6.29-6.291 6.29 6.29 0 0 1 6.292 6.29M95.432 56.7a6.29 6.29 0 0 1-6.291 6.29 6.29 6.29 0 0 1-6.291-6.29 6.29 6.29 0 0 1 6.29-6.291 6.29 6.29 0 0 1 6.292 6.29m-8.073-20.95a6.29 6.29 0 0 1-6.291 6.29 6.29 6.29 0 0 1-6.291-6.29 6.29 6.29 0 0 1 6.29-6.291 6.29 6.29 0 0 1 6.292 6.29m-8.072-20.951a6.29 6.29 0 0 1-6.291 6.29 6.29 6.29 0 0 1-6.291-6.29 6.29 6.29 0 0 1 6.29-6.291 6.29 6.29 0 0 1 6.292 6.29m-8.073-20.95a6.29 6.29 0 0 1-6.291 6.29 6.29 6.29 0 0 1-6.291-6.29 6.29 6.29 0 0 1 6.29-6.291 6.29 6.29 0 0 1 6.292 6.29m-8.072-20.951a6.29 6.29 0 0 1-6.291 6.29 6.29 6.29 0 0 1-6.291-6.29 6.29 6.29 0 0 1 6.29-6.291 6.29 6.29 0 0 1 6.292 6.29m-8.073-20.95a6.29 6.29 0 0 1-6.291 6.29 6.29 6.29 0 0 1-6.291-6.29 6.29 6.29 0 0 1 6.29-6.291 6.29 6.29 0 0 1 6.292 6.29" style="stroke-width:5.06997" transform="translate(0 34.07)scale(.19724)"/></svg>