<svg xmlns="http://www.w3.org/2000/svg" xml:space="preserve" width="100" height="70">
    <g style="stroke-width:.98033">
        <path d="M44.654 70.631c-4.272-5.554-5.567-10.503.689-17.795 0 0-5.296-12.612-7.964-18.478-.26.161-.447.04-.527-.112-1.757-3.328-5.203-13.068-6.834-17.306-.261-.638-.725-1.9-1.139-2.735-.082-.166-.361-.108-.51-.217-.384-.28-.748-.64-.929-1.078-.106-.257.256-.2.073-.618-.76-1.73.147-2.27.855-2.632.835-.426 1.91.205 2.308.943.18.335.404.159.518.328.336.498.255 1.54.323 1.772.172.581 0 .28 1.315 2.947 1.314 2.668 8.58 14.373 9.397 16.262l-.21.289c7.738 15.309 9.263 17.26 9.263 17.26 2.512 1.267 10.833-1.337 14.438 10.584-6.43 2.69 2.977 13.79 7.29 9.882 13.223 14.167 3.598 23.669-2.623 26.598-6.709 3.158-19.448 5.67-22.668-14.724 6.176.535 2.314-14.321-3.065-11.17" style="fill:none;fill-opacity:.762332;stroke:#000;stroke-width:.784266;stroke-linecap:round;stroke-linejoin:round;stroke-miterlimit:4.7;stroke-dasharray:none;stroke-opacity:1" transform="matrix(-.83014 .59159 -.59471 -.82962 124.113 56.404)"/>
        <path d="M53.31 72.344c-.06 0-.153.503-.101.943.049.415.236.862.375 1.283.286.868-.264 1.572-.263 2.276s.3 1.1.448 1.632c.087.313.043.59-.05.852-.016.045.103.103.19.175.024.02.149-.253.44-.13.446.187.16.701-.146.65-.347-.06-.311-.358-.396-.347-.12.017-.259.04-.28.082l-.047.095c-.217.435-.627.914-.627 1.25 0 .252-.017.542-.029.992-.01.372-.146.887-.462 1.31-.353.472-.786.482-.786.482s.442-.365.598-.971-.042-1.423.052-2.085c.093-.661.643-1 .77-1.649.127-.65-.18-.988-.354-1.789-.173-.801.237-1.783.353-2.438.126-.71-.285-1.172-.166-1.744.068-.324.653-1.155.482-.87" style="color:#000;fill:#000;fill-opacity:1;stroke-width:.98033;stroke-linecap:round;stroke-linejoin:round;stroke-miterlimit:4.7;-inkscape-stroke:none" transform="matrix(-.83014 .59159 -.59471 -.82962 124.113 56.404)"/>
        <path d="M68.729 97.201s-.852-3.394-2.506-5.506-4.82-4.562-4.82-4.562c.753.17 3.834-5.812 6.681-6.056 0 0 .671 6.984 1.212 8.9.54 1.915 2.43 5.958 2.43 5.958m-26.33-43.368 6.861 16.563c1.74-.972 5.36-2.577 7.734-3.626l-9.17-16.53" style="fill:none;fill-opacity:1;stroke:#000;stroke-width:.490166;stroke-linecap:round;stroke-linejoin:round;stroke-miterlimit:4.7;stroke-dasharray:none;stroke-opacity:1" transform="matrix(-.83014 .59159 -.59471 -.82962 124.113 56.404)"/>
        <path d="m37.402 34.414 4.635-2.235m14.302 47.47c4.065-1.112 8.724-4.495 8.724-4.495" style="fill:none;fill-opacity:1;stroke:#000;stroke-width:.98033;stroke-linecap:round;stroke-linejoin:round;stroke-miterlimit:4.7;stroke-dasharray:none;stroke-opacity:1" transform="matrix(-.83014 .59159 -.59471 -.82962 124.113 56.404)"/>
        <g style="stroke-width:.837802">
            <path d="M45.492 33.247c-.843 13.884-1.235 27.958-1.694 42.003l1.897 8.986" style="fill:none;fill-opacity:1;stroke:#000;stroke-width:.20945;stroke-linecap:round;stroke-linejoin:round;stroke-miterlimit:4.7;stroke-dasharray:none;stroke-opacity:1" transform="matrix(-.58047 1.04128 -1.04421 -.5812 133.77 22.226)"/>
            <path d="m46.36 33.31-1.42 42.118 1.54 8.45" style="fill:none;fill-opacity:1;stroke:#000;stroke-width:.20945;stroke-linecap:round;stroke-linejoin:round;stroke-miterlimit:4.7;stroke-dasharray:none;stroke-opacity:1" transform="matrix(-.58047 1.04128 -1.04421 -.5812 133.77 22.226)"/>
            <path d="m46.877 33.06-.576 42.726 1.073 7.703m.131-50.143.276 42.047.498 7.692m-.199-49.68 1.074 42.02.071 7.319m-.583-49.402 1.874 41.751-.569 7.297m-.564-49.02 2.277 41.62-.823 6.899" style="fill:none;fill-opacity:1;stroke:#000;stroke-width:.20945;stroke-linecap:round;stroke-linejoin:round;stroke-miterlimit:4.7;stroke-dasharray:none;stroke-opacity:1" transform="matrix(-.58047 1.04128 -1.04421 -.5812 133.77 22.226)"/>
        </g>
        <path d="m37.827 33.776-4.472-10.883 1.896-.93 5.718 10.33zm-8.493-19.029c-.503-.318-1.46-1.165-1.46-1.165-.35-.078-.095-1.084-.365-1.233-.571-.318.13-1.924-.038-1.597-.72 1.4.945-4.736 3.302.108.355.745.499 1.35.824 2.7" style="display:inline;fill:#000;fill-opacity:1;stroke:#000;stroke-width:.245083;stroke-linecap:round;stroke-linejoin:round;stroke-miterlimit:4.7;stroke-dasharray:none;stroke-opacity:1" transform="matrix(-.83014 .59159 -.59471 -.82962 124.113 56.404)"/>
        <path d="M61.727 68.242c.038-.048.489.195.799.512.293.298.523.724.764 1.096.497.767 1.39.78 1.938 1.222.547.441.669.923.99 1.372.19.264.434.404.697.495.044.015.014.145.016.258 0 .03-.29-.043-.377.262-.133.464.446.564.598.293.172-.308-.084-.467-.022-.526.089-.083.194-.177.239-.167l.104.023c.476.104 1.106.084 1.367.295.196.159.433.327.791.6.296.225.783.441 1.31.46.59.021.868-.31.868-.31s-.56.116-1.13-.143-1.083-.924-1.657-1.266-1.183-.126-1.768-.434c-.586-.307-.657-.759-1.173-1.397-.515-.637-1.537-.933-2.12-1.253-.632-.347-.735-.957-1.255-1.222-.295-.15-1.309-.216-.98-.17" style="color:#000;fill:#000;fill-opacity:1;stroke-width:.98033;stroke-linecap:round;stroke-linejoin:round;stroke-miterlimit:4.7;-inkscape-stroke:none" transform="matrix(-.83014 .59159 -.59471 -.82962 124.113 56.404)"/>
        <g style="stroke-width:.98033">
            <path d="M32.95 30.57c.233-.176.155-.29.247-.346.118-.084.211.113.322.13.167-.079 1.01-.463 1.177-.542.198-.095.438.691.404.71 0 0-1.189.522-1.28.592.002.124.04.257-.086.307s-.227-.184-.424-.057c0 .56-.162.765-.509.94-.347.176-.823-.04-1.113-.506-.1.122-.28.152-.354-.055s.11-.254.234-.237c-.113-.393-.166-.961.31-1.151.475-.19.695-.117 1.072.215m-1.048-2.832c.221-.169.144-.284.231-.338.112-.08.205.116.311.136.16-.076 1.383-.642 1.542-.717.188-.09.467.763.435.78 0 0-1.587.628-1.674.696.005.123.044.255-.076.302s-.22-.187-.408-.065c.011.556-.14.756-.471.923s-.792-.056-1.08-.523c-.093.12-.265.146-.34-.061s.1-.25.22-.23c-.116-.393-.177-.956.276-1.136s.666-.102 1.034.233m-.876-2.768c.234-.175.156-.29.248-.345.117-.085.21.113.32.13.168-.08 1.26-.583 1.427-.662.198-.094.395.941.361.96 0 0-1.394.392-1.486.462.002.124.04.257-.086.307s-.226-.185-.424-.057c.001.56-.161.765-.509.94-.347.176-.823-.04-1.113-.506-.1.122-.28.152-.354-.055s.11-.254.235-.237c-.114-.394-.166-.961.309-1.152s.695-.116 1.072.215m3.005 8.306c.234-.176.156-.29.248-.346.118-.084.21.113.321.13l1.219-.576c.198-.094.631.499.598.517 0 0-1.424.75-1.516.82.002.124.04.256-.086.307s-.226-.185-.424-.058c.001.56-.161.765-.509.941-.347.176-.823-.04-1.113-.507-.1.123-.28.153-.354-.055-.074-.207.11-.254.235-.236-.114-.394-.166-.962.309-1.152s.696-.116 1.072.215m-4.007-11.074c.234-.176.156-.29.248-.346.118-.084.211.113.321.13.168-.079 1.235-.462 1.402-.541.198-.095.213.717.18.735 0 0-1.19.497-1.281.566.003.125.04.257-.086.307-.125.05-.226-.184-.424-.057.001.56-.161.765-.508.941-.348.176-.824-.041-1.113-.507-.1.122-.28.152-.354-.055-.075-.207.109-.254.234-.237-.113-.393-.166-.961.31-1.151.474-.19.695-.116 1.071.215m-1.001-2.769c.233-.175.155-.29.247-.346.118-.084.211.114.322.13.167-.078.732-.33.9-.409.198-.094.328.733.295.751 0 0-.803.35-.895.419.003.124.04.257-.086.307-.125.05-.226-.185-.423-.057 0 .56-.162.765-.51.94-.346.176-.822-.04-1.112-.506-.1.122-.28.152-.354-.055s.11-.255.234-.237c-.113-.394-.166-.962.31-1.152.475-.19.695-.116 1.072.215m-1.002-2.768c.234-.176.156-.29.248-.346.117-.084.21.113.32.13.168-.079.465-.201.632-.28.198-.095.322.718.288.737 0 0-.527.234-.618.303.002.125.04.257-.086.307s-.226-.184-.424-.057c.001.56-.161.765-.509.94-.347.177-.823-.04-1.113-.506-.1.122-.28.152-.354-.055s.11-.254.235-.237c-.114-.393-.166-.961.309-1.151s.695-.116 1.072.215" style="color:#000;display:inline;fill:#000;fill-opacity:1;stroke-width:.98033;stroke-linecap:round;stroke-linejoin:round;stroke-miterlimit:4.7;-inkscape-stroke:none" transform="matrix(-.83014 .59159 -.59471 -.82962 124.113 56.404)"/>
        </g>
        <g style="stroke-width:.98033">
            <path d="M37.73 20.06c-.284.07-.323-.064-.424-.028-.14.038-.047.235-.103.331-.168.08-.913.453-1.08.532-.199.093.46.652.496.638 0 0 .869-.429.98-.456.095.081.174.194.293.129.118-.066 0-.292.224-.364.433.356.694.36 1.05.203.356-.158.49-.663.314-1.182.158 0 .295-.12.182-.309-.113-.188-.266-.077-.332.031-.232-.337-.638-.738-1.086-.49-.449.246-.531.463-.514.965m-1.774-2.37c-.283.07-.322-.063-.424-.028-.14.038-.046.235-.103.331-.167.08-.45.231-.617.31-.199.094.352.705.387.69 0 0 .515-.258.627-.285.095.08.174.194.292.128.119-.065 0-.292.224-.364.433.356.695.36 1.05.203.357-.157.491-.663.314-1.182.158 0 .295-.12.182-.308-.113-.189-.266-.077-.331.03-.233-.337-.639-.737-1.087-.49-.448.246-.53.464-.514.965m-3.016-4.993c-.283.069-.322-.064-.424-.028-.14.037-.046.235-.102.33-.168.08-.45.232-.618.31-.198.094.352.705.387.691 0 0 .515-.259.628-.286.094.081.173.194.291.129.119-.066 0-.292.225-.364.432.356.694.36 1.05.203.356-.158.49-.663.314-1.183.157 0 .295-.12.182-.308-.113-.189-.266-.077-.332.031-.233-.337-.638-.738-1.087-.491s-.53.464-.513.966m1.314 2.589c-.284.07-.323-.063-.424-.028-.14.038-.047.235-.103.331-.168.08-.45.231-.618.31-.198.094.352.705.388.69 0 0 .515-.258.627-.285.094.08.173.193.292.128.118-.065 0-.292.224-.364.433.356.694.36 1.05.203s.49-.663.314-1.182c.158 0 .295-.12.182-.308-.113-.19-.266-.077-.332.03-.232-.337-.638-.737-1.086-.49-.449.246-.531.464-.514.965m5.091 7.219c-.284.07-.323-.064-.425-.028-.14.038-.046.235-.103.331-.167.08-1.211.565-1.378.644-.199.093.629.592.664.578 0 0 1-.48 1.111-.507.095.08.174.193.292.128.119-.065 0-.292.225-.364.432.356.694.36 1.05.203s.49-.663.313-1.182c.158 0 .295-.12.182-.309-.113-.188-.265-.076-.331.031-.233-.337-.639-.737-1.087-.49-.448.246-.53.464-.513.965m1.524 2.488c-.283.07-.322-.063-.424-.027-.14.037-.046.235-.102.33l-1.249.592c-.198.094.394.706.43.691 0 0 1.103-.54 1.216-.568.094.081.173.194.291.129.119-.066 0-.292.225-.364.432.356.694.36 1.05.203.356-.158.49-.663.314-1.183.157 0 .295-.12.182-.308-.113-.189-.266-.077-.332.031-.233-.337-.638-.738-1.087-.491s-.53.464-.513.966m1.645 2.43c-.283.07-.322-.063-.424-.027-.14.037-.046.234-.103.33-.167.08-1.258.633-1.426.712-.198.093.253.767.288.752 0 0 1.423-.722 1.535-.749.095.08.174.194.292.128.118-.065 0-.292.224-.364.433.356.695.36 1.05.203.357-.157.49-.662.314-1.182.158 0 .295-.12.182-.308-.113-.189-.266-.077-.332.03-.232-.337-.638-.737-1.086-.49s-.53.464-.514.965" style="color:#000;display:inline;fill:#000;fill-opacity:1;stroke-width:.98033;stroke-linecap:round;stroke-linejoin:round;stroke-miterlimit:4.7;-inkscape-stroke:none" transform="matrix(-.83014 .59159 -.59471 -.82962 124.113 56.404)"/>
        </g>
        <path d="M54.03 96.227c.54-.192 1.766-3.5 6.631-3.8 4.455.26 6.25 5.749 6.25 5.749-6.797.11-7.175.543-12.882-1.95" style="fill:#000;fill-opacity:1;stroke-width:.784266;stroke-linecap:round;stroke-linejoin:round;stroke-miterlimit:4.7" transform="matrix(-.83014 .59159 -.59471 -.82962 124.113 56.404)"/>
    </g>
</svg>
