<?xml version="1.0" encoding="UTF-8" standalone="no"?>
<!-- Uploaded to: SVG Repo, www.svgrepo.com, Generator: SVG Repo Mixer Tools -->

<svg
   fill="#000000"
   width="100"
   height="100"
   viewBox="0 0 100 100"
   id="Layer_1_1_"
   version="1.1"
   xml:space="preserve"
   sodipodi:docname="audio_recorder_1.svg"
   inkscape:version="1.3.2 (091e20e, 2023-11-25)"
   xmlns:inkscape="http://www.inkscape.org/namespaces/inkscape"
   xmlns:sodipodi="http://sodipodi.sourceforge.net/DTD/sodipodi-0.dtd"
   xmlns="http://www.w3.org/2000/svg"
   xmlns:svg="http://www.w3.org/2000/svg"><defs
   id="defs26" /><sodipodi:namedview
   id="namedview26"
   pagecolor="#ffffff"
   bordercolor="#000000"
   borderopacity="0.25"
   inkscape:showpageshadow="2"
   inkscape:pageopacity="0.0"
   inkscape:pagecheckerboard="0"
   inkscape:deskcolor="#d1d1d1"
   inkscape:current-layer="Layer_1_1_" />

<g
   id="g26"
   transform="matrix(1.4516129,0,0,1.4516129,3.5483872,3.5483872)"
   style="stroke-width:0.688889">

<path
   d="M 19,23 H 45 V 9 H 19 Z M 21,11 H 43 V 21 H 21 Z"
   id="path1"
   style="stroke-width:0.688889" />

<path
   d="M 35,31 H 45 V 25 H 35 Z m 2,-4 h 6 v 2 h -6 z"
   id="path2"
   style="stroke-width:0.688889" />

<path
   d="M 35,39 H 45 V 33 H 35 Z m 2,-4 h 6 v 2 h -6 z"
   id="path3"
   style="stroke-width:0.688889" />

<rect
   height="2"
   width="2"
   x="23"
   y="45"
   id="rect3"
   style="stroke-width:0.688889" />

<rect
   height="2"
   width="2"
   x="23"
   y="49"
   id="rect4"
   style="stroke-width:0.688889" />

<rect
   height="2"
   width="2"
   x="23"
   y="53"
   id="rect5"
   style="stroke-width:0.688889" />

<rect
   height="2"
   width="2"
   x="27"
   y="45"
   id="rect6"
   style="stroke-width:0.688889" />

<rect
   height="2"
   width="2"
   x="27"
   y="49"
   id="rect7"
   style="stroke-width:0.688889" />

<rect
   height="2"
   width="2"
   x="27"
   y="53"
   id="rect8"
   style="stroke-width:0.688889" />

<rect
   height="2"
   width="2"
   x="31"
   y="45"
   id="rect9"
   style="stroke-width:0.688889" />

<rect
   height="2"
   width="2"
   x="31"
   y="49"
   id="rect10"
   style="stroke-width:0.688889" />

<rect
   height="2"
   width="2"
   x="31"
   y="53"
   id="rect11"
   style="stroke-width:0.688889" />

<rect
   height="2"
   width="2"
   x="35"
   y="45"
   id="rect12"
   style="stroke-width:0.688889" />

<rect
   height="2"
   width="2"
   x="35"
   y="49"
   id="rect13"
   style="stroke-width:0.688889" />

<rect
   height="2"
   width="2"
   x="35"
   y="53"
   id="rect14"
   style="stroke-width:0.688889" />

<rect
   height="2"
   width="2"
   x="23"
   y="57"
   id="rect15"
   style="stroke-width:0.688889" />

<rect
   height="2"
   width="2"
   x="27"
   y="57"
   id="rect16"
   style="stroke-width:0.688889" />

<rect
   height="2"
   width="2"
   x="31"
   y="57"
   id="rect17"
   style="stroke-width:0.688889" />

<rect
   height="2"
   width="2"
   x="35"
   y="57"
   id="rect18"
   style="stroke-width:0.688889" />

<rect
   height="2"
   width="2"
   x="39"
   y="45"
   id="rect19"
   style="stroke-width:0.688889" />

<rect
   height="2"
   width="2"
   x="39"
   y="49"
   id="rect20"
   style="stroke-width:0.688889" />

<rect
   height="2"
   width="2"
   x="39"
   y="53"
   id="rect21"
   style="stroke-width:0.688889" />

<rect
   height="2"
   width="2"
   x="39"
   y="57"
   id="rect22"
   style="stroke-width:0.688889" />

<rect
   height="2"
   width="2"
   x="25"
   y="5"
   id="rect23"
   style="stroke-width:0.688889" />

<rect
   height="2"
   width="6"
   x="29"
   y="5"
   id="rect24"
   style="stroke-width:0.688889" />

<rect
   height="2"
   width="2"
   x="37"
   y="5"
   id="rect25"
   style="stroke-width:0.688889" />

<path
   d="m 53,44.219 -4,-1 V 4 C 49,2.346 47.654,1 46,1 H 18 c -1.654,0 -3,1.346 -3,3 v 3 h -2 c -1.103,0 -2,0.897 -2,2 v 6 c 0,1.103 0.897,2 2,2 h 2 v 43 c 0,1.654 1.346,3 3,3 h 28 c 1.654,0 3,-1.346 3,-3 v -7.219 l 4,-1 z M 15,9 v 2 H 13 V 9 Z m -2,6 v -2 h 2 v 2 z M 43,61 H 21 V 43 h 22 z m 4,-1 c 0,0.551 -0.448,1 -1,1 H 45 V 41 H 19 v 20 h -1 c -0.552,0 -1,-0.449 -1,-1 V 4 c 0,-0.551 0.448,-1 1,-1 h 28 c 0.552,0 1,0.449 1,1 z m 4,-9.781 -2,0.5 v -5.438 l 2,0.5 z"
   id="path25"
   style="stroke-width:0.688889" />

<path
   d="m 25,26 c -3.309,0 -6,2.691 -6,6 0,3.309 2.691,6 6,6 3.309,0 6,-2.691 6,-6 0,-3.309 -2.691,-6 -6,-6 z m 0,10 c -2.206,0 -4,-1.794 -4,-4 0,-2.206 1.794,-4 4,-4 2.206,0 4,1.794 4,4 0,2.206 -1.794,4 -4,4 z"
   id="path26"
   style="stroke-width:0.688889" />

</g>

</svg>
