<svg xmlns="http://www.w3.org/2000/svg" xml:space="preserve" width="35" height="50">
    <path d="M6.034 3.493h22.727v42.981H6.034z" style="fill:#fff;stroke-width:1.51181;stroke-linecap:square;stroke-linejoin:round;stroke-miterlimit:4.7"/>
    <path d="M12.42 20.645A4.36 4.36 0 0 0 8.064 25a4.36 4.36 0 0 0 4.354 4.355A4.36 4.36 0 0 0 16.774 25a4.36 4.36 0 0 0-4.355-4.355m0 7.258A2.906 2.906 0 0 1 9.515 25a2.906 2.906 0 0 1 2.903-2.903A2.906 2.906 0 0 1 15.323 25a2.906 2.906 0 0 1-2.904 2.903m20.322 5.966-2.903-.726V4.677A2.18 2.18 0 0 0 27.66 2.5H7.34a2.18 2.18 0 0 0-2.18 2.177v2.178H3.71c-.8 0-1.452.65-1.452 1.451v4.355c0 .8.651 1.452 1.452 1.452h1.45v31.21c0 1.2.977 2.177 2.178 2.177H27.66a2.18 2.18 0 0 0 2.178-2.177v-5.24l2.903-.726zM5.162 8.306v1.452H3.71V8.306ZM3.71 12.661V11.21h1.45v1.451zm21.774 33.387H9.516V32.984h15.968Zm2.903-.725c0 .4-.325.725-.726.725h-.726V31.532H8.065v14.516h-.726a.727.727 0 0 1-.726-.725V4.677c0-.4.325-.725.726-.725H27.66c.4 0 .726.325.726.725zm2.903-7.1-1.451.363V34.64l1.451.363zM21.13 5.403h1.452v1.452H21.13zm-5.806 0h4.354v1.452h-4.354zm-2.904 0h1.452v1.452H12.42zm10.162 37.742h1.451v1.452h-1.451zm0-2.903h1.451v1.452h-1.451zm0-2.903h1.451v1.451h-1.451zm0-2.904h1.451v1.452h-1.451zm-2.904 8.71h1.452v1.452h-1.452zm-2.903 0h1.452v1.452h-1.452zm-2.903 0h1.452v1.452H13.87zm-2.903 0h1.451v1.452h-1.451zm8.71-2.903h1.451v1.452h-1.452Zm0-2.903h1.451v1.451h-1.452Zm0-2.904h1.451v1.452h-1.452Zm-2.904 5.807h1.452v1.452h-1.452zm0-2.903h1.452v1.451h-1.452zm0-2.904h1.452v1.452h-1.452zm-2.903 5.807h1.452v1.452H13.87zm0-2.903h1.452v1.451H13.87zm0-2.904h1.452v1.452H13.87zm-2.903 5.807h1.451v1.452h-1.451zm0-2.903h1.451v1.451h-1.451zm0-2.904h1.451v1.452h-1.451zm8.71-4.354h7.257v-4.355h-7.258Zm1.451-2.904h4.355v1.452H21.13Zm-1.452-2.903h7.258V19.92h-7.258Zm1.452-2.903h4.355v1.452H21.13zM8.065 18.468h18.87V8.306H8.065Zm1.451-8.71h15.968v7.258H9.516Z" style="stroke-width:.5"/>
</svg>
