<?xml version="1.0" encoding="UTF-8" standalone="no"?>
<!-- Uploaded to: SVG Repo, www.svgrepo.com, Generator: SVG Repo Mixer Tools -->

<svg
   fill="#000000"
   width="35"
   height="50"
   viewBox="0 0 34.999999 50"
   id="Layer_1_1_"
   version="1.1"
   xml:space="preserve"
   sodipodi:docname="audio_recorder_1.svg"
   inkscape:version="1.3.2 (091e20e, 2023-11-25)"
   xmlns:inkscape="http://www.inkscape.org/namespaces/inkscape"
   xmlns:sodipodi="http://sodipodi.sourceforge.net/DTD/sodipodi-0.dtd"
   xmlns="http://www.w3.org/2000/svg"
   xmlns:svg="http://www.w3.org/2000/svg"><defs
     id="defs1" /><sodipodi:namedview
     id="namedview26"
     pagecolor="#ffffff"
     bordercolor="#000000"
     borderopacity="0.25"
     inkscape:showpageshadow="2"
     inkscape:pageopacity="0.0"
     inkscape:pagecheckerboard="0"
     inkscape:deskcolor="#d1d1d1"
     inkscape:current-layer="Layer_1_1_" /><path
     id="path26"
     style="stroke-width:0.5"
     d="m 12.419356,20.645162 c -2.401693,0 -4.3548395,1.953145 -4.3548395,4.354838 0,2.401694 1.9531445,4.354839 4.3548395,4.354839 2.401693,0 4.354837,-1.953145 4.354837,-4.354839 0,-2.401693 -1.953144,-4.354838 -4.354837,-4.354838 z m 0,7.258064 c -1.601129,0 -2.9032265,-1.302097 -2.9032265,-2.903226 0,-1.601129 1.3020975,-2.903226 2.9032265,-2.903226 1.601129,0 2.903225,1.302097 2.903225,2.903226 0,1.601129 -1.302095,2.903226 -2.903225,2.903226 z m 20.322579,5.965403 -2.903226,-0.725806 V 4.6774194 C 29.838709,3.4769355 28.861775,2.5 27.66129,2.5 H 7.3387095 c -1.200482,0 -2.177419,0.9769355 -2.177419,2.1774194 V 6.854839 h -1.451613 c -0.800564,0 -1.451613,0.6510479 -1.451613,1.451613 v 4.354839 c 0,0.800564 0.651049,1.451612 1.451613,1.451612 h 1.451613 v 31.209678 c 0,1.200484 0.976937,2.177419 2.177419,2.177419 H 27.66129 c 1.200484,0 2.177419,-0.976935 2.177419,-2.177419 v -5.239597 l 2.903226,-0.725806 z M 5.1612905,8.306452 V 9.758065 H 3.7096775 V 8.306452 Z m -1.451613,4.354839 v -1.451613 h 1.451613 v 1.451613 z M 25.483871,46.048387 H 9.5161295 V 32.983871 H 25.483871 Z m 2.903225,-0.725806 c 0,0.399919 -0.325161,0.725806 -0.725806,0.725806 H 26.935484 V 31.532258 H 8.0645165 v 14.516129 h -0.725807 c -0.400645,0 -0.725805,-0.325887 -0.725805,-0.725806 V 4.6774194 c 0,-0.3999194 0.32516,-0.7258065 0.725805,-0.7258065 H 27.66129 c 0.400645,0 0.725806,0.3258871 0.725806,0.7258065 z m 2.903227,-7.099113 -1.451614,0.362903 v -3.946935 l 1.451614,0.362903 z M 21.129032,5.403226 h 1.451613 v 1.451613 h -1.451613 z m -5.806451,0 h 4.354839 v 1.451613 h -4.354839 z m -2.903225,0 h 1.451613 v 1.451613 h -1.451613 z m 10.161288,37.741935 h 1.451613 v 1.451613 h -1.451613 z m 0,-2.903225 h 1.451613 v 1.451613 h -1.451613 z m 0,-2.903225 h 1.451613 v 1.451613 h -1.451613 z m 0,-2.903229 h 1.451613 v 1.451613 h -1.451613 z m -2.903225,8.709679 h 1.451613 v 1.451613 h -1.451613 z m -2.903226,0 h 1.451613 v 1.451613 h -1.451613 z m -2.903224,0 h 1.451613 v 1.451613 h -1.451613 z m -2.903227,0 h 1.451613 v 1.451613 h -1.451614 z m 8.709678,-2.903225 h 1.451613 v 1.451613 H 19.67742 Z m 0,-2.903225 h 1.451613 v 1.451613 H 19.67742 Z m 0,-2.903229 h 1.451613 v 1.451613 H 19.67742 Z m -2.903226,5.806454 h 1.451613 v 1.451613 h -1.451613 z m 0,-2.903225 h 1.451613 v 1.451613 h -1.451613 z m 0,-2.903229 h 1.451613 v 1.451613 h -1.451613 z m -2.903225,5.806454 h 1.451613 v 1.451613 h -1.451613 z m 0,-2.903225 h 1.451613 v 1.451613 h -1.451613 z m 0,-2.903229 h 1.451613 v 1.451613 h -1.451613 z m -2.903227,5.806454 h 1.451613 v 1.451613 h -1.451614 z m 0,-2.903225 h 1.451613 v 1.451613 h -1.451614 z m 0,-2.903229 h 1.451613 v 1.451613 h -1.451614 z m 8.709678,-4.354837 h 7.258065 V 25.725807 H 19.67742 Z m 1.451613,-2.903225 h 4.354839 v 1.451613 H 21.129033 Z M 19.67742,24.274194 h 7.258065 V 19.919355 H 19.67742 Z m 1.451613,-2.903226 h 4.354839 v 1.451613 h -4.35484 z M 8.0645165,18.467742 H 26.935484 V 8.306452 H 8.0645165 Z M 9.5161295,9.758065 H 25.483871 v 7.258064 H 9.5161295 Z"
     inkscape:label="recorder" /></svg>
