<svg xmlns="http://www.w3.org/2000/svg" xml:space="preserve" width="90" height="90">
    <path d="M55.705 37.748c-15.882 3.004-50.66 9.446-50.66 9.446l47.65 46.876s9.067-44.232 9.839-49.23z" style="display:inline;fill:#fff;stroke-linecap:square;stroke-linejoin:round;stroke-miterlimit:4.7" transform="translate(-5 -5)"/>
    <path d="M47.167 90a2.6 2.6 0 0 1-1.831-.762L.762 44.663a2.59 2.59 0 0 1-.637-2.628 2.59 2.59 0 0 1 2.047-1.767l37.03-6.145.054-.009 13.672-2.269L69.25 15.522a3.29 3.29 0 0 1-.03-4.328l.942-1.087-1.31-1.31a.896.896 0 1 1 1.266-1.268l1.22 1.22 1.913-2.205-1.395-1.396a.896.896 0 1 1 1.266-1.266l1.305 1.304 1.912-2.206-1.42-1.42A.896.896 0 1 1 76.186.293l1.33 1.33.054-.063A4.54 4.54 0 0 1 80.826.003a4.5 4.5 0 0 1 3.358 1.32l4.49 4.492a4.53 4.53 0 0 1 1.322 3.358 4.54 4.54 0 0 1-1.557 3.256l-9.634 8.35a3.29 3.29 0 0 1-4.325-.028L58.153 37.08l-4.816 29.024-.008.044-3.598 21.68a2.58 2.58 0 0 1-1.767 2.047 2.6 2.6 0 0 1-.797.125M38.81 36.004l-36.345 6.03a.79.79 0 0 0-.634.548.79.79 0 0 0 .196.815l44.574 44.574a.78.78 0 0 0 .815.197.79.79 0 0 0 .547-.634l3.559-21.446L44.87 50.36l-3.473 3.473c0 1.34-.51 2.681-1.53 3.702a5.22 5.22 0 0 1-3.702 1.531L33.3 61.93l4.395 4.395a.896.896 0 1 1-1.266 1.266l-5.018-5.018-.01-.01-.01-.01-1.96-1.96-.012-.013-.012-.012-7-6.998a.896.896 0 1 1 1.268-1.267l4.408 4.408 2.85-2.85a5.22 5.22 0 0 1 1.53-3.728 5.25 5.25 0 0 1 3.729-1.53l4.29-4.29a1 1 0 0 1 .1-.122l1.076-1.075zm7.428 12.99 5.832 13.791 3.904-23.528zm-14.92 10.952.717.716 2.032-2.032a5.2 5.2 0 0 1-.916-.516zm-1.97-1.97.703.703 1.833-1.832a5.3 5.3 0 0 1-.508-.898zm5.099-1.158c.327.188.68.318 1.04.39l4.055-4.054a3.4 3.4 0 0 0-.392-1.04zm-1.653-2.286c.073.354.202.698.386 1.02l4.703-4.704a3.4 3.4 0 0 0-1.018-.387zm7.652-3.713q.307.437.516.916l2.95-2.95-.717-.716zm-2.165-1.774q.469.206.898.507l2.75-2.75-.702-.702zm6.182-2.242.712.712L73.84 18.852a1 1 0 0 1 .07-.064l3.1-3.1a.896.896 0 1 1 1.267 1.266l-2.524 2.526c.55.422 1.342.41 1.879-.055l9.634-8.35c.579-.502.913-1.2.94-1.966a2.7 2.7 0 0 0-.797-2.027l-4.492-4.49a2.72 2.72 0 0 0-2.027-.799 2.7 2.7 0 0 0-1.966.94l-8.35 9.634a1.49 1.49 0 0 0-.043 1.895l9.178-9.178a.896.896 0 1 1 1.267 1.266L42.493 44.833l.703.703L78.353 10.38a.896.896 0 1 1 1.266 1.267zm-3.843-11.1 2.416 6.034 7.714-7.714z" style="display:inline;stroke-width:1"/>
</svg>
