<?xml version="1.0" encoding="UTF-8" standalone="no"?>
<svg
   xml:space="preserve"
   width="90"
   height="90"
   version="1.1"
   id="svg4"
   sodipodi:docname="balalaika_1.svg"
   inkscape:version="1.3.2 (091e20e, 2023-11-25)"
   xmlns:inkscape="http://www.inkscape.org/namespaces/inkscape"
   xmlns:sodipodi="http://sodipodi.sourceforge.net/DTD/sodipodi-0.dtd"
   xmlns="http://www.w3.org/2000/svg"
   xmlns:svg="http://www.w3.org/2000/svg"><defs
     id="defs4"><inkscape:path-effect
       effect="fill_between_many"
       method="originald"
       linkedpaths="#path4,0,1"
       id="path-effect4"
       is_visible="true"
       lpeversion="0"
       join="true"
       close="true"
       autoreverse="true" /></defs><sodipodi:namedview
     id="namedview4"
     pagecolor="#ffffff"
     bordercolor="#000000"
     borderopacity="0.25"
     inkscape:showpageshadow="2"
     inkscape:pageopacity="0.0"
     inkscape:pagecheckerboard="0"
     inkscape:deskcolor="#d1d1d1"
     inkscape:current-layer="svg4" /><path
     id="path4"
     style="display:inline;fill:#ffffff;stroke-linecap:square;stroke-linejoin:round;stroke-miterlimit:4.7"
     d="M 55.704611,37.747814 C 39.823211,40.752366 5.0452497,47.194395 5.0452497,47.194395 L 52.695489,94.070153 c 0,0 9.066837,-44.232401 9.838308,-49.231077 z"
     sodipodi:nodetypes="ccccc"
     transform="translate(-5.0004176,-5.0007572)" /><path
     d="m 47.166582,89.999243 a 2.6,2.6 0 0 1 -1.831,-0.761 l -44.57399964,-44.575 a 2.59,2.59 0 0 1 -0.637,-2.628 2.59,2.59 0 0 1 2.04700004,-1.767 l 37.0299996,-6.145 0.054,-0.009 13.672,-2.269 16.322,-16.323 a 3.29,3.29 0 0 1 -0.03,-4.328 l 0.942,-1.087 -1.31,-1.3100002 a 0.896,0.896 0 1 1 1.266,-1.268 l 1.22,1.22 1.913,-2.205 -1.395,-1.396 a 0.896,0.896 0 1 1 1.266,-1.266 l 1.305,1.304 1.912,-2.206 -1.42,-1.42 a 0.896,0.896 0 1 1 1.267,-1.26700005 l 1.33,1.33000005 0.054,-0.063 a 4.54,4.54 0 0 1 3.256,-1.55700005 4.5,4.5 0 0 1 3.358,1.32000005 l 4.49,4.492 a 4.53,4.53 0 0 1 1.322,3.358 4.54,4.54 0 0 1 -1.557,3.2560002 l -9.634,8.35 a 3.29,3.29 0 0 1 -4.325,-0.028 l -16.327,16.328 -4.816,29.024 -0.008,0.044 -3.598,21.68 a 2.58,2.58 0 0 1 -1.767,2.047 2.6,2.6 0 0 1 -0.797,0.125 m -8.356,-53.995 -36.3449996,6.03 a 0.79,0.79 0 0 0 -0.634,0.548 0.79,0.79 0 0 0 0.196,0.815 l 44.5739996,44.574 a 0.78,0.78 0 0 0 0.815,0.197 0.79,0.79 0 0 0 0.547,-0.634 l 3.559,-21.446 -6.652,-15.728 -3.473,3.473 c 0,1.34 -0.51,2.681 -1.53,3.702 a 5.22,5.22 0 0 1 -3.702,1.531 l -2.866,2.864 4.395,4.395 a 0.896,0.896 0 1 1 -1.266,1.266 l -5.018,-5.018 -0.01,-0.01 -0.01,-0.01 -1.96,-1.961 -0.012,-0.012 -0.012,-0.012 -6.999,-6.998 a 0.896,0.896 0 1 1 1.267,-1.267 l 4.408,4.408 2.85,-2.85 a 5.22,5.22 0 0 1 1.531,-3.728 5.25,5.25 0 0 1 3.728,-1.531 l 4.29,-4.29 a 1,1 0 0 1 0.101,-0.121 l 1.075,-1.075 z m 7.428,12.989 5.832,13.792 3.904,-23.528 z m -14.92,10.953 0.717,0.716 2.032,-2.032 a 5.2,5.2 0 0 1 -0.916,-0.516 z m -1.97,-1.97 0.703,0.703 1.833,-1.832 a 5.3,5.3 0 0 1 -0.508,-0.898 z m 5.099,-1.158 c 0.327,0.188 0.68,0.318 1.041,0.39 l 4.054,-4.054 a 3.4,3.4 0 0 0 -0.392,-1.04 z m -1.653,-2.286 c 0.073,0.354 0.202,0.698 0.386,1.019 l 4.703,-4.703 a 3.4,3.4 0 0 0 -1.018,-0.387 z m 7.652,-3.713 c 0.205,0.29 0.377,0.598 0.516,0.916 l 2.95,-2.95 -0.717,-0.716 z m -2.165,-1.774 q 0.469,0.206 0.898,0.507 l 2.75,-2.75 -0.702,-0.702 z m 6.182,-2.242 0.712,0.712 28.664,-28.663 a 1,1 0 0 1 0.07,-0.064 l 3.1,-3.1 a 0.896,0.896 0 1 1 1.267,1.266 l -2.524,2.526 c 0.55,0.422 1.342,0.41 1.879,-0.055 l 9.634,-8.35 c 0.579,-0.502 0.913,-1.2000002 0.94,-1.9660002 a 2.7,2.7 0 0 0 -0.797,-2.027 l -4.492,-4.49 a 2.72,2.72 0 0 0 -2.027,-0.799 2.7,2.7 0 0 0 -1.966,0.94 l -8.349,9.6340002 a 1.49,1.49 0 0 0 -0.044,1.895 l 9.178,-9.1780002 a 0.896,0.896 0 1 1 1.267,1.266 l -38.483,38.4830002 0.703,0.703 35.157,-35.157 a 0.896,0.896 0 1 1 1.266,1.267 z m -3.843,-11.1 2.416,6.034 7.714,-7.714 z"
     style="display:inline;stroke-width:1"
     id="path1" /></svg>
