<svg xmlns="http://www.w3.org/2000/svg" xml:space="preserve" width="100" height="100"><path d="M52.167 95a2.59 2.59 0 0 1-1.831-.761L5.762 49.664a2.59 2.59 0 0 1-.637-2.628 2.59 2.59 0 0 1 2.047-1.767l37.03-6.145.054-.009 13.672-2.269L74.25 20.523a3.29 3.29 0 0 1-.03-4.328l.942-1.087-1.31-1.31a.896.896 0 1 1 1.266-1.268l1.22 1.22 1.913-2.205-1.395-1.396a.896.896 0 1 1 1.266-1.266l1.305 1.304 1.912-2.206-1.42-1.42a.896.896 0 1 1 1.267-1.267l1.33 1.33.054-.063a4.54 4.54 0 0 1 3.256-1.557 4.5 4.5 0 0 1 3.358 1.32l4.49 4.492a4.53 4.53 0 0 1 1.322 3.358 4.54 4.54 0 0 1-1.557 3.256l-9.634 8.35a3.29 3.29 0 0 1-4.325-.028L63.153 42.08l-4.816 29.024-.008.044-3.598 21.68a2.58 2.58 0 0 1-1.767 2.047 2.6 2.6 0 0 1-.797.125m-8.356-53.995-36.345 6.03a.79.79 0 0 0-.634.548.79.79 0 0 0 .196.815l44.574 44.574a.78.78 0 0 0 .815.197.79.79 0 0 0 .547-.634l3.559-21.446-6.652-15.728-3.473 3.473c0 1.34-.51 2.681-1.53 3.702a5.22 5.22 0 0 1-3.702 1.531L38.3 66.931l4.395 4.395a.896.896 0 1 1-1.266 1.266l-5.018-5.018-.01-.01-.01-.01-1.96-1.961-.012-.012-.012-.012-6.999-6.998a.896.896 0 1 1 1.267-1.267l4.408 4.408 2.85-2.85a5.22 5.22 0 0 1 1.531-3.728 5.25 5.25 0 0 1 3.728-1.531l4.29-4.29a1 1 0 0 1 .101-.121l1.075-1.075zm7.428 12.989 5.832 13.792 3.904-23.528zm-14.92 10.953.717.716 2.032-2.032a5.2 5.2 0 0 1-.916-.516zm-1.97-1.97.703.703 1.833-1.832c-.201-.285-.37-.587-.508-.898zm5.099-1.158c.327.188.68.318 1.041.39l4.054-4.054a3.4 3.4 0 0 0-.392-1.04zm-1.653-2.286c.073.354.202.698.386 1.019l4.703-4.703a3.4 3.4 0 0 0-1.018-.387zm7.652-3.713c.205.29.377.598.516.916l2.95-2.95-.717-.716zm-2.165-1.774c.311.137.613.307.898.507l2.75-2.75-.702-.702zm6.182-2.242.712.712L78.84 23.853a1 1 0 0 1 .07-.064l3.1-3.1a.896.896 0 1 1 1.267 1.266l-2.524 2.526c.55.422 1.342.41 1.879-.055l9.634-8.35c.579-.502.913-1.2.94-1.966a2.7 2.7 0 0 0-.797-2.027l-4.492-4.49a2.72 2.72 0 0 0-2.027-.799 2.7 2.7 0 0 0-1.966.94l-8.349 9.634a1.49 1.49 0 0 0-.044 1.895l9.178-9.178a.896.896 0 1 1 1.267 1.266L47.493 49.834l.703.703L83.353 15.38a.896.896 0 1 1 1.266 1.267zm-3.843-11.1 2.416 6.034 7.714-7.714z" style="stroke-width:1"/><path d="M29.466 70.356C17.126 58.014 7.178 47.765 7.361 47.58s8.413-1.683 18.29-3.332l17.957-2.998 1.35 3.348 1.35 3.35-2.68 2.704c-1.496 1.51-3.2 2.818-3.855 2.962-1.805.397-3.268 1.776-3.74 3.526-.234.873-1.004 2.14-1.71 2.817l-1.285 1.23-2.29-2.262c-2.306-2.277-3.63-2.638-3.63-.989 0 .985 13.97 14.945 14.955 14.945 1.64 0 1.275-1.327-.998-3.629l-2.262-2.29 1.23-1.285c.677-.706 1.944-1.476 2.817-1.71 1.753-.473 3.13-1.936 3.528-3.75.143-.65.979-1.885 1.857-2.743l1.598-1.56 3.234 7.742 3.234 7.742-1.788 10.561c-.983 5.809-1.975 10.624-2.203 10.7-.229.076-10.513-9.96-22.854-22.303" style="fill:#fff;stroke:none;stroke-width:1;stroke-linecap:square;stroke-linejoin:round;stroke-miterlimit:4.7"/><path d="m54.098 60.268-2.626-6.258 4.51-4.532c2.48-2.492 4.548-4.493 4.595-4.447.163.163-3.47 21.495-3.661 21.495-.106 0-1.374-2.816-2.818-6.258" style="fill:#fff;stroke:none;stroke-width:.999999;stroke-linecap:square;stroke-linejoin:round;stroke-miterlimit:4.7"/><path d="M46.923 43.732c-.633-1.581-1.124-2.9-1.093-2.932.078-.078 9.507-1.651 9.562-1.596.023.023-1.614 1.699-3.638 3.722l-3.682 3.68z" style="fill:#fff;stroke:none;stroke-width:1;stroke-linecap:square;stroke-linejoin:round;stroke-miterlimit:4.7"/></svg>