<?xml version="1.0" encoding="UTF-8" standalone="no"?>
<!-- Uploaded to: SVG Repo, www.svgrepo.com, Generator: SVG Repo Mixer Tools -->

<svg
   fill="#000000"
   height="100"
   width="100"
   version="1.1"
   id="Capa_1"
   viewBox="0 0 100 100"
   xml:space="preserve"
   sodipodi:docname="balalaika_1.svg"
   inkscape:version="1.3.2 (091e20e, 2023-11-25)"
   xmlns:inkscape="http://www.inkscape.org/namespaces/inkscape"
   xmlns:sodipodi="http://sodipodi.sourceforge.net/DTD/sodipodi-0.dtd"
   xmlns="http://www.w3.org/2000/svg"
   xmlns:svg="http://www.w3.org/2000/svg"><defs
   id="defs1" /><sodipodi:namedview
   id="namedview1"
   pagecolor="#ffffff"
   bordercolor="#000000"
   borderopacity="0.25"
   inkscape:showpageshadow="2"
   inkscape:pageopacity="0.0"
   inkscape:pagecheckerboard="0"
   inkscape:deskcolor="#d1d1d1"
   inkscape:zoom="12.769539"
   inkscape:cx="44.128451"
   inkscape:cy="55.209509"
   inkscape:window-width="1536"
   inkscape:window-height="449"
   inkscape:window-x="0"
   inkscape:window-y="25"
   inkscape:window-maximized="0"
   inkscape:current-layer="Capa_1" />
<path
   d="m 52.167029,95.000101 c -0.676799,0 -1.335235,-0.265614 -1.831525,-0.761456 L 5.7616731,49.664366 C 5.07054,48.97368 4.8268741,47.966319 5.1251856,47.035999 5.4239451,46.10568 6.2082445,45.428432 7.172158,45.268526 l 37.029148,-6.1445 c 0.01836,-0.0036 0.03673,-0.0067 0.05465,-0.009 l 13.671715,-2.26869 16.322925,-16.323373 c -1.084403,-1.216986 -1.109486,-3.082552 -0.02956,-4.328204 l 0.941966,-1.086643 -1.3106,-1.311047 c -0.349822,-0.349822 -0.349822,-0.916882 0,-1.266704 0.349822,-0.349822 0.916882,-0.349822 1.266704,0 l 1.220569,1.220121 1.91215,-2.205982 -1.395256,-1.395256 c -0.349822,-0.349822 -0.349822,-0.9168826 0,-1.2667044 0.349822,-0.3498217 0.916882,-0.3498217 1.266704,0 L 79.42805,10.187321 81.3402,7.9808904 79.919861,6.5605513 c -0.349822,-0.3498217 -0.349822,-0.9168823 0,-1.2667041 0.349822,-0.3498217 0.916882,-0.3498217 1.266704,0 l 1.32986,1.3298602 0.0542,-0.062708 c 0.819237,-0.945101 2.006212,-1.5126095 3.255896,-1.557401 1.257745,-0.05151 2.473387,0.4371652 3.35802,1.3213497 l 4.491245,4.4912459 c 0.884633,0.884184 1.366141,2.107889 1.32135,3.357572 -0.04479,1.249683 -0.611852,2.43621 -1.557401,3.255895 l -9.634208,8.349587 c -1.243412,1.077684 -3.107635,1.054392 -4.324621,-0.02732 l -16.3283,16.3283 -4.815984,29.02356 c -0.0022,0.01478 -0.0049,0.02911 -0.0076,0.04389 l -3.597655,21.680439 c -0.159458,0.963913 -0.836706,1.748213 -1.767025,2.046524 -0.262479,0.08421 -0.531228,0.125417 -0.79729,0.125417 z m -8.356305,-53.99528 -36.3451816,6.03073 c -0.4371652,0.07256 -0.5885605,0.407155 -0.6337999,0.547801 -0.045239,0.140645 -0.116458,0.501217 0.1966347,0.81431 L 51.602208,92.971941 c 0.313093,0.312644 0.673665,0.24277 0.81431,0.196634 0.140198,-0.04524 0.475238,-0.196634 0.547801,-0.6338 v 0 l 3.558238,-21.44573 -6.651541,-15.727646 -3.472686,3.472686 c 0,1.34061 -0.510176,2.68122 -1.530974,3.702019 -1.020351,1.020351 -2.360961,1.530974 -3.701571,1.530974 -4.48e-4,0 -4.48e-4,0 -4.48e-4,0 l -2.86397,2.863522 4.394944,4.394944 c 0.349822,0.349821 0.349822,0.916882 0,1.266704 -0.349822,0.349822 -0.916882,0.349822 -1.266704,0 l -5.017546,-5.018442 c -0.0036,-0.0031 -0.0067,-0.0067 -0.0099,-0.0099 -0.0036,-0.0036 -0.0072,-0.0067 -0.0099,-0.0099 l -1.960525,-1.960973 c -0.0045,-0.004 -0.0085,-0.0081 -0.01209,-0.01165 -0.0036,-0.0036 -0.0081,-0.0081 -0.01165,-0.01209 l -6.998674,-6.998675 c -0.349822,-0.349822 -0.349822,-0.916882 0,-1.266704 0.349821,-0.349822 0.916882,-0.349822 1.266704,0 l 4.407933,4.407933 2.850084,-2.850532 c -0.0067,-1.349121 0.503905,-2.700481 1.530975,-3.72755 1.027069,-1.02707 2.381117,-1.532318 3.72755,-1.530974 L 45.482791,49.3132 c 0.03001,-0.04345 0.06405,-0.08376 0.101677,-0.121385 l 1.074549,-1.074548 z m 7.427777,12.989093 5.832304,13.791756 3.904476,-23.528089 z M 36.31979,64.947232 37.035559,65.663 39.068198,63.630809 c -0.318468,-0.139302 -0.62529,-0.310405 -0.916435,-0.515551 z m -1.969931,-1.969483 0.702331,0.702331 1.832421,-1.832421 c -0.200666,-0.284875 -0.369977,-0.586321 -0.507487,-0.897622 z m 5.098171,-1.158757 c 0.327426,0.188124 0.679935,0.318468 1.040955,0.390582 l 4.05408,-4.05408 c -0.07301,-0.366843 -0.205145,-0.71756 -0.391926,-1.040059 z m -1.652807,-2.286159 c 0.07301,0.353853 0.201562,0.6983 0.386103,1.019007 l 4.703109,-4.703109 c -0.316228,-0.18275 -0.659331,-0.313093 -1.018111,-0.386999 z m 7.651735,-3.713217 c 0.205145,0.290697 0.376697,0.597967 0.51555,0.916434 l 2.94997,-2.949969 -0.716217,-0.716216 z m -2.164774,-1.773744 c 0.311301,0.13751 0.612748,0.306822 0.897622,0.507488 l 2.750199,-2.749751 -0.702331,-0.702331 z m 6.181677,-2.242263 0.712633,0.712633 28.663437,-28.663437 c 0.0224,-0.02284 0.04613,-0.0439 0.07032,-0.0636 l 3.100469,-3.100469 c 0.349822,-0.349822 0.916882,-0.349822 1.266704,0 0.349822,0.349821 0.349822,0.916882 0,1.266704 l -2.524898,2.525346 c 0.550936,0.422384 1.342402,0.41029 1.879005,-0.05509 l 9.634655,-8.350035 c 0.578708,-0.501672 0.912405,-1.199523 0.939728,-1.965458 0.02777,-0.765487 -0.255759,-1.485287 -0.797289,-2.026816 L 87.916932,7.592141 C 87.374954,7.0506115 86.652467,6.7702166 85.889668,6.7944041 85.124181,6.8221748 84.425881,7.1558716 83.924216,7.734578 l -8.349139,9.633759 c -0.470311,0.542426 -0.478374,1.343298 -0.0439,1.894682 l 9.17823,-9.17823 c 0.349822,-0.3498218 0.916882,-0.3498218 1.266704,0 0.349822,0.349822 0.349822,0.916882 0,1.266704 l -38.482629,38.482632 0.702331,0.702779 35.156863,-35.156862 c 0.349822,-0.349822 0.916882,-0.349822 1.266704,0 0.349822,0.349822 0.349822,0.916882 0,1.266704 z m -3.843112,-11.098891 2.416503,6.03297 7.713547,-7.713995 z"
   id="path1"
   style="stroke-width:1" />
<path
   style="fill:#ffffff;stroke:none;stroke-width:1;stroke-linecap:square;stroke-linejoin:round;stroke-miterlimit:4.7"
   d="M 29.466432,70.356265 C 17.125478,58.013663 7.1778955,47.764553 7.3606941,47.580466 7.5434927,47.396379 15.774011,45.896617 25.650736,44.247661 l 17.95768,-2.998102 1.349958,3.348937 1.349959,3.348938 -2.680427,2.704466 c -1.496151,1.509569 -3.199209,2.818411 -3.854608,2.96236 -1.804984,0.396441 -3.268171,1.776174 -3.739376,3.526099 -0.234953,0.872545 -1.005078,2.140101 -1.711391,2.816792 l -1.284206,1.230347 -2.290613,-2.262159 c -2.305977,-2.277333 -3.629068,-2.637922 -3.629068,-0.989048 0,0.985073 13.968602,14.945065 14.954282,14.945065 1.639876,0 1.274714,-1.3275 -0.998265,-3.629068 l -2.262159,-2.290613 1.230347,-1.284206 c 0.676691,-0.706313 1.944247,-1.476438 2.816792,-1.711391 1.753047,-0.472046 3.129763,-1.934874 3.528182,-3.748862 0.142987,-0.651017 0.978899,-1.885675 1.857582,-2.743686 l 1.597603,-1.56002 3.233848,7.742398 3.233843,7.742397 -1.787644,10.561047 C 53.539852,87.767928 52.548466,92.582716 52.31997,92.658881 52.091479,92.735042 41.807386,82.698867 29.466432,70.356265 Z"
   id="path2" /><path
   style="fill:#ffffff;stroke:none;stroke-width:0.999999;stroke-linecap:square;stroke-linejoin:round;stroke-miterlimit:4.7"
   d="m 54.097622,60.268142 -2.625626,-6.258285 4.510009,-4.531768 c 2.480506,-2.492473 4.548263,-4.493516 4.595016,-4.446762 0.163064,0.163064 -3.470551,21.4951 -3.661391,21.4951 -0.10581,0 -1.373913,-2.816228 -2.818008,-6.258285 z"
   id="path3" /><path
   style="fill:#ffffff;stroke:#b5b5b5;stroke-width:1;stroke-linecap:square;stroke-linejoin:round;stroke-miterlimit:4.7"
   d=""
   id="path4" /><path
   style="fill:#ffffff;stroke:#b5b5b5;stroke-width:1;stroke-linecap:square;stroke-linejoin:round;stroke-miterlimit:4.7"
   d=""
   id="path5" /><path
   style="fill:#ffffff;stroke:#b5b5b5;stroke-width:1;stroke-linecap:square;stroke-linejoin:round;stroke-miterlimit:4.7"
   d=""
   id="path6" /><path
   style="fill:#ffffff;stroke:#b5b5b5;stroke-width:1;stroke-linecap:square;stroke-linejoin:round;stroke-miterlimit:4.7"
   d=""
   id="path7" /><path
   style="fill:#ffffff;stroke:none;stroke-width:1;stroke-linecap:square;stroke-linejoin:round;stroke-miterlimit:4.7"
   d="m 46.922571,43.731549 c -0.632425,-1.580812 -1.123866,-2.900202 -1.09209,-2.931978 0.07728,-0.07728 9.506028,-1.651061 9.561203,-1.595885 0.02374,0.02374 -1.613374,1.698922 -3.63804,3.722619 l -3.681209,3.679448 z"
   id="path8" /></svg>
