<svg xmlns="http://www.w3.org/2000/svg" xml:space="preserve" width="100" height="100">
    <path d="m22.664 82.759-5.68-5.68 1.076-1.075 5.68 5.68zm71.295-68.38a.76.76 0 1 1-1.076 1.075l-.524-.524a18.5 18.5 0 0 1-3.415 1.523.6.6 0 0 0-.406.572c-.014.717-.253 1.341-.689 1.816l.495.495a.76.76 0 1 1-1.075 1.075l-.643-.643c-.962.587-2.267 1.202-3.45 1.544L42.725 61.764c5.824 8.188 4.909 19.558-2.25 26.717-4.052 4.052-9.373 6.077-14.695 6.077-5.321 0-10.643-2.025-14.694-6.077A20.65 20.65 0 0 1 5 73.788c0-5.551 2.161-10.77 6.086-14.695 7.16-7.16 18.532-8.075 26.72-2.25L63.68 30.969l-.598-.598a.76.76 0 1 1 1.075-1.076l.658.658a3.4 3.4 0 0 1 1.532-.527q.331-.03.634-.172.303-.141.541-.38l11.606-11.606c.359-1.243.98-2.526 1.546-3.453l-.616-.616a.76.76 0 1 1 1.075-1.075l.469.469c.475-.436 1.1-.675 1.817-.689a.6.6 0 0 0 .572-.406 18.5 18.5 0 0 1 1.523-3.416l-.498-.497a.76.76 0 1 1 1.075-1.076l.27.27a5 5 0 0 1 .385-.45c1.499-1.5 4.291-1.055 6.357 1.01s2.51 4.859 1.012 6.358a5 5 0 0 1-.45.385zM13.934 58.607l1.19 1.19q.59-.45 1.213-.847l-.299-.517a.76.76 0 1 1 1.317-.76l.298.516q1.373-.715 2.846-1.178l-.155-.576a.76.76 0 1 1 1.469-.394l.154.577c1-.22 2.02-.357 3.053-.4v-.599a.76.76 0 1 1 1.52 0v.596a17.7 17.7 0 0 1 3.053.403l.155-.577a.76.76 0 1 1 1.469.394l-.155.576q1.475.464 2.845 1.179l.298-.517a.76.76 0 0 1 1.317.76l-.298.517q.144.092.287.187l1.207-1.207c-6.924-4.787-16.216-4.443-22.784.677m-2.99 21.357a16 16 0 0 0 1.63 2.973l2.39-3.04 4.882 4.882-3.001 2.359c6.302 4.227 14.861 3.446 20.297-1.99 6.265-6.265 6.265-16.459 0-22.723a16.02 16.02 0 0 0-10.668-4.69 16 16 0 0 0-10.533 3.352 2.32 2.32 0 0 1-.621 2.21 14.86 14.86 0 0 0-3.81 14.458 2.31 2.31 0 0 1-.565 2.209m-3.453-.11 2.055-.744a.79.79 0 0 0 .499-.949 16.37 16.37 0 0 1 4.189-15.928.83.83 0 0 0 .256-.588.78.78 0 0 0-.23-.563l-1.493-1.492q-.308.28-.605.578a19.13 19.13 0 0 0-5.643 13.62c0 2.093.331 4.135.97 6.066m4.104 4.329q-.343-.467-.651-.953l-.517.298a.76.76 0 1 1-.76-1.317l.514-.297q-.31-.593-.574-1.21l-1.58.572a19 19 0 0 0 2.497 4.269zm1.425 4.028 4.54-3.569-2.46-2.459-3.578 4.552a20 20 0 0 0 1.498 1.476m28.616-25.36-1.204 1.204q.093.143.183.288l.518-.299a.76.76 0 1 1 .76 1.317l-.515.298c.478.919.867 1.872 1.172 2.847l.582-.156a.76.76 0 0 1 .393 1.469l-.585.156c.222 1.006.358 2.026.402 3.051h.605a.76.76 0 0 1 0 1.52h-.605a17.7 17.7 0 0 1-.402 3.051l.585.157a.76.76 0 1 1-.393 1.469l-.582-.156a17.5 17.5 0 0 1-1.172 2.847l.516.298a.76.76 0 1 1-.76 1.316l-.519-.299a17.5 17.5 0 0 1-1.874 2.443l.423.423a.76.76 0 1 1-1.076 1.075l-.423-.423a17.5 17.5 0 0 1-2.444 1.871l.3.521a.76.76 0 1 1-1.316.76l-.3-.52c-.918.476-1.871.865-2.847 1.17l.158.589a.76.76 0 0 1-1.468.393l-.159-.592a18 18 0 0 1-3.049.404v.61a.76.76 0 0 1-1.52 0v-.607a17.7 17.7 0 0 1-3.052-.398l-.156.583a.76.76 0 0 1-1.468-.393l.155-.58a17.4 17.4 0 0 1-2.847-1.173l-.297.515a.76.76 0 1 1-1.317-.76l.297-.515a18 18 0 0 1-.742-.503l-1.366 1.074a19.23 19.23 0 0 0 11.553 3.841c4.933 0 9.864-1.877 13.62-5.632 6.574-6.575 7.471-16.982 2.236-24.554M81.767 20.57l-1.896-1.897L68.596 29.95a3.4 3.4 0 0 1-.972.681 3.4 3.4 0 0 1-1.142.31c-.441.04-.858.235-1.173.55L36.753 60.046c.509.407 1 .84 1.464 1.304q.701.705 1.307 1.465zM92.026 8.414C90.612 7 88.686 6.537 87.82 7.404c-.083.083-.32.344-.707.963a17 17 0 0 0-1.676 3.594 2.12 2.12 0 0 1-1.99 1.462c-.249.005-.6.064-.852.317a3 3 0 0 0-.326.41c-.504.719-1.17 1.969-1.575 3.196l2.4 2.399c1.592-.524 3.192-1.484 3.607-1.899.253-.252.312-.602.317-.852a2.12 2.12 0 0 1 1.463-1.99 16.8 16.8 0 0 0 3.594-1.675c.618-.388.88-.624.963-.707.866-.866.403-2.793-1.012-4.208" style="stroke-width:1"/>
</svg>
