<?xml version="1.0" encoding="UTF-8" standalone="no"?>
<!-- Uploaded to: SVG Repo, www.svgrepo.com, Generator: SVG Repo Mixer Tools -->

<svg
   fill="#000000"
   version="1.1"
   id="Layer_1"
   width="100"
   height="100"
   viewBox="0 0 100 100"
   xml:space="preserve"
   sodipodi:docname="banjo_1.svg"
   inkscape:version="1.3.2 (091e20e, 2023-11-25)"
   xmlns:inkscape="http://www.inkscape.org/namespaces/inkscape"
   xmlns:sodipodi="http://sodipodi.sourceforge.net/DTD/sodipodi-0.dtd"
   xmlns="http://www.w3.org/2000/svg"
   xmlns:svg="http://www.w3.org/2000/svg"><defs
   id="defs1" /><sodipodi:namedview
   id="namedview1"
   pagecolor="#ffffff"
   bordercolor="#000000"
   borderopacity="0.25"
   inkscape:showpageshadow="2"
   inkscape:pageopacity="0.0"
   inkscape:pagecheckerboard="0"
   inkscape:deskcolor="#d1d1d1"
   inkscape:current-layer="Layer_1" />
<path
   d="m 22.664481,82.758847 -5.68012,-5.679974 1.07529,-1.07529 5.68012,5.679974 z m 71.29423,-68.380422 c 0.29691,0.29691 0.29691,0.778084 0,1.075142 -0.14868,0.148234 -0.34309,0.222499 -0.53764,0.222499 -0.19456,0 -0.38912,-0.07412 -0.53765,-0.222499 l -0.52397,-0.523968 c -1.07058,0.614261 -2.30837,1.168965 -3.41528,1.523081 -0.24147,0.07691 -0.40073,0.301469 -0.40617,0.571909 -0.014,0.71735 -0.25323,1.341905 -0.68867,1.816903 l 0.49485,0.494851 c 0.29691,0.29691 0.29691,0.778085 0,1.075142 -0.14868,0.148235 -0.34294,0.222646 -0.53765,0.222646 -0.19456,0 -0.38911,-0.07412 -0.5375,-0.222646 l -0.64337,-0.643379 c -0.96147,0.586909 -2.26691,1.201465 -3.44955,1.54411 l -40.45158,40.45158 c 5.82439,8.188492 4.9091,19.558145 -2.25028,26.717671 -4.05131,4.051158 -9.37275,6.07659 -14.6942,6.07659 -5.32144,0 -10.64289,-2.025432 -14.693902,-6.07659 C 7.1616083,84.55678 5.0001483,79.338421 5.0000003,73.787711 4.9998533,68.236707 7.1614613,63.018055 11.086443,59.093073 18.246411,51.932958 29.617531,51.017668 37.806471,56.842642 l 25.87297,-25.873264 -0.59882,-0.598821 c -0.29691,-0.29691 -0.29691,-0.778085 0,-1.075142 0.29691,-0.29691 0.77808,-0.29691 1.07514,0 l 0.65823,0.658085 c 0.45956,-0.293234 0.98411,-0.478086 1.53205,-0.527939 0.22059,-0.01956 0.43309,-0.07735 0.63353,-0.171763 0.20235,-0.09412 0.38323,-0.221176 0.54161,-0.379558 l 11.60598,-11.605829 c 0.35867,-1.243523 0.97911,-2.5269 1.54617,-3.452925 l -0.61662,-0.616762 c -0.29691,-0.29691 -0.29691,-0.778084 0,-1.075142 0.29691,-0.29691 0.77809,-0.29691 1.07515,0 l 0.46897,0.468969 c 0.47499,-0.435293 1.09955,-0.674556 1.81749,-0.688527 0.26985,-0.0054 0.49426,-0.164705 0.57132,-0.405733 0.35426,-1.107495 0.90911,-2.3452835 1.52323,-3.4158669 l -0.4978,-0.4977918 c -0.2972,-0.2969104 -0.2972,-0.7782317 0,-1.0751421 0.29706,-0.2969104 0.77824,-0.2969104 1.07515,0 l 0.26955,0.2695576 c 0.12662,-0.1657346 0.25765,-0.3224986 0.38559,-0.4504391 1.49867,-1.4988167 4.29072,-1.0549952 6.35629,1.0104365 2.06632,2.0663141 2.51073,4.8589488 1.01206,6.3576178 -0.12794,0.127941 -0.28456,0.259117 -0.45044,0.385587 z m -80.024634,44.229356 1.189114,1.189406 c 0.39338,-0.30044 0.79897,-0.581321 1.21367,-0.845878 l -0.29853,-0.517351 c -0.21,-0.363675 -0.0853,-0.828673 0.27824,-1.038525 0.36352,-0.210146 0.82867,-0.08515 1.03852,0.278234 l 0.29838,0.516763 c 0.91323,-0.476322 1.86485,-0.870143 2.84513,-1.178377 l -0.15455,-0.576321 c -0.10868,-0.405586 0.13191,-0.822496 0.53749,-0.931172 0.40588,-0.108676 0.82235,0.131911 0.93103,0.537497 l 0.1547,0.577203 c 0.99882,-0.220881 2.0197,-0.35691 3.05293,-0.401027 V 55.62 c 0,-0.419851 0.34029,-0.76029 0.76015,-0.76029 0.41985,0 0.76014,0.340292 0.76014,0.76029 v 0.596321 c 1.03573,0.04456 2.05587,0.182499 3.05293,0.402939 l 0.1547,-0.577203 c 0.10868,-0.405586 0.525,-0.646026 0.93103,-0.537497 0.40558,0.108529 0.64617,0.525586 0.53749,0.931172 l -0.15455,0.576762 c 0.98176,0.308528 1.93322,0.702644 2.84484,1.17823 l 0.29852,-0.517204 c 0.20986,-0.363674 0.67471,-0.488086 1.03853,-0.278381 0.36353,0.209852 0.48808,0.674703 0.27823,1.038525 l -0.29853,0.51735 c 0.0963,0.06147 0.19236,0.123676 0.2875,0.186911 l 1.20662,-1.206612 c -6.9235,-4.787184 -16.21596,-4.443362 -22.783724,0.676468 z m -2.989545,21.356814 c 0.435733,1.047054 0.982349,2.041755 1.629551,2.973074 l 2.389548,-3.039839 4.88189,4.88189 -3.00087,2.359254 c 6.30203,4.227186 14.86155,3.44616 20.29756,-1.989991 6.26482,-6.265119 6.26482,-16.458895 -1.5e-4,-22.723426 -2.8519,-2.852045 -6.64056,-4.517626 -10.66789,-4.690419 -3.81955,-0.163823 -7.53776,1.025877 -10.53304,3.35322 0.0453,0.184852 0.0703,0.37588 0.0687,0.571174 -0.005,0.617644 -0.25059,1.199553 -0.69029,1.638668 -3.780423,3.78013 -5.235857,9.315987 -3.809981,14.457728 0.222057,0.80132 -0.01809,1.636463 -0.564998,2.208667 z m -3.4535127,-0.110147 2.054843,-0.743526 c 0.388381,-0.140587 0.6073497,-0.557203 0.4986737,-0.948819 -1.5720507,-5.669092 0.03309,-11.772446 4.189099,-15.928309 0.167499,-0.167058 0.254116,-0.371469 0.256028,-0.587498 0.0019,-0.21294 -0.08,-0.412939 -0.230587,-0.56338 L 12.766877,59.59057 c -0.204852,0.187794 -0.407351,0.379852 -0.605292,0.577939 -3.6377767,3.63763 -5.6412967,8.47452 -5.6410027,13.619349 -1.47e-4,2.093079 0.331616,4.135423 0.970437,6.06659 z m 4.1035097,4.329245 c -0.228234,-0.31044 -0.444115,-0.628821 -0.650879,-0.95279 l -0.516616,0.298087 c -0.119705,0.06927 -0.25044,0.102059 -0.37941,0.102059 -0.2627917,0 -0.5182317,-0.136323 -0.6591137,-0.380146 -0.209999,-0.363528 -0.08529,-0.828525 0.278234,-1.038524 L 10.180859,81.915468 C 9.9743893,81.520029 9.7832143,81.116354 9.6074793,80.705327 l -1.581022,0.571909 c 0.639997,1.516169 1.476611,2.949692 2.4971947,4.26851 z m 1.425288,4.028364 4.539244,-3.569101 -2.45896,-2.45896 -3.577777,4.551597 c 0.207205,0.227646 0.419998,0.451322 0.639114,0.670291 0.279411,0.279705 0.566174,0.547498 0.858379,0.806173 z m 28.615894,-25.359884 -1.20396,1.204112 c 0.0631,0.09515 0.1222,0.192205 0.18338,0.288087 l 0.51809,-0.299116 c 0.36382,-0.209999 0.82867,-0.08529 1.03852,0.278234 0.21,0.363675 0.0854,0.828673 -0.27823,1.038525 l -0.51559,0.297645 c 0.47838,0.919261 0.86691,1.872786 1.17191,2.847193 l 0.58191,-0.155882 c 0.40514,-0.108234 0.82235,0.132059 0.93102,0.537645 0.10853,0.405586 -0.13206,0.822349 -0.53764,0.931025 l -0.58485,0.156617 c 0.22161,1.005437 0.35764,2.026167 0.40147,3.050868 h 0.60558 c 0.41971,0 0.76014,0.340293 0.76014,0.760144 0,0.419851 -0.34043,0.760291 -0.76014,0.760291 h -0.60558 c -0.0438,1.024554 -0.18,2.04499 -0.40147,3.050868 l 0.58485,0.15647 c 0.40558,0.108676 0.64632,0.525439 0.53764,0.931025 -0.091,0.339704 -0.39823,0.563674 -0.73382,0.563674 -0.0651,0 -0.13132,-0.0084 -0.1972,-0.02603 l -0.58191,-0.155882 c -0.305,0.974554 -0.69368,1.927932 -1.17191,2.84734 l 0.51559,0.297499 c 0.36367,0.209999 0.48823,0.674849 0.27823,1.038524 -0.14088,0.243823 -0.39647,0.380146 -0.65911,0.380146 -0.12897,0 -0.25956,-0.03294 -0.37927,-0.102059 l -0.51808,-0.299116 c -0.54441,0.854849 -1.16809,1.673081 -1.87455,2.442636 l 0.42294,0.423086 c 0.29691,0.296911 0.29691,0.778085 0,1.075142 -0.14853,0.148382 -0.34309,0.222646 -0.53765,0.222646 -0.1947,0 -0.38926,-0.07412 -0.53764,-0.222646 l -0.42324,-0.423233 c -0.76808,0.704408 -1.5869,1.326906 -2.44454,1.871462 l 0.30088,0.521321 c 0.21,0.363675 0.0854,0.828673 -0.27824,1.038525 -0.1197,0.06912 -0.25044,0.101911 -0.37926,0.101911 -0.26294,0 -0.51823,-0.136323 -0.65911,-0.380145 l -0.30044,-0.520586 c -0.9175,0.476027 -1.87088,0.864408 -2.84617,1.169553 l 0.15794,0.588968 c 0.10868,0.40544 -0.13191,0.822496 -0.53749,0.931172 -0.0659,0.01765 -0.13206,0.02603 -0.19721,0.02603 -0.33559,0 -0.64279,-0.223823 -0.73382,-0.563527 l -0.15868,-0.591908 c -1.00411,0.221763 -2.0241,0.358969 -3.04895,0.403969 v 0.610291 c 0,0.419704 -0.34029,0.760143 -0.76015,0.760143 -0.41985,0 -0.76014,-0.340292 -0.76014,-0.760143 v -0.607939 c -1.02352,-0.0425 -2.04455,-0.176616 -3.05131,-0.397645 l -0.15632,0.583233 c -0.091,0.339557 -0.39824,0.563527 -0.73382,0.563527 -0.0652,0 -0.13132,-0.0084 -0.19721,-0.02603 -0.40558,-0.108676 -0.64617,-0.525585 -0.53749,-0.931172 l 0.15544,-0.579703 c -0.97353,-0.304116 -1.92661,-0.693673 -2.8472,-1.173083 l -0.2972,0.514851 c -0.14088,0.243822 -0.39647,0.380145 -0.65897,0.380145 -0.12912,0 -0.2597,-0.03294 -0.37941,-0.102058 -0.36353,-0.209999 -0.48823,-0.67485 -0.27823,-1.038525 l 0.29691,-0.513968 c -0.25088,-0.160147 -0.49779,-0.328969 -0.74235,-0.50338 l -1.365878,1.074112 c 3.409548,2.559253 7.481728,3.840718 11.553478,3.841012 4.93277,4.41e-4 9.86392,-1.876903 13.61905,-5.63218 6.57497,-6.574676 7.47218,-16.982128 2.23646,-24.553711 z m 40.13232,-42.281571 -1.89646,-1.896462 -11.27554,11.275684 c -0.28485,0.284557 -0.61176,0.513821 -0.97205,0.68132 -0.35882,0.169117 -0.74456,0.273675 -1.14206,0.309116 -0.44102,0.04 -0.85837,0.235735 -1.17337,0.551027 l -28.55517,28.555017 c 0.50824,0.406321 0.99868,0.838819 1.46397,1.304111 0.46823,0.468528 0.90176,0.958525 1.30617,1.464258 z M 92.026221,8.4141873 c -1.41397,-1.4139641 -3.33999,-1.8769031 -4.20616,-1.0107306 -0.0835,0.083382 -0.3197,0.3445572 -0.7075,0.9633779 -0.67205,1.0724951 -1.29822,2.4160184 -1.67528,3.5938074 -0.27324,0.856319 -1.07294,1.444405 -1.9894,1.462787 -0.24986,0.005 -0.60015,0.06368 -0.85279,0.316469 -0.049,0.04897 -0.15647,0.1675 -0.32647,0.409998 -0.50412,0.718821 -1.17029,1.968815 -1.57456,3.195721 l 2.39926,2.399401 c 1.59249,-0.524263 3.19307,-1.483523 3.60807,-1.898668 0.25265,-0.252499 0.31132,-0.602792 0.31618,-0.852202 0.0184,-0.917055 0.60646,-1.716463 1.46337,-1.989991 1.1775,-0.376469 2.52102,-1.002936 3.59366,-1.675139 0.61853,-0.387793 0.8797,-0.623968 0.96323,-0.70735 0.86632,-0.866025 0.40294,-2.7926342 -1.01161,-4.2074807 z"
   id="path1"
   style="stroke-width:1" />
</svg>
