<?xml version="1.0" encoding="UTF-8" standalone="no"?>
<!-- Uploaded to: SVG Repo, www.svgrepo.com, Generator: SVG Repo Mixer Tools -->

<svg
   fill="#000000"
   version="1.1"
   id="Layer_1"
   width="100"
   height="100"
   viewBox="0 0 100 100"
   xml:space="preserve"
   sodipodi:docname="bass_guitar_1.svg"
   inkscape:version="1.3.2 (091e20e, 2023-11-25)"
   xmlns:inkscape="http://www.inkscape.org/namespaces/inkscape"
   xmlns:sodipodi="http://sodipodi.sourceforge.net/DTD/sodipodi-0.dtd"
   xmlns="http://www.w3.org/2000/svg"
   xmlns:svg="http://www.w3.org/2000/svg"><defs
   id="defs1" /><sodipodi:namedview
   id="namedview1"
   pagecolor="#ffffff"
   bordercolor="#000000"
   borderopacity="0.25"
   inkscape:showpageshadow="2"
   inkscape:pageopacity="0.0"
   inkscape:pagecheckerboard="0"
   inkscape:deskcolor="#d1d1d1"
   inkscape:current-layer="Layer_1" />
<path
   d="m 15.093382,80.552646 -2.359852,2.359852 -1.08603,-1.086029 2.359853,-2.359853 z m 0.342647,0.340441 -2.359852,2.36 1.086029,1.086029 2.359853,-2.359853 z m 1.429853,1.425294 -2.36,2.36 1.086177,1.086176 2.36,-2.36 z m -0.929706,3.792647 1.08603,1.086323 2.360441,-2.359706 -1.08603,-1.086323 z M 94.999993,9.1250052 c -0.0031,1.5719118 -1.016471,2.8830878 -2.521912,3.2626468 l -0.427941,0.107941 c -0.387941,0.09794 -0.723088,0.353971 -0.919559,0.702206 l -5.012352,8.88544 c -0.404412,0.665736 -1.115735,1.063088 -1.903382,1.063088 -0.34353,0 -0.676618,-0.07529 -0.990442,-0.223529 -0.421323,-0.199118 -0.892058,-0.304265 -1.361029,-0.304265 -0.850588,0 -1.650441,0.331177 -2.251911,0.932647 l -1.176618,1.176618 -38.369702,39.191467 c -0.487353,1.091323 -0.413383,1.967941 0.224411,2.605588 0.913971,0.914265 2.501324,0.837353 4.852941,-0.235 0.09279,-0.04015 0.220294,-0.101324 0.404265,-0.193382 0.749412,-0.366618 1.52397,-0.351177 2.1875,0.04132 0.788529,0.466324 1.310294,1.431176 1.361764,2.518088 0.06191,1.305 -0.429706,2.433235 -1.546617,3.550147 -1.305441,1.305588 -4.310147,2.779558 -6.486617,3.645441 -2.140147,0.852353 -3.724559,2.691764 -4.237941,4.920146 -0.775588,3.375 -1.895588,6.044559 -3.32897,7.934705 -0.469853,0.795147 -1.041765,1.531912 -1.700588,2.190588 -2.090147,2.090294 -4.868824,3.241618 -7.824706,3.241912 -2.94e-4,0 -0.0013,0 -0.0018,0 -2.955441,2.94e-4 -5.733529,-1.150588 -7.823088,-3.240294 L 8.2417653,82.994263 c -2.090588,-2.090441 -3.2419115,-4.869852 -3.2417644,-7.826029 2.941e-4,-2.955882 1.1514705,-5.734852 3.2417644,-7.824852 0.6117647,-0.611911 1.2905881,-1.1475 2.0269117,-1.6 l -0.0325,-0.03044 1.013235,-0.508823 c 0.784265,-0.375883 1.606323,-0.658677 2.444706,-0.841471 l 4.787058,-1.643529 c 3.223676,-1.108382 5.718529,-3.568823 6.844558,-6.749705 1.487059,-4.204559 3.432353,-7.082353 5.946617,-8.7975 0.03956,-0.02691 0.115883,-0.08588 0.223824,-0.168235 4.727794,-3.599705 7.998235,-4.405735 9.721323,-2.395882 0.265294,0.309853 0.381764,0.699118 0.336764,1.126176 -0.154706,1.469706 -2.359117,3.340882 -4.718088,5.143971 -0.204117,0.155735 -0.38,0.290294 -0.459999,0.357058 -0.589118,0.491912 -1.211471,1.57353 -1.261618,2.689853 -0.03338,0.740735 0.183823,1.350441 0.645147,1.811765 0.404559,0.404558 0.959265,0.615882 1.655882,0.63147 L 73.981759,20.81074 c 0.336765,-0.326176 0.588383,-0.733823 0.728383,-1.179705 l 0.230441,-0.733677 c 0.248382,-0.790735 0.771764,-1.4625 1.475882,-1.8975 l 0.745882,-0.587206 -0.629706,-0.871765 c -0.248382,-0.343824 -0.171176,-0.823971 0.172794,-1.072353 0.343677,-0.248235 0.824118,-0.171176 1.072206,0.172794 l 0.592647,0.820588 2.315588,-1.822499 -0.631029,-0.873236 c -0.248382,-0.343823 -0.171029,-0.82397 0.172941,-1.072352 0.343677,-0.248236 0.824118,-0.171177 1.072206,0.172794 l 0.593823,0.822058 2.307941,-1.81647 -0.667205,-0.9236764 C 83.28617,9.6047111 83.363523,9.124564 83.7072,8.8761817 84.051464,8.6279464 84.53117,8.7050053 84.779552,9.0489758 l 0.630147,0.8723529 2.313383,-1.8207351 -0.678971,-0.94 C 86.795729,6.8167701 86.873082,6.3366231 87.216905,6.0882408 87.560434,5.8400055 88.041023,5.9170643 88.289111,6.2610349 l 0.641912,0.8885293 0.573676,-0.4516176 c 0.657794,-0.5436764 1.436912,-0.8367646 2.239559,-0.8367646 0.279558,0 0.560441,0.035735 0.835,0.1060294 1.473529,0.3770588 2.423529,1.6164704 2.420735,3.1577938 z M 39.203527,67.611029 c -0.52647,-0.526323 -0.842353,-1.150588 -0.95,-1.841176 l -1.549117,1.5825 -5.217941,-5.218235 4.580294,-4.453823 c -0.532794,-0.180735 -1.002647,-0.4675 -1.392647,-0.857353 -0.768235,-0.768382 -1.146324,-1.794117 -1.093677,-2.967059 0.06382,-1.42147 0.791912,-2.948676 1.811618,-3.799999 0.105441,-0.08794 0.275735,-0.218235 0.511618,-0.39853 3.747352,-2.864117 4.117646,-3.820882 4.124852,-4.076029 -1.067206,-1.185588 -3.833676,-0.224117 -7.601176,2.644559 -0.139558,0.106176 -0.238529,0.180735 -0.289117,0.215147 -2.203677,1.503235 -4.008529,4.208676 -5.36397,8.040735 -1.283383,3.62544 -4.123971,6.428528 -7.793676,7.69044 l -4.919411,1.682941 c -0.690442,0.1475 -1.369265,0.373971 -2.019706,0.674118 l -0.139559,0.06824 c -0.959118,0.466765 -1.825147,1.083088 -2.5738232,1.831912 -1.8001469,1.800146 -2.7916174,4.193529 -2.7917645,6.738969 0,2.545736 0.9913234,4.939265 2.7916174,6.739265 l 7.9038223,7.904264 c 1.799559,1.799264 4.192206,2.79044 6.737353,2.79044 2.94e-4,0 7.35e-4,0 0.0012,0 2.545735,-4.41e-4 4.938676,-0.991764 6.73897,-2.791911 0.578088,-0.578235 1.07853,-1.225588 1.487059,-1.924559 l 0.05632,-0.09618 0.03632,-0.03412 c 1.609853,-2.135441 2.540588,-5.159852 3.039117,-7.328529 0.626324,-2.719852 2.557941,-4.963823 5.166618,-6.00294 2.604852,-1.036177 5.059411,-2.394706 5.968675,-3.304412 0.810883,-0.810882 1.139412,-1.525882 1.09853,-2.391323 -0.02706,-0.567353 -0.266177,-1.065294 -0.609559,-1.268529 -0.212206,-0.125588 -0.449118,-0.121324 -0.724118,0.01353 -0.209853,0.104853 -0.354117,0.173824 -0.462205,0.220441 -1.090147,0.497206 -4.450441,2.029412 -6.5625,-0.08279 z M 93.463963,9.121917 c 0.0012,-0.6488235 -0.330735,-1.4274999 -1.265294,-1.6666175 -0.594705,-0.1525 -1.196029,-0.00206 -1.729558,0.4383823 l -13.177793,10.3717642 -0.04265,0.02529 c -0.402647,0.240441 -0.701912,0.618823 -0.842353,1.066176 l -0.230588,0.733676 c -0.216618,0.688971 -0.605294,1.318677 -1.123971,1.821471 l -41.377937,40.237202 3.018823,3.018823 40.649996,-41.521025 1.182353,-1.1825 c 0.891765,-0.891471 2.077206,-1.3825 3.337941,-1.3825 0.694412,0 1.392206,0.156176 2.017353,0.451618 0.333676,0.157794 0.736617,0.05191 0.919559,-0.239853 l 4.992499,-8.851176 c 0.402206,-0.713235 1.088382,-1.236912 1.882353,-1.437059 l 0.428088,-0.107941 C 93.105431,10.645295 93.46249,9.7832365 93.46396,9.121913 Z m -66.243964,69.912935 -5.098088,-5.098088 2.927059,-2.927059 5.098087,5.097941 z m -1.47e-4,-2.1725 0.754559,-0.754706 -2.925588,-2.925735 -0.754559,0.754706 z m 0.991323,-3.444412 -5.098088,-5.098087 2.927059,-2.927059 5.098088,5.098235 z m -1.47e-4,-2.172352 0.754559,-0.754559 -2.925588,-2.925882 -0.754559,0.754706 z m 3.91147,13.91294 c 0.134412,1.189264 -0.723823,2.26647 -1.913235,2.401323 -0.08162,0.0093 -0.164117,0.01382 -0.245735,0.01382 0,0 0,0 -1.47e-4,0 -1.104559,-1.47e-4 -2.031323,-0.828823 -2.155441,-1.927205 -0.065,-0.57603 0.09794,-1.143235 0.459412,-1.596765 0.361323,-0.453529 0.877647,-0.739117 1.45397,-0.804264 0.08132,-0.0093 0.163971,-0.01397 0.245588,-0.01397 1.104412,0 2.03103,0.828529 2.155588,1.927059 z m -1.526323,0.172647 c -0.03632,-0.321324 -0.306765,-0.56353 -0.629265,-0.56353 -0.02426,0 -0.04838,0.0012 -0.07309,0.004 -0.168529,0.01897 -0.319559,0.1025 -0.425147,0.235294 -0.105735,0.1325 -0.153382,0.298529 -0.134265,0.466912 0.03632,0.32147 0.306618,0.563823 0.628971,0.563823 0,0 0,0 1.47e-4,0 0.02397,0 0.04838,-0.0012 0.07279,-0.004 0.348088,-0.03941 0.599265,-0.354706 0.559853,-0.7025 z m -2.060588,3.697646 c 0.134412,1.189559 -0.723823,2.266765 -1.913382,2.401324 -0.08147,0.0093 -0.163971,0.01382 -0.245588,0.01382 0,0 0,0 -1.47e-4,0 -1.104559,0 -2.031324,-0.828529 -2.155294,-1.927058 -0.065,-0.57603 0.09794,-1.143236 0.459264,-1.596765 0.361471,-0.453529 0.877794,-0.739265 1.453971,-0.804412 0.08147,-0.0093 0.16397,-0.01382 0.245588,-0.01382 1.104265,0 2.030882,0.828382 2.155588,1.926911 z m -1.526618,0.1725 c -0.03632,-0.321323 -0.306764,-0.563529 -0.629117,-0.563529 -0.02426,0 -0.04838,0.0012 -0.07323,0.004 -0.168383,0.01897 -0.319559,0.1025 -0.425147,0.235294 -0.105736,0.132647 -0.153383,0.298529 -0.134265,0.466911 0.03632,0.321618 0.306618,0.563824 0.62897,0.563824 0.02426,0 0.04868,-0.0012 0.07324,-0.004 0.348088,-0.03941 0.59897,-0.354264 0.559558,-0.7025 z"
   id="path1"
   style="stroke-width:1" />
</svg>
