<svg xmlns="http://www.w3.org/2000/svg" xml:space="preserve" width="100" height="100">
    <path d="m15.093 80.553-2.36 2.36-1.086-1.087 2.36-2.36zm.343.34-2.36 2.36 1.086 1.086 2.36-2.36zm1.43 1.425-2.36 2.36 1.086 1.087 2.36-2.36zm-.93 3.793 1.086 1.086 2.36-2.36-1.085-1.086zM95 9.125c-.003 1.572-1.016 2.883-2.522 3.263l-.428.108a1.48 1.48 0 0 0-.92.702l-5.012 8.885a2.21 2.21 0 0 1-1.903 1.063c-.344 0-.677-.075-.99-.223a3.2 3.2 0 0 0-1.362-.304c-.85 0-1.65.33-2.252.932l-1.176 1.177-38.37 39.191c-.487 1.092-.413 1.968.225 2.606.914.914 2.5.837 4.852-.235.093-.04.22-.101.405-.194.75-.366 1.524-.35 2.187.042.789.466 1.31 1.431 1.362 2.518.062 1.305-.43 2.433-1.547 3.55-1.305 1.306-4.31 2.78-6.486 3.645a7 7 0 0 0-4.238 4.92c-.776 3.376-1.896 6.045-3.33 7.935a11 11 0 0 1-1.7 2.19 11 11 0 0 1-7.824 3.243h-.002c-2.956 0-5.734-1.15-7.823-3.24l-7.904-7.905A11 11 0 0 1 5 75.168a11 11 0 0 1 3.242-7.825 11 11 0 0 1 2.027-1.6l-.033-.03 1.013-.509a11.2 11.2 0 0 1 2.445-.841l4.787-1.644c3.224-1.108 5.719-3.569 6.845-6.75 1.487-4.204 3.432-7.082 5.946-8.797.04-.027.116-.086.224-.168 4.728-3.6 7.998-4.406 9.721-2.396.266.31.382.699.337 1.126-.154 1.47-2.359 3.34-4.718 5.144-.204.156-.38.29-.46.357-.589.492-1.211 1.574-1.261 2.69-.034.74.183 1.35.645 1.812.404.404.959.616 1.656.631l36.566-35.557c.337-.326.588-.734.728-1.18l.23-.734A3.44 3.44 0 0 1 76.417 17l.746-.587-.63-.872a.768.768 0 1 1 1.246-.9l.592.82 2.316-1.822-.631-.873a.768.768 0 0 1 1.245-.9l.594.823 2.308-1.817-.667-.923a.768.768 0 0 1 1.245-.9l.63.872 2.313-1.82-.679-.94a.768.768 0 0 1 1.245-.9l.642.889.574-.452c.657-.544 1.437-.837 2.24-.837.279 0 .56.036.834.106 1.474.377 2.424 1.617 2.421 3.158M39.204 67.611a3.28 3.28 0 0 1-.95-1.841l-1.55 1.582-5.218-5.218 4.58-4.454a3.6 3.6 0 0 1-1.392-.857c-.768-.768-1.146-1.794-1.094-2.967.064-1.422.792-2.949 1.812-3.8.105-.088.276-.218.512-.399 3.747-2.864 4.117-3.82 4.125-4.076-1.068-1.185-3.834-.224-7.602 2.645q-.211.16-.289.215c-2.203 1.503-4.008 4.209-5.364 8.04-1.283 3.626-4.124 6.43-7.793 7.691l-4.92 1.683c-.69.148-1.37.374-2.02.674l-.14.069a9.5 9.5 0 0 0-2.573 1.831 9.47 9.47 0 0 0-2.792 6.74 9.47 9.47 0 0 0 2.792 6.739l7.904 7.904a9.47 9.47 0 0 0 6.737 2.79h.001a9.47 9.47 0 0 0 6.74-2.792 9.5 9.5 0 0 0 1.486-1.924l.057-.096.036-.034c1.61-2.136 2.54-5.16 3.04-7.329a8.53 8.53 0 0 1 5.166-6.003c2.605-1.036 5.06-2.395 5.968-3.304.811-.811 1.14-1.526 1.099-2.392-.027-.567-.266-1.065-.61-1.268-.212-.126-.449-.121-.724.013-.21.105-.354.174-.462.22-1.09.498-4.45 2.03-6.562-.082m54.26-58.49c.001-.648-.33-1.427-1.265-1.666-.595-.152-1.196-.002-1.73.439L77.291 18.265l-.042.026c-.403.24-.702.619-.843 1.066l-.23.734a4.4 4.4 0 0 1-1.124 1.821L33.674 62.15l3.019 3.02 40.65-41.522 1.182-1.182a4.7 4.7 0 0 1 3.338-1.383c.694 0 1.392.156 2.017.452.334.157.737.052.92-.24l4.992-8.851a3.02 3.02 0 0 1 1.883-1.437l.428-.108c1.002-.253 1.36-1.115 1.361-1.776M27.22 79.036l-5.098-5.098 2.927-2.927 5.098 5.098zm0-2.173.754-.754-2.925-2.926-.755.755zm.991-3.444-5.098-5.098 2.927-2.927 5.098 5.098zm0-2.172.755-.755-2.926-2.926-.755.755zm3.911 13.913a2.174 2.174 0 0 1-2.158 2.415 2.169 2.169 0 0 1-1.697-3.524 2.16 2.16 0 0 1 1.7-.819 2.17 2.17 0 0 1 2.155 1.928m-1.526.172a.633.633 0 0 0-1.127-.324.633.633 0 0 0 .495 1.03.636.636 0 0 0 .633-.707m-2.06 3.698a2.174 2.174 0 0 1-2.16 2.415 2.17 2.17 0 0 1-2.155-1.927 2.16 2.16 0 0 1 .46-1.597 2.16 2.16 0 0 1 1.699-.818 2.17 2.17 0 0 1 2.156 1.927m-1.527.172a.633.633 0 0 0-1.128-.324.633.633 0 0 0 .568 1.027.636.636 0 0 0 .56-.703" style="stroke-width:1"/>
</svg>
