<svg xmlns="http://www.w3.org/2000/svg" width="103.163" height="65" viewBox="0 -3 103.163 65">
    <path d="M82.249 62C70.7 62 61.337 52.64 61.337 41.088c0-8.472 5.05-15.751 12.294-19.036l-2.78-6.26.452 1.094-19.039 25.557v5.124h2.789v2.791h-8.368v-2.79h2.79v-2.792l-7.887-.74C40.15 54.183 31.454 61.997 20.909 61.997 9.361 62 0 52.64 0 41.088 0 29.54 9.36 20.18 20.912 20.18c3.018 0 5.88.653 8.472 1.802L34.61 8.853l-2.372-6.624H29.45c-2.616 0-1.917-2.789-1.917-2.789S27.706-3 29.625-3s1.917 1.744 5.053 1.744c3.003 0 7.318.869 7.318.869s1.917 2.613-1.74 2.613h-5.23l1.983 7.12H67.31l-2.38-5.41h-1.85V1.152h11.15V3.94h-6.3l8.162 17.163a20.9 20.9 0 0 1 6.158-.924c11.549 0 20.912 9.36 20.912 20.91C103.161 52.638 93.797 62 82.25 62M20.912 22.965c-10.01 0-18.124 8.113-18.124 18.123s8.113 18.12 18.124 18.12c9.1 0 16.615-6.714 17.904-15.46L24.3 42.254c-.23 1.307-1.32 2.32-2.693 2.32a2.791 2.791 0 0 1 0-5.582c.33-.001.636.084.93.19l5.815-14.613a18.1 18.1 0 0 0-7.441-1.604m4.181 16.903 13.926 1.472c.002-.085.013-.167.013-.252 0-6.443-3.37-12.086-8.436-15.302zm10.762-27.536-4.231 10.825c6.1 3.652 10.197 10.306 10.197 17.934 0 .18-.022.365-.028.546l4.733.499zm32.63-1.88v1.683h-30.49L49.1 41.853l21.077-27.596Zm13.764 12.513c-1.747 0-3.43.26-5.029.724l6.51 14.871c1.32.214 2.352 1.316 2.352 2.698a2.79 2.79 0 1 1-5.58 0c0-.748.305-1.428.793-1.933l-6.537-14.729c-6.27 2.852-10.635 9.152-10.635 16.49 0 10.007 8.113 18.12 18.12 18.12s18.12-8.113 18.12-18.12-8.107-18.121-18.114-18.121" style="stroke-width:.999995"/>
</svg>
