<svg xmlns="http://www.w3.org/2000/svg" xml:space="preserve" width="100" height="90">
    <path d="M143.773 0a3.414 3.414 0 0 0-3.404 3.404v14.638h-38.298a3.414 3.414 0 0 0-3.404 3.405v55.149A3.414 3.414 0 0 0 102.071 80h41.873c1.702 0 3.234-1.532 3.234-3.234V3.404A3.414 3.414 0 0 0 143.773 0m-3.404 73.362h-34.894V43.064h34.894zm0-37.107h-34.894V24.681h34.894z" style="stroke-width:.159575" transform="translate(-72.922 6)"/>
    <path d="M115.007 48a3.414 3.414 0 0 0-3.404 3.404v.51a3.414 3.414 0 0 0 3.404 3.405c1.873 0 3.234-1.362 3.404-3.404v-.51A3.414 3.414 0 0 0 115.007 48m16 0a3.414 3.414 0 0 0-3.404 3.404v.51a3.414 3.414 0 0 0 3.404 3.405c1.873 0 3.405-1.362 3.405-3.404v-.51A3.414 3.414 0 0 0 131.007 48m-16 12.936a3.414 3.414 0 0 0-3.404 3.404v.511a3.414 3.414 0 0 0 3.404 3.404c1.873 0 3.234-1.361 3.404-3.404v-.51a3.414 3.414 0 0 0-3.404-3.405m16 0a3.414 3.414 0 0 0-3.404 3.404v.511a3.414 3.414 0 0 0 3.404 3.404c1.873 0 3.405-1.361 3.405-3.404v-.51a3.414 3.414 0 0 0-3.405-3.405" style="stroke-width:.159575" transform="translate(-72.922 6)"/>
</svg>
