<?xml version="1.0" encoding="UTF-8" standalone="no"?>
<!-- Uploaded to: SVG Repo, www.svgrepo.com, Generator: SVG Repo Mixer Tools -->

<svg
   fill="#000000"
   height="90"
   width="100"
   version="1.1"
   id="Layer_1"
   viewBox="0 0 100 90"
   xml:space="preserve"
   sodipodi:docname="body_pack_1.svg"
   inkscape:version="1.3.2 (091e20e, 2023-11-25)"
   xmlns:inkscape="http://www.inkscape.org/namespaces/inkscape"
   xmlns:sodipodi="http://sodipodi.sourceforge.net/DTD/sodipodi-0.dtd"
   xmlns="http://www.w3.org/2000/svg"
   xmlns:svg="http://www.w3.org/2000/svg"><defs
   id="defs10">
	

		
	
	

		
	
	

		
	
	

		
	
	

		
	</defs><sodipodi:namedview
   id="namedview10"
   pagecolor="#ffffff"
   bordercolor="#000000"
   borderopacity="0.25"
   inkscape:showpageshadow="2"
   inkscape:pageopacity="0.0"
   inkscape:pagecheckerboard="0"
   inkscape:deskcolor="#d1d1d1"
   inkscape:current-layer="Layer_1" />




<g
   id="g10"
   inkscape:label="body pack"
   transform="translate(-72.922335,6.000001)"><path
     d="m 143.7733,0 c -1.87228,0 -3.4042,1.5319159 -3.4042,3.4042043 V 18.042458 h -38.2979 c -1.87229,0 -3.404201,1.531916 -3.404201,3.404205 v 55.149131 c 0,1.872288 1.531911,3.404204 3.404201,3.404204 h 41.87237 c 1.70218,0 3.2341,-1.531916 3.2341,-3.234098 V 3.4042043 C 147.17767,1.5319159 145.64559,0 143.7733,0 Z m -3.4042,73.361696 H 105.47541 V 43.06391 h 34.89369 z m 0,-37.106354 H 105.47541 V 24.68092 h 34.89369 z"
     id="path1"
     style="stroke-width:0.159575" /><path
     d="m 115.00728,48.000031 c -1.87229,0 -3.40421,1.531916 -3.40421,3.404204 v 0.510639 c 0,1.872288 1.53192,3.404204 3.40421,3.404204 1.87228,0 3.23409,-1.36165 3.4042,-3.404204 v -0.510639 c 1.6e-4,-1.872288 -1.53176,-3.404204 -3.4042,-3.404204 z"
     id="path2"
     style="stroke-width:0.159575" /><path
     d="m 131.00734,48.000031 c -1.87229,0 -3.40421,1.531916 -3.40421,3.404204 v 0.510639 c 0,1.872288 1.53192,3.404204 3.40421,3.404204 1.87229,0 3.4042,-1.36165 3.4042,-3.404204 v -0.510639 c 1.6e-4,-1.872288 -1.53175,-3.404204 -3.4042,-3.404204 z"
     id="path4"
     style="stroke-width:0.159575" /><path
     d="m 115.00728,60.936262 c -1.87229,0 -3.40421,1.531916 -3.40421,3.404205 v 0.510638 c 0,1.872289 1.53192,3.404205 3.40421,3.404205 1.87228,0 3.23409,-1.36165 3.4042,-3.404205 v -0.510638 c 1.6e-4,-1.872289 -1.53176,-3.404205 -3.4042,-3.404205 z"
     id="path6"
     style="stroke-width:0.159575" /><path
     d="m 131.00734,60.936262 c -1.87229,0 -3.40421,1.531916 -3.40421,3.404205 v 0.510638 c 0,1.872289 1.53192,3.404205 3.40421,3.404205 1.87229,0 3.4042,-1.36165 3.4042,-3.404205 v -0.510638 c 1.6e-4,-1.872289 -1.53175,-3.404205 -3.4042,-3.404205 z"
     id="path8"
     style="stroke-width:0.159575" /></g>
</svg>
