<?xml version="1.0" encoding="UTF-8" standalone="no"?>
<svg
   xml:space="preserve"
   width="20"
   height="35"
   version="1.1"
   id="svg2"
   sodipodi:docname="body_pack_1.svg"
   inkscape:version="1.3.2 (091e20e, 2023-11-25)"
   xmlns:inkscape="http://www.inkscape.org/namespaces/inkscape"
   xmlns:sodipodi="http://sodipodi.sourceforge.net/DTD/sodipodi-0.dtd"
   xmlns="http://www.w3.org/2000/svg"
   xmlns:svg="http://www.w3.org/2000/svg"><defs
   id="defs2" /><sodipodi:namedview
   id="namedview2"
   pagecolor="#ffffff"
   bordercolor="#000000"
   borderopacity="0.25"
   inkscape:showpageshadow="2"
   inkscape:pageopacity="0.0"
   inkscape:pagecheckerboard="0"
   inkscape:deskcolor="#d1d1d1"
   inkscape:current-layer="svg2"
   showgrid="false" />
    <rect
   style="fill:#ffffff;stroke-width:0.6;stroke-linecap:square;stroke-miterlimit:4.7"
   id="rect1"
   width="16"
   height="20"
   x="2"
   y="8" /><path
   id="path1"
   style="stroke-width:0.0598406"
   d="m 17.819335,0 a 1.28025,1.28025 0 0 0 -1.27661,1.2766113 V 6.766114 H 2.1806648 A 1.28025,1.28025 0 0 0 0.90405287,8.042725 V 28.723388 A 1.28025,1.28025 0 0 0 2.1806648,30 H 17.883054 c 0.63825,0 1.212893,-0.574641 1.212893,-1.212891 V 1.2766113 A 1.28025,1.28025 0 0 0 17.819335,0 Z M 3.4572728,9.255615 H 16.542725 v 4.340332 H 3.4572728 Z m 0,6.893554 H 16.542725 V 27.510498 H 3.4572728 Z m 3.730227,2.413331 a 1.3125,1.3125 0 0 0 -1.3125,1.3125 1.3125,1.3125 0 0 0 1.3125,1.3125 1.3125,1.3125 0 0 0 1.3125001,-1.3125 1.3125,1.3125 0 0 0 -1.3125001,-1.3125 z m 5.6249992,0 a 1.3125,1.3125 0 0 0 -1.3125,1.3125 1.3125,1.3125 0 0 0 1.3125,1.3125 1.3125,1.3125 0 0 0 1.3125,-1.3125 1.3125,1.3125 0 0 0 -1.3125,-1.3125 z m -5.6249992,4.875 a 1.3125,1.3125 0 0 0 -1.3125,1.3125 1.3125,1.3125 0 0 0 1.3125,1.3125 A 1.3125,1.3125 0 0 0 8.4999999,24.75 1.3125,1.3125 0 0 0 7.1874998,23.4375 Z m 5.6249992,0 a 1.3125,1.3125 0 0 0 -1.3125,1.3125 1.3125,1.3125 0 0 0 1.3125,1.3125 1.3125,1.3125 0 0 0 1.3125,-1.3125 1.3125,1.3125 0 0 0 -1.3125,-1.3125 z" />
    
</svg>
