<svg xmlns="http://www.w3.org/2000/svg" xml:space="preserve" width="20" height="35">
    <path d="M2 8h16v20H2z" style="fill:#fff;stroke-width:.6;stroke-linecap:square;stroke-miterlimit:4.7"/>
    <path d="M17.82 0a1.28 1.28 0 0 0-1.277 1.277v5.49H2.18A1.28 1.28 0 0 0 .904 8.042v20.68A1.28 1.28 0 0 0 2.181 30h15.702c.638 0 1.213-.575 1.213-1.213V1.277A1.28 1.28 0 0 0 17.819 0M3.456 9.256h13.086v4.34H3.457Zm0 6.893h13.086V27.51H3.457Zm3.73 2.413a1.313 1.313 0 0 0-1.312 1.313 1.313 1.313 0 0 0 1.312 1.313A1.313 1.313 0 0 0 8.5 19.875a1.313 1.313 0 0 0-1.313-1.312m5.625 0a1.313 1.313 0 0 0-1.312 1.313 1.313 1.313 0 0 0 1.312 1.313 1.313 1.313 0 0 0 1.313-1.313 1.313 1.313 0 0 0-1.313-1.312m-5.625 4.875a1.313 1.313 0 0 0-1.312 1.313 1.313 1.313 0 0 0 1.312 1.313A1.313 1.313 0 0 0 8.5 24.75a1.313 1.313 0 0 0-1.313-1.312m5.625 0A1.313 1.313 0 0 0 11.5 24.75a1.313 1.313 0 0 0 1.312 1.313 1.313 1.313 0 0 0 1.313-1.313 1.313 1.313 0 0 0-1.313-1.312" style="stroke-width:.0598406"/>
</svg>
