<?xml version="1.0" encoding="UTF-8" standalone="no"?>
<!-- Uploaded to: SVG Repo, www.svgrepo.com, Generator: SVG Repo Mixer Tools -->

<svg
   fill="#000000"
   width="46"
   height="45"
   viewBox="0 0 46 45"
   version="1.1"
   id="svg1"
   sodipodi:docname="boombox_2.svg"
   inkscape:version="1.3.2 (091e20e, 2023-11-25)"
   xmlns:inkscape="http://www.inkscape.org/namespaces/inkscape"
   xmlns:sodipodi="http://sodipodi.sourceforge.net/DTD/sodipodi-0.dtd"
   xmlns="http://www.w3.org/2000/svg"
   xmlns:svg="http://www.w3.org/2000/svg">
  <defs
     id="defs1" />
  <sodipodi:namedview
     id="namedview1"
     pagecolor="#ffffff"
     bordercolor="#000000"
     borderopacity="0.25"
     inkscape:showpageshadow="2"
     inkscape:pageopacity="0.0"
     inkscape:pagecheckerboard="0"
     inkscape:deskcolor="#d1d1d1"
     inkscape:current-layer="svg1" />
  <path
     d="M 16.726562,3.9995958 C 13.064017,3.9995958 10,6.8910768 10,10.499596 v 2.607422 C 4.1737322,15.022132 0,20.314294 0,26.499596 c 0,7.37686 5.9272874,13.502102 13.527344,14.117188 6.315191,0.511494 12.630121,0.511494 18.945312,0 C 40.072712,40.001698 46,33.876456 46,26.499596 46,20.314294 41.826268,15.022132 36,13.107018 V 10.499596 C 36,6.8910768 32.935983,3.9995958 29.273438,3.9995958 Z m 0,3 H 29.273438 C 31.384892,6.9995958 33,8.5861148 33,10.499596 v 1.951172 c -0.176513,-0.02046 -0.348932,-0.05392 -0.527344,-0.06836 C 29.315061,12.126662 26.15775,11.999596 23,11.999596 c -3.15775,0 -6.315061,0.127066 -9.472656,0.382812 -0.178412,0.01444 -0.350831,0.0479 -0.527344,0.06836 V 10.499596 C 13,8.5861148 14.615108,6.9995958 16.726562,6.9995958 Z M 23,14.999596 c 3.07675,0 6.153064,0.123794 9.230469,0.373047 3.090962,0.250156 5.797144,1.607955 7.724609,3.628906 C 35.032486,19.026302 31,23.071559 31,27.999596 c 0,3.789996 2.387892,7.052144 5.728516,8.371094 -1.356313,0.679451 -2.871903,1.124253 -4.498047,1.255859 -6.154809,0.498505 -12.306129,0.498505 -18.460938,0 C 12.143387,37.494943 10.627797,37.050141 9.271484,36.37069 12.612108,35.05174 15,31.789592 15,27.999596 15,23.071559 10.967514,19.026302 6.0449219,19.001549 7.9723875,16.980598 10.678569,15.622799 13.769531,15.372643 16.846936,15.12339 19.92325,14.999596 23,14.999596 Z m -6.5,3 a 1.50015,1.50015 0 0 0 -1.302734,2.244141 l 4,7 A 1.50015,1.50015 0 0 0 20.5,27.999596 h 5 a 1.50015,1.50015 0 0 0 1.302734,-0.755859 l 4,-7 A 1.50015,1.50015 0 0 0 29.5,17.999596 Z m 2.585938,3 h 7.828124 l -2.285156,4 h -3.257812 z m -15.0800786,1 H 6 c 3.306818,0 6,2.693182 6,6 0,3.291685 -2.669027,5.973553 -5.9550781,5.998047 C 4.1436347,32.00414 3,29.365436 3,26.499596 c 0,-1.59585 0.3638134,-3.116601 1.0058594,-4.5 z m 35.9941406,0 h 1.994141 C 42.636187,23.382995 43,24.903746 43,26.499596 43,29.365436 41.856365,32.00414 39.955078,33.997643 36.669027,33.973149 34,31.291281 34,27.999596 c 0,-3.306818 2.693182,-6 6,-6 z m -21,10 a 1.50015,1.50015 0 1 0 0,3 h 8 a 1.50015,1.50015 0 1 0 0,-3 z"
     id="path1" />
</svg>
