<svg xmlns="http://www.w3.org/2000/svg" width="60" height="40">
    <path d="M59.017 7.293H43.7V3.428a.983.983 0 0 0-.982-.983H17.283a.983.983 0 0 0-.982.983v3.865H.983A.983.983 0 0 0 0 8.275v28.297c0 .543.44.983.983.983h58.034c.543 0 .983-.44.983-.983V8.275a.983.983 0 0 0-.983-.982M18.266 4.41h23.468v2.883H18.266Zm39.769 31.18H1.965V9.258h56.07z"/>
    <path d="M17.283 10.24H3.603a.655.655 0 0 0-.655.655v23.057c0 .362.293.655.655.655h13.68a.655.655 0 0 0 .655-.655V10.895a.655.655 0 0 0-.655-.655m-.655 23.057H4.258V11.55h12.37zm25.434-22.402v23.057c0 .362.293.655.655.655h13.68a.655.655 0 0 0 .655-.655V10.895a.655.655 0 0 0-.655-.655h-13.68a.655.655 0 0 0-.655.655m1.31.655h12.37v21.747h-12.37z"/>
    <path d="M10.443 32.773a5.9 5.9 0 0 0 5.895-5.895 5.9 5.9 0 0 0-5.895-5.895 5.9 5.9 0 0 0-5.895 5.895 5.9 5.9 0 0 0 5.895 5.895m0-10.48a4.59 4.59 0 0 1 4.585 4.585 4.59 4.59 0 0 1-4.585 4.585 4.59 4.59 0 0 1-4.585-4.585 4.59 4.59 0 0 1 4.585-4.585"/>
    <path d="M10.443 28.979a2.104 2.104 0 0 0 2.101-2.101 2.104 2.104 0 0 0-2.101-2.101 2.104 2.104 0 0 0-2.101 2.1c0 1.16.942 2.102 2.101 2.102m0-2.892a.792.792 0 1 1-.002 1.584.792.792 0 0 1 .002-1.584m-1.769-5.694a4.13 4.13 0 0 0 4.127-4.127 4.13 4.13 0 0 0-4.127-4.127 4.13 4.13 0 0 0-4.126 4.127 4.13 4.13 0 0 0 4.126 4.127m0-6.944a2.82 2.82 0 0 1 2.817 2.817 2.82 2.82 0 0 1-2.817 2.817 2.82 2.82 0 0 1-2.816-2.817 2.82 2.82 0 0 1 2.816-2.817"/>
    <path d="M8.674 18.225c1.081 0 1.96-.878 1.96-1.959s-.879-1.96-1.96-1.96-1.96.88-1.96 1.96.88 1.96 1.96 1.96m0-2.608a.65.65 0 1 1-.001 1.3.65.65 0 0 1 .001-1.3m40.883 5.365a5.9 5.9 0 0 0-5.895 5.895 5.9 5.9 0 0 0 5.895 5.895 5.9 5.9 0 0 0 5.895-5.895 5.9 5.9 0 0 0-5.895-5.895m0 10.48a4.59 4.59 0 0 1-4.585-4.585 4.59 4.59 0 0 1 4.585-4.585 4.59 4.59 0 0 1 4.585 4.585 4.59 4.59 0 0 1-4.585 4.585"/>
    <path d="M49.557 24.777a2.104 2.104 0 0 0-2.101 2.1c0 1.16.942 2.102 2.101 2.102a2.104 2.104 0 0 0 2.101-2.101 2.104 2.104 0 0 0-2.101-2.101m0 2.892a.792.792 0 1 1 .002-1.584.792.792 0 0 1-.002 1.584m1.769-15.529a4.13 4.13 0 0 0-4.127 4.126 4.13 4.13 0 0 0 4.127 4.127 4.13 4.13 0 0 0 4.126-4.127 4.13 4.13 0 0 0-4.126-4.127m0 6.943a2.82 2.82 0 0 1-2.817-2.817 2.82 2.82 0 0 1 2.817-2.817 2.82 2.82 0 0 1 2.816 2.817 2.82 2.82 0 0 1-2.816 2.817"/>
    <path d="M51.326 14.307c-1.081 0-1.96.878-1.96 1.959s.879 1.96 1.96 1.96 1.96-.88 1.96-1.96-.88-1.96-1.96-1.96m0 2.608a.65.65 0 1 1 .001-1.3.65.65 0 0 1-.001 1.3M28.9 24.65h-9.38a.655.655 0 0 0-.655.656v8.646c0 .362.293.655.655.655h9.38a.655.655 0 0 0 .655-.655v-8.646a.655.655 0 0 0-.655-.655m-.655 1.31v4.717h-8.07V25.96zm-4.69 6.027v1.31h-.983v-1.31zm1.31 0h.982v1.31h-.982zm-4.69 0h1.087v1.31h-1.087Zm6.982 1.31v-1.31h1.088v1.31zM40.48 24.65H31.1a.655.655 0 0 0-.655.656v8.646c0 .362.293.655.655.655h9.38a.655.655 0 0 0 .655-.655v-8.646a.655.655 0 0 0-.655-.655m-.655 1.31v4.717h-8.07V25.96zm-4.69 6.027v1.31h-.982v-1.31zm1.31 0h.983v1.31h-.983zm-4.69 0h1.088v1.31h-1.088zm6.983 1.31v-1.31h1.087v1.31z"/>
    <path d="M22.507 29.105a.657.657 0 0 0 .655-.655.66.66 0 0 0-.655-.655.654.654 0 1 0 0 1.31m3.406 0a.66.66 0 0 0 .655-.655.659.659 0 0 0-1.119-.464.66.66 0 0 0 0 .927.66.66 0 0 0 .464.192m8.175 0a.66.66 0 0 0 .655-.655.66.66 0 0 0-.655-.655.655.655 0 0 0 0 1.31m3.406 0a.66.66 0 0 0 .655-.655.66.66 0 0 0-.655-.655.657.657 0 0 0 0 1.31M40.48 10.24H19.52a.655.655 0 0 0-.655.655v1.965c0 .362.293.655.655.655h20.96a.655.655 0 0 0 .655-.655v-1.965a.655.655 0 0 0-.655-.655m-.655 1.965h-19.65v-.655h19.65zm-3.569 2.096H23.744a.655.655 0 0 0-.655.655v1.965c0 .362.293.655.655.655h12.512a.655.655 0 0 0 .655-.655v-1.965a.655.655 0 0 0-.655-.655m-.655 1.965H24.399v-.655h11.202zM21.52 20.983c0 1.191.97 2.161 2.161 2.161s2.162-.97 2.162-2.161-.97-2.162-2.162-2.162-2.161.97-2.161 2.162m2.161-.852a.853.853 0 0 1 0 1.703.853.853 0 0 1 0-1.703m8.481.852c0-1.192-.97-2.162-2.162-2.162s-2.162.97-2.162 2.162.97 2.161 2.162 2.161 2.162-.97 2.162-2.161M30 21.834a.853.853 0 0 1 0-1.703.853.853 0 0 1 0 1.703m4.157-.851c0 1.191.97 2.161 2.162 2.161s2.161-.97 2.161-2.161-.97-2.162-2.161-2.162-2.162.97-2.162 2.162m3.013 0a.853.853 0 0 1-1.703 0 .853.853 0 0 1 1.703 0"/>
</svg>
