<svg xmlns="http://www.w3.org/2000/svg" xml:space="preserve" width="45" height="40">
    <path d="M1.193 12.496h42.575v23.108H1.193z" style="fill:#fff;stroke-width:1.51181;stroke-linecap:square;stroke-linejoin:round;stroke-miterlimit:4.7"/>
    <path d="M2.63 2.933v7.8H0v26.334h45V10.733h-2.63v-7.8Zm2.935 2.935h33.87v4.865H28.913V9.116h-2.935v1.617h-2.01V9.116h-2.935v1.617h-2.011V9.116h-2.935v1.617H5.565Zm-2.63 7.8h39.13v20.464H2.935Zm14.619 1.452v2.935h9.891V15.12zm-5.96 2.328c-4.095 0-7.427 3.331-7.427 7.427 0 4.095 3.332 7.427 7.428 7.427 4.095 0 7.427-3.332 7.427-7.427 0-4.096-3.332-7.427-7.427-7.427m21.811 0c-4.095 0-7.427 3.331-7.427 7.427 0 4.095 3.332 7.427 7.427 7.427 4.096 0 7.428-3.332 7.428-7.427 0-4.096-3.332-7.427-7.428-7.427m-21.81 2.934a4.5 4.5 0 0 1 4.492 4.493 4.5 4.5 0 0 1-4.492 4.493 4.5 4.5 0 0 1-4.493-4.493 4.5 4.5 0 0 1 4.493-4.493m21.81 0a4.5 4.5 0 0 1 4.493 4.493 4.5 4.5 0 0 1-4.493 4.493 4.5 4.5 0 0 1-4.492-4.493 4.5 4.5 0 0 1 4.492-4.493" style="stroke-width:.0878906"/>
</svg>
