<svg xmlns="http://www.w3.org/2000/svg" width="46" height="45">
    <path d="M16.727 4C13.064 4 10 6.89 10 10.5v2.607C4.174 15.022 0 20.314 0 26.5c0 7.376 5.927 13.502 13.527 14.117q9.473.767 18.946 0C40.073 40.002 46 33.877 46 26.5c0-6.186-4.174-11.478-10-13.393V10.5C36 6.89 32.936 4 29.273 4Zm0 3h12.546C31.385 7 33 8.586 33 10.5v1.95c-.177-.02-.349-.053-.527-.068a117 117 0 0 0-18.946 0c-.178.015-.35.048-.527.069V10.5C13 8.586 14.615 7 16.727 7M23 15q4.615-.001 9.23.373c3.091.25 5.798 1.608 7.725 3.629C35.032 19.026 31 23.072 31 28c0 3.79 2.388 7.052 5.729 8.37a12.2 12.2 0 0 1-4.499 1.257 114 114 0 0 1-18.46 0 12.2 12.2 0 0 1-4.5-1.257C12.612 35.05 15 31.79 15 28c0-4.928-4.032-8.974-8.955-8.998 1.927-2.021 4.634-3.38 7.725-3.63A114 114 0 0 1 23 15m-6.5 3a1.5 1.5 0 0 0-1.303 2.244l4 7A1.5 1.5 0 0 0 20.5 28h5a1.5 1.5 0 0 0 1.303-.756l4-7A1.5 1.5 0 0 0 29.5 18Zm2.586 3h7.828l-2.285 4H21.37zm-15.08 1H6c3.307 0 6 2.693 6 6a6.01 6.01 0 0 1-5.955 5.998C4.144 32.004 3 29.365 3 26.5c0-1.596.364-3.117 1.006-4.5M40 22h1.994A10.7 10.7 0 0 1 43 26.5c0 2.865-1.144 5.504-3.045 7.498A6.01 6.01 0 0 1 34 28c0-3.307 2.693-6 6-6M19 32a1.5 1.5 0 1 0 0 3h8a1.5 1.5 0 1 0 0-3z"/>
</svg>
