<?xml version="1.0" encoding="UTF-8" standalone="no"?>
<!-- Uploaded to: SVG Repo, www.svgrepo.com, Generator: SVG Repo Mixer Tools -->

<svg
   fill="#000000"
   height="40"
   width="60"
   version="1.1"
   viewBox="0 0 60 40"
   enable-background="new 0 0 458 458"
   id="svg22"
   sodipodi:docname="boombox_3.svg"
   inkscape:version="1.3.2 (091e20e, 2023-11-25)"
   xmlns:inkscape="http://www.inkscape.org/namespaces/inkscape"
   xmlns:sodipodi="http://sodipodi.sourceforge.net/DTD/sodipodi-0.dtd"
   xmlns="http://www.w3.org/2000/svg"
   xmlns:svg="http://www.w3.org/2000/svg">
  <defs
     id="defs22" />
  <sodipodi:namedview
     id="namedview22"
     pagecolor="#ffffff"
     bordercolor="#000000"
     borderopacity="0.25"
     inkscape:showpageshadow="2"
     inkscape:pageopacity="0.0"
     inkscape:pagecheckerboard="0"
     inkscape:deskcolor="#d1d1d1"
     inkscape:current-layer="svg22" />
  <g
     id="g22"
     transform="matrix(0.13100437,0,0,0.13100437,0,-10.000001)">
    <path
       d="M 450.5,132 H 333.57 v -29.5 c 0,-4.142 -3.358,-7.5 -7.5,-7.5 H 131.93 c -4.142,0 -7.5,3.358 -7.5,7.5 V 132 H 7.5 C 3.358,132 0,135.358 0,139.5 v 216 c 0,4.142 3.358,7.5 7.5,7.5 h 443 c 4.142,0 7.5,-3.358 7.5,-7.5 v -216 c 0,-4.142 -3.358,-7.5 -7.5,-7.5 z M 139.43,110 h 179.14 v 22 H 139.43 Z M 443,348 H 15 V 147 h 428 z"
       id="path1" />
    <path
       d="M 131.93,154.5 H 27.5 c -2.761,0 -5,2.239 -5,5 v 176 c 0,2.761 2.239,5 5,5 h 104.43 c 2.761,0 5,-2.239 5,-5 v -176 c 0,-2.761 -2.239,-5 -5,-5 z m -5,176 H 32.5 v -166 h 94.43 z"
       id="path2" />
    <path
       d="m 321.07,159.5 v 176 c 0,2.761 2.239,5 5,5 H 430.5 c 2.761,0 5,-2.239 5,-5 v -176 c 0,-2.761 -2.239,-5 -5,-5 H 326.07 c -2.761,0 -5,2.239 -5,5 z m 10,5 h 94.43 v 166 h -94.43 z"
       id="path3" />
    <path
       d="m 79.715,326.5 c 24.813,0 45,-20.187 45,-45 0,-24.813 -20.187,-45 -45,-45 -24.813,0 -45,20.187 -45,45 0,24.813 20.187,45 45,45 z m 0,-80 c 19.299,0 35,15.701 35,35 0,19.299 -15.701,35 -35,35 -19.299,0 -35,-15.701 -35,-35 0,-19.299 15.701,-35 35,-35 z"
       id="path4" />
    <path
       d="m 79.715,297.539 c 8.844,0 16.039,-7.195 16.039,-16.039 0,-8.844 -7.195,-16.039 -16.039,-16.039 -8.844,0 -16.039,7.195 -16.039,16.039 0,8.844 7.195,16.039 16.039,16.039 z m 0,-22.078 c 3.33,0 6.039,2.709 6.039,6.039 0,3.33 -2.709,6.039 -6.039,6.039 -3.33,0 -6.039,-2.709 -6.039,-6.039 0,-3.33 2.709,-6.039 6.039,-6.039 z"
       id="path5" />
    <path
       d="m 66.215,231.997 c 17.369,0 31.5,-14.131 31.5,-31.5 0,-17.369 -14.131,-31.5 -31.5,-31.5 -17.369,0 -31.5,14.131 -31.5,31.5 0,17.369 14.131,31.5 31.5,31.5 z m 0,-53 c 11.855,0 21.5,9.645 21.5,21.5 0,11.855 -9.645,21.5 -21.5,21.5 -11.855,0 -21.5,-9.645 -21.5,-21.5 0,-11.855 9.645,-21.5 21.5,-21.5 z"
       id="path6" />
    <path
       d="m 66.215,215.454 c 8.248,0 14.957,-6.709 14.957,-14.957 0,-8.248 -6.709,-14.957 -14.957,-14.957 -8.248,0 -14.958,6.709 -14.958,14.957 0,8.248 6.71,14.957 14.958,14.957 z m 0,-19.914 c 2.733,0 4.957,2.224 4.957,4.957 0,2.733 -2.224,4.957 -4.957,4.957 -2.733,0 -4.958,-2.224 -4.958,-4.957 0,-2.733 2.224,-4.957 4.958,-4.957 z"
       id="path7" />
    <path
       d="m 378.285,236.5 c -24.813,0 -45,20.187 -45,45 0,24.813 20.187,45 45,45 24.813,0 45,-20.187 45,-45 0,-24.813 -20.187,-45 -45,-45 z m 0,80 c -19.299,0 -35,-15.701 -35,-35 0,-19.299 15.701,-35 35,-35 19.299,0 35,15.701 35,35 0,19.299 -15.702,35 -35,35 z"
       id="path8" />
    <path
       d="m 378.285,265.461 c -8.844,0 -16.039,7.195 -16.039,16.039 0,8.844 7.195,16.039 16.039,16.039 8.844,0 16.039,-7.195 16.039,-16.039 0,-8.844 -7.196,-16.039 -16.039,-16.039 z m 0,22.078 c -3.33,0 -6.039,-2.709 -6.039,-6.039 0,-3.33 2.709,-6.039 6.039,-6.039 3.33,0 6.039,2.709 6.039,6.039 0,3.33 -2.709,6.039 -6.039,6.039 z"
       id="path9" />
    <path
       d="m 391.785,168.997 c -17.369,0 -31.5,14.131 -31.5,31.5 0,17.369 14.131,31.5 31.5,31.5 17.369,0 31.5,-14.131 31.5,-31.5 0,-17.369 -14.131,-31.5 -31.5,-31.5 z m 0,53 c -11.855,0 -21.5,-9.645 -21.5,-21.5 0,-11.855 9.645,-21.5 21.5,-21.5 11.855,0 21.5,9.645 21.5,21.5 0,11.855 -9.645,21.5 -21.5,21.5 z"
       id="path10" />
    <path
       d="m 391.785,185.54 c -8.248,0 -14.957,6.709 -14.957,14.957 0,8.248 6.709,14.957 14.957,14.957 8.248,0 14.958,-6.709 14.958,-14.957 0,-8.248 -6.711,-14.957 -14.958,-14.957 z m 0,19.914 c -2.733,0 -4.957,-2.224 -4.957,-4.957 0,-2.733 2.224,-4.957 4.957,-4.957 2.733,0 4.958,2.224 4.958,4.957 0,2.733 -2.225,4.957 -4.958,4.957 z"
       id="path11" />
    <path
       d="M 220.602,264.5 H 149 c -2.761,0 -5,2.239 -5,5 v 66 c 0,2.761 2.239,5 5,5 h 71.602 c 2.761,0 5,-2.239 5,-5 v -66 c 0,-2.761 -2.239,-5 -5,-5 z m -5,10 v 36 H 154 v -36 z m -35.801,46 v 10 h -7.5 v -10 z m 10,0 h 7.5 v 10 h -7.5 z m -35.801,0 h 8.301 v 10 H 154 Z m 53.301,10 v -10 h 8.301 v 10 z"
       id="path12" />
    <path
       d="m 309,264.5 h -71.603 c -2.761,0 -5,2.239 -5,5 v 66 c 0,2.761 2.239,5 5,5 H 309 c 2.761,0 5,-2.239 5,-5 v -66 c 0,-2.761 -2.239,-5 -5,-5 z m -5,10 v 36 h -61.603 v -36 z m -35.8,46 v 10 h -7.5 v -10 z m 10,0 h 7.5 v 10 h -7.5 z m -35.803,0 h 8.302 v 10 h -8.302 z m 53.303,10 v -10 h 8.3 v 10 z"
       id="path13" />
    <path
       d="m 171.803,298.499 c 1.32,0 2.6,-0.53 3.53,-1.46 0.93,-0.93 1.47,-2.22 1.47,-3.54 0,-1.32 -0.54,-2.6 -1.47,-3.53 -0.93,-0.93 -2.21,-1.47 -3.53,-1.47 -1.32,0 -2.61,0.54 -3.54,1.47 -0.93,0.92 -1.46,2.21 -1.46,3.53 0,1.32 0.53,2.61 1.46,3.54 0.93,0.93 2.22,1.46 3.54,1.46 z"
       id="path14" />
    <path
       d="m 197.803,298.499 c 1.31,0 2.6,-0.53 3.53,-1.46 0.93,-0.93 1.47,-2.22 1.47,-3.54 0,-1.32 -0.54,-2.61 -1.47,-3.54 -0.93,-0.93 -2.22,-1.46 -3.53,-1.46 -1.32,0 -2.61,0.53 -3.54,1.46 -0.93,0.93 -1.46,2.22 -1.46,3.54 0,1.32 0.53,2.61 1.46,3.54 0.93,0.93 2.22,1.46 3.54,1.46 z"
       id="path15" />
    <path
       d="m 260.203,298.499 c 1.31,0 2.6,-0.53 3.53,-1.46 0.93,-0.93 1.47,-2.22 1.47,-3.54 0,-1.32 -0.54,-2.6 -1.47,-3.53 -0.93,-0.94 -2.22,-1.47 -3.53,-1.47 -1.32,0 -2.61,0.53 -3.54,1.47 -0.93,0.93 -1.46,2.21 -1.46,3.53 0,1.32 0.53,2.61 1.46,3.54 0.93,0.93 2.22,1.46 3.54,1.46 z"
       id="path16" />
    <path
       d="m 286.203,298.499 c 1.31,0 2.6,-0.53 3.53,-1.46 0.93,-0.94 1.47,-2.22 1.47,-3.54 0,-1.32 -0.54,-2.6 -1.47,-3.53 -0.93,-0.93 -2.22,-1.47 -3.53,-1.47 -1.32,0 -2.61,0.54 -3.54,1.47 -0.93,0.93 -1.46,2.21 -1.46,3.53 0,1.32 0.53,2.6 1.46,3.54 0.93,0.93 2.22,1.46 3.54,1.46 z"
       id="path17" />
    <path
       d="M 309,154.5 H 149 c -2.761,0 -5,2.239 -5,5 v 15 c 0,2.761 2.239,5 5,5 h 160 c 2.761,0 5,-2.239 5,-5 v -15 c 0,-2.761 -2.239,-5 -5,-5 z m -5,15 H 154 v -5 h 150 z"
       id="path18" />
    <path
       d="m 276.754,185.5 h -95.508 c -2.761,0 -5,2.239 -5,5 v 15 c 0,2.761 2.239,5 5,5 h 95.508 c 2.761,0 5,-2.239 5,-5 v -15 c 0,-2.761 -2.239,-5 -5,-5 z m -5,15 h -85.508 v -5 h 85.508 z"
       id="path19" />
    <path
       d="m 164.267,236.5 c 0,9.098 7.402,16.5 16.5,16.5 9.098,0 16.5,-7.402 16.5,-16.5 0,-9.098 -7.402,-16.5 -16.5,-16.5 -9.098,0 -16.5,7.402 -16.5,16.5 z m 16.5,-6.5 c 3.584,0 6.5,2.916 6.5,6.5 0,3.584 -2.916,6.5 -6.5,6.5 -3.584,0 -6.5,-2.916 -6.5,-6.5 0,-3.584 2.916,-6.5 6.5,-6.5 z"
       id="path20" />
    <path
       d="m 245.5,236.5 c 0,-9.098 -7.402,-16.5 -16.5,-16.5 -9.098,0 -16.5,7.402 -16.5,16.5 0,9.098 7.402,16.5 16.5,16.5 9.098,0 16.5,-7.402 16.5,-16.5 z M 229,243 c -3.584,0 -6.5,-2.916 -6.5,-6.5 0,-3.584 2.916,-6.5 6.5,-6.5 3.584,0 6.5,2.916 6.5,6.5 0,3.584 -2.916,6.5 -6.5,6.5 z"
       id="path21" />
    <path
       d="m 260.732,236.5 c 0,9.098 7.402,16.5 16.5,16.5 9.098,0 16.5,-7.402 16.5,-16.5 0,-9.098 -7.402,-16.5 -16.5,-16.5 -9.098,0 -16.5,7.402 -16.5,16.5 z m 23,0 c 0,3.584 -2.916,6.5 -6.5,6.5 -3.584,0 -6.5,-2.916 -6.5,-6.5 0,-3.584 2.916,-6.5 6.5,-6.5 3.584,0 6.5,2.916 6.5,6.5 z"
       id="path22" />
  </g>
</svg>
