<svg xmlns="http://www.w3.org/2000/svg" width="9.653" height="35" viewBox="-19.97 0 9.653 35">
    <path d="M-15.14 0c-1.539 0-2.654.67-2.654 1.594 0 .356.166.674.459.931v6.121c0 1.392-.645 3.89-1.27 6.303-.67 2.593-1.365 5.274-1.365 6.951v11.131c0 1.36 2.423 1.969 4.822 1.969s4.822-.609 4.82-1.97v-4.618q.01-.067.01-.137l-.01-.072v-4.736q.01-.067.01-.137l-.01-.072v-1.36c0-1.68-.693-4.358-1.365-6.95-.623-2.416-1.27-4.912-1.27-6.303V4.246a.6.6 0 0 0 0-.271V2.543c.306-.26.48-.585.48-.95C-12.484.67-13.602 0-15.14 0m.004 1.27a2.9 2.9 0 0 1 1.336.324 2.92 2.92 0 0 1-2.674 0 2.9 2.9 0 0 1 1.338-.324m-.93 1.828c.285.057.595.09.926.09q.487-.002.908-.086v.572a3.25 3.25 0 0 1-1.834-.004zm0 1.904a3.8 3.8 0 0 0 .924.092 3.8 3.8 0 0 0 .91-.088v3.639c0 1.552.636 4.015 1.31 6.619.652 2.516 1.325 5.116 1.325 6.632v1.39c-.214.24-1.42.745-3.547.745-2.154 0-3.364-.518-3.555-.756l-.001-.007v-1.37c0-1.516.673-4.116 1.324-6.632.675-2.607 1.31-5.069 1.31-6.621zM-18.7 24.73c.925.387 2.241.569 3.552.569s2.624-.183 3.551-.569v3.499c-.213.241-1.42.746-3.547.746-2.154 0-3.364-.518-3.555-.756l-.001-.008zm0 4.946c.925.386 2.241.568 3.552.568s2.624-.183 3.551-.568v3.3c-.197.24-1.407.754-3.55.754-2.144 0-3.357-.514-3.553-.753z" style="stroke-width:1"/>
</svg>
