<?xml version="1.0" encoding="UTF-8" standalone="no"?>
<!-- Uploaded to: SVG Repo, www.svgrepo.com, Generator: SVG Repo Mixer Tools -->

<svg
   width="9.6532087"
   height="35"
   viewBox="-19.97 0 9.6532087 35"
   version="1.1"
   id="svg1"
   sodipodi:docname="bottle_1.svg"
   inkscape:version="1.4 (e7c3feb1, 2024-10-09)"
   xmlns:inkscape="http://www.inkscape.org/namespaces/inkscape"
   xmlns:sodipodi="http://sodipodi.sourceforge.net/DTD/sodipodi-0.dtd"
   xmlns="http://www.w3.org/2000/svg"
   xmlns:svg="http://www.w3.org/2000/svg">
  <defs
     id="defs1" />
  <sodipodi:namedview
     id="namedview1"
     pagecolor="#ffffff"
     bordercolor="#000000"
     borderopacity="0.25"
     inkscape:showpageshadow="2"
     inkscape:pageopacity="0.0"
     inkscape:pagecheckerboard="0"
     inkscape:deskcolor="#d1d1d1"
     inkscape:current-layer="svg1" />
  <path
     id="Path_210"
     style="stroke-width:1"
     d="M -15.139922 0 C -16.67853 2.9605947e-16 -17.794219 0.67045816 -17.794219 1.59375 C -17.794219 1.9500281 -17.627686 2.2684032 -17.335234 2.5253906 L -17.335234 8.6464844 C -17.335234 10.037772 -17.979924 12.536214 -18.604766 14.949219 C -19.275327 17.541929 -19.97 20.222718 -19.97 21.900391 L -19.97 23.330078 L -19.97 28.275391 L -19.97 33.03125 C -19.97 34.390152 -17.547404 35 -15.147734 35 C -12.747429 35 -10.326122 34.391374 -10.327422 33.029297 L -10.327422 28.412109 C -10.321567 28.367277 -10.317941 28.32198 -10.317656 28.275391 A 0.63560211 0.63560211 0 0 0 -10.327422 28.203125 L -10.327422 23.466797 C -10.321567 23.421983 -10.317941 23.376646 -10.317656 23.330078 A 0.63558828 0.63558828 0 0 0 -10.327422 23.257812 L -10.327422 21.898438 C -10.327422 20.21759 -11.02146 17.539976 -11.692656 14.947266 C -12.316227 12.532356 -12.962187 10.035819 -12.962187 8.6445312 L -12.962187 4.2460938 A 0.63500127 0.63500127 0 0 0 -12.962187 3.9746094 L -12.962187 2.5429688 C -12.657467 2.2831651 -12.483672 1.958044 -12.483672 1.59375 C -12.483672 0.66982316 -13.601314 0 -15.139922 0 z M -15.136016 1.2695312 A 2.9210058 2.9210058 0 0 1 -13.800078 1.59375 A 2.9241808 2.9241808 0 0 1 -16.473906 1.59375 A 2.9210058 2.9210058 0 0 1 -15.136016 1.2695312 z M -16.065703 3.0976562 C -15.781007 3.1554315 -15.47055 3.1875 -15.139922 3.1875 C -14.815964 3.1875 -14.511793 3.1570276 -14.231719 3.1015625 L -14.231719 3.6738281 A 3.2531115 3.2531115 0 0 1 -16.065703 3.6699219 L -16.065703 3.0976562 z M -16.065703 5.0019531 A 3.8404877 3.8404877 0 0 0 -15.141875 5.09375 A 3.8404877 3.8404877 0 0 0 -14.231719 5.0058594 L -14.231719 8.6445312 C -14.231719 10.197109 -13.595544 12.660167 -12.921172 15.263672 C -12.270296 17.779547 -11.596953 20.380101 -11.596953 21.896484 L -11.596953 23.285156 C -11.810701 23.526557 -13.016738 24.03125 -15.143828 24.03125 C -17.298387 24.03125 -18.508016 23.512882 -18.698516 23.275391 A 0.63558807 0.63558807 0 0 0 -18.700469 23.267578 L -18.700469 21.898438 C -18.700469 20.382054 -18.027127 17.7815 -17.37625 15.265625 C -16.700609 12.658945 -16.065703 10.197109 -16.065703 8.6445312 L -16.065703 5.0019531 z M -18.700469 24.730469 C -17.774767 25.117029 -16.458543 25.298828 -15.147734 25.298828 C -13.838154 25.298828 -12.52389 25.116074 -11.596953 24.730469 L -11.596953 28.228516 C -11.810268 28.47044 -13.016827 28.974609 -15.143828 28.974609 C -17.297752 28.974609 -18.508016 28.456876 -18.698516 28.21875 A 0.63560179 0.63560179 0 0 0 -18.700469 28.210938 L -18.700469 24.730469 z M -18.700469 29.675781 C -17.774767 30.062273 -16.458543 30.244141 -15.147734 30.244141 C -13.838154 30.244141 -12.52389 30.061318 -11.596953 29.675781 L -11.596953 32.976562 C -11.793803 33.215958 -13.00397 33.730469 -15.147734 33.730469 C -17.291498 33.730469 -18.504254 33.215958 -18.700469 32.976562 L -18.700469 29.675781 z " />
</svg>
