<?xml version="1.0" encoding="UTF-8" standalone="no"?>
<!-- Uploaded to: SVG Repo, www.svgrepo.com, Generator: SVG Repo Mixer Tools -->

<svg
   fill="#000000"
   version="1.1"
   id="Capa_1"
   width="50"
   height="50"
   viewBox="0 0 50 50"
   xml:space="preserve"
   sodipodi:docname="violin-bow-with-string-svgrepo-com.svg"
   inkscape:version="1.3.2 (091e20e, 2023-11-25)"
   xmlns:inkscape="http://www.inkscape.org/namespaces/inkscape"
   xmlns:sodipodi="http://sodipodi.sourceforge.net/DTD/sodipodi-0.dtd"
   xmlns="http://www.w3.org/2000/svg"
   xmlns:svg="http://www.w3.org/2000/svg"><defs
   id="defs1" /><sodipodi:namedview
   id="namedview1"
   pagecolor="#ffffff"
   bordercolor="#000000"
   borderopacity="0.25"
   inkscape:showpageshadow="2"
   inkscape:pageopacity="0.0"
   inkscape:pagecheckerboard="0"
   inkscape:deskcolor="#d1d1d1"
   inkscape:current-layer="Capa_1" />
<g
   id="g1"
   transform="matrix(0.10842727,0,0,0.10842727,-0.36772308,3.7661564e-5)">
	<path
   d="m 407.233,389.964 -2.962,2.953 -45.252,-45.264 -6.885,-6.885 C 241.947,228.611 115.534,57.927 92.91,21.525 70.282,-14.878 23.552,33.82 14.693,13.166 5.839,-7.499 3.869,2.341 3.869,2.341 c -5.408,25.087 36.898,74.278 36.898,74.278 0,0 0.541,-0.715 1.529,-1.832 19.879,32 97.857,154.444 183.015,247.307 -2.246,6.147 -1.843,12.126 1.85,16.014 l 75.049,79.059 c 6.363,6.692 19.824,4.62 30.067,-4.617 l 23.199,-20.931 c 5.174,-2.252 8.868,-4.444 11.445,-6.544 l 22.594,22.59 -2.954,2.953 46.246,46.234 c 5.703,5.715 14.947,5.715 20.658,0 5.707,-5.703 5.707,-14.956 0,-20.658 z m -54.165,-37.105 -8.187,8.188 -5.153,-5.149 8.311,-8.304 3.234,-3.242 5.153,5.149 z M 280.37,330.105 c -5.875,5.458 -14.627,5.858 -19.552,0.882 l -23.911,-24.193 -2.713,2.453 c -1.923,1.73 -3.51,3.618 -4.917,5.542 C 143.945,221.193 66.171,98.436 48.107,69.264 c 13.673,-11.123 45.18,-25.077 83.262,34.802 28.292,44.48 88.093,116.434 136.021,172.015 -2.049,3.467 -4.637,7.818 -8.825,11.31 l 23.528,23.804 c 4.921,4.98 4.156,13.444 -1.723,18.91 z m 26.308,57.214 c -8.455,0 -15.308,-6.845 -15.308,-15.292 0,-8.456 6.853,-15.312 15.308,-15.312 8.456,0 15.305,6.856 15.305,15.312 0,8.447 -6.857,15.292 -15.305,15.292 z"
   id="path1" />
</g>
</svg>
