<svg xmlns="http://www.w3.org/2000/svg" xml:space="preserve" width="50" height="50">
    <path d="m43.787 42.283-.32.32-4.907-4.908-.747-.746C25.866 24.788 12.16 6.28 9.706 2.334s-7.52 1.333-8.48-.906C.265-.813.051.254.051.254c-.587 2.72 4 8.054 4 8.054s.06-.078.166-.199c2.156 3.47 10.61 16.746 19.844 26.815-.243.666-.2 1.315.2 1.736l8.138 8.572c.69.726 2.15.501 3.26-.5l2.516-2.27c.56-.244.961-.482 1.24-.71l2.45 2.45-.32.32 5.014 5.013a1.583 1.583 0 1 0 2.24-2.24zm-5.873-4.023-.887.887-.559-.558.901-.9.35-.352.56.558zm-7.882-2.468c-.637.592-1.586.636-2.12.096l-2.593-2.623-.294.266c-.208.187-.38.392-.533.6C15.24 23.984 6.807 10.674 4.848 7.512c1.483-1.207 4.9-2.72 9.028 3.773 3.068 4.822 9.552 12.624 14.749 18.65-.223.377-.503.848-.957 1.227l2.55 2.581c.534.54.451 1.458-.186 2.05m2.853 6.204a1.659 1.659 0 1 1-.002-3.318 1.659 1.659 0 0 1 .002 3.318"/>
</svg>
