<svg xmlns="http://www.w3.org/2000/svg" width="40" height="30" class="bi bi-camera-video">
    <path d="M1.543 2.345h24.933v20.49H1.543z" style="fill:#fff;stroke-width:1.51181;stroke-linecap:square;stroke-linejoin:round;stroke-miterlimit:4.7"/>
    <path fill-rule="evenodd" d="M0 5a5 5 0 0 1 5-5h18.75a5 5 0 0 1 4.957 4.345L36.482.89A2.5 2.5 0 0 1 40 3.172v18.656a2.5 2.5 0 0 1-3.515 2.282l-7.778-3.455A5 5 0 0 1 23.75 25H5a5 5 0 0 1-5-5Zm28.75 12.938 8.75 3.89V3.172l-8.75 3.89zM5 2.5A2.5 2.5 0 0 0 2.5 5v15A2.5 2.5 0 0 0 5 22.5h18.75a2.5 2.5 0 0 0 2.5-2.5V5a2.5 2.5 0 0 0-2.5-2.5z" style="stroke-width:1"/>
</svg>
