<?xml version="1.0" encoding="UTF-8" standalone="no"?>
<!-- Uploaded to: SVG Repo, www.svgrepo.com, Generator: SVG Repo Mixer Tools -->

<svg
   fill="#000000"
   width="50"
   height="40"
   viewBox="0 0 50 40"
   id="template"
   version="1.1"
   sodipodi:docname="camera_1.svg"
   inkscape:version="1.3.2 (091e20e, 2023-11-25)"
   xmlns:inkscape="http://www.inkscape.org/namespaces/inkscape"
   xmlns:sodipodi="http://sodipodi.sourceforge.net/DTD/sodipodi-0.dtd"
   xmlns="http://www.w3.org/2000/svg"
   xmlns:svg="http://www.w3.org/2000/svg">
  <defs
     id="defs3" />
  <sodipodi:namedview
     id="namedview3"
     pagecolor="#ffffff"
     bordercolor="#000000"
     borderopacity="0.25"
     inkscape:showpageshadow="2"
     inkscape:pageopacity="0.0"
     inkscape:pagecheckerboard="0"
     inkscape:deskcolor="#d1d1d1"
     inkscape:current-layer="template" />
  <title
     id="title1" />
  <path
     id="path1"
     d="M 18.222656,4.0390625 A 4.1228925,4.1228925 0 0 0 14.53125,6.3027344 L 12.992187,9.3300781 H 8.2792969 A 3.2841019,3.2841019 0 0 0 5,12.615235 v 20.064452 a 3.2841019,3.2841019 0 0 0 3.2792969,3.28125 H 41.720703 a 3.2841019,3.2841019 0 0 0 3.279296,-3.28125 V 12.615235 A 3.2841019,3.2841019 0 0 0 41.720703,9.3300781 H 37.007812 L 35.474609,6.3027344 A 4.1228925,4.1228925 0 0 0 31.783203,4.0390625 Z m 0,0.9882813 H 31.777344 A 3.1391946,3.1391946 0 0 1 34.58789,6.75 l 1.312501,2.5820313 H 14.099609 L 15.412109,6.75 A 3.1391946,3.1391946 0 0 1 18.222656,5.0273438 Z M 8.2792969,10.318359 H 41.720703 a 2.296224,2.296224 0 0 1 2.292969,2.296876 v 20.064452 a 2.296224,2.296224 0 0 1 -2.292969,2.292969 H 8.2792969 A 2.296224,2.296224 0 0 1 5.9863281,32.679687 V 12.615235 A 2.296224,2.296224 0 0 1 8.2792969,10.318359 Z M 25,12.253907 A 9.849519,9.849519 0 1 0 34.847656,22.103515 9.8606658,9.8606658 0 0 0 25,12.253907 Z m 1.384765,1.095703 A 8.8616411,8.8616411 0 0 1 33.859376,22.103515 8.8686078,8.8686078 0 0 1 25,30.962891 8.8616411,8.8616411 0 1 1 26.384765,13.34961 Z M 25,15.183593 A 6.9193254,6.9193254 0 1 0 31.919922,22.103515 6.9276855,6.9276855 0 0 0 25,15.183593 Z m 0.927734,1.060548 A 5.9314475,5.9314475 0 0 1 30.931641,22.103515 5.9384142,5.9384142 0 0 1 25,28.033203 5.9314475,5.9314475 0 1 1 25.927734,16.244141 Z"
     style="stroke-width:0.5;stroke:#000000;stroke-opacity:1;stroke-dasharray:none"
     inkscape:label="camera" />
</svg>
