<?xml version="1.0" encoding="UTF-8" standalone="no"?>
<!-- Uploaded to: SVG Repo, www.svgrepo.com, Generator: SVG Repo Mixer Tools -->

<svg
   fill="#000000"
   width="50"
   height="40"
   viewBox="0 0 50 40"
   id="template"
   version="1.1"
   sodipodi:docname="camera_1.svg"
   inkscape:version="1.3.2 (091e20e, 2023-11-25)"
   xmlns:inkscape="http://www.inkscape.org/namespaces/inkscape"
   xmlns:sodipodi="http://sodipodi.sourceforge.net/DTD/sodipodi-0.dtd"
   xmlns="http://www.w3.org/2000/svg"
   xmlns:svg="http://www.w3.org/2000/svg">
  <defs
     id="defs3" />
  <sodipodi:namedview
     id="namedview3"
     pagecolor="#ffffff"
     bordercolor="#000000"
     borderopacity="0.25"
     inkscape:showpageshadow="2"
     inkscape:pageopacity="0.0"
     inkscape:pagecheckerboard="0"
     inkscape:deskcolor="#d1d1d1"
     inkscape:current-layer="template" />
  <title
     id="title1" />
  <g
     id="g3"
     inkscape:label="camera"
     transform="matrix(1.3933398,0,0,1.3933398,2.7065632,-2.2934288)">
    <path
       d="m 28,8.342 h -3.382 l -1.1,-2.173 A 2.959,2.959 0 0 0 20.869,4.545 H 11.136 A 2.959,2.959 0 0 0 8.487,6.169 L 7.382,8.342 H 4 A 2.357,2.357 0 0 0 1.646,10.7 V 25.1 A 2.357,2.357 0 0 0 4,27.455 H 28 A 2.357,2.357 0 0 0 30.354,25.1 V 10.7 A 2.357,2.357 0 0 0 28,8.342 Z M 9.119,6.491 a 2.253,2.253 0 0 1 2.017,-1.237 h 9.728 a 2.253,2.253 0 0 1 2.017,1.237 v 0 l 0.942,1.852 H 8.177 Z M 29.646,25.1 A 1.648,1.648 0 0 1 28,26.746 H 4 A 1.648,1.648 0 0 1 2.354,25.1 V 10.7 A 1.648,1.648 0 0 1 4,9.051 h 24 a 1.648,1.648 0 0 1 1.646,1.649 z"
       id="path1" />
    <path
       d="M 16,10.44 A 7.069,7.069 0 1 0 23.068,17.509 7.077,7.077 0 0 0 16,10.44 Z m 0,13.428 A 6.36,6.36 0 1 1 22.359,17.509 6.365,6.365 0 0 1 16,23.868 Z"
       id="path2" />
    <path
       d="M 16,12.543 A 4.966,4.966 0 1 0 20.966,17.509 4.972,4.972 0 0 0 16,12.543 Z m 0,9.223 A 4.257,4.257 0 1 1 20.257,17.509 4.262,4.262 0 0 1 16,21.766 Z"
       id="path3" />
  </g>
</svg>
