<?xml version="1.0" encoding="UTF-8" standalone="no"?>
<!-- Uploaded to: SVG Repo, www.svgrepo.com, Generator: SVG Repo Mixer Tools -->

<svg
   fill="#000000"
   height="70"
   width="45"
   version="1.1"
   id="Capa_1"
   viewBox="0 0 45 70"
   xml:space="preserve"
   sodipodi:docname="camera_2.svg"
   inkscape:version="1.3.2 (091e20e, 2023-11-25)"
   xmlns:inkscape="http://www.inkscape.org/namespaces/inkscape"
   xmlns:sodipodi="http://sodipodi.sourceforge.net/DTD/sodipodi-0.dtd"
   xmlns="http://www.w3.org/2000/svg"
   xmlns:svg="http://www.w3.org/2000/svg"><defs
   id="defs2" /><sodipodi:namedview
   id="namedview2"
   pagecolor="#ffffff"
   bordercolor="#000000"
   borderopacity="0.25"
   inkscape:showpageshadow="2"
   inkscape:pageopacity="0.0"
   inkscape:pagecheckerboard="0"
   inkscape:deskcolor="#d1d1d1"
   inkscape:current-layer="Capa_1" />
<g
   id="g2"
   transform="matrix(0.1511879,0,0,0.1511879,-12.499988,0)">
	<path
   d="M 243.5,48 C 226.131,48 212,62.131 212,79.5 212,96.869 226.131,111 243.5,111 260.869,111 275,96.869 275,79.5 275,62.131 260.869,48 243.5,48 Z m 0,48 C 234.402,96 227,88.598 227,79.5 227,70.402 234.402,63 243.5,63 c 9.098,0 16.5,7.402 16.5,16.5 0,9.098 -7.402,16.5 -16.5,16.5 z"
   id="path1" />
	<path
   d="m 355.733,417.492 c 6.444,-3.501 9.693,-11.215 7.332,-18.428 l -7.465,-22.81 c -1.288,-3.935 -4.031,-7.133 -7.724,-9.004 -3.693,-1.872 -7.895,-2.194 -11.829,-0.905 l -0.475,0.155 -41.838,-127.839 c 3.05,-0.951 5.265,-3.797 5.265,-7.161 v -16 c 0,-12.958 -10.542,-23.5 -23.5,-23.5 h -5.181 c 2.965,-4.802 4.681,-10.454 4.681,-16.5 0,-6.151 -1.779,-11.891 -4.839,-16.745 C 277.442,157.487 283,151.138 283,143.5 V 135 h 24.5 c 12.958,0 23.5,-10.542 23.5,-23.5 v -64 C 331,34.542 320.458,24 307.5,24 h -26.234 c -0.216,0 -0.407,-0.138 -0.475,-0.342 l -2.53,-7.589 C 275.058,6.458 266.099,0 255.968,0 h -24.936 c -10.131,0 -19.091,6.458 -22.294,16.069 l -2.53,7.589 C 206.14,23.863 205.949,24 205.734,24 H 179.5 C 166.542,24 156,34.542 156,47.5 v 64 c 0,12.958 10.542,23.5 23.5,23.5 H 204 v 8.5 c 0,1.841 0.339,3.6 0.931,5.239 l -22.992,8.211 c -2.221,-2.82 -5.064,-5.123 -8.405,-6.702 -5.675,-2.682 -12.05,-2.992 -17.94,-0.878 l -48,17.145 c -12.2,4.359 -18.581,17.833 -14.224,30.034 3.331,9.331 12.225,15.6 22.13,15.6 2.7,0 5.362,-0.463 7.906,-1.375 l 48,-17.145 c 9.73,-3.476 15.751,-12.751 15.583,-22.555 l 28.639,-10.228 c -2.313,4.381 -3.628,9.365 -3.628,14.653 0,6.046 1.716,11.698 4.681,16.5 H 211.5 c -12.958,0 -23.5,10.542 -23.5,23.5 v 16 c 0,3.364 2.215,6.21 5.265,7.161 l -41.838,127.84 -0.475,-0.156 c -3.935,-1.287 -8.136,-0.966 -11.829,0.905 -3.693,1.872 -6.436,5.07 -7.724,9.004 l -7.465,22.81 c -1.288,3.935 -0.966,8.136 0.905,11.829 1.442,2.844 3.675,5.116 6.421,6.602 C 122.355,420.84 116,429.44 116,439.5 v 16 c 0,4.142 3.358,7.5 7.5,7.5 h 32 c 4.142,0 7.5,-3.358 7.5,-7.5 v -16 c 0,-5.934 -2.215,-11.357 -5.856,-15.497 1.28,-0.279 2.536,-0.708 3.735,-1.316 3.693,-1.872 6.436,-5.069 7.724,-9.004 L 173.408,399 H 220 v 16.5 c 0,4.098 1.61,7.819 4.216,10.593 -2.654,3.805 -4.216,8.426 -4.216,13.407 v 16 c 0,4.142 3.358,7.5 7.5,7.5 h 32 c 4.142,0 7.5,-3.358 7.5,-7.5 v -16 c 0,-4.981 -1.562,-9.601 -4.216,-13.407 C 265.39,423.319 267,419.598 267,415.5 V 399 h 46.592 l 4.805,14.682 c 1.288,3.935 4.03,7.133 7.724,9.005 1.2,0.608 2.455,1.037 3.735,1.316 -3.641,4.14 -5.856,9.563 -5.856,15.497 v 16 c 0,4.142 3.358,7.5 7.5,7.5 h 32 c 4.142,0 7.5,-3.358 7.5,-7.5 v -16 c 0,-10.062 -6.358,-18.664 -15.267,-22.008 z m -43.896,-38.448 c -0.8,1.579 -1.299,3.252 -1.528,4.956 h -45.255 c -2.647,-4.765 -7.728,-8 -13.555,-8 H 251 V 239 h 27.063 l 43.254,132.165 -0.475,0.155 c -3.935,1.288 -7.132,4.031 -9.005,7.724 z M 235.5,416 c -0.276,0 -0.5,-0.224 -0.5,-0.5 v -24 c 0,-0.276 0.224,-0.5 0.5,-0.5 h 16 c 0.276,0 0.5,0.224 0.5,0.5 v 24 c 0,0.276 -0.224,0.5 -0.5,0.5 z M 203,79.5 C 203,57.168 221.168,39 243.5,39 265.832,39 284,57.168 284,79.5 284,101.832 265.832,120 243.5,120 221.168,120 203,101.832 203,79.5 Z m 113,-32 v 64 c 0,4.687 -3.813,8.5 -8.5,8.5 H 281.39 C 292.216,109.866 299,95.464 299,79.5 299,63.536 292.216,49.134 281.39,39 h 26.11 c 4.687,0 8.5,3.813 8.5,8.5 z M 222.968,20.812 C 224.127,17.335 227.367,15 231.032,15 h 24.936 c 3.665,0 6.905,2.335 8.063,5.812 l 2.53,7.59 c 0.087,0.261 0.19,0.513 0.29,0.767 C 259.748,25.86 251.839,24 243.5,24 c -8.339,0 -16.248,1.86 -23.352,5.17 0.1,-0.254 0.203,-0.507 0.29,-0.768 z M 171,111.5 v -64 c 0,-4.687 3.813,-8.5 8.5,-8.5 h 26.11 C 194.784,49.134 188,63.536 188,79.5 c 0,15.964 6.784,30.366 17.61,40.5 H 179.5 c -4.687,0 -8.5,-3.813 -8.5,-8.5 z m 97,23.5 v 8.5 c 0,0.276 -0.224,0.5 -0.5,0.5 h -48 c -0.276,0 -0.5,-0.224 -0.5,-0.5 V 135 Z m -101.64,44.503 -48.006,17.147 c -0.923,0.331 -1.883,0.498 -2.854,0.498 -3.582,0 -6.798,-2.268 -8.003,-5.644 -1.576,-4.414 0.731,-9.288 5.144,-10.864 l 48.011,-17.148 c 0.931,-0.334 1.895,-0.5 2.857,-0.5 1.234,0 2.465,0.274 3.617,0.818 2.058,0.973 3.613,2.688 4.378,4.83 1.576,4.414 -0.732,9.287 -5.144,10.863 z M 227,175.5 c 0,-9.098 7.402,-16.5 16.5,-16.5 9.098,0 16.5,7.402 16.5,16.5 0,9.098 -7.402,16.5 -16.5,16.5 -9.098,0 -16.5,-7.402 -16.5,-16.5 z m -24,40 c 0,-4.687 3.813,-8.5 8.5,-8.5 h 64 c 4.687,0 8.5,3.813 8.5,8.5 v 8.5 h -0.573 c -0.018,0 -0.036,0 -0.054,0 h -79.744 c -0.019,0 -0.038,0 -0.057,0 H 203 Z m 5.937,23.5 H 236 v 137 h -0.5 c -5.827,0 -10.908,3.235 -13.555,8 H 176.69 c -0.229,-1.704 -0.728,-3.377 -1.528,-4.956 -1.872,-3.693 -5.07,-6.436 -9.005,-7.724 l -0.475,-0.155 z M 148,448 h -17 v -8.5 c 0,-4.687 3.813,-8.5 8.5,-8.5 4.687,0 8.5,3.813 8.5,8.5 z m 13.812,-61.792 -7.465,22.809 c -0.016,0.049 -0.064,0.197 -0.25,0.291 -0.185,0.094 -0.333,0.045 -0.381,0.029 L 138.51,404.36 v 0 c -0.049,-0.016 -0.197,-0.064 -0.29,-0.249 -0.094,-0.185 -0.045,-0.333 -0.029,-0.382 l 7.465,-22.81 c 0.016,-0.049 0.064,-0.197 0.249,-0.29 0.084,-0.043 0.162,-0.056 0.225,-0.056 0.075,0 0.13,0.018 0.157,0.027 l 7.602,2.488 10e-4,10e-4 c 0,0 0.001,0 0.001,0 l 7.603,2.488 c 0.049,0.016 0.197,0.064 0.29,0.249 0.092,0.184 0.044,0.332 0.028,0.382 z M 252,448 h -17 v -8.5 c 0,-4.687 3.813,-8.5 8.5,-8.5 4.687,0 8.5,3.813 8.5,8.5 z m 73.188,-61.792 c -0.085,-0.262 0.058,-0.545 0.32,-0.631 l 15.206,-4.977 c 0.052,-0.017 0.104,-0.025 0.155,-0.025 0.21,0 0.407,0.134 0.476,0.344 l 7.465,22.81 c 0.085,0.262 -0.058,0.545 -0.319,0.631 l -15.207,4.977 c -0.048,0.016 -0.197,0.065 -0.381,-0.029 -0.185,-0.093 -0.233,-0.241 -0.249,-0.291 z M 356,448 h -17 v -8.5 c 0,-4.687 3.813,-8.5 8.5,-8.5 4.687,0 8.5,3.813 8.5,8.5 z"
   id="path2" />
</g>
</svg>
