<svg xmlns="http://www.w3.org/2000/svg" xml:space="preserve" width="40" height="42.11">
    <path d="M30.355 0c-1.082 0-1.962.88-1.962 1.962V3.34h-2.047a.626.626 0 1 0 0 1.253H35.7c1.129 0 2.046.918 2.046 2.046v21.378a2.05 2.05 0 0 1-2.046 2.046H6.305a2.05 2.05 0 0 1-2.046-2.046V6.639c0-1.128.918-2.046 2.046-2.046h17.37a.626.626 0 1 0 0-1.253H6.304a3.3 3.3 0 0 0-3.298 3.3v3.382H1.63a.626.626 0 0 0-.627.626v4.008c0 .346.28.627.627.627h1.377v4.092H1.63a.626.626 0 0 0-.627.626v4.008c0 .346.28.627.627.627h1.377v3.382a3.3 3.3 0 0 0 3.299 3.298h7.39v3.424h-.71a4.64 4.64 0 0 0-4.634 4.635c0 .346.28.626.626.626h6.68a.626.626 0 1 0 0-1.253H9.662a3.39 3.39 0 0 1 3.324-2.755H29.02c1.65 0 3.03 1.189 3.324 2.755H18.33a.626.626 0 0 0 0 1.253h14.697c.346 0 .626-.28.626-.626a4.64 4.64 0 0 0-4.634-4.635h-.71v-3.424h7.39a3.3 3.3 0 0 0 3.299-3.298V6.639a3.3 3.3 0 0 0-3.299-3.299h-.71V1.962A1.963 1.963 0 0 0 33.027 0Zm0 1.253h2.672a.71.71 0 0 1 .71.71V3.34h-4.092V1.962a.71.71 0 0 1 .71-.71M25.011 6.68c-5.871 0-10.648 4.776-10.648 10.647 0 5.87 4.777 10.647 10.648 10.647s10.647-4.776 10.647-10.647S30.88 6.68 25.01 6.68m0 1.252c5.18 0 9.394 4.215 9.394 9.395s-4.214 9.394-9.394 9.394-9.395-4.214-9.395-9.394 4.214-9.395 9.395-9.395m0 1.42c-4.398 0-7.975 3.577-7.975 7.975s3.577 7.974 7.975 7.974 7.974-3.577 7.974-7.974-3.577-7.975-7.974-7.975m-15.366.668a3.97 3.97 0 0 0-3.966 3.966 3.97 3.97 0 0 0 3.966 3.967 3.97 3.97 0 0 0 3.967-3.967 3.97 3.97 0 0 0-3.967-3.966m15.366.584a6.73 6.73 0 0 1 6.722 6.723 6.73 6.73 0 0 1-6.722 6.722 6.73 6.73 0 0 1-6.723-6.722 6.73 6.73 0 0 1 6.723-6.723m-22.756.668h.751v2.756h-.751Zm7.39 0a2.717 2.717 0 0 1 2.714 2.714A2.717 2.717 0 0 1 9.644 16.7a2.717 2.717 0 0 1-2.714-2.714 2.717 2.717 0 0 1 2.714-2.714m15.366.752a.626.626 0 1 0 0 1.253 4.055 4.055 0 0 1 4.009 4.63.626.626 0 1 0 1.24.176 5.31 5.31 0 0 0-5.249-6.06m-15.366.111a.626.626 0 0 0-.626.627v.64a.626.626 0 0 0 1.253 0v-.64a.626.626 0 0 0-.627-.627M8.31 13.361a.626.626 0 0 0-.626.626c0 1.082.88 1.963 1.962 1.963s1.962-.88 1.962-1.963a.626.626 0 1 0-1.252 0 .71.71 0 0 1-1.42 0 .626.626 0 0 0-.626-.626m20.738 5.751a.63.63 0 0 0-.565.303 4 4 0 0 1-.637.806.63.63 0 0 0-.05.84c.229.284.666.31.927.054.32-.315.602-.67.833-1.054a.626.626 0 0 0-.508-.949M2.255 20.626h.751v2.756h-.751Zm5.386.084a.626.626 0 1 0 0 1.252h4.676a.626.626 0 1 0 0-1.252zm0 2.672a.626.626 0 1 0 0 1.253h4.676a.626.626 0 1 0 0-1.253zm27.223 1.002a1.797 1.797 0 0 0 0 3.591c.99 0 1.796-.806 1.796-1.796s-.806-1.795-1.796-1.795m0 1.253a.543.543 0 1 1 0 1.086.543.543 0 0 1 0-1.086m-19.916 5.678h2.756v3.424h-2.756Zm4.008 0h4.092v3.424h-4.092zm5.345 0h2.755v3.424h-2.755Z" style="stroke-width:.999996"/>
</svg>
