<svg xmlns="http://www.w3.org/2000/svg" xml:space="preserve" width="45" height="70">
    <path d="M24.314 7.257a4.77 4.77 0 0 0-4.762 4.762 4.77 4.77 0 0 0 4.762 4.763 4.77 4.77 0 0 0 4.763-4.763 4.77 4.77 0 0 0-4.763-4.762m0 7.257a2.497 2.497 0 0 1-2.494-2.495 2.497 2.497 0 0 1 2.494-2.494 2.497 2.497 0 0 1 2.495 2.494 2.497 2.497 0 0 1-2.495 2.495"/>
    <path d="M41.283 63.12a2.346 2.346 0 0 0 1.108-2.786l-1.129-3.449a2.33 2.33 0 0 0-1.167-1.361 2.33 2.33 0 0 0-1.789-.137l-.072.023-6.325-19.327c.461-.144.796-.574.796-1.083v-2.419a3.557 3.557 0 0 0-3.553-3.553h-.783c.448-.726.708-1.58.708-2.495 0-.93-.27-1.797-.732-2.531a2.345 2.345 0 0 0 1.941-2.307V20.41h3.704a3.557 3.557 0 0 0 3.553-3.553V7.181A3.557 3.557 0 0 0 33.99 3.63h-3.966a.08.08 0 0 1-.072-.052L29.57 2.43A3.55 3.55 0 0 0 26.2 0h-3.77a3.55 3.55 0 0 0-3.371 2.43l-.383 1.147a.075.075 0 0 1-.071.052h-3.967a3.557 3.557 0 0 0-3.553 3.552v9.676a3.557 3.557 0 0 0 3.553 3.553h3.704v1.285c0 .279.052.545.141.793l-3.476 1.24a3.54 3.54 0 0 0-1.27-1.012 3.52 3.52 0 0 0-2.713-.133l-7.257 2.592a3.557 3.557 0 0 0-2.15 4.54 3.56 3.56 0 0 0 3.345 2.36c.408 0 .81-.07 1.196-.209l7.257-2.592a3.56 3.56 0 0 0 2.355-3.41l4.33-1.546a4.7 4.7 0 0 0-.548 2.215c0 .914.26 1.769.708 2.495h-.784a3.557 3.557 0 0 0-3.553 3.553V35c0 .508.335.939.796 1.083L10.394 55.41l-.072-.023a2.33 2.33 0 0 0-1.788.137 2.33 2.33 0 0 0-1.168 1.36l-1.129 3.45a2.33 2.33 0 0 0 .137 1.788c.218.43.556.773.97.998a3.56 3.56 0 0 0-2.306 3.327v2.42c0 .625.507 1.133 1.134 1.133h4.838c.626 0 1.134-.508 1.134-1.134v-2.419c0-.897-.335-1.717-.886-2.343q.292-.062.565-.199a2.33 2.33 0 0 0 1.168-1.361l.726-2.22h7.044v2.495c0 .62.244 1.182.638 1.601a3.53 3.53 0 0 0-.638 2.027v2.42c0 .625.508 1.133 1.134 1.133h4.838c.626 0 1.134-.508 1.134-1.134v-2.419c0-.753-.236-1.451-.637-2.027.394-.42.637-.982.637-1.601v-2.495h7.044l.727 2.22a2.33 2.33 0 0 0 1.732 1.56 3.54 3.54 0 0 0-.885 2.343v2.42c0 .625.508 1.133 1.134 1.133h4.838c.626 0 1.134-.508 1.134-1.134v-2.419a3.56 3.56 0 0 0-2.308-3.327m-6.637-5.813a2.3 2.3 0 0 0-.231.75h-6.842a2.34 2.34 0 0 0-2.05-1.21h-.075V36.134h4.092l6.54 19.982-.073.023a2.33 2.33 0 0 0-1.361 1.168m-11.541 5.587a.076.076 0 0 1-.076-.075V59.19c0-.042.034-.076.076-.076h2.419c.041 0 .075.034.075.076v3.629a.076.076 0 0 1-.075.075zM18.19 12.02a6.13 6.13 0 0 1 6.123-6.123 6.13 6.13 0 0 1 6.123 6.123 6.13 6.13 0 0 1-6.123 6.124 6.13 6.13 0 0 1-6.123-6.124m17.084-4.838v9.676c0 .71-.576 1.286-1.285 1.286h-3.947a8.37 8.37 0 0 0 2.662-6.124 8.37 8.37 0 0 0-2.662-6.123h3.947c.709 0 1.285.577 1.285 1.285M21.21 3.147a1.28 1.28 0 0 1 1.22-.88h3.77c.553 0 1.043.354 1.218.88l.383 1.147q.02.06.044.116a8.3 8.3 0 0 0-3.53-.781 8.3 8.3 0 0 0-3.531.781l.044-.116zm-7.857 13.71V7.181c0-.708.577-1.285 1.285-1.285h3.948a8.37 8.37 0 0 0-2.663 6.123 8.37 8.37 0 0 0 2.663 6.124h-3.948a1.287 1.287 0 0 1-1.285-1.286m14.665 3.553v1.285a.076.076 0 0 1-.075.076h-7.257a.076.076 0 0 1-.076-.076V20.41Zm-15.366 6.73-7.258 2.59q-.21.075-.432.075a1.287 1.287 0 0 1-.432-2.496l7.259-2.592a1.277 1.277 0 0 1 1.64.778 1.287 1.287 0 0 1-.777 1.643m9.168-.606a2.497 2.497 0 0 1 2.494-2.494 2.497 2.497 0 0 1 2.495 2.494 2.497 2.497 0 0 1-2.495 2.495 2.497 2.497 0 0 1-2.494-2.495m-3.629 6.048c0-.709.577-1.285 1.285-1.285h9.676c.709 0 1.285.576 1.285 1.285v1.285H18.191Zm.898 3.553h4.091v20.713h-.075c-.881 0-1.65.489-2.05 1.21h-6.842a2.33 2.33 0 0 0-1.592-1.917l-.072-.024zM9.876 67.732h-2.57v-1.285a1.286 1.286 0 0 1 2.57 0zm2.088-9.342-1.129 3.448a.07.07 0 0 1-.037.044.07.07 0 0 1-.058.005l-2.299-.753a.07.07 0 0 1-.044-.037.07.07 0 0 1-.004-.058L9.52 57.59c.003-.007.01-.03.038-.044a.07.07 0 0 1 .058-.004l1.15.376 1.149.377c.007.002.03.01.044.037.014.028.006.05.004.058m13.635 9.342h-2.57v-1.285a1.286 1.286 0 0 1 2.57 0zm11.066-9.342a.076.076 0 0 1 .048-.095l2.299-.753a.075.075 0 0 1 .095.048l1.129 3.449a.076.076 0 0 1-.048.095l-2.3.753a.07.07 0 0 1-.057-.005.07.07 0 0 1-.038-.044zm4.658 9.342h-2.57v-1.285a1.286 1.286 0 0 1 2.57 0z"/>
</svg>
