<svg xmlns="http://www.w3.org/2000/svg" width="50" height="40">
    <path d="M18.223 4.04a4.12 4.12 0 0 0-3.692 2.263L12.992 9.33H8.28A3.284 3.284 0 0 0 5 12.615V32.68a3.284 3.284 0 0 0 3.28 3.28h33.44A3.284 3.284 0 0 0 45 32.68V12.615a3.284 3.284 0 0 0-3.28-3.285h-4.712l-1.533-3.027a4.12 4.12 0 0 0-3.692-2.264Zm0 .987h13.554a3.14 3.14 0 0 1 2.81 1.723L35.9 9.332H14.1l1.312-2.582a3.14 3.14 0 0 1 2.81-1.723Zm-9.944 5.291h33.442a2.296 2.296 0 0 1 2.293 2.297V32.68a2.296 2.296 0 0 1-2.293 2.293H8.279a2.296 2.296 0 0 1-2.293-2.293V12.615a2.296 2.296 0 0 1 2.293-2.297ZM25 12.254a9.85 9.85 0 1 0 9.848 9.85A9.86 9.86 0 0 0 25 12.254Zm1.385 1.096a8.86 8.86 0 0 1 7.474 8.754A8.87 8.87 0 0 1 25 30.963a8.862 8.862 0 1 1 1.385-17.613ZM25 15.184a6.92 6.92 0 1 0 6.92 6.92 6.93 6.93 0 0 0-6.92-6.92Zm.928 1.06a5.93 5.93 0 0 1 5.004 5.86A5.94 5.94 0 0 1 25 28.034a5.931 5.931 0 1 1 .928-11.79Z" style="stroke-width:.5;stroke:#000;stroke-opacity:1;stroke-dasharray:none"/>
</svg>
