<?xml version="1.0" encoding="UTF-8" standalone="no"?>
<!-- Uploaded to: SVG Repo, www.svgrepo.com, Generator: SVG Repo Mixer Tools -->

<svg
   fill="#000000"
   height="42.110123"
   width="40"
   version="1.1"
   id="Layer_1"
   viewBox="0 0 40 42.110123"
   xml:space="preserve"
   sodipodi:docname="camera_gopro_1.svg"
   inkscape:version="1.3.2 (091e20e, 2023-11-25)"
   xmlns:inkscape="http://www.inkscape.org/namespaces/inkscape"
   xmlns:sodipodi="http://sodipodi.sourceforge.net/DTD/sodipodi-0.dtd"
   xmlns="http://www.w3.org/2000/svg"
   xmlns:svg="http://www.w3.org/2000/svg"><defs
   id="defs22">
	

	

	

	

	

	

	

	

	

	

	

		
	
		
	
		
	
		
	
		
	
		
	
		
	
		
	
		
	
		
	
		
	</defs><sodipodi:namedview
   id="namedview22"
   pagecolor="#ffffff"
   bordercolor="#000000"
   borderopacity="0.25"
   inkscape:showpageshadow="2"
   inkscape:pageopacity="0.0"
   inkscape:pagecheckerboard="0"
   inkscape:deskcolor="#d1d1d1"
   inkscape:current-layer="Layer_1" />
<path
   id="path1"
   d="m 30.354956,0 c -1.082104,0 -1.962425,0.88032115 -1.962425,1.9624254 v 1.3778633 h -2.046043 c -0.345936,0 -0.626219,0.2803569 -0.626219,0.6263709 0,0.3459358 0.280204,0.6262182 0.626219,0.6262182 h 9.352838 c 1.128198,0 2.045891,0.9178456 2.045891,2.0460433 V 28.016707 c 0,1.128198 -0.917693,2.045891 -2.045891,2.045891 H 6.304908 c -1.12812,0 -2.045891,-0.917693 -2.045891,-2.045891 V 6.6387684 c 0,-1.1281976 0.917771,-2.0458906 2.045891,-2.0458906 h 17.36947 c 0.345937,0 0.626372,-0.2803569 0.626372,-0.6263708 0,-0.3459358 -0.280357,-0.6262183 -0.626372,-0.6262183 H 6.304908 c -1.818819,0 -3.29848,1.4797386 -3.29848,3.2984797 V 10.020713 H 1.628565 c -0.345858,0 -0.626371,0.280358 -0.626371,0.626371 V 14.6554 c 0,0.345936 0.280435,0.626371 0.626371,0.626371 h 1.377863 v 4.091781 H 1.628565 c -0.345858,0 -0.626371,0.280357 -0.626371,0.626371 v 4.008316 c 0,0.345936 0.280435,0.626371 0.626371,0.626371 h 1.377863 v 3.381945 c 0,1.818819 1.479739,3.298633 3.29848,3.298633 h 7.390414 v 3.423754 h -0.709837 c -2.555535,0 -4.634687,2.079074 -4.634687,4.634686 0,0.345936 0.280283,0.626371 0.626219,0.626371 h 6.680577 c 0.345858,0 0.626371,-0.280357 0.626371,-0.626371 0,-0.345936 -0.280435,-0.626371 -0.626371,-0.626371 H 9.661371 c 0.294608,-1.566554 1.673032,-2.755726 3.323962,-2.755726 h 16.033416 c 1.650929,0 3.029354,1.189172 3.323962,2.755726 H 18.329855 c -0.345857,0 -0.626218,0.280357 -0.626218,0.626371 0,0.345936 0.280283,0.626371 0.626218,0.626371 h 14.697209 c 0.345937,0 0.626371,-0.280357 0.626371,-0.626371 0,-2.555534 -2.079074,-4.634686 -4.634686,-4.634686 h -0.709836 v -3.423754 h 7.390413 c 1.81882,0 3.29848,-1.479892 3.29848,-3.298633 V 6.6387684 c 7.8e-5,-1.8187411 -1.479738,-3.2984797 -3.29848,-3.2984797 H 34.98949 V 1.9624254 C 34.98949,0.88032115 34.109169,0 33.027064,0 Z m 0,1.2525892 h 2.672262 c 0.391404,0 0.709835,0.3184318 0.709835,0.7098362 v 1.3778633 h -1.56e-4 -4.091781 V 1.9624254 c 0,-0.3914044 0.318431,-0.7098362 0.709836,-0.7098362 z m -5.34437,5.4279882 c -5.870831,0 -10.647237,4.7761756 -10.647237,10.6470846 0,5.870909 4.776327,10.647084 10.647237,10.647084 5.870909,0 10.647084,-4.776175 10.647084,-10.647084 0,-5.870909 -4.776254,-10.6470846 -10.647084,-10.6470846 z m 0,1.252589 c 5.180131,0 9.394495,4.2143646 9.394495,9.3944956 0,5.180131 -4.214442,9.394647 -9.394495,9.394648 -5.18021,0 -9.394495,-4.214517 -9.394495,-9.394648 0,-5.180131 4.214363,-9.3944956 9.394495,-9.3944956 z m 0,1.4196727 c -4.397401,0 -7.974976,3.5774219 -7.974976,7.9748229 0,4.397401 3.577575,7.974823 7.974976,7.974823 4.3974,0 7.974822,-3.577422 7.974822,-7.974823 0,-4.397401 -3.5775,-7.9748229 -7.974822,-7.9748229 z M 9.645196,10.020866 c -2.187098,0 -3.966506,1.779408 -3.966506,3.966507 0,2.187098 1.779408,3.966507 3.966506,3.966507 2.187099,0 3.966508,-1.779409 3.966508,-3.966507 0,-2.187099 -1.779331,-3.966507 -3.966508,-3.966507 z m 15.36539,0.58441 c 3.7067,0 6.722233,3.015685 6.722233,6.722386 0,3.7067 -3.015533,6.722386 -6.722233,6.722386 -3.706702,0 -6.722387,-3.015686 -6.722387,-6.722386 0,-3.706701 3.015685,-6.722386 6.722387,-6.722386 z M 2.254783,11.273455 h 0.751645 v 2.755727 H 2.254783 Z m 7.390413,0 c 1.496477,0 2.713918,1.217363 2.713918,2.713918 0,1.496555 -1.217441,2.714071 -2.713918,2.714071 -1.496477,0 -2.713917,-1.217516 -2.713917,-2.714071 0,-1.496555 1.21744,-2.713918 2.713917,-2.713918 z m 15.36539,0.751646 c -0.345936,0 -0.626371,0.280203 -0.626371,0.626218 0,0.345936 0.280357,0.626371 0.626371,0.626371 2.233192,0 4.049972,1.816932 4.049972,4.050125 0,0.193983 -0.0137,0.388905 -0.04105,0.579373 -0.04891,0.342421 0.188814,0.659553 0.531156,0.708616 0.03008,0.0043 0.05996,0.0064 0.08957,0.0064 0.306561,0 0.574434,-0.225375 0.619199,-0.537718 0.03555,-0.248904 0.05371,-0.5034 0.05371,-0.75668 0,-2.92397 -2.378669,-5.302714 -5.302561,-5.302714 z m -15.36539,0.111235 c -0.345857,0 -0.626371,0.280358 -0.626371,0.626371 v 0.640256 c 0,0.345937 0.280436,0.626219 0.626371,0.626219 0.345937,0 0.626371,-0.280204 0.626371,-0.626219 v -0.640256 c 0,-0.346013 -0.280434,-0.626371 -0.626371,-0.626371 z M 8.30899,13.361155 c -0.345936,0 -0.626219,0.280204 -0.626219,0.626218 0,1.082104 0.880169,1.962425 1.962273,1.962425 1.082104,0 1.962425,-0.880321 1.962425,-1.962425 7.8e-5,-0.346014 -0.280208,-0.626218 -0.626065,-0.626218 -0.345858,0 -0.626371,0.280204 -0.626371,0.626218 0,0.391405 -0.318432,0.709989 -0.709837,0.709989 -0.391404,0 -0.709836,-0.318584 -0.709836,-0.709989 0,-0.345936 -0.280435,-0.626218 -0.62637,-0.626218 z m 20.738293,5.750863 c -0.22195,-0.0099 -0.442096,0.09891 -0.564878,0.30258 -0.177187,0.294061 -0.391652,0.565186 -0.63751,0.805967 -0.227421,0.222811 -0.249043,0.592025 -0.04959,0.839992 0.22867,0.28414 0.665581,0.310012 0.926205,0.05478 0.321404,-0.31492 0.602019,-0.66977 0.833737,-1.054378 0.178593,-0.296249 0.08316,-0.68124 -0.213165,-0.859677 -0.09265,-0.05576 -0.193912,-0.08476 -0.294798,-0.08926 z m -26.7925,1.514276 h 0.751645 v 2.755574 H 2.254783 Z m 5.386332,0.08347 c -0.345858,0 -0.626371,0.280356 -0.626371,0.626371 0,0.345935 0.280435,0.626217 0.626371,0.626217 h 4.676343 c 0.345857,0 0.626371,-0.280204 0.626371,-0.626217 0,-0.346015 -0.280514,-0.626371 -0.626371,-0.626371 z m 0,2.672108 c -0.345858,0 -0.626371,0.280358 -0.626371,0.626371 0,0.345936 0.280435,0.626371 0.626371,0.626371 h 4.676343 c 0.345857,0 0.626371,-0.280357 0.626371,-0.626371 0,-0.346013 -0.280514,-0.626371 -0.626371,-0.626371 z m 27.223253,1.002194 c -0.989995,0 -1.795494,0.805347 -1.795494,1.795342 0,0.989995 0.805499,1.795342 1.795494,1.795342 0.989996,0 1.795343,-0.805347 1.795343,-1.795342 0,-0.989995 -0.805347,-1.795342 -1.795343,-1.795342 z m 0,1.252589 c 0.299296,0 0.542754,0.243457 0.542754,0.542753 0,0.299295 -0.243458,0.542906 -0.542754,0.542906 -0.299295,0 -0.542905,-0.243611 -0.542905,-0.542906 0,-0.299296 0.24361,-0.542753 0.542905,-0.542753 z M 14.94791,31.315192 h 2.755727 v 3.423754 H 14.94791 Z m 4.008316,0 h 4.091934 v 3.423754 h -4.091934 z m 5.344524,0 h 2.755726 v 3.423754 H 24.30075 Z"
   style="stroke-width:0.999996" />







</svg>
