<svg xmlns="http://www.w3.org/2000/svg" width="12" height="30">
    <path d="M5.739 8.5a3.77 3.77 0 0 0 3.666-3.358l.001-.017c0-1.277-2.174-3.836-3.109-4.876A.75.75 0 0 0 5.739 0h-.001a.75.75 0 0 0-.558.25l-.001.001c-.928 1.04-3.086 3.598-3.086 4.874A3.76 3.76 0 0 0 5.734 8.5Zm.002-6.605a11.3 11.3 0 0 1 2.136 3.161l.029.071A2.31 2.31 0 0 1 5.744 7h-.005a2.26 2.26 0 0 1-2.143-1.859l-.002-.014A11.3 11.3 0 0 1 5.746 1.89ZM10.75 10h-10a.75.75 0 0 0-.75.75v18c0 .414.336.75.75.75h10a.75.75 0 0 0 .75-.75v-18a.75.75 0 0 0-.75-.75M10 28H1.5V11.5H4v3.987a.75.75 0 0 0 1.5 0V11.5H10Z"/>
</svg>
