<svg xmlns="http://www.w3.org/2000/svg" xml:space="preserve" width="38.366" height="50">
    <path d="M442.52 339.907h-8.533V246.04c0-.151-.013-.295-.019-.443.002-.138.019-.272.019-.41v-33.28c0-14.507-11.093-25.6-25.6-25.6h-8.533v-9.236c13.595-2.832 25.467-11.751 32.427-24.898 8.533-15.36 7.68-32.427 0-46.933l-34.133-59.733c-2.56-5.12-11.093-5.12-14.507 0l-34.133 59.733c-7.68 14.507-7.68 32.427 0 46.933 7.105 13.421 19.328 22.446 33.28 25.075v9.058h-8.533c-14.507 0-25.6 11.093-25.6 25.6v75.947c0 .143.016.281.018.423-.006.144-.018.284-.018.43v51.2h-8.533c-5.12 0-8.533 3.413-8.533 8.533v17.067c0 14.507 11.093 25.6 25.6 25.6h25.6v8.533c0 14.507-11.093 25.6-25.6 25.6H263.32v-34.133h25.6c14.507 0 25.6-11.093 25.6-25.6V348.44c0-5.12-3.413-8.533-8.533-8.533h-8.533V169.24c0-14.507-11.093-25.6-25.6-25.6h-8.533v-9.236c13.595-2.832 25.467-11.751 32.427-24.898 8.533-15.36 7.68-32.427 0-46.933L261.613 2.84c-2.56-5.12-11.093-5.12-14.507 0l-34.133 59.733c-7.68 14.507-7.68 32.427 0 46.933 7.105 13.421 19.328 22.446 33.28 25.075v9.058h-8.533c-14.507 0-25.6 11.093-25.6 25.6v58.027q.001.555.025 1.108c-.011.198-.025.395-.025.599v110.933h-8.533c-5.12 0-8.533 3.413-8.533 8.533v17.067c0 14.507 11.093 25.6 25.6 25.6h25.6v34.133h-93.867c-14.507 0-25.6-11.093-25.6-25.6v-8.533h25.6c14.507 0 25.6-11.093 25.6-25.6V348.44c0-5.12-3.413-8.533-8.533-8.533h-8.533v-85.333c0-.151-.013-.295-.019-.443.002-.138.019-.272.019-.41v-41.813c0-14.507-11.093-25.6-25.6-25.6h-8.533v-9.236c13.595-2.832 25.467-11.751 32.427-24.898 8.533-15.36 7.68-32.427 0-46.933L125.08 45.507c-2.56-5.12-11.093-5.12-14.507 0L76.44 105.24c-7.68 14.507-7.68 32.427 0 46.933 7.105 13.421 19.328 22.446 33.28 25.075v9.058h-8.533c-14.507 0-25.6 11.093-25.6 25.6v67.413c0 .138.016.273.019.41-.006.148-.019.292-.019.443v59.733h-8.533c-5.12 0-8.533 3.413-8.533 8.533v17.067c0 14.507 11.093 25.6 25.6 25.6h25.6v8.533c0 23.893 18.773 42.667 42.667 42.667h93.867v59.733c0 5.12 3.413 8.533 8.533 8.533s8.533-4.267 8.533-8.533v-59.733h93.867c23.893 0 42.667-18.773 42.667-42.667v-8.533h25.6c14.507 0 25.6-11.093 25.6-25.6V348.44c-.002-5.12-3.415-8.533-8.535-8.533M399 156.44c-.853.853-2.56 4.267-6.827 4.267h-1.707c-4.267 0-5.973-3.413-6.827-4.267-1.707-3.413-1.707-5.973 0-8.533l7.68-12.8 7.68 12.8c1.708 2.56 1.708 5.973.001 8.533m-34.133-42.667L391.32 66.84l26.453 46.933c5.12 9.387 5.12 20.48 0 30.72-.441.97-.938 1.894-1.467 2.789a25.4 25.4 0 0 0-2.799-7.909L399 113.773c-2.56-5.12-11.093-5.12-14.507 0l-15.36 25.6a25.4 25.4 0 0 0-2.754 7.621 36 36 0 0 1-1.513-2.501c-5.119-10.24-5.119-21.333.001-30.72m-102.4 0c-.853.853-2.56 4.267-6.827 4.267h-1.707c-4.267 0-5.973-3.413-6.827-4.267-1.707-3.413-1.707-5.973 0-8.533l7.68-12.8 7.68 12.8c1.707 2.56 1.707 5.973.001 8.533m-34.134-42.666 26.453-46.933 26.453 46.933c5.12 9.387 5.12 20.48 0 30.72-.441.97-.938 1.894-1.467 2.789a25.4 25.4 0 0 0-2.799-7.909l-14.507-25.6c-2.56-5.12-11.093-5.12-14.507 0l-15.36 25.6a25.4 25.4 0 0 0-2.754 7.621 36 36 0 0 1-1.513-2.501c-5.119-10.24-5.119-21.334.001-30.72m.854 98.133c0-5.12 3.413-8.533 8.533-8.533h34.133c5.12 0 8.533 3.413 8.533 8.533v93.867c0 2.56-1.707 5.12-3.413 6.827-1.398 1.398-3.371 1.647-5.446 1.693a10 10 0 0 1-2.376-.339c-3.051-1.342-5.832-5.183-5.832-9.034V194.84c0-5.12-3.413-8.533-8.533-8.533s-8.533 3.413-8.533 8.533v34.133c0 2.56-1.707 5.12-3.413 6.827-1.398 1.398-3.371 1.647-5.446 1.693a10 10 0 0 1-2.376-.339c-3.051-1.342-5.831-5.183-5.831-9.034zm0 83.627c1.981.66 4.218 1.058 6.512 1.208 3.518.435 7.037.2 10.555-1.208v10.24c0 9.151 4.417 16.94 11.318 21.447 2.972 2.157 6.374 3.633 10.015 4.153h4.267c2.657 0 4.796-.011 6.821-.816a24 24 0 0 0 1.712-.502v52.519h-51.2zm-17.067 112.64v-8.533h85.333v8.533c0 4.267-3.413 8.533-8.533 8.533h-68.267c-4.266 0-8.533-3.413-8.533-8.533M125.933 156.44c-.853.853-2.56 4.267-6.827 4.267h-1.707c-4.267 0-5.973-3.413-6.827-4.267-1.707-3.413-1.707-5.973 0-8.533l7.68-12.8 7.68 12.8c1.708 2.56 1.708 5.973.001 8.533M91.8 113.773l26.453-46.933 26.453 46.933c5.12 9.387 5.12 20.48 0 30.72-.441.97-.938 1.894-1.467 2.789a25.4 25.4 0 0 0-2.799-7.909l-14.507-25.6c-2.56-5.12-11.093-5.12-14.507 0l-15.36 25.6a25.4 25.4 0 0 0-2.754 7.621 36 36 0 0 1-1.513-2.501c-5.119-10.24-5.119-21.333.001-30.72m.853 98.134c0-5.12 3.413-8.533 8.533-8.533h34.133c5.12 0 8.533 3.413 8.533 8.533v41.813c0 3.85-2.781 7.692-5.832 9.034a10 10 0 0 1-2.376.339c-2.075-.046-4.048-.295-5.446-1.693-2.225-1.483-3.159-3.612-3.365-5.824q-.004-.024-.006-.049a11 11 0 0 1-.042-.954v-25.6c0-5.12-3.413-8.533-8.533-8.533s-8.533 3.413-8.533 8.533v51.2q0 .478-.042.954l-.006.049c-.207 2.212-1.141 4.341-3.365 5.824-1.398 1.398-3.371 1.647-5.446 1.693a10 10 0 0 1-2.376-.339c-3.051-1.342-5.832-5.183-5.832-9.034v-67.413zm0 92.548a25.7 25.7 0 0 0 4.267 1.318h4.267q.666-.002 1.331-.032l.053-.003c3.742-.169 7.428-1.037 10.645-2.812 8.179-4.194 13.572-12.642 13.572-22.753v-1.707c4.267 1.707 8.533 1.707 12.8 1.707a25.7 25.7 0 0 0 4.267-1.318v61.051h-51.2v-35.451zm-17.066 61.052v-8.533h85.333v8.533c0 4.267-3.413 8.533-8.533 8.533H84.12c-4.267 0-8.533-3.413-8.533-8.533m290.133-153.6c0-5.12 3.413-8.533 8.533-8.533h34.133c5.12 0 8.533 3.413 8.533 8.533v33.28c0 3.575-1.803 7.143-4.896 8.71-1.076.438-2.296.677-3.637.677-1.548 0-2.937-.317-4.126-.894a7 7 0 0 1-.994-.813c-2.225-1.483-3.159-3.612-3.366-5.824l-.006-.049a11 11 0 0 1-.042-.954v-17.067c0-5.12-3.413-8.533-8.533-8.533s-8.533 3.413-8.533 8.533v59.734c0 2.56-1.707 5.12-3.413 6.827a7.3 7.3 0 0 1-.994.813c-1.189.577-2.578.894-4.126.894-.965 0-1.869-.122-2.702-.353-3.051-1.342-5.832-5.183-5.832-9.034v-75.947zm0 101.357c1.376.479 2.801.833 4.267 1.043h4.267q.666-.002 1.331-.032l.053-.003c3.741-.169 7.428-1.037 10.644-2.812 8.179-4.194 13.572-12.642 13.572-22.753v-17.92c4.267.853 8.533 1.707 12.8.853a25.7 25.7 0 0 0 4.267-1.318v69.585h-51.2zm68.267 52.243c0 4.267-3.413 8.533-8.533 8.533h-68.267c-4.267 0-8.533-3.413-8.533-8.533v-8.533h85.333z" style="stroke-width:10.2314" transform="translate(-5.72 .098)scale(.09774)"/>
</svg>
