<svg xmlns="http://www.w3.org/2000/svg" xml:space="preserve" width="50" height="40">
    <path d="M2.193 0c-.3 0-.59.061-.854.172A2.2 2.2 0 0 0 0 2.192v28.07a2.194 2.194 0 0 0 2.193 2.193h45.613A2.195 2.195 0 0 0 50 30.262V2.192a2.2 2.2 0 0 0-.967-1.818A2.17 2.17 0 0 0 47.806 0Zm0 1.674h45.613q.112 0 .203.04a.5.5 0 0 1 .229.19q.086.124.089.289v28.07q-.002.109-.041.201a.55.55 0 0 1-.189.23.53.53 0 0 1-.291.087h-7.869l-1.179-5.03a2.01 2.01 0 0 0-1.957-1.553h-23.6c-.936 0-1.747.643-1.96 1.553l-1.176 5.03H2.193a.53.53 0 0 1-.43-.229.5.5 0 0 1-.088-.29V2.192a.51.51 0 0 1 .23-.43.5.5 0 0 1 .288-.088M3.71 2.81a.958.958 0 1 0 0 1.915.958.958 0 0 0 0-1.915m42.582 0a.957.957 0 1 0 .004 1.914.957.957 0 0 0-.004-1.914M35.696 5.992c-1.23 0-2.41.25-3.48.704a8.97 8.97 0 0 0-3.935 3.237 8.94 8.94 0 0 0-1.528 5.002 8.92 8.92 0 0 0 3.942 7.414 9 9 0 0 0 2.342 1.128 9 9 0 0 0 6.141-.302 8.96 8.96 0 0 0 5.058-5.581 9 9 0 0 0 .404-2.659c0-1.23-.25-2.41-.704-3.482a8.97 8.97 0 0 0-5.58-5.06 9 9 0 0 0-2.66-.4m-21.392.898a8.03 8.03 0 0 0-6.67 3.546 8.03 8.03 0 0 0-1.377 4.5c0 1.106.226 2.168.634 3.13a8.1 8.1 0 0 0 2.913 3.54 8 8 0 0 0 4.5 1.375c1.106 0 2.17-.225 3.132-.633a8.05 8.05 0 0 0 4.281-10.544 8.1 8.1 0 0 0-2.912-3.54 8 8 0 0 0-2.108-1.013 8 8 0 0 0-2.393-.361m0 2.392c.787 0 1.525.158 2.2.444a5.67 5.67 0 0 1 3.2 3.527 5.66 5.66 0 0 1-3.717 7.083 5.7 5.7 0 0 1-1.683.251 5.63 5.63 0 0 1-4.689-2.492 5.63 5.63 0 0 1-.964-3.16c0-.786.158-1.525.444-2.2a5.68 5.68 0 0 1 3.527-3.2 5.7 5.7 0 0 1 1.682-.253m21.392 0a5.6 5.6 0 0 1 2.2.444 5.68 5.68 0 0 1 3.2 3.527 5.6 5.6 0 0 1 .254 1.682 5.6 5.6 0 0 1-.443 2.2 5.68 5.68 0 0 1-3.529 3.201 5.7 5.7 0 0 1-1.682.251 5.6 5.6 0 0 1-2.2-.441 5.68 5.68 0 0 1-3.2-3.529 5.6 5.6 0 0 1-.254-1.682c0-.786.158-1.525.444-2.2a5.68 5.68 0 0 1 3.529-3.2 5.7 5.7 0 0 1 1.681-.253M14.304 10.71a4.2 4.2 0 0 0-2.988 1.237 4.22 4.22 0 0 0-1.238 2.99 4.22 4.22 0 0 0 1.238 2.989 4.2 4.2 0 0 0 2.988 1.238 4.22 4.22 0 0 0 2.988-1.238 4.22 4.22 0 0 0 1.239-2.99 4.22 4.22 0 0 0-1.239-2.99 4.22 4.22 0 0 0-2.988-1.236m21.392 0a4.22 4.22 0 0 0-4.227 4.226 4.22 4.22 0 0 0 1.238 2.99 4.22 4.22 0 0 0 2.989 1.238 4.22 4.22 0 0 0 2.989-1.238 4.22 4.22 0 0 0 1.238-2.99 4.2 4.2 0 0 0-1.238-2.99 4.22 4.22 0 0 0-2.989-1.236m-21.888.752v1.087h.992v-1.087a3.5 3.5 0 0 1 2.294 1.346l-.922.532.496.858.91-.524c.15.39.236.816.236 1.262 0 .48-.097.937-.272 1.352l-.874-.504-.496.858.862.497a3.5 3.5 0 0 1-2.234 1.27v-.974h-.992v.974a3.5 3.5 0 0 1-2.235-1.27l.863-.497-.496-.858-.874.504a3.5 3.5 0 0 1-.035-2.614l.91.524.495-.857-.92-.533q.142-.186.307-.353a3.5 3.5 0 0 1 1.985-.993m21.392 0v1.087h.992v-1.087a3.5 3.5 0 0 1 2.293 1.346l-.92.532.495.858.91-.524c.151.39.234.816.234 1.262a3.5 3.5 0 0 1-.269 1.352l-.875-.504-.495.858.861.497a3.5 3.5 0 0 1-2.235 1.27v-.974H35.2v.974a3.5 3.5 0 0 1-2.234-1.27l.862-.497-.496-.858-.874.504a3.5 3.5 0 0 1-.27-1.352c0-.446.083-.871.234-1.262l.91.524.496-.857-.92-.533q.14-.186.307-.353a3.5 3.5 0 0 1 1.985-.993m-22 13.693h23.601c.49 0 .916.338 1.027.816l1.125 4.811H11.048l1.125-4.811a1.055 1.055 0 0 1 1.028-.816m3.065 1.798a1.377 1.377 0 1 0 0 2.755 1.378 1.378 0 1 0 0-2.755m19.257 0a1.377 1.377 0 1 0-.001 2.754 1.377 1.377 0 0 0 0-2.754M3.709 28.09a.958.958 0 1 0 0 1.915.958.958 0 0 0 0-1.915m42.582 0a.957.957 0 1 0 .004 1.914.957.957 0 0 0-.004-1.914" style="fill:#000;stroke-width:1"/>
</svg>
