<?xml version="1.0" encoding="UTF-8" standalone="no"?>
<!-- Uploaded to: SVG Repo, www.svgrepo.com, Generator: SVG Repo Mixer Tools -->

<svg
   height="40"
   width="50"
   version="1.1"
   id="_x32_"
   viewBox="0 0 50 40"
   xml:space="preserve"
   sodipodi:docname="cassette_1.svg"
   inkscape:version="1.3.2 (091e20e, 2023-11-25)"
   xmlns:inkscape="http://www.inkscape.org/namespaces/inkscape"
   xmlns:sodipodi="http://sodipodi.sourceforge.net/DTD/sodipodi-0.dtd"
   xmlns="http://www.w3.org/2000/svg"
   xmlns:svg="http://www.w3.org/2000/svg"><defs
   id="defs11">
	
	
	
	
	
	
	
	
	
	
	
</defs><sodipodi:namedview
   id="namedview11"
   pagecolor="#ffffff"
   bordercolor="#000000"
   borderopacity="0.25"
   inkscape:showpageshadow="2"
   inkscape:pageopacity="0.0"
   inkscape:pagecheckerboard="0"
   inkscape:deskcolor="#d1d1d1"
   inkscape:current-layer="_x32_" />
<style
   type="text/css"
   id="style1">
	.st0{fill:#000000;}
</style>
<path
   id="path1"
   class="st0"
   d="m 2.1930694,1.1532798e-5 c -0.299902,0 -0.5903414,0.0613999972 -0.8541106,0.172042997202 -0.39335904,0.167285 -0.72640868,0.444425 -0.96263892,0.793838 C 0.13901544,1.3146235 0,1.7415375 0,2.1923175 V 30.262193 c 0,0.29922 0.06206371,0.58966 0.17280578,0.8543 0.16806624,0.39502 0.44450414,0.72786 0.79460145,0.96341 0.34785117,0.23564 0.77566267,0.37555 1.22566217,0.37555 H 47.805977 c 0.301562,0 0.591291,-0.0628 0.855255,-0.17357 0.394921,-0.16728 0.727739,-0.44374 0.964164,-0.79383 C 49.860943,31.140103 50,30.713763 50,30.262193 V 2.1923175 C 50,1.8923185 49.93881,1.6003775 49.827385,1.3397335 49.660002,0.94481153 49.38277,0.61094253 49.033355,0.37461453 48.684821,0.13672453 48.257632,-0.00145347 47.806168,1.1532798e-5 Z M 2.1932647,1.6740905 H 47.806168 c 0.07461,0 0.141428,0.0141 0.202561,0.03929 0.09199,0.03926 0.172817,0.106959 0.229262,0.190163 0.05576,0.0832 0.08801,0.1791 0.08869,0.288963 V 30.262383 c 0,0.073 -0.01572,0.13979 -0.04082,0.2018 -0.03936,0.0911 -0.106024,0.17116 -0.188446,0.22926 -0.08564,0.0549 -0.180701,0.0879 -0.291443,0.0879 H 39.93702 l -1.178551,-5.03025 c -0.211914,-0.91006 -1.023138,-1.55315 -1.957512,-1.55315 H 13.200569 c -0.935155,0 -1.746435,0.64319 -1.959228,1.55315 l -1.176834,5.03025 H 2.1930694 c -0.073047,0 -0.1388321,-0.0157 -0.2008437,-0.0408 -0.092578,-0.0393 -0.1735993,-0.10671 -0.2292634,-0.18845 -0.055859,-0.0848 -0.087929,-0.17908 -0.087929,-0.28973 V 2.1923175 c 0,-0.07383 0.014175,-0.139711 0.040054,-0.200844 0.039258,-0.09268 0.1058899,-0.173009 0.1899719,-0.229454 0.083203,-0.05654 0.1798997,-0.08793 0.2882004,-0.08793 z m 1.5153885,1.135446 c -0.5284174,0 -0.9571075,0.428862 -0.9571075,0.95806 0,0.527637 0.4285925,0.956345 0.9571075,0.956345 0.5284175,0 0.9572984,-0.428708 0.9572984,-0.956345 -9.77e-5,-0.529198 -0.4288809,-0.95806 -0.9572984,-0.95806 z m 42.5827028,0 c -0.526953,0 -0.955772,0.428862 -0.955772,0.95806 0,0.527637 0.428819,0.956345 0.955772,0.956345 0.529296,0 0.95787,-0.428708 0.95787,-0.956345 0,-0.529198 -0.428574,-0.95806 -0.95787,-0.95806 z m -10.595322,3.182601 c -1.229686,0 -2.4106,0.250496 -3.480911,0.703621 -1.607323,0.679199 -2.968868,1.811559 -3.933906,3.237534 -0.482227,0.7129905 -0.864594,1.5013805 -1.125336,2.3431805 -0.262207,0.84179 -0.402832,1.73697 -0.402832,2.65884 -7.82e-4,1.22969 0.249733,2.41068 0.702858,3.48168 0.681542,1.60732 1.812303,2.96978 3.23906,3.93238 0.712987,0.483 1.501399,0.86375 2.342414,1.12762 0.841796,0.26074 1.736877,0.40035 2.658653,0.40035 1.230468,0.002 2.41087,-0.24954 3.481865,-0.70266 1.607322,-0.6792 2.968887,-1.81154 3.933144,-3.2383 0.482129,-0.71221 0.863719,-1.50072 1.125145,-2.34242 0.262304,-0.84179 0.403785,-1.73697 0.403785,-2.65884 0,-1.23047 -0.250477,-2.41058 -0.704383,-3.48167 C 43.25561,9.8469075 42.12405,8.4838795 40.697293,7.5203055 39.984989,7.0381765 39.196865,6.6573105 38.355069,6.3934445 37.514054,6.1327995 36.618787,5.9921375 35.696034,5.9921375 Z m -21.39225,0.897599 c -1.104784,0 -2.168675,0.224558 -3.132248,0.632858 -1.4455061,0.611718 -2.6697683,1.629399 -3.5383222,2.9132885 -0.433398,0.6416 -0.7764925,1.35051 -1.0120392,2.10666 -0.2363278,0.75781 -0.3637313,1.56357 -0.3637313,2.39277 0,1.10645 0.2255115,2.16879 0.6338119,3.13149 0.6116205,1.44638 1.6299894,2.67129 2.9130931,3.53985 0.6416017,0.43349 1.3498887,0.77744 2.1083837,1.01299 0.75703,0.23476 1.562733,0.36106 2.391052,0.36106 1.106444,7.8e-4 2.169744,-0.22456 3.132439,-0.63286 1.447166,-0.61172 2.672001,-1.62862 3.538895,-2.91328 0.434276,-0.64151 0.778399,-1.34981 1.013946,-2.10762 0.235547,-0.75694 0.361824,-1.56262 0.361824,-2.39182 0,-1.10566 -0.226102,-2.16869 -0.633621,-3.13148 -0.612402,-1.44629 -1.629324,-2.6713965 -2.912331,-3.5398525 -0.643163,-0.433496 -1.352152,-0.777349 -2.10762,-1.012994 -0.756933,-0.234765 -1.563455,-0.36106 -2.393532,-0.36106 z m 0,2.391814 c 0.786914,0 1.525007,0.158764 2.201081,0.444604 1.012108,0.4271475 1.878952,1.1463285 2.488326,2.0492585 0.305469,0.45078 0.546598,0.9487 0.711442,1.478 0.164941,0.53008 0.253756,1.09216 0.25444,1.6819 -5.86e-4,0.78672 -0.159354,1.52493 -0.444412,2.20032 -0.427149,1.01289 -1.146402,1.87815 -2.050209,2.48909 -0.452344,0.30469 -0.949397,0.54503 -1.477815,0.71144 -0.530077,0.16328 -1.092326,0.2512 -1.682853,0.2512 -0.785155,0 -1.52409,-0.15709 -2.198601,-0.44136 -1.012987,-0.42871 -1.879887,-1.14717 -2.4900433,-2.05098 -0.3046872,-0.45068 -0.5457368,-0.94861 -0.710678,-1.47781 -0.1640624,-0.5292 -0.2534866,-1.09303 -0.2534866,-1.6819 0,-0.78681 0.1578097,-1.52579 0.4436492,-2.20108 0.4271481,-1.01221 1.1463837,-1.87739 2.0509717,-2.48833 0.450781,-0.3054645 0.94768,-0.5456165 1.476097,-0.7114375 0.530078,-0.164062 1.093225,-0.252915 1.682091,-0.252915 z m 21.39225,0 c 0.786035,0 1.524816,0.158764 2.20089,0.444604 1.012206,0.4271475 1.878362,1.1463285 2.488518,2.0492585 0.30537,0.45078 0.546518,0.9487 0.710678,1.478 0.164844,0.53008 0.253678,1.09216 0.253678,1.6819 9.6e-5,0.78672 -0.157047,1.52493 -0.442887,2.20032 -0.42793,1.01289 -1.147164,1.87815 -2.050972,2.48909 -0.451465,0.30469 -0.947736,0.54503 -1.477814,0.71144 -0.529296,0.16328 -1.092345,0.2512 -1.682091,0.2512 -0.786034,0 -1.525025,-0.15709 -2.200317,-0.44136 -1.011328,-0.42871 -1.879832,-1.14717 -2.488328,-2.05098 -0.306249,-0.45068 -0.546499,-0.94861 -0.71144,-1.47781 -0.164941,-0.5292 -0.253486,-1.09303 -0.253486,-1.6819 0,-0.78681 0.157715,-1.52579 0.443458,-2.20108 0.427246,-1.01221 1.146591,-1.87739 2.0504,-2.48833 0.452343,-0.3054645 0.948499,-0.5456165 1.478576,-0.7114375 0.528417,-0.164062 1.092271,-0.252915 1.681137,-0.252915 z M 14.303779,10.709013 c -1.166013,0 -2.225171,0.47344 -2.987671,1.23672 -0.764061,0.76397 -1.238441,1.82259 -1.238441,2.98939 0,1.16602 0.47438,2.22552 1.238441,2.98958 0.7625,0.76406 1.821658,1.23825 2.987671,1.23825 1.166894,0 2.225345,-0.47419 2.988625,-1.23825 0.764062,-0.76406 1.239223,-1.82347 1.238442,-2.98958 7.81e-4,-1.1668 -0.47438,-2.22542 -1.238442,-2.98939 -0.76328,-0.76318 -1.821731,-1.23672 -2.988625,-1.23672 z m 21.39225,0 c -1.165232,0 -2.224562,0.47344 -2.988624,1.23672 -0.764061,0.76397 -1.238251,1.82259 -1.238251,2.98939 0,1.16602 0.47419,2.22552 1.238251,2.98958 0.764062,0.76406 1.823294,1.23825 2.988624,1.23825 1.166015,0 2.225535,-0.47419 2.988816,-1.23825 0.764843,-0.76406 1.238251,-1.82347 1.238251,-2.98958 0,-1.1668 -0.473408,-2.22542 -1.238251,-2.98939 -0.763281,-0.76318 -1.822801,-1.23672 -2.988816,-1.23672 z m -21.887779,0.75226 v 1.0868 h 0.991821 v -1.0868 c 0.771875,0.10996 1.459761,0.46797 1.985932,0.99258 0.110742,0.11074 0.212827,0.22931 0.307847,0.35343 l -0.921823,0.53158 0.496292,0.85831 0.909996,-0.52452 c 0.15,0.39101 0.235558,0.81657 0.235558,1.26266 0,0.47979 -0.09651,0.93669 -0.271606,1.35212 l -0.874138,-0.50487 -0.496292,0.85811 0.862312,0.49782 c -0.07851,0.0974 -0.16172,0.18844 -0.248146,0.27809 -0.526171,0.52451 -1.214057,0.88245 -1.985932,0.99163 v -0.97446 H 13.80825 v 0.97446 c -0.771093,-0.10918 -1.458997,-0.46712 -1.985168,-0.99163 -0.08799,-0.0897 -0.170375,-0.18073 -0.249672,-0.27809 l 0.863075,-0.49782 -0.496292,-0.85811 -0.873947,0.50487 c -0.174316,-0.41543 -0.270062,-0.87233 -0.270844,-1.35212 7.82e-4,-0.44609 0.08302,-0.87165 0.235368,-1.26266 l 0.909423,0.52452 0.496292,-0.85678 -0.921058,-0.53311 c 0.09424,-0.12412 0.197885,-0.24269 0.307845,-0.35343 0.526172,-0.52461 1.213885,-0.88262 1.984978,-0.99258 z m 21.391487,0 v 1.0868 h 0.991822 v -1.0868 c 0.771092,0.10996 1.460639,0.46797 1.985931,0.99258 0.110742,0.11074 0.212729,0.22931 0.307846,0.35343 l -0.920486,0.53158 0.495529,0.85831 0.909424,-0.52452 c 0.151562,0.39101 0.234603,0.81657 0.234603,1.26266 0,0.47979 -0.09559,0.93669 -0.269126,1.35212 l -0.874901,-0.50487 -0.495529,0.85811 0.861359,0.49782 c -0.07852,0.0974 -0.160828,0.18844 -0.248719,0.27809 -0.525292,0.52451 -1.214839,0.88245 -1.985931,0.99163 v -0.97446 h -0.991822 v 0.97446 c -0.770311,-0.10918 -1.459094,-0.46712 -1.985168,-0.99163 -0.08711,-0.0897 -0.169533,-0.18073 -0.248146,-0.27809 l 0.86155,-0.49782 -0.49553,-0.85811 -0.874901,0.50487 c -0.174315,-0.41543 -0.269317,-0.87233 -0.269317,-1.35212 0,-0.44609 0.08325,-0.87165 0.234032,-1.26266 l 0.910186,0.52452 0.49553,-0.85678 -0.920296,-0.53311 c 0.09346,-0.12412 0.196931,-0.24269 0.306892,-0.35343 0.526074,-0.52461 1.214857,-0.88262 1.985168,-0.99258 z M 13.20076,25.154313 h 23.600387 c 0.489257,0 0.915394,0.33776 1.026917,0.8152 l 1.125335,4.81186 H 11.047554 l 1.125908,-4.81186 c 0.111523,-0.47744 0.53726,-0.8152 1.027298,-0.8152 z m 3.063965,1.79749 c -0.761621,0 -1.377488,0.61638 -1.377488,1.37653 0,0.76094 0.61577,1.37882 1.377488,1.37882 0.760936,0 1.378059,-0.61798 1.378059,-1.37882 0,-0.76015 -0.617221,-1.37653 -1.378059,-1.37653 z m 19.256973,0 c -0.760936,0 -1.377869,0.61638 -1.377869,1.37653 0,0.76094 0.61703,1.37882 1.377869,1.37882 0.760839,0 1.377488,-0.61798 1.377488,-1.37882 -9.8e-5,-0.76015 -0.616649,-1.37653 -1.377488,-1.37653 z m -31.8130494,1.13773 c -0.5284174,0 -0.9571075,0.42877 -0.9571075,0.95806 0,0.52774 0.4285925,0.95482 0.9571075,0.95482 0.5284175,0 0.9572984,-0.42708 0.9572984,-0.95482 -9.77e-5,-0.52929 -0.4288809,-0.95806 -0.9572984,-0.95806 z m 42.5827034,0 c -0.526954,0 -0.955773,0.42877 -0.955773,0.95806 0,0.52774 0.428819,0.95482 0.955773,0.95482 0.529295,0 0.95787,-0.42708 0.95787,-0.95482 0,-0.52929 -0.428575,-0.95806 -0.95787,-0.95806 z"
   style="stroke-width:1" />
</svg>
