<svg xmlns="http://www.w3.org/2000/svg" xml:space="preserve" width="50" height="35">
    <path d="M0 0h47.912v30.581H0z" style="fill:#fff;stroke-width:1.51181;stroke-linecap:square;stroke-linejoin:round;stroke-miterlimit:4.7" transform="translate(1.005 2.152)"/>
    <path d="M1.188-.88c-.3 0-.59.062-.854.173a2.2 2.2 0 0 0-1.339 2.02v28.07a2.194 2.194 0 0 0 2.193 2.193h45.613a2.195 2.195 0 0 0 2.194-2.193V1.313a2.2 2.2 0 0 0-.967-1.818 2.17 2.17 0 0 0-1.227-.374zm0 1.675h45.613q.112 0 .203.04a.5.5 0 0 1 .23.19q.085.124.088.289v28.07q-.002.109-.04.2a.55.55 0 0 1-.19.23.53.53 0 0 1-.29.088h-7.87l-1.179-5.03a2.01 2.01 0 0 0-1.957-1.553h-23.6c-.936 0-1.747.643-1.96 1.553l-1.176 5.03H1.188a.53.53 0 0 1-.43-.23.5.5 0 0 1-.088-.29V1.313A.51.51 0 0 1 .9.883a.5.5 0 0 1 .288-.087M2.705 1.93a.958.958 0 1 0 0 1.915.958.958 0 0 0 0-1.915m42.582 0a.957.957 0 1 0 .004 1.914.957.957 0 0 0-.004-1.914M34.691 5.113c-1.23 0-2.41.25-3.48.704a8.97 8.97 0 0 0-3.935 3.237 8.94 8.94 0 0 0-1.528 5.002 8.92 8.92 0 0 0 3.942 7.414 9 9 0 0 0 2.342 1.128 9 9 0 0 0 6.141-.302 8.96 8.96 0 0 0 5.058-5.581 9 9 0 0 0 .404-2.66c0-1.23-.25-2.41-.704-3.481a8.97 8.97 0 0 0-5.58-5.06 9 9 0 0 0-2.66-.4M13.3 6.012a8.03 8.03 0 0 0-6.67 3.546 8.03 8.03 0 0 0-1.377 4.5c0 1.106.226 2.168.634 3.13a8.1 8.1 0 0 0 2.913 3.54 8 8 0 0 0 4.5 1.375c1.106 0 2.17-.225 3.132-.633a8.05 8.05 0 0 0 4.281-10.544 8.1 8.1 0 0 0-2.912-3.54 8 8 0 0 0-2.108-1.013 8 8 0 0 0-2.393-.361m0 2.392c.787 0 1.525.158 2.2.444a5.67 5.67 0 0 1 3.2 3.527 5.66 5.66 0 0 1-3.717 7.083 5.7 5.7 0 0 1-1.683.25 5.63 5.63 0 0 1-4.689-2.491 5.63 5.63 0 0 1-.964-3.16c0-.786.158-1.525.444-2.2a5.68 5.68 0 0 1 3.527-3.2 5.7 5.7 0 0 1 1.682-.253m21.392 0a5.6 5.6 0 0 1 2.2.444 5.68 5.68 0 0 1 3.2 3.527 5.6 5.6 0 0 1 .254 1.682 5.6 5.6 0 0 1-.443 2.2 5.68 5.68 0 0 1-3.529 3.2 5.7 5.7 0 0 1-1.682.252 5.6 5.6 0 0 1-2.2-.441 5.68 5.68 0 0 1-3.2-3.53 5.6 5.6 0 0 1-.254-1.681c0-.786.158-1.525.444-2.2a5.68 5.68 0 0 1 3.53-3.2 5.7 5.7 0 0 1 1.68-.253M13.3 9.83a4.2 4.2 0 0 0-2.988 1.237 4.22 4.22 0 0 0-1.238 2.99 4.22 4.22 0 0 0 1.238 2.989 4.2 4.2 0 0 0 2.988 1.238 4.22 4.22 0 0 0 2.988-1.238 4.22 4.22 0 0 0 1.24-2.99 4.22 4.22 0 0 0-1.24-2.99A4.22 4.22 0 0 0 13.3 9.83m21.392 0a4.22 4.22 0 0 0-4.227 4.226 4.22 4.22 0 0 0 1.238 2.99 4.22 4.22 0 0 0 2.99 1.238 4.22 4.22 0 0 0 2.988-1.238 4.22 4.22 0 0 0 1.238-2.99 4.2 4.2 0 0 0-1.238-2.99 4.22 4.22 0 0 0-2.989-1.236m-21.888.752v1.087h.992v-1.087a3.5 3.5 0 0 1 2.294 1.346l-.922.532.496.858.91-.524c.15.39.236.816.236 1.262 0 .48-.097.937-.272 1.352l-.874-.504-.496.858.862.497a3.5 3.5 0 0 1-2.234 1.27v-.974h-.992v.974a3.5 3.5 0 0 1-2.235-1.27l.863-.497-.496-.858-.874.504a3.5 3.5 0 0 1-.035-2.614l.91.524.495-.857-.92-.533q.142-.186.307-.353a3.5 3.5 0 0 1 1.985-.993m21.392 0v1.087h.992v-1.087a3.5 3.5 0 0 1 2.293 1.346l-.92.532.495.858.91-.524c.151.39.234.816.234 1.262a3.5 3.5 0 0 1-.269 1.352l-.875-.504-.495.858.861.497a3.5 3.5 0 0 1-2.235 1.27v-.974h-.99v.974a3.5 3.5 0 0 1-2.235-1.27l.862-.497-.496-.858-.874.504a3.5 3.5 0 0 1-.27-1.352c0-.446.083-.871.234-1.262l.91.524.496-.857-.92-.533q.14-.186.307-.353a3.5 3.5 0 0 1 1.985-.993m-22 13.693h23.601c.49 0 .916.338 1.027.816l1.125 4.81H10.043l1.125-4.81a1.055 1.055 0 0 1 1.028-.816m3.065 1.798a1.378 1.378 0 1 0 0 2.755 1.378 1.378 0 1 0 0-2.755m19.257 0a1.377 1.377 0 1 0 0 2.754 1.377 1.377 0 0 0 0-2.754M2.703 27.21a.958.958 0 1 0 0 1.915.958.958 0 0 0 0-1.915m42.582 0a.957.957 0 1 0 .004 1.914.957.957 0 0 0-.004-1.914" style="fill:#000;stroke-width:1" transform="translate(1.005 2.152)"/>
</svg>
