<svg xmlns="http://www.w3.org/2000/svg" xml:space="preserve" width="100" height="100">
    <path d="m42.103 84.912.591.073c.136.017.196.43.135.926L41.57 96.028c-.062.496-.221.881-.357.865l-.591-.074c-.136-.017-.196-.43-.135-.926l1.258-10.117c.062-.496.221-.881.357-.864m6.66-21.78a.592.592 0 0 0-.297-1.055l-6.183-.736a.593.593 0 0 0-.14 1.178l6.183.736a.6.6 0 0 0 .437-.123m-.2-4.585a.593.593 0 0 0 .11 1.154l.337.04a.593.593 0 0 0 .659-.519l.043-.359a.617.617 0 1 1 1.226.148l-.778 6.536a1.807 1.807 0 0 0 1.578 2.005 1.8 1.8 0 0 0 1.328-.374c.332-.26.557-.62.646-1.027a.593.593 0 0 0-.11-1.154l-.337-.04a.593.593 0 0 0-.659.518l-.043.36a.61.61 0 0 1-.685.539.62.62 0 0 1-.54-.687l.777-6.536a1.807 1.807 0 0 0-1.578-2.005 1.806 1.806 0 0 0-1.973 1.4m-7.73-1.18a.617.617 0 0 1 .995.557l-.044.36a.593.593 0 0 0 .519.659l.338.04a.593.593 0 0 0 .376-1.097 1.805 1.805 0 0 0-2.919-1.45 1.8 1.8 0 0 0-.675 1.204l-.778 6.536a.617.617 0 1 1-1.226-.144l.042-.36a.593.593 0 0 0-.519-.659l-.337-.04a.593.593 0 0 0-.377 1.097 1.805 1.805 0 0 0 1.59 1.825c.493.059.965-.089 1.328-.375a1.8 1.8 0 0 0 .676-1.203l.778-6.537a.62.62 0 0 1 .232-.413M53.01 3.275l-1.339-.16a1.23 1.23 0 0 0-1.317.842l-.435 1.333-.397-.047a.593.593 0 1 0-.14 1.177l.162.02-.333 1.02a1.23 1.23 0 0 0 .518 1.426l-.101.659-.712-.085a2.2 2.2 0 0 0-.193-.697c-.218-.451-.589-.74-1.017-.79a1.25 1.25 0 0 0-.917.277c-.4.315-.672.849-.746 1.465-.127 1.072.404 1.987 1.208 2.083.317.037.643-.06.918-.277.267-.21.475-.52.607-.884l.672.08-.492 3.21-.564-.067a2.2 2.2 0 0 0-.193-.697c-.218-.45-.589-.739-1.016-.79a1.25 1.25 0 0 0-.917.277c-.401.316-.673.85-.746 1.465-.128 1.072.403 1.987 1.207 2.083.317.038.643-.06.918-.276.267-.21.475-.52.607-.884l.524.062-2.807 18.309c-2.607.153-5.08.957-7.02 2.293-2.206 1.52-3.575 3.643-3.853 5.98q-.053.453-.087.881l-14.387-1.712-2.9-.345a3.2 3.2 0 0 0-2.384.67 3.2 3.2 0 0 0-1.086 1.578l-.433-.052a.593.593 0 0 0-.14 1.178l21.522 2.562q.017.092.038.184a4.8 4.8 0 0 1-.6 2.964c-.247.438-.207.974.104 1.366a1.15 1.15 0 0 0 1.24.4l.183-.043a.83.83 0 0 1 .504-.01c.45.146.795.804.923 1.76.152 1.139-.004 2.55-.441 3.975-.615 2.01-1.73 3.725-2.776 4.269-.3.156-.567.199-.79.127-.017-.006-.195-.072-.975-.514a1.05 1.05 0 0 0-1.18.092l-.003.002c-.353.278-.503.74-.382 1.175.167.606.214 1.228.14 1.85a4.64 4.64 0 0 1-.69 1.944c-1.431 2.227-2.313 4.459-2.55 6.455-.395 3.308.995 6.485 3.911 8.947 2.698 2.277 6.485 3.806 10.664 4.303s8.217-.1 11.374-1.68a13 13 0 0 0 2.197-1.383c2.112-1.663 3.405-3.87 3.705-6.395.238-1.995-.095-4.37-.96-6.872a4.7 4.7 0 0 1 .352-3.816q.11-.197.136-.417a1.1 1.1 0 0 0-.38-.973 1.05 1.05 0 0 0-.98-.213c-.846.241-1.037.267-1.067.27q-.35.026-.736-.308c-.889-.773-1.571-2.703-1.699-4.802-.09-1.487.09-2.896.505-3.968.35-.899.84-1.457 1.31-1.494.16-.012.321.03.492.13l.161.082a1.15 1.15 0 0 0 1.305-.1c.391-.307.556-.818.419-1.3a4.78 4.78 0 0 1 .114-3.021l.08-.17 27.332 3.253a.59.59 0 0 0 .659-.519.593.593 0 0 0-.519-.659l-3.968-.472.312-2.624-22.721-2.705a21 21 0 0 0 .123-.878c.278-2.335-.554-4.72-2.342-6.714-1.572-1.754-3.787-3.117-6.285-3.878l1.382-16.248.797.094c.028.25.093.488.193.697.219.45.59.739 1.017.79.317.037.643-.061.917-.277.4-.315.673-.85.746-1.465.127-1.072-.403-1.987-1.208-2.083a1.25 1.25 0 0 0-.917.276c-.268.211-.476.52-.608.885l-.837-.1.276-3.236.944.113c.09.797.56 1.408 1.21 1.486.317.038.643-.06.918-.277.4-.315.672-.849.745-1.464.056-.465-.012-.924-.191-1.294-.218-.45-.589-.739-1.016-.79a1.25 1.25 0 0 0-.918.277c-.267.21-.475.52-.607.884l-.985-.117.245-2.873a1.23 1.23 0 0 0 .838-1.265l-.084-1.07.163.02a.59.59 0 0 0 .66-.518.593.593 0 0 0-.52-.66l-.398-.047-.11-1.397a1.235 1.235 0 0 0-1.082-1.128m-5.619 7.342c-.074-.051-.22-.332-.17-.762.04-.332.18-.577.302-.673a.2.2 0 0 1 .044-.028c.074.051.22.332.17.762-.04.332-.18.578-.302.673a.2.2 0 0 1-.044.028m-.524 4.4c-.074-.05-.22-.33-.17-.761.04-.332.18-.578.302-.674a.2.2 0 0 1 .044-.027c.074.05.22.332.17.762-.04.332-.18.577-.302.673a.2.2 0 0 1-.044.028m8.277 1.734c.075.05.221.332.17.762-.04.332-.18.577-.302.673a.2.2 0 0 1-.043.028c-.075-.051-.221-.332-.17-.762.04-.333.18-.578.302-.674a.2.2 0 0 1 .043-.027m.524-4.4c.074.05.221.33.17.761-.04.332-.18.578-.302.673a.2.2 0 0 1-.043.028c-.075-.051-.221-.332-.17-.762.04-.332.18-.578.301-.673a.2.2 0 0 1 .044-.028M50.89 9.142l1.466.175-.047.546-1.502-.18zm-14.616 32.68c.24-2.022 1.399-3.8 3.348-5.143 1.701-1.17 3.865-1.892 6.163-2.068l-1.39 9.07-8.207-.977q.032-.428.086-.882m14.061 5.227.124-1.452 8.072.961c-.12.501-.263.97-.429 1.416zm-1.178-.14-3.984-.474.22-1.44 3.887.462zm-.1 1.183-.37 4.34-4.354-.519.66-4.305zm-5.063-1.798-7.767-.924a12 12 0 0 1-.085-1.477l8.073.961zm-28.533-3.396a2.05 2.05 0 0 1 2.12-1.214l.417.05c-.385.37-.68.836-.844 1.365zm2.901.345a2.05 2.05 0 0 1 2.118-1.214l14.476 1.723q-.007.765.062 1.474zm23.689 41.185.803-6.747 1.222.146-.804 6.746a24 24 0 0 1-.611-.063 25 25 0 0 1-.61-.082m2.272-7.766-1.436-.171-.549-6.779 4.11.49zm13.191-23.89c.006.022-.03.027-.03.027-.06-.033-.111-.062-.163-.084a2 2 0 0 0-1.133-.26c-1.881.145-3.132 3.033-2.908 6.715.15 2.471.956 4.627 2.103 5.626.497.432 1.053.638 1.606.595.127-.01.357-.048 1.067-.246a5.9 5.9 0 0 0-.34 4.6c.796 2.3 1.117 4.553.904 6.345-.442 3.715-3.103 5.78-5.256 6.858-2.501 1.252-5.612 1.838-8.906 1.703l.859-7.214 2.71-8.242-6.988-.832.7 8.648-.859 7.214c-3.234-.642-6.12-1.943-8.258-3.747-1.84-1.553-3.941-4.185-3.499-7.9.213-1.793 1.055-3.907 2.37-5.954a5.8 5.8 0 0 0 .871-2.446 6 6 0 0 0-.124-2.106c.737.41.904.465.979.49.53.171 1.119.101 1.705-.203 1.35-.703 2.638-2.608 3.362-4.974 1.082-3.527.545-6.627-1.25-7.211a2 2 0 0 0-1.163-.012c-.06.011-.124.029-.205.051-.005-.008-.007-.02.003-.04a6 6 0 0 0 .758-3.585l7.385.88-.84 5.478 6.79.808.47-5.522 7.388.879a6 6 0 0 0-.108 3.662m23.833-3.497-.172 1.446-3.103-.37.172-1.446zm-4.28-.51-.173 1.446-17.583-2.093q.233-.673.406-1.418zM56.841 38.73c1.58 1.763 2.288 3.763 2.047 5.783q-.054.454-.124.878l-8.206-.977.778-9.141c2.192.71 4.126 1.92 5.505 3.457m-7.461 5.544-3.808-.454 4.045-26.389 2.026.241zm.417-28.016.156-1.018 1.878.223-.088 1.027zm2.134-1.977-1.798-.214.156-1.019 1.73.206zm-1.462-2.406.156-1.018 1.581.188-.087 1.026zM53.2 8.168c.002.032-.035.052-.052.05l-2.77-.33c-.005 0-.021-.003-.033-.021s-.007-.034-.005-.04l1.142-3.502a.046.046 0 0 1 .05-.032l1.338.16c.022.002.04.02.041.042z" style="stroke-width:1.77705;stroke-linecap:square;stroke-linejoin:round;stroke-miterlimit:4.7"/>
</svg>
