<?xml version="1.0" encoding="UTF-8" standalone="no"?>
<!-- Uploaded to: SVG Repo, www.svgrepo.com, Generator: SVG Repo Mixer Tools -->

<svg
   fill="#000000"
   height="100"
   width="100"
   version="1.1"
   id="Capa_1"
   viewBox="0 0 100 100"
   xml:space="preserve"
   sodipodi:docname="cello_1.svg"
   inkscape:version="1.3.2 (091e20e, 2023-11-25)"
   xmlns:inkscape="http://www.inkscape.org/namespaces/inkscape"
   xmlns:sodipodi="http://sodipodi.sourceforge.net/DTD/sodipodi-0.dtd"
   xmlns="http://www.w3.org/2000/svg"
   xmlns:svg="http://www.w3.org/2000/svg"><defs
   id="defs4" /><sodipodi:namedview
   id="namedview4"
   pagecolor="#ffffff"
   bordercolor="#000000"
   borderopacity="0.25"
   inkscape:showpageshadow="2"
   inkscape:pageopacity="0.0"
   inkscape:pagecheckerboard="0"
   inkscape:deskcolor="#d1d1d1"
   inkscape:zoom="5.1428315"
   inkscape:cx="50.069694"
   inkscape:cy="56.38917"
   inkscape:window-width="1464"
   inkscape:window-height="883"
   inkscape:window-x="0"
   inkscape:window-y="25"
   inkscape:window-maximized="0"
   inkscape:current-layer="Capa_1" />

<path
   id="rect4"
   style="stroke-width:1.77705;stroke-linecap:square;stroke-linejoin:round;stroke-miterlimit:4.7"
   d="m 42.103207,84.911597 0.590887,0.0735 c 0.136174,0.0169 0.196163,0.42986 0.134503,0.92585 l -1.257666,10.11682 c -0.06166,0.496 -0.220927,0.88167 -0.357101,0.86475 l -0.590888,-0.0735 c -0.136175,-0.0169 -0.196164,-0.42986 -0.134504,-0.92586 l 1.257667,-10.11682 c 0.06166,-0.49599 0.220927,-0.88167 0.357102,-0.86474 z m 6.659789,-21.779621 c 0.119288,-0.09391 0.202602,-0.233274 0.222167,-0.395853 0.03863,-0.325324 -0.193581,-0.620283 -0.518789,-0.658997 l -6.18312,-0.736063 c -0.325324,-0.03863 -0.620283,0.193581 -0.658997,0.518789 -0.03863,0.325325 0.193581,0.620284 0.518789,0.658998 l 6.18312,0.736063 c 0.162512,0.01924 0.317542,-0.02903 0.43683,-0.122937 z m -0.199493,-4.585441 c -0.215041,0.06815 -0.381496,0.256742 -0.410015,0.495431 -0.03863,0.325324 0.19358,0.620283 0.518788,0.658997 l 0.337497,0.04014 c 0.325324,0.03863 0.620284,-0.193582 0.658998,-0.51879 l 0.04276,-0.359356 c 0.04014,-0.337496 0.347625,-0.579715 0.685209,-0.539423 0.338536,0.04027 0.581191,0.348539 0.54089,0.687073 l -0.778068,6.536018 c -0.117486,0.988032 0.590561,1.887462 1.578469,2.005072 0.478235,0.0569 0.949897,-0.0757 1.32838,-0.37365 0.331188,-0.26072 0.556154,-0.62066 0.645286,-1.02708 0.215249,-0.06812 0.381613,-0.256832 0.409925,-0.495546 0.03863,-0.325323 -0.193698,-0.620191 -0.518906,-0.658905 l -0.337497,-0.04014 c -0.325324,-0.03863 -0.620075,0.193605 -0.658997,0.518788 l -0.04276,0.359357 c -0.01948,0.163644 -0.101483,0.309716 -0.230904,0.411596 -0.129423,0.10189 -0.290867,0.14728 -0.454396,0.12771 -0.338537,-0.0403 -0.581191,-0.348539 -0.540891,-0.687072 l 0.778068,-6.536019 c 0.117486,-0.988029 -0.590561,-1.887463 -1.578561,-2.005184 -0.927144,-0.110118 -1.776549,0.507587 -1.973274,1.400982 z m -7.731422,-1.179142 c 0.129772,-0.102162 0.291657,-0.147714 0.455603,-0.128091 0.337704,0.04017 0.579716,0.347624 0.539424,0.685208 l -0.04276,0.359355 c -0.01859,0.156151 0.02561,0.31344 0.122821,0.436922 0.0973,0.123598 0.239702,0.203579 0.395852,0.222168 l 0.337497,0.04014 c 0.325323,0.03863 0.620283,-0.193582 0.658997,-0.51879 0.02845,-0.238592 -0.08913,-0.460993 -0.282249,-0.577841 0.01832,-0.914845 -0.662145,-1.714499 -1.589374,-1.824775 -0.478652,-0.05698 -0.950755,0.0758 -1.329472,0.373939 -0.378717,0.298142 -0.618732,0.725971 -0.675596,1.20453 l -0.778068,6.53602 c -0.04019,0.338652 -0.348448,0.581307 -0.687073,0.540891 -0.337704,-0.04017 -0.579716,-0.347625 -0.539423,-0.685209 l 0.04276,-0.359355 c 0.01859,-0.15615 -0.02573,-0.313349 -0.123028,-0.436947 -0.0973,-0.123598 -0.239728,-0.20337 -0.395969,-0.222075 l -0.337404,-0.04003 c -0.325417,-0.03874 -0.620401,0.193673 -0.658999,0.51879 -0.02845,0.238591 0.08922,0.46111 0.28225,0.57784 -0.01832,0.914846 0.662144,1.7145 1.589466,1.824893 0.49406,0.0588 0.965931,-0.08888 1.32892,-0.374639 0.362991,-0.285761 0.617241,-0.709889 0.676148,-1.203831 l 0.777982,-6.536135 c 0.01976,-0.164245 0.101933,-0.310821 0.231702,-0.412983 z M 53.009544,3.2751015 51.671027,3.1157585 c -0.326874,-0.03891 -0.649554,0.0519 -0.908283,0.255581 -0.191863,0.151042 -0.333399,0.35379 -0.409197,0.586111 l -0.434583,1.332356 -0.397246,-0.04729 c -0.325091,-0.0388 -0.620399,0.193673 -0.65888,0.518698 -0.03874,0.325416 0.193465,0.620375 0.518789,0.658997 l 0.162188,0.01931 -0.332546,1.019753 c -0.115017,0.352443 -0.06643,0.733652 0.133196,1.045954 0.09994,0.156429 0.231511,0.285691 0.384095,0.381242 l -0.100825,0.658083 -0.711626,-0.08472 c -0.02812,-0.250707 -0.0923,-0.488501 -0.193284,-0.697315 -0.218086,-0.450796 -0.588603,-0.738571 -1.016363,-0.789388 -0.31688,-0.03772 -0.64265,0.06043 -0.917106,0.27649 -0.400617,0.315383 -0.672375,0.849337 -0.745872,1.464959 -0.127426,1.0720445 0.403038,1.9869735 1.207914,2.0829995 0.317088,0.03775 0.642767,-0.06052 0.917223,-0.276582 0.267233,-0.210377 0.475476,-0.519415 0.607417,-0.883674 l 0.67186,0.07999 -0.492118,3.209813 -0.563596,-0.06709 c -0.02802,-0.2506 -0.09232,-0.488302 -0.193212,-0.696999 -0.218086,-0.450797 -0.588603,-0.738572 -1.016154,-0.789363 -0.317089,-0.03775 -0.642859,0.0604 -0.917315,0.276465 -0.400618,0.315382 -0.672584,0.849312 -0.745847,1.464751 -0.127651,1.072228 0.402896,1.987272 1.20768,2.083183 0.317094,0.03771 0.642859,-0.0604 0.917315,-0.276467 0.26735,-0.210468 0.475502,-0.519624 0.607559,-0.883974 l 0.523825,0.0624 -2.806544,18.308681 c -2.607074,0.153437 -5.080361,0.957623 -7.019989,2.293246 -2.206937,1.520022 -3.575411,3.643237 -3.853589,5.979124 -0.03588,0.302424 -0.06437,0.595594 -0.08656,0.882334 L 20.622117,40.850701 v 0 c -2.08e-4,-2.5e-5 -6.25e-4,-7.4e-5 -9.49e-4,-7e-6 l -2.899024,-0.344691 c -0.858202,-0.102152 -1.704755,0.135957 -2.383789,0.670519 -0.520837,0.410026 -0.893657,0.957498 -1.085902,1.577354 l -0.433268,-0.05154 c -0.325324,-0.03863 -0.620284,0.193581 -0.658998,0.518789 -0.03863,0.325325 0.193582,0.620284 0.51879,0.658998 l 21.52183,2.562034 c 0.01244,0.06134 0.02465,0.122868 0.03809,0.183801 0.07583,0.592223 0.09257,1.742874 -0.600201,2.963941 -0.247042,0.438078 -0.206223,0.974086 0.103993,1.365748 0.302242,0.381527 0.778494,0.53493 1.240186,0.400912 0.01441,-0.004 0.182713,-0.04403 0.182713,-0.04403 0.186373,-0.05615 0.352279,-0.0592 0.504902,-0.0101 0.449633,0.146427 0.794469,0.804253 0.922282,1.759721 0.152419,1.13988 -0.0041,2.551681 -0.440788,3.975853 -0.615049,2.009358 -1.729657,3.724976 -2.775582,4.268546 -0.301174,0.156715 -0.567234,0.199368 -0.789534,0.12719 -0.01764,-0.0061 -0.195396,-0.07203 -0.976241,-0.513601 -0.38114,-0.214503 -0.833192,-0.179215 -1.179883,0.09202 -8.15e-4,6.41e-4 -0.0017,0.0013 -0.0025,0.0019 -0.353089,0.277965 -0.503315,0.739077 -0.382736,1.175309 0.16732,0.605861 0.214572,1.22794 0.140639,1.849 -0.08295,0.696423 -0.321899,1.369314 -0.690911,1.945112 -1.430664,2.226138 -2.312393,4.458078 -2.550172,6.454598 -0.393662,3.30779 0.995619,6.48523 3.912154,8.94699 2.697983,2.27738 6.485063,3.8055 10.663635,4.30293 4.177647,0.49722 8.217007,-0.0992 11.373905,-1.6795 0.807985,-0.40455 1.541895,-0.86797 2.197164,-1.38383 2.112473,-1.66302 3.405008,-3.87024 3.705525,-6.39466 0.237468,-1.99476 -0.09496,-4.37093 -0.961352,-6.87242 -0.431298,-1.24318 -0.302383,-2.63473 0.352442,-3.815542 0.07336,-0.131154 0.119399,-0.271367 0.136751,-0.417107 0.04387,-0.368302 -0.09805,-0.731905 -0.379698,-0.972466 -0.273873,-0.234041 -0.630728,-0.311995 -0.980513,-0.213432 -0.845743,0.241067 -1.037159,0.266845 -1.067258,0.269596 -0.233057,0.01818 -0.480652,-0.08541 -0.736094,-0.307541 -0.888327,-0.773195 -1.57085,-2.703173 -1.698485,-4.802421 -0.09013,-1.486669 0.08913,-2.895769 0.505159,-3.967663 0.348755,-0.898734 0.838802,-1.457169 1.310336,-1.493836 0.15991,-0.0121 0.320733,0.0302 0.491378,0.129226 l 0.16104,0.08304 c 0.419819,0.239906 0.918658,0.202688 1.302136,-0.09731 10e-4,-8.25e-4 0.002,-0.0016 0.0028,-0.0022 0.391298,-0.308046 0.555734,-0.818458 0.418573,-1.30164 -0.386813,-1.35613 -0.09889,-2.466606 0.114323,-3.020516 0.02739,-0.05628 0.05372,-0.113432 0.08025,-0.170346 l 27.331674,3.253584 c 0.162488,0.01945 0.317659,-0.02912 0.43683,-0.122936 0.119172,-0.09382 0.202718,-0.233366 0.222051,-0.395762 0.03874,-0.325416 -0.193464,-0.620374 -0.51879,-0.658997 L 82.352531,50.860937 82.665107,48.23702 59.943955,45.532105 c 0.04573,-0.283938 0.08698,-0.575483 0.122881,-0.877905 0.278052,-2.334845 -0.553895,-4.719481 -2.342064,-6.714565 -1.571937,-1.75397 -3.78722,-3.116196 -6.284907,-3.877216 l 1.382277,-16.248906 0.797202,0.09487 c 0.02814,0.250501 0.09234,0.488086 0.193145,0.696668 0.218085,0.450795 0.588603,0.73857 1.016154,0.789362 0.317094,0.03771 0.642858,-0.0604 0.917314,-0.276465 0.400618,-0.315382 0.672584,-0.849312 0.745873,-1.464959 0.127426,-1.072043 -0.403038,-1.986973 -1.207705,-2.082975 -0.317094,-0.03771 -0.642859,0.0604 -0.917315,0.276466 -0.267466,0.21056 -0.475618,0.519716 -0.607583,0.884182 l -0.836758,-0.09959 0.275197,-3.235847 0.944187,0.112398 c 0.0902,0.796956 0.560665,1.40871 1.210432,1.486271 0.317089,0.03775 0.642859,-0.0604 0.917315,-0.276465 0.400726,-0.315468 0.672693,-0.849398 0.745841,-1.464745 0.05529,-0.464494 -0.01268,-0.924025 -0.191528,-1.29382 -0.218085,-0.450796 -0.588603,-0.738571 -1.016154,-0.789363 -0.317088,-0.03775 -0.642858,0.0604 -0.917314,0.276466 -0.267351,0.210468 -0.475619,0.519715 -0.607583,0.884182 l -0.984694,-0.117111 0.244387,-2.8732755 c 0.1324,-0.04442 0.258068,-0.110327 0.371066,-0.199283 0.324664,-0.255589 0.499291,-0.653829 0.466993,-1.065405 l -0.08394,-1.069445 0.163645,0.01948 c 0.162487,0.01945 0.31775,-0.029 0.436922,-0.12282 0.119172,-0.09382 0.202602,-0.233273 0.222051,-0.395761 0.03883,-0.3253 -0.193465,-0.620375 -0.51879,-0.658997 l -0.398495,-0.04744 -0.109652,-1.397144 c -0.04532,-0.584158 -0.500796,-1.058463 -1.082806,-1.127853 z m -5.618241,7.3419125 c -0.07437,-0.05108 -0.221171,-0.331758 -0.170057,-0.7620165 0.03968,-0.332166 0.180011,-0.577393 0.301746,-0.673227 0.01934,-0.01522 0.03436,-0.02347 0.04361,-0.02754 0.07428,0.05097 0.221288,0.331667 0.170033,0.762224 -0.03946,0.3319825 -0.17987,0.5770935 -0.301605,0.6729285 -0.01933,0.01522 -0.03459,0.02365 -0.04372,0.02763 z m -0.523876,4.400721 c -0.07428,-0.05096 -0.221196,-0.33155 -0.170057,-0.762015 0.03968,-0.332167 0.180011,-0.577394 0.301746,-0.673228 0.01933,-0.01522 0.03436,-0.02346 0.04361,-0.02754 0.07439,0.05087 0.221197,0.33155 0.170058,0.762016 -0.03968,0.332166 -0.180011,0.577392 -0.301746,0.673227 -0.01943,0.01511 -0.03436,0.02346 -0.04361,0.02754 z m 8.276758,1.733085 c 0.07437,0.05108 0.221173,0.331758 0.170058,0.762015 -0.03968,0.332167 -0.180011,0.577394 -0.301745,0.673228 -0.01934,0.01522 -0.03436,0.02346 -0.04361,0.02754 -0.07439,-0.05088 -0.221312,-0.331459 -0.170057,-0.762016 0.03968,-0.332166 0.180011,-0.577393 0.301746,-0.673227 0.01943,-0.01511 0.03448,-0.02356 0.04361,-0.02754 z m 0.523973,-4.400604 c 0.07427,0.05097 0.221196,0.331549 0.169941,0.762107 -0.03946,0.331982 -0.179987,0.577185 -0.301721,0.673019 -0.01934,0.01522 -0.03436,0.02347 -0.04361,0.02754 -0.07437,-0.05108 -0.221171,-0.331758 -0.170057,-0.762016 0.03968,-0.332166 0.180011,-0.577393 0.301745,-0.673227 0.01943,-0.01511 0.03457,-0.02344 0.0437,-0.02742 z m -4.779159,-3.2070425 1.465518,0.174456 -0.04653,0.546091 -1.502163,-0.17882 z M 36.273747,41.82178 c 0.240517,-2.021321 1.398969,-3.800132 3.348467,-5.142394 1.700772,-1.171172 3.864686,-1.892571 6.163072,-2.06829 l -1.390444,9.070087 -8.206731,-0.976854 c 0.02136,-0.285888 0.04952,-0.579203 0.08564,-0.882549 z m 14.061414,5.227478 0.12353,-1.45184 8.072534,0.960988 c -0.120943,0.500704 -0.262904,0.9704 -0.428958,1.41548 z m -1.178323,-0.140134 -3.984321,-0.474308 0.220754,-1.440266 3.886883,0.46271 z m -0.100647,1.182496 -0.369144,4.339854 -4.354291,-0.518356 0.659998,-4.30523 z M 43.994225,46.294442 36.22733,45.369837 c -0.05716,-0.471441 -0.08521,-0.961271 -0.0853,-1.476698 l 8.072951,0.961029 z M 15.46094,42.89784 c 0.13338,-0.306337 0.341048,-0.576804 0.610961,-0.78929 0.43009,-0.338585 0.966427,-0.489477 1.50992,-0.424672 l 0.416403,0.04955 c -0.385136,0.369799 -0.679291,0.836476 -0.844525,1.366008 z m 2.901474,0.345398 c 0.352583,-0.804951 1.200955,-1.322628 2.117666,-1.21445 l 14.476139,1.72329 c -0.0046,0.511386 0.0159,1.00074 0.06218,1.473948 z m 23.688156,41.184579 0.803127,-6.74651 1.221811,0.14554 -0.803127,6.74651 c -0.203406,-0.0189 -0.406922,-0.0387 -0.611374,-0.0631 -0.204752,-0.0245 -0.407848,-0.0531 -0.610429,-0.0825 z m 2.272186,-7.76621 -1.435837,-0.17104 -0.548566,-6.7783 4.108825,0.48913 z M 57.514004,52.772664 c 0.006,0.0213 -0.03032,0.02669 -0.03032,0.02669 -0.05941,-0.03304 -0.110982,-0.06188 -0.162998,-0.08433 -0.365607,-0.202203 -0.745912,-0.289811 -1.132318,-0.260536 -1.881711,0.145825 -3.132312,3.03308 -2.908781,6.71597 0.150103,2.471013 0.956221,4.626537 2.103716,5.625161 0.497175,0.432604 1.052692,0.638516 1.605644,0.595494 0.127427,-0.0097 0.35696,-0.04798 1.067255,-0.24563 -0.734681,1.437474 -0.860274,3.102644 -0.340619,4.600434 0.796403,2.29922 1.117521,4.5522 0.904246,6.34376 -0.442141,3.71503 -3.102343,5.7798 -5.255945,6.85801 -2.500942,1.25201 -5.612087,1.83869 -8.906199,1.70352 l 0.858841,-7.21454 2.71034,-8.24172 -6.987487,-0.83193 0.699649,8.64776 -0.858826,7.21434 c -3.234061,-0.64229 -6.120763,-1.94276 -8.257914,-3.7467 -1.840413,-1.55356 -3.941538,-4.18514 -3.499277,-7.90026 0.21334,-1.79314 1.055219,-3.90746 2.37058,-5.95434 0.465613,-0.726565 0.766555,-1.572187 0.870412,-2.445493 0.08414,-0.706839 0.0424,-1.4142 -0.123945,-2.106305 0.736957,0.410262 0.903849,0.464547 0.978841,0.4891 0.529639,0.17232 1.119062,0.102284 1.704858,-0.202457 1.349754,-0.702186 2.638194,-2.60805 3.362217,-4.973209 1.081623,-3.527097 0.544828,-6.627131 -1.250496,-7.211421 -0.370426,-0.119158 -0.761135,-0.122916 -1.162169,-0.01155 -0.05964,0.01053 -0.124446,0.02815 -0.20578,0.05067 -0.0044,-0.008 -0.0069,-0.02098 0.0035,-0.03939 0.819038,-1.443685 0.83921,-2.816612 0.757496,-3.58553 l 7.385891,0.879246 -0.839857,5.47819 6.790231,0.80833 0.469795,-5.52235 7.386931,0.879365 c -0.261009,0.725691 -0.564255,2.060697 -0.107556,3.661634 z m 23.833221,-3.498161 -0.17212,1.446161 -3.103219,-0.36942 0.17212,-1.446161 z m -4.281006,-0.509629 -0.17212,1.446161 -17.583105,-2.093156 c 0.155905,-0.44935 0.290504,-0.920239 0.405848,-1.418232 z M 56.84167,38.73126 c 1.580065,1.762856 2.288093,3.762381 2.047605,5.782545 -0.0361,0.303349 -0.0776,0.595074 -0.123828,0.877897 l -8.206107,-0.976777 0.777673,-9.140922 c 2.192485,0.710329 4.126269,1.919427 5.504656,3.45726 z m -7.460741,5.54338 -3.807768,-0.453287 4.045195,-26.389229 2.025367,0.24111 z m 0.417285,-28.015481 0.156075,-1.01838 1.877335,0.223505 -0.08737,1.026558 z m 2.13406,-1.977391 -1.798014,-0.214046 0.156213,-1.01868 1.729309,0.205858 z m -1.462152,-2.405708 0.156049,-1.018171 1.581278,0.188242 -0.08722,1.026259 z M 53.19855,8.1676785 c 0.0026,0.03251 -0.03417,0.05199 -0.05198,0.04998 l -2.768942,-0.32973 c -0.0059,-8.14e-4 -0.02186,-0.0026 -0.0338,-0.02113 -0.01195,-0.01853 -0.0068,-0.03386 -0.0049,-0.03954 l 1.142277,-3.501824 c 0.0028,-0.0091 0.0078,-0.01628 0.0152,-0.02216 0.0071,-0.0056 0.01871,-0.01171 0.03465,-0.0099 l 1.338309,0.159318 c 0.02195,0.0027 0.03925,0.02061 0.04104,0.04279 z"
   inkscape:label="violin" /></svg>
