<svg xmlns="http://www.w3.org/2000/svg" xml:space="preserve" width="50.805" height="36">
    <g style="fill:gray;stroke-width:1.77649">
        <path d="M42.56 47.154h75.73a2.635 2.635 0 0 1 2.64 2.64v20.45a2.635 2.635 0 0 1-2.64 2.641H42.56a2.635 2.635 0 0 1-2.64-2.64v-20.45a2.635 2.635 0 0 1 2.64-2.641z" style="fill:#404040;stroke:#404040;stroke-width:3.02002;stroke-linecap:square;stroke-linejoin:round;stroke-miterlimit:4.7" transform="matrix(.56225 0 0 .56357 -21.596 -24.33)"/>
        <path d="M47.186 70.56h7.84s-1.067 34.038-1.918 35.862c-.829.638-4.575.546-4.711 0-.944-1.772-1.211-35.861-1.211-35.861m58.737.183h7.84s-1.067 34.038-1.918 35.861c-.829.638-4.575.547-4.711 0-.944-1.771-1.211-35.86-1.211-35.86" style="fill:#404040;stroke-width:.710592;stroke-linecap:square;stroke-linejoin:round;stroke-miterlimit:4.7" transform="matrix(.56225 0 0 .56357 -21.596 -24.33)"/>
        <path d="M46.297 44.681a2.635 2.635 0 0 0-2.64 2.64v9.531a2.635 2.635 0 0 0 2.64 2.641h7.728a2.635 2.635 0 0 0 2.64-2.64v-9.531a2.635 2.635 0 0 0-2.64-2.641zm14.225 0a2.635 2.635 0 0 0-2.64 2.64V57.1a2.635 2.635 0 0 0 2.64 2.64h7.948a2.635 2.635 0 0 0 2.64-2.64v-9.777a2.635 2.635 0 0 0-2.64-2.641zm14.555 0a2.635 2.635 0 0 0-2.64 2.64v10.517a2.635 2.635 0 0 0 2.64 2.642h8.606a2.635 2.635 0 0 0 2.64-2.642V47.322a2.635 2.635 0 0 0-2.64-2.641zm15.214 0a2.635 2.635 0 0 0-2.641 2.64v10.517a2.635 2.635 0 0 0 2.64 2.642h8.607a2.635 2.635 0 0 0 2.64-2.642V47.322a2.635 2.635 0 0 0-2.64-2.641zm15.213 0a2.635 2.635 0 0 0-2.64 2.64v10.517a2.635 2.635 0 0 0 2.64 2.642h8.606a2.635 2.635 0 0 0 2.641-2.642V47.322a2.635 2.635 0 0 0-2.64-2.641z" style="fill:#404040;stroke:#404040;stroke-width:3.02002;stroke-linecap:square;stroke-linejoin:round;stroke-miterlimit:4.7" transform="matrix(.56225 0 0 .56357 -21.596 -24.33)"/>
        <path d="M45.837 60.63h68.97a2.635 2.635 0 0 1 2.64 2.64v4.21a2.635 2.635 0 0 1-2.64 2.641h-68.97a2.635 2.635 0 0 1-2.64-2.64v-4.21a2.635 2.635 0 0 1 2.64-2.641z" style="fill:#fff;stroke:#404040;stroke-width:3.02002;stroke-linecap:square;stroke-linejoin:round;stroke-miterlimit:4.7" transform="matrix(.56225 0 0 .56357 -21.596 -24.33)"/>
        <path d="M126.164 55.698c-.608 0-1.097 1.178-1.097 2.64v2.04a3 3 0 0 0-.559-.051h-3.855c-.866 0-1.563.348-1.563.78 0 .434.697.782 1.563.782h3.855q.297 0 .559-.051v1.852c0 1.463.49 2.64 1.097 2.64.608 0 1.097-1.177 1.097-2.64v-5.35c0-1.463-.49-2.641-1.097-2.641z" style="fill:#404040;stroke:#404040;stroke-width:3.02002;stroke-linecap:square;stroke-linejoin:round;stroke-miterlimit:4.7" transform="matrix(.56225 0 0 .56357 -21.596 -24.33)"/>
    </g>
</svg>
