<svg xmlns="http://www.w3.org/2000/svg" width="36.543" height="60">
    <path d="M2.406 1.27a1.3 1.3 0 0 0-1.1 1.305V9.1a1.308 1.308 0 0 0 1.508 1.305s.49-.067 1.142-.164l1.183 19.74H1.305c-.883 0-1.315.683-1.305 1.305v5.22c0 .72.586 1.306 1.305 1.306H2.61v20.882c0 .719.587 1.305 1.306 1.305H7.83c.719 0 1.305-.586 1.305-1.305V44.339h18.272v14.356c0 .719.586 1.305 1.305 1.305h3.915c.719 0 1.305-.586 1.305-1.305V37.813h1.305c.72 0 1.305-.586 1.305-1.305v-5.22c0-.72-.586-1.306-1.305-1.306h-3.834l1.183-19.74c.653.097 1.142.164 1.142.164A1.308 1.308 0 0 0 35.24 9.1V2.575a1.3 1.3 0 0 0-1.102-1.305 99.8 99.8 0 0 0-31.73 0M32.63 3.717V7.59a94.9 94.9 0 0 0-28.712 0V3.717a92.3 92.3 0 0 1 28.712 0M16.967 9.1v20.881h-3.304l-.57-20.718a91 91 0 0 1 3.874-.163m2.61 0c1.325.025 2.615.086 3.874.163l-.57 20.718h-3.304Zm-9.095.407.57 20.474H7.75L6.567 9.875c1.131-.137 2.436-.234 3.915-.367m15.58 0c1.478.133 2.783.23 3.915.367l-1.183 20.107h-3.303ZM2.61 32.593h31.323v2.61H2.61Zm2.61 5.22h1.306c-.024 6.525 0 13.05 0 19.577H5.22Zm3.916 0h18.272v3.915H9.136Zm20.882 0h1.305V57.39h-1.305Z" style="fill:#404040;stroke-width:1.30512"/>
</svg>
