<svg xmlns="http://www.w3.org/2000/svg" width="32" height="55" fill="none">
    <path fill="#1C274C" fill-rule="evenodd" d="M8.597.958C3.777 2.072.454-.225 1.044 6.313c.087.973.488 3.145 2.314 3.145H7.4L.676 53.032c-.198 1.25.317 1.648 1.246 1.916.93.268 1.843-.529 2.041-1.779l2.165-13.607h19.815l2.165 13.607c.2 1.25 1.113 2.046 2.042 1.78.929-.268 1.368-.97 1.168-2.22L24.671 9.457h4.043c1.826 0 2.226-2.173 2.314-3.145.59-6.538-2.733-4.241-7.553-5.355-5.303-1.225-9.118-1.33-14.878 0m12.596 8.5H10.88q0 .24-.039.484L6.865 36.306h18.341L21.232 9.943a4 4 0 0 1-.039-.484" clip-rule="evenodd" style="fill:#404040;stroke-width:1"/>
</svg>
