<?xml version="1.0" encoding="UTF-8" standalone="no"?>
<!-- Uploaded to: SVG Repo, www.svgrepo.com, Generator: SVG Repo Mixer Tools -->

<svg
   fill="#000000"
   width="100"
   height="100"
   viewBox="0 0 100 100"
   version="1.1"
   id="svg1"
   sodipodi:docname="chair_1.svg"
   inkscape:version="1.3.2 (091e20e, 2023-11-25)"
   xmlns:inkscape="http://www.inkscape.org/namespaces/inkscape"
   xmlns:sodipodi="http://sodipodi.sourceforge.net/DTD/sodipodi-0.dtd"
   xmlns="http://www.w3.org/2000/svg"
   xmlns:svg="http://www.w3.org/2000/svg">
  <defs
     id="defs1" />
  <sodipodi:namedview
     id="namedview1"
     pagecolor="#ffffff"
     bordercolor="#000000"
     borderopacity="0.25"
     inkscape:showpageshadow="2"
     inkscape:pageopacity="0.0"
     inkscape:pagecheckerboard="0"
     inkscape:deskcolor="#d1d1d1"
     inkscape:current-layer="svg1" />
  <path
     d="M 49.999999,5 C 38.230298,5 26.705162,6.872452 26.216032,6.956522 25.275984,7.109375 24.565217,7.957711 24.565217,8.913043 v 7.826087 c 0,0.573201 0.229281,1.092902 0.672554,1.467392 0.443276,0.37449 1.024118,0.580842 1.589674,0.48913 0.114633,-0.01526 11.647418,-1.956522 23.172554,-1.956522 11.525136,0 23.057914,1.941238 23.172555,1.956522 0.107002,0.02293 0.19871,0 0.305707,0 0.45856,0 0.924761,-0.191074 1.283967,-0.48913 0.435631,-0.37449 0.672555,-0.894191 0.672555,-1.467392 V 8.913043 c 0,-0.955332 -0.710767,-1.803668 -1.650815,-1.956521 C 73.302478,6.872452 61.7697,5 49.999999,5 Z m -1.956521,15.652174 v 31.304348 h -4.891305 c 0,-0.02293 0,-0.03821 0,-0.06114 L 42.296195,20.896739 c -1.352751,0.08407 -2.667289,0.19871 -3.913043,0.305707 l 0.855978,30.754076 h -4.891305 c 0,-0.03821 0,-0.08407 0,-0.122283 l -1.773097,-30.02038 c -1.658458,0.206352 -3.034137,0.420347 -3.913044,0.550271 l 1.773098,29.592392 h -5.869565 c -1.077615,0 -1.956522,0.878906 -1.956522,1.956521 v 5.869566 c 0,1.085259 0.878907,1.956521 1.956522,1.956521 h 1.956521 v 31.30435 c 0,1.08526 0.878907,1.95652 1.956522,1.95652 h 3.913044 c 1.077615,0 1.956521,-0.87126 1.956521,-1.95652 V 61.73913 H 65.652174 V 93.04348 C 65.652173,94.12874 66.523438,95 67.608695,95 h 3.913043 c 1.085261,0 1.956523,-0.87126 1.956523,-1.95652 V 61.73913 h 1.956522 c 1.085258,0 1.956522,-0.871262 1.956522,-1.956521 v -5.869566 c 0,-1.077615 -0.871263,-1.956521 -1.956522,-1.956521 H 69.565217 L 71.338315,22.36413 c -0.878907,-0.129932 -2.254587,-0.343919 -3.913044,-0.550271 l -1.773098,30.02038 c 0,0.03821 0,0.08407 0,0.122283 H 60.760869 L 61.616847,21.202446 C 60.371093,21.095443 59.056555,20.980809 57.703804,20.896739 L 56.847825,51.89538 c 0,0.02293 0,0.03821 0,0.06114 H 51.956521 V 20.652174 c -0.649626,-0.01526 -1.306896,0 -1.956522,0 -0.649626,0 -1.306896,-0.01526 -1.956521,0 z M 36.304347,69.565217 v 3.913044 h 27.391305 v -3.913044 z"
     id="path1"
     style="stroke-width:1.95652;fill:#404040"
     inkscape:label="chair" />
</svg>
