<?xml version="1.0" encoding="UTF-8" standalone="no"?>
<svg
   width="36.521999"
   height="60"
   version="1.1"
   id="svg1"
   sodipodi:docname="chair_1.svg"
   inkscape:version="1.3.2 (091e20e, 2023-11-25)"
   xmlns:inkscape="http://www.inkscape.org/namespaces/inkscape"
   xmlns:sodipodi="http://sodipodi.sourceforge.net/DTD/sodipodi-0.dtd"
   xmlns="http://www.w3.org/2000/svg"
   xmlns:svg="http://www.w3.org/2000/svg">
  <defs
     id="defs1" />
  <sodipodi:namedview
     id="namedview1"
     pagecolor="#ffffff"
     bordercolor="#000000"
     borderopacity="0.25"
     inkscape:showpageshadow="2"
     inkscape:pageopacity="0.0"
     inkscape:pagecheckerboard="0"
     inkscape:deskcolor="#d1d1d1"
     inkscape:current-layer="svg1" />
  <path
     d="M 18.260663,0 C 10.413998,0 2.7306661,1.2479998 2.4046662,1.3046664 1.7779997,1.4060004 1.3046664,1.971333 1.3046664,2.6086662 v 5.2173319 c 0,0.3820008 0.152,0.7286676 0.448,0.9786672 0.2953333,0.2493336 0.6826665,0.3866664 1.0599998,0.3259992 0.076,-0.01068 7.7646648,-1.3046664 15.4479968,-1.3046664 7.683332,0 15.371997,1.2940008 15.448664,1.3046664 0.07133,0.015336 0.132,0 0.203333,0 0.306,0 0.616667,-0.1273332 0.856001,-0.3266664 0.290666,-0.2493324 0.448665,-0.5959992 0.448665,-0.978 V 2.6086662 c 0,-0.6366666 -0.474,-1.2026664 -1.100666,-1.3039998 C 33.795328,1.248 26.107328,0 18.260663,0 M 16.955996,10.434665 V 31.30466 H 13.695997 V 31.26333 L 13.124664,10.597998 c -0.901999,0.056 -1.778,0.132 -2.608666,0.203333 L 11.086665,31.30466 H 7.8259986 v -0.082 L 6.6439988,11.209331 C 5.537999,11.346665 4.6213325,11.489332 4.0353326,11.575998 L 5.2173324,31.30466 H 1.3039998 A 1.3066664,1.3066664 0 0 0 0,32.608661 v 3.913332 c 0,0.723333 0.58599996,1.304 1.3039998,1.304 h 1.3046664 v 20.86933 c 0,0.723999 0.5859998,1.304666 1.3039998,1.304666 H 6.5213322 A 1.3033331,1.3033331 0 0 0 7.8259986,58.695323 V 37.826659 H 28.695328 v 20.86933 a 1.2999997,1.2999997 0 0 0 1.305333,1.304 h 2.608666 a 1.2999997,1.2999997 0 0 0 1.304,-1.304666 V 37.826659 h 1.304667 A 1.2999997,1.2999997 0 0 0 36.521993,36.52266 V 32.609327 A 1.3033331,1.3033331 0 0 0 35.217994,31.305328 H 31.30466 l 1.182,-19.728664 C 31.900661,11.49 30.983994,11.347331 29.877995,11.209998 l -1.182,20.01333 v 0.082 h -3.260667 l 0.570668,-20.503326 c -0.830667,-0.07133 -1.706667,-0.147334 -2.608667,-0.203333 l -0.570666,20.66533 v 0.04133 H 19.565996 V 10.434665 c -0.433333,-0.01 -0.871333,0 -1.304666,0 -0.433333,0 -0.871333,-0.01 -1.304666,0 m -7.8266657,32.60866 v 2.608666 H 27.391328 v -2.608666 z"
     style="fill:#404040;stroke-width:1.30435"
     id="path1" />
</svg>
