<?xml version="1.0" encoding="UTF-8" standalone="no"?>
<!-- Uploaded to: SVG Repo, www.svgrepo.com, Generator: SVG Repo Mixer Tools -->

<svg
   fill="#000000"
   width="36.543385"
   height="60"
   viewBox="0 0 36.543382 60"
   version="1.1"
   id="svg1"
   sodipodi:docname="chair_2.svg"
   inkscape:version="1.3.2 (091e20e, 2023-11-25)"
   xmlns:inkscape="http://www.inkscape.org/namespaces/inkscape"
   xmlns:sodipodi="http://sodipodi.sourceforge.net/DTD/sodipodi-0.dtd"
   xmlns="http://www.w3.org/2000/svg"
   xmlns:svg="http://www.w3.org/2000/svg">
  <defs
     id="defs1" />
  <sodipodi:namedview
     id="namedview1"
     pagecolor="#ffffff"
     bordercolor="#000000"
     borderopacity="0.25"
     inkscape:showpageshadow="2"
     inkscape:pageopacity="0.0"
     inkscape:pagecheckerboard="0"
     inkscape:deskcolor="#d1d1d1"
     inkscape:current-layer="svg1" />
  <path
     d="M 2.4064742,1.269831 C 1.7641138,1.3717931 1.295088,1.9274862 1.3052836,2.5749458 v 6.5255745 c -0.010704,0.8038968 0.7133512,1.4324247 1.5090391,1.3051147 0,0 0.4894181,-0.06628 1.1419755,-0.16314 l 1.1827604,19.739863 h -3.833775 c -0.8837648,0 -1.31507756,0.682411 -1.30511492183,1.305115 v 5.220459 c 0,0.718833 0.58628244183,1.305116 1.30511492183,1.305116 H 2.6103985 V 58.694885 C 2.6103985,59.413717 3.1966808,60 3.9155134,60 H 7.830858 c 0.7188324,0 1.3051148,-0.586283 1.3051148,-1.305115 V 44.338621 H 27.40758 V 58.694885 C 27.40758,59.413717 27.993863,60 28.712695,60 h 3.915345 c 0.718832,0 1.305115,-0.586283 1.305115,-1.305115 V 37.813048 h 1.305115 c 0.718832,0 1.305114,-0.586283 1.305114,-1.305116 v -5.220459 c 0,-0.718833 -0.586282,-1.305115 -1.305114,-1.305115 h -3.833776 l 1.182761,-19.739863 c 0.652558,0.09686 1.141975,0.16314 1.141975,0.16314 0.79574,0.127301 1.519757,-0.5012695 1.50904,-1.3051147 V 2.5749458 c 0.0102,-0.6474596 -0.45883,-1.2031527 -1.101191,-1.3051148 -10.668511,-1.70285671 -21.184422,-1.68333115 -31.7306048,0 z M 32.62804,3.7169213 v 3.8745594 c -11.15682,-1.7070547 -20.975647,-1.1837844 -28.7125266,0 V 3.7169213 c 9.7318956,-1.5153451 19.1958426,-1.4818349 28.7125266,0 z M 16.966662,9.1005203 V 29.982358 H 13.66309 L 13.092102,9.2636591 c 1.259232,-0.076476 2.549052,-0.1376484 3.87456,-0.1631388 z m 2.610229,0 c 1.325508,0.025488 2.615328,0.086664 3.87456,0.1631388 L 22.880464,29.982358 H 19.576891 Z M 10.481873,9.5083691 11.05286,29.982358 H 7.7492882 L 6.5665279,9.8754323 C 7.6983079,9.7377827 9.0034228,9.6409199 10.481873,9.5083691 Z m 15.579807,0 c 1.478452,0.1325508 2.783567,0.2294136 3.915346,0.3670632 L 28.794265,29.982358 H 25.490693 Z M 2.6103985,32.592588 H 33.933155 v 2.610229 H 2.6103985 Z m 2.6102297,5.22046 H 6.525743 c -0.023939,6.525055 0,13.050754 0,19.576723 H 5.2206282 Z m 3.9153446,0 H 27.40758 v 3.915344 H 9.1359728 Z m 20.8818372,0 h 1.305116 V 57.389771 H 30.01781 Z"
     id="path1"
     sodipodi:nodetypes="ccccccccsscssssccsssscsssscccccccccccccccccccccccccccccccccccccccccccccccccccc"
     style="fill:#404040;stroke-width:1.30512" />
</svg>
