<svg xmlns="http://www.w3.org/2000/svg" width="100" height="100">
    <path d="M50 5C38.23 5 26.705 6.872 26.216 6.957c-.94.152-1.65 1-1.65 1.956v7.826c0 .573.228 1.093.672 1.468.443.374 1.024.58 1.59.489.114-.016 11.647-1.957 23.172-1.957s23.058 1.941 23.173 1.957c.107.023.198 0 .305 0 .459 0 .925-.191 1.284-.49.436-.374.673-.894.673-1.467V8.913c0-.955-.711-1.804-1.651-1.956C73.302 6.872 61.77 5 50 5m-1.957 15.652v31.305h-4.89v-.062l-.857-30.998c-1.353.084-2.667.198-3.913.305l.856 30.755h-4.891v-.123l-1.773-30.02c-1.659.206-3.034.42-3.913.55l1.773 29.593h-5.87a1.96 1.96 0 0 0-1.956 1.956v5.87c0 1.085.879 1.956 1.956 1.956h1.957v31.304c0 1.086.879 1.957 1.956 1.957h3.913a1.955 1.955 0 0 0 1.957-1.957V61.74h31.304v31.304A1.95 1.95 0 0 0 67.61 95h3.913a1.95 1.95 0 0 0 1.956-1.957V61.74h1.957a1.95 1.95 0 0 0 1.956-1.956v-5.87a1.955 1.955 0 0 0-1.956-1.956h-5.87l1.773-29.593c-.879-.13-2.254-.344-3.913-.55l-1.773 30.02v.123h-4.891l.856-30.755c-1.246-.107-2.56-.221-3.913-.305l-.856 30.998v.062h-4.891V20.652c-.65-.015-1.307 0-1.957 0s-1.307-.015-1.957 0m-11.74 48.913v3.913h27.392v-3.913z" style="stroke-width:1.95652;fill:#404040"/>
</svg>
