<svg xmlns="http://www.w3.org/2000/svg" width="36.522" height="60">
    <path d="M18.26 0C10.415 0 2.73 1.248 2.406 1.305a1.33 1.33 0 0 0-1.1 1.304v5.217c0 .382.152.729.448.979.295.249.682.386 1.06.326.076-.011 7.764-1.305 15.448-1.305 7.683 0 15.372 1.294 15.448 1.305.072.015.132 0 .204 0 .306 0 .616-.128.856-.327.29-.25.448-.596.448-.978V2.609c0-.637-.474-1.203-1.1-1.304C33.795 1.248 26.107 0 18.26 0m-1.305 10.435v20.87h-3.26v-.042l-.571-20.665c-.902.056-1.778.132-2.609.203l.57 20.504h-3.26v-.082L6.644 11.209c-1.106.138-2.023.28-2.609.367l1.182 19.729H1.304A1.307 1.307 0 0 0 0 32.609v3.913c0 .723.586 1.304 1.304 1.304h1.305v20.87c0 .723.586 1.304 1.304 1.304H6.52a1.303 1.303 0 0 0 1.305-1.305V37.827h20.87v20.869A1.3 1.3 0 0 0 30 60h2.608a1.3 1.3 0 0 0 1.304-1.305V37.827h1.305a1.3 1.3 0 0 0 1.304-1.304v-3.914a1.303 1.303 0 0 0-1.304-1.304h-3.913l1.182-19.728c-.586-.087-1.503-.23-2.609-.367l-1.182 20.013v.082h-3.26l.57-20.503c-.83-.071-1.707-.147-2.609-.203l-.57 20.665v.041h-3.261v-20.87c-.433-.01-.871 0-1.305 0s-.871-.01-1.304 0M9.13 43.043v2.609h18.261v-2.609z" style="fill:#404040;stroke-width:1.30435"/>
</svg>
