<?xml version="1.0" encoding="UTF-8" standalone="no"?>
<svg
   xml:space="preserve"
   width="49.468086"
   height="50"
   version="1.1"
   id="svg2"
   sodipodi:docname="chimes_1.svg"
   inkscape:version="1.3.2 (091e20e, 2023-11-25)"
   xmlns:inkscape="http://www.inkscape.org/namespaces/inkscape"
   xmlns:sodipodi="http://sodipodi.sourceforge.net/DTD/sodipodi-0.dtd"
   xmlns="http://www.w3.org/2000/svg"
   xmlns:svg="http://www.w3.org/2000/svg"><defs
   id="defs2" /><sodipodi:namedview
   id="namedview2"
   pagecolor="#ffffff"
   bordercolor="#000000"
   borderopacity="0.25"
   inkscape:showpageshadow="2"
   inkscape:pageopacity="0.0"
   inkscape:pagecheckerboard="0"
   inkscape:deskcolor="#d1d1d1"
   inkscape:current-layer="svg2" />
    <g
   style="stroke-width:5.22222"
   id="g2"
   transform="matrix(0.5555537,0,0,0.5555537,-3.0437259,-2.7777685)">
        <path
   d="M 70,130 H 40 a 7.5,7.5 0 0 0 -7.5,7.5 v 145 c 0,4.143 3.357,7.5 7.5,7.5 h 30 c 4.143,0 7.5,-3.357 7.5,-7.5 v -145 c 0,-4.143 -3.357,-7.5 -7.5,-7.5 m -7.5,145 h -15 V 145 h 15 z M 130,130 h -30 a 7.5,7.5 0 0 0 -7.5,7.5 v 175 c 0,4.143 3.357,7.5 7.5,7.5 h 30 c 4.143,0 7.5,-3.357 7.5,-7.5 v -175 c 0,-4.143 -3.357,-7.5 -7.5,-7.5 m -7.5,175 h -15 V 145 h 15 z M 190,130 h -30 a 7.5,7.5 0 0 0 -7.5,7.5 v 205 c 0,4.143 3.357,7.5 7.5,7.5 h 30 c 4.143,0 7.5,-3.357 7.5,-7.5 v -205 c 0,-4.143 -3.357,-7.5 -7.5,-7.5 m -7.5,205 h -15 V 145 h 15 z M 250,130 h -30 a 7.5,7.5 0 0 0 -7.5,7.5 v 235 c 0,4.143 3.357,7.5 7.5,7.5 h 30 c 4.143,0 7.5,-3.357 7.5,-7.5 v -235 c 0,-4.143 -3.357,-7.5 -7.5,-7.5 m -7.5,235 h -15 V 145 h 15 z M 310,130 h -30 a 7.5,7.5 0 0 0 -7.5,7.5 v 265 c 0,4.143 3.357,7.5 7.5,7.5 h 30 c 4.143,0 7.5,-3.357 7.5,-7.5 v -265 c 0,-4.143 -3.357,-7.5 -7.5,-7.5 m -7.5,265 h -15 V 145 h 15 z M 370,130 h -30 a 7.5,7.5 0 0 0 -7.5,7.5 v 295 c 0,4.143 3.357,7.5 7.5,7.5 h 30 c 4.143,0 7.5,-3.357 7.5,-7.5 v -295 c 0,-4.143 -3.357,-7.5 -7.5,-7.5 m -7.5,295 h -15 V 145 h 15 z M 430,130 h -30 a 7.5,7.5 0 0 0 -7.5,7.5 v 325 c 0,4.143 3.357,7.5 7.5,7.5 h 30 c 4.143,0 7.5,-3.357 7.5,-7.5 v -325 c 0,-4.143 -3.357,-7.5 -7.5,-7.5 m -7.5,325 h -15 V 145 h 15 z M 460,40 H 362.5 V 37.5 C 362.5,16.822 345.678,0 325,0 H 145 C 124.322,0 107.5,16.822 107.5,37.5 V 40 H 10 a 7.5,7.5 0 0 0 -7.5,7.5 v 60 c 0,4.143 3.357,7.5 7.5,7.5 h 30 c 4.143,0 7.5,-3.357 7.5,-7.5 0,-4.143 -3.357,-7.5 -7.5,-7.5 H 17.5 V 55 H 115 c 4.143,0 7.5,-3.357 7.5,-7.5 v -10 C 122.5,25.094 132.594,15 145,15 h 180 c 12.406,0 22.5,10.094 22.5,22.5 v 10 c 0,4.143 3.357,7.5 7.5,7.5 h 97.5 v 45 H 70 a 7.5,7.5 0 0 0 -7.5,7.5 c 0,4.143 3.357,7.5 7.5,7.5 h 390 c 4.143,0 7.5,-3.357 7.5,-7.5 v -60 c 0,-4.143 -3.357,-7.5 -7.5,-7.5"
   style="stroke-width:5.22222"
   transform="matrix(0.19149,0,0,0.19149,5,5)"
   id="path1" />
        <path
   d="M 262.5,57.5 C 262.5,42.337 250.163,30 235,30 c -15.163,0 -27.5,12.337 -27.5,27.5 0,15.163 12.337,27.5 27.5,27.5 15.163,0 27.5,-12.337 27.5,-27.5 m -40,0 c 0,-6.893 5.607,-12.5 12.5,-12.5 6.893,0 12.5,5.607 12.5,12.5 0,6.893 -5.607,12.5 -12.5,12.5 -6.893,0 -12.5,-5.607 -12.5,-12.5"
   style="stroke-width:5.22222"
   transform="matrix(0.19149,0,0,0.19149,5,5)"
   id="path2" />
    </g>
</svg>
