<svg xmlns="http://www.w3.org/2000/svg" xml:space="preserve" width="100" height="100">
    <g style="stroke-width:5.22222">
        <path d="M70 130H40a7.5 7.5 0 0 0-7.5 7.5v145c0 4.143 3.357 7.5 7.5 7.5h30c4.143 0 7.5-3.357 7.5-7.5v-145c0-4.143-3.357-7.5-7.5-7.5m-7.5 145h-15V145h15zM130 130h-30a7.5 7.5 0 0 0-7.5 7.5v175c0 4.143 3.357 7.5 7.5 7.5h30c4.143 0 7.5-3.357 7.5-7.5v-175c0-4.143-3.357-7.5-7.5-7.5m-7.5 175h-15V145h15zM190 130h-30a7.5 7.5 0 0 0-7.5 7.5v205c0 4.143 3.357 7.5 7.5 7.5h30c4.143 0 7.5-3.357 7.5-7.5v-205c0-4.143-3.357-7.5-7.5-7.5m-7.5 205h-15V145h15zM250 130h-30a7.5 7.5 0 0 0-7.5 7.5v235c0 4.143 3.357 7.5 7.5 7.5h30c4.143 0 7.5-3.357 7.5-7.5v-235c0-4.143-3.357-7.5-7.5-7.5m-7.5 235h-15V145h15zM310 130h-30a7.5 7.5 0 0 0-7.5 7.5v265c0 4.143 3.357 7.5 7.5 7.5h30c4.143 0 7.5-3.357 7.5-7.5v-265c0-4.143-3.357-7.5-7.5-7.5m-7.5 265h-15V145h15zM370 130h-30a7.5 7.5 0 0 0-7.5 7.5v295c0 4.143 3.357 7.5 7.5 7.5h30c4.143 0 7.5-3.357 7.5-7.5v-295c0-4.143-3.357-7.5-7.5-7.5m-7.5 295h-15V145h15zM430 130h-30a7.5 7.5 0 0 0-7.5 7.5v325c0 4.143 3.357 7.5 7.5 7.5h30c4.143 0 7.5-3.357 7.5-7.5v-325c0-4.143-3.357-7.5-7.5-7.5m-7.5 325h-15V145h15zM460 40h-97.5v-2.5C362.5 16.822 345.678 0 325 0H145c-20.678 0-37.5 16.822-37.5 37.5V40H10a7.5 7.5 0 0 0-7.5 7.5v60c0 4.143 3.357 7.5 7.5 7.5h30c4.143 0 7.5-3.357 7.5-7.5S44.143 100 40 100H17.5V55H115c4.143 0 7.5-3.357 7.5-7.5v-10c0-12.406 10.094-22.5 22.5-22.5h180c12.406 0 22.5 10.094 22.5 22.5v10c0 4.143 3.357 7.5 7.5 7.5h97.5v45H70a7.5 7.5 0 0 0-7.5 7.5c0 4.143 3.357 7.5 7.5 7.5h390c4.143 0 7.5-3.357 7.5-7.5v-60c0-4.143-3.357-7.5-7.5-7.5" style="stroke-width:5.22222" transform="translate(5 5)scale(.19149)"/>
        <path d="M262.5 57.5c0-15.163-12.337-27.5-27.5-27.5s-27.5 12.337-27.5 27.5S219.837 85 235 85s27.5-12.337 27.5-27.5m-40 0c0-6.893 5.607-12.5 12.5-12.5s12.5 5.607 12.5 12.5S241.893 70 235 70s-12.5-5.607-12.5-12.5" style="stroke-width:5.22222" transform="translate(5 5)scale(.19149)"/>
    </g>
</svg>
