<svg xmlns="http://www.w3.org/2000/svg" xml:space="preserve" width="100" height="100">
    <path d="M12.535 14.977c-.47-.115-1.002-.152-1.44.093a1.42 1.42 0 0 0-.7 1.127c-.065.648.121 1.287.332 1.893.362.988.856 1.923 1.384 2.832a34 34 0 0 0 1.606 2.48Q26.689 37.47 39.662 51.533c-.275.39-.464.856-.453 1.338a2.1 2.1 0 0 0 1.291 1.924 2.1 2.1 0 0 0 1.785-.092c.12-.1.3-.043.377.08l3.205 3.479c-.27.387-.454.85-.443 1.328a2.1 2.1 0 0 0 .904 1.709 2.09 2.09 0 0 0 2.162.125c.125-.1.304-.032.381.094 1.171 1.272 2.349 2.538 3.514 3.816 1.89 2.163 3.172 4.865 3.58 7.713.136.923.17 1.859.139 2.79.001.44.09.92.423 1.235.544.55 1.325.806 2.086.828.99.039 1.967-.22 2.88-.586 1.345-.55 2.578-1.353 3.685-2.29a16.5 16.5 0 0 0 1.996-2.012c.129-.156.272-.335.4-.504q.21-.276.397-.551c.36-.524.684-1.078.949-1.648.387-.833.673-1.732.697-2.657.02-.738-.176-1.507-.666-2.074-.29-.357-.763-.483-1.203-.52-.419-.033-.839-.043-1.256-.099-2.805-.321-5.5-1.475-7.703-3.236a15.6 15.6 0 0 1-1.92-1.81l-6.197-6.663c.256-.388.425-.846.408-1.316a2.1 2.1 0 0 0-.902-1.68 2.11 2.11 0 0 0-2.215-.106c-.125.05-.236-.043-.305-.138q-2.453-2.633-4.904-5.268l1.144-1.06c.28.29.538.601.83.879.247.183.65.069.75-.225a.52.52 0 0 0-.152-.58q-8.65-9.35-17.306-18.697a.504.504 0 0 0-.77.12.516.516 0 0 0 .113.635l1.782 1.926-1.186 1.096q-4.658-5.008-9.318-10.012c-1.197-1.017-2.451-1.974-3.791-2.795-.727-.437-1.489-.842-2.315-1.052m-1.045.978c.29-.098.604-.077.893.01.658.187 1.27.51 1.855.86 1.091.656 2.116 1.417 3.106 2.218.223.188.458.364.668.566l2.476 2.663-.127.117-3.357 3.11c-.845-.919-1.695-1.834-2.535-2.755-.894-1.29-1.733-2.622-2.406-4.04-.295-.633-.57-1.287-.668-1.981a1.36 1.36 0 0 1 .095-.768m5.356 4.193a.51.51 0 0 0-.69.075c-.326.309-.67.601-.982.923a.52.52 0 0 0 .096.68c.456.489.902.988 1.367 1.469a.51.51 0 0 0 .693-.074c.324-.308.667-.598.979-.918a.5.5 0 0 0 .093-.3c.003-.249-.216-.408-.365-.58-.398-.425-.786-.859-1.191-1.275m4.322 2.854 2.723 2.926-.127.119-3.373 3.123-2.711-2.94zm3.402 3.656 2.768 2.975c-.42-.079-.835-.177-1.256-.242a2.1 2.1 0 0 0-1.834.728 2.12 2.12 0 0 0-.418 1.9l.233 1.106c.396.111.797.229 1.183.344.55.167 1.166.1 1.66-.194a2.08 2.08 0 0 0 1.03-1.656c.028-.35-.057-.697-.088-1.045l-.057-.453 3.941 4.234c-.424-.083-.847-.184-1.273-.257a2.1 2.1 0 0 0-1.875.756 2.11 2.11 0 0 0-.395 1.878l.237 1.094c.416.118.828.25 1.244.37.621.173 1.315.03 1.824-.37a2.1 2.1 0 0 0 .799-1.82c-.049-.407-.11-.814-.162-1.22l3.43 3.687-.352.03c-.377.033-.76.053-1.117.19a2.88 2.88 0 0 0-1.78 1.827c-.14.421-.149.868-.214 1.304-.014.066-.098-.089-.141-.115l-10.89-11.807zm5.252 1.813 8.528 9.215-.127.117-1.034.957-8.55-9.194zm-3.648 1.953c.258.079.487.248.619.488.11.184.162.4.152.613a1.1 1.1 0 0 1-.968 1.032 1.104 1.104 0 0 1-1.174-.768 1.1 1.1 0 0 1 .582-1.312c.244-.12.53-.132.789-.053m4.31 4.695c.256.066.487.218.631.443a1.098 1.098 0 0 1-.793 1.704 1.11 1.11 0 0 1-1.168-.782 1.11 1.11 0 0 1 .56-1.289c.237-.122.515-.142.77-.076m8.543 3.299 4.196 4.531-.127.117-1.02.946-4.207-4.522zm-4.037 1.107c.395-.007.776.12 1.16.196-.495.465-1.003.917-1.49 1.39-.196.24-.095.647.195.76.205.09.455.023.598-.146l1.373-1.27c.038.33.115.658.117.992v.037a1.9 1.9 0 0 1-1.228 1.702 1.91 1.91 0 0 1-2.037-.477 1.9 1.9 0 0 1-.367-2.023 1.9 1.9 0 0 1 1.68-1.16m3.037 1.598 2.434 2.617-.354.03c-.372.029-.751.045-1.105.175a2.88 2.88 0 0 0-1.805 1.805c-.149.424-.158.877-.222 1.318.01.137-.073-.008-.12-.047l-2.48-2.689c.548-.034 1.117 0 1.64-.195a2.89 2.89 0 0 0 1.88-2.21zm1.735 3.672c.322-.031.64.054.95.121.113.048.145.2.065.293-.41.394-.84.766-1.246 1.166-.193.237-.097.637.186.756a.52.52 0 0 0 .607-.14l1.371-1.27c.038.326.117.649.121.978v.051a1.9 1.9 0 0 1-1.22 1.697 1.91 1.91 0 0 1-2.02-.445 1.9 1.9 0 0 1-.42-1.982 1.9 1.9 0 0 1 1.606-1.225m3.134 1.562 4.256 4.577c-.166.373-.284.78-.246 1.193.006.134.04.304.074.422.112.34.185.689.274 1.035.373.122.747.244 1.111.389.465.146.977.114 1.43-.057.123-.022.216.073.283.162q2.043 2.194 4.084 4.389l-.127.117-3.514 3.254-1.152-1.25c.068-.17.132-.324.178-.506a2.12 2.12 0 0 0-.1-1.32l-.197-.793c-.282-.1-.573-.18-.85-.293a2.12 2.12 0 0 0-1.627-.063c-.134.03-.23-.08-.306-.172l-3.305-3.584c.164-.382.27-.798.22-1.216a2.6 2.6 0 0 0-.12-.52 2 2 0 0 1-.073-.248l-.154-.62c-.354-.118-.713-.225-1.056-.374a2.18 2.18 0 0 0-1.422.016c-.135.022-.22-.094-.297-.182l-1.035-1.123c.552-.027 1.123.01 1.652-.184.361-.124.685-.335.992-.556.316-.344.608-.725.766-1.168.158-.425.183-.882.261-1.325m-.584 2.8c-.075.014-.166.01-.166.11-.068.19-.139.416-.017.6.135.195.322.348.473.53.225.265.413.56.634.828.281.238.583.454.819.74.735.797 1.476 1.591 2.207 2.392.1.142.25.24.355.377.756.821 1.522 1.635 2.272 2.461.17.235.332.475.506.705.297.251.623.476.873.778.293.31.57.632.87.93.24.183.633.082.749-.2a.5.5 0 0 0 .04-.219c.003-.169-.1-.309-.218-.42-1.356-1.465-2.715-2.929-4.066-4.398-.184-.235-.358-.478-.547-.707-.227-.209-.47-.401-.686-.621-1.176-1.27-2.349-2.543-3.53-3.809-.154-.138-.38-.133-.567-.078m7.006 1.779c.258.08.487.251.618.492a1.1 1.1 0 0 1 .148.6c-.012.54-.486 1.024-1.027 1.044-.513.039-1.022-.332-1.133-.836a1.105 1.105 0 0 1 .605-1.256c.246-.118.532-.125.79-.044m-7.83.845c.26.045.504.178.666.389a1.096 1.096 0 0 1-.621 1.76 1.105 1.105 0 0 1-1.238-.633c-.22-.482-.024-1.11.435-1.375.225-.142.5-.186.758-.14m6.059 6.7c.266.007.528.104.719.294.221.208.351.511.345.815a1.1 1.1 0 0 1-.744 1.023c-.471.163-1.042-.04-1.293-.474a1.11 1.11 0 0 1 .237-1.405c.201-.177.47-.26.736-.254m7.295.716 1.494 1.606-.127.117-3.525 3.262L51.2 62.57zm2.19 2.32c.471.436.955.856 1.464 1.239a16.2 16.2 0 0 0 7.008 3.066c.497.086 1.017.15 1.527.188.313.033.656.01.969.101.09.026.17.066.219.149.316.393.415.916.4 1.41-.04.957-.404 1.867-.848 2.705-.797 1.475-1.921 2.753-3.187 3.844-1.119.955-2.372 1.774-3.758 2.283-.773.28-1.603.473-2.43.383-.457-.055-.913-.238-1.23-.582-.12-.422-.035-.862-.055-1.293a15.6 15.6 0 0 0-1.164-5.785 16 16 0 0 0-1.431-2.723c-.29-.445-.614-.887-.95-1.307l-.214-.271zm1.952 3.034c-.254-.152-.624-.023-.716.261a.52.52 0 0 0 .2.6 4.8 4.8 0 0 0 1.061.711c.285.09.62-.128.637-.43.003-.022 0-.044.002-.066-.002-.218-.168-.398-.36-.48a5.7 5.7 0 0 1-.824-.596m2.66 1.443c-.28-.132-.648.07-.687.379a.52.52 0 0 0 .305.547 9 9 0 0 0 1.912.826c.21.063.45.126.674.178.406.093.82.164 1.224.217.604.077 1.225.119 1.84.183a.5.5 0 0 0 .565-.515.514.514 0 0 0-.518-.483c-1.085-.108-2.183-.166-3.238-.46a8.3 8.3 0 0 1-2.076-.872" style="stroke-width:.624741;stroke-dasharray:none" transform="translate(.281 -7.668)scale(1.24296)"/>
</svg>
