<?xml version="1.0" encoding="UTF-8" standalone="no"?>
<!-- Uploaded to: SVG Repo, www.svgrepo.com, Generator: SVG Repo Mixer Tools -->

<svg
   fill="#000000"
   height="100"
   width="100"
   version="1.1"
   id="Capa_1"
   viewBox="0 0 100 100"
   xml:space="preserve"
   sodipodi:docname="clarinet_1.svg"
   inkscape:version="1.3.2 (091e20e, 2023-11-25)"
   xmlns:inkscape="http://www.inkscape.org/namespaces/inkscape"
   xmlns:sodipodi="http://sodipodi.sourceforge.net/DTD/sodipodi-0.dtd"
   xmlns="http://www.w3.org/2000/svg"
   xmlns:svg="http://www.w3.org/2000/svg"><defs
   id="defs1" /><sodipodi:namedview
   id="namedview1"
   pagecolor="#ffffff"
   bordercolor="#000000"
   borderopacity="0.25"
   inkscape:showpageshadow="2"
   inkscape:pageopacity="0.0"
   inkscape:pagecheckerboard="0"
   inkscape:deskcolor="#d1d1d1"
   inkscape:zoom="3.6130122"
   inkscape:cx="28.231291"
   inkscape:cy="66.703345"
   inkscape:window-width="1320"
   inkscape:window-height="839"
   inkscape:window-x="57"
   inkscape:window-y="25"
   inkscape:window-maximized="0"
   inkscape:current-layer="Capa_1" />
<path
   id="path1"
   style="stroke-width:0.624741;stroke-dasharray:none"
   sodipodi:type="inkscape:offset"
   inkscape:radius="0"
   inkscape:original="M 12.535156 14.976562 C 12.064089 14.861979 11.532995 14.825259 11.095703 15.070312 C 10.691295 15.297016 10.426036 15.736842 10.394531 16.197266 C 10.329501 16.844933 10.516458 17.48432 10.726562 18.089844 C 11.089233 19.078283 11.582781 20.013412 12.111328 20.921875 C 12.613643 21.771097 13.142886 22.60111 13.716797 23.402344 C 22.363767 32.780509 31.014013 42.156078 39.662109 51.533203 C 39.386671 51.922404 39.198464 52.388552 39.208984 52.871094 C 39.201084 53.694234 39.737679 54.487687 40.5 54.794922 C 41.068592 55.028491 41.746296 55.003149 42.285156 54.703125 C 42.404191 54.603815 42.584515 54.659653 42.662109 54.783203 C 43.729393 55.943158 44.798845 57.102694 45.867188 58.261719 C 45.596834 58.649498 45.412584 59.111464 45.423828 59.589844 C 45.418128 60.253738 45.772986 60.922515 46.328125 61.298828 C 46.950502 61.735496 47.823448 61.79045 48.490234 61.423828 C 48.614564 61.323938 48.794311 61.391868 48.871094 61.517578 C 50.0425 62.789897 51.219831 64.056008 52.384766 65.333984 C 54.274296 67.497067 55.557014 70.198857 55.964844 73.046875 C 56.100937 73.970322 56.135774 74.905728 56.103516 75.837891 C 56.105016 76.27755 56.193891 76.757761 56.527344 77.072266 C 57.071173 77.622147 57.852131 77.878363 58.613281 77.900391 C 59.60337 77.938821 60.579652 77.679466 61.492188 77.314453 C 62.837896 76.764731 64.070824 75.960899 65.177734 75.023438 C 65.897692 74.410297 66.569575 73.739468 67.173828 73.011719 C 67.302581 72.855834 67.44578 72.67747 67.574219 72.507812 C 67.713284 72.324506 67.846733 72.140377 67.970703 71.957031 C 68.330716 71.432673 68.654627 70.879083 68.919922 70.308594 C 69.306706 69.475605 69.592565 68.576875 69.617188 67.652344 C 69.637816 66.914408 69.440897 66.145323 68.951172 65.578125 C 68.661443 65.221456 68.188034 65.094789 67.748047 65.058594 C 67.329088 65.025464 66.909233 65.014631 66.492188 64.958984 C 63.68685 64.637518 60.991467 63.484401 58.789062 61.722656 C 58.097324 61.177028 57.459054 60.566147 56.869141 59.912109 C 54.803241 57.691342 52.737793 55.47075 50.671875 53.25 C 50.928379 52.861993 51.09722 52.403631 51.080078 51.933594 C 51.076878 51.279407 50.721941 50.62708 50.177734 50.253906 C 49.539169 49.802301 48.640747 49.762769 47.962891 50.148438 C 47.838353 50.197828 47.727106 50.104891 47.658203 50.009766 C 46.023403 48.254025 44.388014 46.498618 42.753906 44.742188 C 43.135272 44.389226 43.517074 44.034603 43.898438 43.681641 C 44.17835 43.971481 44.436454 44.283107 44.728516 44.560547 C 44.975423 44.744359 45.37711 44.629536 45.478516 44.335938 C 45.558996 44.134318 45.489707 43.894935 45.326172 43.755859 C 39.557548 37.523119 33.790574 31.288997 28.019531 25.058594 C 27.800213 24.844255 27.392741 24.907723 27.25 25.179688 C 27.132895 25.385081 27.183489 25.661805 27.363281 25.814453 C 27.957165 26.455989 28.550676 27.098672 29.144531 27.740234 C 28.749095 28.106053 28.354614 28.470325 27.958984 28.835938 C 24.852848 25.49801 21.749487 22.159395 18.640625 18.824219 C 17.444352 17.806542 16.190045 16.850146 14.849609 16.029297 C 14.123113 15.592303 13.361324 15.187326 12.535156 14.976562 z M 11.490234 15.955078 C 11.779623 15.857158 12.093595 15.878444 12.382812 15.964844 C 13.041402 16.151726 13.652607 16.475439 14.238281 16.824219 C 15.329202 17.481386 16.354491 18.242397 17.34375 19.042969 C 17.567208 19.230471 17.801765 19.407164 18.011719 19.609375 C 18.837392 20.497046 19.662724 21.383705 20.488281 22.271484 C 20.445981 22.310634 20.40364 22.349516 20.361328 22.388672 C 19.24173 23.424705 18.123701 24.462227 17.003906 25.498047 C 16.159307 24.580452 15.308853 23.66538 14.46875 22.744141 C 13.575275 21.454469 12.736435 20.122189 12.0625 18.703125 C 11.768378 18.071455 11.493501 17.417014 11.394531 16.722656 C 11.356911 16.464059 11.378944 16.193986 11.490234 15.955078 z M 16.845703 20.148438 C 16.642825 19.986204 16.322024 20.026033 16.15625 20.222656 C 15.830273 20.532041 15.486658 20.824063 15.173828 21.146484 C 15.024795 21.354391 15.075931 21.663765 15.269531 21.826172 C 15.726243 22.314685 16.17221 22.814071 16.636719 23.294922 C 16.839374 23.460428 17.163286 23.418926 17.330078 23.220703 C 17.654453 22.912829 17.996882 22.623048 18.308594 22.302734 C 18.370454 22.216024 18.403894 22.110366 18.402344 22.003906 C 18.405444 21.754034 18.18569 21.594505 18.037109 21.423828 C 17.638583 20.998028 17.251083 20.564052 16.845703 20.148438 z M 21.167969 23.001953 C 22.075705 23.977444 22.983103 24.952044 23.890625 25.927734 C 23.848325 25.966884 23.805983 26.007708 23.763672 26.046875 L 20.390625 29.169922 C 19.487274 28.190217 18.583042 27.210177 17.679688 26.230469 C 18.842595 25.154414 20.004866 24.077796 21.167969 23.001953 z M 24.570312 26.658203 C 25.492752 27.64944 26.415554 28.641477 27.337891 29.632812 C 26.918794 29.554192 26.503318 29.456307 26.082031 29.390625 C 25.399709 29.306585 24.688406 29.592717 24.248047 30.119141 C 23.807776 30.634361 23.654049 31.367291 23.830078 32.019531 C 23.907188 32.388103 23.985274 32.756452 24.0625 33.125 C 24.458744 33.236014 24.859629 33.353617 25.246094 33.46875 C 25.795365 33.635547 26.411693 33.568797 26.90625 33.275391 C 27.497527 32.94061 27.892905 32.295992 27.935547 31.619141 C 27.964247 31.268145 27.879186 30.922113 27.847656 30.574219 C 27.829156 30.423119 27.809516 30.272193 27.791016 30.121094 C 29.104325 31.532746 30.419143 32.943791 31.732422 34.355469 C 31.307959 34.271689 30.885309 34.170693 30.458984 34.097656 C 29.759889 34.010016 29.024655 34.301337 28.583984 34.853516 C 28.15943 35.368507 28.012275 36.090066 28.189453 36.732422 C 28.268343 37.096504 28.34711 37.462041 28.425781 37.826172 C 28.841907 37.943718 29.25416 38.076901 29.669922 38.195312 C 30.29124 38.36891 30.985092 38.22608 31.494141 37.826172 C 32.047446 37.40652 32.349584 36.69498 32.292969 36.005859 C 32.244369 35.598752 32.183085 35.192015 32.130859 34.785156 C 33.274317 36.0138 34.417328 37.243791 35.560547 38.472656 C 35.443658 38.483166 35.325873 38.493396 35.208984 38.503906 C 34.832336 38.536366 34.448683 38.556281 34.091797 38.693359 C 33.258363 38.982515 32.57647 39.676402 32.3125 40.519531 C 32.171808 40.941171 32.163005 41.388003 32.097656 41.824219 C 32.084286 41.889809 31.999934 41.735338 31.957031 41.708984 C 28.326386 37.773016 24.697897 33.839121 21.066406 29.902344 C 22.234569 28.821423 23.401952 27.738912 24.570312 26.658203 z M 29.822266 28.470703 C 32.664983 31.54218 35.506892 34.614072 38.349609 37.685547 C 38.307389 37.724627 38.264863 37.763665 38.222656 37.802734 C 37.878015 38.121571 37.534285 38.441138 37.189453 38.759766 C 34.338918 35.695838 31.488992 32.630533 28.638672 29.566406 C 29.033346 29.201127 29.427592 28.835983 29.822266 28.470703 z M 26.173828 30.423828 C 26.431825 30.502944 26.660756 30.672386 26.792969 30.912109 C 26.902757 31.095543 26.954861 31.312288 26.945312 31.525391 C 26.928732 32.04334 26.492835 32.507388 25.976562 32.556641 C 25.468802 32.623521 24.943617 32.282649 24.802734 31.789062 C 24.639362 31.287472 24.901035 30.69077 25.384766 30.476562 C 25.629254 30.356372 25.915831 30.344712 26.173828 30.423828 z M 30.484375 35.119141 C 30.739551 35.185193 30.971143 35.337212 31.115234 35.5625 C 31.246626 35.756451 31.312033 35.992661 31.300781 36.226562 C 31.286971 36.751033 30.845066 37.221653 30.322266 37.265625 C 29.813358 37.326665 29.29019 36.979501 29.154297 36.484375 C 29.003593 35.99399 29.251616 35.418602 29.714844 35.195312 C 29.950979 35.073021 30.229199 35.053088 30.484375 35.119141 z M 39.027344 38.417969 C 40.425746 39.928875 41.824251 41.438313 43.222656 42.949219 C 43.180436 42.988299 43.137909 43.027336 43.095703 43.066406 C 42.75564 43.381003 42.416425 43.697328 42.076172 44.011719 C 40.673857 42.504512 39.271243 40.997639 37.869141 39.490234 L 39.027344 38.417969 z M 34.990234 39.525391 C 35.385446 39.518491 35.766437 39.644975 36.150391 39.720703 C 35.65543 40.185908 35.147236 40.638185 34.660156 41.111328 C 34.463734 41.351195 34.565137 41.757954 34.855469 41.871094 C 35.060349 41.961034 35.310129 41.893626 35.453125 41.724609 C 35.910587 41.301157 36.368673 40.878486 36.826172 40.455078 C 36.863862 40.785885 36.941351 41.113321 36.943359 41.447266 C 36.943119 41.459956 36.943801 41.471685 36.943359 41.484375 C 36.925369 42.230108 36.416919 42.933589 35.714844 43.185547 C 35.021589 43.449011 34.180323 43.256719 33.677734 42.708984 C 33.173475 42.182941 33.023113 41.355401 33.310547 40.685547 C 33.582936 40.016967 34.26766 39.541688 34.990234 39.525391 z M 38.027344 41.123047 C 38.8388 41.995472 39.649496 42.867798 40.460938 43.740234 C 40.342695 43.749934 40.225665 43.759881 40.107422 43.769531 C 39.73547 43.798621 39.355897 43.814711 39.001953 43.945312 C 38.163401 44.22392 37.472056 44.908565 37.197266 45.75 C 37.047977 46.174366 37.039068 46.627297 36.974609 47.068359 C 36.984209 47.205114 36.902422 47.059914 36.855469 47.021484 C 36.028586 46.125115 35.201742 45.22853 34.375 44.332031 C 34.923433 44.298391 35.49173 44.331514 36.015625 44.136719 C 36.977178 43.807078 37.727341 42.931976 37.894531 41.927734 C 37.939791 41.659981 37.982025 41.390809 38.027344 41.123047 z M 39.761719 44.794922 C 40.083516 44.763942 40.401909 44.848881 40.712891 44.916016 C 40.825388 44.964406 40.857278 45.116451 40.777344 45.208984 C 40.367808 45.603197 39.936149 45.975441 39.53125 46.375 C 39.338133 46.611614 39.434113 47.011646 39.716797 47.130859 C 39.922546 47.226699 40.179183 47.162049 40.324219 46.990234 C 40.781429 46.567156 41.238141 46.143821 41.695312 45.720703 C 41.733393 46.046767 41.812292 46.370047 41.816406 46.699219 C 41.816133 46.715989 41.816794 46.73322 41.816406 46.75 C 41.798606 47.492591 41.293437 48.192935 40.595703 48.447266 C 39.912786 48.709949 39.08312 48.532097 38.576172 48.001953 C 38.070578 47.49488 37.900656 46.688635 38.15625 46.019531 C 38.398874 45.348683 39.049617 44.849272 39.761719 44.794922 z M 42.896484 46.357422 C 44.315856 47.882684 45.733041 49.408271 47.152344 50.933594 C 46.986377 51.307222 46.86779 51.714209 46.90625 52.126953 C 46.91165 52.261214 46.946259 52.430665 46.980469 52.548828 C 47.092406 52.888618 47.164582 53.237853 47.253906 53.583984 C 47.626883 53.705842 48.000521 53.82783 48.365234 53.972656 C 48.830101 54.118751 49.341687 54.086771 49.794922 53.916016 C 49.918346 53.894226 50.0107 53.989153 50.078125 54.078125 C 51.440546 55.53993 52.80078 57.003908 54.162109 58.466797 C 54.119809 58.505947 54.077466 58.544829 54.035156 58.583984 C 52.863431 59.6682 51.693402 60.753887 50.521484 61.837891 C 50.137323 61.421813 49.753176 61.004084 49.369141 60.587891 C 49.436781 60.417762 49.500599 60.263584 49.546875 60.082031 C 49.660388 59.646158 49.615646 59.177613 49.447266 58.761719 C 49.381236 58.497425 49.316078 58.233031 49.25 57.96875 C 48.967919 57.86895 48.677138 57.788925 48.400391 57.675781 C 47.89553 57.437504 47.294807 57.419029 46.773438 57.613281 C 46.639364 57.643831 46.543554 57.532398 46.466797 57.441406 C 45.365417 56.24688 44.263304 55.052116 43.162109 53.857422 C 43.325565 53.475287 43.432782 53.058546 43.382812 52.640625 C 43.362882 52.464042 43.317355 52.28956 43.261719 52.121094 C 43.236009 52.058944 43.207793 51.954039 43.189453 51.873047 C 43.137853 51.666418 43.086867 51.460504 43.035156 51.253906 C 42.681078 51.134645 42.321645 51.027585 41.978516 50.878906 C 41.521369 50.718687 41.011367 50.737274 40.556641 50.894531 C 40.422343 50.916531 40.33688 50.800788 40.259766 50.712891 C 39.914512 50.338746 39.569908 49.963945 39.224609 49.589844 C 39.777131 49.562594 40.348447 49.599792 40.876953 49.40625 C 41.238479 49.282494 41.561722 49.071462 41.869141 48.849609 C 42.18482 48.506463 42.476583 48.125389 42.634766 47.681641 C 42.792828 47.256719 42.818392 46.800468 42.896484 46.357422 z M 42.3125 49.15625 C 42.23677 49.17065 42.146149 49.167128 42.146484 49.267578 C 42.078024 49.456716 42.007091 49.683499 42.128906 49.867188 C 42.263871 50.061633 42.45091 50.214606 42.601562 50.396484 C 42.826541 50.661726 43.014655 50.957929 43.236328 51.224609 C 43.517243 51.462698 43.818963 51.678859 44.054688 51.964844 C 44.790396 52.762096 45.530792 53.556302 46.261719 54.357422 C 46.362138 54.499493 46.511283 54.59611 46.617188 54.734375 C 47.373401 55.554988 48.138823 56.369467 48.888672 57.195312 C 49.058315 57.429803 49.220813 57.669723 49.394531 57.900391 C 49.692455 58.151177 50.017662 58.375524 50.267578 58.677734 C 50.560801 58.988771 50.837192 59.310137 51.138672 59.607422 C 51.378499 59.790646 51.771163 59.689724 51.886719 59.408203 C 51.917669 59.339213 51.928964 59.2648 51.927734 59.189453 C 51.930434 59.020119 51.826346 58.880318 51.708984 58.769531 C 50.353298 57.303506 48.994497 55.840406 47.642578 54.371094 C 47.459277 54.136477 47.284893 53.893203 47.095703 53.664062 C 46.869038 53.455407 46.626164 53.262516 46.410156 53.042969 C 45.233949 51.773329 44.061067 50.500098 42.880859 49.234375 C 42.725989 49.096441 42.500314 49.100783 42.3125 49.15625 z M 49.318359 50.935547 C 49.575659 51.016481 49.804825 51.187235 49.935547 51.427734 C 50.041818 51.60758 50.092174 51.818946 50.083984 52.027344 C 50.072414 52.56863 49.598131 53.051742 49.056641 53.072266 C 48.54447 53.110786 48.034781 52.739956 47.923828 52.236328 C 47.796133 51.744563 48.062029 51.184094 48.529297 50.980469 C 48.77469 50.862422 49.06106 50.854613 49.318359 50.935547 z M 41.488281 51.78125 C 41.74723 51.826246 41.992055 51.958858 42.154297 52.169922 C 42.313425 52.366913 42.401299 52.621665 42.396484 52.875 C 42.396845 53.369981 42.018844 53.8314 41.533203 53.929688 C 41.039635 54.04368 40.488604 53.766654 40.294922 53.296875 C 40.075879 52.815071 40.270971 52.187925 40.730469 51.921875 C 40.954818 51.779848 41.229333 51.736254 41.488281 51.78125 z M 47.546875 58.480469 C 47.812751 58.487709 48.074631 58.585414 48.265625 58.775391 C 48.48711 58.98267 48.617349 59.286239 48.611328 59.589844 C 48.608528 60.042855 48.299925 60.474411 47.867188 60.613281 C 47.395901 60.776321 46.824587 60.572951 46.574219 60.138672 C 46.299621 59.69583 46.404393 59.062794 46.810547 58.734375 C 47.012359 58.557088 47.280999 58.473229 47.546875 58.480469 z M 54.841797 59.197266 C 55.339596 59.732216 55.838349 60.267586 56.335938 60.802734 C 56.293638 60.841884 56.251295 60.880767 56.208984 60.919922 C 55.033968 62.007127 53.858805 63.094647 52.683594 64.181641 C 52.187991 63.644734 51.692656 63.107416 51.197266 62.570312 C 52.412397 61.445926 53.626473 60.321441 54.841797 59.197266 z M 57.03125 61.517578 C 57.503058 61.952844 57.986587 62.372659 58.496094 62.755859 C 60.546333 64.312508 62.96511 65.384963 65.503906 65.822266 C 66.000505 65.908126 66.521158 65.972174 67.03125 66.009766 C 67.344352 66.042826 67.687197 66.01936 68 66.111328 C 68.08905 66.136598 68.17071 66.177073 68.21875 66.259766 C 68.535232 66.653001 68.634361 67.176393 68.619141 67.669922 C 68.578121 68.627346 68.214614 69.537189 67.771484 70.375 C 66.974132 71.849545 65.84955 73.128227 64.583984 74.21875 C 63.46531 75.174135 62.211902 75.99264 60.826172 76.501953 C 60.05311 76.782211 59.222629 76.975072 58.396484 76.884766 C 57.938865 76.829796 57.4827 76.647195 57.166016 76.302734 C 57.046722 75.880604 57.131398 75.440524 57.111328 75.009766 C 57.11098 74.780041 57.100154 74.52368 57.089844 74.296875 C 57.008584 72.791883 56.707167 71.299775 56.199219 69.880859 C 56.122649 69.672294 56.036432 69.439414 55.947266 69.224609 C 55.695398 68.607251 55.402793 68.007059 55.076172 67.425781 C 54.906045 67.123701 54.713738 66.806054 54.515625 66.501953 C 54.225343 66.057392 53.901989 65.615144 53.566406 65.195312 C 53.494456 65.104653 53.42351 65.014493 53.351562 64.923828 C 54.577872 63.788393 55.804743 62.652803 57.03125 61.517578 z M 58.984375 64.550781 C 58.729868 64.398508 58.359972 64.527551 58.267578 64.8125 C 58.187448 65.029272 58.278731 65.284907 58.46875 65.412109 C 58.791692 65.689549 59.144443 65.939871 59.529297 66.123047 C 59.813748 66.212697 60.148148 65.994812 60.166016 65.693359 C 60.169016 65.671269 60.166669 65.649183 60.167969 65.626953 C 60.166369 65.408613 60.000303 65.229002 59.808594 65.146484 C 59.511343 64.979987 59.246077 64.766582 58.984375 64.550781 z M 61.644531 65.994141 C 61.363736 65.862131 60.995542 66.063566 60.957031 66.373047 C 60.920991 66.59822 61.05311 66.829969 61.261719 66.919922 C 61.86301 67.271607 62.507795 67.54372 63.173828 67.746094 C 63.38453 67.809034 63.623291 67.872361 63.847656 67.923828 C 64.253653 68.017428 64.667101 68.088073 65.072266 68.140625 C 65.675527 68.218115 66.297221 68.259937 66.912109 68.324219 C 67.165184 68.364569 67.421156 68.17892 67.466797 67.927734 C 67.475597 67.888444 67.477664 67.848714 67.476562 67.808594 C 67.471564 67.541943 67.222373 67.318797 66.958984 67.326172 C 65.873869 67.218464 64.776236 67.159965 63.720703 66.865234 C 62.993713 66.670894 62.292634 66.376184 61.644531 65.994141 z "
   d="m 12.535156,14.976562 c -0.471067,-0.114583 -1.002161,-0.151303 -1.439453,0.09375 -0.404408,0.226704 -0.669667,0.66653 -0.701172,1.126954 -0.06503,0.647667 0.121927,1.287054 0.332031,1.892578 0.362671,0.988439 0.856219,1.923568 1.384766,2.832031 0.502315,0.849222 1.031558,1.679235 1.605469,2.480469 8.64697,9.378165 17.297216,18.753734 25.945312,28.130859 -0.275438,0.389201 -0.463645,0.855349 -0.453125,1.337891 -0.0079,0.82314 0.528695,1.616593 1.291016,1.923828 0.568592,0.233569 1.246296,0.208227 1.785156,-0.0918 0.119035,-0.09931 0.299359,-0.04347 0.376953,0.08008 1.067284,1.159955 2.136736,2.319491 3.205079,3.478516 -0.270354,0.387779 -0.454604,0.849745 -0.44336,1.328125 -0.0057,0.663894 0.349158,1.332671 0.904297,1.708984 0.622377,0.436668 1.495323,0.491622 2.162109,0.125 0.12433,-0.09989 0.304077,-0.03196 0.38086,0.09375 1.171406,1.272319 2.348737,2.53843 3.513672,3.816406 1.88953,2.163083 3.172248,4.864873 3.580078,7.712891 0.136093,0.923447 0.17093,1.858853 0.138672,2.791016 0.0015,0.439659 0.09038,0.91987 0.423828,1.234375 0.543829,0.549881 1.324787,0.806097 2.085937,0.828125 0.990089,0.03843 1.966371,-0.220925 2.878907,-0.585938 1.345708,-0.549722 2.578636,-1.353554 3.685546,-2.291015 0.719958,-0.613141 1.391841,-1.28397 1.996094,-2.011719 0.128753,-0.155885 0.271952,-0.334249 0.400391,-0.503907 0.139065,-0.183306 0.272514,-0.367435 0.396484,-0.550781 0.360013,-0.524358 0.683924,-1.077948 0.949219,-1.648437 0.386784,-0.832989 0.672643,-1.731719 0.697266,-2.65625 0.02063,-0.737936 -0.176291,-1.507021 -0.666016,-2.074219 -0.289729,-0.356669 -0.763138,-0.483336 -1.203125,-0.519531 -0.418959,-0.03313 -0.838814,-0.04396 -1.255859,-0.09961 -2.805338,-0.321466 -5.500721,-1.474583 -7.703126,-3.236328 -0.691738,-0.545628 -1.330008,-1.156509 -1.919921,-1.810547 -2.0659,-2.220767 -4.131348,-4.441359 -6.197266,-6.662109 0.256504,-0.388007 0.425345,-0.846369 0.408203,-1.316406 -0.0032,-0.654187 -0.358137,-1.306514 -0.902344,-1.679688 -0.638565,-0.451605 -1.536987,-0.491137 -2.214843,-0.105468 -0.124538,0.04939 -0.235785,-0.04355 -0.304688,-0.138672 -1.6348,-1.755741 -3.270189,-3.511148 -4.904297,-5.267578 0.381366,-0.352962 0.763168,-0.707585 1.144532,-1.060547 0.279912,0.28984 0.538016,0.601466 0.830078,0.878906 0.246907,0.183812 0.648594,0.06899 0.75,-0.224609 0.08048,-0.20162 0.01119,-0.441003 -0.152344,-0.580079 C 39.557548,37.523119 33.790574,31.288997 28.019531,25.058594 27.800213,24.844255 27.392741,24.907723 27.25,25.179688 c -0.117105,0.205393 -0.06651,0.482117 0.113281,0.634765 0.593884,0.641536 1.187395,1.284219 1.78125,1.925781 -0.395436,0.365819 -0.789917,0.730091 -1.185547,1.095704 -3.106136,-3.337928 -6.209497,-6.676543 -9.318359,-10.011719 -1.196273,-1.017677 -2.45058,-1.974073 -3.791016,-2.794922 -0.726496,-0.436994 -1.488285,-0.841971 -2.314453,-1.052735 z m -1.044922,0.978516 c 0.289389,-0.09792 0.603361,-0.07663 0.892578,0.0098 0.65859,0.186882 1.269795,0.510595 1.855469,0.859375 1.090921,0.657167 2.11621,1.418178 3.105469,2.21875 0.223458,0.187502 0.458015,0.364195 0.667969,0.566406 0.825673,0.887671 1.651005,1.77433 2.476562,2.662109 -0.0423,0.03915 -0.08464,0.07803 -0.126953,0.117188 -1.119598,1.036033 -2.237627,2.073555 -3.357422,3.109375 -0.844599,-0.917595 -1.695053,-1.832667 -2.535156,-2.753906 -0.893475,-1.289672 -1.732315,-2.621952 -2.40625,-4.041016 -0.294122,-0.63167 -0.568999,-1.286111 -0.667969,-1.980469 -0.03762,-0.258597 -0.01559,-0.52867 0.0957,-0.767578 z m 5.355469,4.19336 c -0.202878,-0.162234 -0.523679,-0.122405 -0.689453,0.07422 -0.325977,0.309385 -0.669592,0.601407 -0.982422,0.923828 -0.149033,0.207907 -0.0979,0.517281 0.0957,0.679688 0.456712,0.488513 0.902679,0.987899 1.367188,1.46875 0.202655,0.165506 0.526567,0.124004 0.693359,-0.07422 0.324375,-0.307874 0.666804,-0.597655 0.978516,-0.917969 0.06186,-0.08671 0.0953,-0.192368 0.09375,-0.298828 0.0031,-0.249872 -0.216654,-0.409401 -0.365235,-0.580078 -0.398526,-0.4258 -0.786026,-0.859776 -1.191406,-1.27539 z m 4.322266,2.853515 c 0.907736,0.975491 1.815134,1.950091 2.722656,2.925781 -0.0423,0.03915 -0.08464,0.07997 -0.126953,0.119141 l -3.373047,3.123047 c -0.903351,-0.979705 -1.807583,-1.959745 -2.710937,-2.939453 1.162907,-1.076055 2.325178,-2.152673 3.488281,-3.228516 z m 3.402343,3.65625 c 0.92244,0.991237 1.845242,1.983274 2.767579,2.974609 -0.419097,-0.07862 -0.834573,-0.176505 -1.25586,-0.242187 -0.682322,-0.08404 -1.393625,0.202092 -1.833984,0.728516 -0.440271,0.51522 -0.593998,1.24815 -0.417969,1.90039 0.07711,0.368572 0.155196,0.736921 0.232422,1.105469 0.396244,0.111014 0.797129,0.228617 1.183594,0.34375 0.549271,0.166797 1.165599,0.100047 1.660156,-0.193359 0.591277,-0.334781 0.986655,-0.979399 1.029297,-1.65625 0.0287,-0.350996 -0.05636,-0.697028 -0.08789,-1.044922 -0.0185,-0.1511 -0.03814,-0.302026 -0.05664,-0.453125 1.313309,1.411652 2.628127,2.822697 3.941406,4.234375 -0.424463,-0.08378 -0.847113,-0.184776 -1.273438,-0.257813 -0.699095,-0.08764 -1.434329,0.203681 -1.875,0.75586 -0.424554,0.514991 -0.571709,1.23655 -0.394531,1.878906 0.07889,0.364082 0.157657,0.729619 0.236328,1.09375 0.416126,0.117546 0.828379,0.250729 1.244141,0.36914 0.621318,0.173598 1.31517,0.03077 1.824219,-0.36914 0.553305,-0.419652 0.855443,-1.131192 0.798828,-1.820313 -0.0486,-0.407107 -0.109884,-0.813844 -0.16211,-1.220703 1.143458,1.228644 2.286469,2.458635 3.429688,3.6875 -0.116889,0.01051 -0.234674,0.02074 -0.351563,0.03125 -0.376648,0.03246 -0.760301,0.05237 -1.117187,0.189453 -0.833434,0.289156 -1.515327,0.983043 -1.779297,1.826172 -0.140692,0.42164 -0.149495,0.868472 -0.214844,1.304688 -0.01337,0.06559 -0.09772,-0.08888 -0.140625,-0.115235 -3.630645,-3.935968 -7.259134,-7.869863 -10.890625,-11.80664 1.168163,-1.080921 2.335546,-2.163432 3.503906,-3.244141 z m 5.251954,1.8125 c 2.842717,3.071477 5.684626,6.143369 8.527343,9.214844 -0.04222,0.03908 -0.08475,0.07812 -0.126953,0.117187 -0.344641,0.318837 -0.688371,0.638404 -1.033203,0.957032 -2.850535,-3.063928 -5.700461,-6.129233 -8.550781,-9.19336 0.394674,-0.365279 0.78892,-0.730423 1.183594,-1.095703 z m -3.648438,1.953125 c 0.257997,0.07912 0.486928,0.248558 0.619141,0.488281 0.109788,0.183434 0.161892,0.400179 0.152343,0.613282 -0.01658,0.517949 -0.452477,0.981997 -0.96875,1.03125 -0.50776,0.06688 -1.032945,-0.273992 -1.173828,-0.767579 -0.163372,-0.50159 0.0983,-1.098292 0.582032,-1.3125 0.244488,-0.12019 0.531065,-0.13185 0.789062,-0.05273 z m 4.310547,4.695313 c 0.255176,0.06605 0.486768,0.218071 0.630859,0.443359 0.131392,0.193951 0.196799,0.430161 0.185547,0.664062 -0.01381,0.524471 -0.455715,0.995091 -0.978515,1.039063 -0.508908,0.06104 -1.032076,-0.286124 -1.167969,-0.78125 -0.150704,-0.490385 0.09732,-1.065773 0.560547,-1.289063 0.236135,-0.122291 0.514355,-0.142224 0.769531,-0.07617 z m 8.542969,3.298828 c 1.398402,1.510906 2.796907,3.020344 4.195312,4.53125 -0.04222,0.03908 -0.08475,0.07812 -0.126953,0.117187 -0.340063,0.314597 -0.679278,0.630922 -1.019531,0.945313 -1.402315,-1.507207 -2.804929,-3.01408 -4.207031,-4.521485 z m -4.03711,1.107422 c 0.395212,-0.0069 0.776203,0.119584 1.160157,0.195312 -0.494961,0.465205 -1.003155,0.917482 -1.490235,1.390625 -0.196422,0.239867 -0.09502,0.646626 0.195313,0.759766 0.20488,0.08994 0.45466,0.02253 0.597656,-0.146485 0.457462,-0.423452 0.915548,-0.846123 1.373047,-1.269531 0.03769,0.330807 0.115179,0.658243 0.117187,0.992188 -2.4e-4,0.01269 4.42e-4,0.02442 0,0.03711 -0.01799,0.745733 -0.52644,1.449214 -1.228515,1.701172 -0.693255,0.263464 -1.534521,0.07117 -2.03711,-0.476563 -0.504259,-0.526043 -0.654621,-1.353583 -0.367187,-2.023437 0.272389,-0.66858 0.957113,-1.143859 1.679687,-1.160156 z m 3.03711,1.597656 c 0.811456,0.872425 1.622152,1.744751 2.433594,2.617187 -0.118243,0.0097 -0.235273,0.01965 -0.353516,0.0293 -0.371952,0.02909 -0.751525,0.04518 -1.105469,0.175781 -0.838552,0.278608 -1.529897,0.963253 -1.804687,1.804688 -0.149289,0.424366 -0.158198,0.877297 -0.222657,1.318359 0.0096,0.136755 -0.07219,-0.0084 -0.11914,-0.04687 -0.826883,-0.896369 -1.653727,-1.792954 -2.480469,-2.689453 0.548433,-0.03364 1.11673,-5.17e-4 1.640625,-0.195312 0.961553,-0.329641 1.711716,-1.204743 1.878906,-2.208985 0.04526,-0.267753 0.08749,-0.536925 0.132813,-0.804687 z m 1.734375,3.671875 c 0.321797,-0.03098 0.64019,0.05396 0.951172,0.121094 0.112497,0.04839 0.144387,0.200435 0.06445,0.292968 -0.409536,0.394213 -0.841195,0.766457 -1.246094,1.166016 -0.193117,0.236614 -0.09714,0.636646 0.185547,0.755859 0.205749,0.09584 0.462386,0.03119 0.607422,-0.140625 0.45721,-0.423078 0.913922,-0.846413 1.371093,-1.269531 0.03808,0.326064 0.11698,0.649344 0.121094,0.978516 -2.73e-4,0.01677 3.88e-4,0.034 0,0.05078 -0.0178,0.742591 -0.522969,1.442935 -1.220703,1.697266 -0.682917,0.262683 -1.512583,0.08483 -2.019531,-0.445313 -0.505594,-0.507073 -0.675516,-1.313318 -0.419922,-1.982422 0.242624,-0.670848 0.893367,-1.170259 1.605469,-1.224609 z m 3.134765,1.5625 c 1.419372,1.525262 2.836557,3.050849 4.25586,4.576172 -0.165967,0.373628 -0.284554,0.780615 -0.246094,1.193359 0.0054,0.134261 0.04001,0.303712 0.07422,0.421875 0.111937,0.33979 0.184113,0.689025 0.273437,1.035156 0.372977,0.121858 0.746615,0.243846 1.111328,0.388672 0.464867,0.146095 0.976453,0.114115 1.429688,-0.05664 0.123424,-0.02179 0.215778,0.07314 0.283203,0.162109 1.362421,1.461805 2.722655,2.925783 4.083984,4.388672 -0.0423,0.03915 -0.08464,0.07803 -0.126953,0.117187 -1.171725,1.084216 -2.341754,2.169903 -3.513672,3.253907 -0.384161,-0.416078 -0.768308,-0.833807 -1.152343,-1.25 0.06764,-0.170129 0.131458,-0.324307 0.177734,-0.50586 0.113513,-0.435873 0.06877,-0.904418 -0.09961,-1.320312 -0.06603,-0.264294 -0.131188,-0.528688 -0.197266,-0.792969 -0.282081,-0.0998 -0.572862,-0.179825 -0.849609,-0.292969 -0.504861,-0.238277 -1.105584,-0.256752 -1.626953,-0.0625 -0.134074,0.03055 -0.229884,-0.08088 -0.306641,-0.171875 -1.10138,-1.194526 -2.203493,-2.38929 -3.304688,-3.583984 0.163456,-0.382135 0.270673,-0.798876 0.220703,-1.216797 -0.01993,-0.176583 -0.06546,-0.351065 -0.121093,-0.519531 -0.02571,-0.06215 -0.05393,-0.167055 -0.07227,-0.248047 -0.0516,-0.206629 -0.102586,-0.412543 -0.154297,-0.619141 -0.354078,-0.119261 -0.713511,-0.226321 -1.05664,-0.375 -0.457147,-0.160219 -0.967149,-0.141632 -1.421875,0.01563 -0.134298,0.022 -0.219761,-0.09374 -0.296875,-0.18164 -0.345254,-0.374145 -0.689858,-0.748946 -1.035157,-1.123047 0.552522,-0.02725 1.123838,0.0099 1.652344,-0.183594 0.361526,-0.123756 0.684769,-0.334788 0.992188,-0.556641 0.315679,-0.343146 0.607442,-0.72422 0.765625,-1.167968 0.158062,-0.424922 0.183626,-0.881173 0.261718,-1.324219 z M 42.3125,49.15625 c -0.07573,0.0144 -0.166351,0.01088 -0.166016,0.111328 -0.06846,0.189138 -0.139393,0.415921 -0.01758,0.59961 0.134965,0.194445 0.322004,0.347418 0.472656,0.529296 0.224979,0.265242 0.413093,0.561445 0.634766,0.828125 0.280915,0.238089 0.582635,0.45425 0.81836,0.740235 0.735708,0.797252 1.476104,1.591458 2.207031,2.392578 0.100419,0.142071 0.249564,0.238688 0.355469,0.376953 0.756213,0.820613 1.521635,1.635092 2.271484,2.460937 0.169643,0.234491 0.332141,0.474411 0.505859,0.705079 0.297924,0.250786 0.623131,0.475133 0.873047,0.777343 0.293223,0.311037 0.569614,0.632403 0.871094,0.929688 0.239827,0.183224 0.632491,0.0823 0.748047,-0.199219 0.03095,-0.06899 0.04225,-0.143403 0.04102,-0.21875 0.0027,-0.169334 -0.101388,-0.309135 -0.21875,-0.419922 -1.355686,-1.466025 -2.714487,-2.929125 -4.066406,-4.398437 -0.183301,-0.234617 -0.357685,-0.477891 -0.546875,-0.707032 -0.226665,-0.208655 -0.469539,-0.401546 -0.685547,-0.621093 -1.176207,-1.26964 -2.349089,-2.542871 -3.529297,-3.808594 -0.15487,-0.137934 -0.380545,-0.133592 -0.568359,-0.07813 z m 7.005859,1.779297 c 0.2573,0.08093 0.486466,0.251688 0.617188,0.492187 0.106271,0.179846 0.156627,0.391212 0.148437,0.59961 -0.01157,0.541286 -0.485853,1.024398 -1.027343,1.044922 -0.512171,0.03852 -1.02186,-0.33231 -1.132813,-0.835938 -0.127695,-0.491765 0.138201,-1.052234 0.605469,-1.255859 0.245393,-0.118047 0.531763,-0.125856 0.789062,-0.04492 z m -7.830078,0.845703 c 0.258949,0.045 0.503774,0.177608 0.666016,0.388672 0.159128,0.196991 0.247002,0.451743 0.242187,0.705078 3.61e-4,0.494981 -0.37764,0.9564 -0.863281,1.054688 -0.493568,0.113992 -1.044599,-0.163034 -1.238281,-0.632813 -0.219043,-0.481804 -0.02395,-1.10895 0.435547,-1.375 0.224349,-0.142027 0.498864,-0.185621 0.757812,-0.140625 z m 6.058594,6.699219 c 0.265876,0.0072 0.527756,0.104945 0.71875,0.294922 0.221485,0.207279 0.351724,0.510848 0.345703,0.814453 -0.0028,0.453011 -0.311403,0.884567 -0.74414,1.023437 -0.471287,0.16304 -1.042601,-0.04033 -1.292969,-0.474609 -0.274598,-0.442842 -0.169826,-1.075878 0.236328,-1.404297 0.201812,-0.177287 0.470452,-0.261146 0.736328,-0.253906 z m 7.294922,0.716797 c 0.497799,0.53495 0.996552,1.07032 1.494141,1.605468 -0.0423,0.03915 -0.08464,0.07803 -0.126954,0.117188 -1.175016,1.087205 -2.350179,2.174725 -3.52539,3.261719 -0.495603,-0.536907 -0.990938,-1.074225 -1.486328,-1.611329 1.215131,-1.124386 2.429207,-2.248871 3.644531,-3.373046 z m 2.189453,2.320312 c 0.471808,0.435266 0.955337,0.855081 1.464844,1.238281 2.050239,1.556649 4.469016,2.629104 7.007812,3.066407 0.496599,0.08586 1.017252,0.149908 1.527344,0.1875 0.313102,0.03306 0.655947,0.0096 0.96875,0.101562 0.08905,0.02527 0.17071,0.06574 0.21875,0.148438 0.316482,0.393235 0.415611,0.916627 0.400391,1.410156 -0.04102,0.957424 -0.404527,1.867267 -0.847657,2.705078 -0.797352,1.474545 -1.921934,2.753227 -3.1875,3.84375 -1.118674,0.955385 -2.372082,1.77389 -3.757812,2.283203 -0.773062,0.280258 -1.603543,0.473119 -2.429688,0.382813 -0.457619,-0.05497 -0.913784,-0.237571 -1.230468,-0.582032 -0.119294,-0.42213 -0.03462,-0.86221 -0.05469,-1.292968 -3.48e-4,-0.229725 -0.01117,-0.486086 -0.02148,-0.712891 -0.08126,-1.504992 -0.382677,-2.9971 -0.890625,-4.416016 -0.07657,-0.208565 -0.162787,-0.441445 -0.251953,-0.65625 -0.251868,-0.617358 -0.544473,-1.21755 -0.871094,-1.798828 -0.170127,-0.30208 -0.362434,-0.619727 -0.560547,-0.923828 -0.290282,-0.444561 -0.613636,-0.886809 -0.949219,-1.306641 -0.07195,-0.09066 -0.142896,-0.180819 -0.214844,-0.271484 1.22631,-1.135435 2.453181,-2.271025 3.679688,-3.40625 z m 1.953125,3.033203 c -0.254507,-0.152273 -0.624403,-0.02323 -0.716797,0.261719 -0.08013,0.216772 0.01115,0.472407 0.201172,0.599609 0.322942,0.27744 0.675693,0.527762 1.060547,0.710938 0.284451,0.08965 0.618851,-0.128235 0.636719,-0.429688 0.003,-0.02209 6.53e-4,-0.04418 0.002,-0.06641 -0.0016,-0.21834 -0.167666,-0.397951 -0.359375,-0.480469 -0.297251,-0.166497 -0.562517,-0.379902 -0.824219,-0.595703 z m 2.660156,1.44336 c -0.280795,-0.13201 -0.648989,0.06942 -0.6875,0.378906 -0.03604,0.225173 0.09608,0.456922 0.304688,0.546875 0.601291,0.351685 1.246076,0.623798 1.912109,0.826172 0.210702,0.06294 0.449463,0.126267 0.673828,0.177734 0.405997,0.0936 0.819445,0.164245 1.22461,0.216797 0.603261,0.07749 1.224955,0.119312 1.839843,0.183594 0.253075,0.04035 0.509047,-0.145299 0.554688,-0.396485 0.0088,-0.03929 0.01087,-0.07902 0.0098,-0.11914 -0.005,-0.266651 -0.254189,-0.489797 -0.517578,-0.482422 -1.085115,-0.107708 -2.182748,-0.166207 -3.238281,-0.460938 -0.72699,-0.19434 -1.428069,-0.48905 -2.076172,-0.871093 z"
   transform="matrix(1.2429624,0,0,1.2429624,0.28147252,-7.6684067)" />
</svg>
