<svg xmlns="http://www.w3.org/2000/svg" xml:space="preserve" width="36.749" height="50">
    <path d="M25.367 50H11.382a6.195 6.195 0 0 1-5.784-4.01 126 126 0 0 1-3.225-9.887.5.5 0 0 1-.042-.154C1.07 31.39 0 26.297 0 22.138 0 13.34 1.598 9.844 4.245 4.054l.078-.17H2.156a.5.5 0 0 1-.501-.502V1.628C1.655.731 2.385 0 3.284 0h30.182c.898 0 1.628.73 1.628 1.628v1.754a.5.5 0 0 1-.501.502h-2.167l.077.169c2.648 5.791 4.246 9.286 4.246 18.084 0 4.16-1.07 9.253-2.33 13.811a.5.5 0 0 1-.043.155 126 126 0 0 1-3.224 9.887A6.195 6.195 0 0 1 25.367 50M6.31 45.022l.228.618a5.19 5.19 0 0 0 4.844 3.357h13.985a5.19 5.19 0 0 0 4.844-3.357l.228-.618zm-.363-1.003h24.855c.359-1.007.765-2.186 1.187-3.485l-2.46 1.627a.5.5 0 0 1-.553 0l-3.339-2.208-3.339 2.208a.5.5 0 0 1-.553 0l-3.338-2.208-3.339 2.208a.5.5 0 0 1-.553 0l-3.339-2.208-3.338 2.208a.5.5 0 0 1-.554 0l-2.543-1.682c.43 1.32.842 2.519 1.206 3.54m19.976-5.079 3.33 2.201 3.22-2.13c.262-.84.524-1.716.78-2.616H3.496c.25.881.507 1.739.763 2.562l3.303 2.184 3.329-2.201a.5.5 0 0 1 .285-.09h.001a.5.5 0 0 1 .286.09l3.329 2.201 3.329-2.2a.5.5 0 0 1 .286-.09.5.5 0 0 1 .286.09l3.33 2.2 3.328-2.2a.5.5 0 0 1 .286-.09.5.5 0 0 1 .286.09M3.216 35.392h30.317c1.207-4.411 2.213-9.28 2.213-13.255 0-8.58-1.564-12-4.155-17.667l-.268-.586h-2.715l4.295 9.561a1.55 1.55 0 0 1 1.205 1.509c0 .853-.694 1.547-1.547 1.547a1.55 1.55 0 0 1-1.546-1.547c0-.601.344-1.123.847-1.379l-4.03-8.969-4.029 8.969a1.547 1.547 0 0 1-.7 2.926 1.55 1.55 0 0 1-1.546-1.547c0-.601.344-1.123.847-1.379l-4.03-8.969-4.028 8.969a1.548 1.548 0 0 1-.7 2.926 1.55 1.55 0 0 1-1.547-1.547c0-.601.345-1.123.847-1.379L8.917 4.606 4.801 13.77a1.548 1.548 0 0 1-.993 2.731 1.55 1.55 0 0 1-1.547-1.546 1.55 1.55 0 0 1 1.602-1.545l4.28-9.525H5.425l-.268.586c-2.59 5.668-4.155 9.088-4.155 17.668 0 3.974 1.006 8.843 2.213 13.254M32.553 14.41a.544.544 0 1 0 .016 0zm-9.458 0a.544.544 0 1 0 .017 0zm-9.458 0a.544.544 0 1 0 .017 0zm-9.83 0a.544.544 0 1 0 .001 1.088.544.544 0 0 0 0-1.088M19.15 3.884l3.953 8.801 3.954-8.801Zm-9.458 0 3.954 8.801L17.6 3.884zm18.14-1.004h6.26V1.628a.626.626 0 0 0-.626-.625H3.284a.626.626 0 0 0-.626.625V2.88z" style="stroke-width:.250795"/>
</svg>
