<svg xmlns="http://www.w3.org/2000/svg" xml:space="preserve" width="45.893" height="55">
    <path d="m42.541 7.745-.613-2.756a2.344 2.344 0 0 0-2.3-1.841H27.22l-.278-1.238A2.435 2.435 0 0 0 24.553 0H6.6a2.435 2.435 0 0 0-2.388 1.91L3.54 4.89C1.258 10.393 0 17.377 0 24.57c0 8.72 4.57 28.857 4.764 29.71.097.421.47.72.903.72h34.84a.93.93 0 0 0 .902-.72c.184-.803 4.484-19.752 4.484-27.962 0-6.794-1.19-13.388-3.352-18.572M39.63 5c.238 0 .44.162.493.395l.393 1.747H28.461A38 38 0 0 0 27.656 5Zm-2.267 14.83a.815.815 0 1 1 0 1.629.816.816 0 0 1-.815-.814c0-.45.366-.815.815-.815M6.019 2.317a.59.59 0 0 1 .582-.465h17.952a.59.59 0 0 1 .581.465l.434 1.928H5.585Zm16.125 15.298a.925.925 0 0 1 0 1.849.925.925 0 0 1-.924-.924c0-.51.415-.925.924-.925m-12.21.925c0 .51-.415.924-.925.924a.925.925 0 0 1-.924-.924.925.925 0 0 1 1.849 0m14.81 34.608H6.41c-.074-.33-.17-.77-.284-1.296H25.03c-.115.527-.211.966-.285 1.296M5.728 49.999C4.37 43.581 1.852 30.821 1.852 24.57c0-6.74 1.133-13.269 3.198-18.471h3.975L8.15 15.9a2.78 2.78 0 0 0-1.917 2.64 2.78 2.78 0 0 0 2.776 2.776 2.78 2.78 0 0 0 2.776-2.777 2.78 2.78 0 0 0-1.78-2.59l.88-9.852h9.384l.88 9.851a2.78 2.78 0 0 0-1.78 2.591 2.78 2.78 0 0 0 2.775 2.777 2.78 2.78 0 0 0 2.776-2.777 2.78 2.78 0 0 0-1.917-2.64l-.875-9.802h3.976c2.065 5.204 3.198 11.733 3.198 18.473 0 6.251-2.52 19.011-3.876 25.43zm34.037 3.149H26.641c.08-.359.175-.795.283-1.296H40.05c-.115.526-.21.965-.284 1.295M40.444 50H27.32a351 351 0 0 0 1.447-7.238c1.583-8.399 2.386-14.52 2.386-18.192 0-5.505-.736-10.886-2.105-15.575h6.5l.82 9.176a2.67 2.67 0 0 0-1.672 2.473 2.67 2.67 0 0 0 2.667 2.667 2.67 2.67 0 0 0 2.666-2.667 2.67 2.67 0 0 0-1.806-2.524l-.815-9.123h3.642c1.932 4.88 2.992 11.001 2.992 17.323 0 5.803-2.311 17.575-3.598 23.682" style="stroke-width:.611111"/>
</svg>
