<?xml version="1.0" encoding="UTF-8" standalone="no"?>
<!-- Uploaded to: SVG Repo, www.svgrepo.com, Generator: SVG Repo Mixer Tools -->

<svg
   fill="#000000"
   height="100"
   width="100"
   version="1.1"
   id="Layer_1"
   viewBox="0 0 100 100"
   xml:space="preserve"
   sodipodi:docname="congas_1.svg"
   inkscape:version="1.3.2 (091e20e, 2023-11-25)"
   xmlns:inkscape="http://www.inkscape.org/namespaces/inkscape"
   xmlns:sodipodi="http://sodipodi.sourceforge.net/DTD/sodipodi-0.dtd"
   xmlns="http://www.w3.org/2000/svg"
   xmlns:svg="http://www.w3.org/2000/svg"><defs
   id="defs2" /><sodipodi:namedview
   id="namedview2"
   pagecolor="#ffffff"
   bordercolor="#000000"
   borderopacity="0.25"
   inkscape:showpageshadow="2"
   inkscape:pageopacity="0.0"
   inkscape:pagecheckerboard="0"
   inkscape:deskcolor="#d1d1d1"
   inkscape:current-layer="Layer_1" />
<g
   id="g2"
   transform="matrix(0.17578159,0,0,0.17578159,4.999913,5.0000009)">
	<g
   id="g1">
		<path
   d="m 438.409,72.102 c -0.033,-0.09 -5.706,-25.666 -5.706,-25.666 -2.269,-10.086 -11.071,-17.13 -21.408,-17.13 H 295.778 L 293.182,17.78 C 290.822,7.312 281.68,0 270.949,0 H 103.839 C 93.107,0 83.964,7.312 81.606,17.782 l -6.25,27.747 C 54.096,96.737 42.39,161.756 42.39,228.728 c 0,81.175 42.541,268.626 44.351,276.567 0.894,3.921 4.382,6.703 8.404,6.703 h 150.721 c 0.012,0 0.022,0.001 0.033,0.001 h 173.567 c 4.023,0 7.51,-2.781 8.405,-6.703 1.703,-7.472 41.739,-183.874 41.739,-260.302 0,-63.243 -11.079,-124.626 -31.201,-172.892 z M 411.295,46.545 c 2.216,10e-4 4.103,1.511 4.589,3.677 l 3.664,16.264 H 307.336 c -2.343,-6.848 -4.841,-13.501 -7.489,-19.94 h 111.448 z m -21.093,138.051 c 4.182,0 7.585,3.402 7.585,7.584 0,4.182 -3.403,7.584 -7.585,7.584 -4.182,0 -7.584,-3.402 -7.584,-7.584 0,-4.182 3.402,-7.584 7.584,-7.584 z M 98.423,21.57 c 0.575,-2.549 2.802,-4.331 5.415,-4.331 h 167.11 c 2.614,0 4.841,1.781 5.416,4.331 l 4.042,17.946 H 94.381 Z m 150.109,142.413 c 4.745,0 8.605,3.859 8.605,8.605 0,4.744 -3.859,8.605 -8.605,8.605 -4.746,0 -8.605,-3.86 -8.605,-8.605 0,-4.745 3.859,-8.605 8.605,-8.605 z m -113.671,8.605 c 0,4.745 -3.859,8.605 -8.605,8.605 -4.745,0 -8.605,-3.86 -8.605,-8.605 0,-4.745 3.86,-8.605 8.605,-8.605 4.744,0 8.605,3.859 8.605,8.605 z M 272.738,494.759 H 102.049 c -0.684,-3.08 -1.581,-7.164 -2.646,-12.066 h 175.98 c -1.063,4.904 -1.961,8.987 -2.645,12.066 z M 95.712,465.453 C 83.081,405.706 59.629,286.926 59.629,228.729 c 0,-62.742 10.545,-123.528 29.764,-171.96 h 37.012 l -8.147,91.247 c -10.347,3.377 -17.846,13.112 -17.846,24.571 0,14.25 11.593,25.844 25.844,25.844 14.251,0 25.844,-11.594 25.844,-25.844 0,-10.984 -6.891,-20.384 -16.574,-24.118 l 8.188,-91.7 h 87.362 l 8.188,91.7 c -9.684,3.734 -16.575,13.134 -16.575,24.118 0,14.25 11.593,25.844 25.844,25.844 14.25,0 25.844,-11.594 25.844,-25.844 0,-11.46 -7.499,-21.195 -17.846,-24.571 l -8.146,-91.247 h 37.012 c 19.219,48.434 29.763,109.219 29.763,171.96 0,58.197 -23.453,176.977 -36.083,236.724 z m 316.85,29.308 H 290.397 c 0.736,-3.336 1.623,-7.393 2.633,-12.068 h 122.174 c -1.062,4.904 -1.958,8.983 -2.642,12.068 z m 6.324,-29.308 H 296.707 c 3.904,-18.537 8.704,-42.072 13.474,-67.375 14.742,-78.188 22.217,-135.164 22.217,-169.349 0,-51.246 -6.859,-101.343 -19.601,-144.991 h 60.516 l 7.627,85.419 c -9.11,3.68 -15.56,12.61 -15.56,23.024 0,13.688 11.136,24.824 24.824,24.824 13.688,0 24.825,-11.135 24.825,-24.824 0,-10.887 -7.049,-20.154 -16.82,-23.493 l -7.585,-84.951 h 33.908 c 17.978,45.431 27.842,102.416 27.842,161.258 -0.003,54.021 -21.51,163.611 -33.488,220.458 z"
   id="path1" />
	</g>
</g>
</svg>
