<?xml version="1.0" encoding="UTF-8" standalone="no"?>
<!-- Uploaded to: SVG Repo, www.svgrepo.com, Generator: SVG Repo Mixer Tools -->

<svg
   fill="#000000"
   height="50"
   width="36.749001"
   version="1.1"
   id="Capa_1"
   viewBox="0 0 36.749 50"
   xml:space="preserve"
   sodipodi:docname="congas_1.svg"
   inkscape:version="1.3.2 (091e20e, 2023-11-25)"
   xmlns:inkscape="http://www.inkscape.org/namespaces/inkscape"
   xmlns:sodipodi="http://sodipodi.sourceforge.net/DTD/sodipodi-0.dtd"
   xmlns="http://www.w3.org/2000/svg"
   xmlns:svg="http://www.w3.org/2000/svg"><defs
   id="defs1" /><sodipodi:namedview
   id="namedview1"
   pagecolor="#ffffff"
   bordercolor="#000000"
   borderopacity="0.25"
   inkscape:showpageshadow="2"
   inkscape:pageopacity="0.0"
   inkscape:pagecheckerboard="0"
   inkscape:deskcolor="#d1d1d1"
   inkscape:current-layer="Capa_1" />
<path
   d="M 25.367415,50 H 11.381831 C 8.815445,50 6.4910767,48.388391 5.5977449,45.990039 4.8042294,43.858782 3.5146414,40.204197 2.3732733,36.102696 2.3514541,36.055044 2.3366572,36.003381 2.3306381,35.94946 1.0696408,31.390257 0,26.297363 0,22.137676 0,13.339787 1.5980659,9.8444571 4.2454581,4.0535999 L 4.3229538,3.8838117 H 2.1563356 c -0.2768777,0 -0.50159,-0.2247123 -0.50159,-0.5015901 V 1.6284121 C 1.6549964,0.73056593 2.3855622,0 3.2836592,0 H 33.465586 c 0.898097,0 1.628663,0.73056593 1.628663,1.6284121 v 1.7535588 c 0,0.2768777 -0.224713,0.50159 -0.50159,0.50159 h -2.166618 l 0.07725,0.1690358 c 2.647643,5.7913583 4.245708,9.2866893 4.245708,18.0848293 0,4.159686 -1.06939,9.252079 -2.330387,13.81103 -0.006,0.05467 -0.02081,0.106588 -0.04289,0.15449 -1.141368,4.101502 -2.430705,7.755585 -3.224221,9.886842 C 30.258169,48.388391 27.9338,50 25.367415,50 Z M 6.3097519,45.022221 c 0.079753,0.21794 0.1562453,0.424345 0.2282235,0.617708 0.7476196,2.008115 2.694291,3.357142 4.8438556,3.357142 h 13.985584 c 2.149564,0 4.096235,-1.349027 4.843604,-3.357142 0.07198,-0.193363 0.14822,-0.399768 0.228223,-0.617708 z M 5.9473531,44.019041 H 30.801641 c 0.359139,-1.006942 0.765678,-2.186181 1.187765,-3.485048 l -2.46055,1.626656 c -0.167782,0.111102 -0.385472,0.111102 -0.553253,0 l -3.338584,-2.207498 -3.338583,2.207498 c -0.167782,0.111102 -0.385472,0.111102 -0.553254,0 l -3.338583,-2.207498 -3.338583,2.207498 c -0.167782,0.111102 -0.385472,0.111102 -0.553254,0 l -3.338583,-2.207498 -3.338584,2.207498 c -0.1677814,0.111102 -0.3854714,0.111102 -0.5532536,0 l -2.5430615,-1.68133 c 0.4291102,1.320436 0.8419188,2.518484 1.2060732,3.539722 z m 19.9760739,-5.07885 3.328802,2.200977 3.221212,-2.130002 c 0.261078,-0.839913 0.523158,-1.71594 0.77922,-2.616295 H 3.4960826 c 0.250795,0.881295 0.5071075,1.739013 0.7626676,2.562373 l 3.3029705,2.183924 3.3290533,-2.201229 c 0.02332,-0.01605 0.04765,-0.03009 0.07323,-0.04189 0.06796,-0.0321 0.140696,-0.0474 0.212423,-0.0474 2.51e-4,0 7.86e-4,0 10e-4,0 0.07148,0 0.143455,0.0153 0.21092,0.0469 0.02608,0.01203 0.05091,0.02609 0.07474,0.04263 l 3.328802,2.201228 3.329054,-2.201228 c 0.02332,-0.01605 0.04765,-0.03009 0.07298,-0.04188 0.06796,-0.0321 0.140696,-0.0474 0.212674,-0.0474 2.51e-4,0 7.85e-4,0 10e-4,0 0.07148,0 0.143455,0.0153 0.210918,0.0469 0.02609,0.01203 0.05091,0.02609 0.07474,0.04288 l 3.328803,2.200977 3.329052,-2.201227 c 0.02332,-0.01605 0.04765,-0.03009 0.07323,-0.04214 0.06796,-0.03185 0.140696,-0.04715 0.212423,-0.04715 2.51e-4,0 7.86e-4,0 0.001,0 0.07123,0 0.142954,0.0153 0.210417,0.04665 0.02609,0.01129 0.05142,0.02558 0.07524,0.04239 z M 3.2161954,35.391691 H 33.53305 c 1.206826,-4.410732 2.212764,-9.279666 2.212764,-13.254265 0,-8.579698 -1.563958,-12.000542 -4.154921,-17.6675064 L 31.323295,3.8835609 h -2.715609 l 4.295367,9.5618111 c 0.688933,0.155994 1.20507,0.77295 1.20507,1.508532 0,0.852703 -0.69395,1.546652 -1.546653,1.546652 -0.852703,0 -1.546653,-0.693949 -1.546653,-1.546652 0,-0.600905 0.344592,-1.12306 0.846684,-1.378871 L 27.832479,4.6061014 23.803457,13.575033 c 0.502092,0.256061 0.846684,0.777966 0.846684,1.378871 0,0.852703 -0.69395,1.546652 -1.546653,1.546652 -0.852703,0 -1.546653,-0.693949 -1.546653,-1.546652 0,-0.600905 0.344593,-1.12306 0.846684,-1.378871 L 18.374748,4.6061014 14.345726,13.575033 c 0.502092,0.256061 0.846684,0.777966 0.846684,1.378871 0,0.852703 -0.693699,1.546652 -1.546653,1.546652 -0.852954,0 -1.546653,-0.693949 -1.546653,-1.546652 0,-0.600905 0.344592,-1.12306 0.846684,-1.378871 L 8.9170171,4.6061014 4.8007183,13.769399 c 0.3380716,0.284151 0.5532538,0.709499 0.5532538,1.184505 0,0.852703 -0.693699,1.546652 -1.5466529,1.546652 -0.8529538,0 -1.5466529,-0.693949 -1.5466529,-1.546652 0,-0.852703 0.6936991,-1.546403 1.5466529,-1.546403 0.01881,0 0.037369,2.52e-4 0.055927,10e-4 L 8.14206,3.8835609 H 5.4259503 L 5.1581012,4.4704212 C 2.5671379,10.137636 1.0031801,13.558229 1.0031801,22.137676 c 0,3.974349 1.0061896,8.843283 2.2130153,13.254015 z M 32.553194,14.410682 c -0.295938,0.0043 -0.535448,0.246281 -0.535448,0.543222 0,0.2997 0.243773,0.543472 0.543473,0.543472 0.2997,0 0.543473,-0.243772 0.543473,-0.543472 0,-0.296941 -0.239509,-0.538708 -0.535197,-0.543222 -0.0053,0 -0.01054,0 -0.0163,0 z m -9.457982,0 c -0.295938,0.0045 -0.535197,0.246281 -0.535197,0.543222 0,0.2997 0.243773,0.543472 0.543473,0.543472 0.2997,0 0.543473,-0.243772 0.543473,-0.543472 0,-0.296941 -0.23951,-0.538708 -0.535197,-0.543222 -0.0025,0 -0.0053,0 -0.008,0 h -5.02e-4 c -0.0028,0 -0.0053,0 -0.008,0 z m -9.457731,0 c -0.295938,0.0045 -0.535197,0.246281 -0.535197,0.543222 0,0.2997 0.243773,0.543472 0.543473,0.543472 0.2997,0 0.543473,-0.243772 0.543473,-0.543472 0,-0.296941 -0.239259,-0.538708 -0.535196,-0.543222 -0.0025,0 -0.0053,0 -0.008,0 h -5.01e-4 c -0.0028,0 -0.0053,0 -0.008,0 z m -9.8301618,0 c -0.2997001,0 -0.5434728,0.243772 -0.5434728,0.543222 0,0.2997 0.2437727,0.543472 0.5434728,0.543472 0.2997001,0 0.5434728,-0.243772 0.5434728,-0.543472 -2.508e-4,-0.29945 -0.2440236,-0.543222 -0.5434728,-0.543222 z M 19.149704,3.8835609 23.103488,12.684961 27.057271,3.8835609 Z m -9.4577304,0 3.9537834,8.8014001 3.953784,-8.8014001 z M 27.832479,2.8803808 h 6.25859 V 1.6284121 c 0,-0.3448432 -0.28064,-0.625232 -0.625483,-0.625232 H 3.2836592 c -0.3448431,0 -0.6254828,0.2803888 -0.6254828,0.625232 v 1.2519687 z"
   id="path1"
   style="stroke-width:0.250795" />
</svg>
