<svg xmlns="http://www.w3.org/2000/svg" xml:space="preserve" width="100" height="100">
    <path d="M82.064 17.674c-.006-.016-1.003-4.511-1.003-4.511a3.836 3.836 0 0 0-3.763-3.012H56.992l-.456-2.026A3.985 3.985 0 0 0 52.628 5H23.253a3.984 3.984 0 0 0-3.908 3.126l-1.099 4.877c-3.737 9.002-5.795 20.43-5.795 32.203 0 14.27 7.478 47.22 7.796 48.616.158.689.77 1.178 1.478 1.178h57.009c.707 0 1.32-.489 1.478-1.178.3-1.314 7.337-32.322 7.337-45.757 0-11.117-1.948-21.907-5.485-30.39m-4.766-4.492c.39 0 .721.265.807.646l.644 2.859H59.024a62 62 0 0 0-1.317-3.505zM73.59 37.449c.735 0 1.334.598 1.334 1.333s-.599 1.333-1.334 1.333a1.335 1.335 0 0 1-1.333-1.333c0-.735.598-1.333 1.333-1.333M22.3 8.792a.97.97 0 0 1 .953-.762h29.375a.97.97 0 0 1 .952.762l.71 3.154h-32.7Zm26.387 25.033a1.514 1.514 0 0 1 0 3.025 1.514 1.514 0 0 1-1.512-1.512c0-.834.678-1.513 1.512-1.513m-19.981 1.513c0 .834-.678 1.512-1.513 1.512a1.514 1.514 0 0 1-1.512-1.512c0-.834.678-1.513 1.512-1.513s1.513.679 1.513 1.513M52.942 91.97H22.938c-.12-.542-.278-1.26-.465-2.121h30.934c-.187.862-.345 1.58-.465 2.12m-31.118-5.152c-2.22-10.502-6.342-31.382-6.342-41.612 0-11.029 1.853-21.714 5.232-30.227h6.506l-1.433 16.04a4.55 4.55 0 0 0-3.137 4.319 4.55 4.55 0 0 0 4.543 4.543 4.55 4.55 0 0 0 4.543-4.543 4.55 4.55 0 0 0-2.913-4.24l1.44-16.12h15.356l1.44 16.12a4.55 4.55 0 0 0-2.914 4.24 4.55 4.55 0 0 0 4.542 4.543 4.55 4.55 0 0 0 4.543-4.543 4.55 4.55 0 0 0-3.137-4.32l-1.432-16.04h6.506c3.379 8.515 5.232 19.2 5.232 30.228 0 10.23-4.122 31.11-6.342 41.612zm55.697 5.152H56.046c.13-.587.286-1.3.463-2.121h21.476c-.187.862-.344 1.579-.464 2.12m1.111-5.152H57.156a574 574 0 0 0 2.368-11.843c2.591-13.744 3.905-23.76 3.905-29.769 0-9.008-1.205-17.814-3.445-25.486H70.62l1.341 15.015a4.37 4.37 0 0 0-2.735 4.047 4.37 4.37 0 0 0 4.364 4.363 4.37 4.37 0 0 0 4.363-4.363 4.37 4.37 0 0 0-2.956-4.13l-1.333-14.93h5.96c3.161 7.986 4.895 18.003 4.895 28.347 0 9.496-3.781 28.76-5.887 38.752"/>
</svg>
