<?xml version="1.0" encoding="UTF-8" standalone="no"?>
<svg
   xml:space="preserve"
   width="45.893204"
   height="55"
   version="1.1"
   id="svg1"
   sodipodi:docname="congas_2.svg"
   inkscape:version="1.3.2 (091e20e, 2023-11-25)"
   xmlns:inkscape="http://www.inkscape.org/namespaces/inkscape"
   xmlns:sodipodi="http://sodipodi.sourceforge.net/DTD/sodipodi-0.dtd"
   xmlns="http://www.w3.org/2000/svg"
   xmlns:svg="http://www.w3.org/2000/svg"><defs
   id="defs1" /><sodipodi:namedview
   id="namedview1"
   pagecolor="#ffffff"
   bordercolor="#000000"
   borderopacity="0.25"
   inkscape:showpageshadow="2"
   inkscape:pageopacity="0.0"
   inkscape:pagecheckerboard="0"
   inkscape:deskcolor="#d1d1d1"
   inkscape:current-layer="svg1" />
    <path
   d="M 42.54126,7.7452421 C 42.53763,7.7354631 41.928316,4.9885213 41.928316,4.9885213 A 2.3442212,2.3442212 0 0 0 39.628706,3.1478554 H 27.219488 L 26.940822,1.9097448 A 2.4352767,2.4352767 0 0 0 24.552601,2.3430958e-5 H 6.6012195 A 2.4346656,2.4346656 0 0 0 4.2129982,1.9103559 L 3.5413874,4.8907435 C 1.2576662,10.391963 0,17.375739 0,24.570347 0,33.290898 4.569887,53.427001 4.7642202,54.280112 4.8607757,54.701167 5.2347756,55 5.6674421,55 H 40.506261 c 0.432055,0 0.806666,-0.298833 0.903221,-0.719888 0.183334,-0.803 4.483721,-19.752326 4.483721,-27.9626 0,-6.793719 -1.190445,-13.387605 -3.351943,-18.5716587 M 39.628706,5.0007435 c 0.238332,0 0.44061,0.1619444 0.493166,0.3947776 l 0.393555,1.7471658 H 28.461266 A 37.888873,37.888873 0 0 0 27.656432,5.0007435 Z m -2.266,14.8292165 c 0.449167,0 0.815223,0.365444 0.815223,0.81461 0,0.449166 -0.366056,0.814611 -0.815223,0.814611 A 0.815833,0.815833 0 0 1 36.548095,20.64457 c 0,-0.449166 0.365445,-0.81461 0.814611,-0.81461 M 6.0188308,2.3173558 A 0.59277753,0.59277753 0 0 1 6.6012195,1.8516893 H 24.552601 a 0.59277753,0.59277753 0 0 1 0.581777,0.4656665 l 0.433889,1.9274437 H 5.5849421 Z M 22.144213,17.615294 a 0.92522187,0.92522187 0 0 1 0,1.84861 0.92522187,0.92522187 0 0 1 -0.924,-0.923999 c 0,-0.509668 0.414333,-0.924611 0.924,-0.924611 M 9.9336065,18.539905 c 0,0.509665 -0.414333,0.923999 -0.9246105,0.923999 A 0.92522187,0.92522187 0 0 1 8.0849968,18.539905 c 0,-0.509668 0.4143332,-0.924611 0.9239992,-0.924611 0.509667,0 0.9246105,0.414943 0.9246105,0.924611 M 24.74449,53.148334 H 6.4087195 C 6.3353862,52.817112 6.2388307,52.378335 6.1245529,51.852167 H 25.028656 c -0.114278,0.526779 -0.210833,0.965556 -0.284166,1.295556 M 5.727942,49.99928 C 4.3712759,43.581394 1.8522769,30.821399 1.8522769,24.569735 c 0,-6.739942 1.1323885,-13.269662 3.1973321,-18.4720475 H 9.025496 L 8.1497743,15.899905 a 2.7805544,2.7805544 0 0 0 -1.9170547,2.639388 2.7805544,2.7805544 0 0 0 2.7762764,2.776277 2.7805544,2.7805544 0 0 0 2.776276,-2.776277 2.7805544,2.7805544 0 0 0 -1.780165,-2.591109 l 0.88,-9.8511076 h 9.384218 l 0.88,9.8511076 a 2.7805544,2.7805544 0 0 0 -1.780778,2.591109 2.7805544,2.7805544 0 0 0 2.775666,2.776277 2.7805544,2.7805544 0 0 0 2.776277,-2.776277 2.7805544,2.7805544 0 0 0 -1.917055,-2.639999 L 22.128324,6.0970764 h 3.975887 c 2.064944,5.2036086 3.197332,11.7333286 3.197332,18.4726586 0,6.251664 -2.518999,19.011659 -3.875665,25.429545 z m 34.037041,3.148443 H 26.641377 c 0.07944,-0.358722 0.174778,-0.794444 0.282945,-1.296166 h 13.124216 c -0.114277,0.526778 -0.210222,0.964944 -0.283555,1.295555 m 0.678944,-3.148444 H 27.319711 a 350.77764,350.77764 0 0 0 1.447111,-7.237385 c 1.583387,-8.399108 2.386387,-14.519994 2.386387,-18.192159 0,-5.504887 -0.736389,-10.886329 -2.105277,-15.5747713 h 6.499775 l 0.8195,9.1758293 a 2.6705545,2.6705545 0 0 0 -1.671388,2.473166 2.6705545,2.6705545 0 0 0 2.666887,2.666277 2.6705545,2.6705545 0 0 0 2.666276,-2.666277 2.6705545,2.6705545 0 0 0 -1.806443,-2.523888 l -0.81461,-9.1238847 h 3.642221 c 1.931721,4.8803307 2.991387,11.0018287 2.991387,17.3231587 0,5.80311 -2.31061,17.575548 -3.59761,23.681768"
   id="path1"
   style="stroke-width:0.611111" />
</svg>
