<svg xmlns="http://www.w3.org/2000/svg" xml:space="preserve" width="100" height="100">
    <path d="m28.948 65.539 5.514 5.515-1.278 1.277-5.514-5.514zM99.608 5.61l-1.266 1.267.456.456a.904.904 0 0 1-.639 1.543c-.503-.05-.755-.383-1.095-.721l-1.268 1.267c-.253.253-.59.393-.948.393a1.33 1.33 0 0 1-.83-.289l-.7.7.695.693a.903.903 0 1 1-1.278 1.278l-.694-.694-.987.988.694.693a.903.903 0 1 1-1.278 1.278l-.694-.694-1.601 1.601a3.04 3.04 0 0 1-.849 1.957L67.409 37.963l.91 10.418a19.07 19.07 0 0 1-5.526 15.177L59.31 67.04c-4.028-2.538-9.05 3.043-9.919 6.264-.408 1.258-.114 2.194.7 3.101.734 7.677-3.884 14.117-9.326 19.56C38.108 98.622 34.539 100 30.459 100c-1.359 0-2.774-.153-4.232-.462-5.327-1.132-10.848-4.266-15.635-8.853l-4.23 4.23c-.836.834-2.112-.443-1.278-1.278l4.23-4.23C4.728 84.621 1.594 79.1.463 73.773c-1.24-5.833.03-10.996 3.572-14.538 5.372-5.373 11.837-10.067 19.561-9.325 3.03 3.394 12.432-4.35 9.366-9.22l3.482-3.482a19.07 19.07 0 0 1 15.176-5.525l10.418.909 20.637-19.917a3.04 3.04 0 0 1 1.957-.85l.567-.566-.67-.67a.904.904 0 0 1 1.277-1.279l.67.671.988-.987-.67-.671a.903.903 0 0 1 1.277-1.278l.67.671 1.734-1.733a1.33 1.33 0 0 1-.289-.83c0-.358.14-.695.393-.949l1.267-1.267-.456-.456a.903.903 0 0 1 1.278-1.278l.456.456L94.391.392a1.34 1.34 0 0 1 1.897.001l3.32 3.32a1.344 1.344 0 0 1 0 1.897M11.64 89.184l5.674-5.675-.824-.824-5.674 5.675c.263.286.546.552.824.824m54.878-40.646-.773-8.852-20.159 20.887-6.159-6.159 20.887-20.158-8.851-.773a17.26 17.26 0 0 0-13.741 5.004l-2.519 2.518C37.31 46.67 27.147 55.6 22.752 51.649c-5.384-.386-11.093 2.517-17.44 8.863-3.094 3.095-4.19 7.671-3.082 12.885.977 4.596 3.56 9.37 7.352 13.64l6.206-6.204 6.01-9.052 6.42 6.42-9.051 6.01-6.205 6.206c4.27 3.792 9.045 6.377 13.64 7.353 5.214 1.106 9.79.012 12.885-3.083 6.346-6.346 9.25-12.054 8.866-17.438-3.882-4.311 4.875-14.6 10.644-12.451l2.518-2.519a17.27 17.27 0 0 0 5.003-13.74m-47.81 33.81 6.672-4.43-3.298-3.298-4.43 6.672ZM86.36 15.375l-1.734-1.735c-.26.034-.504.15-.696.335L42.006 54.437l3.558 3.558L86.025 16.07c.186-.192.301-.437.335-.696m6.373-7.12-.988-.987-5.468 5.469.988.987zM98 4.662 95.34 2l-3.154 3.153 2.661 2.662ZM36.892 52.475a2.893 2.893 0 0 0-4.086 0l-7.63 7.63a1.083 1.083 0 0 1-1.531 0c-.573-.822-.17-1.335.42-1.947a.903.903 0 0 0 0-1.277l-.395-.394a.904.904 0 0 0-1.47.995 2.888 2.888 0 0 0 4.253 3.901l7.63-7.63a1.083 1.083 0 0 1 1.531 0c.573.822.17 1.335-.42 1.947a.903.903 0 0 0 0 1.277l.395.394a.903.903 0 0 0 1.47-.994 2.89 2.89 0 0 0-.167-3.902m6.733 10.467a.904.904 0 0 0-.995 1.47l.394.394c.17.169.4.264.64.264.488-.042.725-.362 1.057-.684a1.08 1.08 0 1 1 1.527 1.531l-7.63 7.63a2.893 2.893 0 0 0 0 4.087 2.88 2.88 0 0 0 2.041.844c.663 0 1.325-.226 1.86-.678a.903.903 0 0 0 .995-1.47l-.394-.394a.904.904 0 0 0-1.278 0l-.42.42a1.081 1.081 0 0 1-1.526-1.531l7.63-7.63a2.893 2.893 0 0 0 0-4.087 2.89 2.89 0 0 0-3.9-.166" style="stroke-width:.163399"/>
</svg>
