<?xml version="1.0" encoding="UTF-8" standalone="no"?>
<!-- Uploaded to: SVG Repo, www.svgrepo.com, Generator: SVG Repo Mixer Tools -->

<svg
   fill="#000000"
   version="1.1"
   id="Layer_1"
   width="100.00019"
   height="100"
   viewBox="0 0 100.00019 100"
   xml:space="preserve"
   sodipodi:docname="contrabass-svgrepo-com.svg"
   inkscape:version="1.3.2 (091e20e, 2023-11-25)"
   xmlns:inkscape="http://www.inkscape.org/namespaces/inkscape"
   xmlns:sodipodi="http://sodipodi.sourceforge.net/DTD/sodipodi-0.dtd"
   xmlns="http://www.w3.org/2000/svg"
   xmlns:svg="http://www.w3.org/2000/svg"><defs
   id="defs1" /><sodipodi:namedview
   id="namedview1"
   pagecolor="#ffffff"
   bordercolor="#000000"
   borderopacity="0.25"
   inkscape:showpageshadow="2"
   inkscape:pageopacity="0.0"
   inkscape:pagecheckerboard="0"
   inkscape:deskcolor="#d1d1d1"
   inkscape:current-layer="Layer_1" />
<path
   d="m 28.947557,65.538889 5.514706,5.514706 -1.277778,1.277778 -5.514706,-5.514706 z m 70.660784,-59.9287583 -1.26683,1.2668301 0.456536,0.4563725 c 0.352778,0.3527778 0.352778,0.9246732 0,1.2777778 -0.176634,0.1761438 -0.407679,0.2645425 -0.639052,0.2645425 -0.502777,-0.04949 -0.754657,-0.3830566 -1.095425,-0.720915 l -1.26732,1.2673202 c -0.253431,0.2531046 -0.59036,0.3928105 -0.948693,0.3928105 -0.304738,0 -0.593954,-0.1021242 -0.829738,-0.2883987 l -0.69902,0.6990194 0.693791,0.693954 c 0.352778,0.352778 0.352778,0.924674 0,1.277615 -0.353876,0.35322 -0.92665,0.351456 -1.277778,0 l -0.693791,-0.693791 -0.987255,0.987255 0.693791,0.693954 c 0.352778,0.352778 0.352778,0.924673 0,1.277615 -0.354067,0.353083 -0.926334,0.351609 -1.277941,0 l -0.693791,-0.693791 -1.60098,1.600817 c -0.0366,0.728758 -0.334477,1.423856 -0.848856,1.957189 l -19.917157,20.636275 0.90964,10.418791 c 0.49134,5.641503 -1.522712,11.173039 -5.525817,15.176143 l -3.482189,3.48219 c -4.028687,-2.538019 -9.051,3.043283 -9.919118,6.263889 -0.408076,1.258556 -0.114691,2.194311 0.699837,3.101797 0.734203,7.677085 -3.884023,14.117063 -9.326308,19.559477 C 38.107524,98.621895 34.53857,100 30.458995,100 29.100008,100 27.684649,99.847059 26.227296,99.537745 20.900172,98.406373 15.378929,95.272059 10.592165,90.684967 L 6.3624259,94.914706 C 5.5255796,95.749231 4.2495988,94.472364 5.0844848,93.637092 L 9.3142233,89.407353 C 4.7281122,84.621405 1.5937985,79.100327 0.46258939,73.773203 -0.7761361,67.940033 0.49232795,62.777124 4.0348116,59.234641 9.407276,53.861921 15.871804,49.16752 23.59625,49.910454 c 3.029994,3.393934 12.431418,-4.349708 9.36585,-9.219935 l 3.481862,-3.482026 c 4.004739,-4.004739 9.536275,-6.018955 15.176144,-5.525981 l 10.417647,0.909477 20.637092,-19.917156 c 0.533333,-0.514543 1.228268,-0.812255 1.957189,-0.84902 l 0.56683,-0.566993 -0.670588,-0.670752 c -0.352778,-0.352778 -0.352778,-0.9246733 0,-1.2777779 0.352614,-0.3527778 0.92451,-0.3527778 1.277614,0 l 0.670752,0.6707517 0.987255,-0.987255 -0.670752,-0.6707516 c -0.352777,-0.3527778 -0.352777,-0.9248366 0,-1.2776144 0.352778,-0.3527777 0.924674,-0.3527777 1.277615,0 l 0.670751,0.6707517 1.733007,-1.7330066 C 90.28808,5.7477124 90.185956,5.4584967 90.185956,5.153268 c 0,-0.3583334 0.139542,-0.6954249 0.393137,-0.9488562 l 1.26732,-1.2673203 -0.456372,-0.4565359 c -0.352778,-0.3527778 -0.352778,-0.9246732 0,-1.2776144 0.352778,-0.3527778 0.924673,-0.3527778 1.277614,0 l 0.456536,0.4563725 1.26683,-1.26683004 C 94.644616,0.13954248 94.981381,0 95.339877,0 c 0.35817,0 0.694935,0.13954248 0.948366,0.39281046 l 3.319608,3.31960784 c 0.523199,0.523366 0.522879,1.3743464 4.9e-4,1.8977124 z M 11.63955,89.183824 17.31406,83.50915 16.490368,82.685458 10.815694,88.359967 c 0.263417,0.285827 0.546487,0.551955 0.823856,0.823857 z M 66.518472,48.538072 65.744943,39.686111 45.586119,60.573366 39.427459,54.414379 60.314224,34.256209 51.462917,33.483333 C 46.357034,33.037255 41.347884,34.860458 37.72174,38.486765 l -2.518464,2.518137 c 2.107054,5.666275 -8.05579,14.595969 -12.45147,10.643627 -5.383661,-0.385947 -11.093302,2.517484 -17.4392167,8.863726 -3.0949346,3.094935 -4.1897058,7.671078 -3.0823529,12.885131 0.9763072,4.596078 3.5606209,9.370098 7.3521242,13.640359 l 6.2055554,-6.205229 6.010622,-9.051797 6.420261,6.420425 -9.051797,6.010621 -6.205393,6.205392 c 4.271079,3.792157 9.045262,6.376961 13.641177,7.352614 5.213562,1.1067 9.789542,0.01193 12.884477,-3.08317 6.345261,-6.345261 9.248856,-12.053921 8.865523,-17.437418 -3.881847,-4.311296 4.875199,-14.600629 10.644281,-12.451634 l 2.518137,-2.518137 c 3.62451,-3.62451 5.448203,-8.633007 5.003268,-13.74134 z M 18.707851,82.347549 25.379583,77.91781 22.082034,74.620261 17.651969,81.291667 Z M 86.360466,15.375163 84.625825,13.640359 c -0.25915,0.03399 -0.503595,0.149347 -0.695752,0.334804 l -41.923856,40.461765 3.557517,3.55768 40.461764,-41.923693 c 0.185458,-0.192157 0.300817,-0.436601 0.334968,-0.695752 z m 6.372222,-7.119444 -0.987255,-0.9872549 -5.468137,5.4681369 0.987255,0.987255 z M 98.001315,4.6611111 95.339877,1.9995098 92.185792,5.1534314 94.847394,7.8150327 Z M 36.892492,52.474673 c -1.126634,-1.126307 -2.959641,-1.126634 -4.086275,0 l -7.630228,7.630229 c -0.421813,0.421813 -1.106639,0.423731 -1.531046,0 -0.572967,-0.821544 -0.170438,-1.33443 0.419444,-1.946405 0.352778,-0.352778 0.352778,-0.924673 0,-1.277451 l -0.393954,-0.393791 c -0.352614,-0.352778 -0.92451,-0.352778 -1.277778,0 -0.268791,0.268791 -0.332843,0.664869 -0.192157,0.994281 -0.951439,1.125459 -0.908382,2.826907 0.166504,3.901471 1.127732,1.128408 2.958502,1.128274 4.086274,1.63e-4 l 7.630229,-7.629902 c 0.422059,-0.422222 1.108823,-0.422222 1.530719,0 0.572621,0.821482 0.1704,1.334586 -0.419445,1.946405 -0.352777,0.352778 -0.352777,0.924837 0,1.277615 l 0.393955,0.393954 c 0.352941,0.352778 0.924836,0.352778 1.277614,0 0.268791,-0.268954 0.33268,-0.664869 0.191993,-0.994445 0.956373,-1.13366 0.901144,-2.83513 -0.165849,-3.902124 z m 6.73268,10.46732 c -0.329739,-0.140686 -0.725981,-0.07712 -0.994772,0.191994 -0.352777,0.352778 -0.352941,0.924673 0,1.277614 l 0.393955,0.393955 c 0.169444,0.169281 0.399183,0.264705 0.638725,0.264705 0.489207,-0.04211 0.726373,-0.362028 1.058333,-0.683823 0.420752,-0.421079 1.106046,-0.421079 1.526961,0 0.422059,0.422059 0.422059,1.10866 0,1.530555 l -7.630229,7.630229 c -1.126634,1.126634 -1.126634,2.959641 0,4.086438 0.562909,0.562418 1.302125,0.843954 2.04134,0.843954 0.662419,0 1.324673,-0.225817 1.860131,-0.677777 0.329739,0.141176 0.725654,0.07712 0.994444,-0.191994 0.352778,-0.352941 0.352778,-0.924836 0,-1.277614 l -0.393954,-0.393954 c -0.353104,-0.352778 -0.925,-0.352778 -1.277778,0 l -0.419444,0.419444 c -0.420752,0.420915 -1.106046,0.420915 -1.526961,0 -0.422059,-0.422222 -0.422059,-1.108824 0,-1.530719 l 7.630229,-7.630229 c 1.126634,-1.126634 1.126634,-2.95964 0,-4.086274 -1.06683,-1.067157 -2.768137,-1.122549 -3.90098,-0.166504 z"
   id="path1"
   style="stroke-width:0.163399"
   sodipodi:nodetypes="cccccccccsccscccccccccscccccsccccsccccccccccccccccccccsscccscccccccscccccccccccccccccccccccccccccsccccccccccccccccccccccccsscscccccccccsccccccscscccscsccscscccscc" />
</svg>
