<svg xmlns="http://www.w3.org/2000/svg" xml:space="preserve" width="100" height="60">
    <path d="M91.576 55.032H8.424A3.43 3.43 0 0 1 5 51.608V8.392a3.43 3.43 0 0 1 3.424-3.424h83.152A3.43 3.43 0 0 1 95 8.392v43.216a3.43 3.43 0 0 1-3.424 3.424M59.78 53.406h31.796a1.8 1.8 0 0 0 1.798-1.798V8.392a1.8 1.8 0 0 0-1.798-1.798H59.78zm-17.935 0h16.31V6.594h-16.31ZM8.424 6.594a1.8 1.8 0 0 0-1.798 1.798v43.216a1.8 1.8 0 0 0 1.798 1.798H40.22V6.594Zm46.565 45.558h-9.978a.813.813 0 0 1-.813-.813v-6.156c0-.448.364-.813.813-.813h9.978c.449 0 .813.365.813.813v6.156c0 .45-.364.813-.813.813m-9.165-1.626h8.352v-4.53h-8.352zm41.59.873a.813.813 0 0 1-.814-.813v-3.042a2.07 2.07 0 0 1-1.252-1.898c0-.85.517-1.582 1.252-1.898v-2.066a.813.813 0 0 1 1.626 0v2.066a2.07 2.07 0 0 1 1.252 1.898c0 .85-.517 1.582-1.252 1.898v3.042a.813.813 0 0 1-.813.813m0-6.192a.44.44 0 1 0 0 .879.44.44 0 0 0 0-.879M82.377 51.4h-4.299a.813.813 0 0 1-.813-.813v-3.151c0-.449.365-.813.813-.813h4.299c.448 0 .813.364.813.813v3.151a.813.813 0 0 1-.813.813m-3.486-1.625h2.673v-1.526h-2.673zm-3.59 1.625h-4.298a.813.813 0 0 1-.813-.813v-3.151c0-.449.364-.813.813-.813h4.298c.449 0 .813.364.813.813v3.151a.813.813 0 0 1-.813.813m-3.486-1.625h2.673v-1.526h-2.673zm-3.59 1.625h-4.298a.813.813 0 0 1-.813-.813v-3.151c0-.449.364-.813.813-.813h4.298c.45 0 .813.364.813.813v3.151a.813.813 0 0 1-.813.813m-3.486-1.625h2.673v-1.526H64.74zM33.446 51.4a.813.813 0 0 1-.813-.813V48.52a2.07 2.07 0 0 1-1.252-1.898c0-.85.517-1.582 1.252-1.898v-3.042a.813.813 0 0 1 1.626 0v3.042a2.07 2.07 0 0 1 1.252 1.898c0 .85-.517 1.582-1.252 1.898v2.066a.813.813 0 0 1-.813.813m0-5.216a.44.44 0 1 0 0 .88.44.44 0 0 0 0-.88m-4.91 5.216H24.24a.813.813 0 0 1-.813-.813v-3.151c0-.449.364-.813.813-.813h4.298c.449 0 .813.364.813.813v3.151a.813.813 0 0 1-.813.813m-3.485-1.625h2.672v-1.526h-2.672zm-3.59 1.625h-4.3a.813.813 0 0 1-.812-.813v-3.151c0-.449.364-.813.813-.813h4.298c.45 0 .813.364.813.813v3.151a.813.813 0 0 1-.813.813m-3.487-1.625h2.674v-1.526h-2.674zm-3.59 1.625h-4.298a.813.813 0 0 1-.813-.813v-3.151c0-.449.364-.813.813-.813h4.298c.45 0 .813.364.813.813v3.151a.813.813 0 0 1-.813.813M10.9 49.774h2.673v-1.526H10.9zm71.478-4.128h-4.299a.813.813 0 0 1-.813-.813v-3.151c0-.449.365-.813.813-.813h4.299c.448 0 .813.364.813.813v3.151a.813.813 0 0 1-.813.813m-3.486-1.626h2.673v-1.525h-2.673zm-3.59 1.626h-4.298a.813.813 0 0 1-.813-.813v-3.151c0-.449.364-.813.813-.813h4.298c.449 0 .813.364.813.813v3.151a.813.813 0 0 1-.813.813m-3.486-1.626h2.673v-1.525h-2.673zm-3.59 1.626h-4.298a.813.813 0 0 1-.813-.813v-3.151c0-.449.364-.813.813-.813h4.298c.45 0 .813.364.813.813v3.151a.813.813 0 0 1-.813.813M64.74 44.02h2.673v-1.525H64.74zm-36.203 1.626H24.24a.813.813 0 0 1-.813-.813v-3.151c0-.449.364-.813.813-.813h4.298c.449 0 .813.364.813.813v3.151a.813.813 0 0 1-.813.813m-3.485-1.626h2.672v-1.525h-2.672zm-3.59 1.626h-4.3a.813.813 0 0 1-.812-.813v-3.151c0-.449.364-.813.813-.813h4.298c.45 0 .813.364.813.813v3.151a.813.813 0 0 1-.813.813m-3.487-1.626h2.674v-1.525h-2.674zm-3.59 1.626h-4.298a.813.813 0 0 1-.813-.813v-3.151c0-.449.364-.813.813-.813h4.298c.45 0 .813.364.813.813v3.151a.813.813 0 0 1-.813.813M10.9 44.02h2.673v-1.525H10.9Zm44.089-1.525a.813.813 0 0 1-.813-.813v-1.009a2.07 2.07 0 0 1-1.252-1.898c0-.85.517-1.582 1.252-1.898v-4.1a.813.813 0 0 1 1.626 0v4.1a2.07 2.07 0 0 1 1.251 1.898c0 .85-.516 1.582-1.252 1.898v1.009a.81.81 0 0 1-.812.813m0-4.16a.44.44 0 1 0 0 .879.44.44 0 0 0 0-.878M50 42.496a.813.813 0 0 1-.813-.813V38.64a2.07 2.07 0 0 1-1.251-1.898c0-.85.516-1.582 1.251-1.899v-2.066a.813.813 0 0 1 1.626 0v2.066a2.07 2.07 0 0 1 1.252 1.899 2.07 2.07 0 0 1-1.252 1.898v3.042a.813.813 0 0 1-.813.813m0-6.193a.44.44 0 1 0 0 .879.44.44 0 0 0 0-.879m-4.99 6.193a.813.813 0 0 1-.812-.813v-2.067a2.07 2.07 0 0 1-1.252-1.898c0-.85.517-1.581 1.252-1.898v-3.042a.813.813 0 0 1 1.626 0v3.042a2.07 2.07 0 0 1 1.251 1.898c0 .85-.516 1.582-1.251 1.898v2.067a.813.813 0 0 1-.813.813m0-5.217a.44.44 0 1 0 .001.879.44.44 0 0 0 0-.879m31.544 1.232c-8.135 0-14.754-6.62-14.754-14.755S68.419 9.001 76.554 9.001s14.754 6.618 14.754 14.754S84.69 38.51 76.554 38.51m0-27.883c-7.24 0-13.128 5.89-13.128 13.128 0 7.24 5.889 13.129 13.128 13.129s13.128-5.89 13.128-13.129-5.89-13.128-13.128-13.128M23.243 38.51c-8.136 0-14.754-6.62-14.754-14.755S15.108 9.001 23.243 9.001s14.754 6.618 14.754 14.754S31.378 38.51 23.243 38.51m0-27.883c-7.24 0-13.128 5.89-13.128 13.128 0 7.24 5.889 13.129 13.128 13.129s13.128-5.89 13.128-13.129-5.89-13.128-13.128-13.128m53.31 24.766c-6.416 0-11.637-5.22-11.637-11.638 0-6.417 5.22-11.638 11.638-11.638a.813.813 0 0 1 0 1.626c-5.52 0-10.012 4.491-10.012 10.012s4.491 10.013 10.012 10.013a.813.813 0 0 1 0 1.625m-53.31 0c-6.417 0-11.638-5.22-11.638-11.638 0-6.417 5.22-11.638 11.638-11.638a.813.813 0 0 1 0 1.626c-5.52 0-10.013 4.491-10.013 10.012s4.492 10.013 10.013 10.013a.813.813 0 0 1 0 1.625M54.99 29.57a.813.813 0 0 1-.813-.813V23.93a.813.813 0 0 1 1.626 0v4.827a.813.813 0 0 1-.813.813m-4.989 0a.813.813 0 0 1-.813-.813V23.93a.813.813 0 0 1 1.626 0v4.827a.813.813 0 0 1-.813.813m-4.99 0a.813.813 0 0 1-.812-.813V23.93a.813.813 0 0 1 1.626 0v4.827a.813.813 0 0 1-.813.813m31.544-1.795a4.024 4.024 0 0 1-4.02-4.02 4.024 4.024 0 0 1 4.02-4.02 4.024 4.024 0 0 1 4.02 4.02 4.024 4.024 0 0 1-4.02 4.02m0-6.413a2.396 2.396 0 0 0-2.394 2.394 2.396 2.396 0 0 0 2.394 2.393 2.396 2.396 0 0 0 2.393-2.393 2.396 2.396 0 0 0-2.393-2.394m-53.311 6.413a4.024 4.024 0 0 1-4.02-4.02 4.024 4.024 0 0 1 4.02-4.02 4.024 4.024 0 0 1 4.02 4.02 4.024 4.024 0 0 1-4.02 4.02m0-6.413a2.396 2.396 0 0 0-2.394 2.394 2.396 2.396 0 0 0 2.394 2.393 2.396 2.396 0 0 0 2.393-2.393 2.396 2.396 0 0 0-2.393-2.394m31.746-.138a.813.813 0 0 1-.813-.813v-.117a.813.813 0 0 1 1.626 0v.117a.813.813 0 0 1-.813.813m-4.989 0a.813.813 0 0 1-.813-.813v-.117a.813.813 0 0 1 1.626 0v.117a.813.813 0 0 1-.813.813m-4.99 0a.813.813 0 0 1-.812-.813v-.117a.813.813 0 0 1 1.626 0v.117a.813.813 0 0 1-.813.813m9.98-3.682a.813.813 0 0 1-.814-.813v-.117a.813.813 0 0 1 1.626 0v.117c0 .45-.364.813-.813.813m-4.99 0a.813.813 0 0 1-.813-.813v-.117a.813.813 0 0 1 1.626 0v.117c0 .45-.364.813-.813.813m-4.99 0a.813.813 0 0 1-.812-.813v-.117a.813.813 0 0 1 1.626 0v.117c0 .45-.364.813-.813.813m9.98-3.682a.813.813 0 0 1-.814-.813v-.117a.813.813 0 0 1 1.626 0v.117a.813.813 0 0 1-.813.813m-4.99 0a.813.813 0 0 1-.813-.813v-.117a.813.813 0 0 1 1.626 0v.117a.813.813 0 0 1-.813.813m-4.99 0a.813.813 0 0 1-.812-.813v-.117a.813.813 0 0 1 1.626 0v.117a.813.813 0 0 1-.813.813m9.98-3.682a.813.813 0 0 1-.814-.813V9.25a.813.813 0 0 1 1.626 0v.116a.813.813 0 0 1-.813.813m-4.99 0a.813.813 0 0 1-.813-.813V9.25a.813.813 0 0 1 1.626 0v.116a.813.813 0 0 1-.813.813m-4.99 0a.813.813 0 0 1-.812-.813V9.25a.813.813 0 0 1 1.626 0v.116a.813.813 0 0 1-.813.813" style="stroke-width:1"/>
</svg>
