<?xml version="1.0" encoding="UTF-8" standalone="no"?>
<!-- Uploaded to: SVG Repo, www.svgrepo.com, Generator: SVG Repo Mixer Tools -->

<svg
   fill="#000000"
   height="60"
   width="100"
   version="1.1"
   id="Capa_1"
   viewBox="0 0 100 60.000001"
   xml:space="preserve"
   sodipodi:docname="dj_mixer.svg"
   inkscape:version="1.3.2 (091e20e, 2023-11-25)"
   xmlns:inkscape="http://www.inkscape.org/namespaces/inkscape"
   xmlns:sodipodi="http://sodipodi.sourceforge.net/DTD/sodipodi-0.dtd"
   xmlns="http://www.w3.org/2000/svg"
   xmlns:svg="http://www.w3.org/2000/svg"><defs
   id="defs1" /><sodipodi:namedview
   id="namedview1"
   pagecolor="#ffffff"
   bordercolor="#000000"
   borderopacity="0.25"
   inkscape:showpageshadow="2"
   inkscape:pageopacity="0.0"
   inkscape:pagecheckerboard="0"
   inkscape:deskcolor="#d1d1d1"
   inkscape:current-layer="Capa_1" />
<path
   d="M 91.57618,55.031995 H 8.42382 C 6.53592,55.031995 5,53.496074 5,51.608177 V 8.3922295 c 0,-1.888303 1.53592,-3.424225 3.42382,-3.424225 h 83.15236 c 1.8879,0 3.42382,1.535922 3.42382,3.424225 V 51.608177 c 0,1.887896 -1.53592,3.423818 -3.42382,3.423818 z M 59.78028,53.40625 h 31.7959 c 0.9913,0 1.79807,-0.806368 1.79807,-1.798073 V 8.3922295 c 0,-0.991298 -0.80636,-1.79848 -1.79807,-1.79848 h -31.7959 z m -17.93481,0 H 58.15453 V 6.5941555 H 41.84547 Z M 8.42382,6.5941555 c -0.99171,0 -1.79808,0.806776 -1.79808,1.798074 V 51.608177 c 0,0.991298 0.80637,1.798073 1.79808,1.798073 h 31.7959 V 6.5941555 Z M 54.98921,52.151989 H 45.0112 c -0.44871,0 -0.81287,-0.364166 -0.81287,-0.812872 v -6.155883 c 0,-0.448705 0.36416,-0.812872 0.81287,-0.812872 h 9.97801 c 0.4487,0 0.81287,0.364167 0.81287,0.812872 v 6.155882 c 0,0.449112 -0.36417,0.812872 -0.81287,0.812873 z m -9.16555,-1.625744 h 8.35227 v -4.530138 h -8.35227 z m 41.5894,0.873025 c -0.44871,0 -0.81288,-0.364168 -0.81288,-0.812874 v -3.042174 c -0.73565,-0.316207 -1.25182,-1.047792 -1.25182,-1.898057 0,-0.850264 0.51658,-1.581849 1.25182,-1.898057 v -2.066321 c 0,-0.448705 0.36417,-0.812872 0.81288,-0.812872 0.4487,0 0.81287,0.364167 0.81287,0.812872 v 2.066321 c 0.73565,0.316208 1.25182,1.047793 1.25182,1.898057 0,0.850265 -0.51658,1.58185 -1.25182,1.898057 v 3.042174 c 0,0.448706 -0.36376,0.812874 -0.81287,0.812874 z m 0,-6.192056 c -0.24224,0 -0.43896,0.196715 -0.43896,0.438952 0,0.242235 0.19672,0.438951 0.43896,0.438951 0.24223,0 0.43895,-0.196715 0.43895,-0.438951 0,-0.242236 -0.19672,-0.438952 -0.43895,-0.438952 z m -5.03534,6.192055 h -4.29847 c -0.44871,0 -0.81287,-0.364167 -0.81287,-0.812873 v -3.151505 c 0,-0.448706 0.36416,-0.812873 0.81287,-0.812873 h 4.29847 c 0.4487,0 0.81287,0.364167 0.81287,0.812873 v 3.151505 c 0,0.448706 -0.36376,0.812873 -0.81287,0.812873 z m -3.4856,-1.625745 h 2.67273 v -1.525761 h -2.67273 z m -3.59005,1.625745 H 71.0036 c -0.4487,0 -0.81287,-0.364167 -0.81287,-0.812873 v -3.151505 c 0,-0.448706 0.36417,-0.812873 0.81287,-0.812873 h 4.29847 c 0.44871,0 0.81287,0.364167 0.81287,0.812873 v 3.151505 c 0,0.448706 -0.36376,0.812873 -0.81287,0.812873 z m -3.48559,-1.625745 h 2.67272 v -1.525761 h -2.67272 z m -3.59006,1.625745 h -4.29846 c -0.44871,0 -0.81288,-0.364167 -0.81288,-0.812873 v -3.151505 c 0,-0.448706 0.36417,-0.812873 0.81288,-0.812873 h 4.29846 c 0.44871,0 0.81288,0.364167 0.81288,0.812873 v 3.151505 c 0,0.448706 -0.36417,0.812873 -0.81288,0.812873 z m -3.486,-1.625745 h 2.67273 v -1.525761 h -2.67273 z m -31.29314,1.625745 c -0.44871,0 -0.81287,-0.364167 -0.81287,-0.812873 v -2.066321 c -0.73565,-0.316207 -1.25223,-1.047792 -1.25223,-1.898057 0,-0.850264 0.51658,-1.581849 1.25223,-1.898056 v -3.042175 c 0,-0.448705 0.36416,-0.812872 0.81287,-0.812872 0.4487,0 0.81287,0.364167 0.81287,0.812872 v 3.042175 c 0.73565,0.316207 1.25182,1.047792 1.25182,1.898056 0,0.850265 -0.51658,1.58185 -1.25182,1.898057 v 2.066321 c 0,0.448706 -0.36376,0.812873 -0.81287,0.812873 z m 0,-5.216202 c -0.24224,0 -0.43936,0.196715 -0.43936,0.438951 0,0.242236 0.19712,0.438951 0.43936,0.438951 0.24223,0 0.43895,-0.196715 0.43895,-0.438951 0,-0.242236 -0.19672,-0.438951 -0.43895,-0.438951 z m -4.91016,5.216202 h -4.29847 c -0.4487,0 -0.81287,-0.364167 -0.81287,-0.812873 v -3.151505 c 0,-0.448706 0.36417,-0.812873 0.81287,-0.812873 h 4.29847 c 0.44871,0 0.81288,0.364167 0.81288,0.812873 v 3.151505 c 0,0.448706 -0.36376,0.812873 -0.81288,0.812873 z m -3.48559,-1.625745 h 2.67272 v -1.525761 h -2.67272 z m -3.59005,1.625745 H 17.1626 c -0.4487,0 -0.81287,-0.364167 -0.81287,-0.812873 v -3.151505 c 0,-0.448706 0.36417,-0.812873 0.81287,-0.812873 h 4.29888 c 0.4487,0 0.81287,0.364167 0.81287,0.812873 v 3.151505 c 0,0.448706 -0.36417,0.812873 -0.81287,0.812873 z m -3.48601,-1.625745 h 2.67313 v -1.525761 h -2.67313 z m -3.59005,1.625745 h -4.29847 c -0.4487,0 -0.81287,-0.364167 -0.81287,-0.812873 v -3.151505 c 0,-0.448706 0.36417,-0.812873 0.81287,-0.812873 h 4.29847 c 0.44871,0 0.81288,0.364167 0.81288,0.812873 v 3.151505 c 0,0.448706 -0.36376,0.812873 -0.81288,0.812873 z m -3.48559,-1.625745 h 2.67272 v -1.525761 h -2.67272 z m 71.47789,-4.127359 h -4.29847 c -0.44871,0 -0.81287,-0.364167 -0.81287,-0.812872 v -3.151506 c 0,-0.448704 0.36416,-0.812872 0.81287,-0.812872 h 4.29847 c 0.4487,0 0.81287,0.364168 0.81287,0.812872 v 3.151506 c 0,0.448705 -0.36376,0.812872 -0.81287,0.812872 z m -3.4856,-1.625744 h 2.67273 v -1.525762 h -2.67273 z m -3.59005,1.625744 H 71.0036 c -0.4487,0 -0.81287,-0.364167 -0.81287,-0.812872 v -3.151506 c 0,-0.448704 0.36417,-0.812872 0.81287,-0.812872 h 4.29847 c 0.44871,0 0.81287,0.364168 0.81287,0.812872 v 3.151506 c 0,0.448705 -0.36376,0.812872 -0.81287,0.812872 z m -3.48559,-1.625744 h 2.67272 v -1.525762 h -2.67272 z m -3.59006,1.625744 h -4.29846 c -0.44871,0 -0.81288,-0.364167 -0.81288,-0.812872 v -3.151506 c 0,-0.448704 0.36417,-0.812872 0.81288,-0.812872 h 4.29846 c 0.44871,0 0.81288,0.364168 0.81288,0.812872 v 3.151506 c 0,0.448705 -0.36417,0.812872 -0.81288,0.812872 z m -3.486,-1.625744 h 2.67273 v -1.525762 h -2.67273 z m -36.2033,1.625744 h -4.29847 c -0.4487,0 -0.81287,-0.364167 -0.81287,-0.812872 v -3.151506 c 0,-0.448704 0.36417,-0.812872 0.81287,-0.812872 h 4.29847 c 0.44871,0 0.81288,0.364168 0.81288,0.812872 v 3.151506 c 0,0.448705 -0.36377,0.812872 -0.81288,0.812872 z m -3.48559,-1.625744 h 2.67272 v -1.525762 h -2.67272 z m -3.59005,1.625744 H 17.1626 c -0.4487,0 -0.81287,-0.364167 -0.81287,-0.812872 v -3.151506 c 0,-0.448704 0.36417,-0.812872 0.81287,-0.812872 h 4.29888 c 0.4487,0 0.81287,0.364168 0.81287,0.812872 v 3.151506 c 0,0.448705 -0.36417,0.812872 -0.81287,0.812872 z m -3.48601,-1.625744 h 2.67313 v -1.525762 h -2.67313 z m -3.59005,1.625744 h -4.29847 c -0.4487,0 -0.81287,-0.364167 -0.81287,-0.812872 v -3.151506 c 0,-0.448704 0.36417,-0.812872 0.81287,-0.812872 h 4.29847 c 0.44871,0 0.81288,0.364168 0.81288,0.812872 v 3.151506 c 0,0.448705 -0.36376,0.812872 -0.81288,0.812872 z m -3.48559,-1.625744 h 2.67272 V 42.494659 H 10.89983 Z M 54.9888,42.494659 c -0.44871,0 -0.81287,-0.364166 -0.81287,-0.812872 v -1.008774 c -0.73565,-0.316208 -1.25183,-1.048199 -1.25183,-1.898057 0,-0.850265 0.51658,-1.58185 1.25183,-1.898057 v -4.099721 c 0,-0.448706 0.36416,-0.812873 0.81287,-0.812873 0.44871,0 0.81287,0.364167 0.81287,0.812873 v 4.099721 c 0.73565,0.316207 1.25183,1.047792 1.25183,1.898057 0,0.850264 -0.51658,1.581849 -1.25223,1.898057 v 1.008774 c 4e-4,0.448706 -0.36336,0.812872 -0.81247,0.812872 z m 4.1e-4,-4.159061 c -0.24224,0 -0.43895,0.196715 -0.43895,0.438951 0,0.242236 0.19671,0.438952 0.43895,0.438952 0.24223,0 0.43895,-0.196715 0.43895,-0.438952 0,-0.242236 -0.19712,-0.438951 -0.43895,-0.438951 z m -4.98901,4.159061 c -0.4487,0 -0.81287,-0.364166 -0.81287,-0.812872 v -3.042174 c -0.73565,-0.316208 -1.25182,-1.047793 -1.25182,-1.898057 0,-0.850265 0.51658,-1.58185 1.25182,-1.898057 v -2.066321 c 0,-0.448706 0.36417,-0.812873 0.81287,-0.812873 0.44871,0 0.81288,0.364167 0.81288,0.812873 v 2.066321 c 0.73564,0.316207 1.25182,1.047792 1.25182,1.898057 0,0.850264 -0.51658,1.581849 -1.25182,1.898057 v 3.042174 c 0,0.448706 -0.36417,0.812872 -0.81288,0.812872 z m 0,-6.192461 c -0.24223,0 -0.43895,0.196715 -0.43895,0.438951 0,0.242236 0.19672,0.438951 0.43895,0.438951 0.24224,0 0.43895,-0.196715 0.43895,-0.438951 0,-0.242236 -0.19712,-0.438951 -0.43895,-0.438951 z m -4.98941,6.192461 c -0.4487,0 -0.81287,-0.364166 -0.81287,-0.812872 v -2.066321 c -0.73565,-0.316208 -1.25182,-1.047793 -1.25182,-1.898057 0,-0.850264 0.51658,-1.581849 1.25182,-1.898057 v -3.042174 c 0,-0.448706 0.36417,-0.812873 0.81287,-0.812873 0.44871,0 0.81287,0.364167 0.81287,0.812873 v 3.042174 c 0.73565,0.316208 1.25183,1.047793 1.25183,1.898057 0,0.850264 -0.51658,1.581849 -1.25183,1.898057 v 2.066321 c 0,0.448706 -0.36376,0.812872 -0.81287,0.812872 z m 0,-5.216201 c -0.24223,0 -0.43895,0.196715 -0.43895,0.438952 0,0.242235 0.19672,0.438951 0.43895,0.438951 0.24224,0 0.43895,-0.196715 0.43895,-0.438951 0,-0.242236 -0.19671,-0.438952 -0.43895,-0.438952 z m 31.5431,1.231096 c -8.13522,0 -14.75403,-6.618813 -14.75403,-14.754445 0,-8.135632 6.61881,-14.7540385 14.75403,-14.7540385 8.13564,0 14.75404,6.6184065 14.75404,14.7540385 0,8.135631 -6.6184,14.754445 -14.75404,14.754445 z m 0,-27.882739 c -7.23903,0 -13.12829,5.88926 -13.12829,13.128294 0,7.239441 5.88926,13.128699 13.12829,13.128699 7.23904,0 13.1283,-5.889258 13.1283,-13.1287 4.1e-4,-7.238627 -5.88926,-13.128294 -13.1283,-13.128293 z m -53.311,27.882739 c -8.13564,0 -14.75404,-6.618813 -14.75404,-14.754445 0,-8.135632 6.61881,-14.7540385 14.75404,-14.7540385 8.13522,0 14.75403,6.6184065 14.75403,14.7540385 0,8.135631 -6.61881,14.754445 -14.75403,14.754445 z m 0,-27.882739 c -7.23904,0 -13.1283,5.88926 -13.1283,13.128294 0,7.239441 5.88926,13.128699 13.1283,13.128699 7.23903,0 13.12829,-5.889258 13.12829,-13.1287 0,-7.238627 -5.88967,-13.128294 -13.12829,-13.128293 z m 53.311,24.766593 c -6.41722,0 -11.63789,-5.221079 -11.63789,-11.638299 0,-6.41722 5.22067,-11.637892 11.63789,-11.637892 0.44871,0 0.81288,0.364167 0.81288,0.812872 0,0.448706 -0.36417,0.812872 -0.81288,0.812872 -5.52062,0 -10.01214,4.491526 -10.01214,10.012148 0,5.521029 4.49152,10.012555 10.01214,10.012555 0.44871,0 0.81288,0.364166 0.81288,0.812872 0,0.448704 -0.36376,0.812872 -0.81288,0.812872 z m -53.311,0 c -6.41722,0 -11.6383,-5.221079 -11.6383,-11.638299 0,-6.41722 5.22108,-11.637892 11.6383,-11.637892 0.4487,0 0.81287,0.364167 0.81287,0.812872 0,0.448706 -0.36417,0.812872 -0.81287,0.812872 -5.52063,0 -10.01256,4.491526 -10.01256,10.012148 0,5.521029 4.49153,10.012555 10.01256,10.012555 0.4487,0 0.81287,0.364166 0.81287,0.812872 0,0.448704 -0.36417,0.812872 -0.81287,0.812872 z m 31.74632,-5.823823 c -0.44871,0 -0.81288,-0.364167 -0.81288,-0.812873 v -4.826835 c 0,-0.448707 0.36417,-0.812872 0.81288,-0.812872 0.4487,0 0.81287,0.364166 0.81287,0.812872 v 4.826835 c 0,0.448706 -0.36417,0.812873 -0.81287,0.812873 z m -4.98901,0 c -0.4487,0 -0.81287,-0.364167 -0.81287,-0.812873 v -4.826835 c 0,-0.448707 0.36417,-0.812872 0.81287,-0.812872 0.44871,0 0.81288,0.364166 0.81288,0.812872 v 4.826835 c 0,0.448706 -0.36417,0.812873 -0.81288,0.812873 z m -4.98941,0 c -0.4487,0 -0.81287,-0.364167 -0.81287,-0.812873 v -4.826835 c 0,-0.448707 0.36417,-0.812872 0.81287,-0.812872 0.44871,0 0.81287,0.364166 0.81287,0.812872 v 4.826835 c 0,0.448706 -0.36376,0.812873 -0.81287,0.812873 z m 31.5431,-1.794822 c -2.21629,0 -4.01924,-1.803357 -4.01924,-4.019654 0,-2.216296 1.80295,-4.019247 4.01924,-4.019247 2.2163,0 4.01925,1.802951 4.01925,4.019247 0,2.216297 -1.80295,4.019654 -4.01925,4.019654 z m 0,-6.41275 c -1.31969,0 -2.3935,1.073805 -2.3935,2.393503 0,1.320104 1.07381,2.393909 2.3935,2.393909 1.3197,0 2.39351,-1.073805 2.39351,-2.393909 0,-1.320106 -1.07381,-2.393503 -2.39351,-2.393503 z m -53.311,6.41275 c -2.2163,0 -4.01925,-1.803357 -4.01925,-4.019654 0,-2.216296 1.80295,-4.019247 4.01925,-4.019247 2.21629,0 4.01924,1.802951 4.01924,4.019247 0,2.216297 -1.80335,4.019654 -4.01924,4.019654 z m 0,-6.41275 c -1.3197,0 -2.39351,1.073805 -2.39351,2.393503 0,1.320104 1.07381,2.393909 2.39351,2.393909 1.31969,0 2.3935,-1.073805 2.3935,-2.393909 -4.1e-4,-1.320106 -1.07381,-2.393503 -2.3935,-2.393503 z m 31.74632,-0.138188 c -0.44871,0 -0.81288,-0.364167 -0.81288,-0.812873 v -0.116647 c 0,-0.448705 0.36417,-0.812872 0.81288,-0.812872 0.4487,0 0.81287,0.364167 0.81287,0.812872 v 0.116647 c 0,0.448706 -0.36417,0.812873 -0.81287,0.812873 z m -4.98901,0 c -0.4487,0 -0.81287,-0.364167 -0.81287,-0.812873 v -0.116647 c 0,-0.448705 0.36417,-0.812872 0.81287,-0.812872 0.44871,0 0.81288,0.364167 0.81288,0.812872 v 0.116647 c 0,0.448706 -0.36417,0.812873 -0.81288,0.812873 z m -4.98941,0 c -0.4487,0 -0.81287,-0.364167 -0.81287,-0.812873 v -0.116647 c 0,-0.448705 0.36417,-0.812872 0.81287,-0.812872 0.44871,0 0.81287,0.364167 0.81287,0.812872 v 0.116647 c 0,0.448706 -0.36376,0.812873 -0.81287,0.812873 z m 9.97842,-3.681905 c -0.44871,0 -0.81288,-0.364167 -0.81288,-0.812873 V 16.6124 c 0,-0.448705 0.36417,-0.812872 0.81288,-0.812872 0.4487,0 0.81287,0.364167 0.81287,0.812872 v 0.116647 c 0,0.449112 -0.36417,0.812873 -0.81287,0.812873 z m -4.98901,0 c -0.4487,0 -0.81287,-0.364167 -0.81287,-0.812873 V 16.6124 c 0,-0.448705 0.36417,-0.812872 0.81287,-0.812872 0.44871,0 0.81288,0.364167 0.81288,0.812872 v 0.116647 c 0,0.449112 -0.36417,0.812873 -0.81288,0.812873 z m -4.98941,0 c -0.4487,0 -0.81287,-0.364167 -0.81287,-0.812873 V 16.6124 c 0,-0.448705 0.36417,-0.812872 0.81287,-0.812872 0.44871,0 0.81287,0.364167 0.81287,0.812872 v 0.116647 c 0,0.449112 -0.36376,0.812873 -0.81287,0.812873 z m 9.97842,-3.681905 c -0.44871,0 -0.81288,-0.364167 -0.81288,-0.812872 v -0.116648 c 0,-0.448705 0.36417,-0.812872 0.81288,-0.812872 0.4487,0 0.81287,0.364167 0.81287,0.812872 v 0.116648 c 0,0.448705 -0.36417,0.812872 -0.81287,0.812872 z m -4.98901,0 c -0.4487,0 -0.81287,-0.364167 -0.81287,-0.812872 v -0.116648 c 0,-0.448705 0.36417,-0.812872 0.81287,-0.812872 0.44871,0 0.81288,0.364167 0.81288,0.812872 v 0.116648 c 0,0.448705 -0.36417,0.812872 -0.81288,0.812872 z m -4.98941,0 c -0.4487,0 -0.81287,-0.364167 -0.81287,-0.812872 v -0.116648 c 0,-0.448705 0.36417,-0.812872 0.81287,-0.812872 0.44871,0 0.81287,0.364167 0.81287,0.812872 v 0.116648 c 0,0.448705 -0.36376,0.812872 -0.81287,0.812872 z m 9.97842,-3.681905 c -0.44871,0 -0.81288,-0.3641675 -0.81288,-0.8128725 v -0.116647 c 0,-0.448706 0.36417,-0.812873 0.81288,-0.812873 0.4487,0 0.81287,0.364167 0.81287,0.812873 v 0.116647 c 0,0.448705 -0.36417,0.8128725 -0.81287,0.8128725 z m -4.98901,0 c -0.4487,0 -0.81287,-0.3641675 -0.81287,-0.8128725 v -0.116647 c 0,-0.448706 0.36417,-0.812873 0.81287,-0.812873 0.44871,0 0.81288,0.364167 0.81288,0.812873 v 0.116647 c 0,0.448705 -0.36417,0.8128725 -0.81288,0.8128725 z m -4.98941,0 c -0.4487,0 -0.81287,-0.3641675 -0.81287,-0.8128725 v -0.116647 c 0,-0.448706 0.36417,-0.812873 0.81287,-0.812873 0.44871,0 0.81287,0.364167 0.81287,0.812873 v 0.116647 c 0,0.448705 -0.36376,0.8128725 -0.81287,0.8128725 z"
   id="path1"
   style="stroke-width:1" />
</svg>
