<?xml version="1.0" encoding="iso-8859-1"?>
<!-- Uploaded to: SVG Repo, www.svgrepo.com, Generator: SVG Repo Mixer Tools -->
<svg fill="#000000" version="1.1" id="Layer_1" xmlns="http://www.w3.org/2000/svg" xmlns:xlink="http://www.w3.org/1999/xlink" 
	 viewBox="0 0 343.439 343.439" xml:space="preserve">
<g>
	<g>
		<path d="M316.15,0H27.29C17.541,0,9.641,7.9,9.641,17.649v278.677c0,9.748,7.9,17.649,17.649,17.649h288.86
			c9.748,0,17.649-7.9,17.649-17.649V17.649C333.798,7.9,325.898,0,316.15,0z M171.72,23.219c12.508,0,22.646,10.138,22.646,22.646
			c0,12.508-10.138,22.646-22.646,22.646s-22.646-10.138-22.646-22.646C149.074,33.357,159.212,23.219,171.72,23.219z
			 M178.586,95.621c0-4.357,3.533-7.89,7.89-7.89c4.357,0,7.89,3.533,7.89,7.89s-3.533,7.89-7.89,7.89
			C182.118,103.516,178.586,99.983,178.586,95.621z M184.904,147.041c0,7.281-5.903,13.184-13.184,13.184
			s-13.184-5.903-13.184-13.184s5.903-13.184,13.184-13.184S184.904,139.761,184.904,147.041z M156.964,87.731
			c4.357,0,7.895,3.533,7.895,7.89s-3.533,7.89-7.895,7.89c-4.357,0-7.89-3.533-7.89-7.89S152.607,87.731,156.964,87.731z
			 M135.444,180.572h29.414v18.043h-29.414V180.572z M100.931,23.219c7.281,0,13.184,5.903,13.184,13.184
			s-5.903,13.184-13.184,13.184s-13.179-5.903-13.179-13.184S93.65,23.219,100.931,23.219z M100.931,68.516
			c7.281,0,13.184,5.903,13.184,13.184s-5.903,13.184-13.184,13.184S87.752,88.98,87.752,81.7S93.65,68.516,100.931,68.516z
			 M69.862,308.086H27.29c-6.487,0-11.766-5.279-11.766-11.766V17.649c0-6.487,5.279-11.766,11.766-11.766h42.573V308.086z
			 M87.752,126.996c0-7.281,5.903-13.184,13.184-13.184s13.184,5.903,13.184,13.184s-5.903,13.184-13.184,13.184
			S87.752,134.277,87.752,126.996z M98.186,292.193h-5.883v-19.517h5.883V292.193z M98.186,264.648h-5.883V245.13h5.883V264.648z
			 M109.952,292.193h-5.883v-19.517h5.883V292.193z M109.952,264.648h-5.883V245.13h5.883V264.648z M121.718,292.193h-5.883v-19.517
			h5.883V292.193z M121.718,264.648h-5.883V245.13h5.883V264.648z M121.718,227.092H92.303V209.05h29.414V227.092z M121.718,198.615
			H92.303v-18.043h29.414V198.615z M133.484,292.193h-5.883v-19.517h5.883V292.193z M133.484,264.648h-5.883V245.13h5.883V264.648z
			 M135.444,209.05h29.414v18.043h-29.414V209.05z M145.249,292.193h-5.883v-19.517h5.883V292.193z M145.249,264.648h-5.883V245.13
			h5.883V264.648z M157.015,292.193h-5.883v-19.517h5.883V292.193z M157.015,264.648h-5.883V245.13h5.883V264.648z M180.541,292.193
			h-5.883v-0.558c-0.922,0.338-1.9,0.558-2.939,0.558s-2.017-0.22-2.939-0.558v0.558h-5.883V245.13h5.883v0.558
			c0.927-0.338,1.905-0.558,2.939-0.558s2.017,0.22,2.939,0.558v-0.558h5.883V292.193z M192.307,292.193h-5.883v-19.517h5.883
			V292.193z M192.307,264.648h-5.883V245.13h5.883V264.648z M204.073,292.193h-5.883v-19.517h5.883V292.193z M204.073,264.648
			h-5.883V245.13h5.883V264.648z M207.995,227.092H178.58V209.05h29.414V227.092z M207.995,198.615H178.58v-18.043h29.414V198.615z
			 M215.839,292.193h-5.883v-19.517h5.883V292.193z M215.839,264.648h-5.883V245.13h5.883V264.648z M227.605,292.193h-5.883v-19.517
			h5.883V292.193z M227.605,264.648h-5.883V245.13h5.883V264.648z M239.37,292.193h-5.883v-19.517h5.883V292.193z M239.37,264.648
			h-5.883V245.13h5.883V264.648z M251.136,292.193h-5.883v-19.517h5.883V292.193z M251.136,264.648h-5.883V245.13h5.883V264.648z
			 M251.136,227.092h-29.414V209.05h29.414V227.092z M251.136,198.615h-29.414v-18.043h29.414V198.615z M242.509,140.175
			c-7.281,0-13.184-5.903-13.184-13.184s5.903-13.184,13.184-13.184s13.184,5.903,13.184,13.184
			C255.688,134.277,249.789,140.175,242.509,140.175z M242.509,94.879c-7.281,0-13.184-5.903-13.184-13.184
			s5.903-13.184,13.184-13.184s13.184,5.903,13.184,13.184S249.789,94.879,242.509,94.879z M242.509,49.587
			c-7.281,0-13.184-5.903-13.184-13.184s5.903-13.184,13.184-13.184s13.184,5.903,13.184,13.184
			C255.688,43.684,249.789,49.587,242.509,49.587z M327.916,296.32c0,6.487-5.279,11.766-11.766,11.766h-42.573V5.883h42.573
			c6.487,0,11.766,5.279,11.766,11.766V296.32z"/>
		<path d="M316.15,319.852H27.29c-9.748,0-17.649-7.9-17.649-17.649v23.588c0,9.748,7.9,17.649,17.649,17.649h288.86
			c9.748,0,17.649-7.9,17.649-17.649v-23.588C333.798,311.951,325.898,319.852,316.15,319.852z"/>
		<rect x="285.798" y="275.845" width="29.414" height="18.043"/>
		<rect x="28.969" y="275.845" width="29.414" height="18.043"/>
		<path d="M43.674,52.526c8.888,0,16.123-7.235,16.123-16.123c0-8.893-7.235-16.128-16.123-16.128S27.551,27.51,27.551,36.403
			C27.551,45.292,34.785,52.526,43.674,52.526z M43.674,26.158c5.647,0,10.24,4.598,10.24,10.245c0,5.647-4.593,10.24-10.24,10.24
			s-10.24-4.593-10.24-10.24C33.434,30.756,38.026,26.158,43.674,26.158z"/>
		<path d="M300.503,20.275c-8.888,0-16.123,7.235-16.123,16.128c0,8.888,7.235,16.123,16.123,16.123
			c8.888,0,16.123-7.235,16.123-16.123C316.626,27.51,309.396,20.275,300.503,20.275z M300.503,46.643
			c-5.647,0-10.24-4.593-10.24-10.24c0-5.647,4.593-10.245,10.24-10.245s10.24,4.598,10.24,10.245
			C310.743,42.051,306.15,46.643,300.503,46.643z"/>
	</g>
</g>
</svg>