<svg xmlns="http://www.w3.org/2000/svg" xml:space="preserve" width="50" height="55">
    <path d="M2.722 0A2.72 2.72 0 0 0 0 2.722v42.985a2.72 2.72 0 0 0 2.722 2.722h44.556A2.72 2.72 0 0 0 50 45.707V2.722A2.72 2.72 0 0 0 47.278 0Zm0 .907H9.29v46.614H2.722c-1 0-1.815-.814-1.815-1.815V2.722c0-1 .815-1.815 1.815-1.815m37.989 0h6.567c1 0 1.815.815 1.815 1.815v42.984c0 1-.815 1.815-1.815 1.815H40.71ZM5.249 3.127a2.49 2.49 0 0 0-2.486 2.488 2.49 2.49 0 0 0 2.486 2.487 2.49 2.49 0 0 0 2.487-2.487A2.49 2.49 0 0 0 5.25 3.127m39.615 0a2.49 2.49 0 0 0-2.487 2.488 2.49 2.49 0 0 0 2.487 2.487 2.49 2.49 0 0 0 2.487-2.487 2.49 2.49 0 0 0-2.487-2.488m-30.783.454a2.034 2.034 0 1 1 0 4.068 2.034 2.034 0 0 1 0-4.068m10.919 0a3.493 3.493 0 1 1 0 6.986 3.493 3.493 0 0 1 0-6.986m10.919 0a2.034 2.034 0 1 1 0 4.068 2.034 2.034 0 0 1 0-4.068m-30.67.454c.871 0 1.58.709 1.58 1.58 0 .87-.709 1.58-1.58 1.58-.87 0-1.579-.71-1.579-1.58s.708-1.58 1.58-1.58m39.615 0c.871 0 1.58.709 1.58 1.58s-.709 1.58-1.58 1.58c-.87 0-1.58-.71-1.58-1.58s.71-1.58 1.58-1.58m-8.945 6.533a2.034 2.034 0 1 1 0 4.067 2.034 2.034 0 0 1 0-4.067m-21.838 0a2.034 2.034 0 1 1 0 4.068 2.034 2.034 0 0 1 0-4.068m8.643 2.964a1.218 1.218 0 1 1 0 2.436 1.218 1.218 0 0 1 0-2.436m4.552 0a1.217 1.217 0 1 1 0 2.434 1.217 1.217 0 0 1 0-2.434m8.643 4.022a2.034 2.034 0 1 1 0 4.068 2.034 2.034 0 0 1 0-4.068m-21.837.001a2.034 2.034 0 1 1 0 4.067 2.034 2.034 0 0 1 0-4.067M25 20.647a2.034 2.034 0 1 1 0 4.068 2.034 2.034 0 0 1 0-4.068m-12.25 7.206h4.537v2.783H12.75zm6.655 0h4.537v2.783h-4.537zm6.653 0h4.537v2.783h-4.537zm6.654 0h4.537v2.783h-4.537zM12.75 32.245h4.537v2.783H12.75zm6.655 0h4.537v2.783h-4.537zm6.653 0h4.537v2.783h-4.537zm6.654 0h4.537v2.783h-4.537zM12.75 37.81h.908v3.01h-.908zm1.815 0h.907v3.01h-.907zm1.815 0h.907v3.01h-.907zm1.815 0h.907v3.01h-.907zm1.814 0h.908v3.01h-.908zm1.815 0h.908v3.01h-.908zm1.815 0h.907v.086c.143-.052.294-.086.454-.086s.311.034.453.086v-.086h.908v7.26h-.908v-.087a1.3 1.3 0 0 1-.453.087 1.3 1.3 0 0 1-.454-.087v.087h-.907zm3.629 0h.907v3.01h-.907zm1.815 0h.907v3.01h-.907zm1.815 0h.907v3.01h-.907zm1.814 0h.908v3.01h-.908zm1.815 0h.908v3.01h-.908Zm1.815 0h.907v3.01h-.907zM12.75 42.06h.908v3.01h-.908zm1.815 0h.907v3.01h-.907zm1.815 0h.907v3.01h-.907zm1.815 0h.907v3.01h-.907zm1.814 0h.908v3.01h-.908zm1.815 0h.908v3.01h-.908zm5.444 0h.907v3.01h-.907zm1.815 0h.907v3.01h-.907zm1.815 0h.907v3.01h-.907zm1.814 0h.908v3.01h-.908zm1.815 0h.908v3.01h-.908Zm1.815 0h.907v3.01h-.907Zm-33.36.488v2.783h4.536v-2.783zm39.614 0v2.783h4.537v-2.783zM0 46.614v3.638a2.72 2.72 0 0 0 2.722 2.722h44.556A2.72 2.72 0 0 0 50 50.252v-3.638a2.72 2.72 0 0 1-2.722 2.722H2.722A2.72 2.72 0 0 1 0 46.614" style="stroke-width:.999999"/>
</svg>
