<?xml version="1.0" encoding="UTF-8" standalone="no"?>
<!-- Uploaded to: SVG Repo, www.svgrepo.com, Generator: SVG Repo Mixer Tools -->

<svg
   fill="#000000"
   version="1.1"
   id="Layer_1"
   viewBox="0 0 50 55.000001"
   xml:space="preserve"
   sodipodi:docname="dj_mixer_2.svg"
   width="50"
   height="55"
   inkscape:version="1.3.2 (091e20e, 2023-11-25)"
   xmlns:inkscape="http://www.inkscape.org/namespaces/inkscape"
   xmlns:sodipodi="http://sodipodi.sourceforge.net/DTD/sodipodi-0.dtd"
   xmlns="http://www.w3.org/2000/svg"
   xmlns:svg="http://www.w3.org/2000/svg"><defs
   id="defs5">
	

		
		
		
		
		
		
	</defs><sodipodi:namedview
   id="namedview5"
   pagecolor="#ffffff"
   bordercolor="#000000"
   borderopacity="0.25"
   inkscape:showpageshadow="2"
   inkscape:pageopacity="0.0"
   inkscape:pagecheckerboard="0"
   inkscape:deskcolor="#d1d1d1"
   inkscape:current-layer="Layer_1" />
<path
   id="path1"
   d="M 2.7221951,0 C 1.2184555,0 0,1.2184555 0,2.7221951 V 45.707029 c 0,1.503585 1.2184555,2.722195 2.7221951,2.722195 H 47.277805 c 1.503585,0 2.722194,-1.218456 2.722194,-2.722195 V 2.7221951 C 49.999844,1.2184555 48.78139,0 47.277805,0 Z m 0,0.90739836 H 9.2890839 V 47.520922 H 9.2887754 2.7221879 c -1.0005907,0 -1.81479679,-0.814206 -1.81479679,-1.814797 V 2.7221951 c 0,-1.0005907 0.81420609,-1.81479674 1.81479679,-1.81479674 z m 37.9887209,0 h 6.566889 c 1.00059,0 1.814796,0.81420604 1.814796,1.81479674 V 45.706125 c 0,1.000591 -0.814206,1.814797 -1.814796,1.814797 H 40.710916 Z M 5.2494742,3.1273913 c -1.3709341,0 -2.4869102,1.1158073 -2.4869102,2.4875126 0,1.3710884 1.1158218,2.4869102 2.4869102,2.4869102 1.3709341,0 2.4869102,-1.115976 2.4869102,-2.4869102 0,-1.3717053 -1.1159761,-2.4875126 -2.4869102,-2.4875126 z m 39.6146268,0 c -1.370934,0 -2.486911,1.1158073 -2.486911,2.4875126 0,1.3709342 1.115977,2.4869102 2.486911,2.4869102 1.370934,0 2.486909,-1.115976 2.48691,-2.4869102 0,-1.3717053 -1.115205,-2.4875126 -2.48691,-2.4875126 z M 14.080943,3.5813917 c 1.123061,0 2.033813,0.9104506 2.033813,2.0335122 0,1.1230615 -0.910752,2.0338136 -2.033813,2.0338136 -1.123062,0 -2.032609,-0.9107521 -2.032609,-2.0338136 0,-1.1230616 0.909547,-2.0335122 2.032609,-2.0335122 z m 10.918905,0 c 1.929304,0 3.493123,1.5638192 3.493123,3.493122 0,1.929303 -1.563819,3.4931223 -3.493123,3.4931223 -1.929302,0 -3.49282,-1.5638193 -3.49282,-3.4931223 0,-1.9293028 1.563518,-3.493122 3.49282,-3.493122 z m 10.918908,0 c 1.123061,0 2.033812,0.9104506 2.033812,2.0335122 -7.71e-4,1.1230615 -0.910905,2.0338136 -2.033812,2.0338136 -1.123063,0 -2.033513,-0.9107521 -2.033513,-2.0338136 0,-1.1230616 0.91045,-2.0335122 2.033513,-2.0335122 z M 5.2494742,4.0347895 c 0.8710244,0 1.5795118,0.7090899 1.5795119,1.5801144 0,0.8710244 -0.7084875,1.5795118 -1.5795119,1.5795118 -0.8710244,0 -1.5795118,-0.7084874 -1.5795118,-1.5795118 0,-0.8710245 0.7083332,-1.5801144 1.5795118,-1.5801144 z m 39.6146268,0 c 0.871023,0 1.579511,0.7090899 1.579511,1.5801144 0,0.8711787 -0.708488,1.5795118 -1.579511,1.5795118 -0.871026,0 -1.579513,-0.7084874 -1.579513,-1.5795118 0,-0.8710245 0.708487,-1.5801144 1.579513,-1.5801144 z m -8.945345,6.5328465 c 1.123061,0 2.033812,0.910451 2.033812,2.033512 0,1.123062 -0.910905,2.033512 -2.033812,2.033512 -1.123063,0 -2.033513,-0.91045 -2.033513,-2.033512 0,-1.123061 0.91045,-2.033512 2.033513,-2.033512 z m -21.837813,6.02e-4 c 1.123061,0 2.033813,0.91045 2.033813,2.033512 0,1.123061 -0.910752,2.033813 -2.033813,2.033813 -1.123062,0 -2.032609,-0.910906 -2.032609,-2.033813 0,-1.122908 0.909547,-2.033512 2.032609,-2.033512 z m 8.642879,2.963806 c 0.672047,0 1.217998,0.545047 1.217998,1.217095 0,0.672047 -0.54518,1.217095 -1.217998,1.217095 -0.672048,0 -1.216794,-0.545048 -1.216794,-1.217095 0,-0.672048 0.544746,-1.217095 1.216794,-1.217095 z m 4.552356,0 c 0.672047,0 1.216793,0.545047 1.216793,1.217095 0,0.672047 -0.544746,1.217095 -1.216793,1.217095 -0.672203,7.71e-4 -1.217095,-0.544276 -1.217095,-1.217095 0,-0.672048 0.545047,-1.217095 1.217095,-1.217095 z m 8.642578,4.022137 c 1.123061,0 2.033812,0.91045 2.033812,2.033511 -7.71e-4,1.123834 -0.910905,2.033814 -2.033812,2.033814 -1.123063,0 -2.033513,-0.910751 -2.033513,-2.033814 0,-1.123061 0.91045,-2.033511 2.033513,-2.033511 z m -21.83691,9.25e-4 c 1.123062,0 2.033513,0.91045 2.033513,2.033512 0,1.123062 -0.910451,2.033513 -2.033513,2.033513 -1.123061,0 -2.033512,-0.910451 -2.033512,-2.033513 0,-1.123062 0.910451,-2.033512 2.033512,-2.033512 z m 10.918002,3.091842 c 1.123063,0 2.033814,0.910605 2.033814,2.033513 0,1.123061 -0.910751,2.033512 -2.033814,2.033512 -1.123061,0 -2.033511,-0.910451 -2.033511,-2.033512 0,-1.123062 0.91045,-2.033513 2.033511,-2.033513 z m -12.249576,7.205563 h 4.536992 v 2.783049 h -4.536992 z m 6.654254,0 h 4.536993 v 2.783049 h -4.536993 z m 6.653653,0 h 4.536993 v 2.783049 h -4.536993 z m 6.654255,0 h 4.536991 v 2.783049 h -4.536991 z m -19.962162,4.392667 h 4.536992 v 2.782749 h -4.536992 z m 6.654254,0 h 4.536993 v 2.78305 h -4.536993 z m 6.653653,0 h 4.536993 v 2.782749 h -4.536993 z m 6.654255,0 h 4.536991 v 2.782749 h -4.536991 z m -19.962162,5.565196 h 0.907399 v 3.010502 h -0.907399 z m 1.814797,0 h 0.907399 v 3.010502 h -0.907399 z m 1.814797,0 h 0.907398 v 3.010502 h -0.907398 z m 1.815098,0 h 0.907398 v 3.010502 h -0.907398 z m 1.814495,0 h 0.907398 v 3.010502 h -0.907398 z m 1.814796,0 h 0.9074 v 3.010502 h -0.9074 z m 1.814798,0 h 0.907398 v 0.08586 c 0.142986,-0.05213 0.293909,-0.08586 0.453397,-0.08586 0.15949,0 0.311185,0.03372 0.453399,0.08586 v -0.08586 h 0.907398 v 7.259187 H 25.453247 V 44.9834 c -0.142214,0.05214 -0.293138,0.08616 -0.453399,0.08616 -0.160259,0 -0.311183,-0.03402 -0.453397,-0.08616 v 0.08616 h -0.907398 z m 3.62899,0 h 0.9074 v 3.010502 h -0.9074 z m 1.814798,0 h 0.907398 v 3.010502 h -0.907398 z m 1.814796,0 h 0.907399 v 3.010502 h -0.907399 z m 1.814797,0 h 0.907699 v 3.010502 h -0.907699 z m 1.814796,0 h 0.907399 v 3.010502 H 34.52723 Z m 1.814797,0 h 0.907398 v 3.010502 h -0.907398 z m -23.591755,4.248684 h 0.907399 v 3.010503 h -0.907399 z m 1.814797,0 h 0.907399 v 3.010503 h -0.907399 z m 1.814797,0 h 0.907398 v 3.010503 h -0.907398 z m 1.815098,0 h 0.907398 v 3.010503 h -0.907398 z m 1.814495,0 h 0.907398 v 3.010503 h -0.907398 z m 1.814796,0 h 0.9074 v 3.010503 h -0.9074 z m 5.443788,0 h 0.9074 v 3.010503 h -0.9074 z m 1.814798,0 h 0.907398 v 3.010503 h -0.907398 z m 1.814796,0 h 0.907399 v 3.010503 h -0.907399 z m 1.814797,0 h 0.907699 v 3.010503 h -0.907699 z m 1.814796,0 h 0.907399 v 3.010503 H 34.52723 Z m 1.814797,0 h 0.907398 v 3.010503 H 36.342027 Z M 2.9812796,42.548005 v 2.78305 h 4.5369918 v -2.78305 z m 39.6146264,0 v 2.78305 h 4.536991 v -2.78305 z M 0,46.613523 v 3.638331 c 0,1.503585 1.2184555,2.722194 2.7221951,2.722194 H 47.277805 c 1.503585,0 2.722194,-1.218454 2.722194,-2.722194 v -3.638331 c -1.55e-4,1.503587 -1.218609,2.722195 -2.722194,2.722195 H 2.7221951 C 1.2186098,49.335718 0,48.117264 0,46.613523 Z"
   style="stroke-width:0.999999" />
</svg>
