<?xml version="1.0" encoding="UTF-8" standalone="no"?>
<!-- Uploaded to: SVG Repo, www.svgrepo.com, Generator: SVG Repo Mixer Tools -->

<svg
   fill="#000000"
   height="100"
   width="100"
   version="1.1"
   id="Capa_1"
   viewBox="0 0 100 100"
   xml:space="preserve"
   sodipodi:docname="drum_set_1.svg"
   inkscape:version="1.3.2 (091e20e, 2023-11-25)"
   xmlns:inkscape="http://www.inkscape.org/namespaces/inkscape"
   xmlns:sodipodi="http://sodipodi.sourceforge.net/DTD/sodipodi-0.dtd"
   xmlns="http://www.w3.org/2000/svg"
   xmlns:svg="http://www.w3.org/2000/svg"><defs
   id="defs1" /><sodipodi:namedview
   id="namedview1"
   pagecolor="#ffffff"
   bordercolor="#000000"
   borderopacity="0.25"
   inkscape:showpageshadow="2"
   inkscape:pageopacity="0.0"
   inkscape:pagecheckerboard="0"
   inkscape:deskcolor="#d1d1d1"
   inkscape:current-layer="Capa_1" />
<path
   d="M 94.7224,81.796165 79.449331,68.476402 V 22.178129 C 86.453181,21.4317 93.273865,19.10862 92.969059,16.034252 92.84823,14.81847 91.705512,13.888064 89.572278,13.268738 c -1.795641,-0.521165 -4.199882,-0.796826 -6.95305,-0.796826 -1.030591,0 -2.092958,0.04088 -3.169897,0.118401 v -2.085672 c 0,-0.447089 -0.362488,-0.809577 -0.809577,-0.809577 -0.447088,0 -0.809576,0.362488 -0.809576,0.809577 v 2.229979 c -7.004053,0.74643 -13.824534,3.069712 -13.519526,6.14408 0.120829,1.215781 1.263344,2.146187 3.396377,2.765311 1.795438,0.521165 4.199476,0.797028 6.952644,0.797028 4.05e-4,0 4.05e-4,0 6.07e-4,0 1.030591,0 2.092756,-0.04088 3.169898,-0.118603 v 46.153966 l -8.676638,7.566102 c 0.08743,-0.749061 0.133782,-1.510468 0.133782,-2.282602 0,-0.128723 0,-5.443998 0,-5.443998 0,-4.473518 -1.508646,-8.599931 -4.041811,-11.901182 v -6.068384 h 11.315655 c 0.447089,0 0.809577,-0.362488 0.809577,-0.809577 v -8.314352 c 0,-0.447089 -0.362488,-0.809577 -0.809577,-0.809577 H 69.64475 c 0.111722,-0.268982 0.1437,-0.554762 0.05829,-0.856127 0,0 0,-2.03e-4 0,-2.03e-4 l 6.07e-4,-2.02e-4 -2.682937,-9.464356 c -0.334558,-1.180363 -2.062397,-1.226509 -3.33161,-1.156885 -1.548923,0.08379 -3.52429,0.4481 -5.561792,1.025531 -1.368589,0.38799 -8.162152,2.441481 -7.499918,4.778121 l 0.669924,2.36356 h -3.310763 l 0.514283,-2.72038 C 49.035964,31.548777 39.916286,29.73998 38.874563,29.543253 37.83284,29.346526 28.684016,27.701466 28.148481,30.534782 l -1.214972,6.427432 c -1.833488,0.06092 -3.527325,0.178511 -4.915749,0.340224 V 25.728933 l 2.314377,-2.291507 c 0.294281,0.05222 0.589979,0.102614 0.887498,0.150581 2.857401,0.462066 5.71804,0.706153 8.27266,0.706153 2.704188,0 5.033947,-0.269993 6.737499,-0.780836 2.023132,-0.606778 3.149861,-1.538196 3.348612,-2.768145 C 43.854674,19.03515 42.205364,17.27594 38.808582,15.657597 35.745954,14.198537 31.57036,12.99247 27.0511,12.26203 27.01568,12.25633 26.98026,12.2515 26.945046,12.24584 v -1.741399 c 0,-0.447089 -0.362488,-0.809577 -0.809577,-0.809577 -0.447089,0 -0.809577,0.362488 -0.809577,0.809577 v 1.507229 c -2.272481,-0.297924 -4.507722,-0.455994 -6.547451,-0.455994 -2.704188,0 -5.033948,0.269994 -6.7375,0.780837 -2.023132,0.606777 -3.1498602,1.538195 -3.3486113,2.768145 -0.2762681,1.710028 1.3730423,3.469238 4.7698233,5.087582 2.415575,1.150813 5.524754,2.142949 8.947442,2.869747 l -12.395024,12.27237 c -0.3175567,0.314723 -0.3201878,0.827185 -0.0057,1.144944 0.158272,0.159892 0.366941,0.24004 0.575407,0.24004 0.205834,0 0.411669,-0.07812 0.569537,-0.23417 l 9.244961,-9.153479 v 10.203095 c -1.645667,0.291852 -2.640637,0.697653 -2.640637,1.58758 v 18.69353 c 0,0.789135 0.720321,1.246545 2.640637,1.588592 v 9.203672 L 5.2775353,81.796165 c -0.3369862,0.293876 -0.3720004,0.805326 -0.078124,1.142313 0.1600938,0.183571 0.384549,0.277482 0.6106232,0.277482 0.1888338,0 0.3782748,-0.06558 0.5316894,-0.199358 L 16.55757,74.10721 l 3.841239,2.067862 v 2.077373 c 0,0.447089 0.362488,0.809577 0.809576,0.809577 0.447089,0 0.809577,-0.362488 0.809577,-0.809577 v -1.914041 l 4.144426,-2.230991 4.385274,3.824642 c 2.02e-4,0.0014 6.07e-4,0.0028 0.001,0.004 l -4.72469,15.320632 c -0.131758,0.427254 0.107674,0.880414 0.535131,1.012173 0.07954,0.02449 0.159689,0.03623 0.238825,0.03623 0.345891,0 0.666079,-0.223443 0.773348,-0.571156 l 4.012476,-13.010863 c 2.814291,7.375648 9.957591,12.630813 18.309791,12.630813 8.436801,0 15.645271,-5.360005 18.399249,-12.853447 L 72.17407,93.73398 c 0.107269,0.347916 0.427457,0.571156 0.773348,0.571156 0.07893,0 0.159285,-0.01174 0.238826,-0.03623 0.427254,-0.131759 0.666888,-0.584919 0.53513,-1.012173 l -4.629564,-15.011778 4.745536,-4.138151 3.993236,2.149628 v 2.149629 c 0,0.447088 0.362488,0.809576 0.809577,0.809576 0.447089,0 0.809577,-0.362488 0.809577,-0.809576 v -2.149629 l 3.993034,-2.149426 10.215846,8.909391 c 0.153415,0.133783 0.342856,0.199359 0.531689,0.199359 0.225872,0 0.45053,-0.09391 0.610624,-0.277483 0.293471,-0.336784 0.258457,-0.848234 -0.07853,-1.14211 z M 14.158794,18.730952 c -3.023769,-1.440642 -3.973605,-2.714308 -3.867753,-3.367434 0.175678,-1.087464 3.147634,-2.188488 8.487603,-2.188488 2.469613,0 5.240996,0.237003 8.014201,0.685306 4.372119,0.706963 8.39187,1.864455 11.319501,3.259154 3.023769,1.440641 3.973605,2.714308 3.867753,3.367434 -0.175678,1.087464 -3.147634,2.188488 -8.487602,2.188488 -2.388049,0 -5.05864,-0.223646 -7.74016,-0.643614 l 1.192709,-1.18097 v -2.92581 c 0,-0.447088 -0.362488,-0.809576 -0.809577,-0.809576 -0.447089,0 -0.809577,0.362488 -0.809577,0.809576 v 2.250016 l -1.531719,1.51654 c -3.713528,-0.713642 -7.088046,-1.747067 -9.635379,-2.960622 z m 6.240015,55.605166 -2.537416,-1.36616 2.537416,-2.212978 z m 0,-16.575677 c -0.465912,-0.09087 -0.810791,-0.183167 -1.021484,-0.271208 V 40.486908 c 0.302782,0.08258 0.647055,0.154225 1.021484,0.22061 z M 73.329134,42.031783 h 2.422658 v 6.695199 h -2.422658 z m -1.619154,0 v 6.695199 H 58.316749 v -3.543315 c 1.192911,-0.175273 2.525474,-0.464494 3.885563,-0.850055 2.037097,-0.577633 3.909446,-1.303823 5.271963,-2.044991 0.146534,-0.07974 0.298937,-0.165558 0.451947,-0.256838 z m -8.083623,8.314352 v 4.212228 C 61.88091,52.791664 59.805156,51.352034 57.497255,50.346135 Z m -1.865669,-7.570554 c -2.203263,0.624589 -4.303912,0.982624 -5.763376,0.982624 -0.42098,0 -0.707773,-0.03097 -0.898226,-0.06639 0.673771,-0.601111 2.731512,-1.738364 6.15339,-2.708237 2.203263,-0.624588 4.303912,-0.982623 5.763377,-0.982623 0.420979,0 0.707772,0.03097 0.898225,0.06639 -0.673366,0.601111 -2.730905,1.738161 -6.15339,2.708236 z m -5.063092,2.579716 v 3.371483 h -2.422659 v -3.588854 c 0.630053,0.237611 1.380733,0.239635 1.722577,0.239635 0,0 0,0 2.02e-4,0 0.220813,0 0.455387,-0.0079 0.69988,-0.02226 z m 10.997087,-6.94981 c -0.277888,-0.02287 -0.521773,-0.02368 -0.678628,-0.02368 -1.602557,0 -3.86411,0.380501 -6.204798,1.04395 -0.951455,0.269589 -4.521891,1.344504 -6.389989,2.759037 L 53.439454,38.721222 H 54.4662 c 0.447089,0 0.809576,-0.362487 0.809576,-0.809576 0,-0.447089 -0.362487,-0.809577 -0.809576,-0.809577 h -1.374864 c 0.522987,-0.562048 2.614933,-1.7837 6.261671,-2.817529 3.872205,-1.097786 6.368332,-1.096167 6.93281,-0.848234 z m -2.193144,-7.736517 0.294079,1.037674 c -0.446684,-0.03704 -0.908547,-0.02773 -1.322039,-0.0055 -0.378072,0.02044 -0.782253,0.05829 -1.205864,0.111114 l -0.336582,-1.187006 c 1.370816,-0.151188 2.260136,-0.09148 2.570406,0.04372 z m -6.932607,0.849245 c 1.014602,-0.287602 1.932055,-0.498294 2.747906,-0.650292 l 0.341439,1.203841 c -0.878998,0.169201 -1.804952,0.387989 -2.746489,0.654947 -1.041318,0.295091 -2.038919,0.629446 -2.948074,0.984648 L 55.62349,32.511161 c 0.833054,-0.332331 1.812237,-0.671746 2.945442,-0.992946 z m -4.441338,1.654168 0.323831,1.142313 c 0.0038,0.01356 0.01012,0.02591 0.01478,0.03906 -0.291853,0.138235 -0.567918,0.278089 -0.825566,0.418348 -0.363905,0.197942 -0.761812,0.432314 -1.12268,0.69826 L 52.22388,34.432892 c 0.179119,-0.25785 0.816458,-0.722547 1.903719,-1.260511 z m -3.625284,5.548838 h 1.254034 l 0.899238,3.172327 v 7.055258 C 51.949226,48.841132 51.230929,48.770092 50.502108,48.74034 V 38.721221 Z m 16.938368,26.74052 C 64.310652,58.79427 57.532876,54.165718 49.693138,54.165718 c -7.84075,0 -14.619335,4.629969 -17.748754,11.298654 1.370613,-8.560666 8.807385,-15.122892 17.749361,-15.122892 8.940156,0 16.37551,6.56081 17.746933,15.120261 z M 48.883157,38.721221 V 48.74034 c -2.421444,0.09897 -4.729952,0.641387 -6.849019,1.544672 v -2.289483 c 2.621612,-0.0336 4.000523,-0.571561 4.203525,-1.644857 0,-2.02e-4 0,-2.02e-4 0,-4.05e-4 l 8.09e-4,2.03e-4 1.442261,-7.629249 z m -2.841614,-5.216709 c 0.47178,0.269791 0.755942,0.500521 0.852281,0.662638 l -0.170415,0.901262 c -0.292865,-0.197537 -0.599897,-0.368358 -0.881022,-0.510034 z m -6.80854,-2.240099 c 2.268029,0.464292 4.032299,1.014805 5.295643,1.525243 l -0.208871,1.104667 c -1.490025,-0.575407 -3.326348,-1.094952 -5.3005,-1.499741 z m -7.088856,-0.757156 c 1.33398,-0.03522 3.181636,0.07468 5.496823,0.460649 l -0.213526,1.130169 c -2.004511,-0.333951 -3.909243,-0.504569 -5.491156,-0.491008 z m -2.420837,0.414098 c 0.119818,-0.0931 0.369977,-0.183167 0.742989,-0.256029 l -0.195715,1.035247 c -0.232348,0.02874 -0.475828,0.068 -0.717689,0.122043 z m -0.514485,2.722809 c 0.528653,-0.416123 3.630546,-0.775777 8.850696,0.211097 5.222175,0.987076 7.978986,2.454232 8.319413,3.034698 l -0.04007,0.212312 h -1.609236 c -0.447089,0 -0.809577,0.362487 -0.809577,0.809576 0,0.447089 0.362488,0.809577 0.809577,0.809577 h 1.303216 l -1.057915,5.595794 C 44.350746,43.896238 43.65957,43.59629 43.299915,43.440446 41.55042,42.68248 39.175527,41.997983 36.612812,41.513451 c -2.245968,-0.42442 -4.46947,-0.658185 -6.261064,-0.658185 -1.029376,0 -1.876194,0.07367 -2.547737,0.221621 z m 1.142919,8.830255 c 1.693635,0 3.810273,0.223645 5.960104,0.630053 4.910285,0.92818 7.642201,2.281185 8.233395,2.92156 -0.321605,0.146533 -1.135837,0.353785 -2.772801,0.353785 -1.693836,0 -3.810677,-0.223646 -5.960305,-0.630053 -4.90988,-0.92818 -7.641999,-2.281185 -8.233193,-2.921358 0.321605,-0.146735 1.135836,-0.353987 2.7728,-0.353987 z m -8.333782,-3.540481 c 1.186232,-0.144712 2.727666,-0.270196 4.607503,-0.341034 l -0.198346,1.049413 c -1.789974,-0.07185 -3.265023,-0.193691 -4.409157,-0.33314 z m 0,2.006738 c 0.501533,0.05809 1.041925,0.110507 1.614296,0.156653 v 1.125312 c 0,0.447088 0.362488,0.809576 0.809577,0.809576 0.447088,0 0.809576,-0.362488 0.809576,-0.809576 v -1.016019 c 0.286186,0.01579 0.576014,0.03056 0.871914,0.04331 l -0.236801,1.253022 v 0 c 0,2.03e-4 0,2.03e-4 0,4.05e-4 -0.285983,1.513301 2.140521,2.564739 2.937954,2.910226 1.749495,0.757966 4.124186,1.442463 6.686901,1.926995 1.708004,0.322819 3.401841,0.534523 4.903808,0.617707 v 3.10675 c -3.142979,1.696873 -5.773091,4.225788 -7.590591,7.291857 -0.958336,0.03218 -1.940353,0.04939 -2.928441,0.04939 -3.306109,0 -6.007666,-0.173655 -7.878193,-0.399931 z m 0,33.558572 v -4.006595 l 2.8404,2.477507 z m 8.080182,-6.183547 c 0,0 8.1e-4,5.314062 8.1e-4,5.443999 0,0.571966 0.02611,1.137657 0.07428,1.697277 l -8.155272,-7.11294 v -8.7072 c 2.14214,0.250766 4.925869,0.388597 7.878193,0.388597 0.690164,0 1.37709,-0.0087 2.056527,-0.02429 -1.188661,2.525676 -1.854538,5.34361 -1.854538,8.314554 z M 49.693138,91.73473 c -9.911647,0 -17.975233,-8.063586 -17.975233,-17.97503 0,-9.911445 8.063586,-17.975031 17.975233,-17.975031 9.911445,0 17.975031,8.063586 17.975031,17.975031 0,9.911444 -8.063586,17.97503 -17.975031,17.97503 z m 28.13704,-17.317047 -2.689414,-1.447928 2.689414,-2.345141 z m 0.809576,-57.770784 c -0.447088,0 -0.809576,0.362488 -0.809576,0.809577 v 3.243771 c -1.078559,0.08055 -2.140723,0.121639 -3.169898,0.121639 -2.02e-4,0 -4.05e-4,0 -6.07e-4,0 -6.381286,-2.02e-4 -8.672388,-1.444285 -8.737761,-2.103078 -0.12427,-1.252617 4.760311,-3.649976 12.405548,-4.408752 1.46331,-0.145319 2.90719,-0.218788 4.291768,-0.218788 6.381893,0 8.673198,1.444285 8.738571,2.103078 0.121437,1.225294 -4.550226,3.544327 -11.908468,4.35532 v -3.09319 c 0,-0.447089 -0.362488,-0.809577 -0.809577,-0.809577 z m 0.809577,57.770784 v -3.792867 l 2.689211,2.345142 z"
   id="path1"
   style="stroke-width:0.202394" />
</svg>
