<svg xmlns="http://www.w3.org/2000/svg" xml:space="preserve" width="100" height="100">
    <path d="M94.722 81.796 79.45 68.476V22.178c7.004-.746 13.825-3.07 13.52-6.144-.12-1.216-1.263-2.146-3.397-2.765-1.795-.521-4.2-.797-6.953-.797-1.03 0-2.093.04-3.17.118v-2.085a.81.81 0 0 0-1.619 0v2.23c-7.004.746-13.824 3.07-13.52 6.144.121 1.215 1.264 2.146 3.397 2.765 1.795.521 4.2.797 6.953.797 1.03 0 2.093-.04 3.17-.119v46.154l-8.676 7.567q.132-1.125.133-2.283v-5.444c0-4.474-1.508-8.6-4.041-11.901v-6.069H76.56a.81.81 0 0 0 .81-.81v-8.314a.81.81 0 0 0-.81-.81h-6.916c.111-.268.143-.554.058-.855l-2.682-9.465c-.335-1.18-2.063-1.227-3.332-1.157-1.549.084-3.524.448-5.562 1.026-1.368.388-8.162 2.441-7.5 4.778l.67 2.363h-3.31l.514-2.72c.535-2.833-8.585-4.642-9.626-4.839-1.042-.196-10.191-1.842-10.727.992l-1.214 6.427a62 62 0 0 0-4.916.34V25.73l2.314-2.292q.441.08.888.151c2.857.462 5.718.706 8.272.706 2.704 0 5.034-.27 6.738-.78 2.023-.607 3.15-1.539 3.348-2.769.277-1.71-1.373-3.47-4.77-5.087-3.062-1.46-7.238-2.666-11.757-3.396l-.106-.016v-1.742a.81.81 0 0 0-1.62 0v1.508c-2.272-.298-4.507-.456-6.547-.456-2.704 0-5.034.27-6.737.78-2.023.607-3.15 1.539-3.349 2.769-.276 1.71 1.373 3.469 4.77 5.087 2.416 1.151 5.525 2.143 8.948 2.87L10.015 35.334a.81.81 0 0 0 1.139 1.151l9.245-9.153v10.203c-1.646.292-2.64.697-2.64 1.587v18.694c0 .789.72 1.246 2.64 1.588v9.204L5.278 81.796a.81.81 0 0 0 1.064 1.22l10.216-8.909 3.84 2.068v2.077a.81.81 0 0 0 1.62 0v-1.914l4.144-2.23 4.386 3.824v.004l-4.724 15.32a.81.81 0 1 0 1.547.478l4.013-13.01c2.814 7.375 9.957 12.63 18.31 12.63 8.436 0 15.645-5.36 18.399-12.854l4.081 13.234a.81.81 0 1 0 1.547-.477l-4.63-15.012 4.746-4.138 3.994 2.15v2.15a.81.81 0 0 0 1.619 0v-2.15l3.993-2.15 10.216 8.91a.806.806 0 0 0 1.142-.079.81.81 0 0 0-.079-1.142M14.16 18.731c-3.024-1.44-3.974-2.714-3.868-3.367.176-1.088 3.148-2.189 8.488-2.189 2.47 0 5.24.237 8.014.685 4.372.707 8.392 1.865 11.32 3.26 3.023 1.44 3.973 2.714 3.867 3.367-.176 1.087-3.148 2.188-8.488 2.188-2.388 0-5.058-.223-7.74-.643l1.193-1.181v-2.926a.81.81 0 0 0-1.62 0v2.25l-1.53 1.517c-3.714-.714-7.089-1.747-9.636-2.961m6.24 55.605-2.54-1.366 2.538-2.213zm0-16.576c-.466-.09-.811-.183-1.022-.27V40.486c.303.082.647.154 1.022.22zm52.93-15.728h2.423v6.695H73.33zm-1.619 0v6.695H58.317v-3.543a31 31 0 0 0 3.885-.85c2.037-.578 3.91-1.304 5.272-2.045q.222-.12.452-.257zm-8.084 8.314v4.212a19.7 19.7 0 0 0-6.129-4.212Zm-1.865-7.57c-2.204.624-4.304.982-5.764.982-.42 0-.707-.03-.898-.066.674-.601 2.732-1.739 6.153-2.708 2.204-.625 4.304-.983 5.764-.983.42 0 .708.03.898.066-.673.601-2.73 1.739-6.153 2.709m-5.063 2.58v3.37h-2.423v-3.588c.63.238 1.38.24 1.723.24q.331 0 .7-.023m10.997-6.95a8 8 0 0 0-.679-.024c-1.603 0-3.864.38-6.205 1.044-.951.27-4.522 1.344-6.39 2.759l-.982-3.464h1.027a.81.81 0 0 0 0-1.619h-1.375c.523-.562 2.615-1.784 6.262-2.817 3.872-1.098 6.368-1.097 6.933-.849zm-2.193-7.737.294 1.038a10 10 0 0 0-1.322-.006c-.378.02-.783.058-1.206.111l-.337-1.187c1.37-.15 2.26-.091 2.57.044m-6.933.85a31 31 0 0 1 2.748-.651l.341 1.204a33 33 0 0 0-2.746.655 33 33 0 0 0-2.948.984l-.34-1.2a30 30 0 0 1 2.945-.993m-4.441 1.653.323 1.143.015.039a17 17 0 0 0-.825.418 10 10 0 0 0-1.123.698l-.294-1.037c.179-.258.816-.723 1.904-1.26m-3.626 5.55h1.254l.9 3.172v7.055a20 20 0 0 0-2.154-.209zm16.939 26.74c-3.13-6.668-9.908-11.296-17.748-11.296s-14.62 4.63-17.749 11.298c1.371-8.56 8.808-15.123 17.75-15.123 8.94 0 16.375 6.561 17.747 15.12M48.883 38.72v10.02c-2.421.1-4.73.642-6.849 1.545v-2.29c2.622-.033 4-.571 4.204-1.644l1.443-7.63zm-2.841-5.217c.471.27.755.5.852.662l-.17.901a8 8 0 0 0-.882-.51zm-6.809-2.24c2.268.464 4.032 1.014 5.296 1.525l-.21 1.104c-1.49-.575-3.326-1.095-5.3-1.5zm-7.089-.758c1.334-.035 3.182.075 5.497.46l-.214 1.131c-2.004-.334-3.909-.504-5.49-.49zm-2.42.414c.12-.093.37-.183.742-.256l-.195 1.036a8 8 0 0 0-.718.122zm-.515 2.723c.528-.416 3.63-.776 8.85.211 5.223.987 7.98 2.454 8.32 3.035l-.04.212h-1.61a.81.81 0 0 0 0 1.62h1.304l-1.058 5.595c-.624-.42-1.315-.72-1.675-.877-1.75-.758-4.124-1.442-6.687-1.927-2.246-.424-4.47-.658-6.261-.658-1.03 0-1.876.074-2.548.222zm1.143 8.83c1.693 0 3.81.224 5.96.63 4.91.929 7.642 2.282 8.233 2.922-.321.147-1.136.354-2.773.354-1.693 0-3.81-.224-5.96-.63-4.91-.928-7.642-2.281-8.233-2.922.322-.146 1.136-.354 2.773-.354m-8.334-3.54a56 56 0 0 1 4.607-.341l-.198 1.05a56 56 0 0 1-4.409-.334zm0 2.007c.501.058 1.042.11 1.614.156v1.126a.81.81 0 0 0 1.62 0v-1.016q.428.023.871.043l-.236 1.253c-.286 1.514 2.14 2.565 2.937 2.91 1.75.759 4.125 1.443 6.687 1.928a38 38 0 0 0 4.904.617v3.107a19.74 19.74 0 0 0-7.59 7.292c-.959.032-1.94.05-2.929.05-3.306 0-6.008-.174-7.878-.4zm0 33.558v-4.006l2.84 2.477zm8.08-6.183.001 5.444q.001.857.074 1.697l-8.155-7.113v-8.707c2.142.25 4.926.388 7.878.388q1.036 0 2.057-.024a19.5 19.5 0 0 0-1.855 8.315m19.595 23.419c-9.912 0-17.975-8.064-17.975-17.975s8.063-17.975 17.975-17.975 17.975 8.063 17.975 17.975c0 9.911-8.063 17.975-17.975 17.975M77.83 74.418l-2.69-1.448 2.69-2.345zm.81-57.771a.81.81 0 0 0-.81.81V20.7c-1.078.08-2.14.122-3.17.122-6.382 0-8.673-1.444-8.738-2.103-.124-1.253 4.76-3.65 12.405-4.409a44 44 0 0 1 4.292-.219c6.382 0 8.673 1.445 8.739 2.103.121 1.226-4.55 3.545-11.909 4.356v-3.094a.81.81 0 0 0-.81-.81m.81 57.77v-3.792l2.689 2.345z" style="stroke-width:.202394"/>
</svg>
