<?xml version="1.0" encoding="UTF-8" standalone="no"?>
<!-- Uploaded to: SVG Repo, www.svgrepo.com, Generator: SVG Repo Mixer Tools -->

<svg
   fill="#000000"
   height="60"
   width="70"
   version="1.1"
   id="Capa_1"
   viewBox="0 0 70 60"
   xml:space="preserve"
   sodipodi:docname="equipment-box-svgrepo-com.svg"
   inkscape:version="1.3.2 (091e20e, 2023-11-25)"
   xmlns:inkscape="http://www.inkscape.org/namespaces/inkscape"
   xmlns:sodipodi="http://sodipodi.sourceforge.net/DTD/sodipodi-0.dtd"
   xmlns="http://www.w3.org/2000/svg"
   xmlns:svg="http://www.w3.org/2000/svg"><defs
   id="defs1" /><sodipodi:namedview
   id="namedview1"
   pagecolor="#ffffff"
   bordercolor="#000000"
   borderopacity="0.25"
   inkscape:showpageshadow="2"
   inkscape:pageopacity="0.0"
   inkscape:pagecheckerboard="0"
   inkscape:deskcolor="#d1d1d1"
   inkscape:current-layer="Capa_1" />
<path
   d="m 69.980806,12.110496 c -0.01309,-0.06406 -0.0328,-0.125701 -0.05809,-0.184421 L 65.059154,0.57779181 C 64.908924,0.22725291 64.564231,0 64.182934,0 H 5.8170646 C 5.4357677,0 5.0910754,0.22725291 4.9408444,0.57779181 L 0.07727616,11.926329 C 0.05211057,11.984922 0.03241023,12.046438 0.01931904,12.110369 0.00610075,12.174427 0,12.238738 0,12.302669 v 41.070245 c 0,0.526445 0.42679826,0.953243 0.9532421,0.953243 H 69.046757 c 0.52657,0 0.953241,-0.426798 0.953241,-0.953243 V 12.302669 c 1.27e-4,-0.06393 -0.0061,-0.128242 -0.01919,-0.192173 z M 68.093514,52.419672 H 1.9064842 V 13.255403 H 56.076563 c 0.526571,0 0.953242,-0.426798 0.953242,-0.953242 0,-0.526444 -0.426671,-0.953242 -0.953242,-0.953242 H 2.3988655 L 6.4455689,1.9064842 H 63.554302 l 4.046831,9.4424348 h -3.418326 c -0.526571,0 -0.953243,0.426798 -0.953243,0.953242 0,0.526444 0.426672,0.953242 0.953243,0.953242 h 3.910707 z M 64.960144,9.7023522 c 0.17616,-0.2683058 0.205519,-0.6074058 0.07791,-0.9020212 L 62.777728,3.5803773 C 62.626735,3.2316178 62.282932,3.0058901 61.902906,3.0058901 H 8.0970925 c -0.3800259,0 -0.7237014,0.2257277 -0.8746949,0.5744872 L 4.96207,8.800331 C 4.8344626,9.0949464 4.863823,9.4339192 5.039981,9.7023522 5.2161401,9.9707852 5.5157123,10.132328 5.8367643,10.132328 H 64.163361 c 0.321051,0 0.620497,-0.1616699 0.796783,-0.4299758 z M 7.2882348,8.2258438 8.7230548,4.9123743 H 61.276943 l 1.434821,3.3134695 z M 20.408532,37.289306 H 9.0596129 c -0.5264439,0 -0.9532422,0.426798 -0.9532422,0.953241 v 8.106371 c 0,0.526445 0.4267983,0.953243 0.9532422,0.953243 H 20.408532 c 0.526444,0 0.953242,-0.426798 0.953242,-0.953243 v -8.106371 c 0,-0.526443 -0.426798,-0.953241 -0.953242,-0.953241 z m -0.953242,8.10637 H 10.012855 V 39.19579 h 9.442435 z m 29.182934,-7.153129 v 8.106371 c 0,0.526445 0.426672,0.953243 0.953242,0.953243 h 11.34892 c 0.52657,0 0.953242,-0.426798 0.953242,-0.953243 v -8.106371 c 0,-0.526443 -0.426672,-0.953241 -0.953242,-0.953241 h -11.34892 c -0.526443,0 -0.953242,0.426798 -0.953242,0.953241 z m 1.906485,0.953243 h 9.442434 v 6.199886 H 50.544709 Z M 3.2425483,15.298137 v 8.352943 c 0,0.526444 0.4267983,0.953242 0.953242,0.953242 h 5.5318546 v 1.336065 H 4.1957903 c -0.5264437,0 -0.953242,0.426798 -0.953242,0.953241 v 23.681839 c 0,0.526443 0.4267983,0.953241 0.953242,0.953241 H 65.804209 c 0.52657,0 0.953241,-0.426798 0.953241,-0.953241 V 26.893628 c 0,-0.526443 -0.426671,-0.953241 -0.953241,-0.953241 h -5.531728 v -1.336065 h 5.531728 c 0.52657,0 0.953241,-0.426798 0.953241,-0.953242 v -8.352943 c 0,-0.526443 -0.426671,-0.953241 -0.953241,-0.953241 H 4.1957903 c -0.5264437,0 -0.953242,0.426671 -0.953242,0.953241 z M 64.850966,27.84687 V 49.622224 H 5.1490325 V 27.84687 h 4.5786124 v 3.099944 c 0,0.526444 0.4267981,0.953242 0.9532421,0.953242 h 8.106371 c 0.526443,0 0.953241,-0.426798 0.953241,-0.953242 V 27.84687 h 30.519 v 3.099944 c 0,0.526444 0.426671,0.953242 0.953242,0.953242 h 8.10637 c 0.526572,0 0.953243,-0.426798 0.953243,-0.953242 V 27.84687 Z M 58.36587,23.648665 c 0,8.9e-4 -1.27e-4,0.0016 -1.27e-4,0.0024 0,7.63e-4 1.27e-4,0.0016 1.27e-4,0.0024 v 3.237592 c 0,7.62e-4 -1.27e-4,0.0016 -1.27e-4,0.0024 0,7.63e-4 1.27e-4,0.0016 1.27e-4,0.0024 v 3.097529 h -6.199888 v -3.097529 c 0,-7.62e-4 1.28e-4,-0.0016 1.28e-4,-0.0024 0,-7.62e-4 -1.28e-4,-0.0016 -1.28e-4,-0.0024 V 20.55108 h 6.199888 z m -8.106371,2.291722 h -30.519 v -1.336065 h 30.519 z M 17.834016,23.649809 c 0,3.82e-4 0,7.63e-4 0,0.0013 0,5.08e-4 0,7.63e-4 0,0.0013 v 6.341221 h -6.199887 v -9.44246 h 6.199887 z M 5.1490325,16.25138 H 64.850966 v 6.446458 h -4.578485 v -3.099944 c 0,-0.526443 -0.426671,-0.953241 -0.953243,-0.953241 h -8.10637 c -0.526571,0 -0.953242,0.426798 -0.953242,0.953241 v 3.099944 H 19.740627 v -3.099944 c 0,-0.526443 -0.426799,-0.953241 -0.953242,-0.953241 h -8.106371 c -0.526444,0 -0.953242,0.426798 -0.953242,0.953241 v 3.099944 H 5.1490325 Z M 58.605578,40.150303 h -6.679304 c -0.526571,0 -0.953242,0.426798 -0.953242,0.953242 v 2.709876 c 0,0.526445 0.426671,0.953243 0.953242,0.953243 h 6.679304 c 0.526571,0 0.953242,-0.426798 0.953242,-0.953243 v -2.709876 c 0,-0.526444 -0.426671,-0.953242 -0.953242,-0.953242 z m -0.953242,2.709876 h -4.77282 v -0.803392 h 4.77282 z m -46.257915,1.906485 h 6.679304 c 0.526443,0 0.953241,-0.426798 0.953241,-0.953243 v -2.709876 c 0,-0.526444 -0.426798,-0.953242 -0.953241,-0.953242 h -6.679304 c -0.526444,0 -0.953243,0.426798 -0.953243,0.953242 v 2.709876 c 0,0.526445 0.426799,0.953243 0.953243,0.953243 z m 0.953242,-2.709877 h 4.772819 v 0.803392 H 12.347663 Z M 53.740357,27.231076 h 3.051265 c 0.526571,0 0.953242,-0.426798 0.953242,-0.953242 v -3.498272 c 0,-0.526443 -0.426671,-0.953241 -0.953242,-0.953241 h -3.051265 c -0.52657,0 -0.953241,0.426798 -0.953241,0.953241 v 3.498272 c 0,0.526444 0.426671,0.953242 0.953241,0.953242 z M 54.6936,23.732805 h 1.14478 v 1.591787 H 54.6936 Z m -41.485223,3.498271 h 3.051264 c 0.526444,0 0.953242,-0.426798 0.953242,-0.953242 v -3.498272 c 0,-0.526443 -0.426798,-0.953241 -0.953242,-0.953241 h -3.051264 c -0.526444,0 -0.953242,0.426798 -0.953242,0.953241 v 3.498272 c 0,0.526444 0.426798,0.953242 0.953242,0.953242 z m 0.953241,-3.498271 h 1.14478 v 1.591787 h -1.14478 z"
   id="path1"
   style="stroke-width:0.127099" />
</svg>
