<svg xmlns="http://www.w3.org/2000/svg" xml:space="preserve" width="70" height="60">
    <path d="M69.98 12.11a1 1 0 0 0-.057-.184L65.059.578A.95.95 0 0 0 64.183 0H5.817a.95.95 0 0 0-.876.578L.077 11.926a.95.95 0 0 0-.077.377v41.07c0 .526.427.953.953.953h68.094a.953.953 0 0 0 .953-.953v-41.07a1 1 0 0 0-.02-.193m-1.886 40.31H1.906V13.255h54.17a.953.953 0 1 0 0-1.906H2.4l4.047-9.443h57.108l4.047 9.443h-3.418a.953.953 0 1 0 0 1.906h3.91zM64.96 9.702a.95.95 0 0 0 .078-.902l-2.26-5.22a.95.95 0 0 0-.875-.574H8.097a.95.95 0 0 0-.875.574L4.962 8.8a.953.953 0 0 0 .875 1.332h58.326c.321 0 .62-.161.797-.43M7.288 8.226l1.435-3.314h52.554l1.435 3.314zm13.12 29.063H9.06a.953.953 0 0 0-.954.954v8.106c0 .526.427.953.954.953h11.349a.953.953 0 0 0 .953-.953v-8.106a.953.953 0 0 0-.953-.954m-.953 8.107h-9.442v-6.2h9.442zm29.183-7.153v8.106c0 .526.427.953.953.953h11.35a.953.953 0 0 0 .953-.953v-8.106a.953.953 0 0 0-.954-.954h-11.35a.953.953 0 0 0-.953.954m1.907.953h9.442v6.2h-9.442ZM3.243 15.298v8.353c0 .527.426.953.953.953h5.532v1.336H4.196a.953.953 0 0 0-.953.954v23.681c0 .527.426.954.953.954h61.608a.953.953 0 0 0 .953-.954V26.894a.953.953 0 0 0-.953-.954h-5.532v-1.336h5.532a.953.953 0 0 0 .953-.953v-8.353a.953.953 0 0 0-.953-.953H4.196a.953.953 0 0 0-.953.953M64.85 27.847v21.775H5.149V27.847h4.579v3.1c0 .526.426.953.953.953h8.106a.953.953 0 0 0 .953-.953v-3.1h30.52v3.1c0 .526.426.953.953.953h8.106a.953.953 0 0 0 .953-.953v-3.1Zm-6.485-4.198v6.344h-6.2v-9.442h6.2zm-8.107 2.291H19.74v-1.336h30.52zm-32.425-2.29v6.344h-6.2V20.55h6.2zm-12.684-7.4h59.702v6.447h-4.579v-3.1a.953.953 0 0 0-.953-.953h-8.106a.953.953 0 0 0-.953.953v3.1H19.74v-3.1a.953.953 0 0 0-.953-.953h-8.106a.953.953 0 0 0-.953.953v3.1H5.149Zm53.457 23.9h-6.68a.953.953 0 0 0-.953.953v2.71c0 .526.427.953.953.953h6.68a.953.953 0 0 0 .953-.954v-2.71a.953.953 0 0 0-.953-.953m-.954 2.71H52.88v-.804h4.772zm-46.258 1.906h6.68a.953.953 0 0 0 .953-.954v-2.71a.953.953 0 0 0-.953-.953h-6.68a.953.953 0 0 0-.953.954v2.71c0 .526.427.953.953.953m.954-2.71h4.772v.803h-4.772ZM53.74 27.23h3.052a.953.953 0 0 0 .953-.953V22.78a.953.953 0 0 0-.953-.954H53.74a.953.953 0 0 0-.953.954v3.498c0 .526.427.953.953.953m.954-3.498h1.144v1.592h-1.144ZM13.208 27.23h3.052a.953.953 0 0 0 .953-.953V22.78a.953.953 0 0 0-.953-.954h-3.052a.953.953 0 0 0-.953.954v3.498c0 .526.427.953.953.953m.954-3.498h1.144v1.592h-1.144z" style="stroke-width:.127099"/>
</svg>
