<svg xmlns="http://www.w3.org/2000/svg" width="38" height="48">
    <path d="M19 0C8.52 0 0 8.52 0 19c0 9.09 6.426 16.703 14.969 18.563-.173 2.257-1.354 2.988-3.281 3.593-.946.297-1.97.512-2.907 1C7.844 42.645 7 43.668 7 45v2c0 .55.45 1 1 1h22c.55 0 1-.45 1-1v-2c0-1.332-.844-2.355-1.781-2.844-.938-.488-1.961-.703-2.907-1-1.927-.605-3.108-1.336-3.28-3.593C31.57 35.703 38 28.09 38 19 38 8.516 29.473 0 19 0m0 2c9.39 0 17 7.598 17 17 0 9.395-7.605 17-17 17-9.398 0-17-7.605-17-17C2 9.602 9.602 2 19 2m-4 3c-2.578 0-5 1.984-5 4.906-.04 4.183 4.066 4.103 5.594 7.031-.25.41-.41.856-.5 1.344-1.697.48-5.198 1.822-6.688 5-.793 1.692-.855 3.895.469 6.188 1.29 2.23 4.219 3.336 6.75 1.875 1.807-1.02 2.33-2.582 2.438-4.532.07-1.351.039-2.53.843-3.812.492.014.975-.09 1.438-.25 1.11 1.07 4.122 3.585 7.656 3.281 1.863-.16 3.8-1.207 5.125-3.5 1.29-2.23.781-5.32-1.75-6.781-1.791-1.058-3.383-.73-5.125.156-1.207.617-2.23 1.246-3.75 1.188a4 4 0 0 0-.937-1.157c.261-1.027.437-2.199.437-3.406 0-1.5-.336-3.312-1.406-4.844C19.524 6.158 17.648 5 15 5m0 2c4.618 0 5 4.156 5 5.531 0 .875-.117 1.781-.281 2.563-.917-.219-1.838-.004-2.657.437-.972-1.515-2.308-2.308-3.28-2.937C10.173 10.244 12.481 7 15 7m4 10c1.401.046 1.99 1.032 2 2s-.719 1.988-2 2-2.043-.867-2.084-1.862c-.04-.994.683-2.184 2.084-2.138m11.375.469c3.121 1.803.777 6.311-2.562 6.593-2.3.195-4.45-1.3-5.782-2.5.582-.683.953-1.542.969-2.5 1.785-.085 3.129-.851 4.156-1.375 1.57-.804 2.239-.764 3.219-.218M15.25 20.344c.316.875.93 1.59 1.719 2.062-.832 1.606-.848 3.149-.907 4.313-.08 1.613-.328 2.235-1.437 2.875-3.12 1.802-5.806-2.482-4.406-5.469.974-2.08 3.305-3.209 5.031-3.781m1.688 17.531a17.2 17.2 0 0 0 4.125 0c.339 3.367 2.44 4.54 4.625 5.219 1.054.328 2.03.55 2.593.843S29 44.333 29 45v1H9v-1c0-.668.156-.77.719-1.062s1.539-.516 2.594-.844c2.183-.68 4.285-1.852 4.624-5.219"/>
</svg>
