<?xml version="1.0" encoding="UTF-8" standalone="no"?>
<!-- Uploaded to: SVG Repo, www.svgrepo.com, Generator: SVG Repo Mixer Tools -->

<svg
   fill="#000000"
   width="38"
   height="48"
   viewBox="0 0 38 48"
   version="1.1"
   id="svg1"
   sodipodi:docname="table-fan-svgrepo-com.svg"
   inkscape:version="1.3.2 (091e20e, 2023-11-25)"
   xmlns:inkscape="http://www.inkscape.org/namespaces/inkscape"
   xmlns:sodipodi="http://sodipodi.sourceforge.net/DTD/sodipodi-0.dtd"
   xmlns="http://www.w3.org/2000/svg"
   xmlns:svg="http://www.w3.org/2000/svg">
  <defs
     id="defs1" />
  <sodipodi:namedview
     id="namedview1"
     pagecolor="#ffffff"
     bordercolor="#000000"
     borderopacity="0.25"
     inkscape:showpageshadow="2"
     inkscape:pageopacity="0.0"
     inkscape:pagecheckerboard="0"
     inkscape:deskcolor="#d1d1d1"
     inkscape:current-layer="svg1" />
  <path
     d="M 19,0 C 8.519531,0 0,8.519531 0,19 c 0,9.089844 6.425781,16.703125 14.96875,18.5625 -0.172471,2.257218 -1.353556,2.988359 -3.28125,3.59375 -0.945312,0.296875 -1.96875,0.511719 -2.90625,1 C 7.84375,42.644531 7,43.667969 7,45 v 2 c 0,0.550781 0.449219,1 1,1 h 22 c 0.550781,0 1,-0.449219 1,-1 v -2 c 0,-1.332031 -0.84375,-2.355469 -1.78125,-2.84375 -0.9375,-0.488281 -1.960937,-0.703125 -2.90625,-1 C 24.384596,40.550792 23.203718,39.819579 23.03125,37.5625 31.570313,35.703125 38,28.089844 38,19 38,8.515625 29.472656,0 19,0 Z m 0,2 C 28.390625,2 36,9.597656 36,19 36,28.394531 28.394531,36 19,36 9.601563,36 2,28.394531 2,19 2,9.601563 9.601563,2 19,2 Z m -4,3 c -2.578125,0 -5,1.984375 -5,4.90625 -0.03971,4.183044 4.06598,4.102319 5.59375,7.03125 -0.25,0.410156 -0.410156,0.855469 -0.5,1.34375 -1.696879,0.479272 -5.197345,1.821493 -6.6875,5 -0.792969,1.691406 -0.855469,3.894531 0.46875,6.1875 1.289063,2.230469 4.21875,3.335938 6.75,1.875 1.807174,-1.019072 2.329926,-2.581488 2.4375,-4.53125 0.07031,-1.351562 0.03906,-2.53125 0.84375,-3.8125 0.492147,0.01357 0.97485,-0.08905 1.4375,-0.25 1.109657,1.069823 4.122507,3.584988 7.65625,3.28125 1.863281,-0.160156 3.800781,-1.207031 5.125,-3.5 1.289063,-2.230469 0.78125,-5.320312 -1.75,-6.78125 -1.791286,-1.058374 -3.382646,-0.730822 -5.125,0.15625 -1.207031,0.617188 -2.230469,1.246094 -3.75,1.1875 C 22.257813,16.652344 21.945313,16.257813 21.5625,15.9375 21.824219,14.910156 22,13.738281 22,12.53125 22,11.03125 21.664063,9.21875 20.59375,7.6875 19.523438,6.15625 17.648438,5 15,5 Z m 0,2 c 4.618033,0 5,4.156158 5,5.53125 0,0.875 -0.117187,1.78125 -0.28125,2.5625 -0.91642,-0.218574 -1.837419,-0.0036 -2.65625,0.4375 -0.972656,-1.515625 -2.308594,-2.308594 -3.28125,-2.9375 C 10.174049,10.244322 12.482249,7 15,7 Z m 4,10 c 1.401409,0.0459 1.989255,1.031669 2,2 0.01075,0.968331 -0.71876,1.988389 -2,2 -1.28124,0.01161 -2.043087,-0.86724 -2.083538,-1.861588 C 16.876011,18.144064 17.598591,16.954097 19,17 Z m 11.375,0.46875 c 3.121189,1.803018 0.776924,6.311261 -2.5625,6.59375 -2.299268,0.1945 -4.449865,-1.300002 -5.78125,-2.5 0.582031,-0.683594 0.953125,-1.542969 0.96875,-2.5 1.785156,-0.08594 3.128906,-0.851562 4.15625,-1.375 1.569814,-0.804288 2.238615,-0.764298 3.21875,-0.21875 z m -15.125,2.875 c 0.316406,0.875 0.929688,1.589844 1.71875,2.0625 -0.832031,1.605469 -0.847656,3.148438 -0.90625,4.3125 -0.08025,1.613696 -0.328534,2.234969 -1.4375,2.875 C 11.505856,31.395587 8.819339,27.112396 10.21875,24.125 11.193224,22.044738 13.524161,20.916049 15.25,20.34375 Z M 16.9375,37.875 c 1.520534,0.166036 2.605872,0.165885 4.125,0 0.339288,3.36678 2.440717,4.539195 4.625,5.21875 1.054688,0.328125 2.03125,0.550781 2.59375,0.84375 C 28.84375,44.230469 29,44.332031 29,45 v 1 H 9 v -1 c 0,-0.667969 0.15625,-0.769531 0.71875,-1.0625 0.5625,-0.292969 1.539063,-0.515625 2.59375,-0.84375 2.183421,-0.679286 4.28565,-1.851362 4.625,-5.21875 z"
     id="path1"
     sodipodi:nodetypes="sscsssssssssscsssssssssccscccccscccccssssscccszzzzzcsccccccccscccsssccsssc" />
</svg>
