<svg xmlns="http://www.w3.org/2000/svg" xml:space="preserve" width="35" height="45">
    <g style="stroke-width:11.9949">
        <path d="M216.173.008v47.558h92.867c88.35 0 111.023 43.06 111.023 43.06l15.86-11.34C408.734 9.062 313.596.009 297.724.009zm29.753 60.865c-8.084 0-14.665 6.547-14.665 14.642v40.553c-34.315 12.113-58.897 44.825-58.897 83.284v278.67c0 18.763 15.22 33.97 33.993 33.97h108.75c18.763 0 33.97-15.207 33.97-33.97v-278.67c.001-39.303-25.658-72.594-61.169-84.057v-39.78c0-8.095-6.559-14.642-14.642-14.642zm-45.238 18.46c-18.512 4.986-30.22 12.59-31.346 13.307-.022.01-.152.082-.164.094l.023.023c-41.477 27.233-67.578 73.982-67.588 125.103v29.917h23.31V217.86c-.012-43.173 22.108-82.752 57.187-105.728l.117-.07h.023l.024-.024.14-.094c.588-.417 7.43-4.608 18.274-8.293zM96.342 271.087 76.077 440.772h75.975l-20.264-169.685z" style="fill:#000;stroke-width:11.9949" transform="matrix(.08337 0 0 .08337 -3.842 1.158)"/>
    </g>
</svg>
