<?xml version="1.0" encoding="UTF-8" standalone="no"?>
<!-- Uploaded to: SVG Repo, www.svgrepo.com, Generator: SVG Repo Mixer Tools -->

<svg
   height="45"
   width="35"
   version="1.1"
   id="_x32_"
   viewBox="0 0 35 45"
   xml:space="preserve"
   sodipodi:docname="fire_extinguisher.svg"
   inkscape:version="1.4 (e7c3feb1, 2024-10-09)"
   xmlns:inkscape="http://www.inkscape.org/namespaces/inkscape"
   xmlns:sodipodi="http://sodipodi.sourceforge.net/DTD/sodipodi-0.dtd"
   xmlns="http://www.w3.org/2000/svg"
   xmlns:svg="http://www.w3.org/2000/svg"><defs
   id="defs3" /><sodipodi:namedview
   id="namedview3"
   pagecolor="#ffffff"
   bordercolor="#000000"
   borderopacity="0.25"
   inkscape:showpageshadow="2"
   inkscape:pageopacity="0.0"
   inkscape:pagecheckerboard="0"
   inkscape:deskcolor="#d1d1d1"
   inkscape:current-layer="_x32_" />
<style
   type="text/css"
   id="style1">
	.st0{fill:#000000;}
</style>
<g
   id="g3"
   transform="matrix(0.083369,0,0,0.083369,-3.842464,1.157536)"
   style="stroke-width:11.9949">
	<path
   id="path1"
   style="stroke-width:11.9949"
   class="st0"
   d="M 216.1733 0.0080020751 L 216.1733 47.565772 L 309.0398 47.565772 C 397.3908 47.565772 420.06259 90.625468 420.06259 90.625468 L 435.92299 79.286571 C 408.73399 9.0605708 313.59633 0.0080020751 297.72433 0.0080020751 L 216.1733 0.0080020751 z M 245.92619 60.872577 C 237.84219 60.872577 231.26059 67.419748 231.26059 75.514748 L 231.26059 116.0677 C 196.94559 128.1807 172.36392 160.89337 172.36392 199.35237 L 172.36392 478.02216 C 172.36392 496.78516 187.58418 511.992 206.35718 511.992 L 315.10751 511.992 C 333.86951 511.992 349.07735 496.78516 349.07735 478.02216 L 349.07735 199.35237 C 349.07835 160.04937 323.41922 126.7576 287.90822 115.2946 L 287.90822 75.514748 C 287.90822 67.419748 281.34905 60.872577 273.26605 60.872577 L 245.92619 60.872577 z M 200.68774 79.333426 C 182.17574 84.319426 170.46878 91.92323 169.34178 92.64023 C 169.31978 92.65023 169.18978 92.72194 169.17778 92.73394 L 169.20121 92.757368 C 127.72421 119.99037 101.62295 166.73907 101.61295 217.86007 L 101.61295 247.77696 L 124.92329 247.77696 L 124.92329 217.86007 C 124.91129 174.68707 147.03075 135.10789 182.10975 112.13189 L 182.22689 112.06161 L 182.25031 112.06161 L 182.27374 112.03818 L 182.41431 111.94447 C 183.00169 111.52661 189.84404 107.33612 200.68774 103.65114 L 200.68774 79.333426 z M 96.341771 271.08729 L 76.077007 440.77248 L 152.0523 440.77248 L 131.78754 271.08729 L 96.341771 271.08729 z " />
	
	
	
</g>
</svg>
