<svg xmlns="http://www.w3.org/2000/svg" width="21.533" height="45">
    <g data-name="Calque 2" style="stroke-width:1.91267">
        <path d="M65.14 28.79H36a1.5 1.5 0 0 0-1.5 1.5A16.1 16.1 0 0 0 42.22 44v46.18a1.5 1.5 0 0 0 1.5 1.5h13.67a1.5 1.5 0 0 0 1.5-1.5V44a16.1 16.1 0 0 0 7.75-13.73 1.5 1.5 0 0 0-1.5-1.48M50.55 46.37a16.1 16.1 0 0 0 5.08-.83h.26v36H45.22v-36h.26a16.1 16.1 0 0 0 5.07.83m-5.33 38.17h10.67v4.14H45.22Zm5.33-41.17a13.09 13.09 0 0 1-13-11.58h26a13.1 13.1 0 0 1-13 11.58m0-21.08a1.5 1.5 0 0 0 1.5-1.5V7.11a1.5 1.5 0 1 0-3 0v13.68a1.5 1.5 0 0 0 1.5 1.5m-9.47 0a1.53 1.53 0 0 0 1.06-.44 1.51 1.51 0 0 0 0-2.12l-9.67-9.67a1.5 1.5 0 0 0-2.12 2.12L40 21.85a1.5 1.5 0 0 0 1.08.44m18.92 0a1.5 1.5 0 0 0 1.06-.44l9.67-9.67a1.5 1.5 0 0 0-2.12-2.12L59 19.73a1.5 1.5 0 0 0 1 2.56" style="stroke-width:1.91267" transform="translate(-15.657 -2.933)scale(.52283)"/>
        <path d="M50.55 77.59a1.88 1.88 0 0 0 1.89-1.89v-7.25a1.89 1.89 0 0 0-3.77 0v7.25a1.88 1.88 0 0 0 1.88 1.89" style="stroke-width:1.91267" transform="translate(-15.657 -2.933)scale(.52283)"/>
    </g>
</svg>
