<?xml version="1.0" encoding="UTF-8" standalone="no"?>
<!-- Uploaded to: SVG Repo, www.svgrepo.com, Generator: SVG Repo Mixer Tools -->

<svg
   fill="#000000"
   version="1.1"
   id="Capa_1"
   width="28.296791"
   height="50.000019"
   viewBox="0 0 28.296791 50.000019"
   xml:space="preserve"
   sodipodi:docname="flute-svgrepo-com(2).svg"
   inkscape:version="1.3.2 (091e20e, 2023-11-25)"
   xmlns:inkscape="http://www.inkscape.org/namespaces/inkscape"
   xmlns:sodipodi="http://sodipodi.sourceforge.net/DTD/sodipodi-0.dtd"
   xmlns="http://www.w3.org/2000/svg"
   xmlns:svg="http://www.w3.org/2000/svg"><defs
   id="defs2">
	
	
</defs><sodipodi:namedview
   id="namedview2"
   pagecolor="#ffffff"
   bordercolor="#000000"
   borderopacity="0.25"
   inkscape:showpageshadow="2"
   inkscape:pageopacity="0.0"
   inkscape:pagecheckerboard="0"
   inkscape:deskcolor="#d1d1d1"
   inkscape:current-layer="Capa_1" />
<path
   id="path1"
   d="M 2.6711164,0 0.10129508,1.3267244 C -0.46464091,3.6207923 1.5253998,6.1385124 1.5253998,6.1385124 2.9120167,4.4652363 5.5588103,4.0549274 5.5588103,4.0549274 4.2909911,0.95573796 2.6711164,0 2.6711164,0 Z m 3.1964717,4.8317522 c -2.5965138,0.5632102 -3.8206822,1.9726733 -3.820682,1.9726733 0,0 0.1836329,1.1834858 0.8950564,1.7346572 0.7118777,0.5482185 3.5986372,5.8150943 3.5986372,5.8150943 0,0 0.6007577,1.692138 0.844259,3.151442 0.2446369,1.459644 2.0194781,2.795416 2.0194781,2.795416 l 10.7267022,20.117142 1.504848,3.558044 c 0,0 0.09658,0.993569 1.432313,1.721347 1.33585,0.730049 0.840045,2.113309 0.840045,2.113309 0,0 -0.500703,1.299381 0.04081,2.021253 l -0.01309,0.0069 c 0.01227,0.0086 0.02962,0.01049 0.0437,0.0173 0.322321,0.33629 1.448751,0.04538 2.474659,-0.49023 1.02818,-0.52664 1.918013,-1.277205 1.832037,-1.73377 0.0018,-0.01726 0.0095,-0.03138 0.01043,-0.04592 l -0.01153,0.006 c -0.275302,-0.860204 -1.624855,-1.204721 -1.624855,-1.204721 0,0 -1.414531,-0.394671 -1.236221,-1.907014 0.179331,-1.511585 -0.575633,-2.163923 -0.575633,-2.163923 L 22.816209,39.028454 12.616779,18.641797 c 0,0 -0.06249,-2.2212 -1.111112,-3.263462 -1.049303,-1.044761 -2.0811444,-2.513701 -2.0811444,-2.513701 0,0 -2.6246472,-5.4017317 -2.6609907,-6.3006647 C 6.7250306,5.6652634 5.8675882,4.8317522 5.8675881,4.8317522 Z M 12.409819,21.981345 c 0.242272,-0.01844 0.483284,0.106636 0.600918,0.335174 0.157981,0.306081 0.03742,0.682286 -0.267296,0.840267 -0.304718,0.157753 -0.681409,0.03643 -0.838936,-0.268629 -0.157299,-0.304716 -0.03832,-0.680727 0.267075,-0.838935 0.07652,-0.03949 0.157481,-0.06173 0.238239,-0.06788 z m 1.684303,3.260578 c 0.242411,-0.01852 0.484137,0.106451 0.600919,0.33584 0.159002,0.304491 0.03935,0.682762 -0.267297,0.83938 -0.305172,0.158434 -0.681398,0.0371 -0.839379,-0.268185 -0.156731,-0.304945 -0.03743,-0.682539 0.26774,-0.839157 0.07641,-0.03949 0.157213,-0.0617 0.238017,-0.06788 z m 1.68386,3.260135 c 0.242082,-0.01814 0.483217,0.106824 0.601362,0.334509 0.157526,0.307671 0.03834,0.683762 -0.267962,0.840267 -0.305739,0.158775 -0.681853,0.03767 -0.839379,-0.268185 -0.15605,-0.304489 -0.03687,-0.68163 0.267962,-0.839157 0.07635,-0.03938 0.157323,-0.06139 0.238017,-0.06743 z m 1.68519,3.259914 c 0.24206,-0.01917 0.48245,0.106229 0.600254,0.335618 0.158434,0.305399 0.0381,0.682761 -0.267297,0.839379 -0.305854,0.157526 -0.682664,0.03641 -0.838714,-0.267963 -0.15832,-0.305057 -0.03833,-0.680975 0.267519,-0.838047 0.07658,-0.04003 0.157551,-0.0626 0.238238,-0.06899 z m 1.684304,3.2608 c 0.242124,-0.01919 0.483114,0.104694 0.600918,0.33451 0.158435,0.305852 0.03723,0.681852 -0.268627,0.839378 -0.304491,0.157072 -0.680036,0.03834 -0.83938,-0.267962 -0.157413,-0.30449 -0.03712,-0.680079 0.269072,-0.837604 0.07646,-0.03961 0.157308,-0.06192 0.238017,-0.06832 z m 1.65968,2.963336 c 0.357213,-0.02741 0.713034,0.157081 0.888846,0.495331 0.232485,0.449182 0.05548,1.005851 -0.395068,1.237995 -0.451113,0.235211 -1.005953,0.05593 -1.238438,-0.395068 -0.23362,-0.450999 -0.05658,-1.005055 0.393514,-1.237995 0.112778,-0.05838 0.232075,-0.09113 0.351146,-0.100263 z m 2.025024,3.585772 c 0.356872,-0.02752 0.711957,0.157128 0.886405,0.493334 0.233507,0.45293 0.05716,1.00683 -0.393958,1.239769 -0.451908,0.233621 -1.004245,0.05589 -1.238661,-0.393292 -0.233506,-0.451908 -0.0556,-1.005024 0.395289,-1.239326 0.112779,-0.05852 0.231967,-0.09131 0.350925,-0.100485 z"
   style="stroke-width:1" />
</svg>
