<svg xmlns="http://www.w3.org/2000/svg" xml:space="preserve" width="50" height="50">
    <g transform="translate(2.5 2.5)scale(.09574)">
        <path d="M467.807 44.623 425.38 2.196a7.5 7.5 0 0 0-10.606 0l-38.736 38.736c-10.65 2.46-20.885 8.158-29.195 16.467-21.277 21.278-23.837 53.337-5.706 71.468 5.604 5.604 12.757 9.393 20.719 11.1l-29.634 29.634-31.82-31.82 14.314-14.314a7.502 7.502 0 0 0-10.607-10.608L215.55 201.42l-1.768-1.768a7.5 7.5 0 0 0-10.607 10.607l1.767 1.767-31.82 31.82-1.768-1.768a7.502 7.502 0 0 0-10.607 10.608l1.767 1.767-31.819 31.819-1.767-1.767a7.502 7.502 0 0 0-10.607 10.608l1.767 1.767-16.262 16.262a27.5 27.5 0 0 0-8.486-1.336c-7.346 0-14.251 2.86-19.446 8.054-5.194 5.194-8.055 12.101-8.055 19.446.001 2.926.461 5.78 1.336 8.486L54.33 362.64a27.6 27.6 0 0 0-8.485-1.336c-7.346 0-14.252 2.861-19.446 8.055-7.54 7.54-9.769 18.403-6.705 27.917L2.197 414.773a7.5 7.5 0 0 0 0 10.608l42.427 42.427a7.5 7.5 0 0 0 10.606 0L383.408 139.63c10.651-2.46 20.886-8.159 29.196-16.469 8.324-8.324 14.027-18.501 16.484-29.212l38.719-38.719a7.5 7.5 0 0 0 0-10.607M86.502 330.468a12.43 12.43 0 0 1 8.84-3.662c3.339 0 6.478 1.3 8.839 3.661 4.874 4.874 4.874 12.804 0 17.679a12.42 12.42 0 0 1-8.839 3.66 12.4 12.4 0 0 1-8.839-3.661c-4.874-4.874-4.874-12.803-.001-17.677m-49.497 49.498a12.4 12.4 0 0 1 8.839-3.661c3.339 0 6.478 1.299 8.839 3.661 4.874 4.873 4.874 12.804 0 17.676a12.42 12.42 0 0 1-8.839 3.661 12.42 12.42 0 0 1-8.839-3.659c-4.873-4.874-4.873-12.805 0-17.678m12.921 71.932-31.82-31.82 10.142-10.142c4.932 4.12 11.09 6.368 17.596 6.368 7.346 0 14.251-2.86 19.445-8.053 5.195-5.195 8.055-12.101 8.055-19.446 0-6.505-2.248-12.664-6.369-17.596l10.77-10.77c4.932 4.121 11.09 6.368 17.595 6.369 7.346 0 14.252-2.861 19.446-8.054 5.194-5.194 8.055-12.101 8.055-19.446 0-6.505-2.247-12.663-6.369-17.596l14.224-14.224 11.528 11.528a22.4 22.4 0 0 0-2.208 9.685c0 6.01 2.341 11.66 6.591 15.91a22.5 22.5 0 0 0 6.224 4.382zM167.82 334.003a7.45 7.45 0 0 1-5.303 2.197 7.45 7.45 0 0 1-5.303-2.197 7.45 7.45 0 0 1-2.197-5.303c0-2.001.779-3.883 2.2-5.306a7.45 7.45 0 0 1 5.3-2.194 7.45 7.45 0 0 1 5.303 2.197 7.45 7.45 0 0 1 2.197 5.303c0 2.003-.78 3.887-2.197 5.303m14.988-14.987a22.5 22.5 0 0 0-4.382-6.224 22.35 22.35 0 0 0-15.91-6.591c-3.411 0-6.696.779-9.685 2.208l-11.528-11.528 31.82-31.82 11.519 11.519c-3.983 8.361-2.522 18.69 4.391 25.603a22.5 22.5 0 0 0 6.225 4.383zm27.438-27.439a7.45 7.45 0 0 1-5.303 2.196 7.45 7.45 0 0 1-5.303-2.197c-2.924-2.924-2.924-7.682 0-10.605a7.45 7.45 0 0 1 5.304-2.197c2.004 0 3.887.779 5.303 2.195 2.924 2.925 2.924 7.683-.001 10.608m14.999-14.998a22.4 22.4 0 0 0-4.391-6.216 22.36 22.36 0 0 0-15.91-6.589c-3.411 0-6.696.778-9.685 2.207l-11.528-11.528 31.819-31.819 11.519 11.519c-3.983 8.362-2.522 18.691 4.391 25.605a22.5 22.5 0 0 0 6.224 4.382zm27.428-27.429a7.45 7.45 0 0 1-5.303 2.197 7.45 7.45 0 0 1-5.303-2.196c-2.924-2.925-2.924-7.684 0-10.608a7.45 7.45 0 0 1 5.303-2.196c2.004 0 3.887.779 5.303 2.195 2.924 2.926 2.924 7.685 0 10.608m14.998-14.997a22.4 22.4 0 0 0-4.392-6.216 22.35 22.35 0 0 0-15.91-6.589c-3.411 0-6.696.778-9.685 2.207l-11.528-11.528 63.64-63.639 31.819 31.82zm147.62-148.607c-.915 9.76-5.636 19.351-13.293 27.008-8.549 8.549-19.604 13.452-30.332 13.451-7.967 0-14.856-2.678-19.922-7.745-12.282-12.281-9.722-34.825 5.706-50.253 8.548-8.548 19.603-13.45 30.331-13.45 7.967 0 14.855 2.678 19.923 7.745 5.758 5.758 8.453 14.014 7.587 23.244m14.149-13.162c-1.686-7.924-5.457-15.016-11.13-20.69-5.604-5.604-12.758-9.393-20.72-11.1l22.487-22.487 31.82 31.82z"/>
        <circle cx="379.723" cy="90.281" r="10"/>
    </g>
</svg>
