<?xml version="1.0" encoding="UTF-8" standalone="no"?>
<!-- Uploaded to: SVG Repo, www.svgrepo.com, Generator: SVG Repo Mixer Tools -->

<svg
   fill="#000000"
   height="50"
   width="50"
   version="1.1"
   id="Layer_1"
   viewBox="0 0 50 50"
   xml:space="preserve"
   sodipodi:docname="flute_2.svg"
   inkscape:version="1.4 (e7c3feb1, 2024-10-09)"
   xmlns:inkscape="http://www.inkscape.org/namespaces/inkscape"
   xmlns:sodipodi="http://sodipodi.sourceforge.net/DTD/sodipodi-0.dtd"
   xmlns="http://www.w3.org/2000/svg"
   xmlns:svg="http://www.w3.org/2000/svg"><defs
   id="defs3" /><sodipodi:namedview
   id="namedview3"
   pagecolor="#ffffff"
   bordercolor="#000000"
   borderopacity="0.25"
   inkscape:showpageshadow="2"
   inkscape:pageopacity="0.0"
   inkscape:pagecheckerboard="0"
   inkscape:deskcolor="#d1d1d1"
   inkscape:current-layer="g3" />
<g
   id="g3"
   transform="matrix(0.09574397,0,0,0.09574397,2.4999756,2.4999756)">
	<g
   id="g2">
		<g
   id="g1">
			<path
   d="M 467.807,44.623 425.38,2.196 C 423.974,0.79 422.066,0 420.077,0 c -1.989,0 -3.897,0.79 -5.303,2.196 l -38.736,38.736 c -10.65,2.46 -20.885,8.158 -29.195,16.467 -21.277,21.278 -23.837,53.337 -5.706,71.468 5.604,5.604 12.757,9.393 20.719,11.1 l -29.634,29.634 -31.82,-31.82 14.314,-14.314 c 2.929,-2.93 2.929,-7.678 0,-10.608 -2.929,-2.928 -7.678,-2.928 -10.607,0 l -88.559,88.561 -1.768,-1.768 c -2.929,-2.928 -7.677,-2.928 -10.607,0 -2.929,2.929 -2.929,7.678 0,10.607 l 1.767,1.767 -31.82,31.82 -1.768,-1.768 c -2.929,-2.928 -7.677,-2.928 -10.607,0 -2.929,2.93 -2.929,7.678 0,10.608 l 1.767,1.767 -31.819,31.819 -1.767,-1.767 c -2.929,-2.928 -7.678,-2.927 -10.607,0 -2.929,2.93 -2.929,7.678 0,10.608 l 1.767,1.767 -16.262,16.262 c -2.706,-0.875 -5.559,-1.336 -8.486,-1.336 -7.346,0 -14.251,2.86 -19.446,8.054 -5.194,5.194 -8.055,12.101 -8.055,19.446 0.001,2.926 0.461,5.78 1.336,8.486 L 54.33,362.64 c -2.706,-0.875 -5.56,-1.335 -8.485,-1.336 -7.346,0 -14.252,2.861 -19.446,8.055 -7.54,7.54 -9.769,18.403 -6.705,27.917 L 2.197,414.773 c -2.929,2.929 -2.929,7.678 0,10.608 l 42.427,42.427 c 1.406,1.406 3.314,2.196 5.303,2.196 1.989,0 3.896,-0.79 5.303,-2.196 L 383.408,139.63 c 10.651,-2.46 20.886,-8.159 29.196,-16.469 8.324,-8.324 14.027,-18.501 16.484,-29.212 L 467.807,55.23 c 2.929,-2.93 2.929,-7.678 0,-10.607 z M 86.502,330.468 c 2.362,-2.36 5.501,-3.661 8.84,-3.662 3.339,0 6.478,1.3 8.839,3.661 4.874,4.874 4.874,12.804 0,17.679 -2.361,2.361 -5.5,3.66 -8.839,3.66 -3.339,0 -6.478,-1.299 -8.839,-3.661 -4.874,-4.874 -4.874,-12.803 -0.001,-17.677 z m -49.497,49.498 c 2.361,-2.361 5.5,-3.662 8.839,-3.661 3.339,0 6.478,1.299 8.839,3.661 4.874,4.873 4.874,12.804 0,17.676 -2.361,2.361 -5.5,3.661 -8.839,3.661 -3.339,10e-4 -6.478,-1.299 -8.839,-3.659 -4.873,-4.874 -4.873,-12.805 0,-17.678 z m 12.921,71.932 -31.82,-31.82 10.142,-10.142 c 4.932,4.12 11.09,6.368 17.596,6.368 7.346,0 14.251,-2.86 19.445,-8.053 5.195,-5.195 8.055,-12.101 8.055,-19.446 0,-6.505 -2.248,-12.664 -6.369,-17.596 l 10.77,-10.77 c 4.932,4.121 11.09,6.368 17.595,6.369 7.346,0 14.252,-2.861 19.446,-8.054 5.194,-5.194 8.055,-12.101 8.055,-19.446 0,-6.505 -2.247,-12.663 -6.369,-17.596 l 14.224,-14.224 11.528,11.528 c -1.429,2.989 -2.208,6.273 -2.208,9.685 0,6.01 2.341,11.66 6.591,15.91 1.837,1.837 3.948,3.293 6.224,4.382 z M 167.82,334.003 c -1.417,1.417 -3.3,2.197 -5.303,2.197 -2.004,0 -3.887,-0.78 -5.303,-2.197 -1.416,-1.416 -2.197,-3.3 -2.197,-5.303 0,-2.001 0.779,-3.883 2.2,-5.306 1.416,-1.414 3.298,-2.194 5.3,-2.194 2.003,0 3.886,0.78 5.303,2.197 1.416,1.416 2.197,3.3 2.197,5.303 0,2.003 -0.78,3.887 -2.197,5.303 z m 14.988,-14.987 c -1.088,-2.277 -2.545,-4.387 -4.382,-6.224 -4.25,-4.25 -9.9,-6.591 -15.91,-6.591 -3.411,0 -6.696,0.779 -9.685,2.208 l -11.528,-11.528 31.82,-31.82 11.519,11.519 c -3.983,8.361 -2.522,18.69 4.391,25.603 1.838,1.838 3.948,3.294 6.225,4.383 z m 27.438,-27.439 c -1.417,1.416 -3.299,2.196 -5.303,2.196 -2.003,0 -3.887,-0.78 -5.303,-2.197 -2.924,-2.924 -2.924,-7.682 0,-10.605 1.417,-1.417 3.3,-2.197 5.304,-2.197 2.004,0 3.887,0.779 5.303,2.195 2.924,2.925 2.924,7.683 -0.001,10.608 z m 14.999,-14.998 c -1.072,-2.248 -2.532,-4.357 -4.391,-6.216 -4.25,-4.249 -9.9,-6.589 -15.91,-6.589 -3.411,0 -6.696,0.778 -9.685,2.207 l -11.528,-11.528 31.819,-31.819 11.519,11.519 c -3.983,8.362 -2.522,18.691 4.391,25.605 1.837,1.837 3.948,3.293 6.224,4.382 z m 27.428,-27.429 c -1.417,1.417 -3.3,2.197 -5.303,2.197 -2.004,0 -3.887,-0.78 -5.303,-2.196 -2.924,-2.925 -2.924,-7.684 0,-10.608 1.416,-1.416 3.299,-2.196 5.303,-2.196 2.004,0 3.887,0.779 5.303,2.195 2.924,2.926 2.924,7.685 0,10.608 z m 14.998,-14.997 c -1.072,-2.248 -2.532,-4.357 -4.392,-6.216 -4.249,-4.249 -9.9,-6.589 -15.91,-6.589 -3.411,0 -6.696,0.778 -9.685,2.207 l -11.528,-11.528 63.64,-63.639 31.819,31.82 z M 415.291,85.546 c -0.915,9.76 -5.636,19.351 -13.293,27.008 -8.549,8.549 -19.604,13.452 -30.332,13.451 -7.967,0 -14.856,-2.678 -19.922,-7.745 -12.282,-12.281 -9.722,-34.825 5.706,-50.253 8.548,-8.548 19.603,-13.45 30.331,-13.45 7.967,0 14.855,2.678 19.923,7.745 5.758,5.758 8.453,14.014 7.587,23.244 z M 429.44,72.384 c -1.686,-7.924 -5.457,-15.016 -11.13,-20.69 -5.604,-5.604 -12.758,-9.393 -20.72,-11.1 l 22.487,-22.487 31.82,31.82 z"
   id="path1" />
			<circle
   cx="379.72299"
   cy="90.280998"
   r="10"
   id="circle1" />
		</g>
	</g>
</g>
</svg>
