<?xml version="1.0" encoding="iso-8859-1"?>
<!-- Uploaded to: SVG Repo, www.svgrepo.com, Generator: SVG Repo Mixer Tools -->
<svg fill="#000000" height="800px" width="800px" version="1.1" id="Layer_1" xmlns="http://www.w3.org/2000/svg" xmlns:xlink="http://www.w3.org/1999/xlink" 
	 viewBox="0 0 512 512" xml:space="preserve">
<g>
	<g>
		<path d="M511.998,66.992c0-4.951-4.013-8.966-8.966-8.966H325.929V18.582c0-4.951-4.013-8.966-8.966-8.966H195.038
			c-4.953,0-8.966,4.014-8.966,8.966v39.444H8.97c-4.953,0-8.966,4.014-8.966,8.966L0,493.418c0,4.951,4.013,8.966,8.966,8.966
			h43.033c4.953,0,8.966-4.014,8.966-8.966v-33.077h153.928l-2.151,6.334c-1.592,4.688,0.918,9.781,5.606,11.372
			c0.955,0.324,1.927,0.478,2.883,0.478c3.734,0,7.22-2.353,8.489-6.085l4.109-12.101h13.206v9.521c0,4.951,4.013,8.966,8.966,8.966
			s8.966-4.014,8.966-8.966v-9.521h13.207l4.109,12.1c1.267,3.733,4.754,6.086,8.489,6.086c0.956,0,1.928-0.154,2.883-0.478
			c4.688-1.592,7.199-6.684,5.606-11.372l-2.151-6.336h153.928v33.077c0,4.951,4.013,8.966,8.966,8.966h43.032
			c4.953,0,8.966-4.014,8.966-8.966L511.998,66.992z M17.936,230.16v-19.723h476.131v19.723H17.936z M494.065,248.091v8.964H472.07
			v-8.964H494.065z M454.139,248.091v8.964h-19.724v-8.964H454.139z M416.483,248.091v8.964h-19.724v-8.964H416.483z
			 M378.828,248.091v8.964h-19.724v-8.964H378.828z M341.173,248.091v8.964h-19.724v-8.964H341.173z M303.517,248.091v8.964h-19.724
			v-8.964H303.517z M265.862,248.091v8.964h-19.724v-8.964H265.862z M228.207,248.091v8.964h-19.724v-8.964H228.207z
			 M190.551,248.091v8.964h-19.724v-8.964H190.551z M152.896,248.091v8.964h-19.724v-8.964H152.896z M115.241,248.091v8.964H95.517
			v-8.964H115.241z M77.586,248.091v8.964H57.861v-8.964H77.586z M39.93,248.091v8.964H17.936v-8.964H39.93z M204.003,27.548
			h103.994v130.89H204.003V27.548z M17.935,75.958h168.138v82.481h-10.959c-4.953,0-8.966,4.014-8.966,8.966
			c0,4.951,4.013,8.966,8.966,8.966h161.774c4.953,0,8.966-4.014,8.966-8.966c0-4.951-4.013-8.966-8.966-8.966h-10.958V75.958
			h168.136v116.549H17.935V75.958z M43.033,484.452H17.931l0.005-166.435h25.098V484.452z M451.037,442.41H60.965V318.018h390.072
			V442.41z M17.936,300.087v-25.102h476.131v25.102H17.936z M468.968,484.454v-0.001V318.018h25.099l0.002,166.435H468.968z"/>
	</g>
</g>
<g>
	<g>
		<path d="M281.104,47.639h-50.207c-4.953,0-8.966,4.014-8.966,8.966c0,4.951,4.013,8.966,8.966,8.966h50.207
			c4.953,0,8.966-4.014,8.966-8.966C290.069,51.653,286.056,47.639,281.104,47.639z"/>
	</g>
</g>
<g>
	<g>
		<path d="M281.104,83.764h-50.207c-4.953,0-8.966,4.014-8.966,8.966c0,4.951,4.013,8.966,8.966,8.966h50.207
			c4.953,0,8.966-4.014,8.966-8.966C290.069,87.778,286.056,83.764,281.104,83.764z"/>
	</g>
</g>
<g>
	<g>
		<path d="M281.104,119.89h-50.207c-4.953,0-8.966,4.014-8.966,8.966c0,4.951,4.013,8.966,8.966,8.966h50.207
			c4.953,0,8.966-4.014,8.966-8.966C290.069,123.905,286.056,119.89,281.104,119.89z"/>
	</g>
</g>
</svg>