<?xml version="1.0" encoding="UTF-8" standalone="no"?>
<!-- Uploaded to: SVG Repo, www.svgrepo.com, Generator: SVG Repo Mixer Tools -->

<svg
   fill="#000000"
   height="86.618973"
   width="90"
   version="1.1"
   id="Layer_1"
   viewBox="0 0 90 86.618973"
   xml:space="preserve"
   sodipodi:docname="fortepiano_1.svg"
   inkscape:version="1.3.2 (091e20e, 2023-11-25)"
   xmlns:inkscape="http://www.inkscape.org/namespaces/inkscape"
   xmlns:sodipodi="http://sodipodi.sourceforge.net/DTD/sodipodi-0.dtd"
   xmlns="http://www.w3.org/2000/svg"
   xmlns:svg="http://www.w3.org/2000/svg"><defs
   id="defs8">
	

		
	
	

		
	
	

		
	
	

		
	</defs><sodipodi:namedview
   id="namedview8"
   pagecolor="#ffffff"
   bordercolor="#000000"
   borderopacity="0.25"
   inkscape:showpageshadow="2"
   inkscape:pageopacity="0.0"
   inkscape:pagecheckerboard="0"
   inkscape:deskcolor="#d1d1d1"
   inkscape:current-layer="Layer_1" />
<path
   id="path1"
   d="M 34.283736,0 C 33.413095,0 32.707892,0.70572419 32.707892,1.5761888 V 8.5095653 H 1.5768754 c -0.87064034,0 -1.57618875711,0.7057242 -1.57618875711,1.5761887 L 0,85.043124 c 0,0.87029 0.70554841,1.575847 1.5761888,1.575847 h 7.5640581 c 0.8706401,0 1.5761891,-0.705381 1.5761891,-1.575847 v -5.814491 h 27.057506 l -0.377996,1.113391 c -0.279843,0.824059 0.161273,1.719494 0.985332,1.999161 0.167871,0.05695 0.338696,0.08377 0.506742,0.08377 0.656365,0 1.269352,-0.413432 1.492418,-1.069445 l 0.722005,-2.127219 h 2.321541 v 1.673691 c 0,0.87029 0.705548,1.576189 1.576187,1.576189 0.870641,0 1.575847,-0.705724 1.575847,-1.576189 v -1.673691 h 2.321539 l 0.722348,2.126876 c 0.222714,0.656187 0.835536,1.069788 1.492074,1.069788 0.168047,0 0.338874,-0.02682 0.506744,-0.08377 0.824058,-0.279842 1.265694,-1.175102 0.985676,-1.999161 l -0.37834,-1.113733 h 27.057506 v 5.814491 c 0,0.870289 0.705548,1.575846 1.576189,1.575844 h 7.564058 C 89.294452,86.618626 90,85.913247 90,85.042782 l -7.03e-4,-74.957028 c 0,-0.8702887 -0.705548,-1.5761887 -1.57619,-1.5761887 H 57.29211 V 1.5761888 C 57.29211,0.70589997 56.586562,0 55.715921,0 Z m 1.57619,3.1520343 H 54.139731 V 26.160065 H 35.859926 Z m 4.727191,3.5317477 c -0.870639,0 -1.575845,0.7053807 -1.575845,1.5758453 0,0.8702888 0.705206,1.5761888 1.575845,1.5761888 h 8.825423 c 0.870639,0 1.576187,-0.7057243 1.576187,-1.5761888 C 50.988552,7.3891627 50.283003,6.6837818 49.41254,6.683782 Z M 3.1527209,11.6616 H 32.707892 v 14.498465 h -1.926378 c -0.87064,0 -1.575845,0.705724 -1.575845,1.576187 0,0.87029 0.705205,1.57619 1.575845,1.57619 h 28.436972 c 0.870641,0 1.575846,-0.705724 1.575846,-1.57619 0,-0.870287 -0.705205,-1.576187 -1.575846,-1.576187 H 57.29211 V 11.6616 H 86.84728 V 32.148619 H 3.1527209 Z m 37.4343961,1.372255 c -0.870639,0 -1.575845,0.705381 -1.575845,1.575846 0,0.870289 0.705206,1.576189 1.575845,1.576189 h 8.825423 c 0.870639,0 1.576187,-0.705725 1.576187,-1.576189 -1.75e-4,-0.870465 -0.705724,-1.575846 -1.576187,-1.575846 z m 0,6.350074 c -0.870639,0 -1.575845,0.705724 -1.575845,1.576188 0,0.870289 0.705206,1.575846 1.575845,1.575846 h 8.825423 c 0.870639,0 1.576187,-0.705381 1.576187,-1.575846 -1.75e-4,-0.870288 -0.705724,-1.576188 -1.576187,-1.576188 z M 3.1527209,35.300311 H 86.84728 v 3.467203 H 3.1527209 Z m 0,6.618894 H 7.0188637 V 43.49505 H 3.1527209 Z m 7.0181771,0 h 3.467203 v 1.575845 h -3.467203 z m 6.619237,0 h 3.466859 v 1.575845 h -3.466859 z m 6.618895,0 h 3.467202 V 43.49505 H 23.40903 Z m 6.618893,0 h 3.467204 v 1.575845 h -3.467204 z m 6.619238,0 h 3.467203 v 1.575845 h -3.467203 z m 6.619237,0 h 3.466861 v 1.575845 h -3.466861 z m 6.618895,0 h 3.467203 v 1.575845 h -3.467203 z m 6.619237,0 h 3.467204 V 43.49505 H 56.50453 Z m 6.618895,0 h 3.467202 v 1.575845 h -3.467202 z m 6.619237,0 h 3.466859 v 1.575845 h -3.466859 z m 6.618893,0 h 3.467204 v 1.575845 h -3.467204 z m 6.619238,0 h 3.866143 V 43.49505 H 82.980793 Z M 3.1527209,46.646741 H 86.84728 v 4.412367 H 3.1527209 Z m 0,7.564058 H 7.5644014 V 83.466937 H 3.1520343 Z m 7.5637151,3.52e-4 H 79.283565 V 76.076942 H 10.716436 Z m 71.719163,0 h 4.411681 l 3.52e-4,29.256137 h -4.412024 z"
   style="stroke-width:1" />



</svg>
