<svg xmlns="http://www.w3.org/2000/svg" xml:space="preserve" width="90" height="86.619">
    <path d="M34.284 0c-.87 0-1.576.706-1.576 1.576V8.51H1.577C.707 8.51 0 9.215 0 10.086v74.957c0 .87.706 1.576 1.576 1.576H9.14c.87 0 1.576-.705 1.576-1.576V79.23h27.058l-.378 1.113a1.576 1.576 0 1 0 2.984 1.014l.722-2.128h2.322v1.674a1.576 1.576 0 0 0 3.152 0v-1.674h2.322l.722 2.127a1.577 1.577 0 0 0 2.984-1.013l-.378-1.114h27.058v5.815c0 .87.705 1.576 1.576 1.576h7.564c.87 0 1.576-.706 1.576-1.576V10.086c0-.87-.706-1.576-1.577-1.576h-31.13V1.576c0-.87-.706-1.576-1.577-1.576Zm1.576 3.152h18.28V26.16H35.86Zm4.727 3.532a1.576 1.576 0 1 0 0 3.152h8.826a1.576 1.576 0 1 0 0-3.152ZM3.153 11.662h29.555V26.16h-1.926a1.576 1.576 0 1 0 0 3.152h28.436a1.576 1.576 0 1 0 0-3.152h-1.926V11.662h29.555v20.487H3.153Zm37.434 1.372a1.576 1.576 0 1 0 0 3.152h8.826a1.576 1.576 0 1 0 0-3.152zm0 6.35a1.576 1.576 0 1 0 0 3.152h8.826a1.576 1.576 0 1 0 0-3.152zM3.153 35.3h83.694v3.468H3.153Zm0 6.62h3.866v1.575H3.153Zm7.018 0h3.467v1.575h-3.467zm6.62 0h3.466v1.575H16.79zm6.618 0h3.467v1.575H23.41Zm6.619 0h3.467v1.575h-3.467zm6.62 0h3.466v1.575h-3.467zm6.618 0h3.467v1.575h-3.467zm6.62 0h3.466v1.575h-3.467zm6.619 0h3.467v1.575h-3.467Zm6.618 0h3.468v1.575h-3.468zm6.62 0h3.467v1.575h-3.467zm6.619 0h3.467v1.575h-3.467zm6.619 0h3.866v1.575H82.98ZM3.153 46.646h83.694v4.412H3.153Zm0 7.564h4.411v29.256H3.152Zm7.563 0h68.568v21.866H10.716Zm71.72 0h4.411v29.256h-4.411z" style="stroke-width:1"/>
</svg>
