<svg xmlns="http://www.w3.org/2000/svg" xml:space="preserve" width="100" height="60"><path d="M84.538 49.796a67.7 67.7 0 0 0-14.173-27.909l-.575-.677a.594.594 0 0 0-1.044.442c.806 8.304-4.227 17.389-12.24 22.092-.574.337-2.724 1.359-4.924 2.38 3.95-3.865 6.406-9.251 6.406-15.2 0-11.73-9.542-21.272-21.271-21.272-7.12 0-13.434 3.517-17.297 8.904V8.108l1.12-3.645a.594.594 0 0 0-.567-.768H17.68a.594.594 0 0 0-.568.768l1.12 3.645v12.299a21.14 21.14 0 0 0-2.787 10.517c0 .32.028 1.082.031 1.132q.085 1.594.397 3.119c.113.556.702 3.78 1.587 6.236a25.7 25.7 0 0 0 2.507 5.122c1.815 2.836 4.12 5.097 6.85 6.72 3.407 2.025 7.478 3.052 12.102 3.052 5.717 0 13.196-.886 25.33-7.454 5.84-3.16 13.266-2.557 19.38 1.575a.594.594 0 0 0 .91-.63zM23.134 17.535c3.426-2.52 8.25-3.907 13.583-3.907 9.537 0 17.296 7.759 17.296 17.296 0 6.072-3.145 11.421-7.891 14.508v-6.167h1.954a3.16 3.16 0 0 0 3.156-3.157 3.16 3.16 0 0 0-3.156-3.157h-1.954V28.99h1.954a3.16 3.16 0 0 0 3.156-3.156 3.16 3.16 0 0 0-3.156-3.157h-1.954v-.272a6.2 6.2 0 0 0-1.825-4.408 6.2 6.2 0 0 0-4.408-1.826 6.24 6.24 0 0 0-6.234 6.234v.272h-5.91a2.36 2.36 0 0 0-2.272-1.739 2.36 2.36 0 0 0-2.356 2.356c0 1.3 1.057 2.356 2.356 2.356a2.36 2.36 0 0 0 2.283-1.785h5.9v3.938h-5.912a2.36 2.36 0 0 0-2.271-1.739 2.36 2.36 0 0 0-2.356 2.356c0 1.3 1.057 2.356 2.356 2.356a2.36 2.36 0 0 0 2.283-1.785h5.9v3.961H27.75a2.36 2.36 0 0 0-2.277-1.762 2.36 2.36 0 0 0-2.356 2.356c0 1.3 1.057 2.356 2.356 2.356 1.094 0 2.013-.75 2.277-1.762h5.906v3.938H27.75a2.36 2.36 0 0 0-2.277-1.762 2.36 2.36 0 0 0-2.356 2.356c0 1.3 1.057 2.356 2.356 2.356 1.094 0 2.013-.75 2.277-1.762h5.906v4.475a4.095 4.095 0 0 0-3.227 3.296C24 44.52 19.43 38.258 19.42 30.95v-9.514q1.47-2.25 3.714-3.9m21.8 5.14h-10.09v-.271a5.05 5.05 0 0 1 5.045-5.045c1.348 0 2.615.524 3.568 1.477a5.01 5.01 0 0 1 1.477 3.568zm0 1.189v3.938h-10.09v-3.938zm1.188 0h1.954c1.085 0 1.969.883 1.969 1.969a1.97 1.97 0 0 1-1.97 1.969h-1.953Zm-1.188 5.126v3.961h-10.09V28.99zm0 5.15v3.937h-10.09V34.14zm1.188 0h1.954c1.085 0 1.969.883 1.969 1.968a1.97 1.97 0 0 1-1.97 1.97h-1.953Zm-1.188 5.125v4.397h-10.09v-4.397zm-11.278 8.683a17 17 0 0 1-2.085-.51 2.9 2.9 0 0 1 2.085-2.474zm1.188-3.098h10.09v1.29a17.2 17.2 0 0 1-8.217 2.08q-.95-.002-1.873-.102zM26.64 23.293a1.17 1.17 0 0 1-1.168 1.169 1.17 1.17 0 0 1-1.168-1.169 1.17 1.17 0 0 1 1.168-1.168 1.17 1.17 0 0 1 1.168 1.168m0 5.126a1.17 1.17 0 0 1-1.168 1.169 1.17 1.17 0 0 1-1.168-1.169 1.17 1.17 0 0 1 1.168-1.168 1.17 1.17 0 0 1 1.168 1.168m0 5.126a1.17 1.17 0 0 1-1.168 1.169 1.17 1.17 0 0 1-1.168-1.169 1.17 1.17 0 0 1 1.168-1.168 1.17 1.17 0 0 1 1.168 1.168m0 5.126a1.17 1.17 0 0 1-1.168 1.168 1.17 1.17 0 0 1-1.168-1.168 1.17 1.17 0 0 1 1.168-1.168 1.17 1.17 0 0 1 1.168 1.168M19.17 4.883l-.343 1.114-.342-1.114Zm-2.513 26.975c.005-3.118.532-5.866 1.576-8.23v7.297c0 10.191 8.292 18.482 18.485 18.482S55.2 41.116 55.2 30.925c0-10.193-8.292-18.485-18.484-18.485-5.128 0-9.824 1.24-13.366 3.508a20 20 0 0 1 13.366-5.108c11.074 0 20.083 9.01 20.083 20.084s-9.01 20.083-20.083 20.083c-10.761 0-19.571-8.507-20.061-19.149m47.027 15.949c-11.9 6.442-19.196 7.31-24.764 7.31-4.396 0-8.256-.966-11.47-2.87-2.569-1.523-4.741-3.648-6.457-6.318a23 23 0 0 1-1.243-2.192c3.887 5.134 10.046 8.458 16.968 8.458 3.588 0 6.971-.893 9.94-2.469.206-.109 1.021-.516 1.265-.626 2.48-1.11 8.119-3.706 9.186-4.332 4.04-2.372 7.535-5.95 9.84-10.075 2.05-3.67 3.098-7.565 3.073-11.367A66.6 66.6 0 0 1 83.023 48.64c-6.223-3.644-13.51-3.99-19.34-.834" style="stroke-width:1"/></svg>