<svg xmlns="http://www.w3.org/2000/svg" xml:space="preserve" width="100" height="60"><path d="M17.68 3.418a.89.89 0 0 0-.701.353.88.88 0 0 0-.133.772v.002l1.11 3.603v12.198a21.5 21.5 0 0 0-2.788 10.578c0 .168.008.438.016.676.007.238.012.415.015.472q.087 1.614.403 3.158c.108.536.701 3.782 1.6 6.274h-.003a26 26 0 0 0 2.533 5.178h.002c1.837 2.869 4.173 5.164 6.942 6.81 3.455 2.054 7.579 3.09 12.244 3.09 5.746 0 13.294-.9 25.46-7.486 5.741-3.106 13.057-2.52 19.095 1.56a.89.89 0 0 0 .982-.006.9.9 0 0 0 .352-.918h-.002v-.002a68.3 68.3 0 0 0-14.23-28.023L70 21.031a.9.9 0 0 0-1.002-.236.89.89 0 0 0-.527.883v.002c.793 8.174-4.183 17.176-12.106 21.826-.383.225-2.07 1.015-3.582 1.728 3.398-3.81 5.483-8.817 5.483-14.31 0-11.88-9.67-21.549-21.55-21.549-6.924 0-13.074 3.306-17.019 8.398V8.148l1.108-3.603v-.002a.89.89 0 0 0-.133-.772.89.89 0 0 0-.7-.353Zm19.037 7.7C47.64 11.117 56.52 20 56.52 30.923S47.64 50.73 36.717 50.73c-10.61 0-19.293-8.383-19.783-18.873.004-2.48.356-4.703 1.021-6.691v5.76c0 10.341 8.42 18.758 18.764 18.758s18.758-8.417 18.758-18.758c0-10.343-8.418-18.764-18.76-18.764-3.854 0-7.47.698-10.551 2.004-.09.053-.401.241.26-.162.973-.594-.6.341.387-.23.986-.572-.606.328.394-.221 1-.55-.616.313.397-.213s-.622.3.402-.203-.627.284.408-.196c1.035-.479-.635.272.41-.183 1.046-.456-.64.255.416-.176s-.645.241.42-.166c1.066-.407-.652.226.422-.156 1.074-.383-.655.211.428-.147s-.661.197.43-.136c1.09-.334-.667.18.431-.127 1.098-.308-.67.165.436-.118 1.105-.282-.672.152.44-.105 1.11-.258-.678.134.439-.098s-.679.12.443-.086-.683.105.443-.076c1.126-.18-.682.089.448-.066s-.686.072.447-.057-.687.056.449-.047-.689.042.45-.035c1.137-.077-.69.026.448-.025 1.14-.051-.689.01.452-.016 1.14-.025-.69-.005.45-.004m0 2.788c9.387 0 17.02 7.631 17.02 17.018 0 5.785-2.916 10.882-7.339 13.959v-5.34h1.678a3.48 3.48 0 0 0 2.428-1.008 3.48 3.48 0 0 0 1.006-2.428 3.48 3.48 0 0 0-1.008-2.425 3.48 3.48 0 0 0-2.426-1.008h-1.678v-3.406h1.678a3.48 3.48 0 0 0 2.426-1.008 3.48 3.48 0 0 0 1.008-2.426 3.48 3.48 0 0 0-1.008-2.426 3.48 3.48 0 0 0-2.426-1.008h-1.678a6.55 6.55 0 0 0-1.906-4.6 6.55 6.55 0 0 0-4.603-1.905 6.6 6.6 0 0 0-4.602 1.908 6.6 6.6 0 0 0-1.91 4.597h-5.459c-.172-.466-.453-.893-.848-1.195a2.66 2.66 0 0 0-1.597-.545 2.67 2.67 0 0 0-1.862.774 2.67 2.67 0 0 0-.771 1.86c0 1.329 1.007 2.387 2.287 2.563-.564.08-1.11.3-1.514.704a2.67 2.67 0 0 0-.773 1.859c0 1.328 1.007 2.386 2.287 2.562-.565.08-1.112.3-1.516.704a2.67 2.67 0 0 0-.771 1.86c0 1.328 1.007 2.386 2.287 2.563-.564.08-1.11.3-1.514.703a2.67 2.67 0 0 0-.773 1.86 2.64 2.64 0 0 0 2.633 2.633c1.14 0 2.089-.743 2.453-1.762h5.453v4.006c-.767.198-1.489.582-2.043 1.148-.527.54-.874 1.229-1.066 1.957-6.183-2.544-10.563-8.615-10.573-15.705v-9.418a14.7 14.7 0 0 1 3.602-3.773c3.365-2.475 8.133-3.852 13.418-3.852m3.172 3.73c1.276 0 2.47.495 3.373 1.397v.002c.384.382-.203-.232.162.168.364.4-.192-.24.152.178.345.418-.179-.251.145.183.323.435-.167-.258.134.192s-.153-.267.125.197c.28.464-.14-.274.116.203.255.478-.126-.28.105.21.232.489-.111-.286.096.214s-.098-.293.084.217-.085-.296.072.223c.157.518-.068-.3.063.226.13.526-.054-.305.05.227.105.531-.037-.306.041.23.079.536-.024-.306.028.233s-.008-.307.017.234c.025.527.007-.233.004.228h-9.535c0-.44-.022 0 .024-.46.046-.467-.024-.004.068-.463.092-.46-.021-.005.115-.453.136-.449-.023-.009.156-.442.18-.433-.02-.008.202-.422.22-.413-.02-.012.24-.402s-.018-.013.28-.375c.297-.362-.018-.014.314-.346.331-.331-.017-.017.345-.314.363-.298-.014-.019.375-.28.39-.26-.01-.019.403-.24.413-.22-.012-.021.421-.201s-.007-.02.442-.156c.448-.137-.007-.024.453-.115.46-.092-.004-.022.463-.069.466-.046-.002-.023.467-.023m-14.416 4.766c.175 0 .001-.017.173.018.173.034.004-.017.167.05.162.068.008-.015.154.083.146.097.01-.013.135.111.124.124.013-.011.11.135.098.146.016-.008.083.154s.016-.006.05.166c.035.172.018-.001.018.174s.017.002-.017.174.016.006-.051.168.015.008-.082.154.014.01-.11.135c-.123.124.01.014-.136.111-.146.098.007.015-.154.082-.162.068.006.016-.167.051-.171.034.002.017-.173.018-.176 0-.002.016-.174-.018-.172-.035-.004.017-.166-.05-.162-.068-.009.015-.154-.083-.146-.097-.013.013-.137-.111s-.012.011-.11-.135c-.097-.146-.015.008-.082-.154s-.016.004-.05-.168c-.035-.172-.018.001-.018-.174s-.017-.002.018-.174c.034-.172-.017-.004.05-.166.068-.162-.015-.008.082-.154.098-.146-.012-.01.112-.135.124-.124-.011-.014.135-.111.145-.098-.008-.015.154-.082.162-.068-.006-.017.166-.051.172-.035-.002-.017.174-.018m44.779 1.647c-.189-.233-.414-.515.117.146 1.266 1.577-.977-1.237.277.348s-.966-1.242.278.352-.96-1.249.273.353-.95-1.256.272.354-.944-1.263.267.355c1.212 1.618-.935-1.267.266.36 1.2 1.626-.924-1.276.266.359 1.19 1.634-.92-1.281.26.361 1.178 1.642-.909-1.287.26.363 1.167 1.65-.902-1.292.255.366s-.892-1.299.254.367-.882-1.305.252.369-.873-1.312.25.37c1.123 1.68-.866-1.316.246.372s-.856-1.323.244.373-.847-1.328.242.375c1.09 1.704-.839-1.334.239.377 1.077 1.71-.83-1.339.236.379s-.82-1.346.234.379-.81-1.35.233.383c1.042 1.732-.803-1.356.228.383s-.792-1.362.227.384-.785-1.366.222.387-.774-1.373.221.387c.996 1.76-.765-1.378.219.388s-.755-1.382.217.391c.971 1.773-.747-1.387.213.393.96 1.779-.737-1.393.21.392.948 1.786-.728-1.395.207.397.936 1.792-.718-1.402.206.396s-.709-1.408.203.397-.7-1.412.199.398c.9 1.81-.69-1.416.197.4.887 1.817-.68-1.42.195.403.876 1.822-.67-1.426.192.402.863 1.829-.661-1.43.19.405.85 1.834-.653-1.434.185.406s-.642-1.44.183.406c.826 1.845-.631-1.443.182.408s-.623-1.446.178.41c.8 1.857-.613-1.451.176.41.788 1.862-.604-1.456.172.41.775 1.868-.594-1.457.17.415.763 1.872-.583-1.465.167.412s-.573-1.466.164.416c.738 1.882-.563-1.471.163.416.725 1.887-.555-1.476.158.416.712 1.892-.544-1.477.156.42s-.535-1.484.152.418-.523-1.486.15.42c.675 1.906-.514-1.489.147.422.662 1.91-.504-1.493.145.421.648 1.915-.493-1.495.142.424.636 1.92-.484-1.5.139.424s-.473-1.502.137.426-.464-1.506.133.426c.596 1.931-.453-1.51.13.425.584 1.936-.443-1.511.127.428.571 1.94-.432-1.513.125.43.558 1.943-.423-1.52.121.428l.073.261c-6.171-3.386-13.295-3.66-19.041-.55l-.002.002h-.002C51.68 53.987 44.457 54.84 38.918 54.84c-4.355 0-8.165-.957-11.33-2.832-2.434-1.443-4.496-3.446-6.158-5.942 3.907 3.945 9.31 6.407 15.287 6.407a21.4 21.4 0 0 0 10.068-2.502 44 44 0 0 1 1.25-.62c1.242-.555 3.272-1.48 5.127-2.347s3.513-1.662 4.086-1.998c4.085-2.398 7.611-6.008 9.941-10.178 1.942-3.476 2.96-7.156 3.063-10.78m-42.318.094h5.445v3.382h-5.461c-.172-.465-.453-.893-.848-1.195-.343-.262-.757-.402-1.183-.473.434-.072.858-.218 1.205-.49.397-.31.676-.748.842-1.224m7.187 0h9.535v3.382h-9.535zm11.277 0h1.678a1.69 1.69 0 0 1 1.692 1.691c0 .166.008 0-.008.166-.017.165.007.001-.026.164-.032.163.01.001-.039.16-.048.16.007.005-.056.158-.064.154.008.002-.07.149-.08.146.006.004-.087.142-.092.139.006.007-.1.135-.105.129.007.006-.11.123-.118.118.005.006-.124.112-.128.105.006.005-.132.097-.139.093.004.008-.143.086s.003.007-.15.07c-.154.064.002.009-.157.057s.001.009-.162.041c-.163.033.002.007-.164.024-.165.016 0 .007-.166.007h-1.676zm-20.925 3.386c.175 0 .001-.017.173.018.173.034.004-.017.167.05.162.068.008-.015.154.083.146.097.01-.013.135.111.124.124.013-.011.11.135.098.146.016-.008.083.154s.016-.006.05.166c.035.172.018-.002.018.174 0 .175.017.002-.017.174-.035.172.016.004-.051.166s.015.008-.082.154c-.098.146.013.01-.111.135-.125.124.01.014-.135.111-.146.098.007.015-.154.082-.163.067.006.017-.167.051-.172.034.002.017-.173.018-.176 0-.002.016-.174-.018s-.004.016-.166-.05c-.162-.068-.009.015-.154-.083-.146-.097-.011.013-.135-.111s-.014.01-.112-.135c-.097-.146-.014.008-.082-.154-.067-.162-.016.006-.05-.166-.035-.172-.018.001-.018-.174 0-.176-.017-.002.018-.174.034-.172-.017-.004.05-.166.068-.162-.015-.008.082-.154.098-.146-.012-.01.112-.135.124-.124-.011-.014.135-.111.145-.098-.008-.015.154-.082.162-.068-.006-.017.166-.051.172-.035-.002-.017.174-.018m2.46 1.739h5.446v3.406h-5.453c-.17-.471-.45-.905-.846-1.211-.345-.267-.764-.41-1.195-.48.435-.073.86-.22 1.207-.49.397-.312.676-.749.842-1.225m7.188 0h9.535v3.406h-9.535zm-9.648 3.386c.175 0 .001-.017.173.018.173.034.004-.017.167.05.162.068.008-.015.154.083.146.097.01-.013.135.111.124.124.013-.011.11.135.098.146.016-.008.083.154s.016-.006.05.166c.035.172.018-.002.018.174 0 .175.017.002-.017.174s.016.006-.051.168.015.008-.082.154.014.01-.11.135c-.123.124.01.014-.136.111-.146.098.007.015-.154.082-.162.067.006.016-.167.05-.171.035.002.018-.173.018-.176 0-.002.017-.174-.017-.172-.035-.004.016-.166-.05-.162-.068-.009.015-.154-.083-.146-.097-.013.013-.137-.111s-.012.01-.11-.135c-.097-.146-.015.008-.082-.154s-.016.004-.05-.168c-.035-.172-.018.001-.018-.174 0-.176-.017-.002.018-.174.034-.172-.017-.004.05-.166.068-.162-.015-.008.082-.154.098-.146-.012-.01.112-.135.124-.124-.011-.014.135-.111.145-.098-.008-.015.154-.082.162-.068-.006-.017.166-.051.172-.035-.002-.017.174-.018m2.453 1.764h5.453v3.383h-5.453c-.17-.471-.45-.905-.846-1.211-.345-.267-.764-.41-1.195-.48a2.6 2.6 0 0 0 2.04-1.692m7.195 0h9.535v3.383h-9.535zm11.277 0h1.678a1.69 1.69 0 0 1 1.692 1.691c0 .167.008.001-.008.166-.017.166.007.001-.026.164-.032.163.01.002-.039.16-.048.16.007.005-.056.159-.064.153.008.002-.07.148-.08.147.006.005-.087.143-.092.138.006.006-.1.135-.105.128.007.005-.11.123s.005.006-.124.111c-.128.105.006.005-.132.098-.139.092.004.007-.143.086s.003.006-.15.07c-.154.063.002.008-.157.057-.159.048.001.008-.162.04-.163.033.002.008-.164.024-.165.016 0 .008-.166.008h-1.676Zm-20.925 3.363c.175 0 .001-.017.173.018.173.034.004-.017.167.05.162.068.008-.015.154.083.146.097.01-.013.135.111.124.124.013-.011.11.135.098.146.016-.008.083.154s.016-.006.05.166c.035.172.018-.002.018.174 0 .175.017.002-.017.174-.035.172.016.004-.051.166s.015.008-.082.154c-.098.146.013.01-.111.135-.125.124.01.014-.135.111-.146.098.007.015-.154.082-.163.067.006.016-.167.05-.172.035.002.018-.173.018-.176 0-.002.017-.174-.017-.172-.035-.004.016-.166-.05-.162-.068-.009.015-.154-.083-.146-.097-.011.013-.135-.111s-.014.01-.112-.135c-.097-.146-.014.008-.082-.154-.067-.162-.016.006-.05-.166-.035-.172-.018.001-.018-.174 0-.176-.017-.002.018-.174.034-.172-.017-.004.05-.166.068-.162-.015-.008.082-.154.098-.146-.012-.011.112-.135s-.011-.014.135-.111c.145-.098-.008-.015.154-.082.162-.068-.006-.017.166-.051.172-.035-.002-.017.174-.018m9.648 1.762h9.535v3.842h-9.535zm0 5.586h9.535v.846c.098-.053.254-.132-.088.046-.904.473.677-.338-.234.12s.682-.327-.236.117c-.919.444.688-.318-.237.111-.925.43.692-.305-.24.11s.696-.295-.242.105.702-.284-.242.102.705-.274-.244.097c-.95.371.71-.262-.247.094-.955.356.713-.252-.248.09-.96.341.719-.239-.248.088-.966.326.722-.23-.25.082-.97.311.724-.218-.252.078-.975.296.729-.207-.252.074-.98.281.731-.195-.253.07-.985.266.732-.183-.256.067-.989.25.736-.173-.256.062-.993.235.74-.16-.256.059-.996.22.741-.15-.258.055-1 .203.745-.138-.258.05-1.002.189.746-.125-.26.047-1.004.173.749-.114-.26.043-1.007.157.751-.102-.259.04-1.01.14.75-.093-.262.032-1.012.126.753-.078-.261.032s.753-.069-.262.025.755-.055-.262.024c-1.017.078.754-.045-.263.017-1.018.063.755-.033-.264.014-1.019.046.758-.021-.262.01-1.02.03.756-.01-.264.005s.757.003-.263.002c-.54 0-1.07-.036-1.596-.085zm-1.742.232v2.254c.478.095.958.194-.063-.013-2.102-.427 1.968.417-.13-.026-2.1-.443 1.966.43-.13-.03s1.963.45-.128-.026 1.958.461-.13-.032c-2.087-.492 1.958.48-.126-.029-2.084-.51 1.95.492-.129-.033-2.08-.526 1.946.509-.129-.033s1.944.525-.127-.034c-2.07-.558 1.94.54-.127-.035-2.066-.575 1.935.556-.127-.035s1.93.57-.127-.037c-.413-.122-.001-.002-.025-.008.011-.076-.023.066.035-.156.07-.27-.034.078.057-.186.09-.263-.042.075.068-.181s-.044.071.084-.176-.05.07.096-.168c.146-.237-.056.064.107-.162s-.06.06.12-.152c.179-.214-.065.056.13-.143.195-.2-.068.05.14-.135.21-.184-.071.045.151-.123s-.076.04.158-.111c.234-.152-.076.034.168-.1.245-.134-.08.03.174-.086z" style="stroke-width:1"/></svg>