<?xml version="1.0" encoding="UTF-8" standalone="no"?>
<!-- Uploaded to: SVG Repo, www.svgrepo.com, Generator: SVG Repo Mixer Tools -->

<svg
   fill="#000000"
   height="60"
   width="100"
   version="1.1"
   id="Capa_1"
   viewBox="0 0 100 60"
   xml:space="preserve"
   sodipodi:docname="french_horn_1.svg"
   inkscape:version="1.3.2 (091e20e, 2023-11-25)"
   xmlns:inkscape="http://www.inkscape.org/namespaces/inkscape"
   xmlns:sodipodi="http://sodipodi.sourceforge.net/DTD/sodipodi-0.dtd"
   xmlns="http://www.w3.org/2000/svg"
   xmlns:svg="http://www.w3.org/2000/svg"><defs
   id="defs1" /><sodipodi:namedview
   id="namedview1"
   pagecolor="#ffffff"
   bordercolor="#000000"
   borderopacity="0.25"
   inkscape:showpageshadow="2"
   inkscape:pageopacity="0.0"
   inkscape:pagecheckerboard="0"
   inkscape:deskcolor="#d1d1d1"
   inkscape:zoom="2.36"
   inkscape:cx="34.957627"
   inkscape:cy="10.169492"
   inkscape:window-width="1536"
   inkscape:window-height="449"
   inkscape:window-x="0"
   inkscape:window-y="25"
   inkscape:window-maximized="0"
   inkscape:current-layer="Capa_1" />
<path
   d="M 84.538361,49.79562 C 82.081922,39.55989 77.180923,29.90935 70.365318,21.887279 l -0.575094,-0.676957 c -0.168089,-0.197935 -0.445316,-0.263567 -0.684234,-0.162446 -0.239066,0.101269 -0.384584,0.345977 -0.359638,0.604346 0.805697,8.30405 -4.227754,17.388405 -12.24047,22.091469 -0.574203,0.337068 -2.724311,1.359112 -4.924311,2.379373 3.950378,-3.864254 6.406668,-9.250067 6.406668,-15.19954 0,-11.729077 -9.54244,-21.271518 -21.271517,-21.271518 -7.120005,0 -13.433571,3.516793 -17.29649,8.903942 V 8.108324 L 20.540427,4.463386 C 20.595817,4.28327 20.562257,4.087563 20.450447,3.935956 20.338487,3.78435 20.161192,3.69496 19.972761,3.69496 H 17.6801 c -0.188431,0 -0.365726,0.08954 -0.477686,0.240996 -0.11196,0.151607 -0.14537,0.347314 -0.08998,0.52743 l 1.120194,3.644938 v 12.298528 c -1.773096,3.103699 -2.787419,6.693845 -2.787419,10.51682 0,0.319398 0.02821,1.082627 0.03089,1.132667 0.05598,1.06169 0.189471,2.103038 0.396463,3.118251 0.113445,0.556236 0.702795,3.780656 1.587635,6.236204 0.556088,1.542792 1.358518,3.32747 2.506925,5.121949 1.815119,2.836127 4.1201,5.097297 6.850796,6.720577 3.406021,2.02508 7.477565,3.05172 12.101188,3.05172 5.716496,0 13.196139,-0.88558 25.329697,-7.45365 5.840781,-3.160871 13.266523,-2.557267 19.379333,1.57501 0.203132,0.1372 0.46952,0.13587 0.671018,-0.004 0.20135,-0.13958 0.296383,-0.3886 0.239215,-0.62692 z M 23.13392,17.534795 c 3.425769,-2.519398 8.249554,-3.907019 13.582802,-3.907019 9.537392,0 17.296639,7.759246 17.296639,17.296638 0,6.071086 -3.145127,11.420667 -7.891401,14.507587 v -6.167009 h 1.953658 c 1.740726,0 3.156857,-1.41628 3.156857,-3.157006 0,-1.740726 -1.416131,-3.156857 -3.156857,-3.156857 H 46.12196 v -3.961663 h 1.953658 c 1.740726,0 3.156857,-1.416131 3.156857,-3.156858 0,-1.740726 -1.416131,-3.156857 -3.156857,-3.156857 H 46.12196 v -0.271882 c 0,-1.665591 -0.648151,-3.231101 -1.825216,-4.408167 -1.177066,-1.176917 -2.742427,-1.825216 -4.408019,-1.825216 -3.437054,0 -6.233234,2.79618 -6.233234,6.233235 v 0.271881 h -5.911312 c -0.272327,-1.000067 -1.186123,-1.738647 -2.271274,-1.738647 -1.299271,0 -2.356209,1.057087 -2.356209,2.356209 0,1.299123 1.057087,2.35621 2.356209,2.35621 1.102227,0 2.027457,-0.761893 2.28345,-1.785867 h 5.898988 v 3.938054 h -5.911312 c -0.272476,-1.000068 -1.186124,-1.738499 -2.271275,-1.738499 -1.29927,0 -2.356209,1.057087 -2.356209,2.356209 0,1.299123 1.057087,2.35621 2.356209,2.35621 1.102228,0 2.027457,-0.761893 2.283599,-1.785867 h 5.898988 v 3.961663 h -5.904927 c -0.264309,-1.012095 -1.183748,-1.762257 -2.277363,-1.762257 -1.29927,0 -2.356209,1.057087 -2.356209,2.35621 0,1.299271 1.057087,2.356209 2.356209,2.356209 1.093764,0 2.013054,-0.750162 2.277363,-1.762257 h 5.905224 v 3.938054 h -5.905224 c -0.264309,-1.012095 -1.183748,-1.762257 -2.277363,-1.762257 -1.29927,0 -2.356209,1.057087 -2.356209,2.356209 0,1.299123 1.057087,2.35621 2.356209,2.35621 1.093764,0 2.013054,-0.750162 2.277363,-1.762257 h 5.905224 v 4.475283 c -1.643615,0.325635 -2.93472,1.640497 -3.226499,3.295842 C 23.998567,44.51865 19.430181,38.258094 19.420084,30.948915 v -9.514079 c 0.980022,-1.498542 2.218709,-2.800486 3.713836,-3.900041 z m 21.800135,5.140956 H 34.843396 v -0.271882 c 0,-2.781925 2.263404,-5.045329 5.045329,-5.045329 1.348272,0 2.61547,0.524608 3.568021,1.477308 0.9527,0.952551 1.477309,2.219749 1.477309,3.568021 z m 0,1.187905 v 3.938053 H 34.843396 v -3.938053 z m 1.187905,0 h 1.953658 c 1.085745,0 1.968952,0.883356 1.968952,1.968952 0,1.085597 -0.883355,1.968953 -1.968952,1.968953 H 46.12196 Z m -1.187905,5.125958 v 3.961663 H 34.843396 v -3.961663 z m 0,5.149568 v 3.938054 H 34.843396 v -3.938054 z m 1.187905,0 h 1.953658 c 1.085745,0 1.968952,0.883356 1.968952,1.969101 0,1.085745 -0.883355,1.968953 -1.968952,1.968953 H 46.12196 Z m -1.187905,5.125959 v 4.39703 H 34.843396 v -4.39703 z M 33.65564,47.948132 c -0.710813,-0.127403 -1.406628,-0.298461 -2.084625,-0.510205 0.126215,-1.184045 0.968885,-2.15486 2.084625,-2.474258 z m 1.187905,-3.098056 h 10.090658 v 1.289619 c -2.445748,1.325999 -5.245194,2.079725 -8.217332,2.079725 -0.632857,0 -1.257695,-0.0352 -1.873178,-0.101715 V 44.850076 Z M 26.641358,23.293461 c 0,0.644142 -0.524163,1.168305 -1.168305,1.168305 -0.644141,0 -1.168304,-0.524163 -1.168304,-1.168305 0,-0.644141 0.524163,-1.168304 1.168304,-1.168304 0.644142,0 1.168305,0.524015 1.168305,1.168304 z m 0,5.125959 c 0,0.644141 -0.524163,1.168304 -1.168305,1.168304 -0.644141,0 -1.168304,-0.524014 -1.168304,-1.168304 0,-0.64429 0.524163,-1.168305 1.168304,-1.168305 0.644142,0 1.168305,0.524015 1.168305,1.168305 z m 0,5.12581 c 0,0.644141 -0.524163,1.168304 -1.168305,1.168304 -0.644141,0 -1.168304,-0.524163 -1.168304,-1.168304 0,-0.644142 0.524163,-1.168305 1.168304,-1.168305 0.644142,0 1.168305,0.524163 1.168305,1.168305 z m 0,5.125958 c 0,0.644142 -0.524163,1.168305 -1.168305,1.168305 -0.644141,0 -1.168304,-0.524163 -1.168304,-1.168305 0,-0.644141 0.524163,-1.168304 1.168304,-1.168304 0.644142,0 1.168305,0.524163 1.168305,1.168304 z M 19.168694,4.883013 18.82628,5.997268 18.483866,4.883013 Z m -2.513162,26.975392 c 0.0053,-3.117954 0.532924,-5.866617 1.576647,-8.2304 v 7.296558 c 0,10.191482 8.29217,18.482757 18.484543,18.482757 10.192373,0 18.484544,-8.291275 18.484544,-18.482757 0,-10.192373 -8.292171,-18.484544 -18.484544,-18.484544 -5.127443,0 -9.823231,1.239579 -13.366009,3.507587 3.553023,-3.174528 8.237675,-5.107546 13.366009,-5.107546 11.074244,0 20.083612,9.009516 20.083612,20.083612 0,11.074244 -9.009516,20.083608 -20.083612,20.083608 -10.760785,0 -19.571031,-8.507029 -20.06119,-19.148875 z M 63.683353,47.806623 C 51.782772,54.24863 44.48666,55.11714 38.919098,55.11714 c -4.396288,0 -8.255643,-0.96592 -11.470707,-2.87102 -2.56825,-1.52185 -4.740632,-3.64702 -6.456709,-6.316684 -0.472786,-0.735462 -0.884098,-1.472705 -1.242845,-2.192873 3.886973,5.134717 10.04626,8.458627 16.968034,8.458627 3.588215,0 6.971517,-0.89331 9.939794,-2.46876 0.205953,-0.10929 1.021302,-0.51659 1.265268,-0.62603 2.479157,-1.11084 8.118885,-3.705967 9.185623,-4.332141 4.040956,-2.371949 7.535624,-5.949919 9.839714,-10.074771 2.050621,-3.670774 3.099096,-7.565766 3.073853,-11.367953 6.09024,7.366199 10.561069,16.074878 13.001619,25.315735 -6.222246,-3.644339 -13.509597,-3.989426 -19.339389,-0.834647 z"
   id="path1"
   style="stroke-width:1" />
</svg>
