<?xml version="1.0" encoding="UTF-8" standalone="no"?>
<svg
   xml:space="preserve"
   width="100"
   height="60"
   version="1.1"
   id="svg1"
   sodipodi:docname="french_horn_1.svg"
   inkscape:version="1.3.2 (091e20e, 2023-11-25)"
   xmlns:inkscape="http://www.inkscape.org/namespaces/inkscape"
   xmlns:sodipodi="http://sodipodi.sourceforge.net/DTD/sodipodi-0.dtd"
   xmlns="http://www.w3.org/2000/svg"
   xmlns:svg="http://www.w3.org/2000/svg"><defs
     id="defs1" /><sodipodi:namedview
     id="namedview1"
     pagecolor="#ffffff"
     bordercolor="#000000"
     borderopacity="0.25"
     inkscape:showpageshadow="2"
     inkscape:pageopacity="0.0"
     inkscape:pagecheckerboard="0"
     inkscape:deskcolor="#d1d1d1"
     inkscape:current-layer="svg1" /><path
     id="path1"
     style="stroke-width:1"
     sodipodi:type="inkscape:offset"
     inkscape:radius="0.27705768"
     inkscape:original="M 17.679688 3.6953125 A 0.594 0.594 0 0 0 17.111328 4.4628906 L 18.232422 8.1074219 L 18.232422 20.40625 A 21.14 21.14 0 0 0 15.445312 30.923828 C 15.445312 31.243828 15.473562 32.006641 15.476562 32.056641 C 15.533229 33.119307 15.665047 34.159115 15.873047 35.175781 C 15.986047 35.731781 16.575937 38.954156 17.460938 41.410156 A 25.7 25.7 0 0 0 19.966797 46.533203 C 21.781797 49.369203 24.086406 51.630906 26.816406 53.253906 C 30.223406 55.278906 34.295922 56.304688 38.919922 56.304688 C 44.636922 56.304688 52.114047 55.419563 64.248047 48.851562 C 70.088047 45.691562 77.514906 46.293781 83.628906 50.425781 A 0.594 0.594 0 0 0 84.539062 49.796875 L 84.537109 49.796875 A 67.7 67.7 0 0 0 70.365234 21.886719 L 69.789062 21.210938 A 0.594 0.594 0 0 0 68.746094 21.652344 C 69.552094 29.956344 64.518859 39.041141 56.505859 43.744141 C 55.931859 44.081141 53.782031 45.102047 51.582031 46.123047 C 55.532031 42.258047 57.988281 36.872828 57.988281 30.923828 C 57.988281 19.193828 48.445797 9.6523437 36.716797 9.6523438 C 29.596797 9.6523438 23.282922 13.169641 19.419922 18.556641 L 19.419922 8.1074219 L 20.539062 4.4628906 A 0.594 0.594 0 0 0 19.972656 3.6953125 L 17.679688 3.6953125 z M 18.484375 4.8828125 L 19.169922 4.8828125 L 18.826172 5.9960938 L 18.484375 4.8828125 z M 36.716797 10.839844 C 47.790797 10.839844 56.798828 19.849828 56.798828 30.923828 C 56.798828 41.997828 47.789797 51.007812 36.716797 51.007812 C 25.955797 51.007812 17.144297 42.499422 16.654297 31.857422 L 16.65625 31.857422 C 16.66125 28.739422 17.188422 25.992906 18.232422 23.628906 L 18.232422 30.925781 C 18.232422 41.116781 26.52575 49.40625 36.71875 49.40625 C 46.91175 49.40625 55.199219 41.116781 55.199219 30.925781 C 55.199219 20.732781 46.908797 12.439453 36.716797 12.439453 C 31.588797 12.439453 26.891609 13.679266 23.349609 15.947266 A 20 20 0 0 1 36.716797 10.839844 z M 36.716797 13.628906 C 46.253797 13.628906 54.013672 21.386828 54.013672 30.923828 C 54.013672 36.995828 50.867094 42.344641 46.121094 45.431641 L 46.121094 39.265625 L 48.076172 39.265625 A 3.16 3.16 0 0 0 51.232422 36.107422 A 3.16 3.16 0 0 0 48.076172 32.951172 L 46.121094 32.951172 L 46.121094 28.990234 L 48.076172 28.990234 A 3.16 3.16 0 0 0 51.232422 25.833984 A 3.16 3.16 0 0 0 48.076172 22.677734 L 46.121094 22.677734 L 46.121094 22.404297 A 6.2 6.2 0 0 0 44.296875 17.996094 A 6.2 6.2 0 0 0 39.888672 16.171875 A 6.24 6.24 0 0 0 33.654297 22.404297 L 33.654297 22.677734 L 27.744141 22.677734 A 2.36 2.36 0 0 0 25.472656 20.9375 A 2.36 2.36 0 0 0 23.117188 23.294922 C 23.117188 24.594922 24.173656 25.650391 25.472656 25.650391 A 2.36 2.36 0 0 0 27.755859 23.865234 L 33.65625 23.865234 L 33.65625 27.802734 L 27.744141 27.802734 A 2.36 2.36 0 0 0 25.472656 26.064453 A 2.36 2.36 0 0 0 23.117188 28.419922 C 23.117188 29.719922 24.173656 30.775391 25.472656 30.775391 A 2.36 2.36 0 0 0 27.755859 28.990234 L 33.65625 28.990234 L 33.65625 32.951172 L 27.75 32.951172 A 2.36 2.36 0 0 0 25.472656 31.189453 A 2.36 2.36 0 0 0 23.117188 33.546875 C 23.117188 34.846875 24.173656 35.902344 25.472656 35.902344 C 26.566656 35.902344 27.486 35.152625 27.75 34.140625 L 33.65625 34.140625 L 33.65625 38.078125 L 27.75 38.078125 A 2.36 2.36 0 0 0 25.472656 36.316406 A 2.36 2.36 0 0 0 23.117188 38.671875 C 23.117188 39.971875 24.173656 41.027344 25.472656 41.027344 C 26.566656 41.027344 27.486 40.277625 27.75 39.265625 L 33.65625 39.265625 L 33.65625 43.740234 A 4.095 4.095 0 0 0 30.429688 47.037109 C 24.000688 44.520109 19.429922 38.257219 19.419922 30.949219 L 19.419922 21.435547 C 20.399922 19.935547 21.638766 18.635156 23.134766 17.535156 C 26.560766 15.015156 31.383797 13.628906 36.716797 13.628906 z M 39.888672 17.359375 C 41.236672 17.359375 42.504031 17.884891 43.457031 18.837891 A 5.01 5.01 0 0 1 44.933594 22.404297 L 44.933594 22.675781 L 34.84375 22.675781 L 34.84375 22.404297 A 5.05 5.05 0 0 1 39.888672 17.359375 z M 25.472656 22.125 A 1.17 1.17 0 0 1 26.640625 23.292969 A 1.17 1.17 0 0 1 25.472656 24.462891 A 1.17 1.17 0 0 1 24.304688 23.292969 A 1.17 1.17 0 0 1 25.472656 22.125 z M 70.019531 23.326172 A 66.6 66.6 0 0 1 83.023438 48.640625 C 76.800438 44.996625 69.513594 44.650641 63.683594 47.806641 L 63.681641 47.806641 C 51.781641 54.248641 44.485969 55.117188 38.917969 55.117188 C 34.521969 55.117188 30.661266 54.150094 27.447266 52.246094 C 24.878266 50.723094 22.706234 48.599687 20.990234 45.929688 A 23 23 0 0 1 19.748047 43.736328 C 23.635047 48.870328 29.794797 52.195312 36.716797 52.195312 C 40.304797 52.195312 43.68725 51.302563 46.65625 49.726562 C 46.86225 49.617562 47.677875 49.209609 47.921875 49.099609 C 50.401875 47.989609 56.040422 45.393578 57.107422 44.767578 C 61.147422 42.395578 64.642266 38.818359 66.947266 34.693359 C 68.997266 31.023359 70.044531 27.128172 70.019531 23.326172 z M 34.84375 23.865234 L 44.933594 23.865234 L 44.933594 27.802734 L 34.84375 27.802734 L 34.84375 23.865234 z M 46.121094 23.865234 L 48.076172 23.865234 C 49.161172 23.865234 50.044922 24.747984 50.044922 25.833984 A 1.97 1.97 0 0 1 48.074219 27.802734 L 46.121094 27.802734 L 46.121094 23.865234 z M 25.472656 27.251953 A 1.17 1.17 0 0 1 26.640625 28.419922 A 1.17 1.17 0 0 1 25.472656 29.587891 A 1.17 1.17 0 0 1 24.304688 28.419922 A 1.17 1.17 0 0 1 25.472656 27.251953 z M 34.84375 28.990234 L 44.933594 28.990234 L 44.933594 32.951172 L 34.84375 32.951172 L 34.84375 28.990234 z M 25.472656 32.376953 A 1.17 1.17 0 0 1 26.640625 33.544922 A 1.17 1.17 0 0 1 25.472656 34.714844 A 1.17 1.17 0 0 1 24.304688 33.544922 A 1.17 1.17 0 0 1 25.472656 32.376953 z M 34.84375 34.140625 L 44.933594 34.140625 L 44.933594 38.078125 L 34.84375 38.078125 L 34.84375 34.140625 z M 46.121094 34.140625 L 48.076172 34.140625 C 49.161172 34.140625 50.044922 35.024375 50.044922 36.109375 A 1.97 1.97 0 0 1 48.074219 38.078125 L 46.121094 38.078125 L 46.121094 34.140625 z M 25.472656 37.503906 A 1.17 1.17 0 0 1 26.640625 38.671875 A 1.17 1.17 0 0 1 25.472656 39.839844 A 1.17 1.17 0 0 1 24.304688 38.671875 A 1.17 1.17 0 0 1 25.472656 37.503906 z M 34.84375 39.265625 L 44.933594 39.265625 L 44.933594 43.662109 L 34.84375 43.662109 L 34.84375 39.265625 z M 34.84375 44.851562 L 44.933594 44.851562 L 44.933594 46.140625 A 17.2 17.2 0 0 1 36.716797 48.220703 C 36.083464 48.21937 35.459083 48.185807 34.84375 48.119141 L 34.84375 44.851562 z M 33.65625 44.964844 L 33.65625 47.949219 A 17 17 0 0 1 31.570312 47.439453 A 2.9 2.9 0 0 1 33.65625 44.964844 z "
     d="m 17.679687,3.4179688 c -0.271163,-1.312e-4 -0.539807,0.1355906 -0.701171,0.3535156 -0.161365,0.217925 -0.212052,0.5121565 -0.132813,0.7714843 a 0.27708538,0.27708538 0 0 0 0,0.00195 l 1.109375,3.6035156 V 20.345703 c -1.817272,3.209035 -2.791658,6.890193 -2.787109,10.578125 0,0.168153 0.0082,0.437712 0.01563,0.675781 0.0075,0.23807 0.01219,0.415473 0.01563,0.472657 0.05737,1.075882 0.191516,2.127714 0.402344,3.158203 0.108868,0.535673 0.701718,3.781666 1.599609,6.273437 h -0.002 c 0.648895,1.812843 1.500482,3.552634 2.533203,5.177735 a 0.27708538,0.27708538 0 0 0 0.002,0 c 1.836347,2.869354 4.173097,5.164772 6.941406,6.810546 3.455029,2.053547 7.579171,3.089844 12.244141,3.089844 5.745591,0 13.294211,-0.900612 25.460937,-7.486328 5.740569,-3.106198 13.055651,-2.520157 19.09375,1.560547 0.288377,0.194392 0.696306,0.191844 0.982422,-0.0059 0.286117,-0.197703 0.431401,-0.57948 0.351563,-0.917969 a 0.27708538,0.27708538 0 0 0 -0.002,0 c -1.48e-4,-6.11e-4 1.47e-4,-0.0013 0,-0.002 C 82.328868,39.453216 77.411977,29.771339 70.576172,21.707031 L 70,21.03125 c -0.238434,-0.279003 -0.66397,-0.37937 -1.001953,-0.236328 -0.337983,0.143042 -0.561635,0.517412 -0.527344,0.882812 a 0.27708538,0.27708538 0 0 0 0,0.002 c 0.793408,8.174263 -4.183126,17.176381 -12.105469,21.826172 -0.383164,0.224959 -2.069704,1.015226 -3.582031,1.728516 3.397365,-3.810576 5.482422,-8.817173 5.482422,-14.310547 0,-11.880248 -9.669583,-21.5488281 -21.548828,-21.548828 -6.924706,0 -13.074907,3.305527 -17.019531,8.398437 V 8.1484375 l 1.107421,-3.6035156 a 0.27708538,0.27708538 0 0 0 0,-0.00195 C 20.883788,4.2840972 20.832597,3.9892911 20.671875,3.7714844 20.511153,3.5536777 20.243342,3.418728 19.972656,3.4179688 Z m 19.03711,7.6992192 c 10.92371,0 19.804687,8.882898 19.804687,19.80664 0,10.923726 -8.881991,19.806641 -19.804687,19.806641 -10.610261,0 -19.292882,-8.383226 -19.783203,-18.873047 0.004,-2.480558 0.35671,-4.703669 1.021484,-6.691406 v 5.759765 c 0,10.341301 8.420471,18.757813 18.763672,18.757813 10.343201,0 18.757812,-8.416618 18.757812,-18.757813 0,-10.343218 -8.417479,-18.763672 -18.759765,-18.763672 -3.854025,0 -7.468969,0.697919 -10.550781,2.003907 -0.09048,0.0529 -0.401362,0.241317 0.259765,-0.16211 0.97359,-0.594094 -0.600199,0.341211 0.386719,-0.230468 0.986918,-0.57168 -0.605199,0.328262 0.394531,-0.220704 0.999731,-0.548965 -0.615536,0.313074 0.396485,-0.21289 1.01202,-0.525965 -0.621438,0.299564 0.402343,-0.203125 1.023782,-0.502689 -0.626804,0.283837 0.408203,-0.195313 1.035008,-0.47915 -0.635535,0.271767 0.410157,-0.183593 1.045691,-0.455361 -0.639814,0.255552 0.416015,-0.175782 1.05583,-0.431333 -0.645493,0.241065 0.419922,-0.166015 1.065416,-0.407081 -0.652569,0.226365 0.421875,-0.15625 1.074444,-0.382616 -0.655177,0.211465 0.427735,-0.146485 1.082911,-0.357949 -0.661125,0.196378 0.429687,-0.136718 1.090812,-0.333097 -0.666502,0.181116 0.431641,-0.126954 1.098143,-0.308069 -0.669353,0.165695 0.435547,-0.117187 1.104899,-0.282882 -0.671625,0.152077 0.439453,-0.105469 1.111078,-0.257546 -0.677223,0.134419 0.439453,-0.09766 1.116676,-0.232075 -0.678331,0.120546 0.443359,-0.08594 1.121691,-0.206483 -0.682758,0.104612 0.44336,-0.07617 1.126118,-0.180784 -0.682692,0.08858 0.447265,-0.06641 1.129957,-0.154989 -0.685939,0.07247 0.447266,-0.05664 1.133205,-0.129114 -0.686642,0.0563 0.449219,-0.04687 1.135861,-0.103171 -0.688705,0.04202 0.449218,-0.03516 1.137923,-0.07717 -0.690171,0.02575 0.449219,-0.02539 1.13939,-0.05114 -0.689089,0.0094 0.451172,-0.01563 1.140261,-0.02507 -0.689365,-0.0049 0.451172,-0.0039 z m 0,2.789062 c 9.386741,0 17.019531,7.630875 17.019531,17.017578 0,5.785491 -2.915482,10.882244 -7.337891,13.958984 v -5.339843 h 1.677735 c 0.898813,-0.0011 1.792374,-0.372059 2.427734,-1.007813 0.635361,-0.635754 1.005349,-1.528921 1.00586,-2.427734 -0.0011,-0.898459 -0.372506,-1.790474 -1.007813,-2.425781 -0.635307,-0.635307 -1.527322,-1.006747 -2.425781,-1.007813 h -1.677735 v -3.40625 h 1.677735 c 0.898459,-0.0011 1.790474,-0.372505 2.425781,-1.007812 0.635307,-0.635307 1.006747,-1.527322 1.007813,-2.425782 -0.0011,-0.898459 -0.372506,-1.790474 -1.007813,-2.425781 -0.635307,-0.635307 -1.527322,-1.006747 -2.425781,-1.007812 h -1.677735 c 0.0033,-1.703976 -0.699066,-3.396985 -1.90625,-4.59961 -1.203541,-1.208103 -2.898227,-1.910611 -4.603515,-1.90625 -1.703862,0.0015 -3.396561,0.703579 -4.601563,1.908203 -1.204084,1.203708 -1.907024,2.895109 -1.910156,4.597657 h -5.458984 c -0.171991,-0.46618 -0.453062,-0.893006 -0.847657,-1.195313 -0.454484,-0.34819 -1.025126,-0.543543 -1.597656,-0.544922 -0.689055,0.0013 -1.374294,0.285999 -1.861328,0.773438 -0.487034,0.487438 -0.770733,1.172272 -0.771484,1.861328 0,1.32762 1.007506,2.385601 2.287109,2.5625 -0.564305,0.07961 -1.110369,0.299822 -1.513672,0.703125 -0.486979,0.48698 -0.772116,1.170683 -0.773437,1.859375 0,1.32762 1.007506,2.385601 2.287109,2.5625 -0.564596,0.0797 -1.112277,0.299442 -1.515625,0.703125 -0.487034,0.487438 -0.770733,1.172272 -0.771484,1.861328 0,1.32762 1.007506,2.385601 2.287109,2.5625 -0.564305,0.07961 -1.110369,0.299822 -1.513672,0.703125 -0.486979,0.48698 -0.772116,1.170683 -0.773437,1.859375 0,1.450102 1.183736,2.632812 2.632812,2.632812 1.140173,0 2.089172,-0.743037 2.453125,-1.761718 h 5.453125 v 4.005859 c -0.767297,0.198669 -1.488456,0.581841 -2.042969,1.148438 -0.527402,0.538895 -0.873552,1.228295 -1.066406,1.957031 C 24.087044,44.109876 19.706967,38.038865 19.697266,30.949219 V 21.53125 c 0.955267,-1.446325 2.15092,-2.706789 3.601562,-3.773438 3.365086,-2.475194 8.132986,-3.851562 13.417969,-3.851562 z m 3.171875,3.730469 c 1.275992,0 2.470882,0.494319 3.373047,1.396484 a 0.27708538,0.27708538 0 0 0 0,0.002 c 0.383927,0.381943 -0.202477,-0.232478 0.162109,0.167969 0.364586,0.400447 -0.19201,-0.240239 0.152344,0.177734 0.344354,0.417973 -0.178749,-0.250883 0.144531,0.183594 0.32328,0.434478 -0.166651,-0.258514 0.134766,0.191406 0.301417,0.449921 -0.153818,-0.266999 0.125,0.197266 0.278817,0.464265 -0.140303,-0.274349 0.115234,0.203125 0.255537,0.477474 -0.126163,-0.280533 0.105469,0.208984 0.231632,0.489518 -0.111458,-0.285521 0.0957,0.214844 0.207161,0.500365 -0.0982,-0.293193 0.08398,0.216797 0.182184,0.50999 -0.0845,-0.295713 0.07227,0.222656 0.156762,0.518369 -0.06846,-0.298919 0.0625,0.226563 0.130957,0.525482 -0.05405,-0.304748 0.05078,0.226562 0.104832,0.531311 -0.03744,-0.305373 0.04102,0.230469 0.07845,0.535842 -0.02454,-0.306642 0.02734,0.232422 0.05188,0.539063 -0.0076,-0.306594 0.01758,0.234375 0.02455,0.527448 0.0062,-0.233441 0.0039,0.228515 h -9.535156 c -1.12e-4,-0.440035 -0.02234,-2.94e-4 0.02344,-0.460937 0.04636,-0.466484 -0.02344,-0.0032 0.06836,-0.462891 0.0918,-0.459705 -0.02113,-0.0046 0.115234,-0.453125 0.136362,-0.44851 -0.02336,-0.0084 0.15625,-0.441406 0.179613,-0.433008 -0.01997,-0.0085 0.201172,-0.421875 0.221138,-0.413345 -0.02031,-0.01263 0.240234,-0.402344 0.260539,-0.389712 -0.01814,-0.01266 0.279297,-0.375 0.297438,-0.362336 -0.01703,-0.01422 0.314453,-0.345703 0.331479,-0.331479 -0.01663,-0.01702 0.345703,-0.314453 0.362336,-0.297438 -0.01471,-0.01876 0.375,-0.279297 0.389713,-0.260539 -0.011,-0.0191 0.402344,-0.240234 0.413346,-0.221138 -0.01113,-0.02156 0.421875,-0.201172 0.433008,-0.179613 -0.0071,-0.01989 0.441406,-0.15625 0.448511,-0.136362 -0.0066,-0.02343 0.453125,-0.115234 0.459706,-0.0918 -0.0036,-0.022 0.462891,-0.06836 0.466484,-0.04636 -0.002,-0.02297 0.466797,-0.02344 z m -14.416016,4.765625 c 0.175458,3.04e-4 0.0018,-0.01688 0.173828,0.01758 0.172042,0.03445 0.004,-0.0165 0.166016,0.05078 0.162043,0.06728 0.0085,-0.01551 0.154297,0.08203 0.145845,0.09754 0.0107,-0.01274 0.134765,0.111328 0.124068,0.124068 0.01379,-0.01108 0.111329,0.134766 0.09754,0.145846 0.01475,-0.0077 0.08203,0.154297 0.06729,0.162043 0.01633,-0.006 0.05078,0.166016 0.03445,0.172041 0.01727,-0.0016 0.01758,0.173828 -1.1e-5,0.175395 0.01661,0.0018 -0.01758,0.173828 -0.03419,0.172031 0.01628,0.0059 -0.05078,0.167969 -0.06706,0.16207 0.01532,0.0084 -0.08203,0.154296 -0.09736,0.145896 0.01454,0.01064 -0.109375,0.134766 -0.12392,0.124127 0.009,0.01373 -0.136719,0.111328 -0.145733,0.0976 0.0077,0.0147 -0.154297,0.08203 -0.161958,0.06733 0.006,0.0163 -0.166016,0.05078 -0.171973,0.03448 0.0016,0.01727 -0.173828,0.01758 -0.175395,-3.05e-4 -0.0019,0.0169 -0.173828,-0.01758 -0.171973,-0.03448 -0.0041,0.01655 -0.166016,-0.05078 -0.161958,-0.06733 -0.0086,0.01557 -0.154296,-0.08203 -0.145733,-0.0976 -0.0128,0.0128 -0.136719,-0.111328 -0.12392,-0.124127 -0.01202,0.01113 -0.109375,-0.134766 -0.09736,-0.145895 -0.01497,0.0078 -0.08203,-0.154296 -0.06706,-0.162071 -0.01659,0.0041 -0.05078,-0.167969 -0.03419,-0.172031 -0.01757,0.0016 -0.01758,-0.173828 3.05e-4,-0.175458 -0.01688,-0.0018 0.01758,-0.173828 0.03445,-0.172042 -0.0165,-0.004 0.05078,-0.166016 0.06729,-0.162044 -0.01551,-0.0085 0.08203,-0.154297 0.09754,-0.145845 -0.01274,-0.0107 0.111328,-0.134766 0.124067,-0.124067 -0.01108,-0.01379 0.134766,-0.111328 0.145845,-0.09754 -0.0077,-0.01475 0.154296,-0.08203 0.162044,-0.06729 -0.006,-0.01633 0.166016,-0.05078 0.172042,-0.03445 -0.0016,-0.01727 0.173828,-0.01758 z m 44.779297,1.646484 c -0.188867,-0.232935 -0.413702,-0.514871 0.117188,0.146484 1.265541,1.576547 -0.977561,-1.23737 0.277343,0.347657 1.254905,1.585026 -0.966867,-1.241872 0.277344,0.351562 1.244211,1.593435 -0.960024,-1.248254 0.273438,0.353516 1.233461,1.60177 -0.951172,-1.256518 0.271484,0.353515 1.222656,1.610034 -0.944217,-1.262754 0.267578,0.355469 1.211795,1.618224 -0.935254,-1.266965 0.265625,0.359375 1.200879,1.626341 -0.924284,-1.275009 0.265625,0.359375 1.189909,1.634384 -0.919119,-1.281025 0.259766,0.361328 1.178884,1.642354 -0.908042,-1.286967 0.259765,0.363282 1.167808,1.650248 -0.900817,-1.292835 0.25586,0.365234 1.156677,1.658069 -0.891588,-1.298627 0.253906,0.367187 1.145494,1.665815 -0.882307,-1.304343 0.251953,0.369141 1.13426,1.673484 -0.872974,-1.311937 0.25,0.369141 1.122974,1.681078 -0.865543,-1.31555 0.246094,0.373047 1.111637,1.688596 -0.85611,-1.322991 0.24414,0.373046 1.100251,1.696038 -0.846625,-1.328402 0.242188,0.375 1.088813,1.703403 -0.839046,-1.333737 0.238281,0.376954 1.077327,1.71069 -0.829464,-1.338994 0.236328,0.378906 1.065792,1.7179 -0.819833,-1.346127 0.234375,0.378906 1.054209,1.725033 -0.810156,-1.349274 0.232422,0.382813 1.042578,1.732087 -0.802384,-1.356251 0.228516,0.382812 1.0309,1.739063 -0.792613,-1.361194 0.226562,0.384766 1.019175,1.74596 -0.784747,-1.36606 0.222657,0.386718 1.007404,1.752779 -0.774885,-1.372798 0.220703,0.386719 0.995587,1.759517 -0.764976,-1.377504 0.21875,0.388672 0.983725,1.766176 -0.755023,-1.38213 0.216797,0.390625 0.971819,1.772755 -0.746979,-1.386676 0.21289,0.392578 0.95987,1.779254 -0.736938,-1.393094 0.210938,0.392578 0.947875,1.785673 -0.728808,-1.395525 0.207031,0.396485 0.935839,1.79201 -0.718682,-1.401782 0.205078,0.396484 0.92376,1.798266 -0.708514,-1.407957 0.203125,0.396484 0.91164,1.804442 -0.700259,-1.412096 0.199219,0.398438 0.899477,1.810534 -0.690009,-1.416155 0.197265,0.400391 0.887275,1.816545 -0.679719,-1.420131 0.195313,0.402343 0.875032,1.822475 -0.671343,-1.425977 0.191406,0.402344 0.86275,1.828321 -0.660974,-1.429788 0.189453,0.404297 0.850428,1.834085 -0.65252,-1.433515 0.185547,0.40625 0.838068,1.839765 -0.642076,-1.439113 0.183594,0.40625 0.82567,1.845363 -0.631594,-1.442674 0.181641,0.408203 0.813234,1.850877 -0.623028,-1.44615 0.177734,0.410156 0.800762,1.856307 -0.612472,-1.451496 0.175781,0.410157 0.788254,1.861652 -0.603834,-1.456759 0.171875,0.410156 0.77571,1.866914 -0.593208,-1.458029 0.169922,0.414062 0.76313,1.872092 -0.582547,-1.465074 0.167969,0.41211 0.750516,1.877184 -0.573806,-1.466176 0.164062,0.416015 0.737869,1.882192 -0.563077,-1.471098 0.16211,0.416016 0.725187,1.887114 -0.55427,-1.475935 0.158203,0.416016 0.712473,1.89195 -0.543477,-1.47678 0.15625,0.419921 0.699727,1.896702 -0.534605,-1.483398 0.152344,0.417969 0.686948,1.901367 -0.523749,-1.486024 0.15039,0.419922 0.67414,1.905946 -0.514815,-1.488564 0.146485,0.421875 0.6613,1.910439 -0.503899,-1.49297 0.144531,0.421875 0.64843,1.914845 -0.492953,-1.495337 0.142578,0.423828 0.635531,1.919165 -0.483932,-1.499569 0.138672,0.423828 0.622604,1.923398 -0.472929,-1.501762 0.136719,0.425782 0.609647,1.927543 -0.463852,-1.505821 0.132812,0.425781 0.596664,1.931602 -0.452794,-1.509792 0.130859,0.425781 0.583654,1.935573 -0.443663,-1.511722 0.126954,0.427734 0.570617,1.939457 -0.432555,-1.513564 0.125,0.429688 0.557554,1.943252 -0.423373,-1.519225 0.121093,0.427734 0.330138,1.18054 0.179688,0.647597 0.07227,0.261719 C 76.422614,44.724842 69.299397,44.45075 63.552734,47.560547 a 0.27708538,0.27708538 0 0 0 -0.002,0.002 0.27708538,0.27708538 0 0 0 -0.002,0 c -11.867465,6.424388 -19.091677,7.277344 -24.630859,7.277344 -4.355362,0 -8.164394,-0.956654 -11.330078,-2.832032 -2.433908,-1.442911 -4.495728,-3.445806 -6.158204,-5.941406 3.907561,3.944053 9.310533,6.40625 15.28711,6.40625 3.633324,0 7.061038,-0.905927 10.068359,-2.501953 0.191378,-0.101263 1.029087,-0.519549 1.25,-0.619141 1.242047,-0.555916 3.27231,-1.480885 5.126953,-2.347656 1.854644,-0.86677 3.512893,-1.661846 4.085938,-1.998047 4.084716,-2.398254 7.611509,-6.008178 9.941406,-10.177734 1.941849,-3.476383 2.95933,-7.15659 3.0625,-10.779297 z m -42.318359,0.09375 h 5.445312 v 3.382813 h -5.460937 c -0.172286,-0.465814 -0.45309,-0.893366 -0.847657,-1.195313 -0.342928,-0.26243 -0.757714,-0.402147 -1.183593,-0.472656 0.434445,-0.07218 0.858012,-0.218875 1.205078,-0.490235 0.397547,-0.310828 0.675911,-0.748235 0.841797,-1.224609 z m 7.1875,0 h 9.535156 v 3.382813 h -9.535156 z m 11.277343,0 h 1.677735 c 0.934724,0 1.691406,0.755714 1.691406,1.691406 -1.05e-4,0.166214 0.0086,6.13e-4 -0.0078,0.166016 -0.01639,0.165403 0.0071,0.0011 -0.02539,0.164062 -0.03252,0.163001 0.0093,0.0011 -0.03906,0.160157 -0.04834,0.159028 0.0071,0.0047 -0.05664,0.158203 -0.06369,0.153525 0.0081,0.0019 -0.07031,0.148437 -0.07843,0.146545 0.0065,0.0044 -0.08594,0.142578 -0.09242,0.138153 0.0059,0.0063 -0.09961,0.134766 -0.10551,0.128431 0.0063,0.0056 -0.111328,0.123047 -0.117589,0.117473 0.0055,0.0059 -0.123047,0.111328 -0.128535,0.105384 0.0054,0.0054 -0.132812,0.09766 -0.138244,0.09228 0.004,0.0076 -0.142578,0.08594 -0.146622,0.07829 0.0032,0.0068 -0.150391,0.07031 -0.153588,0.06354 0.0028,0.0085 -0.15625,0.05664 -0.159076,0.04818 9.24e-4,0.0087 -0.162109,0.04102 -0.163033,0.03236 0.0014,0.0072 -0.164063,0.02344 -0.165419,0.01623 1.99e-4,0.0079 -0.166015,0.0078 h -1.675782 z m -20.925781,3.386719 c 0.175458,3.04e-4 0.0018,-0.01688 0.173828,0.01758 0.172042,0.03445 0.004,-0.0165 0.166016,0.05078 0.162043,0.06729 0.0085,-0.01551 0.154297,0.08203 0.145845,0.09754 0.0107,-0.01274 0.134765,0.111329 0.124068,0.124067 0.01379,-0.01108 0.111329,0.134765 0.09754,0.145846 0.01475,-0.0077 0.08203,0.154297 0.06729,0.162044 0.01633,-0.006 0.05078,0.166016 0.03445,0.172041 0.01727,-0.0016 0.01758,0.173828 -3.04e-4,0.175457 0.01688,0.0018 -0.01758,0.173828 -0.03445,0.172042 0.0165,0.004 -0.05078,0.166016 -0.06728,0.162043 0.01551,0.0085 -0.08203,0.154296 -0.09754,0.145846 0.01274,0.0107 -0.111329,0.134766 -0.124067,0.124067 0.01108,0.01379 -0.134765,0.111328 -0.145846,0.09754 0.0077,0.01475 -0.154297,0.08203 -0.162043,0.06729 0.006,0.01633 -0.166016,0.05078 -0.172041,0.03445 0.0016,0.01727 -0.173828,0.01758 -0.175457,-3.05e-4 -0.0018,0.01688 -0.173828,-0.01758 -0.172042,-0.03445 -0.004,0.0165 -0.166016,-0.05078 -0.162043,-0.06729 -0.0085,0.01551 -0.154296,-0.08203 -0.145846,-0.09754 -0.0107,0.01274 -0.134766,-0.111328 -0.124067,-0.124067 -0.01379,0.01108 -0.111328,-0.134766 -0.09754,-0.145845 -0.01475,0.0077 -0.08203,-0.154296 -0.06729,-0.162044 -0.01633,0.006 -0.05078,-0.166016 -0.03445,-0.172042 -0.01727,0.0016 -0.01758,-0.173828 3.05e-4,-0.175458 -0.01688,-0.0018 0.01758,-0.173828 0.03445,-0.172042 -0.0165,-0.004 0.05078,-0.166016 0.06729,-0.162043 -0.01551,-0.0085 0.08203,-0.154297 0.09754,-0.145845 -0.01274,-0.0107 0.111328,-0.134765 0.124067,-0.124068 -0.01108,-0.01379 0.134766,-0.111329 0.145845,-0.09754 -0.0077,-0.01475 0.154296,-0.08203 0.162044,-0.06729 -0.006,-0.01633 0.166016,-0.05078 0.172042,-0.03445 -0.0016,-0.01727 0.173828,-0.01758 z m 2.460938,1.738281 h 5.445312 v 3.40625 h -5.453125 c -0.169102,-0.471162 -0.449602,-0.904519 -0.845703,-1.210937 -0.345505,-0.267278 -0.764481,-0.409318 -1.195312,-0.480469 0.435132,-0.07196 0.859457,-0.218478 1.207031,-0.490235 0.397547,-0.310828 0.675911,-0.748235 0.841797,-1.224609 z m 7.1875,0 h 9.535156 v 3.40625 h -9.535156 z m -9.648438,3.386719 c 0.175458,3.04e-4 0.0018,-0.01688 0.173828,0.01758 0.172042,0.03445 0.004,-0.0165 0.166016,0.05078 0.162043,0.06729 0.0085,-0.01551 0.154297,0.08203 0.145845,0.09754 0.0107,-0.01274 0.134765,0.111329 0.124068,0.124067 0.01379,-0.01108 0.111329,0.134765 0.09754,0.145846 0.01475,-0.0077 0.08203,0.154297 0.06729,0.162044 0.01633,-0.006 0.05078,0.166016 0.03445,0.172041 0.01727,-0.0016 0.01758,0.173828 -1.1e-5,0.175396 0.01661,0.0018 -0.01758,0.173828 -0.03419,0.172031 0.01628,0.0059 -0.05078,0.167969 -0.06706,0.16207 0.01532,0.0084 -0.08203,0.154297 -0.09736,0.145895 0.01454,0.01064 -0.109375,0.134765 -0.12392,0.124127 0.009,0.01373 -0.136719,0.111328 -0.145733,0.0976 0.0077,0.0147 -0.154297,0.08203 -0.161958,0.06733 0.006,0.0163 -0.166016,0.05078 -0.171973,0.03448 0.0016,0.01727 -0.173828,0.01758 -0.175395,-3.05e-4 -0.0019,0.0169 -0.173828,-0.01758 -0.171973,-0.03448 -0.0041,0.01655 -0.166016,-0.05078 -0.161958,-0.06733 -0.0086,0.01557 -0.154296,-0.08203 -0.145733,-0.0976 -0.0128,0.0128 -0.136719,-0.111328 -0.12392,-0.124127 -0.01202,0.01113 -0.109375,-0.134765 -0.09736,-0.145896 -0.01497,0.0078 -0.08203,-0.154297 -0.06706,-0.162071 -0.01659,0.0041 -0.05078,-0.167969 -0.03419,-0.172031 -0.01757,0.0016 -0.01758,-0.173828 3.05e-4,-0.175458 -0.01688,-0.0018 0.01758,-0.173828 0.03445,-0.172042 -0.0165,-0.004 0.05078,-0.166016 0.06729,-0.162043 -0.01551,-0.0085 0.08203,-0.154297 0.09754,-0.145845 -0.01274,-0.0107 0.111328,-0.134765 0.124067,-0.124068 -0.01108,-0.01379 0.134766,-0.111329 0.145845,-0.09754 -0.0077,-0.01474 0.154296,-0.08203 0.162044,-0.06728 -0.006,-0.01633 0.166016,-0.05078 0.172042,-0.03445 -0.0016,-0.01727 0.173828,-0.01758 z m 2.453125,1.763672 h 5.453125 v 3.382812 h -5.453125 c -0.169102,-0.471162 -0.449602,-0.904519 -0.845703,-1.210937 -0.345505,-0.267278 -0.764481,-0.409318 -1.195312,-0.480469 0.952751,-0.155374 1.723145,-0.801709 2.041015,-1.691406 z m 7.195313,0 h 9.535156 v 3.382812 h -9.535156 z m 11.277343,0 h 1.677735 c 0.934554,0 1.691406,0.756852 1.691406,1.691406 -1.05e-4,0.166214 0.0086,6.12e-4 -0.0078,0.166016 -0.01639,0.165403 0.0071,0.0011 -0.02539,0.164062 -0.03252,0.163001 0.0093,0.0011 -0.03906,0.160156 -0.04834,0.159029 0.0071,0.0047 -0.05664,0.158203 -0.06369,0.153526 0.0081,0.0019 -0.07031,0.148438 -0.07843,0.146545 0.0065,0.0044 -0.08594,0.142578 -0.09242,0.138153 0.0059,0.0063 -0.09961,0.134766 -0.10551,0.128431 0.0063,0.0056 -0.111328,0.123047 -0.117589,0.117472 0.0055,0.0059 -0.123047,0.111328 -0.128535,0.105383 0.0054,0.0054 -0.132812,0.09766 -0.138244,0.09228 0.004,0.0076 -0.142578,0.08594 -0.146622,0.07829 0.0032,0.0068 -0.150391,0.07031 -0.153588,0.06354 0.0028,0.0085 -0.15625,0.05664 -0.159076,0.04818 9.24e-4,0.0087 -0.162109,0.04102 -0.163033,0.03236 0.0014,0.0072 -0.164063,0.02344 -0.165419,0.01623 1.99e-4,0.0079 -0.166015,0.0078 H 46.398437 Z M 25.472656,37.78125 c 0.175458,3.04e-4 0.0018,-0.01688 0.173828,0.01758 0.172042,0.03445 0.004,-0.0165 0.166016,0.05078 0.162043,0.06729 0.0085,-0.01551 0.154297,0.08203 0.145845,0.09754 0.0107,-0.01274 0.134765,0.111328 0.124068,0.124067 0.01379,-0.01108 0.111329,0.134765 0.09754,0.145846 0.01475,-0.0077 0.08203,0.154297 0.06729,0.162044 0.01633,-0.006 0.05078,0.166016 0.03445,0.172042 0.01727,-0.0016 0.01758,0.173828 -3.04e-4,0.175457 0.01688,0.0018 -0.01758,0.173828 -0.03445,0.172042 0.0165,0.004 -0.05078,0.166016 -0.06728,0.162043 0.01551,0.0085 -0.08203,0.154297 -0.09754,0.145845 0.01274,0.0107 -0.111329,0.134765 -0.124067,0.124068 0.01108,0.01379 -0.134765,0.111328 -0.145846,0.09754 0.0077,0.01475 -0.154297,0.08203 -0.162043,0.06728 0.006,0.01633 -0.166016,0.05078 -0.172041,0.03445 0.0016,0.01727 -0.173828,0.01758 -0.175457,-3.04e-4 -0.0018,0.01688 -0.173828,-0.01758 -0.172042,-0.03445 -0.004,0.0165 -0.166016,-0.05078 -0.162043,-0.06729 -0.0085,0.01551 -0.154296,-0.08203 -0.145846,-0.09754 -0.0107,0.01274 -0.134766,-0.111328 -0.124067,-0.124067 -0.01379,0.01108 -0.111328,-0.134765 -0.09754,-0.145846 -0.01475,0.0077 -0.08203,-0.154297 -0.06729,-0.162044 -0.01633,0.006 -0.05078,-0.166016 -0.03445,-0.172042 -0.01727,0.0016 -0.01758,-0.173828 3.05e-4,-0.175457 -0.01688,-0.0018 0.01758,-0.173828 0.03445,-0.172042 -0.0165,-0.004 0.05078,-0.166016 0.06729,-0.162043 -0.01551,-0.0085 0.08203,-0.154297 0.09754,-0.145845 -0.01274,-0.0107 0.111328,-0.134765 0.124067,-0.124068 -0.01108,-0.01379 0.134766,-0.111328 0.145845,-0.09754 -0.0077,-0.01475 0.154296,-0.08203 0.162044,-0.06728 -0.006,-0.01633 0.166016,-0.05078 0.172042,-0.03445 -0.0016,-0.01727 0.173828,-0.01758 z m 9.648438,1.761719 h 9.535156 v 3.841797 h -9.535156 z m 0,5.585937 h 9.535156 v 0.845703 c 0.0977,-0.05283 0.253301,-0.131334 -0.08789,0.04687 -0.903952,0.472148 0.676814,-0.338885 -0.234375,0.119141 -0.911188,0.458026 0.681877,-0.326605 -0.236328,0.117187 -0.918205,0.443793 0.688671,-0.318124 -0.236328,0.111329 -0.924999,0.429452 0.691335,-0.305633 -0.240234,0.109375 -0.931569,0.415008 0.695726,-0.294995 -0.242188,0.105468 -0.937913,0.400464 0.701844,-0.284259 -0.242187,0.101563 -0.944031,0.385821 0.705779,-0.27343 -0.244141,0.09766 -0.94992,0.371086 0.709485,-0.262511 -0.246094,0.09375 -0.955578,0.356261 0.71296,-0.251506 -0.248047,0.08984 -0.961006,0.34135 0.718155,-0.238466 -0.248046,0.08789 -0.966201,0.326357 0.721161,-0.229251 -0.25,0.08203 -0.971162,0.311283 0.723934,-0.21801 -0.251954,0.07813 -0.975887,0.296135 0.728425,-0.206696 -0.251953,0.07422 -0.980377,0.280915 0.730723,-0.195314 -0.253906,0.07031 -0.984629,0.265627 0.732784,-0.183868 -0.255859,0.06641 -0.988643,0.250275 0.736558,-0.172361 -0.25586,0.0625 -0.992417,0.234862 0.740093,-0.160798 -0.255859,0.05859 -0.995952,0.219392 0.741432,-0.149181 -0.257813,0.05469 -0.999244,0.203869 0.744484,-0.137515 -0.257812,0.05078 -1.002296,0.188296 0.745339,-0.125804 -0.259766,0.04687 -1.005104,0.172679 0.747904,-0.114051 -0.259765,0.04297 -1.00767,0.15702 0.750225,-0.102259 -0.259766,0.03906 -1.00999,0.141322 0.750348,-0.09239 -0.261719,0.0332 -1.012067,0.12559 0.75218,-0.07858 -0.261718,0.03125 -1.013899,0.109828 0.753766,-0.06865 -0.261719,0.02539 -1.015485,0.09404 0.755106,-0.05479 -0.261719,0.02344 -1.016825,0.07823 0.754247,-0.04482 -0.263672,0.01758 -1.017919,0.0624 0.755095,-0.03288 -0.263672,0.01367 -1.018766,0.04655 0.757649,-0.02093 -0.261718,0.0098 -1.019368,0.03069 0.75605,-0.009 -0.263672,0.0059 -1.019722,0.01483 0.756157,0.003 -0.263672,0.002 -0.539983,-0.0011 -1.069693,-0.03674 -1.595703,-0.08594 z m -1.742188,0.232422 v 2.253906 c 0.478008,0.0949 0.958098,0.193411 -0.0625,-0.01367 -2.102154,-0.426532 1.96786,0.417736 -0.130859,-0.02539 -2.098719,-0.443126 1.966246,0.430395 -0.128906,-0.0293 -2.095153,-0.459692 1.962549,0.448885 -0.128907,-0.02734 -2.091455,-0.476228 1.958723,0.461486 -0.128906,-0.03125 -2.087628,-0.492735 1.956718,0.479915 -0.126953,-0.0293 -2.083671,-0.509212 1.950677,0.492454 -0.128906,-0.0332 -2.079583,-0.525656 1.946459,0.508865 -0.128907,-0.0332 -2.075365,-0.542068 1.944066,0.525243 -0.126953,-0.0332 -2.071018,-0.558446 1.93959,0.539633 -0.126953,-0.03516 -2.066542,-0.57479 1.934985,0.55594 -0.126953,-0.03516 -2.061937,-0.591096 1.930251,0.570258 -0.126953,-0.03711 -0.413145,-0.121977 -0.0017,-0.0018 -0.02539,-0.0078 0.01127,-0.07587 -0.0231,0.06596 0.03516,-0.15625 0.07066,-0.269536 -0.03375,0.07803 0.05664,-0.185547 0.09039,-0.263574 -0.04127,0.07453 0.06836,-0.181641 0.109633,-0.25617 -0.04429,0.07158 0.08398,-0.175781 0.128272,-0.247364 -0.05051,0.06923 0.0957,-0.167969 0.146209,-0.237203 -0.05592,0.06363 0.107422,-0.162109 0.163345,-0.225745 -0.06045,0.06071 0.119141,-0.152344 0.179588,-0.21305 -0.06399,0.05661 0.130859,-0.142578 0.194848,-0.19919 -0.06842,0.04947 0.140625,-0.134766 0.209041,-0.18424 -0.0717,0.04523 0.150391,-0.123047 0.222089,-0.168281 -0.07572,0.04007 0.158203,-0.111328 0.233923,-0.151401 -0.07651,0.03408 0.167968,-0.09961 0.244477,-0.133692 -0.07986,0.02931 0.173829,-0.08594 0.01372,-0.0062 -6.97e-4,9.25e-4 0.0098,-0.0039 z" /></svg>
