<?xml version="1.0" encoding="UTF-8" standalone="no"?>
<!-- Uploaded to: SVG Repo, www.svgrepo.com, Generator: SVG Repo Mixer Tools -->

<svg
   fill="#000000"
   height="100"
   width="100"
   version="1.1"
   id="Layer_1"
   viewBox="0 0 100 100"
   xml:space="preserve"
   sodipodi:docname="gamba_1.svg"
   inkscape:version="1.3.2 (091e20e, 2023-11-25)"
   xmlns:inkscape="http://www.inkscape.org/namespaces/inkscape"
   xmlns:sodipodi="http://sodipodi.sourceforge.net/DTD/sodipodi-0.dtd"
   xmlns="http://www.w3.org/2000/svg"
   xmlns:svg="http://www.w3.org/2000/svg"><defs
   id="defs2">
		
	</defs><sodipodi:namedview
   id="namedview2"
   pagecolor="#ffffff"
   bordercolor="#000000"
   borderopacity="0.25"
   inkscape:showpageshadow="2"
   inkscape:pageopacity="0.0"
   inkscape:pagecheckerboard="0"
   inkscape:deskcolor="#d1d1d1"
   showgrid="false"
   inkscape:current-layer="g33" />

<g
   id="g33"
   inkscape:label="gamba"
   inkscape:groupmode="layer"
   transform="rotate(7.6504022,89.816393,28.14345)"><path
     style="fill:none;fill-opacity:0.762332;stroke:#000000;stroke-width:0.8;stroke-linecap:round;stroke-linejoin:round;stroke-miterlimit:4.7;stroke-dasharray:none;stroke-opacity:1"
     d="M 44.001252,70.310788 C 41.321173,65.040767 39.531655,61.314406 45.383184,51.957207 L 34.815394,28.368313 c -0.260048,0.161602 -0.304655,0.222007 -0.385271,0.06926 -1.75665,-3.328399 -2.504225,-7.409029 -4.136028,-11.647758 -0.261015,-0.637469 -1.001335,-1.750536 -1.414854,-2.585104 -0.08203,-0.165741 -0.361635,-0.107246 -0.511045,-0.216271 -0.383251,-0.279577 -0.747363,-0.640152 -0.928193,-1.07867 -0.105748,-0.256423 0.256337,-0.200303 0.07325,-0.617519 -0.75956,-1.730913 0.146614,-2.270879 0.854293,-2.6318057 0.835899,-0.426316 1.911313,0.2044667 2.308328,0.9428627 0.179823,0.334453 0.403839,0.158433 0.518146,0.327837 0.335785,0.497596 0.300515,1.530464 0.323405,1.771692 0.06316,0.665671 0.637452,1.299045 0.880818,1.802074 0.116959,0.241647 0.30863,0.446627 0.43058,0.680522 0.08656,0.16589 -0.09485,0.303053 0.0027,0.464767 2.319157,3.842916 5.612214,8.522466 6.429403,10.411674 l -0.335371,0.375806 c 7.738031,15.30899 8.377671,15.919946 11.897049,22.548474 7.30968,1.633443 12.035834,2.38602 15.859402,10.242557 -4.901963,5.808495 2.270347,13.206154 7.578243,11.377446 6.541737,8.916451 7.726409,18.325674 -2.575937,25.817629 0.0174,-0.0022 1.011226,3.15728 1.011226,3.15728 l -2.663573,1.122094 -1.611176,-2.821526 C 56.090516,100.94221 50.123152,94.571124 47.809406,83.177693 53.825577,79.812336 50.686514,69.916246 44.001252,70.310788 Z"
     id="path1"
     sodipodi:nodetypes="cccscsassssassssccccccccccc" /><path
     id="path3"
     style="color:#000000;fill:#000000;fill-opacity:1;stroke-width:1;stroke-linecap:round;stroke-linejoin:round;stroke-miterlimit:4.7;-inkscape-stroke:none"
     d="m 51.062986,72.301314 c 2.609926,-0.122736 4.268524,9.263116 1.536535,10.268519 -0.899415,0.331002 -1.037874,-0.366899 -1.06276,-0.73273 -0.02489,-0.365822 0.261413,-0.649945 0.719281,-0.662062 0.457787,-0.01215 0.588594,0.662432 0.621955,0.435713 0.329649,-2.240356 0.24068,-5.68766 -1.263976,-8.634344 0,0 -0.06469,0.479506 -0.522601,0.534125 -0.457908,0.05462 -0.642227,-0.319513 -0.629756,-0.642052 0.01236,-0.319731 0.268534,-0.551521 0.601322,-0.567169 z m 12.69858,-5.935466 c -1.749652,1.940605 4.456582,9.17411 6.966164,7.698737 0.826202,-0.485715 0.374307,-1.035283 0.107211,-1.286467 -0.267101,-0.251185 -0.668355,-0.20982 -0.967993,0.136506 -0.29964,0.346332 0.139061,0.875191 -0.05741,0.757247 -1.94141,-1.165488 -4.550702,-3.419948 -5.875312,-6.451849 0,0 0.411803,0.253988 0.744362,-0.06551 0.332557,-0.319501 0.160119,-0.69925 -0.0972,-0.894105 -0.255076,-0.193151 -0.596733,-0.141994 -0.819824,0.105445 z" /><path
     id="path5"
     style="fill:none;fill-opacity:1;stroke:#000000;stroke-width:0.5;stroke-linecap:round;stroke-linejoin:round;stroke-miterlimit:4.7;stroke-dasharray:none;stroke-opacity:1"
     inkscape:label="path5"
     d="M 68.448659,97.894477 59.368164,82.493011 c 2.057705,-0.618439 4.687858,-1.776705 6.737882,-2.901503 l 5.600912,16.891794 M 45.30054,51.79751 l 3.926263,9.184693 c 1.738639,-0.971851 4.10123,-2.148601 6.474271,-3.197249 L 50.821467,48.97403" /><rect
     style="fill:none;fill-opacity:1;stroke:#000000;stroke-width:0.5;stroke-linecap:round;stroke-linejoin:round;stroke-miterlimit:4.7;stroke-dasharray:none;stroke-opacity:1"
     id="rect5"
     width="0.85468608"
     height="1.1301851"
     x="21.321592"
     y="117.59205"
     rx="0.6190927"
     ry="0.095241837"
     transform="matrix(0.90387595,-0.42779466,0.42775342,0.90389547,0,0)" /><path
     id="path7"
     style="fill:none;fill-opacity:1;stroke:#000000;stroke-width:1;stroke-linecap:round;stroke-linejoin:round;stroke-miterlimit:4.7;stroke-dasharray:none;stroke-opacity:1"
     inkscape:label="nut"
     d="m 34.405069,28.229274 4.637572,-2.302916 m 17.198568,51.040716 c 4.052953,-1.136465 7.466921,-3.453976 7.466921,-3.453976" /><g
     id="g14"
     inkscape:label="strings"
     transform="matrix(1.0579534,-0.50071783,0.50037941,1.0573631,-27.234501,21.776856)"
     style="stroke-width:0.85461"><path
       style="fill:none;fill-opacity:1;stroke:#000000;stroke-width:0.213652;stroke-linecap:round;stroke-linejoin:round;stroke-miterlimit:4.7;stroke-dasharray:none;stroke-opacity:1"
       d="M 46.016979,27.366875 45.046562,73.3431 45.214838,79.351629"
       id="path8"
       sodipodi:nodetypes="ccc" /><path
       style="fill:none;fill-opacity:1;stroke:#000000;stroke-width:0.213652;stroke-linecap:round;stroke-linejoin:round;stroke-miterlimit:4.7;stroke-dasharray:none;stroke-opacity:1"
       d="m 46.465754,27.30327 -0.547702,45.921414 0.122573,6.282751"
       id="path9"
       sodipodi:nodetypes="ccc" /><path
       style="fill:none;fill-opacity:1;stroke:#000000;stroke-width:0.213652;stroke-linecap:round;stroke-linejoin:round;stroke-miterlimit:4.7;stroke-dasharray:none;stroke-opacity:1"
       d="m 46.958112,27.321724 -0.02211,46.07227 -0.03739,6.237048"
       id="path10"
       sodipodi:nodetypes="ccc" /><path
       style="fill:none;fill-opacity:1;stroke:#000000;stroke-width:0.213652;stroke-linecap:round;stroke-linejoin:round;stroke-miterlimit:4.7;stroke-dasharray:none;stroke-opacity:1"
       d="m 47.45047,27.312497 0.549186,46.145379 -0.174501,6.168493"
       id="path11"
       sodipodi:nodetypes="ccc" /><path
       style="fill:none;fill-opacity:1;stroke:#000000;stroke-width:0.213652;stroke-linecap:round;stroke-linejoin:round;stroke-miterlimit:4.7;stroke-dasharray:none;stroke-opacity:1"
       d="m 48.024887,27.371981 1.006222,46.044865 -0.220204,6.305603"
       id="path12"
       sodipodi:nodetypes="ccc" /><path
       style="fill:none;fill-opacity:1;stroke:#000000;stroke-width:0.213652;stroke-linecap:round;stroke-linejoin:round;stroke-miterlimit:4.7;stroke-dasharray:none;stroke-opacity:1"
       d="m 48.533145,27.362754 1.442684,46.026567 -0.28876,6.282751"
       id="path13"
       sodipodi:nodetypes="ccc" /><path
       style="fill:none;fill-opacity:1;stroke:#000000;stroke-width:0.213652;stroke-linecap:round;stroke-linejoin:round;stroke-miterlimit:4.7;stroke-dasharray:none;stroke-opacity:1"
       d="m 49.085971,27.337625 1.769354,46.101953 -0.313889,6.282751"
       id="path14"
       sodipodi:nodetypes="ccc" /></g><path
     id="path21"
     style="fill:none;fill-opacity:1;stroke:#000000;stroke-width:0.25;stroke-linecap:round;stroke-linejoin:round;stroke-miterlimit:4.7;stroke-dasharray:none;stroke-opacity:1"
     d="m 41.898662,44.26002 c 2.147783,-1.246805 4.917465,-2.298028 4.917465,-2.298028 m -5.680787,0.560936 c 2.552259,-1.451783 2.695053,-1.459534 4.830412,-2.388905 m -5.834436,0.05011 c 2.09885,-1.264283 2.315409,-1.366789 4.705904,-2.186635 m -5.618051,0.135056 c 1.816779,-1.144328 2.623904,-1.545514 4.373942,-2.14351 m -5.494854,-0.06999 c 1.576009,-0.908459 3.127711,-1.65754 4.408631,-2.101228 m -5.459712,-0.273112 c 1.525282,-0.843806 2.457224,-1.336623 4.288366,-2.135558 m -5.310624,-0.09925 c 2.27707,-1.145444 2.445945,-1.284884 4.169796,-1.938216"
     inkscape:label="frets" /><path
     id="path31"
     style="color:#000000;display:inline;fill:#000000;fill-opacity:1;stroke-width:1;stroke-linecap:round;stroke-linejoin:round;stroke-miterlimit:4.7;-inkscape-stroke:none"
     d="m 32.001981,26.564575 c 0.233647,-0.175452 0.155547,-0.289929 0.247556,-0.345797 0.117763,-0.08407 0.211005,0.113052 0.321232,0.130449 0.167355,-0.07923 0.463719,-0.201729 0.631085,-0.280942 0.197884,-0.09437 0.321849,0.71886 0.288343,0.737239 0,0 -0.526787,0.233921 -0.618744,0.30375 0.0026,0.124161 0.03993,0.256774 -0.08572,0.306895 -0.125635,0.05018 -0.226091,-0.184701 -0.423711,-0.05719 9.97e-4,0.560233 -0.161539,0.765135 -0.508873,0.940798 -0.347334,0.175666 -0.82337,-0.04095 -1.113075,-0.506886 -0.0997,0.122376 -0.279564,0.152302 -0.353824,-0.05473 -0.07427,-0.207022 0.109081,-0.254359 0.234351,-0.236996 -0.113538,-0.393543 -0.165965,-0.961349 0.309151,-1.151635 0.475117,-0.190284 0.695533,-0.116135 1.07226,0.215061 z m -2.585635,-8.610378 c 0.233648,-0.175452 0.155538,-0.289934 0.247557,-0.345798 0.117762,-0.08407 0.211005,0.113052 0.321231,0.130449 0.167356,-0.07923 0.463719,-0.201729 0.631085,-0.280942 0.197885,-0.09437 0.32185,0.71886 0.288343,0.737242 0,0 -0.526786,0.233919 -0.618741,0.303748 0.0026,0.124161 0.03993,0.256774 -0.08572,0.306896 -0.125631,0.05016 -0.226091,-0.184702 -0.42371,-0.05719 9.96e-4,0.560233 -0.161541,0.765135 -0.508875,0.940798 -0.347333,0.175665 -0.823369,-0.04095 -1.113075,-0.506886 -0.0997,0.122375 -0.279564,0.152301 -0.353823,-0.05473 -0.07427,-0.207021 0.109081,-0.254359 0.234349,-0.236995 -0.113539,-0.393543 -0.165963,-0.96135 0.309153,-1.151637 0.475117,-0.190283 0.695532,-0.116133 1.072257,0.215063 z m 1.067651,2.99646 c 0.233648,-0.175452 0.155547,-0.289929 0.247557,-0.345797 0.117763,-0.08407 0.211004,0.113051 0.32123,0.130447 0.167357,-0.07923 0.46372,-0.201729 0.631086,-0.280941 0.197885,-0.09437 0.321849,0.71886 0.288343,0.73724 0,0 -0.526786,0.23392 -0.618742,0.303749 0.0026,0.124161 0.03993,0.256774 -0.08573,0.306893 -0.125631,0.05017 -0.226091,-0.184701 -0.423709,-0.05719 9.97e-4,0.560233 -0.161541,0.765134 -0.508875,0.940798 -0.347333,0.175665 -0.823369,-0.04095 -1.113076,-0.506886 -0.0997,0.122375 -0.279563,0.152303 -0.353823,-0.05473 -0.07426,-0.207023 0.109082,-0.254361 0.234351,-0.236995 -0.113539,-0.393543 -0.165964,-0.961351 0.309153,-1.151638 0.475117,-0.190283 0.695532,-0.116132 1.072257,0.215064 z m 0.526733,2.902296 c 0.233645,-0.175451 0.155538,-0.289933 0.247556,-0.345798 0.117762,-0.08407 0.211007,0.113053 0.321232,0.130449 0.167357,-0.07923 0.46372,-0.20173 0.631086,-0.280942 0.197884,-0.09437 0.32185,0.71886 0.288332,0.737244 0,0 -0.526786,0.23392 -0.618741,0.30375 0.0026,0.124161 0.03993,0.256774 -0.08573,0.306892 -0.125631,0.05016 -0.226091,-0.184701 -0.423711,-0.0572 9.98e-4,0.560232 -0.16154,0.765135 -0.508873,0.940798 -0.347334,0.175666 -0.82337,-0.04095 -1.113075,-0.506885 -0.0997,0.122375 -0.279569,0.152292 -0.353824,-0.05473 -0.07427,-0.207023 0.109081,-0.254359 0.234352,-0.236995 -0.11354,-0.393544 -0.165966,-0.96135 0.309151,-1.151636 0.475117,-0.190283 0.69553,-0.116134 1.072257,0.215062 z m 4.350588,-7.10747 c -0.283807,0.06945 -0.322813,-0.06353 -0.424348,-0.02779 -0.139678,0.03777 -0.04637,0.234857 -0.102779,0.33114 -0.167371,0.0792 -0.449998,0.230725 -0.617364,0.309937 -0.198436,0.0932 0.351815,0.704676 0.387271,0.690418 0,0 0.514877,-0.259089 0.627175,-0.285931 0.09435,0.08075 0.173239,0.19368 0.291672,0.128263 0.118451,-0.06536 5.21e-4,-0.291955 0.224416,-0.363943 0.43258,0.35597 0.694077,0.360181 1.050128,0.202939 0.356053,-0.15724 0.490367,-0.662726 0.313752,-1.182185 0.157842,4.82e-4 0.295021,-0.119642 0.182016,-0.308332 -0.112998,-0.188689 -0.265867,-0.07685 -0.331844,0.03098 -0.232331,-0.337321 -0.638161,-0.737865 -1.086538,-0.491067 -0.448375,0.246794 -0.530784,0.464269 -0.513529,0.965597 z m 1.596326,2.571155 c -0.283809,0.06945 -0.322814,-0.06353 -0.424349,-0.02779 -0.139673,0.03776 -0.04637,0.234857 -0.102789,0.331135 -0.167371,0.0792 -0.449997,0.230725 -0.617365,0.309937 -0.198434,0.0932 0.351816,0.704677 0.387274,0.690418 0,0 0.514876,-0.259088 0.627174,-0.285931 0.09435,0.08075 0.173239,0.193681 0.291673,0.128263 0.118451,-0.06536 5.12e-4,-0.291961 0.224416,-0.363943 0.43258,0.355968 0.694075,0.36018 1.050127,0.202938 0.356053,-0.15724 0.490368,-0.662726 0.313753,-1.182185 0.157841,4.82e-4 0.29502,-0.119642 0.182016,-0.308332 -0.112998,-0.188689 -0.265868,-0.07685 -0.331844,0.03098 -0.232331,-0.337318 -0.638161,-0.737864 -1.086539,-0.491068 -0.448374,0.246796 -0.530783,0.46427 -0.513529,0.965599 z m 1.600195,2.394237 c -0.283808,0.06945 -0.322813,-0.06353 -0.424349,-0.02779 -0.139676,0.03777 -0.04637,0.234857 -0.10278,0.33114 -0.167371,0.0792 -0.449999,0.230724 -0.617364,0.309936 -0.198436,0.0932 0.351814,0.704676 0.387271,0.690419 0,0 0.514877,-0.259089 0.627176,-0.285932 0.09435,0.08075 0.173239,0.193681 0.291672,0.128263 0.118451,-0.06536 5.21e-4,-0.291955 0.224415,-0.363944 0.43258,0.35597 0.694076,0.36018 1.050127,0.20294 0.356055,-0.157242 0.490369,-0.662727 0.313753,-1.182187 0.157841,4.82e-4 0.29502,-0.119641 0.182016,-0.30833 -0.112998,-0.188691 -0.265869,-0.07685 -0.331844,0.03098 -0.232331,-0.337321 -0.63816,-0.737865 -1.086539,-0.491068 -0.448374,0.246796 -0.530784,0.46427 -0.51353,0.965599 z"
     inkscape:label="pegs" /><path
     style="display:inline;fill:none;fill-opacity:1;stroke:#000000;stroke-width:0.25;stroke-linecap:round;stroke-linejoin:round;stroke-miterlimit:4.7;stroke-dasharray:none;stroke-opacity:1"
     d="m 34.949838,27.849842 c -0.908561,-2.21414 -3.886148,-11.1983 -3.886148,-11.1983 l 1.073824,-0.60549 6.061691,10.025734"
     id="path32"
     sodipodi:nodetypes="cccc" /><path
     style="display:inline;fill:#000000;fill-opacity:1;stroke:#000000;stroke-width:0.249999;stroke-linecap:round;stroke-linejoin:round;stroke-miterlimit:4.7;stroke-dasharray:none;stroke-opacity:1"
     d="m 29.333999,14.746835 c -0.503377,-0.318309 -1.460415,-1.164888 -1.460415,-1.164888 -0.350344,-0.07745 -0.09417,-1.083461 -0.36427,-1.233356 -0.571691,-0.317271 0.130245,-1.923412 -0.03794,-1.597009 -0.72112,1.399491 0.944434,-4.7356923 3.301293,0.108471 0.355068,0.745226 0.499176,1.349931 0.824504,2.699772"
     id="path33"
     sodipodi:nodetypes="ccsssc"
     inkscape:label="head" /></g></svg>
