<svg xmlns="http://www.w3.org/2000/svg" xml:space="preserve" width="100" height="100">
    <g transform="rotate(7.65 89.816 28.143)">
        <path d="M44.001 70.31c-2.68-5.27-4.47-8.996 1.382-18.353L34.815 28.368c-.26.162-.304.222-.385.07-1.757-3.329-2.504-7.41-4.136-11.648-.26-.638-1.001-1.75-1.415-2.585-.082-.166-.361-.108-.51-.217-.384-.28-.748-.64-.929-1.078-.106-.257.256-.2.073-.618-.76-1.73.147-2.27.855-2.632.835-.426 1.91.205 2.308.943.18.335.404.159.518.328.336.498.3 1.53.323 1.772.064.666.638 1.299.881 1.802.117.242.309.447.43.68.087.166-.094.303.004.465 2.319 3.843 5.612 8.523 6.429 10.412l-.335.376c7.738 15.309 8.377 15.92 11.897 22.548 7.31 1.634 12.035 2.386 15.859 10.243-4.902 5.808 2.27 13.206 7.578 11.377 6.542 8.917 7.727 18.326-2.576 25.818.018-.002 1.012 3.157 1.012 3.157l-2.664 1.122-1.611-2.821c-12.33 3.06-18.298-3.31-20.612-14.704 6.017-3.366 2.878-13.262-3.808-12.867" style="fill:none;fill-opacity:.762332;stroke:#000;stroke-width:.8;stroke-linecap:round;stroke-linejoin:round;stroke-miterlimit:4.7;stroke-dasharray:none;stroke-opacity:1"/>
        <path d="M51.063 72.301c2.61-.122 4.269 9.263 1.537 10.269-.9.33-1.038-.367-1.063-.733s.261-.65.719-.662.589.662.622.436c.33-2.24.24-5.688-1.264-8.635 0 0-.065.48-.523.535-.457.054-.642-.32-.63-.643.013-.32.27-.551.602-.567m12.699-5.935c-1.75 1.94 4.456 9.174 6.966 7.699.826-.486.374-1.036.107-1.287s-.668-.21-.968.137c-.3.346.139.875-.057.757-1.942-1.166-4.551-3.42-5.876-6.452 0 0 .412.254.745-.065.332-.32.16-.7-.098-.895-.255-.193-.596-.142-.82.106" style="color:#000;fill:#000;fill-opacity:1;stroke-width:1;stroke-linecap:round;stroke-linejoin:round;stroke-miterlimit:4.7;-inkscape-stroke:none"/>
        <path d="m68.449 97.894-9.08-15.401c2.057-.618 4.687-1.777 6.737-2.901l5.601 16.891M45.301 51.798l3.926 9.184c1.738-.972 4.101-2.148 6.474-3.197l-4.88-8.811" style="fill:none;fill-opacity:1;stroke:#000;stroke-width:.5;stroke-linecap:round;stroke-linejoin:round;stroke-miterlimit:4.7;stroke-dasharray:none;stroke-opacity:1"/>
        <rect width=".855" height="1.13" x="21.322" y="117.592" rx=".619" ry=".095" style="fill:none;fill-opacity:1;stroke:#000;stroke-width:.5;stroke-linecap:round;stroke-linejoin:round;stroke-miterlimit:4.7;stroke-dasharray:none;stroke-opacity:1" transform="rotate(-25.328)skewX(-.003)"/>
        <path d="m34.405 28.23 4.638-2.304M56.24 76.967c4.053-1.136 7.467-3.454 7.467-3.454" style="fill:none;fill-opacity:1;stroke:#000;stroke-width:1;stroke-linecap:round;stroke-linejoin:round;stroke-miterlimit:4.7;stroke-dasharray:none;stroke-opacity:1"/>
        <g style="stroke-width:.85461">
            <path d="m46.017 27.367-.97 45.976.168 6.009m1.251-52.049-.548 45.922.123 6.282m.917-52.185-.022 46.072-.037 6.237m.551-52.319L48 73.458l-.175 6.168m.2-52.254 1.006 46.045-.22 6.305m-.278-52.359 1.443 46.026-.289 6.283m-.601-52.334 1.77 46.102-.315 6.282" style="fill:none;fill-opacity:1;stroke:#000;stroke-width:.213652;stroke-linecap:round;stroke-linejoin:round;stroke-miterlimit:4.7;stroke-dasharray:none;stroke-opacity:1" transform="matrix(1.05795 -.50072 .50038 1.05736 -27.235 21.777)"/>
        </g>
        <path d="M41.899 44.26c2.147-1.247 4.917-2.298 4.917-2.298m-5.68.56c2.552-1.45 2.694-1.459 4.83-2.388m-5.835.05c2.1-1.264 2.316-1.367 4.706-2.187m-5.618.136c1.817-1.145 2.624-1.546 4.374-2.144m-5.495-.07c1.576-.908 3.128-1.657 4.409-2.101m-5.46-.273c1.525-.844 2.457-1.337 4.289-2.136m-5.311-.1c2.277-1.145 2.446-1.284 4.17-1.937" style="fill:none;fill-opacity:1;stroke:#000;stroke-width:.25;stroke-linecap:round;stroke-linejoin:round;stroke-miterlimit:4.7;stroke-dasharray:none;stroke-opacity:1"/>
        <path d="M32.002 26.565c.234-.176.156-.29.248-.346.117-.084.21.113.32.13.168-.079.464-.202.632-.28.198-.095.322.718.288.737 0 0-.527.233-.619.303.003.124.04.257-.085.307-.126.05-.226-.185-.424-.057.001.56-.162.765-.509.94-.347.176-.823-.04-1.113-.506-.1.122-.28.152-.354-.055s.11-.254.235-.237c-.114-.393-.166-.961.309-1.151s.695-.117 1.072.215m-2.586-8.61c.234-.176.156-.29.248-.347.118-.084.21.113.321.13.167-.078.464-.2.631-.28.198-.094.322.719.289.737 0 0-.527.234-.62.304.003.124.04.257-.085.307-.126.05-.226-.185-.424-.057.001.56-.161.765-.508.94-.348.176-.824-.04-1.114-.506-.1.122-.28.152-.353-.055-.075-.207.109-.255.234-.237-.114-.394-.166-.962.31-1.152.474-.19.695-.116 1.071.215m1.068 2.996c.234-.176.156-.29.248-.346.117-.084.21.113.32.13.168-.079.465-.201.632-.28.198-.095.322.718.288.737 0 0-.527.234-.619.303.003.125.04.257-.085.307-.126.05-.226-.184-.424-.057.001.56-.162.765-.509.94-.347.177-.823-.04-1.113-.506-.1.122-.28.152-.354-.055s.11-.254.235-.237c-.114-.393-.166-.961.309-1.151s.695-.117 1.072.215m.527 2.902c.233-.175.155-.29.247-.346.118-.084.211.113.322.13.167-.079.463-.201.63-.28.198-.095.322.719.289.737 0 0-.527.234-.619.304.003.124.04.256-.086.307-.125.05-.226-.185-.423-.058 0 .56-.162.765-.51.941-.346.176-.822-.04-1.112-.507-.1.123-.28.153-.354-.054s.11-.255.234-.237c-.113-.394-.166-.962.31-1.152.475-.19.695-.116 1.072.215m4.35-7.108c-.283.07-.322-.063-.424-.027-.14.037-.046.235-.103.33-.167.08-.45.232-.617.31-.199.094.352.705.387.691 0 0 .515-.259.627-.286.095.081.174.194.292.129.118-.066 0-.292.224-.364.433.356.694.36 1.05.203.357-.158.49-.663.314-1.183.158 0 .295-.12.182-.308-.113-.189-.266-.077-.332.031-.232-.337-.638-.738-1.086-.491s-.53.464-.514.966m1.597 2.572c-.284.07-.323-.064-.425-.028-.14.038-.046.235-.102.331-.168.08-.45.23-.618.31-.198.093.352.705.387.69 0 0 .515-.259.628-.286.094.081.173.194.291.129.119-.066 0-.292.225-.364.432.356.694.36 1.05.203.356-.158.49-.663.314-1.183.157.001.295-.12.182-.308-.113-.189-.266-.077-.332.031-.233-.337-.638-.738-1.087-.49-.448.246-.53.463-.513.965m1.6 2.394c-.284.07-.323-.064-.425-.028-.14.038-.046.235-.102.331-.168.08-.45.23-.618.31-.198.093.352.705.388.69 0 0 .514-.259.627-.285.094.08.173.193.291.128.119-.065.001-.292.225-.364.432.356.694.36 1.05.203s.49-.663.314-1.182c.158 0 .295-.12.182-.309-.113-.188-.266-.076-.332.031-.232-.337-.638-.737-1.087-.49-.448.246-.53.464-.513.965" style="color:#000;display:inline;fill:#000;fill-opacity:1;stroke-width:1;stroke-linecap:round;stroke-linejoin:round;stroke-miterlimit:4.7;-inkscape-stroke:none"/>
        <path d="M34.95 27.85c-.909-2.214-3.886-11.198-3.886-11.198l1.074-.606 6.061 10.026" style="display:inline;fill:none;fill-opacity:1;stroke:#000;stroke-width:.25;stroke-linecap:round;stroke-linejoin:round;stroke-miterlimit:4.7;stroke-dasharray:none;stroke-opacity:1"/>
        <path d="M29.334 14.747c-.503-.318-1.46-1.165-1.46-1.165-.35-.078-.095-1.084-.365-1.233-.571-.318.13-1.924-.038-1.597-.72 1.4.945-4.736 3.302.108.355.745.499 1.35.824 2.7" style="display:inline;fill:#000;fill-opacity:1;stroke:#000;stroke-width:.249999;stroke-linecap:round;stroke-linejoin:round;stroke-miterlimit:4.7;stroke-dasharray:none;stroke-opacity:1"/>
    </g>
</svg>
