<?xml version="1.0" encoding="UTF-8" standalone="no"?>
<svg
   xml:space="preserve"
   width="45"
   height="100"
   version="1.1"
   id="svg9"
   sodipodi:docname="gamba_1.svg"
   inkscape:version="1.4 (e7c3feb1, 2024-10-09)"
   xmlns:inkscape="http://www.inkscape.org/namespaces/inkscape"
   xmlns:sodipodi="http://sodipodi.sourceforge.net/DTD/sodipodi-0.dtd"
   xmlns="http://www.w3.org/2000/svg"
   xmlns:svg="http://www.w3.org/2000/svg"><defs
   id="defs9" /><sodipodi:namedview
   id="namedview9"
   pagecolor="#ffffff"
   bordercolor="#000000"
   borderopacity="0.25"
   inkscape:showpageshadow="2"
   inkscape:pageopacity="0.0"
   inkscape:pagecheckerboard="0"
   inkscape:deskcolor="#d1d1d1"
   inkscape:current-layer="svg9" />
    <g
   transform="rotate(7.65,70.754789,-185.04993)"
   id="g9">
        <path
   d="m 44.001,70.31 c -2.68,-5.27 -4.47,-8.996 1.382,-18.353 L 34.815,28.368 c -0.26,0.162 -0.304,0.222 -0.385,0.07 -1.757,-3.329 -2.504,-7.41 -4.136,-11.648 -0.26,-0.638 -1.001,-1.75 -1.415,-2.585 -5.138021,-3.302237 1.583608,-7.6861096 2.630739,-1.556058 0.221492,0.611615 0.614769,1.785888 1.322261,3.001058 2.319,3.843 5.612,8.523 6.429,10.412 l -0.335,0.376 c 7.738,15.309 8.377,15.92 11.897,22.548 7.31,1.634 12.035,2.386 15.859,10.243 -4.902,5.808 2.27,13.206 7.578,11.377 6.542,8.917 7.727,18.326 -2.576,25.818 0.06401,0.242375 1.012,3.157 1.012,3.157 l -2.664,1.122 -1.611,-2.821 c -12.33,3.06 -18.298,-3.31 -20.612,-14.704 6.017,-3.366 2.878,-13.262 -3.808,-12.867"
   style="fill:none;fill-opacity:0.762332;stroke:#000000;stroke-width:0.8;stroke-linecap:round;stroke-linejoin:round;stroke-miterlimit:4.7;stroke-dasharray:none;stroke-opacity:1"
   id="path1"
   sodipodi:nodetypes="ccccccccccccccccccc" />
        <path
   d="m 51.063,72.301 c 2.61,-0.122 4.269,9.263 1.537,10.269 -0.9,0.33 -1.038,-0.367 -1.063,-0.733 -0.025,-0.366 0.261,-0.65 0.719,-0.662 0.458,-0.012 0.589,0.662 0.622,0.436 0.33,-2.24 0.24,-5.688 -1.264,-8.635 0,0 -0.065,0.48 -0.523,0.535 -0.457,0.054 -0.642,-0.32 -0.63,-0.643 0.013,-0.32 0.27,-0.551 0.602,-0.567 m 12.699,-5.935 c -1.75,1.94 4.456,9.174 6.966,7.699 0.826,-0.486 0.374,-1.036 0.107,-1.287 -0.267,-0.251 -0.668,-0.21 -0.968,0.137 -0.3,0.346 0.139,0.875 -0.057,0.757 -1.942,-1.166 -4.551,-3.42 -5.876,-6.452 0,0 0.412,0.254 0.745,-0.065 0.332,-0.32 0.16,-0.7 -0.098,-0.895 -0.255,-0.193 -0.596,-0.142 -0.82,0.106"
   style="color:#000000;fill:#000000;fill-opacity:1;stroke-width:1;stroke-linecap:round;stroke-linejoin:round;stroke-miterlimit:4.7;-inkscape-stroke:none"
   id="path2" />
        <path
   d="m 68.449,97.894 -9.08,-15.401 c 2.057,-0.618 4.687,-1.777 6.737,-2.901 l 5.601,16.891 m -26.406,-44.685 3.926,9.184 c 1.738,-0.972 4.101,-2.148 6.474,-3.197 l -4.88,-8.811"
   style="fill:none;fill-opacity:1;stroke:#000000;stroke-width:0.5;stroke-linecap:round;stroke-linejoin:round;stroke-miterlimit:4.7;stroke-dasharray:none;stroke-opacity:1"
   id="path3" />
        <rect
   width="0.85500002"
   height="1.13"
   x="21.322001"
   y="117.592"
   rx="0.61900002"
   ry="0.094999999"
   style="fill:none;fill-opacity:1;stroke:#000000;stroke-width:0.5;stroke-linecap:round;stroke-linejoin:round;stroke-miterlimit:4.7;stroke-dasharray:none;stroke-opacity:1"
   transform="matrix(0.9038736,-0.42779963,0.4277523,0.90389599,0,0)"
   id="rect3" />
        <path
   d="m 34.405,28.23 4.638,-2.304 M 56.24,76.967 c 4.053,-1.136 7.467,-3.454 7.467,-3.454"
   style="fill:none;fill-opacity:1;stroke:#000000;stroke-width:1;stroke-linecap:round;stroke-linejoin:round;stroke-miterlimit:4.7;stroke-dasharray:none;stroke-opacity:1"
   id="path4" />
        <g
   style="stroke-width:0.85461"
   id="g5">
            <path
   d="m 46.017,27.367 -0.97,45.976 0.168,6.009 m 1.251,-52.049 -0.548,45.922 0.123,6.282 m 0.917,-52.185 -0.022,46.072 -0.037,6.237 M 47.45,27.312 48,73.458 47.825,79.626 m 0.2,-52.254 1.006,46.045 -0.22,6.305 m -0.278,-52.359 1.443,46.026 -0.289,6.283 m -0.601,-52.334 1.77,46.102 -0.315,6.282"
   style="fill:none;fill-opacity:1;stroke:#000000;stroke-width:0.213652;stroke-linecap:round;stroke-linejoin:round;stroke-miterlimit:4.7;stroke-dasharray:none;stroke-opacity:1"
   transform="matrix(1.05795,-0.50072,0.50038,1.05736,-27.235,21.777)"
   id="path5" />
        </g>
        <path
   d="m 41.899,44.26 c 2.147,-1.247 4.917,-2.298 4.917,-2.298 m -5.68,0.56 c 2.552,-1.45 2.694,-1.459 4.83,-2.388 m -5.835,0.05 c 2.1,-1.264 2.316,-1.367 4.706,-2.187 m -5.618,0.136 c 1.817,-1.145 2.624,-1.546 4.374,-2.144 m -5.495,-0.07 c 1.576,-0.908 3.128,-1.657 4.409,-2.101 m -5.46,-0.273 c 1.525,-0.844 2.457,-1.337 4.289,-2.136 m -5.311,-0.1 c 2.277,-1.145 2.446,-1.284 4.17,-1.937"
   style="fill:none;fill-opacity:1;stroke:#000000;stroke-width:0.25;stroke-linecap:round;stroke-linejoin:round;stroke-miterlimit:4.7;stroke-dasharray:none;stroke-opacity:1"
   id="path6" />
        <path
   d="m 32.002,26.565 c 0.234,-0.176 0.156,-0.29 0.248,-0.346 0.117,-0.084 0.21,0.113 0.32,0.13 0.168,-0.079 0.464,-0.202 0.632,-0.28 0.198,-0.095 0.322,0.718 0.288,0.737 0,0 -0.527,0.233 -0.619,0.303 0.003,0.124 0.04,0.257 -0.085,0.307 -0.126,0.05 -0.226,-0.185 -0.424,-0.057 10e-4,0.56 -0.162,0.765 -0.509,0.94 -0.989668,0.501964 -1.95416,-1.536536 -0.923,-1.949 0.475,-0.19 0.695,-0.117 1.072,0.215 m -2.586,-8.61 c 0.234,-0.176 0.156,-0.29 0.248,-0.347 0.118,-0.084 0.21,0.113 0.321,0.13 0.167,-0.078 0.464,-0.2 0.631,-0.28 0.198,-0.094 0.322,0.719 0.289,0.737 0,0 -0.527,0.234 -0.62,0.304 0.003,0.124 0.04,0.257 -0.085,0.307 -0.126,0.05 -0.226,-0.185 -0.424,-0.057 0.001,0.56 -0.161,0.765 -0.508,0.94 -0.992339,0.501872 -1.954977,-1.538077 -0.923,-1.95 0.474,-0.19 0.695,-0.116 1.071,0.215 m 1.068,2.996 c 0.234,-0.176 0.156,-0.29 0.248,-0.346 0.117,-0.084 0.21,0.113 0.32,0.13 0.168,-0.079 0.465,-0.201 0.632,-0.28 0.198,-0.095 0.322,0.718 0.288,0.737 0,0 -0.527,0.234 -0.619,0.303 0.003,0.125 0.04,0.257 -0.085,0.307 -0.126,0.05 -0.226,-0.184 -0.424,-0.057 10e-4,0.56 -0.162,0.765 -0.509,0.94 -0.987464,0.503692 -1.955144,-1.536143 -0.923,-1.949 0.475,-0.19 0.695,-0.117 1.072,0.215 m 0.527,2.902 c 0.233,-0.175 0.155,-0.29 0.247,-0.346 0.118,-0.084 0.211,0.113 0.322,0.13 0.167,-0.079 0.463,-0.201 0.63,-0.28 0.198,-0.095 0.322,0.719 0.289,0.737 0,0 -0.527,0.234 -0.619,0.304 0.003,0.124 0.04,0.256 -0.086,0.307 -0.125,0.05 -0.226,-0.185 -0.423,-0.058 0,0.56 -0.162,0.765 -0.51,0.941 -0.986998,0.502057 -1.954996,-1.537669 -0.922,-1.95 0.475,-0.19 0.695,-0.116 1.072,0.215 m 4.35,-7.108 c -0.283,0.07 -0.322,-0.063 -0.424,-0.027 -0.14,0.037 -0.046,0.235 -0.103,0.33 -0.167,0.08 -0.45,0.232 -0.617,0.31 -0.199,0.094 0.352,0.705 0.387,0.691 0,0 0.515,-0.259 0.627,-0.286 0.095,0.081 0.174,0.194 0.292,0.129 0.118,-0.066 0,-0.292 0.224,-0.364 0.433,0.356 0.694,0.36 1.05,0.203 1.015576,-0.44947 0.04962,-2.48669 -0.922,-1.951 -0.448,0.247 -0.53,0.464 -0.514,0.966 m 1.597,2.572 c -0.284,0.07 -0.323,-0.064 -0.425,-0.028 -0.14,0.038 -0.046,0.235 -0.102,0.331 -0.168,0.08 -0.45,0.23 -0.618,0.31 -0.198,0.093 0.352,0.705 0.387,0.69 0,0 0.515,-0.259 0.628,-0.286 0.094,0.081 0.173,0.194 0.291,0.129 0.119,-0.066 0,-0.292 0.225,-0.364 0.432,0.356 0.694,0.36 1.05,0.203 1.015157,-0.450547 0.04956,-2.487182 -0.923,-1.95 -0.448,0.246 -0.53,0.463 -0.513,0.965 m 1.6,2.394 c -0.284,0.07 -0.323,-0.064 -0.425,-0.028 -0.14,0.038 -0.046,0.235 -0.102,0.331 -0.168,0.08 -0.45,0.23 -0.618,0.31 -0.198,0.093 0.352,0.705 0.388,0.69 0,0 0.514,-0.259 0.627,-0.285 0.094,0.08 0.173,0.193 0.291,0.128 0.119,-0.065 10e-4,-0.292 0.225,-0.364 0.432,0.356 0.694,0.36 1.05,0.203 1.013899,-0.447141 0.05249,-2.486626 -0.923,-1.95 -0.448,0.246 -0.53,0.464 -0.513,0.965"
   style="color:#000000;display:inline;fill:#000000;fill-opacity:1;stroke-width:1;stroke-linecap:round;stroke-linejoin:round;stroke-miterlimit:4.7;-inkscape-stroke:none"
   id="path7"
   sodipodi:nodetypes="cccccccccscccccccccccccccccccccscccccccccccccccccccccsccccccccccccccccccccscc" />
        <path
   d="M 34.95,27.85 C 34.041,25.636 31.064,16.652 31.064,16.652 l 1.074,-0.606 6.061,10.026"
   style="display:inline;fill:none;fill-opacity:1;stroke:#000000;stroke-width:0.25;stroke-linecap:round;stroke-linejoin:round;stroke-miterlimit:4.7;stroke-dasharray:none;stroke-opacity:1"
   id="path8" />
        <path
   d="M 29.334,14.747 C 28.831,14.429 27.874,13.582 27.874,13.582 26.702985,13.321031 26.844909,6.8404722 31.422489,11.598256 31.777489,12.343256 31.272,12.21 31.597,13.56"
   style="display:inline;fill:#000000;fill-opacity:1;stroke:#000000;stroke-width:0.249999;stroke-linecap:round;stroke-linejoin:round;stroke-miterlimit:4.7;stroke-dasharray:none;stroke-opacity:1"
   id="path9"
   sodipodi:nodetypes="cccc" />
    </g>
</svg>
