<?xml version="1.0" encoding="UTF-8" standalone="no"?>
<!-- Uploaded to: SVG Repo, www.svgrepo.com, Generator: SVG Repo Mixer Tools -->

<svg
   fill="#000000"
   height="45"
   width="30"
   version="1.1"
   id="Capa_1"
   viewBox="0 0 30 45"
   xml:space="preserve"
   sodipodi:docname="gameboy_1.svg"
   inkscape:version="1.3.2 (091e20e, 2023-11-25)"
   xmlns:inkscape="http://www.inkscape.org/namespaces/inkscape"
   xmlns:sodipodi="http://sodipodi.sourceforge.net/DTD/sodipodi-0.dtd"
   xmlns="http://www.w3.org/2000/svg"
   xmlns:svg="http://www.w3.org/2000/svg"><defs
     id="defs1" /><sodipodi:namedview
     id="namedview7"
     pagecolor="#ffffff"
     bordercolor="#000000"
     borderopacity="0.25"
     inkscape:showpageshadow="2"
     inkscape:pageopacity="0.0"
     inkscape:pagecheckerboard="0"
     inkscape:deskcolor="#d1d1d1"
     inkscape:current-layer="Capa_1" /><path
     id="path1"
     style="stroke-width:0.0781258"
     d="M 4.375,2.5 C 3.341084,2.5 2.5,3.3410847 2.5,4.375 v 36.25 c 0,1.033915 0.841084,1.875 1.875,1.875 H 21.25 c 0.860242,0 1.967312,-0.458554 2.575521,-1.06684 L 26.43316,38.825521 C 27.041447,38.217312 27.5,37.110242 27.5,36.25 V 4.375 C 27.5,3.3410847 26.658837,2.5 25.625,2.5 Z m 0,1.25 h 21.25 c 0.344612,0 0.625,0.2803876 0.625,0.625 V 36.25 c 0,0.518755 -0.333721,1.325118 -0.700521,1.69184 L 22.94184,40.549479 C 22.57504,40.916279 21.768755,41.25 21.25,41.25 H 4.375 C 4.030388,41.25 3.75,40.969612 3.75,40.625 V 4.375 C 3.75,4.0303876 4.030388,3.75 4.375,3.75 Z m 1.25,3.125 C 5.279841,6.875 5,7.1548409 5,7.5 v 15 c 0,0.345159 0.279841,0.625 0.625,0.625 h 18.75 C 24.72016,23.125 25,22.845159 25,22.5 V 7.5 C 24.999922,7.1547627 24.720237,6.875 24.375,6.875 Z m 0.625,1.25 h 17.5 v 13.75 H 6.25 Z M 8.75,25 C 8.060776,25 7.5,25.560697 7.5,26.25 v 0.625 H 6.875 c -0.689224,0 -1.25,0.560697 -1.25,1.25 v 1.25 c 0,0.689303 0.560776,1.25 1.25,1.25 H 7.5 v 0.625 c 0,0.689303 0.560697,1.25 1.25,1.25 H 10 c 0.689224,0 1.25,-0.560697 1.25,-1.25 v -0.625 h 0.625 c 0.689224,0 1.25,-0.560697 1.25,-1.25 v -1.25 c 0,-0.689303 -0.560697,-1.25 -1.25,-1.25 H 11.25 V 26.25 C 11.25,25.560697 10.689224,25 10,25 Z m 14.375,0.625 c -1.033837,0 -1.875,0.841084 -1.875,1.875 0,1.033916 0.841084,1.875 1.875,1.875 1.033916,0 1.875,-0.841084 1.875,-1.875 0,-0.345237 -0.279763,-0.625 -0.625,-0.625 -0.345159,0 -0.625,0.279841 -0.625,0.625 0,0.344612 -0.280388,0.625 -0.625,0.625 -0.344612,0 -0.625,-0.280388 -0.625,-0.625 0,-0.344612 0.28031,-0.625 0.625,-0.625 0.345159,0 0.625,-0.279841 0.625,-0.625 0,-0.34516 -0.279841,-0.625 -0.625,-0.625 z M 8.75,26.25 H 10 v 1.25 c 0,0.34516 0.27984,0.625 0.625,0.625 h 1.25 v 1.25 h -1.25 C 10.27984,29.375 10,29.654841 10,30 v 1.25 H 8.75 V 30 c 0,-0.345159 -0.27984,-0.625 -0.625,-0.625 h -1.25 v -1.25 h 1.25 c 0.34516,0 0.625,-0.27984 0.625,-0.625 z M 20,28.75 c -1.033837,0 -1.875,0.841084 -1.875,1.875 0,1.033916 0.841084,1.875 1.875,1.875 1.033916,0 1.875,-0.841084 1.875,-1.875 0,-0.345159 -0.279841,-0.625 -0.625,-0.625 -0.345159,0 -0.625,0.279841 -0.625,0.625 0,0.344612 -0.280388,0.625 -0.625,0.625 -0.344612,0 -0.625,-0.280388 -0.625,-0.625 C 19.375,30.280388 19.65531,30 20,30 c 0.345159,0 0.625,-0.279841 0.625,-0.625 0,-0.34516 -0.279841,-0.625 -0.625,-0.625 z m -6.246528,5.625 c -0.120379,-7.56e-4 -0.24213,0.03323 -0.349826,0.105035 l -1.875,1.25 c -0.28719,0.191486 -0.365097,0.579051 -0.173611,0.866319 0.120469,0.180705 0.3188,0.278646 0.520833,0.278646 0.119142,0 0.238923,-0.03402 0.345486,-0.105035 l 1.875,-1.25 c 0.28719,-0.191486 0.365097,-0.579919 0.173611,-0.867187 C 14.150287,34.473333 13.954104,34.376236 13.753472,34.375 Z m 4.375,0 c -0.120379,-7.56e-4 -0.24213,0.03323 -0.349826,0.105035 l -1.875,1.25 c -0.28719,0.191486 -0.365097,0.579051 -0.173611,0.866319 0.120469,0.180705 0.3188,0.278646 0.520833,0.278646 0.119142,0 0.238923,-0.03402 0.345486,-0.105035 l 1.875,-1.25 c 0.28719,-0.191486 0.365097,-0.579919 0.173611,-0.867187 C 18.525287,34.473333 18.329104,34.376236 18.128472,34.375 Z"
     inkscape:label="gameboy" /></svg>
