<svg xmlns="http://www.w3.org/2000/svg" xml:space="preserve" width="30" height="45">
    <path d="M4.375 2.5A1.877 1.877 0 0 0 2.5 4.375v36.25c0 1.034.841 1.875 1.875 1.875H21.25c.86 0 1.967-.459 2.576-1.067l2.607-2.607c.608-.609 1.067-1.716 1.067-2.576V4.375A1.877 1.877 0 0 0 25.625 2.5Zm0 1.25h21.25c.345 0 .625.28.625.625V36.25c0 .519-.334 1.325-.7 1.692l-2.608 2.607c-.367.367-1.173.701-1.692.701H4.375a.626.626 0 0 1-.625-.625V4.375c0-.345.28-.625.625-.625m1.25 3.125A.625.625 0 0 0 5 7.5v15c0 .345.28.625.625.625h18.75c.345 0 .625-.28.625-.625v-15a.625.625 0 0 0-.625-.625Zm.625 1.25h17.5v13.75H6.25ZM8.75 25c-.69 0-1.25.56-1.25 1.25v.625h-.625c-.69 0-1.25.56-1.25 1.25v1.25c0 .69.56 1.25 1.25 1.25H7.5v.625c0 .69.56 1.25 1.25 1.25H10c.69 0 1.25-.56 1.25-1.25v-.625h.625c.69 0 1.25-.56 1.25-1.25v-1.25c0-.69-.56-1.25-1.25-1.25h-.625v-.625c0-.69-.56-1.25-1.25-1.25Zm14.375.625A1.877 1.877 0 0 0 21.25 27.5c0 1.034.841 1.875 1.875 1.875A1.877 1.877 0 0 0 25 27.5a.625.625 0 1 0-1.25 0 .626.626 0 1 1-.625-.625.625.625 0 0 0 0-1.25M8.75 26.25H10v1.25c0 .345.28.625.625.625h1.25v1.25h-1.25A.625.625 0 0 0 10 30v1.25H8.75V30a.625.625 0 0 0-.625-.625h-1.25v-1.25h1.25c.345 0 .625-.28.625-.625zM20 28.75a1.877 1.877 0 0 0-1.875 1.875c0 1.034.841 1.875 1.875 1.875a1.877 1.877 0 0 0 1.875-1.875.625.625 0 0 0-1.25 0A.626.626 0 1 1 20 30a.625.625 0 0 0 0-1.25m-6.247 5.625a.6.6 0 0 0-.35.105l-1.874 1.25a.625.625 0 1 0 .692 1.04l1.875-1.25a.626.626 0 0 0-.343-1.145m4.375 0a.6.6 0 0 0-.35.105l-1.874 1.25a.625.625 0 1 0 .692 1.04l1.875-1.25a.626.626 0 0 0-.343-1.145" style="stroke-width:.0781258"/>
</svg>
