<?xml version="1.0" encoding="UTF-8" standalone="no"?>
<!-- Uploaded to: SVG Repo, www.svgrepo.com, Generator: SVG Repo Mixer Tools -->

<svg
   fill="#000000"
   height="100"
   width="100"
   version="1.1"
   id="Capa_1"
   viewBox="0 0 100 100"
   xml:space="preserve"
   sodipodi:docname="gameboy_1.svg"
   inkscape:version="1.3.2 (091e20e, 2023-11-25)"
   xmlns:inkscape="http://www.inkscape.org/namespaces/inkscape"
   xmlns:sodipodi="http://sodipodi.sourceforge.net/DTD/sodipodi-0.dtd"
   xmlns="http://www.w3.org/2000/svg"
   xmlns:svg="http://www.w3.org/2000/svg"><defs
   id="defs7" /><sodipodi:namedview
   id="namedview7"
   pagecolor="#ffffff"
   bordercolor="#000000"
   borderopacity="0.25"
   inkscape:showpageshadow="2"
   inkscape:pageopacity="0.0"
   inkscape:pagecheckerboard="0"
   inkscape:deskcolor="#d1d1d1"
   inkscape:current-layer="Capa_1" />
<g
   id="g7"
   transform="matrix(0.17578297,0,0,0.17578297,4.9999991,4.9999991)">
	<path
   d="M 391.996,0 H 119.999 c -13.234,0 -24,10.766 -24,24 v 463.995 c 0,13.234 10.766,24 24,24 h 215.996 c 11.011,0 25.185,-5.871 32.97,-13.657 l 33.374,-33.373 c 7.786,-7.785 13.657,-21.959 13.657,-32.97 V 24 c 0,-13.234 -10.767,-24 -24,-24 z m 8,431.995 c 0,6.64 -4.275,16.962 -8.97,21.656 l -33.374,33.374 c -4.695,4.695 -15.017,8.97 -21.657,8.97 H 119.999 c -4.411,0 -8,-3.589 -8,-8 V 24 c 0,-4.411 3.589,-8 8,-8 h 271.997 c 4.411,0 8,3.589 8,8 z"
   id="path1" />
	<path
   d="M 375.996,56 H 135.999 c -4.418,0 -8,3.582 -8,8 v 191.998 c 0,4.418 3.582,8 8,8 h 239.998 c 4.418,0 8,-3.582 8,-8 V 64 c -0.001,-4.419 -3.582,-8 -8.001,-8 z m -8,191.997 H 143.999 V 72 h 223.998 v 175.997 z"
   id="path2" />
	<path
   d="m 207.998,359.996 h 8 c 8.822,0 16,-7.177 16,-16 v -16 c 0,-8.823 -7.177,-16 -16,-16 h -8 v -8 c 0,-8.823 -7.178,-16 -16,-16 h -16 c -8.822,0 -16,7.177 -16,16 v 8 h -8 c -8.822,0 -16,7.177 -16,16 v 16 c 0,8.823 7.178,16 16,16 h 8 v 8 c 0,8.823 7.177,16 16,16 h 16 c 8.822,0 16,-7.177 16,-16 z m -8,-16 c -4.418,0 -8,3.582 -8,8 l 0.001,16 h -16.001 v -16 c 0,-4.418 -3.582,-8 -8,-8 h -16 v -16 h 16 c 4.418,0 8,-3.582 8,-8 v -16 h 16 v 16 c 0,4.418 3.582,8 8,8 h 16 v 16 z"
   id="path3" />
	<path
   d="m 375.996,311.997 c -4.418,0 -8,3.582 -8,8 0,4.411 -3.589,8 -8,8 -4.411,0 -8,-3.589 -8,-8 0,-4.411 3.588,-8 8,-8 4.418,0 8,-3.582 8,-8 0,-4.418 -3.582,-8 -8,-8 -13.233,0 -24,10.766 -24,24 0,13.234 10.766,24 24,24 13.234,0 24,-10.766 24,-24 0,-4.419 -3.581,-8 -8,-8 z"
   id="path4" />
	<path
   d="m 335.997,351.996 c -4.418,0 -8,3.582 -8,8 0,4.411 -3.589,8 -8,8 -4.411,0 -8,-3.589 -8,-8 0,-4.411 3.588,-8 8,-8 4.418,0 8,-3.582 8,-8 0,-4.418 -3.582,-8 -8,-8 -13.233,0 -24,10.766 -24,24 0,13.234 10.766,24 24,24 13.234,0 24,-10.766 24,-24 0,-4.418 -3.582,-8 -8,-8 z"
   id="path5" />
	<path
   d="m 235.56,409.339 -24,16 c -3.676,2.451 -4.67,7.417 -2.219,11.094 1.542,2.313 4.078,3.563 6.664,3.563 1.525,0 3.066,-0.436 4.43,-1.345 l 24,-16 c 3.676,-2.451 4.67,-7.417 2.219,-11.094 -2.451,-3.675 -7.418,-4.669 -11.094,-2.218 z"
   id="path6" />
	<path
   d="m 291.56,409.339 -24,16 c -3.676,2.451 -4.67,7.417 -2.219,11.094 1.542,2.313 4.078,3.563 6.664,3.563 1.525,0 3.066,-0.436 4.43,-1.345 l 24,-16 c 3.676,-2.451 4.67,-7.417 2.219,-11.094 -2.451,-3.675 -7.418,-4.669 -11.094,-2.218 z"
   id="path7" />
</g>
</svg>
