<?xml version="1.0" encoding="UTF-8" standalone="no"?>
<svg
   width="15"
   height="25"
   version="1.1"
   id="svg1"
   sodipodi:docname="glass_1.svg"
   inkscape:version="1.4 (e7c3feb1, 2024-10-09)"
   xmlns:inkscape="http://www.inkscape.org/namespaces/inkscape"
   xmlns:sodipodi="http://sodipodi.sourceforge.net/DTD/sodipodi-0.dtd"
   xmlns="http://www.w3.org/2000/svg"
   xmlns:svg="http://www.w3.org/2000/svg">
  <defs
     id="defs1" />
  <sodipodi:namedview
     id="namedview1"
     pagecolor="#ffffff"
     bordercolor="#000000"
     borderopacity="0.25"
     inkscape:showpageshadow="2"
     inkscape:pageopacity="0.0"
     inkscape:pagecheckerboard="0"
     inkscape:deskcolor="#d1d1d1"
     inkscape:current-layer="svg1" />
  <path
     d="M 1.6061017,1.8395736 C -1.9511398,7.0548195 1.1098877,14.511778 6.9282149,15.003617 v 5.408357 c -2.7085532,0.08937 -5.4183562,0.812441 -5.4183562,2.287334 0,3.067902 11.9753793,3.067277 11.9753793,0 0,-1.474893 -2.707928,-2.197965 -5.4158561,-2.287334 V 15.003617 C 13.950205,14.505528 16.956236,6.9235791 13.355873,1.7639541 12.145961,-0.61024836 2.647276,-0.59024976 1.6061017,1.8389486 M 7.5006733,1.1383745 c 3.0997747,0 4.8021507,0.8130659 4.8458977,1.156166 -0.04562,0.3455999 -1.749873,1.156166 -4.8458977,1.156166 -3.09665,0 -4.7996512,-0.8099412 -4.8471478,-1.156166 0.043747,-0.3431001 1.7467481,-1.156166 4.8471478,-1.156166 m 5.4558537,2.1835913 c 2.314832,4.5834169 -0.55621,10.5667322 -5.4583536,10.5667322 -4.8996439,0 -7.77568486,-5.9833153 -5.4558534,-10.5642324 1.0086766,0.867437 3.2935106,1.2705327 5.4558534,1.2705327 2.1635925,0 4.4509266,-0.4037207 5.4583536,-1.2730325 m -1.706126,1.6936269 c 0.399971,2.0598503 0.0375,3.23539 -0.199986,3.887842 -0.308102,0.685576 0.734947,1.1436673 1.03805,0.467467 0.592457,-1.476143 0.541836,-3.0441543 0.27998,-4.5796677 C 12.22158,4.0644119 11.103537,4.2812711 11.249776,5.0162177 M 6.9275899,21.553766 v 0.364974 c 6.25e-4,0.744945 1.1399172,0.744945 1.1411671,0 v -0.364974 c 2.735426,0.09124 4.232192,0.82494 4.274689,1.146167 -0.04375,0.346225 -1.746748,1.156791 -4.8458975,1.156791 -3.0997747,0 -4.8015261,-0.809941 -4.8471477,-1.156791 h 0.0025 c 0.042497,-0.324977 1.5392631,-1.055548 4.2746893,-1.146167"
     style="stroke-width:0.444444"
     id="path1" />
</svg>
