<?xml version="1.0" encoding="UTF-8" standalone="no"?>
<!-- Uploaded to: SVG Repo, www.svgrepo.com, Generator: SVG Repo Mixer Tools -->

<svg
   width="25"
   height="45"
   viewBox="0 0 25 45"
   version="1.1"
   id="svg1"
   sodipodi:docname="glass_1.svg"
   inkscape:version="1.3.2 (091e20e, 2023-11-25)"
   xmlns:inkscape="http://www.inkscape.org/namespaces/inkscape"
   xmlns:sodipodi="http://sodipodi.sourceforge.net/DTD/sodipodi-0.dtd"
   xmlns="http://www.w3.org/2000/svg"
   xmlns:svg="http://www.w3.org/2000/svg">
  <defs
     id="defs1" />
  <sodipodi:namedview
     id="namedview1"
     pagecolor="#ffffff"
     bordercolor="#000000"
     borderopacity="0.25"
     inkscape:showpageshadow="2"
     inkscape:pageopacity="0.0"
     inkscape:pagecheckerboard="0"
     inkscape:deskcolor="#d1d1d1"
     inkscape:current-layer="svg1"
     showgrid="false" />
  <path
     id="Path_62"
     style="stroke-width:0.444444"
     inkscape:label="glass"
     d="M 3.0690475,5.4417242 C -2.6233139,13.786503 2.2752017,25.7188 11.584673,26.506177 v 8.654297 c -4.3333631,0.142115 -8.6699223,1.299584 -8.6699223,3.660157 -2e-7,4.907983 19.1621093,4.907451 19.1621093,0 0,-2.359702 -4.33279,-3.517926 -8.666016,-3.660157 V 26.506177 C 22.821293,25.709327 27.631583,13.57719 21.869829,5.3206304 19.93352,1.5220822 4.7346654,1.5541133 3.0690475,5.4417242 Z M 12.500682,4.3206304 c 4.961073,0 7.684507,1.3017272 7.753906,1.8496094 -0.07214,0.5533609 -2.799224,1.851563 -7.753906,1.851563 -4.9546801,-10e-7 -7.6800693,-1.297289 -7.7558592,-1.851563 0.070312,-0.5478822 2.7947871,-1.8496094 7.7558592,-1.8496094 z m 8.730469,3.4941404 c 3.703675,7.3344352 -0.890788,16.9082032 -8.734369,16.9082032 -7.8399675,0 -12.44213909,-9.573599 -8.7304689,-16.9042972 1.6141888,1.388342 5.2706478,2.033204 8.7304689,2.033204 3.46212,0 7.122365,-0.646291 8.734375,-2.03711 z m -2.730469,2.7109382 c 0.639692,3.295145 0.06083,5.176771 -0.320312,6.220703 -0.492228,1.096454 1.176694,1.828976 1.662109,0.748047 0.9471,-2.362123 0.866569,-4.871658 0.447266,-7.328125 -0.23451,-1.1632772 -2.023689,-0.8164432 -1.789063,0.359375 z m -6.916015,26.460937 v 0.583985 c 0.0013,1.1927 1.824828,1.19274 1.826171,0 v -0.583985 c 4.377374,0.146426 6.772265,1.320737 6.839844,1.833985 -0.0694,0.554274 -2.794659,1.851562 -7.753906,1.851562 -4.9592461,0 -7.6828095,-1.296375 -7.7558595,-1.851562 h 0.00391 c 0.068433,-0.519234 2.4627717,-1.688143 6.8398445,-1.833985 z"
     sodipodi:nodetypes="cccssccccscscscscscccccccccccscccsc" />
</svg>
