<?xml version="1.0" encoding="UTF-8" standalone="no"?>
<!-- Uploaded to: SVG Repo, www.svgrepo.com, Generator: SVG Repo Mixer Tools -->

<svg
   width="100"
   height="100"
   viewBox="-8.89 0 100 100"
   version="1.1"
   id="svg1"
   sodipodi:docname="glass_1.svg"
   inkscape:version="1.3.2 (091e20e, 2023-11-25)"
   xmlns:inkscape="http://www.inkscape.org/namespaces/inkscape"
   xmlns:sodipodi="http://sodipodi.sourceforge.net/DTD/sodipodi-0.dtd"
   xmlns="http://www.w3.org/2000/svg"
   xmlns:svg="http://www.w3.org/2000/svg">
  <defs
     id="defs1" />
  <sodipodi:namedview
     id="namedview1"
     pagecolor="#ffffff"
     bordercolor="#000000"
     borderopacity="0.25"
     inkscape:showpageshadow="2"
     inkscape:pageopacity="0.0"
     inkscape:pagecheckerboard="0"
     inkscape:deskcolor="#d1d1d1"
     inkscape:current-layer="svg1" />
  <g
     id="Group_310"
     data-name="Group 310"
     transform="matrix(2.05456,0,0,2.05456,-1345.4914,-296.56421)"
     style="stroke-width:0.486722">
    <g
       id="Group_81"
       data-name="Group 81"
       style="stroke-width:0.486722">
      <g
         id="red_wine"
         data-name="red wine"
         style="stroke-width:0.486722">
        <g
           id="Group_76"
           data-name="Group 76"
           style="stroke-width:0.486722">
          <path
             id="Path_58"
             data-name="Path 58"
             d="m 674.89,154.832 c -5.054,0 -10.493,-1.26 -10.493,-4.027 0,-2.767 5.439,-4.027 10.493,-4.027 5.054,0 10.492,1.26 10.492,4.027 0,2.767 -5.439,4.027 -10.492,4.027 z M 666.4,150.8 c 0.083,0.607 3.067,2.027 8.493,2.027 5.426,0 8.413,-1.422 8.492,-2.028 -0.076,-0.6 -3.059,-2.026 -8.492,-2.026 -5.433,0 -8.416,1.427 -8.493,2.027 z"
             fill="#333333"
             style="stroke-width:0.486722" />
        </g>
        <g
           id="Group_77"
           data-name="Group 77"
           style="stroke-width:0.486722">
          <path
             id="Path_59"
             data-name="Path 59"
             d="m 674.89,190.583 c -5.054,0 -10.493,-1.26 -10.493,-4.027 0,-2.767 5.439,-4.026 10.493,-4.026 5.054,0 10.492,1.26 10.492,4.026 0,2.766 -5.439,4.027 -10.492,4.027 z m -8.493,-4.027 c 0.08,0.608 3.062,2.027 8.493,2.027 5.431,0 8.416,-1.421 8.492,-2.028 -0.079,-0.6 -3.064,-2.025 -8.492,-2.025 -5.428,0 -8.41,1.419 -8.49,2.026 z"
             fill="#333333"
             style="stroke-width:0.486722" />
        </g>
        <g
           id="Group_78"
           data-name="Group 78"
           style="stroke-width:0.486722">
          <path
             id="Path_60"
             data-name="Path 60"
             d="m 674.89,173.116 c -7.173,0 -13.008,-6.459 -13.008,-14.4 a 15.424,15.424 0 0 1 2.859,-9.008 l 1.619,1.175 a 13.409,13.409 0 0 0 -2.478,7.833 c 0,6.837 4.938,12.4 11.008,12.4 6.07,0 11.007,-5.561 11.007,-12.4 a 13.43,13.43 0 0 0 -2.461,-7.812 l 1.624,-1.17 a 15.242,15.242 0 0 1 2.837,8.982 c 0.003,7.941 -5.835,14.4 -13.007,14.4 z"
             fill="#333333"
             style="stroke-width:0.486722" />
        </g>
        <g
           id="Group_79"
           data-name="Group 79"
           style="stroke-width:0.486722">
          <path
             id="Path_61"
             data-name="Path 61"
             d="m 682.024,163.791 a 1,1 0 0 1 -0.911,-1.41 11.152,11.152 0 0 0 0.524,-5.661 c -0.039,-0.391 -0.1,-0.774 -0.173,-1.15 a 1.0000946,1.0000946 0 0 1 1.961,-0.394 c 0.09,0.447 0.158,0.9 0.2,1.347 a 13.093,13.093 0 0 1 -0.69,6.677 1,1 0 0 1 -0.911,0.591 z"
             fill="#333333"
             style="stroke-width:0.486722" />
        </g>
        <g
           id="Group_80"
           data-name="Group 80"
           style="stroke-width:0.486722">
          <path
             id="Path_62"
             data-name="Path 62"
             d="m 674.89,186.186 a 1,1 0 0 1 -1,-1 v -13.07 a 1,1 0 0 1 2,0 v 13.07 a 1,1 0 0 1 -1,1 z"
             fill="#333333"
             style="stroke-width:0.486722" />
        </g>
      </g>
    </g>
  </g>
</svg>
