<svg xmlns="http://www.w3.org/2000/svg" width="15" height="25">
    <path d="M1.606 1.84C-1.95 7.055 1.11 14.512 6.928 15.004v5.408c-2.708.09-5.418.812-5.418 2.287 0 3.068 11.975 3.068 11.975 0 0-1.475-2.708-2.198-5.416-2.287v-5.408c5.881-.498 8.887-8.08 5.287-13.24C12.146-.61 2.647-.59 1.606 1.839m5.895-.7c3.1 0 4.802.812 4.846 1.156C12.3 2.64 10.597 3.45 7.5 3.45s-4.8-.81-4.847-1.156C2.697 1.95 4.4 1.138 7.5 1.138m5.456 2.184c2.314 4.583-.557 10.567-5.459 10.567-4.9 0-7.776-5.984-5.456-10.565 1.009.868 3.294 1.271 5.456 1.271 2.164 0 4.451-.404 5.459-1.273M11.25 5.016c.4 2.06.038 3.235-.2 3.887-.308.686.735 1.144 1.038.468.593-1.476.542-3.044.28-4.58-.146-.727-1.264-.51-1.118.225M6.928 21.554v.365c0 .745 1.14.745 1.14 0v-.365c2.736.091 4.233.825 4.275 1.146-.043.346-1.746 1.157-4.845 1.157-3.1 0-4.802-.81-4.848-1.157h.003c.042-.325 1.54-1.056 4.275-1.146" style="stroke-width:.444444"/>
</svg>
