<svg xmlns="http://www.w3.org/2000/svg" width="25" height="45">
    <path d="M3.069 5.442c-5.692 8.345-.794 20.277 8.516 21.064v8.654c-4.334.143-8.67 1.3-8.67 3.66 0 4.909 19.162 4.908 19.162 0 0-2.36-4.333-3.517-8.666-3.66v-8.654c9.41-.797 14.22-12.929 8.459-21.185-1.936-3.799-17.135-3.767-18.801.12m9.432-1.121c4.96 0 7.684 1.301 7.754 1.85-.073.553-2.8 1.85-7.754 1.85-4.955 0-7.68-1.296-7.756-1.85.07-.549 2.795-1.85 7.756-1.85m8.73 3.494c3.704 7.334-.89 16.908-8.734 16.908-7.84 0-12.442-9.574-8.73-16.904 1.614 1.388 5.27 2.033 8.73 2.033 3.462 0 7.122-.646 8.734-2.037m-2.73 2.71c.64 3.296.06 5.177-.32 6.221-.493 1.097 1.176 1.83 1.661.748.948-2.362.867-4.871.448-7.328-.235-1.163-2.024-.816-1.79.36m-6.916 26.462v.584c.001 1.192 1.824 1.192 1.826 0v-.584c4.377.146 6.772 1.32 6.84 1.834-.07.554-2.795 1.851-7.754 1.851-4.96 0-7.683-1.296-7.756-1.851h.004c.068-.52 2.463-1.689 6.84-1.834" style="stroke-width:.444444"/>
</svg>
