<svg xmlns="http://www.w3.org/2000/svg" xml:space="preserve" width="100" height="100">
    <path d="M50 48.672a8.03 8.03 0 0 0-8.03 8.03 8.03 8.03 0 0 0 8.03 8.03 8.032 8.032 0 0 0 7.475-10.963.84.84 0 0 0-1.1-.48.84.84 0 0 0-.48 1.101 6.3 6.3 0 0 1 .437 2.312c0 3.486-2.846 6.332-6.332 6.332s-6.332-2.846-6.332-6.332S46.514 50.37 50 50.37c.794 0 1.574.148 2.312.438a.84.84 0 0 0 1.1-.48.84.84 0 0 0-.48-1.1A8 8 0 0 0 50 48.671M7.872 24.41c-.652 0-1.176.523-1.176 1.175v32.782a.26.26 0 0 1-.13.225 2.61 2.61 0 0 0 1.306 4.871 2.61 2.61 0 0 0 1.306-4.871.26.26 0 0 1-.13-.225V25.585c0-.652-.523-1.176-1.176-1.176"/>
    <path d="M15.053 5.482a.947.947 0 0 0-.954.954v4.309a.48.48 0 0 1-.482.482h-7.18a.947.947 0 0 0-.955.954v7.66c0 .532.421.954.954.954h7.181a.48.48 0 0 1 .482.482v70.85a.48.48 0 0 1-.482.483h-.479a.947.947 0 0 0-.954.954c0 .532.421.954.954.954h9.575a.947.947 0 0 0 .954-.954.947.947 0 0 0-.954-.954h-.479a.48.48 0 0 1-.482-.482V21.277a.48.48 0 0 1 .482-.482H35.43a.48.48 0 0 1 .472.382l2.832 13.479a.48.48 0 0 1-.244.524c-7.672 4.12-12.902 12.218-12.902 21.522 0 13.465 10.947 24.412 24.412 24.412s24.412-10.947 24.412-24.412c0-9.304-5.23-17.402-12.902-21.522a.48.48 0 0 1-.244-.524l2.832-13.479a.48.48 0 0 1 .472-.382h13.196a.48.48 0 0 1 .482.482v70.85a.48.48 0 0 1-.482.483h-.479a.947.947 0 0 0-.954.954c0 .532.421.954.954.954h9.575a.947.947 0 0 0 .954-.954.947.947 0 0 0-.954-.954h-.479a.48.48 0 0 1-.482-.482V21.277a.48.48 0 0 1 .482-.482h7.18a.947.947 0 0 0 .955-.955v-7.66a.947.947 0 0 0-.954-.953h-7.181a.48.48 0 0 1-.482-.482V6.436a.947.947 0 0 0-.954-.954h-5.745a.947.947 0 0 0-.954.954v4.309a.48.48 0 0 1-.482.482H22.234a.48.48 0 0 1-.482-.482V6.436a.947.947 0 0 0-.954-.954ZM16.49 7.39h2.873a.48.48 0 0 1 .482.482v2.873a.48.48 0 0 1-.482.482H16.49a.48.48 0 0 1-.482-.482V7.872a.48.48 0 0 1 .482-.482m64.15 0h2.872a.48.48 0 0 1 .482.482v2.873a.48.48 0 0 1-.482.482h-2.873a.48.48 0 0 1-.482-.482V7.872a.48.48 0 0 1 .482-.482M7.871 13.135h84.256a.48.48 0 0 1 .482.482v4.787a.48.48 0 0 1-.482.482H7.872a.48.48 0 0 1-.482-.482v-4.787a.48.48 0 0 1 .482-.482m8.617 7.66h2.873a.48.48 0 0 1 .482.482v70.85a.48.48 0 0 1-.482.483h-2.873a.48.48 0 0 1-.482-.482V21.277a.48.48 0 0 1 .482-.482m21.876 0h23.27a.482.482 0 0 1 .471.58l-2.572 12.241a.482.482 0 0 1-.647.35A24.3 24.3 0 0 0 50 32.29c-3.135 0-6.132.594-8.887 1.674a.482.482 0 0 1-.647-.35l-2.572-12.24a.482.482 0 0 1 .471-.58m42.273 0h2.873a.48.48 0 0 1 .482.482v70.85a.48.48 0 0 1-.482.483h-2.873a.48.48 0 0 1-.482-.482v-70.85a.48.48 0 0 1 .482-.482M50 34.199c12.404 0 22.503 10.1 22.503 22.503S62.404 79.205 50 79.205 27.497 69.106 27.497 56.702 37.596 34.2 50 34.2"/>
</svg>
