<?xml version="1.0" encoding="UTF-8" standalone="no"?>
<!-- Uploaded to: SVG Repo, www.svgrepo.com, Generator: SVG Repo Mixer Tools -->

<svg
   fill="#000000"
   height="100"
   width="100"
   version="1.1"
   id="Layer_1"
   viewBox="0 0 100 100"
   xml:space="preserve"
   sodipodi:docname="gong_1.svg"
   inkscape:version="1.3.2 (091e20e, 2023-11-25)"
   xmlns:inkscape="http://www.inkscape.org/namespaces/inkscape"
   xmlns:sodipodi="http://sodipodi.sourceforge.net/DTD/sodipodi-0.dtd"
   xmlns="http://www.w3.org/2000/svg"
   xmlns:svg="http://www.w3.org/2000/svg"><defs
   id="defs5">
		
	
	
</defs><sodipodi:namedview
   id="namedview5"
   pagecolor="#ffffff"
   bordercolor="#000000"
   borderopacity="0.25"
   inkscape:showpageshadow="2"
   inkscape:pageopacity="0.0"
   inkscape:pagecheckerboard="0"
   inkscape:deskcolor="#d1d1d1"
   inkscape:current-layer="Layer_1" />
<g
   id="g3"
   transform="matrix(0.19148936,0,0,0.19148936,5.0000004,5.0000004)">
			<path
   id="path1"
   sodipodi:type="inkscape:offset"
   inkscape:radius="-3.0661998"
   inkscape:original="M 235 225 C 210.187 225 190 245.187 190 270 C 190 294.813 210.187 315 235 315 C 259.813 315 280 294.813 280 270 C 280 264.348 278.95267 258.8185 276.88867 253.5625 C 275.37467 249.7075 271.02202 247.80827 267.16602 249.32227 C 263.31102 250.83727 261.41273 255.19188 262.92773 259.04688 C 264.30273 262.54888 265 266.233 265 270 C 265 286.542 251.542 300 235 300 C 218.458 300 205 286.542 205 270 C 205 253.458 218.458 240 235 240 C 238.767 240 242.45213 240.69627 245.95312 242.07227 C 249.80912 243.58727 254.16178 241.68898 255.67578 237.83398 C 257.19078 233.97898 255.2925 229.62633 251.4375 228.11133 C 246.1815 226.04733 240.651 225 235 225 z "
   d="m 235,228.06641 c -23.14994,0 -41.93359,18.78365 -41.93359,41.93359 0,23.14994 18.78365,41.93359 41.93359,41.93359 23.14994,0 41.93359,-18.78365 41.93359,-41.93359 0,-5.27321 -0.97288,-10.41296 -2.89843,-15.31641 -0.9083,-2.31274 -3.4347,-3.41611 -5.74805,-2.50781 -2.31237,0.90875 -3.41444,3.43808 -2.50586,5.75 1.51348,3.8547 2.28516,7.92886 2.28516,12.07422 0,18.20502 -14.86139,33.06641 -33.06641,33.06641 -18.20502,0 -33.06641,-14.86139 -33.06641,-33.06641 0,-18.20502 14.86139,-33.06641 33.06641,-33.06641 4.14482,0 8.21922,0.77002 12.07422,2.28516 2.31368,0.90903 4.83981,-0.19328 5.74805,-2.50586 0.9087,-2.31225 -0.19266,-4.83897 -2.50586,-5.74805 -4.90333,-1.9255 -10.04427,-2.89843 -15.31641,-2.89843 z" />
			<path
   id="path2"
   sodipodi:type="inkscape:offset"
   inkscape:radius="-1.3585558"
   inkscape:original="M 15 100 C 10.857 100 7.5 103.358 7.5 107.5 L 7.5 278.69531 C 3.024 281.29431 0 286.12997 0 291.66797 C 0 299.93897 6.729 306.66797 15 306.66797 C 23.271 306.66797 30 299.93897 30 291.66797 C 30 286.12997 26.976 281.29331 22.5 278.69531 L 22.5 107.5 C 22.5 103.358 19.143 100 15 100 z "
   d="m 15,101.35938 c -3.408902,0 -6.140625,2.73268 -6.140625,6.14062 v 171.19531 a 1.3586916,1.3586916 0 0 1 -0.6777344,1.17578 c -4.0729631,2.36498 -6.8222656,6.75344 -6.8222656,11.79688 0,7.53414 6.1064819,13.64062 13.640625,13.64062 7.534143,0 13.640625,-6.10648 13.640625,-13.64062 0,-5.04344 -2.749639,-9.43301 -6.822266,-11.79688 a 1.3586916,1.3586916 0 0 1 -0.677734,-1.17578 V 107.5 c 0,-3.40794 -2.731723,-6.14062 -6.140625,-6.14062 z" />
			<path
   id="path3"
   sodipodi:type="inkscape:offset"
   inkscape:radius="-2.5175781"
   inkscape:original="M 52.5 0 C 48.357 0 45 3.358 45 7.5 L 45 30 L 7.5 30 C 3.357 30 0 33.358 0 37.5 L 0 77.5 C 0 81.642 3.357 85 7.5 85 L 45 85 L 45 455 L 42.5 455 C 38.357 455 35 458.358 35 462.5 C 35 466.642 38.357 470 42.5 470 L 92.5 470 C 96.643 470 100 466.642 100 462.5 C 100 458.358 96.643 455 92.5 455 L 90 455 L 90 85 L 158.91211 85 L 173.70312 155.38672 C 132.84613 177.32572 105 220.47 105 270 C 105 341.682 163.317 400 235 400 C 306.683 400 365 341.682 365 270 C 365 220.47 337.15483 177.32767 296.29883 155.38867 L 311.08789 85 L 380 85 L 380 455 L 377.5 455 C 373.357 455 370 458.358 370 462.5 C 370 466.642 373.357 470 377.5 470 L 427.5 470 C 431.643 470 435 466.642 435 462.5 C 435 458.358 431.643 455 427.5 455 L 425 455 L 425 85 L 462.5 85 C 466.643 85 470 81.642 470 77.5 L 470 37.5 C 470 33.358 466.643 30 462.5 30 L 425 30 L 425 7.5 C 425 3.358 421.643 0 417.5 0 L 387.5 0 C 383.357 0 380 3.358 380 7.5 L 380 30 L 90 30 L 90 7.5 C 90 3.358 86.643 0 82.5 0 L 52.5 0 z M 60 15 L 75 15 L 75 30 L 60 30 L 60 15 z M 395 15 L 410 15 L 410 30 L 395 30 L 395 15 z M 15 45 L 455 45 L 455 70 L 15 70 L 15 45 z M 60 85 L 75 85 L 75 455 L 60 455 L 60 85 z M 174.24023 85 L 295.75977 85 L 282.32812 148.92188 C 267.65412 143.16587 251.691 140 235 140 C 218.31 140 202.34488 143.16492 187.67188 148.91992 L 174.24023 85 z M 395 85 L 410 85 L 410 455 L 395 455 L 395 85 z M 235 155 C 298.411 155 350 206.589 350 270 C 350 333.411 298.411 385 235 385 C 171.589 385 120 333.411 120 270 C 120 206.589 171.589 155 235 155 z "
   d="m 52.5,2.5175781 c -2.782626,0 -4.982422,2.2007192 -4.982422,4.9824219 V 30 A 2.5178299,2.5178299 0 0 1 45,32.517578 H 7.5 c -2.7826259,0 -4.9824219,2.200719 -4.9824219,4.982422 v 40 c 0,2.781703 2.199796,4.982422 4.9824219,4.982422 H 45 A 2.5178299,2.5178299 0 0 1 47.517578,85 V 455 A 2.5178299,2.5178299 0 0 1 45,457.51758 h -2.5 c -2.782626,0 -4.982422,2.20072 -4.982422,4.98242 0,2.7817 2.199796,4.98242 4.982422,4.98242 h 50 c 2.782626,0 4.982422,-2.20072 4.982422,-4.98242 0,-2.7817 -2.199796,-4.98242 -4.982422,-4.98242 H 90 A 2.5178299,2.5178299 0 0 1 87.482422,455 V 85 A 2.5178299,2.5178299 0 0 1 90,82.482422 h 68.91211 a 2.5178299,2.5178299 0 0 1 2.46289,2 l 14.79102,70.386718 a 2.5178299,2.5178299 0 0 1 -1.27149,2.73633 C 134.82954,179.11919 107.51758,221.41365 107.51758,270 c 0,70.31648 57.16495,127.48242 127.48242,127.48242 70.31747,0 127.48242,-57.16594 127.48242,-127.48242 0,-48.58638 -27.31095,-90.87884 -67.375,-112.39258 a 2.5178299,2.5178299 0 0 1 -1.27148,-2.73633 L 308.625,84.482422 a 2.5178299,2.5178299 0 0 1 2.46289,-2 H 380 A 2.5178299,2.5178299 0 0 1 382.51758,85 V 455 A 2.5178299,2.5178299 0 0 1 380,457.51758 h -2.5 c -2.78263,0 -4.98242,2.20072 -4.98242,4.98242 0,2.7817 2.19979,4.98242 4.98242,4.98242 h 50 c 2.78263,0 4.98242,-2.20072 4.98242,-4.98242 0,-2.7817 -2.19979,-4.98242 -4.98242,-4.98242 H 425 A 2.5178299,2.5178299 0 0 1 422.48242,455 V 85 A 2.5178299,2.5178299 0 0 1 425,82.482422 h 37.5 c 2.78263,0 4.98242,-2.200719 4.98242,-4.982422 v -40 c 0,-2.781703 -2.19979,-4.982422 -4.98242,-4.982422 H 425 A 2.5178299,2.5178299 0 0 1 422.48242,30 V 7.5 c 0,-2.7817027 -2.19979,-4.9824219 -4.98242,-4.9824219 h -30 c -2.78263,0 -4.98242,2.2007192 -4.98242,4.9824219 V 30 A 2.5178299,2.5178299 0 0 1 380,32.517578 H 90 A 2.5178299,2.5178299 0 0 1 87.482422,30 V 7.5 C 87.482422,4.7182973 85.282626,2.5175781 82.5,2.5175781 Z M 60,12.482422 H 75 A 2.5178299,2.5178299 0 0 1 77.517578,15 V 30 A 2.5178299,2.5178299 0 0 1 75,32.517578 H 60 A 2.5178299,2.5178299 0 0 1 57.482422,30 V 15 A 2.5178299,2.5178299 0 0 1 60,12.482422 Z m 335,0 h 15 A 2.5178299,2.5178299 0 0 1 412.51758,15 V 30 A 2.5178299,2.5178299 0 0 1 410,32.517578 H 395 A 2.5178299,2.5178299 0 0 1 392.48242,30 V 15 A 2.5178299,2.5178299 0 0 1 395,12.482422 Z m -380,30 H 455 A 2.5178299,2.5178299 0 0 1 457.51758,45 V 70 A 2.5178299,2.5178299 0 0 1 455,72.517578 H 15 A 2.5178299,2.5178299 0 0 1 12.482422,70 V 45 A 2.5178299,2.5178299 0 0 1 15,42.482422 Z m 45,40 H 75 A 2.5178299,2.5178299 0 0 1 77.517578,85 V 455 A 2.5178299,2.5178299 0 0 1 75,457.51758 H 60 A 2.5178299,2.5178299 0 0 1 57.482422,455 V 85 A 2.5178299,2.5178299 0 0 1 60,82.482422 Z m 114.24023,0 h 121.51954 a 2.5178299,2.5178299 0 0 1 2.46289,3.035156 l -13.43164,63.921872 a 2.5178299,2.5178299 0 0 1 -3.38282,1.82617 c -14.3883,-5.64394 -30.03556,-8.74804 -46.4082,-8.74804 -16.37171,0 -32.02103,3.1032 -46.4082,8.74609 a 2.5178299,2.5178299 0 0 1 -3.38282,-1.82617 L 171.77734,85.517578 a 2.5178299,2.5178299 0 0 1 2.46289,-3.035156 z m 220.75977,0 h 15 A 2.5178299,2.5178299 0 0 1 412.51758,85 V 455 A 2.5178299,2.5178299 0 0 1 410,457.51758 H 395 A 2.5178299,2.5178299 0 0 1 392.48242,455 V 85 A 2.5178299,2.5178299 0 0 1 395,82.482422 Z M 235,152.48242 c 64.77641,0 117.51758,52.74117 117.51758,117.51758 0,64.77641 -52.74117,117.51758 -117.51758,117.51758 -64.77641,0 -117.51758,-52.74117 -117.51758,-117.51758 0,-64.77641 52.74117,-117.51758 117.51758,-117.51758 z" />
		</g>
</svg>
