<svg xmlns="http://www.w3.org/2000/svg" xml:space="preserve" width="60" height="66.682">
    <path d="M43.784 66.682a.633.633 0 0 1-.632-.633v-1.212H7.729v1.212a.633.633 0 0 1-1.266 0v-1.212h-2.03a.633.633 0 0 1-.633-.633V47.39c0-.35.284-.633.633-.633h16.303v-.923H10.479a.633.633 0 0 1 0-1.265h14.454v-1.267a.633.633 0 0 1 1.265 0v1.267h6.596V43.51a3.57 3.57 0 0 1-2.225-1.36H8.522C3.822 42.15 0 38.326 0 33.627v-6.323c0-7.88 6.411-14.291 14.292-14.291h9.228q.328 0 .666-.005c11.379-.146 22.356-3.831 31.742-10.657L58.995.12A.634.634 0 0 1 60 .632v41.92a.633.633 0 0 1-.988.524l-3.766-2.561c-8.69-5.91-18.763-9.233-29.132-9.613a57 57 0 0 0-2.07-.04H10.956a3.476 3.476 0 0 0-3.472 3.473v.083a3.476 3.476 0 0 0 3.472 3.472H30.49a3.6 3.6 0 0 1 2.936-1.521c1.023 0 2 .437 2.683 1.2a3.6 3.6 0 0 1 .892 2.81c-.164 1.469-1.483 2.849-2.943 3.129v1.061h6.595a.633.633 0 0 1 0 1.265H29.947v.923H46.7c.35 0 .633.283.633.633v16.814c0 .35-.284.633-.633.633h-2.282v1.212c0 .35-.283.633-.633.633m0-3.11h2.283v-15.55H5.066v15.55ZM22.001 46.756h6.681v-.923h-6.681zm-7.71-32.478c-7.182 0-13.026 5.843-13.026 13.026v6.322c0 4.002 3.255 7.257 7.256 7.257h22.38c.22 0 .424.114.539.3a2.32 2.32 0 0 0 2.245 1.101c.969-.103 1.95-1.08 2.059-2.047a2.336 2.336 0 0 0-2.318-2.604c-.843 0-1.624.458-2.037 1.196a.63.63 0 0 1-.551.324H10.956a4.74 4.74 0 0 1-4.737-4.737v-.083a4.743 4.743 0 0 1 4.737-4.737h13.088c.67 0 1.382.014 2.116.04 10.607.389 20.911 3.788 29.798 9.831l2.777 1.89V1.873l-2.063 1.5c-9.6 6.98-20.827 10.75-32.47 10.9q-.346.004-.682.004zM43.784 61.7H7.491a.633.633 0 0 1-.632-.632V50.393c0-.349.283-.632.632-.632h36.293c.35 0 .633.283.633.632v10.675a.63.63 0 0 1-.633.632m-35.66-1.265h35.028v-9.41H8.124ZM3.746 27.938a.633.633 0 0 1-.633-.633c0-6.18 5.028-11.208 11.208-11.208a.633.633 0 0 1 0 1.265c-5.483 0-9.943 4.46-9.943 9.943 0 .35-.283.633-.632.633" style="stroke-width:1"/>
</svg>
