<?xml version="1.0" encoding="UTF-8" standalone="no"?>
<!-- Uploaded to: SVG Repo, www.svgrepo.com, Generator: SVG Repo Mixer Tools -->

<svg
   fill="#000000"
   height="75"
   width="75"
   version="1.1"
   id="Capa_1"
   viewBox="0 0 75 75"
   xml:space="preserve"
   sodipodi:docname="grand_cassa_1.svg"
   inkscape:version="1.4 (e7c3feb1, 2024-10-09)"
   xmlns:inkscape="http://www.inkscape.org/namespaces/inkscape"
   xmlns:sodipodi="http://sodipodi.sourceforge.net/DTD/sodipodi-0.dtd"
   xmlns="http://www.w3.org/2000/svg"
   xmlns:svg="http://www.w3.org/2000/svg"><defs
   id="defs1" /><sodipodi:namedview
   id="namedview1"
   pagecolor="#ffffff"
   bordercolor="#000000"
   borderopacity="0.25"
   inkscape:showpageshadow="2"
   inkscape:pageopacity="0.0"
   inkscape:pagecheckerboard="0"
   inkscape:deskcolor="#d1d1d1"
   inkscape:current-layer="Capa_1" />
<path
   d="m 72.499991,20.777637 c 0,-0.566923 -0.220118,-1.099295 -0.619966,-1.499304 -0.825971,-0.825972 -2.169878,-0.825972 -2.995851,0 L 64.963727,23.19878 C 64.101258,20.030175 62.97536,17.156954 61.638429,14.641568 h 1.101242 c 0.35832,0 0.648837,-0.290518 0.648837,-0.648839 0,-0.358321 -0.290517,-0.648839 -0.648837,-0.648839 H 60.911405 C 57.159818,6.9873784 51.987113,3.2344943 46.412613,3.225735 c -0.0063,-1.622e-4 -23.493807,-0.00195 -23.493807,-0.00195 -5.50621,0 -10.656854,3.5939186 -14.5090108,10.1199395 H 6.6954007 c -0.3583213,0 -0.6488389,0.290518 -0.6488389,0.648839 0,0.358321 0.2905176,0.648839 0.6488389,0.648839 H 7.6814736 C 4.3326539,20.927519 2.5000085,28.97961 2.5000085,37.500811 c 0,8.520552 1.8326454,16.571831 5.1813029,22.857782 H 6.6954007 c -0.3583213,0 -0.6488389,0.290518 -0.6488389,0.648839 0,0.358321 0.2905176,0.64884 0.6488389,0.64884 h 1.7140701 c 3.8521562,6.526021 9.0031252,10.11994 14.5091732,10.11994 h 23.475314 c 4.87e-4,0 9.74e-4,-3.25e-4 0.0016,-3.25e-4 5.505398,-0.0011 10.655558,-3.59473 14.507714,-10.119778 h 1.836539 c 0.35832,0 0.648839,-0.290518 0.648839,-0.648839 0,-0.358321 -0.290518,-0.648839 -0.648839,-0.648839 h -1.108218 c 3.349306,-6.285951 5.182114,-14.337393 5.182114,-22.85762 0,-3.191963 -0.26278,-6.346456 -0.77601,-9.384157 l 5.842307,-5.84247 c 0.401955,-0.401956 0.622236,-0.934328 0.619966,-1.496547 z M 56.96987,10.056061 c 3.064467,3.526602 5.455437,8.434257 6.93041,14.206003 l -0.822079,0.822079 C 61.108002,16.515252 57.236218,9.8197225 52.407721,6.2026078 c 1.601498,0.9207024 3.134704,2.2105941 4.562149,3.8534532 z m -33.765738,27.44475 c 0,-8.867033 2.03995,-16.926747 5.352272,-22.859567 h 2.600871 c -3.345576,6.286437 -5.182925,14.373078 -5.182925,22.859404 0,8.485191 1.837187,16.571508 5.182438,22.857945 h -2.60087 C 25.243919,54.426259 23.204132,46.367194 23.204132,37.500811 Z m 3.883625,22.857782 H 12.948586 C 9.6365873,54.426259 7.5966379,46.367194 7.5966379,37.500811 c 0,-8.867033 2.0399494,-16.926747 5.3522711,-22.859567 H 27.08792 c -3.34882,6.286113 -5.181466,14.338203 -5.181466,22.859567 0,8.520714 1.832484,16.571993 5.181303,22.857782 z m 2.23525,-47.014865 c 2.989363,-4.7898903 6.865365,-7.9537909 11.15127,-8.6671892 -3.230731,1.625828 -6.177433,4.5811267 -8.588681,8.6671892 z m -2.60525,-8.8222617 h 9.988875 c -3.338925,1.583329 -6.38863,4.5838842 -8.890391,8.8222617 H 13.715512 C 17.129865,7.8728813 21.700773,4.5214663 26.717757,4.5214663 Z M 20.616564,4.7612122 C 17.466288,6.3982327 14.589662,9.3105465 12.208909,13.343728 H 9.9167235 C 12.800812,8.7233469 16.510224,5.6150842 20.616564,4.7612122 Z M 3.7976863,37.500811 c 0,-8.867519 2.040436,-16.927071 5.3532451,-22.859405 H 11.480425 C 8.1316056,20.927519 6.2989601,28.97961 6.2989601,37.500811 c 0,8.520552 1.8326455,16.571831 5.1813029,22.857782 H 9.150607 C 5.8379601,54.426746 3.7976863,46.367681 3.7976863,37.500811 Z m 6.1187128,24.155461 h 2.2921859 c 2.380102,4.032208 5.255919,6.944846 8.405382,8.581868 -4.105364,-0.85436 -7.813965,-3.962298 -10.6975679,-8.581868 z m 16.8013579,8.822261 c -5.016984,0 -9.588053,-3.351415 -13.002568,-8.822262 h 14.100728 c 2.501761,4.238378 5.551627,7.238771 8.890553,8.822262 z m 2.604926,-8.822262 h 2.562427 c 2.40995,4.084603 5.355355,7.039577 8.584625,8.666541 -4.284283,-0.714858 -8.158662,-3.878271 -11.147052,-8.666541 z m 15.891848,8.759163 C 40.800967,69.94827 36.650507,66.856877 33.403232,61.656271 h 0.847221 c 0.35832,0 0.648839,-0.290518 0.648839,-0.648839 0,-0.358321 -0.290518,-0.648839 -0.648839,-0.648839 h -1.615122 c -0.01281,-0.02287 -0.02579,-0.04493 -0.03861,-0.0678 -3.433652,-6.173219 -5.324693,-14.266835 -5.324693,-22.790145 0,-8.526716 1.892176,-16.622765 5.327941,-22.796467 0.01184,-0.02125 0.02401,-0.04169 0.03585,-0.06294 h 1.614799 c 0.358321,0 0.648839,-0.290518 0.648839,-0.648839 0,-0.358322 -0.290518,-0.648839 -0.648839,-0.648839 h -0.846735 c 3.249223,-5.2030387 7.40244,-8.2939449 11.818276,-8.7578647 3.734068,0.3985493 7.294733,2.6740272 10.301129,6.5860387 2.966329,3.85978 5.196875,9.042381 6.465841,15.001479 L 51.839014,36.32333 c -1.736293,-1.007971 -3.533576,-1.093455 -4.555335,-0.07186 l -2.340524,2.340524 c -1.362562,1.362562 -0.755898,4.104231 1.38154,6.241506 1.320387,1.320549 2.936969,2.108726 4.324511,2.108726 0.777309,0 1.439287,-0.250776 1.914886,-0.725402 6.48e-4,-6.48e-4 2.342633,-2.342308 2.342633,-2.342308 1.021759,-1.021597 0.936113,-2.818718 -0.07202,-4.555011 l 7.984125,-7.984287 c 0.223363,2.025837 0.338207,4.093362 0.338207,6.165592 0,8.522498 -1.890716,16.615628 -5.323723,22.788194 -3.35109,6.025118 -7.830674,9.618388 -12.618781,10.126429 z M 51.18466,39.973536 c -1.134656,-1.13482 -2.487972,-1.874983 -3.72693,-2.061037 l 0.743407,-0.743407 c 0.891667,-0.891018 3.037539,0.01281 4.406265,1.38154 1.368725,1.368888 2.273044,3.515247 1.381864,4.406427 l -0.743894,0.743894 C 53.064671,42.49395 52.354679,41.143392 51.18466,39.973536 Z m 0.463921,5.323885 c -0.2305,0.230338 -0.566599,0.347129 -0.999375,0.347129 -1.035223,0 -2.340849,-0.662303 -3.407053,-1.728507 -1.368726,-1.368726 -2.27272,-3.515085 -1.38154,-4.406265 0.230339,-0.2305 0.566598,-0.347291 0.999375,-0.347291 1.035384,0 2.340848,0.662302 3.407052,1.728507 1.368888,1.368725 2.27272,3.515084 1.381541,4.406427 z m 0.701881,23.540199 c 2.475645,-1.843514 4.725493,-4.517054 6.616858,-7.918105 3.538605,-6.362352 5.487393,-14.679331 5.487393,-23.418867 0,-2.469967 -0.158641,-4.934744 -0.468624,-7.332852 l 0.920054,-0.920054 c 0.404227,2.683111 0.609746,5.453004 0.609746,8.252906 0,14.598064 -5.529243,27.008892 -13.165427,31.336972 z M 70.962568,21.356564 54.078645,38.240487 C 53.90735,38.033832 53.722757,37.830745 53.524861,37.632849 53.327126,37.435116 53.124203,37.250683 52.917709,37.079552 L 69.801633,20.195629 c 0.320363,-0.32004 0.840733,-0.32004 1.16061,0 0.154749,0.154748 0.239909,0.361565 0.239909,0.584441 9.73e-4,0.216226 -0.08419,0.420935 -0.239584,0.576494 z"
   id="path1"
   style="stroke-width:0.16221" />
</svg>
