<svg xmlns="http://www.w3.org/2000/svg" xml:space="preserve" width="75" height="75">
    <path d="M72.5 20.778c0-.567-.22-1.1-.62-1.5a2.12 2.12 0 0 0-2.996 0l-3.92 3.92c-.863-3.168-1.989-6.041-3.326-8.556h1.102a.649.649 0 0 0 0-1.298H60.91C57.16 6.987 51.987 3.234 46.413 3.226l-23.494-.002c-5.506 0-10.657 3.594-14.51 10.12H6.696a.649.649 0 0 0 0 1.297h.986C4.333 20.928 2.5 28.98 2.5 37.501s1.833 16.572 5.181 22.858h-.986a.649.649 0 0 0 0 1.297H8.41c3.853 6.526 9.004 10.12 14.51 10.12h23.477c5.505-.001 10.655-3.595 14.507-10.12h1.837a.649.649 0 0 0 0-1.298h-1.108c3.349-6.286 5.182-14.337 5.182-22.857 0-3.192-.263-6.347-.776-9.384l5.842-5.843c.402-.402.622-.934.62-1.496M56.97 10.056c3.064 3.527 5.455 8.434 6.93 14.206l-.822.822c-1.97-8.569-5.842-15.264-10.67-18.881 1.601.92 3.134 2.21 4.562 3.853M23.204 37.501c0-8.867 2.04-16.927 5.352-22.86h2.601c-3.345 6.287-5.183 14.373-5.183 22.86 0 8.485 1.838 16.571 5.183 22.858h-2.601c-3.312-5.933-5.352-13.992-5.352-22.858m3.884 22.858h-14.14C9.638 54.426 7.598 46.367 7.598 37.5c0-8.867 2.04-16.927 5.352-22.86h14.139c-3.349 6.286-5.182 14.338-5.182 22.86 0 8.52 1.833 16.572 5.182 22.858m2.235-47.015c2.99-4.79 6.865-7.954 11.151-8.667-3.23 1.625-6.177 4.58-8.588 8.667zM26.718 4.52h9.989c-3.34 1.584-6.389 4.584-8.89 8.823H13.715C17.13 7.873 21.7 4.52 26.718 4.52m-6.101.24c-3.15 1.637-6.027 4.55-8.408 8.583H9.917c2.884-4.62 6.593-7.729 10.7-8.583m-16.82 32.74c0-8.868 2.041-16.927 5.354-22.86h2.33c-3.35 6.287-5.182 14.339-5.182 22.86s1.833 16.572 5.181 22.858H9.15C5.839 54.427 3.799 46.368 3.799 37.5m6.12 24.155h2.292c2.38 4.032 5.256 6.945 8.405 8.582-4.105-.854-7.814-3.962-10.698-8.582m16.8 8.823c-5.016 0-9.587-3.352-13.002-8.823h14.1c2.503 4.239 5.553 7.239 8.891 8.823zm2.606-8.823h2.562c2.41 4.085 5.355 7.04 8.585 8.667-4.285-.715-8.159-3.878-11.147-8.667m15.892 8.76c-4.414-.468-8.564-3.56-11.812-8.76h.847a.649.649 0 0 0 0-1.297h-1.615l-.038-.068c-3.434-6.173-5.325-14.267-5.325-22.79 0-8.527 1.892-16.623 5.328-22.797l.036-.063h1.615a.649.649 0 0 0 0-1.297h-.847c3.25-5.203 7.402-8.294 11.818-8.758 3.734.398 7.295 2.674 10.301 6.586 2.967 3.86 5.197 9.042 6.466 15.001l-10.15 10.15c-1.736-1.008-3.534-1.093-4.555-.072l-2.34 2.341c-1.363 1.363-.757 4.104 1.38 6.242 1.321 1.32 2.938 2.108 4.325 2.108.778 0 1.44-.25 1.915-.725l2.343-2.342c1.021-1.022.936-2.82-.072-4.555l7.984-7.985c.223 2.026.338 4.094.338 6.166 0 8.522-1.89 16.615-5.324 22.788-3.35 6.025-7.83 9.618-12.618 10.126m5.97-30.442c-1.135-1.135-2.488-1.875-3.727-2.062l.743-.743c.892-.89 3.038.013 4.406 1.382 1.37 1.369 2.273 3.515 1.382 4.406l-.744.744c-.18-1.207-.89-2.558-2.06-3.727m.464 5.323c-.23.23-.567.348-1 .348-1.035 0-2.34-.663-3.407-1.729-1.369-1.369-2.273-3.515-1.381-4.406.23-.23.566-.348.999-.348 1.035 0 2.34.663 3.407 1.729 1.369 1.369 2.273 3.515 1.382 4.406m.701 23.54c2.476-1.843 4.726-4.516 6.617-7.917 3.539-6.363 5.488-14.68 5.488-23.42 0-2.47-.159-4.934-.469-7.332l.92-.92c.404 2.683.61 5.453.61 8.253 0 14.598-5.53 27.009-13.166 31.337m18.613-47.48L54.079 38.24a9 9 0 0 0-1.161-1.16l16.884-16.884a.821.821 0 0 1 1.16 1.16" style="stroke-width:.16221"/>
</svg>
