<?xml version="1.0" encoding="UTF-8" standalone="no"?>
<!-- Uploaded to: SVG Repo, www.svgrepo.com, Generator: SVG Repo Mixer Tools -->

<svg
   width="40"
   height="50"
   viewBox="0 0 40 50"
   version="1.1"
   id="svg1"
   sodipodi:docname="guitar_pedal_1.svg"
   inkscape:version="1.3.2 (091e20e, 2023-11-25)"
   xmlns:inkscape="http://www.inkscape.org/namespaces/inkscape"
   xmlns:sodipodi="http://sodipodi.sourceforge.net/DTD/sodipodi-0.dtd"
   xmlns="http://www.w3.org/2000/svg"
   xmlns:svg="http://www.w3.org/2000/svg"
   xmlns:rdf="http://www.w3.org/1999/02/22-rdf-syntax-ns#"
   xmlns:cc="http://creativecommons.org/ns#"
   xmlns:dc="http://purl.org/dc/elements/1.1/"
   xmlns:sketch="http://www.bohemiancoding.com/sketch/ns">
  <sodipodi:namedview
     id="namedview1"
     pagecolor="#ffffff"
     bordercolor="#000000"
     borderopacity="0.25"
     inkscape:showpageshadow="2"
     inkscape:pageopacity="0.0"
     inkscape:pagecheckerboard="0"
     inkscape:deskcolor="#d1d1d1"
     inkscape:current-layer="svg1" />
  <title
     id="title1">Guitar Pedal 1</title>
  <desc
     id="desc1">Created with Sketch.</desc>
  <defs
     id="defs1" />
  <path
     d="m 3.125,20.078125 c -0.386719,0 -0.703125,0.316406 -0.703125,0.703125 v 2.8125 c 0,0.386719 0.316406,0.703125 0.703125,0.703125 0.386719,0 0.703125,-0.316406 0.703125,-0.703125 v -2.8125 c 0,-0.386719 -0.316406,-0.703125 -0.703125,-0.703125 z m 33.75,0 c -0.386719,0 -0.703125,0.316406 -0.703125,0.703125 v 2.8125 c 0,0.386719 0.316406,0.703125 0.703125,0.703125 0.386719,0 0.703125,-0.316406 0.703125,-0.703125 v -2.8125 c 0,-0.386719 -0.316406,-0.703125 -0.703125,-0.703125 z m -8.4375,-9.84375 c -1.165078,0 -2.109375,0.944297 -2.109375,2.109375 0,1.165078 0.944297,2.109375 2.109375,2.109375 1.165078,0 2.109375,-0.944297 2.109375,-2.109375 0,-1.165078 -0.944297,-2.109375 -2.109375,-2.109375 z m -5.625,0 c -1.165078,0 -2.109375,0.944297 -2.109375,2.109375 0,1.165078 0.944297,2.109375 2.109375,2.109375 1.165078,0 2.109375,-0.944297 2.109375,-2.109375 0,-1.165078 -0.944297,-2.109375 -2.109375,-2.109375 z m -5.625,0 c -1.165078,0 -2.109375,0.944297 -2.109375,2.109375 0,1.165078 0.944297,2.109375 2.109375,2.109375 1.165078,0 2.109375,-0.944297 2.109375,-2.109375 0,-1.165078 -0.944297,-2.109375 -2.109375,-2.109375 z m -5.625,0 c -1.165078,0 -2.109375,0.944297 -2.109375,2.109375 0,1.165078 0.944297,2.109375 2.109375,2.109375 1.165078,0 2.109375,-0.944297 2.109375,-2.109375 0,-1.165078 -0.944297,-2.109375 -2.109375,-2.109375 z m 20.390625,7.734375 c 0,0.387422 -0.315703,0.703125 -0.703125,0.703125 H 8.75 c -0.387422,0 -0.703125,-0.315703 -0.703125,-0.703125 v -11.25 c 0,-0.3874219 0.315703,-0.703125 0.703125,-0.703125 h 22.5 c 0.387422,0 0.703125,0.3157031 0.703125,0.703125 z M 31.25,5.3125 H 8.75 c -0.773438,0 -1.40625,0.6328125 -1.40625,1.40625 v 11.25 c 0,0.773437 0.632812,1.40625 1.40625,1.40625 h 22.5 c 0.773437,0 1.40625,-0.632813 1.40625,-1.40625 v -11.25 C 32.65625,5.9453125 32.023437,5.3125 31.25,5.3125 Z M 8.046875,44.6875 h 23.90625 c 0.386719,0 0.703125,-0.316406 0.703125,-0.703125 v -15.46875 c 0,-0.386719 -0.316406,-0.703125 -0.703125,-0.703125 H 8.046875 c -0.386719,0 -0.703125,0.316406 -0.703125,0.703125 v 15.46875 c 0,0.386719 0.316406,0.703125 0.703125,0.703125 z M 34.0625,25.703125 H 5.9375 v -19.6875 c 0,-1.1629688 0.946406,-2.109375 2.109375,-2.109375 h 23.90625 c 1.162969,0 2.109375,0.9464062 2.109375,2.109375 z m 0,18.28125 c 0,1.162969 -0.946406,2.109375 -2.109375,2.109375 H 8.046875 C 6.883906,46.09375 5.9375,45.147344 5.9375,43.984375 V 26.40625 h 28.125 z M 31.953125,2.5 H 8.046875 C 6.113281,2.5 4.53125,4.0820312 4.53125,6.015625 v 37.96875 C 4.53125,45.917969 6.113281,47.5 8.046875,47.5 h 23.90625 c 1.933594,0 3.515625,-1.582031 3.515625,-3.515625 V 6.015625 C 35.46875,4.0820312 33.886719,2.5 31.953125,2.5 Z"
     sketch:type="MSShapeGroup"
     id="path1"
     style="fill:#000000;fill-rule:evenodd;stroke:none;stroke-width:0.703125"
     inkscape:label="pedal" />
  <metadata
     id="metadata1">
    <rdf:RDF>
      <cc:Work
         rdf:about="">
        <dc:title>Guitar Pedal 1</dc:title>
      </cc:Work>
    </rdf:RDF>
  </metadata>
</svg>
