<?xml version="1.0" encoding="UTF-8" standalone="no"?>
<!-- Uploaded to: SVG Repo, www.svgrepo.com, Generator: SVG Repo Mixer Tools -->

<svg
   width="100"
   height="75"
   viewBox="-6 0 100 75"
   version="1.1"
   id="svg1"
   sodipodi:docname="guitar_pedal_2.svg"
   inkscape:version="1.3.2 (091e20e, 2023-11-25)"
   xmlns:inkscape="http://www.inkscape.org/namespaces/inkscape"
   xmlns:sodipodi="http://sodipodi.sourceforge.net/DTD/sodipodi-0.dtd"
   xmlns="http://www.w3.org/2000/svg"
   xmlns:svg="http://www.w3.org/2000/svg"
   xmlns:rdf="http://www.w3.org/1999/02/22-rdf-syntax-ns#"
   xmlns:cc="http://creativecommons.org/ns#"
   xmlns:dc="http://purl.org/dc/elements/1.1/"
   xmlns:sketch="http://www.bohemiancoding.com/sketch/ns">
  <sodipodi:namedview
     id="namedview1"
     pagecolor="#ffffff"
     bordercolor="#000000"
     borderopacity="0.25"
     inkscape:showpageshadow="2"
     inkscape:pageopacity="0.0"
     inkscape:pagecheckerboard="0"
     inkscape:deskcolor="#d1d1d1"
     inkscape:current-layer="svg1" />
  <title
     id="title1">Guitar Pedal 2</title>
  <desc
     id="desc1">Created with Sketch.</desc>
  <defs
     id="defs1" />
  <g
     id="Page-1"
     stroke="none"
     stroke-width="1"
     fill="none"
     fill-rule="evenodd"
     sketch:type="MSPage"
     transform="translate(18,6)">
    <g
       id="Guitar-Pedal-2"
       sketch:type="MSArtboardGroup"
       transform="translate(-6)"
       fill="#000000">
      <path
         d="m 46.5,17 c 2.869,0 5.222,-2.197 5.475,-5 H 46.5 C 46.224,12 46,11.776 46,11.5 46,11.224 46.224,11 46.5,11 h 5.475 C 51.722,8.197 49.369,6 46.5,6 43.462,6 41,8.462 41,11.5 c 0,3.038 2.462,5.5 5.5,5.5 z m -29,0 C 20.538,17 23,14.538 23,11.5 23,8.631 20.803,6.278 18,6.025 V 11.5 C 18,11.776 17.776,12 17.5,12 17.224,12 17,11.776 17,11.5 V 6.025 c -2.803,0.253 -5,2.606 -5,5.475 0,3.038 2.462,5.5 5.5,5.5 z M 53,42 H 11 c -0.552,0 -1,0.448 -1,1 0,0.552 0.448,1 1,1 h 42 c 0.552,0 1,-0.448 1,-1 0,-0.552 -0.448,-1 -1,-1 z M 31.5,13 C 32.328,13 33,12.328 33,11.5 33,10.672 32.328,10 31.5,10 30.672,10 30,10.672 30,11.5 c 0,0.828 0.672,1.5 1.5,1.5 z m 0,18 c 3.038,0 5.5,-2.462 5.5,-5.5 0,-2.869 -2.197,-5.222 -5,-5.475 V 25.5 C 32,25.776 31.776,26 31.5,26 31.224,26 31,25.776 31,25.5 v -5.475 c -2.803,0.253 -5,2.606 -5,5.475 0,3.038 2.462,5.5 5.5,5.5 z M 32,57 c -2.206,0 -4,-1.794 -4,-4 0,-2.206 1.794,-4 4,-4 2.206,0 4,1.794 4,4 0,2.206 -1.794,4 -4,4 z m 0,-9 c -2.761,0 -5,2.239 -5,5 0,2.761 2.239,5 5,5 2.761,0 5,-2.239 5,-5 0,-2.761 -2.239,-5 -5,-5 z m 0,2 c -1.657,0 -3,1.343 -3,3 0,1.657 1.343,3 3,3 1.657,0 3,-1.343 3,-3 0,-1.657 -1.343,-3 -3,-3 z m 24,9 c 0,1.654 -1.346,3 -3,3 H 11 C 9.346,62 8,60.654 8,59 V 5 C 8,3.346 9.346,2 11,2 h 42 c 1.654,0 3,1.346 3,3 z M 53,0 H 11 C 8.25,0 6,2.25 6,5 v 54 c 0,2.75 2.25,5 5,5 h 42 c 2.75,0 5,-2.25 5,-5 V 5 C 58,2.25 55.75,0 53,0 Z"
         sketch:type="MSShapeGroup"
         id="path1" />
    </g>
  </g>
  <metadata
     id="metadata1">
    <rdf:RDF>
      <cc:Work
         rdf:about="">
        <dc:title>Guitar Pedal 2</dc:title>
      </cc:Work>
    </rdf:RDF>
  </metadata>
</svg>
