<svg xmlns="http://www.w3.org/2000/svg" width="100" height="90">
    <path d="M50 2c-6.156 0-11.922 3.562-12.756 4.088h-3.598a2.044 2.044 0 0 0-2.072 2.045H11.16c-3.363 0-6.133 2.77-6.133 6.132v13.966a2 2 0 0 0 0 .667V79.68c0 3.363 2.77 6.133 6.133 6.133v2.044h8.177v-2.044h61.326v2.044h8.177v-2.044c3.363 0 6.133-2.77 6.133-6.133V28.918a2 2 0 0 0 0-.667V14.265c0-3.362-2.77-6.132-6.133-6.132H68.426a2.044 2.044 0 0 0-2.072-2.045h-3.598C61.922 5.562 56.156 2 50 2m0 4.088c2.45 0 5.383 1.046 7.658 2.045H42.342C44.617 7.134 47.55 6.088 50 6.088m-38.84 6.133h77.68c1.155 0 2.044.89 2.044 2.044v12.266H9.116V14.265c0-1.155.889-2.044 2.044-2.044m5.11 4.088a3.066 3.066 0 0 0-3.066 3.067 3.066 3.066 0 0 0 3.067 3.066 3.066 3.066 0 0 0 3.066-3.066 3.066 3.066 0 0 0-3.066-3.067m7.155 0v6.133h4.089V16.31zm8.177 0v6.133h4.089V16.31zm8.177 0v6.133h4.088V16.31zm13.287 0A3.066 3.066 0 0 0 50 19.376a3.066 3.066 0 0 0 3.066 3.066 3.066 3.066 0 0 0 3.067-3.066 3.066 3.066 0 0 0-3.067-3.067m10.221 0a3.066 3.066 0 0 0-3.066 3.067 3.066 3.066 0 0 0 3.066 3.066 3.066 3.066 0 0 0 3.067-3.066 3.066 3.066 0 0 0-3.067-3.067m10.221 0a3.066 3.066 0 0 0-3.066 3.067 3.066 3.066 0 0 0 3.066 3.066 3.066 3.066 0 0 0 3.067-3.066 3.066 3.066 0 0 0-3.067-3.067m10.221 0a3.066 3.066 0 0 0-3.066 3.067 3.066 3.066 0 0 0 3.066 3.066 3.066 3.066 0 0 0 3.067-3.066 3.066 3.066 0 0 0-3.067-3.067M9.116 30.62h81.768v49.06a2.01 2.01 0 0 1-2.044 2.044H11.16a2.01 2.01 0 0 1-2.044-2.044zm10.22 2.044a2.044 2.044 0 0 0-2.043 2.044 2.044 2.044 0 0 0 2.044 2.045 2.044 2.044 0 0 0 2.044-2.045 2.044 2.044 0 0 0-2.044-2.044m12.266 0a2.044 2.044 0 0 0-2.044 2.044 2.044 2.044 0 0 0 2.044 2.045 2.044 2.044 0 0 0 2.044-2.045 2.044 2.044 0 0 0-2.044-2.044m12.265 0a2.044 2.044 0 0 0-2.044 2.044 2.044 2.044 0 0 0 2.044 2.045 2.044 2.044 0 0 0 2.045-2.045 2.044 2.044 0 0 0-2.045-2.044m12.266 0a2.044 2.044 0 0 0-2.045 2.044 2.044 2.044 0 0 0 2.045 2.045 2.044 2.044 0 0 0 2.044-2.045 2.044 2.044 0 0 0-2.044-2.044m12.265 0a2.044 2.044 0 0 0-2.044 2.044 2.044 2.044 0 0 0 2.044 2.045 2.044 2.044 0 0 0 2.044-2.045 2.044 2.044 0 0 0-2.044-2.044m12.265 0a2.044 2.044 0 0 0-2.044 2.044 2.044 2.044 0 0 0 2.044 2.045 2.044 2.044 0 0 0 2.044-2.045 2.044 2.044 0 0 0-2.044-2.044m-67.459 6.133a2.044 2.044 0 0 0-2.044 2.044 2.044 2.044 0 0 0 2.044 2.044 2.044 2.044 0 0 0 2.044-2.044 2.044 2.044 0 0 0-2.044-2.044m12.265 0a2.044 2.044 0 0 0-2.044 2.044 2.044 2.044 0 0 0 2.044 2.044 2.044 2.044 0 0 0 2.045-2.044 2.044 2.044 0 0 0-2.045-2.044m12.266 0a2.044 2.044 0 0 0-2.044 2.044 2.044 2.044 0 0 0 2.044 2.044 2.044 2.044 0 0 0 2.044-2.044 2.044 2.044 0 0 0-2.044-2.044m12.265 0a2.044 2.044 0 0 0-2.044 2.044A2.044 2.044 0 0 0 50 42.884a2.044 2.044 0 0 0 2.044-2.044A2.044 2.044 0 0 0 50 38.796m12.265 0a2.044 2.044 0 0 0-2.044 2.044 2.044 2.044 0 0 0 2.044 2.044 2.044 2.044 0 0 0 2.044-2.044 2.044 2.044 0 0 0-2.044-2.044m12.266 0a2.044 2.044 0 0 0-2.045 2.044 2.044 2.044 0 0 0 2.045 2.044 2.044 2.044 0 0 0 2.044-2.044 2.044 2.044 0 0 0-2.044-2.044m12.265 0a2.044 2.044 0 0 0-2.044 2.044 2.044 2.044 0 0 0 2.044 2.044 2.044 2.044 0 0 0 2.044-2.044 2.044 2.044 0 0 0-2.044-2.044m-67.46 6.132a2.044 2.044 0 0 0-2.043 2.045 2.044 2.044 0 0 0 2.044 2.044 2.044 2.044 0 0 0 2.044-2.044 2.044 2.044 0 0 0-2.044-2.045m12.266 0a2.044 2.044 0 0 0-2.044 2.045 2.044 2.044 0 0 0 2.044 2.044 2.044 2.044 0 0 0 2.044-2.044 2.044 2.044 0 0 0-2.044-2.045m12.265 0a2.044 2.044 0 0 0-2.044 2.045 2.044 2.044 0 0 0 2.044 2.044 2.044 2.044 0 0 0 2.045-2.044 2.044 2.044 0 0 0-2.045-2.045m12.266 0a2.044 2.044 0 0 0-2.045 2.045 2.044 2.044 0 0 0 2.045 2.044 2.044 2.044 0 0 0 2.044-2.044 2.044 2.044 0 0 0-2.044-2.045m12.265 0a2.044 2.044 0 0 0-2.044 2.045 2.044 2.044 0 0 0 2.044 2.044 2.044 2.044 0 0 0 2.044-2.044 2.044 2.044 0 0 0-2.044-2.045m12.265 0a2.044 2.044 0 0 0-2.044 2.045 2.044 2.044 0 0 0 2.044 2.044 2.044 2.044 0 0 0 2.044-2.044 2.044 2.044 0 0 0-2.044-2.045m-67.459 6.133a2.044 2.044 0 0 0-2.044 2.044 2.044 2.044 0 0 0 2.044 2.044 2.044 2.044 0 0 0 2.044-2.044 2.044 2.044 0 0 0-2.044-2.044m12.265 0a2.044 2.044 0 0 0-2.044 2.044 2.044 2.044 0 0 0 2.044 2.044 2.044 2.044 0 0 0 2.045-2.044 2.044 2.044 0 0 0-2.045-2.044m12.266 0a2.044 2.044 0 0 0-2.044 2.044 2.044 2.044 0 0 0 2.044 2.044 2.044 2.044 0 0 0 2.044-2.044 2.044 2.044 0 0 0-2.044-2.044m12.265 0a2.044 2.044 0 0 0-2.044 2.044A2.044 2.044 0 0 0 50 55.15a2.044 2.044 0 0 0 2.044-2.044A2.044 2.044 0 0 0 50 51.061m12.265 0a2.044 2.044 0 0 0-2.044 2.044 2.044 2.044 0 0 0 2.044 2.044 2.044 2.044 0 0 0 2.044-2.044 2.044 2.044 0 0 0-2.044-2.044m12.266 0a2.044 2.044 0 0 0-2.045 2.044 2.044 2.044 0 0 0 2.045 2.044 2.044 2.044 0 0 0 2.044-2.044 2.044 2.044 0 0 0-2.044-2.044m12.265 0a2.044 2.044 0 0 0-2.044 2.044 2.044 2.044 0 0 0 2.044 2.044 2.044 2.044 0 0 0 2.044-2.044 2.044 2.044 0 0 0-2.044-2.044m-67.46 6.133a2.044 2.044 0 0 0-2.043 2.044 2.044 2.044 0 0 0 2.044 2.044 2.044 2.044 0 0 0 2.044-2.044 2.044 2.044 0 0 0-2.044-2.044m12.266 0a2.044 2.044 0 0 0-2.044 2.044 2.044 2.044 0 0 0 2.044 2.044 2.044 2.044 0 0 0 2.044-2.044 2.044 2.044 0 0 0-2.044-2.044m12.265 0a2.044 2.044 0 0 0-2.044 2.044 2.044 2.044 0 0 0 2.044 2.044 2.044 2.044 0 0 0 2.045-2.044 2.044 2.044 0 0 0-2.045-2.044m12.266 0a2.044 2.044 0 0 0-2.045 2.044 2.044 2.044 0 0 0 2.045 2.044 2.044 2.044 0 0 0 2.044-2.044 2.044 2.044 0 0 0-2.044-2.044m12.265 0a2.044 2.044 0 0 0-2.044 2.044 2.044 2.044 0 0 0 2.044 2.044 2.044 2.044 0 0 0 2.044-2.044 2.044 2.044 0 0 0-2.044-2.044m12.265 0a2.044 2.044 0 0 0-2.044 2.044 2.044 2.044 0 0 0 2.044 2.044 2.044 2.044 0 0 0 2.044-2.044 2.044 2.044 0 0 0-2.044-2.044m-67.459 6.132a2.044 2.044 0 0 0-2.044 2.045 2.044 2.044 0 0 0 2.044 2.044 2.044 2.044 0 0 0 2.044-2.044 2.044 2.044 0 0 0-2.044-2.045m12.265 0a2.044 2.044 0 0 0-2.044 2.045 2.044 2.044 0 0 0 2.044 2.044 2.044 2.044 0 0 0 2.045-2.044 2.044 2.044 0 0 0-2.045-2.045m12.266 0a2.044 2.044 0 0 0-2.044 2.045 2.044 2.044 0 0 0 2.044 2.044 2.044 2.044 0 0 0 2.044-2.044 2.044 2.044 0 0 0-2.044-2.045m12.265 0a2.044 2.044 0 0 0-2.044 2.045A2.044 2.044 0 0 0 50 67.415a2.044 2.044 0 0 0 2.044-2.044A2.044 2.044 0 0 0 50 63.326m12.265 0a2.044 2.044 0 0 0-2.044 2.045 2.044 2.044 0 0 0 2.044 2.044 2.044 2.044 0 0 0 2.044-2.044 2.044 2.044 0 0 0-2.044-2.045m12.266 0a2.044 2.044 0 0 0-2.045 2.045 2.044 2.044 0 0 0 2.045 2.044 2.044 2.044 0 0 0 2.044-2.044 2.044 2.044 0 0 0-2.044-2.045m12.265 0a2.044 2.044 0 0 0-2.044 2.045 2.044 2.044 0 0 0 2.044 2.044 2.044 2.044 0 0 0 2.044-2.044 2.044 2.044 0 0 0-2.044-2.045m-67.46 6.133a2.044 2.044 0 0 0-2.043 2.044 2.044 2.044 0 0 0 2.044 2.044 2.044 2.044 0 0 0 2.044-2.044 2.044 2.044 0 0 0-2.044-2.044m12.266 0a2.044 2.044 0 0 0-2.044 2.044 2.044 2.044 0 0 0 2.044 2.044 2.044 2.044 0 0 0 2.044-2.044 2.044 2.044 0 0 0-2.044-2.044m12.265 0a2.044 2.044 0 0 0-2.044 2.044 2.044 2.044 0 0 0 2.044 2.044 2.044 2.044 0 0 0 2.045-2.044 2.044 2.044 0 0 0-2.045-2.044m12.266 0a2.044 2.044 0 0 0-2.045 2.044 2.044 2.044 0 0 0 2.045 2.044 2.044 2.044 0 0 0 2.044-2.044 2.044 2.044 0 0 0-2.044-2.044m12.265 0a2.044 2.044 0 0 0-2.044 2.044 2.044 2.044 0 0 0 2.044 2.044 2.044 2.044 0 0 0 2.044-2.044 2.044 2.044 0 0 0-2.044-2.044m12.265 0a2.044 2.044 0 0 0-2.044 2.044 2.044 2.044 0 0 0 2.044 2.044 2.044 2.044 0 0 0 2.044-2.044 2.044 2.044 0 0 0-2.044-2.044m-67.459 6.133a2.044 2.044 0 0 0-2.044 2.044 2.044 2.044 0 0 0 2.044 2.044 2.044 2.044 0 0 0 2.044-2.044 2.044 2.044 0 0 0-2.044-2.044m12.265 0a2.044 2.044 0 0 0-2.044 2.044 2.044 2.044 0 0 0 2.044 2.044 2.044 2.044 0 0 0 2.045-2.044 2.044 2.044 0 0 0-2.045-2.044m12.266 0a2.044 2.044 0 0 0-2.044 2.044 2.044 2.044 0 0 0 2.044 2.044 2.044 2.044 0 0 0 2.044-2.044 2.044 2.044 0 0 0-2.044-2.044m12.265 0a2.044 2.044 0 0 0-2.044 2.044A2.044 2.044 0 0 0 50 79.68a2.044 2.044 0 0 0 2.044-2.044A2.044 2.044 0 0 0 50 75.592m12.265 0a2.044 2.044 0 0 0-2.044 2.044 2.044 2.044 0 0 0 2.044 2.044 2.044 2.044 0 0 0 2.044-2.044 2.044 2.044 0 0 0-2.044-2.044m12.266 0a2.044 2.044 0 0 0-2.045 2.044 2.044 2.044 0 0 0 2.045 2.044 2.044 2.044 0 0 0 2.044-2.044 2.044 2.044 0 0 0-2.044-2.044m12.265 0a2.044 2.044 0 0 0-2.044 2.044 2.044 2.044 0 0 0 2.044 2.044 2.044 2.044 0 0 0 2.044-2.044 2.044 2.044 0 0 0-2.044-2.044" style="stroke-width:.999999"/>
</svg>
