<?xml version="1.0" encoding="UTF-8" standalone="no"?>
<!-- Uploaded to: SVG Repo, www.svgrepo.com, Generator: SVG Repo Mixer Tools -->

<svg
   fill="#000000"
   height="60"
   width="100"
   version="1.1"
   id="Capa_1"
   viewBox="0 0 100 60"
   xml:space="preserve"
   sodipodi:docname="guitar_amp_2.svg"
   inkscape:version="1.3.2 (091e20e, 2023-11-25)"
   xmlns:inkscape="http://www.inkscape.org/namespaces/inkscape"
   xmlns:sodipodi="http://sodipodi.sourceforge.net/DTD/sodipodi-0.dtd"
   xmlns="http://www.w3.org/2000/svg"
   xmlns:svg="http://www.w3.org/2000/svg"><defs
   id="defs1" /><sodipodi:namedview
   id="namedview1"
   pagecolor="#ffffff"
   bordercolor="#000000"
   borderopacity="0.25"
   inkscape:showpageshadow="2"
   inkscape:pageopacity="0.0"
   inkscape:pagecheckerboard="0"
   inkscape:deskcolor="#d1d1d1"
   inkscape:current-layer="Capa_1" />
<path
   d="M 91.272702,4 H 8.7272981 C 6.6720691,4 4.999999,5.67207 4.999999,7.72746 v 43.5536 c 0,2.05522 1.6720701,3.72729 3.7272991,3.72729 h 5.8689999 v 2.586 c 0,0.67707 0.548911,1.22598 1.225978,1.22598 h 7.53257 c 0.677067,0 1.225978,-0.54891 1.225978,-1.22598 v -2.586 h 50.878237 v 2.586 c 0,0.67707 0.548911,1.22598 1.225978,1.22598 h 7.532733 c 0.677067,0 1.225978,-0.54891 1.225978,-1.22598 v -2.586 h 5.828952 c 2.055229,0 3.727299,-1.67207 3.727299,-3.72729 V 7.72746 C 95.000001,5.67207 93.327931,4 91.272702,4 Z m 0,48.5564 h -3.276466 v -4.55181 h 4.551973 v 3.27647 c -1.63e-4,0.70322 -0.572286,1.27534 -1.275507,1.27534 z m -7.05493,0 H 76.685039 23.35501 15.82244 14.455883 V 49.75545 H 85.54428 V 52.5564 Z M 8.7272981,6.45196 h 3.2764659 v 4.55181 H 7.4519543 V 7.72746 c 0,-0.70338 0.572123,-1.2755 1.2753438,-1.2755 z M 85.544117,46.77861 v 0.52488 H 14.455883 v -0.52488 c 0,-0.67707 -0.548911,-1.22598 -1.225978,-1.22598 H 12.70486 v -9.80471 h 74.59028 v 9.80471 h -0.524882 c -0.67723,0 -1.226141,0.54891 -1.226141,1.22598 z m -72.498272,-33.32273 2.096095,1.83129 -2.43708,2.12911 v -3.9604 z m 74.249295,0 v 3.90989 L 84.915762,15.287 87.011694,13.45588 Z m -8.334523,3.77798 c -0.509844,0.44544 -0.561988,1.21993 -0.11655,1.72993 0.242417,0.2774 0.582258,0.41929 0.923733,0.41929 0.286225,0 0.573758,-0.0997 0.806203,-0.30274 l 2.478437,-2.1654 3.640827,3.18084 -3.640991,3.18117 -9.145466,-7.98978 3.641154,-3.18117 3.641153,3.18117 z M 12.70486,33.2958 v -3.00659 l 4.299749,-3.75639 3.639192,3.17953 -4.101631,3.58345 z m 13.443417,-8.39239 -3.641153,3.181 -3.639192,-3.17969 3.64099,-3.18101 z m 3.726809,0 3.641808,-3.18166 3.641317,3.18117 -3.641971,3.18182 z m 11.00977,-4.9e-4 3.638702,-3.17888 3.641317,3.18117 -3.638702,3.17888 z m 11.006828,0.002 3.641317,-3.18117 3.640009,3.18002 -3.641154,3.18117 z m 11.007808,-0.001 3.641154,-3.18117 3.64099,3.18084 -3.641317,3.18117 z m -34.887892,1.62744 3.641154,3.18134 -3.641318,3.18116 -3.64099,-3.18133 z m 11.009933,-4.9e-4 3.641154,3.18117 -3.642134,3.18199 -3.640991,-3.18117 z m 11.006664,0.002 3.640173,3.18019 -3.638538,3.17904 -3.640336,-3.18035 z m 11.007972,-10e-4 3.640827,3.18068 -3.641154,3.181 -3.640663,-3.18055 z m 11.008953,-4.9e-4 3.64099,3.181 -3.641154,3.18133 -3.641153,-3.181 z m 1.863322,-1.62777 2.228174,-1.94669 c 0.509843,-0.44544 0.561988,-1.21993 0.11655,-1.72994 -0.445602,-0.51001 -1.220093,-0.56199 -1.729937,-0.11655 l -2.478436,2.16524 -3.64099,-3.181 3.639355,-3.1797 9.145467,7.98978 -3.639356,3.1797 z m -9.231121,-4.80894 -3.641154,3.18117 -3.640009,-3.18003 3.641153,-3.181 z m -11.007808,10e-4 -3.641318,3.18116 -3.641317,-3.18116 3.641317,-3.18117 z m -11.009443,0 -3.638702,3.17887 -3.641317,-3.18116 3.638701,-3.17888 z m -11.006501,-0.002 -3.641808,3.18166 -3.639192,-3.17954 3.641644,-3.18149 z m 34.887075,-1.62696 -3.639846,-3.17986 3.639355,-3.17953 3.639683,3.1797 z m -11.007809,0.001 -3.641317,-3.18117 3.641154,-3.181 3.641317,3.18116 z m -11.009279,1.6e-4 -3.641317,-3.18117 3.641317,-3.18116 3.641317,3.18116 z m -11.006664,-0.002 -3.639356,-3.17953 3.638538,-3.17888 3.639356,3.17953 z m -11.007482,0.002 -3.640827,-3.18101 3.641644,-3.18116 3.640664,3.18067 z m -1.863486,1.62793 -3.64099,3.18101 -3.641154,-3.18133 3.64099,-3.18068 z m -5.504313,4.8091 -2.436753,2.12896 v -4.25791 z m 7.365347,6.43541 2.237982,1.95535 h -4.476127 z m 11.00928,1.6e-4 2.237818,1.95519 h -4.475963 z m 11.009933,-6.5e-4 2.238799,1.956 h -4.477761 z m 11.00552,0.001 2.237327,1.9547 h -4.474655 z m 11.008626,-3.3e-4 2.237818,1.95503 h -4.475636 z m 11.009279,-3.2e-4 2.238145,1.95535 h -4.476126 z m 7.366001,-6.43557 2.379541,-2.07893 v 4.15786 z m -1.401211,8.39092 -4.101467,-3.58329 3.639355,-3.17969 4.242864,3.7067 v 3.05628 z M 72.043324,13.65895 69.806323,11.70458 h 4.473838 z M 61.037477,13.65879 58.80064,11.70458 h 4.473674 z m -11.00928,-1.6e-4 -2.236673,-1.95405 h 4.473347 z m -11.009279,1.6e-4 -2.236837,-1.95421 h 4.473674 z m -11.004703,-6.5e-4 -2.236183,-1.95356 h 4.472203 z m -11.008952,8.1e-4 -2.236837,-1.95437 h 4.473837 z M 85.544117,9.25263 h -2.889221 c -0.677066,0 -1.225978,0.54891 -1.225978,1.22597 0,0.67707 0.548912,1.22598 1.225978,1.22598 h 2.634217 L 83.05244,13.65863 79.273813,10.35731 C 79.213003,9.73713 78.690084,9.25246 78.053884,9.25246 H 77.58981 c -0.01095,-3.2e-4 -0.0219,0 -0.03269,0 h -0.01749 c -0.01128,0 -0.02239,-3.2e-4 -0.03367,0 H 55.575011 c -0.01177,-3.2e-4 -0.02338,0 -0.03514,0 h -0.01537 c -0.01128,0 -0.02239,-3.2e-4 -0.03367,0 H 44.686204 c -0.102165,-0.0127 -0.205637,-0.0132 -0.308292,0 H 22.553547 c -0.0134,-4.9e-4 -0.02681,0 -0.04038,0 h -0.01226 c -0.01079,0 -0.02158,-3.2e-4 -0.03237,0 H 14.455883 V 6.45151 H 85.54428 V 9.25263 Z M 10.252905,13.4556 v 6.44456 c -0.0088,0.0649 -0.01193,0.13012 -0.01046,0.1955 -0.0016,0.0652 0.0016,0.13045 0.01046,0.19551 v 9.28964 c -0.01455,0.1087 -0.01487,0.21904 0,0.32807 v 4.61115 c 0,4.9e-4 0,9.8e-4 0,0.002 0,6.5e-4 0,9.8e-4 0,0.002 V 45.5528 H 7.4519543 V 13.45588 Z m 79.49419,32.09675 V 34.52477 c 0,-9.8e-4 1.64e-4,-0.002 1.64e-4,-0.003 0,-9.8e-4 -1.64e-4,-0.002 -1.64e-4,-0.003 V 13.45582 h 2.800951 v 32.09675 z m 2.800951,-34.5487 H 87.996072 V 6.45184 h 3.276466 c 0.703221,0 1.275344,0.57212 1.275344,1.27534 v 3.27647 z M 7.4519543,48.00459 H 12.003928 V 52.5564 H 8.7272981 c -0.7032208,0 -1.2753438,-0.57212 -1.2753438,-1.27534 z m 14.6770777,8.36378 h -5.080615 v -1.36002 h 5.080615 z m 60.862763,0 h -5.080779 v -1.36002 h 5.080779 z M 71.729147,37.47933 c -2.231116,0 -4.046217,1.8151 -4.046217,4.04621 0,2.23112 1.815101,4.04622 4.046217,4.04622 2.231115,0 4.046216,-1.8151 4.046216,-4.04622 0,-2.23111 -1.815101,-4.04621 -4.046216,-4.04621 z m 0,5.64064 c -0.879108,0 -1.594262,-0.71516 -1.594262,-1.59426 0,-0.87911 0.715154,-1.59427 1.594262,-1.59427 0.879107,0 1.594261,0.71516 1.594261,1.59427 0,0.8791 -0.715154,1.59426 -1.594261,1.59426 z m 8.722422,-4.72345 c -1.649022,0 -2.990732,1.34171 -2.990732,2.99057 0,1.64902 1.34171,2.99073 2.990732,2.99073 1.649022,0 2.990568,-1.34171 2.990568,-2.99073 0,-1.64902 -1.34171,-2.99057 -2.990568,-2.99057 z m 0,3.52934 c -0.297013,0 -0.538776,-0.24176 -0.538776,-0.53877 0,-0.29701 0.241763,-0.53861 0.538776,-0.53861 0.297014,0 0.538613,0.24176 0.538613,0.53861 0,0.29718 -0.241763,0.53877 -0.538613,0.53877 z M 43.56566,37.47933 c -2.231115,0 -4.046216,1.8151 -4.046216,4.04621 0,2.23112 1.815101,4.04622 4.046216,4.04622 2.231116,0 4.046217,-1.8151 4.046217,-4.04622 0,-2.23111 -1.815101,-4.04621 -4.046217,-4.04621 z m 0,5.64064 c -0.879107,0 -1.594261,-0.71516 -1.594261,-1.59426 0,-0.87911 0.715154,-1.59427 1.594261,-1.59427 0.879108,0 1.594262,0.71516 1.594262,1.59427 0,0.8791 -0.715154,1.59426 -1.594262,1.59426 z m 18.775767,-5.64048 c -1.080822,0 -2.096912,0.42092 -2.861105,1.18511 -0.764193,0.76419 -1.185112,1.78028 -1.185112,2.86111 0,1.08082 0.420919,2.09691 1.185112,2.8611 0.764193,0.76419 1.780283,1.18511 2.861105,1.18511 1.080822,0 2.096912,-0.42092 2.861105,-1.18511 0.764193,-0.76419 1.185112,-1.78028 1.185112,-2.8611 0,-1.08083 -0.420919,-2.09692 -1.185112,-2.86111 -0.764356,-0.76419 -1.780447,-1.18511 -2.861105,-1.18511 z m 1.127245,5.17346 c -0.3011,0.3011 -0.701586,0.46685 -1.127245,0.46685 -0.425823,0 -0.826146,-0.16575 -1.127246,-0.46685 -0.3011,-0.3011 -0.466852,-0.70158 -0.466852,-1.12724 0,-0.42583 0.165752,-0.82615 0.467016,-1.12725 0.3011,-0.3011 0.701422,-0.46685 1.127245,-0.46685 0.425823,0 0.826146,0.16575 1.127246,0.46701 0.3011,0.3011 0.466852,0.70143 0.466852,1.12725 -1.63e-4,0.42566 -0.165915,0.82598 -0.467016,1.12708 z m -32.152,-3.98851 c -0.764192,0.76419 -1.185111,1.78028 -1.185111,2.8611 0,1.08082 0.420919,2.09691 1.185111,2.86111 0.788876,0.78887 1.824909,1.18315 2.861105,1.18315 1.036197,0 2.072229,-0.39444 2.861105,-1.18315 0.764193,-0.7642 1.185112,-1.78029 1.185112,-2.86111 0,-1.08082 -0.420919,-2.09691 -1.185112,-2.8611 -1.577588,-1.57743 -4.144458,-1.57726 -5.72221,0 z m 3.988351,3.98851 c -0.621653,0.62165 -1.633002,0.62165 -2.254655,0 -0.3011,-0.3011 -0.466852,-0.70158 -0.466852,-1.12724 0,-0.42583 0.165752,-0.82615 0.466852,-1.12725 0.310745,-0.31074 0.719077,-0.4662 1.127246,-0.4662 0.408169,0 0.816501,0.15546 1.127245,0.46636 0.301101,0.3011 0.466853,0.70143 0.466853,1.12725 3.27e-4,0.42566 -0.165589,0.82598 -0.466689,1.12708 z m 14.787252,-3.98851 c -0.764193,0.76419 -1.185112,1.78028 -1.185112,2.8611 0,1.08082 0.420919,2.09691 1.185112,2.86111 0.788876,0.78887 1.824909,1.18315 2.861105,1.18315 1.036197,0 2.072229,-0.39444 2.861105,-1.18315 0.764193,-0.7642 1.185112,-1.78029 1.185112,-2.86111 0,-1.08082 -0.420919,-2.09691 -1.185112,-2.8611 -1.577424,-1.57743 -4.144295,-1.57726 -5.72221,0 z m 3.988514,3.98851 c -0.621652,0.62165 -1.633002,0.62165 -2.254654,0 -0.301101,-0.3011 -0.466853,-0.70158 -0.466853,-1.12724 0,-0.42583 0.165752,-0.82615 0.466853,-1.12725 0.310744,-0.31074 0.719076,-0.4662 1.127245,-0.4662 0.408169,0 0.816501,0.15546 1.127246,0.46636 0.3011,0.3011 0.466852,0.70143 0.466852,1.12725 1.64e-4,0.42566 -0.165589,0.82598 -0.466689,1.12708 z M 19.548431,36.60463 H 15.56008 c -0.677066,0 -1.225977,0.54891 -1.225977,1.22598 v 7.38987 c 0,0.67706 0.548911,1.22597 1.225977,1.22597 h 3.988351 c 0.677066,0 1.225978,-0.54891 1.225978,-1.22597 v -7.38987 c 0,-0.67707 -0.548748,-1.22598 -1.225978,-1.22598 z m -1.225978,3.6951 h -1.536395 v -1.24298 h 1.536395 z m -1.536395,2.45195 h 1.536395 v 1.24298 h -1.536395 z m 9.727234,-6.14705 h -3.988514 c -0.677067,0 -1.225978,0.54891 -1.225978,1.22598 v 7.38987 c 0,0.67706 0.548911,1.22597 1.225978,1.22597 h 3.988514 c 0.677066,0 1.225977,-0.54891 1.225977,-1.22597 v -7.38987 c 0,-0.67707 -0.548911,-1.22598 -1.225977,-1.22598 z m -1.225978,3.6951 h -1.536559 v -1.24298 h 1.536559 z m -1.536559,2.45195 h 1.536559 v 1.24298 h -1.536559 z"
   id="path1"
   style="stroke-width:1" />
</svg>
