<svg xmlns="http://www.w3.org/2000/svg" width="40" height="50">
    <path d="M3.125 20.078a.705.705 0 0 0-.703.703v2.813c0 .386.316.703.703.703a.705.705 0 0 0 .703-.703V20.78a.705.705 0 0 0-.703-.703m33.75 0a.705.705 0 0 0-.703.703v2.813c0 .386.316.703.703.703a.705.705 0 0 0 .703-.703V20.78a.705.705 0 0 0-.703-.703m-8.437-9.844a2.11 2.11 0 1 0 0 4.219 2.11 2.11 0 0 0 0-4.219m-5.625 0a2.11 2.11 0 1 0 0 4.219 2.11 2.11 0 0 0 0-4.219m-5.625 0a2.11 2.11 0 1 0 0 4.219 2.11 2.11 0 0 0 0-4.219m-5.625 0a2.11 2.11 0 1 0 0 4.219 2.11 2.11 0 0 0 0-4.219m20.39 7.735a.704.704 0 0 1-.703.703H8.75a.704.704 0 0 1-.703-.703V6.719c0-.388.316-.703.703-.703h22.5c.387 0 .703.315.703.703zM31.25 5.312H8.75A1.41 1.41 0 0 0 7.344 6.72v11.25a1.41 1.41 0 0 0 1.406 1.406h22.5a1.41 1.41 0 0 0 1.406-1.406V6.719a1.41 1.41 0 0 0-1.406-1.407M8.047 44.689h23.906a.705.705 0 0 0 .703-.704V28.516a.705.705 0 0 0-.703-.703H8.047a.705.705 0 0 0-.703.703v15.468c0 .387.316.703.703.703m26.016-18.985H5.936V6.016c0-1.163.947-2.11 2.11-2.11h23.906c1.163 0 2.11.947 2.11 2.11zm0 18.281c0 1.163-.947 2.11-2.11 2.11H8.047a2.11 2.11 0 0 1-2.11-2.11V26.406h28.126zM31.953 2.5H8.047A3.526 3.526 0 0 0 4.53 6.016v37.968A3.526 3.526 0 0 0 8.047 47.5h23.906a3.526 3.526 0 0 0 3.516-3.516V6.016A3.526 3.526 0 0 0 31.953 2.5" style="fill:#000;fill-rule:evenodd;stroke:none;stroke-width:.703125"/>
</svg>
