<?xml version="1.0" encoding="UTF-8" standalone="no"?>
<!-- Uploaded to: SVG Repo, www.svgrepo.com, Generator: SVG Repo Mixer Tools -->

<svg
   fill="#000000"
   width="100"
   height="90"
   viewBox="0 0 100 90"
   version="1.1"
   id="svg1"
   sodipodi:docname="guitar_amp_1.svg"
   inkscape:version="1.3.2 (091e20e, 2023-11-25)"
   xmlns:inkscape="http://www.inkscape.org/namespaces/inkscape"
   xmlns:sodipodi="http://sodipodi.sourceforge.net/DTD/sodipodi-0.dtd"
   xmlns="http://www.w3.org/2000/svg"
   xmlns:svg="http://www.w3.org/2000/svg">
  <defs
     id="defs1" />
  <sodipodi:namedview
     id="namedview1"
     pagecolor="#ffffff"
     bordercolor="#000000"
     borderopacity="0.25"
     inkscape:showpageshadow="2"
     inkscape:pageopacity="0.0"
     inkscape:pagecheckerboard="0"
     inkscape:deskcolor="#d1d1d1"
     inkscape:current-layer="svg1" />
  <path
     d="m 50,2.0000001 c -6.155717,0 -11.921608,3.5624174 -12.756353,4.0884214 H 33.646314 A 2.0444151,2.0444151 0 0 0 31.574155,8.132632 H 11.159997 c -3.3626649,0 -6.1326321,2.769967 -6.1326321,6.132632 v 13.966111 a 2.0444151,2.0444151 0 0 0 0,0.666764 v 50.781868 c 0,3.362665 2.7699672,6.132632 6.1326321,6.132632 v 2.04421 h 8.176843 v -2.04421 h 61.326321 v 2.04421 h 8.176842 v -2.04421 c 3.362666,0 6.132632,-2.769967 6.132632,-6.132632 V 28.918103 a 2.0444151,2.0444151 0 0 0 0,-0.666764 V 14.265264 c 0,-3.362665 -2.769966,-6.132632 -6.132632,-6.132632 H 68.425845 A 2.0444151,2.0444151 0 0 0 66.353686,6.0884215 H 62.756353 C 61.921608,5.5624175 56.155717,2.0000001 50,2.0000001 Z m 0,4.0884214 c 2.450622,0 5.383474,1.0460523 7.657806,2.0442105 H 42.342195 C 44.616526,7.1344738 47.549378,6.0884215 50,6.0884215 Z M 11.159997,12.221054 h 77.680006 c 1.155041,0 2.044211,0.88917 2.044211,2.04421 V 26.530528 H 9.1157863 V 14.265264 c 0,-1.15504 0.8891697,-2.04421 2.0442107,-2.04421 z m 5.110527,4.088421 a 3.066316,3.066316 0 0 0 -3.066317,3.066316 3.066316,3.066316 0 0 0 3.066317,3.066316 3.066316,3.066316 0 0 0 3.066316,-3.066316 3.066316,3.066316 0 0 0 -3.066316,-3.066316 z m 7.154737,0 v 6.132632 h 4.088421 v -6.132632 z m 8.176843,0 v 6.132632 h 4.088421 v -6.132632 z m 8.176843,0 v 6.132632 h 4.088421 v -6.132632 z m 13.287369,0 A 3.066316,3.066316 0 0 0 50,19.375791 a 3.066316,3.066316 0 0 0 3.066316,3.066316 3.066316,3.066316 0 0 0 3.066316,-3.066316 3.066316,3.066316 0 0 0 -3.066316,-3.066316 z m 10.221054,0 a 3.066316,3.066316 0 0 0 -3.066316,3.066316 3.066316,3.066316 0 0 0 3.066316,3.066316 3.066316,3.066316 0 0 0 3.066316,-3.066316 3.066316,3.066316 0 0 0 -3.066316,-3.066316 z m 10.221053,0 a 3.066316,3.066316 0 0 0 -3.066316,3.066316 3.066316,3.066316 0 0 0 3.066316,3.066316 3.066316,3.066316 0 0 0 3.066316,-3.066316 3.066316,3.066316 0 0 0 -3.066316,-3.066316 z m 10.221054,0 a 3.066316,3.066316 0 0 0 -3.066316,3.066316 3.066316,3.066316 0 0 0 3.066316,3.066316 3.066316,3.066316 0 0 0 3.066316,-3.066316 3.066316,3.066316 0 0 0 -3.066316,-3.066316 z M 9.1157863,30.61895 H 90.884214 v 49.061057 c 0,1.15504 -0.88917,2.04421 -2.044211,2.04421 H 11.159997 c -1.155041,0 -2.0442107,-0.88917 -2.0442107,-2.04421 z M 19.33684,32.663161 a 2.0442107,2.0442107 0 0 0 -2.044211,2.04421 2.0442107,2.0442107 0 0 0 2.044211,2.044211 2.0442107,2.0442107 0 0 0 2.04421,-2.044211 2.0442107,2.0442107 0 0 0 -2.04421,-2.04421 z m 12.265264,0 a 2.0442107,2.0442107 0 0 0 -2.044211,2.04421 2.0442107,2.0442107 0 0 0 2.044211,2.044211 2.0442107,2.0442107 0 0 0 2.04421,-2.044211 2.0442107,2.0442107 0 0 0 -2.04421,-2.04421 z m 12.265264,0 a 2.0442107,2.0442107 0 0 0 -2.044211,2.04421 2.0442107,2.0442107 0 0 0 2.044211,2.044211 2.0442107,2.0442107 0 0 0 2.044211,-2.044211 2.0442107,2.0442107 0 0 0 -2.044211,-2.04421 z m 12.265264,0 a 2.0442107,2.0442107 0 0 0 -2.044211,2.04421 2.0442107,2.0442107 0 0 0 2.044211,2.044211 2.0442107,2.0442107 0 0 0 2.044211,-2.044211 2.0442107,2.0442107 0 0 0 -2.044211,-2.04421 z m 12.265264,0 a 2.0442107,2.0442107 0 0 0 -2.04421,2.04421 2.0442107,2.0442107 0 0 0 2.04421,2.044211 2.0442107,2.0442107 0 0 0 2.044211,-2.044211 2.0442107,2.0442107 0 0 0 -2.044211,-2.04421 z m 12.265265,0 a 2.0442107,2.0442107 0 0 0 -2.044211,2.04421 2.0442107,2.0442107 0 0 0 2.044211,2.044211 2.0442107,2.0442107 0 0 0 2.04421,-2.044211 2.0442107,2.0442107 0 0 0 -2.04421,-2.04421 z m -67.458954,6.132632 a 2.0442107,2.0442107 0 0 0 -2.04421,2.04421 2.0442107,2.0442107 0 0 0 2.04421,2.044211 2.0442107,2.0442107 0 0 0 2.044211,-2.044211 2.0442107,2.0442107 0 0 0 -2.044211,-2.04421 z m 12.265265,0 a 2.0442107,2.0442107 0 0 0 -2.044211,2.04421 2.0442107,2.0442107 0 0 0 2.044211,2.044211 2.0442107,2.0442107 0 0 0 2.04421,-2.044211 2.0442107,2.0442107 0 0 0 -2.04421,-2.04421 z m 12.265264,0 a 2.0442107,2.0442107 0 0 0 -2.044211,2.04421 2.0442107,2.0442107 0 0 0 2.044211,2.044211 2.0442107,2.0442107 0 0 0 2.044211,-2.044211 2.0442107,2.0442107 0 0 0 -2.044211,-2.04421 z m 12.265264,0 A 2.0442107,2.0442107 0 0 0 47.955789,40.840003 2.0442107,2.0442107 0 0 0 50,42.884214 2.0442107,2.0442107 0 0 0 52.044211,40.840003 2.0442107,2.0442107 0 0 0 50,38.795793 Z m 12.265264,0 a 2.0442107,2.0442107 0 0 0 -2.04421,2.04421 2.0442107,2.0442107 0 0 0 2.04421,2.044211 2.0442107,2.0442107 0 0 0 2.044211,-2.044211 2.0442107,2.0442107 0 0 0 -2.044211,-2.04421 z m 12.265264,0 a 2.0442107,2.0442107 0 0 0 -2.04421,2.04421 2.0442107,2.0442107 0 0 0 2.04421,2.044211 2.0442107,2.0442107 0 0 0 2.044211,-2.044211 2.0442107,2.0442107 0 0 0 -2.044211,-2.04421 z m 12.265265,0 a 2.0442107,2.0442107 0 0 0 -2.044211,2.04421 2.0442107,2.0442107 0 0 0 2.044211,2.044211 2.0442107,2.0442107 0 0 0 2.04421,-2.044211 2.0442107,2.0442107 0 0 0 -2.04421,-2.04421 z M 19.33684,44.928425 a 2.0442107,2.0442107 0 0 0 -2.044211,2.04421 2.0442107,2.0442107 0 0 0 2.044211,2.044211 2.0442107,2.0442107 0 0 0 2.04421,-2.044211 2.0442107,2.0442107 0 0 0 -2.04421,-2.04421 z m 12.265264,0 a 2.0442107,2.0442107 0 0 0 -2.044211,2.04421 2.0442107,2.0442107 0 0 0 2.044211,2.044211 2.0442107,2.0442107 0 0 0 2.04421,-2.044211 2.0442107,2.0442107 0 0 0 -2.04421,-2.04421 z m 12.265264,0 a 2.0442107,2.0442107 0 0 0 -2.044211,2.04421 2.0442107,2.0442107 0 0 0 2.044211,2.044211 2.0442107,2.0442107 0 0 0 2.044211,-2.044211 2.0442107,2.0442107 0 0 0 -2.044211,-2.04421 z m 12.265264,0 a 2.0442107,2.0442107 0 0 0 -2.044211,2.04421 2.0442107,2.0442107 0 0 0 2.044211,2.044211 2.0442107,2.0442107 0 0 0 2.044211,-2.044211 2.0442107,2.0442107 0 0 0 -2.044211,-2.04421 z m 12.265264,0 a 2.0442107,2.0442107 0 0 0 -2.04421,2.04421 2.0442107,2.0442107 0 0 0 2.04421,2.044211 2.0442107,2.0442107 0 0 0 2.044211,-2.044211 2.0442107,2.0442107 0 0 0 -2.044211,-2.04421 z m 12.265265,0 a 2.0442107,2.0442107 0 0 0 -2.044211,2.04421 2.0442107,2.0442107 0 0 0 2.044211,2.044211 2.0442107,2.0442107 0 0 0 2.04421,-2.044211 2.0442107,2.0442107 0 0 0 -2.04421,-2.04421 z m -67.458954,6.132632 a 2.0442107,2.0442107 0 0 0 -2.04421,2.044211 2.0442107,2.0442107 0 0 0 2.04421,2.04421 2.0442107,2.0442107 0 0 0 2.044211,-2.04421 2.0442107,2.0442107 0 0 0 -2.044211,-2.044211 z m 12.265265,0 a 2.0442107,2.0442107 0 0 0 -2.044211,2.044211 2.0442107,2.0442107 0 0 0 2.044211,2.04421 2.0442107,2.0442107 0 0 0 2.04421,-2.04421 2.0442107,2.0442107 0 0 0 -2.04421,-2.044211 z m 12.265264,0 a 2.0442107,2.0442107 0 0 0 -2.044211,2.044211 2.0442107,2.0442107 0 0 0 2.044211,2.04421 2.0442107,2.0442107 0 0 0 2.044211,-2.04421 2.0442107,2.0442107 0 0 0 -2.044211,-2.044211 z m 12.265264,0 A 2.0442107,2.0442107 0 0 0 47.955789,53.105268 2.0442107,2.0442107 0 0 0 50,55.149478 2.0442107,2.0442107 0 0 0 52.044211,53.105268 2.0442107,2.0442107 0 0 0 50,51.061057 Z m 12.265264,0 a 2.0442107,2.0442107 0 0 0 -2.04421,2.044211 2.0442107,2.0442107 0 0 0 2.04421,2.04421 2.0442107,2.0442107 0 0 0 2.044211,-2.04421 2.0442107,2.0442107 0 0 0 -2.044211,-2.044211 z m 12.265264,0 a 2.0442107,2.0442107 0 0 0 -2.04421,2.044211 2.0442107,2.0442107 0 0 0 2.04421,2.04421 2.0442107,2.0442107 0 0 0 2.044211,-2.04421 2.0442107,2.0442107 0 0 0 -2.044211,-2.044211 z m 12.265265,0 a 2.0442107,2.0442107 0 0 0 -2.044211,2.044211 2.0442107,2.0442107 0 0 0 2.044211,2.04421 2.0442107,2.0442107 0 0 0 2.04421,-2.04421 2.0442107,2.0442107 0 0 0 -2.04421,-2.044211 z M 19.33684,57.193689 a 2.0442107,2.0442107 0 0 0 -2.044211,2.044211 2.0442107,2.0442107 0 0 0 2.044211,2.04421 2.0442107,2.0442107 0 0 0 2.04421,-2.04421 2.0442107,2.0442107 0 0 0 -2.04421,-2.044211 z m 12.265264,0 a 2.0442107,2.0442107 0 0 0 -2.044211,2.044211 2.0442107,2.0442107 0 0 0 2.044211,2.04421 2.0442107,2.0442107 0 0 0 2.04421,-2.04421 2.0442107,2.0442107 0 0 0 -2.04421,-2.044211 z m 12.265264,0 a 2.0442107,2.0442107 0 0 0 -2.044211,2.044211 2.0442107,2.0442107 0 0 0 2.044211,2.04421 2.0442107,2.0442107 0 0 0 2.044211,-2.04421 2.0442107,2.0442107 0 0 0 -2.044211,-2.044211 z m 12.265264,0 a 2.0442107,2.0442107 0 0 0 -2.044211,2.044211 2.0442107,2.0442107 0 0 0 2.044211,2.04421 2.0442107,2.0442107 0 0 0 2.044211,-2.04421 2.0442107,2.0442107 0 0 0 -2.044211,-2.044211 z m 12.265264,0 a 2.0442107,2.0442107 0 0 0 -2.04421,2.044211 2.0442107,2.0442107 0 0 0 2.04421,2.04421 2.0442107,2.0442107 0 0 0 2.044211,-2.04421 2.0442107,2.0442107 0 0 0 -2.044211,-2.044211 z m 12.265265,0 a 2.0442107,2.0442107 0 0 0 -2.044211,2.044211 2.0442107,2.0442107 0 0 0 2.044211,2.04421 2.0442107,2.0442107 0 0 0 2.04421,-2.04421 2.0442107,2.0442107 0 0 0 -2.04421,-2.044211 z m -67.458954,6.132632 a 2.0442107,2.0442107 0 0 0 -2.04421,2.044211 2.0442107,2.0442107 0 0 0 2.04421,2.044211 2.0442107,2.0442107 0 0 0 2.044211,-2.044211 2.0442107,2.0442107 0 0 0 -2.044211,-2.044211 z m 12.265265,0 a 2.0442107,2.0442107 0 0 0 -2.044211,2.044211 2.0442107,2.0442107 0 0 0 2.044211,2.044211 2.0442107,2.0442107 0 0 0 2.04421,-2.044211 2.0442107,2.0442107 0 0 0 -2.04421,-2.044211 z m 12.265264,0 a 2.0442107,2.0442107 0 0 0 -2.044211,2.044211 2.0442107,2.0442107 0 0 0 2.044211,2.044211 2.0442107,2.0442107 0 0 0 2.044211,-2.044211 2.0442107,2.0442107 0 0 0 -2.044211,-2.044211 z m 12.265264,0 A 2.0442107,2.0442107 0 0 0 47.955789,65.370532 2.0442107,2.0442107 0 0 0 50,67.414743 2.0442107,2.0442107 0 0 0 52.044211,65.370532 2.0442107,2.0442107 0 0 0 50,63.326321 Z m 12.265264,0 a 2.0442107,2.0442107 0 0 0 -2.04421,2.044211 2.0442107,2.0442107 0 0 0 2.04421,2.044211 2.0442107,2.0442107 0 0 0 2.044211,-2.044211 2.0442107,2.0442107 0 0 0 -2.044211,-2.044211 z m 12.265264,0 a 2.0442107,2.0442107 0 0 0 -2.04421,2.044211 2.0442107,2.0442107 0 0 0 2.04421,2.044211 2.0442107,2.0442107 0 0 0 2.044211,-2.044211 2.0442107,2.0442107 0 0 0 -2.044211,-2.044211 z m 12.265265,0 a 2.0442107,2.0442107 0 0 0 -2.044211,2.044211 2.0442107,2.0442107 0 0 0 2.044211,2.044211 2.0442107,2.0442107 0 0 0 2.04421,-2.044211 2.0442107,2.0442107 0 0 0 -2.04421,-2.044211 z M 19.33684,69.458953 a 2.0442107,2.0442107 0 0 0 -2.044211,2.044211 2.0442107,2.0442107 0 0 0 2.044211,2.044211 2.0442107,2.0442107 0 0 0 2.04421,-2.044211 2.0442107,2.0442107 0 0 0 -2.04421,-2.044211 z m 12.265264,0 a 2.0442107,2.0442107 0 0 0 -2.044211,2.044211 2.0442107,2.0442107 0 0 0 2.044211,2.044211 2.0442107,2.0442107 0 0 0 2.04421,-2.044211 2.0442107,2.0442107 0 0 0 -2.04421,-2.044211 z m 12.265264,0 a 2.0442107,2.0442107 0 0 0 -2.044211,2.044211 2.0442107,2.0442107 0 0 0 2.044211,2.044211 2.0442107,2.0442107 0 0 0 2.044211,-2.044211 2.0442107,2.0442107 0 0 0 -2.044211,-2.044211 z m 12.265264,0 a 2.0442107,2.0442107 0 0 0 -2.044211,2.044211 2.0442107,2.0442107 0 0 0 2.044211,2.044211 2.0442107,2.0442107 0 0 0 2.044211,-2.044211 2.0442107,2.0442107 0 0 0 -2.044211,-2.044211 z m 12.265264,0 a 2.0442107,2.0442107 0 0 0 -2.04421,2.044211 2.0442107,2.0442107 0 0 0 2.04421,2.044211 2.0442107,2.0442107 0 0 0 2.044211,-2.044211 2.0442107,2.0442107 0 0 0 -2.044211,-2.044211 z m 12.265265,0 a 2.0442107,2.0442107 0 0 0 -2.044211,2.044211 2.0442107,2.0442107 0 0 0 2.044211,2.044211 2.0442107,2.0442107 0 0 0 2.04421,-2.044211 2.0442107,2.0442107 0 0 0 -2.04421,-2.044211 z m -67.458954,6.132632 a 2.0442107,2.0442107 0 0 0 -2.04421,2.044211 2.0442107,2.0442107 0 0 0 2.04421,2.044211 2.0442107,2.0442107 0 0 0 2.044211,-2.044211 2.0442107,2.0442107 0 0 0 -2.044211,-2.044211 z m 12.265265,0 a 2.0442107,2.0442107 0 0 0 -2.044211,2.044211 2.0442107,2.0442107 0 0 0 2.044211,2.044211 2.0442107,2.0442107 0 0 0 2.04421,-2.044211 2.0442107,2.0442107 0 0 0 -2.04421,-2.044211 z m 12.265264,0 a 2.0442107,2.0442107 0 0 0 -2.044211,2.044211 2.0442107,2.0442107 0 0 0 2.044211,2.044211 2.0442107,2.0442107 0 0 0 2.044211,-2.044211 2.0442107,2.0442107 0 0 0 -2.044211,-2.044211 z m 12.265264,0 A 2.0442107,2.0442107 0 0 0 47.955789,77.635796 2.0442107,2.0442107 0 0 0 50,79.680007 2.0442107,2.0442107 0 0 0 52.044211,77.635796 2.0442107,2.0442107 0 0 0 50,75.591585 Z m 12.265264,0 a 2.0442107,2.0442107 0 0 0 -2.04421,2.044211 2.0442107,2.0442107 0 0 0 2.04421,2.044211 2.0442107,2.0442107 0 0 0 2.044211,-2.044211 2.0442107,2.0442107 0 0 0 -2.044211,-2.044211 z m 12.265264,0 a 2.0442107,2.0442107 0 0 0 -2.04421,2.044211 2.0442107,2.0442107 0 0 0 2.04421,2.044211 2.0442107,2.0442107 0 0 0 2.044211,-2.044211 2.0442107,2.0442107 0 0 0 -2.044211,-2.044211 z m 12.265265,0 a 2.0442107,2.0442107 0 0 0 -2.044211,2.044211 2.0442107,2.0442107 0 0 0 2.044211,2.044211 2.0442107,2.0442107 0 0 0 2.04421,-2.044211 2.0442107,2.0442107 0 0 0 -2.04421,-2.044211 z"
     id="path1"
     style="stroke-width:0.999999"
     inkscape:label="amp" />
</svg>
