<svg xmlns="http://www.w3.org/2000/svg" width="20" height="45">
    <path d="M2.852 2.5C1.654 2.5.766 3.294.766 4.218v36.564c0 .924.888 1.718 2.086 1.718h14.296c1.198 0 2.086-.794 2.086-1.718V4.218c0-.924-.888-1.718-2.086-1.718Zm0 1.242h14.296c.46 0 .844.24.844.476v36.564c0 .236-.385.476-.844.476H2.852c-.46 0-.844-.24-.844-.476V4.218c0-.236.385-.476.844-.476M10 9.154a.931.931 0 1 0 0 1.863.931.931 0 0 0 0-1.863m-.31 6.223A3.413 3.413 0 0 0 10 22.19a3.414 3.414 0 0 0 .31-6.813v3.398c0 .406-.62.406-.62 0zm-6.208 13.64c-.406 0-.406 1.242 0 1.242h13.036c.406 0 .406-1.241 0-1.241zM10 32.743a3.104 3.104 0 1 0 0 6.209 3.104 3.104 0 0 0 0-6.209m0 .621a2.486 2.486 0 0 1 2.483 2.483A2.486 2.486 0 0 1 10 38.33a2.486 2.486 0 0 1-2.483-2.483A2.486 2.486 0 0 1 10 33.363m0 .621a1.862 1.862 0 1 0 0 3.724 1.862 1.862 0 0 0 0-3.724" style="color:#000;fill:#010101;stroke-width:0;stroke-linecap:round;stroke-linejoin:round;stroke-miterlimit:4.7;stroke-dasharray:none"/>
</svg>
