<?xml version="1.0" encoding="UTF-8" standalone="no"?>
<!-- Uploaded to: SVG Repo, www.svgrepo.com, Generator: SVG Repo Mixer Tools -->

<svg
   width="35"
   height="45"
   viewBox="0 0 35 45"
   version="1.1"
   id="svg1"
   sodipodi:docname="guitar_pedal_2.svg"
   inkscape:version="1.3.2 (091e20e, 2023-11-25)"
   xmlns:inkscape="http://www.inkscape.org/namespaces/inkscape"
   xmlns:sodipodi="http://sodipodi.sourceforge.net/DTD/sodipodi-0.dtd"
   xmlns="http://www.w3.org/2000/svg"
   xmlns:svg="http://www.w3.org/2000/svg"
   xmlns:rdf="http://www.w3.org/1999/02/22-rdf-syntax-ns#"
   xmlns:cc="http://creativecommons.org/ns#"
   xmlns:dc="http://purl.org/dc/elements/1.1/"
   xmlns:sketch="http://www.bohemiancoding.com/sketch/ns">
  <sodipodi:namedview
     id="namedview1"
     pagecolor="#ffffff"
     bordercolor="#000000"
     borderopacity="0.25"
     inkscape:showpageshadow="2"
     inkscape:pageopacity="0.0"
     inkscape:pagecheckerboard="0"
     inkscape:deskcolor="#d1d1d1"
     inkscape:current-layer="svg1" />
  <title
     id="title1">Guitar Pedal 2</title>
  <desc
     id="desc1">Created with Sketch.</desc>
  <defs
     id="defs1" />
  <path
     d="m 26.5625,13.125 c 1.793125,0 3.26375,-1.373125 3.421875,-3.125 H 26.5625 C 26.39,10 26.25,9.86 26.25,9.6875 26.25,9.515 26.39,9.375 26.5625,9.375 h 3.421875 C 29.82625,7.623125 28.355625,6.25 26.5625,6.25 c -1.89875,0 -3.4375,1.53875 -3.4375,3.4375 0,1.89875 1.53875,3.4375 3.4375,3.4375 z m -18.125,0 c 1.89875,0 3.4375,-1.53875 3.4375,-3.4375 0,-1.793125 -1.373125,-3.26375 -3.125,-3.421875 V 9.6875 C 8.75,9.86 8.61,10 8.4375,10 8.265,10 8.125,9.86 8.125,9.6875 V 6.265625 C 6.373125,6.42375 5,7.894375 5,9.6875 5,11.58625 6.53875,13.125 8.4375,13.125 Z M 30.625,28.75 H 4.375 C 4.03,28.75 3.75,29.03 3.75,29.375 3.75,29.72 4.03,30 4.375,30 h 26.25 c 0.345,0 0.625,-0.28 0.625,-0.625 0,-0.345 -0.28,-0.625 -0.625,-0.625 z M 17.1875,10.625 c 0.5175,0 0.9375,-0.42 0.9375,-0.9375 C 18.125,9.17 17.705,8.75 17.1875,8.75 16.67,8.75 16.25,9.17 16.25,9.6875 c 0,0.5175 0.42,0.9375 0.9375,0.9375 z m 0,11.25 c 1.89875,0 3.4375,-1.53875 3.4375,-3.4375 0,-1.793125 -1.373125,-3.26375 -3.125,-3.421875 V 18.4375 c 0,0.1725 -0.14,0.3125 -0.3125,0.3125 -0.1725,0 -0.3125,-0.14 -0.3125,-0.3125 v -3.421875 c -1.751875,0.158125 -3.125,1.62875 -3.125,3.421875 0,1.89875 1.53875,3.4375 3.4375,3.4375 z M 17.5,38.125 c -1.37875,0 -2.5,-1.12125 -2.5,-2.5 0,-1.37875 1.12125,-2.5 2.5,-2.5 1.37875,0 2.5,1.12125 2.5,2.5 0,1.37875 -1.12125,2.5 -2.5,2.5 z m 0,-5.625 c -1.725625,0 -3.125,1.399375 -3.125,3.125 0,1.725625 1.399375,3.125 3.125,3.125 1.725625,0 3.125,-1.399375 3.125,-3.125 0,-1.725625 -1.399375,-3.125 -3.125,-3.125 z m 0,1.25 c -1.035625,0 -1.875,0.839375 -1.875,1.875 0,1.035625 0.839375,1.875 1.875,1.875 1.035625,0 1.875,-0.839375 1.875,-1.875 0,-1.035625 -0.839375,-1.875 -1.875,-1.875 z m 15,5.625 c 0,1.03375 -0.84125,1.875 -1.875,1.875 H 4.375 C 3.34125,41.25 2.5,40.40875 2.5,39.375 V 5.625 C 2.5,4.59125 3.34125,3.75 4.375,3.75 h 26.25 c 1.03375,0 1.875,0.84125 1.875,1.875 z M 30.625,2.5 H 4.375 C 2.65625,2.5 1.25,3.90625 1.25,5.625 v 33.75 c 0,1.71875 1.40625,3.125 3.125,3.125 h 26.25 c 1.71875,0 3.125,-1.40625 3.125,-3.125 V 5.625 C 33.75,3.90625 32.34375,2.5 30.625,2.5 Z"
     sketch:type="MSShapeGroup"
     id="path1"
     style="fill:#000000;fill-rule:evenodd;stroke:none;stroke-width:0;stroke-dasharray:none"
     inkscape:label="pedal" />
  <metadata
     id="metadata1">
    <rdf:RDF>
      <cc:Work
         rdf:about="">
        <dc:title>Guitar Pedal 2</dc:title>
      </cc:Work>
    </rdf:RDF>
  </metadata>
</svg>
