<svg xmlns="http://www.w3.org/2000/svg" xml:space="preserve" width="100" height="60">
    <path d="M91.273 4H8.727A3.73 3.73 0 0 0 5 7.727v43.554a3.73 3.73 0 0 0 3.727 3.727h5.87v2.586c0 .677.548 1.226 1.225 1.226h7.533c.677 0 1.226-.549 1.226-1.226v-2.586h50.878v2.586c0 .677.549 1.226 1.226 1.226h7.533c.677 0 1.226-.549 1.226-1.226v-2.586h5.829A3.73 3.73 0 0 0 95 51.281V7.727A3.73 3.73 0 0 0 91.273 4m0 48.556h-3.277v-4.551h4.552v3.276c0 .703-.572 1.275-1.275 1.275m-7.055 0H14.456v-2.8h71.088v2.8ZM8.728 6.452h3.276v4.552H7.452V7.727c0-.703.572-1.275 1.275-1.275m76.816 40.327v.524H14.456v-.524c0-.677-.549-1.226-1.226-1.226h-.525v-9.805h74.59v9.805h-.525c-.677 0-1.226.549-1.226 1.226M13.046 13.456l2.096 1.831-2.437 2.13v-3.961zm74.25 0v3.91l-2.38-2.079 2.096-1.831Zm-8.335 3.778a1.226 1.226 0 0 0 1.613 1.846l2.478-2.165 3.641 3.18-3.64 3.182-9.146-7.99 3.641-3.181 3.641 3.181zM12.705 33.296v-3.007l4.3-3.756 3.639 3.18-4.102 3.583zm13.443-8.393-3.64 3.181-3.64-3.18 3.64-3.18zm3.727 0 3.642-3.181 3.641 3.18-3.642 3.183zm11.01 0 3.639-3.179 3.64 3.181-3.638 3.18zm11.007.002 3.641-3.181 3.64 3.18-3.641 3.18zm11.007-.001 3.642-3.181 3.64 3.18-3.64 3.182zM28.012 26.53l3.64 3.182-3.64 3.18-3.642-3.18zm11.01 0 3.64 3.181-3.641 3.182-3.641-3.181zm11.006.002 3.64 3.18-3.638 3.18-3.64-3.181zm11.008-.001 3.641 3.18-3.641 3.182-3.64-3.181zm11.01 0 3.64 3.18-3.641 3.182-3.641-3.181zm1.862-1.628 2.229-1.947a1.226 1.226 0 0 0-1.614-1.847l-2.478 2.166-3.641-3.181 3.64-3.18 9.145 7.99-3.64 3.18zm-9.23-4.81-3.642 3.182-3.64-3.18 3.641-3.181zm-11.008.002-3.642 3.18-3.641-3.18 3.641-3.181zm-11.01 0-3.639 3.179-3.64-3.182 3.638-3.178zm-11.006-.002-3.642 3.181-3.64-3.18 3.642-3.18zm34.887-1.627-3.64-3.18 3.64-3.18 3.639 3.18zm-11.008 0-3.641-3.18 3.64-3.181 3.642 3.18zm-11.01 0-3.64-3.18 3.64-3.181 3.642 3.18zm-11.006-.001-3.64-3.18 3.64-3.179 3.638 3.18zm-11.008.002-3.64-3.181 3.641-3.181 3.64 3.18zm-1.863 1.628-3.641 3.18-3.641-3.18 3.64-3.181zm-5.504 4.809-2.437 2.129v-4.258zm7.365 6.435 2.238 1.956h-4.476zm11.01 0 2.237 1.956h-4.476zm11.01 0 2.238 1.956h-4.478zm11.005 0 2.237 1.956h-4.475zm11.008 0 2.238 1.956h-4.475zm11.01 0 2.238 1.956h-4.476zm7.366-6.435 2.38-2.08v4.159zm-1.402 8.39-4.101-3.583 3.64-3.18 4.242 3.707v3.057zM72.044 13.66l-2.238-1.954h4.474zm-11.007 0-2.236-1.954h4.473zm-11.009 0-2.236-1.954h4.473zm-11.01 0-2.236-1.954h4.474zm-11.004 0-2.236-1.954h4.472zm-11.009 0-2.237-1.954h4.474zm68.54-4.406h-2.89a1.226 1.226 0 0 0 0 2.452h2.634l-2.237 1.954-3.778-3.302a1.226 1.226 0 0 0-1.22-1.105H44.686a1.2 1.2 0 0 0-.308 0H14.456v-2.8h71.088zm-75.292 4.203V19.9q-.013.097-.01.196-.003.098.01.195v9.29a1.2 1.2 0 0 0 0 .328v15.644H7.452V13.456Zm79.494 32.096V13.456h2.801v32.097zm2.801-34.548h-4.552V6.452h3.277c.703 0 1.275.572 1.275 1.275zm-85.096 37h4.552v4.552H8.727a1.277 1.277 0 0 1-1.275-1.275zm14.677 8.364h-5.08v-1.36h5.08zm60.863 0H77.91v-1.36h5.08zM71.729 37.48a4.05 4.05 0 0 0-4.046 4.047 4.05 4.05 0 0 0 4.046 4.046 4.05 4.05 0 0 0 4.046-4.046 4.05 4.05 0 0 0-4.046-4.047m0 5.641a1.596 1.596 0 0 1 0-3.189 1.596 1.596 0 0 1 0 3.189m8.723-4.723a2.994 2.994 0 0 0-2.991 2.99 2.994 2.994 0 0 0 2.99 2.99 2.994 2.994 0 0 0 2.991-2.99 2.994 2.994 0 0 0-2.99-2.99m0 3.529a.54.54 0 1 1 .001-1.08.54.54 0 0 1-.001 1.08M43.566 37.48a4.05 4.05 0 0 0-4.047 4.047 4.05 4.05 0 0 0 4.047 4.046 4.05 4.05 0 0 0 4.046-4.046 4.05 4.05 0 0 0-4.046-4.047m0 5.641c-.88 0-1.595-.715-1.595-1.594s.716-1.595 1.595-1.595 1.594.716 1.594 1.595-.715 1.594-1.594 1.594m18.775-5.64a4.02 4.02 0 0 0-2.86 1.185 4.02 4.02 0 0 0-1.186 2.86 4.02 4.02 0 0 0 1.185 2.862 4.02 4.02 0 0 0 2.861 1.185 4.02 4.02 0 0 0 2.862-1.185 4.02 4.02 0 0 0 1.185-2.861 4.02 4.02 0 0 0-1.185-2.861 4.02 4.02 0 0 0-2.862-1.186m1.128 5.173a1.58 1.58 0 0 1-1.128.467c-.425 0-.826-.166-1.127-.467a1.58 1.58 0 0 1-.467-1.127c0-.426.166-.826.467-1.128a1.58 1.58 0 0 1 1.128-.466c.425 0 .826.165 1.127.467.3.3.467.701.467 1.127s-.166.826-.467 1.127m-32.152-3.989a4.02 4.02 0 0 0-1.185 2.862c0 1.08.42 2.096 1.185 2.86a4.03 4.03 0 0 0 2.86 1.184 4.03 4.03 0 0 0 2.862-1.183 4.02 4.02 0 0 0 1.185-2.861 4.02 4.02 0 0 0-1.185-2.862 4.05 4.05 0 0 0-5.722 0m3.988 3.989a1.596 1.596 0 0 1-2.721-1.127 1.59 1.59 0 0 1 1.594-1.593 1.59 1.59 0 0 1 1.594 1.593c0 .426-.166.826-.467 1.127m14.787-3.989a4.02 4.02 0 0 0-1.185 2.862c0 1.08.421 2.096 1.185 2.86a4.03 4.03 0 0 0 2.861 1.184 4.03 4.03 0 0 0 2.861-1.183A4.02 4.02 0 0 0 57 41.526a4.02 4.02 0 0 0-1.186-2.862 4.05 4.05 0 0 0-5.722 0m3.989 3.989a1.596 1.596 0 0 1-2.722-1.127 1.59 1.59 0 0 1 1.594-1.593 1.59 1.59 0 0 1 1.594 1.593c0 .426-.165.826-.466 1.127m-34.533-6.048H15.56c-.677 0-1.226.549-1.226 1.226v7.39c0 .677.549 1.225 1.226 1.225h3.988c.677 0 1.226-.548 1.226-1.226v-7.39c0-.676-.548-1.225-1.226-1.225M18.322 40.3h-1.536v-1.243h1.536zm-1.536 2.452h1.536v1.243h-1.536zm9.727-6.147h-3.988c-.677 0-1.226.549-1.226 1.226v7.39c0 .677.549 1.225 1.226 1.225h3.988c.677 0 1.226-.548 1.226-1.226v-7.39c0-.676-.549-1.225-1.226-1.225M25.287 40.3h-1.536v-1.243h1.536zm-1.536 2.452h1.536v1.243h-1.536z" style="stroke-width:1"/>
</svg>
