<svg xmlns="http://www.w3.org/2000/svg" xml:space="preserve" width="70" height="75">
    <path d="M63.76 0a1.8 1.8 0 0 0-.416.058c-.47.125-.86.445-1.069.88-1.031 2.152-3.728 4.18-4.53 4.75-.42.298-.71.751-.815 1.275l-.195.968a.43.43 0 0 1-.114.23L37.005 26.818a8 8 0 0 0-.664-.807c-3.538-3.539-9.027-3.809-12.236-.601-.892.892-1.538 2.285-1.868 4.027-.601 3.172-3.343 5.454-6.536 5.454h-.082c-4.519-.053-8.745 1.547-11.585 4.387-6.145 6.145-5.158 17.13 2.2 24.487C10.346 67.878 15.59 70 20.49 70c3.867 0 7.521-1.323 10.232-4.033 3.042-3.044 4.63-7.576 4.355-12.435-.183-3.23 1.942-6.106 5.052-6.838 1.516-.358 2.694-.949 3.502-1.757a7.5 7.5 0 0 0 1.809-2.912 4.09 4.09 0 0 0-.462-3.593 4.02 4.02 0 0 0-3.062-1.82 2.25 2.25 0 0 1-1.418-.652l-.065-.071 21.403-22.512a.43.43 0 0 1 .23-.114l.968-.194a2.05 2.05 0 0 0 1.277-.815c.57-.802 2.598-3.499 4.75-4.53.435-.209.755-.598.88-1.068.142-.543.02-1.149-.338-1.662A326 326 0 0 1 68.19 2.94a5 5 0 0 0-1.132-1.131A300 300 0 0 1 65.006.394 2.1 2.1 0 0 0 63.76 0m.255 2.425c.687.476 1.337.922 1.784 1.228.161.11.438.387.548.548.324.473.768 1.12 1.228 1.784-2.29 1.31-4.227 3.782-5.033 4.906l-.913.183q-.007 0-.013.003l-2.694-2.695q0-.006.003-.011l.183-.913c1.125-.806 3.597-2.744 4.907-5.033m-6.367 7.841 2.084 2.085L35.54 37.796l-3.333-3.333zM29.486 25.4c1.83-.054 3.776.689 5.277 2.19.1.1.304.352.61.779l-5.535 5.265a1.116 1.116 0 0 0-.02 1.598l4.952 4.952a1.116 1.116 0 0 0 1.599-.02l2.524-2.655.027.03a4.5 4.5 0 0 0 2.825 1.3 1.8 1.8 0 0 1 1.369.82 1.87 1.87 0 0 1 .214 1.645 5.3 5.3 0 0 1-1.275 2.054c-.503.503-1.345.905-2.435 1.163-4.167.98-7.013 4.823-6.769 9.137.238 4.224-1.112 8.135-3.705 10.73-2.282 2.281-5.366 3.39-8.657 3.39-2.939 0-6.042-.885-8.886-2.611l2.377-3.379a1.116 1.116 0 0 0-.124-1.431l-4.21-4.21a1.116 1.116 0 0 0-1.432-.124l-3.379 2.376c-3.658-6.027-3.538-13.224.78-17.542 2.418-2.418 6.055-3.778 9.98-3.734h.109c4.266 0 7.927-3.041 8.73-7.27.241-1.282.687-2.3 1.252-2.865 1.023-1.022 2.378-1.546 3.802-1.588M18.617 39.91a1.13 1.13 0 0 0-.634.189c-.62.412-1.801.996-3.833 1.33-4.412.722-5.722 2.879-5.857 3.123a1.116 1.116 0 0 0 1.953 1.082c.008-.015.943-1.458 4.265-2.003 2.342-.384 3.823-1.084 4.714-1.68a1.116 1.116 0 0 0-.608-2.042m-.185 5.068a1.116 1.116 0 0 0-.79 1.906l5.474 5.473a1.11 1.11 0 0 0 1.579 0 1.116 1.116 0 0 0 0-1.579l-5.473-5.473a1.1 1.1 0 0 0-.79-.327m-2.736 2.737a1.116 1.116 0 0 0-.79 1.906l5.474 5.473a1.113 1.113 0 0 0 1.579 0 1.116 1.116 0 0 0 0-1.579l-5.474-5.473a1.1 1.1 0 0 0-.79-.327m13.188 2.51a1.08 1.08 0 0 0-.808.394c-.716.864-1.57 2.361-1.974 4.83-.332 2.025-.917 3.209-1.336 3.834-.257.384-.251.887.02 1.261a1.116 1.116 0 0 0 1.838-.02c.596-.891 1.297-2.373 1.681-4.714.288-1.753.83-2.829 1.234-3.422q.138-.2.263-.35c.29-.349.33-.841.096-1.231l-.022-.039a1.11 1.11 0 0 0-.992-.543M12.012 51.4a1.116 1.116 0 0 0-.79 1.906l5.474 5.473c.218.218.504.327.79.327a1.116 1.116 0 0 0 .79-1.906L12.8 51.726a1.1 1.1 0 0 0-.789-.327m-3.283 6.99 2.882 2.883-1.85 2.63a20.4 20.4 0 0 1-3.663-3.663z" style="stroke-width:.136719"/>
</svg>
