<?xml version="1.0" encoding="UTF-8" standalone="no"?>
<!-- Uploaded to: SVG Repo, www.svgrepo.com, Generator: SVG Repo Mixer Tools -->

<svg
   width="100"
   height="75"
   viewBox="-6 0 100 75"
   version="1.1"
   id="svg1"
   sodipodi:docname="guitar_pedal_3.svg"
   inkscape:version="1.3.2 (091e20e, 2023-11-25)"
   xmlns:inkscape="http://www.inkscape.org/namespaces/inkscape"
   xmlns:sodipodi="http://sodipodi.sourceforge.net/DTD/sodipodi-0.dtd"
   xmlns="http://www.w3.org/2000/svg"
   xmlns:svg="http://www.w3.org/2000/svg"
   xmlns:rdf="http://www.w3.org/1999/02/22-rdf-syntax-ns#"
   xmlns:cc="http://creativecommons.org/ns#"
   xmlns:dc="http://purl.org/dc/elements/1.1/"
   xmlns:sketch="http://www.bohemiancoding.com/sketch/ns">
  <sodipodi:namedview
     id="namedview1"
     pagecolor="#ffffff"
     bordercolor="#000000"
     borderopacity="0.25"
     inkscape:showpageshadow="2"
     inkscape:pageopacity="0.0"
     inkscape:pagecheckerboard="0"
     inkscape:deskcolor="#d1d1d1"
     inkscape:current-layer="svg1" />
  <title
     id="title1">Guitar Pedal 2</title>
  <desc
     id="desc1">Created with Sketch.</desc>
  <defs
     id="defs1" />
  <rect
     style="fill:#ffffff;stroke:#010101;stroke-width:2;stroke-linecap:round;stroke-linejoin:round;stroke-miterlimit:4.7;stroke-dasharray:none"
     id="rect10"
     width="27.750263"
     height="62.438091"
     x="30.124868"
     y="6.2809544"
     rx="2.3598089"
     ry="1.7677516" />
  <g
     id="Guitar-Pedal-2"
     sketch:type="MSArtboardGroup"
     transform="translate(12,6)"
     fill="#000000"
     style="fill-rule:evenodd;stroke:none;stroke-width:1">
    <path
       id="path8"
       style="display:inline;fill:#000000"
       d="m 32,50 c -1.657,0 -3,1.343 -3,3 0,1.657 1.343,3 3,3 1.657,0 3,-1.343 3,-3 0,-1.657 -1.343,-3 -3,-3 z m 0,7 c -2.206,0 -4,-1.794 -4,-4 0,-2.206 1.794,-4 4,-4 2.206,0 4,1.794 4,4 0,2.206 -1.794,4 -4,4 z m 0,-9 c -2.761,0 -5,2.239 -5,5 0,2.761 2.239,5 5,5 2.761,0 5,-2.239 5,-5 0,-2.761 -2.239,-5 -5,-5 z" />
    <path
       d="m 32,31 c 3.038,0 5.5,-2.462 5.5,-5.5 0,-2.869 -2.197,-5.222 -5,-5.475 V 25.5 c 0,0.276 -0.224,0.5 -0.5,0.5 -0.276,0 -0.5,-0.224 -0.5,-0.5 v -5.475 c -2.803,0.253 -5,2.606 -5,5.475 0,3.038 2.462,5.5 5.5,5.5 z"
       id="path5"
       style="display:inline" />
    <path
       d="m 32,13 c 0.828,0 1.5,-0.672 1.5,-1.5 0,-0.828 -0.672,-1.5 -1.5,-1.5 -0.828,0 -1.5,0.672 -1.5,1.5 0,0.828 0.672,1.5 1.5,1.5 z"
       id="path4"
       style="display:inline" />
    <path
       d="m 42.5,42 h -21 c -0.276,0 -0.5,0.448 -0.5,1 0,0.552 0.224,1 0.5,1 h 21 c 0.276,0 0.5,-0.448 0.5,-1 0,-0.552 -0.224,-1 -0.5,-1 z"
       id="path3"
       style="display:inline;stroke-width:0.999997" />
  </g>
  <metadata
     id="metadata1">
    <rdf:RDF>
      <cc:Work
         rdf:about="">
        <dc:title>Guitar Pedal 2</dc:title>
      </cc:Work>
    </rdf:RDF>
  </metadata>
</svg>
