<?xml version="1.0" encoding="UTF-8" standalone="no"?>
<!-- Uploaded to: SVG Repo, www.svgrepo.com, Generator: SVG Repo Mixer Tools -->

<svg
   width="100"
   height="75"
   viewBox="-7 0 100 75"
   version="1.1"
   id="svg1"
   sodipodi:docname="guitar_pedal_1.svg"
   inkscape:version="1.3.2 (091e20e, 2023-11-25)"
   xmlns:inkscape="http://www.inkscape.org/namespaces/inkscape"
   xmlns:sodipodi="http://sodipodi.sourceforge.net/DTD/sodipodi-0.dtd"
   xmlns="http://www.w3.org/2000/svg"
   xmlns:svg="http://www.w3.org/2000/svg"
   xmlns:rdf="http://www.w3.org/1999/02/22-rdf-syntax-ns#"
   xmlns:cc="http://creativecommons.org/ns#"
   xmlns:dc="http://purl.org/dc/elements/1.1/"
   xmlns:sketch="http://www.bohemiancoding.com/sketch/ns">
  <sodipodi:namedview
     id="namedview1"
     pagecolor="#ffffff"
     bordercolor="#000000"
     borderopacity="0.25"
     inkscape:showpageshadow="2"
     inkscape:pageopacity="0.0"
     inkscape:pagecheckerboard="0"
     inkscape:deskcolor="#d1d1d1"
     inkscape:current-layer="svg1" />
  <title
     id="title1">Guitar Pedal 1</title>
  <desc
     id="desc1">Created with Sketch.</desc>
  <defs
     id="defs1" />
  <g
     id="Page-1"
     stroke="none"
     stroke-width="1"
     fill="none"
     fill-rule="evenodd"
     sketch:type="MSPage"
     transform="translate(18,6)">
    <g
       id="Guitar-Pedal-1"
       sketch:type="MSArtboardGroup"
       transform="translate(-7)"
       fill="#000000">
      <path
         d="m 8,25 c -0.55,0 -1,0.45 -1,1 v 4 c 0,0.55 0.45,1 1,1 0.55,0 1,-0.45 1,-1 V 26 C 9,25.45 8.55,25 8,25 Z m 48,0 c -0.55,0 -1,0.45 -1,1 v 4 c 0,0.55 0.45,1 1,1 0.55,0 1,-0.45 1,-1 v -4 c 0,-0.55 -0.45,-1 -1,-1 z M 44,11 c -1.657,0 -3,1.343 -3,3 0,1.657 1.343,3 3,3 1.657,0 3,-1.343 3,-3 0,-1.657 -1.343,-3 -3,-3 z m -8,0 c -1.657,0 -3,1.343 -3,3 0,1.657 1.343,3 3,3 1.657,0 3,-1.343 3,-3 0,-1.657 -1.343,-3 -3,-3 z m -8,0 c -1.657,0 -3,1.343 -3,3 0,1.657 1.343,3 3,3 1.657,0 3,-1.343 3,-3 0,-1.657 -1.343,-3 -3,-3 z m -8,0 c -1.657,0 -3,1.343 -3,3 0,1.657 1.343,3 3,3 1.657,0 3,-1.343 3,-3 0,-1.657 -1.343,-3 -3,-3 z m 29,11 c 0,0.551 -0.449,1 -1,1 H 16 c -0.551,0 -1,-0.449 -1,-1 V 6 c 0,-0.551 0.449,-1 1,-1 h 32 c 0.551,0 1,0.449 1,1 z M 48,4 H 16 c -1.1,0 -2,0.9 -2,2 v 16 c 0,1.1 0.9,2 2,2 h 32 c 1.1,0 2,-0.9 2,-2 V 6 C 50,4.9 49.1,4 48,4 Z M 15,60 h 34 c 0.55,0 1,-0.45 1,-1 V 37 c 0,-0.55 -0.45,-1 -1,-1 H 15 c -0.55,0 -1,0.45 -1,1 v 22 c 0,0.55 0.45,1 1,1 z M 52,33 H 12 V 5 c 0,-1.654 1.346,-3 3,-3 h 34 c 1.654,0 3,1.346 3,3 z m 0,26 c 0,1.654 -1.346,3 -3,3 H 15 c -1.654,0 -3,-1.346 -3,-3 V 34 H 52 Z M 49,0 H 15 c -2.75,0 -5,2.25 -5,5 v 54 c 0,2.75 2.25,5 5,5 h 34 c 2.75,0 5,-2.25 5,-5 V 5 C 54,2.25 51.75,0 49,0 Z"
         sketch:type="MSShapeGroup"
         id="path1" />
    </g>
  </g>
  <metadata
     id="metadata1">
    <rdf:RDF>
      <cc:Work
         rdf:about="">
        <dc:title>Guitar Pedal 1</dc:title>
      </cc:Work>
    </rdf:RDF>
  </metadata>
</svg>
