<?xml version="1.0" encoding="UTF-8" standalone="no"?>
<!-- Uploaded to: SVG Repo, www.svgrepo.com, Generator: SVG Repo Mixer Tools -->

<svg
   width="20"
   height="45"
   viewBox="0 0 20 45"
   version="1.1"
   id="svg1"
   sodipodi:docname="guitar_pedal_3.svg"
   inkscape:version="1.3.2 (091e20e, 2023-11-25)"
   xmlns:inkscape="http://www.inkscape.org/namespaces/inkscape"
   xmlns:sodipodi="http://sodipodi.sourceforge.net/DTD/sodipodi-0.dtd"
   xmlns="http://www.w3.org/2000/svg"
   xmlns:svg="http://www.w3.org/2000/svg"
   xmlns:rdf="http://www.w3.org/1999/02/22-rdf-syntax-ns#"
   xmlns:cc="http://creativecommons.org/ns#"
   xmlns:dc="http://purl.org/dc/elements/1.1/">
  <sodipodi:namedview
     id="namedview1"
     pagecolor="#ffffff"
     bordercolor="#000000"
     borderopacity="0.25"
     inkscape:showpageshadow="2"
     inkscape:pageopacity="0.0"
     inkscape:pagecheckerboard="0"
     inkscape:deskcolor="#d1d1d1"
     inkscape:current-layer="svg1" />
  <defs
     id="defs1" />
  <path
     id="rect10"
     style="color:#000000;fill:#010101;stroke-width:0;stroke-linecap:round;stroke-linejoin:round;stroke-miterlimit:4.7;stroke-dasharray:none"
     d="M 2.8516,2.5 C 1.6540971,2.5 0.766246,3.294394 0.766246,4.2179923 V 40.782008 C 0.766246,41.70558 1.6540654,42.5 2.8516,42.5 h 14.296799 c 1.197505,0 2.085355,-0.794395 2.085355,-1.717992 V 4.2179923 C 19.233754,3.2944209 18.345934,2.5 17.148399,2.5 Z m 0,1.2415131 h 14.296799 c 0.459042,0 0.843841,0.2401728 0.843841,0.4764792 V 40.782008 c 0,0.236273 -0.384747,0.476479 -0.843841,0.476479 H 2.8516 c -0.4590671,0 -0.843841,-0.240186 -0.843841,-0.476479 V 4.2179923 c 0,-0.2363242 0.3848286,-0.4764792 0.843841,-0.4764792 z M 10,9.153734 c -0.513985,0 -0.931135,0.41715 -0.931135,0.931135 0,0.513985 0.41715,0.931135 0.931135,0.931135 0.513985,0 0.931135,-0.41715 0.931135,-0.931135 0,-0.513985 -0.41715,-0.931135 -0.931135,-0.931135 z m -0.310379,6.223327 c -1.739977,0.15705 -3.103782,1.617453 -3.103782,3.398399 0,1.885856 1.528306,3.414161 3.414161,3.414161 1.885854,0 3.414161,-1.528305 3.414161,-3.414161 0,-1.780946 -1.363807,-3.241349 -3.103783,-3.398399 v 3.398399 c 0,0.405786 -0.620757,0.405785 -0.620757,0 z M 3.482056,29.017944 c -0.4057844,0 -0.4057836,1.241513 0,1.241513 h 13.035888 c 0.405783,0 0.405784,-1.241513 0,-1.241513 z M 10,32.742483 c -1.713905,0 -3.103783,1.389878 -3.103783,3.103783 0,1.713905 1.389878,3.103783 3.103783,3.103783 1.713905,0 3.103782,-1.389878 3.103782,-3.103783 0,-1.713905 -1.389877,-3.103783 -3.103782,-3.103783 z m 0,0.620757 c 1.369386,0 2.483026,1.113639 2.483026,2.483026 0,1.369386 -1.11364,2.483026 -2.483026,2.483026 -1.369387,0 -2.483027,-1.11364 -2.483027,-2.483026 0,-1.369387 1.11364,-2.483026 2.483027,-2.483026 z m 0,0.620756 c -1.028591,0 -1.86227,0.833679 -1.86227,1.86227 0,1.028591 0.833679,1.862269 1.86227,1.862269 1.028591,0 1.862269,-0.833678 1.862269,-1.862269 0,-1.028591 -0.833678,-1.86227 -1.862269,-1.86227 z"
     inkscape:label="pedal"
     sodipodi:nodetypes="ssssssssssssssssssssssscssscsscssssssssssssssssssss" />
  <metadata
     id="metadata1">
    <rdf:RDF>
      <cc:Work
         rdf:about="">
        <dc:title>Guitar Pedal 2</dc:title>
      </cc:Work>
    </rdf:RDF>
  </metadata>
</svg>
