<?xml version="1.0" encoding="UTF-8" standalone="no"?>
<!-- Uploaded to: SVG Repo, www.svgrepo.com, Generator: SVG Repo Mixer Tools -->

<svg
   fill="#000000"
   height="100"
   width="100"
   version="1.1"
   id="Capa_1"
   viewBox="0 0 100 100"
   xml:space="preserve"
   sodipodi:docname="guitar_acoustic_1.svg"
   inkscape:version="1.3.2 (091e20e, 2023-11-25)"
   xmlns:inkscape="http://www.inkscape.org/namespaces/inkscape"
   xmlns:sodipodi="http://sodipodi.sourceforge.net/DTD/sodipodi-0.dtd"
   xmlns="http://www.w3.org/2000/svg"
   xmlns:svg="http://www.w3.org/2000/svg"><defs
   id="defs5" /><sodipodi:namedview
   id="namedview5"
   pagecolor="#ffffff"
   bordercolor="#000000"
   borderopacity="0.25"
   inkscape:showpageshadow="2"
   inkscape:pageopacity="0.0"
   inkscape:pagecheckerboard="0"
   inkscape:deskcolor="#d1d1d1"
   inkscape:zoom="0.295"
   inkscape:cx="400"
   inkscape:cy="400"
   inkscape:window-width="1536"
   inkscape:window-height="449"
   inkscape:window-x="0"
   inkscape:window-y="25"
   inkscape:window-maximized="0"
   inkscape:current-layer="Capa_1" />
<g
   id="g5"
   transform="matrix(0.1969275,0,0,0.1969275,5.0000462,5.0001462)"
   style="stroke-width:5.07801">
	<path
   d="m 162.354,257.426 c -4.975,4.974 -7.714,11.587 -7.714,18.622 0,7.034 2.739,13.648 7.713,18.622 4.974,4.974 11.588,7.713 18.622,7.713 7.035,0 13.648,-2.739 18.622,-7.713 4.974,-4.974 7.713,-11.588 7.713,-18.622 0,-7.035 -2.739,-13.648 -7.713,-18.622 -4.974,-4.975 -11.587,-7.714 -18.622,-7.714 -7.033,0.001 -13.647,2.74 -18.621,7.714 z m 36.957,18.622 c 0,4.897 -1.907,9.502 -5.371,12.965 -3.463,3.463 -8.067,5.37 -12.965,5.37 -4.897,0 -9.502,-1.907 -12.965,-5.371 -3.463,-3.463 -5.371,-8.067 -5.371,-12.965 0,-4.898 1.907,-9.502 5.371,-12.965 3.463,-3.463 8.067,-5.371 12.965,-5.371 4.898,0 9.502,1.907 12.965,5.371 3.464,3.464 5.371,8.068 5.371,12.966 z"
   id="path1"
   style="stroke-width:5.07801" />
	<path
   d="m 50.254,353.695 53.072,53.072 14.47,-14.47 -53.072,-53.072 z m 53.072,41.758 -41.759,-41.758 3.157,-3.157 41.758,41.758 z"
   id="path2"
   style="stroke-width:5.07801" />
	<path
   d="m 455.849,53.979 -4.664,-4.664 c 3.179,-3.231 4.233,-8.053 2.68,-12.317 l -7.154,-19.64 c -1.196,-3.285 -3.766,-5.854 -7.05,-7.05 l -19.64,-7.154 c -1.299,-0.473 -2.658,-0.713 -4.039,-0.713 -3.121,0 -6.055,1.207 -8.278,3.394 L 403.04,1.171 c -1.563,-1.562 -4.095,-1.562 -5.657,0 -1.562,1.563 -1.562,4.095 0,5.657 l 4.661,4.661 -7.751,7.751 -4.661,-4.661 c -1.563,-1.562 -4.095,-1.562 -5.657,0 -1.562,1.563 -1.562,4.095 0,5.657 l 4.661,4.661 -7.751,7.751 -4.661,-4.661 c -1.563,-1.562 -4.095,-1.562 -5.657,0 -1.562,1.563 -1.562,4.095 0,5.657 l 4.661,4.661 -0.371,0.371 c -4.354,4.355 -5.212,10.893 -2.593,16.12 L 233.637,189.149 c -33.78,-20.951 -73.563,-19.008 -97.692,5.121 -6.963,6.963 -12.165,15.292 -15.46,24.751 -7.279,20.875 -26.152,35.927 -48.085,38.346 -19.158,2.126 -36.09,10.055 -48.964,22.929 -35.523,35.524 -30.042,98.807 12.22,141.068 23.53,23.529 53.569,35.658 81.712,35.656 22.405,-10e-4 43.611,-7.691 59.356,-23.436 12.874,-12.875 20.803,-29.806 22.929,-48.966 2.427,-21.922 17.479,-40.796 38.345,-48.083 9.479,-3.303 17.81,-8.501 24.761,-15.453 24.129,-24.13 26.069,-63.916 5.112,-97.701 L 402.22,84.759 c 1.92,0.967 4.048,1.49 6.26,1.49 3.726,0 7.229,-1.451 9.863,-4.085 l 0.371,-0.371 4.661,4.661 c 0.781,0.781 1.805,1.171 2.829,1.171 1.024,0 2.047,-0.391 2.829,-1.171 1.562,-1.563 1.562,-4.095 0,-5.657 l -4.661,-4.661 7.751,-7.751 4.661,4.661 c 0.781,0.781 1.805,1.171 2.829,1.171 1.024,0 2.047,-0.391 2.829,-1.171 1.562,-1.563 1.562,-4.095 0,-5.657 l -4.661,-4.661 7.751,-7.751 4.661,4.661 c 0.781,0.781 1.805,1.171 2.829,1.171 1.024,0 2.047,-0.391 2.829,-1.171 1.56,-1.564 1.56,-4.096 -0.002,-5.659 z M 209.51,247.513 c -4.271,-4.27 -9.33,-7.464 -14.849,-9.449 l 182.746,-177.11 18.66,18.659 -177.11,182.745 c -1.984,-5.517 -5.177,-10.575 -9.447,-14.845 z m -5.657,5.658 c 6.111,6.11 9.477,14.235 9.477,22.877 0,8.642 -3.365,16.767 -9.477,22.877 -6.11,6.111 -14.235,9.477 -22.877,9.477 -8.642,0 -16.767,-3.365 -22.877,-9.477 -6.111,-6.111 -9.477,-14.235 -9.477,-22.877 0,-8.642 3.365,-16.767 9.477,-22.877 6.11,-6.111 14.235,-9.477 22.877,-9.477 8.642,0 16.767,3.365 22.877,9.477 z m 53.249,62.255 c -6.092,6.092 -13.405,10.652 -21.739,13.556 -23.759,8.297 -40.897,29.79 -43.661,54.755 -1.924,17.333 -9.06,32.614 -20.635,44.19 -14.207,14.207 -33.367,21.131 -53.711,21.13 C 91.295,449.055 63.295,437.689 41.314,415.707 22.26,396.653 10.542,372.586 8.319,347.938 6.12,323.563 13.498,301.549 29.094,285.953 40.669,274.377 55.95,267.242 73.281,265.318 c 24.977,-2.755 46.471,-19.894 54.759,-43.665 2.896,-8.313 7.459,-15.623 13.563,-21.727 21.062,-21.062 55.884,-22.885 86.092,-5.018 l -42.332,41.027 c -1.447,-0.156 -2.91,-0.242 -4.386,-0.242 -10.779,0 -20.913,4.198 -28.535,11.819 -7.622,7.622 -11.819,17.755 -11.819,28.535 0,10.779 4.198,20.913 11.819,28.535 7.622,7.622 17.755,11.819 28.535,11.819 10.78,0 20.913,-4.198 28.535,-11.819 7.622,-7.622 11.819,-17.756 11.819,-28.535 0,-1.479 -0.086,-2.943 -0.242,-4.393 l 41.024,-42.33 c 17.873,30.213 16.053,65.039 -5.011,86.102 z M 408.48,78.248 c -1.589,0 -3.083,-0.619 -4.206,-1.743 L 380.513,52.744 c -2.317,-2.32 -2.317,-6.092 0.002,-8.41 l 32.778,-32.779 c 0.719,-0.718 1.674,-1.114 2.69,-1.114 0.444,0 0.882,0.078 1.3,0.23 l 19.64,7.154 c 1.058,0.385 1.885,1.213 2.271,2.271 l 7.154,19.64 c 0.504,1.383 0.157,2.949 -0.884,3.99 l -32.779,32.779 c -1.123,1.124 -2.616,1.743 -4.205,1.743 z"
   id="path3"
   style="stroke-width:5.07801" />
	<path
   d="m 420.146,20.006 c -1.562,-1.561 -4.094,-1.562 -5.657,0 l -25.952,25.952 c -1.562,1.562 -1.562,4.095 0,5.657 0.781,0.781 1.805,1.171 2.829,1.171 1.023,0 2.047,-0.391 2.829,-1.171 l 25.952,-25.952 c 1.561,-1.562 1.561,-4.094 -10e-4,-5.657 z"
   id="path4"
   style="stroke-width:5.07801" />
	<path
   d="m 437.014,36.875 c -1.562,-1.561 -4.094,-1.562 -5.657,0 l -25.952,25.952 c -1.562,1.562 -1.562,4.095 0,5.657 0.781,0.781 1.805,1.171 2.829,1.171 1.023,0 2.047,-0.391 2.829,-1.171 l 25.952,-25.952 c 1.561,-1.562 1.561,-4.095 -10e-4,-5.657 z"
   id="path5"
   style="stroke-width:5.07801" />
</g>
</svg>
