<?xml version="1.0" encoding="UTF-8" standalone="no"?>
<!-- Uploaded to: SVG Repo, www.svgrepo.com, Generator: SVG Repo Mixer Tools -->

<svg
   fill="#000000"
   height="75"
   width="69.999741"
   version="1.1"
   id="Layer_1"
   viewBox="0 0 69.999741 75"
   xml:space="preserve"
   sodipodi:docname="guitar_electro_1.svg"
   inkscape:version="1.3.2 (091e20e, 2023-11-25)"
   xmlns:inkscape="http://www.inkscape.org/namespaces/inkscape"
   xmlns:sodipodi="http://sodipodi.sourceforge.net/DTD/sodipodi-0.dtd"
   xmlns="http://www.w3.org/2000/svg"
   xmlns:svg="http://www.w3.org/2000/svg"><defs
   id="defs12">
	

		
	
	

		
	
	

		
	
	

		
	
	

		
	
	

		
	</defs><sodipodi:namedview
   id="namedview12"
   pagecolor="#ffffff"
   bordercolor="#000000"
   borderopacity="0.25"
   inkscape:showpageshadow="2"
   inkscape:pageopacity="0.0"
   inkscape:pagecheckerboard="0"
   inkscape:deskcolor="#d1d1d1"
   inkscape:current-layer="Layer_1" />
<path
   id="path1"
   d="m 63.760182,3.7843594e-4 c -0.14114,0.003000004 -0.28084,0.0222000041 -0.41656,0.0580000041 -0.47032,0.12414 -0.85975,0.44456 -1.06839,0.87933 -1.03168,2.15221996 -3.72855,4.18005996 -4.53068,4.75017996 -0.42,0.29859 -0.70943,0.75143 -0.81497,1.27506 l -0.19494,0.96772 c -0.0201,0.10007 -0.0584,0.17754 -0.11375,0.23018 L 37.004922,26.817638 c -0.27043,-0.36435 -0.49348,-0.63662 -0.66356,-0.80669 -3.53856,-3.53856 -9.02769,-3.80864 -12.23662,-0.60135 -0.89222,0.89222 -1.53811,2.28512 -1.86733,4.02733 -0.60184,3.17229 -3.34299,5.45434 -6.53688,5.45434 -0.0271,0 -0.0544,-2.6e-4 -0.0817,-5.3e-4 -4.51869,-0.0526 -8.7447204,1.54681 -11.5853304,4.38755 -6.14441,6.14428 -5.15734,17.12919 2.20032,24.48685 4.1126404,4.11264 9.3565504,6.23527 14.2569604,6.23486 3.8675,-2.7e-4 7.52131,-1.32302 10.23176,-4.03347 3.04213,-3.04377 4.62963,-7.57577 4.35578,-12.43448 -0.18293,-3.2304 1.94131,-6.1061 5.05166,-6.83782 1.51607,-0.35793 2.69421,-0.94918 3.50235,-1.75732 0.82346,-0.82346 1.43234,-1.80399 1.80859,-2.91169 0.41412,-1.20777 0.24583,-2.51731 -0.46169,-3.59288 -0.69754,-1.06039 -1.81377,-1.72356 -3.06256,-1.81953 -0.53443,-0.0413 -1.03799,-0.27308 -1.41766,-0.65289 -0.023,-0.023 -0.0434,-0.0475 -0.0652,-0.0713 l 21.40292,-22.51136 c 0.0529,-0.0555 0.13063,-0.0939 0.23098,-0.11402 l 0.96745,-0.19386 c 0.52445,-0.10514 0.97793,-0.39483 1.27693,-0.81551 0.57012,-0.80199 2.59783,-3.4986096 4.74992,-4.5301496 0.43476,-0.20836 0.75518,-0.59767 0.87932,-1.06812 0.14315,-0.54236 0.0203,-1.1482 -0.33699,-1.66199 -0.52486,-0.75482 -1.0475,-1.5163 -1.41418,-2.05265 -0.26633,-0.38938 -0.74216,-0.86508 -1.13167,-1.13114 -0.50463,-0.34508 -1.27021,-0.87044996 -2.05266,-1.41444996 -0.38534,-0.26804 -0.82226,-0.40404 -1.24569,-0.39494000406 z M 64.014932,2.4247384 c 0.68674,0.47633 1.33709,0.9225 1.78402,1.22807 0.16133,0.11033 0.43801,0.38715 0.54848,0.54848 0.32348,0.47304 0.76733,1.11958 1.2278,1.78348 -2.28977,1.30977 -4.22727,3.78175 -5.0335,4.9063996 l -0.91244,0.18265 c -0.005,9.5e-4 -0.009,0.002 -0.0134,0.003 l -2.69433,-2.6945896 c 6.9e-4,-0.004 0.002,-0.008 0.003,-0.0115 l 0.18372,-0.91271 c 1.12441,-0.80623 3.59693,-2.74387 4.9067,-5.0335 z m -6.36731,7.8415796 2.08443,2.08443 -24.19285,25.44548 -3.33306,-3.33306 z m -28.16197,15.13415 c 1.83102,-0.054 3.77643,0.68805 5.2773,2.18884 0.10076,0.10076 0.3043,0.35248 0.61096,0.77972 l -5.53578,5.26502 c -0.21807,0.2074 -0.34305,0.49402 -0.34687,0.79494 -0.004,0.30092 0.11411,0.59076 0.32684,0.80349 l 4.95206,4.95179 c 0.20945,0.20946 0.49334,0.32711 0.78934,0.32711 0.005,0 0.01,-1.3e-4 0.0142,-2.6e-4 0.30078,-0.004 0.5874,-0.12894 0.79494,-0.34714 l 2.5245,-2.65507 c 0.01,0.01 0.0178,0.0203 0.0272,0.0299 0.75619,0.75619 1.75904,1.218 2.82463,1.30016 0.55494,0.0425 1.05379,0.34179 1.36879,0.82058 0.32498,0.49411 0.40338,1.09203 0.21416,1.6441 -0.26633,0.78368 -0.69512,1.47471 -1.27453,2.05426 -0.50326,0.50326 -1.34578,0.90547 -2.43584,1.16291 -4.1661,0.98014 -7.01271,4.82291 -6.76839,9.13694 0.23816,4.22461 -1.11256,8.13552 -3.70557,10.73003 -2.28128,2.28129 -5.36531,3.39114 -8.65682,3.39101 -2.93863,-1.4e-4 -6.04191,-0.88615 -8.88539,-2.61182 l 2.37629,-3.37872 c 0.31213,-0.44392 0.26001,-1.04791 -0.1239,-1.43154 l -4.2102504,-4.20998 c -0.38377,-0.38377 -0.98775,-0.4359 -1.43154,-0.12391 l -3.37899,2.37656 c -3.65846,-6.02779 -3.5384,-13.22435 0.77972,-17.54248 2.41829,-2.41828 6.0554404,-3.77817 9.9799504,-3.73387 0.0366,4.1e-4 0.0727,5.3e-4 0.10922,5.3e-4 4.26563,-1.3e-4 7.92718,-3.04193 8.72945,-7.27147 0.24213,-1.28146 0.68717,-2.29869 1.25237,-2.86389 1.02288,-1.02235 2.37783,-1.54578 3.80196,-1.58775 z m -10.86862,14.50903 c -0.22041,-0.002 -0.44183,0.0612 -0.6342,0.18932 -0.61934,0.41262 -1.80101,0.99595 -3.8332,1.32928 -4.4113704,0.72337 -5.7219404,2.87994 -5.8570204,3.12344 -0.29873,0.53922 -0.1037,1.21879 0.43579,1.51752 0.53922,0.29873 1.21866,0.10397 1.5175304,-0.43552 0.008,-0.0144 0.94299,-1.45736 4.26525,-2.00219 2.34145,-0.3839 3.82289,-1.08472 4.71334,-1.68068 0.64941,-0.4349 0.65889,-1.38652 0.0208,-1.83796 -0.1886,-0.13344 -0.40791,-0.20102 -0.62832,-0.20321 z m -0.18479,5.06875 c -0.28569,0 -0.57141,0.10884 -0.78934,0.32684 -0.43599,0.436 -0.43599,1.14268 0,1.57868 l 5.4733,5.4733 c 0.21793,0.21806 0.5036,0.32711 0.78934,0.32711 0.2856,0 0.57141,-0.10905 0.78934,-0.32711 0.43599,-0.43573 0.43613,-1.14268 0,-1.57868 l -5.4733,-5.4733 c -0.218,-0.218 -0.50365,-0.32684 -0.78934,-0.32684 z m -2.73651,2.73678 c -0.28569,0 -0.57141,0.10885 -0.78934,0.32684 -0.436,0.436 -0.436,1.14269 0,1.57868 l 5.4733,5.4733 c 0.21793,0.21806 0.50386,0.32711 0.7896,0.32711 0.28574,0 0.57141,-0.10905 0.78934,-0.32711 0.43586,-0.436 0.43573,-1.14268 -2.7e-4,-1.57868 l -5.4733,-5.4733 c -0.21799,-0.21799 -0.50364,-0.32684 -0.78933,-0.32684 z m 13.18803,2.51034 c -0.29882,0.009 -0.5953,0.13724 -0.80776,0.3936 -0.716,0.86393 -1.56932,2.36144 -1.97414,4.82976 -0.3321,2.02563 -0.91706,3.20879 -1.33542,3.83427 -0.25717,0.38446 -0.25177,0.88711 0.02,1.26145 h 2.7e-4 c 0.45144,0.63807 1.40279,0.62859 1.83769,-0.0211 0.59596,-0.89045 1.29691,-2.37189 1.68095,-4.71333 0.28739,-1.75329 0.82967,-2.82862 1.23394,-3.42198 0.0915,-0.13426 0.17991,-0.25028 0.26276,-0.34981 0.29012,-0.34891 0.32909,-0.84149 0.0964,-1.23127 l -0.0227,-0.0385 c -0.21949,-0.36738 -0.60781,-0.55426 -0.99202,-0.54315 z m -16.8717,1.17333 c -0.28569,0 -0.57141,0.10911 -0.78934,0.32711 -0.436,0.436 -0.436,1.14268 0,1.57868 l 5.4733,5.47329 c 0.21793,0.21807 0.50359,0.32685 0.78934,0.32685 0.2856,0 0.5714,-0.10878 0.78933,-0.32685 0.43586,-0.43599 0.436,-1.14268 0,-1.57867 l -5.47329,-5.4733 c -0.218,-0.218 -0.50365,-0.32711 -0.78934,-0.32711 z m -3.2833904,6.99029 2.8825804,2.88258 -1.8499804,2.62997 c -0.67348,-0.52103 -1.32562,-1.09209 -1.94878,-1.71539 -0.62262,-0.62276 -1.19397,-1.27385 -1.71459,-1.94692 z"
   style="stroke-width:0.136719" />





</svg>
