<svg xmlns="http://www.w3.org/2000/svg" width="35" height="45">
    <path d="M26.563 13.125A3.437 3.437 0 0 0 29.984 10h-3.422a.313.313 0 0 1 0-.625h3.422a3.437 3.437 0 1 0-3.422 3.75m-18.125 0a3.437 3.437 0 0 0 .312-6.86v3.423a.313.313 0 0 1-.625 0V6.265a3.437 3.437 0 0 0 .313 6.859M30.625 28.75H4.375a.625.625 0 0 0 0 1.25h26.25a.625.625 0 0 0 0-1.25M17.188 10.625a.938.938 0 1 0-.001-1.876.938.938 0 0 0 0 1.876m0 11.25a3.437 3.437 0 0 0 .312-6.86v3.422a.313.313 0 0 1-.625 0v-3.421a3.437 3.437 0 0 0 .313 6.859m.312 16.25a2.503 2.503 0 0 1-2.5-2.5c0-1.379 1.121-2.5 2.5-2.5s2.5 1.121 2.5 2.5-1.121 2.5-2.5 2.5m0-5.625a3.125 3.125 0 1 0 0 6.25 3.125 3.125 0 0 0 0-6.25m0 1.25a1.875 1.875 0 1 0 0 3.75 1.875 1.875 0 0 0 0-3.75m15 5.625a1.877 1.877 0 0 1-1.875 1.875H4.375A1.877 1.877 0 0 1 2.5 39.375V5.625c0-1.034.841-1.875 1.875-1.875h26.25c1.034 0 1.875.841 1.875 1.875zM30.625 2.5H4.375A3.134 3.134 0 0 0 1.25 5.625v33.75A3.134 3.134 0 0 0 4.375 42.5h26.25a3.134 3.134 0 0 0 3.125-3.125V5.625A3.134 3.134 0 0 0 30.625 2.5" style="fill:#000;fill-rule:evenodd;stroke:none;stroke-width:0;stroke-dasharray:none"/>
</svg>
