<svg xmlns="http://www.w3.org/2000/svg" xml:space="preserve" width="40" height="20">
    <path d="M289.056 207.378H7.944A7.944 7.944 0 0 1 0 199.434v-75.342a7.944 7.944 0 0 1 7.944-7.944h281.111a7.944 7.944 0 0 1 7.944 7.944v75.342a7.94 7.94 0 0 1-7.943 7.944" style="fill:#404040" transform="translate(0 -10)scale(.13468)"/>
    <path d="M289.056 180.853H7.944A7.944 7.944 0 0 1 0 172.909V97.566a7.944 7.944 0 0 1 7.944-7.944h281.111a7.944 7.944 0 0 1 7.944 7.944v75.342a7.943 7.943 0 0 1-7.943 7.945" style="fill:gray" transform="translate(0 -10)scale(.13468)"/>
    <path d="M56.783 103.14q-.661.001-1.304.067h-.002a12.7 12.7 0 0 0-5.834 2.115 12.9 12.9 0 0 0-3.448 3.448v.002a13 13 0 0 0-1.177 2.167v.002q-.243.573-.43 1.172v.002q-.187.6-.315 1.221v.002q-.127.623-.193 1.266v.002a13 13 0 0 0-.066 1.304v3.282a15.9 15.9 0 0 0-8.97 2.74 16.1 16.1 0 0 0-4.335 4.334 16 16 0 0 0-1.479 2.725v.002c-.202.479-.385.97-.54 1.472v.002a16 16 0 0 0-.395 1.535v.002a16 16 0 0 0-.326 3.233 15.9 15.9 0 0 0 2.74 8.97 16.1 16.1 0 0 0 5.656 5.14q.683.369 1.403.673a15.9 15.9 0 0 0 6.246 1.262v3.28a12.8 12.8 0 0 0 .574 3.798c.373 1.2.918 2.324 1.607 3.344a12.8 12.8 0 0 0 3.45 3.449 12.7 12.7 0 0 0 7.138 2.18h183.434c3.527 0 6.718-1.43 9.03-3.74a12.8 12.8 0 0 0 3.165-5.231v-.002c.373-1.2.574-2.475.574-3.797v-3.281a16 16 0 0 0 4.772-.721 16 16 0 0 0 4.199-2.02h.002a16.1 16.1 0 0 0 5.137-5.656 15.95 15.95 0 0 0 1.935-7.648c0-1.865-.333-3.646-.918-5.31-.11-.314-.213-.63-.341-.934a16.1 16.1 0 0 0-3.44-5.1q-.544-.545-1.139-1.037a16.04 16.04 0 0 0-6.972-3.338 16 16 0 0 0-3.235-.326v-3.28c0-3.526-1.429-6.718-3.74-9.029a13 13 0 0 0-1.889-1.56h-.002a12.7 12.7 0 0 0-5.832-2.115h-.002a13 13 0 0 0-1.304-.067h-23.309l.04.002H80.052l.039-.002z" style="fill:#bfbfbf" transform="translate(0 -10)scale(.13468)"/>
    <path d="M44.014 130.156a5.08 5.08 0 0 0-5.08 5.08 5.08 5.08 0 0 0 5.08 5.082 5.08 5.08 0 0 0 5.082-5.082 5.08 5.08 0 0 0-5.082-5.08m208.972 0a5.08 5.08 0 0 0-5.082 5.08 5.08 5.08 0 0 0 5.082 5.082 5.08 5.08 0 0 0 5.08-5.082 5.08 5.08 0 0 0-5.08-5.08" style="fill:#404040" transform="translate(0 -10)scale(.13468)"/>
    <path d="M16.314 180.854v17.869h15.983v-17.87zm30.965 0v17.869h15.983v-17.87zm30.965 0v17.869h15.983v-17.87zm30.967 0v17.869h15.98v-17.87zm30.965 0v17.869h15.98v-17.87zm30.965 0v17.869h15.982v-17.87zm30.964 0v17.869h15.983v-17.87zm30.965 0v17.869h15.983v-17.87zm30.965 0v17.869h15.983v-17.87z" style="fill:#bfbfbf" transform="translate(0 -10)scale(.13468)"/>
</svg>
