<svg xmlns="http://www.w3.org/2000/svg" xml:space="preserve" width="31" height="30">
    <path d="M2.1 30a.3.3 0 0 1-.218-.09L.09 28.117a.31.31 0 0 1 0-.437l2.103-2.103-.983-.983a2.15 2.15 0 0 1-.635-1.533c0-.579.226-1.123.635-1.532L21.533 1.208a2.17 2.17 0 0 1 3.065 0l.983.982L27.685.087a.32.32 0 0 1 .437 0l1.791 1.791a.31.31 0 0 1 0 .437L27.81 4.42l.975.975c.41.41.635.954.635 1.533s-.226 1.123-.635 1.532L8.463 28.781a2.17 2.17 0 0 1-3.065 0l-.976-.975-2.103 2.103A.3.3 0 0 1 2.1 30M.746 27.9l1.355 1.354 9.52-9.52.003-.003.003-.003 4.86-4.86.003-.003.004-.004 6.483-6.483.002-.002.002-.003 3.178-3.177.004-.004.991-.991.004-.004 2.1-2.1L27.903.743Zm4.113-.531.976.975a1.55 1.55 0 0 0 2.191 0L28.348 8.023a1.54 1.54 0 0 0 .454-1.096 1.54 1.54 0 0 0-.454-1.096l-.975-.975-.559.558.45.45a1.14 1.14 0 0 1 0 1.608l-.968.968-.004.004-.004.004-6.48 6.48-.005.005-.004.004-1.617 1.617-.001.001-1.622 1.622-1.618 1.618-.004.004-.004.004-1.614 1.615q-.003 0-.004.004-.003 0-.004.004l-1.618 1.617v.001l-3.241 3.24-.004.004-.004.004-.968.968a1.14 1.14 0 0 1-1.608 0l-.45-.45Zm.996-.995.45.45a.52.52 0 0 0 .734 0l.753-.754-.817-.817Zm1.557-1.558.817.817 1.185-1.185-.817-.817ZM21.97 1.645 1.648 21.966a1.54 1.54 0 0 0-.454 1.096c0 .414.161.803.454 1.096l.975.975.559-.558-.45-.45a1.14 1.14 0 0 1 0-1.608l.968-.968.004-.004.004-.004 1.617-1.617.001-.001.002-.002 1.618-1.619q.002 0 .002-.002l.002-.002 3.238-3.237.005-.005.005-.005 1.614-1.614.003-.003.003-.003 3.236-3.237.006-.005.005-.005 1.613-1.614q.003 0 .004-.003l.003-.003L18.3 6.949l.004-.004.004-.004 3.235-3.235.005-.006.006-.006.966-.966a1.134 1.134 0 0 1 1.609 0l.45.45.558-.558-.976-.975a1.55 1.55 0 0 0-2.191 0M3.922 22.2l-.753.754a.52.52 0 0 0 0 .734l.45.45 1.12-1.12zm5.112.994.818.817 1.185-1.185-.817-.817zm-4.675-1.43.817.816 1.185-1.185-.816-.817Zm6.298-.192.817.817 1.185-1.185-.817-.817zm-4.675-1.43.817.816 1.185-1.185-.817-.817Zm6.297-.192.817.816 1.185-1.185-.817-.817zm-4.675-1.431.817.817 1.185-1.185-.817-.817Zm6.297-.192.817.817 1.185-1.185-.817-.817zm-4.675-1.43.817.817 1.185-1.186-.817-.817zm6.297-.192.817.817 1.186-1.185-.817-.817zm-4.675-1.43.817.816 1.185-1.185-.817-.817zm6.298-.192.817.817 1.185-1.185-.817-.818zm-4.676-1.43.817.816 1.186-1.185-.817-.817zm6.298-.192.817.817 1.185-1.186-.817-.817zm-4.675-1.431.817.817 1.185-1.185-.817-.817zm6.297-.192.817.817 1.185-1.185-.817-.817zm-4.675-1.43.817.817 1.185-1.186-.817-.817zm6.297-.192.817.817 1.185-1.185-.816-.817zm-4.675-1.43.817.816 1.185-1.185-.816-.817Zm6.297-.192.817.817 1.186-1.185-.817-.817Zm-4.675-1.43.818.816 1.185-1.185-.817-.817Zm6.298-.192.817.817.753-.754a.52.52 0 0 0 0-.734l-.45-.45ZM20.582 5.54l.817.817 1.185-1.185-.817-.817Zm1.622-1.622.817.817 1.12-1.12-.45-.45a.53.53 0 0 0-.734 0z" style="stroke-width:1"/>
</svg>
