<?xml version="1.0" encoding="UTF-8" standalone="no"?>
<!-- Uploaded to: SVG Repo, www.svgrepo.com, Generator: SVG Repo Mixer Tools -->

<svg
   version="1.1"
   id="Capa_1"
   viewBox="0 0 40.000001 20.000001"
   xml:space="preserve"
   sodipodi:docname="harmonica-svgrepo-com.svg"
   inkscape:version="1.3.2 (091e20e, 2023-11-25)"
   width="40"
   height="20"
   xmlns:inkscape="http://www.inkscape.org/namespaces/inkscape"
   xmlns:sodipodi="http://sodipodi.sourceforge.net/DTD/sodipodi-0.dtd"
   xmlns="http://www.w3.org/2000/svg"
   xmlns:svg="http://www.w3.org/2000/svg"><defs
   id="defs15" /><sodipodi:namedview
   id="namedview15"
   pagecolor="#ffffff"
   bordercolor="#000000"
   borderopacity="0.25"
   inkscape:showpageshadow="2"
   inkscape:pageopacity="0.0"
   inkscape:pagecheckerboard="0"
   inkscape:deskcolor="#d1d1d1"
   inkscape:current-layer="Capa_1" />
<g
   id="g15"
   inkscape:label="harmonica"
   transform="matrix(0.13468059,0,0,0.13468059,-2.8890035e-7,-10.000068)">
	<path
   style="fill:#404040"
   d="M 289.056,207.378 H 7.944 C 3.556,207.378 0,203.821 0,199.434 v -75.342 c 0,-4.388 3.557,-7.944 7.944,-7.944 h 281.111 c 4.388,0 7.944,3.557 7.944,7.944 v 75.342 c 10e-4,4.388 -3.556,7.944 -7.943,7.944 z"
   id="path1" />
	<path
   style="fill:#808080"
   d="M 289.056,180.853 H 7.944 C 3.556,180.853 0,177.296 0,172.909 V 97.566 c 0,-4.388 3.557,-7.944 7.944,-7.944 h 281.111 c 4.388,0 7.944,3.557 7.944,7.944 v 75.342 c 10e-4,4.388 -3.556,7.945 -7.943,7.945 z"
   id="path2" />
	
	<path
   id="path4"
   style="fill:#bfbfbf"
   d="m 56.783203,103.14062 c -0.440154,0 -0.876007,0.023 -1.304687,0.0664 -6.4e-4,7e-5 -0.0013,-6e-5 -0.002,0 -1.287903,0.13077 -2.518249,0.45291 -3.664062,0.9375 -0.763876,0.32307 -1.490585,0.7188 -2.169922,1.17774 -0.679755,0.45921 -1.310695,0.98243 -1.888672,1.56054 -0.577266,0.5774 -1.099944,1.2078 -1.558594,1.88672 -2.82e-4,4.2e-4 2.83e-4,0.002 0,0.002 -0.458523,0.67893 -0.854895,1.40463 -1.177734,2.16797 -2.25e-4,5.3e-4 2.25e-4,10e-4 0,0.002 -0.161242,0.3814 -0.305513,0.77259 -0.429687,1.17187 -1.83e-4,5.9e-4 1.82e-4,0.001 0,0.002 -0.124114,0.3993 -0.229538,0.80568 -0.314453,1.22071 -1.28e-4,6.2e-4 1.27e-4,10e-4 0,0.002 -0.08485,0.41505 -0.149834,0.83697 -0.19336,1.26563 -6.6e-5,6.4e-4 6.6e-5,10e-4 0,0.002 -0.04346,0.42868 -0.06641,0.86453 -0.06641,1.30469 v 0.002 3.2793 c -1.107748,0 -2.189848,0.11243 -3.234375,0.32617 -1.044528,0.21374 -2.051911,0.52957 -3.011719,0.93554 -0.959811,0.40598 -1.871016,0.90182 -2.724609,1.47852 -0.426794,0.28835 -0.84012,0.59684 -1.236328,0.92383 -0.396581,0.3273 -0.775429,0.67378 -1.138672,1.03711 -0.725875,0.7259 -1.382329,1.51944 -1.958985,2.37304 -0.576651,0.8536 -1.072581,1.76483 -1.478515,2.72461 -2.3e-4,5.5e-4 2.29e-4,0.001 0,0.002 -0.202677,0.47936 -0.384942,0.97084 -0.541016,1.47265 -1.82e-4,5.9e-4 1.83e-4,0.001 0,0.002 -0.156013,0.50183 -0.2878,1.01355 -0.394531,1.53515 -1.28e-4,6.3e-4 1.27e-4,0.001 0,0.002 -0.213467,1.04387 -0.326172,2.12546 -0.326172,3.23242 0,1.10775 0.112455,2.18985 0.326172,3.23437 0.213744,1.04446 0.529571,2.05193 0.935547,3.01172 0.405934,0.95981 0.901864,1.87102 1.478515,2.72461 0.576697,0.8536 1.233079,1.6491 1.958985,2.375 0.362935,0.36294 0.742463,0.70818 1.138672,1.03516 0.792755,0.65436 1.648782,1.23426 2.558593,1.72851 0.454693,0.24699 0.92244,0.47086 1.402344,0.67383 0.480657,0.2034 0.971362,0.38448 1.47461,0.54102 0.502427,0.15625 1.014845,0.28767 1.537109,0.39453 1.04504,0.21399 2.126092,0.32617 3.234375,0.32617 v 3.28125 c 0,0.88162 0.08967,1.7429 0.259766,2.57422 0.08504,0.41565 0.190096,0.82279 0.314453,1.22266 0.373111,1.20029 0.91864,2.32419 1.607421,3.34374 0.458932,0.67934 0.980905,1.31099 1.558594,1.88868 0.577358,0.57749 1.209756,1.09972 1.888672,1.55859 7.62e-4,5.2e-4 0.0012,0.001 0.002,0.002 2.038094,1.37688 4.4938,2.17969 7.138672,2.17969 H 80.091797 216.9082 240.2168 c 3.52704,0 6.71834,-1.42873 9.02929,-3.74023 1.44377,-1.44411 2.54434,-3.2316 3.16602,-5.23047 1.9e-4,-6e-4 -1.9e-4,-0.001 0,-0.002 0.37274,-1.1991 0.57422,-2.4751 0.57422,-3.79688 v -3.28125 c 1.66162,0 3.2642,-0.25188 4.77148,-0.7207 1.50675,-0.46866 2.9192,-1.15493 4.19922,-2.01953 4.6e-4,-3.1e-4 0.001,3.1e-4 0.002,0 0.8531,-0.57649 1.64755,-1.23346 2.37305,-1.95899 0.72588,-0.7259 1.38233,-1.5214 1.95899,-2.375 0.28832,-0.4268 0.55769,-0.86757 0.80468,-1.32226 0.49399,-0.90939 0.90233,-1.87214 1.21485,-2.87696 0.46877,-1.50722 0.7207,-3.11005 0.7207,-4.77148 -2.1e-4,-1.86456 -0.33302,-3.64581 -0.91797,-5.31055 -0.1099,-0.31299 -0.21337,-0.62982 -0.3418,-0.93359 -0.81201,-1.91958 -1.98764,-3.6478 -3.43945,-5.09961 -0.36324,-0.36333 -0.74209,-0.70981 -1.13867,-1.03711 -1.18867,-0.98099 -2.52121,-1.79338 -3.96094,-2.40235 -0.95981,-0.40597 -1.96719,-0.7218 -3.01172,-0.93554 -1.04452,-0.21374 -2.12662,-0.32617 -3.23437,-0.32617 v -3.2793 c 0,-3.5265 -1.42936,-6.71842 -3.74024,-9.0293 -0.57797,-0.57811 -1.20891,-1.10133 -1.88867,-1.56054 -4.7e-4,-3.2e-4 -0.001,3.1e-4 -0.002,0 -0.67937,-0.45896 -1.40407,-0.85465 -2.16797,-1.17774 -1.14581,-0.48459 -2.37616,-0.80673 -3.66406,-0.9375 -6.4e-4,-6e-5 -0.001,7e-5 -0.002,0 -0.42868,-0.0435 -0.86453,-0.0664 -1.30468,-0.0664 h -23.3086 c 0.0132,0 0.0259,0.002 0.0391,0.002 H 80.052734 c 0.01317,-4e-5 0.02589,-0.002 0.03906,-0.002 z" />
	
	
	<path
   id="circle6"
   style="fill:#404040"
   d="m 44.013672,130.15625 a 5.0809999,5.0809999 0 0 0 -5.080078,5.08008 5.0809999,5.0809999 0 0 0 5.080078,5.08203 5.0809999,5.0809999 0 0 0 5.082031,-5.08203 5.0809999,5.0809999 0 0 0 -5.082031,-5.08008 z m 208.972658,0 a 5.0809999,5.0809999 0 0 0 -5.08203,5.08008 5.0809999,5.0809999 0 0 0 5.08203,5.08203 5.0809999,5.0809999 0 0 0 5.08008,-5.08203 5.0809999,5.0809999 0 0 0 -5.08008,-5.08008 z" />
	
	<path
   id="rect7"
   style="fill:#bfbfbf"
   d="m 16.314453,180.85352 v 17.86914 h 15.982422 v -17.86914 z m 30.964844,0 v 17.86914 h 15.982422 v -17.86914 z m 30.964844,0 v 17.86914 h 15.982421 v -17.86914 z m 30.966799,0 v 17.86914 h 15.98047 v -17.86914 z m 30.96484,0 v 17.86914 h 15.98047 v -17.86914 z m 30.96484,0 v 17.86914 h 15.98243 v -17.86914 z m 30.96485,0 v 17.86914 h 15.98242 v -17.86914 z m 30.96484,0 v 17.86914 h 15.98242 v -17.86914 z m 30.96485,0 v 17.86914 h 15.98242 v -17.86914 z" />
	
	
	
	
	
	
	
	
</g>
</svg>
