<?xml version="1.0" encoding="UTF-8" standalone="no"?>
<svg
   xml:space="preserve"
   width="100"
   height="100"
   version="1.1"
   id="svg7"
   sodipodi:docname="harpsichord_1.svg"
   inkscape:version="1.3.2 (091e20e, 2023-11-25)"
   xmlns:inkscape="http://www.inkscape.org/namespaces/inkscape"
   xmlns:sodipodi="http://sodipodi.sourceforge.net/DTD/sodipodi-0.dtd"
   xmlns="http://www.w3.org/2000/svg"
   xmlns:svg="http://www.w3.org/2000/svg"><defs
     id="defs7" /><sodipodi:namedview
     id="namedview7"
     pagecolor="#ffffff"
     bordercolor="#000000"
     borderopacity="0.25"
     inkscape:showpageshadow="2"
     inkscape:pageopacity="0.0"
     inkscape:pagecheckerboard="0"
     inkscape:deskcolor="#d1d1d1"
     inkscape:current-layer="svg7" /><path
     id="path111"
     style="fill:none;stroke:#000000;stroke-width:1;stroke-linecap:round;stroke-linejoin:round;stroke-miterlimit:4.7;stroke-dasharray:none"
     d="m 5.1757812,10.015625 v 38.90625 l 13.7597658,-0.01953 -0.02539,-38.886719 z m 18.2656248,6.90625 0.02148,31.976562 70.90039,-0.0918 -4.097656,-5.521485 C 89.569443,42.98074 88.188441,42.528231 86.146484,42.060547 83.917763,41.550087 81.09061,40.996594 77.882812,40.361328 71.467217,39.090796 63.524894,37.492693 55.550781,35.167969 47.576668,32.843244 39.562697,29.803785 32.943359,25.537109 29.208491,23.129698 25.983526,20.245578 23.441406,16.921875 Z M 5.4648437,54.697266 v 6.861328 H 19.076172 l 0.002,-6.861328 z m 18.1406253,0 -0.002,6.861328 h 65.884765 l -0.01563,-6.861328 z m 70.394531,0 0.01563,6.861328 h 2.535156 v -6.861328 z m -9.95829,9.118911 h 1.17508 c 0.342977,0 0.619092,0.04248 0.619092,0.09524 l -0.117207,5.263665 c 0,0 1.370144,1.134442 -0.05483,2.462256 l -0.101726,4.568447 c 0,0 1.479602,0.938239 -0.04253,1.90981 l -0.283625,12.737348 -0.01918,-0.0082 h -1.17508 l -0.01918,0.0082 -0.282337,-12.679486 c -1.269326,-1.076167 -0.04363,-1.959434 -0.04363,-1.959434 l -0.100145,-4.497441 c -1.490078,-1.43489 -0.05655,-2.53985 -0.05655,-2.53985 l -0.117244,-5.265313 c -0.0012,-0.05275 0.276115,-0.09524 0.619093,-0.09524 z m -67.71558,0 h 1.17508 c 0.342977,0 0.619092,0.04248 0.619092,0.09524 l -0.117207,5.263665 c 0,0 1.370144,1.134442 -0.05483,2.462256 l -0.101726,4.568447 c 0,0 1.479602,0.938239 -0.04253,1.90981 l -0.283625,12.737348 -0.01918,-0.0082 h -1.17508 l -0.01918,0.0082 -0.282337,-12.679486 c -1.269326,-1.076167 -0.04363,-1.959434 -0.04363,-1.959434 l -0.100145,-4.497441 c -1.490078,-1.43489 -0.05655,-2.53985 -0.05655,-2.53985 l -0.117244,-5.265313 c -0.0012,-0.05275 0.276115,-0.09524 0.619093,-0.09524 z M 21.200462,50.847745 21.171329,7.7733481 M 2.9118434,51.187044 V 7.7513641 H 21.187726 C 28.517014,34.299675 83.690931,37.307161 91.671712,41.378988 l 7.188514,9.686217 z m 18.4306346,1.456947 -0.0031,11.024777 m 70.391656,-11.098048 0.0275,11.098048 M 3.8199523,52.432924 H 98.195025 c 0.342978,0 0.619093,0.04248 0.619093,0.09524 v 11.198573 c 0,0.05276 -0.276115,0.09524 -0.619093,0.09524 H 3.8199523 c -0.3429773,0 -0.6190927,-0.04248 -0.6190927,-0.09524 V 52.528166 c 0,-0.05276 0.2761154,-0.09524 0.6190927,-0.09524 z" /></svg>
