<svg xmlns="http://www.w3.org/2000/svg" xml:space="preserve" width="100" height="85">
    <path d="M4.29 3.213V42.12l13.76-.02-.026-38.887Zm18.265 6.907.022 31.976 70.9-.092-4.097-5.521c-.697-.304-2.078-.757-4.12-1.225-2.228-.51-5.055-1.064-8.263-1.699-6.416-1.27-14.358-2.868-22.332-5.193s-15.988-5.364-22.608-9.631c-3.735-2.407-6.96-5.292-9.502-8.615M4.58 47.895v6.861h13.61l.002-6.86zm18.14 0-.002 6.861h65.885l-.015-6.86zm70.395 0 .016 6.861h2.535v-6.86zm-9.958 9.119h1.175c.343 0 .619.043.619.095l-.117 5.264s1.37 1.134-.055 2.462l-.102 4.569s1.48.938-.042 1.91L84.35 84.05l-.02-.008h-1.174l-.02.008-.282-12.68c-1.27-1.076-.043-1.96-.043-1.96l-.1-4.497c-1.49-1.434-.057-2.54-.057-2.54l-.117-5.265c-.002-.052.276-.095.619-.095m-67.716 0h1.175c.343 0 .62.043.62.095l-.118 5.264s1.37 1.134-.055 2.462l-.101 4.569s1.48.938-.043 1.91l-.284 12.737-.019-.008H15.44l-.02.008-.281-12.68c-1.27-1.076-.044-1.96-.044-1.96l-.1-4.497c-1.49-1.434-.057-2.54-.057-2.54l-.117-5.265c-.001-.052.276-.095.62-.095m4.874-12.968L20.285.97M2.025 44.385V.949h18.277c7.329 26.549 62.503 29.556 70.484 33.628l7.188 9.686zm18.431 1.457-.003 11.025m70.392-11.098.028 11.098M2.933 45.63H97.31c.343 0 .62.042.62.095v11.199c0 .052-.277.095-.62.095H2.934c-.343 0-.62-.043-.62-.095V45.726c0-.053.277-.095.62-.095" style="fill:none;stroke:#000;stroke-width:1;stroke-linecap:round;stroke-linejoin:round;stroke-miterlimit:4.7;stroke-dasharray:none"/>
</svg>
