<svg xmlns="http://www.w3.org/2000/svg" xml:space="preserve" width="55" height="95">
    <path d="M49.623 19.217c-2.705-1.441-6.112-.666-7.927 1.802l-3.575 4.86a2.05 2.05 0 0 1-1.754.847 2.05 2.05 0 0 1-1.687-.975l-8.518-13.604c-3.33-5.318-9.307-8.478-15.522-8.308-.777.02-1.55.12-2.313.269a3.263 3.263 0 0 0-3.824-2.015A3.28 3.28 0 0 0 2.02 5.639l8.776 77.91-3.518.005a.76.76 0 0 0-.76.76l.013 7.684c0 .42.34.76.76.76l20.39-.031a.76.76 0 0 0 .76-.761l-.004-2.688 1.867-.003c.397 0 .75-.29.788-.686a.76.76 0 0 0-.757-.834l-1.9.003-.001-.767.258-.643 2-.003c.398-.001.752-.292.79-.687a.76.76 0 0 0-.757-.834h-.001l-1.423.002L52.468 27.01a6.203 6.203 0 0 0-2.845-7.793M4.86 3.57q.207-.05.415-.05c.89 0 1.638.67 1.737 1.558l9.016 80.826h-.996a2.73 2.73 0 0 1-2.713-2.424L3.532 5.469A1.754 1.754 0 0 1 4.86 3.57m5.603 14.736q.168-.485.43-.918l7.347 65.007-.884 1.7-7.091-63.73c-.077-.693-.028-1.4.198-2.06m36.23 9.357-.28-2.472a.8.8 0 0 1 .216-.057.789.789 0 0 1 .783 1.149zm-1.601-.638.345 3.056-1.01 1.942-.376-3.327zm-2.382 3.822.046-.072.414 3.666-1.008 1.94-.474-4.192q.567-.614 1.022-1.342m-2.415 2.56.61 5.39-1.01 1.945-.75-6.643q.6-.3 1.15-.69m-2.617 1.264.96 8.488-1.01 1.942-1.15-10.166a9 9 0 0 0 1.2-.264m-2.72.355L36.37 47.52l-1.008 1.94-1.644-14.548q.61.1 1.24.115m-2.816-.525 1.963 17.376-1.01 1.942-2.25-19.907q.624.347 1.297.589m-2.962-1.791 2.658 23.527-1.01 1.943-3.066-27.136q.617.932 1.418 1.666m-3.273-4.54L29.57 60.6l-1.008 1.94-4.145-36.677zm-3.344-5.188 4.743 41.974-1.01 1.942-5.224-46.23zm-3.347-5.192 5.823 51.526-1.01 1.943-6.233-55.16a4.7 4.7 0 0 1 1.097 1.19zm-3.042-2.497 6.598 58.384-1.008 1.94-6.836-60.492c.428 0 .846.059 1.246.168m-2.75.078 7.083 62.663-1.01 1.943-7.236-64.03a4.7 4.7 0 0 1 1.164-.576m-2.197 69.696a4.25 4.25 0 0 0 3.805 2.358h.006l1.08-.002v1.434l-8.072.013-.006-3.8zM8.05 91.236v-.844l18.868-.028v.843zm43.006-64.792-24.09 60.118a.8.8 0 0 0-.054.284l.003 1.998-9.278.013V86.85L48.76 26.983c.295-.568.34-1.24.124-1.843a2.32 2.32 0 0 0-1.267-1.346 2.3 2.3 0 0 0-1.148-.172 2.3 2.3 0 0 0-1.72 1.076l-3.33 5.346a7.33 7.33 0 0 1-6.193 3.469 7.33 7.33 0 0 1-6.244-3.374L20.17 16.466a6.22 6.22 0 0 0-5.248-2.861h-.007q-.327 0-.65.035a6.2 6.2 0 0 0-4.473 2.655L8.6 5.605a12.4 12.4 0 0 1 2.096-.246c5.676-.148 11.134 2.737 14.176 7.595l8.518 13.604a3.6 3.6 0 0 0 5.956.222l3.574-4.86a4.72 4.72 0 0 1 5.987-1.36 4.685 4.685 0 0 1 2.148 5.884" style="stroke-width:1"/>
</svg>
