<?xml version="1.0" encoding="UTF-8" standalone="no"?>
<!-- Uploaded to: SVG Repo, www.svgrepo.com, Generator: SVG Repo Mixer Tools -->

<svg
   fill="#000000"
   height="100"
   width="100"
   version="1.1"
   id="Capa_1"
   viewBox="0 0 100 100"
   xml:space="preserve"
   sodipodi:docname="harp_1.svg"
   inkscape:version="1.3.2 (091e20e, 2023-11-25)"
   xmlns:inkscape="http://www.inkscape.org/namespaces/inkscape"
   xmlns:sodipodi="http://sodipodi.sourceforge.net/DTD/sodipodi-0.dtd"
   xmlns="http://www.w3.org/2000/svg"
   xmlns:svg="http://www.w3.org/2000/svg"><defs
   id="defs1" /><sodipodi:namedview
   id="namedview1"
   pagecolor="#ffffff"
   bordercolor="#000000"
   borderopacity="0.25"
   inkscape:showpageshadow="2"
   inkscape:pageopacity="0.0"
   inkscape:pagecheckerboard="0"
   inkscape:deskcolor="#d1d1d1"
   inkscape:zoom="2.36"
   inkscape:cx="50"
   inkscape:cy="50"
   inkscape:window-width="1536"
   inkscape:window-height="449"
   inkscape:window-x="0"
   inkscape:window-y="25"
   inkscape:window-maximized="0"
   inkscape:current-layer="Capa_1" />
<path
   d="m 72.164576,21.837961 c -2.70466,-1.441386 -6.11168,-0.666235 -7.92676,1.801969 l -3.57448,4.860377 c -0.41495,0.564351 -1.04811,0.873233 -1.75483,0.847192 -0.70026,-0.02623 -1.31498,-0.381683 -1.68678,-0.975687 L 48.703616,14.76789 c -3.33003,-5.3180909 -9.30637,-8.4764801 -15.52127,-8.3078781 -0.77724,0.021099 -1.55068,0.1199413 -2.31367,0.2689649 v 0 c -0.47197,-1.243131 -1.6672,-2.1076203 -3.05156,-2.1076203 -0.25851,0 -0.51835,0.031173 -0.77192,0.092379 -1.59953,0.386435 -2.66684,1.9108863 -2.48284,3.5463449 l 8.77529,77.9095311 -3.51764,0.0053 c -0.20168,1.9e-4 -0.39499,0.08059 -0.53736,0.223535 -0.14237,0.14294 -0.22221,0.336444 -0.22183,0.537929 l 0.0118,7.683083 c 5.7e-4,0.419698 0.341,0.759184 0.76032,0.759184 3.8e-4,0 7.6e-4,0 0.001,0 l 20.39001,-0.0306 c 0.41989,-5.69e-4 0.75976,-0.341576 0.75919,-0.761464 l -0.004,-2.687179 1.86641,-0.0029 c 0.39708,-5.72e-4 0.7512,-0.291206 0.78865,-0.686384 0.043,-0.453344 -0.31268,-0.834267 -0.7569,-0.834267 -3.8e-4,0 -7.6e-4,0 -10e-4,0 l -1.89929,0.0029 -0.001,-0.766786 0.25775,-0.643426 2.00137,-0.003 c 0.39708,-5.72e-4 0.7512,-0.291206 0.78864,-0.686384 0.043,-0.453344 -0.31268,-0.834267 -0.7569,-0.834267 -3.8e-4,0 -7.6e-4,0 -10e-4,0 l -1.42238,0.0021 23.16615,-57.815669 c 1.18173,-2.94911 -0.0414,-6.299481 -2.84476,-7.793329 z M 27.402356,6.1918074 c 0.13686,-0.033074 0.27619,-0.049801 0.41476,-0.049801 0.8911,0 1.63755,0.6696561 1.73658,1.5577154 l 9.0165,80.8259472 -0.99583,0.0015 c -1.39121,0 -2.55811,-1.042595 -2.71379,-2.425246 L 26.073506,8.0897682 c -0.0987,-0.8751339 0.47273,-1.6911525 1.32885,-1.8979608 z m 5.60284,14.7364246 c 0.11081,-0.323138 0.25566,-0.630879 0.43053,-0.918472 l 7.34607,65.0072 -0.88331,1.699136 -7.09193,-63.729855 c -0.077,-0.692276 -0.0276,-1.398997 0.19864,-2.058009 z m 36.2308,9.355417 -0.27942,-2.471816 c 0.068,-0.02737 0.13876,-0.04866 0.21423,-0.05664 0.13381,-0.01388 0.26877,0.0061 0.39099,0.05835 0.20453,0.08744 0.35869,0.250908 0.43358,0.460377 0.0753,0.209279 0.0601,0.433195 -0.0418,0.629739 z m -1.60238,-0.637723 0.34538,3.055746 -1.0099,1.942819 -0.37618,-3.327941 z m -2.38134,3.822533 0.0454,-0.0728 0.41438,3.666666 -1.00838,1.939589 -0.47369,-4.191481 c 0.37751,-0.409244 0.72041,-0.857456 1.02226,-1.341973 z m -2.41479,2.560964 0.60921,5.390513 -1.0099,1.94263 -0.75063,-6.642958 c 0.40069,-0.200156 0.78503,-0.430914 1.15132,-0.690185 z m -2.61704,1.26366 0.95915,8.487506 -1.0099,1.94282 -1.14885,-10.166874 c 0.40829,-0.06006 0.80861,-0.149023 1.1996,-0.263452 z m -2.71968,0.354882 1.41173,12.493276 -1.00819,1.939399 -1.64401,-14.547865 c 0.40677,0.06653 0.82096,0.105495 1.24047,0.11519 z m -2.817,-0.525005 1.96354,17.375703 -1.00991,1.94263 -2.24961,-19.906824 c 0.41457,0.231139 0.84815,0.426542 1.29598,0.588491 z m -2.96223,-1.791135 2.65886,23.527491 -1.0099,1.94263 -3.06658,-27.136373 c 0.40924,0.620045 0.88558,1.178125 1.41762,1.666252 z m -3.27263,-4.538569 3.66439,32.426712 -1.00838,1.93959 -4.14453,-36.676168 z m -3.34429,-5.189026 4.74329,41.97354 -1.0099,1.94263 -5.224,-46.229269 z m -3.34637,-5.192449 5.82256,51.526452 -1.0099,1.942821 -6.23333,-55.160804 c 0.42426,0.325799 0.79758,0.724778 1.09753,1.190097 z m -3.04187,-2.496526 6.59752,58.383821 -1.00838,1.939588 -6.8357,-60.492011 c 0.42788,3.8e-4 0.84586,0.05931 1.24656,0.168602 z m -2.74896,0.07774 7.0811,62.6635 -1.0099,1.94244 -7.23545,-64.028472 c 0.35508,-0.242924 0.7455,-0.438137 1.16425,-0.577468 z m -2.1981,69.696505 c 0.70026,1.408311 2.14906,2.358337 3.80467,2.358337 3.8e-4,0 0.006,0 0.006,0 l 1.07909,-0.0017 v 1.434353 l -8.07085,0.01216 -0.006,-3.798392 z m -3.1772,6.167184 -0.001,-0.84339 18.86937,-0.02832 10e-4,0.84339 z m 43.00587,-64.791269 -24.08842,60.117361 c -0.0361,0.09029 -0.0548,0.186661 -0.0546,0.283982 l 0.003,1.997753 -9.27786,0.01388 v -2.007638 l 31.12295,-59.866644 c 0.295,-0.568533 0.34005,-1.24047 0.12374,-1.843597 -0.2165,-0.603128 -0.6784,-1.093537 -1.26727,-1.345205 -0.35964,-0.153966 -0.75614,-0.214031 -1.14771,-0.172404 -0.71547,0.07527 -1.34255,0.4676 -1.72005,1.07567 l -3.33041,5.346034 c -1.3414,2.152859 -3.65602,3.449783 -6.19189,3.469172 -2.54025,0.01654 -4.87008,-1.241991 -6.24436,-3.373942 l -8.81179,-13.673301 c -1.15512,-1.791515 -3.11638,-2.860532 -5.24795,-2.860532 -0.002,0 -0.004,0 -0.007,0 -0.21707,3.81e-4 -0.43548,0.01197 -0.64932,0.03459 -1.87458,0.197114 -3.47392,1.206065 -4.47432,2.655434 L 31.142586,8.2252961 v 0 c 0.69133,-0.1374288 1.39235,-0.226957 2.09679,-0.2452048 5.67582,-0.1480733 11.13362,2.7371697 14.17549,7.5950737 l 8.51811,13.603732 c 0.63411,1.012562 1.72537,1.643632 2.91908,1.688301 1.19371,0.04372 2.32887,-0.503335 3.03673,-1.465716 l 3.57448,-4.860377 c 1.37068,-1.863936 3.94381,-2.449386 5.98642,-1.360791 2.11674,1.127752 3.04054,3.658113 2.1483,5.885104 z"
   id="path1"
   style="stroke-width:1" />
</svg>
