<?xml version="1.0" encoding="UTF-8" standalone="no"?>
<svg
   xml:space="preserve"
   width="100"
   height="85"
   version="1.1"
   id="svg7"
   sodipodi:docname="harpsichord_1.svg"
   inkscape:version="1.3.2 (091e20e, 2023-11-25)"
   xmlns:inkscape="http://www.inkscape.org/namespaces/inkscape"
   xmlns:sodipodi="http://sodipodi.sourceforge.net/DTD/sodipodi-0.dtd"
   xmlns="http://www.w3.org/2000/svg"
   xmlns:svg="http://www.w3.org/2000/svg"><defs
     id="defs7" /><sodipodi:namedview
     id="namedview7"
     pagecolor="#ffffff"
     bordercolor="#000000"
     borderopacity="0.25"
     inkscape:showpageshadow="2"
     inkscape:pageopacity="0.0"
     inkscape:pagecheckerboard="0"
     inkscape:deskcolor="#d1d1d1"
     inkscape:current-layer="svg7" /><path
     id="path111"
     style="fill:none;stroke:#000000;stroke-width:1;stroke-linecap:round;stroke-linejoin:round;stroke-miterlimit:4.7;stroke-dasharray:none"
     d="M 4.2897709,3.2134839 V 42.119734 L 18.049537,42.100204 18.024147,3.2134849 Z m 18.2656251,6.9062501 0.02148,31.976562 70.90039,-0.0918 -4.097656,-5.521485 C 88.683433,36.178599 87.302431,35.72609 85.260474,35.258406 83.031753,34.747946 80.2046,34.194453 76.996802,33.559187 70.581207,32.288655 62.638884,30.690552 54.664771,28.365828 46.690658,26.041103 38.676687,23.001644 32.057349,18.734968 28.322481,16.327557 25.097516,13.443437 22.555396,10.119734 Z M 4.5788334,47.895125 v 6.861328 H 18.190162 l 0.002,-6.861328 z m 18.1406256,0 -0.002,6.861328 h 65.884765 l -0.01563,-6.861328 z m 70.394531,0 0.01563,6.861328 h 2.535156 v -6.861328 z m -9.95829,9.118911 h 1.17508 c 0.342977,0 0.619092,0.04248 0.619092,0.09524 l -0.117207,5.263665 c 0,0 1.370144,1.134442 -0.05483,2.462256 l -0.101726,4.568447 c 0,0 1.479602,0.938239 -0.04253,1.90981 l -0.283625,12.737348 -0.01918,-0.0082 h -1.17508 l -0.01918,0.0082 -0.282337,-12.679486 c -1.269326,-1.076167 -0.04363,-1.959434 -0.04363,-1.959434 l -0.100145,-4.497441 c -1.490078,-1.43489 -0.05655,-2.53985 -0.05655,-2.53985 l -0.117244,-5.265313 c -0.0012,-0.05275 0.276115,-0.09524 0.619093,-0.09524 z m -67.71558,0 h 1.17508 c 0.342977,0 0.619092,0.04248 0.619092,0.09524 l -0.117207,5.263665 c 0,0 1.370144,1.134442 -0.05483,2.462256 l -0.101726,4.568447 c 0,0 1.479602,0.938239 -0.04253,1.90981 l -0.283625,12.737348 -0.01918,-0.0082 h -1.17508 l -0.01918,0.0082 -0.282337,-12.679486 c -1.269326,-1.076167 -0.04363,-1.959434 -0.04363,-1.959434 l -0.100145,-4.497441 c -1.490078,-1.43489 -0.05655,-2.53985 -0.05655,-2.53985 l -0.117244,-5.265313 c -0.0012,-0.05275 0.276115,-0.09524 0.619093,-0.09524 z M 20.314452,44.045604 20.285319,0.97120702 M 2.0258331,44.384903 V 0.94922302 H 20.301716 C 27.631004,27.497534 82.804921,30.50502 90.785702,34.576847 l 7.188514,9.686217 z m 18.4306349,1.456947 -0.0031,11.024777 m 70.391656,-11.098048 0.0275,11.098048 M 2.933942,45.630783 h 94.375073 c 0.342978,0 0.619093,0.04248 0.619093,0.09524 v 11.198573 c 0,0.05276 -0.276115,0.09524 -0.619093,0.09524 H 2.933942 c -0.3429773,0 -0.6190927,-0.04248 -0.6190927,-0.09524 V 45.726025 c 0,-0.05276 0.2761154,-0.09524 0.6190927,-0.09524 z"
     inkscape:label="harpsichord" /></svg>
