<?xml version="1.0" encoding="UTF-8" standalone="no"?>
<svg
   xml:space="preserve"
   width="55"
   height="95"
   version="1.1"
   id="svg1"
   sodipodi:docname="harp_1.svg"
   inkscape:version="1.4 (e7c3feb1, 2024-10-09)"
   xmlns:inkscape="http://www.inkscape.org/namespaces/inkscape"
   xmlns:sodipodi="http://sodipodi.sourceforge.net/DTD/sodipodi-0.dtd"
   xmlns="http://www.w3.org/2000/svg"
   xmlns:svg="http://www.w3.org/2000/svg"><defs
   id="defs1" /><sodipodi:namedview
   id="namedview1"
   pagecolor="#ffffff"
   bordercolor="#000000"
   borderopacity="0.25"
   inkscape:showpageshadow="2"
   inkscape:pageopacity="0.0"
   inkscape:pagecheckerboard="0"
   inkscape:deskcolor="#d1d1d1"
   inkscape:current-layer="svg1" />
    <path
   d="m 49.622752,19.216727 c -2.705,-1.441 -6.112,-0.666 -7.927,1.802 l -3.575,4.86 a 2.05,2.05 0 0 1 -1.754,0.847 2.05,2.05 0 0 1 -1.687,-0.975 l -8.518,-13.604 c -3.33,-5.318 -9.307,-8.478 -15.522,-8.308 -0.777,0.021 -1.55,0.12 -2.313,0.269 a 3.263,3.263 0 0 0 -3.8239999,-2.015 3.28,3.28 0 0 0 -2.483,3.546 l 8.7759999,77.91 -3.5179999,0.005 a 0.76,0.76 0 0 0 -0.76,0.761 l 0.013,7.683 c 0,0.42 0.34,0.76 0.76,0.76 l 20.3899999,-0.031 a 0.76,0.76 0 0 0 0.76,-0.761 l -0.004,-2.688 1.867,-0.003 c 0.397,0 0.75,-0.29 0.788,-0.686 a 0.76,0.76 0 0 0 -0.757,-0.834 l -1.9,0.003 -0.001,-0.767 0.258,-0.643 2.001,-0.003 c 0.397,-0.001 0.751,-0.292 0.789,-0.687 a 0.76,0.76 0 0 0 -0.757,-0.834 h -10e-4 l -1.423,0.002 23.167,-57.816 a 6.203,6.203 0 0 0 -2.845,-7.793 M 4.8597521,3.570727 q 0.207,-0.05 0.415,-0.05 c 0.891,0 1.638,0.67 1.737,1.558 l 9.0159999,80.826 -0.996,0.001 a 2.73,2.73 0 0 1 -2.713,-2.425 l -8.7869999,-78.012 a 1.754,1.754 0 0 1 1.328,-1.898 m 5.6029999,14.736 q 0.168,-0.485 0.43,-0.918 l 7.347,65.007 -0.884,1.7 -7.091,-63.73 c -0.077,-0.693 -0.028,-1.4 0.198,-2.059 m 36.231,9.356 -0.28,-2.472 a 0.8,0.8 0 0 1 0.215,-0.057 0.789,0.789 0 0 1 0.783,1.149 z m -1.602,-0.638 0.345,3.056 -1.01,1.942 -0.376,-3.327 z m -2.382,3.822 0.046,-0.072 0.414,3.666 -1.008,1.94 -0.474,-4.192 q 0.567,-0.614 1.022,-1.342 m -2.415,2.561 0.61,5.39 -1.01,1.944 -0.75,-6.643 q 0.6,-0.3 1.15,-0.69 m -2.617,1.264 0.96,8.488 -1.01,1.942 -1.15,-10.166 a 9,9 0 0 0 1.2,-0.264 m -2.72,0.355 1.412,12.493 -1.008,1.94 -1.644,-14.548 q 0.611,0.1 1.24,0.115 m -2.816,-0.525 1.963,17.376 -1.01,1.942 -2.25,-19.907 q 0.624,0.347 1.297,0.589 m -2.962,-1.791 2.658,23.527 -1.01,1.943 -3.066,-27.136 q 0.617,0.932 1.418,1.666 m -3.273,-4.539 3.664,32.427 -1.008,1.94 -4.145,-36.677 z m -3.344,-5.189 4.743,41.974 -1.01,1.942 -5.224,-46.229 z m -3.347,-5.192 5.823,51.526 -1.01,1.943 -6.233,-55.16 a 4.7,4.7 0 0 1 1.097,1.19 z m -3.042,-2.497 6.598,58.384 -1.008,1.94 -6.836,-60.492 c 0.428,0 0.846,0.059 1.246,0.168 m -2.749,0.078 7.082,62.663 -1.01,1.943 -7.236,-64.029 a 4.7,4.7 0 0 1 1.164,-0.577 m -2.197,69.696 a 4.25,4.25 0 0 0 3.805,2.358 h 0.006 l 1.08,-0.002 v 1.434 l -8.072,0.013 -0.006,-3.799 z m -3.177,6.167 v -0.844 l 18.868,-0.028 10e-4,0.843 z m 43.006,-64.792 -24.089,60.118 a 0.8,0.8 0 0 0 -0.055,0.284 l 0.003,1.998 -9.278,0.013 v -2.007 l 31.123,-59.867 c 0.295,-0.568 0.34,-1.24 0.124,-1.843 a 2.32,2.32 0 0 0 -1.267,-1.346 2.3,2.3 0 0 0 -1.148,-0.172 2.3,2.3 0 0 0 -1.72,1.076 l -3.33,5.346 a 7.33,7.33 0 0 1 -6.193,3.469 7.33,7.33 0 0 1 -6.244,-3.374 l -8.812,-13.673 a 6.22,6.22 0 0 0 -5.248,-2.861 h -0.007 q -0.327,0 -0.649,0.035 a 6.2,6.2 0 0 0 -4.474,2.655 l -1.192,-10.69 a 12.4,12.4 0 0 1 2.096,-0.246 c 5.676,-0.148 11.134,2.737 14.176,7.595 l 8.518,13.604 a 3.6,3.6 0 0 0 5.956,0.222 l 3.574,-4.86 a 4.72,4.72 0 0 1 5.987,-1.36 4.685,4.685 0 0 1 2.148,5.884"
   style="stroke-width:1"
   id="path1" />
</svg>
