<svg xmlns="http://www.w3.org/2000/svg" width="40" height="30" fill="currentColor" class="bi bi-hdd">
    <path d="M10.234 0a3.75 3.75 0 0 0-3.29 1.953L.761 13.281A6.26 6.26 0 0 0 0 16.274V20a5 5 0 0 0 5 5h30a5 5 0 0 0 5-5v-3.726a6.3 6.3 0 0 0-.762-2.993L33.057 1.953A3.75 3.75 0 0 0 29.766 0Zm0 2.5h19.532a1.25 1.25 0 0 1 1.098.65l5.157 9.457q-.495-.106-1.021-.107H5q-.525 0-1.02.107L9.135 3.15a1.25 1.25 0 0 1 1.098-.649M5 15h30a2.5 2.5 0 0 1 2.5 2.5V20a2.5 2.5 0 0 1-2.5 2.5H5A2.5 2.5 0 0 1 2.5 20v-2.5A2.5 2.5 0 0 1 5 15m1.25 2.5A1.25 1.25 0 0 0 5 18.75a1.25 1.25 0 0 0 2.5 0 1.25 1.25 0 0 0-1.25-1.25m5 0a1.25 1.25 0 0 0 0 2.5 1.25 1.25 0 0 0 0-2.5" style="stroke-width:1"/>
</svg>
