<?xml version="1.0" encoding="UTF-8" standalone="no"?>
<svg
   width="40"
   height="30"
   fill="currentColor"
   class="bi bi-hdd"
   version="1.1"
   id="svg2"
   inkscape:version="1.3.2 (091e20e, 2023-11-25)"
   xmlns:inkscape="http://www.inkscape.org/namespaces/inkscape"
   xmlns:sodipodi="http://sodipodi.sourceforge.net/DTD/sodipodi-0.dtd"
   xmlns="http://www.w3.org/2000/svg"
   xmlns:svg="http://www.w3.org/2000/svg">
  <defs
     id="defs2" />
  <sodipodi:namedview
     id="namedview2"
     pagecolor="#ffffff"
     bordercolor="#000000"
     borderopacity="0.25"
     inkscape:showpageshadow="2"
     inkscape:pageopacity="0.0"
     inkscape:pagecheckerboard="0"
     inkscape:deskcolor="#d1d1d1"
     inkscape:current-layer="svg2" />
  <path
     id="path1"
     d="M 10.234375,0 A 3.75,3.75 0 0 0 6.9433595,1.953125 L 0.76171875,13.28125 C 0.26171925,14.198749 0,15.229415 0,16.274414 V 20 a 5,5 0 0 0 5,5 h 30 a 5,5 0 0 0 5,-5 V 16.274414 C 40,15.229415 39.73828,14.201249 39.23828,13.28125 L 33.05664,1.953125 A 3.75,3.75 0 0 0 29.765625,0 Z m 0,2.5 h 19.53125 a 1.25,1.25 0 0 1 1.098632,0.649414 l 5.15625,9.458008 C 35.690508,12.537422 35.35,12.5 35,12.5 H 5 c -0.3499998,0 -0.6905083,0.03575 -1.0205077,0.107422 l 5.15625,-9.458008 A 1.25,1.25 0 0 1 10.234375,2.5 Z M 5,15 h 30 a 2.5,2.5 0 0 1 2.5,2.5 V 20 A 2.5,2.5 0 0 1 35,22.5 H 5 A 2.5,2.5 0 0 1 2.5,20 V 17.5 A 2.5,2.5 0 0 1 5,15 Z m 1.25,2.5 A 1.25,1.25 0 0 0 5,18.75 a 1.25,1.25 0 0 0 2.5,0 1.25,1.25 0 0 0 -1.25,-1.25 z m 5,0 a 1.25,1.25 0 0 0 0,2.5 1.25,1.25 0 0 0 0,-2.5 z"
     style="stroke-width:1" />
</svg>
