<?xml version="1.0" encoding="UTF-8" standalone="no"?>
<svg
   xml:space="preserve"
   width="50"
   height="100"
   version="1.1"
   id="svg7"
   sodipodi:docname="human_composer_3.svg"
   inkscape:version="1.3.2 (091e20e, 2023-11-25)"
   xmlns:inkscape="http://www.inkscape.org/namespaces/inkscape"
   xmlns:sodipodi="http://sodipodi.sourceforge.net/DTD/sodipodi-0.dtd"
   xmlns="http://www.w3.org/2000/svg"
   xmlns:svg="http://www.w3.org/2000/svg"><defs
     id="defs7" /><sodipodi:namedview
     id="namedview7"
     pagecolor="#ffffff"
     bordercolor="#000000"
     borderopacity="0.25"
     inkscape:showpageshadow="2"
     inkscape:pageopacity="0.0"
     inkscape:pagecheckerboard="0"
     inkscape:deskcolor="#d1d1d1"
     inkscape:current-layer="svg7" /><g
     id="g2"
     transform="translate(0.041956,0.92036146)"><path
       id="path4"
       style="display:inline;fill:none;stroke:#000000;stroke-width:3.00001;stroke-linecap:round;stroke-linejoin:round;stroke-miterlimit:4.7;stroke-dasharray:none;stroke-opacity:1"
       d="M 1.500005,62.768631 5.029781,46.136768 18.497047,31.278487 M 37.831864,95.667496 32.713289,93.732746 31.634229,74.54946 20.445738,60.572114 8.8560796,77.136172 9.3211069,95.504912 2.7010178,96.919393 M 18.259783,31.515101 20.208312,61.289109 M 18.733047,31.514487 34.248205,47.157766 48.416083,33.60946" /><path
       style="fill:#ffffff;stroke:#000000;stroke-width:2;stroke-linecap:round;stroke-linejoin:round;stroke-miterlimit:5;stroke-dasharray:none"
       d="M 37.183591,21.236577 47.748282,21.093811 41.942461,35.465597 31.663302,35.370417 Z"
       id="path18"
       sodipodi:nodetypes="ccccc" /><ellipse
       style="fill:#ffffff;stroke:#000000;stroke-width:0.656247;stroke-linecap:butt;stroke-linejoin:miter;stroke-miterlimit:5;stroke-dasharray:none"
       id="ellipse16"
       cx="37.382202"
       cy="28.34634"
       rx="0.8200323"
       ry="0.52694881" /><path
       style="fill:#ffffff;stroke:#000000;stroke-width:0.656247;stroke-linecap:round;stroke-linejoin:round;stroke-miterlimit:5;stroke-dasharray:none"
       d="m 38.187491,28.428854 1.213221,-4.123567 c -0.155329,1.360638 0.812431,1.562988 0.400298,3.223665"
       id="path17"
       sodipodi:nodetypes="ccc" /><ellipse
       style="fill:#ffffff;stroke:#000000;stroke-width:0.656247;stroke-linecap:butt;stroke-linejoin:miter;stroke-miterlimit:5;stroke-dasharray:none"
       id="ellipse18"
       cx="38.991291"
       cy="30.625881"
       rx="0.8200323"
       ry="0.52694881" /><path
       style="fill:#ffffff;stroke:#000000;stroke-width:0.656247;stroke-linecap:round;stroke-linejoin:round;stroke-miterlimit:5;stroke-dasharray:none"
       d="M 39.796579,30.708396 41.0098,26.584829 c -0.155329,1.360638 0.812431,1.562988 0.400298,3.223665"
       id="path19"
       sodipodi:nodetypes="ccc" /><path
       class="fil0"
       d="m 18.07649,27.868945 c 0.813889,0.176933 0.247705,-0.106159 0.849276,0 0.03539,0.03539 0.03539,0.03539 0.03539,0.10616 l 0.07077,0.212319 c 0.07077,0.849276 -0.212319,0.849276 0.283092,1.167754 -0.141546,0.283092 -0.03539,0 -0.389251,0.318479 -0.318479,0.283092 0.03539,0.212319 -0.566184,0.424638 0.212319,-0.672344 0.318478,-0.10616 0.247705,-1.557006 -0.389251,-0.03539 -0.460024,-0.176933 -0.636957,0.283092 -0.212319,0.636957 0.141546,0.176932 -0.353865,0.813889 -0.07077,-0.424638 0.07077,-0.283092 -0.141546,-0.636957 -0.672343,0.884663 -1.026208,0.141546 -1.026208,0.10616 l 0.283092,-0.495411 c 0.70773,-1.450847 0.247705,-1.167755 0.03539,-1.52162 1.875485,-2.087803 2.264736,-1.273914 2.618601,-1.238527 0.318479,0.03539 0.672344,-0.212319 1.132368,-0.247706 -0.778503,1.52162 -2.087803,0.07077 -2.512441,1.096982 -0.212319,0.460024 -0.07077,0.778503 0.07077,1.167754 z m 4.14022,-11.854477 c 0.07077,0 0.10616,0.07077 0.10616,0.141546 0,0.07077 -0.03539,0.106159 -0.10616,0.106159 -0.07077,0 -0.141546,-0.03539 -0.141546,-0.106159 0,-0.07077 0.07077,-0.141546 0.141546,-0.141546 z m -7.112686,0.743116 c 0.07077,0 0.141546,0.07077 0.141546,0.141546 0,0.07077 -0.07077,0.10616 -0.141546,0.10616 -0.07077,0 -0.141546,-0.03539 -0.141546,-0.10616 0,-0.07077 0.07077,-0.141546 0.141546,-0.141546 z m -11.7129314,2.12319 c 0.495411,-0.141546 1.3093005,-0.212319 1.698552,-0.03539 0.141546,0.920049 -1.0969815,1.344687 0.1061595,2.12319 0.7431165,0.495411 0.6015705,-0.10616 0.920049,-0.03539 0.3892515,0.03539 0.141546,0.460025 1.0262085,0.566184 l 0.035386,0.141546 v 0.07077 c 0.035387,0.03539 0.035387,0.141546 0.035387,0.176933 0,0 0.035387,0.03539 0.035387,0.07077 v 0.07077 c 0.2830915,-0.212303 0.247705,-0.24769 0.60157,-0.389236 0.1061595,1.061595 -0.353865,1.344687 -1.0969815,1.663166 -0.920049,0.318478 -1.132368,-0.424638 -1.627779,-0.81389 -0.70773,-0.60157 -1.840098,-2.937079 -1.7339385,-3.609423 z M 5.9035341,7.0616831 c 0.1769325,-0.672343 0.353865,-0.176932 0.566184,-0.70773 0.212319,-0.424638 -0.1061595,-0.460024 0.353865,-0.743116 0.778503,-0.495411 0.212319,-0.318479 0.7431165,-0.636957 -0.283092,-0.283092 -0.6015705,-0.672344 -0.212319,-1.026209 0.353865,-0.318478 0.849276,0.141546 1.203141,0.389252 0.070773,0.03539 0.1769325,0.106159 0.212319,0.141546 0.2123195,0.141546 0.3184785,0.141546 0.3892515,0.424638 0.10616,0.353865 -0.176932,0.672343 -0.353865,0.990822 -0.2477055,0 -0.636957,-0.03539 -0.849276,0 -0.70773,0.07077 -0.3892515,0.60157 0.070773,0.778503 -0.283092,0.636957 0.1061595,1.698552 -0.636957,2.300122 l -0.6723435,0.03539 c -0.212319,0.07077 -0.3892515,0.283092 -0.4600245,0.353865 0.141546,-0.318479 0.6723435,-0.495411 0.778503,-1.026209 v -0.07077 l -0.035386,-0.530797 c 0.035386,-0.636957 -1.061595,-0.03539 -1.698552,0 0.070773,-0.03539 0.353865,-0.176933 0.424638,-0.283092 0.212319,-0.212319 0.035386,0.07077 0.141546,-0.176933 0.141546,-0.353865 -0.070773,0.141546 0.035386,-0.212319 z M 26.109225,30.45216 c 0.07077,-0.70773 0.07077,-0.318479 0.212319,-0.743117 l 0.141546,-0.495411 -0.60157,-0.424638 c 0.566184,-0.247705 0.920049,0 1.344687,-0.495411 -0.318479,-0.672343 -0.672344,0.176933 -1.203141,-1.41546 0.318478,-0.141546 0.460024,-0.07077 0.60157,-0.353865 -0.176932,-0.530797 -0.07077,-0.176932 -0.495411,-0.495411 -0.424638,-0.247705 -0.283092,-0.176932 -0.318478,-0.70773 0.176932,0.07077 0.106159,0.07077 0.176932,0.141546 0.176933,0.10616 0,0.07077 0.212319,0.141546 l 0.601571,-0.990822 c -0.81389,-2.052417 -0.672344,-0.743116 -1.238528,-1.3093 0.424638,-0.247706 0.495411,-0.141546 0.778503,-0.495411 0.247706,-0.283092 0.424638,-0.353865 0.601571,-0.672344 -0.10616,-0.283092 -0.176933,-0.318478 -0.353865,-0.530797 -0.601571,0.176932 -1.273914,-0.03539 -1.061595,-0.743117 0.03539,-0.03539 0.07077,-0.141546 0.07077,-0.176932 0.176932,-0.495411 0.106159,-0.353865 0.495411,-0.601571 0,-0.03539 -0.10616,-0.813889 -0.495411,-1.203141 -0.601571,-0.60157 -0.283092,-0.70773 -0.530798,-1.344687 -0.318478,0.353865 -0.353865,2.512442 -0.353865,2.93708 l -0.106159,1.3093 c -0.141546,0.566184 -0.212319,0.778503 -0.81389,0.849276 l 0.07077,0.495411 c -0.318478,-0.424638 -0.212319,-0.141546 -0.318478,-0.07077 l 0.141546,0.743117 c -0.141546,0.141546 -0.389252,0.353865 -0.601571,0.424638 -0.495411,-0.424638 -0.141546,-0.955436 -0.884662,-1.380074 0.212319,-0.424638 0.849276,-0.813889 0.424638,-1.238527 -0.389252,-0.460025 -0.495411,-0.10616 -0.920049,0 -0.353865,0.106159 -0.778503,0.141546 -1.132368,0.176932 -0.566184,0.07077 -1.41546,0.495411 -1.733939,0.920049 0.10616,0.424638 0.212319,0.212319 0.424638,0.495411 l -0.460024,0.990822 c -1.096982,0.283092 -1.946258,0.672344 -2.406282,1.486233 -0.247706,-0.353865 -0.07077,-0.460024 -0.424638,-0.60157 -0.460025,-0.212319 0.03539,0.03539 -0.460025,-0.03539 -0.07077,0.318479 -0.07077,0.424638 -0.141546,0.636957 -0.743116,0.141546 -0.353865,-0.106159 -0.990822,0.247706 -0.247705,0.106159 -0.743116,0.353865 -0.884662,0 0.283092,-0.03539 0.566184,0 0.636957,-0.566184 -0.920049,0.176932 -0.672344,-0.03539 -0.778503,-0.353865 L 13.193147,24.68416 c -1.167754,0 -1.096981,0.460025 -1.981644,0.247706 0.212319,-0.601571 0.460025,-0.955436 0.460025,-1.627779 -0.03539,0 -0.07077,-0.07077 -0.10616,-0.03539 0,0.03539 -0.106159,-0.07077 -0.176932,-0.106159 -0.212319,-0.07077 -0.10616,0.03539 -0.318479,-0.10616 0.247706,-0.495411 0.601571,-0.566184 0.920049,-0.955435 l -0.530791,0.247708 c 0.176932,-0.176932 0.353865,-0.283092 0.318478,-0.460024 -0.212319,-0.141546 -0.424638,0.07077 -0.636957,0.212319 -0.07077,-0.247706 0.141546,-0.212319 0.03539,-0.424638 -0.283092,0.283092 -0.353865,0.460024 -0.813889,0.424638 0.03539,-0.424638 0.283092,-0.601571 0.530797,-0.81389 l -1.3446869,0.424638 c -0.106159,0.03539 -0.212318,0.141546 -0.318478,0.212319 0.106156,-0.212319 -0.106163,-0.353865 -0.106163,-0.884662 H 8.8052271 L 8.6282946,19.057707 7.6728591,19.906983 c 0,-1.344687 0.3892515,-2.689374 0.8846625,-3.715583 0.283092,-0.60157 0.4246385,-0.955435 0.8138895,-1.450846 0.530798,-0.743117 0.318479,-0.955436 0.6723439,-1.627779 L 8.9821601,11.838861 C 8.6282946,11.484996 8.6990676,11.378836 8.3452026,10.954198 L 7.6728591,10.388014 c 0.1769325,-0.318478 0.1061595,-0.7785029 0.283092,-1.0615949 0.141546,-0.247705 0.636957,-0.530797 0.7431165,-0.70773 0.2830925,-0.60157 -0.283092,-0.106159 0.2830925,-0.884662 0.318478,-0.460025 0.176932,-0.990822 0.389251,-1.203141 0.283092,-0.141546 0.353865,-0.035387 0.601571,-0.212319 0.2477049,-0.141546 0.1061589,-0.247706 0.4600239,-0.460025 0.318479,-0.212319 1.096982,-0.212319 1.52162,-0.353865 0.03539,-0.530797 -0.247706,-0.990822 -0.424638,-1.41546 -0.389252,-0.035386 -1.167755,0.10616 -1.450847,0.247706 -0.1061589,-0.530798 -0.1769319,-0.283092 -0.2830919,-0.636957 -0.106159,-0.247706 -0.106159,-0.530798 -0.176932,-0.778503 1.0615949,-0.03539 0.5661839,0.07077 1.4862329,0.141546 l 0.318478,-0.4600246 c 0.460025,0.2123186 0.353865,-0.070773 0.849276,0.070773 0.849276,0.2123186 2.01703,0.2123186 2.052417,1.4862326 -0.212319,-0.07077 -0.10616,-0.07077 -0.424638,-0.07077 -0.566184,-0.03539 -0.176933,0.10616 -0.566184,0.07077 -0.424638,-0.03539 -0.318479,-0.106159 -0.743116,0.10616 -0.212319,-0.141546 -0.460025,-0.672344 -0.566184,-0.141546 -0.10616,0.389251 0.07077,0.672343 0.212319,0.920049 0.283092,0.530797 0.530797,0.530797 1.167754,0.60157 1.344687,0.176933 0.07077,0.10616 1.698552,-0.460024 0.03539,-0.03539 0.07077,-0.03539 0.106159,-0.03539 0.566184,0.672344 1.026209,1.026209 1.592393,0.10616 0.318478,0.212319 0.176932,0.353865 0.672343,0.353865 0.530798,0.03539 0.283092,-0.03539 0.566184,-0.389252 0.176933,0.176933 0.495411,0.636957 0.601571,0.990822 0.636957,-0.176932 0.07077,-0.212319 0.990822,-0.07077 0.566184,0.10616 0.106159,0 0.495411,-0.03539 0.495411,-0.03539 0.106159,0.106159 0.495411,0.03539 0.424638,-0.07077 1.910871,-0.990822 1.344687,0.318479 l 0.495411,0.460024 c 0,0.03539 0.03539,0.03539 0.07077,0.07077 0.70773,0.424638 0.424638,0.353865 0.884662,0.990822 0.353865,0.460025 0.353865,0.176933 0.530798,0.884663 0.141546,0.460024 0.283092,0.743116 0.389251,1.132368 0.389252,1.4154599 0.636957,3.8217419 0.672344,5.2372019 -0.530798,-0.212319 -0.10616,0.247705 -0.530798,-0.141546 -0.106159,-0.10616 -0.283092,-0.530798 -0.389251,-0.672344 -1.203141,0.07077 -2.760147,-0.106159 -3.715583,0.70773 0,0.990822 0.353865,1.910871 1.061595,2.689374 0.389252,0.424638 0.778503,0.353865 1.41546,0.10616 0.460025,-0.176933 0.920049,-0.353865 0.955436,-0.849276 -0.247706,0.318478 -0.353865,0.318478 -0.530798,0.318478 -0.424638,-0.318478 -0.920049,-0.283092 -1.521619,-0.424638 -0.10616,-0.318478 -0.212319,-0.424638 0.03539,-0.920049 0.247706,0.81389 1.450847,1.096982 1.981644,0.460025 0.03539,-0.07077 0.10616,-0.10616 0.10616,-0.141546 0.03539,-0.03539 -0.141546,0.353865 -0.07077,0.353865 0.495411,-0.03539 0.849276,-0.247706 1.026208,-0.884663 0.353865,0.424638 -0.106159,0.10616 0.318479,0.283092 h 0.07077 c 0.566184,-1.061595 -0.03539,-1.946257 1.132368,-3.503263 0.389251,-0.530798 0.318478,-0.389252 0.566184,-1.061595 -0.247706,-0.283092 -0.530798,-0.247706 -0.566184,-0.70773 -0.03539,-0.389252 0.176932,-0.424638 0.212319,-1.0615949 l -0.81389,-0.460025 c -0.176932,-0.530797 -0.106159,-1.238527 -0.495411,-1.663165 -0.212319,-0.212319 -0.389251,-0.283092 -0.495411,-0.566184 -0.07077,-0.212319 -0.07077,-0.672344 -0.07077,-0.990822 l -0.70773,-0.318479 c 0,-0.495411 0.176933,-1.450846 -0.60157,-1.238527 0.07077,-0.424638 0.106159,-0.10616 0,-0.530798 -0.176933,-0.60157 -0.10616,-0.247705 -0.247706,-0.389251 -0.318478,0.247705 -0.247705,0.212319 -0.460024,0.60157 -0.212319,0.318479 -0.247706,0.318479 -0.495411,0.566184 -0.318479,-0.247705 -0.318479,-0.318478 -0.920049,-0.212319 -0.176933,-0.353865 -0.212319,-0.247705 -0.318479,-0.672343 -0.247705,0.141546 -0.07077,0.03539 -0.283092,0.176932 -0.141546,0.141546 -0.07077,0.07077 -0.212319,0.176933 -0.03539,-0.601571 0.212319,-1.486233 -0.636957,-1.486233 -0.389251,0 -0.247705,0 -0.460024,0.247705 L 18.925766,2.496825 C 18.642674,3.2045551 18.465741,3.2045551 17.97033,3.6291931 v 0.743116 c 0,-0.07077 -0.176932,-0.424638 -0.318478,-0.566184 -0.460025,-0.389251 -0.283092,-0.03539 -0.81389,-0.283092 -0.353865,-0.141546 -0.955435,-0.70773 -1.096981,-1.0969811 l 0.70773,-0.3892515 C 17.297987,1.576776 16.837962,1.718322 16.802576,1.081365 17.616465,1.010592 17.36876,0.69211351 17.97033,0.83365951 18.748833,1.010592 19.350404,1.576776 19.987361,1.930641 c 0.424638,0.2477055 0.247705,0.3892515 0.672343,0.8492761 0.283092,-0.2477056 0.389252,-0.2830921 0.389252,-0.7785031 0.672343,0.283092 0.247705,0.070773 0.460024,0 0.176933,-0.070773 -0.283092,-0.2477055 0.212319,0 0.530798,0.2477055 0.636957,1.2385271 1.061595,1.5923921 C 23.455238,2.9568491 22.959827,1.647549 22.641348,1.43523 22.464416,1.293684 20.730477,0.97520551 20.19968,0.76288651 c -0.353865,-0.141546 -0.601571,-0.353865 -1.061595,-0.495411 -1.910871,-0.5307975 -5.237202,-0.778503 -7.112686,-0.1769325 -0.81389,0.283092 -1.450847,0.6723435 -2.2647359,0.8138895 C 7.9913376,1.1875245 7.0005156,2.4614385 5.8327611,3.2753281 c -1.3093005,0.884662 -2.8663065,3.149398 -2.972466,4.741791 -0.1061595,1.910871 -0.566184,2.0878029 -0.7431165,3.7155819 -0.1061595,1.061595 -0.035386,1.273914 -0.70773,2.193963 -0.46002449,0.636957 -0.353865,1.132368 -0.3892515,1.804712 0,0.318478 -0.070773,0.247705 -0.070773,0.70773 0.035386,0.353865 0.070773,0.389251 0.1769325,0.566184 0.212319,0.318478 0.1769325,0 0.3184785,0.389251 0.035386,0.212319 0,1.096982 0,1.309301 0.035386,0.495411 1.132368,1.132368 1.910871,1.132368 0.3892515,1.486233 1.486233,3.043239 2.8663065,3.927901 0.2477055,0.141546 0.495411,0.247706 0.70773,0.460025 l 0.566184,0.636957 c -0.1769325,0.495411 -0.1769325,0.212319 -0.141546,0.60157 0.035387,0.353865 0.1061595,0.424638 0.2477055,0.70773 0.283092,0.530798 0.1061595,0.460025 0.3184785,0.884663 0.1769325,0.389251 0,0.424638 0.353865,0.778503 l 0.6723435,0.990822 c 0.07077,0.424638 -0.07077,0.283092 -0.141546,0.743116 0.424638,0.247706 0.247706,0.176933 0.778503,0.212319 0.389252,0.03539 0.7077299,0.141546 1.0262089,0.247706 0.283092,1.450846 0.212319,0.424638 0.495411,1.167754 0.141546,0.353865 0.07077,0.283092 0,0.495411 0.460024,0.03539 0.70773,0.460025 1.238527,0.636957 0.495411,0.212319 1.096981,0.247706 1.663165,0.141546 0.247706,0.566184 -0.03539,0.389252 0.530798,0.530798 l 0.424638,-0.07077 c 1.684817,1.579516 3.362827,0.580182 3.541639,0.520578 0.743117,-0.247705 1.978655,0.541017 2.615612,0.187152 l 0.884662,-0.530798 c 0.566184,-0.283092 0.176933,0.389252 0.920049,-0.283092 l 2.406282,-2.052417 c 0.389252,-0.353865 0.212319,-0.283092 0.778503,-0.318478 z M 14.148588,15.837535 c 0.601571,0 0.70773,-0.318478 1.238528,-0.106159 -0.424638,0.283092 -0.672344,0.176932 -0.990822,0.70773 l -0.247706,-0.460025 c -0.424638,0.212319 -0.07077,0.141546 -0.495411,0.318479 -0.176932,-0.460025 -0.07077,0 -0.247705,-0.424638 l -0.955435,0.672343 c -0.743117,0.530798 -0.460025,0.10616 -1.061595,0.318479 0.03539,0.495411 0.03539,0.60157 0.353865,0.955435 0.566184,-0.07077 0.920049,-0.247705 1.557005,-0.247705 0.884663,-0.03539 0.990822,-0.07077 1.698552,-0.176933 -0.318478,-0.07077 -0.353865,-0.03539 -0.60157,-0.247705 0.212319,-0.283092 0.07077,-0.176933 0.460024,-0.353865 0.07077,0.318478 0.424638,0.955435 1.52162,0.530797 -0.176933,0.636957 -0.530798,0.601571 -1.061595,0.884663 0.353865,0.283092 1.769325,0.03539 2.370895,-0.70773 0.247706,-0.318479 0.460025,-0.601571 0.70773,-0.955436 0.389252,-0.530797 0.672344,-0.389251 0.81389,-0.955435 -0.778503,-1.344687 -1.663166,-0.920049 -2.406282,-0.778503 -0.318479,0.07077 -2.406282,-0.212319 -2.653988,1.026208 z"
       id="path1-6"
       sodipodi:nodetypes="ccccccccccccccccccssssssssssccccccccscccccccccccccccccccccccccccccccccccccccccccccsccccccccccccccccccccccccccccccccccccccccccccccccccccccccccccccccccccccccccccccccccccccccccccccccccccccccccccccccccccccscccccccccccccccccsccccccccccccccccccccccccccccccsccccccccccccccccccccccccc"
       style="clip-rule:evenodd;fill:#000000;fill-rule:evenodd;stroke-width:1.5456;image-rendering:optimizeQuality;shape-rendering:geometricPrecision;text-rendering:geometricPrecision" /></g></svg>
