<svg xmlns="http://www.w3.org/2000/svg" xml:space="preserve" width="120" height="95">
    <path d="M114.35 93.271c.236.549.83.85 1.412.706a1.2 1.2 0 0 0 .93-1.266 1.215 1.215 0 0 0-1.099-1.132m0-2.228v3.92m-2.194 0h2.195m-2.195-3.92v3.92m-67.467-5.713h.403m-.403 3.159v-3.159m1.244 3.159h-1.244m1.244.862a1.212 1.213 0 0 0-1.099 1.132 1.215 1.215 0 0 0 .93 1.266 1.21 1.21 0 0 0 1.411-.706m58.342-48.74h-1.48m1.48 2.655v-2.655m-1.48 2.655v-2.655M62.853 9.191l.337.639.862.336.974-.123.638-.516v-.672l-.638-.526-.974-.113-.862.336Zm-1.825 57.564L51.42 85.261m9.08-18.774-9.038 17.396m66.191-20.678v-1.668m0 1.67a11.47 11.474 0 0 0-.783 3.517m-5.678-3.517v-1.67m.785 5.187a11.47 11.474 0 0 0-.785-3.517M73.48 44.534h-1.467m1.467 2.653v-2.654m-1.467 2.654v-2.654m-8.208-28.71h.997m-.997 0-.392 31.364m1.389-31.364.392 31.364M82.716 5.854a1.43 1.43 0 0 0-1.432-1.434m1.433 1.434V18.41M60.39 4.421h20.895m31.97 42.768a12.316 12.32 0 0 0 6.137-10.945m0 0a12.086 12.09 0 0 0-8.78-11.952m0 0a35.378 35.389 0 0 0-6.314-.942m-22.241-5.197a74.86 74.884 0 0 0 22.24 5.198M69.02 6a30.741 30.75 0 0 0 13.037 12.153M69.022 6a1.3 1.3 0 0 0-.952-.628m-7.681 0h7.681m-7.68 41.817V4.42m50.804 58.787h6.461m-13.09-1.67v-2.029m13.818 2.028v-2.028m-13.817 2.03h13.817m-6.405 5.186h4.894m-4.009 19.726-.503-19.726m3.627 19.726.504-19.726m-.258 19.726h-3.616v2.9h3.616zM62.46 65.615V63.8m-2.353 1.814a1.176 1.176 0 1 0 2.353 0m-2.353 0V63.8m-8.05 2.856-.829 24.06m0 0h-1.847m.727-4.266.504-17.721m7.357-4.93v1.378h-2.598v0l-1.489.269-1.322.74-1.007 1.13-.56 1.413h-2.262m-2.14 17.72-.514-17.72m-7.346-4.93v1.378h2.597v0l1.49.269 1.321.74.998 1.13.559 1.413h3.035M47.175 89.35v3.92m2.206 0h-2.206m2.206-3.92v3.92m-3.046-6.821h4.021v2.9h-4.02zM63.098 63.8v-2.296M32.852 63.8v-2.296M65.83 59.51a1.997 1.997 0 0 0-1.992 1.992m-.74 2.298H32.852m6.205-13.867.873.616.56.918.134 1.053v0l-.37 1.758-1.152 1.377-1.669.673v0L36 56.541h-2.777v0l-.83.403-.414.818m0 3.742v-3.742m7.078-7.83v-2.745m-7.078 14.317h31.858m55.554-1.994H65.83m53.56 0V47.187m-80.334 0h80.334" style="fill:none;stroke:#000;stroke-width:.8404;stroke-linecap:round;stroke-linejoin:round;stroke-miterlimit:10;stroke-dasharray:none;stroke-opacity:1"/>
    <path d="m38.224 44.42-12.735 7.386L8.397 39.93l18.041-3.463 8.434-17.228m1.864 71.626-7.24-.964-2.074-19.823-12.815-3.386 12.94 3.329-14.266 19.772 5.566 1.377M8.332 40.109l6.214 26.461" style="fill:none;fill-opacity:1;stroke:#000;stroke-width:3;stroke-linecap:round;stroke-linejoin:round;stroke-miterlimit:4.7;stroke-dasharray:none;stroke-opacity:1"/>
    <path d="m28.479 66.793-22.375.459a2.958 2.96 0 0 0-2.898 3.015 2.958 2.96 0 0 0 3.019 2.9l.886-.019v16.798a1.811 1.812 0 0 0 1.811 1.812 1.811 1.812 0 0 0 1.811-1.812v-16.87l17.868-.366a2.958 2.96 0 0 0 2.896-3.017 2.958 2.96 0 0 0-3.018-2.9" style="color:#000;display:inline;fill:#000;stroke-width:1;stroke-linecap:round;stroke-linejoin:round;stroke-miterlimit:4.7;-inkscape-stroke:none"/>
    <path d="M3.65 6.573A1.654 1.655 0 0 0 2 8.227a1.654 1.655 0 0 0 1.405 1.634L2.61 25.18s2.395 2.073 1.45 2.895c.434-.4 1.89-1.558 2.835-.966 0 0 3.766 3.57 4.515 2.733.751-.838-3.453-3.988-2.81-6.148.817-2.751 8.239-.965 7.274-4.601l-.555-1.831L4.736 9.474a1.654 1.655 0 0 0 .568-1.248A1.654 1.655 0 0 0 3.65 6.573m8.238 10.087c-5.187 0-9.418 4.235-9.418 9.423 0 5.19 4.23 9.423 9.418 9.423s9.419-4.233 9.419-9.421c0-5.19-4.23-9.425-9.418-9.425m0 2.416a6.987 6.99 0 0 1 7.004 7.007 6.985 6.987 0 0 1-7.003 7.007 6.985 6.987 0 0 1-7.005-7.005 6.987 6.99 0 0 1 7.004-7.01" style="fill:#000;fill-opacity:.941704;stroke:none;stroke-width:8.7;stroke-linecap:round;stroke-linejoin:round;stroke-miterlimit:4.7;stroke-dasharray:none"/>
</svg>
