<svg xmlns="http://www.w3.org/2000/svg" xml:space="preserve" width="100" height="100"><path d="m50.292 34.81 20.891 4.142" style="display:inline;fill:none;stroke:#000;stroke-width:3;stroke-linecap:round;stroke-linejoin:round;stroke-miterlimit:4.7;stroke-dasharray:none;stroke-opacity:1" transform="translate(-.783 4.782)"/><g style="display:inline;stroke-width:1.83867;stroke-dasharray:none"><path d="m44.242 28.299 1.33 16.76" style="fill:none;stroke:#000;stroke-width:1.83867;stroke-linecap:round;stroke-linejoin:round;stroke-miterlimit:4.7;stroke-dasharray:none;stroke-opacity:1" transform="matrix(1.63742 0 0 1.62584 -22.934 -6.417)"/><path d="m55.906 62.072-3.415-.464 1.22-11.798-8.14-4.75-14.604 3.487.703 13.919-3.43-.497" style="display:inline;fill:none;stroke:#000;stroke-width:1.83867;stroke-linecap:round;stroke-linejoin:round;stroke-miterlimit:4.7;stroke-dasharray:none;stroke-opacity:1" transform="matrix(1.63742 0 0 1.62584 -22.934 -6.417)"/><path d="m37.473 19.149-2.377-3.57 3.39 1.25-.972-3.872 3.37 2.239.374-3.927 1.786 3.993 1.545-4.452.732 4.38 2.457-2.447-1.244 4.527m.615 1.498a5.01 5.01 0 0 1-3.438 6.176 4.967 4.967 0 0 1-6.157-3.418c-.75-2.65.904-5.155 3.554-5.916s5.29.508 6.041 3.158" style="display:inline;fill:none;stroke:#000;stroke-width:1.22578;stroke-linecap:round;stroke-linejoin:round;stroke-miterlimit:4.7;stroke-dasharray:none;stroke-opacity:1" transform="matrix(1.63742 0 0 1.62584 -22.934 -6.417)"/></g><path d="m32.209 53.022-4.088-7.364 22.17-10.847" style="display:inline;fill:none;stroke:#000;stroke-width:3.00001;stroke-linecap:round;stroke-linejoin:round;stroke-miterlimit:4.7;stroke-dasharray:none;stroke-opacity:1" transform="translate(-.783 4.782)"/><path d="M64.191 8.563c-.42.03-.81.276-1.01.667l-.636 1.249-.387-.11a.594.594 0 0 0-.322 1.143l.158.045-.488.955A1.23 1.23 0 0 0 61.795 14l-.877 2.748-.955-.27c.018-.387-.055-.753-.22-1.05A1.25 1.25 0 0 0 59 14.82c-.414-.117-.866.008-1.24.34-.307.273-.547.671-.674 1.121-.169.597-.122 1.194.127 1.639.17.305.433.52.74.607.63.178 1.298-.207 1.688-.908l.916.258-.989 3.094-.81-.229a1.96 1.96 0 0 0-.223-1.049 1.24 1.24 0 0 0-.74-.607c-.78-.22-1.62.42-1.914 1.459-.169.597-.124 1.194.125 1.639.17.304.435.52.742.607.414.117.866-.005 1.24-.338a2.2 2.2 0 0 0 .448-.57l.771.219-4.96 15.535c-2.6-.256-5.17.15-7.294 1.166-2.417 1.155-4.1 3.04-4.74 5.302-.222 1.631-.493 3.269-.633 4.905a4.8 4.8 0 0 1-1.055 2.834 1.225 1.225 0 0 0-.113 1.363l.002.002c.239.424.684.65 1.164.59l.182-.014a.84.84 0 0 1 .504.069c.421.214.657.919.634 1.882-.027 1.15-.402 2.52-1.056 3.858-.924 1.89-2.293 3.408-3.41 3.781q-.483.16-.8.002c-.026-.014-.194-.11-.882-.658a1.05 1.05 0 0 0-.986-.18 1.105 1.105 0 0 0-.758 1.19c.151 1.341-.263 2.677-1.139 3.66-1.76 1.977-2.98 4.043-3.527 5.976-.692 2.447-.345 4.98.967 7.327.407.727.907 1.437 1.498 2.12 2.251 2.606 5.64 4.663 9.562 5.825.333-.44.649.01 1.01.271 3.813.956 7.616.948 10.783-.056 3.638-1.154 6.143-3.555 7.049-6.76.547-1.935.59-4.335.123-6.94a4.64 4.64 0 0 1 .108-2.062c.17-.602.452-1.157.84-1.652.278-.357.316-.84.097-1.233l-.002-.002a1.05 1.05 0 0 0-1.053-.539c-.89.108-1.08.1-1.1.1-.232-.019-.461-.16-.679-.42-.757-.904-1.127-2.917-.924-5.008.144-1.483.541-2.846 1.12-3.84.484-.833 1.055-1.309 1.527-1.271.16.013.31.08.46.203l.153.111a1.15 1.15 0 0 0 1.299.106c.437-.243.68-.722.62-1.221-.075-.621-.058-1.047.016-1.438.027-.102.043-.207.073-.308q.053-.185.129-.375l.05-.145c.09-.212.194-.436.317-.7.516-1.115 1.36-2.58 1.928-4.526.568-1.947.294-4.736-1.16-6.987-1.279-1.978-3.256-3.67-5.604-4.812l4.437-17.983.508.143c-.018.387.057.752.223 1.049.17.305.433.52.74.607.78.22 1.62-.42 1.914-1.459.169-.596.124-1.193-.125-1.638a1.25 1.25 0 0 0-.742-.608c-.414-.117-.866.006-1.24.338-.174.154-.325.35-.448.57l-.544-.154.777-3.154.65.185c-.018.387.057.752.223 1.05.17.304.433.52.74.607.78.22 1.622-.42 1.916-1.46.169-.596.122-1.195-.127-1.64a1.25 1.25 0 0 0-.74-.607c-.414-.118-.868.007-1.242.34a2.2 2.2 0 0 0-.446.568l-.689-.194.158-.646a1.236 1.236 0 0 0 1.026-1.12l.086-1.07.156.045a.594.594 0 0 0 .322-1.14l-.385-.11.112-1.396a1.23 1.23 0 0 0-.895-1.283l-1.297-.368a1.2 1.2 0 0 0-.424-.043M43.377 88.908c-.344-.064-.674-.177-1.01-.271-.023.067-.054.108-.074.181l-1.535 5.457c-.135.482-.134.9-.002.936l.574.158c.132.037.347-.32.48-.803l1.534-5.457c.02-.076.018-.129.033-.2M60.9 28.703l-.24.973c-.2-.612-.08-.776.24-.973" style="display:inline;fill:#fff;stroke:none;stroke-width:3.00001;stroke-linecap:round;stroke-linejoin:round;stroke-miterlimit:4.7"/><path d="M48.156 5.782a1.24 1.24 0 0 0-.554 1.076l.054 1.4-.39.094a.594.594 0 0 0 .277 1.154l.16-.038.04 1.072a1.23 1.23 0 0 0 .98 1.157l.578 2.826-.965.232c-.173-.347-.416-.631-.706-.81a1.25 1.25 0 0 0-.944-.166c-.42.1-.752.43-.916.902-.135.388-.15.853-.04 1.308.144.602.477 1.1.911 1.367.298.183.633.243.943.168.636-.152 1.032-.815 1.028-1.617l.926-.223.65 3.183-.82.196a1.96 1.96 0 0 0-.706-.806 1.24 1.24 0 0 0-.943-.168c-.788.189-1.208 1.158-.957 2.208.145.603.476 1.102.91 1.369.298.182.634.241.945.167.418-.1.752-.428.916-.9a2.2 2.2 0 0 0 .112-.717l.78-.186 3.265 15.978c-2.393 1.046-4.436 2.656-5.793 4.581-1.544 2.19-2.092 4.657-1.544 6.943.603 1.532 1.167 3.093 1.845 4.588.276.526.691 1.596.465 2.988-.08.496.143.984.567 1.245h.003a1.15 1.15 0 0 0 1.304-.054l.152-.1a.84.84 0 0 1 .473-.187c.472-.019 1.023.48 1.474 1.332.538 1.017.88 2.395.963 3.882.118 2.1-.335 4.094-1.127 4.966q-.343.377-.696.392c-.03 0-.224-.002-1.092-.143a1.05 1.05 0 0 0-.948.325 1.105 1.105 0 0 0-.08 1.408c.788 1.097 1.08 2.465.796 3.75-.57 2.585-.625 4.985-.157 6.938.593 2.472 2.133 4.513 4.424 5.92q1.068.654 2.344 1.118c3.237 1.172 7.2 1.31 11.19.407-.068-.387-.066-.713.047-.741l.58-.14c.112-.028.266.254.386.624 3.793-1.03 7.107-2.895 9.38-5.32 2.61-2.784 3.621-6.102 2.845-9.342-.468-1.955-1.604-4.07-3.284-6.114a4.64 4.64 0 0 1-.914-1.852 4.8 4.8 0 0 1-.075-1.852 1.11 1.11 0 0 0-.517-1.123h-.003a1.05 1.05 0 0 0-1.182.044c-.724.53-.894.616-.91.624q-.32.146-.799-.034c-1.102-.418-2.408-1.993-3.253-3.918-.6-1.363-.92-2.747-.9-3.897.015-.963.281-1.658.71-1.855a.83.83 0 0 1 .502-.048l.187.022a1.15 1.15 0 0 0 1.185-.542 1.22 1.22 0 0 0-.055-1.369c-.83-1.132-.846-1.65-.94-2.874-.095-1.223-.074-2.914-.53-4.89s-2.058-4.275-4.427-5.528c-2.082-1.1-4.633-1.61-7.24-1.46l-4.918-17.857.513-.124c.173.347.416.628.706.806.298.183.633.243.943.169.788-.19 1.209-1.159.957-2.209-.144-.603-.475-1.102-.91-1.368a1.25 1.25 0 0 0-.944-.168c-.42.1-.753.428-.917.901a2.2 2.2 0 0 0-.112.717l-.55.131-.864-3.132.658-.156c.174.347.417.629.707.807.298.182.632.242.943.168.788-.19 1.21-1.16.958-2.21-.144-.602-.478-1.102-.912-1.369a1.25 1.25 0 0 0-.943-.168c-.42.1-.754.43-.918.904a2.2 2.2 0 0 0-.11.713l-.696.168-.178-.64a1.236 1.236 0 0 0 .347-1.478l-.448-.976.158-.037a.594.594 0 0 0-.276-1.153l-.39.093-.585-1.273a1.23 1.23 0 0 0-1.407-.682l-1.311.313a1.2 1.2 0 0 0-.39.17m21.11 80.268c-.237.065-.47.137-.71.195-.102.024-.203.04-.304.062.012.07.006.12.024.195l1.328 5.511c.117.486.322.85.455.817l.579-.142c.133-.033.146-.45.027-.936l-1.33-5.51c-.019-.077-.047-.122-.07-.192M48.823 6.765l1.311-.314a.04.04 0 0 1 .035.006.05.05 0 0 1 .018.02l1.542 3.345c.003.006.01.02 0 .04s-.025.023-.03.025l-2.712.65c-.018.004-.057-.01-.058-.043l-.142-3.682c0-.022.015-.042.036-.047m1.077 4.772 1.436-.343.145.527-1.47.353zm-2.938 3.399q.015.002.047.02c.133.081.3.31.378.635.101.421-.012.717-.08.776a.2.2 0 0 1-.046-.023c-.132-.08-.3-.307-.379-.632-.1-.421.012-.717.08-.776m3.287-1.698 1.547-.372.274.992-1.616.389zm4.388-2.42q.015.004.047.022c.132.081.299.308.377.633.1.421-.012.717-.08.777a.2.2 0 0 1-.045-.022c-.133-.08-.302-.308-.38-.633-.101-.422.014-.719.081-.778m-3.946 4.592 1.693-.407.275.995-1.761.42zm-2.696 3.834q.015.004.046.023c.132.081.3.307.379.632.1.422-.014.719-.082.778a.2.2 0 0 1-.045-.021c-.132-.081-.3-.31-.378-.635-.101-.421.012-.717.08-.777m3.14-1.663 1.84-.441.273.995-1.905.456zm4.534-2.453q.016.003.047.021c.133.081.3.31.378.635.101.421-.012.717-.08.776a.2.2 0 0 1-.046-.023c-.132-.08-.3-.307-.379-.632-.1-.421.012-.717.08-.777m-4.09 4.624 1.985-.473c10.967 39.773-4.313-15.64 9.26 33.631l-4.263 1.02zm1.584 17.829q.376-.2.769-.382l1.836 8.988c.41 2.015.15.73 1.876 9.184l6.65-1.594-4.925-17.882c2.303-.093 4.536.372 6.361 1.337 2.093 1.106 3.451 2.737 3.925 4.717.355 1.48.371 2.361.459 3.52.087 1.158.193 3.227 1.111 4.705.013.017.012.03.008.038a2 2 0 0 0-.209-.026 2 2 0 0 0-1.153.147c-1.716.79-1.888 3.932-.403 7.31.994 2.264 2.495 4.007 3.918 4.547.617.235 1.211.234 1.717 0 .072-.032.23-.103.915-.597a6 6 0 0 0 .122 2.105 5.8 5.8 0 0 0 1.15 2.328c1.544 1.88 2.625 3.882 3.046 5.638.872 3.638-.909 6.496-2.556 8.253-1.913 2.04-4.628 3.67-7.766 4.684l-1.693-7.066-.31-8.671-6.844 1.64 3.65 7.87 1.694 7.066c-3.256.518-6.414.296-9.043-.656-2.265-.82-5.147-2.56-6.018-6.2-.42-1.754-.365-4.03.158-6.406a5.89 5.89 0 0 0-.874-4.53c.728.115.962.125 1.09.12.554-.022 1.082-.29 1.525-.778 1.024-1.126 1.573-3.36 1.434-5.832-.206-3.684-1.783-6.405-3.67-6.33a2 2 0 0 0-1.095.39c-.049.028-.096.062-.15.102 0 0-.037 0-.033-.022l-.001-.002c.267-1.643-.022-2.516-.534-3.623-.513-1.106-1.376-2.873-1.793-4.418-.474-1.978-.005-4.047 1.36-5.982 1.04-1.477 2.535-2.752 4.296-3.692m3.766 21.368a1.81 1.81 0 0 0-.992 2.055l1.534 6.401a.617.617 0 0 1-1.2.29l-.084-.352a.594.594 0 0 0-.716-.438l-.33.078a.594.594 0 0 0 .027 1.16c.136.393.4.724.76.944.41.252.893.33 1.362.217a1.81 1.81 0 0 0 1.335-2.176l-1.533-6.401a.617.617 0 0 1 1.199-.29l.086.354a.593.593 0 0 0 .714.44l.33-.081a.594.594 0 0 0-.027-1.16 1.805 1.805 0 0 0-2.465-1.041m8.683-2.003a1.81 1.81 0 0 0-.785 1.744.592.592 0 0 0 .502 1.044l.33-.079a.594.594 0 0 0 .44-.714l-.086-.353a.617.617 0 0 1 1.2-.285l1.536 6.4a1.8 1.8 0 0 0 .811 1.117 1.798 1.798 0 0 0 2.729-1.78.592.592 0 0 0-.5-1.044l-.332.08a.59.59 0 0 0-.438.713l.083.352a.618.618 0 0 1-1.2.287l-1.533-6.401a1.8 1.8 0 0 0-.812-1.119 1.79 1.79 0 0 0-1.945.038m-5.923 6.64a.593.593 0 0 0 .49 1.053l6.055-1.451a.593.593 0 1 0-.276-1.153l-6.055 1.451a.6.6 0 0 0-.214.1m3.165 7.735 4.024-.965.244 6.797-1.408.336zm3.242 7.297 1.198-.288 1.58 6.607q-.296.08-.596.153-.3.072-.599.134z" style="display:inline;stroke-width:1.77705;stroke-linecap:square;stroke-linejoin:round;stroke-miterlimit:4.7" transform="rotate(29.258 50.847 37.888)"/><path d="M49.419 61.586c-.364-1.515-.596-1.495-.596-1.495m-5.861 1.515c12.2-3.335 40.615-10.807 41.226-10.893.97-.136 1.798 1.007 1.798 1.007l.67.127C72.919 55.359 59.4 59.444 45.638 62.862l-.566-1.834" style="fill:none;stroke:#000;stroke-width:1;stroke-linecap:round;stroke-linejoin:round;stroke-miterlimit:4.7;stroke-dasharray:none;stroke-opacity:1" transform="rotate(29.258 50.847 37.888)"/><path d="m71.292 38.937-9.773-14.932" style="display:inline;fill:none;stroke:#000;stroke-width:3.00001;stroke-linecap:round;stroke-linejoin:round;stroke-miterlimit:4.7;stroke-dasharray:none;stroke-opacity:1" transform="translate(-.783 4.782)"/></svg>