<?xml version="1.0" encoding="UTF-8" standalone="no"?>
<svg
   xml:space="preserve"
   width="60"
   height="90"
   version="1.1"
   id="svg10"
   sodipodi:docname="human_accordion_1.svg"
   inkscape:version="1.3.2 (091e20e, 2023-11-25)"
   xmlns:inkscape="http://www.inkscape.org/namespaces/inkscape"
   xmlns:sodipodi="http://sodipodi.sourceforge.net/DTD/sodipodi-0.dtd"
   xmlns="http://www.w3.org/2000/svg"
   xmlns:svg="http://www.w3.org/2000/svg"><defs
     id="defs10" /><sodipodi:namedview
     id="namedview10"
     pagecolor="#ffffff"
     bordercolor="#000000"
     borderopacity="0.25"
     inkscape:showpageshadow="2"
     inkscape:pageopacity="0.0"
     inkscape:pagecheckerboard="0"
     inkscape:deskcolor="#d1d1d1"
     inkscape:current-layer="svg10" /><g
     id="g10"
     transform="translate(0.3280301,1.76151)"><path
       d="M 16.623637,14.554039 12.731489,8.7497904 18.282343,10.78209 16.690771,4.4868379 22.208876,8.1270936 22.821271,1.74242 25.745703,8.2343991 28.275517,0.9961594 29.474109,8.1173386 33.49725,4.1389081 31.460299,11.499086 m 1.007014,2.435508 a 8.2034742,8.1454584 0 0 1 -5.62945,10.041188 8.1330651,8.0755473 0 0 1 -10.081595,-5.557121 c -1.228065,-4.308476 1.480227,-8.381205 5.81939,-9.6184696 4.339163,-1.2372642 8.661952,0.8259267 9.891655,5.1344026"
       style="display:inline;fill:none;stroke:#000000;stroke-width:2.00001;stroke-linecap:round;stroke-linejoin:round;stroke-miterlimit:4.7;stroke-dasharray:none;stroke-opacity:1"
       id="path4" /><path
       id="path5"
       style="fill:#ffffff;stroke:#000000;stroke-width:3;stroke-linecap:round;stroke-linejoin:round;stroke-miterlimit:4.7;stroke-dasharray:none"
       d="m 26.338597,28.177829 -21.1900003,16.63 m 21.1910003,-16.63 31.499,23.613 M 46.8062,84.339969 41.21441,83.58558 43.212063,64.403919 29.883464,56.681179 5.9705821,62.350483 7.1216884,84.98055 1.5053378,84.172508 m 24.8347492,-55.99393 3.545014,28.500976" /><g
       style="display:inline;stroke-width:1.0621"
       id="g7"
       transform="translate(-21.801403,-10.162171)"><path
         d="m 49.709,34.367 a 0.44,0.44 0 0 0 -0.297,0.139 34,34 0 0 0 -1.555,1.803 33,33 0 0 0 -1.92,-1.413 0.436,0.436 0 0 0 -0.595,0.102 34,34 0 0 0 -1.352,1.97 33,33 0 0 0 -2.084,-1.183 0.436,0.436 0 0 0 -0.578,0.168 35,35 0 0 0 -1.135,2.123 32,32 0 0 0 -2.23,-0.933 c 0,0 -0.207,-0.039 -0.31,0.002 l -13.458,5.183 a 2.37,2.37 0 0 0 -1.355,3.059 l 9.898,25.691 a 2.38,2.38 0 0 0 2.21,1.516 2.4,2.4 0 0 0 0.849,-0.158 l 13.46,-5.186 c 1.48,-0.57 3.034,-0.637 4.442,-0.205 0.319,0.098 0.624,0.233 0.918,0.39 l 3.16,1.692 a 2.4,2.4 0 0 0 1.114,0.28 2.36,2.36 0 0 0 2.088,-1.253 L 73.953,43.871 c 0.321,-0.6 0.37,-1.295 0.131,-1.94 a 2.44,2.44 0 0 0 -1.15,-1.286 l -3.42,-1.829 a 0.44,0.44 0 0 0 -0.332,-0.033 c -0.02,0.006 -2.096,0.76 -2.274,0.828 a 35,35 0 0 0 -0.877,-2.23 0.436,0.436 0 0 0 -0.556,-0.233 33,33 0 0 0 -2.207,0.936 34,34 0 0 0 -1.114,-2.113 0.436,0.436 0 0 0 -0.582,-0.17 33,33 0 0 0 -2.07,1.181 34,34 0 0 0 -1.336,-1.97 0.436,0.436 0 0 0 -0.598,-0.102 34,34 0 0 0 -1.916,1.406 34,34 0 0 0 -1.545,-1.804 0.436,0.436 0 0 0 -0.605,-0.033 34,34 0 0 0 -1.744,1.613 33,33 0 0 0 -1.74,-1.62 0.44,0.44 0 0 0 -0.309,-0.105"
         style="display:inline;fill:#ffffff;stroke-width:1.0621"
         transform="matrix(0.94153,0,0,0.94153,7.783,6.231)"
         id="path6" /><path
         d="m 74.084,41.93 a 2.44,2.44 0 0 0 -1.15,-1.286 l -3.42,-1.828 a 0.44,0.44 0 0 0 -0.332,-0.032 c -0.02,0.006 -2.096,0.758 -2.273,0.826 a 35,35 0 0 0 -0.878,-2.229 0.436,0.436 0 0 0 -0.556,-0.233 33,33 0 0 0 -2.207,0.936 34,34 0 0 0 -1.114,-2.114 0.436,0.436 0 0 0 -0.581,-0.17 33,33 0 0 0 -2.07,1.182 34,34 0 0 0 -1.337,-1.97 0.436,0.436 0 0 0 -0.598,-0.102 34,34 0 0 0 -1.915,1.407 34,34 0 0 0 -1.545,-1.804 0.436,0.436 0 0 0 -0.606,-0.035 34,34 0 0 0 -1.743,1.614 33,33 0 0 0 -1.74,-1.619 0.436,0.436 0 0 0 -0.606,0.034 34,34 0 0 0 -1.555,1.802 33,33 0 0 0 -1.92,-1.413 0.436,0.436 0 0 0 -0.597,0.102 34,34 0 0 0 -1.35,1.971 33,33 0 0 0 -2.085,-1.184 0.436,0.436 0 0 0 -0.579,0.168 35,35 0 0 0 -1.134,2.123 32,32 0 0 0 -2.23,-0.934 c 0,0 -0.206,-0.038 -0.31,0.002 l -13.457,5.185 a 2.37,2.37 0 0 0 -1.357,3.059 l 9.9,25.69 a 2.38,2.38 0 0 0 2.207,1.516 2.4,2.4 0 0 0 0.85,-0.159 L 49.257,67.25 c 1.48,-0.57 3.034,-0.638 4.443,-0.206 0.318,0.098 0.623,0.234 0.917,0.391 l 3.16,1.691 a 2.4,2.4 0 0 0 1.113,0.28 2.36,2.36 0 0 0 2.088,-1.252 L 73.954,43.872 c 0.32,-0.6 0.369,-1.297 0.13,-1.941 m -5.673,-1.974 -11.04,20.66 9.588,-20.095 c 0.274,-0.1 1.238,-0.484 1.452,-0.565 m -2.24,0.19 -11.627,24.372 8.87,-25.537 a 32,32 0 0 1 1.983,-0.867 34,34 0 0 1 0.776,2.032 m -4.567,-3.376 a 33,33 0 0 1 0.987,1.92 L 54.087,63.176 59.75,37.858 a 32,32 0 0 1 1.856,-1.087 m -3.894,-0.9 a 33,33 0 0 1 1.188,1.793 l -6.046,27.032 3.142,-27.534 a 32,32 0 0 1 1.716,-1.29 m -3.96,-0.454 a 33,33 0 0 1 1.378,1.645 l -3.063,26.84 0.158,-27.04 a 33,33 0 0 1 1.528,-1.445 m -3.985,-0.006 a 32,32 0 0 1 1.585,1.51 l -0.16,27.266 -2.812,-27.132 a 33,33 0 0 1 1.387,-1.644 m -3.972,0.445 a 32,32 0 0 1 1.718,1.294 l 2.953,28.485 -5.924,-27.903 a 33,33 0 0 1 1.253,-1.876 m -3.92,0.897 a 32,32 0 0 1 1.788,1.04 l 5.892,27.752 -8.688,-26.859 a 34,34 0 0 1 1.007,-1.933 m -1.831,2.216 6.368,19.688 -7.836,-20.336 a 31,31 0 0 1 1.468,0.648 m -9.514,1.853 3.217,-1.24 10.973,28.48 -3.217,1.24 z m -6.02,2.32 5.206,-2.006 0.39,1.012 -6.545,2.522 a 1.496,1.496 0 0 1 0.95,-1.529 m -0.69,2.363 6.598,-2.542 9.567,24.827 -6.6,2.543 z m 11.663,26.117 a 1.5,1.5 0 0 1 -0.537,0.1 c -0.473,0 -0.913,-0.23 -1.192,-0.597 l 6.545,-2.521 0.39,1.012 z M 45.534,67.749 34.559,39.27 37.56,38.114 48.533,66.594 Z M 73.186,43.461 60.209,67.743 a 1.49,1.49 0 0 1 -1.319,0.79 q -0.372,0 -0.702,-0.176 l -3.084,-1.648 14.384,-26.918 3.083,1.648 a 1.48,1.48 0 0 1 0.726,0.884 1.5,1.5 0 0 1 -0.112,1.138 m -5.213,2.125 a 0.47,0.47 0 0 1 -0.469,0.469 0.47,0.47 0 0 1 -0.468,-0.469 0.47,0.47 0 0 1 0.468,-0.469 0.47,0.47 0 0 1 0.47,0.469 m -0.79,1.475 a 0.47,0.47 0 0 1 -0.468,0.47 0.47,0.47 0 0 1 -0.469,-0.47 0.47,0.47 0 0 1 0.469,-0.468 0.47,0.47 0 0 1 0.469,0.468 m -0.789,1.476 a 0.47,0.47 0 0 1 -0.468,0.469 0.47,0.47 0 0 1 -0.47,-0.47 0.47,0.47 0 0 1 0.47,-0.468 0.47,0.47 0 0 1 0.468,0.469 m -0.788,1.475 a 0.47,0.47 0 0 1 -0.469,0.469 0.47,0.47 0 0 1 -0.468,-0.469 0.47,0.47 0 0 1 0.468,-0.468 0.47,0.47 0 0 1 0.469,0.468 m 3.648,-4.676 a 0.47,0.47 0 0 1 -0.469,0.469 0.47,0.47 0 0 1 -0.468,-0.47 0.47,0.47 0 0 1 0.468,-0.468 0.47,0.47 0 0 1 0.47,0.469 m -0.79,1.475 a 0.47,0.47 0 0 1 -0.468,0.469 0.47,0.47 0 0 1 -0.469,-0.469 0.47,0.47 0 0 1 0.47,-0.469 0.47,0.47 0 0 1 0.468,0.47 m -0.788,1.475 a 0.47,0.47 0 0 1 -0.47,0.468 0.47,0.47 0 0 1 -0.468,-0.468 0.47,0.47 0 0 1 0.469,-0.47 0.47,0.47 0 0 1 0.469,0.47 m -0.789,1.475 a 0.47,0.47 0 0 1 -0.469,0.469 0.47,0.47 0 0 1 -0.468,-0.469 0.47,0.47 0 0 1 0.468,-0.469 0.47,0.47 0 0 1 0.47,0.469 m -0.79,1.475 a 0.47,0.47 0 0 1 -0.468,0.47 0.47,0.47 0 0 1 -0.469,-0.47 0.47,0.47 0 0 1 0.47,-0.468 0.47,0.47 0 0 1 0.468,0.468 m 4.447,-6.169 a 0.47,0.47 0 0 1 -0.469,0.469 0.47,0.47 0 0 1 -0.468,-0.469 0.47,0.47 0 0 1 0.468,-0.469 0.47,0.47 0 0 1 0.47,0.47 m -0.79,1.474 a 0.47,0.47 0 0 1 -0.468,0.47 0.47,0.47 0 0 1 -0.469,-0.47 0.47,0.47 0 0 1 0.47,-0.468 0.47,0.47 0 0 1 0.468,0.468 m -0.789,1.476 a 0.47,0.47 0 0 1 -0.468,0.469 0.47,0.47 0 0 1 -0.469,-0.469 0.47,0.47 0 0 1 0.469,-0.469 0.47,0.47 0 0 1 0.468,0.469 m -0.788,1.475 a 0.47,0.47 0 0 1 -0.469,0.47 0.47,0.47 0 0 1 -0.468,-0.47 0.47,0.47 0 0 1 0.468,-0.468 0.47,0.47 0 0 1 0.47,0.468 m -0.79,1.476 a 0.47,0.47 0 0 1 -0.468,0.468 0.47,0.47 0 0 1 -0.469,-0.468 0.47,0.47 0 0 1 0.469,-0.469 0.47,0.47 0 0 1 0.469,0.469 m 4.436,-6.152 a 0.47,0.47 0 0 1 -0.469,0.469 0.47,0.47 0 0 1 -0.468,-0.47 0.47,0.47 0 0 1 0.468,-0.468 0.47,0.47 0 0 1 0.47,0.469 m -0.789,1.475 a 0.47,0.47 0 0 1 -0.469,0.469 0.47,0.47 0 0 1 -0.468,-0.469 0.47,0.47 0 0 1 0.468,-0.468 0.47,0.47 0 0 1 0.469,0.468 m -0.788,1.476 a 0.47,0.47 0 0 1 -0.47,0.468 0.47,0.47 0 0 1 -0.468,-0.468 0.47,0.47 0 0 1 0.469,-0.469 0.47,0.47 0 0 1 0.469,0.469 m -0.789,1.475 a 0.47,0.47 0 0 1 -0.468,0.469 0.47,0.47 0 0 1 -0.47,-0.469 0.47,0.47 0 0 1 0.47,-0.469 0.47,0.47 0 0 1 0.468,0.47 m -0.788,1.474 a 0.47,0.47 0 0 1 -0.469,0.47 0.47,0.47 0 0 1 -0.469,-0.47 0.47,0.47 0 0 1 0.47,-0.468 0.47,0.47 0 0 1 0.468,0.468 m -0.789,1.476 a 0.47,0.47 0 0 1 -0.468,0.469 0.47,0.47 0 0 1 -0.469,-0.469 0.47,0.47 0 0 1 0.469,-0.469 0.47,0.47 0 0 1 0.468,0.469 m -3.084,-0.708 a 0.47,0.47 0 0 1 -0.469,0.469 0.47,0.47 0 0 1 -0.468,-0.469 0.47,0.47 0 0 1 0.468,-0.469 0.47,0.47 0 0 1 0.47,0.47 m -0.79,1.474 a 0.47,0.47 0 0 1 -0.468,0.47 0.47,0.47 0 0 1 -0.469,-0.47 0.47,0.47 0 0 1 0.469,-0.468 0.47,0.47 0 0 1 0.469,0.468 m -0.789,1.476 a 0.47,0.47 0 0 1 -0.468,0.469 0.47,0.47 0 0 1 -0.469,-0.47 0.47,0.47 0 0 1 0.469,-0.468 0.47,0.47 0 0 1 0.468,0.469 m -0.788,1.475 a 0.47,0.47 0 0 1 -0.469,0.47 0.47,0.47 0 0 1 -0.468,-0.47 0.47,0.47 0 0 1 0.468,-0.468 0.47,0.47 0 0 1 0.47,0.468 m -0.79,1.476 a 0.47,0.47 0 0 1 -0.468,0.468 0.47,0.47 0 0 1 -0.469,-0.468 0.47,0.47 0 0 1 0.469,-0.469 0.47,0.47 0 0 1 0.469,0.469 m -0.789,1.475 a 0.47,0.47 0 0 1 -0.468,0.469 0.47,0.47 0 0 1 -0.47,-0.469 0.47,0.47 0 0 1 0.47,-0.469 0.47,0.47 0 0 1 0.468,0.47 m -0.788,1.475 a 0.47,0.47 0 0 1 -0.469,0.468 0.47,0.47 0 0 1 -0.469,-0.468 0.47,0.47 0 0 1 0.47,-0.47 0.47,0.47 0 0 1 0.468,0.47 m -0.788,1.475 a 0.47,0.47 0 0 1 -0.47,0.469 0.47,0.47 0 0 1 -0.468,-0.47 0.47,0.47 0 0 1 0.469,-0.468 0.47,0.47 0 0 1 0.469,0.469 m 6.013,-9.103 a 0.47,0.47 0 0 1 -0.469,0.469 0.47,0.47 0 0 1 -0.469,-0.469 0.47,0.47 0 0 1 0.47,-0.469 0.47,0.47 0 0 1 0.468,0.47 m -0.788,1.475 a 0.47,0.47 0 0 1 -0.47,0.468 0.47,0.47 0 0 1 -0.468,-0.468 0.47,0.47 0 0 1 0.469,-0.469 0.47,0.47 0 0 1 0.469,0.469 m -0.789,1.475 a 0.47,0.47 0 0 1 -0.469,0.469 0.47,0.47 0 0 1 -0.468,-0.469 0.47,0.47 0 0 1 0.468,-0.469 0.47,0.47 0 0 1 0.47,0.47 m -0.79,1.474 a 0.47,0.47 0 0 1 -0.468,0.47 0.47,0.47 0 0 1 -0.469,-0.47 0.47,0.47 0 0 1 0.47,-0.468 0.47,0.47 0 0 1 0.468,0.468 m -0.789,1.476 a 0.47,0.47 0 0 1 -0.468,0.469 0.47,0.47 0 0 1 -0.469,-0.47 0.47,0.47 0 0 1 0.469,-0.468 0.47,0.47 0 0 1 0.468,0.469 m -0.788,1.475 a 0.47,0.47 0 0 1 -0.469,0.47 0.47,0.47 0 0 1 -0.468,-0.47 0.47,0.47 0 0 1 0.468,-0.468 0.47,0.47 0 0 1 0.47,0.468 m -0.79,1.476 a 0.47,0.47 0 0 1 -0.468,0.468 0.47,0.47 0 0 1 -0.469,-0.468 0.47,0.47 0 0 1 0.469,-0.469 0.47,0.47 0 0 1 0.469,0.469 m -0.789,1.475 a 0.47,0.47 0 0 1 -0.468,0.469 0.47,0.47 0 0 1 -0.47,-0.469 0.47,0.47 0 0 1 0.47,-0.469 0.47,0.47 0 0 1 0.468,0.47 m 6.813,-10.596 a 0.47,0.47 0 0 1 -0.469,0.468 0.47,0.47 0 0 1 -0.469,-0.468 0.47,0.47 0 0 1 0.47,-0.47 0.47,0.47 0 0 1 0.468,0.47 m -0.788,1.475 a 0.47,0.47 0 0 1 -0.47,0.469 0.47,0.47 0 0 1 -0.468,-0.469 0.47,0.47 0 0 1 0.469,-0.469 0.47,0.47 0 0 1 0.469,0.469 m -0.789,1.475 a 0.47,0.47 0 0 1 -0.469,0.47 0.47,0.47 0 0 1 -0.468,-0.47 0.47,0.47 0 0 1 0.468,-0.468 0.47,0.47 0 0 1 0.47,0.468 m -0.79,1.476 a 0.47,0.47 0 0 1 -0.468,0.469 0.47,0.47 0 0 1 -0.469,-0.47 0.47,0.47 0 0 1 0.469,-0.468 0.47,0.47 0 0 1 0.469,0.469 m -0.789,1.475 a 0.47,0.47 0 0 1 -0.468,0.469 0.47,0.47 0 0 1 -0.469,-0.469 0.47,0.47 0 0 1 0.469,-0.468 0.47,0.47 0 0 1 0.468,0.468 m -0.788,1.476 a 0.47,0.47 0 0 1 -0.469,0.468 0.47,0.47 0 0 1 -0.468,-0.468 0.47,0.47 0 0 1 0.468,-0.47 0.47,0.47 0 0 1 0.469,0.47 m -0.788,1.475 a 0.47,0.47 0 0 1 -0.47,0.469 0.47,0.47 0 0 1 -0.468,-0.469 0.47,0.47 0 0 1 0.469,-0.469 0.47,0.47 0 0 1 0.469,0.469 m -0.789,1.475 a 0.47,0.47 0 0 1 -0.469,0.47 0.47,0.47 0 0 1 -0.468,-0.47 0.47,0.47 0 0 1 0.468,-0.468 0.47,0.47 0 0 1 0.47,0.468 m -0.79,1.476 a 0.47,0.47 0 0 1 -0.468,0.469 0.47,0.47 0 0 1 -0.469,-0.47 0.47,0.47 0 0 1 0.47,-0.468 0.47,0.47 0 0 1 0.468,0.469 M 67.09,53.67 a 0.47,0.47 0 0 1 -0.47,0.469 0.47,0.47 0 0 1 -0.468,-0.47 0.47,0.47 0 0 1 0.469,-0.468 0.47,0.47 0 0 1 0.469,0.469 m -0.789,1.475 a 0.47,0.47 0 0 1 -0.468,0.469 0.47,0.47 0 0 1 -0.47,-0.469 0.47,0.47 0 0 1 0.47,-0.469 0.47,0.47 0 0 1 0.468,0.47 m -0.788,1.475 a 0.47,0.47 0 0 1 -0.469,0.468 0.47,0.47 0 0 1 -0.468,-0.468 0.47,0.47 0 0 1 0.468,-0.47 0.47,0.47 0 0 1 0.469,0.47 m -0.788,1.475 a 0.47,0.47 0 0 1 -0.47,0.469 0.47,0.47 0 0 1 -0.468,-0.469 0.47,0.47 0 0 1 0.469,-0.469 0.47,0.47 0 0 1 0.469,0.469 m -0.789,1.475 a 0.47,0.47 0 0 1 -0.469,0.47 0.47,0.47 0 0 1 -0.468,-0.47 0.47,0.47 0 0 1 0.468,-0.468 0.47,0.47 0 0 1 0.47,0.468 m -0.79,1.476 a 0.47,0.47 0 0 1 -0.468,0.469 0.47,0.47 0 0 1 -0.469,-0.47 0.47,0.47 0 0 1 0.469,-0.468 0.47,0.47 0 0 1 0.469,0.469 m -0.789,1.475 a 0.47,0.47 0 0 1 -0.468,0.469 0.47,0.47 0 0 1 -0.469,-0.469 0.47,0.47 0 0 1 0.469,-0.468 0.47,0.47 0 0 1 0.468,0.468 m -0.788,1.476 a 0.47,0.47 0 0 1 -0.469,0.468 0.47,0.47 0 0 1 -0.468,-0.468 0.47,0.47 0 0 1 0.468,-0.47 0.47,0.47 0 0 1 0.47,0.47 m -0.79,1.475 a 0.47,0.47 0 0 1 -0.468,0.469 0.47,0.47 0 0 1 -0.469,-0.469 0.47,0.47 0 0 1 0.469,-0.469 0.47,0.47 0 0 1 0.469,0.469 m -23.348,1.774 a 0.686,0.686 0 0 1 -0.686,0.686 0.686,0.686 0 0 1 -0.686,-0.686 0.686,0.686 0 0 1 0.686,-0.686 0.686,0.686 0 0 1 0.686,0.686 m -0.88,-2.284 a 0.686,0.686 0 0 1 -0.686,0.686 0.686,0.686 0 0 1 -0.685,-0.686 0.686,0.686 0 0 1 0.685,-0.686 0.686,0.686 0 0 1 0.686,0.686 m -0.88,-2.284 a 0.686,0.686 0 0 1 -0.686,0.686 0.686,0.686 0 0 1 -0.685,-0.686 0.686,0.686 0 0 1 0.685,-0.686 0.686,0.686 0 0 1 0.686,0.686 m -0.88,-2.284 a 0.686,0.686 0 0 1 -0.686,0.686 0.686,0.686 0 0 1 -0.685,-0.686 0.686,0.686 0 0 1 0.685,-0.685 0.686,0.686 0 0 1 0.686,0.685 m -0.88,-2.283 a 0.686,0.686 0 0 1 -0.686,0.685 0.686,0.686 0 0 1 -0.685,-0.685 0.686,0.686 0 0 1 0.685,-0.686 0.686,0.686 0 0 1 0.686,0.685 m -0.88,-2.283 a 0.686,0.686 0 0 1 -0.685,0.685 0.686,0.686 0 0 1 -0.686,-0.685 0.686,0.686 0 0 1 0.685,-0.686 0.686,0.686 0 0 1 0.686,0.686 m -0.88,-2.284 a 0.686,0.686 0 0 1 -0.685,0.686 0.686,0.686 0 0 1 -0.686,-0.686 0.686,0.686 0 0 1 0.685,-0.686 0.686,0.686 0 0 1 0.686,0.686 m -0.88,-2.284 a 0.686,0.686 0 0 1 -0.685,0.686 0.686,0.686 0 0 1 -0.686,-0.686 0.686,0.686 0 0 1 0.686,-0.686 0.686,0.686 0 0 1 0.685,0.686 m -0.88,-2.283 a 0.686,0.686 0 0 1 -0.685,0.686 0.686,0.686 0 0 1 -0.686,-0.686 0.686,0.686 0 0 1 0.686,-0.686 0.686,0.686 0 0 1 0.685,0.686 m -0.88,-2.284 a 0.686,0.686 0 0 1 -0.685,0.686 0.686,0.686 0 0 1 -0.686,-0.686 0.686,0.686 0 0 1 0.686,-0.685 0.686,0.686 0 0 1 0.685,0.685 m 8.818,18.879 a 0.686,0.686 0 0 1 -0.686,0.686 0.686,0.686 0 0 1 -0.685,-0.686 0.686,0.686 0 0 1 0.685,-0.686 0.686,0.686 0 0 1 0.686,0.686 m -0.88,-2.284 a 0.686,0.686 0 0 1 -0.686,0.686 0.686,0.686 0 0 1 -0.685,-0.686 0.686,0.686 0 0 1 0.685,-0.686 0.686,0.686 0 0 1 0.686,0.686 m -0.88,-2.284 a 0.686,0.686 0 0 1 -0.685,0.686 0.686,0.686 0 0 1 -0.686,-0.686 0.686,0.686 0 0 1 0.685,-0.685 0.686,0.686 0 0 1 0.686,0.685 m -0.88,-2.284 a 0.686,0.686 0 0 1 -0.685,0.686 0.686,0.686 0 0 1 -0.686,-0.686 0.686,0.686 0 0 1 0.685,-0.685 0.686,0.686 0 0 1 0.686,0.685 m -0.88,-2.283 a 0.686,0.686 0 0 1 -0.685,0.685 0.686,0.686 0 0 1 -0.686,-0.685 0.686,0.686 0 0 1 0.686,-0.686 0.686,0.686 0 0 1 0.685,0.686 m -0.88,-2.284 a 0.686,0.686 0 0 1 -0.685,0.685 0.686,0.686 0 0 1 -0.686,-0.685 0.686,0.686 0 0 1 0.686,-0.686 0.686,0.686 0 0 1 0.685,0.686 m -0.88,-2.284 a 0.686,0.686 0 0 1 -0.685,0.686 0.686,0.686 0 0 1 -0.686,-0.686 0.686,0.686 0 0 1 0.686,-0.686 0.686,0.686 0 0 1 0.686,0.686 m -0.88,-2.284 a 0.686,0.686 0 0 1 -0.686,0.686 0.686,0.686 0 0 1 -0.686,-0.686 0.686,0.686 0 0 1 0.686,-0.686 0.686,0.686 0 0 1 0.686,0.686 m -0.88,-2.284 a 0.686,0.686 0 0 1 -0.686,0.686 0.686,0.686 0 0 1 -0.686,-0.686 0.686,0.686 0 0 1 0.686,-0.685 0.686,0.686 0 0 1 0.686,0.685 m -0.88,-2.283 a 0.686,0.686 0 0 1 -0.686,0.685 0.686,0.686 0 0 1 -0.686,-0.685 0.686,0.686 0 0 1 0.686,-0.686 0.686,0.686 0 0 1 0.686,0.685 m 5.231,21.59 a 0.686,0.686 0 0 1 -0.685,0.685 0.686,0.686 0 0 1 -0.686,-0.685 0.686,0.686 0 0 1 0.685,-0.686 0.686,0.686 0 0 1 0.686,0.685 m -0.88,-2.283 a 0.686,0.686 0 0 1 -0.685,0.685 0.686,0.686 0 0 1 -0.686,-0.685 0.686,0.686 0 0 1 0.686,-0.686 0.686,0.686 0 0 1 0.685,0.686 m -0.88,-2.284 a 0.686,0.686 0 0 1 -0.685,0.686 0.686,0.686 0 0 1 -0.686,-0.686 0.686,0.686 0 0 1 0.686,-0.686 0.686,0.686 0 0 1 0.685,0.686 m -0.88,-2.284 a 0.686,0.686 0 0 1 -0.685,0.686 0.686,0.686 0 0 1 -0.686,-0.686 0.686,0.686 0 0 1 0.686,-0.686 0.686,0.686 0 0 1 0.686,0.686 m -0.88,-2.284 a 0.686,0.686 0 0 1 -0.686,0.686 0.686,0.686 0 0 1 -0.686,-0.686 0.686,0.686 0 0 1 0.686,-0.685 0.686,0.686 0 0 1 0.686,0.685 m -0.88,-2.282 a 0.686,0.686 0 0 1 -0.686,0.686 0.686,0.686 0 0 1 -0.686,-0.686 0.686,0.686 0 0 1 0.686,-0.685 0.686,0.686 0 0 1 0.686,0.685 m -0.88,-2.283 a 0.686,0.686 0 0 1 -0.686,0.685 0.686,0.686 0 0 1 -0.686,-0.685 0.686,0.686 0 0 1 0.686,-0.686 0.686,0.686 0 0 1 0.686,0.685 m -0.88,-2.283 a 0.686,0.686 0 0 1 -0.686,0.685 0.686,0.686 0 0 1 -0.686,-0.685 0.686,0.686 0 0 1 0.686,-0.686 0.686,0.686 0 0 1 0.686,0.686 m -0.88,-2.284 a 0.686,0.686 0 0 1 -0.686,0.686 0.686,0.686 0 0 1 -0.686,-0.686 0.686,0.686 0 0 1 0.686,-0.686 0.686,0.686 0 0 1 0.686,0.686 m -0.88,-2.284 a 0.686,0.686 0 0 1 -0.686,0.686 0.686,0.686 0 0 1 -0.686,-0.686 0.686,0.686 0 0 1 0.686,-0.685 0.686,0.686 0 0 1 0.686,0.685 m 7.021,22.228 a 0.686,0.686 0 0 1 -0.686,0.686 0.686,0.686 0 0 1 -0.685,-0.686 0.686,0.686 0 0 1 0.685,-0.685 0.686,0.686 0 0 1 0.686,0.685 M 33.867,66 A 0.686,0.686 0 0 1 33.181,66.685 0.686,0.686 0 0 1 32.496,66 a 0.686,0.686 0 0 1 0.685,-0.686 0.686,0.686 0 0 1 0.686,0.685 m -0.88,-2.283 a 0.686,0.686 0 0 1 -0.686,0.685 0.686,0.686 0 0 1 -0.685,-0.685 0.686,0.686 0 0 1 0.685,-0.686 0.686,0.686 0 0 1 0.686,0.686 m -0.88,-2.284 a 0.686,0.686 0 0 1 -0.686,0.686 0.686,0.686 0 0 1 -0.685,-0.686 0.686,0.686 0 0 1 0.685,-0.686 0.686,0.686 0 0 1 0.686,0.686 m -0.88,-2.284 a 0.686,0.686 0 0 1 -0.685,0.686 0.686,0.686 0 0 1 -0.686,-0.686 0.686,0.686 0 0 1 0.685,-0.686 0.686,0.686 0 0 1 0.686,0.686 m -0.88,-2.284 a 0.686,0.686 0 0 1 -0.685,0.686 0.686,0.686 0 0 1 -0.686,-0.686 0.686,0.686 0 0 1 0.685,-0.686 0.686,0.686 0 0 1 0.686,0.686 m -0.88,-2.284 a 0.686,0.686 0 0 1 -0.685,0.686 0.686,0.686 0 0 1 -0.686,-0.686 0.686,0.686 0 0 1 0.686,-0.685 0.686,0.686 0 0 1 0.685,0.685 m -0.88,-2.283 a 0.686,0.686 0 0 1 -0.685,0.685 0.686,0.686 0 0 1 -0.686,-0.685 0.686,0.686 0 0 1 0.686,-0.686 0.686,0.686 0 0 1 0.685,0.685 m -0.88,-2.283 a 0.686,0.686 0 0 1 -0.685,0.685 0.686,0.686 0 0 1 -0.686,-0.685 0.686,0.686 0 0 1 0.686,-0.686 0.686,0.686 0 0 1 0.686,0.686 m -0.88,-2.284 a 0.686,0.686 0 0 1 -0.686,0.686 0.686,0.686 0 0 1 -0.686,-0.686 0.686,0.686 0 0 1 0.686,-0.686 0.686,0.686 0 0 1 0.686,0.686"
         style="display:inline;stroke-width:1.0621"
         transform="matrix(0.94153,0,0,0.94153,7.783,6.231)"
         id="path7" /></g><path
       d="m 57.838597,51.790829 -12.695,-0.383"
       style="display:inline;fill:none;stroke:#000000;stroke-width:3.00001;stroke-linecap:round;stroke-linejoin:round;stroke-miterlimit:4.7;stroke-dasharray:none;stroke-opacity:1"
       id="path8" /><path
       d="m 4.9505967,43.331829 a 1.5,1.5 0 0 0 -1.002,0.563 1.5,1.5 0 0 0 0.254,2.107 l 10.8220003,8.494 a 1.5,1.5 0 0 0 2.106,-0.254 1.5,1.5 0 0 0 -0.254,-2.105 l -10.8200003,-8.496 a 1.5,1.5 0 0 0 -1.106,-0.309"
       style="color:#000000;fill:#000000;stroke-linecap:round;stroke-linejoin:round;stroke-miterlimit:4.7;-inkscape-stroke:none"
       id="path10" /></g></svg>
