<svg xmlns="http://www.w3.org/2000/svg" xml:space="preserve" width="55" height="85">
    <path d="m47.293 81.837-5.527-1.268 1.524-19.91-20.179-8.812-14.783 9.348 3.638 19.953-5.522.841m22.614-51.37L23 51.54m7.72-24.986 12.31 22.007" style="display:inline;fill:none;stroke:#000;stroke-width:3.00001;stroke-linecap:round;stroke-linejoin:round;stroke-miterlimit:4.7;stroke-dasharray:none;stroke-opacity:1" transform="translate(1.7 .755)"/>
    <path d="M30.024 65.253a1.33 1.33 0 0 1-.923-.368L6.653 43.351a1.21 1.21 0 0 1-.32-1.27c.15-.45.545-.777 1.03-.854l18.649-2.969.027-.004 6.886-1.096 8.22-7.886a1.54 1.54 0 0 1-.015-2.09l.475-.526-.66-.634a.42.42 0 0 1 0-.612.465.465 0 0 1 .638 0l.614.59.963-1.066-.702-.674a.42.42 0 0 1 0-.612.465.465 0 0 1 .638 0l.657.63.963-1.065-.716-.687a.42.42 0 0 1 0-.612.465.465 0 0 1 .638 0l.67.643.027-.03a2.33 2.33 0 0 1 1.64-.753 2.32 2.32 0 0 1 1.69.64l2.263 2.17a2.14 2.14 0 0 1 .666 1.62 2.16 2.16 0 0 1-.785 1.573l-4.852 4.034c-.626.52-1.565.51-2.178-.013-3.725 2.668-8.647 8.088-8.647 8.088s-1.112 8.9-2.005 13.844l-1.812 10.473c-.08.466-.421.845-.89.99q-.2.06-.401.06" style="display:inline;fill:#fff;stroke:none;stroke-width:1;stroke-linecap:square;stroke-linejoin:round;stroke-miterlimit:4.7;stroke-opacity:1" transform="translate(1.7 .755)"/>
    <path d="M30.024 65.253a1.33 1.33 0 0 1-.923-.368L6.653 43.351a1.21 1.21 0 0 1-.32-1.27c.15-.45.545-.777 1.03-.854l18.649-2.969.027-.004 6.886-1.096 8.22-7.886a1.54 1.54 0 0 1-.015-2.09l.475-.526-.66-.634a.42.42 0 0 1 0-.612.465.465 0 0 1 .638 0l.614.59.963-1.066-.702-.674a.42.42 0 0 1 0-.612.465.465 0 0 1 .638 0l.657.63.963-1.065-.716-.687a.42.42 0 0 1 0-.612.465.465 0 0 1 .638 0l.67.643.027-.03a2.33 2.33 0 0 1 1.64-.753 2.32 2.32 0 0 1 1.69.64l2.263 2.17a2.14 2.14 0 0 1 .666 1.62 2.16 2.16 0 0 1-.785 1.573l-4.852 4.034c-.626.52-1.565.51-2.178-.013l-8.223 7.89-2.425 14.021-.004.02-1.812 10.475c-.08.466-.421.845-.89.99q-.2.06-.401.06m-4.21-26.087L7.512 42.081a.39.39 0 0 0-.32.264.37.37 0 0 0 .1.394L29.74 64.273c.158.151.34.118.41.095a.39.39 0 0 0 .276-.306l1.792-10.36-3.35-7.599-1.75 1.678a2.47 2.47 0 0 1-.77 1.788 2.7 2.7 0 0 1-1.864.74l-1.442 1.383 2.213 2.124a.42.42 0 0 1 0 .612.465.465 0 0 1-.638 0l-2.527-2.425-.005-.005-.005-.005-.987-.947-.006-.006-.006-.005-3.525-3.382a.42.42 0 0 1 0-.61.465.465 0 0 1 .638 0l2.22 2.13 1.435-1.379a2.47 2.47 0 0 1 .77-1.8 2.7 2.7 0 0 1 1.879-.74l2.16-2.073a.4.4 0 0 1 .05-.059l.543-.519zm3.742 6.275 2.937 6.663L34.46 40.74zm-7.513 5.292.36.346 1.024-.982a2.7 2.7 0 0 1-.462-.249zm-.993-.95.354.338.923-.885a2.5 2.5 0 0 1-.256-.434zm2.568-.56q.25.135.524.187l2.042-1.958a1.6 1.6 0 0 0-.197-.503zm-.832-1.106a1.6 1.6 0 0 0 .194.493l2.369-2.273a1.8 1.8 0 0 0-.513-.187zm3.853-1.794q.155.212.26.443l1.486-1.425-.361-.346zm-1.09-.857q.236.1.452.246l1.385-1.329-.354-.34zm3.113-1.083.36.344 14.435-13.847.035-.03 1.56-1.499a.465.465 0 0 1 .639 0 .42.42 0 0 1 0 .612l-1.271 1.22a.78.78 0 0 0 .946-.027l4.852-4.034a1.285 1.285 0 0 0 .072-1.929l-2.262-2.17a1.4 1.4 0 0 0-1.021-.385 1.4 1.4 0 0 0-.99.454l-4.205 4.655a.7.7 0 0 0-.022.915l4.623-4.434a.465.465 0 0 1 .638 0 .42.42 0 0 1 0 .612L27.67 43.433l.354.34 17.705-16.986a.465.465 0 0 1 .638 0 .42.42 0 0 1 0 .612zm-1.935-5.36 1.217 2.914 3.884-3.727z" style="display:inline;stroke-width:1" transform="translate(1.7 .755)"/>
    <path d="M43.028 48.562 41.514 31.74M14.907 45.12 1.505 35.307l29.215-8.752" style="display:inline;fill:none;stroke:#000;stroke-width:3.00001;stroke-linecap:round;stroke-linejoin:round;stroke-miterlimit:4.7;stroke-dasharray:none;stroke-opacity:1" transform="translate(1.7 .755)"/>
    <path d="M62.132 11.67c.065.252-.308.212-.42.108-.3-.281-.094-.759.203-.945.533-.335 1.213-.01 1.473.513.382.767-.075 1.673-.824 1.999-.999.434-2.137-.159-2.526-1.135-.49-1.228.242-2.602 1.445-3.052 1.458-.546 3.068.324 3.58 1.756.602 1.686-.408 3.534-2.067 4.106m-5.11.46c.246.073.023.368-.121.41-.391.112-.69-.305-.698-.652-.013-.62.607-1.031 1.182-.986.843.066 1.379.912 1.275 1.712-.139 1.066-1.219 1.729-2.243 1.563-1.289-.208-2.08-1.525-1.852-2.772.277-1.512 1.832-2.434 3.303-2.141 1.734.345 2.787 2.138 2.43 3.833M55.24 20.22c.241.01.106.329-.016.4-.33.192-.698-.118-.784-.432-.155-.562.314-1.078.848-1.17.783-.134 1.465.513 1.554 1.265.119 1.002-.71 1.854-1.68 1.939-1.222.106-2.245-.91-2.324-2.097-.095-1.44 1.107-2.636 2.513-2.708 1.658-.085 3.028 1.305 3.093 2.93m-.585 9.335c.286.002.14.387-.002.476-.384.242-.834-.111-.949-.48-.206-.66.33-1.292.959-1.422.923-.191 1.758.548 1.895 1.436.182 1.184-.768 2.228-1.915 2.368-1.444.177-2.7-.986-2.841-2.392-.172-1.703 1.205-3.172 2.87-3.315 1.963-.168 3.645 1.425 3.788 3.349m-7.139-3.924c.27.01.12.369-.017.449-.37.216-.783-.13-.88-.483-.176-.63.35-1.21.948-1.313.878-.153 1.644.571 1.746 1.414.135 1.124-.793 2.08-1.881 2.178-1.369.122-2.52-1.014-2.61-2.346-.11-1.614 1.235-2.959 2.812-3.043 1.859-.099 3.399 1.457 3.475 3.279" style="fill:none;fill-rule:evenodd;stroke:#000" transform="rotate(55.114 56.576 -14.042)"/>
    <path d="M67.387 15.567c0 4.48-3.657 8.112-8.169 8.112s-8.169-3.632-8.169-8.112 3.723-7.652 8.235-7.652 8.103 3.173 8.103 7.652" style="display:inline;fill:none;stroke:#000;stroke-width:2;stroke-linecap:round;stroke-linejoin:round;stroke-miterlimit:4.7;stroke-dasharray:none;stroke-opacity:1" transform="translate(-26.916 -.733)"/>
</svg>
