<svg xmlns="http://www.w3.org/2000/svg" xml:space="preserve" width="65" height="100">
    <path d="M19.797 13.306 15 10.314l4.668 2.895 2.34-2.333-3.05-4.824 3.05 4.824L25.783 9.5l-.693-6.193.853 6.28L29 9.697l1.544-7.135-1.55 7.086 3.093 1.42 3.678-5.364-3.553 5.389m2.523 4.407c1.23 4.308-1.29 8.804-5.63 10.042-4.338 1.238-8.851-1.25-10.08-5.558C15.949 9.209 31.883 5.505 34.734 15.5" style="display:inline;fill:#fff;stroke:#000;stroke-width:2.00001;stroke-linecap:round;stroke-linejoin:round;stroke-miterlimit:4.7;stroke-dasharray:none;stroke-opacity:1" transform="translate(1.63 1.404)"/>
    <path d="m28.832 28.929 15.11 5.11 10.303-10.264M48.838 94.44l-5.119-1.935-.92-16.958-11.347-16.203-11.59 16.564.094 19.855-5.259.671m14.569-66.147 1.948 29.774" style="display:inline;fill:none;stroke:#000;stroke-width:3.00001;stroke-linecap:round;stroke-linejoin:round;stroke-miterlimit:4.7;stroke-dasharray:none;stroke-opacity:1" transform="translate(1.63 1.404)"/>
    <g style="stroke-width:1.22726">
        <path d="M87.654 26.2c-5.068.073-9.813 2.702-13.188 6.383-.881.792-1.853 1.698-1.549 3.012.225 2.257-.84 4.358-2.345 5.967-1.883 2.055-4.489 4-7.421 3.713-1.035-.283-1.904-1.166-3.073-.905-6.25.15-11.552 4.104-15.963 8.173-3.271 2.834-5.045 7.21-4.726 11.521.376 6.107 3.395 11.79 7.277 16.397 1.047 1.13 2.604.226 3.421-.705 2.82-2.709 5.594-5.515 7.6-8.903.88-1.333 1.76-2.668 2.662-3.988 1.645 1.597 3.254 3.23 4.877 4.85-4.001 2.786-8.377 5.163-11.66 8.845-.948 1.15-2.81 2.281-2.404 4.011.74 1.508 2.418 2.267 3.689 3.271 5.07 3.307 11.276 5.832 17.412 4.498 4.132-.73 7.029-4.053 9.612-7.083 3.302-3.993 6.093-8.951 5.814-14.29-.375-1.061-1.21-2.04-.904-3.265.627-3.437 3.2-6.341 6.248-7.926 1.416-.835 3.082-.628 4.631-.607 1.242-.482 1.958-1.831 2.956-2.701 3.522-3.574 5.564-8.593 5.217-13.628-.133-2.906-.353-5.835-.72-8.708-.522-1.322-2.27-.707-2.951.179-6.21 6.04-12.048 12.452-18.197 18.555-1.66-1.551-3.241-3.184-4.853-4.785 6.564-6.408 13.29-12.658 19.683-19.237.771-1.013-.453-2.031-1.463-1.95-3.216-.333-6.447-.671-9.682-.694" style="fill:#fff;stroke-width:122.726;stroke-linecap:round;stroke-linejoin:round;stroke-miterlimit:4.7" transform="rotate(-18.185 104.205 155.21)scale(.81482)"/>
        <path d="M60.171 67.847c-1.328.193-1.81 1.705-2.571 2.62-.872 1.408-1.958 2.722-2.6 4.251-.11 1.372 1.709 2.641 2.85 1.61 2.045-1.288 4.133-2.548 6.006-4.08.797-.983-.404-1.897-1.021-2.57-.786-.694-1.51-1.805-2.664-1.831M122.493 6.531c-1.158.189-1.781 1.39-2.674 2.045-12.818 12.238-25.596 24.52-38.238 36.94-.671.813-1.717 1.423-2.077 2.435-.086 1.16 1.118 1.877 1.766 2.686.785.76 1.859 2.098 3.062 1.344 2.649-2.33 4.986-5.001 7.484-7.492 10.964-11.366 21.973-22.69 32.873-34.117.702-.523.898-1.593.16-2.177-.681-.64-1.318-1.666-2.356-1.664" style="fill:#fff;stroke-width:122.726;stroke-linecap:round;stroke-linejoin:round;stroke-miterlimit:4.7" transform="rotate(-18.185 104.205 155.21)scale(.81482)"/>
        <g style="stroke-width:1.22726">
            <path d="m67.006 59.22 5.514 5.515-1.278 1.277-5.514-5.514zm70.66-59.929L136.4.558l.456.456a.904.904 0 0 1-.64 1.543c-.502-.05-.754-.383-1.094-.72l-1.268 1.266c-.253.253-.59.393-.948.393a1.33 1.33 0 0 1-.83-.289l-.7.7.695.693a.904.904 0 1 1-1.278 1.278l-.694-.694-.987.988.694.693a.904.904 0 1 1-1.278 1.278l-.694-.694-1.601 1.601a3.04 3.04 0 0 1-.85 1.957l-19.916 20.637.91 10.418a19.07 19.07 0 0 1-5.526 15.177l-3.483 3.482c-4.028-2.538-9.05 3.043-9.92 6.264-.407 1.258-.113 2.194.7 3.101.735 7.677-3.883 14.117-9.325 19.56-2.657 2.657-6.226 4.035-10.306 4.035-1.36 0-2.774-.153-4.232-.462-5.327-1.132-10.848-4.266-15.635-8.853l-4.23 4.23c-.836.834-2.112-.443-1.278-1.278l4.23-4.23c-4.586-4.786-7.72-10.307-8.851-15.634-1.24-5.833.03-10.996 3.572-14.538 5.372-5.373 11.837-10.067 19.56-9.325 3.03 3.394 12.433-4.35 9.367-9.22l3.482-3.482a19.07 19.07 0 0 1 15.176-5.525l10.418.91 20.637-19.918a3.04 3.04 0 0 1 1.957-.85l.567-.566-.67-.67a.904.904 0 0 1 1.277-1.279l.67.671.988-.987-.67-.67a.903.903 0 0 1 1.277-1.279l.67.671 1.734-1.733a1.33 1.33 0 0 1-.29-.83c0-.358.14-.695.394-.949l1.267-1.267-.456-.456a.904.904 0 0 1 1.278-1.278l.456.456 1.267-1.267a1.34 1.34 0 0 1 1.897.001l3.32 3.32a1.344 1.344 0 0 1 0 1.897M49.698 82.865l5.674-5.675-.824-.824-5.674 5.675c.263.286.546.552.824.824m54.878-40.646-.773-8.852-20.16 20.887-6.158-6.159 20.887-20.158-8.851-.773a17.26 17.26 0 0 0-13.741 5.004l-2.52 2.518c2.108 5.665-8.055 14.595-12.45 10.644-5.384-.386-11.093 2.517-17.44 8.863-3.094 3.095-4.19 7.671-3.082 12.885.977 4.596 3.56 9.37 7.352 13.64l6.206-6.204 6.01-9.052 6.42 6.42-9.051 6.01-6.205 6.206c4.27 3.792 9.045 6.377 13.64 7.353 5.214 1.106 9.79.012 12.885-3.083 6.346-6.346 9.25-12.054 8.866-17.438-3.882-4.31 4.875-14.6 10.644-12.45l2.518-2.52a17.27 17.27 0 0 0 5.003-13.74m-47.81 33.81 6.672-4.43-3.298-3.298-4.43 6.672zm67.652-66.974-1.734-1.735c-.26.034-.504.15-.696.335L80.064 48.118l3.558 3.558 40.46-41.925c.187-.192.302-.437.336-.696m6.373-7.12-.988-.987-5.468 5.47.988.986zm5.267-3.592-2.66-2.662-3.154 3.153 2.66 2.662zM74.95 46.156a2.893 2.893 0 0 0-4.086 0l-7.63 7.63a1.083 1.083 0 0 1-1.531 0c-.573-.822-.17-1.335.42-1.947a.903.903 0 0 0 0-1.277l-.395-.394a.904.904 0 0 0-1.47.995 2.888 2.888 0 0 0 4.253 3.901l7.63-7.63a1.083 1.083 0 0 1 1.53 0c.574.822.17 1.335-.42 1.947a.903.903 0 0 0 0 1.277l.396.394a.903.903 0 0 0 1.47-.994 2.89 2.89 0 0 0-.167-3.902m6.733 10.467a.904.904 0 0 0-.995 1.47l.394.394c.17.17.4.264.64.264.488-.042.725-.362 1.057-.684a1.081 1.081 0 1 1 1.527 1.531l-7.63 7.63a2.893 2.893 0 0 0 0 4.087 2.88 2.88 0 0 0 2.04.844c.664 0 1.326-.226 1.86-.678a.903.903 0 0 0 .996-1.47l-.394-.394a.904.904 0 0 0-1.278 0l-.42.42a1.081 1.081 0 0 1-1.526-1.53l7.63-7.63a2.893 2.893 0 0 0 0-4.088 2.89 2.89 0 0 0-3.9-.166" style="stroke-width:.200533" transform="rotate(-18.185 104.205 155.21)scale(.81482)"/>
        </g>
    </g>
    <path d="m35.77 46.815-17.056-3.619 9.877-14.09" style="display:inline;fill:none;stroke:#000;stroke-width:3.00001;stroke-linecap:round;stroke-linejoin:round;stroke-miterlimit:4.7;stroke-dasharray:none;stroke-opacity:1" transform="translate(1.63 1.404)"/>
</svg>
