<?xml version="1.0" encoding="UTF-8" standalone="no"?>
<svg
   xml:space="preserve"
   width="100"
   height="100"
   version="1.1"
   id="svg7"
   sodipodi:docname="human_choir_1.svg"
   inkscape:version="1.3.2 (091e20e, 2023-11-25)"
   xmlns:inkscape="http://www.inkscape.org/namespaces/inkscape"
   xmlns:sodipodi="http://sodipodi.sourceforge.net/DTD/sodipodi-0.dtd"
   xmlns="http://www.w3.org/2000/svg"
   xmlns:svg="http://www.w3.org/2000/svg"><defs
     id="defs7" /><sodipodi:namedview
     id="namedview7"
     pagecolor="#ffffff"
     bordercolor="#000000"
     borderopacity="0.25"
     inkscape:showpageshadow="2"
     inkscape:pageopacity="0.0"
     inkscape:pagecheckerboard="0"
     inkscape:deskcolor="#d1d1d1"
     inkscape:current-layer="svg7" /><g
     id="g53"
     transform="translate(-18.601122,0.99597806)"
     style="display:inline"><path
       id="path48"
       style="display:inline;fill:none;stroke:#000000;stroke-width:3.00001;stroke-linecap:round;stroke-linejoin:round;stroke-miterlimit:4.7;stroke-dasharray:none;stroke-opacity:1"
       d="m 26.781592,61.050538 0.631808,-16.222246 6.090921,-10.893225 4.552303,-0.820735 4.832975,0.42913 3.223786,15.553751 6.465919,8.972671 m -0.574107,34.963732 -5.118575,-1.93475 -6.227571,-31.706645 -2.232002,-1.200122 -2.23662,0.731755 -4.064572,33.185582 -6.620089,1.414481 M 38.425605,58.120056 38.066136,33.081488"
       sodipodi:nodetypes="cccccccccccccccc" /><path
       id="path49"
       style="fill:none;stroke:#000000;stroke-width:0.8;stroke-linecap:round;stroke-linejoin:round;stroke-miterlimit:4.7"
       d="m 52.47845,17.965511 c 3.408983,5.645331 -1.119443,10.013356 -1.119443,10.013356 v 0 m -1.039606,-9.621111 c 2.812525,4.920666 -0.979521,8.761767 -0.979521,8.761767 v 0 m -1.158091,-8.226745 c 2.08384,4.035436 -0.8086,7.232882 -0.8086,7.232882 v 0" /><path
       d="m 45.510893,19.162439 c 1.226536,4.315007 -1.289558,8.802936 -5.62945,10.041188 -4.330316,1.240811 -8.851112,-1.251522 -10.079957,-5.557121 -1.229703,-4.308476 1.47859,-8.381205 5.817753,-9.618469 4.339163,-1.237265 8.661952,0.825926 9.891654,5.134402"
       style="display:inline;fill:#ffffff;stroke:#000000;stroke-width:2.00001;stroke-linecap:round;stroke-linejoin:round;stroke-miterlimit:4.7;stroke-dasharray:none;stroke-opacity:1"
       id="path50"
       sodipodi:nodetypes="cccsc" /><path
       id="path51"
       style="stroke:#000000;stroke-width:0.8;stroke-linecap:round;stroke-linejoin:round;stroke-miterlimit:4.7"
       d="m 39.473038,24.334448 a 1.2742122,2.2300677 0 0 1 -1.274212,2.230068 1.2742122,2.2300677 0 0 1 -1.274212,-2.230068 1.2742122,2.2300677 0 0 1 1.274212,-2.230068 1.2742122,2.2300677 0 0 1 1.274212,2.230068 z" /><path
       id="path52"
       style="fill:#000000;stroke:none;stroke-width:0.8;stroke-linecap:round;stroke-linejoin:round;stroke-miterlimit:4.7"
       d="m 35.153574,9.9718657 -5.634765,-2.0507813 0.185546,5.9414066 5.730469,-2.855469 c 0.563704,0.693067 1.639771,0.608886 2.089844,-0.173828 l 5.556641,2.021484 -0.240235,-5.5390623 -5.171875,2.578125 c -0.504573,-1.0587579 -1.898121,-1.199226 -2.515625,0.078125 z"
       sodipodi:nodetypes="ccccccccc" /><path
       style="fill:#000000;stroke:none;stroke-width:0.8;stroke-linecap:round;stroke-linejoin:round;stroke-miterlimit:4.7;stroke-opacity:1"
       d="M 38.16033,33.125917 25.314082,87.150884 52.841755,86.044571 Z"
       id="path53" /></g><g
     id="g70"
     transform="translate(12.348257,0.99597806)"
     style="display:inline"><path
       id="path65"
       style="display:inline;fill:none;stroke:#000000;stroke-width:3.00001;stroke-linecap:round;stroke-linejoin:round;stroke-miterlimit:4.7;stroke-dasharray:none;stroke-opacity:1"
       d="m 26.781592,61.050538 0.631808,-16.222246 6.090921,-10.893225 4.552303,-0.820735 4.832975,0.42913 3.223786,15.553751 6.465919,8.972671 m -0.574107,34.963732 -5.118575,-1.93475 -6.227571,-31.706645 -2.232002,-1.200122 -2.23662,0.731755 -4.064572,33.185582 -6.620089,1.414481 M 38.425605,58.120056 38.066136,33.081488"
       sodipodi:nodetypes="cccccccccccccccc" /><path
       id="path66"
       style="fill:none;stroke:#000000;stroke-width:0.8;stroke-linecap:round;stroke-linejoin:round;stroke-miterlimit:4.7"
       d="m 52.47845,17.965511 c 3.408983,5.645331 -1.119443,10.013356 -1.119443,10.013356 v 0 m -1.039606,-9.621111 c 2.812525,4.920666 -0.979521,8.761767 -0.979521,8.761767 v 0 m -1.158091,-8.226745 c 2.08384,4.035436 -0.8086,7.232882 -0.8086,7.232882 v 0" /><path
       d="m 45.510893,19.162439 c 1.226536,4.315007 -1.289558,8.802936 -5.62945,10.041188 -4.330316,1.240811 -8.851112,-1.251522 -10.079957,-5.557121 -1.229703,-4.308476 1.47859,-8.381205 5.817753,-9.618469 4.339163,-1.237265 8.661952,0.825926 9.891654,5.134402"
       style="display:inline;fill:#ffffff;stroke:#000000;stroke-width:2.00001;stroke-linecap:round;stroke-linejoin:round;stroke-miterlimit:4.7;stroke-dasharray:none;stroke-opacity:1"
       id="path67"
       sodipodi:nodetypes="cccsc" /><path
       id="path68"
       style="stroke:#000000;stroke-width:0.8;stroke-linecap:round;stroke-linejoin:round;stroke-miterlimit:4.7"
       d="m 39.473038,24.334448 a 1.2742122,2.2300677 0 0 1 -1.274212,2.230068 1.2742122,2.2300677 0 0 1 -1.274212,-2.230068 1.2742122,2.2300677 0 0 1 1.274212,-2.230068 1.2742122,2.2300677 0 0 1 1.274212,2.230068 z" /><path
       id="path69"
       style="fill:#000000;stroke:none;stroke-width:0.8;stroke-linecap:round;stroke-linejoin:round;stroke-miterlimit:4.7"
       d="m 35.153574,9.9718657 -5.634765,-2.0507813 0.185546,5.9414066 5.730469,-2.855469 c 0.563704,0.693067 1.639771,0.608886 2.089844,-0.173828 l 5.556641,2.021484 -0.240235,-5.5390623 -5.171875,2.578125 c -0.504573,-1.0587579 -1.898121,-1.199226 -2.515625,0.078125 z"
       sodipodi:nodetypes="ccccccccc" /><path
       style="fill:#000000;stroke:none;stroke-width:0.8;stroke-linecap:round;stroke-linejoin:round;stroke-miterlimit:4.7;stroke-opacity:1"
       d="M 38.16033,33.125917 25.314082,87.150884 52.841755,86.044571 Z"
       id="path70" /></g><g
     id="g76"
     transform="translate(44.145564,0.99597806)"
     style="display:inline"><path
       id="path71"
       style="display:inline;fill:none;stroke:#000000;stroke-width:3.00001;stroke-linecap:round;stroke-linejoin:round;stroke-miterlimit:4.7;stroke-dasharray:none;stroke-opacity:1"
       d="m 26.781592,61.050538 0.631808,-16.222246 6.090921,-10.893225 4.552303,-0.820735 4.832975,0.42913 3.223786,15.553751 6.465919,8.972671 m -0.574107,34.963732 -5.118575,-1.93475 -6.227571,-31.706645 -2.232002,-1.200122 -2.23662,0.731755 -4.064572,33.185582 -6.620089,1.414481 M 38.425605,58.120056 38.066136,33.081488"
       sodipodi:nodetypes="cccccccccccccccc" /><path
       id="path72"
       style="fill:none;stroke:#000000;stroke-width:0.8;stroke-linecap:round;stroke-linejoin:round;stroke-miterlimit:4.7"
       d="m 52.47845,17.965511 c 3.408983,5.645331 -1.119443,10.013356 -1.119443,10.013356 v 0 m -1.039606,-9.621111 c 2.812525,4.920666 -0.979521,8.761767 -0.979521,8.761767 v 0 m -1.158091,-8.226745 c 2.08384,4.035436 -0.8086,7.232882 -0.8086,7.232882 v 0" /><path
       d="m 45.510893,19.162439 c 1.226536,4.315007 -1.289558,8.802936 -5.62945,10.041188 -4.330316,1.240811 -8.851112,-1.251522 -10.079957,-5.557121 -1.229703,-4.308476 1.47859,-8.381205 5.817753,-9.618469 4.339163,-1.237265 8.661952,0.825926 9.891654,5.134402"
       style="display:inline;fill:#ffffff;stroke:#000000;stroke-width:2.00001;stroke-linecap:round;stroke-linejoin:round;stroke-miterlimit:4.7;stroke-dasharray:none;stroke-opacity:1"
       id="path73"
       sodipodi:nodetypes="cccsc" /><path
       id="path74"
       style="stroke:#000000;stroke-width:0.8;stroke-linecap:round;stroke-linejoin:round;stroke-miterlimit:4.7"
       d="m 39.473038,24.334448 a 1.2742122,2.2300677 0 0 1 -1.274212,2.230068 1.2742122,2.2300677 0 0 1 -1.274212,-2.230068 1.2742122,2.2300677 0 0 1 1.274212,-2.230068 1.2742122,2.2300677 0 0 1 1.274212,2.230068 z" /><path
       id="path75"
       style="fill:#000000;stroke:none;stroke-width:0.8;stroke-linecap:round;stroke-linejoin:round;stroke-miterlimit:4.7"
       d="m 35.153574,9.9718657 -5.634765,-2.0507813 0.185546,5.9414066 5.730469,-2.855469 c 0.563704,0.693067 1.639771,0.608886 2.089844,-0.173828 l 5.556641,2.021484 -0.240235,-5.5390623 -5.171875,2.578125 c -0.504573,-1.0587579 -1.898121,-1.199226 -2.515625,0.078125 z"
       sodipodi:nodetypes="ccccccccc" /><path
       style="fill:#000000;stroke:none;stroke-width:0.8;stroke-linecap:round;stroke-linejoin:round;stroke-miterlimit:4.7;stroke-opacity:1"
       d="M 38.16033,33.125917 25.314082,87.150884 52.841755,86.044571 Z"
       id="path76" /></g></svg>
