<?xml version="1.0" encoding="UTF-8" standalone="no"?>
<svg
   xml:space="preserve"
   width="100"
   height="100"
   version="1.1"
   id="svg7"
   sodipodi:docname="human_choir_2.svg"
   inkscape:version="1.3.2 (091e20e, 2023-11-25)"
   xmlns:inkscape="http://www.inkscape.org/namespaces/inkscape"
   xmlns:sodipodi="http://sodipodi.sourceforge.net/DTD/sodipodi-0.dtd"
   xmlns="http://www.w3.org/2000/svg"
   xmlns:svg="http://www.w3.org/2000/svg"><defs
     id="defs7" /><sodipodi:namedview
     id="namedview7"
     pagecolor="#ffffff"
     bordercolor="#000000"
     borderopacity="0.25"
     inkscape:showpageshadow="2"
     inkscape:pageopacity="0.0"
     inkscape:pagecheckerboard="0"
     inkscape:deskcolor="#d1d1d1"
     inkscape:current-layer="svg7" /><g
     id="g53"
     transform="translate(-20.068091,1.2404728)"
     style="display:inline"
     inkscape:label="singer"><path
       id="path48"
       style="display:inline;fill:none;stroke:#000000;stroke-width:3.00001;stroke-linecap:round;stroke-linejoin:round;stroke-miterlimit:4.7;stroke-dasharray:none;stroke-opacity:1"
       d="m 26.781592,61.050538 0.631808,-16.222246 6.090921,-14.893225 4.552303,-0.820735 6.695842,0.340422 1.627043,16.182848 6.199795,12.432282 m -0.574107,34.963732 -5.118575,-1.93475 0.398286,-15.798684 -6.625857,-15.907961 -2.232002,-1.200122 -2.23662,0.731755 -4.985256,15.314794 0.920684,17.870788 -6.620089,1.414481 M 38.425605,58.120056 38.066136,29.081488"
       sodipodi:nodetypes="cccccccccccccccccc" /><g
       id="g76"
       transform="translate(1.7662497,-4.9776128)"><path
         id="path49"
         style="fill:none;stroke:#000000;stroke-width:0.8;stroke-linecap:round;stroke-linejoin:round;stroke-miterlimit:4.7"
         d="m 52.47845,17.965511 c 3.408983,5.645331 -1.119443,10.013356 -1.119443,10.013356 v 0 m -1.039606,-9.621111 c 2.812525,4.920666 -0.979521,8.761767 -0.979521,8.761767 v 0 m -1.158091,-8.226745 c 2.08384,4.035436 -0.8086,7.232882 -0.8086,7.232882 v 0" /><path
         d="m 45.510893,19.162439 c 1.226536,4.315007 -1.289558,8.802936 -5.62945,10.041188 -4.330316,1.240811 -8.851112,-1.251522 -10.079957,-5.557121 -1.229703,-4.308476 1.47859,-8.381205 5.817753,-9.618469 4.339163,-1.237265 8.661952,0.825926 9.891654,5.134402"
         style="display:inline;fill:#ffffff;stroke:#000000;stroke-width:2.00001;stroke-linecap:round;stroke-linejoin:round;stroke-miterlimit:4.7;stroke-dasharray:none;stroke-opacity:1"
         id="path50"
         sodipodi:nodetypes="cccsc" /><path
         id="path51"
         style="stroke:#000000;stroke-width:0.8;stroke-linecap:round;stroke-linejoin:round;stroke-miterlimit:4.7"
         d="m 39.473038,24.334448 a 1.2742122,2.2300677 0 0 1 -1.274212,2.230068 1.2742122,2.2300677 0 0 1 -1.274212,-2.230068 1.2742122,2.2300677 0 0 1 1.274212,-2.230068 1.2742122,2.2300677 0 0 1 1.274212,2.230068 z" /></g><g
       id="g77"
       inkscape:label="body"
       transform="translate(-18.177057,-0.90066499)"><path
         style="stroke-width:0.8;stroke-linecap:round;stroke-linejoin:round;stroke-miterlimit:4.7"
         d="m 47.967852,27.892663 5.209833,32.605601 6.687368,0.756613 6.436783,-32.719636 z"
         id="path76"
         sodipodi:nodetypes="ccccc" /><path
         style="fill:#ffffff;stroke-width:0.8;stroke-linecap:round;stroke-linejoin:round;stroke-miterlimit:4.7"
         d="m 52.754961,29.248131 3.785156,1.681641 c 0.486122,-0.850972 1.440784,-0.689093 1.738282,0.06445 l 3.685547,-1.53125 -0.09766,3.828125 -3.732422,-1.65625 c -0.34728,0.518042 -1.093628,0.525831 -1.449218,0.02149 l -4.083985,1.695312 z"
         id="path77" /></g></g><g
     id="g96"
     transform="translate(11.525929,1.2404728)"
     style="display:inline"
     inkscape:label="singer"><path
       id="path90"
       style="display:inline;fill:none;stroke:#000000;stroke-width:3.00001;stroke-linecap:round;stroke-linejoin:round;stroke-miterlimit:4.7;stroke-dasharray:none;stroke-opacity:1"
       d="m 26.781592,61.050538 0.631808,-16.222246 6.090921,-14.893225 4.552303,-0.820735 6.695842,0.340422 1.627043,16.182848 6.199795,12.432282 m -0.574107,34.963732 -5.118575,-1.93475 0.398286,-15.798684 -6.625857,-15.907961 -2.232002,-1.200122 -2.23662,0.731755 -4.985256,15.314794 0.920684,17.870788 -6.620089,1.414481 M 38.425605,58.120056 38.066136,29.081488"
       sodipodi:nodetypes="cccccccccccccccccc" /><g
       id="g93"
       transform="translate(1.7662497,-4.9776128)"><path
         id="path91"
         style="fill:none;stroke:#000000;stroke-width:0.8;stroke-linecap:round;stroke-linejoin:round;stroke-miterlimit:4.7"
         d="m 52.47845,17.965511 c 3.408983,5.645331 -1.119443,10.013356 -1.119443,10.013356 v 0 m -1.039606,-9.621111 c 2.812525,4.920666 -0.979521,8.761767 -0.979521,8.761767 v 0 m -1.158091,-8.226745 c 2.08384,4.035436 -0.8086,7.232882 -0.8086,7.232882 v 0" /><path
         d="m 45.510893,19.162439 c 1.226536,4.315007 -1.289558,8.802936 -5.62945,10.041188 -4.330316,1.240811 -8.851112,-1.251522 -10.079957,-5.557121 -1.229703,-4.308476 1.47859,-8.381205 5.817753,-9.618469 4.339163,-1.237265 8.661952,0.825926 9.891654,5.134402"
         style="display:inline;fill:#ffffff;stroke:#000000;stroke-width:2.00001;stroke-linecap:round;stroke-linejoin:round;stroke-miterlimit:4.7;stroke-dasharray:none;stroke-opacity:1"
         id="path92"
         sodipodi:nodetypes="cccsc" /><path
         id="path93"
         style="stroke:#000000;stroke-width:0.8;stroke-linecap:round;stroke-linejoin:round;stroke-miterlimit:4.7"
         d="m 39.473038,24.334448 a 1.2742122,2.2300677 0 0 1 -1.274212,2.230068 1.2742122,2.2300677 0 0 1 -1.274212,-2.230068 1.2742122,2.2300677 0 0 1 1.274212,-2.230068 1.2742122,2.2300677 0 0 1 1.274212,2.230068 z" /></g><g
       id="g95"
       inkscape:label="body"
       transform="translate(-18.177057,-0.90066499)"><path
         style="stroke-width:0.8;stroke-linecap:round;stroke-linejoin:round;stroke-miterlimit:4.7"
         d="m 47.967852,27.892663 5.209833,32.605601 6.687368,0.756613 6.436783,-32.719636 z"
         id="path94"
         sodipodi:nodetypes="ccccc" /><path
         style="fill:#ffffff;stroke-width:0.8;stroke-linecap:round;stroke-linejoin:round;stroke-miterlimit:4.7"
         d="m 52.754961,29.248131 3.785156,1.681641 c 0.486122,-0.850972 1.440784,-0.689093 1.738282,0.06445 l 3.685547,-1.53125 -0.09766,3.828125 -3.732422,-1.65625 c -0.34728,0.518042 -1.093628,0.525831 -1.449218,0.02149 l -4.083985,1.695312 z"
         id="path95" /></g></g><g
     id="g102"
     transform="translate(43.119948,1.2404728)"
     style="display:inline"
     inkscape:label="singer"><path
       id="path96"
       style="display:inline;fill:none;stroke:#000000;stroke-width:3.00001;stroke-linecap:round;stroke-linejoin:round;stroke-miterlimit:4.7;stroke-dasharray:none;stroke-opacity:1"
       d="m 26.781592,61.050538 0.631808,-16.222246 6.090921,-14.893225 4.552303,-0.820735 6.695842,0.340422 1.627043,16.182848 6.199795,12.432282 m -0.574107,34.963732 -5.118575,-1.93475 0.398286,-15.798684 -6.625857,-15.907961 -2.232002,-1.200122 -2.23662,0.731755 -4.985256,15.314794 0.920684,17.870788 -6.620089,1.414481 M 38.425605,58.120056 38.066136,29.081488"
       sodipodi:nodetypes="cccccccccccccccccc" /><g
       id="g99"
       transform="translate(1.7662497,-4.9776128)"><path
         id="path97"
         style="fill:none;stroke:#000000;stroke-width:0.8;stroke-linecap:round;stroke-linejoin:round;stroke-miterlimit:4.7"
         d="m 52.47845,17.965511 c 3.408983,5.645331 -1.119443,10.013356 -1.119443,10.013356 v 0 m -1.039606,-9.621111 c 2.812525,4.920666 -0.979521,8.761767 -0.979521,8.761767 v 0 m -1.158091,-8.226745 c 2.08384,4.035436 -0.8086,7.232882 -0.8086,7.232882 v 0" /><path
         d="m 45.510893,19.162439 c 1.226536,4.315007 -1.289558,8.802936 -5.62945,10.041188 -4.330316,1.240811 -8.851112,-1.251522 -10.079957,-5.557121 -1.229703,-4.308476 1.47859,-8.381205 5.817753,-9.618469 4.339163,-1.237265 8.661952,0.825926 9.891654,5.134402"
         style="display:inline;fill:#ffffff;stroke:#000000;stroke-width:2.00001;stroke-linecap:round;stroke-linejoin:round;stroke-miterlimit:4.7;stroke-dasharray:none;stroke-opacity:1"
         id="path98"
         sodipodi:nodetypes="cccsc" /><path
         id="path99"
         style="stroke:#000000;stroke-width:0.8;stroke-linecap:round;stroke-linejoin:round;stroke-miterlimit:4.7"
         d="m 39.473038,24.334448 a 1.2742122,2.2300677 0 0 1 -1.274212,2.230068 1.2742122,2.2300677 0 0 1 -1.274212,-2.230068 1.2742122,2.2300677 0 0 1 1.274212,-2.230068 1.2742122,2.2300677 0 0 1 1.274212,2.230068 z" /></g><g
       id="g101"
       inkscape:label="body"
       transform="translate(-18.177057,-0.90066499)"><path
         style="stroke-width:0.8;stroke-linecap:round;stroke-linejoin:round;stroke-miterlimit:4.7"
         d="m 47.967852,27.892663 5.209833,32.605601 6.687368,0.756613 6.436783,-32.719636 z"
         id="path100"
         sodipodi:nodetypes="ccccc" /><path
         style="fill:#ffffff;stroke-width:0.8;stroke-linecap:round;stroke-linejoin:round;stroke-miterlimit:4.7"
         d="m 52.754961,29.248131 3.785156,1.681641 c 0.486122,-0.850972 1.440784,-0.689093 1.738282,0.06445 l 3.685547,-1.53125 -0.09766,3.828125 -3.732422,-1.65625 c -0.34728,0.518042 -1.093628,0.525831 -1.449218,0.02149 l -4.083985,1.695312 z"
         id="path101" /></g></g></svg>
