<svg xmlns="http://www.w3.org/2000/svg" xml:space="preserve" width="40" height="100">
    <g style="display:inline">
        <path d="m26.782 61.05.631-16.222 6.091-10.893 4.553-.82 4.833.428 3.223 15.554 6.466 8.973m-.574 34.964-5.118-1.935-6.228-31.707-2.232-1.2-2.237.732-4.064 33.185-6.62 1.415m12.92-35.404-.36-25.039" style="display:inline;fill:none;stroke:#000;stroke-width:3.00001;stroke-linecap:round;stroke-linejoin:round;stroke-miterlimit:4.7;stroke-dasharray:none;stroke-opacity:1" transform="translate(-17.118 .786)"/>
        <path d="M53.342 18.674c3.409 5.646-1.12 10.014-1.12 10.014v0m-1.04-9.622c2.813 4.921-.979 8.762-.979 8.762v0m-1.158-8.226c2.084 4.035-.809 7.232-.809 7.232v0" style="fill:none;stroke:#000;stroke-width:.8;stroke-linecap:round;stroke-linejoin:round;stroke-miterlimit:4.7" transform="translate(-17.118 .786)"/>
        <path d="M45.51 19.162c1.227 4.315-1.289 8.803-5.629 10.042-4.33 1.24-8.85-1.252-10.08-5.557-1.23-4.309 1.48-8.382 5.818-9.619 4.34-1.237 8.662.826 9.892 5.134" style="display:inline;fill:#fff;stroke:#000;stroke-width:2.00001;stroke-linecap:round;stroke-linejoin:round;stroke-miterlimit:4.7;stroke-dasharray:none;stroke-opacity:1" transform="translate(-17.118 .786)"/>
        <path d="M39.473 24.334a1.274 2.23 0 0 1-1.274 2.23 1.274 2.23 0 0 1-1.274-2.23 1.274 2.23 0 0 1 1.274-2.23 1.274 2.23 0 0 1 1.274 2.23" style="stroke:#000;stroke-width:.8;stroke-linecap:round;stroke-linejoin:round;stroke-miterlimit:4.7" transform="translate(-17.118 .786)"/>
        <path d="M30.386 3.404a8.4 8.4 0 0 0-2.123.267c-8.871 2.727-8.218 11.888-4.604 19.113 1.092 2.182-4.43 5.828-4.43 5.828s10.78 4.539 7.81-5.42c-2.889-9.68-.45-20.043 8.456-13.93a1.282 1.311 0 0 0-.341.71l-5.635-2.05.185 5.94 5.73-2.855a1.282 1.311 0 0 0 .985.473 1.282 1.311 0 0 0 1.106-.647l5.556 2.022-.24-5.54-5.172 2.579a1.282 1.311 0 0 0-.965-1c1.189-3.418-2.684-5.5-6.318-5.49" style="fill:#000;stroke:none;stroke-width:.8;stroke-linecap:round;stroke-linejoin:round;stroke-miterlimit:4.7" transform="translate(-17.118 .786)"/>
        <path d="M38.16 33.126 25.314 87.15l27.528-1.106Z" style="fill:#000;stroke:none;stroke-width:.8;stroke-linecap:round;stroke-linejoin:round;stroke-miterlimit:4.7;stroke-opacity:1" transform="translate(-17.118 .786)"/>
    </g>
</svg>
