<svg xmlns="http://www.w3.org/2000/svg" xml:space="preserve" width="80" height="100">
    <g style="display:inline;stroke-width:1.83867;stroke-dasharray:none">
        <path d="m45.982 27.867-.55 13.945" style="fill:none;stroke:#000;stroke-width:1.83867;stroke-linecap:round;stroke-linejoin:round;stroke-miterlimit:4.7;stroke-dasharray:none;stroke-opacity:1" transform="matrix(1.63742 0 0 1.62584 -33.602 -18.55)"/>
        <path d="m56.195 62.957-3.126-1.19-.562-10.43-6.93-9.966-7.078 10.188.284 11.298-4.043.87" style="display:inline;fill:none;stroke:#000;stroke-width:1.83867;stroke-linecap:round;stroke-linejoin:round;stroke-miterlimit:4.7;stroke-dasharray:none;stroke-opacity:1" transform="matrix(1.63742 0 0 1.62584 -33.602 -18.55)"/>
    </g>
    <path d="M19.2 24.239a.697.697 0 0 0-.698.698v1.298a44 44 0 0 0-5.636-.392c-2.329 0-4.336.232-5.803.672-1.742.522-2.712 1.323-2.883 2.382-.238 1.473 1.182 2.988 4.107 4.381 2.08.991 4.758 1.847 7.706 2.473L5.318 46.317a.698.698 0 0 0 .98.993l7.961-7.883v8.785c-1.417.251-2.273.6-2.273 1.367v16.098c0 .68.62 1.074 2.273 1.369v7.924L1.239 86.327a.696.696 0 0 0-.067.983.696.696 0 0 0 .983.068l8.798-7.672 3.307 1.78v1.788a.698.698 0 0 0 1.395 0v-1.647l3.568-1.92L23 83v.004l-4.068 13.193a.697.697 0 1 0 1.332.41l3.455-11.203c2.424 6.352 8.576 10.875 15.768 10.875 7.265 0 13.472-4.615 15.843-11.068l3.514 11.396a.698.698 0 0 0 1.332-.41L56.19 83.27l4.088-3.563 3.437 1.85v1.851a.698.698 0 0 0 1.395 0v-1.851l3.437-1.85 8.799 7.672a.69.69 0 0 0 .982-.068.696.696 0 0 0-.066-.983L65.11 74.857V34.988c6.03-.642 11.903-2.643 11.64-5.29-.104-1.048-1.087-1.848-2.923-2.382-1.547-.448-3.618-.687-5.989-.687-.887 0-1.8.037-2.728.103v-1.795a.698.698 0 0 0-1.395 0v1.92c-6.031.642-11.905 2.643-11.642 5.29.104 1.047 1.089 1.848 2.925 2.381 1.546.45 3.616.688 5.987.688.887 0 1.803-.037 2.73-.104v39.745l-7.472 6.516q.114-.967.115-1.965v-4.69c0-3.851-1.3-7.405-3.48-10.247v-5.225h9.743a.697.697 0 0 0 .698-.697v-7.16a.697.697 0 0 0-.698-.698h-5.955c.097-.231.125-.476.051-.736l-2.31-8.15c-.288-1.017-1.777-1.056-2.87-.996-1.333.072-3.034.385-4.789.882-1.178.335-7.027 2.104-6.457 4.116l.577 2.035h-2.852l.443-2.344c.461-2.44-7.392-3.997-8.289-4.166s-8.775-1.586-9.236.854l-1.047 5.535a53 53 0 0 0-4.232.293v-9.967l1.992-1.973q.381.067.765.13c2.461.397 4.924.609 7.124.609 2.328 0 4.333-.232 5.8-.672 1.742-.523 2.714-1.326 2.885-2.385.238-1.473-1.182-2.987-4.107-4.381-2.638-1.256-6.234-2.295-10.125-2.924l-.092-.013v-1.5a.697.697 0 0 0-.697-.698" style="fill:#fff;stroke-width:.174284"/>
    <path d="m78.261 86.327-13.152-11.47V38.989c6.031-.643 11.905-2.643 11.642-5.29-.104-1.048-1.088-1.849-2.925-2.382-1.546-.449-3.616-.686-5.987-.686-.887 0-1.802.035-2.73.102v-1.796a.697.697 0 0 0-1.394 0v1.92c-6.031.643-11.904 2.643-11.642 5.29.104 1.048 1.088 1.849 2.925 2.382 1.546.449 3.616.686 5.987.686.888 0 1.803-.035 2.73-.102v35.744l-7.472 6.515q.115-.968.116-1.965v-4.688c0-3.853-1.3-7.406-3.48-10.249v-5.225h9.743a.697.697 0 0 0 .697-.697v-7.16a.697.697 0 0 0-.697-.697h-5.956c.097-.232.124-.478.05-.737h.001l-2.31-8.15c-.288-1.017-1.776-1.057-2.869-.997-1.334.073-3.035.386-4.79.884-1.178.334-7.028 2.102-6.458 4.114l.577 2.035h-2.85l.442-2.342c.461-2.44-7.392-3.997-8.29-4.167-.896-.17-8.774-1.586-9.235.854l-1.047 5.535a53 53 0 0 0-4.233.293v-9.966l1.993-1.974q.38.068.765.13c2.46.398 4.923.608 7.123.608 2.329 0 4.335-.232 5.802-.672 1.742-.523 2.712-1.325 2.883-2.384.238-1.473-1.182-2.987-4.107-4.381-2.637-1.256-6.233-2.295-10.124-2.924l-.092-.014v-1.5a.697.697 0 0 0-1.394 0v1.298a44 44 0 0 0-5.638-.392c-2.329 0-4.335.232-5.802.672-1.742.523-2.712 1.325-2.883 2.384-.238 1.472 1.182 2.987 4.107 4.38 2.08.992 4.757 1.846 7.705 2.472L5.318 46.318a.697.697 0 0 0 .981.99l7.961-7.881v8.786c-1.417.251-2.274.6-2.274 1.367v16.097c0 .68.62 1.073 2.274 1.368v7.925L1.24 86.327a.697.697 0 0 0 .916 1.05l8.797-7.671 3.307 1.78v1.79a.698.698 0 0 0 1.395 0v-1.649l3.568-1.921L23 82.999v.004l-4.068 13.192a.697.697 0 1 0 1.332.411l3.456-11.203c2.423 6.35 8.574 10.876 15.766 10.876 7.265 0 13.473-4.615 15.844-11.068l3.515 11.395a.697.697 0 1 0 1.332-.41L56.19 83.269l4.087-3.564 3.438 1.851v1.851a.698.698 0 0 0 1.395 0v-1.85l3.438-1.852 8.797 7.672a.694.694 0 0 0 .984-.067.697.697 0 0 0-.068-.983M8.888 32.021c-2.604-1.241-3.422-2.338-3.33-2.9.15-.937 2.71-1.885 7.308-1.885 2.127 0 4.513.204 6.901.59 3.765.61 7.227 1.606 9.748 2.807 2.603 1.24 3.421 2.337 3.33 2.9-.151.936-2.71 1.884-7.309 1.884-2.056 0-4.356-.192-6.665-.554l1.027-1.017v-2.52a.697.697 0 0 0-1.394 0v1.938l-1.319 1.306c-3.198-.615-6.104-1.504-8.297-2.55m5.373 47.882-2.185-1.177 2.185-1.905zm0-14.274c-.4-.078-.698-.157-.88-.233v-14.64c.261.07.558.133.88.19zm45.58-13.544h2.085v5.765H59.84zm-1.395 0v5.765H46.912v-3.05c1.027-.152 2.175-.4 3.346-.733 1.754-.497 3.366-1.122 4.54-1.76q.19-.104.389-.222zm-6.961 7.16v3.627a16.9 16.9 0 0 0-5.278-3.627zm-1.607-6.52c-1.897.538-3.706.847-4.962.847a4.3 4.3 0 0 1-.774-.057c.58-.518 2.352-1.497 5.299-2.332 1.897-.538 3.706-.847 4.963-.847.362 0 .61.027.773.058-.58.517-2.351 1.496-5.299 2.332m-4.36 2.222v2.903h-2.086v-3.09c.543.204 1.19.206 1.484.206q.286 0 .603-.019m9.47-5.985c-.239-.02-.449-.02-.584-.02-1.38 0-3.328.328-5.343.9-.82.231-3.894 1.157-5.503 2.375l-.845-2.983h.884a.697.697 0 0 0 0-1.394h-1.184c.45-.484 2.252-1.536 5.392-2.426 3.335-.945 5.484-.944 5.97-.73zM53.101 42.3l.253.894a8.5 8.5 0 0 0-1.138-.005q-.49.027-1.039.096l-.29-1.022c1.18-.13 1.947-.079 2.214.038m-5.97.732a26 26 0 0 1 2.366-.56l.294 1.036c-.757.146-1.554.335-2.365.564a28 28 0 0 0-2.538.848l-.293-1.033c.717-.286 1.56-.579 2.536-.855m-3.825 1.424.28.984.012.034q-.377.178-.71.36a8.5 8.5 0 0 0-.968.601l-.253-.893c.154-.222.703-.623 1.64-1.086m-3.121 4.778h1.08l.774 2.732v6.075a17 17 0 0 0-1.854-.179zm14.582 23.026c-2.696-5.741-8.532-9.727-15.283-9.727-6.752 0-12.589 3.987-15.284 9.73 1.18-7.372 7.584-13.023 15.284-13.023 7.699 0 14.102 5.65 15.283 13.02m-15.98-23.027v8.628a16.8 16.8 0 0 0-5.898 1.33v-1.971c2.257-.03 3.445-.493 3.62-1.417l1.242-6.57zm-2.447-4.492c.406.233.65.431.733.57l-.146.777a7 7 0 0 0-.759-.44zm-5.863-1.929c1.953.4 3.472.874 4.56 1.314l-.18.95c-1.283-.495-2.864-.942-4.564-1.29zm-6.105-.652c1.149-.03 2.74.065 4.734.397l-.184.973c-1.726-.287-3.366-.434-4.729-.423zm-2.084.357c.103-.08.318-.158.64-.22l-.169.89c-.2.026-.41.06-.618.106zm-.443 2.344c.455-.358 3.126-.668 7.621.182 4.497.85 6.87 2.114 7.164 2.613l-.034.183h-1.386a.698.698 0 0 0 0 1.395h1.122l-.911 4.818c-.537-.362-1.133-.62-1.442-.755-1.507-.653-3.552-1.242-5.759-1.66-1.934-.365-3.848-.566-5.391-.566q-1.329 0-2.194.19zm.984 7.604c1.458 0 3.28.193 5.132.543 4.228.8 6.58 1.964 7.09 2.516-.277.126-.978.304-2.388.304-1.458 0-3.281-.192-5.132-.542-4.228-.8-6.58-1.965-7.09-2.516.277-.126.978-.305 2.388-.305m-7.176-3.048a49 49 0 0 1 3.967-.294l-.17.904a48 48 0 0 1-3.797-.287zm0 1.728q.649.075 1.39.134v.97a.697.697 0 0 0 1.394 0v-.875q.369.02.75.037l-.203 1.079c-.246 1.303 1.843 2.209 2.53 2.506 1.506.653 3.551 1.242 5.758 1.66 1.47.278 2.93.46 4.223.532v2.675a17 17 0 0 0-6.537 6.279 75 75 0 0 1-2.521.042c-2.847 0-5.174-.15-6.784-.344zm0 28.897v-3.45l2.445 2.134zm6.957-5.324.001 4.687q.001.74.064 1.462l-7.022-6.125v-7.498c1.844.216 4.241.335 6.784.335q.892 0 1.77-.021a16.8 16.8 0 0 0-1.597 7.16m16.874 20.166c-8.535 0-15.479-6.944-15.479-15.479s6.944-15.478 15.479-15.478 15.478 6.944 15.478 15.478c0 8.535-6.943 15.479-15.478 15.479m24.23-14.912-2.317-1.247 2.316-2.02zm.696-45.747a.697.697 0 0 0-.697.697v2.793c-.929.07-1.843.105-2.73.105-5.495 0-7.468-1.244-7.524-1.81-.107-1.08 4.099-3.144 10.682-3.797a38 38 0 0 1 3.696-.189c5.495 0 7.469 1.244 7.525 1.811.104 1.055-3.918 3.052-10.255 3.75v-2.663a.697.697 0 0 0-.697-.697m.697 45.747v-3.266l2.316 2.02z" style="stroke-width:.174284"/>
    <ellipse cx="41.31" cy="13.491" rx="7.867" ry="8.062" style="display:inline;fill:#fff;stroke:#000;stroke-width:1.8;stroke-linecap:round;stroke-linejoin:round;stroke-miterlimit:4.7;stroke-dasharray:none"/>
    <path d="M67.121 9.323a1.5 1.5 0 0 0-.832.791l-2.78 6.243-1.163 2.61-1.943 4.362-5.806.523s-3.486-3.5-6.423.621l-6.387.534-.072-.02-4.98-.332c-2.414-3.38-4.459-1.743-5.751-.787l-4.197-1.11-12.966-9.03a1.5 1.5 0 1 0-1.672 2.49s14.03 9.901 14.48 10.098 10.434 1.368 14.885 1.665l.031-.01q.037.033.076.063l8.349-.752 5.14-.463 6.44-.58a1.5 1.5 0 0 0 1.234-.884l6.246-14.02a1.5 1.5 0 0 0-1.909-2.012" style="color:#000;fill:#000;stroke-linecap:round;stroke-linejoin:round;stroke-miterlimit:4.7;-inkscape-stroke:none"/>
    <path d="M51.39 2.577c-.476-.28-1.593-.205-1.593-.205s.494.943.97 1.222c4.798 2.764 17.722 10.895 17.722 10.895a1 1 0 1 0 1.011-1.726S56.645 5.822 51.39 2.577m-23.766.38c-.286.11-15.616 14.732-15.616 14.732a1 1 0 0 0 1.373 1.456c2.29-3.202 14.411-14.39 15.05-15.6s-.521-.694-.807-.586" style="color:#000;fill:#000;stroke-linecap:round;stroke-linejoin:round;stroke-miterlimit:4.7;-inkscape-stroke:none"/>
    <circle cx="49.865" cy="2.308" r=".635" style="fill:#000;fill-opacity:.941704;stroke:none;stroke-width:2.24061;stroke-linecap:round;stroke-linejoin:round;stroke-miterlimit:4.7;stroke-dasharray:none;stroke-opacity:1"/>
    <path d="M43.354.55s-1.016.185-3.692 4.336l1.569-1.842zm-3.23.369-1.66 4.43zm-4.797.83s0-.091 2.029 3.414zm9.318-.553-2.86 3.784zm2.767.278-3.504 3.597zm.922 1.568L44.828 5.81zm-15.498.275 4.059 2.493zm16.145 1.385-2.768 1.477zm-18.266.647 5.627 1.199zm20.387.736-4.336.924zM35.696 7.653l-6.088.463zm12.638.186 3.875.46s0-.091-3.875-.46M29.791 9.591h3.598zm19.282 0 4.427.646zm-.37 1.385 3.967 1.937zm-15.867.091-2.49.647zm-.092 2.121c-2.098 1.05-2.291 1.183-2.306 1.2zm16.42.461 2.676 1.016zm-15.59 1.385c-2.213 1.476-2.214 1.569-2.214 1.569z" style="fill:none;fill-opacity:.941704;stroke:#070707;stroke-width:1.1;stroke-linecap:round;stroke-linejoin:round;stroke-miterlimit:4.7;stroke-dasharray:none;stroke-opacity:1"/>
    <circle cx="28.737" cy="2.62" r=".635" style="fill:#000;fill-opacity:.941704;stroke:none;stroke-width:2.24061;stroke-linecap:round;stroke-linejoin:round;stroke-miterlimit:4.7;stroke-dasharray:none;stroke-opacity:1"/>
    <path d="M40.406 12.972c0 1.46-1.17 2.645-2.614 2.645s-2.614-1.184-2.614-2.645 1.17-1.208 2.614-1.208 2.614-.253 2.614 1.208m5.556-.288c0 1.461-1.17 2.646-2.614 2.646s-2.614-1.185-2.614-2.646 1.17-1.208 2.614-1.208 2.614-.252 2.614 1.208" style="fill-opacity:.941704;stroke-width:1.23054;stroke-linecap:round;stroke-linejoin:round;stroke-miterlimit:4.7"/>
</svg>
