<?xml version="1.0" encoding="UTF-8" standalone="no"?>
<svg
   xml:space="preserve"
   width="100"
   height="100"
   version="1.1"
   id="svg7"
   sodipodi:docname="human_balalaika_1.svg"
   inkscape:version="1.3.2 (091e20e, 2023-11-25)"
   xmlns:inkscape="http://www.inkscape.org/namespaces/inkscape"
   xmlns:sodipodi="http://sodipodi.sourceforge.net/DTD/sodipodi-0.dtd"
   xmlns="http://www.w3.org/2000/svg"
   xmlns:svg="http://www.w3.org/2000/svg"><defs
     id="defs7" /><sodipodi:namedview
     id="namedview7"
     pagecolor="#ffffff"
     bordercolor="#000000"
     borderopacity="0.25"
     inkscape:showpageshadow="2"
     inkscape:pageopacity="0.0"
     inkscape:pagecheckerboard="0"
     inkscape:deskcolor="#d1d1d1"
     inkscape:current-layer="svg7" /><path
     d="m58.683 29.432 12.31 22.007"
     style="display:inline;fill:none;stroke:#000;stroke-width:3;stroke-linecap:round;stroke-linejoin:round;stroke-miterlimit:4.7;stroke-dasharray:none;stroke-opacity:1"
     transform="translate(-2.783 6.798)"
     id="path1" /><g
     style="display:inline;stroke-width:1.83867;stroke-dasharray:none"
     id="g4"><path
       d="m48.352 27.49-3.7 12.869"
       style="fill:none;stroke:#000;stroke-width:1.83867;stroke-linecap:round;stroke-linejoin:round;stroke-miterlimit:4.7;stroke-dasharray:none;stroke-opacity:1"
       transform="matrix(1.63742 0 0 1.62584 -24.934 -4.401)"
       id="path2" /><path
       d="M 59.488,58.993 56.113,58.213 57.043151,45.967 44.72,40.547 l -9.028636,5.749775 2.221985,12.272338 -3.372151,0.517218"
       style="display:inline;fill:none;stroke:#000000;stroke-width:1.83867;stroke-linecap:round;stroke-linejoin:round;stroke-miterlimit:4.7;stroke-dasharray:none;stroke-opacity:1"
       transform="matrix(1.63742,0,0,1.62584,-24.934,-4.401)"
       id="path3"
       sodipodi:nodetypes="ccccccc" /></g><path
     d="M57.987 68.13a1.33 1.33 0 0 1-.923-.368L34.616 46.228a1.21 1.21 0 0 1-.32-1.27c.15-.45.545-.777 1.03-.854l18.649-2.969.027-.004 6.886-1.096 8.22-7.886a1.54 1.54 0 0 1-.015-2.091l.475-.525-.66-.634a.42.42 0 0 1 0-.612.465.465 0 0 1 .638 0l.614.59.963-1.066-.702-.674a.42.42 0 0 1 0-.612.465.465 0 0 1 .638 0l.657.63.963-1.065-.716-.687a.42.42 0 0 1 0-.612.465.465 0 0 1 .638 0l.67.643.027-.03a2.33 2.33 0 0 1 1.64-.753 2.32 2.32 0 0 1 1.691.639l2.262 2.17a2.14 2.14 0 0 1 .666 1.621 2.16 2.16 0 0 1-.785 1.573l-4.852 4.034c-.626.52-1.565.51-2.178-.013-3.725 2.668-8.647 8.088-8.647 8.088s-1.112 8.9-2.005 13.844L59.278 67.08c-.08.466-.421.845-.89.989q-.199.06-.401.06"
     style="display:inline;fill:#fff;stroke:none;stroke-width:1;stroke-linecap:square;stroke-linejoin:round;stroke-miterlimit:4.7;stroke-opacity:1"
     transform="translate(-2.783 6.798)"
     id="path5" /><path
     d="M57.987 68.13a1.33 1.33 0 0 1-.923-.368L34.616 46.228a1.21 1.21 0 0 1-.32-1.27c.15-.45.545-.777 1.03-.854l18.649-2.969.027-.004 6.886-1.096 8.22-7.886a1.54 1.54 0 0 1-.015-2.091l.475-.525-.66-.634a.42.42 0 0 1 0-.612.465.465 0 0 1 .638 0l.614.59.963-1.066-.702-.674a.42.42 0 0 1 0-.612.465.465 0 0 1 .638 0l.657.63.963-1.065-.716-.687a.42.42 0 0 1 0-.612.465.465 0 0 1 .638 0l.67.643.027-.03a2.33 2.33 0 0 1 1.64-.753 2.32 2.32 0 0 1 1.691.639l2.262 2.17a2.14 2.14 0 0 1 .666 1.621 2.16 2.16 0 0 1-.785 1.573l-4.852 4.034c-.626.52-1.565.51-2.178-.013l-8.223 7.889-2.425 14.022-.004.02-1.812 10.475c-.08.466-.421.845-.89.989q-.199.06-.401.06m-4.209-26.086-18.304 2.914a.39.39 0 0 0-.32.264.37.37 0 0 0 .1.394L57.702 67.15c.158.151.34.118.41.095a.39.39 0 0 0 .276-.306l1.792-10.36-3.35-7.599-1.749 1.678a2.47 2.47 0 0 1-.77 1.788 2.7 2.7 0 0 1-1.865.74l-1.442 1.383 2.213 2.124a.42.42 0 0 1 0 .612.465.465 0 0 1-.638 0l-2.527-2.425-.005-.005-.005-.005-.987-.947-.006-.006-.006-.005-3.525-3.382a.42.42 0 0 1 0-.611.465.465 0 0 1 .638 0l2.22 2.13 1.435-1.378a2.47 2.47 0 0 1 .771-1.8 2.7 2.7 0 0 1 1.878-.74l2.16-2.073a.4.4 0 0 1 .051-.059l.542-.519zm3.741 6.275 2.937 6.663 1.967-11.366zm-7.513 5.292.36.346 1.024-.982a2.7 2.7 0 0 1-.462-.249zm-.993-.951.354.339.923-.885a2.5 2.5 0 0 1-.256-.434zm2.568-.56q.25.136.524.188l2.042-1.958a1.6 1.6 0 0 0-.197-.503zm-.832-1.105a1.6 1.6 0 0 0 .194.493l2.369-2.273a1.8 1.8 0 0 0-.513-.187Zm3.853-1.794q.155.212.26.443l1.486-1.425-.361-.346zm-1.09-.857q.236.1.452.246l1.385-1.329-.354-.34zm3.113-1.083.36.344L71.42 33.758l.035-.031 1.561-1.498a.465.465 0 0 1 .638 0 .42.42 0 0 1 0 .612l-1.271 1.22a.78.78 0 0 0 .946-.027L78.181 30a1.285 1.285 0 0 0 .072-1.929l-2.262-2.17a1.4 1.4 0 0 0-1.021-.385 1.4 1.4 0 0 0-.99.454l-4.205 4.655a.7.7 0 0 0-.022.915l4.623-4.434a.465.465 0 0 1 .638 0 .42.42 0 0 1 0 .612L55.633 46.31l.354.34 17.705-16.986a.465.465 0 0 1 .638 0 .42.42 0 0 1 0 .612zM54.69 41.9l1.217 2.915 3.884-3.727z"
     style="display:inline;stroke-width:1"
     transform="translate(-2.783 6.798)"
     id="path6" /><path
     d="m56.99 39.168-.925-10.347m-16.249 8.23-8.185-6.036 17.842-5.383"
     style="display:inline;fill:none;stroke:#000;stroke-width:1.83867;stroke-linecap:round;stroke-linejoin:round;stroke-miterlimit:4.7;stroke-dasharray:none;stroke-opacity:1"
     transform="matrix(1.63742 0 0 1.62584 -25.108 -5.444)"
     id="path7" /><g
     id="g18"
     inkscape:label="head"
     transform="translate(-0.65311196,1.3878629)"><path
       id="path18"
       style="fill:none;fill-rule:evenodd;stroke:#000000"
       transform="rotate(55.114306,61.426741,12.847554)"
       d="m 62.131599,11.669935 c 0.06501,0.251923 -0.307512,0.211926 -0.418713,0.108055 -0.301346,-0.281482 -0.09516,-0.758499 0.202603,-0.945481 0.532624,-0.334465 1.212033,-0.0098 1.472249,0.513261 0.381878,0.767567 -0.07461,1.672999 -0.823918,1.999017 -0.998715,0.434531 -2.136772,-0.158338 -2.525785,-1.134576 -0.489534,-1.228497 0.241692,-2.601923 1.445234,-3.0525534 1.45765,-0.5457738 3.067858,0.3248216 3.579321,1.7558924 0.602741,1.686466 -0.407807,3.534284 -2.06655,4.106089 m -5.110229,0.460295 c 0.246349,0.07274 0.02349,0.36796 -0.120901,0.409447 -0.391278,0.112424 -0.690686,-0.304203 -0.697991,-0.651249 -0.01307,-0.620783 0.6066,-1.031488 1.181593,-0.986537 0.843822,0.06597 1.379098,0.911919 1.275083,1.711942 -0.138634,1.066303 -1.218112,1.72941 -2.242288,1.563628 -1.28882,-0.208621 -2.081081,-1.52469 -1.852173,-2.772635 0.27724,-1.511433 1.831467,-2.433535 3.302981,-2.140719 1.73413,0.345074 2.786474,2.138377 2.429264,3.833329 m -5.921032,3.771449 c 0.240907,0.0095 0.106003,0.329442 -0.01585,0.400404 -0.330205,0.1923 -0.69849,-0.117967 -0.784957,-0.4321 -0.154673,-0.561908 0.314768,-1.078172 0.848347,-1.169516 0.783049,-0.134051 1.464718,0.512656 1.554071,1.264598 0.119091,1.002222 -0.710719,1.853929 -1.680849,1.938627 -1.220809,0.106584 -2.244462,-0.908816 -2.323182,-2.097099 -0.09534,-1.439169 1.106923,-2.635753 2.513349,-2.707739 1.657424,-0.08483 3.027516,1.305034 3.092294,2.9296 m -0.584376,9.335993 c 0.286142,0.0015 0.139196,0.386436 -0.0024,0.475586 -0.383816,0.241591 -0.833336,-0.111383 -0.948738,-0.480458 -0.206427,-0.660187 0.329306,-1.291737 0.95848,-1.421887 0.923338,-0.191003 1.758328,0.548234 1.895043,1.436499 0.182214,1.183921 -0.767265,2.228083 -1.914525,2.36819 -1.44371,0.17631 -2.699411,-0.98628 -2.841342,-2.392546 -0.171896,-1.703178 1.205276,-3.171637 2.870569,-3.314493 1.962491,-0.168351 3.644423,1.424255 3.787643,3.348591 m -7.138576,-3.924096 c 0.270187,0.01015 0.119624,0.369213 -0.01686,0.44907 -0.369874,0.216405 -0.783592,-0.130709 -0.881276,-0.482795 -0.174734,-0.629801 0.35055,-1.209833 0.948726,-1.313482 0.877848,-0.152111 1.643777,0.571592 1.745688,1.414657 0.135833,1.123674 -0.792828,2.080708 -1.88059,2.177895 -1.368838,0.122301 -2.519123,-1.014098 -2.610102,-2.346522 -0.110187,-1.613743 1.235377,-2.958386 2.812455,-3.042308 1.85853,-0.0989 3.39818,1.45666 3.474514,3.278387" /><path
       d="m 67.387,15.567 c 0,4.48 -3.657,8.112 -8.169,8.112 -4.512,0 -8.169,-3.632 -8.169,-8.112 0,-4.48 3.723,-7.652 8.235,-7.652 4.512,0 8.103,3.173 8.103,7.652"
       style="display:inline;fill:none;stroke:#000000;stroke-width:2;stroke-linecap:round;stroke-linejoin:round;stroke-miterlimit:4.7;stroke-dasharray:none;stroke-opacity:1"
       transform="translate(-2.783,6.798)"
       id="path4"
       sodipodi:nodetypes="csssc" /></g></svg>
