<?xml version="1.0" encoding="UTF-8" standalone="no"?>
<svg
   xml:space="preserve"
   width="125"
   height="90"
   version="1.1"
   id="svg4"
   sodipodi:docname="human_harpsichord_1.svg"
   inkscape:version="1.4 (e7c3feb1, 2024-10-09)"
   xmlns:inkscape="http://www.inkscape.org/namespaces/inkscape"
   xmlns:sodipodi="http://sodipodi.sourceforge.net/DTD/sodipodi-0.dtd"
   xmlns="http://www.w3.org/2000/svg"
   xmlns:svg="http://www.w3.org/2000/svg"><defs
   id="defs4">
        
        
    
            
            
        </defs><sodipodi:namedview
   id="namedview4"
   pagecolor="#ffffff"
   bordercolor="#000000"
   borderopacity="0.25"
   inkscape:showpageshadow="2"
   inkscape:pageopacity="0.0"
   inkscape:pagecheckerboard="0"
   inkscape:deskcolor="#d1d1d1"
   inkscape:current-layer="svg4" />
    <path
   d="M 34.623878,8.6434244 V 45.505941 l 13.050754,-0.01864 -0.02391,-36.8438712 z m 17.323481,6.5435406 0.02127,30.297666 67.241971,-0.08791 -3.88599,-5.231637 c -0.66052,-0.287686 -1.97091,-0.716553 -3.90726,-1.158739 -2.11311,-0.484805 -4.79503,-1.009567 -7.8371,-1.611579 C 97.496091,36.192083 89.963332,34.677732 82.400007,32.474797 74.836681,30.271864 67.236146,27.392334 60.959293,23.350069 57.417513,21.068554 54.358161,18.335532 51.948687,15.185629 M 34.898981,50.978645 v 6.50092 h 12.908551 l 0.0013,-6.50092 z m 17.203871,0 -0.0013,6.50092 h 62.485488 l -0.0146,-6.50092 z m 66.763528,0 0.0133,6.50092 h 2.40549 v -6.50092 z m -9.44519,8.639923 h 1.11503 c 0.32428,0 0.58742,0.03996 0.58742,0.09056 l -0.11164,4.986569 c 0,0 1.29976,1.07483 -0.0532,2.33346 l -0.0956,4.328617 c 0,0 1.40342,0.888367 -0.0399,1.810031 l -0.26979,12.066855 -0.0173,-0.0066 h -1.11503 l -0.0186,0.008 -0.26713,-12.013582 c -1.20406,-1.020222 -0.0412,-1.856644 -0.0412,-1.856644 l -0.0956,-4.262026 c -1.41273,-1.358518 -0.0531,-2.406711 -0.0531,-2.406711 l -0.11164,-4.9879 c 0,-0.05061 0.26181,-0.09056 0.58741,-0.09056 m -64.22115,0 h 1.113699 c 0.325607,0 0.587417,0.03996 0.587417,0.09056 l -0.11164,4.986567 c 0,0 1.299761,1.074832 -0.05182,2.33346 l -0.09568,4.328617 c 0,0 1.402093,0.888366 -0.03988,1.810031 l -0.269785,12.066857 -0.01861,-0.0066 h -1.1137 l -0.01861,0.008 -0.268457,-12.01358 c -1.202742,-1.020223 -0.03988,-1.856645 -0.03988,-1.856645 l -0.09568,-4.262025 c -1.414053,-1.35852 -0.05316,-2.406712 -0.05316,-2.406712 L 44.61266,59.709204 c -0.0013,-0.05061 0.261814,-0.09056 0.587417,-0.09056 M 49.822292,47.330575 49.795715,6.5190275 M 32.477547,47.651605 V 6.4964306 H 49.810332 C 56.760988,31.650367 109.08894,34.500596 116.65891,38.357729 l 6.81642,9.178004 z m 17.478975,1.37983 -0.0026,10.445956 m 66.759538,-10.515214 0.0266,10.515214 M 33.338725,48.831653 h 89.505335 c 0.32561,0 0.58741,0.03996 0.58741,0.09056 v 10.609778 c 0,0.05061 -0.2618,0.09056 -0.58741,0.09056 H 33.338736 c -0.325604,0 -0.587417,-0.03996 -0.587417,-0.09056 v -10.60977 c 0,-0.05061 0.261813,-0.09056 0.587417,-0.09056"
   style="fill:none;stroke:#000000;stroke-width:0.999997;stroke-linecap:round;stroke-linejoin:round;stroke-miterlimit:4.7;stroke-dasharray:none"
   id="path1"
   inkscape:label="cembalo" />
    
    
    <g
   id="g4"
   inkscape:label="player"
   transform="matrix(1.3289975,0,0,1.3318827,-6.0102183,-5.8634404)"
   style="stroke-width:0.751632"><path
     id="path4"
     style="fill:none;fill-opacity:1;stroke:#000000;stroke-width:2.2549;stroke-linecap:round;stroke-linejoin:round;stroke-miterlimit:4.7;stroke-dasharray:none;stroke-opacity:1"
     d="m 28.742,41.189 -9.132,-5.972 -3.954,-9.489 3.947,9.51 10.634,1.677 M 9.833,51.681 28.365,51.303 m -16.248,0.422 v 16.298 m 23.03603,0.761515 -5.997869,-0.798288 -1.716017,-16.412855 -10.613756,-2.802948 10.716914,2.755799 -11.815623,16.370583 4.609338,1.138088 m -5.046529,-43.088012 1.486777,22.72274" /><path
     id="circle4"
     style="fill:#ffffff;stroke:#000000;stroke-width:1.50326;stroke-linecap:round;stroke-linejoin:round;stroke-miterlimit:4.7"
     d="M 9.9939997,7.5139999 A 2.3599999,2.3599999 0 0 1 7.6339998,9.8739998 2.3599999,2.3599999 0 0 1 5.2739999,7.5139999 2.3599999,2.3599999 0 0 1 7.6339998,5.154 2.3599999,2.3599999 0 0 1 9.9939997,7.5139999 Z M 21.375,15.146999 a 6.8010001,6.8010001 0 0 1 -6.801,6.801 6.8010001,6.8010001 0 0 1 -6.8009998,-6.801 A 6.8010001,6.8010001 0 0 1 14.574,8.3459992 6.8010001,6.8010001 0 0 1 21.375,15.146999 Z" /></g>
</svg>
