<svg xmlns="http://www.w3.org/2000/svg" xml:space="preserve" width="100" height="100"><path d="M50.765 27.006 66.56 39.3" style="display:inline;fill:none;stroke:#000;stroke-width:3;stroke-linecap:round;stroke-linejoin:round;stroke-miterlimit:4.7;stroke-dasharray:none;stroke-opacity:1" transform="translate(-.783 4.782)"/><g style="display:inline;stroke-width:1.83867;stroke-dasharray:none"><path d="m44.242 23.499 1.19 18.313" style="fill:none;stroke:#000;stroke-width:1.83867;stroke-linecap:round;stroke-linejoin:round;stroke-miterlimit:4.7;stroke-dasharray:none;stroke-opacity:1" transform="matrix(1.63742 0 0 1.62584 -22.934 -6.417)"/><path d="m56.195 62.957-3.126-1.19-.659-11.799-6.833-8.597-7.078 10.188.284 11.298-4.043.87" style="display:inline;fill:none;stroke:#000;stroke-width:1.83867;stroke-linecap:round;stroke-linejoin:round;stroke-miterlimit:4.7;stroke-dasharray:none;stroke-opacity:1" transform="matrix(1.63742 0 0 1.62584 -22.934 -6.417)"/></g><path d="m64.77 43.562-26.431-.401 12.19-16.391M66.76 39.396l14.776-11.199" style="display:inline;fill:none;stroke:#000;stroke-width:3.00001;stroke-linecap:round;stroke-linejoin:round;stroke-miterlimit:4.7;stroke-dasharray:none;stroke-opacity:1" transform="translate(-.783 4.782)"/><g style="stroke-width:1.67095"><path d="M343.412-44.356a3.227 3.227 0 0 0-.008 4.568l83.595 83.597c-.153.305-.309.61-.456.916-1.674 2.794-5.488 7.784-12.577 10.68-2.537 1.044-4.164 3.47-4.156 6.195.008 2.655 1.541 4.928 3.972 5.912.075.031.924.417.924.417.988.388 1.7.946 2.189 1.671 1.433 2.145.696 6.135-1.98 10.661-3.192 5.4-8.618 10.914-15.294 15.544-9.416 6.537-19.987 10.133-26.304 8.934-1.82-.345-3.102-1.055-3.811-2.114-.055-.086-.601-.977-2.458-5.504-.91-2.205-2.965-3.576-5.366-3.583l-.014-.011a6.08 6.08 0 0 0-5.61 3.747 26.1 26.1 0 0 1-5.632 8.395c-2.705 2.705-5.996 4.8-9.52 6.022-13.643 4.714-24.954 11.31-32.71 19.064-12.847 12.848-17.617 31.143-13.423 51.534 3.879 18.864 14.95 38.197 31.18 54.428 16.228 16.226 35.56 27.297 54.422 31.176 4.828.992 9.537 1.474 14.086 1.474 14.665 0 27.66-5.096 37.465-14.902 7.749-7.748 14.343-19.052 19.07-32.696 2.346-6.784 7.584-12.3 14.375-15.152a6.2 6.2 0 0 0 1.988-1.348 5.99 5.99 0 0 0 1.657-5.428c-.384-1.928-1.66-3.475-3.492-4.233-4.439-1.82-5.33-2.358-5.469-2.448-1.06-.709-1.785-1.99-2.13-3.803-1.198-6.311 2.4-16.873 8.936-26.301 4.63-6.676 10.148-12.121 15.548-15.311 4.527-2.676 8.513-3.404 10.657-1.97.727.487 1.266 1.199 1.663 2.199l.414.89c.99 2.446 3.259 3.984 5.914 3.992l.026-.004c2.716 0 5.123-1.63 6.166-4.164 2.917-7.117 7.91-10.896 10.693-12.55.307-.149.603-.314.908-.469l106.167 106.154c.631.631 1.463.961 2.29.961.828 0 1.648-.322 2.278-.953a3.225 3.225 0 0 0 .008-4.568l-15.408-15.418 10.193-10.186-88.26-88.274c1.154-1.063 2.32-2.17 3.494-3.346 9.07-9.068 13.538-22.086 12.605-36.67-.819-12.821-5.711-26.138-13.849-37.827l60.753-64.983 3.095 3.107c-.724 1.169-1.253 2.387-1.524 3.622-.587 2.667.04 5.164 1.7 6.824 1.232 1.232 2.956 1.908 4.862 1.908 2.78 0 5.738-1.367 8.13-3.758 4.163-4.165 4.988-9.885 1.863-13.011-1.231-1.232-2.955-1.908-4.86-1.908-1.857 0-3.803.622-5.598 1.738l-3.243-3.24 12.088-12.948 3.666 3.666c-2.302 3.72-2.357 7.936.166 10.46 1.231 1.232 2.97 1.92 4.875 1.92 2.782 0 5.751-1.383 8.14-3.774 1.805-1.804 3.06-3.994 3.54-6.182.587-2.668-.025-5.154-1.686-6.815-1.231-1.231-2.956-1.907-4.86-1.907-1.857 0-3.803.621-5.598 1.738l-3.819-3.824 10.745-11.503a6.7 6.7 0 0 0 2.259.4 6.73 6.73 0 0 0 5.606-2.987l3.232-4.864.648.638c.63.632 1.459.937 2.286.937s1.661-.312 2.293-.943a3.24 3.24 0 0 0-.006-4.579l-1.552-1.534 4.234-6.362a6.73 6.73 0 0 0-.826-8.484l-5.193-5.204a6.72 6.72 0 0 0-4.768-1.973 6.7 6.7 0 0 0-3.731 1.129l-6.346 4.255-1.54-1.549a3.24 3.24 0 0 0-4.58.006 3.225 3.225 0 0 0-.007 4.569l.632.627-4.86 3.25a6.7 6.7 0 0 0-2.965 4.928 6.7 6.7 0 0 0 .355 2.932l-2.646 2.474-2.773-2.756c.725-1.17 1.264-2.4 1.535-3.635.587-2.668-.024-5.153-1.686-6.814-1.231-1.231-2.97-1.919-4.876-1.919-2.78 0-5.748 1.383-8.14 3.773-4.163 4.165-4.98 9.87-1.854 12.997 1.232 1.231 2.97 1.918 4.876 1.918 1.855 0 3.788-.633 5.583-1.75l2.61 2.614L595.67-49.14l-2.187-2.186c.725-1.168 1.249-2.411 1.52-3.646.587-2.668-.036-5.14-1.697-6.8-1.231-1.231-2.956-1.908-4.86-1.908-2.782 0-5.754 1.358-8.145 3.748-4.165 4.165-4.965 9.881-1.839 13.008 1.232 1.231 2.956 1.907 4.861 1.907 1.856 0 3.777-.618 5.572-1.734l2.036 2.028-73.795 69.016c-11.691-8.139-25.001-13.043-37.821-13.863-14.587-.932-27.621 3.554-36.695 12.627a118 118 0 0 0-3.346 3.478l-55.89-55.88L372.126-40.6a17.54 17.54 0 0 0-12.482-5.172 17.55 17.55 0 0 0-9.99 3.094l-1.663-1.684a3.24 3.24 0 0 0-4.58.006m10.946 6.362a11.1 11.1 0 0 1 5.276-1.305c2.985 0 5.794 1.161 7.905 3.273 3.754 2.105-4.402 3.683-6.614 4.616z" style="display:inline;fill:#fff;stroke-width:1.67095" transform="matrix(.05284 .07133 -.0711 .053 49.511 -6.691)"/><path d="M428.817 161.1a3.235 3.235 0 0 0 2.288-5.522l-24.017-24.016a3.235 3.235 0 0 0-4.575 4.575l24.017 24.017c.631.63 1.459.947 2.287.947m14.616-20.325a3.237 3.237 0 0 0-3.429 5.315l1.311 1.31a3.235 3.235 0 0 0 4.575 0l1.396-1.395a3.37 3.37 0 0 1 4.757 0 3.377 3.377 0 0 1 0 4.77l-25.388 25.387c-3.837 3.838-3.837 10.082 0 13.92a9.77 9.77 0 0 0 6.954 2.88 9.76 9.76 0 0 0 6.231-2.225 3.235 3.235 0 0 0 3.428-5.316l-1.31-1.31a3.236 3.236 0 0 0-4.575 0l-1.396 1.395a3.34 3.34 0 0 1-2.379.985 3.34 3.34 0 0 1-2.378-.985 3.377 3.377 0 0 1 0-4.77l25.387-25.388c3.838-3.838 3.838-10.082 0-13.92-3.601-3.6-9.326-3.818-13.184-.653m-29.157-31.14a3.367 3.367 0 0 1 2.385 5.745l-1.396 1.396a3.236 3.236 0 0 0-.001 4.575l1.31 1.31a3.235 3.235 0 0 0 5.315-3.428c3.166-3.86 2.947-9.583-.655-13.184a9.78 9.78 0 0 0-6.96-2.883 9.78 9.78 0 0 0-6.959 2.883l-25.387 25.388a3.375 3.375 0 0 1-4.77 0 3.367 3.367 0 0 1 0-4.757l1.396-1.396a3.236 3.236 0 0 0-.001-4.576l-1.311-1.31a3.234 3.234 0 0 0-5.315 3.43c-3.165 3.858-2.947 9.582.655 13.184a9.8 9.8 0 0 0 6.96 2.878c2.52 0 5.04-.96 6.96-2.878l25.387-25.389a3.36 3.36 0 0 1 2.387-.988m234.7-190.747-5.199-5.2a6.68 6.68 0 0 0-4.755-1.969 6.7 6.7 0 0 0-3.731 1.132l-6.358 4.244-1.543-1.543a3.234 3.234 0 1 0-4.574 4.574l.63.63-4.866 3.249a6.7 6.7 0 0 0-2.958 4.932 6.7 6.7 0 0 0 .36 2.93l-2.653 2.48-2.764-2.764c.725-1.169 1.253-2.405 1.524-3.64.587-2.668-.03-5.152-1.692-6.813-1.231-1.23-2.958-1.91-4.864-1.91-2.78 0-5.747 1.372-8.14 3.763-4.163 4.165-4.976 9.876-1.85 13.003 1.231 1.232 2.959 1.91 4.864 1.91 1.855 0 3.79-.623 5.585-1.739l2.61 2.61-12.94 12.097-2.189-2.19c.725-1.168 1.252-2.404 1.524-3.639.586-2.668-.031-5.151-1.692-6.811-1.232-1.232-2.96-1.91-4.864-1.91-2.782 0-5.749 1.37-8.14 3.76-4.164 4.166-4.978 9.877-1.852 13.004 1.232 1.231 2.959 1.91 4.864 1.91 1.856 0 3.792-.623 5.587-1.739l2.035 2.035-73.803 69c-11.692-8.139-25.005-13.037-37.825-13.857-14.587-.932-27.616 3.55-36.69 12.624a118 118 0 0 0-3.348 3.49l-55.883-55.884-.004-.003-11.262-11.26a17.53 17.53 0 0 0-12.48-5.169 17.5 17.5 0 0 0-9.976 3.097l-1.683-1.683a3.235 3.235 0 0 0-4.574 4.575l83.596 83.596c-.154.305-.31.61-.457.916-1.673 2.794-5.484 7.782-12.573 10.678a6.67 6.67 0 0 0-4.162 6.205c.008 2.655 1.531 4.919 3.962 5.902.076.032.932.428.932.428.988.388 1.71.935 2.198 1.66 1.433 2.145.691 6.128-1.985 10.654-3.192 5.4-8.627 10.923-15.303 15.553-9.416 6.537-19.982 10.13-26.299 8.93-1.82-.345-3.103-1.06-3.813-2.119-.055-.086-.594-.968-2.45-5.495-.91-2.205-2.967-3.58-5.368-3.587h-.017a6.07 6.07 0 0 0-5.606 3.746 26.1 26.1 0 0 1-5.636 8.4c-2.705 2.705-6 4.782-9.524 6.005-13.643 4.714-24.952 11.305-32.708 19.06-12.848 12.848-17.614 31.154-13.42 51.545 3.88 18.864 14.954 38.19 31.185 54.422 16.227 16.226 35.552 27.299 54.414 31.177 4.828.993 9.537 1.483 14.086 1.483 14.665 0 27.652-5.1 37.457-14.905 7.749-7.748 14.341-19.053 19.068-32.698 2.346-6.783 7.594-12.312 14.384-15.164a6.1 6.1 0 0 0 1.994-1.326 6.03 6.03 0 0 0 1.654-5.45c-.385-1.926-1.65-3.464-3.483-4.222-4.438-1.82-5.345-2.356-5.483-2.446-1.06-.708-1.772-1.987-2.118-3.801-1.198-6.311 2.388-16.886 8.924-26.314 4.63-6.676 10.153-12.11 15.553-15.3 4.527-2.676 8.511-3.416 10.656-1.982.726.488 1.273 1.212 1.67 2.212l.41.9c.99 2.444 3.253 3.968 5.909 3.976h.02c2.716 0 5.143-1.633 6.185-4.167 2.918-7.117 7.899-10.905 10.681-12.56.308-.148.613-.305.92-.459L625.021 241.83c.63.632 1.46.947 2.287.947s1.656-.316 2.287-.947a3.234 3.234 0 0 0 0-4.575l-15.415-15.414 10.193-10.192-88.254-88.255a116 116 0 0 0 3.489-3.348c9.07-9.069 13.55-22.096 12.617-36.68-.82-12.821-5.717-26.134-13.855-37.823l60.75-64.977 3.096 3.096c-.725 1.169-1.251 2.404-1.523 3.638-.586 2.667.03 5.151 1.692 6.811 1.231 1.232 2.959 1.91 4.864 1.91 2.781 0 5.748-1.37 8.14-3.762 4.163-4.164 4.976-9.875 1.852-13.002-1.232-1.232-2.96-1.91-4.865-1.91-1.857 0-3.792.623-5.587 1.74l-3.25-3.25 12.097-12.94 3.668 3.667c-2.303 3.72-2.35 7.929.173 10.454 1.231 1.231 2.959 1.91 4.864 1.91 2.782 0 5.749-1.37 8.139-3.761 1.804-1.805 3.063-4.003 3.544-6.192.587-2.668-.03-5.151-1.692-6.811-1.231-1.232-2.959-1.91-4.864-1.91-1.856 0-3.792.622-5.587 1.739l-3.825-3.824 10.742-11.49a6.71 6.71 0 0 0 7.859-2.593l3.248-4.867.636.636c.63.631 1.46.948 2.287.948s1.655-.317 2.287-.947a3.234 3.234 0 0 0 0-4.575l-1.548-1.548 4.244-6.358a6.74 6.74 0 0 0-.835-8.487m-48.85 12.51c-.147-.47.17-2.168 1.842-3.84 1.29-1.29 2.72-1.867 3.564-1.867.135 0 .227.016.28.03.147.468-.17 2.167-1.843 3.84-1.289 1.29-2.718 1.866-3.563 1.866a1.2 1.2 0 0 1-.28-.029m-17.094 17.094c-.146-.47.17-2.168 1.842-3.84 1.29-1.29 2.72-1.867 3.565-1.867.134 0 .226.015.28.029.147.469-.17 2.167-1.843 3.84-1.29 1.29-2.72 1.867-3.564 1.867-.135-.001-.227-.016-.28-.03m29.626 35.354c.146.47-.172 2.168-1.842 3.84-1.291 1.29-2.72 1.867-3.565 1.867a1.2 1.2 0 0 1-.28-.03c-.147-.469.17-2.167 1.842-3.84 1.291-1.289 2.72-1.866 3.565-1.866.134 0 .227.015.28.029m17.093-17.093c.147.469-.17 2.167-1.843 3.84-1.289 1.29-2.719 1.866-3.564 1.866a1.2 1.2 0 0 1-.28-.029c-.146-.47.172-2.168 1.843-3.84 1.29-1.29 2.72-1.867 3.565-1.867.134 0 .227.016.28.03m-9.662-29.87 5.692 5.692-2.042 2.184-5.834-5.835zM447.19 27.628c7.851-7.852 18.818-11.567 31.702-10.742 11.241.719 22.95 4.928 33.393 11.93l-36.562 34.182-31.877-31.877a110 110 0 0 1 3.344-3.493m42.629 69.848 5.428-5.806 31.355 31.356a67 67 0 0 1-6.614 4.62zM485.24 92.9l-15.476-15.476 5.806-5.428 15.098 15.097zm-4.42 4.728-16.226 17.355-16.913-16.913 17.355-16.225zm-15.632-24.782L435.02 42.678a67 67 0 0 1 4.617-6.617l31.358 31.357zm-110.83-110.83a11.1 11.1 0 0 1 5.28-1.321c2.986 0 5.794 1.163 7.905 3.274l1.617 1.618a17.6 17.6 0 0 0-8.228 3.005zm11.27 11.27c4.226-2.26 9.609-1.616 13.173 1.94l56.229 56.23a76 76 0 0 0-4.707 6.526zm-37.434 256.439 26.205-26.206 4.746 4.747-26.206 26.205a130 130 0 0 1-2.407-2.333 134 134 0 0 1-2.338-2.413m35.942-25.62-5.577-5.577 20.52-30.902 15.959 15.96zm137.139-57.877c-.047.111-.22.012-.22.012-.144-.342-.267-.64-.414-.911-.885-2.1-2.22-3.76-3.974-4.938-8.557-5.724-23.659 2.431-35.127 18.97-7.694 11.097-11.512 23.055-9.963 31.207.67 3.532 2.357 6.289 4.872 7.97.58.388 1.692.999 5.403 2.548-7.999 3.682-14.156 10.395-16.982 18.568-4.344 12.541-10.57 23.28-17.528 30.24-14.43 14.43-32.798 14.304-45.666 11.659-14.943-3.073-30.257-11.055-43.92-22.75l28.024-28.022 39.424-26.179-27.14-27.141-26.18 39.424-28.022 28.022c-11.694-13.664-19.678-28.978-22.751-43.92-2.646-12.868-2.773-31.236 11.658-45.667 6.964-6.965 17.706-13.187 30.25-17.521 4.447-1.543 8.59-4.152 11.982-7.545a32.5 32.5 0 0 0 6.575-9.445c1.775 4.245 2.307 5.04 2.545 5.399 1.689 2.525 4.451 4.214 7.99 4.884 8.154 1.545 20.107-2.276 31.19-9.97 16.537-11.468 24.696-26.565 18.972-35.127-1.185-1.76-2.847-3.095-4.942-3.97-.29-.157-.628-.3-1.053-.478.008-.05.042-.113.148-.157a32.73 32.73 0 0 0 15.345-12.811l28.688 28.689-22.083 20.645 26.375 26.375 20.646-22.083 28.693 28.692c-3.567 2.23-9.371 6.928-12.815 15.33m113.95 65.421-5.618 5.618-12.053-12.054 5.617-5.617zm-16.629-16.628-5.617 5.617-68.297-68.297a76 76 0 0 0 6.524-4.71zM545.77 83.779c.824 12.887-2.888 23.846-10.734 31.692a111 111 0 0 1-3.493 3.345l-31.875-31.874 34.175-36.553c7 10.442 11.208 22.148 11.927 33.39m-50.68-1.414-14.79-14.79L586.676-31.88l7.867 7.867zM591.405-36.3l4.105-3.838 7.292 7.292-3.838 4.105zm15.819-1.275-6.984-6.984 4.106-3.838 6.717 6.717zm1.85-15.244 4.104-3.837 6.142 6.142-3.836 4.104zm24.206-6.688c-.099.148-.322.108-.392.04l-10.754-10.756c-.023-.024-.085-.085-.074-.205a.23.23 0 0 1 .112-.186l16.711-11.154a.253.253 0 0 1 .322.03l5.199 5.199c.084.085.098.22.031.321z" style="display:inline;stroke-width:1.67095" transform="matrix(.05284 .07133 -.0711 .053 49.511 -6.691)"/></g><path d="m37.907 14.785-2.377-3.571 3.39 1.25-.973-3.872 3.37 2.24.374-3.928 1.786 3.994 1.545-4.452.732 4.38 2.457-2.447-1.244 4.527m.615 1.498a5.01 5.01 0 0 1-3.438 6.176 4.967 4.967 0 0 1-6.156-3.418c-.751-2.65.903-5.155 3.553-5.916s5.29.508 6.041 3.158" style="display:inline;fill:#fff;stroke:#000;stroke-width:1.22578;stroke-linecap:round;stroke-linejoin:round;stroke-miterlimit:4.7;stroke-dasharray:none;stroke-opacity:1" transform="matrix(1.63742 0 0 1.62584 -22.934 -6.417)"/></svg>