<?xml version="1.0" encoding="UTF-8" standalone="no"?>
<!-- Uploaded to: SVG Repo, www.svgrepo.com, Generator: SVG Repo Mixer Tools -->

<svg
   fill="#000000"
   height="100"
   width="100"
   version="1.1"
   id="Capa_1"
   viewBox="0 0 100 100"
   xml:space="preserve"
   sodipodi:docname="human_violin_1.svg"
   inkscape:version="1.3.2 (091e20e, 2023-11-25)"
   xmlns:inkscape="http://www.inkscape.org/namespaces/inkscape"
   xmlns:sodipodi="http://sodipodi.sourceforge.net/DTD/sodipodi-0.dtd"
   xmlns="http://www.w3.org/2000/svg"
   xmlns:svg="http://www.w3.org/2000/svg"><defs
   id="defs1" /><sodipodi:namedview
   id="namedview1"
   pagecolor="#ffffff"
   bordercolor="#000000"
   borderopacity="0.25"
   inkscape:showpageshadow="2"
   inkscape:pageopacity="0.0"
   inkscape:pagecheckerboard="0"
   inkscape:deskcolor="#d1d1d1"
   inkscape:zoom="1.0747637"
   inkscape:cx="17.213086"
   inkscape:cy="43.730542"
   inkscape:window-width="1536"
   inkscape:window-height="449"
   inkscape:window-x="0"
   inkscape:window-y="25"
   inkscape:window-maximized="0"
   inkscape:current-layer="Capa_1" />
<g
   id="XMLID_824_"
   transform="matrix(0.19439759,0,0,0.19603273,11.375497,5.0000007)"
   style="stroke-width:5.1226">
	<path
   id="XMLID_848_"
   d="m 336.892,95.91 c -4.483,0 -8.827,-1.1 -12.679,-3.095 l -21.831,11.309 c -0.02,15.351 -6.13,29.282 -16.975,38.202 0.026,6.89 -2.006,13.49 -5.632,19.063 2.384,0.881 4.727,1.908 8.452,1.908 5.048,0 9.985,-2.078 13.538,-5.928 l 50.059,-54.255 c 3.985,-4.32 5.496,-10.032 4.631,-15.417 -5.214,5.314 -12.299,8.213 -19.563,8.213 z"
   style="stroke-width:5.1226" />
	<path
   id="XMLID_868_"
   d="m 193.106,190.891 c -30.975,6.911 -22.522,5.025 -30.25,6.75 -11.642,2.598 -23.201,-3.342 -28.16,-13.647 l -17.524,-36.395 0.009,289.409 c 0,12.204 9.893,22.098 22.098,22.098 12.205,0 22.098,-9.893 22.098,-22.098 0,-21.523 0,-145.685 0,-171.865 0,-1.263 0.502,-2.475 1.395,-3.368 0.893,-0.893 2.105,-1.395 3.368,-1.395 2.639,0 4.777,2.139 4.777,4.778 v 171.851 c 0,12.204 9.893,22.098 22.098,22.098 12.205,0 22.098,-9.893 22.098,-22.098 l -0.77,-245.507 c -6.491,0.878 -14.233,1.032 -21.237,-0.611 z"
   style="stroke-width:5.1226" />
	<path
   id="XMLID_869_"
   d="m 361.67,39.147 c -3.3,-4.781 -7.984,-4.812 -13.177,-2.122 l -2.008,-3.877 c -1.86,-3.589 -6.297,-4.945 -9.819,-3.118 -3.574,1.852 -4.967,6.249 -3.118,9.82 l 2.008,3.877 c -1.495,0.774 -0.887,0.46 -2.587,1.34 -1.898,-3.665 -2.404,-5.14 -4.25,-6.454 -2.016,4.431 -15.163,33.324 -17.363,38.161 l 17.053,-8.834 1.025,1.979 c 0.822,1.586 2.452,5.833 7.457,5.833 1.094,0 2.255,-0.254 3.345,-0.818 3.574,-1.851 4.967,-6.249 3.118,-9.82 l -2.008,-3.876 2.587,-1.34 2.008,3.877 c 1.823,3.516 6.2,4.992 9.82,3.118 v 0 0 c 3.572,-1.851 4.968,-6.247 3.118,-9.819 l -2.008,-3.877 1.509,-0.782 c 4.801,-2.488 6.467,-8.67 3.29,-13.268 z"
   style="stroke-width:5.1226" />
	<path
   id="XMLID_987_"
   d="m 159.876,99.845 c -1.733,4.589 -2.749,9.67 -2.836,15.47 l 12.222,9.642 59.803,-13.344 c 0.001,-0.001 22.08,-48.528 22.081,-48.53 -17.959,-3.568 -23.965,10.254 -27.663,13.621 -10.53,15.253 -28.123,25.273 -48.019,25.273 -5.399,10e-4 -10.622,-0.752 -15.588,-2.132 z"
   style="stroke-width:5.1226" />
	<circle
   id="XMLID_994_"
   cx="175.465"
   cy="43.654999"
   r="38.165001"
   style="stroke-width:5.1226" />
	<path
   id="XMLID_995_"
   d="M 312.656,0.908 C 311.302,0.292 309.884,0 308.488,0 c -3.829,0 -7.49,2.194 -9.18,5.907 l -46.331,101.827 c 6.951,0.466 13.51,3.015 18.889,7.157 L 317.655,14.255 C 319.96,9.189 317.722,3.213 312.656,0.908 Z"
   style="stroke-width:5.1226" />
	<path
   id="XMLID_997_"
   d="m 246.627,124.455 -77.612,17.318 -31.059,-38.742 c 1.032,-3.876 2.698,-9.462 3.703,-11.896 -3.004,-2.145 -5.795,-4.566 -8.339,-7.229 0,0 -13.241,0.088 -20.061,0.583 -5.574,0.293 -10.861,3.103 -14.178,7.893 -4.637,6.697 -4.323,15.645 0.773,22.001 l 47.605,59.379 c 3.538,4.413 8.851,6.897 14.367,6.897 2.894,0 -3.54,1.242 92.823,-20.26 9.926,-2.215 16.177,-12.057 13.962,-21.983 -2.216,-9.925 -12.06,-16.179 -21.984,-13.961 z"
   style="stroke-width:5.1226" />
</g>
</svg>
