<?xml version="1.0" encoding="UTF-8" standalone="no"?>
<svg
   xml:space="preserve"
   width="100"
   height="100"
   version="1.1"
   id="svg7"
   sodipodi:docname="human_flute_1.svg"
   inkscape:version="1.3.2 (091e20e, 2023-11-25)"
   xmlns:inkscape="http://www.inkscape.org/namespaces/inkscape"
   xmlns:sodipodi="http://sodipodi.sourceforge.net/DTD/sodipodi-0.dtd"
   xmlns="http://www.w3.org/2000/svg"
   xmlns:svg="http://www.w3.org/2000/svg"><defs
     id="defs7" /><sodipodi:namedview
     id="namedview7"
     pagecolor="#ffffff"
     bordercolor="#000000"
     borderopacity="0.25"
     inkscape:showpageshadow="2"
     inkscape:pageopacity="0.0"
     inkscape:pagecheckerboard="0"
     inkscape:deskcolor="#d1d1d1"
     inkscape:current-layer="svg7" /><path
     d="m 50.04,14.807 -4.797,-2.992 4.668,2.895 2.341,-2.333 -3.05,-4.824 3.05,4.824 3.773,-1.375 -0.693,-6.193 0.853,6.281 3.058,0.107 1.544,-7.135 -1.55,7.086 3.093,1.42 3.678,-5.364 -3.553,5.389 M 64.978,17 c 1.23,4.308 -1.29,8.804 -5.629,10.042 C 55.01,28.28 50.497,25.792 49.268,21.484 46.192,10.71 62.126,7.006 64.977,17.002"
     style="display:inline;fill:#ffffff;stroke:#000000;stroke-width:2.00001;stroke-linecap:round;stroke-linejoin:round;stroke-miterlimit:4.7;stroke-dasharray:none;stroke-opacity:1"
     id="path7"
     inkscape:label="head" /><path
     d="M 59.982,31.788 67.184137,47.402661 43.716333,31.567938"
     style="display:inline;fill:none;stroke:#000000;stroke-width:3;stroke-linecap:round;stroke-linejoin:round;stroke-miterlimit:4.7;stroke-dasharray:none;stroke-opacity:1"
     id="path1"
     sodipodi:nodetypes="ccc" /><path
     d="M 26.540875,32.180444 46.258275,47.177181 59.747,31.552"
     style="display:inline;fill:none;stroke:#000000;stroke-width:3.00001;stroke-linecap:round;stroke-linejoin:round;stroke-miterlimit:4.7;stroke-dasharray:none;stroke-opacity:1"
     id="path4"
     sodipodi:nodetypes="ccc"
     inkscape:label="body" /><g
     style="display:inline;stroke-width:1.83867;stroke-dasharray:none"
     id="g3"
     transform="translate(16)"><path
       d="m 44.242,23.499 1.19,18.313"
       style="fill:none;stroke:#000000;stroke-width:1.83867;stroke-linecap:round;stroke-linejoin:round;stroke-miterlimit:4.7;stroke-dasharray:none;stroke-opacity:1"
       transform="matrix(1.63742,0,0,1.62584,-28.934,-6.417)"
       id="path2" /><path
       d="m 56.195,62.957 -3.126,-1.19 -0.659,-11.799 -6.833,-8.597 -7.078,10.188 0.284,11.298 -4.043,0.87"
       style="display:inline;fill:none;stroke:#000000;stroke-width:1.83867;stroke-linecap:round;stroke-linejoin:round;stroke-miterlimit:4.7;stroke-dasharray:none;stroke-opacity:1"
       transform="matrix(1.63742,0,0,1.62584,-28.934,-6.417)"
       id="path3" /></g><g
     id="g1"
     transform="rotate(-10.947185,50.174594,-19.273097)"
     style="fill:#ffffff"><rect
       style="fill:#ffffff;fill-opacity:1;stroke:#000000;stroke-width:0.999999;stroke-linecap:round;stroke-linejoin:round;stroke-miterlimit:4.7;stroke-dasharray:none"
       id="rect1"
       width="57.977859"
       height="1.4681284"
       x="0.97324294"
       y="27.876156"
       ry="0.3814919"
       rx="0.50218052" /><ellipse
       style="fill:#ffffff;fill-opacity:1;stroke:#000000;stroke-width:1;stroke-linecap:round;stroke-linejoin:round;stroke-miterlimit:4.7;stroke-dasharray:none"
       id="path13"
       cx="11.970832"
       cy="27.767683"
       rx="1.339148"
       ry="1.004361" /><ellipse
       style="fill:#ffffff;fill-opacity:1;stroke:#000000;stroke-width:0.999998;stroke-linecap:round;stroke-linejoin:round;stroke-miterlimit:4.7;stroke-dasharray:none"
       id="path14"
       cx="49.604721"
       cy="27.819988"
       rx="2.3795993"
       ry="1.521383" /><ellipse
       style="fill:#ffffff;fill-opacity:1;stroke:#000000;stroke-width:1;stroke-linecap:round;stroke-linejoin:round;stroke-miterlimit:4.7;stroke-dasharray:none"
       id="ellipse14"
       cx="17.970833"
       cy="27.767683"
       rx="1.339148"
       ry="1.004361" /><ellipse
       style="fill:#ffffff;fill-opacity:1;stroke:#000000;stroke-width:1;stroke-linecap:round;stroke-linejoin:round;stroke-miterlimit:4.7;stroke-dasharray:none"
       id="ellipse15"
       cx="23.970833"
       cy="27.767683"
       rx="1.339148"
       ry="1.004361" /><ellipse
       style="fill:#ffffff;fill-opacity:1;stroke:#000000;stroke-width:1;stroke-linecap:round;stroke-linejoin:round;stroke-miterlimit:4.7;stroke-dasharray:none"
       id="ellipse16"
       cx="29.970833"
       cy="27.767683"
       rx="1.339148"
       ry="1.004361" /><ellipse
       style="fill:#ffffff;fill-opacity:1;stroke:#000000;stroke-width:0.999998;stroke-linecap:round;stroke-linejoin:round;stroke-miterlimit:4.7;stroke-dasharray:none"
       id="path16"
       cx="49.574158"
       cy="27.823223"
       rx="0.48868281"
       ry="0.085992962" /></g></svg>
