<?xml version="1.0" encoding="UTF-8" standalone="no"?>
<svg
   xml:space="preserve"
   width="80"
   height="100"
   version="1.1"
   id="svg8"
   sodipodi:docname="human_drummer_1.svg"
   inkscape:version="1.4 (e7c3feb1, 2024-10-09)"
   xmlns:inkscape="http://www.inkscape.org/namespaces/inkscape"
   xmlns:sodipodi="http://sodipodi.sourceforge.net/DTD/sodipodi-0.dtd"
   xmlns="http://www.w3.org/2000/svg"
   xmlns:svg="http://www.w3.org/2000/svg"><defs
   id="defs8" /><sodipodi:namedview
   id="namedview8"
   pagecolor="#ffffff"
   bordercolor="#000000"
   borderopacity="0.25"
   inkscape:showpageshadow="2"
   inkscape:pageopacity="0.0"
   inkscape:pagecheckerboard="0"
   inkscape:deskcolor="#d1d1d1"
   inkscape:current-layer="svg8" />
    <g
   style="display:inline;stroke-width:1.83867;stroke-dasharray:none"
   id="g2"
   transform="translate(-10.152014,-0.83302668)">
        <path
   d="m 45.982,27.867 -0.55,13.945"
   style="fill:none;stroke:#000000;stroke-width:1.83867;stroke-linecap:round;stroke-linejoin:round;stroke-miterlimit:4.7;stroke-dasharray:none;stroke-opacity:1"
   transform="matrix(1.63742,0,0,1.62584,-23.45,-17.717)"
   id="path1" />
        <path
   d="m 56.195,62.957 -3.126,-1.19 -0.562,-10.43 -6.93,-9.966 -7.078,10.188 0.284,11.298 -4.043,0.87"
   style="display:inline;fill:none;stroke:#000000;stroke-width:1.83867;stroke-linecap:round;stroke-linejoin:round;stroke-miterlimit:4.7;stroke-dasharray:none;stroke-opacity:1"
   transform="matrix(1.63742,0,0,1.62584,-23.45,-17.717)"
   id="path2" />
    </g>
    <path
   d="m 19.199986,24.238973 a 0.697,0.697 0 0 0 -0.698,0.698 v 1.298 a 44,44 0 0 0 -5.636,-0.392 c -2.329,0 -4.3359998,0.232 -5.8029998,0.672 -1.742,0.522 -2.712,1.323 -2.883,2.382 -0.238,1.473 1.182,2.988 4.107,4.381 2.0799998,0.991 4.7579998,1.847 7.7059998,2.473 l -10.6749998,10.566 a 0.698,0.698 0 0 0 0.98,0.993 l 7.9609998,-7.883 v 8.785 c -1.417,0.251 -2.273,0.6 -2.273,1.367 v 16.098 c 0,0.68 0.62,1.074 2.273,1.369 v 7.924 l -13.0199998,11.357 a 0.696,0.696 0 0 0 -0.067,0.983 0.696,0.696 0 0 0 0.983,0.068 l 8.7979998,-7.672 3.307,1.78 v 1.788 a 0.6975,0.6975 0 0 0 1.395,0 v -1.647 l 3.568,-1.92 3.777,3.293 v 0.004 l -4.068,13.193 a 0.697,0.697 0 1 0 1.332,0.41 l 3.455,-11.203 c 2.424,6.352 8.576,10.875 15.768,10.875 7.265,0 13.472,-4.615 15.843,-11.068 l 3.514,11.396 a 0.698,0.698 0 0 0 1.332,-0.41 l -3.986,-12.927 4.088,-3.563 3.437,1.85 v 1.851 a 0.6975,0.6975 0 0 0 1.395,0 v -1.851 l 3.437,-1.85 8.799,7.672 a 0.69,0.69 0 0 0 0.982,-0.068 0.696,0.696 0 0 0 -0.066,-0.983 l -13.152,-11.471 v -39.869 c 6.03,-0.642 11.903,-2.643 11.64,-5.29 -0.104,-1.048 -1.087,-1.848 -2.923,-2.382 -1.547,-0.448 -3.618,-0.687 -5.989,-0.687 -0.887,0 -1.8,0.037 -2.728,0.103 v -1.795 a 0.6975,0.6975 0 0 0 -1.395,0 v 1.92 c -6.031,0.642 -11.905,2.643 -11.642,5.29 0.104,1.047 1.089,1.848 2.925,2.381 1.546,0.45 3.616,0.688 5.987,0.688 0.887,0 1.803,-0.037 2.73,-0.104 v 39.745 l -7.472,6.516 q 0.114,-0.967 0.115,-1.965 v -4.69 c 0,-3.851 -1.3,-7.405 -3.48,-10.247 v -5.225 h 9.743 a 0.697,0.697 0 0 0 0.698,-0.697 v -7.16 a 0.697,0.697 0 0 0 -0.698,-0.698 h -5.955 c 0.097,-0.231 0.125,-0.476 0.051,-0.736 l -2.31,-8.15 c -0.288,-1.017 -1.777,-1.056 -2.87,-0.996 -1.333,0.072 -3.034,0.385 -4.789,0.882 -1.178,0.335 -7.027,2.104 -6.457,4.116 l 0.577,2.035 h -2.852 l 0.443,-2.344 c 0.461,-2.44 -7.392,-3.997 -8.289,-4.166 -0.897,-0.169 -8.775,-1.586 -9.236,0.854 l -1.047,5.535 a 53,53 0 0 0 -4.232,0.293 v -9.967 l 1.992,-1.973 q 0.381,0.067 0.765,0.13 c 2.461,0.397 4.924,0.609 7.124,0.609 2.328,0 4.333,-0.232 5.8,-0.672 1.742,-0.523 2.714,-1.326 2.885,-2.385 0.238,-1.473 -1.182,-2.987 -4.107,-4.381 -2.638,-1.256 -6.234,-2.295 -10.125,-2.924 l -0.092,-0.013 v -1.5 a 0.697,0.697 0 0 0 -0.697,-0.698"
   style="fill:#ffffff;stroke-width:0.174284"
   id="path3" />
    <path
   d="m 78.260986,86.326973 -13.152,-11.47 v -35.868 c 6.031,-0.643 11.905,-2.643 11.642,-5.29 -0.104,-1.048 -1.088,-1.849 -2.925,-2.382 -1.546,-0.449 -3.616,-0.686 -5.987,-0.686 -0.887,0 -1.802,0.035 -2.73,0.102 v -1.796 a 0.697,0.697 0 0 0 -1.394,0 v 1.92 c -6.031,0.643 -11.904,2.643 -11.642,5.29 0.104,1.048 1.088,1.849 2.925,2.382 1.546,0.449 3.616,0.686 5.987,0.686 0.888,0 1.803,-0.035 2.73,-0.102 v 35.744 l -7.472,6.515 q 0.115,-0.968 0.116,-1.965 v -4.688 c 0,-3.853 -1.3,-7.406 -3.48,-10.249 v -5.225 h 9.743 a 0.697,0.697 0 0 0 0.697,-0.697 v -7.16 a 0.697,0.697 0 0 0 -0.697,-0.697 h -5.956 c 0.097,-0.232 0.124,-0.478 0.05,-0.737 h 10e-4 l -2.31,-8.15 c -0.288,-1.017 -1.776,-1.057 -2.869,-0.997 -1.334,0.073 -3.035,0.386 -4.79,0.884 -1.178,0.334 -7.028,2.102 -6.458,4.114 l 0.577,2.035 h -2.85 l 0.442,-2.342 c 0.461,-2.44 -7.392,-3.997 -8.29,-4.167 -0.896,-0.17 -8.774,-1.586 -9.235,0.854 l -1.047,5.535 a 53,53 0 0 0 -4.233,0.293 v -9.966 l 1.993,-1.974 q 0.38,0.068 0.765,0.13 c 2.46,0.398 4.923,0.608 7.123,0.608 2.329,0 4.335,-0.232 5.802,-0.672 1.742,-0.523 2.712,-1.325 2.883,-2.384 0.238,-1.473 -1.182,-2.987 -4.107,-4.381 -2.637,-1.256 -6.233,-2.295 -10.124,-2.924 l -0.092,-0.014 v -1.5 a 0.697,0.697 0 0 0 -1.394,0 v 1.298 a 44,44 0 0 0 -5.638,-0.392 c -2.329,0 -4.3349998,0.232 -5.8019998,0.672 -1.742,0.523 -2.712,1.325 -2.883,2.384 -0.238,1.472 1.182,2.987 4.107,4.38 2.0799998,0.992 4.7569998,1.846 7.7049998,2.472 l -10.6739998,10.568 a 0.697,0.697 0 0 0 0.981,0.99 l 7.9609998,-7.881 v 8.786 c -1.417,0.251 -2.274,0.6 -2.274,1.367 v 16.097 c 0,0.68 0.62,1.073 2.274,1.368 v 7.925 l -13.0199998,11.357 a 0.697,0.697 0 0 0 0.916,1.05 l 8.7969998,-7.671 3.307,1.78 v 1.79 a 0.6975,0.6975 0 0 0 1.395,0 v -1.649 l 3.568,-1.921 3.777,3.293 v 0.004 l -4.068,13.192 a 0.697,0.697 0 1 0 1.332,0.411 l 3.456,-11.203 c 2.423,6.35 8.574,10.876 15.766,10.876 7.265,0 13.473,-4.615 15.844,-11.068 l 3.515,11.395 a 0.697,0.697 0 1 0 1.332,-0.41 l -3.987,-12.927 4.087,-3.564 3.438,1.851 v 1.851 a 0.6975,0.6975 0 0 0 1.395,0 v -1.85 l 3.438,-1.852 8.797,7.672 a 0.694,0.694 0 0 0 0.984,-0.067 0.697,0.697 0 0 0 -0.068,-0.983 m -69.3729998,-54.306 c -2.604,-1.241 -3.422,-2.338 -3.33,-2.9 0.15,-0.937 2.71,-1.885 7.3079998,-1.885 2.127,0 4.513,0.204 6.901,0.59 3.765,0.61 7.227,1.606 9.748,2.807 2.603,1.24 3.421,2.337 3.33,2.9 -0.151,0.936 -2.71,1.884 -7.309,1.884 -2.056,0 -4.356,-0.192 -6.665,-0.554 l 1.027,-1.017 v -2.52 a 0.697,0.697 0 0 0 -1.394,0 v 1.938 l -1.319,1.306 c -3.198,-0.615 -6.104,-1.504 -8.2969998,-2.55 m 5.3729998,47.882 -2.185,-1.177 2.185,-1.905 z m 0,-14.274 c -0.4,-0.078 -0.698,-0.157 -0.88,-0.233 v -14.64 c 0.261,0.07 0.558,0.133 0.88,0.19 z m 45.58,-13.544 h 2.085 v 5.765 h -2.086 z m -1.395,0 v 5.765 h -11.534 v -3.05 c 1.027,-0.152 2.175,-0.4 3.346,-0.733 1.754,-0.497 3.366,-1.122 4.54,-1.76 q 0.19,-0.104 0.389,-0.222 z m -6.961,7.16 v 3.627 a 16.9,16.9 0 0 0 -5.278,-3.627 z m -1.607,-6.52 c -1.897,0.538 -3.706,0.847 -4.962,0.847 a 4.3,4.3 0 0 1 -0.774,-0.057 c 0.58,-0.518 2.352,-1.497 5.299,-2.332 1.897,-0.538 3.706,-0.847 4.963,-0.847 0.362,0 0.61,0.027 0.773,0.058 -0.58,0.517 -2.351,1.496 -5.299,2.332 m -4.36,2.222 v 2.903 h -2.086 v -3.09 c 0.543,0.204 1.19,0.206 1.484,0.206 q 0.286,0 0.603,-0.019 m 9.47,-5.985 c -0.239,-0.02 -0.449,-0.02 -0.584,-0.02 -1.38,0 -3.328,0.328 -5.343,0.9 -0.82,0.231 -3.894,1.157 -5.503,2.375 l -0.845,-2.983 h 0.884 a 0.697,0.697 0 0 0 0,-1.394 h -1.184 c 0.45,-0.484 2.252,-1.536 5.392,-2.426 3.335,-0.945 5.484,-0.944 5.97,-0.73 z m -1.888,-6.662 0.253,0.894 a 8.5,8.5 0 0 0 -1.138,-0.005 q -0.49,0.027 -1.039,0.096 l -0.29,-1.022 c 1.18,-0.13 1.947,-0.079 2.214,0.038 m -5.97,0.732 a 26,26 0 0 1 2.366,-0.56 l 0.294,1.036 c -0.757,0.146 -1.554,0.335 -2.365,0.564 a 28,28 0 0 0 -2.538,0.848 l -0.293,-1.033 c 0.717,-0.286 1.56,-0.579 2.536,-0.855 m -3.825,1.424 0.28,0.984 0.012,0.034 q -0.377,0.178 -0.71,0.36 a 8.5,8.5 0 0 0 -0.968,0.601 l -0.253,-0.893 c 0.154,-0.222 0.703,-0.623 1.64,-1.086 m -3.121,4.778 h 1.08 l 0.774,2.732 v 6.075 a 17,17 0 0 0 -1.854,-0.179 z m 14.582,23.026 c -2.696,-5.741 -8.532,-9.727 -15.283,-9.727 -6.752,0 -12.589,3.987 -15.284,9.73 1.18,-7.372 7.584,-13.023 15.284,-13.023 7.699,0 14.102,5.65 15.283,13.02 m -15.98,-23.027 v 8.628 a 16.8,16.8 0 0 0 -5.898,1.33 v -1.971 c 2.257,-0.03 3.445,-0.493 3.62,-1.417 l 1.242,-6.57 z m -2.447,-4.492 c 0.406,0.233 0.65,0.431 0.733,0.57 l -0.146,0.777 a 7,7 0 0 0 -0.759,-0.44 z m -5.863,-1.929 c 1.953,0.4 3.472,0.874 4.56,1.314 l -0.18,0.95 c -1.283,-0.495 -2.864,-0.942 -4.564,-1.29 z m -6.105,-0.652 c 1.149,-0.03 2.74,0.065 4.734,0.397 l -0.184,0.973 c -1.726,-0.287 -3.366,-0.434 -4.729,-0.423 z m -2.084,0.357 c 0.103,-0.08 0.318,-0.158 0.64,-0.22 l -0.169,0.89 c -0.2,0.026 -0.41,0.06 -0.618,0.106 z m -0.443,2.344 c 0.455,-0.358 3.126,-0.668 7.621,0.182 4.497,0.85 6.87,2.114 7.164,2.613 l -0.034,0.183 h -1.386 a 0.6975,0.6975 0 0 0 0,1.395 h 1.122 l -0.911,4.818 c -0.537,-0.362 -1.133,-0.62 -1.442,-0.755 -1.507,-0.653 -3.552,-1.242 -5.759,-1.66 -1.934,-0.365 -3.848,-0.566 -5.391,-0.566 q -1.329,0 -2.194,0.19 z m 0.984,7.604 c 1.458,0 3.28,0.193 5.132,0.543 4.228,0.8 6.58,1.964 7.09,2.516 -0.277,0.126 -0.978,0.304 -2.388,0.304 -1.458,0 -3.281,-0.192 -5.132,-0.542 -4.228,-0.8 -6.58,-1.965 -7.09,-2.516 0.277,-0.126 0.978,-0.305 2.388,-0.305 m -7.176,-3.048 a 49,49 0 0 1 3.967,-0.294 l -0.17,0.904 a 48,48 0 0 1 -3.797,-0.287 z m 0,1.728 q 0.649,0.075 1.39,0.134 v 0.97 a 0.697,0.697 0 0 0 1.394,0 v -0.875 q 0.369,0.02 0.75,0.037 l -0.203,1.079 c -0.246,1.303 1.843,2.209 2.53,2.506 1.506,0.653 3.551,1.242 5.758,1.66 1.47,0.278 2.93,0.46 4.223,0.532 v 2.675 a 17,17 0 0 0 -6.537,6.279 75,75 0 0 1 -2.521,0.042 c -2.847,0 -5.174,-0.15 -6.784,-0.344 z m 0,28.897 v -3.45 l 2.445,2.134 z m 6.957,-5.324 0.001,4.687 q 10e-4,0.74 0.064,1.462 l -7.022,-6.125 v -7.498 c 1.844,0.216 4.241,0.335 6.784,0.335 q 0.892,0 1.77,-0.021 a 16.8,16.8 0 0 0 -1.597,7.16 m 16.874,20.166 c -8.535,0 -15.479,-6.944 -15.479,-15.479 0,-8.535 6.944,-15.478 15.479,-15.478 8.535,0 15.478,6.944 15.478,15.478 0,8.535 -6.943,15.479 -15.478,15.479 m 24.23,-14.912 -2.317,-1.247 2.316,-2.02 z m 0.696,-45.747 a 0.697,0.697 0 0 0 -0.697,0.697 v 2.793 c -0.929,0.07 -1.843,0.105 -2.73,0.105 -5.495,0 -7.468,-1.244 -7.524,-1.81 -0.107,-1.08 4.099,-3.144 10.682,-3.797 a 38,38 0 0 1 3.696,-0.189 c 5.495,0 7.469,1.244 7.525,1.811 0.104,1.055 -3.918,3.052 -10.255,3.75 v -2.663 a 0.697,0.697 0 0 0 -0.697,-0.697 m 0.697,45.747 v -3.266 l 2.316,2.02 z"
   style="stroke-width:0.174284"
   id="path4" />
    <ellipse
   cx="41.30999"
   cy="13.490973"
   rx="7.8670001"
   ry="8.0620003"
   style="display:inline;fill:#ffffff;stroke:#000000;stroke-width:1.8;stroke-linecap:round;stroke-linejoin:round;stroke-miterlimit:4.7;stroke-dasharray:none"
   id="ellipse4" />
    <path
   d="m 67.120986,9.3229733 a 1.5,1.5 0 0 0 -0.832,0.7909997 l -2.78,6.243 -1.163,2.61 -1.943,4.362 -5.806,0.523 c 0,0 -3.486,-3.5 -6.423,0.621 l -6.387,0.534 -0.072,-0.02 -4.98,-0.332 c -2.414,-3.38 -4.459,-1.743 -5.751,-0.787 l -4.197,-1.11 -12.966,-9.03 a 1.5,1.5 0 1 0 -1.672,2.49 c 0,0 14.03,9.901 14.48,10.098 0.45,0.197 10.434,1.368 14.885,1.665 l 0.031,-0.01 q 0.037,0.033 0.076,0.063 l 8.349,-0.752 5.14,-0.463 6.44,-0.58 a 1.5,1.5 0 0 0 1.234,-0.884 l 6.246,-14.02 a 1.5,1.5 0 0 0 -1.909,-2.0119997"
   style="color:#000000;fill:#000000;stroke-linecap:round;stroke-linejoin:round;stroke-miterlimit:4.7;-inkscape-stroke:none"
   id="path5" />
    <path
   d="m 51.389986,2.5769733 c -0.476,-0.28 -1.593,-0.205 -1.593,-0.205 0,0 0.494,0.943 0.97,1.222 4.798,2.764 17.722,10.8949997 17.722,10.8949997 a 1.0001496,1.0001496 0 1 0 1.011,-1.726 c 0,0 -12.855,-6.9409997 -18.11,-10.1859997 m -23.766,0.38 c -0.286,0.11 -15.616,14.7319997 -15.616,14.7319997 a 1.0006329,1.0006329 0 0 0 1.373,1.456 c 2.29,-3.202 14.411,-14.3899997 15.05,-15.5999997 0.639,-1.21 -0.521,-0.694 -0.807,-0.586"
   style="color:#000000;fill:#000000;stroke-linecap:round;stroke-linejoin:round;stroke-miterlimit:4.7;-inkscape-stroke:none"
   id="path6" />
    <circle
   cx="49.864986"
   cy="2.3079734"
   r="0.63499999"
   style="fill:#000000;fill-opacity:0.941704;stroke:none;stroke-width:2.24061;stroke-linecap:round;stroke-linejoin:round;stroke-miterlimit:4.7;stroke-dasharray:none;stroke-opacity:1"
   id="circle6" />
    <path
   d="m 43.353986,0.54997332 c 0,0 -1.016,0.185 -3.692,4.33599998 l 1.569,-1.842 z m -3.23,0.369 -1.66,4.42999998 z m -4.797,0.82999998 c 0,0 0,-0.091 2.029,3.414 z m 9.318,-0.553 -2.86,3.784 z m 2.767,0.278 -3.504,3.597 z m 0.922,1.568 -3.506,2.768 z m -15.498,0.275 4.059,2.493 z m 16.145,1.385 -2.768,1.477 z m -18.266,0.647 5.627,1.199 z m 20.387,0.736 -4.336,0.924 z m -15.406,1.568 -6.088,0.463 z m 12.638,0.186 3.875,0.46 c 0,0 0,-0.091 -3.875,-0.46 m -18.543,1.752 h 3.598 z m 19.282,0 4.427,0.6459997 z m -0.37,1.3849997 3.967,1.937 z m -15.867,0.091 -2.49,0.647 z m -0.092,2.121 c -2.098,1.05 -2.291,1.183 -2.306,1.2 z m 16.42,0.461 2.676,1.016 z m -15.59,1.385 c -2.213,1.476 -2.214,1.569 -2.214,1.569 z"
   style="fill:none;fill-opacity:0.941704;stroke:#070707;stroke-width:1.1;stroke-linecap:round;stroke-linejoin:round;stroke-miterlimit:4.7;stroke-dasharray:none;stroke-opacity:1"
   id="path7" />
    <circle
   cx="28.736986"
   cy="2.6199734"
   r="0.63499999"
   style="fill:#000000;fill-opacity:0.941704;stroke:none;stroke-width:2.24061;stroke-linecap:round;stroke-linejoin:round;stroke-miterlimit:4.7;stroke-dasharray:none;stroke-opacity:1"
   id="circle7" />
    <path
   d="m 40.405986,12.971973 c 0,1.46 -1.17,2.645 -2.614,2.645 -1.444,0 -2.614,-1.184 -2.614,-2.645 0,-1.461 1.17,-1.208 2.614,-1.208 1.444,0 2.614,-0.253 2.614,1.208 m 5.556,-0.288 c 0,1.461 -1.17,2.646 -2.614,2.646 -1.444,0 -2.614,-1.185 -2.614,-2.646 0,-1.461 1.17,-1.208 2.614,-1.208 1.444,0 2.614,-0.252 2.614,1.208"
   style="fill-opacity:0.941704;stroke-width:1.23054;stroke-linecap:round;stroke-linejoin:round;stroke-miterlimit:4.7"
   id="path8" />
</svg>
