<?xml version="1.0" encoding="UTF-8" standalone="no"?>
<svg
   xml:space="preserve"
   width="100"
   height="100"
   version="1.1"
   id="svg7"
   sodipodi:docname="human_oboe_1.svg"
   inkscape:version="1.3.2 (091e20e, 2023-11-25)"
   xmlns:inkscape="http://www.inkscape.org/namespaces/inkscape"
   xmlns:sodipodi="http://sodipodi.sourceforge.net/DTD/sodipodi-0.dtd"
   xmlns="http://www.w3.org/2000/svg"
   xmlns:svg="http://www.w3.org/2000/svg"><defs
     id="defs7" /><sodipodi:namedview
     id="namedview7"
     pagecolor="#ffffff"
     bordercolor="#000000"
     borderopacity="0.25"
     inkscape:showpageshadow="2"
     inkscape:pageopacity="0.0"
     inkscape:pagecheckerboard="0"
     inkscape:deskcolor="#d1d1d1"
     inkscape:current-layer="svg7" /><path
     d="m 50.04,14.807 -4.797,-2.992 4.668,2.895 2.341,-2.333 -3.05,-4.824 3.05,4.824 3.773,-1.375 -0.693,-6.193 0.853,6.281 3.058,0.107 1.544,-7.135 -1.55,7.086 3.093,1.42 3.678,-5.364 -3.553,5.389 M 64.978,17 c 1.23,4.308 -1.29,8.804 -5.629,10.042 C 55.01,28.28 50.497,25.792 49.268,21.484 46.192,10.71 62.126,7.006 64.977,17.002"
     style="display:inline;fill:#ffffff;stroke:#000000;stroke-width:2.00001;stroke-linecap:round;stroke-linejoin:round;stroke-miterlimit:4.7;stroke-dasharray:none;stroke-opacity:1"
     transform="translate(-12.456,-0.881)"
     id="path1" /><path
     id="path3"
     style="display:inline;fill:none;stroke:#000000;stroke-width:3.00001;stroke-linecap:round;stroke-linejoin:round;stroke-miterlimit:4.7;stroke-dasharray:none;stroke-opacity:1"
     transform="translate(-12.456,-0.881)"
     d="M 69.196955,50.397 49.870051,45.64278 59.747,31.552 m 0.235,0.236 15.108838,5.109831 0.36592,11.882436"
     sodipodi:nodetypes="cccccc" /><g
     style="display:inline;stroke-width:1.83867;stroke-dasharray:none"
     id="g5"
     sodipodi:insensitive="true"><path
       id="path5"
       style="display:inline;fill:none;stroke:#000000;stroke-width:1.83867;stroke-linecap:round;stroke-linejoin:round;stroke-miterlimit:4.7;stroke-dasharray:none;stroke-opacity:1"
       transform="matrix(1.63742,0,0,1.62584,-25.39,-7.298)"
       d="m 56.195,62.957 -3.126,-1.19 -0.562,-10.43 -6.93,-9.966 -7.078,10.188 0.284,11.298 -4.043,0.87 m 9.502,-40.228 1.19,18.313" /></g><g
     id="g2"
     transform="matrix(-0.03746454,-0.06736107,0.06736107,-0.03746454,53.528852,71.465673)"
     style="display:inline;stroke-width:2.48437"
     inkscape:label="g2">
	<path
   style="display:inline;fill:#ffffff;stroke-width:2.48437"
   d="m -45.120992,173.08516 c -2.096462,-1e-4 -4.447691,1.95646 -4.447265,4.44727 v 10.01367 l 0.0058,74.40646 c 9.7e-5,1.24435 0.494672,2.33646 1.302734,3.14453 0.80777,0.80777 1.896644,1.30078 3.142578,1.30078 h 0.002 c 2.493032,0 4.447691,-1.95452 4.447266,-4.44531 v -3.21289 c 4.03e-4,-1.56776 1.188132,-2.88043 2.748047,-3.03711 l 92.875,-9.28711 c 0.101239,-0.0103 0.202928,-0.0155 0.304687,-0.0156 H 97.38486 c 1.685877,2.5e-4 3.05249,1.36686 3.05273,3.05274 v 2.5 c 0,1.24627 0.49377,2.33752 1.30078,3.14453 0.80776,0.80776 1.9005,1.30273 3.14454,1.30273 h 0.002 c 2.49207,0 4.44574,-1.9555 4.44531,-4.44726 v -2.5 c 2.4e-4,-1.68588 1.36686,-3.0525 3.05274,-3.05274 h 15.00195 c 1.68588,2.5e-4 3.05249,1.36686 3.05273,3.05274 v 2.5 0.002 c 0,1.24594 0.49302,2.33482 1.30078,3.14258 0.80882,0.80881 1.89855,1.30273 3.14258,1.30273 h 0.002 c 2.49209,0 4.4477,-1.95646 4.44727,-4.44726 v -2.5 c 2.4e-4,-1.68588 1.36685,-3.05249 3.05273,-3.05274 l 139.99422,-0.009 c 1.68588,2.4e-4 3.0525,1.36686 3.05274,3.05274 v 2.49804 c 4.2e-4,1.24666 0.4957,2.34141 1.30273,3.14844 0.80776,0.80776 1.90017,1.30274 3.14649,1.30274 2.49208,0 4.44769,-1.95647 4.44726,-4.44727 v -2.5 c 2.5e-4,-1.68588 1.36686,-3.05249 3.05274,-3.05273 h 14.99804 c 1.68588,2.4e-4 3.05249,1.36685 3.05274,3.05273 v 2.49805 c 9.7e-4,1.24585 0.49614,2.33989 1.30273,3.14648 0.80778,0.80778 1.90015,1.30274 3.14649,1.30274 2.49207,0 4.44574,-1.95552 4.44531,-4.44727 v -2.5 c 2.5e-4,-1.68588 1.36686,-3.05248 3.05273,-3.05273 h 50 c 1.68588,2.4e-4 3.05249,1.36685 3.05274,3.05273 v 2.49805 c 9.7e-4,1.24585 0.49614,2.33989 1.30273,3.14648 0.80778,0.80777 1.90017,1.30274 3.14649,1.30274 2.49207,0 4.44573,-1.95551 4.44531,-4.44727 v -2.5 c 2.5e-4,-1.68588 1.36686,-3.05248 3.05273,-3.05273 h 18.5 c 1.68588,2.4e-4 3.05249,1.36685 3.05274,3.05273 v 2.49805 0.002 c 0,1.24583 0.49513,2.33693 1.30273,3.14453 0.80778,0.80777 1.90017,1.30274 3.14649,1.30274 2.49303,0 4.44573,-1.95354 4.44531,-4.44532 v -2.50208 c 2.5e-4,-1.68588 1.36686,-3.05248 3.05273,-3.05273 h 22.5 c 0.1526,0 0.31117,-0.009 0.46875,-0.0254 -0.004,5.3e-4 0.01,-4.5e-4 0.006,0 -0.0936,0.0109 -0.0467,0.002 0.13672,-0.0234 l 0.006,-0.002 c 0.14918,-0.0209 0.26779,-0.0407 0.35547,-0.0605 -0.0231,0.005 0.0233,-0.007 0.13867,-0.0371 h 0.002 c 0.11376,-0.0292 0.21715,-0.0597 0.31836,-0.0937 l 0.004,-0.002 c 0.073,-0.0258 0.11923,-0.0421 0.13672,-0.0488 0.003,-0.001 0.007,-0.003 0.01,-0.004 0.10974,-0.0418 0.22087,-0.087 0.32812,-0.14062 l 0.004,-0.002 c 0.24272,-0.12136 0.26459,-0.12592 0.0684,-0.0273 0.002,-6.7e-4 0.004,-0.001 0.006,-0.002 l 30,-15 c 1.51246,-0.75645 2.45898,1.61054 2.45898,-0.0803 v -3.60418 c 2.5e-4,-1.68587 1.36686,-3.05248 3.05273,-3.05273 l 62.4668,0.002 c 2.4875,0 4.44531,-1.95724 4.44531,-4.44922 -4.2e-4,-2.49439 -1.95414,-4.44769 -4.44726,-4.44727 h -62.4668 c -1.68628,3.5e-4 -3.05354,-1.36642 -3.0538,-3.05271 v -3.60909 c 0,-1.69081 -0.94381,0.67946 -2.45899,-0.08 h -0.002 l -29.99609,-15 c -0.006,-0.003 -0.0117,-0.005 -0.0176,-0.008 0.30552,0.15524 0.28749,0.14487 -0.0625,-0.0215 -0.004,-0.002 -0.008,-0.004 -0.0117,-0.006 -0.0992,-0.0477 -0.20487,-0.0923 -0.31641,-0.13477 -0.007,-0.003 -0.0144,-0.007 -0.0215,-0.01 -0.0424,-0.0165 -0.0759,-0.0275 -0.10938,-0.0391 -0.0965,-0.033 -0.20428,-0.0668 -0.32422,-0.0976 l -0.0156,-0.004 c -0.12097,-0.031 -0.18104,-0.0474 -0.14453,-0.0391 h -0.004 c -0.0848,-0.0183 -0.20078,-0.038 -0.36133,-0.0606 h -0.002 c -0.18557,-0.0259 -0.22518,-0.0311 -0.10156,-0.0176 h -0.006 c -0.18514,-0.0206 -0.34406,-0.0312 -0.49219,-0.0312 h -126 c -1.68664,-2.5e-4 -3.05356,-1.36805 -3.05273,-3.05468 l 0.002,-2.49733 c 0,-2.49277 -1.95322,-4.44684 -4.44727,-4.44727 -2.49301,0 -4.44769,1.95453 -4.44726,4.44532 v 2.50195 c -2.5e-4,1.68587 -1.36686,3.05248 -3.05274,3.05273 l -15,-0.002 c -1.68587,-2.5e-4 -3.05248,-1.36686 -3.05273,-3.05273 v -2.5 c -4.1e-4,-2.49403 -1.9545,-4.44727 -4.44727,-4.44727 -2.49205,0 -4.44768,1.95646 -4.44726,4.44727 v 2.5 c -2.5e-4,1.68587 -1.36686,3.05248 -3.05274,3.05273 h -15 c -1.68587,-2.5e-4 -3.05248,-1.36686 -3.05273,-3.05273 v -2.5 c 0,-2.49305 -1.9545,-4.4477 -4.44531,-4.44727 -2.49207,0 -4.44769,1.95646 -4.44727,4.44727 v 2.5 c -2.5e-4,1.68587 -1.36686,3.05248 -3.05273,3.05273 h -15 c -1.68588,-2.5e-4 -3.05249,-1.36686 -3.05274,-3.05273 v -2.5 c 0,-2.49209 -1.95645,-4.4477 -4.44726,-4.44727 -2.49207,0 -4.44769,1.95646 -4.44727,4.44727 v 2.5 c -2.5e-4,1.68587 -1.36686,3.05248 -3.05273,3.05273 h -15 c -1.68588,-2.5e-4 -3.05249,-1.36686 -3.05274,-3.05273 v -2.5 c 0,-2.49208 -1.95647,-4.4477 -4.44726,-4.44727 -2.49207,0 -4.44769,1.95645 -4.44727,4.44727 v 2.5 c -2.5e-4,1.68587 -1.36686,3.05248 -3.05273,3.05273 l -132.125004,0.006 c -0.101759,-1.2e-4 -0.203449,-0.005 -0.304687,-0.0156 l -92.875,-9.28711 c -1.559915,-0.15668 -2.747645,-1.46934 -2.748047,-3.03711 V 177.533 c 0,-3.5768 -2.350464,-4.44776 -4.447004,-4.44786 z"
   id="path1-0"
   sodipodi:insensitive="true" />
<path
   id="path7"
   d="m -45.120992,173.08516 c -1.048231,-5e-5 -4.447478,3.20187 -4.447265,4.44727 2.13e-4,1.24541 -5.48e-4,-4.05635 0,10.01367 5.48e-4,14.07002 0.0058,73.78429 0.0058,74.40646 4.9e-5,0.62218 0.494818,2.33661 1.302734,3.14453 0.807916,0.80792 2.519611,1.30078 3.142578,1.30078 l 0.002,0 c 1.246516,0 4.447479,-3.19991 4.447266,-4.44531 -2.13e-4,-1.24539 -2.02e-4,-2.42901 0,-3.21289 2.01e-4,-0.78388 1.590632,-3.90623 4.859188,-4.64472 49.560084,-11.19748 90.713239,-7.67435 90.763859,-7.6795 0.05062,-0.005 0.253807,-0.0155 0.304687,-0.0156 0.05088,-5e-5 42.125005,0 42.125005,0 1.685877,2.5e-4 3.05249,1.36686 3.05273,3.05274 v 2.5 c 0,1.24627 0.49377,2.33752 1.30078,3.14453 0.80776,0.80776 1.9005,1.30273 3.14454,1.30273 l 0.002,0 c 2.49207,0 4.44574,-1.9555 4.44531,-4.44726 v -2.5 c 2.4e-4,-1.68588 1.36686,-3.0525 3.05274,-3.05274 h 15.00195 c 1.68588,2.5e-4 3.05249,1.36686 3.05273,3.05274 l 0,2.5 0,0.002 c 0,1.24594 0.49302,2.33482 1.30078,3.14258 0.80882,0.80881 1.89855,1.30273 3.14258,1.30273 l 0.002,0 c 2.49209,0 4.4477,-1.95646 4.44727,-4.44726 v -2.5 c 2.4e-4,-1.68588 1.36685,-3.05249 3.05273,-3.05274 l 139.99422,-0.009 c 1.68588,2.4e-4 3.0525,1.36686 3.05274,3.05274 v 2.49804 c 4.2e-4,1.24666 0.4957,2.34141 1.30273,3.14844 0.80776,0.80776 1.90017,1.30274 3.14649,1.30274 2.49208,0 4.44769,-1.95647 4.44726,-4.44727 l 0,-2.5 c 2.5e-4,-1.68588 1.36686,-3.05249 3.05274,-3.05273 l 14.99804,0 c 1.68588,2.4e-4 3.05249,1.36685 3.05274,3.05273 v 2.49805 c 9.7e-4,1.24585 0.49614,2.33989 1.30273,3.14648 0.80778,0.80778 1.90015,1.30274 3.14649,1.30274 2.49207,0 4.44574,-1.95552 4.44531,-4.44727 v -2.5 c 2.5e-4,-1.68588 1.36686,-3.05248 3.05273,-3.05273 l 50,0 c 1.68588,2.4e-4 3.05249,1.36685 3.05274,3.05273 l 0,2.49805 c 9.7e-4,1.24585 0.49614,2.33989 1.30273,3.14648 0.80778,0.80777 1.90017,1.30274 3.14649,1.30274 2.49207,0 4.44573,-1.95551 4.44531,-4.44727 l 0,-2.5 c 2.5e-4,-1.68588 1.36686,-3.05248 3.05273,-3.05273 l 18.5,0 c 1.68588,2.4e-4 3.05249,1.36685 3.05274,3.05273 l 0,2.49805 v 0.002 c 0,1.24583 0.49513,2.33693 1.30273,3.14453 0.80778,0.80777 1.90017,1.30274 3.14649,1.30274 2.49303,0 4.44573,-1.95354 4.44531,-4.44532 l 0,-2.50208 c 2.5e-4,-1.68588 1.36686,-3.05248 3.05273,-3.05273 h 22.5 c 0.1526,0 0.31117,-0.009 0.46875,-0.0254 -0.004,5.3e-4 0.01,-4.5e-4 0.006,0 -0.0936,0.0109 -0.0467,0.002 0.13672,-0.0234 l 0.006,-0.002 c 0.14918,-0.0209 0.26779,-0.0407 0.35547,-0.0605 -0.0231,0.005 0.0233,-0.007 0.13867,-0.0371 l 0.002,0 c 0.11376,-0.0292 0.21715,-0.0597 0.31836,-0.0937 l 0.004,-0.002 c 0.073,-0.0258 0.11923,-0.0421 0.13672,-0.0488 0.003,-0.001 0.007,-0.003 0.01,-0.004 0.10974,-0.0418 0.22087,-0.087 0.32812,-0.14062 l 0.004,-0.002 c 0.24272,-0.12136 0.26459,-0.12592 0.0684,-0.0273 0.002,-6.7e-4 0.004,-0.001 0.006,-0.002 l 30,-15 c 1.51246,-0.75645 2.45898,1.61054 2.45898,-0.0803 l 0,-3.60418 c 2.5e-4,-1.68587 1.36686,-3.05248 3.05273,-3.05273 l 62.4668,0.002 c 2.4875,0 4.44531,-1.95724 4.44531,-4.44922 -4.2e-4,-2.49439 -1.95414,-4.44769 -4.44726,-4.44727 l -62.4668,0 c -1.68628,3.5e-4 -3.05354,-1.36642 -3.0538,-3.05271 v -3.60909 c 0,-1.69081 -0.94381,0.67946 -2.45899,-0.08 l -0.002,0 -29.99609,-15 c -0.006,-0.003 -0.0117,-0.005 -0.0176,-0.008 0.30552,0.15524 0.28749,0.14487 -0.0625,-0.0215 -0.004,-0.002 -0.008,-0.004 -0.0117,-0.006 -0.0992,-0.0477 -0.20487,-0.0923 -0.31641,-0.13477 -0.007,-0.003 -0.0144,-0.007 -0.0215,-0.01 -0.0424,-0.0165 -0.0759,-0.0275 -0.10938,-0.0391 -0.0965,-0.033 -0.20428,-0.0668 -0.32422,-0.0976 l -0.0156,-0.004 c -0.12097,-0.031 -0.18104,-0.0474 -0.14453,-0.0391 h -0.004 c -0.0848,-0.0183 -0.20078,-0.038 -0.36133,-0.0606 h -0.002 c -0.18557,-0.0259 -0.22518,-0.0311 -0.10156,-0.0176 l -0.006,0 c -0.18514,-0.0206 -0.34406,-0.0312 -0.49219,-0.0312 h -126 c -1.68664,-2.5e-4 -3.05356,-1.36805 -3.05273,-3.05468 l 0.002,-2.49733 c 0,-2.49277 -1.95322,-4.44684 -4.44727,-4.44727 -2.49301,0 -4.44769,1.95453 -4.44726,4.44532 v 2.50195 c -2.5e-4,1.68587 -1.36686,3.05248 -3.05274,3.05273 l -15,-0.002 c -1.68587,-2.5e-4 -3.05248,-1.36686 -3.05273,-3.05273 l 0,-2.5 c -4.1e-4,-2.49403 -1.9545,-4.44727 -4.44727,-4.44727 -2.49205,0 -4.44768,1.95646 -4.44726,4.44727 v 2.5 c -2.5e-4,1.68587 -1.36686,3.05248 -3.05274,3.05273 h -15 c -1.68587,-2.5e-4 -3.05248,-1.36686 -3.05273,-3.05273 l 0,-2.5 c 0,-2.49305 -1.9545,-4.4477 -4.44531,-4.44727 -2.49207,0 -4.44769,1.95646 -4.44727,4.44727 v 2.5 c -2.5e-4,1.68587 -1.36686,3.05248 -3.05273,3.05273 h -15 c -1.68588,-2.5e-4 -3.05249,-1.36686 -3.05274,-3.05273 v -2.5 c 0,-2.49209 -1.95645,-4.4477 -4.44726,-4.44727 -2.49207,0 -4.44769,1.95646 -4.44727,4.44727 l 0,2.5 c -2.5e-4,1.68587 -1.36686,3.05248 -3.05273,3.05273 l -15,0 c -1.68588,-2.5e-4 -3.05249,-1.36686 -3.05274,-3.05273 v -2.5 c 0,-2.49208 -1.95647,-4.4477 -4.44726,-4.44727 -2.49207,0 -4.44769,1.95645 -4.44727,4.44727 l 0,2.5 c -2.5e-4,1.68587 -1.36686,3.05248 -3.05273,3.05273 0,0 -132.074125,0.006 -132.125004,0.006 -0.05088,-6e-5 -0.254068,-0.0103 -0.304687,-0.0156 -0.05062,-0.005 -38.750524,3.10959 -92.875,-9.28711 -0.764096,-0.17501 -2.747846,-2.25323 -2.748047,-3.03711 -2.01e-4,-0.78388 0,-1.42449 0,-3.21289 0,-1.7884 -3.398734,-4.44781 -4.447004,-4.44786 -1.04827,-5e-5 1.048231,7e-5 0,2e-5 z m 7.798828,19.69922 c 57.627486,8.04886 84.221996,8.42166 85.001953,8.5 0.779957,0.0783 2.747845,2.25323 2.748047,3.03711 2.01e-4,0.78388 0.006,30.06203 0.0058,30.84591 -2.01e-4,0.78388 -1.96809,2.95877 -2.748047,3.03711 -0.779957,0.0783 -37.270692,-1.30615 -85.001953,8.5 -0.884602,0.18174 -3.357164,-2.13403 -3.357422,-3.03711 -2.59e-4,-0.90308 -0.0061,-46.94283 -0.0058,-47.84591 2.58e-4,-0.90307 2.463025,-3.16203 3.357422,-3.03711 z m 99.695313,9.19727 c 494.930841,-3.46287 128.688771,-5.31496 128.688771,-5.31496 1.68587,2.5e-4 -0.63629,6.67581 -0.63604,8.36169 v 7.21059 c -2.5e-4,1.68588 -1.36686,3.05248 -3.05273,3.05273 l -102.500001,0 c -2.492069,0 -4.447479,2.5797 -4.447266,4.44727 2.13e-4,1.86757 0.494299,2.33609 1.302734,3.14453 0.808435,0.80844 1.898571,1.30274 3.142579,1.30274 l 0.002,0 12.500004,0 c 1.685873,2.5e-4 3.05248,1.36686 3.05273,3.05273 l 0.006,7.2152 c -2.5e-4,1.68587 -1.366854,3.05248 -3.052728,3.05273 0,0 -34.157333,1.2e-4 -35.000271,0 -0.842937,-1.2e-4 -3.052611,-2.20979 -3.052735,-3.05273 -1.24e-4,-0.84294 -0.0059,-28.57719 -0.0058,-29.42013 1.24e-4,-0.84293 2.209797,-3.0526 3.052735,-3.05273 0.842938,-1.2e-4 -20.832864,0.1461 1.8e-5,3.4e-4 z m 140.001951,-0.002 h 15 c 1.68588,2.4e-4 3.05249,1.36685 3.05274,3.05273 v 7.21059 c -2.5e-4,1.68588 -1.36686,3.05249 -3.05274,3.05273 l -15,0 c -1.68587,-2.5e-4 -3.05248,-1.36686 -3.05273,-3.05273 v -7.21059 c 2.5e-4,-1.68588 1.36686,-3.05249 3.05273,-3.05273 z m 30,0 h 15 c 1.68588,2.4e-4 3.05249,1.36685 3.05274,3.05273 l 0,7.21059 c -2.5e-4,1.68588 -1.36686,3.05249 -3.05274,3.05273 h -15 c -1.68587,-2.5e-4 -3.05248,-1.36686 -3.05273,-3.05273 v -7.21059 c 2.5e-4,-1.68588 1.36686,-3.05249 3.05273,-3.05273 z m 30,-0.004 14.99805,0 c 1.68587,2.5e-4 3.05248,1.36685 3.05273,3.05273 v 14.70864 c 0,1.24668 0.49468,2.33842 1.30274,3.14648 0.80777,0.80777 1.90016,1.30274 3.14648,1.30274 2.49207,0 4.44574,-1.95552 4.44531,-4.44727 l 0,-14.71059 c 2.5e-4,-1.68588 1.36686,-3.05249 3.05274,-3.05273 l 15.00195,0 c 1.68588,2.4e-4 3.05274,1.36685 3.05274,3.05273 l 0,14.71059 c 0,1.24702 0.49396,2.33771 1.30273,3.14648 0.80882,0.80882 1.8982,1.30274 3.14453,1.30274 2.49207,0 4.44769,-1.95646 4.44727,-4.44727 v -14.71059 c 2.5e-4,-1.68588 1.36686,-3.05248 3.05273,-3.05273 l 118.5,0 c 1.68588,2.4e-4 3.05249,1.36685 3.05274,3.05273 v 7.20864 c -2.5e-4,1.68588 -1.36686,3.05249 -3.05274,3.05273 l -86,0 c -2.49207,0 -4.44769,1.95648 -4.44726,4.44727 9.6e-4,1.24583 0.49614,2.33989 1.30273,3.14648 0.80674,0.80674 1.89824,1.30079 3.14648,1.30079 l 22.49805,0 c 1.68588,2.5e-4 3.05249,1.36686 3.05274,3.05273 v 7.20592 c -2.5e-4,1.68588 -1.36686,3.05249 -3.05274,3.05273 l -57.49219,0 -30.00781,0 -147.49617,0.009 c -1.68588,-2.4e-4 -3.05249,-1.36685 -3.05274,-3.05273 l -0.006,-7.2152 c 2.5e-4,-1.68587 1.36686,-3.05248 3.05274,-3.05273 h 82.5 l 30.00195,0 c 2.49207,0 4.44769,-1.95648 4.44727,-4.44727 l 0,-14.71059 c 2.5e-4,-1.68588 1.36686,-3.05248 3.05273,-3.05273 z m 211.55074,17.76685 c -0.22124,8.72512 -16.6875,12.80162 -16.6875,12.80162 -2.02975,1.01428 -4.41746,-0.46141 -4.41797,-2.73047 v -24.04352 c 11.01605,-0.53226 21.32671,5.24725 21.10547,13.97237 z m -361.55074,4.44408 15,0 c 1.68588,2.5e-4 3.05249,1.36686 3.05274,3.05273 l 0.006,7.2152 c -2.5e-4,1.68588 -1.36686,3.05249 -3.05274,3.05273 l -15,0 c -1.68587,-2.5e-4 -3.05248,-1.36686 -3.05273,-3.05273 l -0.006,-7.2152 c 2.5e-4,-1.68587 1.36686,-3.05248 3.05273,-3.05273 z m 280,0.004 18.49805,0 c 1.68587,2.5e-4 3.05248,1.36686 3.05273,3.05273 l 0,7.20592 c -2.5e-4,1.68587 -1.36686,3.05248 -3.05273,3.05273 l -18.49805,0 c -1.68587,-2.5e-4 -3.05248,-1.36686 -3.05273,-3.05273 l 0,-7.20592 c 2.5e-4,-1.68587 1.36686,-3.05248 3.05273,-3.05273 z m 33.5,0 14.99805,0 c 1.68587,2.5e-4 3.05248,1.36686 3.05273,3.05273 l 0,7.20592 c -2.5e-4,1.68587 -1.36686,3.05248 -3.05273,3.05273 H 425.8751 c -1.68587,-2.5e-4 -3.05248,-1.36686 -3.05273,-3.05273 v -7.20592 c 2.5e-4,-1.68587 1.36686,-3.05248 3.05273,-3.05273 z"
   style="display:inline;stroke-width:2.48437"
   sodipodi:nodetypes="ssssssssssssccssssccccccssssccccccssccccccssccccccssccccccssscccscccccccccscsscccscccccccsccccsccccssccccccsccccccccccscccccsccccccsccccccsccccssssssssssssssssscccscssccccccsssssccccccccccccccccccccsscccccssscccccccscsscccccccccccscccccczccczccccccccccccccccccccccccccc"
   sodipodi:insensitive="true" /></g></svg>
