<svg xmlns="http://www.w3.org/2000/svg" xml:space="preserve" width="100" height="100">
    <path d="m59.982 31.788 7.202 15.615-23.468-15.835" style="display:inline;fill:none;stroke:#000;stroke-width:3;stroke-linecap:round;stroke-linejoin:round;stroke-miterlimit:4.7;stroke-dasharray:none;stroke-opacity:1"/>
    <path d="m26.54 32.18 19.718 14.997 13.489-15.625" style="display:inline;fill:none;stroke:#000;stroke-width:3.00001;stroke-linecap:round;stroke-linejoin:round;stroke-miterlimit:4.7;stroke-dasharray:none;stroke-opacity:1"/>
    <g style="display:inline;stroke-width:1.83867;stroke-dasharray:none">
        <path d="m44.242 23.499 1.19 18.313" style="fill:none;stroke:#000;stroke-width:1.83867;stroke-linecap:round;stroke-linejoin:round;stroke-miterlimit:4.7;stroke-dasharray:none;stroke-opacity:1" transform="matrix(1.63742 0 0 1.62584 -12.934 -6.417)"/>
        <path d="m56.195 62.957-3.126-1.19-.659-11.799-6.833-8.597-7.078 10.188.284 11.298-4.043.87" style="display:inline;fill:none;stroke:#000;stroke-width:1.83867;stroke-linecap:round;stroke-linejoin:round;stroke-miterlimit:4.7;stroke-dasharray:none;stroke-opacity:1" transform="matrix(1.63742 0 0 1.62584 -12.934 -6.417)"/>
    </g>
    <g style="fill:#fff" transform="rotate(-10.947 50.175 -19.273)">
        <rect width="57.978" height="1.468" x=".973" y="27.876" rx=".502" ry=".381" style="fill:#fff;fill-opacity:1;stroke:#000;stroke-width:.999999;stroke-linecap:round;stroke-linejoin:round;stroke-miterlimit:4.7;stroke-dasharray:none"/>
        <ellipse cx="11.971" cy="27.768" rx="1.339" ry="1.004" style="fill:#fff;fill-opacity:1;stroke:#000;stroke-width:1;stroke-linecap:round;stroke-linejoin:round;stroke-miterlimit:4.7;stroke-dasharray:none"/>
        <ellipse cx="49.605" cy="27.82" rx="2.38" ry="1.521" style="fill:#fff;fill-opacity:1;stroke:#000;stroke-width:.999998;stroke-linecap:round;stroke-linejoin:round;stroke-miterlimit:4.7;stroke-dasharray:none"/>
        <ellipse cx="17.971" cy="27.768" rx="1.339" ry="1.004" style="fill:#fff;fill-opacity:1;stroke:#000;stroke-width:1;stroke-linecap:round;stroke-linejoin:round;stroke-miterlimit:4.7;stroke-dasharray:none"/>
        <ellipse cx="23.971" cy="27.768" rx="1.339" ry="1.004" style="fill:#fff;fill-opacity:1;stroke:#000;stroke-width:1;stroke-linecap:round;stroke-linejoin:round;stroke-miterlimit:4.7;stroke-dasharray:none"/>
        <ellipse cx="29.971" cy="27.768" rx="1.339" ry="1.004" style="fill:#fff;fill-opacity:1;stroke:#000;stroke-width:1;stroke-linecap:round;stroke-linejoin:round;stroke-miterlimit:4.7;stroke-dasharray:none"/>
        <ellipse cx="49.574" cy="27.823" rx=".489" ry=".086" style="fill:#fff;fill-opacity:1;stroke:#000;stroke-width:.999998;stroke-linecap:round;stroke-linejoin:round;stroke-miterlimit:4.7;stroke-dasharray:none"/>
    </g>
    <g transform="matrix(.99434 -.13816 .13763 .99048 -4.182 9.41)">
        <circle cx="59.374" cy="13.715" r="7.5" style="fill:#fff;stroke:#000;stroke-width:2;stroke-linecap:round;stroke-linejoin:round;stroke-miterlimit:5;stroke-dasharray:none;stroke-opacity:1"/>
        <path d="M50.363 25.43c5.629-4.942-2.606-6.25-.286-14.756 1.675-6.141 5.258-7.627 9.253-7.647 3.772-.018 7.491 1.33 8.805 7.134 1.932 6.163-5.105 13.916 1.073 14.67-8.698.702-6.337-3.723-6.484-5.047 6.223-3.856 4.058-6.465 2.576-10.44-1.36.308-11.563-.641-11.563-.641-2.157 3.8-2.71 9.82 1.875 11.262 0 0 4.018 6.083-5.25 5.465" style="fill:#000;fill-opacity:1;stroke:none;stroke-width:2;stroke-linecap:round;stroke-linejoin:round;stroke-miterlimit:5;stroke-dasharray:none;stroke-opacity:1"/>
    </g>
</svg>
