<svg xmlns="http://www.w3.org/2000/svg" xml:space="preserve" width="45" height="95">
    <path d="m20.161 26.93 20.986 15.448-16.912.302" style="display:inline;fill:none;stroke:#000;stroke-width:3;stroke-linecap:round;stroke-linejoin:round;stroke-miterlimit:4.7;stroke-dasharray:none;stroke-opacity:1"/>
    <g style="display:inline;stroke-width:1.83867;stroke-dasharray:none">
        <path d="m44.242 23.499 1.19 18.313" style="fill:none;stroke:#000;stroke-width:1.83867;stroke-linecap:round;stroke-linejoin:round;stroke-miterlimit:4.7;stroke-dasharray:none;stroke-opacity:1" transform="matrix(1.63742 0 0 1.62584 -52.755 -11.274)"/>
        <path d="m56.195 62.957-3.126-1.19-.562-10.43-6.93-9.966-7.078 10.188.284 11.298-4.043.87" style="display:inline;fill:none;stroke:#000;stroke-width:1.83867;stroke-linecap:round;stroke-linejoin:round;stroke-miterlimit:4.7;stroke-dasharray:none;stroke-opacity:1" transform="matrix(1.63742 0 0 1.62584 -52.755 -11.274)"/>
    </g>
    <ellipse cx="17.822" cy="14.294" rx="7.867" ry="8.062" style="display:inline;fill:#fff;stroke:#000;stroke-width:2.5;stroke-linecap:round;stroke-linejoin:round;stroke-miterlimit:4.7;stroke-dasharray:none"/>
    <g style="display:inline;stroke-width:1.02792" transform="matrix(.9502 0 0 .99601 -24.815 -4.881)">
        <ellipse cx="33.309" cy="19.04" rx=".432" ry="2.398" style="fill:#fff;stroke:#000;stroke-width:2.56981;stroke-linecap:round;stroke-linejoin:round;stroke-miterlimit:4.7;stroke-dasharray:none"/>
        <ellipse cx="56.448" cy="18.476" rx=".432" ry="2.398" style="fill:#fff;stroke:#000;stroke-width:2.56981;stroke-linecap:round;stroke-linejoin:round;stroke-miterlimit:4.7;stroke-dasharray:none"/>
        <path d="M33.533 18.164c-.506-5.91 5.102-10.741 11.396-10.741 6.293 0 11.735 4.818 11.395 10.74" style="fill:none;stroke:#000;stroke-width:1.02792;stroke-linecap:round;stroke-linejoin:round;stroke-miterlimit:4.7"/>
    </g>
    <rect width="39.993" height="21.488" x="2.196" y="46.299" rx="1" ry="1" style="fill:#fff;stroke:none;stroke-width:.999996;stroke-linecap:round;stroke-linejoin:round;stroke-miterlimit:4.7;stroke-dasharray:none"/>
    <path d="M41.463 68.39H3.56c-.86 0-1.56-.7-1.56-1.56v-19.7c0-.86.7-1.56 1.56-1.56h37.903c.86 0 1.56.7 1.56 1.56v19.7c0 .86-.7 1.56-1.56 1.56m-14.493-.74h14.493a.82.82 0 0 0 .82-.82v-19.7a.82.82 0 0 0-.82-.82H26.97Zm-8.175 0h7.434V46.31h-7.434zM3.56 46.31a.82.82 0 0 0-.82.82v19.7c0 .45.368.82.82.82h14.495V46.31zm21.226 20.767h-4.548a.37.37 0 0 1-.37-.37V63.9a.37.37 0 0 1 .37-.37h4.548a.37.37 0 0 1 .37.37v2.806a.37.37 0 0 1-.37.37m-4.178-.74h3.807V64.27h-3.807zm18.957.397a.37.37 0 0 1-.37-.37v-1.387a.942.942 0 0 1 0-1.73v-.942a.37.37 0 0 1 .741 0v.942a.942.942 0 0 1 0 1.73v1.387a.37.37 0 0 1-.37.37m0-2.822a.2.2 0 1 0 0 .4.2.2 0 0 0 0-.4m-2.295 2.822h-1.96a.37.37 0 0 1-.37-.37v-1.437a.37.37 0 0 1 .37-.37h1.96a.37.37 0 0 1 .37.37v1.437a.37.37 0 0 1-.37.37m-1.589-.74h1.219v-.696h-1.219zm-1.636.74h-1.96a.37.37 0 0 1-.37-.37v-1.437a.37.37 0 0 1 .37-.37h1.96a.37.37 0 0 1 .37.37v1.437a.37.37 0 0 1-.37.37m-1.589-.74h1.218v-.696h-1.218zm-1.636.74h-1.96a.37.37 0 0 1-.37-.37v-1.437a.37.37 0 0 1 .37-.37h1.96a.37.37 0 0 1 .37.37v1.437a.37.37 0 0 1-.37.37m-1.59-.74h1.219v-.696h-1.218zm-14.264.74a.37.37 0 0 1-.37-.37v-.942a.943.943 0 0 1 0-1.73v-1.387a.37.37 0 0 1 .741 0v1.387a.942.942 0 0 1 0 1.73v.942a.37.37 0 0 1-.37.37m0-2.377a.2.2 0 1 0 0 .4.2.2 0 0 0 0-.4m-2.238 2.377h-1.959a.37.37 0 0 1-.37-.37v-1.437a.37.37 0 0 1 .37-.37h1.96a.37.37 0 0 1 .37.37v1.437a.37.37 0 0 1-.37.37m-1.589-.74h1.219v-.696h-1.219zm-1.636.74h-1.96a.37.37 0 0 1-.37-.37v-1.437a.37.37 0 0 1 .37-.37h1.96a.37.37 0 0 1 .37.37v1.437a.37.37 0 0 1-.37.37m-1.589-.74h1.219v-.696H7.917Zm-1.636.74h-1.96a.37.37 0 0 1-.37-.37v-1.437a.37.37 0 0 1 .37-.37h1.96a.37.37 0 0 1 .37.37v1.437a.37.37 0 0 1-.37.37m-1.59-.74h1.22v-.696h-1.22zm32.582-1.882h-1.96a.37.37 0 0 1-.37-.37v-1.437a.37.37 0 0 1 .37-.37h1.96a.37.37 0 0 1 .37.37v1.436a.37.37 0 0 1-.37.37m-1.589-.741h1.219v-.696h-1.219zm-1.636.74h-1.96a.37.37 0 0 1-.37-.37v-1.436a.37.37 0 0 1 .37-.37h1.96a.37.37 0 0 1 .37.37v1.436a.37.37 0 0 1-.37.37m-1.589-.74h1.218v-.696h-1.218zm-1.636.74h-1.96a.37.37 0 0 1-.37-.37v-1.436a.37.37 0 0 1 .37-.37h1.96a.37.37 0 0 1 .37.37v1.436a.37.37 0 0 1-.37.37m-1.59-.74h1.219v-.696h-1.218zm-16.502.74h-1.959a.37.37 0 0 1-.37-.37v-1.436a.37.37 0 0 1 .37-.37h1.96a.37.37 0 0 1 .37.37v1.436a.37.37 0 0 1-.37.37m-1.589-.74h1.219v-.696h-1.219zm-1.636.74h-1.96a.37.37 0 0 1-.37-.37v-1.436a.37.37 0 0 1 .37-.37h1.96a.37.37 0 0 1 .37.37v1.436a.37.37 0 0 1-.37.37m-1.589-.74h1.219v-.696H7.918Zm-1.636.74h-1.96a.37.37 0 0 1-.37-.37v-1.436a.37.37 0 0 1 .37-.37h1.96a.37.37 0 0 1 .37.37v1.436a.37.37 0 0 1-.37.37m-1.59-.74h1.22v-.696h-1.22zm20.098-.696a.37.37 0 0 1-.37-.37v-.46a.943.943 0 0 1 0-1.73v-1.87a.37.37 0 0 1 .74 0v1.87a.942.942 0 0 1 0 1.73v.46a.37.37 0 0 1-.37.37m0-1.895a.2.2 0 1 0 0 .4.2.2 0 0 0 0-.4m-2.274 1.895a.37.37 0 0 1-.37-.37v-1.387a.942.942 0 0 1 0-1.73v-.942a.37.37 0 0 1 .74 0v.942a.942.942 0 0 1 0 1.73v1.387a.37.37 0 0 1-.37.37m0-2.822a.2.2 0 1 0 0 .4.2.2 0 0 0 0-.4m-2.275 2.822a.37.37 0 0 1-.37-.37v-.942a.942.942 0 0 1 0-1.73v-1.387a.37.37 0 0 1 .741 0v1.387a.942.942 0 0 1 0 1.73v.942a.37.37 0 0 1-.37.37m0-2.377a.2.2 0 1 0 0 .4.2.2 0 0 0 0-.4m14.379.56a6.733 6.733 0 0 1-6.726-6.725 6.733 6.733 0 0 1 6.726-6.725 6.733 6.733 0 0 1 6.725 6.725 6.733 6.733 0 0 1-6.725 6.726m0-12.71a5.99 5.99 0 0 0-5.985 5.985c0 3.3 2.685 5.985 5.985 5.985s5.984-2.685 5.984-5.985a5.99 5.99 0 0 0-5.984-5.984m-24.3 12.71a6.733 6.733 0 0 1-6.726-6.726 6.733 6.733 0 0 1 6.725-6.725 6.733 6.733 0 0 1 6.725 6.725 6.733 6.733 0 0 1-6.725 6.726m0-12.71a5.99 5.99 0 0 0-5.985 5.984c0 3.3 2.684 5.985 5.984 5.985s5.984-2.685 5.984-5.985a5.99 5.99 0 0 0-5.984-5.984m24.3 11.29a5.31 5.31 0 0 1-5.305-5.306 5.31 5.31 0 0 1 5.305-5.304.37.37 0 0 1 0 .74 4.57 4.57 0 0 0-4.564 4.564 4.57 4.57 0 0 0 4.564 4.564.37.37 0 0 1 0 .74m-24.3 0a5.31 5.31 0 0 1-5.306-5.305 5.31 5.31 0 0 1 5.305-5.304.37.37 0 0 1 0 .74 4.57 4.57 0 0 0-4.564 4.564 4.57 4.57 0 0 0 4.564 4.564.37.37 0 0 1 0 .74m14.47-2.654a.37.37 0 0 1-.37-.37v-2.2a.37.37 0 0 1 .74 0v2.2a.37.37 0 0 1-.37.37m-2.274 0a.37.37 0 0 1-.37-.37v-2.2a.37.37 0 0 1 .74 0v2.2a.37.37 0 0 1-.37.37m-2.275 0a.37.37 0 0 1-.37-.37v-2.2a.37.37 0 0 1 .741 0v2.2a.37.37 0 0 1-.37.37m14.379-.818a1.834 1.834 0 0 1-1.832-1.833c0-1.01.821-1.832 1.832-1.832 1.01 0 1.832.822 1.832 1.832s-.822 1.833-1.832 1.833m0-2.923a1.092 1.092 0 0 0 0 2.182 1.092 1.092 0 0 0 0-2.182m-24.3 2.923a1.834 1.834 0 0 1-1.833-1.833c0-1.01.822-1.832 1.832-1.832s1.832.822 1.832 1.832-.822 1.833-1.832 1.833m0-2.923a1.092 1.092 0 0 0 0 2.182 1.092 1.092 0 0 0 0-2.182m14.47-.063a.37.37 0 0 1-.37-.371v-.053a.37.37 0 0 1 .74 0v.053a.37.37 0 0 1-.37.37m-2.274 0a.37.37 0 0 1-.37-.371v-.053a.37.37 0 0 1 .74 0v.053a.37.37 0 0 1-.37.37m-2.275 0a.37.37 0 0 1-.37-.371v-.053a.37.37 0 0 1 .741 0v.053a.37.37 0 0 1-.37.37m4.549-1.68a.37.37 0 0 1-.37-.37v-.052a.37.37 0 0 1 .74 0v.053a.37.37 0 0 1-.37.37m-2.274 0a.37.37 0 0 1-.37-.37v-.053a.37.37 0 0 1 .74 0v.053a.37.37 0 0 1-.37.37m-2.275 0a.37.37 0 0 1-.37-.37v-.053a.37.37 0 0 1 .741 0v.053a.37.37 0 0 1-.37.37m4.549-1.678a.37.37 0 0 1-.37-.37v-.054a.37.37 0 0 1 .74 0v.053a.37.37 0 0 1-.37.37m-2.274 0a.37.37 0 0 1-.37-.37v-.053a.37.37 0 0 1 .74 0v.053a.37.37 0 0 1-.37.37m-2.275 0a.37.37 0 0 1-.37-.37v-.053a.37.37 0 0 1 .741 0v.053a.37.37 0 0 1-.37.37m4.549-1.677a.37.37 0 0 1-.37-.37v-.054a.37.37 0 0 1 .74 0v.053a.37.37 0 0 1-.37.37m-2.274 0a.37.37 0 0 1-.37-.37v-.054a.37.37 0 0 1 .74 0v.053a.37.37 0 0 1-.37.37m-2.275 0a.37.37 0 0 1-.37-.37v-.054a.37.37 0 0 1 .741 0v.053a.37.37 0 0 1-.37.37" style="stroke-width:.999998"/>
    <path d="m15.934 51.958-8.39-8.905 12.382-16.358" style="display:inline;fill:none;stroke:#000;stroke-width:3.00001;stroke-linecap:round;stroke-linejoin:round;stroke-miterlimit:4.7;stroke-dasharray:none;stroke-opacity:1"/>
    <path d="M18.1 15.784c-2.571-1.76-3.182 3.272-5.11 1.758.66 2.242 4.945.31 5.128-.143.18.473 4.422 2.343 4.985.12-1.913 1.5-2.878-3.665-5.003-1.734" style="fill:#000;fill-opacity:1;stroke:none;stroke-width:.874636;stroke-linecap:round;stroke-linejoin:round;stroke-miterlimit:5;stroke-dasharray:none"/>
</svg>
