<svg xmlns="http://www.w3.org/2000/svg" xml:space="preserve" width="55" height="100">
    <g style="display:inline;stroke-width:.963205">
        <path d="m58.77 28.7 1.062 18.7 16.204 1.725m4.375 34.65-7.34-.487 5.173-18.32-25.766-8.904-11.59 16.564.465 18.368-6.62 1.415m24.025-64.173L52.24 56.781" style="display:inline;fill:none;stroke:#000;stroke-width:2.88962;stroke-linecap:round;stroke-linejoin:round;stroke-miterlimit:4.7;stroke-dasharray:none;stroke-opacity:1" transform="matrix(1.03858 0 0 1.03782 -32.293 -.318)"/>
        <g style="display:inline;stroke-width:1.57863">
            <path d="M45.299 6.068q-.048.192-.1.381c-.062.217-.16.419-.26.621q-.165.331-.35.65a8 8 0 0 0-.288.526c-.052.1-.1.201-.153.3q-.03.063-.064.124c.25.074.451.128.549.12.72-.067 10.534 4.262 11.853 6.47.581.972.222 2.556.13 3.09-2.874 16.312-6.28 34.623-9.428 50.21-.078.202-.335.188-1.018-.052q-1.599-.561-2.135.545c-.612 1.263.08.856 1.586.728 4.144-.35-6.896 23.514 4.604 26.356 4.343.925 9.654.365 11.828-4.063 2.985-6.65 2.918-14.435 5.633-21.21 2.184-6.235 3.343-6.849 5.546-7.303.286.17 3.743 2.22 1.623-.4-2.194-2.715-11.02-10.244-12.24-10.296-1.234-.052.684 1.478.662 2.442-8.747 17.241-5.005 24.504-7.916 30.832-1.128 2.452-4.042 2.3-3.986-.149-.171-1.24 5.045-35.485 7.113-53.285.708-6.091 2.735-16.528 1.813-18.307-1.074-3.048-4.49-4.302-4.623-4.332-.252-.056-.277-.097-.221-.353.113-.515-.562-.808-.936-.406-.339.364-2.314-1.738-1.89-.05.088.35-.06.376-.66.11-6.418-2.843-2.709-1.344-5.84-2.65z" style="color:#000;display:inline;fill:#fff;fill-opacity:1;stroke-width:1.57863;-inkscape-stroke:none" transform="matrix(.56489 .28696 -.28717 .56448 22.151 12.51)"/>
            <path d="M35.359 3.11c-.06.033-1.078.636.582 2.048.55.468 1.213.89 2.086 1.395-.03.133-.077.243-.065.43.052.747 1.046 1.141 1.916 1.228l.028.002c.047.199.024.429.144.563.491.545 1.95 1.035 2.354.062-.018.012.001-.002.062-.008.122-.01.377.019.649.084 1.816.436 2.585.715 3.297 1.01 3.894 1.611 8.865 4.287 9.644 5.592.402.887.225 1.822.067 2.748-2.856 16.209-6.236 34.37-9.368 49.889-.102-.022-.19-.037-.42-.118-.589-.207-1.13-.282-1.623-.156-1.036.265-1.407 1.46-1.4 1.848.406 1.056 1.385.667 2.352.552.145-.012.155.004.205.055.858 5.66-2.87 13.43-1.118 20.557.675 2.744 2.303 4.978 5.354 5.732l.008.002h.008c1.867.398 9.467 1.605 12.38-4.33l.004-.008.004-.007c3.245-7.23 4.088-21.911 8.324-26.913.72-.85 1.378-1.063 2.356-1.273 1.245.744 2.09 1.088 2.564.771.554-.773 0-1.334-.51-2.02-1.283-1.588-11.466-11.387-13.206-10.36-1.034.609.638 2.03.72 2.76-4.327 8.58-5.6 14.748-6.123 19.517-.526 4.802-.335 8.144-1.726 11.168-.494 1.074-1.337 1.5-1.961 1.473a1.03 1.03 0 0 1-.756-.342c-.19-.214-.328-.546-.316-1.059l.002-.04-.006-.04c.011.085.002-.18.03-.494.03-.315.077-.75.141-1.293.13-1.085.328-2.594.577-4.424.497-3.66 1.198-8.613 1.968-14.084 1.541-10.941 3.361-23.952 4.397-32.863C59.335 29.74 60.02 25.605 60.5 22c.85-6.363.517-7.274.245-7.81-.592-1.634-1.776-2.772-2.825-3.5a10 10 0 0 0-1.402-.815 8 8 0 0 0-.613-.26l-.08-.025c-.038-.367-.153-.751-.455-.883a1.08 1.08 0 0 0-1.022.108c-.033-.014-.044-.015-.094-.041-.327-.173-.744-.484-1.142-.62-.151-.05-.333-.108-.58-.021-.416.1-.325.49-.438.742-3.052-1.353-3.802-1.722-4.039-1.85-.232-.125-.274-.157-1.668-.74-1.41-1.103-2.841-2.304-4.724-2.853-.907-.384-1.879-.275-2.838-.24-1.51.056-2.826-.44-3.467-.082m9.533 3.277.93.724c.198.15.929.348 1.758.795 1.67.716 3.388 1.632 5.06 2.131.074.022.61-.134.48-.771.33.258.725.39 1.094.562.167.038.466.04.672-.181.043-.046.064-.031.084-.022-.034.147-.107.34.057.604a.67.67 0 0 0 .305.254c.09.039.162.055.236.072-.063-.014-.021-.005.004.004l.113.04a9 9 0 0 1 1.666.912c.95.661 1.99 1.666 2.479 3.054l.01.033.017.031c.41.79.022 4.47-.348 7.24-.478 3.581-1.16 7.71-1.517 10.778-1.033 8.888-2.854 21.9-4.395 32.841-.77 5.47-1.471 10.423-1.969 14.088a304 304 0 0 0-.578 4.44q-.098.822-.144 1.322c-.028.306-.045.455-.024.664-.01.7.187 1.3.559 1.72.377.427.91.657 1.46.68 1.102.048 2.281-.676 2.915-2.054 1.52-3.304 1.295-6.757 1.812-11.479s1.746-10.766 6.094-19.336c.128-.73-.35-1.362-.726-1.966 1.288.605 9.458 7.222 11.629 10.128a26 26 0 0 1-1.18-.603c-.215-.13-2.044.058-3.375 1.629C65.605 69.99 64.7 84.94 61.6 91.86c-2.575 5.23-9.401 4.184-11.257 3.79-2.698-.666-4.002-2.48-4.62-5-1.622-6.593 1.796-15.295 1.306-20.046-.07-.368-.19-.7-.44-.961-.67-.48-1.396-.32-2.162-.225.65-.835 1.57-.427 2.451-.219a.84.84 0 0 0 .44-.082.75.75 0 0 0 .336-.377l.015-.039.008-.04c3.15-15.594 6.556-33.91 9.43-50.225.295-1.193.25-2.3-.191-3.432C55.659 12.902 48.523 9.715 46.794 9c-.694-.37-1.697-.613-2.267-.726-.985-.396-.083-.915.365-1.887" style="color:#000;fill:#000;stroke-width:1.57863;-inkscape-stroke:none" transform="matrix(.56489 .28696 -.28717 .56448 22.151 12.51)"/>
            <path d="M58.68 41.64a1.443 1.924 0 0 1-1.443 1.923 1.443 1.924 0 0 1-1.443-1.924 1.443 1.924 0 0 1 1.443-1.924 1.443 1.924 0 0 1 1.443 1.924m-.55 4.672a1.443 1.924 0 0 1-1.443 1.924 1.443 1.924 0 0 1-1.443-1.924 1.443 1.924 0 0 1 1.443-1.924 1.443 1.924 0 0 1 1.443 1.924m-.432 4.549a1.615 2.096 0 0 1-1.615 2.096 1.615 2.096 0 0 1-1.615-2.096 1.615 2.096 0 0 1 1.615-2.096 1.615 2.096 0 0 1 1.615 2.096m-.873 5.93a1.752 2.164 0 0 1-1.752 2.164 1.752 2.164 0 0 1-1.753-2.165 1.752 2.164 0 0 1 1.753-2.164 1.752 2.164 0 0 1 1.752 2.164m-.95 5.221a1.752 2.164 0 0 1-1.753 2.165 1.752 2.164 0 0 1-1.752-2.165 1.752 2.164 0 0 1 1.752-2.164 1.752 2.164 0 0 1 1.753 2.164m-.728 5.535a2.027 2.474 0 0 1-2.027 2.474 2.027 2.474 0 0 1-2.027-2.474 2.027 2.474 0 0 1 2.027-2.473 2.027 2.474 0 0 1 2.027 2.473m4.426-30.099a1.443 1.924 0 0 1-1.443 1.924 1.443 1.924 0 0 1-1.443-1.924 1.443 1.924 0 0 1 1.443-1.924 1.443 1.924 0 0 1 1.443 1.924m-5.36 36.383a2.267 2.577 0 0 1-2.267 2.577 2.267 2.577 0 0 1-2.267-2.577 2.267 2.577 0 0 1 2.267-2.577 2.267 2.577 0 0 1 2.268 2.577m-.618 6.047a2.542 3.126 0 0 1-2.542 3.126 2.542 3.126 0 0 1-2.542-3.126 2.542 3.126 0 0 1 2.542-3.127 2.542 3.126 0 0 1 2.542 3.127" style="fill:#fff;stroke:#000;stroke-width:1.14924;stroke-linecap:round;stroke-linejoin:round;stroke-miterlimit:4.7" transform="matrix(.56489 .28696 -.28717 .56448 22.151 12.51)"/>
            <path d="m43.95 8.472 1.06-2.484m8.51 75.826 1.274.161m.925-16.793 1.228.107m.818-14.306 1.343.182m-4.713 34.121 5.058-36.64m-2.954 10.438-3.352 24.862m10.175-28.927s2.898 5.784 9.95 8.385" style="display:inline;fill:#039;fill-opacity:1;stroke:#000;stroke-width:1.14924;stroke-linecap:round;stroke-linejoin:round;stroke-miterlimit:4.7;stroke-dasharray:none;stroke-opacity:1" transform="matrix(.56489 .28696 -.28717 .56448 22.151 12.51)"/>
        </g>
        <path d="M65.206 56.912 44.144 43.996 58.687 28.31" style="display:inline;fill:none;stroke:#000;stroke-width:2.88963;stroke-linecap:round;stroke-linejoin:round;stroke-miterlimit:4.7;stroke-dasharray:none;stroke-opacity:1" transform="matrix(1.03858 0 0 1.03782 -32.293 -.318)"/>
        <g style="display:inline;stroke-width:1.03082" transform="matrix(.84455 0 0 .83969 -20.352 .767)">
            <ellipse cx="61.417" cy="17.118" rx="10.98" ry="10.733" style="fill:#000;stroke:#000;stroke-width:2.06164;stroke-linecap:butt;stroke-linejoin:miter;stroke-miterlimit:5;stroke-dasharray:none"/>
            <ellipse cx="61.358" cy="19.995" rx="9.621" ry="9.402" style="fill:#fff;stroke:#000;stroke-width:2.06163;stroke-linecap:butt;stroke-linejoin:miter;stroke-miterlimit:5;stroke-dasharray:none"/>
            <path d="M59.31 10.037c5.816 2.374 9.209 11.05 9.209 11.05 1.661-5.46-.503-8.695-.503-8.695z" style="fill:#000;stroke:#000;stroke-width:.750433;stroke-linecap:round;stroke-linejoin:round;stroke-miterlimit:4.7"/>
        </g>
    </g>
</svg>
