<?xml version="1.0" encoding="UTF-8" standalone="no"?>
<svg
   xml:space="preserve"
   width="100"
   height="100"
   version="1.1"
   id="svg7"
   sodipodi:docname="human_dj_1.svg"
   inkscape:version="1.3.2 (091e20e, 2023-11-25)"
   xmlns:inkscape="http://www.inkscape.org/namespaces/inkscape"
   xmlns:sodipodi="http://sodipodi.sourceforge.net/DTD/sodipodi-0.dtd"
   xmlns="http://www.w3.org/2000/svg"
   xmlns:svg="http://www.w3.org/2000/svg"><defs
     id="defs7" /><sodipodi:namedview
     id="namedview7"
     pagecolor="#ffffff"
     bordercolor="#000000"
     borderopacity="0.25"
     inkscape:showpageshadow="2"
     inkscape:pageopacity="0.0"
     inkscape:pagecheckerboard="0"
     inkscape:deskcolor="#d1d1d1"
     inkscape:current-layer="svg7"
     showgrid="false" /><g
     id="g27"
     transform="translate(-12.456172,-0.88113084)"><path
       d="M 59.982,31.788 80.968006,47.234565 64.055944,47.537053"
       style="display:inline;fill:none;stroke:#000000;stroke-width:3;stroke-linecap:round;stroke-linejoin:round;stroke-miterlimit:4.7;stroke-dasharray:none;stroke-opacity:1"
       id="path1"
       sodipodi:nodetypes="ccc"
       inkscape:label="left hand" /><g
       style="display:inline;stroke-width:1.83867;stroke-dasharray:none"
       id="g3"
       transform="translate(16)"
       inkscape:label="body"><path
         d="m 44.242,23.499 1.19,18.313"
         style="fill:none;stroke:#000000;stroke-width:1.83867;stroke-linecap:round;stroke-linejoin:round;stroke-miterlimit:4.7;stroke-dasharray:none;stroke-opacity:1"
         transform="matrix(1.63742,0,0,1.62584,-28.934,-6.417)"
         id="path2" /><path
         d="M 56.195,62.957 53.069,61.767 52.507093,51.336985 45.577,41.371 l -7.078,10.188 0.284,11.298 -4.043,0.87"
         style="display:inline;fill:none;stroke:#000000;stroke-width:1.83867;stroke-linecap:round;stroke-linejoin:round;stroke-miterlimit:4.7;stroke-dasharray:none;stroke-opacity:1"
         transform="matrix(1.63742,0,0,1.62584,-28.934,-6.417)"
         id="path3"
         sodipodi:nodetypes="ccccccc" /></g></g><ellipse
     style="display:inline;fill:#ffffff;stroke:#000000;stroke-width:2.5;stroke-linecap:round;stroke-linejoin:round;stroke-miterlimit:4.7;stroke-dasharray:none"
     id="ellipse6"
     cx="45.187107"
     cy="18.269894"
     rx="7.8671074"
     ry="8.0621595"
     inkscape:label="head" /><g
     id="g10"
     transform="matrix(0.9502001,0,0,0.99601079,2.5507251,-0.90494282)"
     style="display:inline;stroke-width:1.02792"
     inkscape:label="headset"><ellipse
       style="fill:#ffffff;stroke:#000000;stroke-width:2.56981;stroke-linecap:round;stroke-linejoin:round;stroke-miterlimit:4.7;stroke-dasharray:none"
       id="path6"
       cx="33.308773"
       cy="19.039976"
       rx="0.43155926"
       ry="2.3975513" /><ellipse
       style="fill:#ffffff;stroke:#000000;stroke-width:2.56981;stroke-linecap:round;stroke-linejoin:round;stroke-miterlimit:4.7;stroke-dasharray:none"
       id="ellipse7"
       cx="56.447697"
       cy="18.475761"
       rx="0.43155926"
       ry="2.3975513" /><path
       id="path7"
       style="fill:none;stroke:#000000;stroke-width:1.02792;stroke-linecap:round;stroke-linejoin:round;stroke-miterlimit:4.7"
       d="M 33.532699,18.163544 C 33.026707,12.253105 38.634807,7.4226022 44.928577,7.4226017 c 6.29377,0 11.735504,4.8186143 11.395879,10.7409423"
       sodipodi:nodetypes="csc" /></g><g
     id="g11"
     inkscape:label="mixer"><rect
       style="fill:#ffffff;stroke:none;stroke-width:0.999996;stroke-linecap:round;stroke-linejoin:round;stroke-miterlimit:4.7;stroke-dasharray:none"
       id="rect11"
       width="39.992702"
       height="21.487753"
       x="29.561457"
       y="50.274509"
       ry="1"
       rx="1" /><path
       d="M 68.828133,72.36721 H 30.925148 c -0.860553,0 -1.560665,-0.700113 -1.560665,-1.560665 v -19.69894 c 0,-0.860737 0.700112,-1.56085 1.560665,-1.56085 h 37.902985 c 0.860553,0 1.560665,0.700113 1.560665,1.56085 v 19.69894 c 0,0.860552 -0.700112,1.560665 -1.560665,1.560665 z M 54.334744,71.626153 h 14.493389 c 0.451861,0 0.819607,-0.367563 0.819607,-0.819608 v -19.69894 c 0,-0.451859 -0.36756,-0.819793 -0.819607,-0.819793 H 54.334744 Z m -8.175148,0 h 7.43409 V 50.287997 h -7.43409 z M 30.925148,50.287997 c -0.452046,0 -0.819611,0.367749 -0.819611,0.819608 v 19.69894 c 0,0.451859 0.367565,0.819608 0.819611,0.819608 H 45.418537 V 50.287997 Z m 21.225703,20.766432 h -4.548234 c -0.204533,0 -0.370527,-0.165996 -0.370527,-0.370528 v -2.80601 c 0,-0.204531 0.165994,-0.370528 0.370527,-0.370528 h 4.548234 c 0.204529,0 0.370527,0.165997 0.370527,0.370528 V 70.6839 c 0,0.204717 -0.165998,0.370528 -0.370527,0.370529 z m -4.177893,-0.741055 h 3.807179 V 68.24842 h -3.807179 z m 18.957518,0.397947 c -0.204534,0 -0.370532,-0.165998 -0.370532,-0.37053 V 68.95409 c -0.335328,-0.144135 -0.570612,-0.47761 -0.570612,-0.865183 0,-0.387572 0.235471,-0.721048 0.570612,-0.865184 v -0.941881 c 0,-0.204532 0.165998,-0.370529 0.370532,-0.370529 0.204529,0 0.370527,0.165997 0.370527,0.370529 v 0.941881 c 0.335328,0.144136 0.570611,0.477612 0.570611,0.865184 0,0.387573 -0.23547,0.721048 -0.570611,0.865183 v 1.386701 c 0,0.204532 -0.165811,0.37053 -0.370527,0.37053 z m 0,-2.822499 c -0.11042,0 -0.200089,0.08967 -0.200089,0.200086 0,0.110417 0.08967,0.200085 0.200089,0.200085 0.110414,0 0.200085,-0.08967 0.200085,-0.200085 0,-0.110417 -0.08967,-0.200086 -0.200085,-0.200086 z m -2.295238,2.822498 h -1.959353 c -0.204533,0 -0.370527,-0.165997 -0.370527,-0.370529 v -1.436537 c 0,-0.204531 0.165994,-0.370529 0.370527,-0.370529 h 1.959353 c 0.204529,0 0.370527,0.165998 0.370527,0.370529 v 1.436537 c 0,0.204532 -0.165811,0.370529 -0.370527,0.370529 z m -1.588826,-0.741056 h 1.2183 v -0.695482 h -1.2183 z m -1.636437,0.741056 h -1.959353 c -0.204529,0 -0.370527,-0.165997 -0.370527,-0.370529 v -1.436537 c 0,-0.204531 0.165998,-0.370529 0.370527,-0.370529 h 1.959353 c 0.204534,0 0.370527,0.165998 0.370527,0.370529 v 1.436537 c 0,0.204532 -0.165811,0.370529 -0.370527,0.370529 z m -1.588821,-0.741056 h 1.218294 v -0.695482 h -1.218294 z m -1.636442,0.741056 h -1.959349 c -0.204534,0 -0.370532,-0.165997 -0.370532,-0.370529 v -1.436537 c 0,-0.204531 0.165998,-0.370529 0.370532,-0.370529 h 1.959349 c 0.204534,0 0.370532,0.165998 0.370532,0.370529 v 1.436537 c 0,0.204532 -0.165998,0.370529 -0.370532,0.370529 z m -1.589008,-0.741056 h 1.218298 V 69.274782 H 56.595704 Z M 42.331485,70.71132 c -0.204533,0 -0.370527,-0.165997 -0.370527,-0.370529 v -0.941882 c -0.335328,-0.144135 -0.570799,-0.477611 -0.570799,-0.865184 0,-0.387571 0.235471,-0.721047 0.570799,-0.865182 v -1.386701 c 0,-0.204532 0.165994,-0.370528 0.370527,-0.370528 0.204529,0 0.370527,0.165996 0.370527,0.370528 v 1.386701 c 0.335328,0.144135 0.570612,0.477611 0.570612,0.865182 0,0.387573 -0.23547,0.721049 -0.570612,0.865184 v 0.941882 c 0,0.204532 -0.165811,0.370529 -0.370527,0.370529 z m 0,-2.377679 c -0.110419,0 -0.200271,0.08967 -0.200271,0.200085 0,0.110417 0.08985,0.200085 0.200271,0.200085 0.110415,0 0.200085,-0.08967 0.200085,-0.200085 0,-0.110418 -0.08967,-0.200085 -0.200085,-0.200085 z m -2.238177,2.377679 h -1.959353 c -0.204529,0 -0.370527,-0.165997 -0.370527,-0.370529 v -1.436537 c 0,-0.204531 0.165998,-0.370529 0.370527,-0.370529 h 1.959353 c 0.204534,0 0.370532,0.165998 0.370532,0.370529 v 1.436537 c 0,0.204532 -0.165811,0.370529 -0.370532,0.370529 z m -1.588822,-0.741056 h 1.218295 v -0.695482 h -1.218295 z m -1.636437,0.741056 h -1.95954 c -0.204529,0 -0.370527,-0.165997 -0.370527,-0.370529 v -1.436537 c 0,-0.204531 0.165998,-0.370529 0.370527,-0.370529 h 1.95954 c 0.204529,0 0.370527,0.165998 0.370527,0.370529 v 1.436537 c 0,0.204532 -0.165998,0.370529 -0.370527,0.370529 z m -1.589013,-0.741056 h 1.218481 v -0.695482 h -1.218481 z m -1.636437,0.741056 h -1.959353 c -0.204529,0 -0.370528,-0.165997 -0.370528,-0.370529 v -1.436537 c 0,-0.204531 0.165999,-0.370529 0.370528,-0.370529 h 1.959353 c 0.204534,0 0.370532,0.165998 0.370532,0.370529 v 1.436537 c 0,0.204532 -0.165812,0.370529 -0.370532,0.370529 z m -1.588822,-0.741056 h 1.218295 v -0.695482 h -1.218295 z m 32.581461,-1.881356 h -1.959353 c -0.204533,0 -0.370527,-0.165998 -0.370527,-0.370529 v -1.436537 c 0,-0.204531 0.165994,-0.370528 0.370527,-0.370528 h 1.959353 c 0.204529,0 0.370527,0.165997 0.370527,0.370528 v 1.436537 c 0,0.204531 -0.165811,0.370529 -0.370527,0.370529 z m -1.588826,-0.741057 h 1.2183 v -0.695482 h -1.2183 z m -1.636437,0.741057 h -1.959353 c -0.204529,0 -0.370527,-0.165998 -0.370527,-0.370529 v -1.436537 c 0,-0.204531 0.165998,-0.370528 0.370527,-0.370528 h 1.959353 c 0.204534,0 0.370527,0.165997 0.370527,0.370528 v 1.436537 c 0,0.204531 -0.165811,0.370529 -0.370527,0.370529 z m -1.588821,-0.741057 h 1.218294 v -0.695482 h -1.218294 z m -1.636442,0.741057 h -1.959349 c -0.204534,0 -0.370532,-0.165998 -0.370532,-0.370529 v -1.436537 c 0,-0.204531 0.165998,-0.370528 0.370532,-0.370528 h 1.959349 c 0.204534,0 0.370532,0.165997 0.370532,0.370528 v 1.436537 c 0,0.204531 -0.165998,0.370529 -0.370532,0.370529 z m -1.589008,-0.741057 h 1.218298 v -0.695482 h -1.218298 z m -16.502396,0.741057 h -1.959353 c -0.204529,0 -0.370527,-0.165998 -0.370527,-0.370529 v -1.436537 c 0,-0.204531 0.165998,-0.370528 0.370527,-0.370528 h 1.959353 c 0.204534,0 0.370532,0.165997 0.370532,0.370528 v 1.436537 c 0,0.204531 -0.165816,0.370529 -0.370532,0.370529 z m -1.588822,-0.741057 h 1.218295 v -0.695482 h -1.218295 z m -1.636437,0.741057 h -1.95954 c -0.204529,0 -0.370527,-0.165998 -0.370527,-0.370529 v -1.436537 c 0,-0.204531 0.165998,-0.370528 0.370527,-0.370528 h 1.95954 c 0.204529,0 0.370527,0.165997 0.370527,0.370528 v 1.436537 c 0,0.204531 -0.165998,0.370529 -0.370527,0.370529 z m -1.589013,-0.741057 h 1.218481 v -0.695482 h -1.218481 z m -1.636437,0.741057 h -1.959353 c -0.204529,0 -0.370528,-0.165998 -0.370528,-0.370529 v -1.436537 c 0,-0.204531 0.165999,-0.370528 0.370528,-0.370528 h 1.959353 c 0.204534,0 0.370532,0.165997 0.370532,0.370528 v 1.436537 c 0,0.204531 -0.165812,0.370529 -0.370532,0.370529 z m -1.588822,-0.741057 h 1.218295 v -0.695482 h -1.218295 z m 20.096887,-0.695482 c -0.204534,0 -0.370527,-0.165995 -0.370527,-0.370527 v -0.459826 c -0.335328,-0.144136 -0.570616,-0.477796 -0.570616,-0.865183 0,-0.387573 0.23547,-0.721048 0.570616,-0.865183 v -1.868759 c 0,-0.204531 0.165993,-0.370528 0.370527,-0.370528 0.204533,0 0.370527,0.165997 0.370527,0.370528 v 1.868759 c 0.335329,0.144135 0.570616,0.47761 0.570616,0.865183 0,0.387573 -0.23547,0.721047 -0.570799,0.865183 v 0.459826 c 1.83e-4,0.204532 -0.165628,0.370527 -0.370344,0.370527 z m 1.87e-4,-1.895806 c -0.110419,0 -0.200084,0.08967 -0.200084,0.200085 0,0.110417 0.08967,0.200085 0.200084,0.200085 0.110415,0 0.200084,-0.08967 0.200084,-0.200085 0,-0.110418 -0.08985,-0.200085 -0.200084,-0.200085 z m -2.274119,1.895806 c -0.20453,0 -0.370528,-0.165995 -0.370528,-0.370527 v -1.386701 c -0.335327,-0.144136 -0.570611,-0.477612 -0.570611,-0.865184 0,-0.387573 0.235471,-0.721048 0.570611,-0.865183 v -0.941883 c 0,-0.204531 0.165998,-0.370528 0.370528,-0.370528 0.204533,0 0.370531,0.165997 0.370531,0.370528 v 0.941883 c 0.335324,0.144135 0.570612,0.47761 0.570612,0.865183 0,0.387572 -0.23547,0.721048 -0.570612,0.865184 v 1.386701 c 0,0.204532 -0.165998,0.370527 -0.370531,0.370527 z m 0,-2.822683 c -0.110415,0 -0.200085,0.08967 -0.200085,0.200086 0,0.110417 0.08967,0.200085 0.200085,0.200085 0.110419,0 0.200084,-0.08967 0.200084,-0.200085 0,-0.110417 -0.08985,-0.200086 -0.200084,-0.200086 z m -2.274301,2.822683 c -0.20453,0 -0.370528,-0.165995 -0.370528,-0.370527 v -0.941883 c -0.335328,-0.144135 -0.570611,-0.477611 -0.570611,-0.865183 0,-0.387572 0.23547,-0.721048 0.570611,-0.865183 v -1.386702 c 0,-0.204531 0.165998,-0.370528 0.370528,-0.370528 0.204533,0 0.370527,0.165997 0.370527,0.370528 v 1.386702 c 0.335327,0.144135 0.570616,0.477611 0.570616,0.865183 0,0.387572 -0.235471,0.721048 -0.570616,0.865183 v 0.941883 c 0,0.204532 -0.165811,0.370527 -0.370527,0.370527 z m 0,-2.377678 c -0.110416,0 -0.200085,0.08967 -0.200085,0.200086 0,0.110417 0.08967,0.200085 0.200085,0.200085 0.110419,0 0.200084,-0.08967 0.200084,-0.200085 0,-0.110417 -0.08966,-0.200086 -0.200084,-0.200086 z m 14.378156,0.561165 c -3.708243,0 -6.725266,-3.017025 -6.725266,-6.725455 0,-3.70843 3.017023,-6.725271 6.725266,-6.725271 3.708434,0 6.725271,3.016841 6.725271,6.725271 0,3.70843 -3.016837,6.725455 -6.725271,6.725455 z m 0,-12.709669 c -3.299736,0 -5.984213,2.684476 -5.984213,5.984214 0,3.299923 2.684477,5.984398 5.984213,5.984398 3.29974,0 5.984217,-2.684475 5.984217,-5.984399 1.87e-4,-3.299552 -2.684477,-5.984214 -5.984217,-5.984213 z M 37.680061,64.835856 c -3.708434,0 -6.725271,-3.017025 -6.725271,-6.725455 0,-3.70843 3.017024,-6.725271 6.725271,-6.725271 3.708244,0 6.725267,3.016841 6.725267,6.725271 0,3.70843 -3.017023,6.725455 -6.725267,6.725455 z m 0,-12.709669 c -3.29974,0 -5.984216,2.684476 -5.984216,5.984214 0,3.299923 2.684476,5.984398 5.984216,5.984398 3.299737,0 5.984213,-2.684475 5.984213,-5.984399 0,-3.299552 -2.684663,-5.984214 -5.984213,-5.984213 z m 24.300526,11.28925 c -2.925134,0 -5.30485,-2.379902 -5.30485,-5.305036 0,-2.925134 2.379716,-5.304851 5.30485,-5.304851 0.204533,0 0.370531,0.165997 0.370531,0.370528 0,0.204532 -0.165998,0.370528 -0.370531,0.370528 -2.516441,0 -4.563791,2.047353 -4.563791,4.563795 0,2.516627 2.04735,4.56398 4.563791,4.56398 0.204533,0 0.370531,0.165996 0.370531,0.370528 0,0.204531 -0.165811,0.370528 -0.370531,0.370528 z m -24.300526,0 c -2.925133,0 -5.305036,-2.379902 -5.305036,-5.305036 0,-2.925134 2.379903,-5.304851 5.305036,-5.304851 0.20453,0 0.370528,0.165997 0.370528,0.370528 0,0.204532 -0.165998,0.370528 -0.370528,0.370528 -2.516445,0 -4.563982,2.047353 -4.563982,4.563795 0,2.516627 2.047355,4.56398 4.563982,4.56398 0.20453,0 0.370528,0.165996 0.370528,0.370528 0,0.204531 -0.165998,0.370528 -0.370528,0.370528 z m 14.47079,-2.654648 c -0.204533,0 -0.370532,-0.165997 -0.370532,-0.370529 v -2.200196 c 0,-0.204532 0.165999,-0.370527 0.370532,-0.370527 0.204529,0 0.370527,0.165996 0.370527,0.370527 v 2.200196 c 0,0.204532 -0.165998,0.370529 -0.370527,0.370529 z m -2.274119,0 c -0.20453,0 -0.370528,-0.165997 -0.370528,-0.370529 v -2.200196 c 0,-0.204532 0.165998,-0.370527 0.370528,-0.370527 0.204533,0 0.370531,0.165996 0.370531,0.370527 v 2.200196 c 0,0.204532 -0.165998,0.370529 -0.370531,0.370529 z m -2.274301,0 c -0.20453,0 -0.370528,-0.165997 -0.370528,-0.370529 v -2.200196 c 0,-0.204532 0.165998,-0.370527 0.370528,-0.370527 0.204533,0 0.370527,0.165996 0.370527,0.370527 v 2.200196 c 0,0.204532 -0.165811,0.370529 -0.370527,0.370529 z m 14.378156,-0.818127 c -1.010242,0 -1.832073,-0.822016 -1.832073,-1.832261 0,-1.010245 0.821831,-1.832076 1.832073,-1.832076 1.010247,0 1.832077,0.821831 1.832077,1.832076 0,1.010245 -0.82183,1.832261 -1.832077,1.832261 z m 0,-2.923096 c -0.601549,0 -1.091019,0.489468 -1.091019,1.09102 0,0.601738 0.48947,1.091206 1.091019,1.091206 0.601553,0 1.091024,-0.489468 1.091024,-1.091206 0,-0.601738 -0.489471,-1.09102 -1.091024,-1.09102 z m -24.300526,2.923096 c -1.010246,0 -1.832077,-0.822016 -1.832077,-1.832261 0,-1.010245 0.821831,-1.832076 1.832077,-1.832076 1.010243,0 1.832074,0.821831 1.832074,1.832076 0,1.010245 -0.822014,1.832261 -1.832074,1.832261 z m 0,-2.923096 c -0.601553,0 -1.091023,0.489468 -1.091023,1.09102 0,0.601738 0.48947,1.091206 1.091023,1.091206 0.601549,0 1.091019,-0.489468 1.091019,-1.091206 -1.87e-4,-0.601738 -0.48947,-1.09102 -1.091019,-1.09102 z m 14.47079,-0.06299 c -0.204533,0 -0.370532,-0.165996 -0.370532,-0.370529 v -0.05317 c 0,-0.204532 0.165999,-0.370529 0.370532,-0.370529 0.204529,0 0.370527,0.165997 0.370527,0.370529 v 0.05317 c 0,0.204533 -0.165998,0.370529 -0.370527,0.370529 z m -2.274119,0 c -0.20453,0 -0.370528,-0.165996 -0.370528,-0.370529 v -0.05317 c 0,-0.204532 0.165998,-0.370529 0.370528,-0.370529 0.204533,0 0.370531,0.165997 0.370531,0.370529 v 0.05317 c 0,0.204533 -0.165998,0.370529 -0.370531,0.370529 z m -2.274301,0 c -0.20453,0 -0.370528,-0.165996 -0.370528,-0.370529 v -0.05317 c 0,-0.204532 0.165998,-0.370529 0.370528,-0.370529 0.204533,0 0.370527,0.165997 0.370527,0.370529 v 0.05317 c 0,0.204533 -0.165811,0.370529 -0.370527,0.370529 z m 4.54842,-1.678307 c -0.204533,0 -0.370532,-0.165996 -0.370532,-0.370528 v -0.05317 c 0,-0.204532 0.165999,-0.370529 0.370532,-0.370529 0.204529,0 0.370527,0.165997 0.370527,0.370529 v 0.05317 c 0,0.204716 -0.165998,0.370528 -0.370527,0.370528 z m -2.274119,0 c -0.20453,0 -0.370528,-0.165996 -0.370528,-0.370528 v -0.05317 c 0,-0.204532 0.165998,-0.370529 0.370528,-0.370529 0.204533,0 0.370531,0.165997 0.370531,0.370529 v 0.05317 c 0,0.204716 -0.165998,0.370528 -0.370531,0.370528 z m -2.274301,0 c -0.20453,0 -0.370528,-0.165996 -0.370528,-0.370528 v -0.05317 c 0,-0.204532 0.165998,-0.370529 0.370528,-0.370529 0.204533,0 0.370527,0.165997 0.370527,0.370529 v 0.05317 c 0,0.204716 -0.165811,0.370528 -0.370527,0.370528 z m 4.54842,-1.678307 c -0.204533,0 -0.370532,-0.165996 -0.370532,-0.370527 v -0.05317 c 0,-0.204531 0.165999,-0.370528 0.370532,-0.370528 0.204529,0 0.370527,0.165997 0.370527,0.370528 v 0.05317 c 0,0.204531 -0.165998,0.370527 -0.370527,0.370527 z m -2.274119,0 c -0.20453,0 -0.370528,-0.165996 -0.370528,-0.370527 v -0.05317 c 0,-0.204531 0.165998,-0.370528 0.370528,-0.370528 0.204533,0 0.370531,0.165997 0.370531,0.370528 v 0.05317 c 0,0.204531 -0.165998,0.370527 -0.370531,0.370527 z m -2.274301,0 c -0.20453,0 -0.370528,-0.165996 -0.370528,-0.370527 v -0.05317 c 0,-0.204531 0.165998,-0.370528 0.370528,-0.370528 0.204533,0 0.370527,0.165997 0.370527,0.370528 v 0.05317 c 0,0.204531 -0.165811,0.370527 -0.370527,0.370527 z m 4.54842,-1.678307 c -0.204533,0 -0.370532,-0.165997 -0.370532,-0.370528 v -0.05317 c 0,-0.204531 0.165999,-0.370529 0.370532,-0.370529 0.204529,0 0.370527,0.165998 0.370527,0.370529 v 0.05317 c 0,0.204531 -0.165998,0.370528 -0.370527,0.370528 z m -2.274119,0 c -0.20453,0 -0.370528,-0.165997 -0.370528,-0.370528 v -0.05317 c 0,-0.204531 0.165998,-0.370529 0.370528,-0.370529 0.204533,0 0.370531,0.165998 0.370531,0.370529 v 0.05317 c 0,0.204531 -0.165998,0.370528 -0.370531,0.370528 z m -2.274301,0 c -0.20453,0 -0.370528,-0.165997 -0.370528,-0.370528 v -0.05317 c 0,-0.204531 0.165998,-0.370529 0.370528,-0.370529 0.204533,0 0.370527,0.165998 0.370527,0.370529 v 0.05317 c 0,0.204531 -0.165811,0.370528 -0.370527,0.370528 z"
       id="path10"
       style="stroke-width:0.999998" /></g><path
     d="M 55.754553,56.814642 47.364608,47.910195 59.747,31.552"
     style="display:inline;fill:none;stroke:#000000;stroke-width:3.00001;stroke-linecap:round;stroke-linejoin:round;stroke-miterlimit:4.7;stroke-dasharray:none;stroke-opacity:1"
     id="path4"
     sodipodi:nodetypes="ccc"
     inkscape:label="right hand"
     transform="translate(-12.456172,-0.88113084)" /></svg>
