<?xml version="1.0" encoding="UTF-8" standalone="no"?>
<!-- Created with Inkscape (http://www.inkscape.org/) -->

<svg
   width="100"
   height="100"
   viewBox="0 0 100 100"
   version="1.1"
   id="svg1"
   xml:space="preserve"
   inkscape:version="1.3.2 (091e20e, 2023-11-25)"
   sodipodi:docname="human_drummer_1.svg"
   xmlns:inkscape="http://www.inkscape.org/namespaces/inkscape"
   xmlns:sodipodi="http://sodipodi.sourceforge.net/DTD/sodipodi-0.dtd"
   xmlns="http://www.w3.org/2000/svg"
   xmlns:svg="http://www.w3.org/2000/svg"><sodipodi:namedview
     id="namedview1"
     pagecolor="#ffffff"
     bordercolor="#000000"
     borderopacity="0.25"
     inkscape:showpageshadow="2"
     inkscape:pageopacity="0.0"
     inkscape:pagecheckerboard="0"
     inkscape:deskcolor="#d1d1d1"
     inkscape:document-units="px"
     inkscape:current-layer="svg1"
     showgrid="false" /><defs
     id="defs1" /><g
     style="display:inline;stroke-width:1.83867;stroke-dasharray:none"
     id="g3"
     transform="translate(1.9393475,-10.418502)"><path
       d="M 45.981723,27.867234 45.432,41.812"
       style="fill:none;stroke:#000000;stroke-width:1.83867;stroke-linecap:round;stroke-linejoin:round;stroke-miterlimit:4.7;stroke-dasharray:none;stroke-opacity:1"
       transform="matrix(1.63742,0,0,1.62584,-25.39,-7.298)"
       id="path2"
       sodipodi:nodetypes="cc" /><path
       d="m 56.195,62.957 -3.126,-1.19 -0.562,-10.43 -6.93,-9.966 -7.078,10.188 0.284,11.298 -4.043,0.87"
       style="display:inline;fill:none;stroke:#000000;stroke-width:1.83867;stroke-linecap:round;stroke-linejoin:round;stroke-miterlimit:4.7;stroke-dasharray:none;stroke-opacity:1"
       transform="matrix(1.63742,0,0,1.62584,-25.39,-7.298)"
       id="path3" /></g><path
     id="path33"
     style="stroke-width:0.174284;fill:#ffffff"
     d="M 29.351562 25.072266 C 28.96657 25.072266 28.654297 25.384538 28.654297 25.769531 L 28.654297 27.068359 C 26.69744 26.811815 24.774009 26.675781 23.017578 26.675781 C 20.688973 26.675781 18.681789 26.907765 17.214844 27.347656 C 15.472703 27.870159 14.503178 28.671346 14.332031 29.730469 C 14.094134 31.202991 15.51445 32.717756 18.439453 34.111328 C 20.51953 35.102305 23.197219 35.958131 26.144531 36.583984 L 15.470703 47.150391 C 15.197251 47.421402 15.194026 47.863093 15.464844 48.136719 C 15.601133 48.274404 15.781426 48.34375 15.960938 48.34375 C 16.138183 48.34375 16.31523 48.276954 16.451172 48.142578 L 24.412109 40.259766 L 24.412109 49.044922 C 22.995009 49.296239 22.138672 49.645784 22.138672 50.412109 L 22.138672 66.509766 C 22.138672 67.189298 22.758506 67.584367 24.412109 67.878906 L 24.412109 75.802734 L 11.390625 87.160156 C 11.100443 87.413216 11.071156 87.852395 11.324219 88.142578 C 11.462078 88.300653 11.654934 88.382812 11.849609 88.382812 C 12.012215 88.382812 12.174533 88.326137 12.306641 88.210938 L 21.105469 80.539062 L 24.412109 82.318359 L 24.412109 84.107422 C 24.412109 84.492414 24.724383 84.804688 25.109375 84.804688 C 25.494368 84.804688 25.806641 84.492414 25.806641 84.107422 L 25.806641 82.458984 L 29.375 80.539062 L 33.152344 83.832031 C 33.152518 83.833231 33.152006 83.834938 33.152344 83.835938 L 29.083984 97.029297 C 28.970526 97.39721 29.176835 97.786931 29.544922 97.900391 C 29.613412 97.921481 29.681855 97.931641 29.75 97.931641 C 30.047851 97.931641 30.323645 97.738872 30.416016 97.439453 L 33.871094 86.236328 C 36.294508 92.587575 42.446506 97.111328 49.638672 97.111328 C 56.903688 97.111328 63.110943 92.495648 65.482422 86.042969 L 68.996094 97.439453 C 69.088464 97.739048 69.364259 97.931641 69.662109 97.931641 C 69.730079 97.931641 69.798695 97.921481 69.867188 97.900391 C 70.235101 97.786932 70.441583 97.39721 70.328125 97.029297 L 66.341797 84.101562 L 70.429688 80.539062 L 73.867188 82.388672 L 73.867188 84.240234 C 73.867188 84.625227 74.179461 84.9375 74.564453 84.9375 C 74.949447 84.9375 75.261719 84.625227 75.261719 84.240234 L 75.261719 82.388672 L 78.699219 80.539062 L 87.498047 88.210938 C 87.630155 88.326139 87.792472 88.382813 87.955078 88.382812 C 88.149579 88.382812 88.34261 88.300652 88.480469 88.142578 C 88.733179 87.85257 88.704242 87.413216 88.414062 87.160156 L 75.261719 75.689453 L 75.261719 35.822266 C 81.292806 35.179508 87.164815 33.17862 86.902344 30.53125 C 86.798297 29.484328 85.815466 28.683698 83.978516 28.150391 C 82.432271 27.70161 80.361015 27.462891 77.990234 27.462891 C 77.102781 27.462891 76.189082 27.49965 75.261719 27.566406 L 75.261719 25.769531 C 75.261719 25.384539 74.949447 25.072266 74.564453 25.072266 C 74.179462 25.072266 73.867188 25.384539 73.867188 25.769531 L 73.867188 27.689453 C 67.835926 28.332211 61.961964 30.333099 62.224609 32.980469 C 62.328656 34.027391 63.313614 34.828195 65.150391 35.361328 C 66.696461 35.810109 68.765938 36.048828 71.136719 36.048828 C 72.024172 36.048828 72.939649 36.012242 73.867188 35.945312 L 73.867188 75.689453 L 66.394531 82.205078 C 66.469821 81.560054 66.509766 80.905127 66.509766 80.240234 L 66.509766 75.550781 C 66.509766 71.698589 65.210632 68.145476 63.029297 65.302734 L 63.029297 60.078125 L 72.773438 60.078125 C 73.158431 60.078125 73.470703 59.765852 73.470703 59.380859 L 73.470703 52.220703 C 73.470703 51.835711 73.158431 51.523437 72.773438 51.523438 L 66.818359 51.523438 C 66.914559 51.291814 66.942692 51.046618 66.869141 50.787109 L 64.558594 42.636719 C 64.270502 41.620297 62.782386 41.580671 61.689453 41.640625 C 60.355659 41.712775 58.654905 42.026206 56.900391 42.523438 C 55.721885 42.857539 49.873103 44.626567 50.443359 46.638672 L 51.019531 48.673828 L 48.167969 48.673828 L 48.611328 46.330078 C 49.072134 43.890455 41.219304 42.333466 40.322266 42.164062 C 39.425227 41.994659 31.547092 40.577781 31.085938 43.017578 L 30.039062 48.552734 C 28.460228 48.605194 27.002227 48.70645 25.806641 48.845703 L 25.806641 38.878906 L 27.798828 36.90625 C 28.052237 36.95122 28.308257 36.993849 28.564453 37.035156 C 31.024991 37.433046 33.48769 37.644531 35.6875 37.644531 C 38.016104 37.644531 40.021336 37.412549 41.488281 36.972656 C 43.230422 36.450154 44.2019 35.647013 44.373047 34.587891 C 44.610945 33.115367 43.190628 31.600603 40.265625 30.207031 C 37.628365 28.95062 34.032206 27.912192 30.140625 27.283203 C 30.110125 27.278303 30.079148 27.274371 30.048828 27.269531 L 30.048828 25.769531 C 30.048828 25.384538 29.736556 25.072266 29.351562 25.072266 z " /><path
     d="M 88.41313,87.159694 75.26132,75.689898 V 39.821941 c 6.031093,-0.642758 11.90446,-2.643188 11.641988,-5.290561 -0.104047,-1.046923 -1.088054,-1.848106 -2.925006,-2.381414 -1.546246,-0.448781 -3.616565,-0.686156 -5.987348,-0.686156 -0.887454,0 -1.80227,0.0352 -2.729634,0.101956 v -1.795995 c 0,-0.384993 -0.312142,-0.697136 -0.697136,-0.697136 -0.384992,0 -0.697134,0.312143 -0.697134,0.697136 v 1.92026 c -6.031268,0.642759 -11.90446,2.643363 -11.641814,5.290735 0.104047,1.046923 1.087879,1.848106 2.924657,2.38124 1.546072,0.448781 3.616216,0.68633 5.986999,0.68633 h 5.23e-4 c 0.887454,0 1.802096,-0.0352 2.729635,-0.10213 v 35.743692 l -7.47155,6.515255 c 0.07529,-0.645025 0.115201,-1.300681 0.115201,-1.965574 v -4.687887 c 0,-3.852196 -1.299111,-7.405496 -3.480448,-10.24824 v -5.225553 h 9.744036 c 0.384994,0 0.697136,-0.312143 0.697136,-0.697136 v -7.159581 c 0,-0.384993 -0.312142,-0.697135 -0.697136,-0.697135 h -5.955802 c 0.0962,-0.231624 0.123741,-0.477712 0.05019,-0.737221 v -1.75e-4 l 5.22e-4,-1.74e-4 -2.310306,-8.149862 c -0.288092,-1.016423 -1.775953,-1.05616 -2.868887,-0.996206 -1.333795,0.07215 -3.034805,0.385864 -4.789321,0.883096 -1.178507,0.334102 -7.028519,2.102386 -6.458262,4.114493 l 0.576879,2.035288 h -2.850935 l 0.442855,-2.34255 c 0.460806,-2.439626 -7.39225,-3.997201 -8.289289,-4.166605 -0.89704,-0.169404 -8.775194,-1.585983 -9.236349,0.853817 l -1.046226,5.534733 c -1.578836,0.05246 -3.037418,0.153718 -4.233006,0.292971 v -9.966074 l 1.992936,-1.973242 c 0.253409,0.04497 0.508038,0.08836 0.764234,0.129667 2.46054,0.39789 4.923868,0.608076 7.12368,0.608076 2.328606,0 4.334788,-0.232494 5.801735,-0.672387 1.742142,-0.522503 2.71238,-1.324557 2.883527,-2.38368 0.237898,-1.472525 -1.182342,-2.9874 -4.107348,-4.380973 -2.637263,-1.256413 -6.232914,-2.294971 -10.124499,-2.923961 -0.0305,-0.0049 -0.061,-0.0091 -0.09132,-0.01394 V 25.7696 c 0,-0.384994 -0.312142,-0.697136 -0.697136,-0.697136 -0.384993,0 -0.697135,0.312142 -0.697135,0.697136 v 1.297891 c -1.956859,-0.256545 -3.88165,-0.392661 -5.638083,-0.392661 -2.328607,0 -4.334789,0.232495 -5.801736,0.672387 -1.742142,0.522503 -2.71238,1.324557 -2.883527,2.383681 -0.237897,1.472524 1.182342,2.987399 4.107348,4.380973 2.080079,0.990978 4.757427,1.845317 7.704742,2.471171 L 15.470277,47.150915 c -0.273452,0.271012 -0.275718,0.712298 -0.0049,0.985924 0.136289,0.137685 0.315977,0.206701 0.495489,0.206701 0.177246,0 0.354493,-0.06727 0.490435,-0.201646 l 7.960938,-7.882162 v 8.785998 c -1.417102,0.251317 -2.273882,0.600757 -2.273882,1.367083 v 16.097206 c 0,0.679533 0.620277,1.073414 2.273882,1.367954 v 7.925385 L 11.391162,87.159694 c -0.290182,0.25306 -0.320333,0.693476 -0.06727,0.983659 0.137859,0.158075 0.33114,0.238943 0.525816,0.238943 0.162606,0 0.325735,-0.05647 0.457843,-0.17167 l 8.796979,-7.671976 3.307733,1.780659 v 1.788849 c 0,0.384993 0.312143,0.697135 0.697135,0.697135 0.384993,0 0.697136,-0.312142 0.697136,-0.697135 v -1.648202 l 3.568811,-1.921131 3.776208,3.293441 c 1.74e-4,0.0012 5.23e-4,0.0024 8.61e-4,0.0034 l -4.068483,13.192766 c -0.113458,0.367913 0.09272,0.758134 0.460807,0.871594 0.06849,0.02109 0.13751,0.0312 0.205655,0.0312 0.297851,0 0.573568,-0.19241 0.665939,-0.491829 l 3.455184,-11.203799 c 2.423417,6.351253 8.574592,10.876534 15.766765,10.876534 7.265023,0 13.472316,-4.61556 15.843797,-11.068246 l 3.514434,11.39555 c 0.09237,0.299595 0.368088,0.491829 0.665939,0.491829 0.06797,0 0.137162,-0.01011 0.205655,-0.0312 0.367914,-0.113459 0.574265,-0.50368 0.460807,-0.871593 l -3.986569,-12.926809 4.086434,-3.563408 3.438619,1.851069 v 1.851069 c 0,0.384993 0.312143,0.697135 0.697136,0.697135 0.384994,0 0.697136,-0.312142 0.697136,-0.697135 v -1.851069 l 3.438446,-1.850895 8.796978,7.671976 c 0.132108,0.115202 0.295238,0.17167 0.457844,0.17167 0.194501,0 0.387956,-0.08087 0.525815,-0.238944 0.252711,-0.290008 0.22256,-0.730423 -0.06762,-0.983483 z M 19.038913,32.853539 c -2.603801,-1.240553 -3.421715,-2.337321 -3.330565,-2.899735 0.151279,-0.936427 2.710463,-1.884531 7.30877,-1.884531 2.126611,0 4.513079,0.204086 6.901117,0.590124 3.76488,0.608774 7.226333,1.605503 9.747348,2.806494 2.603801,1.240552 3.421716,2.337321 3.330565,2.899735 -0.151278,0.936427 -2.710462,1.884531 -7.308768,1.884531 -2.056376,0 -4.356051,-0.192584 -6.665138,-0.554223 l 1.027055,-1.016946 V 32.15954 c 0,-0.384992 -0.312142,-0.697135 -0.697136,-0.697135 -0.384993,0 -0.697135,0.312143 -0.697135,0.697135 v 1.937514 l -1.318981,1.305909 C 24.138285,34.788438 21.23245,33.898544 19.038913,32.853539 Z M 24.41226,80.735765 22.227263,79.559349 24.41226,77.65373 Z m 0,-14.2735 c -0.401202,-0.07825 -0.698181,-0.157727 -0.879612,-0.23354 V 51.587834 c 0.260729,0.07111 0.557187,0.132805 0.879612,0.18997 z M 69.991151,52.918143 h 2.086177 v 5.76531 h -2.086177 z m -1.394272,0 v 5.76531 h -11.53306 v -3.051187 c 1.027229,-0.15093 2.174714,-0.399981 3.345902,-0.731992 1.754166,-0.497406 3.366467,-1.122737 4.539745,-1.760965 0.126182,-0.06867 0.257418,-0.142564 0.389177,-0.221166 z m -6.960897,7.159581 v 3.627196 c -1.503024,-1.521324 -3.290479,-2.761005 -5.277838,-3.627196 z m -1.606549,-6.519088 c -1.897254,0.53784 -3.706146,0.846148 -4.962907,0.846148 -0.36251,0 -0.609471,-0.02667 -0.773472,-0.05717 0.580191,-0.517623 2.352135,-1.496924 5.298752,-2.332093 1.897254,-0.537839 3.706147,-0.846147 4.962908,-0.846147 0.36251,0 0.60947,0.02667 0.773472,0.05717 -0.579843,0.517623 -2.351613,1.49675 -5.298753,2.332092 z m -4.359885,2.221422 V 58.68328 H 53.58337 v -3.090403 c 0.542545,0.20461 1.188964,0.206353 1.48333,0.206353 h 1.74e-4 c 0.190145,0 0.392139,-0.0068 0.602674,-0.01917 z m 9.469714,-5.984559 c -0.239292,-0.01969 -0.449304,-0.02039 -0.584374,-0.02039 -1.37998,0 -3.327428,0.327654 -5.34302,0.898957 -0.819309,0.232146 -3.893851,1.157768 -5.502491,2.375838 l -0.845451,-2.982521 h 0.884143 c 0.384993,0 0.697134,-0.312141 0.697134,-0.697135 0,-0.384993 -0.312141,-0.697135 -0.697134,-0.697135 h -1.183911 c 0.45035,-0.483986 2.251748,-1.535964 5.391994,-2.426206 3.334399,-0.945316 5.483842,-0.943921 5.96992,-0.730424 z m -1.88854,-6.662 0.253234,0.893552 c -0.384644,-0.03189 -0.78236,-0.02388 -1.138422,-0.0047 -0.325562,0.0176 -0.673607,0.05019 -1.038383,0.09568 l -0.289835,-1.022178 c 1.180425,-0.13019 1.946229,-0.07878 2.213406,0.03765 z m -5.969745,0.731294 c 0.873685,-0.247657 1.663714,-0.429086 2.366252,-0.559974 l 0.294017,1.036641 c -0.756915,0.145701 -1.554264,0.334102 -2.365032,0.563982 -0.896691,0.254106 -1.755736,0.542023 -2.53862,0.847892 l -0.29297,-1.033504 c 0.717352,-0.286174 1.560537,-0.578448 2.536353,-0.855037 z m -3.824486,1.424422 0.278855,0.983659 c 0.0033,0.01168 0.0087,0.02231 0.01273,0.03363 -0.251318,0.119036 -0.489041,0.239465 -0.710904,0.360244 -0.313363,0.17045 -0.656005,0.37227 -0.966752,0.601279 l -0.253235,-0.893378 c 0.154241,-0.222038 0.703061,-0.622193 1.639313,-1.08544 z m -3.121772,4.778167 h 1.079862 l 0.774344,2.731726 v 6.075361 c -0.608251,-0.09272 -1.226784,-0.153893 -1.85438,-0.179513 V 50.067382 Z M 64.920536,73.09394 c -2.6953,-5.741433 -8.531719,-9.727131 -15.282604,-9.727131 -6.751757,0 -12.588872,3.986918 -15.283649,9.729397 1.18025,-7.371685 7.584137,-13.02249 15.284172,-13.02249 7.698467,0 14.101133,5.649586 15.282081,13.020224 z M 48.940448,50.067382 v 8.627574 c -2.085132,0.08522 -4.073014,0.552306 -5.897766,1.330134 v -1.971499 c 2.257499,-0.02893 3.444895,-0.492177 3.619702,-1.416404 v -3.49e-4 l 6.97e-4,1.75e-4 1.241947,-6.569631 z m -2.446945,-4.492167 c 0.406255,0.23232 0.65095,0.431005 0.733908,0.570605 l -0.146746,0.776087 C 46.828476,46.751806 46.564087,46.60471 46.322007,46.482711 Z m -5.86291,-1.928974 c 1.953025,0.399807 3.472258,0.87386 4.560137,1.313404 l -0.179861,0.951241 C 43.727792,45.415397 42.146514,44.968011 40.44655,44.619442 Z m -6.104292,-0.651995 c 1.148705,-0.03033 2.739742,0.06431 4.733375,0.39667 l -0.18387,0.973201 C 37.3497,44.076548 35.709514,43.929627 34.347311,43.941304 Z m -2.08461,0.356584 c 0.103177,-0.08017 0.318591,-0.157727 0.639796,-0.220469 l -0.168532,0.891463 c -0.200078,0.02475 -0.409741,0.05855 -0.61801,0.105092 z m -0.443029,2.344641 c 0.455229,-0.358328 3.126304,-0.66803 7.621433,0.181778 4.496873,0.849982 6.870793,2.113367 7.163939,2.613212 l -0.03451,0.182825 h -1.385731 c -0.384993,0 -0.697136,0.312141 -0.697136,0.697135 0,0.384993 0.312143,0.697135 0.697136,0.697135 h 1.122214 l -0.910982,4.818601 c -0.537491,-0.362511 -1.132671,-0.620799 -1.442374,-0.754998 -1.506509,-0.652693 -3.551556,-1.242121 -5.758338,-1.659357 -1.934028,-0.365473 -3.848711,-0.566771 -5.391472,-0.566771 -0.886407,0 -1.615612,0.06344 -2.193885,0.190841 z m 0.984181,7.603831 c 1.458407,0 3.281068,0.192583 5.132311,0.542546 4.228301,0.799266 6.580785,1.964353 7.089868,2.515787 -0.276937,0.126182 -0.978082,0.304649 -2.38769,0.304649 -1.458581,0 -3.281416,-0.192584 -5.132484,-0.542546 -4.227953,-0.799266 -6.580611,-1.964354 -7.089694,-2.515614 0.276937,-0.126355 0.978081,-0.304822 2.387689,-0.304822 z M 25.80653,50.250554 c 1.021478,-0.124613 2.348824,-0.232668 3.967572,-0.293668 l -0.170798,0.903662 c -1.541366,-0.06187 -2.811547,-0.16679 -3.796774,-0.286871 z m 0,1.728025 c 0.431876,0.05002 0.897213,0.09516 1.390089,0.134896 v 0.969018 c 0,0.384993 0.312142,0.697135 0.697135,0.697135 0.384993,0 0.697135,-0.312142 0.697135,-0.697135 v -0.874905 c 0.246438,0.0136 0.496012,0.02632 0.750815,0.0373 l -0.203912,1.078991 v 0 3.49e-4 c -0.246263,1.30312 1.843226,2.208525 2.529905,2.506028 1.506509,0.652692 3.551382,1.24212 5.758165,1.659356 1.470781,0.277983 2.929363,0.460284 4.222723,0.531915 v 2.675257 c -2.706454,1.461196 -4.971273,3.638873 -6.536342,6.279099 -0.825234,0.02771 -1.67086,0.04253 -2.521713,0.04253 -2.846927,0 -5.173268,-0.149536 -6.784,-0.344385 z m 0,28.897659 v -3.450123 l 2.4459,2.133408 z m 6.957935,-5.324721 c 0,0 6.97e-4,4.575998 6.97e-4,4.687888 0,0.492526 0.02248,0.979649 0.06396,1.461544 l -7.022596,-6.125032 v -7.497866 c 1.844621,0.215937 4.241721,0.334625 6.784,0.334625 0.594308,0 1.185827,-0.0075 1.770898,-0.02092 -1.023569,2.174887 -1.596963,4.601442 -1.596963,7.159754 z m 16.873467,20.166386 c -8.53503,0 -15.478673,-6.943643 -15.478673,-15.478498 0,-8.534855 6.943643,-15.478499 15.478673,-15.478499 8.534855,0 15.478499,6.943644 15.478499,15.478499 0,8.534855 -6.943644,15.478498 -15.478499,15.478498 z M 73.86705,80.806002 71.551165,79.559175 73.86705,77.539748 Z m 0.697134,-45.747064 c -0.384992,0 -0.697134,0.312142 -0.697134,0.697135 v 2.793248 c -0.92876,0.06936 -1.843401,0.104744 -2.729635,0.104744 h -5.23e-4 c -5.494996,0 -7.467889,-1.24369 -7.524183,-1.810984 -0.10701,-1.078642 4.099157,-3.143034 10.682556,-3.796425 1.260072,-0.125136 2.503413,-0.188401 3.695689,-0.188401 5.495519,0 7.468587,1.24369 7.52488,1.810984 0.104571,1.055114 -3.91825,3.05206 -10.254514,3.750415 v -2.663581 c 0,-0.384993 -0.312142,-0.697135 -0.697136,-0.697135 z m 0.697136,45.747064 v -3.26608 l 2.31571,2.019427 z"
     id="path1-7"
     style="stroke-width:0.174284"
     inkscape:label="drums"
     sodipodi:nodetypes="cccccscssscccsscccssccsssscccccccccccsccccccscccccssscsccccccscccsscccsscccsssccccccsccsccscccccssscccscccccscccsccsssccccccccccccccccccccccccccccccsccsccccccsssccscccssscccccccccsccccccccccccccscccccccccscsccccccccccccccccccccccccccccccccccsssccccsccsccsccscccccccssscccccsccccscccccccscccscscsssssccccsscssccsccsscccc" /><ellipse
     cx="51.461716"
     cy="14.324368"
     rx="7.8670001"
     ry="8.0620003"
     style="display:inline;fill:#ffffff;stroke:#000000;stroke-width:1.8;stroke-linecap:round;stroke-linejoin:round;stroke-miterlimit:4.7;stroke-dasharray:none"
     id="ellipse3" /><path
     style="color:#000000;fill:#000000;stroke-linecap:round;stroke-linejoin:round;stroke-miterlimit:4.7;-inkscape-stroke:none"
     d="m 77.273437,10.15625 c -0.371264,0.142908 -0.670554,0.427444 -0.832031,0.791016 l -2.780951,6.242838 -1.162513,2.609676 -1.943255,4.362329 -5.805711,0.523251 c 0,0 -3.485567,-3.501248 -6.422629,0.620818 l -6.386894,0.533666 c -0.02392,-0.0071 -0.04802,-0.01362 -0.07227,-0.01953 l -4.980462,-0.332557 c -2.413436,-3.37881 -4.458364,-1.742396 -5.750773,-0.787138 L 36.93862,23.591302 23.972656,14.560547 c -0.68763,-0.462357 -1.619896,-0.279577 -2.082031,0.408203 -0.461974,0.688139 -0.278296,1.620524 0.410156,2.082031 0,0 14.030441,9.901569 14.479974,10.098239 0.449534,0.196671 10.43435,1.368024 14.885261,1.665433 0.01045,-0.0032 0.02087,-0.0064 0.03125,-0.0098 0.0247,0.02166 0.0501,0.04251 0.07617,0.0625 l 8.348474,-0.751945 5.13974,-0.462936 6.439522,-0.580006 c 0.541377,-0.04948 1.013624,-0.38797 1.234375,-0.884766 l 6.246094,-14.019531 c 0.337035,-0.756696 -0.0031,-1.643345 -0.759766,-1.980469 -0.363496,-0.162412 -0.776648,-0.173655 -1.148438,-0.03125 z"
     id="path7"
     sodipodi:nodetypes="ccccccccccccccczcccccccccc" /><path
     style="color:#000000;fill:#000000;stroke-linecap:round;stroke-linejoin:round;stroke-miterlimit:4.7;-inkscape-stroke:none"
     d="m 61.542353,3.410157 c -0.47673,-0.2797182 -1.593134,-0.2050789 -1.593134,-0.2050789 0,0 0.493953,0.9425313 0.969828,1.2216451 4.79809,2.7646138 17.721578,10.8955428 17.721578,10.8955428 0.47673,0.279719 1.08997,0.119629 1.369141,-0.357422 0.279719,-0.47673 0.119629,-1.08997 -0.357422,-1.369141 0,0 -12.85494,-6.9411232 -18.109991,-10.185546 z M 37.776038,3.7907474 C 37.490476,3.8988096 22.160156,18.521484 22.160156,18.521484 c -0.40069,0.378876 -0.419041,1.010613 -0.04102,1.41211 0.37853,0.402542 1.011789,0.421785 1.414062,0.04297 C 25.822545,16.774676 37.944064,5.5874799 38.583221,4.3769415 39.222378,3.166403 38.061599,3.6826852 37.776038,3.7907474 Z"
     id="path35"
     sodipodi:nodetypes="ccccccczccczz" /><circle
     style="fill:#000000;fill-opacity:0.941704;stroke:none;stroke-width:2.24061;stroke-linecap:round;stroke-linejoin:round;stroke-miterlimit:4.7;stroke-dasharray:none;stroke-opacity:1"
     id="path55-9"
     cx="60.01675"
     cy="3.140553"
     r="0.63524204" /><path
     id="path36"
     style="fill:none;fill-opacity:0.941704;stroke:#070707;stroke-width:1.1;stroke-linecap:round;stroke-linejoin:round;stroke-miterlimit:4.7;stroke-dasharray:none;stroke-opacity:1"
     d="m 53.505859,1.3828125 c 0,0 -1.01616,0.1846929 -3.691406,4.3359375 l 1.568359,-1.8417969 z m -3.230468,0.3691406 -1.660157,4.4296875 z m -4.796875,0.8300781 c 0,0 -2.01e-4,-0.091433 2.029296,3.4140626 z M 54.796875,2.0292969 51.9375,5.8125 Z m 2.767578,0.2773437 -3.505859,3.5976563 z M 58.486328,3.875 54.980469,6.6425781 Z m -15.498047,0.2753906 4.058594,2.4921875 z m 16.144531,1.3847656 -2.767578,1.4765626 z m -18.265624,0.6464844 5.626953,1.1992188 z m 20.386718,0.7363282 -4.335937,0.9238281 z m -15.40625,1.5683593 -6.08789,0.4628907 z m 12.638672,0.1855469 3.875,0.4609375 c 0,0 -5.05e-4,-0.091938 -3.875,-0.4609375 z m -18.542969,1.751953 h 3.597657 z m 19.28125,0 4.427735,0.646484 z m -0.36914,1.384766 3.966797,1.9375 z m -15.867188,0.0918 -2.490234,0.646484 z m -0.0918,2.121093 c -2.098684,1.049342 -2.291506,1.182823 -2.30664,1.199219 z m 16.419922,0.460938 2.675782,1.015625 z m -15.589844,1.384766 c -2.213997,1.475998 -2.214843,1.568359 -2.214843,1.568359 z"
     sodipodi:nodetypes="cccccccccccccccccccccccccccccccccccccccccccccccccccccccccc" /><circle
     style="fill:#000000;fill-opacity:0.941704;stroke:none;stroke-width:2.24061;stroke-linecap:round;stroke-linejoin:round;stroke-miterlimit:4.7;stroke-dasharray:none;stroke-opacity:1"
     id="path55"
     cx="38.889221"
     cy="3.4529488"
     r="0.63524204" /><path
     id="path56"
     style="fill-opacity:0.941704;stroke-width:1.23054;stroke-linecap:round;stroke-linejoin:round;stroke-miterlimit:4.7"
     d="m 50.558154,13.804848 c 0,1.460919 -1.170344,2.64523 -2.614035,2.64523 -1.443692,0 -2.614036,-1.184309 -2.614036,-2.64523 0,-1.460921 1.170344,-1.2083 2.614036,-1.208299 1.443693,0 2.614035,-0.252622 2.614035,1.208299 z"
     sodipodi:nodetypes="sssss" /><path
     id="path57"
     style="fill-opacity:0.941704;stroke-width:1.23054;stroke-linecap:round;stroke-linejoin:round;stroke-miterlimit:4.7"
     d="m 56.113667,13.517494 c 0,1.460919 -1.170344,2.64523 -2.614035,2.64523 -1.443692,0 -2.614036,-1.184309 -2.614036,-2.64523 0,-1.460921 1.170344,-1.2083 2.614036,-1.208299 1.443693,0 2.614035,-0.252622 2.614035,1.208299 z"
     sodipodi:nodetypes="sssss" /></svg>
