<?xml version="1.0" encoding="UTF-8" standalone="no"?>
<svg
   xml:space="preserve"
   width="55"
   height="100"
   version="1.1"
   id="svg7"
   sodipodi:docname="human_alto_sax_1.svg"
   inkscape:version="1.3.2 (091e20e, 2023-11-25)"
   xmlns:inkscape="http://www.inkscape.org/namespaces/inkscape"
   xmlns:sodipodi="http://sodipodi.sourceforge.net/DTD/sodipodi-0.dtd"
   xmlns="http://www.w3.org/2000/svg"
   xmlns:svg="http://www.w3.org/2000/svg"><defs
     id="defs7" /><sodipodi:namedview
     id="namedview7"
     pagecolor="#ffffff"
     bordercolor="#000000"
     borderopacity="0.25"
     inkscape:showpageshadow="2"
     inkscape:pageopacity="0.0"
     inkscape:pagecheckerboard="0"
     inkscape:deskcolor="#d1d1d1"
     inkscape:current-layer="g5" /><g
     id="g5"
     transform="matrix(1.0385811,0,0,1.0378199,-31.480036,-5.2812466)"
     style="display:inline;stroke-width:0.963205"><path
       id="path1"
       style="display:inline;fill:none;stroke:#000000;stroke-width:2.88962;stroke-linecap:round;stroke-linejoin:round;stroke-miterlimit:4.7;stroke-dasharray:none;stroke-opacity:1"
       transform="translate(-0.783,4.782)"
       d="m 58.769116,28.699178 1.062739,18.701482 16.204184,1.723992 m 4.375094,34.649535 -7.340732,-0.485767 5.173415,-18.320243 -25.766125,-8.90455 -11.589658,16.564058 0.465027,18.36874 -6.620089,1.414481 M 58.757628,28.238018 52.240265,56.780622"
       inkscape:label="body" /><g
       id="g24"
       transform="matrix(0.54390585,0.27650619,-0.27650619,0.54390585,51.638775,17.142024)"
       style="display:inline;stroke-width:1.57863"
       inkscape:label="sax"><path
         style="color:#000000;display:inline;fill:#ffffff;fill-opacity:1;stroke-width:1.57863;-inkscape-stroke:none"
         d="m 45.298828,6.0683594 c -0.03171,0.1274507 -0.06437,0.2546692 -0.09961,0.3808594 -0.06248,0.2171231 -0.160986,0.4187952 -0.259766,0.6210937 -0.110477,0.2193931 -0.226728,0.4377034 -0.349609,0.6503906 -0.104038,0.1713437 -0.197523,0.3471692 -0.289063,0.5253907 -0.05171,0.099645 -0.100655,0.2011514 -0.152343,0.3007812 -0.02071,0.041537 -0.04268,0.082236 -0.06445,0.1230469 0.249099,0.073884 0.451507,0.1281162 0.548828,0.1191406 0.720357,-0.066437 10.534128,4.2631975 11.853516,6.4707035 0.580949,0.97196 0.221716,2.556416 0.128906,3.089843 -2.873432,16.312665 -6.278701,34.623047 -9.427734,50.210938 -0.07736,0.201592 -0.334225,0.187439 -1.017578,-0.05273 -1.065167,-0.374375 -1.778052,-0.191948 -2.134766,0.544922 -0.611763,1.263736 0.07945,0.855908 1.585938,0.728516 4.143971,-0.350423 -6.895893,23.514161 4.603515,26.355469 4.343699,0.925441 9.654395,0.365417 11.828125,-4.0625 2.984894,-6.650997 2.917865,-14.435705 5.632813,-21.210938 2.18442,-6.233994 3.343917,-6.848097 5.546875,-7.302734 0.285097,0.171358 3.742177,2.221188 1.623047,-0.400391 -2.194363,-2.714658 -11.019871,-10.243572 -12.240235,-10.294922 -1.234155,-0.05195 0.68392,1.478029 0.66211,2.441407 -8.747094,17.241672 -5.004976,24.504432 -7.916016,30.832031 -1.128024,2.451935 -4.042426,2.300624 -3.986328,-0.148438 -0.17098,-1.240508 5.044796,-35.485711 7.113281,-53.285156 0.707846,-6.091051 2.734778,-16.52796 1.8125,-18.30664 -1.07392,-3.048389 -4.49025,-4.302292 -4.623047,-4.332032 -0.251735,-0.05638 -0.276863,-0.097821 -0.220703,-0.3535154 0.113041,-0.5146706 -0.561547,-0.807691 -0.935547,-0.40625 -0.339489,0.3643995 -2.31452,-1.7377731 -1.890625,-0.048828 0.08784,0.3499718 -0.06062,0.3750025 -0.660156,0.109375 C 45.553373,6.5239574 49.262009,8.0231647 46.130859,6.7167969 45.853286,6.4999789 45.576244,6.2836287 45.298828,6.0683594 Z"
         id="path24"
         inkscape:label="fill" /><path
         id="path21"
         style="color:#000000;fill:#000000;stroke-width:1.57863;-inkscape-stroke:none"
         d="m 35.358879,3.1095356 c -0.0604,0.033741 -1.078234,0.6362373 0.582033,2.0488282 0.549715,0.467708 1.213436,0.8904183 2.085938,1.3945312 -0.03072,0.1335334 -0.07723,0.2434622 -0.06445,0.4296875 0.05127,0.7473871 1.045206,1.1418141 1.916015,1.2285156 0.01909,0.0019 0.0091,-2.795e-4 0.02734,0.00195 0.04696,0.1987078 0.02396,0.4285674 0.144531,0.5625 0.490881,0.5452719 1.949363,1.0353591 2.353516,0.0625 -0.01827,0.011891 0.0016,-0.00226 0.0625,-0.00781 0.121853,-0.011111 0.376791,0.01875 0.648437,0.083984 1.816477,0.4362119 2.584836,0.7151961 3.296879,1.0097653 3.894325,1.6110676 8.864891,4.2873576 9.644532,5.5917976 0.401721,0.88709 0.22465,1.822599 0.06641,2.748047 -2.855143,16.208835 -6.235601,34.369401 -9.367188,49.888671 -0.102291,-0.0218 -0.190035,-0.03639 -0.419921,-0.117187 -0.589472,-0.207182 -1.129514,-0.282309 -1.623047,-0.15625 -1.036877,0.26484 -1.406923,1.459004 -1.400391,1.847656 0.405953,1.056661 1.385016,0.667082 2.351563,0.552735 0.14494,-0.01226 0.15564,0.0031 0.205078,0.05469 0.858229,5.660199 -2.869047,13.430211 -1.117188,20.556641 0.674484,2.743735 2.302349,4.97853 5.353516,5.732422 l 0.0078,0.002 h 0.0078 c 1.867185,0.39781 9.467485,1.604501 12.380859,-4.330078 l 0.0039,-0.0078 0.0039,-0.0078 c 3.244453,-7.229354 4.08754,-21.910731 8.324218,-26.91211 0.720272,-0.850275 1.37709,-1.063793 2.355469,-1.273437 1.244599,0.744436 2.090693,1.087752 2.564453,0.771484 0.553989,-0.773593 -0.0013,-1.333982 -0.509765,-2.019531 C 73.959679,61.257463 63.776639,51.45814 62.036613,52.484536 c -1.03348,0.609401 0.638635,2.030136 0.720704,2.759765 -4.327686,8.579999 -5.60059,14.748276 -6.123047,19.517578 -0.526017,4.801791 -0.335405,8.144072 -1.726563,11.167969 -0.49405,1.073897 -1.337004,1.499815 -1.960937,1.472656 -0.311968,-0.01358 -0.566732,-0.127688 -0.75586,-0.341796 -0.189081,-0.214114 -0.328158,-0.545525 -0.316406,-1.058594 l 0.002,-0.04102 -0.0059,-0.03906 c 0.01167,0.08468 0.0027,-0.17935 0.03125,-0.494141 0.02854,-0.31479 0.0758,-0.750635 0.140625,-1.292969 0.129654,-1.084667 0.327746,-2.593555 0.576172,-4.423828 0.496849,-3.660544 1.198247,-8.613179 1.96875,-14.083984 1.540996,-10.941609 3.360925,-23.95223 4.396484,-32.863281 0.351386,-3.023692 1.03606,-7.158833 1.517578,-10.763672 0.849974,-6.363254 0.516633,-7.273766 0.244141,-7.810547 -0.591508,-1.633439 -1.775755,-2.771505 -2.824219,-3.5 C 57.391774,10.321626 56.895169,10.054233 56.519041,9.8751586 56.330977,9.7856216 56.172769,9.7192405 56.054198,9.6720336 55.994908,9.6484296 55.945676,9.6295586 55.90576,9.6153926 55.87889,9.6058526 55.85297,9.5978736 55.82568,9.5900016 55.78758,9.2234486 55.673017,8.8385261 55.370602,8.7071891 55.056292,8.570687 54.663992,8.6038753 54.349117,8.814611 54.316307,8.801471 54.304957,8.799772 54.255367,8.773595 53.927533,8.6005479 53.510571,8.2895576 53.112785,8.1544575 52.961725,8.1031525 52.779562,8.0459618 52.532707,8.1329735 52.117208,8.232073 52.207601,8.6234748 52.095212,8.875161 49.043434,7.5217119 48.292606,7.1532769 48.056145,7.0255513 47.824123,6.9002247 47.781674,6.867983 46.388176,6.2853169 44.978048,5.1817867 43.546564,3.9805809 41.663567,3.4318013 40.756697,3.0484921 39.785418,3.156989 38.825676,3.1915669 37.31602,3.2476703 36.000082,2.7513411 35.358879,3.1095356 Z m 9.533203,3.2773438 c 0.308142,0.2372228 0.615928,0.4795256 0.929688,0.7246094 0.198603,0.148947 0.929119,0.3472995 1.757818,0.7949226 1.670748,0.7151957 3.388639,1.6314407 5.060547,2.1308596 0.07337,0.02192 0.609544,-0.1341003 0.480464,-0.7714846 0.330155,0.2579735 0.724037,0.3902968 1.09375,0.5625 0.166345,0.037492 0.465308,0.040083 0.671875,-0.1816406 0.04251,-0.045628 0.06332,-0.030667 0.08398,-0.021484 -0.03411,0.1472261 -0.107618,0.3396124 0.05664,0.6035152 0.08479,0.136224 0.213452,0.214797 0.304687,0.253907 0.09123,0.03911 0.162378,0.0557 0.236328,0.07226 -0.06296,-0.0141 -0.02133,-0.0051 0.0039,0.0039 0.02524,0.009 0.06435,0.02154 0.113281,0.04102 0.09787,0.03897 0.236625,0.09986 0.404297,0.179688 0.335341,0.159656 0.786411,0.402167 1.261719,0.732421 0.950617,0.66051 1.989628,1.664998 2.478515,3.052735 l 0.0098,0.0332 0.01758,0.03125 c 0.409885,0.790499 0.02234,4.470269 -0.347656,7.240234 -0.478339,3.581032 -1.161119,7.709991 -1.517578,10.777344 -1.032923,8.888376 -2.853624,21.900872 -4.394532,32.841797 -0.770453,5.470463 -1.471222,10.422353 -1.96875,14.087891 -0.248764,1.832768 -0.447226,3.344371 -0.578125,4.439453 -0.06545,0.547541 -0.11445,0.990441 -0.144531,1.322265 -0.02772,0.305747 -0.04521,0.45473 -0.02344,0.664063 -0.0102,0.699053 0.186937,1.299955 0.558593,1.720703 0.376733,0.426493 0.910398,0.655722 1.460938,0.679687 1.101079,0.04793 2.280091,-0.676649 2.914062,-2.054687 1.51988,-3.303695 1.295223,-6.756493 1.8125,-11.478516 0.517279,-4.722023 1.746042,-10.76603 6.09375,-19.335937 0.127365,-0.730559 -0.350429,-1.362806 -0.726562,-1.966797 1.288174,0.6053 9.458657,7.222426 11.628906,10.128906 -0.471195,-0.225872 -1.086482,-0.547494 -1.179687,-0.603515 -0.214757,-0.129853 -2.044174,0.05788 -3.375,1.628906 -4.464495,5.270316 -5.368793,20.218725 -8.470704,27.138672 -2.573726,5.229582 -9.400219,4.184617 -11.255859,3.791015 -2.698532,-0.666761 -4.001847,-2.480968 -4.621094,-5 -1.620992,-6.594033 1.797127,-15.295205 1.306641,-20.046875 -0.06895,-0.367506 -0.189722,-0.700105 -0.439453,-0.960937 -0.670864,-0.480457 -1.396718,-0.320004 -2.16211,-0.22461 0.650502,-0.83544 1.569766,-0.427407 2.451172,-0.21875 0.133046,0.007 0.283649,-0.0026 0.439453,-0.08203 0.155806,-0.07944 0.282738,-0.23832 0.335938,-0.376953 l 0.01563,-0.03906 0.0078,-0.04102 c 3.150225,-15.593791 6.55564,-33.908449 9.429688,-50.224609 0.294983,-1.192511 0.249134,-2.29983 -0.191406,-3.431641 C 55.659197,12.902045 48.522854,9.7151872 46.794441,9.0001508 46.099939,8.6292194 45.097366,8.3865882 44.526867,8.2735887 43.54171,7.8784364 44.444237,7.3585693 44.892101,6.38687 Z"
         sodipodi:nodetypes="sscsscscssssccsscccsscccccscccccsssccccsssssscsssscscssscsccssccsscsscsscsssscccsssssscssssccccsccsccccscccccsscc"
         inkscape:label="outline" /><path
         id="ellipse11"
         style="fill:#ffffff;stroke:#000000;stroke-width:1.14924;stroke-linecap:round;stroke-linejoin:round;stroke-miterlimit:4.7"
         inkscape:transform-center-x="-2.7617732"
         inkscape:transform-center-y="-0.35337685"
         d="m 58.679922,41.639378 a 1.4429492,1.9239318 0 0 1 -1.442949,1.923931 1.4429492,1.9239318 0 0 1 -1.442949,-1.923931 1.4429492,1.9239318 0 0 1 1.442949,-1.923932 1.4429492,1.9239318 0 0 1 1.442949,1.923932 z m -0.549694,4.672405 a 1.4429492,1.9239318 0 0 1 -1.442949,1.923932 1.4429492,1.9239318 0 0 1 -1.442949,-1.923932 1.4429492,1.9239318 0 0 1 1.442949,-1.923932 1.4429492,1.9239318 0 0 1 1.442949,1.923932 z m -0.432396,4.549213 a 1.6147288,2.0957115 0 0 1 -1.614729,2.095712 1.6147288,2.0957115 0 0 1 -1.614729,-2.095712 1.6147288,2.0957115 0 0 1 1.614729,-2.095711 1.6147288,2.0957115 0 0 1 1.614729,2.095711 z m -0.873128,5.929344 a 1.7521526,2.1644232 0 0 1 -1.752152,2.164424 1.7521526,2.1644232 0 0 1 -1.752153,-2.164424 1.7521526,2.1644232 0 0 1 1.752153,-2.164423 1.7521526,2.1644232 0 0 1 1.752152,2.164423 z m -0.950184,5.2221 a 1.7521526,2.1644232 0 0 1 -1.752152,2.164423 1.7521526,2.1644232 0 0 1 -1.752153,-2.164423 1.7521526,2.1644232 0 0 1 1.752153,-2.164423 1.7521526,2.1644232 0 0 1 1.752152,2.164423 z m -0.727365,5.53474 a 2.027,2.4736266 0 0 1 -2.027,2.473627 2.027,2.4736266 0 0 1 -2.027,-2.473627 2.027,2.4736266 0 0 1 2.027,-2.473626 2.027,2.4736266 0 0 1 2.027,2.473626 z m 4.42602,-30.099224 a 1.4429492,1.9239318 0 0 1 -1.442949,1.923932 1.4429492,1.9239318 0 0 1 -1.442949,-1.923932 1.4429492,1.9239318 0 0 1 1.442949,-1.923932 1.4429492,1.9239318 0 0 1 1.442949,1.923932 z m -5.35952,36.382923 a 2.2674913,2.5766945 0 0 1 -2.267492,2.576695 2.2674913,2.5766945 0 0 1 -2.267491,-2.576695 2.2674913,2.5766945 0 0 1 2.267491,-2.576694 2.2674913,2.5766945 0 0 1 2.267492,2.576694 z m -0.618406,6.046639 a 2.5423388,3.1263893 0 0 1 -2.542339,3.126389 2.5423388,3.1263893 0 0 1 -2.542339,-3.126389 2.5423388,3.1263893 0 0 1 2.542339,-3.12639 2.5423388,3.1263893 0 0 1 2.542339,3.12639 z"
         inkscape:label="ellipse11" /><path
         id="path19"
         style="display:inline;fill:#003399;fill-opacity:1;stroke:#000000;stroke-width:1.14924;stroke-linecap:round;stroke-linejoin:round;stroke-miterlimit:4.7;stroke-dasharray:none;stroke-opacity:1"
         d="m 43.950517,8.4723888 1.059049,-2.4846909 m 8.510666,75.8258991 1.273348,0.161474 m 0.925219,-16.793317 1.227771,0.107649 m 0.818103,-14.306606 1.343133,0.181737 M 54.395417,85.28621 59.452604,48.646079 M 56.499268,59.084388 53.146591,83.945634 M 63.32196,55.019163 c 0,0 2.89804,5.783759 9.95064,8.384718" /></g><path
       d="M 65.206267,56.911907 44.143831,43.996412 58.687041,28.309253"
       style="display:inline;fill:none;stroke:#000000;stroke-width:2.88963;stroke-linecap:round;stroke-linejoin:round;stroke-miterlimit:4.7;stroke-dasharray:none;stroke-opacity:1"
       transform="translate(-0.783,4.782)"
       id="path4"
       sodipodi:nodetypes="ccc"
       inkscape:label="right hand" /><g
       id="g1"
       inkscape:label="head"
       transform="matrix(0.81317544,0,0,0.8090891,10.714279,5.8276864)"
       style="display:inline;stroke-width:1.03082"><ellipse
         style="fill:#000000;stroke:#000000;stroke-width:2.06164;stroke-linecap:butt;stroke-linejoin:miter;stroke-miterlimit:5;stroke-dasharray:none"
         id="ellipse5"
         cx="61.417423"
         cy="17.117832"
         rx="10.980283"
         ry="10.732835" /><ellipse
         style="fill:#ffffff;stroke:#000000;stroke-width:2.06163;stroke-linecap:butt;stroke-linejoin:miter;stroke-miterlimit:5;stroke-dasharray:none"
         id="path7"
         cx="61.357918"
         cy="19.995121"
         rx="9.6214037"
         ry="9.4020233" /><path
         style="fill:#000000;stroke:#000000;stroke-width:0.750433;stroke-linecap:round;stroke-linejoin:round;stroke-miterlimit:4.7"
         d="m 59.31094,10.037236 c 5.815234,2.373565 9.207615,11.049352 9.207615,11.049352 1.661496,-5.4592 -0.502706,-8.694826 -0.502706,-8.694826 z"
         id="path5"
         sodipodi:nodetypes="cccc" /></g></g></svg>
