<?xml version="1.0" encoding="UTF-8" standalone="no"?>
<svg
   xml:space="preserve"
   width="45"
   height="95"
   version="1.1"
   id="svg8"
   sodipodi:docname="human_dj_1.svg"
   inkscape:version="1.4 (e7c3feb1, 2024-10-09)"
   xmlns:inkscape="http://www.inkscape.org/namespaces/inkscape"
   xmlns:sodipodi="http://sodipodi.sourceforge.net/DTD/sodipodi-0.dtd"
   xmlns="http://www.w3.org/2000/svg"
   xmlns:svg="http://www.w3.org/2000/svg"><defs
   id="defs8" /><sodipodi:namedview
   id="namedview8"
   pagecolor="#ffffff"
   bordercolor="#000000"
   borderopacity="0.25"
   inkscape:showpageshadow="2"
   inkscape:pageopacity="0.0"
   inkscape:pagecheckerboard="0"
   inkscape:deskcolor="#d1d1d1"
   inkscape:current-layer="svg8" />
    <path
   d="m 20.161,26.930527 20.986,15.447 -16.912,0.302"
   style="display:inline;fill:none;stroke:#000000;stroke-width:3;stroke-linecap:round;stroke-linejoin:round;stroke-miterlimit:4.7;stroke-dasharray:none;stroke-opacity:1"
   id="path1" />
    <g
   style="display:inline;stroke-width:1.83867;stroke-dasharray:none"
   id="g3"
   transform="translate(-27.365,-3.9764729)">
        <path
   d="m 44.242,23.499 1.19,18.313"
   style="fill:none;stroke:#000000;stroke-width:1.83867;stroke-linecap:round;stroke-linejoin:round;stroke-miterlimit:4.7;stroke-dasharray:none;stroke-opacity:1"
   transform="matrix(1.63742,0,0,1.62584,-25.39,-7.298)"
   id="path2" />
        <path
   d="m 56.195,62.957 -3.126,-1.19 -0.562,-10.43 -6.93,-9.966 -7.078,10.188 0.284,11.298 -4.043,0.87"
   style="display:inline;fill:none;stroke:#000000;stroke-width:1.83867;stroke-linecap:round;stroke-linejoin:round;stroke-miterlimit:4.7;stroke-dasharray:none;stroke-opacity:1"
   transform="matrix(1.63742,0,0,1.62584,-25.39,-7.298)"
   id="path3" />
    </g>
    <ellipse
   cx="17.822002"
   cy="14.293528"
   rx="7.8670001"
   ry="8.0620003"
   style="display:inline;fill:#ffffff;stroke:#000000;stroke-width:2.5;stroke-linecap:round;stroke-linejoin:round;stroke-miterlimit:4.7;stroke-dasharray:none"
   id="ellipse3" />
    <g
   style="display:inline;stroke-width:1.02792"
   transform="matrix(0.9502,0,0,0.99601,-24.815,-4.8814729)"
   id="g5">
        <ellipse
   cx="33.308998"
   cy="19.040001"
   rx="0.43200001"
   ry="2.398"
   style="fill:#ffffff;stroke:#000000;stroke-width:2.56981;stroke-linecap:round;stroke-linejoin:round;stroke-miterlimit:4.7;stroke-dasharray:none"
   id="ellipse4" />
        <ellipse
   cx="56.448002"
   cy="18.476"
   rx="0.43200001"
   ry="2.398"
   style="fill:#ffffff;stroke:#000000;stroke-width:2.56981;stroke-linecap:round;stroke-linejoin:round;stroke-miterlimit:4.7;stroke-dasharray:none"
   id="ellipse5" />
        <path
   d="m 33.533,18.164 c -0.506,-5.91 5.102,-10.741 11.396,-10.741 6.293,0 11.735,4.818 11.395,10.74"
   style="fill:none;stroke:#000000;stroke-width:1.02792;stroke-linecap:round;stroke-linejoin:round;stroke-miterlimit:4.7"
   id="path5" />
    </g>
    <rect
   width="39.993"
   height="21.488001"
   x="2.1960011"
   y="46.298527"
   rx="1"
   ry="1"
   style="fill:#ffffff;stroke:none;stroke-width:0.999996;stroke-linecap:round;stroke-linejoin:round;stroke-miterlimit:4.7;stroke-dasharray:none"
   id="rect5" />
    <path
   d="M 41.463,68.390527 H 3.56 c -0.86,0 -1.56,-0.7 -1.56,-1.56 v -19.7 c 0,-0.86 0.7,-1.56 1.56,-1.56 h 37.903 c 0.86,0 1.56,0.7 1.56,1.56 v 19.7 c 0,0.86 -0.7,1.56 -1.56,1.56 m -14.493,-0.74 h 14.493 a 0.82,0.82 0 0 0 0.82,-0.82 v -19.7 a 0.82,0.82 0 0 0 -0.82,-0.82 H 26.97 Z m -8.175,0 h 7.434 v -21.34 h -7.434 z m -15.235,-21.34 a 0.82,0.82 0 0 0 -0.82,0.82 v 19.699 c 0,0.451 0.368,0.82 0.82,0.82 h 14.495 v -21.339 z m 21.226,20.766 h -4.548 a 0.37,0.37 0 0 1 -0.37,-0.37 v -2.806 a 0.37,0.37 0 0 1 0.37,-0.37 h 4.548 a 0.37,0.37 0 0 1 0.37,0.37 v 2.806 a 0.37,0.37 0 0 1 -0.37,0.37 m -4.178,-0.74 h 3.807 v -2.066 h -3.807 z m 18.957,0.397 a 0.37,0.37 0 0 1 -0.37,-0.37 v -1.387 a 0.942,0.942 0 0 1 0,-1.73 v -0.942 a 0.3705,0.3705 0 0 1 0.741,0 v 0.942 a 0.942,0.942 0 0 1 0,1.73 v 1.387 a 0.37,0.37 0 0 1 -0.37,0.37 m 0,-2.822 a 0.2,0.2 0 1 0 0,0.4 0.2,0.2 0 0 0 0,-0.4 m -2.295,2.822 h -1.96 a 0.37,0.37 0 0 1 -0.37,-0.37 v -1.437 a 0.37,0.37 0 0 1 0.37,-0.37 h 1.96 a 0.37,0.37 0 0 1 0.37,0.37 v 1.437 a 0.37,0.37 0 0 1 -0.37,0.37 m -1.589,-0.74 h 1.219 v -0.696 h -1.219 z m -1.636,0.74 h -1.96 a 0.37,0.37 0 0 1 -0.37,-0.37 v -1.437 a 0.37,0.37 0 0 1 0.37,-0.37 h 1.96 a 0.37,0.37 0 0 1 0.37,0.37 v 1.437 a 0.37,0.37 0 0 1 -0.37,0.37 m -1.589,-0.74 h 1.218 v -0.696 h -1.218 z m -1.636,0.74 h -1.96 a 0.37,0.37 0 0 1 -0.37,-0.37 v -1.437 a 0.37,0.37 0 0 1 0.37,-0.37 h 1.96 a 0.37,0.37 0 0 1 0.37,0.37 v 1.437 a 0.37,0.37 0 0 1 -0.37,0.37 m -1.59,-0.74 h 1.219 v -0.696 h -1.218 z m -14.264,0.74 a 0.37,0.37 0 0 1 -0.37,-0.37 v -0.942 a 0.943,0.943 0 0 1 0,-1.73 v -1.387 a 0.3705,0.3705 0 0 1 0.741,0 v 1.387 a 0.942,0.942 0 0 1 0,1.73 v 0.942 a 0.37,0.37 0 0 1 -0.37,0.37 m 0,-2.377 a 0.2,0.2 0 1 0 0,0.4 0.2,0.2 0 0 0 0,-0.4 m -2.238,2.377 h -1.959 a 0.37,0.37 0 0 1 -0.37,-0.37 v -1.437 a 0.37,0.37 0 0 1 0.37,-0.37 h 1.96 a 0.37,0.37 0 0 1 0.37,0.37 v 1.437 a 0.37,0.37 0 0 1 -0.37,0.37 m -1.589,-0.74 h 1.219 v -0.696 h -1.219 z m -1.636,0.74 h -1.96 a 0.37,0.37 0 0 1 -0.37,-0.37 v -1.437 a 0.37,0.37 0 0 1 0.37,-0.37 h 1.96 a 0.37,0.37 0 0 1 0.37,0.37 v 1.437 a 0.37,0.37 0 0 1 -0.37,0.37 m -1.589,-0.74 h 1.219 v -0.696 H 7.917 Z m -1.636,0.74 h -1.96 a 0.37,0.37 0 0 1 -0.37,-0.37 v -1.437 a 0.37,0.37 0 0 1 0.37,-0.37 h 1.96 a 0.37,0.37 0 0 1 0.37,0.37 v 1.437 a 0.37,0.37 0 0 1 -0.37,0.37 m -1.59,-0.74 h 1.22 v -0.696 h -1.22 z m 32.582,-1.882 h -1.96 a 0.37,0.37 0 0 1 -0.37,-0.37 v -1.437 a 0.37,0.37 0 0 1 0.37,-0.37 h 1.96 a 0.37,0.37 0 0 1 0.37,0.37 v 1.436 a 0.37,0.37 0 0 1 -0.37,0.37 m -1.589,-0.741 h 1.219 v -0.696 h -1.219 z m -1.636,0.74 h -1.96 a 0.37,0.37 0 0 1 -0.37,-0.37 v -1.436 a 0.37,0.37 0 0 1 0.37,-0.37 h 1.96 a 0.37,0.37 0 0 1 0.37,0.37 v 1.436 a 0.37,0.37 0 0 1 -0.37,0.37 m -1.589,-0.74 h 1.218 v -0.696 h -1.218 z m -1.636,0.74 h -1.96 a 0.37,0.37 0 0 1 -0.37,-0.37 v -1.436 a 0.37,0.37 0 0 1 0.37,-0.37 h 1.96 a 0.37,0.37 0 0 1 0.37,0.37 v 1.436 a 0.37,0.37 0 0 1 -0.37,0.37 m -1.59,-0.74 h 1.219 v -0.696 h -1.218 z m -16.502,0.74 h -1.959 a 0.37,0.37 0 0 1 -0.37,-0.37 v -1.436 a 0.37,0.37 0 0 1 0.37,-0.37 h 1.96 a 0.37,0.37 0 0 1 0.37,0.37 v 1.436 a 0.37,0.37 0 0 1 -0.37,0.37 m -1.589,-0.74 h 1.219 v -0.696 h -1.219 z m -1.636,0.74 h -1.96 a 0.37,0.37 0 0 1 -0.37,-0.37 v -1.436 a 0.37,0.37 0 0 1 0.37,-0.37 h 1.96 a 0.37,0.37 0 0 1 0.37,0.37 v 1.436 a 0.37,0.37 0 0 1 -0.37,0.37 m -1.589,-0.74 h 1.219 v -0.696 H 7.918 Z m -1.636,0.74 h -1.96 a 0.37,0.37 0 0 1 -0.37,-0.37 v -1.436 a 0.37,0.37 0 0 1 0.37,-0.37 h 1.96 a 0.37,0.37 0 0 1 0.37,0.37 v 1.436 a 0.37,0.37 0 0 1 -0.37,0.37 m -1.59,-0.74 h 1.22 v -0.696 h -1.22 z m 20.098,-0.696 a 0.37,0.37 0 0 1 -0.37,-0.37 v -0.46 a 0.943,0.943 0 0 1 0,-1.73 v -1.87 a 0.37,0.37 0 0 1 0.74,0 v 1.87 a 0.942,0.942 0 0 1 0,1.73 v 0.46 a 0.37,0.37 0 0 1 -0.37,0.37 m 0,-1.895 a 0.2,0.2 0 1 0 0,0.4 0.2,0.2 0 0 0 0,-0.4 m -2.274,1.895 a 0.37,0.37 0 0 1 -0.37,-0.37 v -1.387 a 0.942,0.942 0 0 1 0,-1.73 v -0.942 a 0.37,0.37 0 0 1 0.74,0 v 0.942 a 0.942,0.942 0 0 1 0,1.73 v 1.387 a 0.37,0.37 0 0 1 -0.37,0.37 m 0,-2.822 a 0.2,0.2 0 1 0 0,0.4 0.2,0.2 0 0 0 0,-0.4 m -2.275,2.822 a 0.37,0.37 0 0 1 -0.37,-0.37 v -0.942 a 0.942,0.942 0 0 1 0,-1.73 v -1.387 a 0.3705,0.3705 0 0 1 0.741,0 v 1.387 a 0.942,0.942 0 0 1 0,1.73 v 0.942 a 0.37,0.37 0 0 1 -0.37,0.37 m 0,-2.377 a 0.2,0.2 0 1 0 0,0.4 0.2,0.2 0 0 0 0,-0.4 m 14.379,0.56 a 6.733,6.733 0 0 1 -6.726,-6.725 6.733,6.733 0 0 1 6.726,-6.725 6.733,6.733 0 0 1 6.725,6.725 6.733,6.733 0 0 1 -6.725,6.726 m 0,-12.709 a 5.99,5.99 0 0 0 -5.985,5.984 c 0,3.3 2.685,5.985 5.985,5.985 3.3,0 5.984,-2.685 5.984,-5.985 0,-3.3 -2.685,-5.984 -5.984,-5.984 m -24.3,12.71 a 6.733,6.733 0 0 1 -6.726,-6.726 6.733,6.733 0 0 1 6.725,-6.725 6.733,6.733 0 0 1 6.725,6.725 6.733,6.733 0 0 1 -6.725,6.726 m 0,-12.71 a 5.99,5.99 0 0 0 -5.985,5.984 c 0,3.3 2.684,5.985 5.984,5.985 3.3,0 5.984,-2.685 5.984,-5.985 0,-3.3 -2.684,-5.984 -5.984,-5.984 m 24.3,11.29 a 5.31,5.31 0 0 1 -5.305,-5.306 5.31,5.31 0 0 1 5.305,-5.304 0.37,0.37 0 0 1 0,0.74 4.57,4.57 0 0 0 -4.564,4.564 4.57,4.57 0 0 0 4.564,4.564 0.3705,0.3705 0 0 1 0,0.741 m -24.3,0 a 5.31,5.31 0 0 1 -5.306,-5.306 5.31,5.31 0 0 1 5.305,-5.304 0.37,0.37 0 0 1 0,0.74 4.57,4.57 0 0 0 -4.564,4.564 4.57,4.57 0 0 0 4.564,4.564 0.3705,0.3705 0 0 1 0,0.741 m 14.47,-2.655 a 0.37,0.37 0 0 1 -0.37,-0.37 v -2.2 a 0.37,0.37 0 0 1 0.74,0 v 2.2 a 0.37,0.37 0 0 1 -0.37,0.37 m -2.274,0 a 0.37,0.37 0 0 1 -0.37,-0.37 v -2.2 a 0.37,0.37 0 0 1 0.74,0 v 2.2 a 0.37,0.37 0 0 1 -0.37,0.37 m -2.275,0 a 0.37,0.37 0 0 1 -0.37,-0.37 v -2.2 a 0.3705,0.3705 0 0 1 0.741,0 v 2.2 a 0.37,0.37 0 0 1 -0.37,0.37 m 14.379,-0.818 a 1.834,1.834 0 0 1 -1.832,-1.833 c 0,-1.01 0.821,-1.832 1.832,-1.832 1.01,0 1.832,0.822 1.832,1.832 0,1.01 -0.822,1.833 -1.832,1.833 m 0,-2.923 a 1.092,1.092 0 0 0 0,2.182 1.092,1.092 0 0 0 0,-2.182 m -24.3,2.923 a 1.834,1.834 0 0 1 -1.833,-1.833 c 0,-1.01 0.822,-1.832 1.832,-1.832 1.01,0 1.832,0.822 1.832,1.832 0,1.01 -0.822,1.833 -1.832,1.833 m 0,-2.923 a 1.092,1.092 0 0 0 0,2.182 1.092,1.092 0 0 0 0,-2.182 m 14.47,-0.063 a 0.37,0.37 0 0 1 -0.37,-0.371 v -0.053 a 0.37,0.37 0 0 1 0.74,0 v 0.053 a 0.37,0.37 0 0 1 -0.37,0.37 m -2.274,0 a 0.37,0.37 0 0 1 -0.37,-0.371 v -0.053 a 0.37,0.37 0 0 1 0.74,0 v 0.053 a 0.37,0.37 0 0 1 -0.37,0.37 m -2.275,0 a 0.37,0.37 0 0 1 -0.37,-0.371 v -0.053 a 0.3705,0.3705 0 0 1 0.741,0 v 0.053 a 0.37,0.37 0 0 1 -0.37,0.37 m 4.549,-1.679 a 0.37,0.37 0 0 1 -0.37,-0.37 v -0.053 a 0.37,0.37 0 0 1 0.74,0 v 0.053 a 0.37,0.37 0 0 1 -0.37,0.37 m -2.274,0 a 0.37,0.37 0 0 1 -0.37,-0.37 v -0.053 a 0.37,0.37 0 0 1 0.74,0 v 0.053 a 0.37,0.37 0 0 1 -0.37,0.37 m -2.275,0 a 0.37,0.37 0 0 1 -0.37,-0.37 v -0.053 a 0.3705,0.3705 0 0 1 0.741,0 v 0.053 a 0.37,0.37 0 0 1 -0.37,0.37 m 4.549,-1.678 a 0.37,0.37 0 0 1 -0.37,-0.37 v -0.054 a 0.37,0.37 0 0 1 0.74,0 v 0.053 a 0.37,0.37 0 0 1 -0.37,0.371 m -2.274,0 a 0.37,0.37 0 0 1 -0.37,-0.37 v -0.054 a 0.37,0.37 0 0 1 0.74,0 v 0.053 a 0.37,0.37 0 0 1 -0.37,0.371 m -2.275,0 a 0.37,0.37 0 0 1 -0.37,-0.37 v -0.054 a 0.3705,0.3705 0 0 1 0.741,0 v 0.053 a 0.37,0.37 0 0 1 -0.37,0.371 m 4.549,-1.678 a 0.37,0.37 0 0 1 -0.37,-0.37 v -0.054 a 0.37,0.37 0 0 1 0.74,0 v 0.053 a 0.37,0.37 0 0 1 -0.37,0.37 m -2.274,0 a 0.37,0.37 0 0 1 -0.37,-0.37 v -0.054 a 0.37,0.37 0 0 1 0.74,0 v 0.053 a 0.37,0.37 0 0 1 -0.37,0.37 m -2.275,0 a 0.37,0.37 0 0 1 -0.37,-0.37 v -0.054 a 0.3705,0.3705 0 0 1 0.741,0 v 0.053 a 0.37,0.37 0 0 1 -0.37,0.37"
   style="stroke-width:0.999998"
   id="path6" />
    <path
   d="m 15.934,51.957527 -8.39,-8.905 12.382,-16.358"
   style="display:inline;fill:none;stroke:#000000;stroke-width:3.00001;stroke-linecap:round;stroke-linejoin:round;stroke-miterlimit:4.7;stroke-dasharray:none;stroke-opacity:1"
   id="path7" />
    <path
   d="m 18.1,15.783527 c -2.571,-1.759 -3.182,3.272 -5.11,1.758 0.66,2.242 4.945,0.31 5.128,-0.143 0.18,0.473 4.422,2.343 4.985,0.12 -1.913,1.501 -2.878,-3.665 -5.003,-1.734"
   style="fill:#000000;fill-opacity:1;stroke:none;stroke-width:0.874636;stroke-linecap:round;stroke-linejoin:round;stroke-miterlimit:5;stroke-dasharray:none"
   id="path8" />
</svg>
