<svg xmlns="http://www.w3.org/2000/svg" xml:space="preserve" width="100" height="100"><g style="stroke-width:5.11766" transform="translate(5 5)scale(.1954)"><path d="M310.36 239.2a1.2 1.2 0 0 0-1.301.124c-14.767 11.708-14.462 11.553-16.528 12.912a1.203 1.203 0 0 0-.086 1.948c1.58 1.255 4.599 2.572 8.756 4.77 4.158 2.196 9.347 5.154 14.787 9.214 10.882 8.12 22.758 20.623 29.375 40.312 11.205 33.336-.196 68.599-24.402 94.692a1.2 1.2 0 0 0-.32.851c.343 12.73 10.77 22.973 23.582 22.973 13.027 0 23.615-10.588 23.615-23.615V283.256a23.62 23.62 0 0 0-12.781-20.983z" style="stroke-width:5.11766" transform="translate(-10.235)"/><circle cx="246.379" cy="38.895" r="38.895" style="stroke-width:5.11766"/><path d="M132.523 230.027c-2.171 8.637-2.025 17.891 1.112 26.127l.008.018c2.46 6.571 6.704 12.49 12.004 17.213l.093.088c9.498 9.146 14.228 22.65 12.688 35.705-.675 6.32-2.896 12.278-5.93 17.623l.067-.123c-6.088 11.858-9.115 25.43-7.487 38.543v.008c1.63 13.373 8.096 26.165 17.895 35.412l.011.012c9.69 9.236 22.29 15.276 35.467 18.302l.01.002c14.282 3.33 29.317 3.284 43.803.55l.05-.01 7.315-1.267a3.35 3.35 0 0 1 3.737 2.21c3.707 10.755 7.34 21.517 11.095 32.21 1.295 2.945 4.979 5.017 8.131 4.52l.102-.014c2.777-.35 5.454-2.527 6.312-5.162l.037-.11c.61-1.676.534-3.695-.162-5.532l-.033-.092c-3.604-10.434-7.164-20.876-10.752-31.301a3.35 3.35 0 0 1 1.492-3.99c6.208-3.585 12.377-6.874 17.844-10.887l.027-.02c12.932-9.296 23.9-21.506 30.723-35.79l.002-.003c5.393-11.313 8.021-24.053 6.51-36.373l-.002-.011c-1.31-10.997-5.856-21.623-12.951-30.114l-.014-.017c-6.05-7.333-13.865-13.21-22.5-17.352l-.033-.015c-5.05-2.49-10.615-5.126-15.205-9.635-2.496-2.403-4.465-5.139-6.215-7.926-5.826-.526-11.54-2.2-16.694-5.07 3.554 10.48 10.227 19.941 19.06 26.58l.02.016c3.861 2.947 8.246 5.305 12.852 7.33l.1.046c9.46 4.534 18.089 11.583 23.355 21.098 5.748 10.205 7.141 22.455 4.402 33.703-2.897 12.33-9.851 23.164-18.298 32.037-4.812 5.093-10.217 9.19-15.155 13.412l-.023.022-4.141 3.47a3.35 3.35 0 0 1-5.32-1.478l-13.47-39.244a3.35 3.35 0 0 1 2.061-4.248c4.685-1.643 9.446-3.356 14.14-4.947l.116-.037c1.977-.591 3.691-1.774 4.645-3.295l.062-.096c1.557-2.305 1.678-5.729.276-8.115l-.055-.098c-1.383-2.543-4.654-4.209-7.566-3.89l-.024.001c-1.5.153-3.423 1.061-5.984 1.844-20.884 7.226-41.777 14.41-62.633 21.674-2.987 1.245-5.12 4.956-4.639 8.139l.014.097c.337 2.79 2.515 5.486 5.156 6.35l.106.037c1.664.606 3.651.552 5.443-.117l.06-.024c5.714-2.004 11.43-3.946 17.116-5.918a3.35 3.35 0 0 1 4.265 2.077q6.835 19.911 13.668 39.826a3.35 3.35 0 0 1-3.14 4.435c-6.033.049-12.124.218-18.274.186l-.047-.002c-13.105-.256-26.45-3.333-37.925-10.291l-.002-.002c-8.878-5.377-16.453-13.357-20.43-23.27-3.91-9.551-4.242-20.24-1.6-30.043 1.47-5.74 3.947-11 6.61-15.943l-.049.094c6.084-12.21 7.472-26.773 3.781-39.905l-.004-.013c-2.83-10.226-8.687-19.633-16.605-26.701l-.098-.09c-5.444-5.262-8.849-12.58-8.998-20.274-.121-3.594.582-7.012 1.537-10.312a5617 5617 0 0 0-12.922-1.85z" style="stroke:none;stroke-width:3.58236;stroke-dasharray:none;stroke-opacity:.492929"/><path d="M125.342 4.537c-1.7-.132-3.44.066-5.164.645l-.045.015a13.096 13.096 0 0 0-8.248 16.643l2.119 6.312a3.654 3.654 0 0 1-2.27 4.616l-9.037 3.123c-3.982 1.377-6.046 5.62-4.67 9.603 1.374 3.975 5.61 6.052 9.606 4.672l8.846-3.057a3.654 3.654 0 0 1 4.656 2.291l3.838 11.436a3.654 3.654 0 0 1-2.27 4.615l-8.668 2.996c-3.954 1.367-6.273 5.52-5.133 9.383a7.515 7.515 0 0 0 8.477 5.33q-.219.037.195-.045l.008-.002c.788-.154.961-.242 2.006-.603a3.654 3.654 0 0 1 4.678 4.552l-7.334 23.247-13.328 42.24c-2.676 8.483 3.522 17.113 12.549 17.113 2.74 0 2.801.142 7.136-2.137s12.094-6.928 27.553-15.847a3.654 3.654 0 0 1 5.29 2.002l10.368 30.9a3.654 3.654 0 0 1-3.984 4.777l-31.822-4.582.002.002c-4.12-.59-7.94 2.205-8.551 6.38l.015-.126c-.087.788-.073.702-.002-.013l-.02.158c-.607 4.219 2.308 7.961 6.401 8.55l43.004 6.192a3.65 3.65 0 0 1 2.942 2.453l19.818 59.049a13.1 13.1 0 0 0 16.656 8.287c6.857-2.302 10.625-9.693 8.287-16.658L204.82 216.06a3.654 3.654 0 0 1 3.984-4.778l46.559 6.703a3.654 3.654 0 0 1 3.125 3.38 13.03 13.03 0 0 0 2.81 7.312 13.086 13.086 0 0 0 18.365 2.218l.008-.006c.179-.137.151-.112.11-.078l.011-.01c40.31-31.959 58.288-46.208 66.307-52.568s5.838-4.63 6.541-5.217c5.972-4.984 6.267-13.633 1.207-19.06-4.97-5.333-33.53-35.882-50.2-53.711h-.001a11.75 11.75 0 0 0-8.602-3.729l-95.974.076a19.8 19.8 0 0 0-9.813 2.616l-15.978 9.146a3.654 3.654 0 0 1-5.278-2.007L156.951 73.43a3.654 3.654 0 0 1 2.27-4.616l9.064-3.132c3.983-1.377 6.048-5.62 4.672-9.604l-.012-.037c.11.328.102.317-.015-.035l.017.049c-.77-2.203-2-3.598-3.652-4.358s-3.96-.976-7.258.164l-7.56 2.612a3.654 3.654 0 0 1-4.657-2.291l-3.838-11.438a3.654 3.654 0 0 1 2.27-4.615l9.05-3.127c3.984-1.376 6.049-5.62 4.673-9.604l-.012-.033a7.527 7.527 0 0 0-9.592-4.638l-8.861 3.062a3.654 3.654 0 0 1-4.656-2.291l-2.024-6.031c-1.736-5.17-6.386-8.534-11.488-8.93m36.62 18.828-.02-.07q.172.556-.018-.047zm41.509 99.492a3.65 3.65 0 0 1 2.17 2.254l8.06 24.016c20.625 1.345 39.042 8.696 52.865 20.658l25.864-20.504v-13.344a3.654 3.654 0 0 1 6.324-2.49l23.43 25.133a3.654 3.654 0 0 1-.403 5.354l-50.383 39.947a3.65 3.65 0 0 1-2.79.752l-68.833-9.91a3.65 3.65 0 0 1-2.941-2.453l-17.924-53.407a3.654 3.654 0 0 1 1.637-4.326l19.805-11.428a3.65 3.65 0 0 1 3.119-.252" style="stroke-width:5.11766"/></g></svg>