<svg xmlns="http://www.w3.org/2000/svg" xml:space="preserve" width="50" height="100">
    <path d="m1.5 55.894 3.53-16.632 13.467-14.858m19.335 64.389-5.119-1.935-1.079-19.183-11.188-13.978-11.59 16.564.465 18.369-6.62 1.414M18.26 24.64l1.948 29.774M18.733 24.64l15.515 15.643 14.168-13.548" style="display:inline;fill:none;stroke:#000;stroke-width:3.00001;stroke-linecap:round;stroke-linejoin:round;stroke-miterlimit:4.7;stroke-dasharray:none;stroke-opacity:1" transform="translate(.042 4.228)"/>
    <path d="m16.701 1 .564 4.262m-3.51-4.137.815 4.827m-3.573-3.95.878 4.326m13.852 4.074a9.621 9.402 0 0 1-9.621 9.402 9.621 9.402 0 0 1-9.621-9.402A9.621 9.402 0 0 1 16.105 1a9.621 9.402 0 0 1 9.622 9.402z" style="fill:#fff;stroke:#000;stroke-width:2;stroke-linecap:butt;stroke-linejoin:miter;stroke-miterlimit:5;stroke-dasharray:none" transform="translate(.042 4.228)"/>
    <path d="m37.184 14.362 10.564-.143-5.806 14.372-10.279-.095Z" style="fill:#fff;stroke:#000;stroke-width:2;stroke-linecap:round;stroke-linejoin:round;stroke-miterlimit:5;stroke-dasharray:none" transform="translate(.042 4.228)"/>
    <path d="m39.797 23.833 1.213-4.123c-.156 1.36.812 1.563.4 3.224m-1.599.817a.82.527 0 0 1-.82.527.82.527 0 0 1-.82-.527.82.527 0 0 1 .82-.527.82.527 0 0 1 .82.527m-1.624-2.197 1.214-4.124c-.156 1.361.812 1.563.4 3.224m-1.599.817a.82.527 0 0 1-.82.527.82.527 0 0 1-.82-.527.82.527 0 0 1 .82-.527.82.527 0 0 1 .82.527" style="fill:#fff;stroke:#000;stroke-width:.656247;stroke-linecap:round;stroke-linejoin:round;stroke-miterlimit:5;stroke-dasharray:none" transform="translate(.042 4.228)"/>
</svg>
