<svg xmlns="http://www.w3.org/2000/svg" xml:space="preserve" width="125" height="90">
    <path d="M34.624 8.643v36.863l13.05-.019-.023-36.844zm17.323 6.544.022 30.298 67.242-.088-3.886-5.232c-.66-.288-1.971-.716-3.908-1.159-2.113-.484-4.795-1.01-7.837-1.611-6.084-1.203-13.617-2.717-21.18-4.92s-15.164-5.083-21.44-9.125c-3.542-2.281-6.602-5.014-9.011-8.164m-17.05 35.793v6.5h12.909v-6.5zm17.204 0-.001 6.5h62.485l-.015-6.5zm66.763 0 .014 6.5h2.405v-6.5zm-9.445 8.64h1.115c.324 0 .588.04.588.09l-.112 4.987s1.3 1.075-.053 2.333l-.096 4.329s1.404.888-.04 1.81l-.27 12.067-.017-.007h-1.115l-.018.008-.268-12.014c-1.204-1.02-.04-1.856-.04-1.856l-.096-4.262c-1.413-1.359-.053-2.407-.053-2.407l-.112-4.988c0-.05.262-.09.587-.09m-64.22 0h1.113c.325 0 .587.04.587.09l-.111 4.987s1.3 1.075-.052 2.333l-.096 4.329s1.402.888-.04 1.81l-.27 12.067-.018-.007H45.2l-.018.008-.269-12.013c-1.203-1.02-.04-1.857-.04-1.857l-.095-4.262c-1.415-1.359-.054-2.407-.054-2.407l-.111-4.988c-.002-.05.261-.09.587-.09m4.622-12.288-.026-40.812M32.478 47.652V6.496H49.81c6.951 25.154 59.279 28.005 66.849 31.862l6.816 9.178zm17.479 1.38-.003 10.445m66.76-10.515.026 10.515M33.34 48.832h89.505c.326 0 .587.04.587.09v10.61c0 .05-.261.09-.587.09H33.34c-.326 0-.588-.04-.588-.09v-10.61c0-.05.262-.09.588-.09" style="fill:none;stroke:#000;stroke-width:.999997;stroke-linecap:round;stroke-linejoin:round;stroke-miterlimit:4.7;stroke-dasharray:none"/>
    <g style="stroke-width:.751632">
        <path d="m28.742 41.189-9.132-5.972-3.954-9.489 3.947 9.51 10.634 1.677M9.833 51.681l18.532-.378m-16.248.422v16.298m23.036.762-5.998-.799-1.716-16.413-10.614-2.803 10.717 2.756-11.815 16.37 4.609 1.139m-5.047-43.088 1.487 22.723" style="fill:none;fill-opacity:1;stroke:#000;stroke-width:2.2549;stroke-linecap:round;stroke-linejoin:round;stroke-miterlimit:4.7;stroke-dasharray:none;stroke-opacity:1" transform="matrix(1.329 0 0 1.33188 -6.01 -5.863)"/>
        <path d="M9.994 7.514a2.36 2.36 0 0 1-2.36 2.36 2.36 2.36 0 0 1-2.36-2.36 2.36 2.36 0 0 1 2.36-2.36 2.36 2.36 0 0 1 2.36 2.36m11.381 7.633a6.8 6.8 0 0 1-6.801 6.801 6.8 6.8 0 0 1-6.801-6.801 6.8 6.8 0 0 1 6.801-6.801 6.8 6.8 0 0 1 6.801 6.801" style="fill:#fff;stroke:#000;stroke-width:1.50326;stroke-linecap:round;stroke-linejoin:round;stroke-miterlimit:4.7" transform="matrix(1.329 0 0 1.33188 -6.01 -5.863)"/>
    </g>
</svg>
