<svg xmlns="http://www.w3.org/2000/svg" xml:space="preserve" width="70" height="95">
    <g style="display:inline">
        <path d="m58.683 29.432 21.59 15.73" style="display:inline;fill:none;stroke:#000;stroke-width:3;stroke-linecap:round;stroke-linejoin:round;stroke-miterlimit:4.7;stroke-dasharray:none;stroke-opacity:1" transform="translate(-18.008 -.04)"/>
        <g style="stroke-width:1.83867;stroke-dasharray:none" transform="matrix(1.63742 0 0 1.62584 -40.159 -11.239)">
            <path d="m48.352 27.49-3.7 12.869" style="fill:none;stroke:#000;stroke-width:1.83867;stroke-linecap:round;stroke-linejoin:round;stroke-miterlimit:4.7;stroke-dasharray:none;stroke-opacity:1"/>
            <circle cx="50.942" cy="17.149" r="4.989" style="display:inline;fill:none;stroke:#000;stroke-width:1.83867;stroke-linecap:square;stroke-linejoin:round;stroke-miterlimit:4.7;stroke-dasharray:none;stroke-opacity:1"/>
            <path d="m60.709 62.683-3.375-.78 1.342-14.706-13.956-6.65-14.553 7.796 1.503 14.123h-3.782" style="fill:none;stroke:#000;stroke-width:1.83867;stroke-linecap:round;stroke-linejoin:round;stroke-miterlimit:4.7;stroke-dasharray:none;stroke-opacity:1"/>
        </g>
        <g style="fill:#fff;fill-opacity:1;stroke:none;stroke-width:8.34218">
            <g style="stroke-width:10.0856">
                <path d="M110.586 14.406 91.984 32.457c-12.209-5.465-36.222 8.433-33.32 25.484 1.374 5.342 5.275 9.772 9.877 12.655 17.104 10.49 36.704-17.39 30.096-31.64l18.011-18.29Z" style="fill:#fff;stroke:none;stroke-width:0;stroke-linecap:round;stroke-linejoin:round;stroke-miterlimit:4.7;stroke-dasharray:none" transform="translate(-27.167 4.814)scale(.82714)"/>
                <g style="fill:#000;stroke-width:8.05571">
                    <path d="M144.572 215.223c-10.684 0-20.729 4.161-28.282 11.715-7.556 7.555-11.716 17.599-11.716 28.283s4.16 20.729 11.715 28.283 17.6 11.715 28.283 11.715c10.685 0 20.729-4.161 28.283-11.715 15.595-15.595 15.595-40.971 0-56.566-7.555-7.555-17.598-11.715-28.283-11.715m20.505 60.503c-5.477 5.477-12.759 8.494-20.505 8.494s-15.027-3.017-20.505-8.494-8.493-12.759-8.493-20.505 3.017-15.027 8.494-20.504 12.758-8.494 20.504-8.494 15.028 3.017 20.505 8.494c11.306 11.305 11.306 29.702 0 41.009m48.434-108.444a18.88 18.88 0 0 0-13.434 5.564 18.87 18.87 0 0 0-5.565 13.435c0 5.075 1.977 9.846 5.565 13.435 3.703 3.704 8.568 5.555 13.434 5.555s9.73-1.852 13.435-5.555l.001-.001c7.407-7.408 7.407-19.461-.001-26.869a18.88 18.88 0 0 0-13.435-5.564m5.658 24.655c-3.118 3.119-8.193 3.12-11.313 0a7.95 7.95 0 0 1-2.343-5.656c0-2.137.832-4.146 2.344-5.657a7.95 7.95 0 0 1 5.655-2.343c2.136 0 4.146.833 5.657 2.343 3.118 3.12 3.118 8.194 0 11.313M55.128 293.756a5.5 5.5 0 0 0-7.777 7.778l50.909 50.909a5.48 5.48 0 0 0 3.889 1.611 5.5 5.5 0 0 0 3.889-9.389z" style="fill:#000;stroke-width:8.05571" transform="translate(20.462 16.095)scale(.12414)"/>
                    <path d="M398.182 42.467 357.326 1.611a5.5 5.5 0 0 0-7.777 0l-20.707 20.707-8.033-8.033a5.5 5.5 0 0 0-7.777 7.778l8.033 8.032-90.287 90.286c-20.181-8.663-44.256-10.941-70.46-6.354-39.661 6.942-79.583 28.845-112.411 61.674C15.603 208.005-.511 241.51.012 275.285c.46 29.72 14.252 58.978 39.885 84.611s54.891 39.425 84.61 39.885q.797.012 1.594.012c33.234 0 66.195-16.111 97.989-47.906 32.829-32.829 54.732-72.751 61.675-112.412 4.586-26.201 2.308-50.277-6.354-70.458l90.287-90.287 8.033 8.033a5.48 5.48 0 0 0 3.889 1.611 5.5 5.5 0 0 0 3.889-9.389l-8.033-8.033 20.707-20.707a5.5 5.5 0 0 0-.001-7.778M359.091 73.78l-33.078-33.078 14.495-14.495 33.078 33.078Zm-83.478 17.322 9.022-9.022 33.079 33.079-9.022 9.022zm25.3 40.857-9.022 9.022-33.079-33.079 9.022-9.022zm-8.5-57.657 9.022-9.022 33.078 33.078-9.022 9.022zm16.8-16.8 9.023-9.022 33.078 33.078-9.022 9.022zm-92.9 286.607c-30.118 30.118-60.919 45.163-91.635 44.673-26.805-.415-53.433-13.093-77.004-36.665-23.57-23.571-36.249-50.198-36.664-77.003-.475-30.686 14.556-61.516 44.673-91.634 39.544-39.544 88.282-60.77 130.208-60.77 25.917 0 49.237 8.118 66.156 25.036 44.285 44.286 28.254 132.374-35.734 196.363m43.512-204.141a91.4 91.4 0 0 0-18.7-14.379l9.909-9.909 33.079 33.079-9.91 9.909a91.5 91.5 0 0 0-14.378-18.7m121.539-88.46L348.286 18.43l5.151-5.151 33.078 33.078z" style="fill:#000;stroke-width:8.05571" transform="translate(20.462 16.095)scale(.12414)"/>
                </g>
            </g>
        </g>
        <path d="m62.991 35.475 1.15-9.962M43.983 38.898l-7.685-8.387 13.175-4.879" style="display:inline;fill:none;stroke:#000;stroke-width:1.83867;stroke-linecap:round;stroke-linejoin:round;stroke-miterlimit:4.7;stroke-dasharray:none;stroke-opacity:1" transform="matrix(1.63742 0 0 1.62584 -40.333 -12.282)"/>
        <path d="m54.033 12.224-3.826-2.232m6.696-.319-3.083-3.72m5.527 2.339-1.381-4.358M52.97 15.307l-4.89-.532m13.642-6.546L62.2 3.54m2.225 5.067 1.623-3.13" style="fill:none;stroke:#000;stroke-width:3;stroke-linecap:round;stroke-linejoin:round;stroke-miterlimit:4.7;stroke-opacity:1" transform="translate(-18.008 -.04)"/>
    </g>
</svg>
