<svg xmlns="http://www.w3.org/2000/svg" xml:space="preserve" width="100" height="80">
    <path d="M93.05 73.984c.195.454.687.704 1.169.584a.996.996 0 0 0 .77-1.048c-.037-.5-.418-.89-.91-.937m0-1.845v3.246m-1.817 0h1.818m-1.818-3.246v3.246m-55.877-4.73h.334m-.334 2.615v-2.615m1.03 2.615h-1.03m1.03.714a1.004 1.004 0 0 0-.91.937c-.037.491.297.937.77 1.048a1 1 0 0 0 1.169-.584M86.763 33.63h-1.225m1.225 2.198V33.63m-1.225 2.198V33.63M50.398 4.37l.279.529.714.278.807-.102.528-.427v-.556l-.528-.436-.807-.093-.714.278zm-1.511 47.66-7.958 15.322m7.522-15.544-7.485 14.403m54.82-17.12V47.71m0 1.382a9.5 9.5 0 0 0-.649 2.912m-4.702-2.912V47.71m.65 4.294a9.5 9.5 0 0 0-.65-2.912M59.2 33.632h-1.215m1.215 2.197v-2.198m-1.215 2.198v-2.198m-6.798-23.77h.825m-.825 0-.325 25.968m1.15-25.968.325 25.968M66.85 1.607C66.85.95 66.322.42 65.664.42m1.187 1.187v10.397M48.358.42h17.306m26.478 35.41a10.2 10.2 0 0 0 5.082-9.062m0 0a10.01 10.01 0 0 0-7.271-9.895m0 0a29.3 29.3 0 0 0-5.23-.78m-18.42-4.303a62 62 0 0 0 18.42 4.304M55.507 1.728A25.46 25.46 0 0 0 66.304 11.79M55.508 1.728a1.07 1.07 0 0 0-.788-.52m-6.362 0h6.362M48.358 35.83V.42m42.077 48.672h5.351M84.945 47.71v-1.68m11.444 1.679V46.03m-11.444 1.68h11.444m-5.305 4.294h4.053m-3.32 16.332L91.4 52.004m3.004 16.332.418-16.332m-.214 16.332h-2.995v2.402h2.995zm-44.534-17.25v-1.503m-1.948 1.502a.974.974 0 1 0 1.948 0m-1.948 0v-1.502m-6.668 2.365-.686 19.921m0 0h-1.53m.602-3.533.418-14.672m6.093-4.081v1.14h-2.152v0l-1.233.223-1.095.612-.834.937-.464 1.169h-1.873m-1.772 14.672-.426-14.672m-6.084-4.081v1.14h2.151v0l1.234.223 1.094.612.826.937.463 1.169h2.514m-1.29 17.074v3.246m1.827 0h-1.827m1.827-3.246v3.246m-2.522-5.648h3.33v2.402h-3.33zm13.883-18.753v-1.901m-25.05 1.901v-1.901m27.313-1.651c-.909 0-1.65.742-1.65 1.65m-.613 1.902h-25.05m5.139-11.481.723.51.464.76.111.872v0l-.306 1.456-.955 1.14-1.382.557v0l-1.187.176h-2.3v0l-.687.334-.343.677m0 3.098v-3.098m5.862-6.482v-2.273m-5.862 11.853h26.385m46.01-1.651H52.865m44.359 0V35.829m-66.533 0h66.533" style="fill:none;stroke:#000;stroke-width:.8404;stroke-linecap:round;stroke-linejoin:round;stroke-miterlimit:10;stroke-dasharray:none;stroke-opacity:1" transform="translate(1.176 2.491)"/>
    <path d="m36.385 30.33-10.547 6.115-14.156-9.834 14.942-2.867L33.609 9.48m1.544 59.303-5.997-.798-1.717-16.413-10.614-2.803 10.718 2.756-11.816 16.37 4.61 1.14M11.628 26.76l5.147 21.909" style="fill:none;fill-opacity:1;stroke:#000;stroke-width:3;stroke-linecap:round;stroke-linejoin:round;stroke-miterlimit:4.7;stroke-dasharray:none;stroke-opacity:1" transform="translate(-5.208 5.699)"/>
    <path d="m28.314 48.853-18.531.38a2.45 2.45 0 0 0-2.4 2.497 2.45 2.45 0 0 0 2.5 2.4l.734-.015v13.908a1.5 1.5 0 0 0 1.5 1.5 1.5 1.5 0 0 0 1.5-1.5V54.055l14.798-.303a2.45 2.45 0 0 0 2.399-2.498 2.45 2.45 0 0 0-2.5-2.4" style="color:#000;display:inline;fill:#000;stroke-linecap:round;stroke-linejoin:round;stroke-miterlimit:4.7;-inkscape-stroke:none" transform="translate(-5.208 5.699)"/>
    <path d="M7.751-1.006A1.37 1.37 0 0 0 6.384.364a1.37 1.37 0 0 0 1.164 1.353L6.888 14.4s1.984 1.716 1.201 2.397c.36-.332 1.565-1.29 2.348-.8 0 0 3.119 2.956 3.74 2.263.622-.694-2.86-3.302-2.328-5.09.677-2.278 6.824-.799 6.025-3.81l-.46-1.516L8.65 1.396A1.37 1.37 0 0 0 9.12.363a1.37 1.37 0 0 0-1.369-1.369m6.823 8.352c-4.296 0-7.8 3.506-7.8 7.802 0 4.297 3.504 7.801 7.8 7.801 4.297 0 7.801-3.504 7.801-7.8 0-4.297-3.504-7.803-7.8-7.803m0 2a5.787 5.787 0 0 1 5.801 5.802 5.785 5.785 0 0 1-5.8 5.801 5.785 5.785 0 0 1-5.802-5.8 5.787 5.787 0 0 1 5.801-5.803" style="fill:#000;fill-opacity:.941704;stroke:none;stroke-width:8.7;stroke-linecap:round;stroke-linejoin:round;stroke-miterlimit:4.7;stroke-dasharray:none" transform="translate(-5.208 5.699)"/>
</svg>
