<svg xmlns="http://www.w3.org/2000/svg" xml:space="preserve" width="45" height="100">
    <path d="M7.595 11.732 2.798 8.74l4.668 2.895 2.341-2.333-3.05-4.824 3.05 4.824 3.773-1.375-.693-6.193.853 6.281 3.058.107L18.342.987l-1.55 7.086 3.093 1.42 3.678-5.364-3.553 5.39m2.523 4.406c1.23 4.308-1.29 8.804-5.629 10.042s-8.852-1.25-10.08-5.558C3.746 7.635 19.68 3.931 22.531 13.927" style="display:inline;fill:#fff;stroke:#000;stroke-width:2.00001;stroke-linecap:round;stroke-linejoin:round;stroke-miterlimit:4.7;stroke-dasharray:none;stroke-opacity:1" transform="translate(2.486 2.19)"/>
    <path d="m36.636 92.866-5.118-1.934-.92-16.958L19.25 57.771 7.66 74.335l.465 18.369-6.62 1.414m15.56-65.404 1.948 29.774m-4.317-4.748L4.92 44.835l12.382-16.358m.235.236L38.523 44.16l-16.912.302" style="display:inline;fill:none;stroke:#000;stroke-width:3.00001;stroke-linecap:round;stroke-linejoin:round;stroke-miterlimit:4.7;stroke-dasharray:none;stroke-opacity:1" transform="translate(2.486 2.19)"/>
    <path d="M14.57 26.384c-.23.103-.374.328-.468.551-.163.395-.226.822-.267 1.244a15.4 15.4 0 0 0-.01 2.357q.616 3.366 1.237 6.732l-.793.15-.242-1.293a.26.26 0 0 0-.22-.233.254.254 0 0 0-.28.272q1.169 6.268 2.341 12.533a.26.26 0 0 0 .188.235c.148.048.313-.08.314-.233-.025-.2-.073-.398-.106-.597l.768-.143q.327 1.772.65 3.543c.018.056.023.128-.034.164a1.06 1.06 0 0 0-.618.92 1.05 1.05 0 0 0 .404.864c.184.147.418.217.65.23l.826 4.478a8 8 0 0 1 .153 1.311 7.6 7.6 0 0 1-1 4.061c-.103.184-.225.355-.337.533-.116.188-.206.416-.15.64.081.366.334.674.636.886.379.267.824.421 1.274.514.308.063.628.098.946.11a6 6 0 0 0 .662-.004 8 8 0 0 0 1.403-.2 7 7 0 0 0 2.02-.797c.42-.257.817-.573 1.096-.982.219-.313.347-.703.289-1.085-.027-.228-.192-.406-.368-.539a8 8 0 0 1-1.08-.89 7.54 7.54 0 0 1-2.027-3.74c-.167-.85-.323-1.7-.483-2.55-.028-.069-.004-.162.074-.182a1.05 1.05 0 0 0 .596-.906 1.05 1.05 0 0 0-.416-.873 1.13 1.13 45 0 0-.667-.218l-.44-2.326c-.026-.067.007-.157.082-.176a1.05 1.05 0 0 0 .57-.688 1.05 1.05 0 0 0-.388-1.093 1.14 1.14 0 0 0-.673-.219q-1.772-9.41-3.548-18.82c-.15-.47-.326-.93-.516-1.385a9 9 0 0 0-.725-1.402c-.18-.265-.383-.53-.663-.698a.7.7 0 0 0-.66-.056" style="fill:#fff;stroke-width:.776531;stroke-dasharray:none" transform="translate(2.486 2.19)"/>
    <path d="M14.103 26.935c.094-.222.238-.448.467-.55a.7.7 0 0 1 .662.055c.279.167.48.433.66.698.29.44.517.919.725 1.402q.289.682.516 1.386l3.55 18.82c.239.005.482.068.672.217a1.05 1.05 0 0 1 .388 1.093 1.05 1.05 0 0 1-.57.69c-.076.018-.107.106-.08.175l.44 2.326c.236.007.477.07.665.218.269.197.432.539.416.873a1.05 1.05 0 0 1-.595.906c-.077.02-.104.113-.076.181.16.85.317 1.701.483 2.551a7.54 7.54 0 0 0 2.028 3.741c.33.33.697.623 1.08.89.176.13.342.31.369.538.059.383-.071.772-.29 1.085-.28.409-.676.724-1.096.98a6.9 6.9 0 0 1-2.02.797 8 8 0 0 1-1.403.2 8 8 0 0 1-.322.011q-.174.002-.34-.005a6 6 0 0 1-.946-.11c-.45-.094-.896-.248-1.276-.514-.301-.212-.552-.52-.633-.887-.056-.223.034-.45.15-.638.112-.179.233-.35.336-.534a7.6 7.6 0 0 0 1-4.06 8 8 0 0 0-.153-1.312l-.825-4.477a1.14 1.14 0 0 1-.65-.23 1.05 1.05 0 0 1-.407-.864 1.06 1.06 0 0 1 .62-.921c.058-.035.053-.107.036-.164l-.652-3.543-.768.143c.033.2.082.396.106.596 0 .154-.166.281-.314.233a.26.26 0 0 1-.188-.234q-1.172-6.265-2.34-12.532a.252.252 0 0 1 .278-.274.26.26 0 0 1 .22.236l.242 1.29.795-.15q-.621-3.365-1.239-6.73a15 15 0 0 1 .01-2.358c.04-.423.106-.849.269-1.244m.704-.127a.72.72 0 0 0-.262.36c-.122.321-.174.664-.209 1.003a14 14 0 0 0-.037 1.91c.01.145.01.292.028.437l.33 1.79.086-.017 2.25-.42q-.172-.92-.35-1.84c-.25-.744-.534-1.48-.903-2.173-.166-.307-.346-.613-.596-.86a.7.7 0 0 0-.337-.19m.085 3.402a.254.254 0 0 1 .236-.254c.221-.04.441-.09.664-.119a.26.26 0 0 1 .244.242c.06.329.128.657.182.987a.254.254 0 0 1-.236.257c-.22.038-.44.089-.662.119a.27.27 0 0 1-.148-.052c-.1-.074-.1-.21-.124-.32-.051-.287-.11-.572-.156-.859m-.145 2.588.362 1.967.086-.015 2.261-.423-.37-1.966zm.453 2.457.368 2c.094-.192.178-.387.278-.576a1.05 1.05 0 0 1 .84-.52 1.06 1.06 0 0 1 .888.4l.374.424q-.11.292-.215.578a1.047 1.047 0 0 1-1.546.528c-.149-.093-.263-.23-.393-.348l-.165-.158.523 2.848c.093-.196.18-.395.277-.59a1.05 1.05 0 0 1 .864-.526 1.06 1.06 0 0 1 .872.402l.369.422c-.077.202-.147.407-.223.61a1.04 1.04 0 0 1-.693.622 1.05 1.05 0 0 1-.97-.222c-.15-.142-.294-.288-.442-.43l.456 2.478.118-.132c.126-.142.248-.29.41-.391a1.45 1.45 0 0 1 1.264-.17c.212.07.393.2.588.303.031.015-.006-.066-.004-.09l-1.49-7.9Zm-.84 2.65 1.155 6.177.085-.016.692-.13-1.14-6.179zm1.874-.881a.55.55 0 0 0 .212.638.55.55 0 0 0 .703-.08.55.55 0 0 0 .043-.701.55.55 0 0 0-.7-.158.54.54 0 0 0-.258.3m.599 3.133a.53.53 0 0 0-.012.386.55.55 0 0 0 .921.191.55.55 0 0 0 .036-.702.55.55 0 0 0-.685-.16.54.54 0 0 0-.261.286m-1.226 4.416.567 3.038.085-.016.685-.127-.56-3.04zm1.65-1.291c-.12.156-.183.347-.267.524.334-.06.667-.128 1.003-.183.154-.007.288.155.247.306a.26.26 0 0 1-.237.196l-.922.171c.122.114.23.243.364.344l.015.011a.95.95 0 0 0 1.05.015.96.96 0 0 0 .416-.96.95.95 0 0 0-.703-.752.95.95 0 0 0-.967.328m-.265 1.697.324 1.76.118-.134c.122-.141.243-.288.4-.391a1.45 1.45 0 0 1 1.265-.186c.214.067.399.198.594.304.053.045.02-.032.018-.063l-.34-1.798c-.177.21-.333.448-.568.6a1.45 1.45 0 0 1-1.449.095zm.956 1.794c-.107.12-.17.272-.234.417a.093.093 0 0 0 .098.114c.281-.047.56-.109.84-.152.153-.007.285.151.248.3a.26.26 0 0 1-.238.202l-.919.171c.12.113.226.241.357.34l.02.016a.95.95 0 0 0 1.046.017.96.96 0 0 0 .425-.945.95.95 0 0 0-.671-.76.95.95 0 0 0-.972.28m-.308 1.725.567 3.075c.2.045.398.119.553.258a1 1 0 0 1 .147.155c.103.148.222.281.334.42a9 9 0 0 0-.176.562 1.1 1.1 0 0 1-.449.558c-.046.042-.036.108-.02.162l.543 2.95.086-.016 2.355-.44-.158-.836a1.6 1.6 0 0 1-.256-.08 1.06 1.06 0 0 1-.5-.433l-.26-.316c.044-.143.099-.285.136-.429a1.06 1.06 0 0 1 .461-.672c.052-.045.036-.117.022-.174l-.452-2.398a1.2 1.2 0 0 1-.555-.275 1.3 1.3 0 0 1-.172-.203 1 1 0 0 0-.078-.104l-.203-.247c.058-.177.123-.353.165-.535a1.1 1.1 0 0 1 .431-.567c.05-.048.028-.116.016-.173l-.142-.751c-.176.213-.331.453-.568.608a2 2 0 0 1-.52.232 1.8 1.8 0 0 1-.696-.04c-.219-.064-.41-.19-.612-.292m1.3.603c.028-.026.054-.064.095-.034.096.03.208.069.245.172.038.112.044.233.072.349.039.169.101.333.143.501.011.184.009.37.053.551.1.532.197 1.067.302 1.6.026.082.02.172.045.255.104.549.2 1.1.31 1.647.043.14.091.276.132.415.012.194.005.392.052.582.036.211.084.418.113.627.002.151-.156.279-.304.241a.3.3 0 0 1-.1-.05c-.069-.048-.094-.132-.103-.212q-.273-1.474-.553-2.946c-.039-.144-.085-.287-.12-.431-.016-.154-.02-.309-.044-.461q-.241-1.277-.476-2.555c-.01-.103.06-.193.137-.251m-1.377 3.344a.53.53 0 0 0 .012.396.54.54 0 0 0 .198.238.55.55 0 0 0 .725-.1.55.55 0 0 0 .004-.705.55.55 0 0 0-.685-.132.54.54 0 0 0-.254.304m2.677-2.892a.548.548 0 1 0 .976.492.548.548 0 0 0-.976-.492m.882 4.435a.53.53 0 0 0-.096.377.54.54 0 0 0 .225.382.55.55 0 0 0 .632.006.56.56 0 0 0 .196-.66.55.55 0 0 0-.635-.325.54.54 0 0 0-.322.22m-1.891 3.143.2 1.08.084-.016 2.363-.442-.204-1.078zm.278 1.573c.034.318.06.639.06.957a8.1 8.1 0 0 1-.86 3.73 8 8 0 0 1-.381.67c-.08.136-.192.266-.249.42-.017.043-.025.087-.006.132.064.244.244.44.447.581.397.27.87.396 1.34.467.83.121 1.679.05 2.494-.131.718-.165 1.421-.423 2.04-.828.343-.227.668-.503.88-.862a1 1 0 0 0 .134-.667c-.135-.174-.337-.272-.504-.409a7.8 7.8 0 0 1-1.975-2.194 8 8 0 0 1-.667-1.388 8 8 0 0 1-.241-.772l-.045-.167zm.636 1.69c.014-.148.177-.258.318-.21a.26.26 0 0 1 .182.26 2.4 2.4 0 0 1-.032.637c-.049.143-.236.212-.363.129l-.027-.02c-.087-.066-.109-.186-.085-.287a2.7 2.7 0 0 0 .007-.51m-.216 1.5c.03-.153.22-.24.356-.163a.26.26 0 0 1 .13.286 4.5 4.5 45 0 1-.24 1.014 5.7 5.7 0 0 1-.408.88c-.15.265-.318.528-.476.794a.25.25 0 0 1-.376.073.257.257 0 0 1-.04-.353c.282-.467.587-.926.784-1.437a4.2 4.2 0 0 0 .269-1.094" style="display:inline;stroke-width:.776531;stroke-dasharray:none" transform="translate(2.486 2.19)"/>
</svg>
