<?xml version="1.0" encoding="UTF-8" standalone="no"?>
<svg
   xml:space="preserve"
   width="120"
   height="95"
   version="1.1"
   id="svg4"
   sodipodi:docname="human_piano_1.svg"
   inkscape:version="1.4 (e7c3feb1, 2024-10-09)"
   xmlns:inkscape="http://www.inkscape.org/namespaces/inkscape"
   xmlns:sodipodi="http://sodipodi.sourceforge.net/DTD/sodipodi-0.dtd"
   xmlns="http://www.w3.org/2000/svg"
   xmlns:svg="http://www.w3.org/2000/svg"><defs
   id="defs4" /><sodipodi:namedview
   id="namedview4"
   pagecolor="#ffffff"
   bordercolor="#000000"
   borderopacity="0.25"
   inkscape:showpageshadow="2"
   inkscape:pageopacity="0.0"
   inkscape:pagecheckerboard="0"
   inkscape:deskcolor="#d1d1d1"
   inkscape:current-layer="svg4" />
    <path
   d="m 114.35077,93.271361 c 0.23544,0.548345 0.82949,0.850297 1.41148,0.705359 a 1.2025939,1.2029764 0 0 0 0.92971,-1.265781 c -0.0446,-0.603905 -0.50471,-1.07495 -1.09876,-1.131716 m 0,-2.228406 v 3.920544 m -2.19388,0 h 2.19509 m -2.19509,-3.920544 v 3.920544 m -67.467211,-5.71293 h 0.403279 m -0.403279,3.158417 v -3.158417 m 1.243646,3.158417 h -1.243646 m 1.243646,0.862375 a 1.2122533,1.2126389 0 0 0 -1.098756,1.131716 c -0.04467,0.593033 0.358605,1.131715 0.929716,1.265781 a 1.2074236,1.2078076 0 0 0 1.411479,-0.705359 M 106.75969,44.531492 h -1.47909 m 1.47909,2.654761 v -2.654761 m -1.47909,2.654761 V 44.531492 M 62.851735,9.1910399 l 0.336871,0.6389303 0.8621,0.3357708 0.974392,-0.123197 0.637519,-0.5157335 V 8.8552694 L 65.025098,8.3286653 64.050706,8.2163392 63.188606,8.5521097 Z M 61.027318,66.755153 51.418641,85.261181 M 60.500882,66.487019 51.463315,83.883073 M 117.65428,63.205406 v -1.667983 m 0,1.66919 a 11.470524,11.474172 0 0 0 -0.78362,3.517136 m -5.67731,-3.517136 v -1.66919 m 0.78483,5.186326 a 11.470524,11.474172 0 0 0 -0.78483,-3.517136 M 73.479478,44.533907 h -1.467019 m 1.467019,2.653554 v -2.654762 m -1.467019,2.654762 V 44.532699 M 63.804393,15.823112 h 0.996124 m -0.996124,0 -0.392413,31.364349 m 1.388537,-31.364349 0.392412,31.364349 M 82.716268,5.8538675 C 82.716268,5.0603378 82.078749,4.4202 81.284264,4.4202 m 1.433212,1.4336675 V 18.411443 M 60.388591,4.4202 h 20.895673 m 31.970156,42.768468 a 12.315721,12.319638 0 0 0 6.13613,-10.945152 m 0,0 a 12.086311,12.090155 0 0 0 -8.77918,-11.951257 m 0,0 a 35.377512,35.388763 0 0 0 -6.31482,-0.94209 M 82.055808,18.152972 a 74.860264,74.884074 0 0 0 22.240742,5.198405 M 69.020462,6.0000122 A 30.741005,30.750783 0 0 0 82.057016,18.152972 M 69.02167,6.0000122 a 1.2919433,1.2923542 0 0 0 -0.95145,-0.62806 m -7.681629,0 H 68.07022 M 60.388591,47.188668 V 4.4202 m 50.804759,58.786413 h 6.46093 m -13.08968,-1.66919 v -2.029117 m 13.81775,2.027909 v -2.027909 m -13.81775,2.029117 h 13.81775 m -6.40538,5.186326 h 4.89369 m -4.00865,19.725915 -0.50349,-19.725915 m 3.6271,19.725915 0.5047,-19.725915 m -0.25838,19.725915 h -3.61624 v 2.901153 h 3.61624 z M 62.46053,65.614981 v -1.815334 m -2.352061,1.814127 a 1.1760306,1.1764047 0 1 0 2.352061,0 m -2.352061,0 v -1.814127 m -8.051101,2.856465 -0.828292,24.060736 m 0,0 H 49.381717 M 50.108586,86.449664 50.61329,68.72871 m 7.356832,-4.929063 v 1.376901 h -2.598376 v 0 l -1.488753,0.269341 -1.322129,0.739178 -1.006992,1.131716 -0.560244,1.411927 H 48.732123 M 46.592569,86.449664 46.078206,68.72871 m -7.345965,-4.929063 v 1.376901 h 2.597168 v 0 l 1.489962,0.269341 1.320921,0.739178 0.997331,1.131716 0.559037,1.411927 h 3.035463 m -1.557576,20.622107 v 3.920544 m 2.205963,0 h -2.205963 m 2.205963,-3.920544 v 3.920544 m -3.045122,-6.821697 h 4.02072 v 2.901153 h -4.02072 z M 63.09805,63.799647 v -2.296042 m -30.245961,2.296042 v -2.296042 m 32.97836,-1.99409 c -1.097548,0 -1.992249,0.896193 -1.992249,1.992882 m -0.74015,2.29725 H 32.852089 m 6.204949,-13.86684 0.872967,0.615983 0.560244,0.917933 0.134024,1.053208 v 0 l -0.369471,1.758568 -1.153089,1.376901 -1.66866,0.672748 v 0 l -1.433212,0.212575 h -2.777074 v 0 l -0.8295,0.403408 -0.414146,0.817686 m 0,3.741788 v -3.741788 m 7.077917,-7.82901 v -2.745346 m -7.077917,14.316144 h 31.857871 m 55.553558,-1.99409 H 65.830449 m 53.560101,0 V 47.187461 m -80.333512,0 h 80.333512"
   style="fill:none;stroke:#000000;stroke-width:0.8404;stroke-linecap:round;stroke-linejoin:round;stroke-miterlimit:10;stroke-dasharray:none;stroke-opacity:1"
   id="path1" />
    <path
   d="M 38.223916,44.420373 25.489219,51.806117 8.3969303,39.928537 26.438254,36.465752 34.872108,19.237584 m 1.864262,71.626617 -7.24092,-0.96383 -2.073146,-19.823748 -12.815594,-3.385484 12.941166,3.328718 -14.266917,19.771811 5.566223,1.3769 M 8.3317294,40.1085 14.546338,66.570358"
   style="fill:none;fill-opacity:1;stroke:#000000;stroke-width:3;stroke-linecap:round;stroke-linejoin:round;stroke-miterlimit:4.7;stroke-dasharray:none;stroke-opacity:1"
   id="path2" />
    <path
   d="M 28.4788,66.792594 6.1040329,67.251561 a 2.9581879,2.9591287 0 0 0 -2.8978167,3.015895 2.9581879,2.9591287 0 0 0 3.018559,2.898739 l 0.886249,-0.01811 v 16.798188 a 1.8111354,1.8117115 0 0 0 1.8111354,1.811712 1.8111354,1.8117115 0 0 0 1.8111354,-1.811712 V 73.07561 L 28.600749,72.709644 A 2.9581879,2.9591287 0 0 0 31.497358,69.69254 2.9581879,2.9591287 0 0 0 28.4788,66.793803"
   style="color:#000000;display:inline;fill:#000000;stroke-width:1;stroke-linecap:round;stroke-linejoin:round;stroke-miterlimit:4.7;-inkscape-stroke:none"
   id="path3" />
    <path
   d="M 3.6505481,6.5725131 A 1.6541703,1.6546964 0 0 0 2,8.2272095 1.6541703,1.6546964 0 0 0 3.4054411,9.8613732 L 2.6085415,25.179998 c 0,0 2.3955285,2.072597 1.4501158,2.895114 0.4346724,-0.400991 1.8896179,-1.558072 2.8350306,-0.966246 0,0 3.7659541,3.57028 4.5157641,2.73327 0.751017,-0.838219 -3.4532313,-3.988181 -2.8108819,-6.147742 0.8174258,-2.751385 8.2394589,-0.965038 7.2747269,-4.601747 L 15.317882,17.26161 4.7360219,9.473667 A 1.6541703,1.6546964 0 0 0 5.303511,8.2260017 1.6541703,1.6546964 0 0 0 3.6505481,6.5725131 M 11.888799,16.660122 c -5.1870914,0 -9.4179038,4.234574 -9.4179038,9.423316 0,5.189949 4.2308124,9.422107 9.4179038,9.422107 5.1883,0 9.419112,-4.232158 9.419112,-9.4209 0,-5.189949 -4.230812,-9.424523 -9.417904,-9.424523 m 0,2.415616 a 6.9873605,6.9895829 0 0 1 7.004264,7.0077 6.9849456,6.9871672 0 0 1 -7.003057,7.006492 6.9849456,6.9871672 0 0 1 -7.0054715,-7.005285 6.9873605,6.9895829 0 0 1 7.0042645,-7.008907"
   style="fill:#000000;fill-opacity:0.941704;stroke:none;stroke-width:8.7;stroke-linecap:round;stroke-linejoin:round;stroke-miterlimit:4.7;stroke-dasharray:none"
   id="path4" />
</svg>
