<?xml version="1.0" encoding="UTF-8" standalone="no"?>
<svg
   xml:space="preserve"
   width="70"
   height="100"
   version="1.1"
   id="svg7"
   sodipodi:docname="human_viola_1.svg"
   inkscape:version="1.3.2 (091e20e, 2023-11-25)"
   xmlns:inkscape="http://www.inkscape.org/namespaces/inkscape"
   xmlns:sodipodi="http://sodipodi.sourceforge.net/DTD/sodipodi-0.dtd"
   xmlns="http://www.w3.org/2000/svg"
   xmlns:svg="http://www.w3.org/2000/svg"><defs
     id="defs7" /><sodipodi:namedview
     id="namedview7"
     pagecolor="#ffffff"
     bordercolor="#000000"
     borderopacity="0.25"
     inkscape:showpageshadow="2"
     inkscape:pageopacity="0.0"
     inkscape:pagecheckerboard="0"
     inkscape:deskcolor="#d1d1d1"
     showgrid="false"
     inkscape:current-layer="svg7" /><g
     id="g2"
     transform="translate(-26.094612,-1.4720672)"><g
       id="g1"
       inkscape:label="skeleton"
       style="display:inline"><path
         id="path4"
         style="display:inline;fill:none;stroke:#000000;stroke-width:3.00001;stroke-linecap:round;stroke-linejoin:round;stroke-miterlimit:4.7;stroke-dasharray:none;stroke-opacity:1"
         transform="translate(-0.783,4.782)"
         d="M 57.09,50.978 32.34,43.161 44.53,26.77 M 60.293,42.924 79.847,40.398 M 44.765,27.006 59.684,42.697 m 4.179817,48.462009 -5.118575,-1.93475 -1.07906,-19.183286 -11.188491,-13.977346 -11.589658,16.564058 0.465027,18.36874 -6.620089,1.414481 m 15.558765,-65.404292 1.948529,29.774008" /></g><g
       style="stroke-width:1.15947"
       id="g6"
       inkscape:label="viola"><path
         d="m 343.412,-44.356 a 3.227,3.227 0 0 0 -0.008,4.568 l 83.595,83.597 c -0.153,0.305 -0.309,0.61 -0.456,0.916 -1.674,2.794 -5.488,7.784 -12.577,10.68 -2.537,1.044 -4.164,3.47 -4.156,6.195 0.008,2.655 1.541,4.928 3.972,5.912 0.075,0.031 0.924,0.417 0.924,0.417 0.988,0.388 1.7,0.946 2.189,1.671 1.433,2.145 0.696,6.135 -1.98,10.661 -3.192,5.4 -8.618,10.914 -15.294,15.544 -9.416,6.537 -19.987,10.133 -26.304,8.934 -1.82,-0.345 -3.102,-1.055 -3.811,-2.114 -0.055,-0.086 -0.601,-0.977 -2.458,-5.504 -0.91,-2.205 -2.965,-3.576 -5.366,-3.583 l -0.014,-0.011 a 6.08,6.08 0 0 0 -5.61,3.747 26.1,26.1 0 0 1 -5.632,8.395 c -2.705,2.705 -5.996,4.8 -9.52,6.022 -13.643,4.714 -24.954,11.31 -32.71,19.064 -12.847,12.848 -17.617,31.143 -13.423,51.534 3.879,18.864 14.95,38.197 31.18,54.428 16.228,16.226 35.56,27.297 54.422,31.176 4.828,0.992 9.537,1.474 14.086,1.474 14.665,0 27.66,-5.096 37.465,-14.902 7.749,-7.748 14.343,-19.052 19.07,-32.696 2.346,-6.784 7.584,-12.3 14.375,-15.152 a 6.2,6.2 0 0 0 1.988,-1.348 5.99,5.99 0 0 0 1.657,-5.428 c -0.384,-1.928 -1.66,-3.475 -3.492,-4.233 -4.439,-1.82 -5.33,-2.358 -5.469,-2.448 -1.06,-0.709 -1.785,-1.99 -2.13,-3.803 -1.198,-6.311 2.4,-16.873 8.936,-26.301 4.63,-6.676 10.148,-12.121 15.548,-15.311 4.527,-2.676 8.513,-3.404 10.657,-1.97 0.727,0.487 1.266,1.199 1.663,2.199 l 0.414,0.89 c 0.99,2.446 3.259,3.984 5.914,3.992 l 0.026,-0.004 c 2.716,0 5.123,-1.63 6.166,-4.164 2.917,-7.117 7.91,-10.896 10.693,-12.55 0.307,-0.149 0.603,-0.314 0.908,-0.469 l 106.167,106.154 a 3.25,3.25 0 0 0 2.29,0.961 c 0.828,0 1.648,-0.322 2.278,-0.953 a 3.225,3.225 0 0 0 0.008,-4.568 l -15.408,-15.418 10.193,-10.186 -88.26,-88.274 c 1.154,-1.063 2.32,-2.17 3.494,-3.346 9.07,-9.068 13.538,-22.086 12.605,-36.67 -0.819,-12.821 -5.711,-26.138 -13.849,-37.827 l 60.753,-64.983 3.095,3.107 c -0.724,1.169 -1.253,2.387 -1.524,3.622 -0.587,2.667 0.04,5.164 1.7,6.824 1.232,1.232 2.956,1.908 4.862,1.908 2.78,0 5.738,-1.367 8.13,-3.758 4.163,-4.165 4.988,-9.885 1.863,-13.011 -1.231,-1.232 -2.955,-1.908 -4.86,-1.908 -1.857,0 -3.803,0.622 -5.598,1.738 l -3.243,-3.24 12.088,-12.948 3.666,3.666 c -2.302,3.72 -2.357,7.936 0.166,10.46 1.231,1.232 2.97,1.92 4.875,1.92 2.782,0 5.751,-1.383 8.14,-3.774 1.805,-1.804 3.06,-3.994 3.54,-6.182 0.587,-2.668 -0.025,-5.154 -1.686,-6.815 -1.231,-1.231 -2.956,-1.907 -4.86,-1.907 -1.857,0 -3.803,0.621 -5.598,1.738 l -3.819,-3.824 10.745,-11.503 a 6.7,6.7 0 0 0 2.259,0.4 6.73,6.73 0 0 0 5.606,-2.987 l 3.232,-4.864 0.648,0.638 c 0.63,0.632 1.459,0.937 2.286,0.937 0.827,0 1.661,-0.312 2.293,-0.943 a 3.24,3.24 0 0 0 -0.006,-4.579 l -1.552,-1.534 4.234,-6.362 a 6.73,6.73 0 0 0 -0.826,-8.484 l -5.193,-5.204 a 6.72,6.72 0 0 0 -4.768,-1.973 6.7,6.7 0 0 0 -3.731,1.129 l -6.346,4.255 -1.54,-1.549 a 3.24,3.24 0 0 0 -4.58,0.006 3.225,3.225 0 0 0 -0.007,4.569 l 0.632,0.627 -4.86,3.25 a 6.7,6.7 0 0 0 -2.965,4.928 6.7,6.7 0 0 0 0.355,2.932 l -2.646,2.474 -2.773,-2.756 c 0.725,-1.17 1.264,-2.4 1.535,-3.635 0.587,-2.668 -0.024,-5.153 -1.686,-6.814 -1.231,-1.231 -2.97,-1.919 -4.876,-1.919 -2.78,0 -5.748,1.383 -8.14,3.773 -4.163,4.165 -4.98,9.87 -1.854,12.997 1.232,1.231 2.97,1.918 4.876,1.918 1.855,0 3.788,-0.633 5.583,-1.75 l 2.61,2.614 -12.933,12.094 -2.187,-2.186 c 0.725,-1.168 1.249,-2.411 1.52,-3.646 0.587,-2.668 -0.036,-5.14 -1.697,-6.8 -1.231,-1.231 -2.956,-1.908 -4.86,-1.908 -2.782,0 -5.754,1.358 -8.145,3.748 -4.165,4.165 -4.965,9.881 -1.839,13.008 1.232,1.231 2.956,1.907 4.861,1.907 1.856,0 3.777,-0.618 5.572,-1.734 l 2.036,2.028 -73.795,69.016 C 505.445,16.154 492.135,11.25 479.315,10.43 464.728,9.498 451.694,13.984 442.62,23.057 a 118,118 0 0 0 -3.346,3.478 l -55.89,-55.88 -11.258,-11.255 a 17.54,17.54 0 0 0 -12.482,-5.172 17.55,17.55 0 0 0 -9.99,3.094 l -1.663,-1.684 a 3.24,3.24 0 0 0 -4.58,0.006 m 10.946,6.362 a 11.1,11.1 0 0 1 5.276,-1.305 c 2.985,0 5.794,1.161 7.905,3.273 3.754,2.105 -4.402,3.683 -6.614,4.616 z m 243.197,243.2 5.62,-5.602 12.056,12.053 -5.62,5.6 z"
         style="display:inline;fill:#ffffff;stroke-width:1.15947"
         transform="matrix(0.02967,0.12153,-0.12764,0.02825,65.488,-20.083)"
         id="path5"
         inkscape:label="fill" /><path
         d="m 428.817,161.1 a 3.235,3.235 0 0 0 2.288,-5.522 l -24.017,-24.016 a 3.2350135,3.2350135 0 0 0 -4.575,4.575 l 24.017,24.017 c 0.631,0.63 1.459,0.947 2.287,0.947 m 14.616,-20.325 a 3.237,3.237 0 0 0 -3.429,5.315 l 1.311,1.31 a 3.235,3.235 0 0 0 4.575,0 l 1.396,-1.395 a 3.37,3.37 0 0 1 4.757,0 3.377,3.377 0 0 1 0,4.77 l -25.388,25.387 c -3.837,3.838 -3.837,10.082 0,13.92 a 9.77,9.77 0 0 0 6.954,2.88 9.76,9.76 0 0 0 6.231,-2.225 3.235,3.235 0 0 0 3.428,-5.316 l -1.31,-1.31 a 3.236,3.236 0 0 0 -4.575,0 l -1.396,1.395 a 3.34,3.34 0 0 1 -2.379,0.985 3.34,3.34 0 0 1 -2.378,-0.985 3.377,3.377 0 0 1 0,-4.77 l 25.387,-25.388 c 3.838,-3.838 3.838,-10.082 0,-13.92 -3.601,-3.6 -9.326,-3.818 -13.184,-0.653 m -29.157,-31.14 a 3.367,3.367 0 0 1 2.385,5.745 l -1.396,1.396 a 3.236,3.236 0 0 0 -10e-4,4.575 l 1.31,1.31 a 3.235,3.235 0 0 0 5.315,-3.428 c 3.166,-3.86 2.947,-9.583 -0.655,-13.184 a 9.78,9.78 0 0 0 -6.96,-2.883 9.78,9.78 0 0 0 -6.959,2.883 l -25.387,25.388 a 3.375,3.375 0 0 1 -4.77,0 3.367,3.367 0 0 1 0,-4.757 l 1.396,-1.396 a 3.236,3.236 0 0 0 -10e-4,-4.576 l -1.311,-1.31 a 3.234,3.234 0 0 0 -5.315,3.43 c -3.165,3.858 -2.947,9.582 0.655,13.184 a 9.8,9.8 0 0 0 6.96,2.878 c 2.52,0 5.04,-0.96 6.96,-2.878 l 25.387,-25.389 a 3.36,3.36 0 0 1 2.387,-0.988 m 234.7,-190.747 -5.199,-5.2 a 6.68,6.68 0 0 0 -4.755,-1.969 6.7,6.7 0 0 0 -3.731,1.132 l -6.358,4.244 -1.543,-1.543 a 3.2343064,3.2343064 0 1 0 -4.574,4.574 l 0.63,0.63 -4.866,3.249 a 6.7,6.7 0 0 0 -2.958,4.932 6.7,6.7 0 0 0 0.36,2.93 l -2.653,2.48 -2.764,-2.764 c 0.725,-1.169 1.253,-2.405 1.524,-3.64 0.587,-2.668 -0.03,-5.152 -1.692,-6.813 -1.231,-1.23 -2.958,-1.91 -4.864,-1.91 -2.78,0 -5.747,1.372 -8.14,3.763 -4.163,4.165 -4.976,9.876 -1.85,13.003 1.231,1.232 2.959,1.91 4.864,1.91 1.855,0 3.79,-0.623 5.585,-1.739 l 2.61,2.61 -12.94,12.097 -2.189,-2.19 c 0.725,-1.168 1.252,-2.404 1.524,-3.639 0.586,-2.668 -0.031,-5.151 -1.692,-6.811 -1.232,-1.232 -2.96,-1.91 -4.864,-1.91 -2.782,0 -5.749,1.37 -8.14,3.76 -4.164,4.166 -4.978,9.877 -1.852,13.004 1.232,1.231 2.959,1.91 4.864,1.91 1.856,0 3.792,-0.623 5.587,-1.739 l 2.035,2.035 -73.803,69 C 505.44,16.146 492.127,11.248 479.307,10.428 464.72,9.496 451.691,13.978 442.617,23.052 a 118,118 0 0 0 -3.348,3.49 l -55.883,-55.884 -0.004,-0.003 -11.262,-11.26 a 17.53,17.53 0 0 0 -12.48,-5.169 17.5,17.5 0 0 0 -9.976,3.097 l -1.683,-1.683 a 3.235,3.235 0 0 0 -4.574,4.575 l 83.596,83.596 c -0.154,0.305 -0.31,0.61 -0.457,0.916 -1.673,2.794 -5.484,7.782 -12.573,10.678 a 6.67,6.67 0 0 0 -4.162,6.205 c 0.008,2.655 1.531,4.919 3.962,5.902 0.076,0.032 0.932,0.428 0.932,0.428 0.988,0.388 1.71,0.935 2.198,1.66 1.433,2.145 0.691,6.128 -1.985,10.654 -3.192,5.4 -8.627,10.923 -15.303,15.553 -9.416,6.537 -19.982,10.13 -26.299,8.93 -1.82,-0.345 -3.103,-1.06 -3.813,-2.119 -0.055,-0.086 -0.594,-0.968 -2.45,-5.495 -0.91,-2.205 -2.967,-3.58 -5.368,-3.587 h -0.017 a 6.07,6.07 0 0 0 -5.606,3.746 26.1,26.1 0 0 1 -5.636,8.4 c -2.705,2.705 -6,4.782 -9.524,6.005 -13.643,4.714 -24.952,11.305 -32.708,19.06 -12.848,12.848 -17.614,31.154 -13.42,51.545 3.88,18.864 14.954,38.19 31.185,54.422 16.227,16.226 35.552,27.299 54.414,31.177 4.828,0.993 9.537,1.483 14.086,1.483 14.665,0 27.652,-5.1 37.457,-14.905 7.749,-7.748 14.341,-19.053 19.068,-32.698 2.346,-6.783 7.594,-12.312 14.384,-15.164 a 6.1,6.1 0 0 0 1.994,-1.326 6.03,6.03 0 0 0 1.654,-5.45 c -0.385,-1.926 -1.65,-3.464 -3.483,-4.222 -4.438,-1.82 -5.345,-2.356 -5.483,-2.446 -1.06,-0.708 -1.772,-1.987 -2.118,-3.801 -1.198,-6.311 2.388,-16.886 8.924,-26.314 4.63,-6.676 10.153,-12.11 15.553,-15.3 4.527,-2.676 8.511,-3.416 10.656,-1.982 0.726,0.488 1.273,1.212 1.67,2.212 l 0.41,0.9 c 0.99,2.444 3.253,3.968 5.909,3.976 h 0.02 c 2.716,0 5.143,-1.633 6.185,-4.167 2.918,-7.117 7.899,-10.905 10.681,-12.56 0.308,-0.148 0.613,-0.305 0.92,-0.459 L 625.021,241.83 c 0.63,0.632 1.46,0.947 2.287,0.947 0.827,0 1.656,-0.316 2.287,-0.947 a 3.234,3.234 0 0 0 0,-4.575 l -15.415,-15.414 10.193,-10.192 -88.254,-88.255 a 116,116 0 0 0 3.489,-3.348 c 9.07,-9.069 13.55,-22.096 12.617,-36.68 -0.82,-12.821 -5.717,-26.134 -13.855,-37.823 l 60.75,-64.977 3.096,3.096 c -0.725,1.169 -1.251,2.404 -1.523,3.638 -0.586,2.667 0.03,5.151 1.692,6.811 1.231,1.232 2.959,1.91 4.864,1.91 2.781,0 5.748,-1.37 8.14,-3.762 4.163,-4.164 4.976,-9.875 1.852,-13.002 -1.232,-1.232 -2.96,-1.91 -4.865,-1.91 -1.857,0 -3.792,0.623 -5.587,1.74 l -3.25,-3.25 12.097,-12.94 3.668,3.667 c -2.303,3.72 -2.35,7.929 0.173,10.454 1.231,1.231 2.959,1.91 4.864,1.91 2.782,0 5.749,-1.37 8.139,-3.761 1.804,-1.805 3.063,-4.003 3.544,-6.192 0.587,-2.668 -0.03,-5.151 -1.692,-6.811 -1.231,-1.232 -2.959,-1.91 -4.864,-1.91 -1.856,0 -3.792,0.622 -5.587,1.739 l -3.825,-3.824 10.742,-11.49 a 6.71,6.71 0 0 0 7.859,-2.593 l 3.248,-4.867 0.636,0.636 a 3.23,3.23 0 0 0 4.574,0.001 3.234,3.234 0 0 0 0,-4.575 l -1.548,-1.548 4.244,-6.358 a 6.74,6.74 0 0 0 -0.835,-8.487 m -48.85,12.51 c -0.147,-0.47 0.17,-2.168 1.842,-3.84 1.29,-1.29 2.72,-1.867 3.564,-1.867 0.135,0 0.227,0.016 0.28,0.03 0.147,0.468 -0.17,2.167 -1.843,3.84 -1.289,1.29 -2.718,1.866 -3.563,1.866 a 1.2,1.2 0 0 1 -0.28,-0.029 m -17.094,17.094 c -0.146,-0.47 0.17,-2.168 1.842,-3.84 1.29,-1.29 2.72,-1.867 3.565,-1.867 0.134,0 0.226,0.015 0.28,0.029 0.147,0.469 -0.17,2.167 -1.843,3.84 -1.29,1.29 -2.72,1.867 -3.564,1.867 a 1.2,1.2 0 0 1 -0.28,-0.03 m 29.626,35.354 c 0.146,0.47 -0.172,2.168 -1.842,3.84 -1.291,1.29 -2.72,1.867 -3.565,1.867 a 1.2,1.2 0 0 1 -0.28,-0.03 c -0.147,-0.469 0.17,-2.167 1.842,-3.84 1.291,-1.289 2.72,-1.866 3.565,-1.866 0.134,0 0.227,0.015 0.28,0.029 m 17.093,-17.093 c 0.147,0.469 -0.17,2.167 -1.843,3.84 -1.289,1.29 -2.719,1.866 -3.564,1.866 a 1.2,1.2 0 0 1 -0.28,-0.029 c -0.146,-0.47 0.172,-2.168 1.843,-3.84 1.29,-1.29 2.72,-1.867 3.565,-1.867 0.134,0 0.227,0.016 0.28,0.03 m -9.662,-29.87 5.692,5.692 -2.042,2.184 -5.834,-5.835 z m -172.9,90.746 c 7.851,-7.852 18.818,-11.567 31.702,-10.742 11.241,0.719 22.95,4.928 33.393,11.93 L 475.723,62.998 443.846,31.121 a 110,110 0 0 1 3.344,-3.493 m 42.629,69.848 5.428,-5.806 31.355,31.356 a 67,67 0 0 1 -6.614,4.62 z M 485.24,92.9 469.764,77.424 l 5.806,-5.428 15.098,15.097 z m -4.42,4.728 -16.226,17.355 L 447.681,98.07 465.036,81.845 Z M 465.188,72.846 435.02,42.678 a 67,67 0 0 1 4.617,-6.617 l 31.358,31.357 z m -110.83,-110.83 a 11.1,11.1 0 0 1 5.28,-1.321 c 2.986,0 5.794,1.163 7.905,3.274 l 1.617,1.618 a 17.6,17.6 0 0 0 -8.228,3.005 z m 11.27,11.27 c 4.226,-2.26 9.609,-1.616 13.173,1.94 l 56.229,56.23 a 76,76 0 0 0 -4.707,6.526 z m -37.434,256.439 26.205,-26.206 4.746,4.747 -26.206,26.205 a 130,130 0 0 1 -2.407,-2.333 134,134 0 0 1 -2.338,-2.413 m 35.942,-25.62 -5.577,-5.577 20.52,-30.902 15.959,15.96 z m 137.139,-57.877 c -0.047,0.111 -0.22,0.012 -0.22,0.012 -0.144,-0.342 -0.267,-0.64 -0.414,-0.911 -0.885,-2.1 -2.22,-3.76 -3.974,-4.938 -8.557,-5.724 -23.659,2.431 -35.127,18.97 -7.694,11.097 -11.512,23.055 -9.963,31.207 0.67,3.532 2.357,6.289 4.872,7.97 0.58,0.388 1.692,0.999 5.403,2.548 -7.999,3.682 -14.156,10.395 -16.982,18.568 -4.344,12.541 -10.57,23.28 -17.528,30.24 -14.43,14.43 -32.798,14.304 -45.666,11.659 -14.943,-3.073 -30.257,-11.055 -43.92,-22.75 l 28.024,-28.022 39.424,-26.179 -27.14,-27.141 -26.18,39.424 -28.022,28.022 c -11.694,-13.664 -19.678,-28.978 -22.751,-43.92 -2.646,-12.868 -2.773,-31.236 11.658,-45.667 6.964,-6.965 17.706,-13.187 30.25,-17.521 4.447,-1.543 8.59,-4.152 11.982,-7.545 a 32.5,32.5 0 0 0 6.575,-9.445 c 1.775,4.245 2.307,5.04 2.545,5.399 1.689,2.525 4.451,4.214 7.99,4.884 8.154,1.545 20.107,-2.276 31.19,-9.97 16.537,-11.468 24.696,-26.565 18.972,-35.127 -1.185,-1.76 -2.847,-3.095 -4.942,-3.97 -0.29,-0.157 -0.628,-0.3 -1.053,-0.478 0.008,-0.05 0.042,-0.113 0.148,-0.157 a 32.73,32.73 0 0 0 15.345,-12.811 l 28.688,28.689 -22.083,20.645 26.375,26.375 20.646,-22.083 28.693,28.692 c -3.567,2.23 -9.371,6.928 -12.815,15.33 m 113.95,65.421 -5.618,5.618 -12.053,-12.054 5.617,-5.617 z m -16.629,-16.628 -5.617,5.617 -68.297,-68.297 a 76,76 0 0 0 6.524,-4.71 z M 545.77,83.779 c 0.824,12.887 -2.888,23.846 -10.734,31.692 a 111,111 0 0 1 -3.493,3.345 L 499.668,86.942 533.843,50.389 c 7,10.442 11.208,22.148 11.927,33.39 m -50.68,-1.414 -14.79,-14.79 106.376,-99.455 7.867,7.867 z m 96.315,-118.665 4.105,-3.838 7.292,7.292 -3.838,4.105 z m 15.819,-1.275 -6.984,-6.984 4.106,-3.838 6.717,6.717 z m 1.85,-15.244 4.104,-3.837 6.142,6.142 -3.836,4.104 z m 24.206,-6.688 c -0.099,0.148 -0.322,0.108 -0.392,0.04 l -10.754,-10.756 c -0.023,-0.024 -0.085,-0.085 -0.074,-0.205 a 0.23,0.23 0 0 1 0.112,-0.186 l 16.711,-11.154 a 0.25,0.25 0 0 1 0.322,0.03 l 5.199,5.199 c 0.084,0.085 0.098,0.22 0.031,0.321 z"
         style="display:inline;stroke-width:1.15947"
         transform="matrix(0.02967,0.12153,-0.12764,0.02825,65.488,-20.083)"
         id="path6"
         inkscape:label="contour" /></g><g
       id="g10"
       transform="matrix(1.2052705,0.26628811,-0.26628811,1.2052705,4.9958186,-13.337008)"
       style="stroke-width:0.810152"
       inkscape:label="head"><circle
         style="fill:#ffffff;stroke:#000000;stroke-width:0.648122;stroke-linecap:round;stroke-linejoin:round;stroke-miterlimit:4.7;stroke-opacity:1"
         id="path7"
         cx="39.430191"
         cy="16.472849"
         r="6.5999999" /><path
         style="fill:#000000;fill-opacity:1;stroke:none;stroke-width:0.648123;stroke-linecap:round;stroke-linejoin:round;stroke-miterlimit:4.7;stroke-opacity:1"
         d="m 35.660826,22.150537 c -1.643165,-3.187135 -2.138649,-6.517244 -0.06071,-10.413215 1.488849,-0.08816 3.684547,0.912566 4.499039,1.603385 0.552845,0.468901 2.417849,2.516943 2.740952,3.856721 0.19153,0.794196 -0.266095,-2.537832 0.04047,-2.45056 3.008056,0.856318 3.359348,7.286141 4.203882,6.997054 3.002616,-3.617411 1.252069,-10.10648 -2.499127,-13.7535275 -2.236367,-2.1742785 -5.933076,-2.4046019 -8.523426,-1.1736558 -2.976894,1.4146339 -4.722101,5.1771773 -5.140602,8.4464193 -0.366433,2.862503 2.091725,4.422713 0.185629,7.353561 2.396562,-0.556167 4.955581,0.312946 4.553893,-0.466182 z"
         id="path8"
         sodipodi:nodetypes="sccsscsascs" /></g></g></svg>
