<svg xmlns="http://www.w3.org/2000/svg" xml:space="preserve" width="100" height="100">
    <path d="M50.765 27.006 66.28 42.649l14.168-13.548" style="display:inline;fill:none;stroke:#000;stroke-width:3;stroke-linecap:round;stroke-linejoin:round;stroke-miterlimit:4.7;stroke-dasharray:none;stroke-opacity:1" transform="translate(-.783 4.782)"/>
    <g style="display:inline;stroke-width:1.83867;stroke-dasharray:none">
        <path d="m44.242 23.499 1.19 18.313" style="fill:none;stroke:#000;stroke-width:1.83867;stroke-linecap:round;stroke-linejoin:round;stroke-miterlimit:4.7;stroke-dasharray:none;stroke-opacity:1" transform="matrix(1.63742 0 0 1.62584 -22.934 -6.417)"/>
        <path d="m56.195 62.957-3.126-1.19-.659-11.799-6.833-8.597-7.078 10.188.284 11.298-4.043.87" style="display:inline;fill:none;stroke:#000;stroke-width:1.83867;stroke-linecap:round;stroke-linejoin:round;stroke-miterlimit:4.7;stroke-dasharray:none;stroke-opacity:1" transform="matrix(1.63742 0 0 1.62584 -22.934 -6.417)"/>
    </g>
    <path d="m33.532 58.26 3.53-16.632L50.529 26.77" style="display:inline;fill:none;stroke:#000;stroke-width:3.00001;stroke-linecap:round;stroke-linejoin:round;stroke-miterlimit:4.7;stroke-dasharray:none;stroke-opacity:1" transform="translate(-.783 4.782)"/>
    <path d="m68.433 21.51 10.564-.143-5.806 14.372-10.279-.095Z" style="fill:#fff;stroke:#000;stroke-width:2;stroke-linecap:round;stroke-linejoin:round;stroke-miterlimit:5;stroke-dasharray:none"/>
    <g transform="translate(47.28 20.777)scale(.32812)">
        <ellipse cx="65.068" cy="23.902" rx="2.499" ry="1.606" style="fill:#fff;stroke:#000;stroke-width:2;stroke-linecap:butt;stroke-linejoin:miter;stroke-miterlimit:5;stroke-dasharray:none"/>
        <path d="m67.522 24.154 3.698-12.568c-.474 4.147 2.476 4.764 1.22 9.825" style="fill:#fff;stroke:#000;stroke-width:2;stroke-linecap:round;stroke-linejoin:round;stroke-miterlimit:5;stroke-dasharray:none"/>
    </g>
    <g transform="translate(48.89 23.057)scale(.32812)">
        <ellipse cx="65.068" cy="23.902" rx="2.499" ry="1.606" style="fill:#fff;stroke:#000;stroke-width:2;stroke-linecap:butt;stroke-linejoin:miter;stroke-miterlimit:5;stroke-dasharray:none"/>
        <path d="m67.522 24.154 3.698-12.568c-.474 4.147 2.476 4.764 1.22 9.825" style="fill:#fff;stroke:#000;stroke-width:2;stroke-linecap:round;stroke-linejoin:round;stroke-miterlimit:5;stroke-dasharray:none"/>
    </g>
    <g transform="translate(2.041 .714)">
        <path d="M53.45 7.275 36.366 17.84l5.416-11.22Z" style="fill:#000;stroke:#000;stroke-width:.723298;stroke-linecap:round;stroke-linejoin:round;stroke-miterlimit:5;stroke-dasharray:none"/>
        <path d="M37.581 12.568c-.21-.594-1.302-6.713-1.302-6.713 6.152-.634 12.287-.274 18.45-.068l.109 6.37s-3.884-4.845-8.961-4.977c-3.297.132-8.296 5.388-8.296 5.388" style="fill:#000;stroke:#000;stroke-width:.479787;stroke-linecap:round;stroke-linejoin:round;stroke-miterlimit:5;stroke-dasharray:none"/>
        <ellipse cx="46.572" cy="16.828" rx="9.621" ry="9.402" style="fill:#fff;stroke:#000;stroke-width:2;stroke-linecap:butt;stroke-linejoin:miter;stroke-miterlimit:5;stroke-dasharray:none"/>
        <path d="M47.062 19.55c-2.572-1.76-3.182 3.271-5.11 1.757.66 2.243 4.945.311 5.127-.142.18.472 4.423 2.342 4.986.12-1.913 1.5-2.878-3.666-5.003-1.735" style="fill:#000;fill-opacity:1;stroke:none;stroke-width:.874636;stroke-linecap:round;stroke-linejoin:round;stroke-miterlimit:5;stroke-dasharray:none"/>
    </g>
</svg>
