<svg xmlns="http://www.w3.org/2000/svg" xml:space="preserve" width="50" height="100">
    <path d="M11.595 13.732 6.798 10.74l4.668 2.895 2.341-2.333-3.05-4.824 3.05 4.824 3.773-1.375-.693-6.193.853 6.281 3.058.107 1.544-7.135-1.55 7.086 3.093 1.42 3.678-5.364-3.553 5.39m2.523 4.406c1.23 4.308-1.29 8.804-5.629 10.042s-8.852-1.25-10.08-5.558C7.746 9.635 23.68 5.931 26.531 15.927" style="display:inline;fill:#fff;stroke:#000;stroke-width:2.00001;stroke-linecap:round;stroke-linejoin:round;stroke-miterlimit:4.7;stroke-dasharray:none;stroke-opacity:1"/>
    <path d="m30.752 49.322-19.327-4.754 9.877-14.09m.235.235 15.11 5.11.365 11.882M40.636 94.866l-5.118-1.934-.92-16.958L23.25 59.771 11.66 76.335l.465 18.369-6.62 1.414m15.56-65.404 1.948 29.774" style="display:inline;fill:none;stroke:#000;stroke-width:3.00001;stroke-linecap:round;stroke-linejoin:round;stroke-miterlimit:4.7;stroke-dasharray:none;stroke-opacity:1"/>
    <path d="M40.89 67.829c.078.141.298.226.466.133l.674-.375 5.012-2.788a.34.34 0 0 0 .163-.206.34.34 0 0 0-.03-.26.34.34 0 0 0-.466-.133l-.216.12a.235.235 0 0 1-.308-.071L42.08 58.34l-.012-.02-1.579-2.837a.235.235 0 0 1 .092-.32l.168-.094a.34.34 0 0 0 .163-.205.34.34 0 0 0-.03-.261.34.34 0 0 0-.466-.133l-.168.094a.235.235 0 0 1-.32-.092l-.562-1.01a.235.235 0 0 1 .09-.32l.17-.094a.34.34 0 0 0 .162-.205.34.34 0 0 0-.03-.26v-.001a.34.34 0 0 0-.466-.133l-.168.094a.235.235 0 0 1-.32-.092l-5.246-9.43a.235.235 0 0 1 .092-.32l.168-.093a.34.34 0 0 0 .163-.206.34.34 0 0 0-.03-.26.34.34 0 0 0-.466-.134l-.169.094a.235.235 0 0 1-.32-.091L32.434 41a.235.235 0 0 1 .092-.32l.168-.094a.34.34 0 0 0 .163-.206.34.34 0 0 0-.03-.26.34.34 0 0 0-.466-.133l-.169.093a.235.235 0 0 1-.32-.091L30 36.622a.235.235 0 0 1 .092-.32l.168-.094a.34.34 0 0 0 .163-.205.34.34 0 0 0-.03-.261.34.34 0 0 0-.466-.133l-.169.094a.235.235 0 0 1-.32-.092l-.693-1.246a.235.235 0 0 1 .091-.32l.169-.093a.34.34 0 0 0 .163-.206.34.34 0 0 0-.03-.26.34.34 0 0 0-.466-.134l-.169.094a.235.235 0 0 1-.32-.091l-.843-1.516q-.008-.015-.02-.03.007.008-.006-.01-.01-.014-.018-.021l-.007-.008-.019-.018-.009-.008q-.01-.01-.022-.017-.026-.018-.005-.004l-2.134-1.46c-.108-.073.016-.225-.098-.162l-.243.135a.235.235 0 0 1-.32-.091l-2.34-4.208a.34.34 0 0 0-.466-.133.34.34 0 0 0-.133.466l2.34 4.208a.235.235 0 0 1-.09.32l-.244.136c-.114.063.081.038.087.168l.113 2.583v.001q0-.039.001.005v.001l.003.027v.001l.002.01.005.025v.001l.003.011.01.027.003.008.016.034 4.72 8.488a.235.235 0 0 1-.09.32l-.17.094a.34.34 0 0 0-.132.466.34.34 0 0 0 .466.133l.169-.094a.235.235 0 0 1 .32.091l.561 1.01a.235.235 0 0 1-.09.321l-.17.094a.34.34 0 0 0-.132.466.34.34 0 0 0 .466.133l.168-.094a.235.235 0 0 1 .32.091l.562 1.01a.235.235 0 0 1-.09.32l-.17.095a.34.34 0 0 0-.132.466.34.34 0 0 0 .466.133l.168-.094a.235.235 0 0 1 .32.091l.562 1.01a.235.235 0 0 1-.091.32l-.168.094a.34.34 0 0 0-.133.466.34.34 0 0 0 .466.133l.168-.093a.235.235 0 0 1 .32.091l.562 1.01a.235.235 0 0 1-.091.32l-.169.094a.34.34 0 0 0-.132.466.34.34 0 0 0 .466.133l.168-.093a.235.235 0 0 1 .32.09l4.95 8.901q.006.01.01.021l2.855 6.604a.235.235 0 0 1-.102.3l-.216.12c-.241.134-.212.325-.133.466" style="display:inline;fill:#fff;stroke-width:.191495"/>
    <path d="M40.89 67.829c.039.07.382.18.466.133l.674-.375 5.012-2.788a.45.45 0 0 0 .163-.206.44.44 0 0 0-.03-.26c-.047-.084-.382-.18-.466-.133l-.216.12c-.053.03-.323.04-.495-.153-2.611-2.92-3.916-5.824-3.918-5.827l-.012-.02-1.579-2.837a.235.235 0 0 1 .092-.32l.168-.094a.34.34 0 0 0 .163-.205.34.34 0 0 0-.03-.261.34.34 0 0 0-.466-.133l-.168.094a.235.235 0 0 1-.32-.092l-.562-1.01a.235.235 0 0 1 .09-.32l.17-.094a.34.34 0 0 0 .162-.205.34.34 0 0 0-.03-.26v-.001a.34.34 0 0 0-.466-.133l-.168.094a.235.235 0 0 1-.32-.092l-5.246-9.43a.235.235 0 0 1 .092-.32l.168-.093a.34.34 0 0 0 .163-.206.34.34 0 0 0-.03-.26.34.34 0 0 0-.466-.134l-.169.094a.235.235 0 0 1-.32-.091L32.434 41a.235.235 0 0 1 .092-.32l.168-.094a.34.34 0 0 0 .163-.206.34.34 0 0 0-.03-.26.34.34 0 0 0-.466-.133l-.169.093a.235.235 0 0 1-.32-.091L30 36.622a.235.235 0 0 1 .092-.32l.168-.094a.34.34 0 0 0 .163-.205.34.34 0 0 0-.03-.261.34.34 0 0 0-.466-.133l-.169.094a.235.235 0 0 1-.32-.092l-.693-1.246a.235.235 0 0 1 .091-.32l.169-.093a.34.34 0 0 0 .163-.206.34.34 0 0 0-.03-.26.34.34 0 0 0-.466-.134l-.169.094a.235.235 0 0 1-.32-.091l-.843-1.516q-.008-.015-.02-.03.007.008-.006-.01-.01-.014-.018-.021l-.007-.008-.019-.018-.009-.008q-.01-.01-.022-.017-.026-.018-.005-.004l-2.134-1.46c-.108-.073.016-.225-.098-.162l-.243.135a.235.235 0 0 1-.32-.091l-2.34-4.208a.34.34 0 0 0-.466-.133.34.34 0 0 0-.133.466l2.34 4.208a.235.235 0 0 1-.09.32l-.244.136c-.114.063.081.038.087.168l.113 2.583v.001q0-.039.001.005v.001l.003.027v.001l.002.01.005.025v.001l.003.011.01.027.003.008.016.034 4.72 8.488a.235.235 0 0 1-.09.32l-.17.094a.34.34 0 0 0-.132.466.34.34 0 0 0 .466.133l.169-.094a.235.235 0 0 1 .32.091l.561 1.01a.235.235 0 0 1-.09.321l-.17.094a.34.34 0 0 0-.132.466.34.34 0 0 0 .466.133l.168-.094a.235.235 0 0 1 .32.091l.562 1.01a.235.235 0 0 1-.09.32l-.17.095a.34.34 0 0 0-.132.466.34.34 0 0 0 .466.133l.168-.094a.235.235 0 0 1 .32.091l.562 1.01a.235.235 0 0 1-.091.32l-.168.094a.34.34 0 0 0-.133.466.34.34 0 0 0 .466.133l.168-.093a.235.235 0 0 1 .32.091l.562 1.01a.235.235 0 0 1-.091.32l-.169.094a.34.34 0 0 0-.132.466.34.34 0 0 0 .466.133l.168-.093a.235.235 0 0 1 .32.09l4.95 8.901.01.021c.002.004 1.662 2.494 2.855 6.604.017.058-.05.27-.102.3l-.216.12c-.12.067-.173.395-.133.466.039.07-.04-.07 0 0m1.035-1.264c-1.617-4.183-2.589-5.989-2.612-6.044s.048-.27.101-.299l2.078-1.156c.053-.03.273.022.307.071.035.05 1.309 2.56 3.758 5.408.045.053-.019.306-.08.34l-3.222 1.793c-.061.034-.305-.048-.33-.113m-3.116-7.06c-18.776-33.21-5.18-8.47-5.18-8.47-.062-.113.474-.207.588-.27l.485-.27a.235.235 0 0 1 .32.091l3.84 6.905c.094.168.341.203.467.133s.139-.12.163-.206a.34.34 0 0 0-.03-.26l-.469-.842a.235.235 0 0 1 .092-.32l.485-.271a.235.235 0 0 1 .32.091l1.312 2.358c.031.057-.035.288-.091.32l-1.982 1.103c-.057.031-.289-.035-.32-.092s.79 1.398 0 0m-5.245-9.43-.562-1.011a.235.235 0 0 1 .09-.32l.487-.27a.235.235 0 0 1 .32.091l.562 1.01a.235.235 0 0 1-.092.32l-.485.27a.235.235 0 0 1-.32-.09m-1.124-2.021-.562-1.01a.235.235 0 0 1 .091-.32l.486-.271a.235.235 0 0 1 .32.091l.562 1.01a.235.235 0 0 1-.092.32l-.485.27a.235.235 0 0 1-.32-.09m-1.124-2.021-.562-1.01a.235.235 0 0 1 .09-.32l.992-.552a.34.34 0 0 0 .163-.205.34.34 0 0 0-.03-.26.34.34 0 0 0-.466-.134l-.991.551a.235.235 0 0 1-.32-.09l-.562-1.011a.235.235 0 0 1 .09-.32l.992-.552a.34.34 0 0 0 .163-.205.34.34 0 0 0-.03-.26.34.34 0 0 0-.466-.134l-.991.551a.235.235 0 0 1-.32-.091l-4.44-7.982a.235.235 0 0 1 .091-.32l.486-.27a.235.235 0 0 1 .32.09l3.222 5.794a.34.34 0 0 0 .466.133.34.34 0 0 0 .163-.206.34.34 0 0 0-.03-.26l-.843-1.516a.235.235 0 0 1 .092-.32l.485-.27a.235.235 0 0 1 .32.091l3.278 5.895 5.527 9.935a.235.235 0 0 1-.092.32l-.486.27a.235.235 0 0 1-.32-.09l-4.214-7.579a.34.34 0 0 0-.467-.133l-.99.551a.235.235 0 0 1-.32-.091m-6.73-14.916c.597-.312 1.488.644 1.488.644a.235.235 0 0 1-.018.4l-1.62.9c-.448-.721-.445-1.632.15-1.945m13.845 24.189-.561-1.01a.235.235 0 0 1 .09-.32l.487-.271a.235.235 0 0 1 .32.091l.562 1.01a.235.235 0 0 1-.092.32l-.486.271a.235.235 0 0 1-.32-.091m-10.49-18.862-.692-1.246a.235.235 0 0 1 .09-.32l.486-.27a.235.235 0 0 1 .32.092l.693 1.246a.235.235 0 0 1-.09.32l-.486.27a.235.235 0 0 1-.32-.092m-1.255-2.256-.562-1.01a.235.235 0 0 1 .091-.32l.485-.27a.235.235 0 0 1 .32.09l.562 1.01a.235.235 0 0 1-.091.321l-.485.27a.235.235 0 0 1-.32-.091" style="display:inline;stroke-width:.191495"/>
</svg>
