<svg xmlns="http://www.w3.org/2000/svg" xml:space="preserve" width="100" height="100">
    <path d="m50.04 14.807-4.797-2.992 4.668 2.895 2.341-2.333-3.05-4.824 3.05 4.824 3.773-1.375-.693-6.193.853 6.281 3.058.107 1.544-7.135-1.55 7.086 3.093 1.42 3.678-5.364-3.553 5.389M64.978 17c1.23 4.308-1.29 8.804-5.629 10.042s-8.852-1.25-10.081-5.558C46.192 10.71 62.126 7.006 64.977 17.002" style="display:inline;fill:#fff;stroke:#000;stroke-width:2.00001;stroke-linecap:round;stroke-linejoin:round;stroke-miterlimit:4.7;stroke-dasharray:none;stroke-opacity:1" transform="translate(-12.456 -.881)"/>
    <path d="M69.197 50.397 49.87 45.643l9.877-14.091m.235.236 15.109 5.11.366 11.882" style="display:inline;fill:none;stroke:#000;stroke-width:3.00001;stroke-linecap:round;stroke-linejoin:round;stroke-miterlimit:4.7;stroke-dasharray:none;stroke-opacity:1" transform="translate(-12.456 -.881)"/>
    <g style="display:inline;stroke-width:1.83867;stroke-dasharray:none">
        <path d="m56.195 62.957-3.126-1.19-.562-10.43-6.93-9.966-7.078 10.188.284 11.298-4.043.87m9.502-40.228 1.19 18.313" style="display:inline;fill:none;stroke:#000;stroke-width:1.83867;stroke-linecap:round;stroke-linejoin:round;stroke-miterlimit:4.7;stroke-dasharray:none;stroke-opacity:1" transform="matrix(1.63742 0 0 1.62584 -25.39 -7.298)"/>
    </g>
    <g style="display:inline;stroke-width:2.48437">
        <path d="M-45.121 173.085c-2.096 0-4.448 1.957-4.447 4.447v10.014l.006 74.407c0 1.244.494 2.336 1.302 3.144a4.4 4.4 0 0 0 3.143 1.3h.002c2.493 0 4.448-1.954 4.447-4.444v-3.213a3.053 3.053 0 0 1 2.748-3.037l92.875-9.288a3 3 0 0 1 .305-.015h42.125a3.053 3.053 0 0 1 3.053 3.053v2.5c0 1.246.493 2.337 1.3 3.144a4.4 4.4 0 0 0 3.145 1.303h.002c2.492 0 4.446-1.956 4.445-4.447v-2.5a3.053 3.053 0 0 1 3.053-3.053h15.002a3.053 3.053 0 0 1 3.053 3.053v2.502a4.4 4.4 0 0 0 1.3 3.142 4.4 4.4 0 0 0 3.143 1.303h.002c2.492 0 4.448-1.957 4.447-4.447v-2.5a3.053 3.053 0 0 1 3.053-3.053l139.994-.01a3.053 3.053 0 0 1 3.053 3.054v2.498c0 1.246.496 2.341 1.303 3.148a4.4 4.4 0 0 0 3.146 1.303c2.492 0 4.448-1.957 4.447-4.447v-2.5a3.053 3.053 0 0 1 3.053-3.053h14.998a3.053 3.053 0 0 1 3.053 3.053v2.498a4.4 4.4 0 0 0 1.303 3.146 4.4 4.4 0 0 0 3.146 1.303c2.492 0 4.446-1.956 4.445-4.447v-2.5a3.053 3.053 0 0 1 3.053-3.053h50a3.053 3.053 0 0 1 3.053 3.053v2.498a4.4 4.4 0 0 0 1.303 3.146 4.4 4.4 0 0 0 3.146 1.303c2.492 0 4.446-1.956 4.445-4.447v-2.5a3.053 3.053 0 0 1 3.053-3.053h18.5a3.053 3.053 0 0 1 3.053 3.053v2.5c0 1.245.495 2.337 1.303 3.144a4.4 4.4 0 0 0 3.146 1.303c2.493 0 4.446-1.954 4.445-4.445v-2.502a3.053 3.053 0 0 1 3.053-3.053h22.5q.23-.001.469-.026h.006q-.14.016.137-.023l.006-.002q.223-.03.355-.06-.035.007.139-.038h.002c.114-.029.217-.06.318-.093l.004-.002q.11-.038.137-.05l.01-.003q.166-.062.328-.14l.004-.003c.243-.121.265-.126.068-.027l.006-.002 30-15c1.513-.756 2.46 1.61 2.46-.08v-3.605a3.053 3.053 0 0 1 3.052-3.052l62.467.002c2.487 0 4.445-1.957 4.445-4.45s-1.954-4.447-4.447-4.447h-62.467a3.053 3.053 0 0 1-3.054-3.052v-3.61c0-1.69-.943.68-2.459-.08h-.002l-29.996-15-.017-.008c.305.156.287.145-.063-.021l-.011-.006a4 4 0 0 0-.317-.135l-.021-.01-.11-.039a4 4 0 0 0-.324-.098l-.016-.004c-.12-.03-.18-.047-.144-.039h-.004a5 5 0 0 0-.361-.06h-.002c-.186-.026-.226-.031-.102-.018h-.006a4 4 0 0 0-.492-.031h-126a3.053 3.053 0 0 1-3.053-3.055l.002-2.497c0-2.493-1.953-4.447-4.447-4.447s-4.448 1.954-4.447 4.445v2.502a3.053 3.053 0 0 1-3.053 3.053l-15-.002a3.053 3.053 0 0 1-3.053-3.053v-2.5c0-2.494-1.954-4.447-4.447-4.447-2.492 0-4.448 1.956-4.447 4.447v2.5a3.053 3.053 0 0 1-3.053 3.053h-15a3.053 3.053 0 0 1-3.053-3.053v-2.5c0-2.493-1.954-4.448-4.445-4.447-2.492 0-4.448 1.956-4.448 4.447v2.5a3.053 3.053 0 0 1-3.052 3.053h-15a3.053 3.053 0 0 1-3.053-3.053v-2.5c0-2.492-1.956-4.448-4.447-4.447-2.492 0-4.448 1.956-4.448 4.447v2.5a3.053 3.053 0 0 1-3.052 3.053h-15a3.053 3.053 0 0 1-3.053-3.053v-2.5c0-2.492-1.956-4.448-4.447-4.447-2.492 0-4.448 1.956-4.448 4.447v2.5a3.053 3.053 0 0 1-3.052 3.053l-132.125.006q-.153 0-.305-.016l-92.875-9.287a3.053 3.053 0 0 1-2.748-3.037v-3.213c0-3.577-2.35-4.448-4.447-4.448" style="display:inline;fill:#fff;stroke-width:2.48437" transform="rotate(-119.081 47.779 19.994)scale(.07708)"/>
        <path d="M-45.121 173.085c-1.048 0-4.447 3.202-4.447 4.447v10.014c0 14.07.006 73.784.006 74.407s.494 2.336 1.302 3.144 2.52 1.3 3.143 1.3h.002c1.246 0 4.447-3.199 4.447-4.444v-3.213c0-.784 1.59-3.907 4.86-4.645 49.56-11.198 90.713-7.674 90.763-7.68s.254-.015.305-.015h42.125a3.053 3.053 0 0 1 3.053 3.053v2.5c0 1.246.493 2.337 1.3 3.144a4.4 4.4 0 0 0 3.145 1.303h.002c2.492 0 4.446-1.956 4.445-4.447v-2.5a3.053 3.053 0 0 1 3.053-3.053h15.002a3.053 3.053 0 0 1 3.053 3.053v2.502a4.4 4.4 0 0 0 1.3 3.142 4.4 4.4 0 0 0 3.143 1.303h.002c2.492 0 4.448-1.957 4.447-4.447v-2.5a3.053 3.053 0 0 1 3.053-3.053l139.994-.01a3.053 3.053 0 0 1 3.053 3.054v2.498c0 1.246.496 2.341 1.303 3.148a4.4 4.4 0 0 0 3.146 1.303c2.492 0 4.448-1.957 4.447-4.447v-2.5a3.053 3.053 0 0 1 3.053-3.053h14.998a3.053 3.053 0 0 1 3.053 3.053v2.498a4.4 4.4 0 0 0 1.303 3.146 4.4 4.4 0 0 0 3.146 1.303c2.492 0 4.446-1.956 4.445-4.447v-2.5a3.053 3.053 0 0 1 3.053-3.053h50a3.053 3.053 0 0 1 3.053 3.053v2.498a4.4 4.4 0 0 0 1.303 3.146 4.4 4.4 0 0 0 3.146 1.303c2.492 0 4.446-1.956 4.445-4.447v-2.5a3.053 3.053 0 0 1 3.053-3.053h18.5a3.053 3.053 0 0 1 3.053 3.053v2.5c0 1.245.495 2.337 1.303 3.144a4.4 4.4 0 0 0 3.146 1.303c2.493 0 4.446-1.954 4.445-4.445v-2.502a3.053 3.053 0 0 1 3.053-3.053h22.5q.23-.001.469-.026h.006q-.14.016.137-.023l.006-.002q.223-.03.355-.06-.035.006.139-.038h.002c.114-.029.217-.06.318-.093l.004-.002q.11-.038.137-.05l.01-.003q.166-.062.328-.14l.004-.003c.243-.121.265-.126.068-.027l.006-.002 30-15c1.513-.756 2.46 1.61 2.46-.08v-3.605a3.053 3.053 0 0 1 3.052-3.052l62.467.002c2.487 0 4.445-1.957 4.445-4.45s-1.954-4.447-4.447-4.447h-62.467a3.053 3.053 0 0 1-3.054-3.052v-3.61c0-1.69-.943.68-2.459-.08h-.002l-29.996-15-.017-.008c.305.156.287.145-.063-.021l-.011-.006a4 4 0 0 0-.317-.135l-.021-.01-.11-.039a4 4 0 0 0-.324-.098l-.016-.004c-.12-.03-.18-.047-.144-.039h-.004a5 5 0 0 0-.361-.06h-.002c-.186-.026-.226-.031-.102-.018h-.006a4 4 0 0 0-.492-.031h-126a3.053 3.053 0 0 1-3.053-3.055l.002-2.497c0-2.493-1.953-4.447-4.447-4.447s-4.448 1.954-4.447 4.445v2.502a3.053 3.053 0 0 1-3.053 3.053l-15-.002a3.053 3.053 0 0 1-3.053-3.053v-2.5c0-2.494-1.954-4.447-4.447-4.447-2.492 0-4.448 1.956-4.447 4.447v2.5a3.053 3.053 0 0 1-3.053 3.053h-15a3.053 3.053 0 0 1-3.053-3.053v-2.5c0-2.493-1.954-4.448-4.445-4.447-2.492 0-4.448 1.956-4.448 4.447v2.5a3.053 3.053 0 0 1-3.052 3.053h-15a3.053 3.053 0 0 1-3.053-3.053v-2.5c0-2.492-1.956-4.448-4.447-4.447-2.492 0-4.448 1.956-4.448 4.447v2.5a3.053 3.053 0 0 1-3.052 3.053h-15a3.053 3.053 0 0 1-3.053-3.053v-2.5c0-2.492-1.956-4.448-4.447-4.447-2.492 0-4.448 1.956-4.448 4.447v2.5a3.053 3.053 0 0 1-3.052 3.053l-132.125.006a5 5 0 0 1-.305-.016c-.05-.005-38.75 3.11-92.875-9.287-.764-.175-2.748-2.253-2.748-3.037v-3.213c0-1.788-3.399-4.448-4.447-4.448s1.048 0 0 0m7.799 19.7c57.627 8.048 84.222 8.421 85.002 8.5.78.078 2.748 2.253 2.748 3.036l.006 30.846c0 .784-1.968 2.96-2.748 3.038s-37.271-1.307-85.002 8.5c-.885.181-3.358-2.135-3.358-3.038l-.006-47.846c0-.903 2.463-3.162 3.358-3.037m99.695 9.197c494.931-3.463 128.689-5.315 128.689-5.315 1.686 0-.636 6.675-.636 8.361v7.211a3.053 3.053 0 0 1-3.053 3.053h-102.5c-2.492 0-4.447 2.58-4.447 4.447 0 1.868.494 2.336 1.303 3.144a4.4 4.4 0 0 0 3.142 1.303h12.502a3.053 3.053 0 0 1 3.053 3.053l.006 7.215a3.053 3.053 0 0 1-3.053 3.053h-35c-.843 0-3.053-2.21-3.053-3.053l-.006-29.42c0-.843 2.21-3.053 3.053-3.053s-20.833.146 0 0m140.002-.002h15a3.053 3.053 0 0 1 3.053 3.052v7.211a3.053 3.053 0 0 1-3.053 3.053h-15a3.053 3.053 0 0 1-3.053-3.053v-7.21a3.053 3.053 0 0 1 3.053-3.053m30 0h15a3.053 3.053 0 0 1 3.053 3.052v7.211a3.053 3.053 0 0 1-3.053 3.053h-15a3.053 3.053 0 0 1-3.053-3.053v-7.21a3.053 3.053 0 0 1 3.053-3.053m30-.004h14.998a3.053 3.053 0 0 1 3.053 3.052v14.709a4.4 4.4 0 0 0 1.303 3.147 4.4 4.4 0 0 0 3.146 1.302c2.492 0 4.446-1.955 4.445-4.447v-14.71a3.053 3.053 0 0 1 3.053-3.053h15.002a3.053 3.053 0 0 1 3.053 3.052v14.711c0 1.247.494 2.338 1.303 3.146a4.4 4.4 0 0 0 3.144 1.303c2.492 0 4.448-1.956 4.447-4.447v-14.71a3.053 3.053 0 0 1 3.053-3.053h118.5a3.053 3.053 0 0 1 3.053 3.052v7.209a3.053 3.053 0 0 1-3.053 3.053h-86c-2.492 0-4.448 1.956-4.447 4.447a4.4 4.4 0 0 0 1.303 3.146 4.4 4.4 0 0 0 3.146 1.301h22.498a3.053 3.053 0 0 1 3.053 3.053v7.206a3.053 3.053 0 0 1-3.053 3.053h-87.5l-147.496.009a3.053 3.053 0 0 1-3.053-3.053l-.006-7.215a3.053 3.053 0 0 1 3.053-3.053h112.502c2.492 0 4.448-1.957 4.447-4.447v-14.71a3.053 3.053 0 0 1 3.053-3.054zm211.55 17.767c-.22 8.725-16.687 12.801-16.687 12.801-2.03 1.014-4.417-.461-4.418-2.73V205.77c11.016-.532 21.327 5.247 21.106 13.973m-361.55 4.444h15a3.053 3.053 0 0 1 3.053 3.052l.006 7.216a3.053 3.053 0 0 1-3.053 3.052h-15a3.053 3.053 0 0 1-3.053-3.052l-.006-7.216a3.053 3.053 0 0 1 3.053-3.052m280 .004h18.498a3.053 3.053 0 0 1 3.053 3.052v7.206a3.053 3.053 0 0 1-3.053 3.053h-18.498a3.053 3.053 0 0 1-3.053-3.053v-7.206a3.053 3.053 0 0 1 3.053-3.052m33.5 0h14.998a3.053 3.053 0 0 1 3.053 3.052v7.206a3.053 3.053 0 0 1-3.053 3.053h-14.998a3.053 3.053 0 0 1-3.053-3.053v-7.206a3.053 3.053 0 0 1 3.053-3.052" style="display:inline;stroke-width:2.48437" transform="rotate(-119.081 47.779 19.994)scale(.07708)"/>
    </g>
</svg>
