<?xml version="1.0" encoding="UTF-8" standalone="no"?>
<svg
   xml:space="preserve"
   width="100"
   height="100"
   version="1.1"
   id="svg7"
   sodipodi:docname="human_trumpet_1.svg"
   inkscape:version="1.3.2 (091e20e, 2023-11-25)"
   xmlns:inkscape="http://www.inkscape.org/namespaces/inkscape"
   xmlns:sodipodi="http://sodipodi.sourceforge.net/DTD/sodipodi-0.dtd"
   xmlns="http://www.w3.org/2000/svg"
   xmlns:svg="http://www.w3.org/2000/svg"><defs
     id="defs7" /><sodipodi:namedview
     id="namedview7"
     pagecolor="#ffffff"
     bordercolor="#000000"
     borderopacity="0.25"
     inkscape:showpageshadow="2"
     inkscape:pageopacity="0.0"
     inkscape:pagecheckerboard="0"
     inkscape:deskcolor="#d1d1d1"
     inkscape:current-layer="svg7" /><path
     d="m34.823 10.025-4.797-2.992 4.668 2.895 2.341-2.333-3.05-4.824 3.05 4.824 3.773-1.375-.693-6.193.853 6.281 3.058.107L45.57-.72l-1.55 7.086 3.093 1.42 3.678-5.364-3.553 5.389m2.523 4.407c1.23 4.308-1.29 8.804-5.629 10.042s-8.852-1.25-10.081-5.558C30.975 5.928 46.909 2.224 49.76 12.22"
     style="display:inline;fill:#fff;stroke:#000;stroke-width:2.00001;stroke-linecap:round;stroke-linejoin:round;stroke-miterlimit:4.7;stroke-dasharray:none;stroke-opacity:1"
     transform="translate(-.783 4.782)"
     id="path7"
     inkscape:label="head" /><path
     style="display:inline;fill:#3366cc;stroke:#000000;stroke-width:3;stroke-linecap:round;stroke-linejoin:round;stroke-miterlimit:4.7;stroke-dasharray:none;stroke-opacity:1"
     d="M 62.706388,42.331373 69.251964,28.821295"
     id="path79"
     sodipodi:nodetypes="cc" /><g
     id="g78"
     transform="rotate(7.3373767,-17.527352,11.443759)"
     style="display:inline;stroke:#000000;stroke-opacity:1;stroke-width:0.2;stroke-dasharray:none"><path
       id="path121"
       style="display:inline;stroke-width:0.2;fill:#ffffff;stroke:#000000;stroke-opacity:1;stroke-dasharray:none"
       d="M 52.129711 12.810486 A 0.29604592 0.29604592 0 0 0 51.975557 13.050892 L 51.89081 14.304402 A 0.29514881 0.29514881 0 0 0 52.29308 14.599191 L 53.603484 14.085837 L 55.892181 14.242089 C 55.92134 14.318349 55.962997 14.389589 56.017722 14.452387 L 56.019909 14.454075 C 56.144609 14.596716 56.317407 14.682213 56.5058 14.694773 L 57.523053 14.764649 C 57.404017 14.841799 57.291036 14.928395 57.182187 15.023189 A 2.9739159 2.9739159 0 0 0 56.164066 17.072339 A 2.982887 2.982887 0 0 0 56.896209 19.240732 A 2.982887 2.982887 0 0 0 58.947296 20.258604 L 60.939876 20.393908 C 61.000426 20.519951 61.075776 20.636295 61.165486 20.739015 A 1.5250851 1.5250851 0 0 0 62.214927 21.257674 L 66.323434 21.537999 L 66.241388 22.736022 C 66.226588 22.957159 66.299159 23.17114 66.444935 23.338003 C 66.590715 23.504865 66.79321 23.603838 67.014796 23.619089 A 0.8298257 0.8298257 0 0 0 67.898113 22.847619 L 68.032287 20.876845 L 68.21693 20.888516 L 68.083006 22.861226 C 68.068206 23.082363 68.140527 23.294409 68.286303 23.46127 C 68.432084 23.628133 68.634829 23.729043 68.856414 23.744294 A 0.8298257 0.8298257 0 0 0 69.73973 22.972823 L 69.873904 21.002049 L 70.058547 21.01372 L 69.924623 22.986431 C 69.909823 23.207567 69.982135 23.419614 70.12792 23.586475 C 70.2737 23.753337 70.476893 23.854247 70.698031 23.869498 A 0.8298257 0.8298257 0 0 0 71.581348 23.098027 L 71.715521 21.127254 L 81.771716 21.809485 A 2.9694303 2.9694303 0 0 0 83.940359 21.079279 A 2.9694303 2.9694303 0 0 0 84.95823 19.028192 A 2.9694303 2.9694303 0 0 0 84.397181 17.072108 L 84.932986 17.1193 C 85.657854 17.1839 86.374966 17.338226 87.061702 17.577755 C 88.236015 17.987284 89.246557 18.834939 89.909065 19.962154 C 90.29931 20.626463 90.747396 20.790505 91.054211 20.811139 C 91.661991 20.852399 92.244539 20.385449 92.696687 19.496864 C 93.109362 18.685431 93.380921 17.593666 93.460759 16.42294 C 93.635689 13.840166 92.866382 11.831331 91.669634 11.750142 C 91.360139 11.729062 90.890845 11.83299 90.412233 12.445719 C 89.586895 13.502512 88.459731 14.218769 87.237416 14.461437 C 86.535878 14.600487 85.817581 14.653672 85.103477 14.62003 L 72.197901 14.015223 L 72.232091 13.500784 L 71.699719 13.464965 L 71.728256 13.059564 L 71.911212 13.073421 A 0.29570661 0.29570661 0 1 0 71.95142 12.483376 L 70.993776 12.41764 A 0.29570661 0.29570661 0 1 0 70.953568 13.007685 L 71.138212 13.019356 L 71.111611 13.424508 L 70.577303 13.388938 L 70.539605 13.937306 L 70.353274 13.927822 L 70.39266 13.377268 L 69.858102 13.339761 L 69.886639 12.934359 L 70.069594 12.948217 A 0.29570661 0.29570661 0 1 0 70.109803 12.358172 L 69.152159 12.292436 A 0.29570661 0.29570661 0 1 0 69.111951 12.882481 L 69.296594 12.894151 L 69.268057 13.299553 L 68.735686 13.263734 L 68.694979 13.849905 L 68.508648 13.840421 L 68.551042 13.252063 L 68.016485 13.214557 L 68.043085 12.809404 L 68.227977 12.823012 A 0.29570661 0.29570661 0 1 0 68.268185 12.232968 L 67.310542 12.167231 A 0.29570661 0.29570661 0 1 0 67.270334 12.757276 L 67.454977 12.768947 L 67.42644 13.174349 L 66.894068 13.13853 L 66.850602 13.764441 L 56.587776 13.282111 A 0.71320155 0.71320155 0 0 0 55.932389 13.652044 L 53.643941 13.497729 L 52.415334 12.811124 A 0.29604592 0.29604592 0 0 0 52.129711 12.810486 z " /><path
       d="m 92.697544,19.496489 c 0.412675,-0.811434 0.684048,-1.902767 0.763886,-3.073494 0.17493,-2.582776 -0.595231,-4.591852 -1.791981,-4.673041 -0.309495,-0.02108 -0.778239,0.08253 -1.256851,0.69526 -0.825339,1.056794 -1.953446,1.772687 -3.175762,2.015355 -0.701539,0.139051 -1.41967,0.192879 -2.133774,0.159237 l -12.904908,-0.605549 0.03499,-0.512698 -0.53333,-0.03633 0.02781,-0.405045 0.183907,0.01256 a 0.29539072,0.29539072 0 1 0 0.04036,-0.589401 l -0.958112,-0.06503 a 0.29537571,0.29537571 0 1 0 -0.03992,0.589401 l 0.183908,0.01256 -0.02691,0.405045 -0.53378,-0.03588 -0.03723,0.547235 -0.185701,-0.009 0.03767,-0.551273 -0.53378,-0.03588 0.02782,-0.405494 0.183907,0.01256 a 0.29539072,0.29539072 0 1 0 0.04036,-0.589401 l -0.957664,-0.06503 a 0.29539072,0.29539072 0 1 0 -0.04036,0.589401 l 0.183907,0.01256 -0.02691,0.405044 -0.53378,-0.03588 -0.03947,0.585811 -0.186148,-0.009 0.04036,-0.589849 -0.53378,-0.03588 0.02781,-0.405493 0.183907,0.01256 a 0.29539072,0.29539072 0 1 0 0.04036,-0.589401 l -0.957663,-0.06503 a 0.29539072,0.29539072 0 1 0 -0.04035,0.589399 l 0.184356,0.01256 -0.02736,0.405046 -0.53378,-0.03588 -0.04217,0.624836 -10.264274,-0.48219 a 0.71320155,0.71320155 0 0 0 -0.65489,0.370953 L 53.6437,13.497075 52.41466,12.812132 a 0.29604592,0.29604592 0 0 0 -0.438685,0.238181 l -0.08522,1.253262 a 0.29514881,0.29514881 0 0 0 0.402354,0.295149 l 1.310676,-0.51225 2.288524,0.155201 c 0.02916,0.07626 0.07087,0.148022 0.125595,0.21082 l 0.0023,0.0023 c 0.1247,0.142641 0.296944,0.228314 0.485337,0.240874 l 1.018218,0.06908 q -0.178555,0.115726 -0.341828,0.257917 a 2.9739159,2.9739159 0 0 0 -1.016873,2.049895 2.982887,2.982887 0 0 0 0.731592,2.16876 2.982887,2.982887 0 0 0 2.049894,1.018219 l 1.992928,0.135015 c 0.06055,0.126043 0.135463,0.242667 0.225173,0.345387 a 1.5250851,1.5250851 0 0 0 1.050067,0.518529 l 4.108758,0.279 -0.08164,1.197641 c -0.0148,0.221137 0.05697,0.435097 0.202746,0.60196 0.14578,0.166862 0.348078,0.267339 0.569665,0.28259 A 0.8298257,0.8298257 0 0 0 67.8979,22.84771 l 0.134119,-1.971397 0.1857,0.01256 -0.134117,1.971397 c -0.0148,0.221137 0.05697,0.435098 0.202746,0.601959 0.145781,0.166863 0.348079,0.267339 0.569664,0.28259 a 0.8298257,0.8298257 0 0 0 0.883653,-0.771962 l 0.134567,-1.971397 0.185252,0.01256 -0.134118,1.971397 c -0.0148,0.221137 0.05741,0.435098 0.203195,0.601959 0.14578,0.166863 0.34763,0.267339 0.568768,0.28259 a 0.8298257,0.8298257 0 0 0 0.884549,-0.771963 l 0.13367,-1.971396 10.056587,0.682699 a 2.9694303,2.9694303 0 0 0 2.168762,-0.730695 2.9694303,2.9694303 0 0 0 1.017321,-2.049893 2.9694303,2.9694303 0 0 0 -0.561136,-1.956146 l 0.536465,0.04755 c 0.724869,0.0646 1.440763,0.218894 2.127499,0.458423 1.174314,0.409529 2.184906,1.255952 2.847414,2.383169 0.390246,0.664309 0.838801,0.828928 1.145616,0.849562 0.607781,0.04126 1.191353,-0.425678 1.643502,-1.314264 m -40.185992,-5.617697 0.02243,-0.324304 0.332379,0.185701 z m 17.988378,0.646815 -0.03543,0.522567 -0.185702,-0.01256 0.03543,-0.518977 z m -0.323408,2.018496 0.185703,0.01211 -0.200504,2.947003 -0.185254,-0.01256 z m 0.03992,-0.589849 0.02243,-0.329239 0.1857,0.01256 -0.02243,0.329239 z m -1.56097,-1.515665 -0.03274,0.485336 -0.185701,-0.01256 0.03274,-0.481299 z m -0.320716,1.979919 0.185254,0.01256 -0.200056,2.947004 -0.185253,-0.01256 z m 0.03992,-0.588952 0.02243,-0.32879 0.185253,0.01256 -0.02243,0.32879 z M 56.545892,14.106707 a 0.11662416,0.11662416 0 0 1 -0.08164,-0.04127 0.1211097,0.1211097 0 0 1 -0.02781,-0.08477 c 0.0045,-0.06369 0.05831,-0.111685 0.122455,-0.108553 l 10.25216,0.481298 -0.03006,0.445864 -5.195606,-0.351666 4.47e-4,-0.004 z m 2.440137,5.563421 a 2.402906,2.402906 0 0 1 -2.23156,-2.556761 2.3863096,2.3863096 0 0 1 0.81637,-1.646194 2.3907951,2.3907951 0 0 1 1.595059,-0.591196 l 7.574739,0.512698 -0.02243,0.328791 -7.399353,-0.502381 a 2.0588649,2.0588649 0 0 0 -1.499967,0.505072 2.0588649,2.0588649 0 0 0 -0.702884,1.417432 2.0633503,2.0633503 0 0 0 0.505969,1.49907 2.0633503,2.0633503 0 0 0 1.416983,0.70423 l 7.399353,0.502381 -0.02243,0.331034 z m 7.492204,-0.416708 -4.664967,-0.31668 a 0.93299318,0.93299318 0 0 1 0.569216,-0.146228 l 4.108759,0.279002 z m -4.055829,-1.052308 a 1.5205995,1.5205995 0 0 0 -1.379753,0.683148 l -1.963773,-0.13322 a 1.466773,1.466773 0 0 1 -1.012387,-0.502381 1.466773,1.466773 0 0 1 -0.361086,-1.071148 1.4712586,1.4712586 0 0 1 0.502382,-1.012387 1.4712586,1.4712586 0 0 1 1.071147,-0.360638 l 7.399354,0.502381 -0.147574,2.173246 z m -0.16776,2.467947 a 0.9419643,0.9419643 0 0 1 -0.547237,-0.222035 l 4.668555,0.316679 -0.01256,0.184356 z m 4.799532,2.36119 A 0.24491072,0.24491072 0 0 1 66.831245,22.77547 l 0.611828,-9.006973 0.477263,0.0323 -0.61138,9.006973 a 0.23952807,0.23952807 0 0 1 -0.255227,0.222483 m 1.018218,-2.743358 0.02243,-0.331482 0.185253,0.01256 -0.02243,0.33193 z m 0.823097,2.868505 a 0.24491072,0.24491072 0 0 1 -0.222483,-0.25523 l 0.611828,-9.006972 0.477262,0.03275 -0.61138,9.006972 a 0.23952807,0.23952807 0 0 1 -0.255227,0.222483 m 1.018219,-2.743359 0.02243,-0.331481 0.185701,0.01256 -0.02243,0.331931 z m 0.823545,2.868506 a 0.24491072,0.24491072 0 0 1 -0.222527,-0.255283 l 0.611828,-9.006974 0.477261,0.0323 -0.61138,9.006973 a 0.23952807,0.23952807 0 0 1 -0.255227,0.222932 m 1.093576,-3.848597 8.32472,0.565178 a 0.4754677,0.4754677 0 0 1 0.364678,0.209923 l -8.701958,-0.590745 z m 9.338904,0.819508 a 1.0765306,1.0765306 0 0 0 -0.239981,-0.47906 C 80.740875,19.557043 80.48071,19.426962 80.19498,19.408123 l -8.32472,-0.565179 0.148023,-2.173694 10.025189,0.680905 a 1.466773,1.466773 0 0 1 1.012388,0.502382 c 0.259269,0.296942 0.387105,0.677316 0.360637,1.071147 a 1.466773,1.466773 0 0 1 -0.502381,1.012387 1.466773,1.466773 0 0 1 -1.071144,0.361087 z m 2.382722,0.382169 a 2.3863096,2.3863096 0 0 1 -1.740394,0.58626 l -10.056589,-0.6827 0.02243,-0.331929 10.025194,0.680905 a 2.0543793,2.0543793 0 0 0 1.499967,-0.505072 2.0543793,2.0543793 0 0 0 0.702881,-1.417432 2.0543793,2.0543793 0 0 0 -0.505073,-1.499966 2.0543793,2.0543793 0 0 0 -1.417433,-0.702885 l -10.02519,-0.680906 0.02243,-0.329239 10.056591,0.680457 a 2.3863096,2.3863096 0 0 1 1.645294,0.81637 2.3863096,2.3863096 0 0 1 0.586264,1.740391 2.381824,2.381824 0 0 1 -0.816368,1.645746 z m 7.54155,-0.411773 c -0.299199,-0.02019 -0.532889,-0.315332 -0.676422,-0.559795 -0.73294,-1.246981 -1.855671,-2.185805 -3.161861,-2.641088 a 9.419643,9.419643 0 0 0 -2.26969,-0.488925 L 83.75426,16.4221 a 2.9604592,2.9604592 0 0 0 -1.578011,-0.579981 l -10.056144,-0.680905 0.03812,-0.557105 12.917024,0.605548 c 0.761643,0.03588 1.527327,-0.02109 2.275964,-0.170002 1.361368,-0.270029 2.613729,-1.062177 3.526544,-2.230661 0.176282,-0.225623 0.449446,-0.49027 0.751326,-0.470085 0.713654,0.04889 1.400383,1.721103 1.242498,4.044167 -0.07442,1.092678 -0.322957,2.103721 -0.700642,2.845628 -0.333277,0.654891 -0.726215,1.017322 -1.077426,0.9931"
       style="display:inline;stroke-width:0.2;stroke:#000000;stroke-opacity:1;stroke-dasharray:none"
       id="path80"
       inkscape:label="path80" /></g><path
     d="M 44.765,27.006 63.530536,37.563056"
     style="display:inline;fill:none;stroke:#000000;stroke-width:3;stroke-linecap:round;stroke-linejoin:round;stroke-miterlimit:4.7;stroke-dasharray:none;stroke-opacity:1"
     transform="translate(-0.783,4.782)"
     id="path1"
     sodipodi:nodetypes="cc" /><path
     d="M 66.115287,21.342729 56.182923,41.813942 44.53,26.77"
     style="display:inline;fill:none;stroke:#000000;stroke-width:3.00001;stroke-linecap:round;stroke-linejoin:round;stroke-miterlimit:4.7;stroke-dasharray:none;stroke-opacity:1"
     transform="translate(-0.783,4.782)"
     id="path4"
     sodipodi:nodetypes="ccc"
     inkscape:label="body" /><g
     style="display:inline;stroke-width:1.83867;stroke-dasharray:none"
     id="g3"><path
       d="m 44.242,23.499 1.19,18.313"
       style="fill:none;stroke:#000000;stroke-width:1.83867;stroke-linecap:round;stroke-linejoin:round;stroke-miterlimit:4.7;stroke-dasharray:none;stroke-opacity:1"
       transform="matrix(1.63742,0,0,1.62584,-28.934,-6.417)"
       id="path2" /><path
       d="m 56.195,62.957 -3.126,-1.19 -0.659,-11.799 -6.833,-8.597 -7.078,10.188 0.284,11.298 -4.043,0.87"
       style="display:inline;fill:none;stroke:#000000;stroke-width:1.83867;stroke-linecap:round;stroke-linejoin:round;stroke-miterlimit:4.7;stroke-dasharray:none;stroke-opacity:1"
       transform="matrix(1.63742,0,0,1.62584,-28.934,-6.417)"
       id="path3" /></g></svg>
