<?xml version="1.0" encoding="UTF-8" standalone="no"?>
<svg
   xml:space="preserve"
   width="100"
   height="100"
   version="1.1"
   id="svg7"
   sodipodi:docname="human_balalaika_bass.svg"
   inkscape:version="1.3.2 (091e20e, 2023-11-25)"
   xmlns:inkscape="http://www.inkscape.org/namespaces/inkscape"
   xmlns:sodipodi="http://sodipodi.sourceforge.net/DTD/sodipodi-0.dtd"
   xmlns="http://www.w3.org/2000/svg"
   xmlns:svg="http://www.w3.org/2000/svg"><defs
     id="defs7" /><sodipodi:namedview
     id="namedview7"
     pagecolor="#ffffff"
     bordercolor="#000000"
     borderopacity="0.25"
     inkscape:showpageshadow="2"
     inkscape:pageopacity="0.0"
     inkscape:pagecheckerboard="0"
     inkscape:deskcolor="#d1d1d1"
     inkscape:current-layer="svg7" /><path
     d="M 57.9,30.23 70.21,52.237"
     style="display:inline;fill:none;stroke:#000000;stroke-width:3;stroke-linecap:round;stroke-linejoin:round;stroke-miterlimit:4.7;stroke-dasharray:none;stroke-opacity:1"
     id="path1" /><g
     style="display:inline;stroke-width:1.83867;stroke-dasharray:none"
     id="g4"><path
       d="M 54.238532,36.293342 48.180078,57.216277"
       style="fill:none;stroke:#000000;stroke-width:3.00001;stroke-linecap:round;stroke-linejoin:round;stroke-miterlimit:4.7;stroke-dasharray:none;stroke-opacity:1"
       id="path2" /><path
       d="M 70.472841,93.512179 64.946548,92.244024 67.142329,72.333987 48.148239,56.625189 26.462266,72.197417 28.923308,93.159372 h -6.194359"
       style="display:inline;fill:none;stroke:#000000;stroke-width:3.00001;stroke-linecap:round;stroke-linejoin:round;stroke-miterlimit:4.7;stroke-dasharray:none;stroke-opacity:1"
       id="path3"
       sodipodi:nodetypes="ccccccc" /><path
       d="m 49.199,14.613 -2.15,-6.65 4.781,3.478 0.196,-6.49 4.308,5.014 2.34,-5.972 1.03,7.047 4.42,-6.266 -0.802,7.177 4.96,-2.723 -3.979,6.52 m 0.301,2.617 c 0,4.48 -3.657,8.112 -8.169,8.112 -4.512,0 -8.169,-3.632 -8.169,-8.112 0,-4.48 3.723,-7.652 8.235,-7.652 4.512,0 8.103,3.173 8.103,7.652"
       style="display:inline;fill:none;stroke:#000000;stroke-width:2;stroke-linecap:round;stroke-linejoin:round;stroke-miterlimit:4.7;stroke-dasharray:none;stroke-opacity:1"
       id="path4" /></g><g
     id="g7"
     transform="matrix(1.8340749,0,0,1.8340749,-48.995834,-43.828586)"
     style="display:inline;stroke-width:0.545234"><path
       d="M 57.987,68.13 A 1.33,1.33 0 0 1 57.064,67.762 L 34.616,46.228 a 1.21,1.21 0 0 1 -0.32,-1.27 c 0.15,-0.45 0.545,-0.777 1.03,-0.854 l 18.649,-2.969 0.027,-0.004 6.886,-1.096 8.22,-7.886 a 1.54,1.54 0 0 1 -0.015,-2.091 l 0.475,-0.525 -0.66,-0.634 a 0.42,0.42 0 0 1 0,-0.612 0.465,0.465 0 0 1 0.638,0 l 0.614,0.59 0.963,-1.066 -0.702,-0.674 a 0.42,0.42 0 0 1 0,-0.612 0.465,0.465 0 0 1 0.638,0 l 0.657,0.63 0.963,-1.065 -0.716,-0.687 a 0.42,0.42 0 0 1 0,-0.612 0.465,0.465 0 0 1 0.638,0 l 0.67,0.643 0.027,-0.03 a 2.33,2.33 0 0 1 1.64,-0.753 2.32,2.32 0 0 1 1.691,0.639 l 2.262,2.17 a 2.14,2.14 0 0 1 0.666,1.621 2.16,2.16 0 0 1 -0.785,1.573 l -4.852,4.034 c -0.626,0.52 -1.565,0.51 -2.178,-0.013 -3.725,2.668 -8.647,8.088 -8.647,8.088 0,0 -1.112,8.9 -2.005,13.844 L 59.278,67.08 c -0.08,0.466 -0.421,0.845 -0.89,0.989 q -0.199,0.06 -0.401,0.06"
       style="display:inline;fill:#ffffff;stroke:none;stroke-width:0.545234;stroke-linecap:square;stroke-linejoin:round;stroke-miterlimit:4.7;stroke-opacity:1"
       transform="translate(-2.783,6.798)"
       id="path5" /><path
       d="M 57.987,68.13 A 1.33,1.33 0 0 1 57.064,67.762 L 34.616,46.228 a 1.21,1.21 0 0 1 -0.32,-1.27 c 0.15,-0.45 0.545,-0.777 1.03,-0.854 l 18.649,-2.969 0.027,-0.004 6.886,-1.096 8.22,-7.886 a 1.54,1.54 0 0 1 -0.015,-2.091 l 0.475,-0.525 -0.66,-0.634 a 0.42,0.42 0 0 1 0,-0.612 0.465,0.465 0 0 1 0.638,0 l 0.614,0.59 0.963,-1.066 -0.702,-0.674 a 0.42,0.42 0 0 1 0,-0.612 0.465,0.465 0 0 1 0.638,0 l 0.657,0.63 0.963,-1.065 -0.716,-0.687 a 0.42,0.42 0 0 1 0,-0.612 0.465,0.465 0 0 1 0.638,0 l 0.67,0.643 0.027,-0.03 a 2.33,2.33 0 0 1 1.64,-0.753 2.32,2.32 0 0 1 1.691,0.639 l 2.262,2.17 a 2.14,2.14 0 0 1 0.666,1.621 2.16,2.16 0 0 1 -0.785,1.573 l -4.852,4.034 c -0.626,0.52 -1.565,0.51 -2.178,-0.013 l -8.223,7.889 -2.425,14.022 -0.004,0.02 -1.812,10.475 c -0.08,0.466 -0.421,0.845 -0.89,0.989 q -0.199,0.06 -0.401,0.06 M 53.778,42.044 35.474,44.958 a 0.39,0.39 0 0 0 -0.32,0.264 0.37,0.37 0 0 0 0.1,0.394 L 57.702,67.15 c 0.158,0.151 0.34,0.118 0.41,0.095 a 0.39,0.39 0 0 0 0.276,-0.306 l 1.792,-10.36 -3.35,-7.599 -1.749,1.678 a 2.47,2.47 0 0 1 -0.77,1.788 2.7,2.7 0 0 1 -1.865,0.74 l -1.442,1.383 2.213,2.124 a 0.42,0.42 0 0 1 0,0.612 0.465,0.465 0 0 1 -0.638,0 L 50.052,54.88 50.047,54.875 50.042,54.87 49.055,53.923 49.049,53.917 49.043,53.912 45.518,50.53 a 0.42,0.42 0 0 1 0,-0.611 0.465,0.465 0 0 1 0.638,0 l 2.22,2.13 1.435,-1.378 a 2.47,2.47 0 0 1 0.771,-1.8 2.7,2.7 0 0 1 1.878,-0.74 l 2.16,-2.073 a 0.4,0.4 0 0 1 0.051,-0.059 l 0.542,-0.519 z m 3.741,6.275 2.937,6.663 1.967,-11.366 z m -7.513,5.292 0.36,0.346 1.024,-0.982 a 2.7,2.7 0 0 1 -0.462,-0.249 z m -0.993,-0.951 0.354,0.339 0.923,-0.885 A 2.5,2.5 0 0 1 50.034,51.68 Z m 2.568,-0.56 q 0.25,0.136 0.524,0.188 L 54.147,50.33 A 1.6,1.6 0 0 0 53.95,49.827 Z m -0.832,-1.105 a 1.6,1.6 0 0 0 0.194,0.493 l 2.369,-2.273 a 1.8,1.8 0 0 0 -0.513,-0.187 z m 3.853,-1.794 q 0.155,0.212 0.26,0.443 l 1.486,-1.425 -0.361,-0.346 z m -1.09,-0.857 q 0.236,0.1 0.452,0.246 l 1.385,-1.329 -0.354,-0.34 z m 3.113,-1.083 0.36,0.344 14.435,-13.847 0.035,-0.031 1.561,-1.498 a 0.465,0.465 0 0 1 0.638,0 0.42,0.42 0 0 1 0,0.612 l -1.271,1.22 a 0.78,0.78 0 0 0 0.946,-0.027 L 78.181,30 a 1.285,1.285 0 0 0 0.072,-1.929 l -2.262,-2.17 A 1.4,1.4 0 0 0 74.97,25.516 1.4,1.4 0 0 0 73.98,25.97 l -4.205,4.655 a 0.7,0.7 0 0 0 -0.022,0.915 l 4.623,-4.434 a 0.465,0.465 0 0 1 0.638,0 0.42,0.42 0 0 1 0,0.612 L 55.633,46.31 55.987,46.65 73.692,29.664 a 0.465,0.465 0 0 1 0.638,0 0.42,0.42 0 0 1 0,0.612 z M 54.69,41.9 l 1.217,2.915 3.884,-3.727 z"
       style="display:inline;stroke-width:0.545234"
       id="path6"
       transform="translate(-2.783,6.798)" /></g><path
     d="M 70.208566,52.236901 68.693952,35.414335 M 42.087515,48.794998 28.685232,38.981428 57.90008,30.229531"
     style="display:inline;fill:none;stroke:#000000;stroke-width:3.00001;stroke-linecap:round;stroke-linejoin:round;stroke-miterlimit:4.7;stroke-dasharray:none;stroke-opacity:1"
     id="path7" /></svg>
