<?xml version="1.0" encoding="UTF-8" standalone="no"?>
<svg
   xml:space="preserve"
   width="45"
   height="100"
   version="1.1"
   id="svg7"
   sodipodi:docname="human_clarinet_1.svg"
   inkscape:version="1.3.2 (091e20e, 2023-11-25)"
   xmlns:inkscape="http://www.inkscape.org/namespaces/inkscape"
   xmlns:sodipodi="http://sodipodi.sourceforge.net/DTD/sodipodi-0.dtd"
   xmlns="http://www.w3.org/2000/svg"
   xmlns:svg="http://www.w3.org/2000/svg"><defs
     id="defs7" /><sodipodi:namedview
     id="namedview7"
     pagecolor="#ffffff"
     bordercolor="#000000"
     borderopacity="0.25"
     inkscape:showpageshadow="2"
     inkscape:pageopacity="0.0"
     inkscape:pagecheckerboard="0"
     inkscape:deskcolor="#d1d1d1"
     inkscape:current-layer="svg7" /><g
     id="g7"
     transform="translate(2.485798,2.190877)"><path
       d="m 7.5953667,11.732336 -4.797,-2.9920004 4.668,2.8950004 2.341,-2.3330004 -3.05,-4.824 3.05,4.824 3.7730003,-1.375 -0.693,-6.193 0.853,6.281 3.058,0.107 1.544,-7.13499997 -1.55,7.08599997 3.093,1.42 3.678,-5.364 -3.553,5.389 m 2.523,4.4070004 c 1.23,4.308 -1.29,8.804 -5.629,10.042 -4.339,1.238 -8.8520003,-1.25 -10.0810003,-5.558 -3.076,-10.7740004 12.8580003,-14.4780004 15.7090003,-4.482"
       style="display:inline;fill:#ffffff;stroke:#000000;stroke-width:2.00001;stroke-linecap:round;stroke-linejoin:round;stroke-miterlimit:4.7;stroke-dasharray:none;stroke-opacity:1"
       id="path1" /><path
       id="path5"
       style="display:inline;fill:none;stroke:#000000;stroke-width:3.00001;stroke-linecap:round;stroke-linejoin:round;stroke-miterlimit:4.7;stroke-dasharray:none;stroke-opacity:1"
       d="M 36.636184,92.866344 31.517609,90.931595 30.597379,73.974084 19.250058,57.770962 7.6603996,74.33502 8.1254269,92.70376 1.5053378,94.118241 M 17.064103,28.71395 19.012632,58.487958 m -4.316265,-4.747622 -9.7760003,-8.905 12.3820003,-16.358 m 0.235,0.236 20.986,15.447 -16.912,0.302" /><g
       id="g8"><path
         d="m 14.569514,26.384474 c -0.229307,0.102147 -0.373332,0.327309 -0.467515,0.550812 -0.163015,0.394538 -0.225849,0.821474 -0.267119,1.243794 a 15.39401,15.39401 0 0 0 -0.01063,2.357187 q 0.616784,3.366141 1.237604,6.731949 l -0.79311,0.148895 -0.241892,-1.291754 A 0.25807605,0.25807605 0 0 0 13.8065,35.891544 0.2535484,0.2535484 0 0 0 13.526991,36.164006 q 1.168547,6.2675 2.340964,12.532651 a 0.2626037,0.2626037 0 0 0 0.188368,0.235223 c 0.147786,0.04799 0.312821,-0.07975 0.314036,-0.233042 -0.02543,-0.200668 -0.0729,-0.397494 -0.105935,-0.596726 l 0.767207,-0.142702 q 0.327647,1.77149 0.650787,3.542537 c 0.018,0.05581 0.02272,0.128158 -0.03408,0.163709 a 1.0594701,1.0594701 0 0 0 -0.618699,0.921216 1.0504148,1.0504148 0 0 0 0.404576,0.863518 c 0.183558,0.147038 0.417648,0.216783 0.650357,0.230162 l 0.825585,4.477765 a 7.787558,7.787558 0 0 1 0.152851,1.310857 7.606452,7.606452 0 0 1 -1.000588,4.061038 c -0.10231,0.183945 -0.223944,0.355256 -0.336538,0.532732 -0.1158,0.187897 -0.205919,0.416349 -0.149773,0.639686 0.08128,0.365925 0.334166,0.674266 0.635626,0.886378 0.379085,0.266681 0.824516,0.421044 1.273817,0.513733 0.308757,0.06361 0.628545,0.09827 0.946508,0.110738 a 6.33871,6.33871 0 0 0 0.661551,-0.0044 8.14977,8.14977 0 0 0 1.40363,-0.200703 6.972581,6.972581 0 0 0 2.019843,-0.796243 c 0.420134,-0.257203 0.81713,-0.573454 1.096389,-0.982423 0.218111,-0.312517 0.346986,-0.702217 0.288296,-1.085033 -0.02682,-0.227373 -0.191438,-0.406036 -0.368084,-0.538202 a 7.787558,7.787558 0 0 1 -1.08042,-0.889638 c -1.021594,-1.014342 -1.722711,-2.336613 -2.026692,-3.741099 -0.166118,-0.849393 -0.322145,-1.699615 -0.482679,-2.55028 -0.02753,-0.06803 -0.0035,-0.161027 0.07406,-0.181622 a 1.0504148,1.0504148 0 0 0 0.596418,-0.905569 c 0.01471,-0.335213 -0.148286,-0.676949 -0.416739,-0.873083 A 1.1319125,1.1319125 45 0 0 21.531179,53.24691 q -0.218698,-1.162822 -0.439414,-2.325478 c -0.02629,-0.06773 0.0062,-0.15735 0.08138,-0.176536 A 1.0504148,1.0504148 0 0 0 21.742749,50.056886 1.0504148,1.0504148 0 0 0 21.35545,48.96359 1.1409678,1.1409678 0 0 0 20.68248,48.745039 Q 18.909814,39.334653 17.133579,29.925372 C 16.98405,29.455754 16.80848,28.995591 16.617872,28.54032 16.409875,28.056411 16.181726,27.57944 15.892732,27.138351 15.712436,26.872803 15.510245,26.607835 15.230292,26.43987 a 0.7063134,0.7063134 0 0 0 -0.660778,-0.0554"
         style="fill:#ffffff;stroke-width:0.776531;stroke-dasharray:none"
         id="path6" /><path
         d="m 14.102773,26.934816 c 0.09388,-0.222259 0.237904,-0.447421 0.466741,-0.550342 a 0.7063134,0.7063134 0 0 1 0.662022,0.0557 c 0.279483,0.167191 0.4809,0.432629 0.661196,0.698177 0.288524,0.440315 0.516369,0.91853 0.723896,1.401665 q 0.289326,0.682422 0.516177,1.385826 l 3.550148,18.819971 c 0.238569,0.0056 0.482252,0.06845 0.67203,0.217003 a 1.0504148,1.0504148 0 0 1 0.388073,1.092826 1.0504148,1.0504148 0 0 1 -0.570682,0.689724 c -0.07569,0.01841 -0.106595,0.107094 -0.07984,0.175596 l 0.439884,2.326252 c 0.236247,0.007 0.477138,0.07049 0.665202,0.217971 0.268923,0.196908 0.431914,0.538644 0.416739,0.873083 a 1.0504148,1.0504148 0 0 1 -0.595174,0.905873 c -0.07754,0.0206 -0.104079,0.112982 -0.07655,0.181014 0.161308,0.850195 0.317805,1.701191 0.483149,2.551054 a 7.5430649,7.5430649 0 0 0 2.02871,3.740933 c 0.329409,0.329682 0.696054,0.622985 1.079176,0.889334 0.176176,0.131392 0.342512,0.311133 0.369328,0.538506 0.05869,0.382816 -0.07143,0.772212 -0.290314,1.085199 -0.280503,0.408665 -0.675951,0.723976 -1.095311,0.980709 -0.622019,0.376599 -1.313315,0.632117 -2.019843,0.796243 a 8.14977,8.14977 0 0 1 -1.40363,0.200703 8.14977,8.14977 0 0 1 -0.322192,0.01023 q -0.173771,0.0017 -0.340133,-0.0054 A 5.704839,5.704839 0 0 1 19.48632,66.102271 c -0.449771,-0.09346 -0.89675,-0.246886 -1.275835,-0.513567 -0.30146,-0.212112 -0.552332,-0.520619 -0.633607,-0.886544 -0.05615,-0.223337 0.03367,-0.450545 0.150712,-0.638138 0.111654,-0.179024 0.232514,-0.349865 0.335598,-0.53428 a 7.606452,7.606452 0 0 0 0.999814,-4.060568 7.787558,7.787558 0 0 0 -0.152851,-1.310857 l -0.825585,-4.477765 a 1.1409678,1.1409678 0 0 1 -0.650357,-0.230162 1.0504148,1.0504148 0 0 1 -0.40582,-0.863822 1.0594701,1.0594701 0 0 1 0.619943,-0.920912 c 0.05728,-0.03478 0.05255,-0.107121 0.03533,-0.163405 l -0.651257,-3.543311 -0.767981,0.143172 c 0.03304,0.199232 0.08128,0.395588 0.105465,0.595952 2.9e-5,0.153591 -0.16625,0.281031 -0.314036,0.233042 a 0.2626037,0.2626037 0 0 1 -0.18743,-0.233675 Q 14.696006,42.43228 13.527459,36.16478 a 0.25173734,0.25173734 0 0 1 0.278569,-0.27401 0.25807605,0.25807605 0 0 1 0.220518,0.235831 l 0.241726,1.289736 0.794354,-0.148591 q -0.62082,-3.365808 -1.238378,-6.731479 c -0.05148,-0.784457 -0.06027,-1.573642 0.0094,-2.357491 0.04127,-0.42232 0.106592,-0.848648 0.269137,-1.24396 m 0.704704,-0.127 a 0.724424,0.724424 0 0 0 -0.262894,0.360895 c -0.121163,0.320396 -0.173879,0.662797 -0.208128,1.00246 a 13.58295,13.58295 0 0 0 -0.03767,1.909602 c 0.0099,0.145463 0.01023,0.29253 0.02823,0.43733 l 0.329913,1.789182 0.08564,-0.01598 2.250729,-0.419455 C 16.87702,31.258097 16.763538,30.643706 16.643698,30.031058 16.393184,29.286934 16.10886,28.551684 15.739808,27.858344 15.574356,27.550942 15.394004,27.245171 15.143769,26.99878 a 0.6791475,0.6791475 0 0 0 -0.336292,-0.190964 m 0.08461,3.402163 a 0.2535484,0.2535484 0 0 1 0.235499,-0.254217 c 0.221872,-0.03937 0.44167,-0.08913 0.664371,-0.118403 a 0.2626037,0.2626037 0 0 1 0.244154,0.241609 c 0.06074,0.328605 0.127525,0.656713 0.181903,0.98706 a 0.2535484,0.2535484 0 0 1 -0.236107,0.256705 c -0.220324,0.03843 -0.439652,0.08896 -0.661883,0.119011 a 0.271659,0.271659 0 0 1 -0.148118,-0.05203 c -0.100708,-0.07339 -0.09924,-0.208823 -0.123432,-0.320201 -0.05197,-0.286255 -0.109999,-0.572012 -0.156691,-0.858294 m -0.144843,2.588044 0.362368,1.966519 0.08611,-0.01521 2.260653,-0.422302 -0.370911,-1.966629 z m 0.453458,2.456787 0.367206,2.00066 c 0.09465,-0.193067 0.178579,-0.388097 0.27807,-0.576686 a 1.0504148,1.0504148 0 0 1 0.839467,-0.519216 1.0594701,1.0594701 0 0 1 0.888539,0.399122 l 0.374166,0.424336 q -0.110133,0.291453 -0.215014,0.577597 a 1.0467927,1.0467927 0 0 1 -1.546189,0.527734 C 16.038,37.996577 15.923912,37.859267 15.793625,37.742389 l -0.164981,-0.158317 0.523372,2.847619 c 0.09324,-0.195389 0.17963,-0.395091 0.277074,-0.588793 a 1.0504148,1.0504148 0 0 1 0.863656,-0.526487 1.0594701,1.0594701 0 0 1 0.872091,0.401693 l 0.36872,0.422345 c -0.07691,0.20136 -0.146955,0.407033 -0.22292,0.609941 a 1.0413595,1.0413595 0 0 1 -0.692482,0.62172 1.0504148,1.0504148 0 0 1 -0.969923,-0.222586 c -0.149362,-0.141316 -0.294246,-0.28747 -0.44206,-0.429726 l 0.456057,2.478516 0.117957,-0.132002 c 0.12567,-0.14198 0.248049,-0.289379 0.409491,-0.391636 a 1.448848,1.448848 0 0 1 1.264801,-0.169381 c 0.211257,0.06878 0.393018,0.198897 0.587688,0.30317 0.03082,0.01413 -0.0062,-0.06612 -0.0042,-0.09067 L 17.548408,34.81885 Z m -0.840259,2.650082 1.155029,6.177186 0.0844,-0.01628 0.692734,-0.129268 -1.139354,-6.179287 z m 1.873881,-0.881359 a 0.5523733,0.5523733 0 0 0 0.211757,0.638412 0.5523733,0.5523733 0 0 0 0.703239,-0.08056 0.5523733,0.5523733 0 0 0 0.04276,-0.700779 0.5523733,0.5523733 0 0 0 -0.700448,-0.157375 0.543318,0.543318 0 0 0 -0.25731,0.3003 m 0.598787,3.132354 a 0.5252074,0.5252074 0 0 0 -0.01133,0.386133 0.54965671,0.54965671 0 0 0 0.920992,0.190851 0.5523733,0.5523733 0 0 0 0.0353,-0.702604 0.5523733,0.5523733 0 0 0 -0.685244,-0.16025 0.543318,0.543318 0 0 0 -0.260489,0.286339 m -1.225776,4.415991 0.567079,3.038253 0.0844,-0.01628 0.684828,-0.126585 -0.559477,-3.039691 z m 1.649658,-1.290796 c -0.120003,0.15655 -0.183141,0.347433 -0.267316,0.524604 0.334355,-0.05999 0.667577,-0.128824 1.003204,-0.18323 0.154642,-0.007 0.287804,0.154723 0.246974,0.305577 a 0.2626037,0.2626037 0 0 1 -0.236577,0.196607 l -0.921738,0.170845 c 0.12111,0.113976 0.230028,0.242769 0.363495,0.343946 l 0.01512,0.01095 a 0.9508065,0.9508065 0 0 0 1.049593,0.01531 0.9598618,0.9598618 0 0 0 0.416758,-0.960691 0.9508065,0.9508065 0 0 0 -0.702939,-0.751226 0.9508065,0.9508065 0 0 0 -0.967349,0.327781 m -0.26521,1.697103 0.324163,1.758773 0.118261,-0.133245 c 0.122104,-0.140875 0.242466,-0.288108 0.400175,-0.391277 a 1.448848,1.448848 0 0 1 1.264248,-0.185996 c 0.214353,0.0669 0.399072,0.1984 0.594682,0.304221 0.05288,0.04523 0.01894,-0.03162 0.01722,-0.06236 L 19.36909,44.47234 c -0.177032,0.209184 -0.332944,0.44792 -0.56836,0.599328 a 1.448848,1.448848 0 0 1 -1.448442,0.09549 z m 0.956412,1.793353 c -0.107618,0.119368 -0.169402,0.272351 -0.233867,0.417428 a 0.09326959,0.09326959 0 0 0 0.0975,0.113478 c 0.281003,-0.04666 0.55913,-0.108533 0.839994,-0.151936 0.152624,-0.0069 0.28468,0.151323 0.248191,0.300601 a 0.2626037,0.2626037 0 0 1 -0.237794,0.201582 l -0.91925,0.171454 c 0.12017,0.112428 0.225826,0.241083 0.357109,0.340408 l 0.01996,0.01543 a 0.9508065,0.9508065 0 0 0 1.046026,0.01642 0.9598618,0.9598618 0 0 0 0.42461,-0.94427 0.9508065,0.9508065 0 0 0 -0.671148,-0.759934 0.9508065,0.9508065 0 0 0 -0.971331,0.279348 m -0.308389,1.725438 0.567272,3.075213 c 0.19995,0.04492 0.398186,0.118426 0.552662,0.257696 a 0.90553,0.90553 0 0 1 0.147261,0.155304 c 0.103114,0.14715 0.221376,0.280864 0.333916,0.419112 -0.0627,0.186377 -0.125392,0.372754 -0.175648,0.562172 a 1.1047466,1.1047466 0 0 1 -0.449464,0.55786 c -0.04605,0.04279 -0.03577,0.108587 -0.01918,0.162078 l 0.542392,2.950483 0.08564,-0.01598 2.35514,-0.439415 -0.158128,-0.836234 c -0.08802,-0.02283 -0.169349,-0.04337 -0.256041,-0.07973 a 1.0594701,1.0594701 0 0 1 -0.499697,-0.433927 l -0.259608,-0.315916 c 0.04351,-0.142948 0.09852,-0.284403 0.135814,-0.428872 a 1.0594701,1.0594701 0 0 1 0.460825,-0.671755 c 0.05194,-0.04531 0.03588,-0.117128 0.02145,-0.174047 L 20.57065,50.844804 A 1.177189,1.177189 0 0 1 20.01619,50.57019 1.267742,1.267742 0 0 1 19.843828,50.366564 0.90553,0.90553 0 0 0 19.766258,50.26323 l -0.203186,-0.247414 c 0.05778,-0.177033 0.122545,-0.353016 0.164923,-0.534472 a 1.086636,1.086636 0 0 1 0.431246,-0.566928 c 0.04929,-0.04794 0.02781,-0.116465 0.0154,-0.17355 l -0.141376,-0.751063 c -0.1767,0.21322 -0.331672,0.453504 -0.568001,0.608644 -0.157378,0.107205 -0.339193,0.17416 -0.519349,0.231633 -0.232819,0.02482 -0.472273,0.02825 -0.697351,-0.04061 -0.218528,-0.0633 -0.408969,-0.190273 -0.611075,-0.29109 m 1.300217,0.60258 c 0.0275,-0.02623 0.05324,-0.06411 0.09393,-0.03373 0.09629,0.02947 0.207995,0.06864 0.245343,0.172028 0.03848,0.112235 0.04393,0.232874 0.07171,0.348427 0.03909,0.169071 0.10176,0.33336 0.143641,0.501795 0.01106,0.183972 0.0085,0.369879 0.05258,0.550727 0.100627,0.532149 0.197384,1.066648 0.301743,1.599709 0.02668,0.08232 0.02109,0.172582 0.04498,0.255542 0.103972,0.548127 0.201282,1.09924 0.310064,1.646566 0.04312,0.139078 0.09136,0.276109 0.132003,0.414579 0.01189,0.194061 0.005,0.392104 0.05197,0.582876 0.03682,0.210703 0.08387,0.417315 0.113704,0.626968 0.0014,0.150633 -0.156327,0.278184 -0.304057,0.240754 a 0.271659,0.271659 0 0 1 -0.09996,-0.04948 C 20.0263,55.908549 20.001171,55.825285 19.991744,55.7452 q -0.273131,-1.474067 -0.55262,-2.946392 c -0.03865,-0.143915 -0.0849,-0.286393 -0.120751,-0.430944 -0.01587,-0.153507 -0.0201,-0.308784 -0.04357,-0.460855 -0.158985,-0.851604 -0.320293,-1.701799 -0.476182,-2.555283 -0.0092,-0.102449 0.06018,-0.192265 0.137833,-0.251065 m -1.377215,3.344753 a 0.5252074,0.5252074 0 0 0 0.01216,0.395173 0.543318,0.543318 0 0 0 0.198016,0.2389 0.5523733,0.5523733 0 0 0 0.724718,-0.101015 0.5523733,0.5523733 0 0 0 0.0035,-0.704456 0.5523733,0.5523733 0 0 0 -0.684939,-0.131831 0.543318,0.543318 0 0 0 -0.254187,0.303699 M 20.2362,49.554157 a 0.54784565,0.54784565 0 1 0 0.97537,0.491536 0.54784565,0.54784565 0 0 0 -0.97537,-0.491536 m 0.8822,4.434917 a 0.5252074,0.5252074 0 0 0 -0.09664,0.376486 0.543318,0.543318 0 0 0 0.224859,0.382566 0.5523733,0.5523733 0 0 0 0.632719,0.0057 0.55690095,0.55690095 0 0 0 0.195635,-0.660116 0.5523733,0.5523733 0 0 0 -0.634545,-0.324511 0.543318,0.543318 0 0 0 -0.322026,0.219883 m -1.891535,3.14323 0.199623,1.07906 0.08487,-0.01551 2.362272,-0.441626 -0.203659,-1.078728 z m 0.277997,1.572811 c 0.03428,0.318184 0.05941,0.638745 0.05999,0.957261 a 8.1044935,8.1044935 0 0 1 -0.860378,3.730138 c -0.114363,0.225162 -0.24393,0.453199 -0.380546,0.669625 -0.08066,0.135844 -0.192264,0.266104 -0.248768,0.419059 -0.0167,0.04404 -0.02485,0.08818 -0.0061,0.132968 0.06355,0.244263 0.243795,0.439928 0.447201,0.581271 0.396336,0.26892 0.87035,0.395335 1.339416,0.466489 0.829933,0.121132 1.67905,0.05053 2.494662,-0.1311 0.717862,-0.164652 1.4211,-0.423183 2.040022,-0.827565 0.342952,-0.227291 0.668101,-0.503098 0.879135,-0.862169 0.114031,-0.199536 0.17739,-0.437165 0.134098,-0.667247 -0.134157,-0.173854 -0.336872,-0.272183 -0.503291,-0.40844 a 7.787558,7.787558 0 0 1 -1.97557,-2.194741 8.14977,8.14977 0 0 1 -0.666673,-1.387677 c -0.092,-0.24924 -0.172888,-0.511582 -0.241032,-0.772128 l -0.04498,-0.166555 z m 0.636265,1.690049 c 0.01382,-0.148228 0.177087,-0.257948 0.317575,-0.209765 a 0.2626037,0.2626037 0 0 1 0.181817,0.259329 2.444931,2.444931 0 0 1 -0.03129,0.637667 c -0.04926,0.142202 -0.236191,0.211202 -0.362884,0.12816 l -0.02759,-0.01927 c -0.08669,-0.06601 -0.108753,-0.1861 -0.08459,-0.287637 a 2.71659,2.71659 0 0 0 0.0065,-0.50926 m -0.216087,1.498838 c 0.03057,-0.152043 0.22129,-0.239233 0.356802,-0.162604 a 0.2626037,0.2626037 0 0 1 0.129155,0.286005 4.52765,4.52765 45 0 1 -0.239283,1.013961 5.704839,5.704839 0 0 1 -0.408327,0.880357 c -0.14925,0.265412 -0.318237,0.527977 -0.475559,0.794052 a 0.24992628,0.24992628 0 0 1 -0.376374,0.07279 0.25717052,0.25717052 0 0 1 -0.03912,-0.352325 c 0.280972,-0.467214 0.585747,-0.926634 0.783096,-1.43736 a 4.165438,4.165438 0 0 0 0.268834,-1.094405"
         style="display:inline;stroke-width:0.776531;stroke-dasharray:none"
         id="path7" /></g></g></svg>
