<?xml version="1.0" encoding="UTF-8" standalone="no"?>
<svg
   xml:space="preserve"
   width="70"
   height="100"
   version="1.1"
   id="svg8"
   sodipodi:docname="human_trumpet_1.svg"
   inkscape:version="1.4 (e7c3feb1, 2024-10-09)"
   xmlns:inkscape="http://www.inkscape.org/namespaces/inkscape"
   xmlns:sodipodi="http://sodipodi.sourceforge.net/DTD/sodipodi-0.dtd"
   xmlns="http://www.w3.org/2000/svg"
   xmlns:svg="http://www.w3.org/2000/svg"><defs
   id="defs8" /><sodipodi:namedview
   id="namedview8"
   pagecolor="#ffffff"
   bordercolor="#000000"
   borderopacity="0.25"
   inkscape:showpageshadow="2"
   inkscape:pageopacity="0.0"
   inkscape:pagecheckerboard="0"
   inkscape:deskcolor="#d1d1d1"
   inkscape:current-layer="svg8" />
    <path
   d="m 9.5953667,13.732336 -4.797,-2.992 4.668,2.895 2.3410003,-2.333 -3.0500003,-4.8240004 3.0500003,4.8240004 3.773,-1.3750004 -0.693,-6.193 0.853,6.2810004 3.058,0.107 1.544,-7.1350004 -1.55,7.0860004 3.093,1.42 3.678,-5.3640004 -3.553,5.3890004 m 2.523,4.407 c 1.23,4.308 -1.29,8.804 -5.629,10.042 -4.339,1.238 -8.852,-1.25 -10.0810003,-5.558 -3.076,-10.7740004 12.8580003,-14.4780004 15.7090003,-4.482"
   style="display:inline;fill:#ffffff;stroke:#000000;stroke-width:2.00001;stroke-linecap:round;stroke-linejoin:round;stroke-miterlimit:4.7;stroke-dasharray:none;stroke-opacity:1"
   id="path1" />
    <path
   d="m 38.261367,41.256336 6.546,-13.51"
   style="display:inline;fill:#3366cc;stroke:#000000;stroke-width:3;stroke-linecap:round;stroke-linejoin:round;stroke-miterlimit:4.7;stroke-dasharray:none;stroke-opacity:1"
   id="path2" />
    <g
   style="display:inline;stroke:#000000;stroke-width:0.2;stroke-dasharray:none;stroke-opacity:1"
   id="g4"
   transform="translate(-24.444633,-1.0746644)">
        <path
   d="m 52.13,12.81 a 0.3,0.3 0 0 0 -0.154,0.24 l -0.085,1.254 a 0.295,0.295 0 0 0 0.402,0.295 l 1.31,-0.513 2.29,0.156 q 0.042,0.115 0.125,0.21 l 0.002,0.002 a 0.7,0.7 0 0 0 0.486,0.24 l 1.017,0.07 a 3,3 0 0 0 -0.34,0.26 2.97,2.97 0 0 0 -1.019,2.048 2.98,2.98 0 0 0 0.732,2.169 2.98,2.98 0 0 0 2.051,1.018 l 1.993,0.135 q 0.09,0.19 0.225,0.345 a 1.53,1.53 0 0 0 1.05,0.519 l 4.108,0.28 -0.082,1.198 a 0.826,0.826 0 0 0 0.774,0.883 0.83,0.83 0 0 0 0.883,-0.771 l 0.134,-1.971 0.185,0.012 -0.134,1.972 a 0.83,0.83 0 0 0 0.773,0.883 0.83,0.83 0 0 0 0.884,-0.771 l 0.134,-1.971 0.185,0.012 -0.134,1.972 a 0.83,0.83 0 0 0 0.773,0.883 0.83,0.83 0 0 0 0.883,-0.771 l 0.135,-1.97 10.056,0.681 a 2.97,2.97 0 0 0 2.168,-0.73 2.97,2.97 0 0 0 1.018,-2.05 2.97,2.97 0 0 0 -0.56,-1.957 l 0.535,0.047 a 9,9 0 0 1 2.129,0.459 c 1.174,0.41 2.185,1.257 2.847,2.384 0.39,0.664 0.838,0.829 1.145,0.85 0.608,0.04 1.19,-0.427 1.643,-1.315 0.412,-0.812 0.684,-1.903 0.764,-3.074 0.175,-2.583 -0.595,-4.592 -1.791,-4.673 -0.31,-0.02 -0.78,0.083 -1.258,0.696 -0.825,1.057 -1.952,1.773 -3.175,2.015 a 9,9 0 0 1 -2.134,0.159 l -12.905,-0.605 0.034,-0.514 -0.532,-0.036 0.028,-0.405 0.183,0.013 a 0.296,0.296 0 1 0 0.04,-0.59 l -0.957,-0.065 a 0.296,0.296 0 1 0 -0.04,0.59 l 0.184,0.011 -0.026,0.406 -0.535,-0.036 -0.037,0.548 -0.187,-0.01 0.04,-0.55 -0.535,-0.037 0.029,-0.406 0.183,0.014 a 0.296,0.296 0 1 0 0.04,-0.59 l -0.958,-0.066 a 0.296,0.296 0 1 0 -0.04,0.59 l 0.185,0.012 -0.029,0.406 -0.532,-0.036 -0.041,0.586 -0.186,-0.01 0.042,-0.588 -0.535,-0.037 0.027,-0.406 0.185,0.014 a 0.296,0.296 0 1 0 0.04,-0.59 l -0.957,-0.066 a 0.296,0.296 0 1 0 -0.04,0.59 l 0.184,0.012 -0.029,0.405 -0.532,-0.035 -0.043,0.625 -10.263,-0.482 a 0.71,0.71 0 0 0 -0.656,0.37 l -2.288,-0.154 -1.229,-0.687 a 0.3,0.3 0 0 0 -0.285,0 z"
   style="display:inline;fill:#ffffff;stroke:#000000;stroke-width:0.2;stroke-dasharray:none;stroke-opacity:1"
   transform="rotate(7.337,-17.527,11.444)"
   id="path3" />
        <path
   d="m 92.698,19.496 c 0.412,-0.81 0.684,-1.902 0.763,-3.073 0.175,-2.583 -0.595,-4.592 -1.792,-4.673 -0.309,-0.021 -0.778,0.082 -1.256,0.695 -0.826,1.057 -1.954,1.773 -3.176,2.016 a 9,9 0 0 1 -2.134,0.159 l -12.905,-0.606 0.035,-0.512 -0.533,-0.037 0.028,-0.405 0.184,0.013 a 0.29567719,0.29567719 0 1 0 0.04,-0.59 l -0.958,-0.065 a 0.29567719,0.29567719 0 1 0 -0.04,0.59 l 0.184,0.012 -0.027,0.405 -0.534,-0.036 -0.037,0.548 -0.186,-0.01 0.038,-0.55 -0.534,-0.036 0.028,-0.406 0.184,0.013 a 0.29567719,0.29567719 0 1 0 0.04,-0.59 l -0.958,-0.065 a 0.29567719,0.29567719 0 1 0 -0.04,0.59 l 0.184,0.012 -0.027,0.405 -0.534,-0.036 -0.04,0.586 -0.185,-0.009 0.04,-0.59 -0.534,-0.036 0.028,-0.405 0.184,0.012 a 0.29517834,0.29517834 0 1 0 0.04,-0.589 l -0.957,-0.065 a 0.29567719,0.29567719 0 1 0 -0.04,0.59 l 0.184,0.012 -0.028,0.405 -0.533,-0.036 -0.043,0.625 -10.264,-0.482 a 0.71,0.71 0 0 0 -0.655,0.37 l -2.288,-0.155 -1.23,-0.685 a 0.296,0.296 0 0 0 -0.438,0.238 l -0.085,1.254 a 0.295,0.295 0 0 0 0.402,0.295 l 1.31,-0.513 2.29,0.156 q 0.042,0.116 0.125,0.21 l 0.002,0.003 a 0.7,0.7 0 0 0 0.486,0.24 l 1.018,0.07 q -0.179,0.115 -0.342,0.258 a 2.97,2.97 0 0 0 -1.017,2.05 2.98,2.98 0 0 0 0.732,2.168 2.98,2.98 0 0 0 2.05,1.019 l 1.992,0.135 q 0.091,0.19 0.226,0.345 a 1.53,1.53 0 0 0 1.05,0.518 l 4.108,0.28 -0.081,1.197 a 0.827,0.827 0 0 0 0.772,0.885 0.83,0.83 0 0 0 0.884,-0.772 l 0.134,-1.972 0.186,0.013 -0.134,1.971 a 0.827,0.827 0 0 0 0.772,0.885 0.83,0.83 0 0 0 0.884,-0.772 L 69.874,21 l 0.185,0.013 -0.134,1.971 a 0.83,0.83 0 0 0 0.204,0.602 0.83,0.83 0 0 0 0.568,0.283 0.83,0.83 0 0 0 0.885,-0.772 l 0.134,-1.971 10.056,0.682 a 2.97,2.97 0 0 0 2.169,-0.73 2.97,2.97 0 0 0 1.017,-2.05 2.97,2.97 0 0 0 -0.56,-1.956 l 0.536,0.047 c 0.724,0.065 1.44,0.219 2.127,0.459 1.174,0.41 2.185,1.255 2.847,2.383 0.39,0.664 0.84,0.829 1.146,0.85 0.608,0.04 1.191,-0.426 1.644,-1.315 m -40.186,-5.618 0.022,-0.324 0.332,0.186 z m 17.988,0.647 -0.035,0.523 -0.186,-0.013 0.035,-0.519 z m -0.323,2.019 0.185,0.012 -0.2,2.947 -0.185,-0.013 z m 0.04,-0.59 0.022,-0.33 0.186,0.013 -0.023,0.33 z m -1.561,-1.516 -0.033,0.485 -0.186,-0.012 0.033,-0.481 z m -0.321,1.98 0.185,0.013 -0.2,2.947 -0.185,-0.013 z m 0.04,-0.589 0.022,-0.329 0.185,0.013 -0.022,0.329 z m -11.83,-1.723 a 0.12,0.12 0 0 1 -0.08,-0.042 0.12,0.12 0 0 1 -0.029,-0.084 0.116,0.116 0 0 1 0.123,-0.109 l 10.252,0.481 -0.03,0.446 -5.196,-0.351 v -0.004 z m 2.441,5.563 a 2.403,2.403 0 0 1 -2.232,-2.557 2.4,2.4 0 0 1 0.817,-1.646 2.4,2.4 0 0 1 1.595,-0.591 l 7.575,0.513 -0.023,0.328 -7.4,-0.502 a 2.06,2.06 0 0 0 -1.5,0.505 2.06,2.06 0 0 0 -0.702,1.418 2.06,2.06 0 0 0 0.506,1.499 2.06,2.06 0 0 0 1.417,0.704 l 7.4,0.502 -0.023,0.331 z m 7.492,-0.417 -4.665,-0.316 a 0.93,0.93 0 0 1 0.57,-0.146 l 4.108,0.279 z M 62.422,18.2 a 1.52,1.52 0 0 0 -1.38,0.683 L 59.079,18.75 a 1.47,1.47 0 0 1 -1.013,-0.502 1.47,1.47 0 0 1 -0.36,-1.071 1.47,1.47 0 0 1 0.502,-1.013 1.47,1.47 0 0 1 1.07,-0.36 l 7.4,0.502 -0.147,2.173 z m -0.167,2.468 a 0.94,0.94 0 0 1 -0.548,-0.222 l 4.669,0.317 -0.013,0.184 z m 4.8,2.361 a 0.245,0.245 0 0 1 -0.224,-0.255 l 0.612,-9.007 0.477,0.033 -0.611,9.007 a 0.24,0.24 0 0 1 -0.255,0.222 m 1.018,-2.743 0.022,-0.332 0.186,0.013 -0.023,0.332 z m 0.823,2.868 a 0.245,0.245 0 0 1 -0.222,-0.255 l 0.611,-9.007 0.478,0.033 -0.612,9.007 a 0.24,0.24 0 0 1 -0.255,0.222 m 1.018,-2.743 0.023,-0.331 0.185,0.012 -0.022,0.332 z m 0.824,2.869 a 0.245,0.245 0 0 1 -0.223,-0.256 l 0.612,-9.007 0.477,0.033 -0.611,9.007 a 0.24,0.24 0 0 1 -0.255,0.222 m 1.093,-3.848 8.325,0.565 a 0.48,0.48 0 0 1 0.365,0.21 l -8.702,-0.59 z m 9.34,0.82 a 1.1,1.1 0 0 0 -0.24,-0.48 1.06,1.06 0 0 0 -0.735,-0.364 l -8.325,-0.565 0.148,-2.174 10.025,0.681 a 1.47,1.47 0 0 1 1.013,0.503 c 0.26,0.296 0.387,0.677 0.36,1.07 a 1.47,1.47 0 0 1 -0.502,1.013 1.47,1.47 0 0 1 -1.071,0.361 z m 2.382,0.382 a 2.4,2.4 0 0 1 -1.74,0.586 l -10.057,-0.683 0.022,-0.332 10.026,0.681 a 2.05,2.05 0 0 0 1.5,-0.505 2.05,2.05 0 0 0 0.702,-1.417 2.05,2.05 0 0 0 -0.505,-1.5 2.05,2.05 0 0 0 -1.417,-0.703 l -10.025,-0.681 0.022,-0.33 10.057,0.681 a 2.4,2.4 0 0 1 1.645,0.816 2.4,2.4 0 0 1 0.586,1.74 2.38,2.38 0 0 1 -0.816,1.647 z m 7.542,-0.412 c -0.3,-0.02 -0.533,-0.316 -0.677,-0.56 -0.733,-1.247 -1.856,-2.186 -3.162,-2.641 a 9.4,9.4 0 0 0 -2.27,-0.489 l -1.23,-0.11 a 2.96,2.96 0 0 0 -1.579,-0.58 l -10.056,-0.68 0.038,-0.558 12.917,0.606 a 9.4,9.4 0 0 0 2.276,-0.17 c 1.362,-0.27 2.614,-1.063 3.527,-2.231 0.176,-0.226 0.45,-0.49 0.751,-0.47 0.714,0.049 1.4,1.721 1.243,4.044 -0.075,1.093 -0.323,2.104 -0.701,2.846 -0.333,0.655 -0.726,1.017 -1.077,0.993"
   style="display:inline;stroke:#000000;stroke-width:0.2;stroke-dasharray:none;stroke-opacity:1"
   transform="rotate(7.337,-17.527,11.444)"
   id="path4" />
    </g>
    <path
   d="m 19.537367,30.713336 18.766,10.557"
   style="display:inline;fill:none;stroke:#000000;stroke-width:3;stroke-linecap:round;stroke-linejoin:round;stroke-miterlimit:4.7;stroke-dasharray:none;stroke-opacity:1"
   id="path5" />
    <path
   d="m 40.887367,25.050336 -9.932,20.47 -11.653,-15.043"
   style="display:inline;fill:none;stroke:#000000;stroke-width:3.00001;stroke-linecap:round;stroke-linejoin:round;stroke-miterlimit:4.7;stroke-dasharray:none;stroke-opacity:1"
   id="path6" />
    <g
   style="display:inline;stroke-width:1.83867;stroke-dasharray:none"
   id="g8"
   transform="translate(-24.444633,-1.0746644)">
        <path
   d="m 44.242,23.499 1.19,18.313"
   style="fill:none;stroke:#000000;stroke-width:1.83867;stroke-linecap:round;stroke-linejoin:round;stroke-miterlimit:4.7;stroke-dasharray:none;stroke-opacity:1"
   transform="matrix(1.63742,0,0,1.62584,-28.934,-6.417)"
   id="path7" />
        <path
   d="m 56.195,62.957 -3.126,-1.19 -0.659,-11.799 -6.833,-8.597 -7.078,10.188 0.284,11.298 -4.043,0.87"
   style="display:inline;fill:none;stroke:#000000;stroke-width:1.83867;stroke-linecap:round;stroke-linejoin:round;stroke-miterlimit:4.7;stroke-dasharray:none;stroke-opacity:1"
   transform="matrix(1.63742,0,0,1.62584,-28.934,-6.417)"
   id="path8" />
    </g>
</svg>
