<?xml version="1.0" encoding="UTF-8" standalone="no"?>
<svg
   xml:space="preserve"
   width="70"
   height="95"
   version="1.1"
   id="svg9"
   sodipodi:docname="human_guitar_1.svg"
   inkscape:version="1.4 (e7c3feb1, 2024-10-09)"
   xmlns:inkscape="http://www.inkscape.org/namespaces/inkscape"
   xmlns:sodipodi="http://sodipodi.sourceforge.net/DTD/sodipodi-0.dtd"
   xmlns="http://www.w3.org/2000/svg"
   xmlns:svg="http://www.w3.org/2000/svg"><defs
   id="defs9" /><sodipodi:namedview
   id="namedview9"
   pagecolor="#ffffff"
   bordercolor="#000000"
   borderopacity="0.25"
   inkscape:showpageshadow="2"
   inkscape:pageopacity="0.0"
   inkscape:pagecheckerboard="0"
   inkscape:deskcolor="#d1d1d1"
   inkscape:current-layer="svg9" />
    <g
   style="display:inline"
   id="g9"
   transform="translate(-17.225031,-4.822)">
        <path
   d="m 58.683,29.432 12.31,22.007"
   style="display:inline;fill:none;stroke:#000000;stroke-width:3;stroke-linecap:round;stroke-linejoin:round;stroke-miterlimit:4.7;stroke-dasharray:none;stroke-opacity:1"
   transform="translate(-0.783,4.782)"
   id="path1" />
        <g
   style="stroke-width:1.83867;stroke-dasharray:none"
   transform="matrix(1.63742,0,0,1.62584,-22.934,-6.417)"
   id="g3">
            <path
   d="m 48.352,27.49 -3.7,12.869"
   style="fill:none;stroke:#000000;stroke-width:1.83867;stroke-linecap:round;stroke-linejoin:round;stroke-miterlimit:4.7;stroke-dasharray:none;stroke-opacity:1"
   id="path2" />
            <circle
   cx="50.942001"
   cy="17.149"
   r="4.9889998"
   style="display:inline;fill:none;stroke:#000000;stroke-width:1.83867;stroke-linecap:square;stroke-linejoin:round;stroke-miterlimit:4.7;stroke-dasharray:none;stroke-opacity:1"
   id="circle2" />
            <path
   d="M 60.709,62.683 57.334,61.903 58.676,47.197 44.72,40.547 30.167,48.343 31.67,62.466 H 27.888"
   style="fill:none;stroke:#000000;stroke-width:1.83867;stroke-linecap:round;stroke-linejoin:round;stroke-miterlimit:4.7;stroke-dasharray:none;stroke-opacity:1"
   id="path3" />
        </g>
        <g
   style="fill:#ffffff;fill-opacity:1;stroke:none;stroke-width:8.34218"
   id="g4">
            <path
   d="m 400.214,-0.007 a 4,4 0 0 0 -2.835,1.173 4.016,4.016 0 0 0 0,5.67 l 4.66,4.66 -7.74,7.74 -4.66,-4.66 a 4.016,4.016 0 0 0 -5.67,0 3.997,3.997 0 0 0 0,5.653 l 4.66,4.66 -7.739,7.756 -4.66,-4.66 a 4.016,4.016 0 0 0 -5.67,0 3.997,3.997 0 0 0 0,5.653 l 4.66,4.66 -0.358,0.375 c -4.354,4.355 -5.21,10.904 -2.59,16.13 l -138.64,134.339 c -33.78,-20.951 -73.55,-18.997 -97.68,5.132 -6.962,6.963 -12.167,15.29 -15.462,24.75 -7.279,20.875 -26.164,35.919 -48.097,38.338 -19.158,2.126 -36.088,10.067 -48.962,22.941 -35.523,35.524 -30.042,98.807 12.22,141.068 23.53,23.528 53.568,35.651 81.711,35.65 22.405,-0.002 43.612,-7.685 59.357,-23.43 12.874,-12.875 20.815,-29.818 22.94,-48.978 2.428,-21.922 17.473,-40.795 38.339,-48.082 9.479,-3.303 17.815,-8.494 24.766,-15.446 24.129,-24.13 26.056,-63.926 5.1,-97.71 L 402.218,84.766 a 13.86,13.86 0 0 0 6.257,1.483 c 3.726,0 7.24,-1.456 9.874,-4.09 l 0.358,-0.375 4.66,4.676 a 4,4 0 0 0 2.835,1.157 4,4 0 0 0 2.835,-1.157 4.016,4.016 0 0 0 0,-5.67 l -4.66,-4.66 7.74,-7.739 4.66,4.66 a 4.01,4.01 0 0 0 5.67,0 4.016,4.016 0 0 0 0,-5.67 l -4.66,-4.66 7.739,-7.74 4.66,4.66 a 4.01,4.01 0 0 0 5.67,0 4.02,4.02 0 0 0 0,-5.67 l -4.676,-4.66 c 3.179,-3.23 4.241,-8.053 2.688,-12.317 L 446.715,17.36 A 11.79,11.79 0 0 0 439.66,10.305 L 420.027,3.153 a 11.8,11.8 0 0 0 -4.04,-0.717 c -3.122,0 -6.055,1.218 -8.278,3.405 l -4.676,-4.676 a 3.97,3.97 0 0 0 -2.819,-1.173"
   style="fill:#ffffff;fill-opacity:1;stroke:none"
   transform="matrix(0.11987,0,0,0.11987,30.51,18.93)"
   id="path4" />
        </g>
        <path
   d="M 56.99,39.168 56.973,25.849 M 39.816,37.051 31.631,31.015 49.473,25.632"
   style="display:inline;fill:none;stroke:#000000;stroke-width:1.83867;stroke-linecap:round;stroke-linejoin:round;stroke-miterlimit:4.7;stroke-dasharray:none;stroke-opacity:1"
   transform="matrix(1.63742,0,0,1.62584,-23.108,-7.46)"
   id="path5" />
        <g
   style="display:inline;stroke-width:8.34218"
   id="g8">
            <path
   d="m 162.354,257.426 c -4.975,4.974 -7.714,11.587 -7.714,18.622 0,7.034 2.739,13.648 7.713,18.622 4.974,4.974 11.588,7.713 18.622,7.713 7.034,0 13.648,-2.739 18.622,-7.713 4.974,-4.974 7.713,-11.588 7.713,-18.622 0,-7.034 -2.739,-13.648 -7.713,-18.622 -4.974,-4.974 -11.587,-7.714 -18.622,-7.714 -7.033,0.001 -13.647,2.74 -18.621,7.714 m 36.957,18.622 c 0,4.897 -1.907,9.502 -5.371,12.965 a 18.2,18.2 0 0 1 -12.965,5.37 18.2,18.2 0 0 1 -12.965,-5.371 18.22,18.22 0 0 1 -5.371,-12.965 c 0,-4.898 1.907,-9.502 5.371,-12.965 a 18.22,18.22 0 0 1 12.965,-5.371 c 4.898,0 9.502,1.907 12.965,5.371 a 18.22,18.22 0 0 1 5.371,12.966 m -149.057,77.647 53.072,53.072 14.47,-14.47 -53.072,-53.072 z m 53.072,41.758 -41.759,-41.758 3.157,-3.157 41.758,41.758 z"
   style="stroke-width:8.34218"
   transform="matrix(0.11987,0,0,0.11987,30.51,18.93)"
   id="path6" />
            <path
   d="m 455.849,53.979 -4.664,-4.664 a 11.84,11.84 0 0 0 2.68,-12.317 l -7.154,-19.64 a 11.77,11.77 0 0 0 -7.05,-7.05 l -19.64,-7.154 a 11.8,11.8 0 0 0 -4.039,-0.713 11.73,11.73 0 0 0 -8.278,3.394 L 403.04,1.171 a 4.0001031,4.0001031 0 0 0 -5.657,5.657 l 4.661,4.661 -7.751,7.751 -4.661,-4.661 a 4.0001031,4.0001031 0 0 0 -5.657,5.657 l 4.661,4.661 -7.751,7.751 -4.661,-4.661 a 4.0001031,4.0001031 0 0 0 -5.657,5.657 l 4.661,4.661 -0.371,0.371 c -4.354,4.355 -5.212,10.893 -2.593,16.12 L 233.637,189.149 c -33.78,-20.951 -73.563,-19.008 -97.692,5.121 -6.963,6.963 -12.165,15.292 -15.46,24.751 -7.279,20.875 -26.152,35.927 -48.085,38.346 -19.158,2.126 -36.09,10.055 -48.964,22.929 -35.523,35.524 -30.042,98.807 12.22,141.068 23.53,23.529 53.569,35.658 81.712,35.656 22.405,-10e-4 43.611,-7.691 59.356,-23.436 12.874,-12.875 20.803,-29.806 22.929,-48.966 2.427,-21.922 17.479,-40.796 38.345,-48.083 9.479,-3.303 17.81,-8.501 24.761,-15.453 24.129,-24.13 26.069,-63.916 5.112,-97.701 L 402.22,84.759 c 1.92,0.967 4.048,1.49 6.26,1.49 3.726,0 7.229,-1.451 9.863,-4.085 l 0.371,-0.371 4.661,4.661 a 4,4 0 0 0 2.829,1.171 4,4 0 0 0 2.829,-6.828 l -4.661,-4.661 7.751,-7.751 4.661,4.661 a 4,4 0 0 0 2.829,1.171 4,4 0 0 0 2.829,-6.828 l -4.661,-4.661 7.751,-7.751 4.661,4.661 a 4,4 0 0 0 2.829,1.171 4,4 0 0 0 2.829,-1.171 4.005,4.005 0 0 0 -0.002,-5.659 M 209.51,247.513 c -4.271,-4.27 -9.33,-7.464 -14.849,-9.449 l 182.746,-177.11 18.66,18.659 -177.11,182.745 c -1.984,-5.517 -5.177,-10.575 -9.447,-14.845 m -5.657,5.658 c 6.111,6.11 9.477,14.235 9.477,22.877 0,8.642 -3.365,16.767 -9.477,22.877 -6.11,6.111 -14.235,9.477 -22.877,9.477 -8.642,0 -16.767,-3.365 -22.877,-9.477 -6.111,-6.111 -9.477,-14.235 -9.477,-22.877 0,-8.642 3.365,-16.767 9.477,-22.877 6.11,-6.111 14.235,-9.477 22.877,-9.477 8.642,0 16.767,3.365 22.877,9.477 m 53.249,62.255 c -6.092,6.092 -13.405,10.652 -21.739,13.556 -23.759,8.297 -40.897,29.79 -43.661,54.755 -1.924,17.333 -9.06,32.614 -20.635,44.19 -14.207,14.207 -33.367,21.131 -53.711,21.13 C 91.295,449.055 63.295,437.689 41.314,415.707 22.26,396.653 10.542,372.586 8.319,347.938 6.12,323.563 13.498,301.549 29.094,285.953 40.669,274.377 55.95,267.242 73.281,265.318 c 24.977,-2.755 46.471,-19.894 54.759,-43.665 2.896,-8.313 7.459,-15.623 13.563,-21.727 21.062,-21.062 55.884,-22.885 86.092,-5.018 l -42.332,41.027 a 41,41 0 0 0 -4.386,-0.242 c -10.779,0 -20.913,4.198 -28.535,11.819 -7.622,7.621 -11.819,17.755 -11.819,28.535 0,10.779 4.198,20.913 11.819,28.535 7.621,7.622 17.755,11.819 28.535,11.819 10.78,0 20.913,-4.198 28.535,-11.819 7.622,-7.621 11.819,-17.756 11.819,-28.535 0,-1.479 -0.086,-2.943 -0.242,-4.393 l 41.024,-42.33 c 17.873,30.213 16.053,65.039 -5.011,86.102 M 408.48,78.248 a 5.9,5.9 0 0 1 -4.206,-1.743 L 380.513,52.744 a 5.955,5.955 0 0 1 0.002,-8.41 l 32.778,-32.779 a 3.8,3.8 0 0 1 3.99,-0.884 l 19.64,7.154 a 3.8,3.8 0 0 1 2.271,2.271 l 7.154,19.64 a 3.82,3.82 0 0 1 -0.884,3.99 l -32.779,32.779 a 5.9,5.9 0 0 1 -4.205,1.743"
   style="stroke-width:8.34218"
   transform="matrix(0.11987,0,0,0.11987,30.51,18.93)"
   id="path7" />
            <path
   d="m 420.146,20.006 a 4,4 0 0 0 -5.657,0 l -25.952,25.952 a 4.0004566,4.0004566 0 1 0 5.658,5.657 l 25.952,-25.952 a 4,4 0 0 0 -10e-4,-5.657 m 16.868,16.869 a 4,4 0 0 0 -5.657,0 l -25.952,25.952 a 4.0004566,4.0004566 0 1 0 5.658,5.657 l 25.952,-25.952 a 4,4 0 0 0 -10e-4,-5.657"
   style="stroke-width:8.34218"
   transform="matrix(0.11987,0,0,0.11987,30.51,18.93)"
   id="path8" />
        </g>
        <path
   d="M 54.033,12.224 50.207,9.992 M 56.903,9.673 53.82,5.953 M 59.347,8.292 57.966,3.934 M 52.97,15.307 48.08,14.775 M 61.722,8.229 62.2,3.54 m 2.225,5.067 1.623,-3.13"
   style="fill:none;stroke:#000000;stroke-width:3;stroke-linecap:round;stroke-linejoin:round;stroke-miterlimit:4.7;stroke-opacity:1"
   transform="translate(-0.783,4.782)"
   id="path9" />
    </g>
</svg>
