<svg xmlns="http://www.w3.org/2000/svg" xml:space="preserve" width="100" height="100"><g style="stroke-width:5.1226" transform="matrix(.1944 0 0 .19603 11.375 5)"><path d="M336.892 95.91c-4.483 0-8.827-1.1-12.679-3.095l-21.831 11.309c-.02 15.351-6.13 29.282-16.975 38.202a34.7 34.7 0 0 1-5.632 19.063c2.384.881 4.727 1.908 8.452 1.908 5.048 0 9.985-2.078 13.538-5.928l50.059-54.255c3.985-4.32 5.496-10.032 4.631-15.417a27.42 27.42 0 0 1-19.563 8.213m-143.786 94.981-30.25 6.75c-11.642 2.598-23.201-3.342-28.16-13.647l-17.524-36.395.009 289.409c0 12.204 9.893 22.098 22.098 22.098s22.098-9.893 22.098-22.098V265.143a4.764 4.764 0 0 1 4.763-4.763 4.777 4.777 0 0 1 4.777 4.778v171.851c0 12.204 9.893 22.098 22.098 22.098s22.098-9.893 22.098-22.098l-.77-245.507c-6.491.878-14.233 1.032-21.237-.611M361.67 39.147c-3.3-4.781-7.984-4.812-13.177-2.122l-2.008-3.877c-1.86-3.589-6.297-4.945-9.819-3.118a7.287 7.287 0 0 0-3.118 9.82l2.008 3.877-2.587 1.34c-1.898-3.665-2.404-5.14-4.25-6.454l-17.363 38.161 17.053-8.834 1.025 1.979c.822 1.586 2.452 5.833 7.457 5.833a7.286 7.286 0 0 0 6.463-10.638l-2.008-3.876 2.587-1.34 2.008 3.877c1.823 3.516 6.2 4.992 9.82 3.118a7.286 7.286 0 0 0 3.118-9.819l-2.008-3.877 1.509-.782c4.801-2.488 6.467-8.67 3.29-13.268M159.876 99.845c-1.733 4.589-2.749 9.67-2.836 15.47l12.222 9.642 59.803-13.344 22.081-48.53c-17.959-3.568-23.965 10.254-27.663 13.621-10.53 15.253-28.123 25.273-48.019 25.273a58 58 0 0 1-15.588-2.132" style="stroke-width:5.1226"/><circle cx="175.465" cy="43.655" r="38.165" style="stroke-width:5.1226"/><path d="M312.656.908A10 10 0 0 0 308.488 0c-3.829 0-7.49 2.194-9.18 5.907l-46.331 101.827a34.8 34.8 0 0 1 18.889 7.157l45.789-100.636c2.305-5.066.067-11.042-4.999-13.347m-66.029 123.547-77.612 17.318-31.059-38.742c1.032-3.876 2.698-9.462 3.703-11.896a58.7 58.7 0 0 1-8.339-7.229s-13.241.088-20.061.583a18.4 18.4 0 0 0-14.178 7.893 18.41 18.41 0 0 0 .773 22.001l47.605 59.379a18.42 18.42 0 0 0 14.367 6.897c2.894 0-3.54 1.242 92.823-20.26 9.926-2.215 16.177-12.057 13.962-21.983-2.216-9.925-12.06-16.179-21.984-13.961" style="stroke-width:5.1226"/></g></svg>