<svg xmlns="http://www.w3.org/2000/svg" xml:space="preserve" width="55" height="100">
    <path d="m1.5 59.33 3.53-16.632 13.467-14.859m19.335 64.39-5.119-1.935-1.079-19.184-11.188-13.977-11.59 16.564.465 18.369-6.62 1.414M18.26 28.076l1.948 29.774m-1.475-29.775L34.248 43.72l14.168-13.55" style="display:inline;fill:none;stroke:#000;stroke-width:3.00001;stroke-linecap:round;stroke-linejoin:round;stroke-miterlimit:4.7;stroke-dasharray:none;stroke-opacity:1" transform="translate(2.393 2.51)"/>
    <g style="stroke-width:2;stroke-dasharray:none">
        <ellipse cx="46.572" cy="16.828" rx="9.621" ry="9.402" style="fill:#fff;stroke:#000;stroke-width:2;stroke-linecap:butt;stroke-linejoin:miter;stroke-miterlimit:5;stroke-dasharray:none" transform="translate(-26.601 -3.916)"/>
    </g>
    <path d="m76.53 33.44 3.933-9.807-15.498.249-3.608 9.625Z" style="fill:#fff;stroke:#000;stroke-width:2;stroke-linecap:round;stroke-linejoin:round;stroke-miterlimit:5;stroke-dasharray:none" transform="translate(-28.856 -1.203)"/>
    <path d="M75.249 28.78h1.16m-.24-.862-1.395 3.547m1.274-4.725 1.008.004-.215.55h-1.002zm-2.076 0 1.008.004-.215.55h-1.002zm-2.076 0 1.008.004-.215.55h-1.002zm-2.076 0 1.008.004-.216.55h-1.001zm-2.04 0 1.008.004-.216.55H67.57zm-2.005 0 1.008.004-.215.55h-1.002zM77 25.855a.245.18 0 0 1-.245.181.245.18 0 0 1-.244-.18.245.18 0 0 1 .244-.182.245.18 0 0 1 .245.181m-4.152 0a.245.18 0 0 1-.245.181.245.18 0 0 1-.244-.18.245.18 0 0 1 .244-.182.245.18 0 0 1 .245.181m-2.076 0a.245.18 0 0 1-.245.181.245.18 0 0 1-.245-.18.245.18 0 0 1 .245-.182.245.18 0 0 1 .245.181m-2.04 0a.245.18 0 0 1-.245.181.245.18 0 0 1-.245-.18.245.18 0 0 1 .245-.182.245.18 0 0 1 .244.181m-2.005 0a.245.18 0 0 1-.245.181.245.18 0 0 1-.244-.18.245.18 0 0 1 .244-.182.245.18 0 0 1 .245.181m6.446 2.925h1.16m-.24-.862-1.395 3.547m2.226-5.61a.245.18 0 0 1-.245.181.245.18 0 0 1-.244-.18.245.18 0 0 1 .244-.182.245.18 0 0 1 .245.181m-4.103 3.503h1.16m.036-1.44-1.395 3.547M69.02 28.78h1.16m-.239-.862-1.395 3.547m-1.96-1.757h1.16m.155-1.79-1.395 3.547m-1.53-2.685h1.16m-.24-.862-1.395 3.547" style="fill:#000;fill-opacity:1;stroke:#000;stroke-width:.6;stroke-linecap:round;stroke-linejoin:round;stroke-miterlimit:5;stroke-dasharray:none;stroke-opacity:1" transform="translate(-28.856 -1.203)"/>
    <path d="M42.725 22.567s-.21 5.208 1.258 11.03c5.453-5.7 6.99-9.56 6.99-9.56z" style="fill:#000;fill-opacity:1;stroke:#000;stroke-width:.753247;stroke-linecap:round;stroke-linejoin:round;stroke-miterlimit:5;stroke-dasharray:none;stroke-opacity:1" transform="translate(-28.856 -1.203)"/>
    <path d="M36.423 18.768c1.847 1.401 8.132 1.946 8.132 1.946l2.294-2.364 2.364 3.198s4.608 1.688 7.507 1.53c-4.38 3.127-8.133-1.6-8.133-1.6l-2.989-.695s-6.812 4.935-9.175-2.016" style="fill:#000;fill-opacity:1;stroke:#000;stroke-width:.8;stroke-linecap:round;stroke-linejoin:round;stroke-miterlimit:5;stroke-dasharray:none;stroke-opacity:1" transform="translate(-28.856 -1.203)"/>
</svg>
