<svg xmlns="http://www.w3.org/2000/svg" xml:space="preserve" width="100" height="100"><path d="m50.04 14.807-4.797-2.992 4.668 2.895 2.341-2.333-3.05-4.824 3.05 4.824 3.773-1.375-.693-6.193.853 6.281 3.058.107 1.544-7.135-1.55 7.086 3.093 1.42 3.678-5.364-3.553 5.389M64.978 17c1.23 4.308-1.29 8.804-5.629 10.042s-8.852-1.25-10.081-5.558C46.192 10.71 62.126 7.006 64.977 17.002" style="display:inline;fill:#fff;stroke:#000;stroke-width:2.00001;stroke-linecap:round;stroke-linejoin:round;stroke-miterlimit:4.7;stroke-dasharray:none;stroke-opacity:1"/><path d="m59.982 31.788 7.202 15.615-23.468-15.835" style="display:inline;fill:none;stroke:#000;stroke-width:3;stroke-linecap:round;stroke-linejoin:round;stroke-miterlimit:4.7;stroke-dasharray:none;stroke-opacity:1"/><path d="m26.54 32.18 19.718 14.997 13.489-15.625" style="display:inline;fill:none;stroke:#000;stroke-width:3.00001;stroke-linecap:round;stroke-linejoin:round;stroke-miterlimit:4.7;stroke-dasharray:none;stroke-opacity:1"/><g style="display:inline;stroke-width:1.83867;stroke-dasharray:none"><path d="m44.242 23.499 1.19 18.313" style="fill:none;stroke:#000;stroke-width:1.83867;stroke-linecap:round;stroke-linejoin:round;stroke-miterlimit:4.7;stroke-dasharray:none;stroke-opacity:1" transform="matrix(1.63742 0 0 1.62584 -12.934 -6.417)"/><path d="m56.195 62.957-3.126-1.19-.659-11.799-6.833-8.597-7.078 10.188.284 11.298-4.043.87" style="display:inline;fill:none;stroke:#000;stroke-width:1.83867;stroke-linecap:round;stroke-linejoin:round;stroke-miterlimit:4.7;stroke-dasharray:none;stroke-opacity:1" transform="matrix(1.63742 0 0 1.62584 -12.934 -6.417)"/></g><g style="fill:#fff" transform="rotate(-10.947 50.175 -19.273)"><rect width="57.978" height="1.468" x=".973" y="27.876" rx=".502" ry=".381" style="fill:#fff;fill-opacity:1;stroke:#000;stroke-width:.999999;stroke-linecap:round;stroke-linejoin:round;stroke-miterlimit:4.7;stroke-dasharray:none"/><ellipse cx="11.971" cy="27.768" rx="1.339" ry="1.004" style="fill:#fff;fill-opacity:1;stroke:#000;stroke-width:1;stroke-linecap:round;stroke-linejoin:round;stroke-miterlimit:4.7;stroke-dasharray:none"/><ellipse cx="49.605" cy="27.82" rx="2.38" ry="1.521" style="fill:#fff;fill-opacity:1;stroke:#000;stroke-width:.999998;stroke-linecap:round;stroke-linejoin:round;stroke-miterlimit:4.7;stroke-dasharray:none"/><ellipse cx="17.971" cy="27.768" rx="1.339" ry="1.004" style="fill:#fff;fill-opacity:1;stroke:#000;stroke-width:1;stroke-linecap:round;stroke-linejoin:round;stroke-miterlimit:4.7;stroke-dasharray:none"/><ellipse cx="23.971" cy="27.768" rx="1.339" ry="1.004" style="fill:#fff;fill-opacity:1;stroke:#000;stroke-width:1;stroke-linecap:round;stroke-linejoin:round;stroke-miterlimit:4.7;stroke-dasharray:none"/><ellipse cx="29.971" cy="27.768" rx="1.339" ry="1.004" style="fill:#fff;fill-opacity:1;stroke:#000;stroke-width:1;stroke-linecap:round;stroke-linejoin:round;stroke-miterlimit:4.7;stroke-dasharray:none"/><ellipse cx="49.574" cy="27.823" rx=".489" ry=".086" style="fill:#fff;fill-opacity:1;stroke:#000;stroke-width:.999998;stroke-linecap:round;stroke-linejoin:round;stroke-miterlimit:4.7;stroke-dasharray:none"/></g></svg>