<svg xmlns="http://www.w3.org/2000/svg" xml:space="preserve" width="60" height="100">
    <path d="m4.418 59.35 3.53-16.633L21.415 27.86M40.75 92.25l-5.119-1.936-1.079-19.183-11.188-13.977-11.59 16.564.465 18.369L5.62 93.5m15.559-65.404 1.948 29.774m-1.475-29.775 15.515 15.643L51.334 30.19" style="display:inline;fill:none;stroke:#000;stroke-width:3.00001;stroke-linecap:round;stroke-linejoin:round;stroke-miterlimit:4.7;stroke-dasharray:none;stroke-opacity:1" transform="translate(2.723 2.5)"/>
    <ellipse cx="46.572" cy="16.828" rx="9.621" ry="9.402" style="fill:#fff;stroke:#000;stroke-width:2;stroke-linecap:butt;stroke-linejoin:miter;stroke-miterlimit:5;stroke-dasharray:none" transform="translate(-23.567 -.479)"/>
    <path d="M53.11 36.137c.381 0 .742-.15 1.018-.422.562-.561.576-1.484 0-2.03l-7.645-7.26a2.86 2.86 0 0 0-.732-2.733 2.84 2.84 0 0 0-2.748-.732.375.375 0 0 0-.17.627l1.228 1.229-.26.957-.958.261-1.229-1.229a.375.375 0 0 0-.627.17 2.83 2.83 0 0 0 .732 2.749c.712.712 1.76.983 2.733.732l7.645 7.26c.27.27.632.42 1.013.42m-9.174-12.51c.481.04.938.25 1.289.602.571.571.757 1.409.481 2.181a.37.37 0 0 0 .09.391l7.805 7.42a.687.687 0 0 1 0 .968c-.13.13-.3.2-.486.2a.67.67 0 0 1-.481-.2l-7.806-7.42a.38.38 0 0 0-.39-.09c-.773.27-1.61.09-2.182-.482a2.1 2.1 0 0 1-.602-1.288l.818.817c.095.095.235.13.366.095l1.374-.376a.38.38 0 0 0 .265-.265l.376-1.375c.036-.13 0-.27-.095-.366l-.817-.817z" style="display:inline;stroke-width:.501459" transform="translate(2.723 2.5)"/>
    <path d="M43.936 23.627c.481.04.938.25 1.289.602.571.571.757 1.409.481 2.181a.37.37 0 0 0 .09.391l7.805 7.42a.687.687 0 0 1 0 .968c-.13.13-.3.2-.486.2a.67.67 0 0 1-.481-.2l-7.806-7.42a.38.38 0 0 0-.39-.09c-.773.27-1.61.09-2.182-.482a2.1 2.1 0 0 1-.602-1.288l.818.817c.095.095.235.13.366.095l1.374-.376a.38.38 0 0 0 .265-.265l.376-1.375c.036-.13 0-.27-.095-.366l-.817-.817z" style="display:inline;fill:#fff;stroke-width:.501459" transform="translate(2.723 2.5)"/>
    <path d="M17.253 10.291H0" style="fill:#000;stroke-width:2;stroke-linecap:round;stroke-linejoin:round;stroke-miterlimit:5" transform="translate(2.723 2.5)"/>
    <path d="m11.246 7.469-9.216.034a1 1 0 1 0 0 2c9.965.148 17.404.054 27.37.018 0-1.885.773-5.33-.953-6.869C24.541-.831 16.972-.81 12.75 2.284c-1.45 1.064-1.006 2.853-1.504 5.186" style="stroke-width:2;stroke-linecap:round;stroke-linejoin:round;stroke-miterlimit:5" transform="translate(2.723 2.5)"/>
</svg>
