<svg xmlns="http://www.w3.org/2000/svg" xml:space="preserve" width="100" height="100">
    <g style="display:inline">
        <path d="m58.683 29.432 12.31 22.007" style="display:inline;fill:none;stroke:#000;stroke-width:3;stroke-linecap:round;stroke-linejoin:round;stroke-miterlimit:4.7;stroke-dasharray:none;stroke-opacity:1" transform="translate(-.783 4.782)"/>
        <g style="stroke-width:1.83867;stroke-dasharray:none" transform="matrix(1.63742 0 0 1.62584 -22.934 -6.417)">
            <path d="m48.352 27.49-3.7 12.869" style="fill:none;stroke:#000;stroke-width:1.83867;stroke-linecap:round;stroke-linejoin:round;stroke-miterlimit:4.7;stroke-dasharray:none;stroke-opacity:1"/>
            <circle cx="50.942" cy="17.149" r="4.989" style="display:inline;fill:none;stroke:#000;stroke-width:1.83867;stroke-linecap:square;stroke-linejoin:round;stroke-miterlimit:4.7;stroke-dasharray:none;stroke-opacity:1"/>
            <path d="m60.709 62.683-3.375-.78 1.342-14.706-13.956-6.65-14.553 7.796 1.503 14.123h-3.782" style="fill:none;stroke:#000;stroke-width:1.83867;stroke-linecap:round;stroke-linejoin:round;stroke-miterlimit:4.7;stroke-dasharray:none;stroke-opacity:1"/>
        </g>
        <g style="stroke-width:8.34218;stroke:none;fill:#fff;fill-opacity:1">
            <path d="M400.214-.007a4 4 0 0 0-2.835 1.173 4.016 4.016 0 0 0 0 5.67l4.66 4.66-7.74 7.74-4.66-4.66a4.016 4.016 0 0 0-5.67 0 3.997 3.997 0 0 0 0 5.653l4.66 4.66-7.739 7.756-4.66-4.66a4.016 4.016 0 0 0-5.67 0 3.997 3.997 0 0 0 0 5.653l4.66 4.66-.358.375c-4.354 4.355-5.21 10.904-2.59 16.13l-138.64 134.339c-33.78-20.951-73.55-18.997-97.68 5.132-6.962 6.963-12.167 15.29-15.462 24.75-7.279 20.875-26.164 35.919-48.097 38.338-19.158 2.126-36.088 10.067-48.962 22.941-35.523 35.524-30.042 98.807 12.22 141.068 23.53 23.528 53.568 35.651 81.711 35.65 22.405-.002 43.612-7.685 59.357-23.43 12.874-12.875 20.815-29.818 22.94-48.978 2.428-21.922 17.473-40.795 38.339-48.082 9.479-3.303 17.815-8.494 24.766-15.446 24.129-24.13 26.056-63.926 5.1-97.71L402.218 84.766a13.86 13.86 0 0 0 6.257 1.483c3.726 0 7.24-1.456 9.874-4.09l.358-.375 4.66 4.676a4 4 0 0 0 2.835 1.157 4 4 0 0 0 2.835-1.157 4.016 4.016 0 0 0 0-5.67l-4.66-4.66 7.74-7.739 4.66 4.66a4.01 4.01 0 0 0 5.67 0 4.016 4.016 0 0 0 0-5.67l-4.66-4.66 7.739-7.74 4.66 4.66a4.01 4.01 0 0 0 5.67 0 4.02 4.02 0 0 0 0-5.67l-4.676-4.66c3.179-3.23 4.241-8.053 2.688-12.317l-7.153-19.634a11.79 11.79 0 0 0-7.055-7.055l-19.633-7.152a11.8 11.8 0 0 0-4.04-.717c-3.122 0-6.055 1.218-8.278 3.405l-4.676-4.676a3.97 3.97 0 0 0-2.819-1.173" style="fill:#fff;stroke:none;fill-opacity:1" transform="translate(30.51 18.93)scale(.11987)"/>
        </g>
        <path d="m56.99 39.168-.017-13.319M39.816 37.051l-8.185-6.036 17.842-5.383" style="display:inline;fill:none;stroke:#000;stroke-width:1.83867;stroke-linecap:round;stroke-linejoin:round;stroke-miterlimit:4.7;stroke-dasharray:none;stroke-opacity:1" transform="matrix(1.63742 0 0 1.62584 -23.108 -7.46)"/>
        <g style="display:inline;stroke-width:8.34218">
            <path d="M162.354 257.426c-4.975 4.974-7.714 11.587-7.714 18.622 0 7.034 2.739 13.648 7.713 18.622s11.588 7.713 18.622 7.713 13.648-2.739 18.622-7.713 7.713-11.588 7.713-18.622-2.739-13.648-7.713-18.622-11.587-7.714-18.622-7.714c-7.033.001-13.647 2.74-18.621 7.714m36.957 18.622c0 4.897-1.907 9.502-5.371 12.965a18.2 18.2 0 0 1-12.965 5.37 18.2 18.2 0 0 1-12.965-5.371 18.22 18.22 0 0 1-5.371-12.965c0-4.898 1.907-9.502 5.371-12.965a18.22 18.22 0 0 1 12.965-5.371c4.898 0 9.502 1.907 12.965 5.371a18.22 18.22 0 0 1 5.371 12.966M50.254 353.695l53.072 53.072 14.47-14.47-53.072-53.072zm53.072 41.758-41.759-41.758 3.157-3.157 41.758 41.758z" style="stroke-width:8.34218" transform="translate(30.51 18.93)scale(.11987)"/>
            <path d="m455.849 53.979-4.664-4.664a11.84 11.84 0 0 0 2.68-12.317l-7.154-19.64a11.77 11.77 0 0 0-7.05-7.05l-19.64-7.154a11.8 11.8 0 0 0-4.039-.713 11.73 11.73 0 0 0-8.278 3.394l-4.664-4.664a4 4 0 0 0-5.657 5.657l4.661 4.661-7.751 7.751-4.661-4.661a4 4 0 0 0-5.657 5.657l4.661 4.661-7.751 7.751-4.661-4.661a4 4 0 0 0-5.657 5.657l4.661 4.661-.371.371c-4.354 4.355-5.212 10.893-2.593 16.12L233.637 189.149c-33.78-20.951-73.563-19.008-97.692 5.121-6.963 6.963-12.165 15.292-15.46 24.751-7.279 20.875-26.152 35.927-48.085 38.346-19.158 2.126-36.09 10.055-48.964 22.929-35.523 35.524-30.042 98.807 12.22 141.068 23.53 23.529 53.569 35.658 81.712 35.656 22.405-.001 43.611-7.691 59.356-23.436 12.874-12.875 20.803-29.806 22.929-48.966 2.427-21.922 17.479-40.796 38.345-48.083 9.479-3.303 17.81-8.501 24.761-15.453 24.129-24.13 26.069-63.916 5.112-97.701L402.22 84.759c1.92.967 4.048 1.49 6.26 1.49 3.726 0 7.229-1.451 9.863-4.085l.371-.371 4.661 4.661a4 4 0 0 0 2.829 1.171 4 4 0 0 0 2.829-6.828l-4.661-4.661 7.751-7.751 4.661 4.661a4 4 0 0 0 2.829 1.171 4 4 0 0 0 2.829-6.828l-4.661-4.661 7.751-7.751 4.661 4.661a4 4 0 0 0 2.829 1.171 4 4 0 0 0 2.829-1.171 4.005 4.005 0 0 0-.002-5.659M209.51 247.513c-4.271-4.27-9.33-7.464-14.849-9.449l182.746-177.11 18.66 18.659-177.11 182.745c-1.984-5.517-5.177-10.575-9.447-14.845m-5.657 5.658c6.111 6.11 9.477 14.235 9.477 22.877s-3.365 16.767-9.477 22.877c-6.11 6.111-14.235 9.477-22.877 9.477s-16.767-3.365-22.877-9.477c-6.111-6.111-9.477-14.235-9.477-22.877s3.365-16.767 9.477-22.877c6.11-6.111 14.235-9.477 22.877-9.477s16.767 3.365 22.877 9.477m53.249 62.255c-6.092 6.092-13.405 10.652-21.739 13.556-23.759 8.297-40.897 29.79-43.661 54.755-1.924 17.333-9.06 32.614-20.635 44.19-14.207 14.207-33.367 21.131-53.711 21.13-26.061-.002-54.061-11.368-76.042-33.35-19.054-19.054-30.772-43.121-32.995-67.769-2.199-24.375 5.179-46.389 20.775-61.985 11.575-11.576 26.856-18.711 44.187-20.635 24.977-2.755 46.471-19.894 54.759-43.665 2.896-8.313 7.459-15.623 13.563-21.727 21.062-21.062 55.884-22.885 86.092-5.018l-42.332 41.027a41 41 0 0 0-4.386-.242c-10.779 0-20.913 4.198-28.535 11.819s-11.819 17.755-11.819 28.535c0 10.779 4.198 20.913 11.819 28.535s17.755 11.819 28.535 11.819 20.913-4.198 28.535-11.819 11.819-17.756 11.819-28.535c0-1.479-.086-2.943-.242-4.393l41.024-42.33c17.873 30.213 16.053 65.039-5.011 86.102M408.48 78.248a5.9 5.9 0 0 1-4.206-1.743l-23.761-23.761a5.955 5.955 0 0 1 .002-8.41l32.778-32.779a3.8 3.8 0 0 1 3.99-.884l19.64 7.154a3.8 3.8 0 0 1 2.271 2.271l7.154 19.64a3.82 3.82 0 0 1-.884 3.99l-32.779 32.779a5.9 5.9 0 0 1-4.205 1.743" style="stroke-width:8.34218" transform="translate(30.51 18.93)scale(.11987)"/>
            <path d="M420.146 20.006a4 4 0 0 0-5.657 0l-25.952 25.952a4 4 0 1 0 5.658 5.657l25.952-25.952a4 4 0 0 0-.001-5.657m16.868 16.869a4 4 0 0 0-5.657 0l-25.952 25.952a4 4 0 1 0 5.658 5.657l25.952-25.952a4 4 0 0 0-.001-5.657" style="stroke-width:8.34218" transform="translate(30.51 18.93)scale(.11987)"/>
        </g>
        <path d="m54.033 12.224-3.826-2.232m6.696-.319-3.083-3.72m5.527 2.339-1.381-4.358M52.97 15.307l-4.89-.532m13.642-6.546L62.2 3.54m2.225 5.067 1.623-3.13" style="fill:none;stroke:#000;stroke-width:3;stroke-linecap:round;stroke-linejoin:round;stroke-miterlimit:4.7;stroke-opacity:1" transform="translate(-.783 4.782)"/>
    </g>
</svg>
