<?xml version="1.0" encoding="UTF-8" standalone="no"?>
<svg
   xml:space="preserve"
   width="100"
   height="100"
   version="1.1"
   id="svg7"
   sodipodi:docname="human_composer_3.svg"
   inkscape:version="1.3.2 (091e20e, 2023-11-25)"
   xmlns:inkscape="http://www.inkscape.org/namespaces/inkscape"
   xmlns:sodipodi="http://sodipodi.sourceforge.net/DTD/sodipodi-0.dtd"
   xmlns="http://www.w3.org/2000/svg"
   xmlns:svg="http://www.w3.org/2000/svg"><defs
     id="defs7" /><sodipodi:namedview
     id="namedview7"
     pagecolor="#ffffff"
     bordercolor="#000000"
     borderopacity="0.25"
     inkscape:showpageshadow="2"
     inkscape:pageopacity="0.0"
     inkscape:pagecheckerboard="0"
     inkscape:deskcolor="#d1d1d1"
     inkscape:current-layer="Слой_x0020_1" /><path
     d="M 50.765,27.006 66.280158,42.649279 80.448036,29.100973"
     style="display:inline;fill:none;stroke:#000000;stroke-width:3;stroke-linecap:round;stroke-linejoin:round;stroke-miterlimit:4.7;stroke-dasharray:none;stroke-opacity:1"
     transform="translate(-0.783,4.782)"
     id="path1"
     sodipodi:nodetypes="ccc" /><g
     style="display:inline;stroke-width:1.83867;stroke-dasharray:none"
     id="g3"><path
       d="m44.242 23.499 1.19 18.313"
       style="fill:none;stroke:#000;stroke-width:1.83867;stroke-linecap:round;stroke-linejoin:round;stroke-miterlimit:4.7;stroke-dasharray:none;stroke-opacity:1"
       transform="matrix(1.63742 0 0 1.62584 -22.934 -6.417)"
       id="path2" /><path
       d="m56.195 62.957-3.126-1.19-.659-11.799-6.833-8.597-7.078 10.188.284 11.298-4.043.87"
       style="display:inline;fill:none;stroke:#000;stroke-width:1.83867;stroke-linecap:round;stroke-linejoin:round;stroke-miterlimit:4.7;stroke-dasharray:none;stroke-opacity:1"
       transform="matrix(1.63742 0 0 1.62584 -22.934 -6.417)"
       id="path3" /></g><path
     d="M 33.531958,58.260144 37.061734,41.628281 50.529,26.77"
     style="display:inline;fill:none;stroke:#000000;stroke-width:3.00001;stroke-linecap:round;stroke-linejoin:round;stroke-miterlimit:4.7;stroke-dasharray:none;stroke-opacity:1"
     transform="translate(-0.783,4.782)"
     id="path4"
     sodipodi:nodetypes="ccc" /><path
     style="fill:#ffffff;stroke:#000000;stroke-width:2;stroke-linecap:round;stroke-linejoin:round;stroke-miterlimit:5;stroke-dasharray:none"
     d="M 68.432544,21.51009 78.997235,21.367324 73.191414,35.73911 62.912255,35.64393 Z"
     id="path18"
     sodipodi:nodetypes="ccccc" /><g
     id="g20"
     transform="translate(-0.98333183,0.17878761)"><g
       id="g17"
       transform="matrix(0.32812363,0,0,0.32812363,48.264193,20.598209)"><ellipse
         style="fill:#ffffff;stroke:#000000;stroke-width:2;stroke-linecap:butt;stroke-linejoin:miter;stroke-miterlimit:5;stroke-dasharray:none"
         id="ellipse16"
         cx="65.067841"
         cy="23.902136"
         rx="2.4991565"
         ry="1.6059459" /><path
         style="fill:#ffffff;stroke:#000000;stroke-width:2;stroke-linecap:round;stroke-linejoin:round;stroke-miterlimit:5;stroke-dasharray:none"
         d="m 67.522058,24.153609 3.697453,-12.567114 c -0.473387,4.146724 2.47599,4.763413 1.219958,9.824545"
         id="path17"
         sodipodi:nodetypes="ccc" /></g><g
       id="g19"
       transform="matrix(0.32812363,0,0,0.32812363,49.873281,22.877751)"><ellipse
         style="fill:#ffffff;stroke:#000000;stroke-width:2;stroke-linecap:butt;stroke-linejoin:miter;stroke-miterlimit:5;stroke-dasharray:none"
         id="ellipse18"
         cx="65.067841"
         cy="23.902136"
         rx="2.4991565"
         ry="1.6059459" /><path
         style="fill:#ffffff;stroke:#000000;stroke-width:2;stroke-linecap:round;stroke-linejoin:round;stroke-miterlimit:5;stroke-dasharray:none"
         d="m 67.522058,24.153609 3.697453,-12.567114 c -0.473387,4.146724 2.47599,4.763413 1.219958,9.824545"
         id="path19"
         sodipodi:nodetypes="ccc" /></g></g><g
     id="Слой_x0020_1"
     inkscape:label="Слой 1"
     inkscape:groupmode="layer"
     transform="matrix(0.0353865,0,0,0.0353865,29.559318,0.27031175)"
     style="clip-rule:evenodd;fill-rule:evenodd;stroke-width:43.6777;image-rendering:optimizeQuality;shape-rendering:geometricPrecision;text-rendering:geometricPrecision">
  <metadata
   id="CorelCorpID_0Corel-Layer" />
  <path
   class="fil0"
   d="m 586.94133,795 c 23,5 7,-3 24,0 1,1 1,1 1,3 l 2,6 c 2,24 -6,24 8,33 -4,8 -1,0 -11,9 -9,8 1,6 -16,12 6,-19 9,-3 7,-44 -11,-1 -13,-5 -18,8 -6,18 4,5 -10,23 -2,-12 2,-8 -4,-18 -19,25 -29,4 -29,3 l 8,-14 c 20,-41 7,-33 1,-43 53,-59 64,-36 74,-35 9,1 19,-6 32,-7 -22,43 -59,2 -71,31 -6,13 -2,22 2,33 z m 117,-335 c 2,0 3,2 3,4 0,2 -1,3 -3,3 -2,0 -4,-1 -4,-3 0,-2 2,-4 4,-4 z m -201,21 c 2,0 4,2 4,4 0,2 -2,3 -4,3 -2,0 -4,-1 -4,-3 0,-2 2,-4 4,-4 z m -331,60 c 14,-4 37,-6 48,-1 4,26 -31,38 3,60 21,14 17,-3 26,-1 11,1 4,13 29,16 l 1,4 v 2 c 1,1 1,4 1,5 0,0 1,1 1,2 v 2 c 8,-6 7,-7 17,-11 3,30 -10,38 -31,47 -26,9 -32,-12 -46,-23 -20,-17 -52,-83 -49,-102 z m 71,-334 c 5,-19 10,-5 16,-20 6,-12 -3,-13 10,-21 22,-14 6,-9 21,-18 -8,-8 -17,-19 -6,-29 10,-9 24,4 34,11 2,1 5,3 6,4 6,4 9,4 11,12 3,10 -5,19 -10,28 -7,0 -18,-1 -24,0 -20,2 -11,17 2,22 -8,18 3,48 -18,65 l -19,1 c -6,2 -11,8 -13,10 4,-9 19,-14 22,-29 v -2 l -1,-15 c 1,-18 -30,-1 -48,0 2,-1 10,-5 12,-8 6,-6 1,2 4,-5 4,-10 -2,4 1,-6 z m 571,661 c 2,-20 2,-9 6,-21 l 4,-14 -17,-12 c 16,-7 26,0 38,-14 -9,-19 -19,5 -34,-40 9,-4 13,-2 17,-10 -5,-15 -2,-5 -14,-14 -12,-7 -8,-5 -9,-20 5,2 3,2 5,4 5,3 0,2 6,4 l 17,-28 c -23,-58 -19,-21 -35,-37 12,-7 14,-4 22,-14 7,-8 12,-10 17,-19 -3,-8 -5,-9 -10,-15 -17,5 -36,-1 -30,-21 1,-1 2,-4 2,-5 5,-14 3,-10 14,-17 0,-1 -3,-23 -14,-34 -17,-17 -8,-20 -15,-38 -9,10 -10,71 -10,83 l -3,37 c -4,16 -6,22 -23,24 l 2,14 c -9,-12 -6,-4 -9,-2 l 4,21 c -4,4 -11,10 -17,12 -14,-12 -4,-27 -25,-39 6,-12 24,-23 12,-35 -11,-13 -14,-3 -26,0 -10,3 -22,4 -32,5 -16,2 -40,14 -49,26 3,12 6,6 12,14 l -13,28 c -31,8 -55,19 -68,42 -7,-10 -2,-13 -12,-17 -13,-6 1,1 -13,-1 -2,9 -2,12 -4,18 -21,4 -10,-3 -28,7 -7,3 -21,10 -25,0 8,-1 16,0 18,-16 -26,5 -19,-1 -22,-10 l -4,-9 c -33,0 -31,13 -56,7 6,-17 13,-27 13,-46 -1,0 -2,-2 -3,-1 0,1 -3,-2 -5,-3 -6,-2 -3,1 -9,-3 7,-14 17,-16 26,-27 l -15,7 c 5,-5 10,-8 9,-13 -6,-4 -12,2 -18,6 -2,-7 4,-6 1,-12 -8,8 -10,13 -23,12 1,-12 8,-17 15,-23 l -38,12 c -3,1 -6,4 -9,6 3,-6 -3,-10 -3,-25 h -9 l -5,-56 -27,24 c 0,-38 11,-76 25,-105 8,-17 12,-27 23,-41 15,-21 9,-27 19,-46 l -30,-36 c -10,-10 -8,-13 -18,-25 l -19,-16 c 5,-9 3,-22 8,-30 4,-7 18,-15 21,-20 8,-17 -8,-3 8,-25 9,-13 5,-28 11,-34 8,-4 10,-1 17,-6 7,-4 3,-7 13,-13 9,-6 31,-6 43,-10 1,-15 -7,-28 -12,-40 -11,-1 -33,3 -41,7 -3,-15 -5,-8 -8,-18 -3,-7 -3,-15 -5,-22 30,-1 16,2 42,4 l 9,-13 c 13,6 10,-2 24,2 24,6 57,6 58,42 -6,-2 -3,-2 -12,-2 -16,-1 -5,3 -16,2 -12,-1 -9,-3 -21,3 -6,-4 -13,-19 -16,-4 -3,11 2,19 6,26 8,15 15,15 33,17 38,5 2,3 48,-13 1,-1 2,-1 3,-1 16,19 29,29 45,3 9,6 5,10 19,10 15,1 8,-1 16,-11 5,5 14,18 17,28 18,-5 2,-6 28,-2 16,3 3,0 14,-1 14,-1 3,3 14,1 12,-2 54,-28 38,9 l 14,13 c 0,1 1,1 2,2 20,12 12,10 25,28 10,13 10,5 15,25 4,13 8,21 11,32 11,40 18,108 19,148 -15,-6 -3,7 -15,-4 -3,-3 -8,-15 -11,-19 -34,2 -78,-3 -105,20 0,28 10,54 30,76 11,12 22,10 40,3 13,-5 26,-10 27,-24 -7,9 -10,9 -15,9 -12,-9 -26,-8 -43,-12 -3,-9 -6,-12 1,-26 7,23 41,31 56,13 1,-2 3,-3 3,-4 1,-1 -4,10 -2,10 14,-1 24,-7 29,-25 10,12 -3,3 9,8 h 2 c 16,-30 -1,-55 32,-99 11,-15 9,-11 16,-30 -7,-8 -15,-7 -16,-20 -1,-11 5,-12 6,-30 l -23,-13 c -5,-15 -3,-35 -14,-47 -6,-6 -11,-8 -14,-16 -2,-6 -2,-19 -2,-28 l -20,-9 c 0,-14 5,-41 -17,-35 2,-12 3,-3 0,-15 -5,-17 -3,-7 -7,-11 -9,7 -7,6 -13,17 -6,9 -7,9 -14,16 -9,-7 -9,-9 -26,-6 -5,-10 -6,-7 -9,-19 -7,4 -2,1 -8,5 -4,4 -2,2 -6,5 -1,-17 6,-42 -18,-42 -11,0 -7,0 -13,7 l -12,-15 c -8,20 -13,20 -27,32 v 21 c 0,-2 -5,-12 -9,-16 -13,-11 -8,-1 -23,-8 -10,-4 -27,-20 -31,-31 l 20,-11 c 24,-13 11,-9 10,-27 23,-2 16,-11 33,-7 22,5 39,21 57,31 12,7 7,11 19,24 8,-7 11,-8 11,-22 19,8 7,2 13,0 5,-2 -8,-7 6,0 15,7 18,35 30,45 19,-18 5,-55 -4,-61 -5,-4 -54,-13 -69,-19 -10,-4 -17,-10 -30,-14 -54,-15 -148,-22 -201,-5 -23,8 -41,19 -64,23 -50,8 -78,44 -111,67 -37,25 -81,89 -84,134 -3,54 -16,59 -21,105 -3,30 -1,36 -20,62 -13,18 -10,32 -11,51 0,9 -2,7 -2,20 1,10 2,11 5,16 6,9 5,0 9,11 1,6 0,31 0,37 1,14 32,32 54,32 11,42 42,86 81,111 7,4 14,7 20,13 l 16,18 c -5,14 -5,6 -4,17 1,10 3,12 7,20 8,15 3,13 9,25 5,11 0,12 10,22 l 19,28 c 2,12 -2,8 -4,21 12,7 7,5 22,6 11,1 20,4 29,7 8,41 6,12 14,33 4,10 2,8 0,14 13,1 20,13 35,18 14,6 31,7 47,4 7,16 -1,11 15,15 l 12,-2 c 47.61187,44.63613 95.03135,16.39559 100.08448,14.71121 21,-7 55.91552,15.28879 73.91552,5.28879 l 25,-15 c 16,-8 5,11 26,-8 l 68,-58 c 11,-10 6,-8 22,-9 z m -338,-413 c 17,0 20,-9 35,-3 -12,8 -19,5 -28,20 l -7,-13 c -12,6 -2,4 -14,9 -5,-13 -2,0 -7,-12 l -27,19 c -21,15 -13,3 -30,9 1,14 1,17 10,27 16,-2 26,-7 44,-7 25,-1 28,-2 48,-5 -9,-2 -10,-1 -17,-7 6,-8 2,-5 13,-10 2,9 12,27 43,15 -5,18 -15,17 -30,25 10,8 50,1 67,-20 7,-9 13,-17 20,-27 11,-15 19,-11 23,-27 -22,-38 -47,-26 -68,-22 -9,2 -68,-6 -75,29 z"
   id="path1-6"
   sodipodi:nodetypes="ccccccccccccccccccssssssssssccccccccscccccccccccccccccccccccccccccccccccccccccccccsccccccccccccccccccccccccccccccccccccccccccccccccccccccccccccccccccccccccccccccccccccccccccccccccccccccccccccccccccccccscccccccccccccccccsccccccccccccccccccccccccccccccsccccccccccccccccccccccccc"
   style="fill:#000000;stroke-width:43.6777" />
  
  
  
  
  
  
  
  
  
  
  
  
  
  
  
  
  
  
  
  
  
  
  
  
  
  
  
  
  
  
  
  
  
  
  
  
  
 </g></svg>
