<?xml version="1.0" encoding="UTF-8" standalone="no"?>
<svg
   xml:space="preserve"
   width="65"
   height="100"
   version="1.1"
   id="svg5"
   sodipodi:docname="human_contrabass_1.svg"
   inkscape:version="1.4 (e7c3feb1, 2024-10-09)"
   xmlns:inkscape="http://www.inkscape.org/namespaces/inkscape"
   xmlns:sodipodi="http://sodipodi.sourceforge.net/DTD/sodipodi-0.dtd"
   xmlns="http://www.w3.org/2000/svg"
   xmlns:svg="http://www.w3.org/2000/svg"><defs
   id="defs5">
        
    
        
        
    </defs><sodipodi:namedview
   id="namedview5"
   pagecolor="#ffffff"
   bordercolor="#000000"
   borderopacity="0.25"
   inkscape:showpageshadow="2"
   inkscape:pageopacity="0.0"
   inkscape:pagecheckerboard="0"
   inkscape:deskcolor="#d1d1d1"
   inkscape:current-layer="svg5" />
    
    
    
    
<g
   id="g10"
   transform="translate(1.6304011,1.404266)"><path
     d="m 19.796866,13.305558 -4.797,-2.992 4.668,2.895 2.341,-2.333 -3.05,-4.8240005 3.05,4.8240005 3.773,-1.3750005 -0.693,-6.193 0.853,6.2810004 3.058,0.107 1.544,-7.1350004 -1.55,7.0860004 3.093,1.4200001 3.678,-5.3640005 -3.553,5.3890005 m 2.523,4.407 c 1.23,4.308 -1.29,8.804 -5.629,10.042 -4.339,1.238 -8.852,-1.25 -10.081,-5.558 -3.076,-10.7740005 12.858,-14.4780005 15.709,-4.482"
     style="display:inline;fill:#ffffff;stroke:#000000;stroke-width:2.00001;stroke-linecap:round;stroke-linejoin:round;stroke-miterlimit:4.7;stroke-dasharray:none;stroke-opacity:1"
     id="path1" /><path
     d="m 28.832476,28.92882 15.109,5.11 10.303387,-10.264176"
     style="display:inline;fill:none;stroke:#000000;stroke-width:3.00001;stroke-linecap:round;stroke-linejoin:round;stroke-miterlimit:4.7;stroke-dasharray:none;stroke-opacity:1"
     id="path2"
     sodipodi:nodetypes="ccc" /><path
     d="M 48.837683,94.439566 43.719108,92.504817 42.798878,75.547306 31.451557,59.344184 19.861899,75.908242 l 0.09362,19.854372 -5.25826,0.671665 M 29.265602,30.287172 31.214131,60.06118"
     style="display:inline;fill:none;stroke:#000000;stroke-width:3.00001;stroke-linecap:round;stroke-linejoin:round;stroke-miterlimit:4.7;stroke-dasharray:none;stroke-opacity:1"
     id="path3"
     sodipodi:nodetypes="ccccccccc" /><g
     id="g9"
     transform="matrix(0.77412288,-0.25429954,0.25429954,0.77412288,-44.865801,38.869512)"
     style="stroke-width:1.22726"><path
       style="fill:#ffffff;stroke-width:122.726;stroke-linecap:round;stroke-linejoin:round;stroke-miterlimit:4.7"
       d="m 87.653587,26.199602 c -5.067643,0.07354 -9.81251,2.702343 -13.187168,6.38298 -0.881723,0.792689 -1.85308,1.698221 -1.549382,3.012029 0.22464,2.256936 -0.839562,4.358553 -2.344944,5.967032 -1.882946,2.055392 -4.489053,3.999759 -7.421237,3.713384 -1.035273,-0.28299 -1.903369,-1.165946 -3.072823,-0.904666 -6.250202,0.150586 -11.551762,4.103623 -15.962547,8.172878 -3.271759,2.833912 -5.045517,7.209715 -4.726551,11.520982 0.375873,6.106391 3.395501,11.790225 7.277429,16.397033 1.04689,1.129791 2.604024,0.226205 3.420932,-0.705203 2.819105,-2.708777 5.593575,-5.515156 7.598935,-8.902633 0.881607,-1.333271 1.759859,-2.668882 2.662476,-3.988083 1.644927,1.596818 3.254255,3.229715 4.876971,4.848969 -4.000775,2.786365 -8.376814,5.163205 -11.660068,8.845197 -0.947559,1.150074 -2.810275,2.281991 -2.403569,4.011988 0.739375,1.50784 2.417961,2.266483 3.688839,3.270902 5.07092,3.30645 11.276233,5.832065 17.411628,4.497404 4.132539,-0.729809 7.02919,-4.052747 9.612553,-7.083153 3.301905,-3.992732 6.092935,-8.950762 5.813786,-14.28937 -0.375289,-1.061684 -1.208966,-2.040788 -0.904319,-3.265372 0.627202,-3.437327 3.201345,-6.341176 6.248664,-7.925941 1.41563,-0.835105 3.0816,-0.628217 4.63087,-0.607317 1.24158,-0.481452 1.95799,-1.831134 2.956298,-2.70092 3.52165,-3.573443 5.56404,-8.593219 5.21643,-13.627378 -0.13259,-2.906559 -0.35269,-5.83524 -0.71993,-8.707894 -0.52207,-1.322686 -2.27034,-0.707933 -2.95093,0.178436 C 95.955332,40.35108 90.118466,46.763028 83.969242,52.86565 82.308816,51.314806 80.727515,49.682371 79.11647,48.080979 85.68017,41.67285 92.406072,35.423165 98.798922,28.844463 c 0.77117,-1.013479 -0.45244,-2.031542 -1.4633,-1.951065 -3.21547,-0.332815 -6.446824,-0.670828 -9.682035,-0.693796 z"
       id="path6"
       sodipodi:nodetypes="ccccccccccccccccccccccccccccccc" /><path
       style="fill:#ffffff;stroke-width:122.726;stroke-linecap:round;stroke-linejoin:round;stroke-miterlimit:4.7"
       d="m 60.171256,67.846805 c -1.328419,0.192862 -1.810279,1.704739 -2.571724,2.619865 -0.87113,1.408292 -1.957404,2.722442 -2.600473,4.251323 -0.108638,1.371923 1.709555,2.641497 2.850726,1.609529 2.045309,-1.288016 4.133348,-2.547769 6.006111,-4.078761 0.796795,-0.984168 -0.40406,-1.897956 -1.021168,-2.571054 -0.78591,-0.693692 -1.509834,-1.804994 -2.663472,-1.830902 z"
       id="path8" /><path
       style="fill:#ffffff;stroke-width:122.726;stroke-linecap:round;stroke-linejoin:round;stroke-miterlimit:4.7"
       d="M 122.49258,6.5313364 C 121.3346,6.7196836 120.71159,7.9201403 119.81926,8.5755968 107.00102,20.814079 94.222616,33.095934 81.580955,45.516909 c -0.671362,0.812502 -1.716683,1.421888 -2.077126,2.433802 -0.08574,1.159879 1.118035,1.87754 1.766432,2.686197 0.784555,0.759683 1.858667,2.097748 3.062184,1.344587 2.648127,-2.331379 4.985417,-5.001556 7.483526,-7.492516 10.964059,-11.366164 21.973139,-22.689862 32.873019,-34.11736 0.70209,-0.5230681 0.89819,-1.5922852 0.15918,-2.1767544 -0.68052,-0.6397087 -1.31733,-1.6656117 -2.35559,-1.6635282 z"
       id="path7" /><g
       id="g8"
       style="stroke-width:1.22726"><path
         d="m 67.005546,59.220165 5.514,5.515 -1.278,1.277 -5.514,-5.514 z m 70.660004,-59.92899969 -1.266,1.267 0.456,0.45599999 a 0.904,0.904 0 0 1 -0.639,1.543 c -0.503,-0.05 -0.755,-0.383 -1.095,-0.721 l -1.268,1.267 c -0.253,0.253 -0.59,0.393 -0.948,0.393 a 1.33,1.33 0 0 1 -0.83,-0.289 l -0.7,0.7 0.695,0.693 a 0.90368247,0.90368247 0 1 1 -1.278,1.278 l -0.694,-0.694 -0.987,0.988 0.694,0.693 a 0.90368247,0.90368247 0 1 1 -1.278,1.278 l -0.694,-0.694 -1.601,1.601 a 3.04,3.04 0 0 1 -0.849,1.9569997 l -19.917,20.637 0.91,10.418 a 19.07,19.07 0 0 1 -5.526,15.177 l -3.483004,3.482 c -4.028,-2.538 -9.05,3.043 -9.919,6.264 -0.408,1.258 -0.114,2.194 0.7,3.101 0.734,7.677 -3.884,14.117 -9.326,19.559999 -2.657,2.65701 -6.226,4.03501 -10.306,4.03501 -1.359,0 -2.774,-0.153 -4.232,-0.462 -5.327,-1.132 -10.848,-4.26601 -15.635,-8.853009 l -4.23,4.229999 c -0.836,0.834 -2.112,-0.442999 -1.278,-1.277999 l 4.23,-4.23 c -4.586,-4.786 -7.72,-10.307 -8.851,-15.634 -1.24,-5.833 0.03,-10.996 3.572,-14.538 5.372,-5.373 11.837,-10.067 19.561,-9.325 3.03,3.394 12.432,-4.35 9.366,-9.22 l 3.482,-3.482 a 19.07,19.07 0 0 1 15.176,-5.525 l 10.418004,0.909 20.637,-19.9169997 a 3.04,3.04 0 0 1 1.957,-0.85 l 0.567,-0.566 -0.67,-0.67 a 0.904,0.904 0 0 1 1.277,-1.279 l 0.67,0.671 0.988,-0.987 -0.67,-0.671 a 0.90332898,0.90332898 0 0 1 1.277,-1.27799999 l 0.67,0.67099999 1.734,-1.73299999 a 1.33,1.33 0 0 1 -0.289,-0.83000001 c 0,-0.358 0.14,-0.695 0.393,-0.949 l 1.267,-1.267 -0.456,-0.456 a 0.90368247,0.90368247 0 0 1 1.278,-1.278 l 0.456,0.456 1.267,-1.267 a 1.34,1.34 0 0 1 1.897,10e-4 l 3.32,3.32 a 1.344,1.344 0 0 1 0,1.89700001 M 49.697546,82.865165 l 5.674,-5.675 -0.824,-0.824 -5.674,5.675 c 0.263,0.286 0.546,0.552 0.824,0.824 m 54.878004,-40.646 -0.773,-8.852 -20.159004,20.887 -6.159,-6.159 20.887,-20.158 -8.851,-0.773 a 17.26,17.26 0 0 0 -13.741,5.004 l -2.519,2.518 c 2.107,5.665 -8.056,14.595 -12.451,10.644 -5.384,-0.386 -11.093,2.517 -17.44,8.863 -3.094,3.095 -4.19,7.671 -3.082,12.885 0.977,4.596 3.56,9.37 7.352,13.64 l 6.206,-6.204 6.01,-9.052 6.42,6.42 -9.051,6.01 -6.205,6.206 c 4.27,3.792 9.045,6.376999 13.64,7.353009 5.214,1.106 9.79,0.012 12.885,-3.083009 6.346,-6.346 9.25,-12.054 8.866,-17.438 -3.882,-4.311 4.875,-14.6 10.644,-12.451 l 2.518,-2.519 a 17.27,17.27 0 0 0 5.003004,-13.74 m -47.810004,33.81 6.672,-4.43 -3.298,-3.298 -4.43,6.672 z m 67.652004,-66.9739997 -1.734,-1.735 c -0.26,0.034 -0.504,0.15 -0.696,0.335 l -41.924004,40.4619997 3.558,3.558 40.461004,-41.9249997 c 0.186,-0.192 0.301,-0.437 0.335,-0.696 m 6.373,-7.12 -0.988,-0.98699999 -5.468,5.46899999 0.988,0.987 z m 5.267,-3.592 -2.66,-2.662 -3.154,3.153 2.661,2.662 z M 74.949546,46.156165 a 2.893,2.893 0 0 0 -4.086,0 l -7.63,7.63 a 1.083,1.083 0 0 1 -1.531,0 c -0.573,-0.822 -0.17,-1.335 0.42,-1.947 a 0.903,0.903 0 0 0 0,-1.277 l -0.395,-0.394 a 0.904,0.904 0 0 0 -1.47,0.995 2.888,2.888 0 0 0 4.253,3.901 l 7.63,-7.63 a 1.083,1.083 0 0 1 1.531,0 c 0.573,0.822 0.17,1.335 -0.42,1.947 a 0.903,0.903 0 0 0 0,1.277 l 0.395,0.394 a 0.903,0.903 0 0 0 1.47,-0.994 2.89,2.89 0 0 0 -0.167,-3.902 m 6.733,10.467 a 0.904,0.904 0 0 0 -0.995,1.47 l 0.394,0.394 c 0.17,0.169 0.4,0.264 0.64,0.264 0.488,-0.042 0.725,-0.362 1.057,-0.684 a 1.0811672,1.0811672 0 1 1 1.527,1.531 l -7.63,7.63 a 2.893,2.893 0 0 0 0,4.087 2.88,2.88 0 0 0 2.041,0.844 c 0.663,0 1.325,-0.226 1.86,-0.678 a 0.903,0.903 0 0 0 0.995,-1.47 l -0.394,-0.394 a 0.904,0.904 0 0 0 -1.278,0 l -0.42,0.42 a 1.081,1.081 0 0 1 -1.526,-1.531 l 7.63,-7.63 a 2.893,2.893 0 0 0 0,-4.087 2.89,2.89 0 0 0 -3.9,-0.166"
         style="stroke-width:0.200533"
         id="path1-2" /></g></g><path
     d="m 35.769612,46.8147 -17.055596,-3.618299 9.876999,-14.091"
     style="display:inline;fill:none;stroke:#000000;stroke-width:3.00001;stroke-linecap:round;stroke-linejoin:round;stroke-miterlimit:4.7;stroke-dasharray:none;stroke-opacity:1"
     id="path9"
     sodipodi:nodetypes="ccc" /></g></svg>
