<svg xmlns="http://www.w3.org/2000/svg" xml:space="preserve" width="100" height="100"><path d="m57.9 30.23 12.31 22.007" style="display:inline;fill:none;stroke:#000;stroke-width:3;stroke-linecap:round;stroke-linejoin:round;stroke-miterlimit:4.7;stroke-dasharray:none;stroke-opacity:1"/><g style="display:inline;stroke-width:1.83867;stroke-dasharray:none"><path d="M54.239 36.293 48.18 57.216" style="fill:none;stroke:#000;stroke-width:3.00001;stroke-linecap:round;stroke-linejoin:round;stroke-miterlimit:4.7;stroke-dasharray:none;stroke-opacity:1"/><path d="m70.473 93.512-5.526-1.268 2.195-19.91-18.994-15.709-21.686 15.572 2.461 20.962H22.73" style="display:inline;fill:none;stroke:#000;stroke-width:3.00001;stroke-linecap:round;stroke-linejoin:round;stroke-miterlimit:4.7;stroke-dasharray:none;stroke-opacity:1"/><path d="m49.199 14.613-2.15-6.65 4.781 3.478.196-6.49 4.308 5.014 2.34-5.972 1.03 7.047 4.42-6.266-.802 7.177 4.96-2.723-3.979 6.52m.301 2.617c0 4.48-3.657 8.112-8.169 8.112s-8.169-3.632-8.169-8.112 3.723-7.652 8.235-7.652 8.103 3.173 8.103 7.652" style="display:inline;fill:none;stroke:#000;stroke-width:2;stroke-linecap:round;stroke-linejoin:round;stroke-miterlimit:4.7;stroke-dasharray:none;stroke-opacity:1"/></g><g style="display:inline;stroke-width:.545234"><path d="M57.987 68.13a1.33 1.33 0 0 1-.923-.368L34.616 46.228a1.21 1.21 0 0 1-.32-1.27c.15-.45.545-.777 1.03-.854l18.649-2.969.027-.004 6.886-1.096 8.22-7.886a1.54 1.54 0 0 1-.015-2.091l.475-.525-.66-.634a.42.42 0 0 1 0-.612.465.465 0 0 1 .638 0l.614.59.963-1.066-.702-.674a.42.42 0 0 1 0-.612.465.465 0 0 1 .638 0l.657.63.963-1.065-.716-.687a.42.42 0 0 1 0-.612.465.465 0 0 1 .638 0l.67.643.027-.03a2.33 2.33 0 0 1 1.64-.753 2.32 2.32 0 0 1 1.691.639l2.262 2.17a2.14 2.14 0 0 1 .666 1.621 2.16 2.16 0 0 1-.785 1.573l-4.852 4.034c-.626.52-1.565.51-2.178-.013-3.725 2.668-8.647 8.088-8.647 8.088s-1.112 8.9-2.005 13.844L59.278 67.08c-.08.466-.421.845-.89.989q-.199.06-.401.06" style="display:inline;fill:#fff;stroke:none;stroke-width:.545234;stroke-linecap:square;stroke-linejoin:round;stroke-miterlimit:4.7;stroke-opacity:1" transform="matrix(1.83407 0 0 1.83407 -54.1 -31.36)"/><path d="M57.987 68.13a1.33 1.33 0 0 1-.923-.368L34.616 46.228a1.21 1.21 0 0 1-.32-1.27c.15-.45.545-.777 1.03-.854l18.649-2.969.027-.004 6.886-1.096 8.22-7.886a1.54 1.54 0 0 1-.015-2.091l.475-.525-.66-.634a.42.42 0 0 1 0-.612.465.465 0 0 1 .638 0l.614.59.963-1.066-.702-.674a.42.42 0 0 1 0-.612.465.465 0 0 1 .638 0l.657.63.963-1.065-.716-.687a.42.42 0 0 1 0-.612.465.465 0 0 1 .638 0l.67.643.027-.03a2.33 2.33 0 0 1 1.64-.753 2.32 2.32 0 0 1 1.691.639l2.262 2.17a2.14 2.14 0 0 1 .666 1.621 2.16 2.16 0 0 1-.785 1.573l-4.852 4.034c-.626.52-1.565.51-2.178-.013l-8.223 7.889-2.425 14.022-.004.02-1.812 10.475c-.08.466-.421.845-.89.989q-.199.06-.401.06m-4.209-26.086-18.304 2.914a.39.39 0 0 0-.32.264.37.37 0 0 0 .1.394L57.702 67.15c.158.151.34.118.41.095a.39.39 0 0 0 .276-.306l1.792-10.36-3.35-7.599-1.749 1.678a2.47 2.47 0 0 1-.77 1.788 2.7 2.7 0 0 1-1.865.74l-1.442 1.383 2.213 2.124a.42.42 0 0 1 0 .612.465.465 0 0 1-.638 0l-2.527-2.425-.005-.005-.005-.005-.987-.947-.006-.006-.006-.005-3.525-3.382a.42.42 0 0 1 0-.611.465.465 0 0 1 .638 0l2.22 2.13 1.435-1.378a2.47 2.47 0 0 1 .771-1.8 2.7 2.7 0 0 1 1.878-.74l2.16-2.073a.4.4 0 0 1 .051-.059l.542-.519zm3.741 6.275 2.937 6.663 1.967-11.366zm-7.513 5.292.36.346 1.024-.982a2.7 2.7 0 0 1-.462-.249zm-.993-.951.354.339.923-.885a2.5 2.5 0 0 1-.256-.434Zm2.568-.56q.25.136.524.188l2.042-1.958a1.6 1.6 0 0 0-.197-.503Zm-.832-1.105a1.6 1.6 0 0 0 .194.493l2.369-2.273a1.8 1.8 0 0 0-.513-.187zm3.853-1.794q.155.212.26.443l1.486-1.425-.361-.346zm-1.09-.857q.236.1.452.246l1.385-1.329-.354-.34zm3.113-1.083.36.344L71.42 33.758l.035-.031 1.561-1.498a.465.465 0 0 1 .638 0 .42.42 0 0 1 0 .612l-1.271 1.22a.78.78 0 0 0 .946-.027L78.181 30a1.285 1.285 0 0 0 .072-1.929l-2.262-2.17a1.4 1.4 0 0 0-1.021-.385 1.4 1.4 0 0 0-.99.454l-4.205 4.655a.7.7 0 0 0-.022.915l4.623-4.434a.465.465 0 0 1 .638 0 .42.42 0 0 1 0 .612L55.633 46.31l.354.34 17.705-16.986a.465.465 0 0 1 .638 0 .42.42 0 0 1 0 .612zM54.69 41.9l1.217 2.915 3.884-3.727z" style="display:inline;stroke-width:.545234" transform="matrix(1.83407 0 0 1.83407 -54.1 -31.36)"/></g><path d="m70.209 52.237-1.515-16.823M42.088 48.795l-13.403-9.814L57.9 30.23" style="display:inline;fill:none;stroke:#000;stroke-width:3.00001;stroke-linecap:round;stroke-linejoin:round;stroke-miterlimit:4.7;stroke-dasharray:none;stroke-opacity:1"/></svg>