<?xml version="1.0" encoding="UTF-8" standalone="no"?>
<svg
   xml:space="preserve"
   width="100"
   height="100"
   version="1.1"
   id="svg7"
   sodipodi:docname="human_balalaika_bass.svg"
   inkscape:version="1.3.2 (091e20e, 2023-11-25)"
   xmlns:inkscape="http://www.inkscape.org/namespaces/inkscape"
   xmlns:sodipodi="http://sodipodi.sourceforge.net/DTD/sodipodi-0.dtd"
   xmlns="http://www.w3.org/2000/svg"
   xmlns:svg="http://www.w3.org/2000/svg"><defs
     id="defs7" /><sodipodi:namedview
     id="namedview7"
     pagecolor="#ffffff"
     bordercolor="#000000"
     borderopacity="0.25"
     inkscape:showpageshadow="2"
     inkscape:pageopacity="0.0"
     inkscape:pagecheckerboard="0"
     inkscape:deskcolor="#d1d1d1"
     inkscape:current-layer="path11" /><path
     d="m57.9 30.23 12.31 22.007"
     style="display:inline;fill:none;stroke:#000;stroke-width:3;stroke-linecap:round;stroke-linejoin:round;stroke-miterlimit:4.7;stroke-dasharray:none;stroke-opacity:1"
     id="path1" /><path
     d="M 54.239,36.293 48.18,57.216"
     style="fill:none;stroke:#000000;stroke-width:3.00001;stroke-linecap:round;stroke-linejoin:round;stroke-miterlimit:4.7;stroke-dasharray:none;stroke-opacity:1"
     id="path2" /><path
     d="M 70.473,93.512 64.947,92.244 67.142,72.334 48.148,56.625 26.462,72.197 28.923,93.159 H 22.73"
     style="display:inline;fill:none;stroke:#000000;stroke-width:3.00001;stroke-linecap:round;stroke-linejoin:round;stroke-miterlimit:4.7;stroke-dasharray:none;stroke-opacity:1"
     id="path3" /><g
     id="g11"
     transform="translate(0.23488291,-0.46976583)"><path
       d="m 64.79657,15.059158 c 0,4.65655 -3.351861,8.431681 -7.487381,8.431681 -4.135519,0 -7.48738,-3.775131 -7.48738,-8.431681 0,-4.656549 3.412353,-7.9535521 7.547873,-7.9535521 4.13552,0 7.426888,3.2980421 7.426888,7.9535521"
       style="display:inline;fill:#ffffff;stroke:#000000;stroke-width:1.95211;stroke-linecap:round;stroke-linejoin:round;stroke-miterlimit:4.7;stroke-dasharray:none;stroke-opacity:1"
       id="path4"
       sodipodi:nodetypes="csssc" /><path
       id="path8"
       style="display:inline;fill:#000000;stroke:#000000;stroke-width:2.07343;stroke-linecap:round;stroke-linejoin:round;stroke-miterlimit:5"
       d="m 64.204359,21.330216 c 0.14704,4.167302 -2.450011,5.610862 -7.07571,5.610863 -4.6257,-10e-7 -7.35141,-1.646183 -6.326776,-6.181765 0.627042,-2.775624 -0.07875,1.140464 6.766655,1.05831 6.057751,-0.07271 6.485417,-4.750335 6.635831,-0.487408 z"
       sodipodi:nodetypes="sssss" /></g><g
     style="display:inline;stroke-width:.545234"
     id="g6"><path
       d="M57.987 68.13a1.33 1.33 0 0 1-.923-.368L34.616 46.228a1.21 1.21 0 0 1-.32-1.27c.15-.45.545-.777 1.03-.854l18.649-2.969.027-.004 6.886-1.096 8.22-7.886a1.54 1.54 0 0 1-.015-2.091l.475-.525-.66-.634a.42.42 0 0 1 0-.612.465.465 0 0 1 .638 0l.614.59.963-1.066-.702-.674a.42.42 0 0 1 0-.612.465.465 0 0 1 .638 0l.657.63.963-1.065-.716-.687a.42.42 0 0 1 0-.612.465.465 0 0 1 .638 0l.67.643.027-.03a2.33 2.33 0 0 1 1.64-.753 2.32 2.32 0 0 1 1.691.639l2.262 2.17a2.14 2.14 0 0 1 .666 1.621 2.16 2.16 0 0 1-.785 1.573l-4.852 4.034c-.626.52-1.565.51-2.178-.013-3.725 2.668-8.647 8.088-8.647 8.088s-1.112 8.9-2.005 13.844L59.278 67.08c-.08.466-.421.845-.89.989q-.199.06-.401.06"
       style="display:inline;fill:#fff;stroke:none;stroke-width:.545234;stroke-linecap:square;stroke-linejoin:round;stroke-miterlimit:4.7;stroke-opacity:1"
       transform="translate(-54.1 -31.36)scale(1.83407)"
       id="path5" /><path
       d="M57.987 68.13a1.33 1.33 0 0 1-.923-.368L34.616 46.228a1.21 1.21 0 0 1-.32-1.27c.15-.45.545-.777 1.03-.854l18.649-2.969.027-.004 6.886-1.096 8.22-7.886a1.54 1.54 0 0 1-.015-2.091l.475-.525-.66-.634a.42.42 0 0 1 0-.612.465.465 0 0 1 .638 0l.614.59.963-1.066-.702-.674a.42.42 0 0 1 0-.612.465.465 0 0 1 .638 0l.657.63.963-1.065-.716-.687a.42.42 0 0 1 0-.612.465.465 0 0 1 .638 0l.67.643.027-.03a2.33 2.33 0 0 1 1.64-.753 2.32 2.32 0 0 1 1.691.639l2.262 2.17a2.14 2.14 0 0 1 .666 1.621 2.16 2.16 0 0 1-.785 1.573l-4.852 4.034c-.626.52-1.565.51-2.178-.013l-8.223 7.889-2.425 14.022-.004.02-1.812 10.475c-.08.466-.421.845-.89.989q-.199.06-.401.06m-4.209-26.086-18.304 2.914a.39.39 0 0 0-.32.264.37.37 0 0 0 .1.394L57.702 67.15c.158.151.34.118.41.095a.39.39 0 0 0 .276-.306l1.792-10.36-3.35-7.599-1.749 1.678a2.47 2.47 0 0 1-.77 1.788 2.7 2.7 0 0 1-1.865.74l-1.442 1.383 2.213 2.124a.42.42 0 0 1 0 .612.465.465 0 0 1-.638 0l-2.527-2.425-.005-.005-.005-.005-.987-.947-.006-.006-.006-.005-3.525-3.382a.42.42 0 0 1 0-.611.465.465 0 0 1 .638 0l2.22 2.13 1.435-1.378a2.47 2.47 0 0 1 .771-1.8 2.7 2.7 0 0 1 1.878-.74l2.16-2.073a.4.4 0 0 1 .051-.059l.542-.519zm3.741 6.275 2.937 6.663 1.967-11.366zm-7.513 5.292.36.346 1.024-.982a2.7 2.7 0 0 1-.462-.249zm-.993-.951.354.339.923-.885a2.5 2.5 0 0 1-.256-.434Zm2.568-.56q.25.136.524.188l2.042-1.958a1.6 1.6 0 0 0-.197-.503Zm-.832-1.105a1.6 1.6 0 0 0 .194.493l2.369-2.273a1.8 1.8 0 0 0-.513-.187zm3.853-1.794q.155.212.26.443l1.486-1.425-.361-.346zm-1.09-.857q.236.1.452.246l1.385-1.329-.354-.34zm3.113-1.083.36.344L71.42 33.758l.035-.031 1.561-1.498a.465.465 0 0 1 .638 0 .42.42 0 0 1 0 .612l-1.271 1.22a.78.78 0 0 0 .946-.027L78.181 30a1.285 1.285 0 0 0 .072-1.929l-2.262-2.17a1.4 1.4 0 0 0-1.021-.385 1.4 1.4 0 0 0-.99.454l-4.205 4.655a.7.7 0 0 0-.022.915l4.623-4.434a.465.465 0 0 1 .638 0 .42.42 0 0 1 0 .612L55.633 46.31l.354.34 17.705-16.986a.465.465 0 0 1 .638 0 .42.42 0 0 1 0 .612zM54.69 41.9l1.217 2.915 3.884-3.727z"
       style="display:inline;stroke-width:.545234"
       transform="translate(-54.1 -31.36)scale(1.83407)"
       id="path6" /></g><path
     d="m70.209 52.237-1.515-16.823M42.088 48.795l-13.403-9.814L57.9 30.23"
     style="display:inline;fill:none;stroke:#000;stroke-width:3.00001;stroke-linecap:round;stroke-linejoin:round;stroke-miterlimit:4.7;stroke-dasharray:none;stroke-opacity:1"
     id="path7" /><g
     id="path11"><path
       style="color:#000000;fill:#000000;stroke-linecap:round;stroke-linejoin:round;stroke-miterlimit:5;-inkscape-stroke:none"
       d="m 52.037763,18.802208 c -0.493336,1.176136 4.477119,0.361467 5.911279,0.247343 l 5.541206,0.792257 c 2.782416,0.240883 -4.546912,-3.389589 -5.622294,-3.216908 -1.208102,-0.10228 -4.665657,1.850874 -5.830191,2.177308 z"
       id="path14"
       sodipodi:nodetypes="ccccc" /></g></svg>
