<?xml version="1.0" encoding="UTF-8" standalone="no"?>
<svg
   xml:space="preserve"
   width="100"
   height="75"
   version="1.1"
   id="svg7"
   sodipodi:docname="human_harpsichord_1.svg"
   inkscape:version="1.3.2 (091e20e, 2023-11-25)"
   xmlns:inkscape="http://www.inkscape.org/namespaces/inkscape"
   xmlns:sodipodi="http://sodipodi.sourceforge.net/DTD/sodipodi-0.dtd"
   xmlns="http://www.w3.org/2000/svg"
   xmlns:svg="http://www.w3.org/2000/svg"><defs
     id="defs7" /><sodipodi:namedview
     id="namedview7"
     pagecolor="#ffffff"
     bordercolor="#000000"
     borderopacity="0.25"
     inkscape:showpageshadow="2"
     inkscape:pageopacity="0.0"
     inkscape:pagecheckerboard="0"
     inkscape:deskcolor="#d1d1d1"
     inkscape:current-layer="svg7" /><path
     id="path111"
     style="fill:none;stroke:#000000;stroke-width:0.999999;stroke-linecap:round;stroke-linejoin:round;stroke-miterlimit:4.7;stroke-dasharray:none"
     d="m 30.575411,10.891774 v 27.677585 l 9.81932,-0.01389 -0.01812,-27.663691 z m 13.034816,4.913049 0.01533,22.747863 50.59633,-0.06531 -2.924191,-3.927939 c -0.49681,-0.216552 -1.482328,-0.538463 -2.93952,-0.87117 C 86.767702,33.32513 84.750174,32.93138 82.461007,32.479457 77.882675,31.575611 72.21483,30.438733 66.524299,28.784944 60.833768,27.131154 55.114793,24.968908 50.391064,21.93363 47.725767,20.221017 45.424349,18.169278 43.610227,15.804823 Z M 30.781694,42.677925 v 4.881092 h 9.713391 l 0.0014,-4.881092 z m 12.945614,0 -0.0014,4.881092 H 90.742957 L 90.7318,42.677925 Z m 50.235337,0 0.01116,4.881092 h 1.809152 v -4.881092 z m -7.106491,6.487118 h 0.838567 c 0.244758,0 0.4418,0.03022 0.4418,0.06775 l -0.08364,3.744528 c 0,0 0.977769,0.807032 -0.03913,1.751628 l -0.07259,3.249956 c 0,0 1.055881,0.667455 -0.03034,1.358623 l -0.202403,9.061244 -0.01368,-0.0058 h -0.838567 l -0.01368,0.0058 -0.201483,-9.020082 c -0.905823,-0.765576 -0.03114,-1.393925 -0.03114,-1.393925 l -0.07147,-3.199442 c -1.063358,-1.020769 -0.04036,-1.806829 -0.04036,-1.806829 l -0.08367,-3.7457 c -8.57e-4,-0.03753 0.197042,-0.06775 0.4418,-0.06775 z m -48.32357,0 h 0.838568 c 0.244757,0 0.4418,0.03022 0.4418,0.06775 l -0.08364,3.744528 c 0,0 0.97777,0.807032 -0.03913,1.751628 l -0.07259,3.249956 c 0,0 1.055883,0.667455 -0.03036,1.358623 l -0.202402,9.061244 -0.01368,-0.0058 h -0.838567 l -0.01368,0.0058 -0.201483,-9.020082 c -0.905823,-0.765576 -0.03114,-1.393925 -0.03114,-1.393925 l -0.07147,-3.199442 c -1.063357,-1.020769 -0.04036,-1.806829 -0.04036,-1.806829 l -0.08367,-3.7457 c -8.56e-4,-0.03753 0.197043,-0.06775 0.4418,-0.06775 z m 3.478449,-9.225636 -0.02079,-30.64277 M 28.959807,40.180782 V 9.280997 h 13.042137 c 5.230367,18.88625 44.603885,21.025751 50.299175,23.922415 l 5.129907,6.890695 z m 13.152572,1.03646 -0.0022,7.842935 m 50.233286,-7.89506 0.01963,7.89506 M 29.607857,41.067091 h 67.348464 c 0.244759,0 0.441801,0.03022 0.441801,0.06775 v 7.966572 c 0,0.03753 -0.197042,0.06775 -0.441801,0.06775 H 29.607857 c -0.244758,0 -0.441801,-0.03022 -0.441801,-0.06775 v -7.966571 c 0,-0.03753 0.197043,-0.06775 0.441801,-0.06775 z"
     inkscape:label="cembalo" /><g
     id="g111"
     inkscape:label="player"
     transform="translate(10.763784,-12.825769)"><g
       style="display:inline;stroke-width:1.83867;stroke-dasharray:none"
       id="g3"
       transform="translate(-45.444633,-0.0670052)"><path
         d="M 44.52384,27.836263 45.432,41.812"
         style="fill:none;stroke:#000000;stroke-width:1.83867;stroke-linecap:round;stroke-linejoin:round;stroke-miterlimit:4.7;stroke-dasharray:none;stroke-opacity:1"
         transform="matrix(1.63742,0,0,1.62584,-22.934,-6.417)"
         id="path2"
         sodipodi:nodetypes="cc" /><path
         d="m 56.654613,54.183581 -3.662482,-0.491022 -1.048127,-10.095018 -6.482115,-1.723667 6.545563,1.69502 -7.216476,10.068947 2.815154,0.700164"
         style="display:inline;fill:none;stroke:#000000;stroke-width:1.83867;stroke-linecap:round;stroke-linejoin:round;stroke-miterlimit:4.7;stroke-dasharray:none;stroke-opacity:1"
         transform="matrix(1.63742,0,0,1.62584,-22.934,-6.417)"
         id="path3"
         sodipodi:nodetypes="ccccccc" /></g><circle
       style="fill:#ffffff;fill-opacity:1;stroke:#000000;stroke-width:2;stroke-linecap:round;stroke-linejoin:round;stroke-miterlimit:4.7;stroke-dasharray:none;stroke-opacity:1"
       id="path117"
       cx="3.8100319"
       cy="27.973402"
       r="6.8011141" /></g><path
     style="fill:none;fill-opacity:1;stroke:#000000;stroke-width:3;stroke-linecap:round;stroke-linejoin:round;stroke-miterlimit:4.7;stroke-dasharray:none;stroke-opacity:1"
     d="m 28.742464,41.188857 -9.131977,-5.972185 -3.954074,-9.488523 3.947005,9.509904 10.633416,1.676592"
     id="path112"
     sodipodi:nodetypes="ccccc" /><path
     style="fill:none;fill-opacity:1;stroke:#000000;stroke-width:3;stroke-linecap:round;stroke-linejoin:round;stroke-miterlimit:4.7;stroke-dasharray:none;stroke-opacity:1"
     d="M 9.8332715,51.681211 C 28.365206,51.303008 28.365206,51.303008 28.365206,51.303008"
     id="path113" /><path
     style="fill:none;fill-opacity:1;stroke:#000000;stroke-width:3;stroke-linecap:round;stroke-linejoin:round;stroke-miterlimit:4.7;stroke-dasharray:none;stroke-opacity:1"
     d="m 12.11687,51.724839 v 16.29798"
     id="path114"
     sodipodi:nodetypes="cc" /><circle
     style="fill:#ffffff;fill-opacity:1;stroke:#000000;stroke-width:2;stroke-linecap:round;stroke-linejoin:round;stroke-miterlimit:4.7;stroke-dasharray:none;stroke-opacity:1"
     id="path118"
     cx="7.6339035"
     cy="7.5137272"
     r="2.3595703" /></svg>
