<?xml version="1.0" encoding="UTF-8" standalone="no"?>
<svg
   xml:space="preserve"
   width="55"
   height="85"
   version="1.1"
   id="svg7"
   sodipodi:docname="human_balalaika_1.svg"
   inkscape:version="1.3.2 (091e20e, 2023-11-25)"
   xmlns:inkscape="http://www.inkscape.org/namespaces/inkscape"
   xmlns:sodipodi="http://sodipodi.sourceforge.net/DTD/sodipodi-0.dtd"
   xmlns="http://www.w3.org/2000/svg"
   xmlns:svg="http://www.w3.org/2000/svg"><defs
     id="defs7" /><sodipodi:namedview
     id="namedview7"
     pagecolor="#ffffff"
     bordercolor="#000000"
     borderopacity="0.25"
     inkscape:showpageshadow="2"
     inkscape:pageopacity="0.0"
     inkscape:pagecheckerboard="0"
     inkscape:deskcolor="#d1d1d1"
     inkscape:current-layer="svg7" /><g
     id="g1"
     transform="translate(1.6998219,0.75543449)"><path
       id="path3"
       style="display:inline;fill:none;stroke:#000000;stroke-width:3.00001;stroke-linecap:round;stroke-linejoin:round;stroke-miterlimit:4.7;stroke-dasharray:none;stroke-opacity:1"
       d="M 47.292766,81.837385 41.766473,80.56923 43.289521,60.659193 23.111347,51.84714 8.3276782,61.195355 11.966001,81.148213 6.4443734,81.989126 M 29.058457,30.618548 23.000003,51.541483 m 7.719922,-24.986277 12.31,22.007" /><path
       d="m 30.023925,65.253206 a 1.33,1.33 0 0 1 -0.923,-0.368 l -22.4480002,-21.534 a 1.21,1.21 0 0 1 -0.32,-1.27 c 0.15,-0.45 0.545,-0.777 1.03,-0.854 l 18.6490002,-2.969 0.027,-0.004 6.886,-1.096 8.22,-7.886 a 1.54,1.54 0 0 1 -0.015,-2.091 l 0.475,-0.525 -0.66,-0.634 a 0.42,0.42 0 0 1 0,-0.612 0.465,0.465 0 0 1 0.638,0 l 0.614,0.59 0.963,-1.066 -0.702,-0.674 a 0.42,0.42 0 0 1 0,-0.612 0.465,0.465 0 0 1 0.638,0 l 0.657,0.63 0.963,-1.065 -0.716,-0.687 a 0.42,0.42 0 0 1 0,-0.612 0.465,0.465 0 0 1 0.638,0 l 0.67,0.643 0.027,-0.03 a 2.33,2.33 0 0 1 1.64,-0.753 2.32,2.32 0 0 1 1.691,0.639 l 2.262,2.17 a 2.14,2.14 0 0 1 0.666,1.621 2.16,2.16 0 0 1 -0.785,1.573 l -4.852,4.034 c -0.626,0.52 -1.565,0.51 -2.178,-0.013 -3.725,2.668 -8.647,8.088 -8.647,8.088 0,0 -1.112,8.9 -2.005,13.844 l -1.812,10.473 c -0.08,0.466 -0.421,0.845 -0.89,0.989 q -0.199,0.06 -0.401,0.06"
       style="display:inline;fill:#ffffff;stroke:none;stroke-width:1;stroke-linecap:square;stroke-linejoin:round;stroke-miterlimit:4.7;stroke-opacity:1"
       id="path5"
       inkscape:label="fill" /><path
       d="m 30.023925,65.253206 a 1.33,1.33 0 0 1 -0.923,-0.368 l -22.4480002,-21.534 a 1.21,1.21 0 0 1 -0.32,-1.27 c 0.15,-0.45 0.545,-0.777 1.03,-0.854 l 18.6490002,-2.969 0.027,-0.004 6.886,-1.096 8.22,-7.886 a 1.54,1.54 0 0 1 -0.015,-2.091 l 0.475,-0.525 -0.66,-0.634 a 0.42,0.42 0 0 1 0,-0.612 0.465,0.465 0 0 1 0.638,0 l 0.614,0.59 0.963,-1.066 -0.702,-0.674 a 0.42,0.42 0 0 1 0,-0.612 0.465,0.465 0 0 1 0.638,0 l 0.657,0.63 0.963,-1.065 -0.716,-0.687 a 0.42,0.42 0 0 1 0,-0.612 0.465,0.465 0 0 1 0.638,0 l 0.67,0.643 0.027,-0.03 a 2.33,2.33 0 0 1 1.64,-0.753 2.32,2.32 0 0 1 1.691,0.639 l 2.262,2.17 a 2.14,2.14 0 0 1 0.666,1.621 2.16,2.16 0 0 1 -0.785,1.573 l -4.852,4.034 c -0.626,0.52 -1.565,0.51 -2.178,-0.013 l -8.223,7.889 -2.425,14.022 -0.004,0.02 -1.812,10.475 c -0.08,0.466 -0.421,0.845 -0.89,0.989 q -0.199,0.06 -0.401,0.06 m -4.209,-26.086 -18.3040002,2.914 a 0.39,0.39 0 0 0 -0.32,0.264 0.37,0.37 0 0 0 0.1,0.394 l 22.4480002,21.534 c 0.158,0.151 0.34,0.118 0.41,0.095 a 0.39,0.39 0 0 0 0.276,-0.306 l 1.792,-10.36 -3.35,-7.599 -1.749,1.678 a 2.47,2.47 0 0 1 -0.77,1.788 2.7,2.7 0 0 1 -1.865,0.74 l -1.442,1.383 2.213,2.124 a 0.42,0.42 0 0 1 0,0.612 0.465,0.465 0 0 1 -0.638,0 l -2.527,-2.425 -0.005,-0.005 -0.005,-0.005 -0.987,-0.947 -0.006,-0.006 -0.006,-0.005 -3.525,-3.382 a 0.42,0.42 0 0 1 0,-0.611 0.465,0.465 0 0 1 0.638,0 l 2.22,2.13 1.435,-1.378 a 2.47,2.47 0 0 1 0.771,-1.8 2.7,2.7 0 0 1 1.878,-0.74 l 2.16,-2.073 a 0.4,0.4 0 0 1 0.051,-0.059 l 0.542,-0.519 z m 3.741,6.275 2.937,6.663 1.967,-11.366 z m -7.513,5.292 0.36,0.346 1.024,-0.982 a 2.7,2.7 0 0 1 -0.462,-0.249 z m -0.993,-0.951 0.354,0.339 0.923,-0.885 a 2.5,2.5 0 0 1 -0.256,-0.434 z m 2.568,-0.56 q 0.25,0.136 0.524,0.188 l 2.042,-1.958 a 1.6,1.6 0 0 0 -0.197,-0.503 z m -0.832,-1.105 a 1.6,1.6 0 0 0 0.194,0.493 l 2.369,-2.273 a 1.8,1.8 0 0 0 -0.513,-0.187 z m 3.853,-1.794 q 0.155,0.212 0.26,0.443 l 1.486,-1.425 -0.361,-0.346 z m -1.09,-0.857 q 0.236,0.1 0.452,0.246 l 1.385,-1.329 -0.354,-0.34 z m 3.113,-1.083 0.36,0.344 14.435,-13.847 0.035,-0.031 1.561,-1.498 a 0.465,0.465 0 0 1 0.638,0 0.42,0.42 0 0 1 0,0.612 l -1.271,1.22 a 0.78,0.78 0 0 0 0.946,-0.027 l 4.852,-4.034 a 1.285,1.285 0 0 0 0.072,-1.929 l -2.262,-2.17 a 1.4,1.4 0 0 0 -1.021,-0.385 1.4,1.4 0 0 0 -0.99,0.454 l -4.205,4.655 a 0.7,0.7 0 0 0 -0.022,0.915 l 4.623,-4.434 a 0.465,0.465 0 0 1 0.638,0 0.42,0.42 0 0 1 0,0.612 l -19.381,18.592 0.354,0.34 17.705,-16.986 a 0.465,0.465 0 0 1 0.638,0 0.42,0.42 0 0 1 0,0.612 z m -1.935,-5.361 1.217,2.915 3.884,-3.727 z"
       style="display:inline;stroke-width:1"
       id="path6"
       inkscape:label="balalaika" /><path
       d="M 43.028491,48.562107 41.513877,31.73954 M 14.90744,45.120204 1.5051568,35.306633 30.720004,26.554737"
       style="display:inline;fill:none;stroke:#000000;stroke-width:3.00001;stroke-linecap:round;stroke-linejoin:round;stroke-miterlimit:4.7;stroke-dasharray:none;stroke-opacity:1"
       id="path7" /><g
       id="g18"
       inkscape:label="head"
       transform="translate(-25.833187,-8.2869313)"><path
         id="path18"
         style="fill:none;fill-rule:evenodd;stroke:#000000"
         transform="rotate(55.114306,61.426741,12.847554)"
         d="m 62.131599,11.669935 c 0.06501,0.251923 -0.307512,0.211926 -0.418713,0.108055 -0.301346,-0.281482 -0.09516,-0.758499 0.202603,-0.945481 0.532624,-0.334465 1.212033,-0.0098 1.472249,0.513261 0.381878,0.767567 -0.07461,1.672999 -0.823918,1.999017 -0.998715,0.434531 -2.136772,-0.158338 -2.525785,-1.134576 -0.489534,-1.228497 0.241692,-2.601923 1.445234,-3.0525534 1.45765,-0.5457738 3.067858,0.3248216 3.579321,1.7558924 0.602741,1.686466 -0.407807,3.534284 -2.06655,4.106089 m -5.110229,0.460295 c 0.246349,0.07274 0.02349,0.36796 -0.120901,0.409447 -0.391278,0.112424 -0.690686,-0.304203 -0.697991,-0.651249 -0.01307,-0.620783 0.6066,-1.031488 1.181593,-0.986537 0.843822,0.06597 1.379098,0.911919 1.275083,1.711942 -0.138634,1.066303 -1.218112,1.72941 -2.242288,1.563628 -1.28882,-0.208621 -2.081081,-1.52469 -1.852173,-2.772635 0.27724,-1.511433 1.831467,-2.433535 3.302981,-2.140719 1.73413,0.345074 2.786474,2.138377 2.429264,3.833329 m -5.921032,3.771449 c 0.240907,0.0095 0.106003,0.329442 -0.01585,0.400404 -0.330205,0.1923 -0.69849,-0.117967 -0.784957,-0.4321 -0.154673,-0.561908 0.314768,-1.078172 0.848347,-1.169516 0.783049,-0.134051 1.464718,0.512656 1.554071,1.264598 0.119091,1.002222 -0.710719,1.853929 -1.680849,1.938627 -1.220809,0.106584 -2.244462,-0.908816 -2.323182,-2.097099 -0.09534,-1.439169 1.106923,-2.635753 2.513349,-2.707739 1.657424,-0.08483 3.027516,1.305034 3.092294,2.9296 m -0.584376,9.335993 c 0.286142,0.0015 0.139196,0.386436 -0.0024,0.475586 -0.383816,0.241591 -0.833336,-0.111383 -0.948738,-0.480458 -0.206427,-0.660187 0.329306,-1.291737 0.95848,-1.421887 0.923338,-0.191003 1.758328,0.548234 1.895043,1.436499 0.182214,1.183921 -0.767265,2.228083 -1.914525,2.36819 -1.44371,0.17631 -2.699411,-0.98628 -2.841342,-2.392546 -0.171896,-1.703178 1.205276,-3.171637 2.870569,-3.314493 1.962491,-0.168351 3.644423,1.424255 3.787643,3.348591 m -7.138576,-3.924096 c 0.270187,0.01015 0.119624,0.369213 -0.01686,0.44907 -0.369874,0.216405 -0.783592,-0.130709 -0.881276,-0.482795 -0.174734,-0.629801 0.35055,-1.209833 0.948726,-1.313482 0.877848,-0.152111 1.643777,0.571592 1.745688,1.414657 0.135833,1.123674 -0.792828,2.080708 -1.88059,2.177895 -1.368838,0.122301 -2.519123,-1.014098 -2.610102,-2.346522 -0.110187,-1.613743 1.235377,-2.958386 2.812455,-3.042308 1.85853,-0.0989 3.39818,1.45666 3.474514,3.278387" /><path
         d="m 67.387,15.567 c 0,4.48 -3.657,8.112 -8.169,8.112 -4.512,0 -8.169,-3.632 -8.169,-8.112 0,-4.48 3.723,-7.652 8.235,-7.652 4.512,0 8.103,3.173 8.103,7.652"
         style="display:inline;fill:none;stroke:#000000;stroke-width:2;stroke-linecap:round;stroke-linejoin:round;stroke-miterlimit:4.7;stroke-dasharray:none;stroke-opacity:1"
         transform="translate(-2.783,6.798)"
         id="path4"
         sodipodi:nodetypes="csssc" /></g></g></svg>
