<svg xmlns="http://www.w3.org/2000/svg" xml:space="preserve" width="50" height="100">
    <g style="display:inline">
        <path d="m26.782 61.05.631-16.222 6.091-14.893 4.553-.82 6.695.34 1.628 16.183 6.2 12.432m-.575 34.964-5.118-1.935.398-15.799-6.626-15.908-2.232-1.2-2.237.732-4.985 15.315.92 17.87-6.62 1.415m12.92-35.404-.359-29.039" style="display:inline;fill:none;stroke:#000;stroke-width:3.00001;stroke-linecap:round;stroke-linejoin:round;stroke-miterlimit:4.7;stroke-dasharray:none;stroke-opacity:1" transform="translate(-22.378 .042)"/>
        <path d="M25.49 11.302c.666-2.14-.636-8.982-5.386-10.368-2.571-.75-4.213 2.072-4.213 2.072S14.683-.14 12.464.005c-2.971 1.12-6.916 4.332-7.57 8.016.29 3.887 3.876-.38 5.491-1.803 3.008-1.81 7.036-3.29 10.144-.916 1.975.733 2.773 5.94 4.961 6" style="fill:#000;stroke:none;stroke-width:.8;stroke-linecap:round;stroke-linejoin:round;stroke-miterlimit:4.7;stroke-opacity:1" transform="translate(1.628 4.934)"/>
        <path d="M55.626 18.955c3.41 5.645-1.12 10.013-1.12 10.013v0m-1.039-9.621c2.813 4.92-.98 8.762-.98 8.762v0m-1.157-8.227c2.083 4.035-.81 7.233-.81 7.233v0" style="fill:none;stroke:#000;stroke-width:.8;stroke-linecap:round;stroke-linejoin:round;stroke-miterlimit:4.7" transform="translate(-20.611 -4.936)"/>
        <path d="M45.51 19.162c1.227 4.315-1.289 8.803-5.629 10.042-4.33 1.24-8.85-1.252-10.08-5.557-1.23-4.309 1.48-8.382 5.818-9.619 4.34-1.237 8.662.826 9.892 5.134" style="display:inline;fill:#fff;stroke:#000;stroke-width:2.00001;stroke-linecap:round;stroke-linejoin:round;stroke-miterlimit:4.7;stroke-dasharray:none;stroke-opacity:1" transform="translate(-20.611 -4.936)"/>
        <path d="M39.473 23.775a1.576 2.79 0 0 1-1.576 2.79 1.576 2.79 0 0 1-1.575-2.79 1.576 2.79 0 0 1 1.575-2.79 1.576 2.79 0 0 1 1.576 2.79" style="stroke:#000;stroke-width:.8;stroke-linecap:round;stroke-linejoin:round;stroke-miterlimit:4.7" transform="translate(-20.611 -4.936)"/>
        <path d="M66.352 17.067c6.007 8.89-1.972 15.768-1.972 15.768v0m-1.832-15.15c4.956 7.748-1.726 13.796-1.726 13.796v0m-2.04-12.954c3.671 6.355-1.425 11.39-1.425 11.39v0" style="fill:none;stroke:#000;stroke-width:.799999;stroke-linecap:round;stroke-linejoin:round;stroke-miterlimit:4.7" transform="translate(-20.611 -4.936)"/>
        <path d="m47.968 27.893 5.21 32.605 6.687.757 6.437-32.72z" style="stroke-width:.8;stroke-linecap:round;stroke-linejoin:round;stroke-miterlimit:4.7" transform="translate(-40.555 -.859)"/>
        <path d="m51.869 29.204 4.801 2.133c.617-1.08 1.828-.874 2.206.082l4.675-1.943-.124 4.857-4.735-2.101a1.112 1.112 0 0 1-1.838.027l-5.181 2.15z" style="fill:#8c0215;fill-opacity:.784753;stroke-width:.8;stroke-linecap:round;stroke-linejoin:round;stroke-miterlimit:4.7" transform="translate(-40.555 -.859)"/>
    </g>
</svg>
