<svg xmlns="http://www.w3.org/2000/svg" xml:space="preserve" width="100" height="100">
    <g style="display:inline">
        <path d="m26.782 61.05.631-16.222 6.091-14.893 4.553-.82 6.695.34 1.628 16.183 6.2 12.432m-.575 34.964-5.118-1.935.398-15.799-6.626-15.908-2.232-1.2-2.237.732-4.985 15.315.92 17.87-6.62 1.415m12.92-35.404-.359-29.039" style="display:inline;fill:none;stroke:#000;stroke-width:3.00001;stroke-linecap:round;stroke-linejoin:round;stroke-miterlimit:4.7;stroke-dasharray:none;stroke-opacity:1" transform="translate(-20.068 1.24)"/>
        <path d="M52.478 17.966c3.41 5.645-1.119 10.013-1.119 10.013v0m-1.04-9.621c2.813 4.92-.98 8.762-.98 8.762v0m-1.157-8.227c2.084 4.035-.809 7.233-.809 7.233v0" style="fill:none;stroke:#000;stroke-width:.8;stroke-linecap:round;stroke-linejoin:round;stroke-miterlimit:4.7" transform="translate(-18.302 -3.737)"/>
        <path d="M45.51 19.162c1.227 4.315-1.289 8.803-5.629 10.042-4.33 1.24-8.85-1.252-10.08-5.557-1.23-4.309 1.48-8.382 5.818-9.619 4.34-1.237 8.662.826 9.892 5.134" style="display:inline;fill:#fff;stroke:#000;stroke-width:2.00001;stroke-linecap:round;stroke-linejoin:round;stroke-miterlimit:4.7;stroke-dasharray:none;stroke-opacity:1" transform="translate(-18.302 -3.737)"/>
        <path d="M39.473 24.334a1.274 2.23 0 0 1-1.274 2.23 1.274 2.23 0 0 1-1.274-2.23 1.274 2.23 0 0 1 1.274-2.23 1.274 2.23 0 0 1 1.274 2.23" style="stroke:#000;stroke-width:.8;stroke-linecap:round;stroke-linejoin:round;stroke-miterlimit:4.7" transform="translate(-18.302 -3.737)"/>
        <path d="m47.968 27.893 5.21 32.605 6.687.757 6.437-32.72z" style="stroke-width:.8;stroke-linecap:round;stroke-linejoin:round;stroke-miterlimit:4.7" transform="translate(-38.245 .34)"/>
        <path d="m52.755 29.248 3.785 1.682c.486-.851 1.44-.69 1.738.064l3.686-1.531-.098 3.828-3.732-1.656a.877.877 0 0 1-1.45.021l-4.083 1.696z" style="fill:#fff;stroke-width:.8;stroke-linecap:round;stroke-linejoin:round;stroke-miterlimit:4.7" transform="translate(-38.245 .34)"/>
    </g>
    <g style="display:inline">
        <path d="m26.782 61.05.631-16.222 6.091-14.893 4.553-.82 6.695.34 1.628 16.183 6.2 12.432m-.575 34.964-5.118-1.935.398-15.799-6.626-15.908-2.232-1.2-2.237.732-4.985 15.315.92 17.87-6.62 1.415m12.92-35.404-.359-29.039" style="display:inline;fill:none;stroke:#000;stroke-width:3.00001;stroke-linecap:round;stroke-linejoin:round;stroke-miterlimit:4.7;stroke-dasharray:none;stroke-opacity:1" transform="translate(11.526 1.24)"/>
        <path d="M52.478 17.966c3.41 5.645-1.119 10.013-1.119 10.013v0m-1.04-9.621c2.813 4.92-.98 8.762-.98 8.762v0m-1.157-8.227c2.084 4.035-.809 7.233-.809 7.233v0" style="fill:none;stroke:#000;stroke-width:.8;stroke-linecap:round;stroke-linejoin:round;stroke-miterlimit:4.7" transform="translate(13.292 -3.737)"/>
        <path d="M45.51 19.162c1.227 4.315-1.289 8.803-5.629 10.042-4.33 1.24-8.85-1.252-10.08-5.557-1.23-4.309 1.48-8.382 5.818-9.619 4.34-1.237 8.662.826 9.892 5.134" style="display:inline;fill:#fff;stroke:#000;stroke-width:2.00001;stroke-linecap:round;stroke-linejoin:round;stroke-miterlimit:4.7;stroke-dasharray:none;stroke-opacity:1" transform="translate(13.292 -3.737)"/>
        <path d="M39.473 24.334a1.274 2.23 0 0 1-1.274 2.23 1.274 2.23 0 0 1-1.274-2.23 1.274 2.23 0 0 1 1.274-2.23 1.274 2.23 0 0 1 1.274 2.23" style="stroke:#000;stroke-width:.8;stroke-linecap:round;stroke-linejoin:round;stroke-miterlimit:4.7" transform="translate(13.292 -3.737)"/>
        <path d="m47.968 27.893 5.21 32.605 6.687.757 6.437-32.72z" style="stroke-width:.8;stroke-linecap:round;stroke-linejoin:round;stroke-miterlimit:4.7" transform="translate(-6.651 .34)"/>
        <path d="m52.755 29.248 3.785 1.682c.486-.851 1.44-.69 1.738.064l3.686-1.531-.098 3.828-3.732-1.656a.877.877 0 0 1-1.45.021l-4.083 1.696z" style="fill:#fff;stroke-width:.8;stroke-linecap:round;stroke-linejoin:round;stroke-miterlimit:4.7" transform="translate(-6.651 .34)"/>
    </g>
    <g style="display:inline">
        <path d="m26.782 61.05.631-16.222 6.091-14.893 4.553-.82 6.695.34 1.628 16.183 6.2 12.432m-.575 34.964-5.118-1.935.398-15.799-6.626-15.908-2.232-1.2-2.237.732-4.985 15.315.92 17.87-6.62 1.415m12.92-35.404-.359-29.039" style="display:inline;fill:none;stroke:#000;stroke-width:3.00001;stroke-linecap:round;stroke-linejoin:round;stroke-miterlimit:4.7;stroke-dasharray:none;stroke-opacity:1" transform="translate(43.12 1.24)"/>
        <path d="M52.478 17.966c3.41 5.645-1.119 10.013-1.119 10.013v0m-1.04-9.621c2.813 4.92-.98 8.762-.98 8.762v0m-1.157-8.227c2.084 4.035-.809 7.233-.809 7.233v0" style="fill:none;stroke:#000;stroke-width:.8;stroke-linecap:round;stroke-linejoin:round;stroke-miterlimit:4.7" transform="translate(44.886 -3.737)"/>
        <path d="M45.51 19.162c1.227 4.315-1.289 8.803-5.629 10.042-4.33 1.24-8.85-1.252-10.08-5.557-1.23-4.309 1.48-8.382 5.818-9.619 4.34-1.237 8.662.826 9.892 5.134" style="display:inline;fill:#fff;stroke:#000;stroke-width:2.00001;stroke-linecap:round;stroke-linejoin:round;stroke-miterlimit:4.7;stroke-dasharray:none;stroke-opacity:1" transform="translate(44.886 -3.737)"/>
        <path d="M39.473 24.334a1.274 2.23 0 0 1-1.274 2.23 1.274 2.23 0 0 1-1.274-2.23 1.274 2.23 0 0 1 1.274-2.23 1.274 2.23 0 0 1 1.274 2.23" style="stroke:#000;stroke-width:.8;stroke-linecap:round;stroke-linejoin:round;stroke-miterlimit:4.7" transform="translate(44.886 -3.737)"/>
        <path d="m47.968 27.893 5.21 32.605 6.687.757 6.437-32.72z" style="stroke-width:.8;stroke-linecap:round;stroke-linejoin:round;stroke-miterlimit:4.7" transform="translate(24.943 .34)"/>
        <path d="m52.755 29.248 3.785 1.682c.486-.851 1.44-.69 1.738.064l3.686-1.531-.098 3.828-3.732-1.656a.877.877 0 0 1-1.45.021l-4.083 1.696z" style="fill:#fff;stroke-width:.8;stroke-linecap:round;stroke-linejoin:round;stroke-miterlimit:4.7" transform="translate(24.943 .34)"/>
    </g>
</svg>
