<svg xmlns="http://www.w3.org/2000/svg" xml:space="preserve" width="100" height="100">
    <path d="m50.04 14.807-4.797-2.992 4.668 2.895 2.341-2.333-3.05-4.824 3.05 4.824 3.773-1.375-.693-6.193.853 6.281 3.058.107 1.544-7.135-1.55 7.086 3.093 1.42 3.678-5.364-3.553 5.389M64.978 17c1.23 4.308-1.29 8.804-5.629 10.042s-8.852-1.25-10.081-5.558C46.192 10.71 62.126 7.006 64.977 17.002" style="display:inline;fill:#fff;stroke:#000;stroke-width:2.00001;stroke-linecap:round;stroke-linejoin:round;stroke-miterlimit:4.7;stroke-dasharray:none;stroke-opacity:1" transform="translate(-12.456 -.881)"/>
    <path d="m66.625 95.06-5.119-1.935 1.441-16.957L49.24 59.965 37.65 76.529l.465 18.368-6.62 1.415m15.559-65.404L49 60.682M23.81 35.858l11.992 5.143 11.489-10.33m.235.236 15.109 5.11 9.461-10.669" style="display:inline;fill:none;stroke:#000;stroke-width:3.00001;stroke-linecap:round;stroke-linejoin:round;stroke-miterlimit:4.7;stroke-dasharray:none;stroke-opacity:1"/>
    <g style="stroke-width:.642977">
        <path d="m66.987 9.838 27.514-.085m-23.106.085c0 1.075-1.7 1.948-3.799 1.948-2.098 0-3.798-.873-3.798-1.948 0-1.076 1.7-1.949 3.798-1.949s3.799.873 3.799 1.949" style="fill:#000;stroke:#010101;stroke-width:1.28595;stroke-linecap:round;stroke-linejoin:round;stroke-miterlimit:4.7" transform="matrix(.0052 -.9684 .67621 .00746 13.319 96.774)"/>
    </g>
    <path d="M47.524 29.937c1.278-.142 2.432.521 2.587 1.488l8.115 50.545c.155.967-.748 1.86-2.026 2.003-1.278.142-2.432-.522-2.587-1.489L45.498 31.94c-.155-.967.749-1.86 2.026-2.002m-.235.02h.516c1.307 0 2.36.788 2.36 1.767v50.497c0 .98-1.053 1.768-2.36 1.768h-.516c-1.307 0-2.36-.789-2.36-1.768V31.724c0-.979 1.053-1.767 2.36-1.767" style="stroke:#010101;stroke-width:2;stroke-linecap:round;stroke-linejoin:round;stroke-miterlimit:4.7"/>
    <path d="M36.62 18.958h2.713c.472 0 .851.788.851 1.767v2.077c0 .98-.38 1.768-.85 1.768H36.62c-.471 0-.85-.788-.85-1.768v-2.077c0-.979.379-1.767.85-1.767m36.377-27.01.498-2.819c.082-.464.925-.7 1.889-.53l1.603.283c.964.17 1.675.682 1.593 1.146l-.499 2.82c-.082.463-.924.7-1.888.53l-1.603-.284c-.965-.17-1.675-.681-1.593-1.146" style="stroke-width:2;stroke-linecap:round;stroke-linejoin:round;stroke-miterlimit:4.7" transform="rotate(26.713)"/>
    <path d="M72.971 27.13a.409.383 0 0 1-.409.383.409.383 0 0 1-.409-.383.409.383 0 0 1 .41-.384.409.383 0 0 1 .408.384M23.595 37.57a.409.383 0 0 1-.409.383.409.383 0 0 1-.409-.383.409.383 0 0 1 .41-.383.409.383 0 0 1 .408.383" style="fill:#fff;stroke-width:2;stroke-linecap:round;stroke-linejoin:round;stroke-miterlimit:4.7"/>
    <path d="M36.815 93.94c.237.964-.973 2.09-2.703 2.514-1.729.425-3.045 1.37-3.416.45-1.19-2.948.784-4 2.56-3.94 2.894.095 3.323.012 3.56.976" style="stroke:#000;stroke-width:.8;stroke-linecap:round;stroke-linejoin:round;stroke-miterlimit:4.7"/>
    <path d="m62.368 90.83 3.749-3.845m-30.843 5.936a1.392.45 19.637 0 1-1.383.015 1.392.45 19.637 0 1-1.252-.892 1.392.45 19.637 0 1 1.382-.016 1.392.45 19.637 0 1 1.253.893m-1.917.731a1.392.45 19.637 0 1-1.383.016 1.392.45 19.637 0 1-1.252-.893 1.392.45 19.637 0 1 1.382-.015 1.392.45 19.637 0 1 1.253.892" style="fill:#c00;stroke-width:2;stroke-linecap:round;stroke-linejoin:round;stroke-miterlimit:4.7"/>
    <path d="M61.347 92.665c-.236.964.974 2.09 2.703 2.514 1.73.424 3.045 1.37 3.417.449 1.19-2.947-.784-4-2.56-3.94-2.894.096-3.323.013-3.56.977" style="stroke:#000;stroke-width:.8;stroke-linecap:round;stroke-linejoin:round;stroke-miterlimit:4.7"/>
    <path d="M66.133 90.857a.404 1.383 69.715 0 1-1.158.858.404 1.383 69.715 0 1-1.437.1.404 1.383 69.715 0 1 1.157-.858.404 1.383 69.715 0 1 1.438-.1m1.7.835a.404 1.383 69.715 0 1-1.156.858.404 1.383 69.715 0 1-1.437.1.404 1.383 69.715 0 1 1.157-.857.404 1.383 69.715 0 1 1.437-.101" style="fill:#c00;stroke-width:2;stroke-linecap:round;stroke-linejoin:round;stroke-miterlimit:4.7"/>
</svg>
