<?xml version="1.0" encoding="UTF-8" standalone="no"?>
<svg
   xml:space="preserve"
   width="100"
   height="100"
   version="1.1"
   id="svg7"
   sodipodi:docname="human_clarinet_1.svg"
   inkscape:version="1.3.2 (091e20e, 2023-11-25)"
   xmlns:inkscape="http://www.inkscape.org/namespaces/inkscape"
   xmlns:sodipodi="http://sodipodi.sourceforge.net/DTD/sodipodi-0.dtd"
   xmlns="http://www.w3.org/2000/svg"
   xmlns:svg="http://www.w3.org/2000/svg"><defs
     id="defs7" /><sodipodi:namedview
     id="namedview7"
     pagecolor="#ffffff"
     bordercolor="#000000"
     borderopacity="0.25"
     inkscape:showpageshadow="2"
     inkscape:pageopacity="0.0"
     inkscape:pagecheckerboard="0"
     inkscape:deskcolor="#d1d1d1"
     inkscape:current-layer="svg7"
     showgrid="false" /><g
     id="g27"
     transform="translate(-12.456172,-0.88113084)"><path
       d="m 50.04,14.807 -4.797,-2.992 4.668,2.895 2.341,-2.333 -3.05,-4.824 3.05,4.824 3.773,-1.375 -0.693,-6.193 0.853,6.281 3.058,0.107 1.544,-7.135 -1.55,7.086 3.093,1.42 3.678,-5.364 -3.553,5.389 M 64.978,17 c 1.23,4.308 -1.29,8.804 -5.629,10.042 C 55.01,28.28 50.497,25.792 49.268,21.484 46.192,10.71 62.126,7.006 64.977,17.002"
       style="display:inline;fill:#ffffff;stroke:#000000;stroke-width:2.00001;stroke-linecap:round;stroke-linejoin:round;stroke-miterlimit:4.7;stroke-dasharray:none;stroke-opacity:1"
       id="path7"
       inkscape:label="head" /><path
       d="M 59.982,31.788 80.968006,47.234565 64.055944,47.537053"
       style="display:inline;fill:none;stroke:#000000;stroke-width:3;stroke-linecap:round;stroke-linejoin:round;stroke-miterlimit:4.7;stroke-dasharray:none;stroke-opacity:1"
       id="path1"
       sodipodi:nodetypes="ccc"
       inkscape:label="left hand" /><path
       d="M 57.141193,56.814642 47.364608,47.910195 59.747,31.552"
       style="display:inline;fill:none;stroke:#000000;stroke-width:3.00001;stroke-linecap:round;stroke-linejoin:round;stroke-miterlimit:4.7;stroke-dasharray:none;stroke-opacity:1"
       id="path4"
       sodipodi:nodetypes="ccc"
       inkscape:label="right hand" /><g
       style="display:inline;stroke-width:1.83867;stroke-dasharray:none"
       id="g3"
       transform="translate(16)"
       inkscape:label="body"><path
         d="m 44.242,23.499 1.19,18.313"
         style="fill:none;stroke:#000000;stroke-width:1.83867;stroke-linecap:round;stroke-linejoin:round;stroke-miterlimit:4.7;stroke-dasharray:none;stroke-opacity:1"
         transform="matrix(1.63742,0,0,1.62584,-28.934,-6.417)"
         id="path2" /><path
         d="M 56.195,62.957 53.069,61.767 52.507093,51.336985 45.577,41.371 l -7.078,10.188 0.284,11.298 -4.043,0.87"
         style="display:inline;fill:none;stroke:#000000;stroke-width:1.83867;stroke-linecap:round;stroke-linejoin:round;stroke-miterlimit:4.7;stroke-dasharray:none;stroke-opacity:1"
         transform="matrix(1.63742,0,0,1.62584,-28.934,-6.417)"
         id="path3"
         sodipodi:nodetypes="ccccccc" /></g><g
       id="g8"
       inkscape:label="clarinet"
       transform="matrix(0.77403414,-0.46994709,0.46994709,0.77403414,2.9642089,32.729974)"
       style="stroke-width:1.10433"><path
         id="path27"
         style="fill:#ffffff;stroke-width:0.857543;stroke-dasharray:none"
         d="m 52.896484,27.888672 c -0.275224,-0.03437 -0.541064,0.09533 -0.757812,0.251953 -0.379282,0.279298 -0.683459,0.646541 -0.964844,1.021484 -0.515416,0.699044 -0.959891,1.449079 -1.361328,2.21875 -0.89704,2.354221 -1.793649,4.709146 -2.689453,7.064453 l -0.833985,-0.314453 0.511719,-1.357421 a 0.28517396,0.28517396 0 0 0 -0.07422,-0.347657 c -0.129576,-0.109024 -0.351981,-0.05818 -0.419921,0.09766 -1.659053,4.390744 -3.31607,8.780938 -4.972657,13.171874 a 0.28738461,0.28738461 0 0 0 0.04297,0.330079 c 0.112341,0.129735 0.341268,0.104052 0.429688,-0.04102 0.09171,-0.203071 0.159127,-0.416328 0.242187,-0.623047 l 0.806641,0.304688 c -0.471388,1.239285 -0.943669,2.477915 -1.416016,3.716796 -0.01558,0.063 -0.05255,0.134375 -0.126953,0.134766 a 1.1661183,1.1661183 0 0 0 -1.111328,0.515625 1.1605917,1.1605917 0 0 0 -0.113281,1.046875 c 0.08903,0.244197 0.270649,0.444405 0.482421,0.589844 l -1.787109,4.699219 a 8.6215385,8.6215385 0 0 1 -0.607422,1.326171 c -0.761841,1.359829 -1.901944,2.512101 -3.271484,3.259766 -0.20188,0.115389 -0.415362,0.206518 -0.623047,0.310547 -0.217606,0.110443 -0.433563,0.274471 -0.507812,0.517578 -0.133,0.392226 -0.07191,0.827439 0.0918,1.201172 0.204642,0.468653 0.536819,0.868785 0.908204,1.214844 0.254223,0.23676 0.536778,0.453033 0.830078,0.646484 0.101959,0.06795 0.206457,0.134112 0.316406,0.199219 0.100686,0.05992 0.212057,0.122701 0.310547,0.175781 a 9.1189352,9.1189352 0 0 0 1.439453,0.615235 c 0.761687,0.249592 1.560205,0.40445 2.363281,0.40625 0.543609,-0.0024 1.098844,-0.07298 1.597656,-0.298829 0.385093,-0.169518 0.73035,-0.464624 0.894532,-0.859375 0.105009,-0.230541 0.05194,-0.493249 -0.03906,-0.71875 -0.209475,-0.470271 -0.387467,-0.958083 -0.509766,-1.458984 -0.383324,-1.543154 -0.287505,-3.192777 0.230469,-4.693359 0.330776,-0.896657 0.670765,-1.788761 1.00586,-2.683594 0.01322,-0.08053 0.08903,-0.154126 0.173828,-0.128906 a 1.1550651,1.1550651 0 0 0 1.082031,-0.513672 c 0.205995,-0.307941 0.24859,-0.723756 0.107422,-1.0625 -0.09377,-0.247046 -0.285178,-0.445874 -0.503906,-0.587891 0.306125,-0.815862 0.612323,-1.631201 0.917968,-2.447266 0.01385,-0.079 0.09549,-0.14539 0.177735,-0.11914 a 1.1605917,1.1605917 0 0 0 0.93164,-0.324219 1.1605917,1.1605917 0 0 0 0.261719,-1.253906 C 46.266729,52.842702 46.073475,52.642512 45.851562,52.5 c 2.478931,-6.599101 4.957651,-13.198159 7.435547,-19.798828 0.127556,-0.529001 0.225841,-1.063677 0.306641,-1.603516 0.08134,-0.575247 0.139231,-1.157102 0.119141,-1.738281 -0.01797,-0.354179 -0.05658,-0.720773 -0.22461,-1.039063 -0.111529,-0.229095 -0.337725,-0.39941 -0.591797,-0.43164 z" /><path
         d="m 52.139576,28.141129 c 0.216748,-0.156621 0.481463,-0.286196 0.756688,-0.251826 0.254072,0.03223 0.481263,0.202417 0.592792,0.431513 0.168034,0.31829 0.205675,0.684167 0.22365,1.038346 0.02009,0.58118 -0.03842,1.162673 -0.119761,1.737921 -0.0808,0.539839 -0.179078,1.074845 -0.306634,1.603846 q -3.716848,9.901013 -7.435247,19.799674 c 0.221913,0.142512 0.415595,0.341824 0.510194,0.590919 a 1.1605917,1.1605917 0 0 1 -0.260958,1.253643 1.1605917,1.1605917 0 0 1 -0.933137,0.324082 c -0.08224,-0.02625 -0.162556,0.04036 -0.176405,0.119362 q -0.458468,1.224098 -0.917656,2.447893 c 0.218729,0.142017 0.409227,0.340832 0.502994,0.587878 0.141168,0.338745 0.09849,0.755135 -0.107505,1.063076 a 1.1550651,1.1550651 0 0 1 -1.081054,0.513594 c -0.0848,-0.02522 -0.162318,0.04683 -0.175543,0.127361 -0.335095,0.894834 -0.675024,1.788052 -1.0058,2.68471 -0.517975,1.500584 -0.61254,3.150729 -0.229215,4.693885 0.122299,0.500902 0.29953,0.987246 0.509005,1.457518 0.091,0.225501 0.145229,0.489798 0.04022,0.72034 -0.164182,0.394751 -0.510855,0.688242 -0.895948,0.857761 -0.498813,0.225852 -1.052948,0.296384 -1.596557,0.298834 -0.803077,-0.0018 -1.601414,-0.156704 -2.363102,-0.406297 a 9.1189352,9.1189352 0 0 1 -1.440441,-0.615169 c -0.09849,-0.05308 -0.20894,-0.114973 -0.309626,-0.174892 q -0.164924,-0.09766 -0.317863,-0.199582 c -0.2933,-0.193451 -0.574408,-0.409751 -0.828632,-0.646511 -0.371385,-0.346059 -0.704777,-0.746917 -0.909419,-1.21557 -0.163709,-0.373733 -0.22326,-0.808256 -0.09026,-1.200482 0.07425,-0.243107 0.290253,-0.405985 0.507859,-0.516428 0.207685,-0.104029 0.420666,-0.196489 0.622546,-0.311878 1.369541,-0.747666 2.509537,-1.898994 3.271379,-3.258824 a 8.6215385,8.6215385 0 0 0 0.606743,-1.32607 l 1.787591,-4.700439 c -0.211773,-0.145439 -0.39355,-0.344814 -0.482582,-0.589011 a 1.1605917,1.1605917 0 0 1 0.112512,-1.047812 1.1661183,1.1661183 0 0 1 1.112144,-0.514885 c 0.0744,-3.91e-4 0.111901,-0.07109 0.127477,-0.134088 q 0.708521,-1.858324 1.415603,-3.717254 l -0.806209,-0.304876 c -0.08306,0.206719 -0.150504,0.419617 -0.242212,0.622688 -0.08842,0.145068 -0.318484,0.170496 -0.430825,0.04076 a 0.28738461,0.28738461 0 0 1 -0.04278,-0.328597 q 2.484883,-6.586411 4.973464,-13.172535 c 0.06794,-0.155839 0.289653,-0.207704 0.41923,-0.09868 a 0.28517396,0.28517396 0 0 1 0.07419,0.348649 l -0.511958,1.35677 0.835201,0.314577 q 1.343707,-3.532965 2.689269,-7.064299 c 0.401437,-0.769672 0.844537,-1.520472 1.359954,-2.219516 0.281385,-0.374944 0.587346,-0.74078 0.966628,-1.020078 m 0.738465,0.283476 c -0.168873,0.01013 -0.325289,0.08617 -0.455179,0.19082 -0.298041,0.232584 -0.544247,0.52524 -0.771012,0.826108 -0.42223,0.562776 -0.788828,1.165593 -1.129189,1.781613 -0.07509,0.142639 -0.158824,0.281627 -0.224348,0.42873 l -0.71406,1.878467 0.08936,0.0335 q 1.182371,0.446782 2.36567,0.894382 c 0.241574,-0.64629 0.48654,-1.291571 0.725139,-1.937845 0.189516,-0.846449 0.342135,-1.702966 0.391871,-2.569 0.01942,-0.385472 0.02424,-0.777537 -0.0699,-1.153278 a 0.7516213,0.7516213 0 0 0 -0.20835,-0.373493 m -1.870595,3.260795 a 0.28185799,0.28185799 0 0 1 0.368909,-0.105082 c 0.231184,0.09043 0.46805,0.168414 0.694769,0.268414 a 0.28738461,0.28738461 0 0 1 0.09225,0.368155 c -0.131805,0.345217 -0.256412,0.693475 -0.39449,1.036466 a 0.28185799,0.28185799 0 0 1 -0.370238,0.106217 c -0.229956,-0.09034 -0.465894,-0.167502 -0.692196,-0.266477 A 0.27633137,0.27633137 0 0 1 50.59645,32.958822 c -0.05331,-0.12688 0.02576,-0.253831 0.06629,-0.372888 0.115416,-0.300384 0.223841,-0.603298 0.344713,-0.90053 m -1.619582,2.360144 -0.785845,2.064499 0.08978,0.03453 2.376565,0.897711 0.776789,-2.069172 z m -0.981723,2.579492 -0.798697,2.098947 c 0.198632,-0.12779 0.390753,-0.26427 0.592808,-0.3851 a 1.1605917,1.1605917 0 0 1 1.090484,-0.0086 1.171645,1.171645 0 0 1 0.60914,0.885968 l 0.110685,0.614777 c -0.179688,0.139186 -0.360481,0.282995 -0.534218,0.422148 -0.246898,0.199886 -0.576253,0.293675 -0.890342,0.24586 -0.372587,-0.04792 -0.708974,-0.296048 -0.871773,-0.633763 -0.08712,-0.173394 -0.115754,-0.368751 -0.172248,-0.553389 l -0.06502,-0.243811 -1.137521,2.98754 c 0.199849,-0.130671 0.395442,-0.27035 0.598394,-0.396316 a 1.1605917,1.1605917 0 0 1 1.1173,-0.0028 1.1661183,1.1661183 0 0 1 0.592788,0.879486 l 0.106142,0.609464 c -0.188474,0.146928 -0.371988,0.300194 -0.560046,0.448147 -0.282007,0.217721 -0.667104,0.288816 -1.010916,0.189842 a 1.1605917,1.1605917 0 0 1 -0.787595,-0.765775 c -0.05954,-0.218592 -0.112946,-0.439682 -0.170747,-0.658386 l -0.989614,2.601188 0.186479,-0.05783 c 0.199906,-0.0615 0.400179,-0.130902 0.611469,-0.134991 a 1.5916686,1.5916686 0 0 1 1.291369,0.565361 c 0.159234,0.186459 0.256796,0.413473 0.380745,0.623209 0.02089,0.03088 0.03167,-0.06595 0.04828,-0.0882 l 3.120938,-8.310289 Q 49.64075,37.091819 48.40614,36.625092 m -2.312262,2.020495 -2.450488,6.491917 0.08936,0.0335 0.728465,0.275011 2.466119,-6.485739 z m 2.274076,0.241429 c -0.115681,0.0941 -0.197796,0.228259 -0.215478,0.378601 -0.01806,0.117091 2.29e-4,0.238506 0.04964,0.345493 a 0.607929,0.607929 0 0 0 0.710266,0.327138 0.61013963,0.61013963 0 0 0 0.441439,-0.637386 c -0.02041,-0.291151 -0.27851,-0.54185 -0.570842,-0.55078 -0.149893,-0.0107 -0.298835,0.04262 -0.415027,0.136933 m -1.230602,3.300328 c -0.117359,0.08703 -0.204034,0.212898 -0.230981,0.358053 a 0.60682369,0.60682369 0 0 0 0.760401,0.707625 0.61345563,0.61345563 0 0 0 0.435454,-0.643307 0.61345563,0.61345563 0 0 0 -0.554794,-0.543577 c -0.146724,-0.01319 -0.293233,0.03438 -0.41008,0.121207 m -3.688398,3.465761 -1.206333,3.192645 0.08936,0.0335 0.719009,0.272289 1.213836,-3.190325 z m 2.297337,-0.272653 c -0.203714,0.07856 -0.372395,0.222815 -0.553217,0.341583 0.35016,0.135168 0.704274,0.260974 1.052001,0.401902 0.150269,0.08213 0.183189,0.311539 0.0582,0.429706 -0.08625,0.08872 -0.228199,0.106395 -0.336565,0.04959 L 44.99957,46.238447 c 0.04917,0.176878 0.07794,0.360841 0.146377,0.532281 l 0.0077,0.01895 a 1.0500592,1.0500592 0 0 0 0.982724,0.616142 1.0555858,1.0555858 0 0 0 0.943849,-0.667841 1.0500592,1.0500592 0 0 0 -0.23276,-1.11219 1.0500592,1.0500592 0 0 0 -1.101462,-0.244621 m -1.222786,1.449797 -0.70212,1.846178 0.187504,-0.05825 c 0.196513,-0.06251 0.393905,-0.133129 0.602204,-0.140176 a 1.5916686,1.5916686 0 0 1 1.299595,0.548897 c 0.164466,0.186124 0.263276,0.41621 0.387752,0.628714 0.02337,0.07223 0.03572,-0.01926 0.05167,-0.04902 l 0.710702,-1.892612 c -0.287672,0.09655 -0.571957,0.23228 -0.880308,0.241187 A 1.5971953,1.5971953 0 0 1 44.757992,47.215196 Q 44.640807,47.02359 44.52321,46.830959 m -0.124811,2.241032 c -0.171326,0.05109 -0.316482,0.160739 -0.461284,0.25951 -0.04788,0.04808 -0.03266,0.132563 0.02765,0.163546 0.291871,0.116488 0.58941,0.217552 0.88048,0.337942 0.148111,0.08122 0.182133,0.306004 0.06197,0.425787 a 0.28738461,0.28738461 0 0 1 -0.339926,0.05454 l -0.966113,-0.365201 c 0.04833,0.174829 0.07505,0.356649 0.141416,0.525944 l 0.01061,0.02611 a 1.0500592,1.0500592 0 0 0 0.97759,0.615247 1.0555858,1.0555858 0 0 0 0.941799,-0.64792 1.0500592,1.0500592 0 0 0 -0.197097,-1.102217 1.0500592,1.0500592 0 0 0 -1.077087,-0.293292 m -1.279941,1.451533 -1.227489,3.228678 c 0.162565,0.156474 0.307622,0.34034 0.374047,0.559717 0.02478,0.06987 0.04274,0.163981 0.04986,0.231473 0.01336,0.197386 0.04855,0.391271 0.07493,0.586948 -0.165624,0.140035 -0.33176,0.280278 -0.487992,0.430218 -0.207743,0.171456 -0.476565,0.26154 -0.744083,0.268181 -0.06756,0.01432 -0.09542,0.0823 -0.111221,0.141803 q -0.589864,1.54822 -1.178504,3.096591 l 0.08936,0.0335 2.476005,0.935468 0.329942,-0.879618 c -0.07017,-0.0729 -0.134966,-0.138453 -0.196367,-0.22208 a 1.171645,1.171645 0 0 1 -0.223289,-0.696698 q -0.03238,-0.223662 -0.06403,-0.44702 c 0.123602,-0.109846 0.255972,-0.211323 0.374311,-0.326786 a 1.171645,1.171645 0 0 1 0.82,-0.370595 c 0.07485,-0.0125 0.101135,-0.08879 0.12092,-0.151704 l 0.947026,-2.522453 c -0.163413,-0.161499 -0.304197,-0.352468 -0.365518,-0.576902 a 1.4369231,1.4369231 0 0 1 -0.04668,-0.291219 1.1053255,1.1053255 0 0 0 -0.01419,-0.142169 l -0.05007,-0.349492 c 0.156727,-0.134035 0.318302,-0.263478 0.46295,-0.4111 a 1.2048047,1.2048047 0 0 1 0.731459,-0.287511 c 0.0737,-0.01681 0.0931,-0.09388 0.114231,-0.154954 l 0.296442,-0.790259 c -0.288265,0.100963 -0.57295,0.238648 -0.884166,0.249316 -0.210634,0.01157 -0.420415,-0.02909 -0.623571,-0.07841 -0.233342,-0.110432 -0.462088,-0.244801 -0.635114,-0.438782 -0.169282,-0.184764 -0.277116,-0.413571 -0.409178,-0.624189 m 0.881295,1.312291 c 0.04131,-0.0084 0.08708,-0.0294 0.107875,0.02181 0.07433,0.08314 0.157682,0.184107 0.133474,0.303694 -0.02858,0.127922 -0.09251,0.245152 -0.131985,0.369746 -0.0601,0.182481 -0.09502,0.372629 -0.152456,0.555815 -0.09439,0.180301 -0.204114,0.353705 -0.265485,0.549226 -0.210618,0.560945 -0.424933,1.121602 -0.632673,1.683764 -0.02167,0.09351 -0.0781,0.174878 -0.10338,0.266864 -0.216382,0.577601 -0.439339,1.153697 -0.651608,1.732612 -0.03818,0.155683 -0.07122,0.312262 -0.112492,0.466216 -0.09988,0.190285 -0.220022,0.373287 -0.285233,0.579913 -0.08557,0.219664 -0.160443,0.442145 -0.252088,0.657121 -0.08484,0.143612 -0.307075,0.17362 -0.425114,0.05334 a 0.27633137,0.27633137 0 0 1 -0.06602,-0.10382 c -0.03666,-0.08592 -0.01305,-0.179018 0.02429,-0.260393 0.389691,-1.032131 0.781126,-2.064372 1.167424,-3.09751 0.04534,-0.158594 0.08392,-0.319205 0.13307,-0.475767 0.07277,-0.154222 0.157274,-0.303068 0.222128,-0.460635 0.338072,-0.89485 0.673984,-1.790612 1.015448,-2.684453 0.05015,-0.102687 0.166921,-0.147123 0.274112,-0.157846 m -3.217475,2.367818 c -0.115472,0.09462 -0.197172,0.229796 -0.214134,0.380441 a 0.607929,0.607929 0 0 0 0.04898,0.338005 c 0.118439,0.274009 0.461796,0.423274 0.742972,0.321014 0.270792,-0.0867 0.454274,-0.382524 0.406305,-0.663679 -0.03656,-0.278033 -0.289426,-0.509978 -0.570974,-0.517323 -0.150502,-0.0093 -0.298403,0.04662 -0.413667,0.14175 m 4.185051,-1.195566 c -0.123774,0.07711 -0.221056,0.195951 -0.260131,0.337681 -0.04096,0.134145 -0.03248,0.282809 0.02269,0.411318 0.102936,0.253463 0.391842,0.411121 0.661284,0.36075 0.276147,-0.04415 0.500683,-0.300564 0.502284,-0.581568 0.01242,-0.292556 -0.218536,-0.573363 -0.508672,-0.613608 -0.14474,-0.02593 -0.294702,0.0087 -0.417245,0.08594 m -1.709235,4.690689 c -0.134749,0.0589 -0.248734,0.163051 -0.307025,0.300058 -0.06991,0.152463 -0.07347,0.334647 -0.0072,0.489061 a 0.607929,0.607929 0 0 0 0.593696,0.369111 c 0.27507,-0.01448 0.525236,-0.237166 0.56351,-0.51159 a 0.61345563,0.61345563 0 0 0 -0.413525,-0.670143 c -0.139728,-0.04883 -0.294729,-0.0354 -0.429686,0.023 m -3.586499,1.883619 -0.431031,1.133026 0.08936,0.0335 2.483302,0.937278 0.4262,-1.134643 z m -0.638958,1.643361 c -0.150509,0.321198 -0.311001,0.636905 -0.491989,0.938866 a 8.9531363,8.9531363 0 0 1 -2.950857,3.02725 c -0.236604,0.147387 -0.48956,0.288292 -0.742803,0.413805 -0.153408,0.08199 -0.333824,0.141536 -0.475172,0.25322 -0.04068,0.03203 -0.07332,0.06915 -0.08116,0.121836 -0.08008,0.266946 -0.02202,0.555334 0.08839,0.805167 0.21949,0.481712 0.595109,0.871982 0.99672,1.208748 0.714828,0.589534 1.55613,1.010197 2.431255,1.305579 0.771574,0.256312 1.583481,0.415119 2.399025,0.387534 0.45404,-0.01739 0.919174,-0.09115 1.323922,-0.309208 0.222562,-0.123208 0.418008,-0.311726 0.508792,-0.553791 -0.02631,-0.241039 -0.161332,-0.448663 -0.240718,-0.673516 a 8.6342497,8.6342497 0 0 1 -0.606959,-3.204246 8.8426036,8.8426036 0 0 1 0.166493,-1.691882 c 0.05596,-0.288168 0.129947,-0.581869 0.214656,-0.8668 l 0.05323,-0.183266 z m -0.368599,1.959471 c 0.09845,-0.13065 0.314736,-0.141539 0.420902,-0.01525 a 0.28738461,0.28738461 0 0 1 0.02236,0.348819 2.6527811,2.6527811 0 0 1 -0.395431,0.5847 c -0.127218,0.105349 -0.344088,0.06339 -0.415593,-0.08772 -0.0061,-0.01065 -0.0091,-0.02253 -0.01475,-0.03338 -0.04431,-0.112045 0.0033,-0.238731 0.08452,-0.320646 a 3.1501776,3.1501776 0 0 0 0.29799,-0.47653 m -1.061976,1.292031 c 0.115925,-0.125817 0.346364,-0.09891 0.43059,0.0512 a 0.28738461,0.28738461 0 0 1 -0.04242,0.343515 4.9739645,4.9739645 0 0 1 -0.807269,0.820551 c -0.09443,0.07593 -0.20422,0.158095 -0.308105,0.231303 -0.188553,0.132047 -0.385775,0.254494 -0.581621,0.365644 -0.293266,0.165031 -0.602514,0.315673 -0.904114,0.476333 a 0.27633137,0.27633137 0 0 1 -0.396401,-0.146213 0.28406864,0.28406864 0 0 1 0.1648,-0.355037 c 0.533114,-0.280927 1.083282,-0.538954 1.562355,-0.908884 a 4.5871006,4.5871006 0 0 0 0.881679,-0.878208"
         style="display:inline;stroke-width:0.857543;stroke-dasharray:none"
         id="path5"
         sodipodi:insensitive="true" /></g></g></svg>
