<svg xmlns="http://www.w3.org/2000/svg" xml:space="preserve" width="100" height="100"><g style="stroke-width:5.1111" transform="matrix(.19565 0 0 .19565 5 5)"><path d="M46.16 275.894c-.002.219-.012.024-.012.293 0-.098.01-.196.012-.293M210.514 336.082c-2.158 3.488-.534 1.409-33.41 37.639l9.021 38.445c2.594 11.052 13.658 17.918 24.717 15.32 11.056-2.594 17.916-13.66 15.321-24.716z" style="stroke-width:5.1111"/><circle cx="85.69" cy="69.788" r="37.821" style="stroke-width:5.1111"/><path d="M334.799 80.148a13.01 13.01 0 0 0-13.057 7.54l-61.48 134.064h-46.516c4.321-3.36 6.965-8.725 6.598-14.6-.588-9.446-8.744-16.627-18.168-16.037l-59.16 3.688-33.573-44.276 26.823 20.96-1.502-22.626c-.934-14.079-13.106-24.734-27.186-23.8l-45.46 3.015c-14.08.934-24.738 13.106-23.804 27.186l5.516 83.133c3.175 46.747 2.253 44.44 4.838 48.738 4.335 7.205 10.568 8.187 10.568 8.187h-46.21C5.83 295.32 0 301.153 0 308.346c0 7.194 5.832 13.023 13.025 13.023h48.09v76.125a36.7 36.7 0 0 1 8.201-14.828l17.848-19.67V321.37h35.334v.004l17.84 7.348-58.92 64.931c-7.632 8.41-7 21.413 1.41 29.045 8.427 7.646 21.427 6.984 29.045-1.41l78.596-86.611a20.564 20.564 0 0 0-7.397-32.832l-80.312-33.076-.006-.008.006.004c94.867 19.694 90.615 18.135 97.168 22.203-5.615-23.93-4.407-18.797-4.696-19.922l16.866 23.031a14.74 14.74 0 0 0 11.898 6.035h170.076v113.172c0 8.146 6.603 14.748 14.748 14.748 8.146 0 14.75-6.603 14.75-14.748V300.111h21.68c8.146 0 14.748-6.603 14.748-14.748V236.5c.001-8.144-6.6-14.748-14.746-14.748h-2.824c-.336-27.025-14.952-59.709-68.504-87.348-15.582-8.043-25.281-34.807-27.7-44.42a13.03 13.03 0 0 0-11.425-9.836m-2.067 46.07c6.506 11.985 16 24.5 29.245 31.337 35.488 18.316 53.696 39.865 54.336 64.199l-127.391-.002zM82.137 171.235l39.12 51.594a17.14 17.14 0 0 0 13.653 6.783c.865 0-1.85.147 42.016-2.586a14.7 14.7 0 0 0-1.86 2.803 14.75 14.75 0 0 0 .622 14.443c.525.845.132.26 10.527 14.456-3.45-2.153-7.146-3.133-10.885-3.133h-33.484l-.61-9.174c-5.325.332-2.828.175-11.353.707-9.89.616-18.696-5.27-22.28-13.943z" style="stroke-width:5.1111"/></g></svg>