<?xml version="1.0" encoding="UTF-8" standalone="no"?>
<svg
   xml:space="preserve"
   width="50"
   height="100"
   version="1.1"
   id="svg5"
   sodipodi:docname="human_oboe_1.svg"
   inkscape:version="1.4 (e7c3feb1, 2024-10-09)"
   xmlns:inkscape="http://www.inkscape.org/namespaces/inkscape"
   xmlns:sodipodi="http://sodipodi.sourceforge.net/DTD/sodipodi-0.dtd"
   xmlns="http://www.w3.org/2000/svg"
   xmlns:svg="http://www.w3.org/2000/svg"><defs
   id="defs5">
        
    
        
        
    </defs><sodipodi:namedview
   id="namedview5"
   pagecolor="#ffffff"
   bordercolor="#000000"
   borderopacity="0.25"
   inkscape:showpageshadow="2"
   inkscape:pageopacity="0.0"
   inkscape:pagecheckerboard="0"
   inkscape:deskcolor="#d1d1d1"
   inkscape:current-layer="svg5" />
    <path
   d="m 11.595367,13.732336 -4.7970003,-2.992 4.6680003,2.895 2.341,-2.333 -3.05,-4.8240004 3.05,4.8240004 3.773,-1.3750004 -0.693,-6.193 0.853,6.2810004 3.058,0.107 1.544,-7.1350004 -1.55,7.0860004 3.093,1.42 3.678,-5.3640004 -3.553,5.3890004 m 2.523,4.407 c 1.23,4.308 -1.29,8.804 -5.629,10.042 -4.339,1.238 -8.852,-1.25 -10.081,-5.558 -3.0760003,-10.7740004 12.858,-14.4780004 15.709,-4.482"
   style="display:inline;fill:#ffffff;stroke:#000000;stroke-width:2.00001;stroke-linecap:round;stroke-linejoin:round;stroke-miterlimit:4.7;stroke-dasharray:none;stroke-opacity:1"
   id="path1" />
    <path
   d="m 30.752367,49.322336 -19.327,-4.754 9.877,-14.091 m 0.235,0.236 15.109,5.11 0.366,11.882"
   style="display:inline;fill:none;stroke:#000000;stroke-width:3.00001;stroke-linecap:round;stroke-linejoin:round;stroke-miterlimit:4.7;stroke-dasharray:none;stroke-opacity:1"
   id="path2" />
    <path
   d="M 40.636184,94.866344 35.517609,92.931595 34.597379,75.974084 23.250058,59.770962 11.6604,76.33502 12.125427,94.70376 5.5053378,96.118241 M 21.064103,30.71395 23.012632,60.487958"
   style="display:inline;fill:none;stroke:#000000;stroke-width:3.00001;stroke-linecap:round;stroke-linejoin:round;stroke-miterlimit:4.7;stroke-dasharray:none;stroke-opacity:1"
   id="path3" />
    <path
   d="m 40.889633,67.828951 c 0.07853,0.141192 0.298471,0.226311 0.466167,0.132958 l 0.674571,-0.375169 5.012038,-2.788017 c 0.0838,-0.0466 0.138852,-0.120794 0.16301,-0.205494 a 0.33915199,0.33915199 0 0 0 -0.03018,-0.260425 l -7.5e-5,-1.35e-4 c -0.0934,-0.167935 -0.298268,-0.226424 -0.465964,-0.13307 l -0.216437,0.120373 a 0.23532523,0.23532523 0 0 1 -0.307533,-0.07133 l -4.105171,-5.90835 a 0.23123999,0.23123999 0 0 1 -0.01244,-0.01998 l -1.578187,-2.837658 a 0.23532523,0.23532523 0 0 1 0.09128,-0.320037 l 0.168407,-0.09366 c 0.08393,-0.04668 0.138957,-0.120764 0.163085,-0.20536 a 0.33915199,0.33915199 0 0 0 -0.03005,-0.260672 l -7.5e-5,-1.35e-4 c -0.09336,-0.167868 -0.298328,-0.226214 -0.466092,-0.132823 l -0.168407,0.09366 a 0.23532523,0.23532523 0 0 1 -0.320037,-0.09128 L 39.365502,53.46177 a 0.23532523,0.23532523 0 0 1 0.09128,-0.320037 l 0.168542,-0.09374 a 0.33915199,0.33915199 0 0 0 0.16295,-0.205285 0.33915199,0.33915199 0 0 0 -0.02998,-0.260537 l -7.5e-5,-1.35e-4 c -0.09336,-0.167868 -0.298471,-0.226312 -0.466166,-0.132958 l -0.168407,0.09366 a 0.23532523,0.23532523 0 0 1 -0.320038,-0.09128 L 33.55815,43.021444 A 0.23532523,0.23532523 0 0 1 33.6495,42.70137 l 0.168272,-0.09359 c 0.08393,-0.04668 0.139114,-0.121117 0.163242,-0.205712 a 0.33915199,0.33915199 0 0 0 -0.03009,-0.26074 C 33.857564,41.97346 33.652453,41.915017 33.484757,42.00837 L 33.31635,42.10203 A 0.23532523,0.23532523 0 0 1 32.996313,42.01075 L 32.43442,41.000448 a 0.23532523,0.23532523 0 0 1 0.09128,-0.320037 l 0.168272,-0.09359 a 0.33915199,0.33915199 0 0 0 0.163107,-0.205637 0.33915199,0.33915199 0 0 0 -0.03009,-0.260739 c -0.09336,-0.167868 -0.298328,-0.226215 -0.466091,-0.132824 l -0.168407,0.09366 a 0.23532523,0.23532523 0 0 1 -0.320038,-0.09128 l -1.873219,-3.368139 a 0.23532523,0.23532523 0 0 1 0.09128,-0.320037 l 0.168272,-0.09359 a 0.33915199,0.33915199 0 0 0 0.163107,-0.205637 0.33915199,0.33915199 0 0 0 -0.03009,-0.26074 c -0.09336,-0.167868 -0.298328,-0.226214 -0.466092,-0.132823 l -0.168407,0.09366 a 0.23532523,0.23532523 0 0 1 -0.320037,-0.09128 l -0.693091,-1.246212 a 0.23532523,0.23532523 0 0 1 0.09128,-0.320037 l 0.168407,-0.09366 c 0.08387,-0.04664 0.138882,-0.120899 0.162972,-0.205562 a 0.33915199,0.33915199 0 0 0 -0.03009,-0.260739 c -0.0934,-0.167935 -0.298194,-0.22629 -0.465957,-0.132898 l -0.168542,0.09373 a 0.23532523,0.23532523 0 0 1 -0.320037,-0.09128 L 27.33926,31.839094 q -0.0087,-0.01546 -0.01932,-0.03062 l -2.25e-4,-4.04e-4 q 0.0063,0.0088 -0.0067,-0.0084 l -3.59e-4,-3.3e-4 q -0.01038,-0.0139 -0.01734,-0.02167 0.0018,0.0021 -0.0078,-0.0079 l -7.5e-5,-1.35e-4 c -0.0062,-0.0066 -0.01217,-0.01237 -0.01818,-0.01794 l -2.84e-4,-1.95e-4 q -0.0067,-0.006 -0.0085,-0.0074 l -5.27e-4,-5e-4 q -0.01039,-0.0089 -0.02172,-0.01685 l -3.52e-4,-1.58e-4 c -0.01725,-0.01184 -0.01842,-0.01313 -0.0044,-0.0036 l -3.6e-4,-3.29e-4 -2.134373,-1.458918 c -0.10761,-0.0736 0.01629,-0.22603 -0.09755,-0.162715 l -0.242843,0.135059 A 0.23532523,0.23532523 0 0 1 24.43842,30.144839 L 22.0983,25.936845 c -0.09317,-0.167531 -0.298359,-0.22611 -0.466294,-0.132711 -0.167935,0.0934 -0.226357,0.298231 -0.132958,0.466166 l 2.340288,4.207952 a 0.23532523,0.23532523 0 0 1 -0.09117,0.320067 l -0.24318,0.135246 c -0.113843,0.06331 0.08114,0.03805 0.08674,0.168643 l 7.5e-5,1.34e-4 0.11334,2.58258 9.8e-5,0.0014 c -9.18e-4,-0.02639 -9.85e-4,-0.02476 9.46e-4,0.005 l 8e-6,9.66e-4 a 0.30831999,0.30831999 0 0 0 0.0028,0.02641 l 1.13e-4,0.0018 0.0015,0.0089 a 0.30831999,0.30831999 0 0 0 0.0055,0.0255 l 3.3e-4,0.0012 c 0.0025,0.0092 0.0036,0.01389 0.0028,0.01116 l 1.5e-4,2.69e-4 a 0.38539999,0.38539999 64.11445 0 0 0.0095,0.02657 l 7.5e-5,1.35e-4 c 0.0052,0.0135 0.0064,0.01638 0.0026,0.0075 l 2.25e-4,4.04e-4 a 0.30831999,0.30831999 0 0 0 0.01634,0.0343 l 4.720513,8.487712 a 0.23532523,0.23532523 0 0 1 -0.09141,0.320112 l -0.16828,0.09341 c -0.167936,0.0934 -0.226395,0.298164 -0.132958,0.466166 0.09344,0.168003 0.298268,0.226425 0.466031,0.133033 l 0.168542,-0.09374 a 0.23532523,0.23532523 0 0 1 0.320037,0.09128 l 0.561832,1.010517 a 0.23532523,0.23532523 0 0 1 -0.09128,0.320038 l -0.168407,0.09366 c -0.168003,0.09344 -0.226357,0.298232 -0.132958,0.466167 0.09336,0.167868 0.298403,0.226349 0.466166,0.132958 l 0.168407,-0.09366 a 0.23532523,0.23532523 0 0 1 0.320037,0.09128 l 0.561966,1.010442 a 0.23532523,0.23532523 0 0 1 -0.09128,0.320037 l -0.168407,0.09366 c -0.167935,0.0934 -0.226424,0.298269 -0.133033,0.466032 0.09336,0.167868 0.298404,0.226349 0.466204,0.133025 l 0.168407,-0.09366 a 0.23532523,0.23532523 0 0 1 0.32,0.09121 l 0.561966,1.010442 a 0.23532523,0.23532523 0 0 1 -0.09128,0.320037 l -0.168407,0.09366 c -0.167868,0.09336 -0.226349,0.298403 -0.132958,0.466167 0.09336,0.167868 0.298403,0.226349 0.466204,0.133025 l 0.168407,-0.09366 a 0.23532523,0.23532523 0 0 1 0.32,0.09121 l 0.561966,1.010442 a 0.23532523,0.23532523 0 0 1 -0.09128,0.320037 l -0.168407,0.09366 c -0.167868,0.09336 -0.226349,0.298403 -0.132958,0.466166 0.09336,0.167868 0.298403,0.22635 0.466204,0.133026 l 0.168407,-0.09366 a 0.23532523,0.23532523 0 0 1 0.32,0.09121 l 4.950386,8.900084 q 0.0057,0.01031 0.01035,0.02114 l 2.853907,6.604251 a 0.23532523,0.23532523 0 0 1 -0.101629,0.298892 l -0.216436,0.120374 c -0.240957,0.13401 -0.211589,0.324944 -0.133026,0.466204"
   style="display:inline;fill:#ffffff;stroke-width:0.191495"
   id="path4" /><path
   id="path5"
   style="display:inline;stroke-width:0.191495"
   d="m 40.889633,67.828951 c 0.03926,0.0706 0.3823,0.179601 0.466167,0.132958 l 0.674571,-0.375169 c 0.947794,-0.527124 4.970071,-2.764676 5.012038,-2.788017 0.04197,-0.02334 0.138852,-0.120794 0.16301,-0.205494 0.02416,-0.0847 -0.0068,-0.218458 -0.03018,-0.260425 l -7.5e-5,-1.35e-4 c -0.04668,-0.08393 -0.382098,-0.179714 -0.465964,-0.13307 l -0.216437,0.120373 c -0.05281,0.02937 -0.322755,0.03927 -0.494977,-0.153361 -2.611064,-2.918974 -3.915449,-5.823179 -3.917727,-5.826323 -0.0023,-0.0031 -0.01053,-0.01655 -0.01244,-0.01998 L 40.489432,55.48265 a 0.23532523,0.23532523 0 0 1 0.09128,-0.320037 l 0.168407,-0.09366 c 0.08393,-0.04668 0.138957,-0.120764 0.163085,-0.20536 a 0.33915199,0.33915199 0 0 0 -0.03005,-0.260672 l -7.5e-5,-1.35e-4 c -0.09336,-0.167868 -0.298328,-0.226214 -0.466092,-0.132823 l -0.168407,0.09366 a 0.23532523,0.23532523 0 0 1 -0.320037,-0.09128 l -0.562041,-1.010577 a 0.23532523,0.23532523 0 0 1 0.09128,-0.320037 l 0.168542,-0.09374 a 0.33915199,0.33915199 0 0 0 0.16295,-0.205285 0.33915199,0.33915199 0 0 0 -0.02998,-0.260537 l -7.5e-5,-1.35e-4 c -0.09336,-0.167868 -0.298471,-0.226312 -0.466166,-0.132958 l -0.168407,0.09366 a 0.23532523,0.23532523 0 0 1 -0.320038,-0.09128 L 33.55815,43.021444 A 0.23532523,0.23532523 0 0 1 33.6495,42.70137 l 0.168272,-0.09359 c 0.08393,-0.04668 0.139114,-0.121117 0.163242,-0.205712 a 0.33915199,0.33915199 0 0 0 -0.03009,-0.26074 C 33.857564,41.97346 33.652453,41.915017 33.484757,42.00837 L 33.31635,42.10203 A 0.23532523,0.23532523 0 0 1 32.996313,42.01075 L 32.43442,41.000448 a 0.23532523,0.23532523 0 0 1 0.09128,-0.320037 l 0.168272,-0.09359 a 0.33915199,0.33915199 0 0 0 0.163107,-0.205637 0.33915199,0.33915199 0 0 0 -0.03009,-0.260739 c -0.09336,-0.167868 -0.298328,-0.226215 -0.466091,-0.132824 l -0.168407,0.09366 a 0.23532523,0.23532523 0 0 1 -0.320038,-0.09128 l -1.873219,-3.368139 a 0.23532523,0.23532523 0 0 1 0.09128,-0.320037 l 0.168272,-0.09359 a 0.33915199,0.33915199 0 0 0 0.163107,-0.205637 0.33915199,0.33915199 0 0 0 -0.03009,-0.26074 c -0.09336,-0.167868 -0.298328,-0.226214 -0.466092,-0.132823 l -0.168407,0.09366 a 0.23532523,0.23532523 0 0 1 -0.320037,-0.09128 l -0.693091,-1.246212 a 0.23532523,0.23532523 0 0 1 0.09128,-0.320037 l 0.168407,-0.09366 c 0.08387,-0.04664 0.138882,-0.120899 0.162972,-0.205562 a 0.33915199,0.33915199 0 0 0 -0.03009,-0.260739 c -0.0934,-0.167935 -0.298194,-0.22629 -0.465957,-0.132898 l -0.168542,0.09373 a 0.23532523,0.23532523 0 0 1 -0.320037,-0.09128 L 27.33926,31.839094 q -0.0087,-0.01546 -0.01932,-0.03062 l -2.25e-4,-4.04e-4 q 0.0063,0.0088 -0.0067,-0.0084 l -3.59e-4,-3.3e-4 q -0.01038,-0.0139 -0.01734,-0.02167 0.0017,0.0021 -0.0078,-0.0079 l -7.5e-5,-1.35e-4 c -0.0062,-0.0066 -0.01217,-0.01237 -0.01818,-0.01794 l -2.84e-4,-1.95e-4 q -0.0067,-0.006 -0.0085,-0.0074 l -5.27e-4,-5e-4 q -0.01039,-0.0089 -0.02172,-0.01685 l -3.52e-4,-1.58e-4 c -0.01725,-0.01184 -0.01842,-0.01313 -0.0044,-0.0036 l -3.6e-4,-3.29e-4 -2.134373,-1.458918 c -0.10761,-0.0736 0.01629,-0.22603 -0.09755,-0.162715 l -0.242843,0.135059 A 0.23532523,0.23532523 0 0 1 24.43842,30.144839 L 22.0983,25.936845 c -0.09317,-0.167531 -0.298359,-0.22611 -0.466294,-0.132711 -0.167935,0.0934 -0.226357,0.298231 -0.132958,0.466166 l 2.340288,4.207952 a 0.23532523,0.23532523 0 0 1 -0.09117,0.320067 l -0.24318,0.135246 c -0.113843,0.06331 0.08114,0.03805 0.08674,0.168643 l 7.5e-5,1.34e-4 0.11334,2.58258 9.8e-5,0.0014 c -9.18e-4,-0.02639 -9.85e-4,-0.02476 9.46e-4,0.005 l 8e-6,9.66e-4 a 0.30831999,0.30831999 0 0 0 0.0028,0.02641 l 1.13e-4,0.0018 0.0015,0.0089 a 0.30831999,0.30831999 0 0 0 0.0055,0.0255 l 3.3e-4,0.0012 c 0.0025,0.0092 0.0036,0.01389 0.0028,0.01116 l 1.5e-4,2.69e-4 a 0.38539999,0.38539999 64.11445 0 0 0.0095,0.02657 l 7.5e-5,1.35e-4 c 0.0052,0.0135 0.0064,0.01638 0.0026,0.0075 l 2.25e-4,4.04e-4 a 0.30831999,0.30831999 0 0 0 0.01634,0.0343 l 4.720513,8.487712 a 0.23532523,0.23532523 0 0 1 -0.09141,0.320112 l -0.16828,0.09341 c -0.167936,0.0934 -0.226395,0.298164 -0.132958,0.466166 0.09344,0.168003 0.298268,0.226425 0.466031,0.133033 l 0.168542,-0.09374 a 0.23532523,0.23532523 0 0 1 0.320037,0.09128 l 0.561832,1.010517 a 0.23532523,0.23532523 0 0 1 -0.09128,0.320038 l -0.168407,0.09366 c -0.168003,0.09344 -0.226357,0.298232 -0.132958,0.466167 0.09336,0.167868 0.298403,0.226349 0.466166,0.132958 l 0.168407,-0.09366 a 0.23532523,0.23532523 0 0 1 0.320037,0.09128 l 0.561966,1.010442 a 0.23532523,0.23532523 0 0 1 -0.09128,0.320037 l -0.168407,0.09366 c -0.167935,0.0934 -0.226424,0.298269 -0.133033,0.466032 0.09336,0.167868 0.298404,0.226349 0.466204,0.133025 l 0.168407,-0.09366 a 0.23532523,0.23532523 0 0 1 0.32,0.09121 l 0.561966,1.010442 a 0.23532523,0.23532523 0 0 1 -0.09128,0.320037 l -0.168407,0.09366 c -0.167868,0.09336 -0.226349,0.298403 -0.132958,0.466167 0.09336,0.167868 0.298403,0.226349 0.466204,0.133025 l 0.168407,-0.09366 a 0.23532523,0.23532523 0 0 1 0.32,0.09121 l 0.561966,1.010442 a 0.23532523,0.23532523 0 0 1 -0.09128,0.320037 l -0.168407,0.09366 c -0.167868,0.09336 -0.226349,0.298403 -0.132958,0.466166 0.09336,0.167868 0.298403,0.22635 0.466204,0.133026 l 0.168407,-0.09366 a 0.23532523,0.23532523 0 0 1 0.32,0.09121 l 4.950386,8.900084 a 0.38539999,0.38539999 64.11445 0 1 0.01035,0.02114 c 0.0015,0.0036 1.661243,2.493794 2.853907,6.604251 0.01683,0.05802 -0.04882,0.26952 -0.101629,0.298892 l -0.216436,0.120374 c -0.120445,0.06699 -0.172288,0.395607 -0.133026,0.466204 0.03926,0.0706 -0.03926,-0.0706 0,0 m 1.034862,-1.263411 c -1.616824,-4.183429 -2.588063,-5.988917 -2.611964,-6.04442 -0.02397,-0.05547 0.04882,-0.26952 0.101561,-0.298854 l 2.077648,-1.156031 c 0.05281,-0.02937 0.273124,0.02168 0.3076,0.0713 0.03448,0.04962 1.308293,2.559644 3.757132,5.407525 0.04535,0.05284 -0.01801,0.30619 -0.07884,0.340021 l -3.222816,1.792925 c -0.06083,0.03383 -0.305276,-0.04745 -0.330386,-0.112425 M 38.808951,59.505284 C 20.033386,26.29509 33.629663,51.035557 33.629663,51.035557 c -0.06316,-0.113574 0.473474,-0.207232 0.587048,-0.270397 l 0.485753,-0.270156 a 0.23532523,0.23532523 0 0 1 0.320037,0.09128 l 3.8401,6.904686 c 0.09336,0.167868 0.3404,0.202904 0.466167,0.132958 0.125833,-0.06998 0.138852,-0.120794 0.162972,-0.205562 a 0.33915199,0.33915199 0 0 0 -0.02994,-0.26047 l -0.46838,-0.842169 a 0.23532523,0.23532523 0 0 1 0.09128,-0.320038 l 0.485798,-0.270709 a 0.23532523,0.23532523 0 0 1 0.320037,0.09128 l 1.311254,2.357698 c 0.03158,0.05679 -0.03449,0.288455 -0.09128,0.320037 l -1.981589,1.102607 c -0.05679,0.03158 -0.288455,-0.03449 -0.320037,-0.09128 -0.03158,-0.05679 0.790331,1.397899 0,0 m -5.245224,-9.43085 -0.561966,-1.010442 a 0.23532523,0.23532523 0 0 1 0.09121,-0.32 l 0.485753,-0.270156 a 0.23532523,0.23532523 0 0 1 0.320038,0.09128 l 0.561966,1.010442 a 0.23532523,0.23532523 0 0 1 -0.09128,0.320037 l -0.485686,0.270119 a 0.23532523,0.23532523 0 0 1 -0.320037,-0.09128 m -1.123932,-2.020884 -0.561966,-1.010442 a 0.23532523,0.23532523 0 0 1 0.09121,-0.32 l 0.485753,-0.270155 a 0.23532523,0.23532523 0 0 1 0.320037,0.09128 l 0.561966,1.010442 a 0.23532523,0.23532523 0 0 1 -0.09128,0.320038 l -0.485686,0.270118 a 0.23532523,0.23532523 0 0 1 -0.320037,-0.09128 M 31.315521,46.032855 30.75363,45.022548 a 0.23532523,0.23532523 0 0 1 0.09121,-0.32 l 0.99084,-0.551063 a 0.33915199,0.33915199 0 0 0 0.163174,-0.205675 0.33915199,0.33915199 0 0 0 -0.03016,-0.260702 c -0.09336,-0.167868 -0.298261,-0.226252 -0.466092,-0.132823 l -0.990907,0.551101 a 0.23532523,0.23532523 0 0 1 -0.320037,-0.09128 L 29.629617,43.00153 a 0.23532523,0.23532523 0 0 1 0.09121,-0.32 l 0.990974,-0.551139 c 0.084,-0.04672 0.138987,-0.120869 0.163107,-0.205637 a 0.33915199,0.33915199 0 0 0 -0.03001,-0.260604 c -0.09336,-0.167868 -0.298404,-0.22635 -0.466167,-0.132958 l -0.990906,0.551101 a 0.23532523,0.23532523 0 0 1 -0.320038,-0.09128 l -4.43953,-7.982491 a 0.23532523,0.23532523 0 0 1 0.09121,-0.32 l 0.485619,-0.27008 a 0.23532523,0.23532523 0 0 1 0.320037,0.09128 l 3.221938,5.7932 c 0.09336,0.167868 0.298403,0.22635 0.466166,0.132959 a 0.33915199,0.33915199 0 0 0 0.163107,-0.205637 0.33915199,0.33915199 0 0 0 -0.03022,-0.260665 L 28.50325,37.454048 a 0.23532523,0.23532523 0 0 1 0.09128,-0.320037 l 0.485417,-0.269968 a 0.23532523,0.23532523 0 0 1 0.320037,0.09128 l 3.278134,5.894244 5.526454,9.935405 a 0.23532523,0.23532523 0 0 1 -0.09128,0.320038 l -0.485798,0.27071 a 0.23532523,0.23532523 0 0 1 -0.320037,-0.09128 l -4.21482,-7.57845 c -0.09336,-0.167868 -0.29847,-0.226312 -0.466166,-0.132958 l -0.990907,0.551101 a 0.23532523,0.23532523 0 0 1 -0.320105,-0.09124 z M 24.58677,31.116625 c 0.595982,-0.312057 1.487479,0.644501 1.487479,0.644501 0.144359,0.09876 0.134426,0.314813 -0.01838,0.399887 l -1.619536,0.900719 c -0.448545,-0.722138 -0.44555,-1.633222 0.150537,-1.945249 m 13.844611,24.188525 -0.561966,-1.010442 a 0.23532523,0.23532523 0 0 1 0.09121,-0.32 l 0.485865,-0.270747 a 0.23532523,0.23532523 0 0 1 0.31997,0.09132 l 0.561966,1.010442 a 0.23532523,0.23532523 0 0 1 -0.09121,0.32 l -0.485865,0.270747 a 0.23532523,0.23532523 0 0 1 -0.31997,-0.09132 M 27.941718,36.443277 27.248701,35.1972 a 0.23532523,0.23532523 0 0 1 0.09121,-0.32 l 0.485416,-0.269968 a 0.23532523,0.23532523 0 0 1 0.320038,0.09128 l 0.693016,1.246077 a 0.23532523,0.23532523 0 0 1 -0.09128,0.320038 l -0.485416,0.269968 a 0.23532523,0.23532523 0 0 1 -0.31997,-0.09132 M 26.686661,34.186623 26.12477,33.176316 a 0.23532523,0.23532523 0 0 1 0.09121,-0.32 l 0.485416,-0.269968 a 0.23532523,0.23532523 0 0 1 0.320038,0.09128 l 0.561891,1.010307 a 0.23532523,0.23532523 0 0 1 -0.09128,0.320037 l -0.485416,0.269969 a 0.23532523,0.23532523 0 0 1 -0.31997,-0.09132" />
</svg>
