<svg xmlns="http://www.w3.org/2000/svg" xml:space="preserve" width="100" height="75">
    <path d="M30.575 10.892v27.677l9.82-.014-.018-27.663zm13.035 4.913.016 22.748 50.596-.066-2.924-3.928c-.497-.216-1.483-.538-2.94-.87-1.59-.364-3.608-.758-5.897-1.21-4.578-.903-10.246-2.04-15.937-3.694s-11.41-3.816-16.133-6.851c-2.665-1.713-4.967-3.765-6.78-6.13M30.782 42.678v4.881h9.713l.001-4.881zm12.945 0-.001 4.881h47.017l-.011-4.881Zm50.236 0 .01 4.881h1.81v-4.881zm-7.107 6.487h.839c.244 0 .442.03.442.068l-.084 3.744s.978.807-.04 1.752l-.072 3.25s1.056.667-.03 1.359l-.203 9.06-.013-.005h-.839l-.014.006-.201-9.02c-.906-.766-.031-1.394-.031-1.394l-.072-3.2c-1.063-1.02-.04-1.807-.04-1.807l-.084-3.745c0-.038.197-.068.442-.068m-48.323 0h.838c.245 0 .442.03.442.068l-.084 3.744s.978.807-.039 1.752l-.072 3.25s1.055.667-.03 1.359l-.203 9.06-.014-.005h-.838l-.014.006-.202-9.02c-.905-.766-.03-1.394-.03-1.394l-.072-3.2c-1.064-1.02-.04-1.807-.04-1.807l-.084-3.745c-.001-.038.197-.068.442-.068m3.478-9.226-.02-30.642M28.96 40.18V9.28h13.042c5.23 18.886 44.604 21.026 50.3 23.922l5.129 6.891zm13.152 1.036-.002 7.843m50.233-7.895.02 7.895m-62.755-7.993h67.348c.245 0 .442.03.442.068V49.1c0 .038-.197.068-.442.068H29.608c-.245 0-.442-.03-.442-.068v-7.966c0-.038.197-.068.442-.068" style="fill:none;stroke:#000;stroke-width:.999999;stroke-linecap:round;stroke-linejoin:round;stroke-miterlimit:4.7;stroke-dasharray:none"/>
    <g transform="translate(10.764 -12.826)">
        <g style="display:inline;stroke-width:1.83867;stroke-dasharray:none">
            <path d="m44.524 27.836.908 13.976" style="fill:none;stroke:#000;stroke-width:1.83867;stroke-linecap:round;stroke-linejoin:round;stroke-miterlimit:4.7;stroke-dasharray:none;stroke-opacity:1" transform="matrix(1.63742 0 0 1.62584 -68.379 -6.484)"/>
            <path d="m56.655 54.184-3.663-.491-1.048-10.095-6.482-1.724 6.545 1.695-7.216 10.069 2.815.7" style="display:inline;fill:none;stroke:#000;stroke-width:1.83867;stroke-linecap:round;stroke-linejoin:round;stroke-miterlimit:4.7;stroke-dasharray:none;stroke-opacity:1" transform="matrix(1.63742 0 0 1.62584 -68.379 -6.484)"/>
        </g>
        <circle cx="3.81" cy="27.973" r="6.801" style="fill:#fff;fill-opacity:1;stroke:#000;stroke-width:2;stroke-linecap:round;stroke-linejoin:round;stroke-miterlimit:4.7;stroke-dasharray:none;stroke-opacity:1"/>
    </g>
    <path d="m28.742 41.189-9.132-5.972-3.954-9.489 3.947 9.51 10.634 1.677M9.833 51.681l18.532-.378m-16.248.422v16.298" style="fill:none;fill-opacity:1;stroke:#000;stroke-width:3;stroke-linecap:round;stroke-linejoin:round;stroke-miterlimit:4.7;stroke-dasharray:none;stroke-opacity:1"/>
    <circle cx="7.634" cy="7.514" r="2.36" style="fill:#fff;fill-opacity:1;stroke:#000;stroke-width:2;stroke-linecap:round;stroke-linejoin:round;stroke-miterlimit:4.7;stroke-dasharray:none;stroke-opacity:1"/>
</svg>
