<svg xmlns="http://www.w3.org/2000/svg" xml:space="preserve" width="100" height="100"><path d="m48.924 33.558 31.499 23.613" style="display:inline;fill:none;stroke:#000;stroke-width:3;stroke-linecap:round;stroke-linejoin:round;stroke-miterlimit:4.7;stroke-dasharray:none;stroke-opacity:1" transform="translate(-.783 4.782)"/><g style="display:inline;stroke-width:1.83867;stroke-dasharray:none"><path d="m43.407 27.529 2.165 17.53" style="fill:none;stroke:#000;stroke-width:1.83867;stroke-linecap:round;stroke-linejoin:round;stroke-miterlimit:4.7;stroke-dasharray:none;stroke-opacity:1" transform="matrix(1.63742 0 0 1.62584 -22.934 -6.417)"/><path d="m55.906 62.072-3.415-.464 1.22-11.798-8.14-4.75-14.604 3.487.703 13.919-3.43-.497" style="display:inline;fill:none;stroke:#000;stroke-width:1.83867;stroke-linecap:round;stroke-linejoin:round;stroke-miterlimit:4.7;stroke-dasharray:none;stroke-opacity:1" transform="matrix(1.63742 0 0 1.62584 -22.934 -6.417)"/><path d="m37.473 19.149-2.377-3.57 3.39 1.25-.972-3.872 3.37 2.239.374-3.927 1.786 3.993 1.545-4.452.732 4.38 2.457-2.447-1.244 4.527m.615 1.498a5.01 5.01 0 0 1-3.438 6.176 4.967 4.967 0 0 1-6.157-3.418c-.75-2.65.904-5.155 3.554-5.916s5.29.508 6.041 3.158" style="display:inline;fill:none;stroke:#000;stroke-width:1.22578;stroke-linecap:round;stroke-linejoin:round;stroke-miterlimit:4.7;stroke-dasharray:none;stroke-opacity:1" transform="matrix(1.63742 0 0 1.62584 -22.934 -6.417)"/></g><path d="M48.14 38.34 26.95 54.97" style="fill:#fff;stroke:#000;stroke-width:3;stroke-linecap:round;stroke-linejoin:round;stroke-miterlimit:4.7;stroke-dasharray:none"/><g style="display:inline;stroke-width:1.0621"><path d="M49.709 34.367a.44.44 0 0 0-.297.139 34 34 0 0 0-1.555 1.803 33 33 0 0 0-1.92-1.413.436.436 0 0 0-.595.102 34 34 0 0 0-1.352 1.97 33 33 0 0 0-2.084-1.183.436.436 0 0 0-.578.168 35 35 0 0 0-1.135 2.123 32 32 0 0 0-2.23-.933s-.207-.039-.31.002l-13.458 5.183a2.37 2.37 0 0 0-1.355 3.059l9.898 25.691a2.38 2.38 0 0 0 2.21 1.516 2.4 2.4 0 0 0 .849-.158l13.46-5.186c1.48-.57 3.034-.637 4.442-.205.319.098.624.233.918.39l3.16 1.692a2.4 2.4 0 0 0 1.114.28 2.36 2.36 0 0 0 2.088-1.253l12.974-24.283c.321-.6.37-1.295.131-1.94a2.44 2.44 0 0 0-1.15-1.286l-3.42-1.829a.44.44 0 0 0-.332-.033c-.02.006-2.096.76-2.274.828a35 35 0 0 0-.877-2.23.436.436 0 0 0-.556-.233 33 33 0 0 0-2.207.936 34 34 0 0 0-1.114-2.113.436.436 0 0 0-.582-.17 33 33 0 0 0-2.07 1.181 34 34 0 0 0-1.336-1.97.436.436 0 0 0-.598-.102 34 34 0 0 0-1.916 1.406 34 34 0 0 0-1.545-1.804.436.436 0 0 0-.605-.033 34 34 0 0 0-1.744 1.613 33 33 0 0 0-1.74-1.62.44.44 0 0 0-.309-.105" style="display:inline;fill:#fff;stroke-width:1.0621" transform="translate(7.783 6.231)scale(.94153)"/><path d="M74.084 41.93a2.44 2.44 0 0 0-1.15-1.286l-3.42-1.828a.44.44 0 0 0-.332-.032c-.02.006-2.096.758-2.273.826a35 35 0 0 0-.878-2.229.436.436 0 0 0-.556-.233 33 33 0 0 0-2.207.936 34 34 0 0 0-1.114-2.114.436.436 0 0 0-.581-.17 33 33 0 0 0-2.07 1.182 34 34 0 0 0-1.337-1.97.436.436 0 0 0-.598-.102 34 34 0 0 0-1.915 1.407 34 34 0 0 0-1.545-1.804.436.436 0 0 0-.606-.035 34 34 0 0 0-1.743 1.614 33 33 0 0 0-1.74-1.619.436.436 0 0 0-.606.034 34 34 0 0 0-1.555 1.802 33 33 0 0 0-1.92-1.413.436.436 0 0 0-.597.102 34 34 0 0 0-1.35 1.971 33 33 0 0 0-2.085-1.184.436.436 0 0 0-.579.168 35 35 0 0 0-1.134 2.123 32 32 0 0 0-2.23-.934s-.206-.038-.31.002l-13.457 5.185a2.37 2.37 0 0 0-1.357 3.059l9.9 25.69a2.38 2.38 0 0 0 2.207 1.516 2.4 2.4 0 0 0 .85-.159l13.461-5.185c1.48-.57 3.034-.638 4.443-.206.318.098.623.234.917.391l3.16 1.691a2.4 2.4 0 0 0 1.113.28 2.36 2.36 0 0 0 2.088-1.252l12.976-24.282c.32-.6.369-1.297.13-1.941m-5.673-1.974-11.04 20.66 9.588-20.095c.274-.1 1.238-.484 1.452-.565m-2.24.19L54.544 64.519l8.87-25.537a32 32 0 0 1 1.983-.867 34 34 0 0 1 .776 2.032m-4.567-3.376a33 33 0 0 1 .987 1.92l-8.506 24.485 5.663-25.318a32 32 0 0 1 1.856-1.087m-3.894-.9a33 33 0 0 1 1.188 1.793l-6.046 27.032 3.142-27.534a32 32 0 0 1 1.716-1.29m-3.96-.454a33 33 0 0 1 1.378 1.645l-3.063 26.84.158-27.04a33 33 0 0 1 1.528-1.445m-3.985-.006a32 32 0 0 1 1.585 1.51l-.16 27.266-2.812-27.132a33 33 0 0 1 1.387-1.644m-3.972.445a32 32 0 0 1 1.718 1.294l2.953 28.485-5.924-27.903a33 33 0 0 1 1.253-1.876m-3.92.897a32 32 0 0 1 1.788 1.04l5.892 27.752-8.688-26.859a34 34 0 0 1 1.007-1.933m-1.831 2.216 6.368 19.688-7.836-20.336a31 31 0 0 1 1.468.648m-9.514 1.853 3.217-1.24 10.973 28.48-3.217 1.24zm-6.02 2.32 5.206-2.006.39 1.012-6.545 2.522a1.496 1.496 0 0 1 .95-1.529m-.69 2.363 6.598-2.542 9.567 24.827-6.6 2.543zm11.663 26.117a1.5 1.5 0 0 1-.537.1c-.473 0-.913-.23-1.192-.597l6.545-2.521.39 1.012zm10.05-3.873L34.559 39.27l3.001-1.156 10.973 28.48Zm27.652-24.288L60.209 67.743a1.49 1.49 0 0 1-1.319.79q-.372 0-.702-.176l-3.084-1.648 14.384-26.918 3.083 1.648a1.48 1.48 0 0 1 .726.884 1.5 1.5 0 0 1-.112 1.138m-5.213 2.125a.47.47 0 0 1-.469.469.47.47 0 0 1-.468-.469.47.47 0 0 1 .468-.469.47.47 0 0 1 .47.469m-.79 1.475a.47.47 0 0 1-.468.47.47.47 0 0 1-.469-.47.47.47 0 0 1 .469-.468.47.47 0 0 1 .469.468m-.789 1.476a.47.47 0 0 1-.468.469.47.47 0 0 1-.47-.47.47.47 0 0 1 .47-.468.47.47 0 0 1 .468.469m-.788 1.475a.47.47 0 0 1-.469.469.47.47 0 0 1-.468-.469.47.47 0 0 1 .468-.468.47.47 0 0 1 .469.468m3.648-4.676a.47.47 0 0 1-.469.469.47.47 0 0 1-.468-.47.47.47 0 0 1 .468-.468.47.47 0 0 1 .47.469m-.79 1.475a.47.47 0 0 1-.468.469.47.47 0 0 1-.469-.469.47.47 0 0 1 .47-.469.47.47 0 0 1 .468.47m-.788 1.475a.47.47 0 0 1-.47.468.47.47 0 0 1-.468-.468.47.47 0 0 1 .469-.47.47.47 0 0 1 .469.47m-.789 1.475a.47.47 0 0 1-.469.469.47.47 0 0 1-.468-.469.47.47 0 0 1 .468-.469.47.47 0 0 1 .47.469m-.79 1.475a.47.47 0 0 1-.468.47.47.47 0 0 1-.469-.47.47.47 0 0 1 .47-.468.47.47 0 0 1 .468.468m4.447-6.169a.47.47 0 0 1-.469.469.47.47 0 0 1-.468-.469.47.47 0 0 1 .468-.469.47.47 0 0 1 .47.47m-.79 1.474a.47.47 0 0 1-.468.47.47.47 0 0 1-.469-.47.47.47 0 0 1 .47-.468.47.47 0 0 1 .468.468m-.789 1.476a.47.47 0 0 1-.468.469.47.47 0 0 1-.469-.469.47.47 0 0 1 .469-.469.47.47 0 0 1 .468.469m-.788 1.475a.47.47 0 0 1-.469.47.47.47 0 0 1-.468-.47.47.47 0 0 1 .468-.468.47.47 0 0 1 .47.468m-.79 1.476a.47.47 0 0 1-.468.468.47.47 0 0 1-.469-.468.47.47 0 0 1 .469-.469.47.47 0 0 1 .469.469m4.436-6.152a.47.47 0 0 1-.469.469.47.47 0 0 1-.468-.47.47.47 0 0 1 .468-.468.47.47 0 0 1 .47.469m-.789 1.475a.47.47 0 0 1-.469.469.47.47 0 0 1-.468-.469.47.47 0 0 1 .468-.468.47.47 0 0 1 .469.468m-.788 1.476a.47.47 0 0 1-.47.468.47.47 0 0 1-.468-.468.47.47 0 0 1 .469-.469.47.47 0 0 1 .469.469m-.789 1.475a.47.47 0 0 1-.468.469.47.47 0 0 1-.47-.469.47.47 0 0 1 .47-.469.47.47 0 0 1 .468.47m-.788 1.474a.47.47 0 0 1-.469.47.47.47 0 0 1-.469-.47.47.47 0 0 1 .47-.468.47.47 0 0 1 .468.468m-.789 1.476a.47.47 0 0 1-.468.469.47.47 0 0 1-.469-.469.47.47 0 0 1 .469-.469.47.47 0 0 1 .468.469m-3.084-.708a.47.47 0 0 1-.469.469.47.47 0 0 1-.468-.469.47.47 0 0 1 .468-.469.47.47 0 0 1 .47.47m-.79 1.474a.47.47 0 0 1-.468.47.47.47 0 0 1-.469-.47.47.47 0 0 1 .469-.468.47.47 0 0 1 .469.468m-.789 1.476a.47.47 0 0 1-.468.469.47.47 0 0 1-.469-.47.47.47 0 0 1 .469-.468.47.47 0 0 1 .468.469m-.788 1.475a.47.47 0 0 1-.469.47.47.47 0 0 1-.468-.47.47.47 0 0 1 .468-.468.47.47 0 0 1 .47.468m-.79 1.476a.47.47 0 0 1-.468.468.47.47 0 0 1-.469-.468.47.47 0 0 1 .469-.469.47.47 0 0 1 .469.469m-.789 1.475a.47.47 0 0 1-.468.469.47.47 0 0 1-.47-.469.47.47 0 0 1 .47-.469.47.47 0 0 1 .468.47m-.788 1.475a.47.47 0 0 1-.469.468.47.47 0 0 1-.469-.468.47.47 0 0 1 .47-.47.47.47 0 0 1 .468.47m-.788 1.475a.47.47 0 0 1-.47.469.47.47 0 0 1-.468-.47.47.47 0 0 1 .469-.468.47.47 0 0 1 .469.469m6.013-9.103a.47.47 0 0 1-.469.469.47.47 0 0 1-.469-.469.47.47 0 0 1 .47-.469.47.47 0 0 1 .468.47m-.788 1.475a.47.47 0 0 1-.47.468.47.47 0 0 1-.468-.468.47.47 0 0 1 .469-.469.47.47 0 0 1 .469.469m-.789 1.475a.47.47 0 0 1-.469.469.47.47 0 0 1-.468-.469.47.47 0 0 1 .468-.469.47.47 0 0 1 .47.47m-.79 1.474a.47.47 0 0 1-.468.47.47.47 0 0 1-.469-.47.47.47 0 0 1 .47-.468.47.47 0 0 1 .468.468m-.789 1.476a.47.47 0 0 1-.468.469.47.47 0 0 1-.469-.47.47.47 0 0 1 .469-.468.47.47 0 0 1 .468.469m-.788 1.475a.47.47 0 0 1-.469.47.47.47 0 0 1-.468-.47.47.47 0 0 1 .468-.468.47.47 0 0 1 .47.468m-.79 1.476a.47.47 0 0 1-.468.468.47.47 0 0 1-.469-.468.47.47 0 0 1 .469-.469.47.47 0 0 1 .469.469m-.789 1.475a.47.47 0 0 1-.468.469.47.47 0 0 1-.47-.469.47.47 0 0 1 .47-.469.47.47 0 0 1 .468.47m6.813-10.596a.47.47 0 0 1-.469.468.47.47 0 0 1-.469-.468.47.47 0 0 1 .47-.47.47.47 0 0 1 .468.47m-.788 1.475a.47.47 0 0 1-.47.469.47.47 0 0 1-.468-.469.47.47 0 0 1 .469-.469.47.47 0 0 1 .469.469m-.789 1.475a.47.47 0 0 1-.469.47.47.47 0 0 1-.468-.47.47.47 0 0 1 .468-.468.47.47 0 0 1 .47.468m-.79 1.476a.47.47 0 0 1-.468.469.47.47 0 0 1-.469-.47.47.47 0 0 1 .469-.468.47.47 0 0 1 .469.469m-.789 1.475a.47.47 0 0 1-.468.469.47.47 0 0 1-.469-.469.47.47 0 0 1 .469-.468.47.47 0 0 1 .468.468m-.788 1.476a.47.47 0 0 1-.469.468.47.47 0 0 1-.468-.468.47.47 0 0 1 .468-.47.47.47 0 0 1 .469.47m-.788 1.475a.47.47 0 0 1-.47.469.47.47 0 0 1-.468-.469.47.47 0 0 1 .469-.469.47.47 0 0 1 .469.469m-.789 1.475a.47.47 0 0 1-.469.47.47.47 0 0 1-.468-.47.47.47 0 0 1 .468-.468.47.47 0 0 1 .47.468m-.79 1.476a.47.47 0 0 1-.468.469.47.47 0 0 1-.469-.47.47.47 0 0 1 .47-.468.47.47 0 0 1 .468.469M67.09 53.67a.47.47 0 0 1-.47.469.47.47 0 0 1-.468-.47.47.47 0 0 1 .469-.468.47.47 0 0 1 .469.469m-.789 1.475a.47.47 0 0 1-.468.469.47.47 0 0 1-.47-.469.47.47 0 0 1 .47-.469.47.47 0 0 1 .468.47m-.788 1.475a.47.47 0 0 1-.469.468.47.47 0 0 1-.468-.468.47.47 0 0 1 .468-.47.47.47 0 0 1 .469.47m-.788 1.475a.47.47 0 0 1-.47.469.47.47 0 0 1-.468-.469.47.47 0 0 1 .469-.469.47.47 0 0 1 .469.469m-.789 1.475a.47.47 0 0 1-.469.47.47.47 0 0 1-.468-.47.47.47 0 0 1 .468-.468.47.47 0 0 1 .47.468m-.79 1.476a.47.47 0 0 1-.468.469.47.47 0 0 1-.469-.47.47.47 0 0 1 .469-.468.47.47 0 0 1 .469.469m-.789 1.475a.47.47 0 0 1-.468.469.47.47 0 0 1-.469-.469.47.47 0 0 1 .469-.468.47.47 0 0 1 .468.468m-.788 1.476a.47.47 0 0 1-.469.468.47.47 0 0 1-.468-.468.47.47 0 0 1 .468-.47.47.47 0 0 1 .47.47m-.79 1.475a.47.47 0 0 1-.468.469.47.47 0 0 1-.469-.469.47.47 0 0 1 .469-.469.47.47 0 0 1 .469.469m-23.348 1.774a.686.686 0 0 1-.686.686.686.686 0 0 1-.686-.686.686.686 0 0 1 .686-.686.686.686 0 0 1 .686.686m-.88-2.284a.686.686 0 0 1-.686.686.686.686 0 0 1-.685-.686.686.686 0 0 1 .685-.686.686.686 0 0 1 .686.686m-.88-2.284a.686.686 0 0 1-.686.686.686.686 0 0 1-.685-.686.686.686 0 0 1 .685-.686.686.686 0 0 1 .686.686m-.88-2.284a.686.686 0 0 1-.686.686.686.686 0 0 1-.685-.686.686.686 0 0 1 .685-.685.686.686 0 0 1 .686.685m-.88-2.283a.686.686 0 0 1-.686.685.686.686 0 0 1-.685-.685.686.686 0 0 1 .685-.686.686.686 0 0 1 .686.685m-.88-2.283a.686.686 0 0 1-.685.685.686.686 0 0 1-.686-.685.686.686 0 0 1 .685-.686.686.686 0 0 1 .686.686m-.88-2.284a.686.686 0 0 1-.685.686.686.686 0 0 1-.686-.686.686.686 0 0 1 .685-.686.686.686 0 0 1 .686.686m-.88-2.284a.686.686 0 0 1-.685.686.686.686 0 0 1-.686-.686.686.686 0 0 1 .686-.686.686.686 0 0 1 .685.686m-.88-2.283a.686.686 0 0 1-.685.686.686.686 0 0 1-.686-.686.686.686 0 0 1 .686-.686.686.686 0 0 1 .685.686m-.88-2.284a.686.686 0 0 1-.685.686.686.686 0 0 1-.686-.686.686.686 0 0 1 .686-.685.686.686 0 0 1 .685.685m8.818 18.879a.686.686 0 0 1-.686.686.686.686 0 0 1-.685-.686.686.686 0 0 1 .685-.686.686.686 0 0 1 .686.686m-.88-2.284a.686.686 0 0 1-.686.686.686.686 0 0 1-.685-.686.686.686 0 0 1 .685-.686.686.686 0 0 1 .686.686m-.88-2.284a.686.686 0 0 1-.685.686.686.686 0 0 1-.686-.686.686.686 0 0 1 .685-.685.686.686 0 0 1 .686.685m-.88-2.284a.686.686 0 0 1-.685.686.686.686 0 0 1-.686-.686.686.686 0 0 1 .685-.685.686.686 0 0 1 .686.685m-.88-2.283a.686.686 0 0 1-.685.685.686.686 0 0 1-.686-.685.686.686 0 0 1 .686-.686.686.686 0 0 1 .685.686m-.88-2.284a.686.686 0 0 1-.685.685.686.686 0 0 1-.686-.685.686.686 0 0 1 .686-.686.686.686 0 0 1 .685.686m-.88-2.284a.686.686 0 0 1-.685.686.686.686 0 0 1-.686-.686.686.686 0 0 1 .686-.686.686.686 0 0 1 .686.686m-.88-2.284a.686.686 0 0 1-.686.686.686.686 0 0 1-.686-.686.686.686 0 0 1 .686-.686.686.686 0 0 1 .686.686m-.88-2.284a.686.686 0 0 1-.686.686.686.686 0 0 1-.686-.686.686.686 0 0 1 .686-.685.686.686 0 0 1 .686.685m-.88-2.283a.686.686 0 0 1-.686.685.686.686 0 0 1-.686-.685.686.686 0 0 1 .686-.686.686.686 0 0 1 .686.685m5.231 21.59a.686.686 0 0 1-.685.685.686.686 0 0 1-.686-.685.686.686 0 0 1 .685-.686.686.686 0 0 1 .686.685m-.88-2.283a.686.686 0 0 1-.685.685.686.686 0 0 1-.686-.685.686.686 0 0 1 .686-.686.686.686 0 0 1 .685.686m-.88-2.284a.686.686 0 0 1-.685.686.686.686 0 0 1-.686-.686.686.686 0 0 1 .686-.686.686.686 0 0 1 .685.686m-.88-2.284a.686.686 0 0 1-.685.686.686.686 0 0 1-.686-.686.686.686 0 0 1 .686-.686.686.686 0 0 1 .686.686m-.88-2.284a.686.686 0 0 1-.686.686.686.686 0 0 1-.686-.686.686.686 0 0 1 .686-.685.686.686 0 0 1 .686.685m-.88-2.282a.686.686 0 0 1-.686.686.686.686 0 0 1-.686-.686.686.686 0 0 1 .686-.685.686.686 0 0 1 .686.685m-.88-2.283a.686.686 0 0 1-.686.685.686.686 0 0 1-.686-.685.686.686 0 0 1 .686-.686.686.686 0 0 1 .686.685m-.88-2.283a.686.686 0 0 1-.686.685.686.686 0 0 1-.686-.685.686.686 0 0 1 .686-.686.686.686 0 0 1 .686.686m-.88-2.284a.686.686 0 0 1-.686.686.686.686 0 0 1-.686-.686.686.686 0 0 1 .686-.686.686.686 0 0 1 .686.686m-.88-2.284a.686.686 0 0 1-.686.686.686.686 0 0 1-.686-.686.686.686 0 0 1 .686-.685.686.686 0 0 1 .686.685m7.021 22.228a.686.686 0 0 1-.686.686.686.686 0 0 1-.685-.686.686.686 0 0 1 .685-.685.686.686 0 0 1 .686.685M33.867 66a.686.686 0 0 1-.686.685.686.686 0 0 1-.685-.685.686.686 0 0 1 .685-.686.686.686 0 0 1 .686.685m-.88-2.283a.686.686 0 0 1-.686.685.686.686 0 0 1-.685-.685.686.686 0 0 1 .685-.686.686.686 0 0 1 .686.686m-.88-2.284a.686.686 0 0 1-.686.686.686.686 0 0 1-.685-.686.686.686 0 0 1 .685-.686.686.686 0 0 1 .686.686m-.88-2.284a.686.686 0 0 1-.685.686.686.686 0 0 1-.686-.686.686.686 0 0 1 .685-.686.686.686 0 0 1 .686.686m-.88-2.284a.686.686 0 0 1-.685.686.686.686 0 0 1-.686-.686.686.686 0 0 1 .685-.686.686.686 0 0 1 .686.686m-.88-2.284a.686.686 0 0 1-.685.686.686.686 0 0 1-.686-.686.686.686 0 0 1 .686-.685.686.686 0 0 1 .685.685m-.88-2.283a.686.686 0 0 1-.685.685.686.686 0 0 1-.686-.685.686.686 0 0 1 .686-.686.686.686 0 0 1 .685.685m-.88-2.283a.686.686 0 0 1-.685.685.686.686 0 0 1-.686-.685.686.686 0 0 1 .686-.686.686.686 0 0 1 .686.686m-.88-2.284a.686.686 0 0 1-.686.686.686.686 0 0 1-.686-.686.686.686 0 0 1 .686-.686.686.686 0 0 1 .686.686" style="display:inline;stroke-width:1.0621" transform="translate(7.783 6.231)scale(.94153)"/></g><path d="m80.423 57.171-12.695-.383" style="display:inline;fill:none;stroke:#000;stroke-width:3.00001;stroke-linecap:round;stroke-linejoin:round;stroke-miterlimit:4.7;stroke-dasharray:none;stroke-opacity:1" transform="translate(-.783 4.782)"/><path d="M37.752 63.479 26.93 54.983" style="color:#000;fill:#fff;stroke-linecap:round;stroke-linejoin:round;stroke-miterlimit:4.7;-inkscape-stroke:none"/><path d="M26.752 53.494a1.5 1.5 0 0 0-1.002.563 1.5 1.5 0 0 0 .254 2.107l10.822 8.494a1.5 1.5 0 0 0 2.106-.254 1.5 1.5 0 0 0-.254-2.105l-10.82-8.496a1.5 1.5 0 0 0-1.106-.309" style="color:#000;fill:#000;stroke-linecap:round;stroke-linejoin:round;stroke-miterlimit:4.7;-inkscape-stroke:none"/></svg>