<?xml version="1.0" encoding="UTF-8" standalone="no"?>
<!-- Uploaded to: SVG Repo, www.svgrepo.com, Generator: SVG Repo Mixer Tools -->

<svg
   fill="#000000"
   height="100"
   width="100"
   version="1.1"
   id="Capa_1"
   viewBox="0 0 100 100"
   xml:space="preserve"
   sodipodi:docname="human_piano_1.svg"
   inkscape:version="1.3.2 (091e20e, 2023-11-25)"
   xmlns:inkscape="http://www.inkscape.org/namespaces/inkscape"
   xmlns:sodipodi="http://sodipodi.sourceforge.net/DTD/sodipodi-0.dtd"
   xmlns="http://www.w3.org/2000/svg"
   xmlns:svg="http://www.w3.org/2000/svg"><defs
   id="defs1" /><sodipodi:namedview
   id="namedview1"
   pagecolor="#ffffff"
   bordercolor="#000000"
   borderopacity="0.25"
   inkscape:showpageshadow="2"
   inkscape:pageopacity="0.0"
   inkscape:pagecheckerboard="0"
   inkscape:deskcolor="#d1d1d1"
   inkscape:zoom="1.855822"
   inkscape:cx="53.07621"
   inkscape:cy="56.039856"
   inkscape:window-width="1536"
   inkscape:window-height="449"
   inkscape:window-x="0"
   inkscape:window-y="25"
   inkscape:window-maximized="0"
   inkscape:current-layer="XMLID_245_" />
<g
   id="XMLID_245_"
   transform="matrix(0.1956526,0,0,0.1956526,4.9999998,4.9996681)"
   style="stroke-width:5.1111">
	<path
   id="XMLID_806_"
   d="m 46.16,275.894 c -0.002,0.219 -0.012,0.024 -0.012,0.293 0,-0.098 0.01,-0.196 0.012,-0.293 z"
   style="stroke-width:5.1111" />
	<path
   id="XMLID_889_"
   d="m 210.514,336.082 c -2.158,3.488 -0.534,1.409 -33.41,37.639 l 9.021,38.445 c 2.594,11.052 13.658,17.918 24.717,15.32 11.056,-2.594 17.916,-13.66 15.321,-24.716 z"
   style="stroke-width:5.1111" />
	<circle
   id="XMLID_891_"
   cx="85.690002"
   cy="69.788002"
   r="37.820999"
   style="stroke-width:5.1111" />
	<path
   id="XMLID_1027_"
   style="stroke-width:5.1111"
   sodipodi:type="inkscape:offset"
   inkscape:radius="0"
   inkscape:original="M 334.79883 80.148438 C 329.28483 79.621437 324.04919 82.6545 321.74219 87.6875 L 260.26172 221.75195 L 213.74609 221.75195 C 218.06709 218.39195 220.71075 213.02734 220.34375 207.15234 C 219.75575 197.70634 211.59978 190.52523 202.17578 191.11523 L 143.01562 194.80273 L 109.44336 150.52734 L 136.26562 171.48633 L 134.76367 148.86133 C 133.82967 134.78233 121.65813 124.12655 107.57812 125.06055 L 62.117188 128.07617 C 48.037188 129.01017 37.380453 141.18172 38.314453 155.26172 L 43.830078 238.39453 C 47.005078 285.14153 46.082969 282.83581 48.667969 287.13281 C 53.002969 294.33781 59.236328 295.32031 59.236328 295.32031 L 13.025391 295.32031 C 5.8313906 295.32031 0 301.1527 0 308.3457 C 0 315.5397 5.8323906 321.36914 13.025391 321.36914 L 61.115234 321.36914 L 61.115234 397.49414 C 62.611234 392.14714 65.331406 387.05702 69.316406 382.66602 L 87.164062 362.99609 L 87.164062 321.36914 L 122.49805 321.36914 L 122.49805 321.37305 L 140.33789 328.7207 L 81.417969 393.65234 C 73.785969 402.06234 74.418125 415.06527 82.828125 422.69727 C 91.255125 430.34327 104.25505 429.68111 111.87305 421.28711 L 190.46875 334.67578 C 194.96975 329.71578 196.77278 322.87289 195.30078 316.33789 C 193.82778 309.80389 189.26527 304.39475 183.07227 301.84375 L 102.75977 268.76758 C 102.75977 268.76758 102.75491 268.76077 102.75391 268.75977 L 102.75977 268.76367 C 197.62677 288.45767 193.37473 286.8988 199.92773 290.9668 C 194.31273 267.0378 195.52142 272.16992 195.23242 271.04492 L 212.09766 294.07617 C 214.87466 297.87017 219.29409 300.11133 223.99609 300.11133 L 394.07227 300.11133 L 394.07227 413.2832 C 394.07227 421.4292 400.67531 428.03125 408.82031 428.03125 C 416.96631 428.03125 423.57031 421.4282 423.57031 413.2832 L 423.57031 300.11133 L 445.25 300.11133 C 453.396 300.11133 459.99805 293.50828 459.99805 285.36328 L 459.99805 236.5 C 459.99905 228.356 453.39795 221.75195 445.25195 221.75195 L 442.42773 221.75195 C 442.09173 194.72695 427.47583 162.0433 373.92383 134.4043 C 358.34183 126.3613 348.64261 99.597375 346.22461 89.984375 C 344.89361 84.611375 340.30983 80.665438 334.79883 80.148438 z M 332.73242 126.21875 C 339.23842 138.20275 348.73156 150.71869 361.97656 157.55469 C 397.46456 175.87069 415.6725 197.41991 416.3125 221.75391 C 402.9845 221.75291 301.70888 221.75195 288.92188 221.75195 L 332.73242 126.21875 z M 82.136719 171.23438 L 121.25781 222.82812 C 124.50881 227.11613 129.57016 229.61133 134.91016 229.61133 C 135.77516 229.61133 133.05978 229.75839 176.92578 227.02539 C 176.21178 227.87639 175.58141 228.81113 175.06641 229.82812 C 172.72541 234.44413 172.9885 239.91848 175.6875 244.27148 C 176.2125 245.11648 175.81984 244.53056 186.21484 258.72656 C 182.76584 256.57356 179.06908 255.59375 175.33008 255.59375 L 141.8457 255.59375 L 141.23633 246.41992 C 135.91133 246.75192 138.40781 246.59495 129.88281 247.12695 C 119.99281 247.74295 111.18652 241.85759 107.60352 233.18359 L 82.136719 171.23438 z "
   d="m 334.79883,80.148438 c -5.514,-0.527001 -10.74964,2.506062 -13.05664,7.539062 l -61.48047,134.06445 h -46.51563 c 4.321,-3.36 6.96466,-8.72461 6.59766,-14.59961 -0.588,-9.446 -8.74397,-16.62711 -18.16797,-16.03711 l -59.16016,3.6875 -33.57226,-44.27539 26.82226,20.95899 -1.50195,-22.625 c -0.934,-14.079 -13.10554,-24.73478 -27.18555,-23.80078 l -45.460932,3.01562 c -14.08,0.934 -24.736735,13.10555 -23.802735,27.18555 l 5.515625,83.13281 c 3.175,46.747 2.252891,44.44128 4.837891,48.73828 4.335,7.205 10.568359,8.1875 10.568359,8.1875 H 13.025391 C 5.8313906,295.32031 0,301.1527 0,308.3457 c 0,7.194 5.8323906,13.02344 13.025391,13.02344 h 48.089843 v 76.125 c 1.496,-5.347 4.216172,-10.43712 8.201172,-14.82812 l 17.847656,-19.66993 v -41.62695 h 35.333988 v 0.004 l 17.83984,7.34765 -58.919921,64.93164 c -7.632,8.41 -6.999844,21.41293 1.410156,29.04493 8.427,7.646 21.426925,6.98384 29.044925,-1.41016 l 78.5957,-86.61133 c 4.501,-4.96 6.30403,-11.80289 4.83203,-18.33789 -1.473,-6.534 -6.03551,-11.94314 -12.22851,-14.49414 l -80.3125,-33.07617 c 0,0 -0.005,-0.007 -0.006,-0.008 l 0.006,0.004 c 94.867,19.694 90.61496,18.13513 97.16796,22.20313 -5.615,-23.929 -4.40631,-18.79688 -4.69531,-19.92188 l 16.86524,23.03125 c 2.777,3.794 7.19643,6.03516 11.89843,6.03516 H 394.07227 V 413.2832 c 0,8.146 6.60304,14.74805 14.74804,14.74805 8.146,0 14.75,-6.60305 14.75,-14.74805 V 300.11133 H 445.25 c 8.146,0 14.74805,-6.60305 14.74805,-14.74805 V 236.5 c 0.001,-8.144 -6.6001,-14.74805 -14.7461,-14.74805 h -2.82422 c -0.336,-27.025 -14.9519,-59.70865 -68.5039,-87.34765 -15.582,-8.043 -25.28122,-34.806925 -27.69922,-44.419925 -1.331,-5.373 -5.91478,-9.318937 -11.42578,-9.835937 z m -2.06641,46.070312 c 6.506,11.984 15.99914,24.49994 29.24414,31.33594 35.488,18.316 53.69594,39.86522 54.33594,64.19922 -13.328,-10e-4 -114.60362,-0.002 -127.39062,-0.002 z m -250.595701,45.01563 39.121091,51.59374 c 3.251,4.28801 8.31235,6.78321 13.65235,6.78321 0.865,0 -1.85038,0.14706 42.01562,-2.58594 -0.714,0.851 -1.34437,1.78574 -1.85937,2.80273 -2.341,4.61601 -2.07791,10.09036 0.62109,14.44336 0.525,0.845 0.13234,0.25908 10.52734,14.45508 -3.449,-2.153 -7.14576,-3.13281 -10.88476,-3.13281 H 141.8457 l -0.60937,-9.17383 c -5.325,0.332 -2.82852,0.17503 -11.35352,0.70703 -9.89,0.616 -18.69629,-5.26936 -22.27929,-13.94336 z" />
</g>
</svg>
