<?xml version="1.0" encoding="UTF-8" standalone="no"?>
<svg
   xml:space="preserve"
   width="100"
   height="100"
   version="1.1"
   id="svg7"
   sodipodi:docname="human_amore_1.svg"
   inkscape:version="1.3.2 (091e20e, 2023-11-25)"
   xmlns:inkscape="http://www.inkscape.org/namespaces/inkscape"
   xmlns:sodipodi="http://sodipodi.sourceforge.net/DTD/sodipodi-0.dtd"
   xmlns="http://www.w3.org/2000/svg"
   xmlns:svg="http://www.w3.org/2000/svg"><defs
     id="defs7" /><sodipodi:namedview
     id="namedview7"
     pagecolor="#ffffff"
     bordercolor="#000000"
     borderopacity="0.25"
     inkscape:showpageshadow="2"
     inkscape:pageopacity="0.0"
     inkscape:pagecheckerboard="0"
     inkscape:deskcolor="#d1d1d1"
     inkscape:current-layer="svg7" /><path
     d="M 44.765,27.006 57.462734,43.437422"
     style="display:inline;fill:none;stroke:#000000;stroke-width:3;stroke-linecap:round;stroke-linejoin:round;stroke-miterlimit:4.7;stroke-dasharray:none;stroke-opacity:1"
     transform="translate(-0.783,4.782)"
     id="path1"
     sodipodi:nodetypes="cc" /><g
     style="display:inline;stroke-width:1.83867;stroke-dasharray:none"
     id="g3"><path
       d="m44.242 23.499 1.19 18.313"
       style="fill:none;stroke:#000;stroke-width:1.83867;stroke-linecap:round;stroke-linejoin:round;stroke-miterlimit:4.7;stroke-dasharray:none;stroke-opacity:1"
       transform="matrix(1.63742 0 0 1.62584 -28.934 -6.417)"
       id="path2" /><path
       d="m56.195 62.957-3.126-1.19-.659-11.799-6.833-8.597-7.078 10.188.284 11.298-4.043.87"
       style="display:inline;fill:none;stroke:#000;stroke-width:1.83867;stroke-linecap:round;stroke-linejoin:round;stroke-miterlimit:4.7;stroke-dasharray:none;stroke-opacity:1"
       transform="matrix(1.63742 0 0 1.62584 -28.934 -6.417)"
       id="path3" /></g><path
     d="M 47.447305,42.246174 25.312383,39.351675 44.53,26.77 m 12.96585,16.647615 14.288778,-5.158612"
     style="display:inline;fill:none;stroke:#000000;stroke-width:3.00001;stroke-linecap:round;stroke-linejoin:round;stroke-miterlimit:4.7;stroke-dasharray:none;stroke-opacity:1"
     transform="translate(-0.783,4.782)"
     id="path4"
     sodipodi:nodetypes="ccccc" /><path
     d="m 34.823,10.025 -4.797,-2.992 4.668,2.895 2.341,-2.333 -3.05,-4.824 3.05,4.824 3.773,-1.375 -0.693,-6.193 0.853,6.281 3.058,0.107 1.544,-7.135 -1.55,7.086 3.093,1.42 3.678,-5.364 -3.553,5.389 m 2.523,4.407 c 1.23,4.308 -1.29,8.804 -5.629,10.042 C 39.793,23.498 35.28,21.01 34.051,16.702 30.975,5.928 46.909,2.224 49.76,12.22"
     style="display:none;fill:#ffffff;stroke:#000000;stroke-width:2.00001;stroke-linecap:round;stroke-linejoin:round;stroke-miterlimit:4.7;stroke-dasharray:none;stroke-opacity:1"
     transform="translate(-0.783,4.782)"
     id="path7" /><g
     id="g33"
     inkscape:label="amore"
     transform="matrix(-0.39152157,0.24182518,-0.24404261,-0.39040497,96.338941,49.342056)"
     style="display:inline;fill:#f9f9f9;stroke-width:2.17252;fill-opacity:1"><path
       style="fill:#f9f9f9;fill-opacity:1;stroke:#000000;stroke-width:1.73803;stroke-linecap:round;stroke-linejoin:round;stroke-miterlimit:4.7;stroke-dasharray:none;stroke-opacity:1"
       d="m 44.653582,70.631473 c -4.271812,-5.55418 -5.566523,-10.503774 0.689039,-17.795963 0,0 -5.295604,-12.611418 -7.963687,-18.477976 -0.260048,0.161602 -0.446708,0.04118 -0.527324,-0.111568 -1.75665,-3.328399 -5.202152,-13.06766 -6.833955,-17.306389 -0.261015,-0.637469 -0.724895,-1.900298 -1.138414,-2.734866 -0.08203,-0.165741 -0.361635,-0.107246 -0.511045,-0.216271 -0.383251,-0.279577 -0.747363,-0.640152 -0.928193,-1.07867 -0.105748,-0.256423 0.256337,-0.200303 0.07325,-0.617519 -0.75956,-1.730913 0.146614,-2.270879 0.854293,-2.6318057 0.835899,-0.426316 1.911313,0.2044667 2.308328,0.9428627 0.179823,0.334453 0.403839,0.158433 0.518146,0.327837 0.335785,0.497596 0.254915,1.539323 0.323405,1.771692 0.171316,0.581229 9.1e-5,0.279597 1.314098,2.947363 1.314007,2.667766 8.580657,14.373064 9.397846,16.262272 l -0.21084,0.288511 c 7.738031,15.30899 9.263341,17.25957 9.263341,17.25957 2.511731,1.26699 10.833297,-1.336759 14.438117,10.583973 -6.430792,2.690327 2.977469,13.790646 7.289425,9.882484 13.223638,14.166883 3.598746,23.668899 -2.62284,26.597904 -6.70844,3.158203 -19.447541,5.670676 -22.667164,-14.724369 6.175504,0.535036 2.313861,-14.320562 -3.065826,-11.169072 z"
       id="path1-7"
       sodipodi:nodetypes="cccscsassssaszcccccscc" /><path
       id="path7-3"
       style="fill:#f9f9f9;fill-opacity:1;stroke:#000000;stroke-width:2.17252;stroke-linecap:round;stroke-linejoin:round;stroke-miterlimit:4.7;stroke-dasharray:none;stroke-opacity:1"
       inkscape:label="nut"
       d="m 37.402076,34.414007 4.635131,-2.235203 m 14.301887,47.470835 c 4.064517,-1.112319 8.723789,-4.495372 8.723789,-4.495372"
       sodipodi:nodetypes="cccc" /></g><g
     id="g58"
     inkscape:label="amore"
     transform="matrix(-0.39152157,0.24182518,-0.24404261,-0.39040497,96.338941,49.342056)"
     style="display:inline;stroke-width:2.17252"
     sodipodi:insensitive="true"><path
       style="fill:none;fill-opacity:0.762332;stroke:#000000;stroke-width:1.73803;stroke-linecap:round;stroke-linejoin:round;stroke-miterlimit:4.7;stroke-dasharray:none;stroke-opacity:1"
       d="m 44.653582,70.631473 c -4.271812,-5.55418 -5.566523,-10.503774 0.689039,-17.795963 0,0 -5.295604,-12.611418 -7.963687,-18.477976 -0.260048,0.161602 -0.446708,0.04118 -0.527324,-0.111568 -1.75665,-3.328399 -5.202152,-13.06766 -6.833955,-17.306389 -0.261015,-0.637469 -0.724895,-1.900298 -1.138414,-2.734866 -0.08203,-0.165741 -0.361635,-0.107246 -0.511045,-0.216271 -0.383251,-0.279577 -0.747363,-0.640152 -0.928193,-1.07867 -0.105748,-0.256423 0.256337,-0.200303 0.07325,-0.617519 -0.75956,-1.730913 0.146614,-2.270879 0.854293,-2.6318057 0.835899,-0.426316 1.911313,0.2044667 2.308328,0.9428627 0.179823,0.334453 0.403839,0.158433 0.518146,0.327837 0.335785,0.497596 0.254915,1.539323 0.323405,1.771692 0.171316,0.581229 9.1e-5,0.279597 1.314098,2.947363 1.314007,2.667766 8.580657,14.373064 9.397846,16.262272 l -0.21084,0.288511 c 7.738031,15.30899 9.263341,17.25957 9.263341,17.25957 2.511731,1.26699 10.833297,-1.336759 14.438117,10.583973 -6.430792,2.690327 2.977469,13.790646 7.289425,9.882484 13.223638,14.166883 3.598746,23.668899 -2.62284,26.597904 -6.70844,3.158203 -19.447541,5.670676 -22.667164,-14.724369 6.175504,0.535036 2.313861,-14.320562 -3.065826,-11.169072 z"
       id="path27"
       sodipodi:nodetypes="cccscsassssaszcccccscc" /><path
       id="path28"
       style="color:#000000;fill:#000000;fill-opacity:1;stroke-width:2.17252;stroke-linecap:round;stroke-linejoin:round;stroke-miterlimit:4.7;-inkscape-stroke:none"
       d="m 53.310621,72.343766 c -0.06131,0 -0.154106,0.503139 -0.10212,0.943245 0.04907,0.415459 0.236902,0.86172 0.37564,1.283002 0.285706,0.867555 -0.263853,1.572103 -0.26295,2.275495 9.04e-4,0.703391 0.300224,1.099835 0.447838,1.632164 0.08698,0.313684 0.04346,0.590623 -0.05045,0.852501 -0.01595,0.04448 0.103861,0.102402 0.190951,0.174894 0.0231,0.01923 0.148376,-0.25321 0.440167,-0.130385 0.445082,0.187349 0.15975,0.701459 -0.146301,0.649842 -0.34782,-0.05866 -0.311537,-0.35792 -0.396147,-0.346327 -0.120576,0.01652 -0.25912,0.04 -0.279687,0.08135 -0.01578,0.03173 -0.03165,0.06341 -0.04745,0.09509 -0.217266,0.435721 -0.627553,0.9143 -0.627004,1.250438 4.11e-4,0.25212 -0.01672,0.542154 -0.02879,0.992102 -0.01,0.371685 -0.146617,0.886356 -0.462317,1.309024 -0.353103,0.472744 -0.786101,0.482316 -0.786101,0.482316 0,0 0.441914,-0.364092 0.597745,-0.970513 0.155831,-0.60642 -0.04185,-1.423057 0.0519,-2.084516 0.09375,-0.661459 0.64327,-1.000348 0.770564,-1.649464 0.127294,-0.649115 -0.179919,-0.987792 -0.353674,-1.789006 -0.173756,-0.801215 0.236618,-1.783455 0.352615,-2.438096 0.125776,-0.709832 -0.285054,-1.171779 -0.165753,-1.7437 0.0676,-0.324044 0.652215,-1.155318 0.481366,-0.86946 z"
       sodipodi:nodetypes="ssszsssssssssssczzzzsass" /><path
       id="path29"
       style="fill:none;fill-opacity:1;stroke:#000000;stroke-width:1.08627;stroke-linecap:round;stroke-linejoin:round;stroke-miterlimit:4.7;stroke-dasharray:none;stroke-opacity:1"
       inkscape:label="path5"
       d="m 68.728975,97.201419 c 0,0 -0.851576,-3.394664 -2.505915,-5.506609 -1.654339,-2.111945 -4.820242,-4.561812 -4.820242,-4.561812 0.752929,0.170651 3.833858,-5.812477 6.681271,-6.055923 0,0 0.67131,6.983942 1.211722,8.899679 0.540413,1.915738 2.43004,5.95834 2.43004,5.95834 M 45.395974,52.566678 52.257486,69.1303 c 1.738639,-0.971851 5.360315,-2.577725 7.733356,-3.626373 L 50.821467,48.97403"
       sodipodi:nodetypes="czcczccccc" /><path
       id="path30"
       style="fill:none;fill-opacity:1;stroke:#000000;stroke-width:2.17252;stroke-linecap:round;stroke-linejoin:round;stroke-miterlimit:4.7;stroke-dasharray:none;stroke-opacity:1"
       inkscape:label="nut"
       d="m 37.402076,34.414007 4.635131,-2.235203 m 14.301887,47.470835 c 4.064517,-1.112319 8.723789,-4.495372 8.723789,-4.495372"
       sodipodi:nodetypes="cccc" /><g
       id="g40"
       inkscape:label="strings"
       transform="matrix(1.0579534,-0.50071783,0.50037941,1.0573631,-27.234501,21.776856)"
       style="stroke-width:1.85668"><path
         style="fill:none;fill-opacity:1;stroke:#000000;stroke-width:0.464167;stroke-linecap:round;stroke-linejoin:round;stroke-miterlimit:4.7;stroke-dasharray:none;stroke-opacity:1"
         d="m 45.492393,33.247278 c -0.842996,13.883581 -1.235825,27.957248 -1.694502,42.00311 l 1.89696,8.985958"
         id="path34"
         sodipodi:nodetypes="ccc" /><path
         style="fill:none;fill-opacity:1;stroke:#000000;stroke-width:0.464167;stroke-linecap:round;stroke-linejoin:round;stroke-miterlimit:4.7;stroke-dasharray:none;stroke-opacity:1"
         d="m 46.359348,33.310622 -1.41884,42.117674 1.539635,8.450629"
         id="path35"
         sodipodi:nodetypes="ccc" /><path
         style="fill:none;fill-opacity:1;stroke:#000000;stroke-width:0.464167;stroke-linecap:round;stroke-linejoin:round;stroke-miterlimit:4.7;stroke-dasharray:none;stroke-opacity:1"
         d="m 46.877329,33.060794 -0.576067,42.724809 1.072818,7.703581"
         id="path36"
         sodipodi:nodetypes="ccc" /><path
         style="fill:none;fill-opacity:1;stroke:#000000;stroke-width:0.464167;stroke-linecap:round;stroke-linejoin:round;stroke-miterlimit:4.7;stroke-dasharray:none;stroke-opacity:1"
         d="m 47.505409,33.345921 0.275295,42.046659 0.498776,7.692477"
         id="path37"
         sodipodi:nodetypes="ccc" /><path
         style="fill:none;fill-opacity:1;stroke:#000000;stroke-width:0.464167;stroke-linecap:round;stroke-linejoin:round;stroke-miterlimit:4.7;stroke-dasharray:none;stroke-opacity:1"
         d="m 48.079826,33.405405 1.074605,42.020398 0.07066,7.318168"
         id="path38"
         sodipodi:nodetypes="ccc" /><path
         style="fill:none;fill-opacity:1;stroke:#000000;stroke-width:0.464167;stroke-linecap:round;stroke-linejoin:round;stroke-miterlimit:4.7;stroke-dasharray:none;stroke-opacity:1"
         d="m 48.641574,33.342299 1.874071,41.750733 -0.568236,7.297026"
         id="path39"
         sodipodi:nodetypes="ccc" /><path
         style="fill:none;fill-opacity:1;stroke:#000000;stroke-width:0.464167;stroke-linecap:round;stroke-linejoin:round;stroke-miterlimit:4.7;stroke-dasharray:none;stroke-opacity:1"
         d="m 49.382739,33.369934 2.277635,41.62047 -0.823286,6.898305"
         id="path40"
         sodipodi:nodetypes="ccc" /></g><path
       style="display:inline;fill:#000000;fill-opacity:1;stroke:#000000;stroke-width:0.543135;stroke-linecap:round;stroke-linejoin:round;stroke-miterlimit:4.7;stroke-dasharray:none;stroke-opacity:1"
       d="M 37.82747,33.775679 C 36.918909,31.561539 33.355445,22.892762 33.355445,22.892762 l 1.895147,-0.929295 5.718781,10.329095 z"
       id="path41"
       sodipodi:nodetypes="ccccc" /><path
       style="display:inline;fill:#000000;fill-opacity:1;stroke:#000000;stroke-width:0.543135;stroke-linecap:round;stroke-linejoin:round;stroke-miterlimit:4.7;stroke-dasharray:none;stroke-opacity:1"
       d="m 29.333999,14.746835 c -0.503377,-0.318309 -1.460415,-1.164888 -1.460415,-1.164888 -0.350344,-0.07745 -0.09417,-1.083461 -0.36427,-1.233356 -0.571691,-0.317271 0.130245,-1.923412 -0.03794,-1.597009 -0.72112,1.399491 0.944434,-4.7356923 3.301293,0.108471 0.355068,0.745226 0.499176,1.349931 0.824504,2.699772"
       id="path42"
       sodipodi:nodetypes="ccsssc"
       inkscape:label="head" /><path
       id="path43"
       style="color:#000000;fill:#000000;fill-opacity:1;stroke-width:2.17252;stroke-linecap:round;stroke-linejoin:round;stroke-miterlimit:4.7;-inkscape-stroke:none"
       d="m 61.726922,68.241824 c 0.03843,-0.04777 0.488623,0.195309 0.798949,0.511684 0.292949,0.298655 0.522919,0.724734 0.764199,1.096905 0.496874,0.766417 1.390307,0.779854 1.937795,1.221463 0.547486,0.441609 0.668756,0.923329 0.990996,1.372022 0.189888,0.264397 0.432947,0.404081 0.695856,0.495063 0.04465,0.01545 0.01469,0.145113 0.01658,0.258409 5.03e-4,0.03005 -0.290297,-0.04311 -0.377499,0.261231 -0.133016,0.464225 0.446411,0.564164 0.598035,0.293347 0.172317,-0.307776 -0.0836,-0.46709 -0.02153,-0.525748 0.08845,-0.08359 0.19359,-0.176822 0.2387,-0.166928 0.03461,0.0076 0.06925,0.01509 0.103833,0.02263 0.475684,0.103838 1.105752,0.08415 1.367312,0.295274 0.196184,0.158356 0.432905,0.32681 0.791051,0.599445 0.295869,0.225191 0.782515,0.441355 1.309729,0.460315 0.589677,0.02121 0.868551,-0.310168 0.868551,-0.310168 0,0 -0.560689,0.116098 -1.130866,-0.142607 -0.570177,-0.258704 -1.082554,-0.924619 -1.6567,-1.266194 C 68.447766,72.376396 67.839264,72.592134 67.253708,72.284433 66.668154,71.976731 66.596841,71.525072 66.081483,70.887466 65.566125,70.249859 64.543571,69.95391 63.960792,69.633943 63.328881,69.287 63.226471,68.677337 62.706073,68.411796 62.411218,68.261347 61.397071,68.195789 61.726893,68.241854 Z"
       sodipodi:nodetypes="ssszsssssssssssczzzzsass" /><g
       id="g50"
       style="stroke-width:2.17252"><path
         style="color:#000000;display:inline;fill:#000000;fill-opacity:1;stroke-width:2.17252;stroke-linecap:round;stroke-linejoin:round;stroke-miterlimit:4.7;-inkscape-stroke:none"
         d="m 32.949805,30.569616 c 0.233645,-0.175451 0.155538,-0.289933 0.247556,-0.345798 0.117762,-0.08407 0.211007,0.113053 0.321232,0.130449 0.167357,-0.07923 1.010388,-0.463553 1.177754,-0.542765 0.197884,-0.09437 0.437644,0.691926 0.404126,0.71031 0,0 -1.189248,0.522677 -1.281203,0.592507 0.0026,0.124161 0.03993,0.256774 -0.08573,0.306892 -0.125631,0.05016 -0.226091,-0.184701 -0.423711,-0.0572 9.98e-4,0.560232 -0.16154,0.765135 -0.508873,0.940798 -0.347334,0.175666 -0.82337,-0.04095 -1.113075,-0.506885 -0.0997,0.122375 -0.279569,0.152292 -0.353824,-0.05473 -0.07427,-0.207023 0.109081,-0.254359 0.234352,-0.236995 -0.11354,-0.393544 -0.165966,-0.96135 0.309151,-1.151636 0.475117,-0.190283 0.69553,-0.116134 1.072257,0.215062 z"
         id="path44"
         sodipodi:nodetypes="ccccccccscccscc" /><path
         style="color:#000000;display:inline;fill:#000000;fill-opacity:1;stroke-width:2.17252;stroke-linecap:round;stroke-linejoin:round;stroke-miterlimit:4.7;-inkscape-stroke:none"
         d="m 31.901942,27.738466 c 0.221127,-0.169454 0.143943,-0.284371 0.231272,-0.337997 0.111534,-0.08109 0.204821,0.116012 0.311031,0.135332 0.159265,-0.07535 1.382382,-0.641716 1.541656,-0.717053 0.188303,-0.08978 0.466793,0.763539 0.434954,0.781121 0,0 -1.586413,0.627323 -1.673427,0.694784 0.0048,0.123088 0.0432,0.255207 -0.07656,0.3025 -0.119732,0.04734 -0.220666,-0.187299 -0.408088,-0.06467 0.01153,0.555186 -0.14073,0.755166 -0.471057,0.922685 -0.330327,0.16752 -0.791689,-0.05612 -1.078773,-0.523315 -0.09346,0.119386 -0.265668,0.145648 -0.34091,-0.06091 -0.07524,-0.206553 0.09998,-0.250002 0.22064,-0.230428 -0.116493,-0.392128 -0.17757,-0.955792 0.275227,-1.13539 0.452798,-0.179593 0.665925,-0.101951 1.034054,0.233362 z"
         id="path45"
         sodipodi:nodetypes="ccccccccscscscc" /><path
         style="color:#000000;display:inline;fill:#000000;fill-opacity:1;stroke-width:2.17252;stroke-linecap:round;stroke-linejoin:round;stroke-miterlimit:4.7;-inkscape-stroke:none"
         d="m 31.026128,24.970319 c 0.233648,-0.175452 0.155538,-0.289934 0.247557,-0.345798 0.117762,-0.08407 0.211005,0.113052 0.321231,0.130449 0.167356,-0.07923 1.258843,-0.582548 1.426209,-0.661761 0.197885,-0.09437 0.3944,0.940832 0.360893,0.959214 0,0 -1.39446,0.392766 -1.486415,0.462595 0.0026,0.124161 0.03993,0.256774 -0.08572,0.306896 -0.125631,0.05016 -0.226091,-0.184702 -0.42371,-0.05719 9.96e-4,0.560233 -0.161541,0.765135 -0.508875,0.940798 -0.347333,0.175665 -0.823369,-0.04095 -1.113075,-0.506886 -0.0997,0.122375 -0.279564,0.152301 -0.353823,-0.05473 -0.07427,-0.207021 0.109081,-0.254359 0.234349,-0.236995 -0.113539,-0.393543 -0.165963,-0.96135 0.309153,-1.151637 0.475117,-0.190283 0.695532,-0.116133 1.072257,0.215063 z"
         id="path46"
         sodipodi:nodetypes="ccccccccscccscc" /><path
         style="color:#000000;display:inline;fill:#000000;fill-opacity:1;stroke-width:2.17252;stroke-linecap:round;stroke-linejoin:round;stroke-miterlimit:4.7;-inkscape-stroke:none"
         d="m 34.031222,33.275912 c 0.233647,-0.175452 0.155547,-0.289929 0.247556,-0.345797 0.117763,-0.08407 0.211005,0.113052 0.321232,0.130449 0.167355,-0.07923 1.051356,-0.497436 1.218722,-0.576649 0.197884,-0.09437 0.631767,0.499116 0.598261,0.517495 0,0 -1.424342,0.749372 -1.516299,0.819201 0.0026,0.124161 0.03993,0.256774 -0.08572,0.306895 -0.125635,0.05018 -0.226091,-0.184701 -0.423711,-0.05719 9.97e-4,0.560233 -0.161539,0.765135 -0.508873,0.940798 -0.347334,0.175666 -0.82337,-0.04095 -1.113075,-0.506886 -0.0997,0.122376 -0.279564,0.152302 -0.353824,-0.05473 -0.07427,-0.207022 0.109081,-0.254359 0.234351,-0.236996 -0.113538,-0.393543 -0.165965,-0.961349 0.309151,-1.151635 0.475117,-0.190284 0.695533,-0.116135 1.07226,0.215061 z"
         id="path47"
         sodipodi:nodetypes="ccccccccscccscc" /><path
         style="color:#000000;display:inline;fill:#000000;fill-opacity:1;stroke-width:2.17252;stroke-linecap:round;stroke-linejoin:round;stroke-miterlimit:4.7;-inkscape-stroke:none"
         d="m 30.024431,22.201788 c 0.233648,-0.175452 0.155538,-0.289934 0.247557,-0.345798 0.117762,-0.08407 0.211005,0.113052 0.321231,0.130449 0.167356,-0.07923 1.234786,-0.462695 1.402152,-0.541908 0.197885,-0.09437 0.212401,0.717114 0.178894,0.735496 0,0 -1.188404,0.496631 -1.280359,0.56646 0.0026,0.124161 0.03993,0.256774 -0.08572,0.306896 -0.125631,0.05016 -0.226091,-0.184702 -0.42371,-0.05719 9.96e-4,0.560233 -0.161541,0.765135 -0.508875,0.940798 -0.347333,0.175665 -0.823369,-0.04095 -1.113075,-0.506886 -0.0997,0.122375 -0.279564,0.152301 -0.353823,-0.05473 -0.07427,-0.207021 0.109081,-0.254359 0.234349,-0.236995 -0.113539,-0.393543 -0.165963,-0.96135 0.309153,-1.151637 0.475117,-0.190283 0.695532,-0.116133 1.072257,0.215063 z"
         id="path48"
         sodipodi:nodetypes="ccccccccscccscc" /><path
         style="color:#000000;display:inline;fill:#000000;fill-opacity:1;stroke-width:2.17252;stroke-linecap:round;stroke-linejoin:round;stroke-miterlimit:4.7;-inkscape-stroke:none"
         d="m 29.022734,19.433257 c 0.233648,-0.175452 0.155538,-0.289934 0.247557,-0.345798 0.117762,-0.08407 0.211005,0.113052 0.321231,0.130449 0.167356,-0.07923 0.732763,-0.330586 0.900129,-0.409799 0.197885,-0.09437 0.328615,0.732984 0.295108,0.751366 0,0 -0.802595,0.348652 -0.89455,0.418481 0.0026,0.124161 0.03993,0.256774 -0.08572,0.306896 -0.125631,0.05016 -0.226091,-0.184702 -0.42371,-0.05719 9.96e-4,0.560233 -0.161541,0.765135 -0.508875,0.940798 -0.347333,0.175665 -0.823369,-0.04095 -1.113075,-0.506886 -0.0997,0.122375 -0.279564,0.152301 -0.353823,-0.05473 -0.07427,-0.207021 0.109081,-0.254359 0.234349,-0.236995 -0.113539,-0.393543 -0.165963,-0.96135 0.309153,-1.151637 0.475117,-0.190283 0.695532,-0.116133 1.072257,0.215063 z"
         id="path49"
         sodipodi:nodetypes="ccccccccscccscc" /><path
         style="color:#000000;display:inline;fill:#000000;fill-opacity:1;stroke-width:2.17252;stroke-linecap:round;stroke-linejoin:round;stroke-miterlimit:4.7;-inkscape-stroke:none"
         d="m 28.021037,16.664727 c 0.233648,-0.175452 0.155538,-0.289934 0.247557,-0.345798 0.117762,-0.08407 0.211005,0.113052 0.321231,0.130449 0.167356,-0.07923 0.463719,-0.201729 0.631085,-0.280942 0.197885,-0.09437 0.32185,0.71886 0.288343,0.737242 0,0 -0.526786,0.233919 -0.618741,0.303748 0.0026,0.124161 0.03993,0.256774 -0.08572,0.306896 -0.125631,0.05016 -0.226091,-0.184702 -0.42371,-0.05719 9.96e-4,0.560233 -0.161541,0.765135 -0.508875,0.940798 -0.347333,0.175665 -0.823369,-0.04095 -1.113075,-0.506886 -0.0997,0.122375 -0.279564,0.152301 -0.353823,-0.05473 -0.07427,-0.207021 0.109081,-0.254359 0.234349,-0.236995 -0.113539,-0.393543 -0.165963,-0.96135 0.309153,-1.151637 0.475117,-0.190283 0.695532,-0.116133 1.072257,0.215063 z"
         id="path50" /></g><g
       id="g57"
       inkscape:label="left knobs"
       style="stroke-width:2.17252"><path
         style="color:#000000;display:inline;fill:#000000;fill-opacity:1;stroke-width:2.17252;stroke-linecap:round;stroke-linejoin:round;stroke-miterlimit:4.7;-inkscape-stroke:none"
         d="m 37.729988,20.059703 c -0.283808,0.06945 -0.322813,-0.06353 -0.424349,-0.02779 -0.139676,0.03777 -0.04637,0.234857 -0.10278,0.33114 -0.167371,0.0792 -0.913106,0.452526 -1.080471,0.531738 -0.198436,0.0932 0.461276,0.65225 0.496733,0.637993 0,0 0.868522,-0.428465 0.980821,-0.455308 0.09435,0.08075 0.173239,0.193681 0.291672,0.128263 0.118451,-0.06536 5.21e-4,-0.291955 0.224415,-0.363944 0.43258,0.35597 0.694076,0.36018 1.050127,0.20294 0.356055,-0.157242 0.490369,-0.662727 0.313753,-1.182187 0.157841,4.82e-4 0.29502,-0.119641 0.182016,-0.30833 -0.112998,-0.188691 -0.265869,-0.07685 -0.331844,0.03098 -0.232331,-0.337321 -0.63816,-0.737865 -1.086539,-0.491068 -0.448374,0.246796 -0.530784,0.46427 -0.51353,0.965599 z"
         id="path51"
         sodipodi:nodetypes="ccccccccscscscc" /><path
         style="color:#000000;display:inline;fill:#000000;fill-opacity:1;stroke-width:2.17252;stroke-linecap:round;stroke-linejoin:round;stroke-miterlimit:4.7;-inkscape-stroke:none"
         d="m 35.956435,17.690137 c -0.283809,0.06945 -0.322814,-0.06353 -0.424349,-0.02779 -0.139673,0.03776 -0.04637,0.234857 -0.102789,0.331135 -0.167371,0.0792 -0.449997,0.230725 -0.617365,0.309937 -0.198434,0.0932 0.351816,0.704677 0.387274,0.690418 0,0 0.514876,-0.259088 0.627174,-0.285931 0.09435,0.08075 0.173239,0.193681 0.291673,0.128263 0.118451,-0.06536 5.12e-4,-0.291961 0.224416,-0.363943 0.43258,0.355968 0.694075,0.36018 1.050127,0.202938 0.356053,-0.15724 0.490368,-0.662726 0.313753,-1.182185 0.157841,4.82e-4 0.29502,-0.119642 0.182016,-0.308332 -0.112998,-0.188689 -0.265868,-0.07685 -0.331844,0.03098 -0.232331,-0.337318 -0.638161,-0.737864 -1.086539,-0.491068 -0.448374,0.246796 -0.530783,0.46427 -0.513529,0.965599 z"
         id="path52" /><path
         style="color:#000000;display:inline;fill:#000000;fill-opacity:1;stroke-width:2.17252;stroke-linecap:round;stroke-linejoin:round;stroke-miterlimit:4.7;-inkscape-stroke:none"
         d="m 32.94064,12.696509 c -0.283807,0.06945 -0.322813,-0.06353 -0.424348,-0.02779 -0.139678,0.03777 -0.04637,0.234857 -0.102779,0.33114 -0.167371,0.0792 -0.449998,0.230725 -0.617364,0.309937 -0.198436,0.0932 0.351815,0.704676 0.387271,0.690418 0,0 0.514877,-0.259089 0.627175,-0.285931 0.09435,0.08075 0.173239,0.19368 0.291672,0.128263 0.118451,-0.06536 5.21e-4,-0.291955 0.224416,-0.363943 0.43258,0.35597 0.694077,0.360181 1.050128,0.202939 0.356053,-0.15724 0.490367,-0.662726 0.313752,-1.182185 0.157842,4.82e-4 0.295021,-0.119642 0.182016,-0.308332 -0.112998,-0.188689 -0.265867,-0.07685 -0.331844,0.03098 -0.232331,-0.337321 -0.638161,-0.737865 -1.086538,-0.491067 -0.448375,0.246794 -0.530784,0.464269 -0.513529,0.965597 z"
         id="path53" /><path
         style="color:#000000;display:inline;fill:#000000;fill-opacity:1;stroke-width:2.17252;stroke-linecap:round;stroke-linejoin:round;stroke-miterlimit:4.7;-inkscape-stroke:none"
         d="m 34.254945,15.286037 c -0.283807,0.06945 -0.322813,-0.06353 -0.424348,-0.02779 -0.139678,0.03777 -0.04637,0.234857 -0.102779,0.33114 -0.167371,0.0792 -0.449998,0.230725 -0.617364,0.309937 -0.198436,0.0932 0.351815,0.704676 0.387271,0.690418 0,0 0.514877,-0.259089 0.627175,-0.285931 0.09435,0.08075 0.173239,0.19368 0.291672,0.128263 0.118451,-0.06536 5.21e-4,-0.291955 0.224416,-0.363943 0.43258,0.35597 0.694077,0.360181 1.050128,0.202939 0.356053,-0.15724 0.490367,-0.662726 0.313752,-1.182185 0.157842,4.82e-4 0.295021,-0.119642 0.182016,-0.308332 -0.112998,-0.188689 -0.265867,-0.07685 -0.331844,0.03098 -0.232331,-0.337321 -0.638161,-0.737865 -1.086538,-0.491067 -0.448375,0.246794 -0.530784,0.464269 -0.513529,0.965597 z"
         id="path54" /><path
         style="color:#000000;display:inline;fill:#000000;fill-opacity:1;stroke-width:2.17252;stroke-linecap:round;stroke-linejoin:round;stroke-miterlimit:4.7;-inkscape-stroke:none"
         d="m 39.345539,22.504952 c -0.283808,0.06945 -0.322813,-0.06353 -0.424349,-0.02779 -0.139676,0.03777 -0.04637,0.234857 -0.10278,0.33114 -0.167371,0.0792 -1.211457,0.564445 -1.378822,0.643657 -0.198436,0.0932 0.629303,0.592424 0.66476,0.578167 0,0 0.998846,-0.480558 1.111145,-0.507401 0.09435,0.08075 0.173239,0.193681 0.291672,0.128263 0.118451,-0.06536 5.21e-4,-0.291955 0.224415,-0.363944 0.43258,0.35597 0.694076,0.36018 1.050127,0.20294 0.356055,-0.157242 0.490369,-0.662727 0.313753,-1.182187 0.157841,4.82e-4 0.29502,-0.119641 0.182016,-0.30833 -0.112998,-0.188691 -0.265869,-0.07685 -0.331844,0.03098 -0.232331,-0.337321 -0.63816,-0.737865 -1.086539,-0.491068 -0.448374,0.246796 -0.530784,0.46427 -0.51353,0.965599 z"
         id="path55"
         sodipodi:nodetypes="ccccccccscscscc" /><path
         style="color:#000000;display:inline;fill:#000000;fill-opacity:1;stroke-width:2.17252;stroke-linecap:round;stroke-linejoin:round;stroke-miterlimit:4.7;-inkscape-stroke:none"
         d="m 40.870716,24.993484 c -0.283808,0.06945 -0.322813,-0.06353 -0.424349,-0.02779 -0.139676,0.03777 -0.04637,0.234857 -0.10278,0.33114 -0.167371,0.0792 -1.081132,0.512352 -1.248497,0.591564 -0.198436,0.0932 0.393539,0.705341 0.428996,0.691084 0,0 1.104285,-0.541382 1.216584,-0.568225 0.09435,0.08075 0.173239,0.193681 0.291672,0.128263 0.118451,-0.06536 5.21e-4,-0.291955 0.224415,-0.363944 0.43258,0.35597 0.694076,0.36018 1.050127,0.20294 0.356055,-0.157242 0.490369,-0.662727 0.313753,-1.182187 0.157841,4.82e-4 0.29502,-0.119641 0.182016,-0.30833 -0.112998,-0.188691 -0.265869,-0.07685 -0.331844,0.03098 -0.232331,-0.337321 -0.63816,-0.737865 -1.086539,-0.491068 -0.448374,0.246796 -0.530784,0.46427 -0.51353,0.965599 z"
         id="path56"
         sodipodi:nodetypes="ccccccccscscscc" /><path
         style="color:#000000;display:inline;fill:#000000;fill-opacity:1;stroke-width:2.17252;stroke-linecap:round;stroke-linejoin:round;stroke-miterlimit:4.7;-inkscape-stroke:none"
         d="m 42.516391,27.424305 c -0.283808,0.06945 -0.322813,-0.06353 -0.424349,-0.02779 -0.139676,0.03777 -0.04637,0.234857 -0.10278,0.33114 -0.167371,0.0792 -1.25863,0.632274 -1.425995,0.711486 -0.198436,0.0932 0.25269,0.766414 0.288147,0.752157 0,0 1.422632,-0.722377 1.534931,-0.74922 0.09435,0.08075 0.173239,0.193681 0.291672,0.128263 0.118451,-0.06536 5.21e-4,-0.291955 0.224415,-0.363944 0.43258,0.35597 0.694076,0.36018 1.050127,0.20294 0.356055,-0.157242 0.490369,-0.662727 0.313753,-1.182187 0.157841,4.82e-4 0.29502,-0.119641 0.182016,-0.30833 -0.112998,-0.188691 -0.265869,-0.07685 -0.331844,0.03098 -0.232331,-0.337321 -0.63816,-0.737865 -1.086539,-0.491068 -0.448374,0.246796 -0.530784,0.46427 -0.51353,0.965599 z"
         id="path57"
         sodipodi:nodetypes="ccccccccscscscc" /></g><path
       style="fill:#000000;fill-opacity:1;stroke-width:1.73803;stroke-linecap:round;stroke-linejoin:round;stroke-miterlimit:4.7"
       d="m 54.029175,96.226948 c 0.540052,-0.19173 1.767026,-3.500249 6.631776,-3.800701 4.454959,0.260081 6.249241,5.74937 6.249241,5.74937 -6.795844,0.109495 -7.173714,0.543082 -12.881017,-1.948669 z"
       id="path58"
       sodipodi:nodetypes="cccc" /></g><path
     id="path8"
     style="fill:#ffffff;stroke:#000000;stroke-width:0.468043;stroke-linecap:round;stroke-linejoin:round;stroke-miterlimit:4.7;stroke-dasharray:none;stroke-opacity:1"
     inkscape:label="bow"
     d="m 67.390625,18.845703 -0.503906,0.603516 c -0.388631,0.48007 -1.674602,0.759131 -2.056641,1.18164 L 67.390602,18.84573 Z M 52.985584,38.808971 c -2.236159,3.469287 -3.376272,5.265376 -5.11059,8.009311 0.0506,-0.03588 2.117058,-1.491776 1.271484,0.816407 l 4.751584,-7.368918 M 47.875,46.818359 c -6.21e-4,4.41e-4 -0.01563,0.0098 -0.01563,0.0098 l -0.933594,1.488281 c 0.278169,-0.443315 0.638262,-1.006095 0.949224,-1.498081 z m 1.724609,-2.589843 c 0.08223,-0.0048 0.339752,0.0544 1.091797,0.595703 l -1.126953,-0.585938 c 0,0 0.0077,-0.0082 0.03516,-0.0098 z"
     sodipodi:nodetypes="cccccccccccccccccc" /><path
     d="M 50.692233,44.823368 C 49.689502,44.101626 49.564259,44.23883 49.564259,44.23883 M 46.99916,48.128386 C 52.394868,39.52975 64.357767,21.241897 64.830264,20.631749 65.212303,20.209237 66.498174,19.9296 66.886805,19.449527 L 67.39055,18.84519 c -6.20225,9.534587 -11.978272,19.298838 -18.244152,28.789945 0.855953,-2.33652 -1.287173,-0.806127 -1.287173,-0.806127"
     style="fill:none;stroke:#000000;stroke-width:0.468043;stroke-linecap:round;stroke-linejoin:round;stroke-miterlimit:4.7;stroke-dasharray:none;stroke-opacity:1"
     id="path60"
     inkscape:label="bow"
     sodipodi:nodetypes="cccccccc" /><ellipse
     style="fill:#ffffff;fill-opacity:1;stroke-width:0.8;stroke-linecap:round;stroke-linejoin:round;stroke-miterlimit:4.7"
     id="path63"
     cx="47.005684"
     cy="48.381611"
     rx="0.41590446"
     ry="0.42604846" /><circle
     style="fill:#000000;stroke:#000000;stroke-width:0.0497907;stroke-linecap:round;stroke-linejoin:round;stroke-miterlimit:4.7;stroke-dasharray:none;stroke-opacity:1"
     id="path5"
     cx="38.221561"
     cy="15.574642"
     r="11.12627" /><circle
     style="fill:#ffffff;stroke:#000000;stroke-width:2;stroke-linecap:round;stroke-linejoin:round;stroke-miterlimit:4.7;stroke-dasharray:none;stroke-opacity:1"
     id="circle6"
     cx="38.144207"
     cy="17.369877"
     r="9.4567623" /><path
     style="fill:#000000;stroke:#000000;stroke-width:2;stroke-linecap:round;stroke-linejoin:round;stroke-miterlimit:4.7;stroke-dasharray:none;stroke-opacity:1"
     d="m 37.562149,7.5298544 c 0,0 2.309506,5.8565886 -6.09881,14.6925406 0,0 -2.591559,-6.74031 -2.011676,-10.464554 z"
     id="path6"
     sodipodi:nodetypes="cccc" /><path
     style="fill:none;stroke:#000000;stroke-width:1;stroke-linecap:round;stroke-linejoin:round;stroke-miterlimit:4.7;stroke-dasharray:none;stroke-opacity:1"
     d="m 38.427695,6.9068799 c 0,0 4.284686,6.5792531 -4.222644,14.5554701"
     id="path9"
     sodipodi:nodetypes="cc" /><path
     style="display:none;fill:none;stroke:#000000;stroke-width:1;stroke-linecap:round;stroke-linejoin:round;stroke-miterlimit:4.7;stroke-dasharray:none;stroke-opacity:1"
     d="m 40.271659,6.3917388 c 0,0 3.890881,6.1522822 -0.604625,10.8520582"
     id="path10"
     sodipodi:nodetypes="cc" /></svg>
