<?xml version="1.0" encoding="UTF-8" standalone="no"?>
<svg
   xml:space="preserve"
   width="100"
   height="100"
   version="1.1"
   id="svg7"
   sodipodi:docname="human_technik_1.svg"
   inkscape:version="1.3.2 (091e20e, 2023-11-25)"
   xmlns:inkscape="http://www.inkscape.org/namespaces/inkscape"
   xmlns:sodipodi="http://sodipodi.sourceforge.net/DTD/sodipodi-0.dtd"
   xmlns="http://www.w3.org/2000/svg"
   xmlns:svg="http://www.w3.org/2000/svg"><defs
     id="defs7" /><sodipodi:namedview
     id="namedview7"
     pagecolor="#ffffff"
     bordercolor="#000000"
     borderopacity="0.25"
     inkscape:showpageshadow="2"
     inkscape:pageopacity="0.0"
     inkscape:pagecheckerboard="0"
     inkscape:deskcolor="#d1d1d1"
     inkscape:current-layer="svg7" /><path
     d="M 50.765,27.006 66.280158,42.649279 80.448036,29.100973"
     style="display:inline;fill:none;stroke:#000000;stroke-width:3;stroke-linecap:round;stroke-linejoin:round;stroke-miterlimit:4.7;stroke-dasharray:none;stroke-opacity:1"
     transform="translate(-0.783,4.782)"
     id="path1"
     sodipodi:nodetypes="ccc" /><g
     style="display:inline;stroke-width:1.83867;stroke-dasharray:none"
     id="g3"><path
       d="m44.242 23.499 1.19 18.313"
       style="fill:none;stroke:#000;stroke-width:1.83867;stroke-linecap:round;stroke-linejoin:round;stroke-miterlimit:4.7;stroke-dasharray:none;stroke-opacity:1"
       transform="matrix(1.63742 0 0 1.62584 -22.934 -6.417)"
       id="path2" /><path
       d="m56.195 62.957-3.126-1.19-.659-11.799-6.833-8.597-7.078 10.188.284 11.298-4.043.87"
       style="display:inline;fill:none;stroke:#000;stroke-width:1.83867;stroke-linecap:round;stroke-linejoin:round;stroke-miterlimit:4.7;stroke-dasharray:none;stroke-opacity:1"
       transform="matrix(1.63742 0 0 1.62584 -22.934 -6.417)"
       id="path3" /></g><path
     d="M 33.531958,58.260144 37.061734,41.628281 50.529,26.77"
     style="display:inline;fill:none;stroke:#000000;stroke-width:3.00001;stroke-linecap:round;stroke-linejoin:round;stroke-miterlimit:4.7;stroke-dasharray:none;stroke-opacity:1"
     transform="translate(-0.783,4.782)"
     id="path4"
     sodipodi:nodetypes="ccc" /><g
     id="g11"
     inkscape:label="head"
     transform="translate(2.0409587,0.71433554)"><ellipse
       style="fill:#ffffff;stroke:#000000;stroke-width:2;stroke-linecap:butt;stroke-linejoin:miter;stroke-miterlimit:5;stroke-dasharray:none"
       id="path7"
       cx="46.572159"
       cy="16.827953"
       rx="9.6214037"
       ry="9.4020233" /></g><path
     d="m 81.440935,39.82954 c 0.381108,0 0.742162,-0.150438 1.017963,-0.421229 0.561637,-0.561634 0.575966,-1.483984 0,-2.030914 l -7.644734,-7.25934 c 0.25073,-0.972848 -0.02004,-2.020902 -0.732133,-2.732974 -0.717088,-0.717088 -1.770155,-0.997908 -2.748005,-0.732133 -0.13038,0.0351 -0.230671,0.135395 -0.265772,0.265774 -0.03511,0.13038 0,0.265775 0.09528,0.361051 l 1.22858,1.228579 -0.260759,0.957789 -0.957791,0.260761 -1.22858,-1.228579 c -0.09528,-0.09528 -0.235684,-0.130379 -0.36105,-0.09528 -0.13038,0.0351 -0.230671,0.135395 -0.265775,0.265774 -0.265775,0.977849 0.01004,2.030932 0.732134,2.748019 0.712074,0.712076 1.760125,0.982863 2.732959,0.732134 l 7.644737,7.259337 c 0.270788,0.270791 0.631839,0.421229 1.012951,0.421229 z M 72.266743,27.319892 c 0.481403,0.04012 0.937732,0.250729 1.288754,0.601753 0.571667,0.571664 0.757206,1.409105 0.481404,2.18137 -0.05015,0.135392 -0.01504,0.290846 0.09026,0.391138 l 7.8052,7.419807 c 0.265775,0.265772 0.265775,0.702043 0,0.967818 -0.130379,0.130379 -0.300875,0.200584 -0.486416,0.200584 -0.180526,0 -0.356038,-0.0702 -0.481401,-0.200584 l -7.805202,-7.419805 c -0.105304,-0.105307 -0.255745,-0.135395 -0.391138,-0.09026 -0.772249,0.270788 -1.609688,0.09026 -2.181354,-0.481404 -0.351021,-0.351021 -0.556621,-0.807351 -0.601754,-1.288769 l 0.817383,0.817398 c 0.09528,0.09528 0.235687,0.130379 0.366066,0.09528 l 1.374002,-0.376095 c 0.130379,-0.0351 0.230671,-0.135393 0.265774,-0.26579 l 0.376096,-1.374001 c 0.0351,-0.130379 0,-0.270788 -0.09528,-0.366066 l -0.81738,-0.81738 z"
     fill="#000000"
     id="path5"
     style="display:inline;stroke-width:0.501459"
     sodipodi:nodetypes="scscscsscccccccccscscccsscccscsccccscc" /><path
     style="display:inline;fill:#ffffff;stroke-width:0.501459"
     d="m 72.266743,27.319892 c 0.481403,0.04012 0.937732,0.250729 1.288754,0.601753 0.571667,0.571664 0.757206,1.409105 0.481404,2.18137 -0.05015,0.135392 -0.01504,0.290846 0.09026,0.391138 l 7.8052,7.419807 c 0.265775,0.265772 0.265775,0.702043 0,0.967818 -0.130379,0.130379 -0.300875,0.200584 -0.486416,0.200584 -0.180526,0 -0.356038,-0.0702 -0.481401,-0.200584 l -7.805202,-7.419805 c -0.105304,-0.105307 -0.255745,-0.135395 -0.391138,-0.09026 -0.772249,0.270788 -1.609688,0.09026 -2.181354,-0.481404 -0.351021,-0.351021 -0.556621,-0.807351 -0.601754,-1.288769 l 0.817383,0.817398 c 0.09528,0.09528 0.235687,0.130379 0.366066,0.09528 l 1.374002,-0.376095 c 0.130379,-0.0351 0.230671,-0.135393 0.265774,-0.26579 l 0.376096,-1.374001 c 0.0351,-0.130379 0,-0.270788 -0.09528,-0.366066 l -0.81738,-0.81738 z"
     id="path6" /><path
     style="fill:#000000;stroke-width:2;stroke-linecap:round;stroke-linejoin:round;stroke-miterlimit:5"
     d="M 45.583729,13.983853 H 28.330923"
     id="path9" /><path
     id="path13"
     style="stroke-width:2;stroke-linecap:round;stroke-linejoin:round;stroke-miterlimit:5"
     d="m 39.576671,11.16153 -9.215391,0.0342 c -0.552281,0.002 -1,0.447715 -1,1 0,0.552285 0.447715,1 1,1 9.964953,0.147668 17.403184,0.05401 27.369688,0.01853 C 57.730819,11.328909 58.503754,7.8833471 56.778357,6.3448109 52.87202,2.8615307 45.302702,2.8832596 41.081248,5.9771305 39.629868,7.0408356 40.074946,8.829965 39.576671,11.16153 Z"
     sodipodi:nodetypes="cssscaac" /></svg>
