<svg xmlns="http://www.w3.org/2000/svg" xml:space="preserve" width="100" height="100">
    <g style="display:inline">
        <path d="m26.782 61.05.631-16.222 6.091-10.893 4.553-.82 4.833.428 3.223 15.554 6.466 8.973m-.574 34.964-5.118-1.935-6.228-31.707-2.232-1.2-2.237.732-4.064 33.185-6.62 1.415m12.92-35.404-.36-25.039" style="display:inline;fill:none;stroke:#000;stroke-width:3.00001;stroke-linecap:round;stroke-linejoin:round;stroke-miterlimit:4.7;stroke-dasharray:none;stroke-opacity:1" transform="translate(-18.601 .996)"/>
        <path d="M52.478 17.966c3.41 5.645-1.119 10.013-1.119 10.013v0m-1.04-9.621c2.813 4.92-.98 8.762-.98 8.762v0m-1.157-8.227c2.084 4.035-.809 7.233-.809 7.233v0" style="fill:none;stroke:#000;stroke-width:.8;stroke-linecap:round;stroke-linejoin:round;stroke-miterlimit:4.7" transform="translate(-18.601 .996)"/>
        <path d="M45.51 19.162c1.227 4.315-1.289 8.803-5.629 10.042-4.33 1.24-8.85-1.252-10.08-5.557-1.23-4.309 1.48-8.382 5.818-9.619 4.34-1.237 8.662.826 9.892 5.134" style="display:inline;fill:#fff;stroke:#000;stroke-width:2.00001;stroke-linecap:round;stroke-linejoin:round;stroke-miterlimit:4.7;stroke-dasharray:none;stroke-opacity:1" transform="translate(-18.601 .996)"/>
        <path d="M39.473 24.334a1.274 2.23 0 0 1-1.274 2.23 1.274 2.23 0 0 1-1.274-2.23 1.274 2.23 0 0 1 1.274-2.23 1.274 2.23 0 0 1 1.274 2.23" style="stroke:#000;stroke-width:.8;stroke-linecap:round;stroke-linejoin:round;stroke-miterlimit:4.7" transform="translate(-18.601 .996)"/>
        <path d="m35.154 9.972-5.635-2.05.185 5.94 5.73-2.855c.565.693 1.64.609 2.09-.174l5.557 2.022-.24-5.54-5.172 2.579c-.504-1.059-1.898-1.2-2.515.078" style="fill:#000;stroke:none;stroke-width:.8;stroke-linecap:round;stroke-linejoin:round;stroke-miterlimit:4.7" transform="translate(-18.601 .996)"/>
        <path d="M38.16 33.126 25.314 87.15l27.528-1.106Z" style="fill:#000;stroke:none;stroke-width:.8;stroke-linecap:round;stroke-linejoin:round;stroke-miterlimit:4.7;stroke-opacity:1" transform="translate(-18.601 .996)"/>
    </g>
    <g style="display:inline">
        <path d="m26.782 61.05.631-16.222 6.091-10.893 4.553-.82 4.833.428 3.223 15.554 6.466 8.973m-.574 34.964-5.118-1.935-6.228-31.707-2.232-1.2-2.237.732-4.064 33.185-6.62 1.415m12.92-35.404-.36-25.039" style="display:inline;fill:none;stroke:#000;stroke-width:3.00001;stroke-linecap:round;stroke-linejoin:round;stroke-miterlimit:4.7;stroke-dasharray:none;stroke-opacity:1" transform="translate(12.348 .996)"/>
        <path d="M52.478 17.966c3.41 5.645-1.119 10.013-1.119 10.013v0m-1.04-9.621c2.813 4.92-.98 8.762-.98 8.762v0m-1.157-8.227c2.084 4.035-.809 7.233-.809 7.233v0" style="fill:none;stroke:#000;stroke-width:.8;stroke-linecap:round;stroke-linejoin:round;stroke-miterlimit:4.7" transform="translate(12.348 .996)"/>
        <path d="M45.51 19.162c1.227 4.315-1.289 8.803-5.629 10.042-4.33 1.24-8.85-1.252-10.08-5.557-1.23-4.309 1.48-8.382 5.818-9.619 4.34-1.237 8.662.826 9.892 5.134" style="display:inline;fill:#fff;stroke:#000;stroke-width:2.00001;stroke-linecap:round;stroke-linejoin:round;stroke-miterlimit:4.7;stroke-dasharray:none;stroke-opacity:1" transform="translate(12.348 .996)"/>
        <path d="M39.473 24.334a1.274 2.23 0 0 1-1.274 2.23 1.274 2.23 0 0 1-1.274-2.23 1.274 2.23 0 0 1 1.274-2.23 1.274 2.23 0 0 1 1.274 2.23" style="stroke:#000;stroke-width:.8;stroke-linecap:round;stroke-linejoin:round;stroke-miterlimit:4.7" transform="translate(12.348 .996)"/>
        <path d="m35.154 9.972-5.635-2.05.185 5.94 5.73-2.855c.565.693 1.64.609 2.09-.174l5.557 2.022-.24-5.54-5.172 2.579c-.504-1.059-1.898-1.2-2.515.078" style="fill:#000;stroke:none;stroke-width:.8;stroke-linecap:round;stroke-linejoin:round;stroke-miterlimit:4.7" transform="translate(12.348 .996)"/>
        <path d="M38.16 33.126 25.314 87.15l27.528-1.106Z" style="fill:#000;stroke:none;stroke-width:.8;stroke-linecap:round;stroke-linejoin:round;stroke-miterlimit:4.7;stroke-opacity:1" transform="translate(12.348 .996)"/>
    </g>
    <g style="display:inline">
        <path d="m26.782 61.05.631-16.222 6.091-10.893 4.553-.82 4.833.428 3.223 15.554 6.466 8.973m-.574 34.964-5.118-1.935-6.228-31.707-2.232-1.2-2.237.732-4.064 33.185-6.62 1.415m12.92-35.404-.36-25.039" style="display:inline;fill:none;stroke:#000;stroke-width:3.00001;stroke-linecap:round;stroke-linejoin:round;stroke-miterlimit:4.7;stroke-dasharray:none;stroke-opacity:1" transform="translate(44.146 .996)"/>
        <path d="M52.478 17.966c3.41 5.645-1.119 10.013-1.119 10.013v0m-1.04-9.621c2.813 4.92-.98 8.762-.98 8.762v0m-1.157-8.227c2.084 4.035-.809 7.233-.809 7.233v0" style="fill:none;stroke:#000;stroke-width:.8;stroke-linecap:round;stroke-linejoin:round;stroke-miterlimit:4.7" transform="translate(44.146 .996)"/>
        <path d="M45.51 19.162c1.227 4.315-1.289 8.803-5.629 10.042-4.33 1.24-8.85-1.252-10.08-5.557-1.23-4.309 1.48-8.382 5.818-9.619 4.34-1.237 8.662.826 9.892 5.134" style="display:inline;fill:#fff;stroke:#000;stroke-width:2.00001;stroke-linecap:round;stroke-linejoin:round;stroke-miterlimit:4.7;stroke-dasharray:none;stroke-opacity:1" transform="translate(44.146 .996)"/>
        <path d="M39.473 24.334a1.274 2.23 0 0 1-1.274 2.23 1.274 2.23 0 0 1-1.274-2.23 1.274 2.23 0 0 1 1.274-2.23 1.274 2.23 0 0 1 1.274 2.23" style="stroke:#000;stroke-width:.8;stroke-linecap:round;stroke-linejoin:round;stroke-miterlimit:4.7" transform="translate(44.146 .996)"/>
        <path d="m35.154 9.972-5.635-2.05.185 5.94 5.73-2.855c.565.693 1.64.609 2.09-.174l5.557 2.022-.24-5.54-5.172 2.579c-.504-1.059-1.898-1.2-2.515.078" style="fill:#000;stroke:none;stroke-width:.8;stroke-linecap:round;stroke-linejoin:round;stroke-miterlimit:4.7" transform="translate(44.146 .996)"/>
        <path d="M38.16 33.126 25.314 87.15l27.528-1.106Z" style="fill:#000;stroke:none;stroke-width:.8;stroke-linecap:round;stroke-linejoin:round;stroke-miterlimit:4.7;stroke-opacity:1" transform="translate(44.146 .996)"/>
    </g>
</svg>
