<svg xmlns="http://www.w3.org/2000/svg" xml:space="preserve" width="50" height="100">
    <g transform="translate(.042 .92)">
        <path d="m1.5 62.769 3.53-16.632 13.467-14.859m19.335 64.39-5.119-1.935-1.079-19.184-11.188-13.977-11.59 16.564.465 18.369-6.62 1.414M18.26 31.515l1.948 29.774m-1.475-29.775 15.515 15.644 14.168-13.549" style="display:inline;fill:none;stroke:#000;stroke-width:3.00001;stroke-linecap:round;stroke-linejoin:round;stroke-miterlimit:4.7;stroke-dasharray:none;stroke-opacity:1"/>
        <path d="m37.184 21.237 10.564-.143-5.806 14.372-10.279-.096Z" style="fill:#fff;stroke:#000;stroke-width:2;stroke-linecap:round;stroke-linejoin:round;stroke-miterlimit:5;stroke-dasharray:none"/>
        <ellipse cx="37.382" cy="28.346" rx=".82" ry=".527" style="fill:#fff;stroke:#000;stroke-width:.656247;stroke-linecap:butt;stroke-linejoin:miter;stroke-miterlimit:5;stroke-dasharray:none"/>
        <path d="m38.187 28.429 1.214-4.124c-.156 1.36.812 1.563.4 3.224" style="fill:#fff;stroke:#000;stroke-width:.656247;stroke-linecap:round;stroke-linejoin:round;stroke-miterlimit:5;stroke-dasharray:none"/>
        <ellipse cx="38.991" cy="30.626" rx=".82" ry=".527" style="fill:#fff;stroke:#000;stroke-width:.656247;stroke-linecap:butt;stroke-linejoin:miter;stroke-miterlimit:5;stroke-dasharray:none"/>
        <path d="m39.797 30.708 1.213-4.123c-.156 1.36.812 1.563.4 3.223" style="fill:#fff;stroke:#000;stroke-width:.656247;stroke-linecap:round;stroke-linejoin:round;stroke-miterlimit:5;stroke-dasharray:none"/>
        <path d="M18.076 27.869c.814.177.248-.106.85 0 .035.035.035.035.035.106l.07.212c.072.85-.211.85.284 1.168-.142.283-.035 0-.39.319-.318.283.036.212-.565.424.212-.672.318-.106.247-1.557-.389-.035-.46-.177-.637.283-.212.637.142.177-.354.814-.07-.424.071-.283-.141-.637-.672.885-1.026.142-1.026.106l.283-.495c.708-1.45.248-1.168.035-1.522 1.876-2.087 2.265-1.273 2.619-1.238.318.035.672-.212 1.132-.248-.778 1.522-2.088.071-2.512 1.097-.213.46-.071.779.07 1.168m4.14-11.855c.071 0 .107.071.107.142q0 .105-.106.106c-.071 0-.142-.035-.142-.106s.07-.142.142-.142m-7.112.744c.07 0 .142.07.142.141s-.071.106-.142.106-.142-.035-.142-.106.071-.141.142-.141M3.391 18.88c.496-.142 1.31-.213 1.699-.036.141.92-1.097 1.345.106 2.124.743.495.601-.107.92-.036.39.036.141.46 1.026.566l.035.142v.07c.036.036.036.142.036.178 0 0 .035.035.035.07v.071c.283-.212.248-.248.602-.39.106 1.063-.354 1.346-1.097 1.664-.92.319-1.133-.425-1.628-.814-.708-.601-1.84-2.937-1.734-3.61M5.904 7.06c.176-.672.353-.176.566-.707.212-.425-.106-.46.354-.743.778-.496.212-.319.743-.637-.283-.283-.602-.672-.213-1.026.354-.319.85.141 1.204.389.07.035.176.106.212.141.212.142.318.142.39.425.105.354-.178.672-.355.99-.247 0-.637-.034-.849 0-.708.072-.39.602.07.78-.282.636.107 1.698-.636 2.3l-.673.035c-.212.07-.389.283-.46.354.142-.319.673-.496.779-1.026v-.071L7 7.734c.035-.637-1.062-.035-1.699 0 .07-.035.354-.177.425-.283.212-.212.035.07.141-.177.142-.354-.07.142.036-.212m20.205 23.391c.071-.708.071-.318.213-.743l.141-.495-.601-.425c.566-.248.92 0 1.344-.495-.318-.673-.672.177-1.203-1.416.319-.141.46-.07.602-.354-.177-.53-.071-.177-.496-.495-.424-.248-.283-.177-.318-.708.177.07.106.07.177.142.177.106 0 .07.212.141l.602-.99c-.814-2.053-.673-.744-1.239-1.31.425-.248.495-.141.779-.495.247-.283.424-.354.601-.673-.106-.283-.177-.318-.354-.53-.601.176-1.274-.036-1.061-.744a.4.4 0 0 0 .07-.177c.177-.495.107-.353.496-.601 0-.035-.106-.814-.496-1.203-.601-.602-.283-.708-.53-1.345-.319.354-.354 2.513-.354 2.937l-.106 1.31c-.142.566-.213.778-.814.849l.07.495c-.318-.424-.212-.141-.318-.07l.142.743c-.142.141-.39.353-.602.424-.495-.424-.142-.955-.885-1.38.213-.425.85-.814.425-1.238-.39-.46-.495-.107-.92 0-.354.106-.779.141-1.132.176-.567.071-1.416.496-1.734.92.106.425.212.213.424.496l-.46.99c-1.097.284-1.946.673-2.406 1.487-.248-.354-.07-.46-.425-.602-.46-.212.036.036-.46-.035-.07.319-.07.425-.141.637-.743.142-.354-.106-.991.248-.248.106-.743.354-.885 0 .283-.036.566 0 .637-.566-.92.176-.672-.036-.778-.354l-.142-.319c-1.168 0-1.097.46-1.981.248.212-.602.46-.956.46-1.628-.036 0-.071-.07-.107-.035 0 .035-.106-.071-.177-.106-.212-.071-.106.035-.318-.107.248-.495.602-.566.92-.955l-.53.248c.176-.177.353-.283.318-.46-.213-.142-.425.07-.637.212-.071-.248.141-.212.035-.425-.283.283-.354.46-.814.425.036-.425.283-.602.531-.814l-1.345.425c-.106.035-.212.141-.318.212.106-.212-.106-.354-.106-.885h-.319l-.177-1.981-.955.849c0-1.345.39-2.69.885-3.716.283-.601.424-.955.813-1.45.531-.744.319-.956.673-1.628L8.981 11.84c-.354-.354-.283-.46-.637-.885l-.672-.566c.177-.318.106-.778.283-1.062.141-.247.637-.53.743-.707.283-.602-.283-.106.283-.885.319-.46.177-.99.39-1.203.283-.142.353-.036.601-.212.248-.142.106-.248.46-.46.318-.213 1.097-.213 1.522-.354.035-.531-.248-.991-.425-1.416-.39-.035-1.168.106-1.45.248-.107-.53-.178-.283-.284-.637-.106-.248-.106-.53-.177-.779 1.062-.035.566.071 1.486.142l.319-.46c.46.212.354-.07.85.07.848.213 2.016.213 2.052 1.487-.213-.07-.107-.07-.425-.07-.566-.036-.177.105-.566.07-.425-.035-.319-.106-.743.106-.213-.141-.46-.672-.567-.141-.106.389.071.672.213.92.283.53.53.53 1.167.601 1.345.177.071.106 1.699-.46.035-.035.07-.035.106-.035.566.672 1.026 1.026 1.593.106.318.212.177.354.672.354.53.035.283-.036.566-.39.177.178.496.638.602.991.637-.177.07-.212.99-.07.567.106.107 0 .496-.036.495-.035.106.106.495.036.425-.071 1.911-.991 1.345.318l.495.46c0 .036.036.036.071.07.708.426.425.355.885.992.354.46.354.177.53.884.142.46.284.744.39 1.133.39 1.415.637 3.822.672 5.237-.53-.212-.106.248-.53-.142-.107-.106-.284-.53-.39-.672-1.203.07-2.76-.106-3.715.708 0 .99.353 1.91 1.061 2.69.39.424.779.353 1.416.105.46-.177.92-.354.955-.849-.248.319-.354.319-.53.319-.425-.319-.92-.284-1.522-.425-.106-.319-.213-.425.035-.92.248.814 1.45 1.097 1.982.46.035-.07.106-.106.106-.142.035-.035-.142.354-.07.354.495-.035.848-.248 1.025-.884.354.424-.106.106.319.283h.07c.567-1.062-.035-1.947 1.133-3.504.39-.53.318-.389.566-1.061-.248-.283-.53-.248-.566-.708-.035-.39.177-.425.212-1.062l-.814-.46c-.177-.53-.106-1.238-.495-1.663-.212-.212-.39-.283-.495-.566-.071-.212-.071-.672-.071-.99l-.708-.32c0-.495.177-1.45-.602-1.238.071-.424.107-.106 0-.53-.176-.602-.106-.248-.247-.39-.319.248-.248.213-.46.602-.213.318-.248.318-.496.566-.318-.248-.318-.319-.92-.212-.177-.354-.212-.248-.318-.673-.248.142-.071.036-.283.177-.142.142-.071.071-.213.177-.035-.601.213-1.486-.637-1.486-.389 0-.247 0-.46.248l-.424-.531c-.283.708-.46.708-.956 1.132v.743c0-.07-.177-.424-.318-.566-.46-.39-.283-.035-.814-.283-.354-.142-.955-.708-1.097-1.097l.708-.39c.849-.46.389-.318.354-.955.813-.07.566-.389 1.167-.247.779.177 1.38.743 2.017 1.097.425.247.248.389.673.849.283-.248.389-.283.389-.779.672.284.248.071.46 0 .177-.07-.283-.247.212 0 .531.248.637 1.239 1.062 1.593.672-.637.177-1.946-.142-2.159-.177-.141-1.91-.46-2.441-.672-.354-.142-.602-.354-1.062-.496-1.91-.53-5.237-.778-7.113-.176-.813.283-1.45.672-2.264.813-1.77.283-2.76 1.556-3.927 2.37-1.31.885-2.867 3.15-2.973 4.742-.106 1.911-.566 2.088-.743 3.716-.106 1.061-.035 1.274-.708 2.194-.46.637-.353 1.132-.389 1.804 0 .319-.07.248-.07.708.035.354.07.39.176.566.213.319.177 0 .319.39.035.212 0 1.097 0 1.309.035.495 1.132 1.132 1.91 1.132.39 1.486 1.487 3.043 2.867 3.928.248.142.495.248.708.46l.566.637c-.177.496-.177.212-.142.602.036.354.107.424.248.707.283.531.106.46.319.885.176.39 0 .425.353.779l.673.99c.07.425-.071.283-.142.743.425.248.248.177.779.213.389.035.707.141 1.026.248.283 1.45.212.424.495 1.167.142.354.071.283 0 .496.46.035.708.46 1.239.637.495.212 1.097.247 1.663.141.248.566-.035.39.53.531l.425-.07c1.685 1.579 3.363.58 3.542.52.743-.248 1.979.54 2.616.187l.884-.53c.567-.284.177.388.92-.284l2.407-2.052c.389-.354.212-.283.778-.319M14.15 15.838c.601 0 .707-.319 1.238-.107-.425.283-.672.177-.99.708l-.248-.46c-.425.212-.071.142-.496.319-.177-.46-.07 0-.248-.425l-.955.672c-.743.531-.46.106-1.062.319.036.495.036.601.354.955.566-.07.92-.248 1.557-.248.885-.035.991-.07 1.699-.176-.319-.071-.354-.036-.602-.248.213-.283.071-.177.46-.354.071.318.425.955 1.522.53-.177.638-.53.602-1.062.885.354.284 1.77.036 2.371-.707.248-.319.46-.602.708-.956.39-.53.672-.389.814-.955-.779-1.345-1.663-.92-2.406-.779-.319.071-2.407-.212-2.654 1.027" class="fil0" style="clip-rule:evenodd;fill:#000;fill-rule:evenodd;stroke-width:1.5456;image-rendering:optimizeQuality;shape-rendering:geometricPrecision;text-rendering:geometricPrecision"/>
    </g>
</svg>
