<svg xmlns="http://www.w3.org/2000/svg" xml:space="preserve" width="100" height="100"><path d="m50.04 14.807-4.797-2.992 4.668 2.895 2.341-2.333-3.05-4.824 3.05 4.824 3.773-1.375-.693-6.193.853 6.281 3.058.107 1.544-7.135-1.55 7.086 3.093 1.42 3.678-5.364-3.553 5.389M64.978 17c1.23 4.308-1.29 8.804-5.629 10.042s-8.852-1.25-10.081-5.558C46.192 10.71 62.126 7.006 64.977 17.002" style="display:inline;fill:#fff;stroke:#000;stroke-width:2.00001;stroke-linecap:round;stroke-linejoin:round;stroke-miterlimit:4.7;stroke-dasharray:none;stroke-opacity:1" transform="translate(-12.456 -.881)"/><path d="m59.982 31.788 20.986 15.447-16.912.302" style="display:inline;fill:none;stroke:#000;stroke-width:3;stroke-linecap:round;stroke-linejoin:round;stroke-miterlimit:4.7;stroke-dasharray:none;stroke-opacity:1" transform="translate(-12.456 -.881)"/><path d="m57.141 56.815-9.776-8.905 12.382-16.358" style="display:inline;fill:none;stroke:#000;stroke-width:3.00001;stroke-linecap:round;stroke-linejoin:round;stroke-miterlimit:4.7;stroke-dasharray:none;stroke-opacity:1" transform="translate(-12.456 -.881)"/><g style="display:inline;stroke-width:1.83867;stroke-dasharray:none"><path d="m44.242 23.499 1.19 18.313" style="fill:none;stroke:#000;stroke-width:1.83867;stroke-linecap:round;stroke-linejoin:round;stroke-miterlimit:4.7;stroke-dasharray:none;stroke-opacity:1" transform="matrix(1.63742 0 0 1.62584 -25.39 -7.298)"/><path d="m56.195 62.957-3.126-1.19-.562-10.43-6.93-9.966-7.078 10.188.284 11.298-4.043.87" style="display:inline;fill:none;stroke:#000;stroke-width:1.83867;stroke-linecap:round;stroke-linejoin:round;stroke-miterlimit:4.7;stroke-dasharray:none;stroke-opacity:1" transform="matrix(1.63742 0 0 1.62584 -25.39 -7.298)"/></g><g style="stroke-width:1.10433"><path d="M52.896 27.889c-.275-.035-.54.095-.757.252-.38.279-.684.646-.965 1.021a17 17 0 0 0-1.361 2.219q-1.347 3.531-2.69 7.064l-.834-.314.512-1.358a.285.285 0 0 0-.074-.347.28.28 0 0 0-.42.097q-2.489 6.586-4.973 13.172a.29.29 0 0 0 .043.33c.112.13.341.104.43-.04.091-.204.159-.417.242-.624l.806.305q-.706 1.86-1.416 3.717c-.015.063-.052.134-.126.135a1.17 1.17 0 0 0-1.112.515 1.16 1.16 0 0 0-.113 1.047c.089.244.27.444.482.59l-1.787 4.7a8.6 8.6 0 0 1-.607 1.325 8.4 8.4 0 0 1-3.272 3.26c-.202.115-.415.207-.623.31-.217.111-.433.275-.508.518-.133.392-.071.828.092 1.201.205.469.537.87.908 1.215.255.237.537.453.83.647a7 7 0 0 0 .627.375 9 9 0 0 0 1.44.615 7.7 7.7 0 0 0 2.363.406c.544-.002 1.1-.073 1.598-.299.385-.17.73-.464.894-.859.105-.23.052-.493-.039-.719a8.6 8.6 0 0 1-.51-1.459c-.383-1.543-.287-3.193.231-4.693.33-.897.67-1.789 1.006-2.684.013-.08.089-.154.174-.129a1.16 1.16 0 0 0 1.082-.513c.206-.308.248-.724.107-1.063a1.25 1.25 0 0 0-.504-.588q.46-1.223.918-2.447c.014-.079.096-.145.178-.12a1.16 1.16 0 0 0 .932-.323 1.16 1.16 0 0 0 .261-1.254 1.26 1.26 0 0 0-.51-.592q3.72-9.899 7.436-19.799c.128-.529.226-1.064.307-1.603.081-.576.139-1.157.119-1.739-.018-.354-.057-.72-.225-1.039a.78.78 0 0 0-.592-.431" style="fill:#fff;stroke-width:.857543;stroke-dasharray:none" transform="rotate(-31.264 52.168 32.886)scale(.90553)"/><path d="M52.14 28.141c.216-.156.481-.286.756-.252a.78.78 0 0 1 .593.432c.168.318.206.684.224 1.038.02.581-.039 1.163-.12 1.738q-.118.81-.307 1.604l-7.435 19.8c.222.142.416.341.51.59a1.16 1.16 0 0 1-.26 1.254 1.16 1.16 0 0 1-.934.324c-.082-.026-.162.04-.176.12l-.918 2.448c.219.142.41.34.503.587.141.34.099.756-.107 1.063a1.16 1.16 0 0 1-1.081.514c-.085-.025-.163.047-.176.127-.335.895-.675 1.788-1.006 2.685a8.33 8.33 0 0 0-.229 4.694c.122.5.3.987.509 1.458.091.225.145.49.04.72-.164.395-.51.688-.896.858-.499.225-1.053.296-1.596.298-.803-.001-1.602-.156-2.363-.406a9 9 0 0 1-1.44-.615 9 9 0 0 1-.31-.175q-.165-.098-.318-.2a6.3 6.3 0 0 1-.829-.646c-.371-.346-.705-.747-.91-1.216-.163-.373-.223-.808-.09-1.2.075-.243.29-.406.508-.516.208-.105.42-.197.623-.312a8.4 8.4 0 0 0 3.271-3.26 8.6 8.6 0 0 0 .607-1.325l1.787-4.7a1.26 1.26 0 0 1-.482-.59 1.16 1.16 0 0 1 .112-1.048 1.17 1.17 0 0 1 1.113-.514c.074 0 .111-.071.127-.134l1.416-3.718-.807-.305c-.083.207-.15.42-.242.623-.088.145-.318.17-.43.04a.29.29 0 0 1-.043-.328q2.484-6.586 4.973-13.172a.278.278 0 0 1 .42-.099.285.285 0 0 1 .073.349l-.511 1.356.835.315q1.343-3.533 2.689-7.064c.401-.77.845-1.52 1.36-2.22.281-.375.587-.74.967-1.02m.738.284a.8.8 0 0 0-.455.19c-.298.233-.544.526-.771.827a15 15 0 0 0-1.13 1.781c-.074.143-.158.282-.224.429l-.714 1.878.09.034 2.365.894c.242-.646.487-1.291.725-1.938.19-.846.343-1.703.392-2.569.02-.385.025-.777-.07-1.153a.75.75 0 0 0-.208-.373m-1.87 3.26a.28.28 0 0 1 .368-.105c.232.09.468.169.695.269a.29.29 0 0 1 .092.368c-.131.345-.256.693-.394 1.036a.28.28 0 0 1-.37.107c-.23-.09-.466-.168-.693-.267a.3.3 0 0 1-.11-.134c-.053-.127.026-.254.067-.373.115-.3.224-.603.344-.9m-1.62 2.36-.785 2.064.09.035 2.376.897.777-2.069zm-.98 2.579-.8 2.099c.2-.128.391-.264.593-.385a1.16 1.16 0 0 1 1.09-.009 1.17 1.17 0 0 1 .61.886l.11.615q-.271.212-.534.422a1.156 1.156 0 0 1-1.762-.388c-.087-.173-.116-.368-.172-.553l-.065-.244-1.138 2.988c.2-.131.396-.27.599-.397a1.16 1.16 0 0 1 1.117-.002 1.17 1.17 0 0 1 .593.879l.106.61c-.188.146-.372.3-.56.448a1.15 1.15 0 0 1-1.01.19 1.16 1.16 0 0 1-.788-.766c-.06-.219-.113-.44-.171-.659l-.99 2.601.187-.057c.2-.062.4-.131.611-.135a1.6 1.6 0 0 1 1.291.565c.16.186.257.413.381.623.021.031.032-.066.048-.088l3.121-8.31zm-2.312 2.02-2.45 6.493.089.033.728.275 2.466-6.486zm2.274.242a.61.61 0 0 0-.166.724.61.61 0 0 0 .71.327.61.61 0 0 0 .442-.637.61.61 0 0 0-.571-.55.6.6 0 0 0-.415.136m-1.23 3.3a.58.58 0 0 0-.232.358.607.607 0 0 0 .76.708.61.61 0 0 0 .436-.643.61.61 0 0 0-.555-.544.6.6 0 0 0-.41.121m-3.688 3.466-1.206 3.193.089.033.719.273 1.214-3.19zm2.297-.273c-.203.079-.372.223-.553.342.35.135.704.261 1.052.402.15.082.183.311.058.43a.29.29 0 0 1-.336.05L45 46.237c.049.177.078.361.146.533l.008.019a1.05 1.05 0 0 0 .982.616 1.06 1.06 0 0 0 .944-.668 1.05 1.05 0 0 0-.233-1.112 1.05 1.05 0 0 0-1.101-.245m-1.223 1.45-.702 1.846.188-.058c.196-.063.394-.133.602-.14a1.6 1.6 0 0 1 1.3.549c.164.186.263.416.387.628.024.073.036-.019.052-.049l.71-1.892c-.287.096-.571.232-.88.24a1.6 1.6 0 0 1-1.422-.74zm-.125 2.241c-.17.051-.316.16-.46.26a.103.103 0 0 0 .027.163c.292.117.59.218.88.338.148.081.182.306.062.426a.29.29 0 0 1-.34.054l-.966-.365c.049.175.075.357.142.526l.01.026a1.05 1.05 0 0 0 .978.615 1.06 1.06 0 0 0 .942-.648 1.05 1.05 0 0 0-.198-1.102 1.05 1.05 0 0 0-1.077-.293m-1.28 1.452-1.227 3.228c.163.157.308.34.374.56a1 1 0 0 1 .05.231c.013.198.048.392.075.587-.166.14-.332.28-.488.43a1.22 1.22 0 0 1-.744.269c-.068.014-.096.082-.111.142l-1.179 3.096.09.034 2.475.935.33-.88c-.07-.072-.135-.138-.196-.222a1.17 1.17 0 0 1-.223-.696l-.064-.447c.123-.11.256-.212.374-.327a1.17 1.17 0 0 1 .82-.37c.075-.013.101-.09.12-.152l.948-2.523a1.3 1.3 0 0 1-.366-.577 1.4 1.4 0 0 1-.046-.291 1 1 0 0 0-.014-.142l-.05-.35c.156-.134.318-.263.462-.41a1.2 1.2 0 0 1 .732-.288c.074-.017.093-.094.114-.155l.297-.79c-.289.1-.573.238-.885.249-.21.011-.42-.03-.623-.079-.234-.11-.462-.244-.635-.438-.17-.185-.277-.414-.41-.625M44 51.836c.041-.009.087-.03.108.022.074.083.157.184.133.303-.028.128-.092.245-.132.37-.06.182-.095.373-.152.556-.095.18-.204.354-.266.55-.21.56-.425 1.12-.632 1.683-.022.093-.079.175-.104.267-.216.577-.44 1.153-.651 1.732-.039.156-.072.313-.113.467-.1.19-.22.373-.285.58-.086.22-.16.442-.252.657-.085.143-.307.173-.425.053a.3.3 0 0 1-.066-.104c-.037-.086-.013-.179.024-.26q.587-1.548 1.167-3.098c.046-.158.084-.319.133-.476.073-.154.158-.303.223-.46.338-.895.673-1.79 1.015-2.685.05-.102.167-.147.274-.158m-3.217 2.368a.58.58 0 0 0-.215.38.6.6 0 0 0 .05.339.61.61 0 0 0 .742.32.61.61 0 0 0 .407-.663.61.61 0 0 0-.571-.517.6.6 0 0 0-.414.141m4.185-1.195a.605.605 0 1 0 .639 1.023.605.605 0 0 0-.639-1.023M43.257 57.7a.58.58 0 0 0-.307.3.6.6 0 0 0-.007.49.61.61 0 0 0 .594.368.615.615 0 0 0 .563-.511.61.61 0 0 0-.413-.67.6.6 0 0 0-.43.023m-3.587 1.883-.43 1.133.089.034 2.483.937.426-1.135zm-.639 1.644c-.15.32-.31.637-.492.938a8.95 8.95 0 0 1-2.95 3.028c-.237.147-.49.288-.743.414-.154.082-.334.141-.475.253-.041.032-.074.069-.082.122-.08.267-.022.555.089.805.22.481.595.872.997 1.208.714.59 1.556 1.01 2.43 1.306.772.256 1.584.415 2.4.388.454-.018.919-.092 1.324-.31.222-.123.418-.311.509-.553-.027-.241-.162-.45-.241-.674a8.6 8.6 0 0 1-.607-3.204 9 9 0 0 1 .166-1.692c.056-.288.13-.582.215-.867l.053-.183zm-.368 1.96c.098-.132.315-.142.42-.016a.29.29 0 0 1 .023.349 2.7 2.7 0 0 1-.395.584c-.128.106-.344.064-.416-.087l-.015-.034c-.044-.112.004-.238.085-.32a3 3 0 0 0 .298-.477M37.6 64.477c.116-.126.346-.099.43.051a.29.29 0 0 1-.042.344 5 5 0 0 1-.807.82 6.3 6.3 0 0 1-.89.597c-.293.165-.603.316-.904.477a.276.276 0 0 1-.397-.147.284.284 0 0 1 .165-.355c.533-.28 1.084-.539 1.563-.908a4.6 4.6 0 0 0 .881-.879" style="display:inline;stroke-width:.857543;stroke-dasharray:none" transform="rotate(-31.264 52.168 32.886)scale(.90553)"/></g></svg>