<svg xmlns="http://www.w3.org/2000/svg" xml:space="preserve" width="100" height="100"><path d="m59.982 31.788 20.986 15.447-16.912.302" style="display:inline;fill:none;stroke:#000;stroke-width:3;stroke-linecap:round;stroke-linejoin:round;stroke-miterlimit:4.7;stroke-dasharray:none;stroke-opacity:1" transform="translate(-12.456 -.881)"/><g style="display:inline;stroke-width:1.83867;stroke-dasharray:none"><path d="m44.242 23.499 1.19 18.313" style="fill:none;stroke:#000;stroke-width:1.83867;stroke-linecap:round;stroke-linejoin:round;stroke-miterlimit:4.7;stroke-dasharray:none;stroke-opacity:1" transform="matrix(1.63742 0 0 1.62584 -25.39 -7.298)"/><path d="m56.195 62.957-3.126-1.19-.562-10.43-6.93-9.966-7.078 10.188.284 11.298-4.043.87" style="display:inline;fill:none;stroke:#000;stroke-width:1.83867;stroke-linecap:round;stroke-linejoin:round;stroke-miterlimit:4.7;stroke-dasharray:none;stroke-opacity:1" transform="matrix(1.63742 0 0 1.62584 -25.39 -7.298)"/></g><ellipse cx="45.187" cy="18.27" rx="7.867" ry="8.062" style="display:inline;fill:#fff;stroke:#000;stroke-width:2.5;stroke-linecap:round;stroke-linejoin:round;stroke-miterlimit:4.7;stroke-dasharray:none"/><g style="display:inline;stroke-width:1.02792" transform="matrix(.9502 0 0 .99601 2.55 -.905)"><ellipse cx="33.309" cy="19.04" rx=".432" ry="2.398" style="fill:#fff;stroke:#000;stroke-width:2.56981;stroke-linecap:round;stroke-linejoin:round;stroke-miterlimit:4.7;stroke-dasharray:none"/><ellipse cx="56.448" cy="18.476" rx=".432" ry="2.398" style="fill:#fff;stroke:#000;stroke-width:2.56981;stroke-linecap:round;stroke-linejoin:round;stroke-miterlimit:4.7;stroke-dasharray:none"/><path d="M33.533 18.164c-.506-5.91 5.102-10.741 11.396-10.741 6.293 0 11.735 4.818 11.395 10.74" style="fill:none;stroke:#000;stroke-width:1.02792;stroke-linecap:round;stroke-linejoin:round;stroke-miterlimit:4.7"/></g><rect width="39.993" height="21.488" x="29.561" y="50.275" rx="1" ry="1" style="fill:#fff;stroke:none;stroke-width:.999996;stroke-linecap:round;stroke-linejoin:round;stroke-miterlimit:4.7;stroke-dasharray:none"/><path d="M68.828 72.367H30.925c-.86 0-1.56-.7-1.56-1.56v-19.7c0-.86.7-1.56 1.56-1.56h37.903c.86 0 1.56.7 1.56 1.56v19.7c0 .86-.7 1.56-1.56 1.56m-14.493-.74h14.493a.82.82 0 0 0 .82-.82v-19.7a.82.82 0 0 0-.82-.82H54.335Zm-8.175 0h7.434V50.287H46.16zM30.925 50.287a.82.82 0 0 0-.82.82v19.699c0 .451.368.82.82.82H45.42V50.287Zm21.226 20.766h-4.548a.37.37 0 0 1-.37-.37v-2.806a.37.37 0 0 1 .37-.37h4.548a.37.37 0 0 1 .37.37v2.806a.37.37 0 0 1-.37.37m-4.178-.74h3.807v-2.066h-3.807zm18.957.397a.37.37 0 0 1-.37-.37v-1.387a.942.942 0 0 1 0-1.73v-.942a.37.37 0 0 1 .741 0v.942a.942.942 0 0 1 0 1.73v1.387a.37.37 0 0 1-.37.37m0-2.822a.2.2 0 1 0 0 .4.2.2 0 0 0 0-.4m-2.295 2.822h-1.96a.37.37 0 0 1-.37-.37v-1.437a.37.37 0 0 1 .37-.37h1.96a.37.37 0 0 1 .37.37v1.437a.37.37 0 0 1-.37.37m-1.589-.74h1.219v-.696h-1.219zm-1.636.74h-1.96a.37.37 0 0 1-.37-.37v-1.437a.37.37 0 0 1 .37-.37h1.96a.37.37 0 0 1 .37.37v1.437a.37.37 0 0 1-.37.37m-1.589-.74h1.218v-.696h-1.218zm-1.636.74h-1.96a.37.37 0 0 1-.37-.37v-1.437a.37.37 0 0 1 .37-.37h1.96a.37.37 0 0 1 .37.37v1.437a.37.37 0 0 1-.37.37m-1.59-.74h1.219v-.696h-1.218Zm-14.264.74a.37.37 0 0 1-.37-.37v-.942a.943.943 0 0 1 0-1.73v-1.387a.37.37 0 0 1 .741 0v1.387a.942.942 0 0 1 0 1.73v.942a.37.37 0 0 1-.37.37m0-2.377a.2.2 0 1 0 0 .4.2.2 0 0 0 0-.4m-2.238 2.377h-1.959a.37.37 0 0 1-.37-.37v-1.437a.37.37 0 0 1 .37-.37h1.96a.37.37 0 0 1 .37.37v1.437a.37.37 0 0 1-.37.37m-1.589-.74h1.219v-.696h-1.219zm-1.636.74h-1.96a.37.37 0 0 1-.37-.37v-1.437a.37.37 0 0 1 .37-.37h1.96a.37.37 0 0 1 .37.37v1.437a.37.37 0 0 1-.37.37m-1.589-.74h1.219v-.696h-1.219zm-1.636.74h-1.96a.37.37 0 0 1-.37-.37v-1.437a.37.37 0 0 1 .37-.37h1.96a.37.37 0 0 1 .37.37v1.437a.37.37 0 0 1-.37.37m-1.59-.74h1.22v-.696h-1.22zm32.582-1.882h-1.96a.37.37 0 0 1-.37-.37v-1.437a.37.37 0 0 1 .37-.37h1.96a.37.37 0 0 1 .37.37v1.436a.37.37 0 0 1-.37.37m-1.589-.741h1.219v-.696h-1.219zm-1.636.74h-1.96a.37.37 0 0 1-.37-.37v-1.436a.37.37 0 0 1 .37-.37h1.96a.37.37 0 0 1 .37.37v1.436a.37.37 0 0 1-.37.37m-1.589-.74h1.218v-.696h-1.218zm-1.636.74h-1.96a.37.37 0 0 1-.37-.37v-1.436a.37.37 0 0 1 .37-.37h1.96a.37.37 0 0 1 .37.37v1.436a.37.37 0 0 1-.37.37m-1.59-.74h1.219v-.696h-1.218zm-16.502.74h-1.959a.37.37 0 0 1-.37-.37v-1.436a.37.37 0 0 1 .37-.37h1.96a.37.37 0 0 1 .37.37v1.436a.37.37 0 0 1-.37.37m-1.589-.74h1.219v-.696h-1.219zm-1.636.74h-1.96a.37.37 0 0 1-.37-.37v-1.436a.37.37 0 0 1 .37-.37h1.96a.37.37 0 0 1 .37.37v1.436a.37.37 0 0 1-.37.37m-1.589-.74h1.219v-.696h-1.219zm-1.636.74h-1.96a.37.37 0 0 1-.37-.37v-1.436a.37.37 0 0 1 .37-.37h1.96a.37.37 0 0 1 .37.37v1.436a.37.37 0 0 1-.37.37m-1.59-.74h1.22v-.696h-1.22zm20.098-.696a.37.37 0 0 1-.37-.37v-.46a.943.943 0 0 1 0-1.73v-1.87a.37.37 0 0 1 .74 0v1.87a.942.942 0 0 1 0 1.73v.46a.37.37 0 0 1-.37.37m0-1.895a.2.2 0 1 0 0 .4.2.2 0 0 0 0-.4m-2.274 1.895a.37.37 0 0 1-.37-.37v-1.387a.942.942 0 0 1 0-1.73v-.942a.37.37 0 0 1 .74 0v.942a.942.942 0 0 1 0 1.73v1.387a.37.37 0 0 1-.37.37m0-2.822a.2.2 0 1 0 0 .4.2.2 0 0 0 0-.4m-2.275 2.822a.37.37 0 0 1-.37-.37v-.942a.942.942 0 0 1 0-1.73v-1.387a.37.37 0 0 1 .741 0v1.387a.942.942 0 0 1 0 1.73v.942a.37.37 0 0 1-.37.37m0-2.377a.2.2 0 1 0 0 .4.2.2 0 0 0 0-.4m14.379.56a6.733 6.733 0 0 1-6.726-6.725 6.733 6.733 0 0 1 6.726-6.725 6.733 6.733 0 0 1 6.725 6.725 6.733 6.733 0 0 1-6.725 6.726m0-12.709a5.99 5.99 0 0 0-5.985 5.984c0 3.3 2.685 5.985 5.985 5.985s5.984-2.685 5.984-5.985-2.685-5.984-5.984-5.984m-24.3 12.71a6.733 6.733 0 0 1-6.726-6.726 6.733 6.733 0 0 1 6.725-6.725 6.733 6.733 0 0 1 6.725 6.725 6.733 6.733 0 0 1-6.725 6.726m0-12.71a5.99 5.99 0 0 0-5.985 5.984c0 3.3 2.684 5.985 5.984 5.985s5.984-2.685 5.984-5.985-2.684-5.984-5.984-5.984m24.3 11.29a5.31 5.31 0 0 1-5.305-5.306 5.31 5.31 0 0 1 5.305-5.304.37.37 0 0 1 0 .74 4.57 4.57 0 0 0-4.564 4.564 4.57 4.57 0 0 0 4.564 4.564.37.37 0 0 1 0 .741m-24.3 0a5.31 5.31 0 0 1-5.306-5.306 5.31 5.31 0 0 1 5.305-5.304.37.37 0 0 1 0 .74 4.57 4.57 0 0 0-4.564 4.564 4.57 4.57 0 0 0 4.564 4.564.37.37 0 0 1 0 .741m14.47-2.655a.37.37 0 0 1-.37-.37v-2.2a.37.37 0 0 1 .74 0v2.2a.37.37 0 0 1-.37.37m-2.274 0a.37.37 0 0 1-.37-.37v-2.2a.37.37 0 0 1 .74 0v2.2a.37.37 0 0 1-.37.37m-2.275 0a.37.37 0 0 1-.37-.37v-2.2a.37.37 0 0 1 .741 0v2.2a.37.37 0 0 1-.37.37m14.379-.818a1.834 1.834 0 0 1-1.832-1.833c0-1.01.821-1.832 1.832-1.832 1.01 0 1.832.822 1.832 1.832s-.822 1.833-1.832 1.833m0-2.923a1.092 1.092 0 0 0 0 2.182 1.092 1.092 0 0 0 0-2.182m-24.3 2.923a1.834 1.834 0 0 1-1.833-1.833c0-1.01.822-1.832 1.832-1.832s1.832.822 1.832 1.832-.822 1.833-1.832 1.833m0-2.923a1.092 1.092 0 0 0 0 2.182 1.092 1.092 0 0 0 0-2.182m14.47-.063a.37.37 0 0 1-.37-.371v-.053a.37.37 0 0 1 .74 0v.053a.37.37 0 0 1-.37.37m-2.274 0a.37.37 0 0 1-.37-.371v-.053a.37.37 0 0 1 .74 0v.053a.37.37 0 0 1-.37.37m-2.275 0a.37.37 0 0 1-.37-.371v-.053a.37.37 0 0 1 .741 0v.053a.37.37 0 0 1-.37.37m4.549-1.679a.37.37 0 0 1-.37-.37v-.053a.37.37 0 0 1 .74 0v.053a.37.37 0 0 1-.37.37m-2.274 0a.37.37 0 0 1-.37-.37v-.053a.37.37 0 0 1 .74 0v.053a.37.37 0 0 1-.37.37m-2.275 0a.37.37 0 0 1-.37-.37v-.053a.37.37 0 0 1 .741 0v.053a.37.37 0 0 1-.37.37m4.549-1.678a.37.37 0 0 1-.37-.37v-.054a.37.37 0 0 1 .74 0v.053a.37.37 0 0 1-.37.371m-2.274 0a.37.37 0 0 1-.37-.37v-.054a.37.37 0 0 1 .74 0v.053a.37.37 0 0 1-.37.371m-2.275 0a.37.37 0 0 1-.37-.37v-.054a.37.37 0 0 1 .741 0v.053a.37.37 0 0 1-.37.371m4.549-1.678a.37.37 0 0 1-.37-.37v-.054a.37.37 0 0 1 .74 0v.053a.37.37 0 0 1-.37.37m-2.274 0a.37.37 0 0 1-.37-.37v-.054a.37.37 0 0 1 .74 0v.053a.37.37 0 0 1-.37.37m-2.275 0a.37.37 0 0 1-.37-.37v-.054a.37.37 0 0 1 .741 0v.053a.37.37 0 0 1-.37.37" style="stroke-width:.999998"/><path d="m55.755 56.815-8.39-8.905 12.382-16.358" style="display:inline;fill:none;stroke:#000;stroke-width:3.00001;stroke-linecap:round;stroke-linejoin:round;stroke-miterlimit:4.7;stroke-dasharray:none;stroke-opacity:1" transform="translate(-12.456 -.881)"/></svg>