<svg xmlns="http://www.w3.org/2000/svg" xml:space="preserve" width="70" height="100">
    <path d="M9.595 13.732 4.798 10.74l4.668 2.895 2.341-2.333-3.05-4.824 3.05 4.824 3.773-1.375-.693-6.193.853 6.281 3.058.107 1.544-7.135-1.55 7.086 3.093 1.42 3.678-5.364-3.553 5.39m2.523 4.406c1.23 4.308-1.29 8.804-5.629 10.042s-8.852-1.25-10.08-5.558C5.746 9.635 21.68 5.931 24.531 15.927" style="display:inline;fill:#fff;stroke:#000;stroke-width:2.00001;stroke-linecap:round;stroke-linejoin:round;stroke-miterlimit:4.7;stroke-dasharray:none;stroke-opacity:1"/>
    <path d="m38.261 41.256 6.546-13.51" style="display:inline;fill:#36c;stroke:#000;stroke-width:3;stroke-linecap:round;stroke-linejoin:round;stroke-miterlimit:4.7;stroke-dasharray:none;stroke-opacity:1"/>
    <g style="display:inline;stroke:#000;stroke-width:.2;stroke-dasharray:none;stroke-opacity:1">
        <path d="M52.13 12.81a.3.3 0 0 0-.154.24l-.085 1.254a.295.295 0 0 0 .402.295l1.31-.513 2.29.156q.042.115.125.21l.002.002a.7.7 0 0 0 .486.24l1.017.07a3 3 0 0 0-.34.26 2.97 2.97 0 0 0-1.019 2.048 2.98 2.98 0 0 0 .732 2.169 2.98 2.98 0 0 0 2.051 1.018l1.993.135q.09.19.225.345a1.53 1.53 0 0 0 1.05.519l4.108.28-.082 1.198a.826.826 0 0 0 .774.883.83.83 0 0 0 .883-.771l.134-1.971.185.012-.134 1.972a.83.83 0 0 0 .773.883.83.83 0 0 0 .884-.771l.134-1.971.185.012-.134 1.972a.83.83 0 0 0 .773.883.83.83 0 0 0 .883-.771l.135-1.97 10.056.681a2.97 2.97 0 0 0 2.168-.73 2.97 2.97 0 0 0 1.018-2.05 2.97 2.97 0 0 0-.56-1.957l.535.047a9 9 0 0 1 2.129.459c1.174.41 2.185 1.257 2.847 2.384.39.664.838.829 1.145.85.608.04 1.19-.427 1.643-1.315.412-.812.684-1.903.764-3.074.175-2.583-.595-4.592-1.791-4.673-.31-.02-.78.083-1.258.696-.825 1.057-1.952 1.773-3.175 2.015a9 9 0 0 1-2.134.159l-12.905-.605.034-.514-.532-.036.028-.405.183.013a.296.296 0 1 0 .04-.59l-.957-.065a.296.296 0 1 0-.04.59l.184.011-.026.406-.535-.036-.037.548-.187-.01.04-.55-.535-.037.029-.406.183.014a.296.296 0 1 0 .04-.59l-.958-.066a.296.296 0 1 0-.04.59l.185.012-.029.406-.532-.036-.041.586-.186-.01.042-.588-.535-.037.027-.406.185.014a.296.296 0 1 0 .04-.59l-.957-.066a.296.296 0 1 0-.04.59l.184.012-.029.405-.532-.035-.043.625-10.263-.482a.71.71 0 0 0-.656.37l-2.288-.154-1.229-.687a.3.3 0 0 0-.285 0z" style="display:inline;fill:#fff;stroke:#000;stroke-width:.2;stroke-dasharray:none;stroke-opacity:1" transform="rotate(7.337 -21.369 -179.724)"/>
        <path d="M92.698 19.496c.412-.81.684-1.902.763-3.073.175-2.583-.595-4.592-1.792-4.673-.309-.021-.778.082-1.256.695-.826 1.057-1.954 1.773-3.176 2.016a9 9 0 0 1-2.134.159l-12.905-.606.035-.512-.533-.037.028-.405.184.013a.296.296 0 1 0 .04-.59l-.958-.065a.296.296 0 1 0-.04.59l.184.012-.027.405-.534-.036-.037.548-.186-.01.038-.55-.534-.036.028-.406.184.013a.296.296 0 1 0 .04-.59l-.958-.065a.296.296 0 1 0-.04.59l.184.012-.027.405-.534-.036-.04.586-.185-.009.04-.59-.534-.036.028-.405.184.012a.295.295 0 1 0 .04-.589l-.957-.065a.296.296 0 1 0-.04.59l.184.012-.028.405-.533-.036-.043.625-10.264-.482a.71.71 0 0 0-.655.37l-2.288-.155-1.23-.685a.296.296 0 0 0-.438.238l-.085 1.254a.295.295 0 0 0 .402.295l1.31-.513 2.29.156q.042.116.125.21l.002.003a.7.7 0 0 0 .486.24l1.018.07q-.179.115-.342.258a2.97 2.97 0 0 0-1.017 2.05 2.98 2.98 0 0 0 .732 2.168 2.98 2.98 0 0 0 2.05 1.019l1.992.135q.091.19.226.345a1.53 1.53 0 0 0 1.05.518l4.108.28-.081 1.197a.827.827 0 0 0 .772.885.83.83 0 0 0 .884-.772l.134-1.972.186.013-.134 1.971a.827.827 0 0 0 .772.885.83.83 0 0 0 .884-.772L69.874 21l.185.013-.134 1.971a.83.83 0 0 0 .204.602.83.83 0 0 0 .568.283.83.83 0 0 0 .885-.772l.134-1.971 10.056.682a2.97 2.97 0 0 0 2.169-.73 2.97 2.97 0 0 0 1.017-2.05 2.97 2.97 0 0 0-.56-1.956l.536.047c.724.065 1.44.219 2.127.459 1.174.41 2.185 1.255 2.847 2.383.39.664.84.829 1.146.85.608.04 1.191-.426 1.644-1.315m-40.186-5.618.022-.324.332.186zm17.988.647-.035.523-.186-.013.035-.519zm-.323 2.019.185.012-.2 2.947-.185-.013zm.04-.59.022-.33.186.013-.023.33zm-1.561-1.516-.033.485-.186-.012.033-.481zm-.321 1.98.185.013-.2 2.947-.185-.013zm.04-.589.022-.329.185.013-.022.329zm-11.83-1.723a.12.12 0 0 1-.08-.042.12.12 0 0 1-.029-.084.116.116 0 0 1 .123-.109l10.252.481-.03.446-5.196-.351v-.004zm2.441 5.563a2.403 2.403 0 0 1-2.232-2.557 2.4 2.4 0 0 1 .817-1.646 2.4 2.4 0 0 1 1.595-.591l7.575.513-.023.328-7.4-.502a2.06 2.06 0 0 0-1.5.505 2.06 2.06 0 0 0-.702 1.418 2.06 2.06 0 0 0 .506 1.499 2.06 2.06 0 0 0 1.417.704l7.4.502-.023.331zm7.492-.417-4.665-.316a.93.93 0 0 1 .57-.146l4.108.279zM62.422 18.2a1.52 1.52 0 0 0-1.38.683l-1.963-.133a1.47 1.47 0 0 1-1.013-.502 1.47 1.47 0 0 1-.36-1.071 1.47 1.47 0 0 1 .502-1.013 1.47 1.47 0 0 1 1.07-.36l7.4.502-.147 2.173zm-.167 2.468a.94.94 0 0 1-.548-.222l4.669.317-.013.184zm4.8 2.361a.245.245 0 0 1-.224-.255l.612-9.007.477.033-.611 9.007a.24.24 0 0 1-.255.222m1.018-2.743.022-.332.186.013-.023.332zm.823 2.868a.245.245 0 0 1-.222-.255l.611-9.007.478.033-.612 9.007a.24.24 0 0 1-.255.222m1.018-2.743.023-.331.185.012-.022.332zm.824 2.869a.245.245 0 0 1-.223-.256l.612-9.007.477.033-.611 9.007a.24.24 0 0 1-.255.222m1.093-3.848 8.325.565a.48.48 0 0 1 .365.21l-8.702-.59zm9.34.82a1.1 1.1 0 0 0-.24-.48 1.06 1.06 0 0 0-.735-.364l-8.325-.565.148-2.174 10.025.681a1.47 1.47 0 0 1 1.013.503c.26.296.387.677.36 1.07a1.47 1.47 0 0 1-.502 1.013 1.47 1.47 0 0 1-1.071.361zm2.382.382a2.4 2.4 0 0 1-1.74.586l-10.057-.683.022-.332 10.026.681a2.05 2.05 0 0 0 1.5-.505 2.05 2.05 0 0 0 .702-1.417 2.05 2.05 0 0 0-.505-1.5 2.05 2.05 0 0 0-1.417-.703l-10.025-.681.022-.33 10.057.681a2.4 2.4 0 0 1 1.645.816 2.4 2.4 0 0 1 .586 1.74 2.38 2.38 0 0 1-.816 1.647zm7.542-.412c-.3-.02-.533-.316-.677-.56-.733-1.247-1.856-2.186-3.162-2.641a9.4 9.4 0 0 0-2.27-.489l-1.23-.11a2.96 2.96 0 0 0-1.579-.58l-10.056-.68.038-.558 12.917.606a9.4 9.4 0 0 0 2.276-.17c1.362-.27 2.614-1.063 3.527-2.231.176-.226.45-.49.751-.47.714.049 1.4 1.721 1.243 4.044-.075 1.093-.323 2.104-.701 2.846-.333.655-.726 1.017-1.077.993" style="display:inline;stroke:#000;stroke-width:.2;stroke-dasharray:none;stroke-opacity:1" transform="rotate(7.337 -21.369 -179.724)"/>
    </g>
    <path d="M19.537 30.713 38.303 41.27" style="display:inline;fill:none;stroke:#000;stroke-width:3;stroke-linecap:round;stroke-linejoin:round;stroke-miterlimit:4.7;stroke-dasharray:none;stroke-opacity:1"/>
    <path d="m40.887 25.05-9.932 20.47-11.653-15.043" style="display:inline;fill:none;stroke:#000;stroke-width:3.00001;stroke-linecap:round;stroke-linejoin:round;stroke-miterlimit:4.7;stroke-dasharray:none;stroke-opacity:1"/>
    <g style="display:inline;stroke-width:1.83867;stroke-dasharray:none">
        <path d="m44.242 23.499 1.19 18.313" style="fill:none;stroke:#000;stroke-width:1.83867;stroke-linecap:round;stroke-linejoin:round;stroke-miterlimit:4.7;stroke-dasharray:none;stroke-opacity:1" transform="matrix(1.63742 0 0 1.62584 -53.379 -7.492)"/>
        <path d="m56.195 62.957-3.126-1.19-.659-11.799-6.833-8.597-7.078 10.188.284 11.298-4.043.87" style="display:inline;fill:none;stroke:#000;stroke-width:1.83867;stroke-linecap:round;stroke-linejoin:round;stroke-miterlimit:4.7;stroke-dasharray:none;stroke-opacity:1" transform="matrix(1.63742 0 0 1.62584 -53.379 -7.492)"/>
    </g>
</svg>
