<?xml version="1.0" encoding="UTF-8" standalone="no"?>
<!-- Uploaded to: SVG Repo, www.svgrepo.com, Generator: SVG Repo Mixer Tools -->

<svg
   fill="#000000"
   height="100"
   width="100"
   version="1.1"
   id="Capa_1"
   viewBox="0 0 100 100"
   xml:space="preserve"
   sodipodi:docname="human_cello_1.svg"
   inkscape:version="1.3.2 (091e20e, 2023-11-25)"
   xmlns:inkscape="http://www.inkscape.org/namespaces/inkscape"
   xmlns:sodipodi="http://sodipodi.sourceforge.net/DTD/sodipodi-0.dtd"
   xmlns="http://www.w3.org/2000/svg"
   xmlns:svg="http://www.w3.org/2000/svg"><defs
   id="defs1" /><sodipodi:namedview
   id="namedview1"
   pagecolor="#ffffff"
   bordercolor="#000000"
   borderopacity="0.25"
   inkscape:showpageshadow="2"
   inkscape:pageopacity="0.0"
   inkscape:pagecheckerboard="0"
   inkscape:deskcolor="#d1d1d1"
   inkscape:zoom="3.4199033"
   inkscape:cx="72.95528"
   inkscape:cy="74.124903"
   inkscape:window-width="1536"
   inkscape:window-height="682"
   inkscape:window-x="0"
   inkscape:window-y="25"
   inkscape:window-maximized="0"
   inkscape:current-layer="XMLID_23_" />
<g
   id="XMLID_23_"
   transform="matrix(0.19540181,0,0,0.19540181,4.9998765,5.0000008)"
   style="stroke-width:5.11766">
	<path
   id="XMLID_28_"
   style="stroke-width:5.11766"
   sodipodi:type="inkscape:offset"
   inkscape:radius="1.2030615"
   inkscape:original="M 309.80664 240.26758 C 295.04264 251.97358 295.27036 251.87519 293.19336 253.24219 C 298.23536 257.24719 333.08891 268.18466 346.50391 308.09766 C 357.86891 341.90966 346.28975 377.63823 321.84375 403.99023 C 322.16975 416.08323 332.05166 425.79297 344.22266 425.79297 C 356.59966 425.79297 366.63477 415.75786 366.63477 403.38086 L 366.63477 283.25586 C 366.63477 274.87086 361.95391 267.1878 354.50391 263.3418 L 309.80664 240.26758 z "
   d="m 310.35937,239.19922 a 1.2031818,1.2031818 0 0 0 -1.30078,0.125 c -14.76613,11.70769 -14.46193,11.55274 -16.52734,12.91211 a 1.2031818,1.2031818 0 0 0 -0.0859,1.94726 c 1.58026,1.25525 4.59834,2.57244 8.75586,4.76953 4.15753,2.1971 9.34631,5.15462 14.78711,9.21485 10.88161,8.12046 22.75718,20.62281 29.375,40.3125 11.20482,33.33543 -0.19628,68.59805 -24.40234,94.6914 a 1.2031818,1.2031818 0 0 0 -0.32032,0.85157 c 0.34319,12.73033 10.7712,22.97265 23.58204,22.97265 13.02727,0 23.61523,-10.58796 23.61523,-23.61523 v -120.125 c 0,-8.83272 -4.93346,-16.93107 -12.78125,-20.98242 z"
   transform="translate(-10.23532)" />
	<circle
   id="XMLID_1294_"
   cx="246.379"
   cy="38.895"
   r="38.895"
   style="stroke-width:5.11766" />
	<path
   id="XMLID_1300_"
   style="stroke:none;stroke-width:3.58236;stroke-dasharray:none;stroke-opacity:0.492929"
   sodipodi:type="inkscape:offset"
   inkscape:radius="-3.3489277"
   inkscape:original="M 129.96484 226.27734 C 126.78639 236.32124 126.73807 247.45182 130.50586 257.3457 C 133.17766 264.47921 137.74432 270.82946 143.41797 275.88477 C 152.12418 284.26879 156.52103 296.81882 155.09961 308.80664 C 154.48517 314.57835 152.43994 320.12006 149.58594 325.14844 C 143.23086 337.52674 140.0293 351.74009 141.75391 365.63281 C 143.48053 379.80289 150.29177 393.27887 160.67383 403.07617 C 170.88263 412.80766 184.03266 419.07955 197.70117 422.21875 C 212.49459 425.66875 227.99151 425.60873 242.88477 422.79688 C 245.323 422.37527 247.76098 421.95286 250.19922 421.53125 C 253.92369 432.33563 257.57649 443.16575 261.36523 453.94727 C 263.28484 458.38821 268.31598 461.23469 273.11328 460.47852 C 277.22463 459.95996 280.90256 456.98109 282.18945 453.03125 C 283.11319 450.49445 282.96232 447.67217 282.01367 445.16602 C 278.41223 434.73995 274.85121 424.29979 271.26172 413.86914 C 277.4013 410.32414 283.68641 406.98556 289.41406 402.78125 C 302.74469 393.19722 314.10108 380.5868 321.20508 365.71289 C 326.83603 353.90101 329.61996 340.54777 328.01758 327.48828 C 326.63052 315.84204 321.83463 304.6264 314.31055 295.62305 C 307.91986 287.8762 299.71156 281.71697 290.67383 277.38281 C 285.60436 274.88291 280.39963 272.36361 276.32227 268.35352 C 273.68542 265.81783 271.55312 262.81152 269.69727 259.67188 C 263.45635 259.36075 257.28106 257.60086 251.89258 254.41992 C 249.66131 253.10985 247.55024 251.595 245.59961 249.89453 C 248.037 264.52844 256.26786 278.09996 268.12891 287.01367 C 272.2753 290.17917 276.89913 292.65352 281.66406 294.74805 C 290.62136 299.04094 298.69414 305.68785 303.54492 314.46094 C 308.8469 323.86766 310.16253 335.30192 307.61328 345.75391 C 304.89193 357.34661 298.28671 367.70429 290.14453 376.25781 C 285.58092 381.09031 280.27897 385.12424 275.24023 389.43359 C 273.86025 390.59053 272.47958 391.74736 271.09961 392.9043 C 266.60999 379.82293 262.1198 366.74176 257.63086 353.66016 C 262.33179 352.01142 267.08511 350.3021 271.73828 348.72461 C 274.3628 347.93983 276.7901 346.34751 278.26172 344 C 280.57278 340.57864 280.74262 335.87646 278.64844 332.3125 C 276.56773 328.48625 272.09101 326.22021 267.77734 326.69141 C 265.44219 326.92904 263.31246 328.0127 261.08789 328.68555 C 240.13676 335.93459 219.17198 343.14291 198.23633 350.43555 C 193.73417 352.29612 190.82081 357.34862 191.55078 362.17969 C 192.05002 366.30777 195.0273 370.01395 198.99023 371.31055 C 201.48954 372.2212 204.2722 372.10822 206.75 371.18359 C 212.44232 369.18687 218.15379 367.2459 223.85352 365.26953 C 228.40922 378.54437 232.96651 391.81866 237.52148 405.09375 C 231.44511 405.14235 225.36929 405.31076 219.29297 405.2793 C 206.66788 405.03293 193.90013 402.05844 183.03711 395.4707 C 174.6922 390.41659 167.63202 382.93112 163.97461 373.80664 C 160.36614 365.00013 160.0371 355.0208 162.50781 345.87109 C 163.87319 340.52756 166.22383 335.50427 168.83008 330.66602 C 175.29526 317.69209 176.76058 302.31864 172.83789 288.36133 C 169.83286 277.50164 163.63902 267.55783 155.23438 260.05469 C 150.40652 255.38875 147.37888 248.84395 147.25391 242.10352 C 147.09846 237.65078 148.15646 233.24218 149.75977 229.11328 C 143.16424 228.17245 136.5465 227.19571 129.96484 226.27734 z "
   d="m 132.52344,230.02734 c -2.17149,8.63667 -2.02523,17.89065 1.11133,26.12696 a 3.3492626,3.3492626 0 0 1 0.008,0.0176 c 2.46113,6.57106 6.70388,12.49049 12.0039,17.2129 a 3.3492626,3.3492626 0 0 1 0.0937,0.0879 c 9.49751,9.14603 14.22776,22.65123 12.6875,35.70507 -0.67537,6.31935 -2.89584,12.27782 -5.92968,17.62305 l 0.0664,-0.12305 c -6.08806,11.85821 -9.11411,25.43022 -7.48633,38.54297 a 3.3492626,3.3492626 0 0 1 0,0.008 c 1.62955,13.37342 8.09559,26.16508 17.89454,35.4121 a 3.3492626,3.3492626 0 0 1 0.0117,0.0117 c 9.68934,9.23632 22.29004,15.27648 35.4668,18.30274 a 3.3492626,3.3492626 0 0 1 0.01,0.002 c 14.28126,3.33056 29.31711,3.28372 43.80273,0.54883 a 3.3492626,3.3492626 0 0 1 0.0508,-0.01 c 2.43749,-0.42148 4.87548,-0.84388 7.31446,-1.26562 a 3.3492626,3.3492626 0 0 1 3.73632,2.20898 c 3.70774,10.75584 7.33966,21.51748 11.09571,32.21094 1.29452,2.94489 4.97838,5.01644 8.13086,4.51953 a 3.3492626,3.3492626 0 0 1 0.10156,-0.0137 c 2.77757,-0.35033 5.45418,-2.52769 6.3125,-5.16211 a 3.3492626,3.3492626 0 0 1 0.0371,-0.10937 c 0.61039,-1.67627 0.53346,-3.69564 -0.16211,-5.53321 a 3.3492626,3.3492626 0 0 1 -0.0332,-0.0918 c -3.60427,-10.43425 -7.16445,-20.87589 -10.75196,-31.30079 a 3.3492626,3.3492626 0 0 1 1.49219,-3.99023 c 6.20817,-3.5846 12.37645,-6.87351 17.84375,-10.88672 a 3.3492626,3.3492626 0 0 1 0.0273,-0.0195 c 12.93135,-9.29696 23.89953,-21.50637 30.72266,-35.79102 l 0.002,-0.002 c 5.39282,-11.31334 8.02134,-24.05368 6.50977,-36.37305 a 3.3492626,3.3492626 0 0 1 -0.002,-0.0117 c -1.30971,-10.99679 -5.85564,-21.62273 -12.95118,-30.11329 a 3.3492626,3.3492626 0 0 1 -0.0137,-0.0176 c -6.0494,-7.33314 -13.86482,-13.21046 -22.5,-17.35157 a 3.3492626,3.3492626 0 0 1 -0.0332,-0.0156 c -5.04963,-2.49012 -10.61437,-5.1252 -15.20508,-9.63477 -2.49571,-2.40306 -4.46459,-5.13852 -6.21484,-7.92578 -5.82525,-0.52649 -11.53967,-2.20024 -16.69336,-5.07031 3.55408,10.4795 10.22709,19.94164 19.06054,26.58008 a 3.3492626,3.3492626 0 0 1 0.0195,0.0156 c 3.86095,2.94759 8.24547,5.30537 12.85156,7.33008 a 3.3492626,3.3492626 0 0 1 0.0996,0.0469 c 9.46013,4.53388 18.0892,11.58202 23.35547,21.09765 5.74831,10.2045 7.14123,22.4553 4.40234,33.70313 -2.89691,12.33009 -9.85175,23.16329 -18.29883,32.03711 -4.81142,5.09273 -10.21621,9.18884 -15.15429,13.41211 A 3.3492626,3.3492626 0 0 1 277.39258,392 c -1.38048,1.15736 -2.76117,2.31419 -4.14063,3.4707 a 3.3492626,3.3492626 0 0 1 -5.32031,-1.47851 c -4.48958,-13.08127 -8.97974,-26.16235 -13.46875,-39.24414 A 3.3492626,3.3492626 0 0 1 256.52344,350.5 c 4.68408,-1.64283 9.44561,-3.35625 14.13867,-4.94727 a 3.3492626,3.3492626 0 0 1 0.11719,-0.0371 c 1.97625,-0.59093 3.69116,-1.77411 4.64453,-3.29492 a 3.3492626,3.3492626 0 0 1 0.0625,-0.0957 c 1.55699,-2.30502 1.67768,-5.72876 0.27539,-8.11523 a 3.3492626,3.3492626 0 0 1 -0.0547,-0.0977 c -1.38271,-2.54269 -4.65352,-4.20881 -7.56641,-3.89063 a 3.3492626,3.3492626 0 0 1 -0.0234,0.002 c -1.4999,0.15263 -3.42272,1.06065 -5.98438,1.84375 -20.88416,7.22579 -41.77643,14.40928 -62.63281,21.67383 -2.98683,1.24494 -5.11954,4.95618 -4.63867,8.13867 a 3.3492626,3.3492626 0 0 1 0.0137,0.0976 c 0.33738,2.78974 2.51474,5.48536 5.15625,6.34961 a 3.3492626,3.3492626 0 0 1 0.10547,0.0371 c 1.66435,0.60643 3.65129,0.55155 5.44336,-0.11719 a 3.3492626,3.3492626 0 0 1 0.0605,-0.0234 c 5.71291,-2.00394 11.42855,-3.94612 17.11524,-5.91797 a 3.3492626,3.3492626 0 0 1 4.26562,2.07617 c 4.55561,13.27457 9.11288,26.55073 13.66797,39.82617 a 3.3492626,3.3492626 0 0 1 -3.14062,4.43555 c -6.03235,0.0482 -12.12369,0.21739 -18.27344,0.18555 a 3.3492626,3.3492626 0 0 1 -0.0469,-0.002 c -13.10589,-0.25575 -26.45063,-3.33271 -37.92579,-10.29101 l -0.002,-0.002 c -8.87759,-5.37732 -16.45287,-13.3572 -20.42969,-23.26953 -3.91043,-9.55139 -4.24182,-20.23955 -1.59961,-30.04297 1.46972,-5.74026 3.94635,-10.99969 6.60938,-15.94336 l -0.0488,0.0937 c 6.08425,-12.20949 7.47185,-26.77278 3.78125,-39.90429 a 3.3492626,3.3492626 0 0 1 -0.004,-0.0137 c -2.82971,-10.22614 -8.68763,-19.63262 -16.60546,-26.70118 a 3.3492626,3.3492626 0 0 1 -0.0977,-0.0898 c -5.44443,-5.26183 -8.84869,-12.57954 -8.99805,-20.27344 -0.12139,-3.59391 0.58172,-7.01271 1.53711,-10.3125 -4.31519,-0.62173 -8.62572,-1.24082 -12.92187,-1.84961 z" />
	<g
   id="g1"
   style="stroke-width:5.11766">
		<path
   id="path1"
   style="stroke-width:5.11766"
   sodipodi:type="inkscape:offset"
   inkscape:radius="-3.6532989"
   inkscape:original="M 125.625 0.89453125 C 123.44822 0.72582813 121.20527 0.98125 119.00977 1.71875 C 118.99377 1.72375 118.97794 1.7303281 118.96094 1.7363281 C 110.17094 4.7153281 105.47887 14.235953 108.42188 23.001953 L 110.54102 29.314453 C 108.53002 30.009453 103.52186 31.7415 101.50586 32.4375 C 95.656859 34.4585 92.553219 40.8375 94.574219 46.6875 C 96.592219 52.5265 102.96417 55.644141 108.82617 53.619141 L 117.67188 50.5625 L 121.50977 61.998047 L 112.8418 64.994141 C 107.1238 66.970141 103.68544 73.063234 105.39844 78.865234 C 107.03844 84.419234 112.52447 87.674672 117.98047 86.763672 C 118.08247 86.746672 118.1822 86.719219 118.2832 86.699219 C 119.2942 86.501219 119.78625 86.306891 120.78125 85.962891 L 113.44727 109.20898 L 100.11914 151.44922 C 96.728141 162.19822 104.75134 173.31445 116.15234 173.31445 C 121.91034 173.31445 121.78697 172.6598 152.66797 154.8418 C 156.47097 166.1748 158.96711 173.61419 163.03711 185.74219 C 156.27911 184.76919 137.95389 182.13016 131.21289 181.16016 C 125.13989 180.29016 119.4273 184.49195 118.5293 190.62695 C 118.5283 190.63595 118.52444 190.6443 118.52344 190.6543 C 117.63244 196.8393 121.96958 202.4708 128.01758 203.3418 L 171.02148 209.5332 L 190.83984 268.58203 C 193.80384 277.41303 203.35009 282.11292 212.12109 279.16992 C 220.85209 276.23892 225.67798 266.73272 222.70898 257.88672 L 208.28125 214.89844 C 232.12125 218.33044 239.43984 219.38456 254.83984 221.60156 C 255.05284 224.89756 256.22659 228.16327 258.43359 230.94727 C 264.14759 238.15327 274.60139 239.4442 281.90039 233.7832 C 281.94839 233.7462 281.99983 233.71378 282.04883 233.67578 C 362.69683 169.73278 353.93847 176.69127 354.98047 175.82227 C 362.52547 169.52527 362.96758 158.3858 356.51758 151.4668 C 351.53258 146.1188 322.98345 115.58095 306.31445 97.751953 C 303.39545 94.628953 299.31502 92.862234 295.04102 92.865234 L 199.06641 92.941406 C 194.98841 92.944406 190.98141 94.013062 187.44141 96.039062 L 171.46289 105.18555 L 160.41406 72.267578 L 169.47852 69.134766 C 175.32752 67.113766 178.43016 60.733766 176.41016 54.884766 C 176.40616 54.872766 176.40048 54.861609 176.39648 54.849609 C 174.32548 48.920609 168.78075 45.665203 160.84375 48.408203 L 153.2832 51.019531 L 149.44531 39.582031 L 158.49609 36.455078 C 164.34509 34.434078 167.44873 28.054078 165.42773 22.205078 C 165.42273 22.189078 165.41516 22.174203 165.41016 22.158203 C 163.35816 16.299203 156.94373 13.281437 151.17773 15.273438 L 142.31641 18.335938 L 140.29297 12.304688 C 138.08347 5.7234375 132.15534 1.4006406 125.625 0.89453125 z M 202.17773 126.27344 L 211.00391 152.57031 C 233.08391 153.46631 252.59133 161.43772 266.48633 174.51172 L 296.08203 151.04688 L 296.08203 135.9375 C 307.69203 148.3915 300.81272 141.01231 319.51172 161.07031 L 269.12891 201.01758 L 200.29688 191.10742 L 182.37305 137.70117 L 202.17773 126.27344 z "
   d="m 125.3418,4.5371094 c -1.69958,-0.1317193 -3.44038,0.066076 -5.16407,0.6445312 a 3.6536642,3.6536642 0 0 1 -0.0449,0.015625 c -6.9233,2.3463606 -10.56415,9.7438564 -8.24804,16.6425784 l 2.11914,6.3125 a 3.6536642,3.6536642 0 0 1 -2.26953,4.615234 c -2.00974,0.694564 -7.01802,2.425977 -9.03711,3.123047 -3.982145,1.376932 -6.046146,5.619901 -4.669926,9.603516 1.373596,3.974444 5.609526,6.052255 9.605466,4.671875 l 8.84571,-3.056641 a 3.6536642,3.6536642 0 0 1 4.65625,2.291016 l 3.83789,11.435546 a 3.6536642,3.6536642 0 0 1 -2.26953,4.615235 l -8.66797,2.996094 c -3.95405,1.366419 -6.27321,5.520266 -5.13282,9.382812 1.12316,3.80365 4.80744,5.94272 8.47657,5.330078 -0.14622,0.02437 -0.0811,0.0098 0.19531,-0.04492 a 3.6536642,3.6536642 0 0 1 0.008,-0.002 c 0.78796,-0.154318 0.96083,-0.242218 2.00586,-0.603515 a 3.6536642,3.6536642 0 0 1 4.67774,4.552734 l -7.33399,23.24609 -13.32812,42.24024 c -2.67616,8.48304 3.52253,17.11328 12.54882,17.11328 2.74055,0 2.80185,0.14163 7.13672,-2.13672 4.33487,-2.27835 12.09365,-6.92793 27.55274,-15.84766 a 3.6536642,3.6536642 0 0 1 5.28906,2.00196 c 3.80301,11.33304 6.29917,18.77247 10.36914,30.90039 a 3.6536642,3.6536642 0 0 1 -3.98438,4.77734 c -6.7582,-0.97303 -25.08201,-3.61214 -31.82226,-4.58203 l 0.002,0.002 c -4.12012,-0.59023 -7.93972,2.20426 -8.55078,6.37891 l 0.0156,-0.125 c -0.0876,0.78803 -0.0735,0.70216 -0.002,-0.0137 a 3.6536642,3.6536642 0 0 1 -0.0195,0.1582 c -0.6078,4.21917 2.30753,7.96135 6.40039,8.55078 l 43.00391,6.19141 a 3.6536642,3.6536642 0 0 1 2.9414,2.45312 l 19.81836,59.04883 c 2.3355,6.95842 9.75524,10.60266 16.65625,8.28711 6.85673,-2.30181 10.62493,-9.6928 8.28711,-16.6582 l -14.42773,-42.98828 a 3.6536642,3.6536642 0 0 1 3.98437,-4.77735 c 23.84003,3.43201 31.15869,4.48614 46.5586,6.70313 a 3.6536642,3.6536642 0 0 1 3.125,3.3789 c 0.16731,2.58906 1.07582,5.12425 2.81054,7.3125 4.49816,5.67269 12.61362,6.67962 18.36524,2.21875 a 3.6536642,3.6536642 0 0 1 0.008,-0.006 c 0.17845,-0.13755 0.15091,-0.11216 0.10938,-0.0781 l 0.0117,-0.01 c 40.30874,-31.9594 58.28753,-46.20851 66.30664,-52.56836 8.01908,-6.35983 5.83817,-4.63061 6.54101,-5.21679 5.97166,-4.9839 6.26665,-13.63303 1.20703,-19.06055 -4.97102,-5.33301 -33.53032,-35.88206 -50.19922,-53.71094 a 3.6536642,3.6536642 0 0 1 -0.002,0 c -2.22858,-2.38433 -5.33596,-3.730804 -8.60156,-3.728512 l -95.97461,0.07617 c -3.44152,0.0025 -6.82333,0.904484 -9.8125,2.615234 l -15.97852,9.146486 A 3.6536642,3.6536642 0 0 1 168,106.34766 L 156.95117,73.429687 a 3.6536642,3.6536642 0 0 1 2.26953,-4.615234 l 9.06446,-3.132812 c 3.98276,-1.37616 6.04748,-5.620375 4.67187,-9.603516 a 3.6536642,3.6536642 0 0 1 -0.0117,-0.03711 c 0.10928,0.327823 0.10165,0.316667 -0.0156,-0.03516 l 0.0176,0.04883 c -0.76944,-2.202785 -1.99964,-3.597802 -3.65235,-4.357421 -1.65271,-0.75962 -3.95926,-0.975907 -7.25781,0.164062 l -7.56055,2.611328 a 3.6536642,3.6536642 0 0 1 -4.65625,-2.291015 l -3.83789,-11.4375 a 3.6536642,3.6536642 0 0 1 2.26953,-4.615235 l 9.05078,-3.126953 c 3.98289,-1.376202 6.04802,-5.620815 4.67188,-9.603516 a 3.6536642,3.6536642 0 0 1 -0.0117,-0.0332 c -1.39628,-3.986759 -5.69254,-5.98576 -9.5918,-4.638672 l -8.86132,3.0625 a 3.6536642,3.6536642 0 0 1 -4.65625,-2.291015 l -2.02344,-6.03125 C 135.09446,8.2970617 130.44415,4.9325481 125.3418,4.5371094 Z m 36.62109,18.8281246 a 3.6536642,3.6536642 0 0 1 -0.0215,-0.07031 c 0.11584,0.370713 0.10827,0.355838 -0.0176,-0.04687 z m 41.50781,99.492186 a 3.6536642,3.6536642 0 0 1 2.16992,2.25391 l 8.06055,24.01562 c 20.62471,1.34483 39.04215,8.69568 52.86524,20.65821 l 25.86328,-20.50391 V 135.9375 a 3.6536642,3.6536642 0 0 1 6.32422,-2.49023 c 11.61,12.454 4.73071,5.07483 23.42968,25.13281 a 3.6536642,3.6536642 0 0 1 -0.40234,5.35351 l -50.38281,39.94727 a 3.6536642,3.6536642 0 0 1 -2.79102,0.75195 l -68.83203,-9.91015 a 3.6536642,3.6536642 0 0 1 -2.94141,-2.45313 l -17.92382,-53.40625 a 3.6536642,3.6536642 0 0 1 1.63671,-4.32617 l 19.80469,-11.42773 a 3.6536642,3.6536642 0 0 1 3.11914,-0.25196 z" />
	</g>
</g>
</svg>
