<?xml version="1.0" encoding="UTF-8" standalone="no"?>
<!-- Created with Inkscape (http://www.inkscape.org/) -->

<svg
   width="100"
   height="80"
   viewBox="0 0 100 80"
   version="1.1"
   id="svg1"
   xml:space="preserve"
   inkscape:version="1.3.2 (091e20e, 2023-11-25)"
   sodipodi:docname="human_piano_1.svg"
   xmlns:inkscape="http://www.inkscape.org/namespaces/inkscape"
   xmlns:sodipodi="http://sodipodi.sourceforge.net/DTD/sodipodi-0.dtd"
   xmlns="http://www.w3.org/2000/svg"
   xmlns:svg="http://www.w3.org/2000/svg"><sodipodi:namedview
     id="namedview1"
     pagecolor="#ffffff"
     bordercolor="#000000"
     borderopacity="0.25"
     inkscape:showpageshadow="2"
     inkscape:pageopacity="0.0"
     inkscape:pagecheckerboard="0"
     inkscape:deskcolor="#d1d1d1"
     inkscape:document-units="px"
     inkscape:current-layer="svg1"
     showgrid="false" /><defs
     id="defs1" /><g
     id="g1"
     transform="translate(1.1762383,2.4909522)"><path
       id="path366"
       style="fill:none;stroke:#000000;stroke-width:0.8404;stroke-linecap:round;stroke-linejoin:round;stroke-miterlimit:10;stroke-dasharray:none;stroke-opacity:1"
       d="m 93.050416,73.983611 c 0.194763,0.454444 0.686296,0.70485 1.168559,0.584282 0.482263,-0.111288 0.806851,-0.556453 0.769756,-1.047987 -0.03706,-0.500812 -0.417334,-0.890328 -0.908876,-0.936707 m 0,-1.845575 v 3.245987 m -1.817742,0 h 1.817742 m -1.817742,-3.245987 v 3.245987 M 36.384971,69.253744 h 0.333871 m -0.333871,2.615344 v -2.615344 m 1.029438,2.615344 h -1.029438 m 1.029438,0.714111 c -0.491533,0.04635 -0.871777,0.435895 -0.908874,0.936707 -0.03709,0.491534 0.296776,0.936699 0.76976,1.047987 0.48226,0.120568 0.983068,-0.129838 1.168552,-0.584282 M 86.762505,33.631319 h -1.224197 m 1.224197,2.198 v -2.198 m -1.224197,2.198 v -2.198 m -35.14,-29.260284 0.278228,0.528632 0.714115,0.278228 0.806856,-0.102017 0.52863,-0.426616 V 4.092806 l -0.52863,-0.435889 -0.806856,-0.09274 -0.714115,0.278228 -0.278228,0.528633 m -1.511696,47.66041 -7.957275,15.321075 M 48.450724,51.808865 40.966433,66.211789 M 95.78632,49.091507 v -1.381864 m 0,1.381864 c -0.370977,0.927426 -0.584279,1.910498 -0.6492,2.912118 m -4.702027,-2.912118 v -1.381864 m 0.6492,4.293982 c -0.06488,-1.00162 -0.278231,-1.984692 -0.6492,-2.912118 M 59.19954,33.631319 h -1.214923 m 1.214923,2.198 v -2.198 m -1.214923,2.198 v -2.198 M 51.186618,9.861396 h 0.825405 m -0.825405,0 -0.324598,25.967923 M 52.012023,9.861396 52.33662,35.829319 M 66.850766,1.607306 c 0,-0.65847301 -0.528629,-1.18710601 -1.187098,-1.18710601 M 66.850766,1.607306 V 12.003748 M 48.357983,0.42019999 H 65.663668 M 92.141549,35.829319 c 3.218151,-1.864127 5.165735,-5.3327 5.082266,-9.06095 m 0,0 c 0.120573,-4.57221 -2.874998,-8.652884 -7.270977,-9.895634 m 0,0 c -1.715733,-0.417342 -3.46856,-0.677022 -5.23066,-0.779038 m -18.41859,-4.303256 c 5.889126,2.364936 12.093576,3.820994 18.41859,4.303256 M 55.508401,1.727871 c 2.522587,4.349627 6.287918,7.846022 10.795187,10.06257 M 55.508401,1.727871 C 55.341466,1.440369 55.053965,1.254884 54.720094,1.208512 m -6.362111,0 h 6.362111 M 48.357983,35.829319 V 0.42019999 M 90.435093,49.091507 H 95.78632 M 84.944758,47.709643 v -1.67864 m 11.444381,1.67864 v -1.67864 m -11.444381,1.67864 h 11.444381 m -5.304846,4.293982 H 95.13712 M 91.816953,68.335594 91.399611,52.003625 m 3.004849,16.331969 0.417342,-16.331969 m -0.21331,16.331969 h -2.995571 v 2.40203 h 2.995571 v -2.40203 M 50.073713,51.085473 v -1.502429 m -1.947586,1.502429 c 0,0.537907 0.435888,0.973798 0.973793,0.973798 0.537904,0 0.973793,-0.435891 0.973793,-0.973798 m -1.947586,0 v -1.502429 m -6.668161,2.364936 -0.686291,19.921108 m 0,0 H 39.24143 m 0.602823,-3.533494 0.41734,-14.671878 m 6.093159,-4.080672 v 1.140733 h -2.151618 v 0 l -1.23347,0.222582 -1.094358,0.612102 -0.834679,0.936699 -0.463711,1.168556 H 38.703525 M 36.93215,68.335594 36.505535,53.663716 m -6.083884,-4.080672 v 1.140733 h 2.151618 v 0 l 1.23347,0.222582 1.094358,0.612102 0.825405,0.936699 0.46371,1.168556 h 2.513313 m -1.289116,17.073908 v 3.245987 m 1.827021,0 h -1.827021 m 1.827021,-3.245987 v 3.245987 m -2.522588,-5.648017 h 3.329444 v 2.40203 h -3.329444 v -2.40203 m 13.8835,-18.75255 V 47.681821 M 25.552688,49.583044 V 47.681821 M 52.86525,46.031003 c -0.908873,0 -1.65081,0.74194 -1.65081,1.650818 m -0.612098,1.901223 H 25.552688 m 5.137916,-11.481533 0.723388,0.510085 0.46371,0.760489 0.111291,0.87178 v 0 l -0.306048,1.456059 -0.955244,1.140734 -1.381859,0.556455 v 0 l -1.187099,0.176211 h -2.300006 v 0 l -0.686292,0.333873 -0.343146,0.677021 m 0,3.097603 v -3.097603 m 5.861305,-6.482707 V 35.829319 M 24.829299,47.681821 H 51.21444 M 97.223815,46.031003 H 52.86525 m 44.358565,0 V 35.829319 m -66.533211,0 h 66.533211"
       inkscape:label="piano" /><g
       id="g2"
       transform="translate(-6.3841366,3.207627)"
       inkscape:label="pianist"><path
         id="path112"
         style="fill:none;fill-opacity:1;stroke:#000000;stroke-width:3;stroke-linecap:round;stroke-linejoin:round;stroke-miterlimit:4.7;stroke-dasharray:none;stroke-opacity:1"
         d="M 36.38467,30.330256 25.838488,36.444628 11.682494,26.611242 26.623931,23.743562 33.60943,9.4806751 M 35.152547,68.784059 29.155526,67.985736 27.439302,51.572852 16.825357,48.770445 27.543193,51.526277 15.726791,67.896773 20.33638,69.035128 m -8.706959,-42.274269 5.146995,21.908989"
         inkscape:label="body" /><path
         id="path113"
         style="color:#000000;display:inline;fill:#000000;stroke-linecap:round;stroke-linejoin:round;stroke-miterlimit:4.7;-inkscape-stroke:none"
         d="M 28.313824,48.853387 9.7825742,49.232293 a 2.4499993,2.4499993 0 0 0 -2.4003907,2.498047 2.4499993,2.4499993 0 0 0 2.5000001,2.400391 l 0.7343754,-0.01563 v 13.908203 a 1.5,1.5 0 0 0 1.5,1.5 1.5,1.5 0 0 0 1.5,-1.5 V 54.054554 L 28.415387,53.75182 a 2.4499993,2.4499993 0 0 0 2.398437,-2.498047 2.4499993,2.4499993 0 0 0 -2.5,-2.400391 z"
         inkscape:label="chair" /><path
         id="path1"
         style="fill:#000000;fill-opacity:0.941704;stroke:none;stroke-width:8.7;stroke-linecap:round;stroke-linejoin:round;stroke-miterlimit:4.7;stroke-dasharray:none"
         d="M 7.7513242,-1.0059879 A 1.3686986,1.3686986 0 0 0 6.3841367,0.36315275 1.3686986,1.3686986 0 0 0 7.5481992,1.7166684 L 6.8880429,14.400262 c 0,0 1.9841711,1.715615 1.2011719,2.396485 0.360096,-0.331558 1.5645476,-1.28951 2.3476562,-0.798829 0,0 3.118779,2.955113 3.740234,2.261719 0.621458,-0.693394 -2.859543,-3.302021 -2.328125,-5.089844 0.676975,-2.277502 6.824451,-0.798703 6.025391,-3.8105465 L 17.413434,7.8436215 8.6497617,1.3963559 A 1.3686986,1.3686986 0 0 0 9.1204648,0.36315275 1.3686986,1.3686986 0 0 0 7.7513242,-1.0059879 Z m 6.8228948,8.351691 c -4.296588,0 -7.8007815,3.5061469 -7.8007815,7.8027349 0,4.296587 3.5041935,7.800781 7.8007815,7.800781 4.296587,0 7.800781,-3.504194 7.800781,-7.800781 0,-4.296588 -3.504194,-7.8027349 -7.800781,-7.8027349 z m 0,2 c 3.215708,0 5.800781,2.5870259 5.800781,5.8027349 0,3.215708 -2.585073,5.800781 -5.800781,5.800781 -3.215709,0 -5.8007815,-2.585073 -5.8007815,-5.800781 0,-3.215709 2.5850725,-5.8027349 5.8007815,-5.8027349 z"
         inkscape:label="head" /></g></g></svg>
