<?xml version="1.0" encoding="UTF-8" standalone="no"?>
<svg
   xml:space="preserve"
   width="100"
   height="100"
   version="1.1"
   id="svg7"
   sodipodi:docname="human_conductor_1.svg"
   inkscape:version="1.3.2 (091e20e, 2023-11-25)"
   xmlns:inkscape="http://www.inkscape.org/namespaces/inkscape"
   xmlns:sodipodi="http://sodipodi.sourceforge.net/DTD/sodipodi-0.dtd"
   xmlns="http://www.w3.org/2000/svg"
   xmlns:svg="http://www.w3.org/2000/svg"><defs
     id="defs7" /><sodipodi:namedview
     id="namedview7"
     pagecolor="#ffffff"
     bordercolor="#000000"
     borderopacity="0.25"
     inkscape:showpageshadow="2"
     inkscape:pageopacity="0.0"
     inkscape:pagecheckerboard="0"
     inkscape:deskcolor="#d1d1d1"
     inkscape:current-layer="svg7" /><path
     d="m 50.04,14.807 -4.797,-2.992 4.668,2.895 2.341,-2.333 -3.05,-4.824 3.05,4.824 3.773,-1.375 -0.693,-6.193 0.853,6.281 3.058,0.107 1.544,-7.135 -1.55,7.086 3.093,1.42 3.678,-5.364 -3.553,5.389 M 64.978,17 c 1.23,4.308 -1.29,8.804 -5.629,10.042 C 55.01,28.28 50.497,25.792 49.268,21.484 46.192,10.71 62.126,7.006 64.977,17.002"
     style="display:inline;fill:#ffffff;stroke:#000000;stroke-width:2.00001;stroke-linecap:round;stroke-linejoin:round;stroke-miterlimit:4.7;stroke-dasharray:none;stroke-opacity:1"
     id="path1"
     transform="translate(-12.456,-0.881)" /><path
     id="path5"
     style="display:inline;fill:none;stroke:#000000;stroke-width:3.00001;stroke-linecap:round;stroke-linejoin:round;stroke-miterlimit:4.7;stroke-dasharray:none;stroke-opacity:1"
     d="M 66.624817,95.060009 61.506242,93.125259 62.947488,76.167748 49.238691,59.964627 37.649033,76.528685 38.11406,94.897425 31.493971,96.311906 M 47.052736,30.907614 49.001265,60.681622 M 23.809771,35.858106 35.802378,41.001211 47.291,30.671 m 0.235,0.236 15.108838,5.109831 9.461505,-10.66843"
     sodipodi:nodetypes="ccccccccccccccc" /><g
     id="g4"
     transform="matrix(0.00520635,-0.9684015,0.67621301,0.00745598,13.318696,96.773878)"
     style="stroke-width:0.642977"><path
       id="path4"
       style="fill:#000000;stroke:#010101;stroke-width:1.28595;stroke-linecap:round;stroke-linejoin:round;stroke-miterlimit:4.7"
       d="M 66.987316,9.8375133 94.501283,9.7530581 M 71.395018,9.837513 c -10e-7,1.075863 -1.700711,1.948022 -3.798643,1.948022 -2.097933,0 -3.798643,-0.872159 -3.798644,-1.948022 0,-1.0758632 1.700711,-1.9480226 3.798644,-1.9480225 2.097933,2e-7 3.798643,0.8721595 3.798643,1.9480225 z"
       sodipodi:nodetypes="ccsssss" /></g><path
     id="rect11"
     style="stroke:#010101;stroke-width:2;stroke-linecap:round;stroke-linejoin:round;stroke-miterlimit:4.7"
     d="m 47.524421,29.93695 c 1.277774,-0.142347 2.431428,0.521504 2.586671,1.488456 l 8.114894,50.544818 c 0.155242,0.966951 -0.748455,1.859997 -2.026229,2.002343 -1.277774,0.142347 -2.431429,-0.521505 -2.586671,-1.488457 L 45.498192,31.939293 c -0.155242,-0.966952 0.748455,-1.859997 2.026229,-2.002343 z m -0.23548,0.01976 0.516099,3e-6 c 1.307334,0 2.359809,0.788418 2.359809,1.767752 l 4e-6,50.496634 c 10e-7,0.979334 -1.052474,1.767751 -2.359807,1.767751 l -0.5161,-3e-6 c -1.307333,-1e-6 -2.359808,-0.788417 -2.359808,-1.767751 V 31.724488 c 0,-0.979334 1.052475,-1.767752 2.359808,-1.767752 z" /><path
     id="rect27"
     style="stroke-width:2;stroke-linecap:round;stroke-linejoin:round;stroke-miterlimit:4.7"
     transform="rotate(26.7128)"
     d="m 36.620172,18.957689 h 2.713025 c 0.471458,0 0.851008,0.788417 0.851008,1.767752 v 2.076835 c 0,0.979335 -0.37955,1.767752 -0.851008,1.767752 h -2.713025 c -0.471458,0 -0.851007,-0.788417 -0.851007,-1.767752 v -2.076835 c 0,-0.979335 0.379549,-1.767752 0.851007,-1.767752 z m 36.376723,-27.0092603 0.498219,-2.8189997 c 0.08205,-0.464263 0.924493,-0.700804 1.888882,-0.530362 l 1.603006,0.283309 c 0.964388,0.170443 1.674716,0.681415 1.592664,1.1456776 l -0.498219,2.8189998 c -0.08205,0.4642629 -0.924494,0.7008042 -1.888882,0.5303618 l -1.603006,-0.2833093 c -0.964388,-0.1704423 -1.674716,-0.6814143 -1.592664,-1.1456772 z" /><path
     id="ellipse17"
     style="fill:#cc0000;stroke-width:2;stroke-linecap:round;stroke-linejoin:round;stroke-miterlimit:4.7"
     d="m 65.415288,92.54306 a 1.339566,0.23814507 0 0 1 -1.339566,0.238145 1.339566,0.23814507 0 0 1 -1.339566,-0.238145 1.339566,0.23814507 0 0 1 1.339566,-0.238145 1.339566,0.23814507 0 0 1 1.339566,0.238145 z m -29.503496,1.958366 a 1.3064077,0.29504314 12.309227 0 1 -1.339275,0.0098 1.3064077,0.29504314 12.309227 0 1 -1.213476,-0.566771 1.3064077,0.29504314 12.309227 0 1 1.339275,-0.0097 1.3064077,0.29504314 12.309227 0 1 1.213476,0.56677 z m 30.768823,-1.148559 a 1.339566,0.23814507 0 0 1 -1.339566,0.238145 1.339566,0.23814507 0 0 1 -1.339566,-0.238145 1.339566,0.23814507 0 0 1 1.339566,-0.238145 1.339566,0.23814507 0 0 1 1.339566,0.238145 z m -32.625755,1.61279 a 1.3064077,0.29504314 12.309227 0 1 -1.339275,0.0098 1.3064077,0.29504314 12.309227 0 1 -1.213475,-0.566771 1.3064077,0.29504314 12.309227 0 1 1.339274,-0.0097 1.3064077,0.29504314 12.309227 0 1 1.213476,0.56677 z m 28.101001,-1.791402 3.631712,-2.440986" /><path
     id="ellipse25"
     style="fill:#ffffff;stroke-width:2;stroke-linecap:round;stroke-linejoin:round;stroke-miterlimit:4.7"
     d="m 72.971061,27.129869 a 0.40898803,0.38342628 0 0 1 -0.408988,0.383427 0.40898803,0.38342628 0 0 1 -0.408988,-0.383427 0.40898803,0.38342628 0 0 1 0.408988,-0.383426 0.40898803,0.38342628 0 0 1 0.408988,0.383426 z m -49.37575,10.441168 a 0.40898803,0.38342628 0 0 1 -0.408988,0.383427 0.40898803,0.38342628 0 0 1 -0.408988,-0.383427 0.40898803,0.38342628 0 0 1 0.408988,-0.383426 0.40898803,0.38342628 0 0 1 0.408988,0.383426 z" /></svg>
