<?xml version="1.0" encoding="UTF-8" standalone="no"?>
<svg
   xml:space="preserve"
   width="50"
   height="100"
   version="1.1"
   id="svg7"
   sodipodi:docname="human_composer_1.svg"
   inkscape:version="1.3.2 (091e20e, 2023-11-25)"
   xmlns:inkscape="http://www.inkscape.org/namespaces/inkscape"
   xmlns:sodipodi="http://sodipodi.sourceforge.net/DTD/sodipodi-0.dtd"
   xmlns="http://www.w3.org/2000/svg"
   xmlns:svg="http://www.w3.org/2000/svg"><defs
     id="defs7" /><sodipodi:namedview
     id="namedview7"
     pagecolor="#ffffff"
     bordercolor="#000000"
     borderopacity="0.25"
     inkscape:showpageshadow="2"
     inkscape:pageopacity="0.0"
     inkscape:pagecheckerboard="0"
     inkscape:deskcolor="#d1d1d1"
     inkscape:current-layer="svg7" /><g
     id="g1"
     transform="translate(0.041956,4.2277545)"><path
       id="path4"
       style="display:inline;fill:none;stroke:#000000;stroke-width:3.00001;stroke-linecap:round;stroke-linejoin:round;stroke-miterlimit:4.7;stroke-dasharray:none;stroke-opacity:1"
       d="M 1.500005,55.893724 5.029781,39.261861 18.497047,24.40358 M 37.831864,88.792589 32.713289,86.857839 31.634229,67.674553 20.445738,53.697207 8.8560796,70.261265 9.3211069,88.630005 2.7010178,90.044486 M 18.259783,24.640194 20.208312,54.414202 M 18.733047,24.63958 34.248205,40.282859 48.416083,26.734553" /><path
       id="path14"
       style="fill:#ffffff;stroke:#000000;stroke-width:2;stroke-linecap:butt;stroke-linejoin:miter;stroke-miterlimit:5;stroke-dasharray:none"
       d="M 16.701364,0.99999957 17.265486,5.2622497 M 13.755397,1.1253599 14.570239,5.9517317 M 10.99747,2.0028821 11.874993,6.3278127 M 25.727309,10.402023 A 9.6214037,9.4020233 0 0 1 16.105906,19.804047 9.6214037,9.4020233 0 0 1 6.4845018,10.402023 9.6214037,9.4020233 0 0 1 16.105906,1 a 9.6214037,9.4020233 0 0 1 9.621403,9.402023 z"
       inkscape:label="head" /><path
       style="fill:#ffffff;stroke:#000000;stroke-width:2;stroke-linecap:round;stroke-linejoin:round;stroke-miterlimit:5;stroke-dasharray:none"
       d="M 37.183591,14.36167 47.748282,14.218904 41.942461,28.59069 31.663302,28.49551 Z"
       id="path18"
       sodipodi:nodetypes="ccccc" /><path
       id="path19"
       style="fill:#ffffff;stroke:#000000;stroke-width:0.656247;stroke-linecap:round;stroke-linejoin:round;stroke-miterlimit:5;stroke-dasharray:none"
       d="M 39.796579,23.833488 41.0098,19.709921 c -0.155329,1.360638 0.812431,1.562988 0.400298,3.223665 m -1.598775,0.817387 a 0.8200323,0.52694881 0 0 1 -0.820032,0.526949 0.8200323,0.52694881 0 0 1 -0.820032,-0.526949 0.8200323,0.52694881 0 0 1 0.820032,-0.526949 0.8200323,0.52694881 0 0 1 0.820032,0.526949 z m -1.623832,-2.197027 1.213221,-4.123567 c -0.155329,1.360638 0.812431,1.562988 0.400298,3.223665 m -1.598776,0.817388 a 0.8200323,0.52694881 0 0 1 -0.820032,0.526949 0.8200323,0.52694881 0 0 1 -0.820032,-0.526949 0.8200323,0.52694881 0 0 1 0.820032,-0.526949 0.8200323,0.52694881 0 0 1 0.820032,0.526949 z" /></g></svg>
