<?xml version="1.0" encoding="UTF-8" standalone="no"?>
<svg
   xml:space="preserve"
   width="100"
   height="100"
   version="1.1"
   id="svg9"
   sodipodi:docname="human_accordion_1.svg"
   inkscape:version="1.3.2 (091e20e, 2023-11-25)"
   xmlns:inkscape="http://www.inkscape.org/namespaces/inkscape"
   xmlns:sodipodi="http://sodipodi.sourceforge.net/DTD/sodipodi-0.dtd"
   xmlns="http://www.w3.org/2000/svg"
   xmlns:svg="http://www.w3.org/2000/svg"><defs
     id="defs9" /><sodipodi:namedview
     id="namedview9"
     pagecolor="#ffffff"
     bordercolor="#000000"
     borderopacity="0.25"
     inkscape:showpageshadow="2"
     inkscape:pageopacity="0.0"
     inkscape:pagecheckerboard="0"
     inkscape:deskcolor="#d1d1d1"
     inkscape:current-layer="svg9" /><path
     d="M 48.923717,33.558291 80.422539,57.171046"
     style="display:inline;fill:none;stroke:#000000;stroke-width:3;stroke-linecap:round;stroke-linejoin:round;stroke-miterlimit:4.7;stroke-dasharray:none;stroke-opacity:1"
     transform="translate(-0.783,4.782)"
     id="path1"
     sodipodi:nodetypes="cc" /><g
     style="display:inline;stroke-width:1.83867;stroke-dasharray:none"
     id="g4"><path
       d="M 43.406528,27.528718 45.572,45.059"
       style="fill:none;stroke:#000000;stroke-width:1.83867;stroke-linecap:round;stroke-linejoin:round;stroke-miterlimit:4.7;stroke-dasharray:none;stroke-opacity:1"
       transform="matrix(1.63742,0,0,1.62584,-22.934,-6.417)"
       id="path2"
       sodipodi:nodetypes="cc" /><path
       d="m 55.906,62.072 -3.415,-0.464 1.22,-11.798 -8.14,-4.75 -14.604,3.487 0.703,13.919 -3.43,-0.497"
       style="display:inline;fill:none;stroke:#000000;stroke-width:1.83867;stroke-linecap:round;stroke-linejoin:round;stroke-miterlimit:4.7;stroke-dasharray:none;stroke-opacity:1"
       transform="matrix(1.63742,0,0,1.62584,-22.934,-6.417)"
       id="path3" /><path
       d="m 37.473,19.149 -2.377,-3.57 3.39,1.25 -0.972,-3.872 3.37,2.239 0.374,-3.927 1.786,3.993 1.545,-4.452 0.732,4.38 2.457,-2.447 -1.244,4.527 m 0.615,1.498 a 5.01,5.01 0 0 1 -3.438,6.176 4.967,4.967 0 0 1 -6.157,-3.418 c -0.75,-2.65 0.904,-5.155 3.554,-5.916 2.65,-0.761 5.29,0.508 6.041,3.158"
       style="display:inline;fill:none;stroke:#000000;stroke-width:1.22578;stroke-linecap:round;stroke-linejoin:round;stroke-miterlimit:4.7;stroke-dasharray:none;stroke-opacity:1"
       transform="matrix(1.63742,0,0,1.62584,-22.934,-6.417)"
       id="path4" /></g><path
     style="fill:#ffffff;stroke:#000000;stroke-width:3;stroke-linecap:round;stroke-linejoin:round;stroke-miterlimit:4.7;stroke-dasharray:none"
     d="M 48.140717,38.340291 26.948991,54.969637"
     id="path123"
     sodipodi:nodetypes="cc" /><g
     id="g10"
     transform="matrix(0.94152905,0,0,0.94152905,7.7834284,6.2314988)"
     style="display:inline;stroke-width:1.0621"><path
       id="path119"
       style="display:inline;fill:#ffffff;stroke-width:1.0621"
       d="m 49.708984,34.367188 a 0.4360211,0.4360211 0 0 0 -0.296875,0.138671 33.900641,33.900641 0 0 0 -1.554687,1.802735 33.028599,33.028599 0 0 0 -1.919922,-1.41211 0.4360211,0.4360211 0 0 0 -0.595703,0.101563 34.227656,34.227656 0 0 0 -1.351563,1.970703 32.592577,32.592577 0 0 0 -2.083984,-1.183594 0.4360211,0.4360211 0 0 0 -0.578125,0.167969 34.554672,34.554672 0 0 0 -1.134766,2.123047 32.265561,32.265561 0 0 0 -2.230468,-0.933594 c 0,0 -0.206664,-0.03814 -0.310547,0.002 l -13.457032,5.183594 c -1.217369,0.469159 -1.824518,1.841224 -1.355468,3.058594 l 9.898437,25.691406 c 0.349362,0.906593 1.237531,1.515625 2.208985,1.515625 a 2.354514,2.354514 0 0 0 0.849609,-0.158203 L 49.257812,67.25 c 1.48007,-0.570205 3.033166,-0.6375 4.441407,-0.205078 0.31851,0.09789 0.624201,0.233329 0.917969,0.390625 0.873677,0.467958 3.160156,1.691406 3.160156,1.691406 a 2.3708648,2.3708648 0 0 0 1.113281,0.279297 2.3632344,2.3632344 0 0 0 2.087891,-1.251953 L 73.953125,43.871094 c 0.320912,-0.600292 0.369367,-1.294906 0.130859,-1.939453 -0.206019,-0.556363 -0.627169,-1.007512 -1.15039,-1.28711 l -3.419922,-1.828125 a 0.4360211,0.4360211 0 0 0 -0.332031,-0.0332 c -0.01966,0.0061 -2.096088,0.760106 -2.273438,0.828125 a 34.663678,34.663678 0 0 0 -0.876953,-2.230469 0.4360211,0.4360211 0 0 0 -0.556641,-0.232421 32.701583,32.701583 0 0 0 -2.207031,0.935546 34.227656,34.227656 0 0 0 -1.113281,-2.113281 0.4360211,0.4360211 0 0 0 -0.582031,-0.169922 33.028599,33.028599 0 0 0 -2.070313,1.181641 33.900641,33.900641 0 0 0 -1.335937,-1.970703 0.4360211,0.4360211 0 0 0 -0.597657,-0.101563 33.464619,33.464619 0 0 0 -1.916015,1.40625 33.68263,33.68263 0 0 0 -1.544922,-1.804687 0.4360211,0.4360211 0 0 0 -0.605469,-0.0332 33.68263,33.68263 0 0 0 -1.744141,1.613281 33.355614,33.355614 0 0 0 -1.740234,-1.619141 0.4360211,0.4360211 0 0 0 -0.308594,-0.105468 z" /><path
       d="m 74.084473,41.930708 c -0.20602,-0.556363 -0.626889,-1.006991 -1.150111,-1.286589 l -3.420258,-1.827691 a 0.4360211,0.4360211 0 0 0 -0.332145,-0.0327 c -0.01966,0.0061 -2.095623,0.758677 -2.272973,0.826696 a 34.663678,34.663678 0 0 0 -0.878255,-2.229158 0.4360211,0.4360211 0 0 0 -0.555384,-0.233489 32.701583,32.701583 0 0 0 -2.207031,0.936246 34.227656,34.227656 0 0 0 -1.11458,-2.114266 0.4360211,0.4360211 0 0 0 -0.580777,-0.169612 33.028599,33.028599 0 0 0 -2.070774,1.181944 33.900641,33.900641 0 0 0 -1.336188,-1.969507 0.4360211,0.4360211 0 0 0 -0.597567,-0.10301 33.464619,33.464619 0 0 0 -1.915661,1.407803 33.68263,33.68263 0 0 0 -1.545256,-1.804692 0.4360211,0.4360211 0 0 0 -0.605852,-0.03499 33.68263,33.68263 0 0 0 -1.742996,1.614586 33.355614,33.355614 0 0 0 -1.740485,-1.619164 0.4360211,0.4360211 0 0 0 -0.605415,0.03346 33.900641,33.900641 0 0 0 -1.554415,1.802184 33.028599,33.028599 0 0 0 -1.920673,-1.412708 0.4360211,0.4360211 0 0 0 -0.59626,0.101593 34.227656,34.227656 0 0 0 -1.35101,1.971688 32.592577,32.592577 0 0 0 -2.0844,-1.184343 0.4360211,0.4360211 0 0 0 -0.5786,0.167868 34.554672,34.554672 0 0 0 -1.134199,2.122987 32.265561,32.265561 0 0 0 -2.230248,-0.933521 c 0,0 -0.20602,-0.03859 -0.309903,0.0015 l -13.45681,5.185032 c -1.217371,0.469159 -1.826166,1.841317 -1.357116,3.058688 l 9.898988,25.690801 c 0.349362,0.906594 1.236774,1.515828 2.208229,1.515828 a 2.354514,2.354514 0 0 0 0.85024,-0.158717 l 13.460627,-5.185161 c 1.480071,-0.570206 3.034269,-0.638441 4.442511,-0.206019 0.318511,0.09789 0.623725,0.233596 0.917493,0.390892 0.873678,0.467959 3.159412,1.691107 3.159412,1.691107 a 2.3708648,2.3708648 0 0 0 1.11338,0.279494 2.3632344,2.3632344 0 0 0 2.088431,-1.251384 L 73.953776,43.871656 c 0.320912,-0.600292 0.369205,-1.29629 0.130697,-1.940838 M 68.410532,39.957059 57.371238,60.61672 66.958692,40.52236 c 0.274691,-0.09974 1.238185,-0.484855 1.45184,-0.56541 m -2.238967,0.189669 -11.628468,24.372488 8.870852,-25.537536 a 31.61153,31.61153 0 0 1 1.982039,-0.86681 33.573625,33.573625 0 0 1 0.775683,2.031858 m -4.566663,-3.37513 a 33.137604,33.137604 0 0 1 0.986496,1.920455 l -8.505031,24.483895 5.662173,-25.317676 a 32.156557,32.156557 0 0 1 1.856251,-1.086783 m -3.894214,-0.89973 a 32.919593,32.919593 0 0 1 1.187828,1.792483 l -6.045432,27.031458 3.142185,-27.533863 a 32.265561,32.265561 0 0 1 1.715419,-1.289969 M 53.75161,35.41797 a 32.701583,32.701583 0 0 1 1.377283,1.644563 l -3.063047,26.839713 0.158601,-27.040065 a 32.592577,32.592577 0 0 1 1.527163,-1.44432 m -3.984796,-0.0055 a 32.374566,32.374566 0 0 1 1.585264,1.509396 L 51.192273,64.187841 48.380267,37.055557 a 32.919593,32.919593 0 0 1 1.386547,-1.643255 m -3.972153,0.444632 a 32.047551,32.047551 0 0 1 1.718795,1.293784 L 50.46554,65.636195 44.541537,37.733351 a 33.246609,33.246609 0 0 1 1.253124,-1.876416 m -3.920484,0.897331 a 31.720535,31.720535 0 0 1 1.788778,1.039583 l 5.892062,27.752308 -8.687721,-26.85901 a 33.68263,33.68263 0 0 1 1.006881,-1.932881 m -1.831615,2.216077 6.368088,19.687988 -7.836062,-20.336787 a 31.284514,31.284514 0 0 1 1.467974,0.648909 m -9.513653,1.852871 3.216745,-1.23939 10.973344,28.479154 -3.216746,1.23939 z m -6.019054,2.319196 5.20533,-2.005698 0.389911,1.012007 -6.544894,2.521836 c -0.0581,-0.647491 0.313499,-1.282992 0.949653,-1.528254 m -0.690766,2.363017 6.599398,-2.542876 9.566302,24.827697 -6.599288,2.542872 z m 11.66411,26.116137 a 1.4933723,1.4933723 0 0 1 -0.536742,0.100285 c -0.473083,0 -0.913683,-0.229131 -1.192191,-0.596369 l 6.54435,-2.521617 0.389911,1.012001 z M 45.532613,67.749369 34.55927,39.270326 37.560077,38.114107 48.533419,66.593152 Z M 73.18485,43.460597 60.20941,67.743378 a 1.4933723,1.4933723 0 0 1 -1.319399,0.790178 c -0.246682,0 -0.483002,-0.05941 -0.702433,-0.1767 l -3.083323,-1.647503 14.383469,-26.918091 3.083321,1.647615 a 1.4835618,1.4835618 0 0 1 0.725538,0.883705 1.4846519,1.4846519 0 0 1 -0.111839,1.138015 m -5.212633,2.125385 a 0.46872269,0.46872269 0 0 1 -0.468723,0.468723 0.46872269,0.46872269 0 0 1 -0.468716,-0.468723 0.46872269,0.46872269 0 0 1 0.468716,-0.468722 0.46872269,0.46872269 0 0 1 0.468723,0.468722 m -0.788434,1.475496 a 0.46872269,0.46872269 0 0 1 -0.468724,0.468722 0.46872269,0.46872269 0 0 1 -0.468723,-0.468722 0.46872269,0.46872269 0 0 1 0.468723,-0.468723 0.46872269,0.46872269 0 0 1 0.468724,0.468723 m -0.788329,1.475386 a 0.46872269,0.46872269 0 0 1 -0.468723,0.468722 0.46872269,0.46872269 0 0 1 -0.468724,-0.468722 0.46872269,0.46872269 0 0 1 0.468724,-0.468723 0.46872269,0.46872269 0 0 1 0.468723,0.468723 m -0.788329,1.475387 a 0.46872269,0.46872269 0 0 1 -0.468715,0.468723 0.46872269,0.46872269 0 0 1 -0.468724,-0.468723 0.46872269,0.46872269 0 0 1 0.468724,-0.468723 0.46872269,0.46872269 0 0 1 0.468715,0.468723 m 3.648191,-4.676436 a 0.46872269,0.46872269 0 0 1 -0.468723,0.468723 0.46872269,0.46872269 0 0 1 -0.468715,-0.468723 0.46872269,0.46872269 0 0 1 0.468715,-0.468722 0.46872269,0.46872269 0 0 1 0.468723,0.468722 m -0.788328,1.475387 a 0.46872269,0.46872269 0 0 1 -0.468716,0.468722 0.46872269,0.46872269 0 0 1 -0.468723,-0.468722 0.46872269,0.46872269 0 0 1 0.468723,-0.468723 0.46872269,0.46872269 0 0 1 0.468716,0.468723 m -0.788321,1.475386 a 0.46872269,0.46872269 0 0 1 -0.468723,0.468723 0.46872269,0.46872269 0 0 1 -0.468724,-0.468723 0.46872269,0.46872269 0 0 1 0.468724,-0.468723 0.46872269,0.46872269 0 0 1 0.468723,0.468723 m -0.788434,1.475387 a 0.46872269,0.46872269 0 0 1 -0.468724,0.468722 0.46872269,0.46872269 0 0 1 -0.468723,-0.468722 0.46872269,0.46872269 0 0 1 0.468723,-0.468723 0.46872269,0.46872269 0 0 1 0.468724,0.468723 m -0.788329,1.475385 a 0.46872269,0.46872269 0 0 1 -0.468724,0.468723 0.46872269,0.46872269 0 0 1 -0.468723,-0.468723 0.46872269,0.46872269 0 0 1 0.468723,-0.468722 0.46872269,0.46872269 0 0 1 0.468724,0.468722 m 4.447419,-6.169261 a 0.46872269,0.46872269 0 0 1 -0.468723,0.468722 0.46872269,0.46872269 0 0 1 -0.468724,-0.468722 0.46872269,0.46872269 0 0 1 0.468724,-0.468723 0.46872269,0.46872269 0 0 1 0.468723,0.468723 m -0.788442,1.475385 a 0.46872269,0.46872269 0 0 1 -0.468715,0.468723 0.46872269,0.46872269 0 0 1 -0.468724,-0.468723 0.46872269,0.46872269 0 0 1 0.468724,-0.468723 0.46872269,0.46872269 0 0 1 0.468715,0.468723 m -0.788321,1.475496 a 0.46872269,0.46872269 0 0 1 -0.468723,0.468723 0.46872269,0.46872269 0 0 1 -0.468724,-0.468723 0.46872269,0.46872269 0 0 1 0.468724,-0.468723 0.46872269,0.46872269 0 0 1 0.468723,0.468723 m -0.788328,1.475387 a 0.46872269,0.46872269 0 0 1 -0.468724,0.468723 0.46872269,0.46872269 0 0 1 -0.468724,-0.468723 0.46872269,0.46872269 0 0 1 0.468724,-0.468723 0.46872269,0.46872269 0 0 1 0.468724,0.468723 m -0.788435,1.475386 a 0.46872269,0.46872269 0 0 1 -0.468723,0.468723 0.46872269,0.46872269 0 0 1 -0.468724,-0.468723 0.46872269,0.46872269 0 0 1 0.468724,-0.468722 0.46872269,0.46872269 0 0 1 0.468723,0.468722 m 4.436512,-6.151822 a 0.46872269,0.46872269 0 0 1 -0.468724,0.468723 0.46872269,0.46872269 0 0 1 -0.468715,-0.468723 0.46872269,0.46872269 0 0 1 0.468715,-0.468723 0.46872269,0.46872269 0 0 1 0.468724,0.468723 m -0.788215,1.475387 a 0.46872269,0.46872269 0 0 1 -0.468724,0.468723 0.46872269,0.46872269 0 0 1 -0.468715,-0.468723 0.46872269,0.46872269 0 0 1 0.468715,-0.468723 0.46872269,0.46872269 0 0 1 0.468724,0.468723 m -0.788329,1.475386 a 0.46872269,0.46872269 0 0 1 -0.468715,0.468723 0.46872269,0.46872269 0 0 1 -0.468724,-0.468723 0.46872269,0.46872269 0 0 1 0.468724,-0.468723 0.46872269,0.46872269 0 0 1 0.468715,0.468723 m -0.788434,1.475386 a 0.46872269,0.46872269 0 0 1 -0.468724,0.468723 0.46872269,0.46872269 0 0 1 -0.468715,-0.468723 0.46872269,0.46872269 0 0 1 0.468715,-0.468722 0.46872269,0.46872269 0 0 1 0.468724,0.468722 m -0.788329,1.475387 a 0.46872269,0.46872269 0 0 1 -0.468715,0.468722 0.46872269,0.46872269 0 0 1 -0.468724,-0.468722 0.46872269,0.46872269 0 0 1 0.468724,-0.468723 0.46872269,0.46872269 0 0 1 0.468715,0.468723 m -0.788426,1.475496 a 0.46872269,0.46872269 0 0 1 -0.468724,0.468722 0.46872269,0.46872269 0 0 1 -0.468723,-0.468722 0.46872269,0.46872269 0 0 1 0.468723,-0.468723 0.46872269,0.46872269 0 0 1 0.468724,0.468723 m -3.084417,-0.707881 a 0.46872269,0.46872269 0 0 1 -0.468724,0.468723 0.46872269,0.46872269 0 0 1 -0.468723,-0.468723 0.46872269,0.46872269 0 0 1 0.468723,-0.468723 0.46872269,0.46872269 0 0 1 0.468724,0.468723 m -0.788321,1.475386 a 0.46872269,0.46872269 0 0 1 -0.468731,0.468723 0.46872269,0.46872269 0 0 1 -0.46872,-0.468723 0.46872269,0.46872269 0 0 1 0.46872,-0.468722 0.46872269,0.46872269 0 0 1 0.468731,0.468722 m -0.788329,1.475387 a 0.46872269,0.46872269 0 0 1 -0.468726,0.468722 0.46872269,0.46872269 0 0 1 -0.468722,-0.468722 0.46872269,0.46872269 0 0 1 0.468722,-0.468723 0.46872269,0.46872269 0 0 1 0.468726,0.468723 m -0.788326,1.475495 a 0.46872269,0.46872269 0 0 1 -0.468727,0.468722 0.46872269,0.46872269 0 0 1 -0.468721,-0.468722 0.46872269,0.46872269 0 0 1 0.468721,-0.468723 0.46872269,0.46872269 0 0 1 0.468727,0.468723 m -0.788437,1.475387 a 0.46872269,0.46872269 0 0 1 -0.468721,0.468722 0.46872269,0.46872269 0 0 1 -0.468727,-0.468722 0.46872269,0.46872269 0 0 1 0.468727,-0.468723 0.46872269,0.46872269 0 0 1 0.468721,0.468723 m -0.788326,1.475386 a 0.46872269,0.46872269 0 0 1 -0.468721,0.468723 0.46872269,0.46872269 0 0 1 -0.468722,-0.468723 0.46872269,0.46872269 0 0 1 0.468722,-0.468723 0.46872269,0.46872269 0 0 1 0.468721,0.468723 m -0.788437,1.475386 a 0.46872269,0.46872269 0 0 1 -0.468721,0.468723 0.46872269,0.46872269 0 0 1 -0.468722,-0.468723 0.46872269,0.46872269 0 0 1 0.468722,-0.468722 0.46872269,0.46872269 0 0 1 0.468721,0.468722 m -0.788326,1.475385 a 0.46872269,0.46872269 0 0 1 -0.468721,0.468727 0.46872269,0.46872269 0 0 1 -0.468722,-0.468727 0.46872269,0.46872269 0 0 1 0.468722,-0.468722 0.46872269,0.46872269 0 0 1 0.468721,0.468722 m 6.013386,-9.102702 a 0.46872269,0.46872269 0 0 1 -0.468723,0.468722 0.46872269,0.46872269 0 0 1 -0.468724,-0.468722 0.46872269,0.46872269 0 0 1 0.468724,-0.468723 0.46872269,0.46872269 0 0 1 0.468723,0.468723 m -0.788329,1.475496 a 0.46872269,0.46872269 0 0 1 -0.468723,0.468722 0.46872269,0.46872269 0 0 1 -0.468716,-0.468722 0.46872269,0.46872269 0 0 1 0.468716,-0.468723 0.46872269,0.46872269 0 0 1 0.468723,0.468723 m -0.788434,1.475386 a 0.46872269,0.46872269 0 0 1 -0.468718,0.468723 0.46872269,0.46872269 0 0 1 -0.468727,-0.468723 0.46872269,0.46872269 0 0 1 0.468727,-0.468723 0.46872269,0.46872269 0 0 1 0.468718,0.468723 m -0.788323,1.475387 a 0.46872269,0.46872269 0 0 1 -0.468721,0.468723 0.46872269,0.46872269 0 0 1 -0.468728,-0.468723 0.46872269,0.46872269 0 0 1 0.468728,-0.468723 0.46872269,0.46872269 0 0 1 0.468721,0.468723 m -0.788437,1.475385 a 0.46872269,0.46872269 0 0 1 -0.468721,0.468723 0.46872269,0.46872269 0 0 1 -0.468722,-0.468723 0.46872269,0.46872269 0 0 1 0.468722,-0.468722 0.46872269,0.46872269 0 0 1 0.468721,0.468722 m -0.788326,1.475496 a 0.46872269,0.46872269 0 0 1 -0.468721,0.468723 0.46872269,0.46872269 0 0 1 -0.468722,-0.468723 0.46872269,0.46872269 0 0 1 0.468722,-0.468722 0.46872269,0.46872269 0 0 1 0.468721,0.468722 m -0.788327,1.475387 a 0.46872269,0.46872269 0 0 1 -0.468721,0.468722 0.46872269,0.46872269 0 0 1 -0.468722,-0.468722 0.46872269,0.46872269 0 0 1 0.468722,-0.468721 0.46872269,0.46872269 0 0 1 0.468721,0.468721 m -0.788431,1.475385 a 0.46872269,0.46872269 0 0 1 -0.468727,0.468722 0.46872269,0.46872269 0 0 1 -0.468721,-0.468722 0.46872269,0.46872269 0 0 1 0.468721,-0.468721 0.46872269,0.46872269 0 0 1 0.468727,0.468721 m 6.8125,-10.595529 a 0.46872269,0.46872269 0 0 1 -0.468723,0.468722 0.46872269,0.46872269 0 0 1 -0.468724,-0.468722 0.46872269,0.46872269 0 0 1 0.468724,-0.468723 0.46872269,0.46872269 0 0 1 0.468723,0.468723 m -0.788328,1.475386 a 0.46872269,0.46872269 0 0 1 -0.468724,0.468722 0.46872269,0.46872269 0 0 1 -0.468715,-0.468722 0.46872269,0.46872269 0 0 1 0.468715,-0.468723 0.46872269,0.46872269 0 0 1 0.468724,0.468723 m -0.788435,1.475386 a 0.46872269,0.46872269 0 0 1 -0.468723,0.468723 0.46872269,0.46872269 0 0 1 -0.468724,-0.468723 0.46872269,0.46872269 0 0 1 0.468724,-0.468723 0.46872269,0.46872269 0 0 1 0.468723,0.468723 m -0.78832,1.475496 a 0.46872269,0.46872269 0 0 1 -0.468724,0.468723 0.46872269,0.46872269 0 0 1 -0.468723,-0.468723 0.46872269,0.46872269 0 0 1 0.468723,-0.468723 0.46872269,0.46872269 0 0 1 0.468724,0.468723 m -0.788329,1.475386 a 0.46872269,0.46872269 0 0 1 -0.468721,0.468723 0.46872269,0.46872269 0 0 1 -0.468728,-0.468723 0.46872269,0.46872269 0 0 1 0.468728,-0.468723 0.46872269,0.46872269 0 0 1 0.468721,0.468723 m -0.788437,1.475386 a 0.46872269,0.46872269 0 0 1 -0.468721,0.468723 0.46872269,0.46872269 0 0 1 -0.468722,-0.468723 0.46872269,0.46872269 0 0 1 0.468722,-0.468722 0.46872269,0.46872269 0 0 1 0.468721,0.468722 m -0.788326,1.475388 a 0.46872269,0.46872269 0 0 1 -0.468721,0.468722 0.46872269,0.46872269 0 0 1 -0.468722,-0.468722 0.46872269,0.46872269 0 0 1 0.468722,-0.468724 0.46872269,0.46872269 0 0 1 0.468721,0.468724 m -0.788437,1.475385 a 0.46872269,0.46872269 0 0 1 -0.468722,0.468722 0.46872269,0.46872269 0 0 1 -0.468721,-0.468722 0.46872269,0.46872269 0 0 1 0.468721,-0.468722 0.46872269,0.46872269 0 0 1 0.468722,0.468722 m -0.788326,1.475495 a 0.46872269,0.46872269 0 0 1 -0.468722,0.468722 0.46872269,0.46872269 0 0 1 -0.468721,-0.468722 0.46872269,0.46872269 0 0 1 0.468721,-0.468722 0.46872269,0.46872269 0 0 1 0.468722,0.468722 m 6.801717,-10.578089 a 0.46872269,0.46872269 0 0 1 -0.468732,0.468722 0.46872269,0.46872269 0 0 1 -0.468715,-0.468722 0.46872269,0.46872269 0 0 1 0.468715,-0.468723 0.46872269,0.46872269 0 0 1 0.468732,0.468723 M 66.30128,55.1452 A 0.46872269,0.46872269 0 0 1 65.832557,55.613923 0.46872269,0.46872269 0 0 1 65.363833,55.1452 0.46872269,0.46872269 0 0 1 65.832557,54.676477 0.46872269,0.46872269 0 0 1 66.30128,55.1452 m -0.788329,1.475386 a 0.46872269,0.46872269 0 0 1 -0.468723,0.468723 0.46872269,0.46872269 0 0 1 -0.468724,-0.468723 0.46872269,0.46872269 0 0 1 0.468724,-0.468722 0.46872269,0.46872269 0 0 1 0.468723,0.468722 m -0.788434,1.475387 a 0.46872269,0.46872269 0 0 1 -0.468723,0.468722 0.46872269,0.46872269 0 0 1 -0.468716,-0.468722 0.46872269,0.46872269 0 0 1 0.468716,-0.468723 0.46872269,0.46872269 0 0 1 0.468723,0.468723 m -0.788329,1.475386 a 0.46872269,0.46872269 0 0 1 -0.468715,0.468722 0.46872269,0.46872269 0 0 1 -0.468724,-0.468722 0.46872269,0.46872269 0 0 1 0.468724,-0.468723 0.46872269,0.46872269 0 0 1 0.468715,0.468723 m -0.788433,1.475495 a 0.46872269,0.46872269 0 0 1 -0.468722,0.468722 0.46872269,0.46872269 0 0 1 -0.468721,-0.468722 0.46872269,0.46872269 0 0 1 0.468721,-0.468722 0.46872269,0.46872269 0 0 1 0.468722,0.468722 m -0.788327,1.475384 a 0.46872269,0.46872269 0 0 1 -0.468721,0.468728 0.46872269,0.46872269 0 0 1 -0.468722,-0.468728 0.46872269,0.46872269 0 0 1 0.468722,-0.468721 0.46872269,0.46872269 0 0 1 0.468721,0.468721 m -0.788326,1.475391 a 0.46872269,0.46872269 0 0 1 -0.468722,0.468721 0.46872269,0.46872269 0 0 1 -0.468721,-0.468721 0.46872269,0.46872269 0 0 1 0.468721,-0.468722 0.46872269,0.46872269 0 0 1 0.468722,0.468722 m -0.788431,1.475384 a 0.46872269,0.46872269 0 0 1 -0.468728,0.468721 0.46872269,0.46872269 0 0 1 -0.468721,-0.468721 0.46872269,0.46872269 0 0 1 0.468721,-0.468721 0.46872269,0.46872269 0 0 1 0.468728,0.468721 m -23.347733,1.773845 a 0.68564319,0.68564319 0 0 1 -0.685752,0.685643 0.68564319,0.68564319 0 0 1 -0.685752,-0.685643 0.68564319,0.68564319 0 0 1 0.685642,-0.685754 0.68564319,0.68564319 0 0 1 0.685862,0.685643 m -0.879891,-2.283766 a 0.68564319,0.68564319 0 0 1 -0.685752,0.685638 0.68564319,0.68564319 0 0 1 -0.685752,-0.685638 0.68564319,0.68564319 0 0 1 0.685643,-0.685754 0.68564319,0.68564319 0 0 1 0.685861,0.685644 m -0.88,-2.283663 a 0.68564319,0.68564319 0 0 1 -0.685751,0.685644 0.68564319,0.68564319 0 0 1 -0.685753,-0.685644 0.68564319,0.68564319 0 0 1 0.685643,-0.685754 0.68564319,0.68564319 0 0 1 0.685861,0.685644 m -0.87989,-2.283768 a 0.68564319,0.68564319 0 0 1 -0.685752,0.685645 0.68564319,0.68564319 0 0 1 -0.685753,-0.685645 0.68564319,0.68564319 0 0 1 0.685644,-0.685752 0.68564319,0.68564319 0 0 1 0.685861,0.685643 M 33.915158,58.11156 a 0.68564319,0.68564319 0 0 1 -0.685752,0.685644 0.68564319,0.68564319 0 0 1 -0.685753,-0.685644 0.68564319,0.68564319 0 0 1 0.685644,-0.685752 0.68564319,0.68564319 0 0 1 0.685861,0.685643 m -0.879891,-2.283769 a 0.68564319,0.68564319 0 0 1 -0.685753,0.685643 0.68564319,0.68564319 0 0 1 -0.685751,-0.685643 0.68564319,0.68564319 0 0 1 0.685643,-0.685752 0.68564319,0.68564319 0 0 1 0.685861,0.685644 m -0.879999,-2.283661 a 0.68564319,0.68564319 0 0 1 -0.685753,0.685642 0.68564319,0.68564319 0 0 1 -0.685752,-0.685642 0.68564319,0.68564319 0 0 1 0.685643,-0.685752 0.68564319,0.68564319 0 0 1 0.685862,0.685642 m -0.879891,-2.283769 a 0.68564319,0.68564319 0 0 1 -0.685752,0.685643 0.68564319,0.68564319 0 0 1 -0.685752,-0.685643 0.68564319,0.68564319 0 0 1 0.685642,-0.685753 0.68564319,0.68564319 0 0 1 0.685862,0.685644 m -0.88,-2.282789 a 0.68564319,0.68564319 0 0 1 -0.685752,0.685644 0.68564319,0.68564319 0 0 1 -0.685752,-0.685644 0.68564319,0.68564319 0 0 1 0.685643,-0.685751 0.68564319,0.68564319 0 0 1 0.685861,0.685642 m -0.87989,-2.283769 a 0.68564319,0.68564319 0 0 1 -0.685752,0.685643 0.68564319,0.68564319 0 0 1 -0.685752,-0.685643 0.68564319,0.68564319 0 0 1 0.685643,-0.685753 0.68564319,0.68564319 0 0 1 0.685861,0.685644 m 8.817764,18.878844 a 0.68564319,0.68564319 0 0 1 -0.685753,0.685638 0.68564319,0.68564319 0 0 1 -0.685752,-0.685638 0.68564319,0.68564319 0 0 1 0.685644,-0.685753 0.68564319,0.68564319 0 0 1 0.685861,0.685643 m -0.88,-2.283662 a 0.68564319,0.68564319 0 0 1 -0.685752,0.685644 0.68564319,0.68564319 0 0 1 -0.685752,-0.685644 0.68564319,0.68564319 0 0 1 0.685643,-0.685753 0.68564319,0.68564319 0 0 1 0.685861,0.685643 M 36.57336,61.004344 a 0.68564319,0.68564319 0 0 1 -0.685752,0.685643 0.68564319,0.68564319 0 0 1 -0.685752,-0.685643 0.68564319,0.68564319 0 0 1 0.685643,-0.685753 0.68564319,0.68564319 0 0 1 0.685861,0.685642 m -0.879999,-2.283769 a 0.68564319,0.68564319 0 0 1 -0.685753,0.685643 0.68564319,0.68564319 0 0 1 -0.685752,-0.685643 0.68564319,0.68564319 0 0 1 0.685643,-0.685753 0.68564319,0.68564319 0 0 1 0.685862,0.685644 m -0.879891,-2.28366 a 0.68564319,0.68564319 0 0 1 -0.685752,0.685643 0.68564319,0.68564319 0 0 1 -0.685752,-0.685643 0.68564319,0.68564319 0 0 1 0.685643,-0.685752 0.68564319,0.68564319 0 0 1 0.685861,0.685642 m -0.88,-2.283769 a 0.68564319,0.68564319 0 0 1 -0.685752,0.685643 0.68564319,0.68564319 0 0 1 -0.685752,-0.685643 0.68564319,0.68564319 0 0 1 0.685643,-0.685753 0.68564319,0.68564319 0 0 1 0.685861,0.685644 m -0.87989,-2.28366 a 0.68564319,0.68564319 0 0 1 -0.685752,0.685642 0.68564319,0.68564319 0 0 1 -0.685753,-0.685642 0.68564319,0.68564319 0 0 1 0.685644,-0.685752 0.68564319,0.68564319 0 0 1 0.685861,0.685643 m -0.88,-2.28377 a 0.68564319,0.68564319 0 0 1 -0.685752,0.685643 0.68564319,0.68564319 0 0 1 -0.685752,-0.685643 0.68564319,0.68564319 0 0 1 0.685643,-0.685752 0.68564319,0.68564319 0 0 1 0.685861,0.685643 m -0.87989,-2.283661 a 0.68564319,0.68564319 0 0 1 -0.685752,0.685643 0.68564319,0.68564319 0 0 1 -0.685753,-0.685643 0.68564319,0.68564319 0 0 1 0.685644,-0.685752 0.68564319,0.68564319 0 0 1 0.685861,0.685643 m -0.88,-2.283769 a 0.68564319,0.68564319 0 0 1 -0.685752,0.685643 0.68564319,0.68564319 0 0 1 -0.685752,-0.685643 0.68564319,0.68564319 0 0 1 0.685643,-0.685752 0.68564319,0.68564319 0 0 1 0.685861,0.685643 m 5.231599,21.589149 a 0.68564319,0.68564319 0 0 1 -0.685752,0.685643 0.68564319,0.68564319 0 0 1 -0.685752,-0.685643 0.68564319,0.68564319 0 0 1 0.685643,-0.685754 0.68564319,0.68564319 0 0 1 0.685861,0.685643 m -0.87989,-2.283661 a 0.68564319,0.68564319 0 0 1 -0.685752,0.685643 0.68564319,0.68564319 0 0 1 -0.685752,-0.685643 0.68564319,0.68564319 0 0 1 0.685643,-0.685749 0.68564319,0.68564319 0 0 1 0.685861,0.685643 m -0.88,-2.283772 a 0.68564319,0.68564319 0 0 1 -0.685752,0.685644 0.68564319,0.68564319 0 0 1 -0.685752,-0.685644 0.68564319,0.68564319 0 0 1 0.685643,-0.685748 0.68564319,0.68564319 0 0 1 0.685861,0.685638 m -0.87989,-2.283658 a 0.68564319,0.68564319 0 0 1 -0.685752,0.685644 0.68564319,0.68564319 0 0 1 -0.685753,-0.685644 0.68564319,0.68564319 0 0 1 0.685644,-0.685752 0.68564319,0.68564319 0 0 1 0.685861,0.685643 m -0.88,-2.28377 a 0.68564319,0.68564319 0 0 1 -0.685752,0.685643 0.68564319,0.68564319 0 0 1 -0.685752,-0.685643 0.68564319,0.68564319 0 0 1 0.685643,-0.685752 0.68564319,0.68564319 0 0 1 0.685861,0.685643 m -0.87989,-2.281807 a 0.68564319,0.68564319 0 0 1 -0.685753,0.685643 0.68564319,0.68564319 0 0 1 -0.685752,-0.685643 0.68564319,0.68564319 0 0 1 0.685644,-0.685753 0.68564319,0.68564319 0 0 1 0.685861,0.685644 m -0.879891,-2.28366 a 0.68564319,0.68564319 0 0 1 -0.685752,0.685643 0.68564319,0.68564319 0 0 1 -0.685752,-0.685643 0.68564319,0.68564319 0 0 1 0.685643,-0.685752 0.68564319,0.68564319 0 0 1 0.685861,0.685643 m -0.879891,-2.283661 a 0.68564319,0.68564319 0 0 1 -0.685751,0.685643 0.68564319,0.68564319 0 0 1 -0.685753,-0.685643 0.68564319,0.68564319 0 0 1 0.685643,-0.685752 0.68564319,0.68564319 0 0 1 0.685861,0.685643 m -0.879999,-2.28366 a 0.68564319,0.68564319 0 0 1 -0.685752,0.685642 0.68564319,0.68564319 0 0 1 -0.685752,-0.685642 0.68564319,0.68564319 0 0 1 0.685643,-0.685753 0.68564319,0.68564319 0 0 1 0.685861,0.685643 m -0.88,-2.28355 a 0.68564319,0.68564319 0 0 1 -0.685752,0.685642 0.68564319,0.68564319 0 0 1 -0.685752,-0.685642 0.68564319,0.68564319 0 0 1 0.685643,-0.685753 0.68564319,0.68564319 0 0 1 0.685861,0.685643 m 7.021248,22.228028 a 0.68564319,0.68564319 0 0 1 -0.685752,0.685644 0.68564319,0.68564319 0 0 1 -0.685752,-0.685644 0.68564319,0.68564319 0 0 1 0.685643,-0.685754 0.68564319,0.68564319 0 0 1 0.685861,0.685644 m -0.879999,-2.283656 a 0.68564319,0.68564319 0 0 1 -0.685753,0.685638 0.68564319,0.68564319 0 0 1 -0.685752,-0.685638 0.68564319,0.68564319 0 0 1 0.685644,-0.685754 0.68564319,0.68564319 0 0 1 0.685861,0.685644 m -0.879891,-2.283773 a 0.68564319,0.68564319 0 0 1 -0.685752,0.685644 0.68564319,0.68564319 0 0 1 -0.685752,-0.685644 0.68564319,0.68564319 0 0 1 0.685642,-0.685749 0.68564319,0.68564319 0 0 1 0.685862,0.685644 m -0.88,-2.283662 a 0.68564319,0.68564319 0 0 1 -0.685752,0.685644 0.68564319,0.68564319 0 0 1 -0.685752,-0.685644 0.68564319,0.68564319 0 0 1 0.685643,-0.685753 0.68564319,0.68564319 0 0 1 0.685861,0.685643 m -0.87989,-2.283769 a 0.68564319,0.68564319 0 0 1 -0.685752,0.685643 0.68564319,0.68564319 0 0 1 -0.685752,-0.685643 0.68564319,0.68564319 0 0 1 0.685642,-0.685752 0.68564319,0.68564319 0 0 1 0.685862,0.685642 m -0.88,-2.28366 a 0.68564319,0.68564319 0 0 1 -0.685752,0.685643 0.68564319,0.68564319 0 0 1 -0.685752,-0.685643 0.68564319,0.68564319 0 0 1 0.685643,-0.685752 0.68564319,0.68564319 0 0 1 0.685861,0.685644 m -0.879891,-2.283771 a 0.68564319,0.68564319 0 0 1 -0.685752,0.685644 0.68564319,0.68564319 0 0 1 -0.685752,-0.685644 0.68564319,0.68564319 0 0 1 0.685643,-0.685752 0.68564319,0.68564319 0 0 1 0.685861,0.685643 m -0.879999,-2.28366 a 0.68564319,0.68564319 0 0 1 -0.685752,0.685644 0.68564319,0.68564319 0 0 1 -0.685753,-0.685644 0.68564319,0.68564319 0 0 1 0.685644,-0.685752 0.68564319,0.68564319 0 0 1 0.685861,0.685643 m -0.879891,-2.283769 a 0.68564319,0.68564319 0 0 1 -0.685752,0.685642 0.68564319,0.68564319 0 0 1 -0.685753,-0.685642 0.68564319,0.68564319 0 0 1 0.685644,-0.685752 0.68564319,0.68564319 0 0 1 0.685861,0.685642 m -0.879999,-2.28366 a 0.68564319,0.68564319 0 0 1 -0.685753,0.685643 0.68564319,0.68564319 0 0 1 -0.685752,-0.685643 0.68564319,0.68564319 0 0 1 0.685643,-0.685752 0.68564319,0.68564319 0 0 1 0.685862,0.685643"
       style="display:inline;stroke-width:1.0621"
       id="path10"
       inkscape:label="bayab" /></g><path
     d="M 80.422539,57.171046 67.727903,56.788007"
     style="display:inline;fill:none;stroke:#000000;stroke-width:3.00001;stroke-linecap:round;stroke-linejoin:round;stroke-miterlimit:4.7;stroke-dasharray:none;stroke-opacity:1"
     transform="translate(-0.783,4.782)"
     id="path9"
     sodipodi:nodetypes="cc" /><g
     id="path120"><path
       style="color:#000000;fill:#ffffff;stroke-linecap:round;stroke-linejoin:round;stroke-miterlimit:4.7;-inkscape-stroke:none"
       d="M 37.752011,63.478846 26.930437,54.983352 v 0"
       id="path121" /><path
       style="color:#000000;fill:#000000;stroke-linecap:round;stroke-linejoin:round;stroke-miterlimit:4.7;-inkscape-stroke:none"
       d="m 26.751953,53.494141 a 1.5,1.5 0 0 0 -1.001953,0.5625 1.5,1.5 0 0 0 0.253906,2.107421 l 10.822266,8.494141 a 1.5,1.5 0 0 0 2.105469,-0.253906 1.5,1.5 0 0 0 -0.253907,-2.105469 L 27.857422,53.802734 a 1.5,1.5 0 0 0 -1.105469,-0.308593 z"
       id="path122" /></g></svg>
