<?xml version="1.0" encoding="UTF-8" standalone="no"?>
<svg
   xml:space="preserve"
   width="55"
   height="100"
   version="1.1"
   id="svg9"
   sodipodi:docname="human_gamba_1.svg"
   inkscape:version="1.3.2 (091e20e, 2023-11-25)"
   xmlns:inkscape="http://www.inkscape.org/namespaces/inkscape"
   xmlns:sodipodi="http://sodipodi.sourceforge.net/DTD/sodipodi-0.dtd"
   xmlns="http://www.w3.org/2000/svg"
   xmlns:svg="http://www.w3.org/2000/svg"><defs
     id="defs9" /><sodipodi:namedview
     id="namedview9"
     pagecolor="#ffffff"
     bordercolor="#000000"
     borderopacity="0.25"
     inkscape:showpageshadow="2"
     inkscape:pageopacity="0.0"
     inkscape:pagecheckerboard="0"
     inkscape:deskcolor="#d1d1d1"
     inkscape:current-layer="svg9"
     showgrid="false" /><g
     id="g1"
     transform="translate(2.43736,2.622817)"><path
       id="path2"
       style="fill:none;stroke:#000000;stroke-width:3.00001;stroke-linecap:round;stroke-linejoin:round;stroke-miterlimit:4.7;stroke-dasharray:none;stroke-opacity:1"
       inkscape:label="spine"
       d="m 27.625011,38.344866 2.177768,27.249079 m -2.177504,-27.249725 20.891,4.142" /><path
       d="M 38.10273,93.254361 32.106824,91.96115 40.300927,72.510078 29.801142,65.595571 5.8882601,71.264875 12.292878,90.931422 6.5418216,92.009255"
       style="display:inline;fill:none;stroke:#000000;stroke-width:3.00001;stroke-linecap:round;stroke-linejoin:round;stroke-miterlimit:4.7;stroke-dasharray:none;stroke-opacity:1"
       id="path3"
       inkscape:label="legs"
       sodipodi:nodetypes="ccccccc" /><path
       d="m 32.384991,22.848985 c 1.226535,4.315007 -1.289559,8.802935 -5.62945,10.041188 -4.330837,1.241862 -8.852775,-1.250695 -10.081595,-5.557121 -1.228065,-4.308476 1.480227,-8.381205 5.81939,-9.618469 4.339163,-1.237265 8.661952,0.825926 9.891655,5.134402"
       style="display:inline;fill:none;stroke:#000000;stroke-width:2.00001;stroke-linecap:round;stroke-linejoin:round;stroke-miterlimit:4.7;stroke-dasharray:none;stroke-opacity:1"
       id="path4"
       inkscape:label="head"
       sodipodi:nodetypes="cccsc" /><path
       d="m 4.237057,53.711981 8.35526,-10.498284 14.795374,-4.986769"
       style="display:inline;fill:none;stroke:#000000;stroke-width:3.00001;stroke-linecap:round;stroke-linejoin:round;stroke-miterlimit:4.7;stroke-dasharray:none;stroke-opacity:1"
       id="path5"
       sodipodi:nodetypes="ccc" /><path
       style="fill:#ffffff;fill-opacity:1;stroke:#000000;stroke-width:0.8;stroke-linecap:round;stroke-linejoin:round;stroke-miterlimit:4.7;stroke-opacity:1"
       d="m 19.38619,33.232736 -4.563771,8.713145 9.915069,0.43109 0.808474,-7.897525 -0.315588,7.905716 11.290238,-0.295584 -5.881546,-9.364787 c 0,0 -3.573019,2.28022 -11.252876,0.507945 z"
       id="path42"
       sodipodi:nodetypes="cccccccc" /><path
       style="fill:#000000;fill-opacity:1;stroke:none;stroke-width:0.8;stroke-linecap:round;stroke-linejoin:round;stroke-miterlimit:4.7"
       d="M 16.146706,24.502137 C 13.528175,22.494597 1.186291,18.464062 2.256283,15.630297 2.716794,14.315364 5.347898,9.6558111 8.31069,10.722129 c 6.157565,2.216126 12.083436,1.7849 12.083436,1.7849 0,0 1.705767,-4.7428526 2.822378,-5.2214001 1.276127,-0.2392738 6.906427,0.4795346 7.421808,1.323905 0.681021,1.1157452 0.531026,5.4832531 0.531026,5.4832531 4.75305,0.95061 15.31486,3.869062 15.593248,6.972226 0.315944,3.5218 -9.276119,6.063617 -14.232633,5.892702 -6.669052,-5.409036 -10.478986,-10.74348 -16.383247,-2.455578 z"
       id="path6"
       sodipodi:nodetypes="ccsccscscc" /><g
       id="g33"
       inkscape:label="gamba contour"
       inkscape:groupmode="layer"
       transform="matrix(-0.92662772,0.12451986,0.12446829,0.92701168,71.677151,-11.779409)"
       style="display:inline;stroke-width:1.06935"><path
         id="path33"
         style="display:inline;fill:#ffffff;fill-opacity:1;stroke:none;stroke-width:0.267338;stroke-linecap:round;stroke-linejoin:round;stroke-miterlimit:4.7;stroke-dasharray:none;stroke-opacity:1"
         inkscape:label="head"
         d="m 29.333999,14.746835 c -2.595383,-1.172223 -2.938316,-5.8359529 0.197021,-5.5756866 1.304127,1.0765216 1.695068,2.8205856 2.066151,4.3886766 m 12.404081,56.750963 c -2.149996,-3.664732 -3.42937,-8.180578 -1.679495,-12.279362 0.117766,-2.673733 4.108634,-4.44657 2.618488,-6.983636 L 34.815394,28.368313 c -2.474103,-2.63326 -2.819306,-7.961287 -4.521299,-11.578498 -0.949494,-2.249558 -5.506707,-5.701313 -1.269058,-7.2657364 3.247201,0.9468164 2.50486,4.9741584 4.481585,7.2260124 1.891032,3.119624 4.094349,6.057734 5.754304,9.311783 0.254129,2.997017 3.039533,6.320697 4.293112,9.425348 2.329854,4.549521 4.863671,8.989581 7.268566,13.498932 5.365968,1.033784 11.42516,2.503977 14.379972,7.613758 3.071627,3.064885 -2.499245,7.21061 1.10952,10.730574 1.628912,3.53114 6.19478,3.067996 8.545559,4.112958 3.812224,5.242527 6.237568,12.620898 2.719768,18.64953 -0.938568,3.075992 -5.479965,4.646234 -5.565506,7.328828 1.78869,1.97684 -0.603644,3.104828 -2.084846,3.097668 -0.849728,-1.634855 -1.531936,-3.540575 -3.744304,-2.173429 -5.653055,1.211951 -12.161375,-0.803442 -15.051147,-6.092958 -1.705219,-2.764211 -2.672309,-5.913125 -3.322214,-9.07539 5.993128,-3.175525 2.866006,-13.367147 -3.808154,-12.866905 z"
         sodipodi:nodetypes="ccccccccccccccccccccccc" /></g><path
       d="M 5.914107,51.940118 C 6.439013,50.473082 6.233926,50.362793 6.233926,50.362793 M 0.5,48.421497 c 12.034833,3.889087 36.18126,11.521187 38.567952,12.823089 0.787312,0.429464 0.659257,1.838424 3.33805,2.934151 C 28.98811,59.596219 15.438907,55.612543 2.051562,50.937678 4.774444,50.870348 2.582096,49.093106 2.582096,49.093106"
       style="display:inline;fill:none;stroke:#000000;stroke-width:1;stroke-linecap:round;stroke-linejoin:round;stroke-miterlimit:4.7;stroke-dasharray:none;stroke-opacity:1"
       id="path8"
       inkscape:label="bow"
       sodipodi:nodetypes="cccsccc" /><path
       id="path31"
       style="fill:#ffffff;stroke:none;stroke-width:0.799999;stroke-linecap:round;stroke-linejoin:round;stroke-miterlimit:4.7"
       sodipodi:type="inkscape:offset"
       inkscape:radius="-0.70467609"
       inkscape:original="M 25.8125 50.332031 C 25.327642 50.337731 24.888466 50.724199 24.822266 51.205078 C 24.779776 51.359242 24.849837 51.534978 24.742188 51.667969 C 24.510565 52.099442 24.610414 52.682305 25.001953 52.986328 C 25.322034 53.232425 25.732685 53.307541 26.101562 53.453125 C 26.481516 53.571467 26.852098 53.737405 27.248047 53.792969 C 27.737367 53.845609 28.220318 53.51267 28.363281 53.044922 C 28.487302 52.644138 28.635793 52.235887 28.625 51.810547 C 28.59047 51.381051 28.257937 51.011459 27.841797 50.912109 C 27.236788 50.724622 26.640403 50.508989 26.027344 50.349609 C 25.956564 50.334269 25.884425 50.335951 25.8125 50.332031 z "
       d="m 25.820312,51.037109 c -0.115483,0.0014 -0.285048,0.149391 -0.300781,0.263672 a 0.70474656,0.70474656 0 0 1 -0.01758,0.0918 c 0.02334,-0.08469 0.01177,-0.06549 0.0098,0.0625 -0.002,0.127987 -0.0263,0.413663 -0.222657,0.65625 l 0.07422,-0.109375 c -0.06632,0.123552 -0.02162,0.352651 0.07031,0.425781 4.1e-4,3.27e-4 -4.13e-4,0.0016 0,0.002 0.143421,0.109404 0.467389,0.186312 0.917968,0.363282 0.004,0.0016 0.0038,0.0023 0.0078,0.0039 0.396895,0.126708 0.717144,0.25462 0.966797,0.292969 0.126225,0.01169 0.322911,-0.117916 0.363281,-0.25 a 0.70474656,0.70474656 0 0 1 0,-0.0039 c 0.127243,-0.411196 0.224551,-0.730927 0.224609,-0.978515 -0.01526,-0.1004 -0.125597,-0.23333 -0.236328,-0.259766 a 0.70474656,0.70474656 0 0 1 -0.04492,-0.01172 c -0.61696,-0.19119 -1.19453,-0.398804 -1.757812,-0.546875 0.01629,0.0036 -0.03288,-6.31e-4 -0.05469,-0.002 z"
       transform="translate(-21.883725,-1.2477799)" /><g
       id="g30"
       inkscape:label="gamba"
       inkscape:groupmode="layer"
       transform="matrix(-0.92662772,0.12451986,0.12446829,0.92701168,71.677151,-11.779409)"
       style="display:inline;stroke-width:1.06935"><path
         style="fill:none;fill-opacity:0.762332;stroke:#000000;stroke-width:0.855484;stroke-linecap:round;stroke-linejoin:round;stroke-miterlimit:4.7;stroke-dasharray:none;stroke-opacity:1"
         d="M 44.001252,70.310788 C 41.321173,65.040767 39.531655,61.314406 45.383184,51.957207 L 34.815394,28.368313 c -0.260048,0.161602 -0.304655,0.222007 -0.385271,0.06926 -1.75665,-3.328399 -2.504225,-7.409029 -4.136028,-11.647758 -0.261015,-0.637469 -1.001335,-1.750536 -1.414854,-2.585104 -0.08203,-0.165741 -0.361635,-0.107246 -0.511045,-0.216271 -0.383251,-0.279577 -0.747363,-0.640152 -0.928193,-1.07867 -0.105748,-0.256423 0.256337,-0.200303 0.07325,-0.617519 -0.75956,-1.730913 0.146614,-2.270879 0.854293,-2.6318057 0.835899,-0.426316 1.911313,0.2044667 2.308328,0.9428627 0.179823,0.334453 0.403839,0.158433 0.518146,0.327837 0.335785,0.497596 0.300515,1.530464 0.323405,1.771692 0.06316,0.665671 0.637452,1.299045 0.880818,1.802074 0.116959,0.241647 0.30863,0.446627 0.43058,0.680522 0.08656,0.16589 -0.09485,0.303053 0.0027,0.464767 2.319157,3.842916 5.612214,8.522466 6.429403,10.411674 l -0.335371,0.375806 c 7.738031,15.30899 8.377671,15.919946 11.897049,22.548474 7.30968,1.633443 12.035834,2.38602 15.859402,10.242557 -4.901963,5.808495 2.270347,13.206154 7.578243,11.377446 6.541737,8.916451 7.726409,18.325674 -2.575937,25.817629 0.0174,-0.0022 1.011226,3.15728 1.011226,3.15728 l -2.663573,1.122094 -1.611176,-2.821526 C 56.090516,100.94221 50.123152,94.571124 47.809406,83.177693 53.825577,79.812336 50.686514,69.916246 44.001252,70.310788 Z"
         id="path15"
         sodipodi:nodetypes="cccscsassssassssccccccccccc" /><path
         id="path16"
         style="color:#000000;fill:#000000;fill-opacity:1;stroke-width:1.06935;stroke-linecap:round;stroke-linejoin:round;stroke-miterlimit:4.7;-inkscape-stroke:none"
         d="m 51.062986,72.301314 c 2.609926,-0.122736 4.268524,9.263116 1.536535,10.268519 -0.899415,0.331002 -1.037874,-0.366899 -1.06276,-0.73273 -0.02489,-0.365822 0.261413,-0.649945 0.719281,-0.662062 0.457787,-0.01215 0.588594,0.662432 0.621955,0.435713 0.329649,-2.240356 0.24068,-5.68766 -1.263976,-8.634344 0,0 -0.06469,0.479506 -0.522601,0.534125 -0.457908,0.05462 -0.642227,-0.319513 -0.629756,-0.642052 0.01236,-0.319731 0.268534,-0.551521 0.601322,-0.567169 z m 12.69858,-5.935466 c -1.749652,1.940605 4.456582,9.17411 6.966164,7.698737 0.826202,-0.485715 0.374307,-1.035283 0.107211,-1.286467 -0.267101,-0.251185 -0.668355,-0.20982 -0.967993,0.136506 -0.29964,0.346332 0.139061,0.875191 -0.05741,0.757247 -1.94141,-1.165488 -4.550702,-3.419948 -5.875312,-6.451849 0,0 0.411803,0.253988 0.744362,-0.06551 0.332557,-0.319501 0.160119,-0.69925 -0.0972,-0.894105 -0.255076,-0.193151 -0.596733,-0.141994 -0.819824,0.105445 z" /><path
         id="path17"
         style="fill:none;fill-opacity:1;stroke:#000000;stroke-width:0.534677;stroke-linecap:round;stroke-linejoin:round;stroke-miterlimit:4.7;stroke-dasharray:none;stroke-opacity:1"
         inkscape:label="path5"
         d="M 68.448659,97.894477 59.368164,82.493011 c 2.057705,-0.618439 4.687858,-1.776705 6.737882,-2.901503 l 5.600912,16.891794 M 45.30054,51.79751 l 3.926263,9.184693 c 1.738639,-0.971851 4.10123,-2.148601 6.474271,-3.197249 L 50.821467,48.97403" /><rect
         style="fill:none;fill-opacity:1;stroke:#000000;stroke-width:0.534677;stroke-linecap:round;stroke-linejoin:round;stroke-miterlimit:4.7;stroke-dasharray:none;stroke-opacity:1"
         id="rect17"
         width="0.85468608"
         height="1.1301851"
         x="21.321592"
         y="117.59205"
         rx="0.66211653"
         ry="0.10183391"
         transform="matrix(0.90387595,-0.42779466,0.42775342,0.90389547,0,0)" /><path
         id="path18"
         style="fill:none;fill-opacity:1;stroke:#000000;stroke-width:1.06935;stroke-linecap:round;stroke-linejoin:round;stroke-miterlimit:4.7;stroke-dasharray:none;stroke-opacity:1"
         inkscape:label="nut"
         d="m 34.405069,28.229274 4.637572,-2.302916 m 17.198568,51.040716 c 4.052953,-1.136465 7.466921,-3.453976 7.466921,-3.453976" /><g
         id="g26"
         inkscape:label="strings"
         transform="matrix(1.0579534,-0.50071783,0.50037941,1.0573631,-27.234501,21.776856)"
         style="stroke-width:0.913881"><path
           style="fill:none;fill-opacity:1;stroke:#000000;stroke-width:0.22847;stroke-linecap:round;stroke-linejoin:round;stroke-miterlimit:4.7;stroke-dasharray:none;stroke-opacity:1"
           d="M 46.016979,27.366875 45.046562,73.3431 45.214838,79.351629"
           id="path19"
           sodipodi:nodetypes="ccc" /><path
           style="fill:none;fill-opacity:1;stroke:#000000;stroke-width:0.22847;stroke-linecap:round;stroke-linejoin:round;stroke-miterlimit:4.7;stroke-dasharray:none;stroke-opacity:1"
           d="m 46.465754,27.30327 -0.547702,45.921414 0.122573,6.282751"
           id="path20"
           sodipodi:nodetypes="ccc" /><path
           style="fill:none;fill-opacity:1;stroke:#000000;stroke-width:0.22847;stroke-linecap:round;stroke-linejoin:round;stroke-miterlimit:4.7;stroke-dasharray:none;stroke-opacity:1"
           d="m 46.958112,27.321724 -0.02211,46.07227 -0.03739,6.237048"
           id="path22"
           sodipodi:nodetypes="ccc" /><path
           style="fill:none;fill-opacity:1;stroke:#000000;stroke-width:0.22847;stroke-linecap:round;stroke-linejoin:round;stroke-miterlimit:4.7;stroke-dasharray:none;stroke-opacity:1"
           d="m 47.45047,27.312497 0.549186,46.145379 -0.174501,6.168493"
           id="path23"
           sodipodi:nodetypes="ccc" /><path
           style="fill:none;fill-opacity:1;stroke:#000000;stroke-width:0.22847;stroke-linecap:round;stroke-linejoin:round;stroke-miterlimit:4.7;stroke-dasharray:none;stroke-opacity:1"
           d="m 48.024887,27.371981 1.006222,46.044865 -0.220204,6.305603"
           id="path24"
           sodipodi:nodetypes="ccc" /><path
           style="fill:none;fill-opacity:1;stroke:#000000;stroke-width:0.22847;stroke-linecap:round;stroke-linejoin:round;stroke-miterlimit:4.7;stroke-dasharray:none;stroke-opacity:1"
           d="m 48.533145,27.362754 1.442684,46.026567 -0.28876,6.282751"
           id="path25"
           sodipodi:nodetypes="ccc" /><path
           style="fill:none;fill-opacity:1;stroke:#000000;stroke-width:0.22847;stroke-linecap:round;stroke-linejoin:round;stroke-miterlimit:4.7;stroke-dasharray:none;stroke-opacity:1"
           d="m 49.085971,27.337625 1.769354,46.101953 -0.313889,6.282751"
           id="path26"
           sodipodi:nodetypes="ccc" /></g><path
         id="path27"
         style="fill:none;fill-opacity:1;stroke:#000000;stroke-width:0.267339;stroke-linecap:round;stroke-linejoin:round;stroke-miterlimit:4.7;stroke-dasharray:none;stroke-opacity:1"
         d="m 41.898662,44.26002 c 2.147783,-1.246805 4.917465,-2.298028 4.917465,-2.298028 m -5.680787,0.560936 c 2.552259,-1.451783 2.695053,-1.459534 4.830412,-2.388905 m -5.834436,0.05011 c 2.09885,-1.264283 2.315409,-1.366789 4.705904,-2.186635 m -5.618051,0.135056 c 1.816779,-1.144328 2.623904,-1.545514 4.373942,-2.14351 m -5.494854,-0.06999 c 1.576009,-0.908459 3.127711,-1.65754 4.408631,-2.101228 m -5.459712,-0.273112 c 1.525282,-0.843806 2.457224,-1.336623 4.288366,-2.135558 m -5.310624,-0.09925 c 2.27707,-1.145444 2.445945,-1.284884 4.169796,-1.938216"
         inkscape:label="frets" /><path
         id="path28"
         style="color:#000000;display:inline;fill:#000000;fill-opacity:1;stroke-width:1.06935;stroke-linecap:round;stroke-linejoin:round;stroke-miterlimit:4.7;-inkscape-stroke:none"
         d="m 32.001981,26.564575 c 0.233647,-0.175452 0.155547,-0.289929 0.247556,-0.345797 0.117763,-0.08407 0.211005,0.113052 0.321232,0.130449 0.167355,-0.07923 0.463719,-0.201729 0.631085,-0.280942 0.197884,-0.09437 0.321849,0.71886 0.288343,0.737239 0,0 -0.526787,0.233921 -0.618744,0.30375 0.0026,0.124161 0.03993,0.256774 -0.08572,0.306895 -0.125635,0.05018 -0.226091,-0.184701 -0.423711,-0.05719 9.97e-4,0.560233 -0.161539,0.765135 -0.508873,0.940798 -0.347334,0.175666 -0.82337,-0.04095 -1.113075,-0.506886 -0.0997,0.122376 -0.279564,0.152302 -0.353824,-0.05473 -0.07427,-0.207022 0.109081,-0.254359 0.234351,-0.236996 -0.113538,-0.393543 -0.165965,-0.961349 0.309151,-1.151635 0.475117,-0.190284 0.695533,-0.116135 1.07226,0.215061 z m -2.585635,-8.610378 c 0.233648,-0.175452 0.155538,-0.289934 0.247557,-0.345798 0.117762,-0.08407 0.211005,0.113052 0.321231,0.130449 0.167356,-0.07923 0.463719,-0.201729 0.631085,-0.280942 0.197885,-0.09437 0.32185,0.71886 0.288343,0.737242 0,0 -0.526786,0.233919 -0.618741,0.303748 0.0026,0.124161 0.03993,0.256774 -0.08572,0.306896 -0.125631,0.05016 -0.226091,-0.184702 -0.42371,-0.05719 9.96e-4,0.560233 -0.161541,0.765135 -0.508875,0.940798 -0.347333,0.175665 -0.823369,-0.04095 -1.113075,-0.506886 -0.0997,0.122375 -0.279564,0.152301 -0.353823,-0.05473 -0.07427,-0.207021 0.109081,-0.254359 0.234349,-0.236995 -0.113539,-0.393543 -0.165963,-0.96135 0.309153,-1.151637 0.475117,-0.190283 0.695532,-0.116133 1.072257,0.215063 z m 1.067651,2.99646 c 0.233648,-0.175452 0.155547,-0.289929 0.247557,-0.345797 0.117763,-0.08407 0.211004,0.113051 0.32123,0.130447 0.167357,-0.07923 0.46372,-0.201729 0.631086,-0.280941 0.197885,-0.09437 0.321849,0.71886 0.288343,0.73724 0,0 -0.526786,0.23392 -0.618742,0.303749 0.0026,0.124161 0.03993,0.256774 -0.08573,0.306893 -0.125631,0.05017 -0.226091,-0.184701 -0.423709,-0.05719 9.97e-4,0.560233 -0.161541,0.765134 -0.508875,0.940798 -0.347333,0.175665 -0.823369,-0.04095 -1.113076,-0.506886 -0.0997,0.122375 -0.279563,0.152303 -0.353823,-0.05473 -0.07426,-0.207023 0.109082,-0.254361 0.234351,-0.236995 -0.113539,-0.393543 -0.165964,-0.961351 0.309153,-1.151638 0.475117,-0.190283 0.695532,-0.116132 1.072257,0.215064 z m 0.526733,2.902296 c 0.233645,-0.175451 0.155538,-0.289933 0.247556,-0.345798 0.117762,-0.08407 0.211007,0.113053 0.321232,0.130449 0.167357,-0.07923 0.46372,-0.20173 0.631086,-0.280942 0.197884,-0.09437 0.32185,0.71886 0.288332,0.737244 0,0 -0.526786,0.23392 -0.618741,0.30375 0.0026,0.124161 0.03993,0.256774 -0.08573,0.306892 -0.125631,0.05016 -0.226091,-0.184701 -0.423711,-0.0572 9.98e-4,0.560232 -0.16154,0.765135 -0.508873,0.940798 -0.347334,0.175666 -0.82337,-0.04095 -1.113075,-0.506885 -0.0997,0.122375 -0.279569,0.152292 -0.353824,-0.05473 -0.07427,-0.207023 0.109081,-0.254359 0.234352,-0.236995 -0.11354,-0.393544 -0.165966,-0.96135 0.309151,-1.151636 0.475117,-0.190283 0.69553,-0.116134 1.072257,0.215062 z m 4.350588,-7.10747 c -0.283807,0.06945 -0.322813,-0.06353 -0.424348,-0.02779 -0.139678,0.03777 -0.04637,0.234857 -0.102779,0.33114 -0.167371,0.0792 -0.449998,0.230725 -0.617364,0.309937 -0.198436,0.0932 0.351815,0.704676 0.387271,0.690418 0,0 0.514877,-0.259089 0.627175,-0.285931 0.09435,0.08075 0.173239,0.19368 0.291672,0.128263 0.118451,-0.06536 5.21e-4,-0.291955 0.224416,-0.363943 0.43258,0.35597 0.694077,0.360181 1.050128,0.202939 0.356053,-0.15724 0.490367,-0.662726 0.313752,-1.182185 0.157842,4.82e-4 0.295021,-0.119642 0.182016,-0.308332 -0.112998,-0.188689 -0.265867,-0.07685 -0.331844,0.03098 -0.232331,-0.337321 -0.638161,-0.737865 -1.086538,-0.491067 -0.448375,0.246794 -0.530784,0.464269 -0.513529,0.965597 z m 1.596326,2.571155 c -0.283809,0.06945 -0.322814,-0.06353 -0.424349,-0.02779 -0.139673,0.03776 -0.04637,0.234857 -0.102789,0.331135 -0.167371,0.0792 -0.449997,0.230725 -0.617365,0.309937 -0.198434,0.0932 0.351816,0.704677 0.387274,0.690418 0,0 0.514876,-0.259088 0.627174,-0.285931 0.09435,0.08075 0.173239,0.193681 0.291673,0.128263 0.118451,-0.06536 5.12e-4,-0.291961 0.224416,-0.363943 0.43258,0.355968 0.694075,0.36018 1.050127,0.202938 0.356053,-0.15724 0.490368,-0.662726 0.313753,-1.182185 0.157841,4.82e-4 0.29502,-0.119642 0.182016,-0.308332 -0.112998,-0.188689 -0.265868,-0.07685 -0.331844,0.03098 -0.232331,-0.337318 -0.638161,-0.737864 -1.086539,-0.491068 -0.448374,0.246796 -0.530783,0.46427 -0.513529,0.965599 z m 1.600195,2.394237 c -0.283808,0.06945 -0.322813,-0.06353 -0.424349,-0.02779 -0.139676,0.03777 -0.04637,0.234857 -0.10278,0.33114 -0.167371,0.0792 -0.449999,0.230724 -0.617364,0.309936 -0.198436,0.0932 0.351814,0.704676 0.387271,0.690419 0,0 0.514877,-0.259089 0.627176,-0.285932 0.09435,0.08075 0.173239,0.193681 0.291672,0.128263 0.118451,-0.06536 5.21e-4,-0.291955 0.224415,-0.363944 0.43258,0.35597 0.694076,0.36018 1.050127,0.20294 0.356055,-0.157242 0.490369,-0.662727 0.313753,-1.182187 0.157841,4.82e-4 0.29502,-0.119641 0.182016,-0.30833 -0.112998,-0.188691 -0.265869,-0.07685 -0.331844,0.03098 -0.232331,-0.337321 -0.63816,-0.737865 -1.086539,-0.491068 -0.448374,0.246796 -0.530784,0.46427 -0.51353,0.965599 z"
         inkscape:label="pegs" /><path
         style="display:inline;fill:none;fill-opacity:1;stroke:#000000;stroke-width:0.267339;stroke-linecap:round;stroke-linejoin:round;stroke-miterlimit:4.7;stroke-dasharray:none;stroke-opacity:1"
         d="m 34.949838,27.849842 c -0.908561,-2.21414 -3.886148,-11.1983 -3.886148,-11.1983 l 1.073824,-0.60549 6.061691,10.025734"
         id="path29"
         sodipodi:nodetypes="cccc" /><path
         style="display:inline;fill:#000000;fill-opacity:1;stroke:#000000;stroke-width:0.267338;stroke-linecap:round;stroke-linejoin:round;stroke-miterlimit:4.7;stroke-dasharray:none;stroke-opacity:1"
         d="m 29.333999,14.746835 c -0.503377,-0.318309 -1.460415,-1.164888 -1.460415,-1.164888 -0.350344,-0.07745 -0.09417,-1.083461 -0.36427,-1.233356 -0.571691,-0.317271 0.130245,-1.923412 -0.03794,-1.597009 -0.72112,1.399491 0.944434,-4.7356923 3.301293,0.108471 0.355068,0.745226 0.499176,1.349931 0.824504,2.699772"
         id="path30"
         sodipodi:nodetypes="ccsssc"
         inkscape:label="head" /></g><path
       d="m 48.625275,42.47122 -9.773,-14.932"
       style="display:inline;fill:none;stroke:#000000;stroke-width:3.00001;stroke-linecap:round;stroke-linejoin:round;stroke-miterlimit:4.7;stroke-dasharray:none;stroke-opacity:1"
       id="path9" /></g></svg>
