<svg xmlns="http://www.w3.org/2000/svg" width="60" height="80" viewBox="-21.5 0 60 80">
    <path fill="#000" fill-rule="evenodd" d="M31.735 72.941a3.534 3.534 0 0 1-3.53 3.53h-40a3.534 3.534 0 0 1-3.529-3.53V7.06a3.534 3.534 0 0 1 3.53-3.53h40a3.534 3.534 0 0 1 3.53 3.53zM33.5 13.53v-1.176a.59.59 0 0 0-.588-.588V7.059a4.72 4.72 0 0 0-4.706-4.706h-40A4.72 4.72 0 0 0-16.5 7.059V72.94a4.72 4.72 0 0 0 4.706 4.706h40a4.72 4.72 0 0 0 4.706-4.706V23.53a.59.59 0 0 0 .588-.588V17.06a.59.59 0 0 0-.588-.588v-2.353a.59.59 0 0 0 .588-.589M8.206 7.06a.588.588 0 1 0 0-1.177.588.588 0 0 0 0 1.177m0 67.647A1.767 1.767 0 0 1 6.44 72.94c0-.973.792-1.765 1.765-1.765s1.765.792 1.765 1.765-.792 1.765-1.765 1.765m0-4.118a2.353 2.353 0 1 0 0 4.706 2.353 2.353 0 0 0 0-4.706m21.765-3.53c0 .974-.792 1.766-1.765 1.766h-40a1.767 1.767 0 0 1-1.765-1.765V11.765c0-.973.792-1.765 1.765-1.765h40c.973 0 1.765.792 1.765 1.765zM28.206 9.413h-40a2.353 2.353 0 0 0-2.353 2.353v55.294c0 1.3 1.053 2.353 2.353 2.353h40c1.3 0 2.353-1.054 2.353-2.353V11.765c0-1.3-1.054-2.353-2.353-2.353"/>
</svg>
