<?xml version="1.0" encoding="UTF-8" standalone="no"?>
<!-- Uploaded to: SVG Repo, www.svgrepo.com, Generator: SVG Repo Mixer Tools -->

<svg
   width="60"
   height="80"
   viewBox="-21.5 0 60 80"
   version="1.1"
   id="svg1"
   sodipodi:docname="ipad_1.svg"
   inkscape:version="1.4 (e7c3feb1, 2024-10-09)"
   xmlns:inkscape="http://www.inkscape.org/namespaces/inkscape"
   xmlns:sodipodi="http://sodipodi.sourceforge.net/DTD/sodipodi-0.dtd"
   xmlns="http://www.w3.org/2000/svg"
   xmlns:svg="http://www.w3.org/2000/svg"
   xmlns:rdf="http://www.w3.org/1999/02/22-rdf-syntax-ns#"
   xmlns:cc="http://creativecommons.org/ns#"
   xmlns:dc="http://purl.org/dc/elements/1.1/">
  <sodipodi:namedview
     id="namedview1"
     pagecolor="#ffffff"
     bordercolor="#000000"
     borderopacity="0.25"
     inkscape:showpageshadow="2"
     inkscape:pageopacity="0.0"
     inkscape:pagecheckerboard="0"
     inkscape:deskcolor="#d1d1d1"
     inkscape:current-layer="svg1" />
  <title
     id="title1">iPad</title>
  <desc
     id="desc1">Created with Sketch.</desc>
  <defs
     id="defs1" />
  <g
     id="Page-1"
     stroke="none"
     stroke-width="1"
     fill="none"
     fill-rule="evenodd"
     transform="matrix(0.58823529,0,0,0.58823529,-16.5,2.3529414)">
    <g
       id="Apple-Icons"
       transform="translate(-766,-224)"
       fill="#000000">
      <g
         id="128px"
         transform="translate(120,224)">
        <path
           d="m 728,120 c 0,3.308 -2.692,6 -6,6 h -68 c -3.308,0 -6,-2.692 -6,-6 V 8 c 0,-3.308 2.692,-6 6,-6 h 68 c 3.308,0 6,2.692 6,6 z m 3,-101 v -2 c 0,-0.55 -0.45,-1 -1,-1 V 8 c 0,-4.4 -3.6,-8 -8,-8 h -68 c -4.4,0 -8,3.6 -8,8 v 112 c 0,4.4 3.6,8 8,8 h 68 c 4.4,0 8,-3.6 8,-8 V 36 c 0.55,0 1,-0.45 1,-1 V 25 c 0,-0.55 -0.45,-1 -1,-1 v -4 c 0.55,0 1,-0.45 1,-1 z M 688,8 c 0.552,0 1,-0.448 1,-1 0,-0.552 -0.448,-1 -1,-1 -0.552,0 -1,0.448 -1,1 0,0.552 0.448,1 1,1 z m 0,115 c -1.654,0 -3,-1.346 -3,-3 0,-1.654 1.346,-3 3,-3 1.654,0 3,1.346 3,3 0,1.654 -1.346,3 -3,3 z m 0,-7 c -2.209,0 -4,1.791 -4,4 0,2.209 1.791,4 4,4 2.209,0 4,-1.791 4,-4 0,-2.209 -1.791,-4 -4,-4 z m 37,-6 c 0,1.654 -1.346,3 -3,3 h -68 c -1.654,0 -3,-1.346 -3,-3 V 16 c 0,-1.654 1.346,-3 3,-3 h 68 c 1.654,0 3,1.346 3,3 z m -3,-98 h -68 c -2.209,0 -4,1.791 -4,4 v 94 c 0,2.209 1.791,4 4,4 h 68 c 2.209,0 4,-1.791 4,-4 V 16 c 0,-2.209 -1.791,-4 -4,-4 z"
           id="iPad" />
      </g>
    </g>
  </g>
  <metadata
     id="metadata1">
    <rdf:RDF>
      <cc:Work
         rdf:about="">
        <dc:title>iPad</dc:title>
      </cc:Work>
    </rdf:RDF>
  </metadata>
</svg>
