<?xml version="1.0" encoding="UTF-8" standalone="no"?>
<!-- Uploaded to: SVG Repo, www.svgrepo.com, Generator: SVG Repo Mixer Tools -->

<svg
   fill="#000000"
   width="30"
   height="40"
   viewBox="0 0 30 40"
   version="1.1"
   id="svg1"
   sodipodi:docname="lamp_1.svg"
   inkscape:version="1.3.2 (091e20e, 2023-11-25)"
   xmlns:inkscape="http://www.inkscape.org/namespaces/inkscape"
   xmlns:sodipodi="http://sodipodi.sourceforge.net/DTD/sodipodi-0.dtd"
   xmlns="http://www.w3.org/2000/svg"
   xmlns:svg="http://www.w3.org/2000/svg">
  <defs
     id="defs1" />
  <sodipodi:namedview
     id="namedview1"
     pagecolor="#ffffff"
     bordercolor="#000000"
     borderopacity="0.25"
     inkscape:showpageshadow="2"
     inkscape:pageopacity="0.0"
     inkscape:pagecheckerboard="0"
     inkscape:deskcolor="#d1d1d1"
     inkscape:current-layer="svg1" />
  <path
     d="M 4.132133,2 4.049593,2.6908971 1.597826,23.130435 h 11.836957 c 0,0.559443 0.299592,1.076087 0.782608,1.35428 v 1.204483 c -0.483016,0.28125 -0.782608,0.794837 -0.782608,1.35428 0,0.559443 0.299592,1.076087 0.782608,1.354281 v 5.689198 H 9.521739 c -1.721128,0 -3.130435,1.409306 -3.130435,3.130435 V 38 h 17.217392 v -0.782608 c 0,-1.721129 -1.409307,-3.130435 -3.130435,-3.130435 h -4.695652 v -5.689198 c 0.483016,-0.28125 0.782609,-0.794838 0.782609,-1.354281 0,-0.559443 -0.299593,-1.076086 -0.782609,-1.35428 v -1.204483 c 0.483016,-0.28125 0.782609,-0.794837 0.782609,-1.35428 H 28.402174 L 25.867867,2 Z M 5.520041,3.5652174 H 24.479959 L 26.641304,21.565217 H 15.122283 c -0.04586,-0.0061 -0.08865,-0.01223 -0.134512,-0.01223 -0.03668,0.0031 -0.07643,0.0061 -0.113111,0.01223 H 3.3586955 Z M 9.521739,35.652174 h 5.346807 c 0.0856,0.01528 0.171196,0.01528 0.253737,0 h 5.355978 c 0.565556,0 0.969089,0.342391 1.244226,0.782609 H 8.277514 C 8.55265,35.994565 8.956182,35.652174 9.521739,35.652174 Z"
     id="path1"
     style="stroke-width:0.782609"
     inkscape:label="lamp" />
</svg>
