<svg xmlns="http://www.w3.org/2000/svg" width="100" height="60"><path d="M654.26 530.797V147.345c0-26.626-22.054-48.322-49.122-48.322H103.213c-27.068 0-49.123 21.696-49.123 48.322v383.452h-92.565v30.242c0 26.627 22.055 48.322 49.123 48.322h686.888c27.068 0 49.123-21.695 49.123-48.322v-30.242ZM77.483 147.345c0-13.97 11.529-25.311 25.731-25.311h501.925c14.202 0 25.73 11.34 25.73 25.311v383.452h-21.72V164.438c0-12.491-10.36-22.681-23.058-22.681H122.26c-12.698 0-23.057 10.19-23.057 22.681v366.195H77.482ZM255.26 553.807h194.654v3.616c0 4.602-3.843 8.383-8.521 8.383H263.782c-4.678 0-8.521-3.78-8.521-8.383zm342.358-23.01H110.732V164.438c0-6.245 5.18-11.176 11.362-11.176h463.829c6.35 0 11.362 5.095 11.362 11.176v366.359zm125.815 30.078c0 13.97-11.529 25.311-25.73 25.311H10.813c-14.202 0-25.73-11.34-25.73-25.311v-7.232h258.648v3.616c0 11.012 9.023 19.888 20.217 19.888H441.56c11.195 0 20.217-8.876 20.217-19.888v-3.616h261.656z" class="st0" style="fill:#232020;stroke-width:1.65719" transform="translate(13.92 -6.09)scale(.1019)"/></svg>