<?xml version="1.0" encoding="UTF-8" standalone="no"?>
<!-- Uploaded to: SVG Repo, www.svgrepo.com, Generator: SVG Repo Mixer Tools -->

<svg
   fill="#000000"
   width="100"
   height="100"
   viewBox="0 0 100 100"
   version="1.1"
   id="svg1"
   sodipodi:docname="light_moving_head_2.svg"
   inkscape:version="1.3.2 (091e20e, 2023-11-25)"
   xmlns:inkscape="http://www.inkscape.org/namespaces/inkscape"
   xmlns:sodipodi="http://sodipodi.sourceforge.net/DTD/sodipodi-0.dtd"
   xmlns="http://www.w3.org/2000/svg"
   xmlns:svg="http://www.w3.org/2000/svg">
  <defs
     id="defs1" />
  <sodipodi:namedview
     id="namedview1"
     pagecolor="#ffffff"
     bordercolor="#000000"
     borderopacity="0.25"
     inkscape:showpageshadow="2"
     inkscape:pageopacity="0.0"
     inkscape:pagecheckerboard="0"
     inkscape:deskcolor="#d1d1d1"
     inkscape:current-layer="svg1" />
  <path
     d="m 50,5.000001 c -11.937839,0 -21.521739,8.804348 -21.521739,19.565217 0,14.872623 4.325748,22.90506 4.524457,23.294836 0,0.198711 0.183423,0.168144 0.183423,0.366848 0.198711,0.389777 6.442766,7.642663 16.813859,7.642663 10.371093,0 16.61515,-7.443953 16.813858,-7.642663 0,0 0.183424,-0.168143 0.183424,-0.366848 0.19871,-0.389776 4.524457,-8.422213 4.524457,-23.294836 C 71.521739,13.804349 61.93784,5.000001 50,5.000001 Z m 0,3.9130434 c 9.782608,0 17.608695,7.0465356 17.608695,15.6521736 0,8.605639 -7.826087,15.652173 -17.608695,15.652173 -9.782609,0 -17.608696,-7.046534 -17.608696,-15.652173 C 32.391304,15.95958 40.217391,8.9130444 50,8.9130444 Z m 0,11.3722826 c -5.273437,0 -9.782609,3.920685 -9.782609,8.987771 0,5.067086 4.509172,8.987772 9.782609,8.987772 5.273438,0 9.782608,-3.920686 9.782608,-8.987772 0,-5.067086 -4.50917,-8.987771 -9.782608,-8.987771 z m 0,3.913043 c 3.370414,0 5.869565,2.361582 5.869565,5.074728 0,2.713146 -2.499151,5.074728 -5.869565,5.074728 -3.370414,0 -5.869565,-2.361582 -5.869565,-5.074728 0,-2.713146 2.499151,-5.074728 5.869565,-5.074728 z m -37.173912,6.236413 c -1.176969,0 -1.956522,0.779553 -1.956522,1.956522 v 35.21739 c 0,0.779553 0.565558,1.566746 1.345109,1.956522 l 25.434782,7.826087 h 7.275815 c -1.421535,1.238112 -2.384511,2.934782 -2.629076,4.891304 L 20.46875,85.217391 c -0.97826,0.19871 -1.773097,0.97826 -1.773097,1.956521 v 5.869565 c 0,1.176971 0.779552,1.956522 1.956521,1.956522 h 58.695651 c 1.176971,0 1.941238,-0.779551 2.139946,-1.956522 v -5.869565 c 0,-0.978261 -0.794837,-1.757811 -1.773098,-1.956521 L 57.703804,82.282608 c -0.244565,-1.956522 -1.20754,-3.653192 -2.629076,-4.891304 h 7.275815 l 25.434782,-7.826087 c 0.779553,-0.198708 1.345109,-0.978261 1.345109,-1.956522 v -35.21739 c 0,-1.176969 -0.779551,-1.956522 -1.956522,-1.956522 H 74.456521 c 0,1.368037 -0.366848,3.913043 -0.366848,3.913043 h 5.258152 V 58.4375 L 59.41576,65.652174 H 40.584239 L 20.652174,58.4375 V 34.347826 h 5.258152 c 0,0 -0.366847,-2.545006 -0.366847,-3.913043 z"
     id="path1"
     style="stroke-width:1" />
</svg>
