<?xml version="1.0" encoding="UTF-8" standalone="no"?>
<svg
   xml:space="preserve"
   width="42.437004"
   height="87.660004"
   version="1.1"
   id="svg2"
   sodipodi:docname="lights_1.svg"
   inkscape:version="1.4 (e7c3feb1, 2024-10-09)"
   xmlns:inkscape="http://www.inkscape.org/namespaces/inkscape"
   xmlns:sodipodi="http://sodipodi.sourceforge.net/DTD/sodipodi-0.dtd"
   xmlns="http://www.w3.org/2000/svg"
   xmlns:svg="http://www.w3.org/2000/svg"><defs
   id="defs2" /><sodipodi:namedview
   id="namedview2"
   pagecolor="#ffffff"
   bordercolor="#000000"
   borderopacity="0.25"
   inkscape:showpageshadow="2"
   inkscape:pageopacity="0.0"
   inkscape:pagecheckerboard="0"
   inkscape:deskcolor="#d1d1d1"
   inkscape:current-layer="svg2" />
    <path
   d="m 17.780001,24.975 c -2.125,-1.104 -3.865,-3.384 -4.23,-5.54 -1.217,-7.203 7.518,-12.119 12.905,-7.262 1.807,1.63 2.65,3.5 2.65,5.884 0,5.976 -6.039,9.664 -11.325,6.918 z"
   style="fill:#ffcc00;stroke:#060606;stroke-width:0.0684421;stroke-linecap:square;stroke-linejoin:round;stroke-miterlimit:4.7"
   id="path1" />
    <path
   d="M 1.2120006,87.66 A 1.212,1.212 0 0 1 0.49400059,85.472 L 20.182001,71.012 V 35.865 h -3.51 c -0.564,0 -1.053,-0.39 -1.18,-0.94 l -1.051,-4.576 h -0.742 A 4.89,4.89 0 0 1 8.8130006,25.463 v -0.336 l -7.33,1.685 A 1.21,1.21 0 0 1 5.9452191e-7,25.632 V 10.603 A 1.21,1.21 0 0 1 1.4830006,9.423 l 11.4540004,2.633 2.555,-11.116 c 0.127,-0.55 0.617,-0.94 1.18,-0.94 h 9.443 c 0.565,0 1.054,0.39 1.18,0.94 l 2.538,11.04 11.12,-2.556 a 1.21,1.21 0 0 1 1.482,1.18 v 15.028 a 1.21,1.21 0 0 1 -1.483,1.18 l -6.714,-1.542 v 0.195 a 4.89,4.89 0 0 1 -4.886,4.886 h -1.004 l -1.051,4.575 c -0.127,0.55 -0.617,0.94 -1.18,0.94 h -3.51 v 35.152 l 19.344,14.46 a 1.2110017,1.2110017 0 1 1 -1.45,1.94 l -17.897,-13.375 v 12.406 a 1.212,1.212 0 0 1 -2.423,0 V 74.016 L 1.9280006,87.425 a 1.2,1.2 0 0 1 -0.716,0.235 M 21.393001,33.443 h 3.757 l 1.69,-7.352 a 9.6,9.6 0 0 1 -5.447,1.686 9.6,9.6 0 0 1 -5.446,-1.686 l 1.69,7.352 z m 7.512,-5.516 h 0.446 a 2.466,2.466 0 0 0 2.463,-2.463 v -0.751 l -2.062,-0.475 z m -17.67,-3.356 v 0.893 a 2.466,2.466 0 0 0 2.463,2.463 h 0.185 l -0.866,-3.766 z m 10.158,-13.688 c -3.99,0 -7.235,3.245 -7.235,7.235 0,3.99 3.245,7.236 7.235,7.236 3.99,0 7.236,-3.246 7.236,-7.236 0,-3.99 -3.246,-7.235 -7.236,-7.235 m 8.899,10.993 9.721,2.235 V 12.126 l -9.721,2.234 c 0.49,1.156 0.76,2.426 0.76,3.758 a 9.6,9.6 0 0 1 -0.76,3.758 M 2.4220006,12.126 V 24.11 L 12.465001,21.8 a 9.6,9.6 0 0 1 -0.73,-3.683 c 0,-1.304 0.26,-2.548 0.73,-3.684 z M 21.393001,8.46 a 9.6,9.6 0 0 1 5.548,1.757 l -1.791,-7.794 h -7.513 l -1.792,7.793 a 9.6,9.6 0 0 1 5.548,-1.756"
   style="stroke-width:0.605724"
   id="path2" />
</svg>
