<?xml version="1.0" encoding="UTF-8" standalone="no"?>
<svg
   xml:space="preserve"
   width="67.029541"
   height="95.00042"
   version="1.1"
   id="svg2"
   sodipodi:docname="lights_2.svg"
   inkscape:version="1.4 (e7c3feb1, 2024-10-09)"
   xmlns:inkscape="http://www.inkscape.org/namespaces/inkscape"
   xmlns:sodipodi="http://sodipodi.sourceforge.net/DTD/sodipodi-0.dtd"
   xmlns="http://www.w3.org/2000/svg"
   xmlns:svg="http://www.w3.org/2000/svg"><defs
   id="defs2" /><sodipodi:namedview
   id="namedview2"
   pagecolor="#ffffff"
   bordercolor="#000000"
   borderopacity="0.25"
   inkscape:showpageshadow="2"
   inkscape:pageopacity="0.0"
   inkscape:pagecheckerboard="0"
   inkscape:deskcolor="#d1d1d1"
   inkscape:current-layer="svg2" />
    <path
   d="m 63.042543,0.88337914 a 0.9,0.9 0 0 0 -0.363,0.097 l -10.124,5.06299996 a 0.95077613,0.95077613 0 1 0 0.85,1.701 l 10.125,-5.062 a 0.95,0.95 0 0 0 -0.487,-1.79999996 m -10.065,17.02599986 a 0.95,0.95 0 0 0 0,1.9 h 13.101 a 0.95,0.95 0 1 0 0,-1.9 z m 0.06,11.967 a 1,1 0 0 1 0.366,0.098 l 10.125,5.062 a 0.95122355,0.95122355 0 0 1 -0.852,1.701 l -10.122,-5.062 a 0.95,0.95 0 0 1 0.484,-1.799"
   style="fill:#ffcc00;stroke-width:0.475197"
   id="path1" />
    <path
   d="m 44.507543,0.00837914 a 0.95,0.95 0 0 0 -0.703,0.187 l -12.697,9.72299996 h -20.055 A 4.696,4.696 0 0 0 6.3615426,14.609379 v 8.496 a 4.7,4.7 0 0 0 4.6910004,4.694 h 2.951 v 3.025 c 0,0.525 0.425,0.95 0.95,0.95 h 3.09 v 41.113 h -1.348 a 0.95,0.95 0 0 0 -0.95,0.95 v 9.493 c 0,0.258 0.103,0.493 0.27,0.664 l -15.55000039,9.238 a 0.95054261,0.95054261 0 0 0 0.96999999,1.635 l 16.2250004,-9.64 -1.66,8.642 a 0.95069567,0.95069567 0 0 0 1.867,0.36 l 1.804,-9.391 16.88,10.03 a 0.951,0.951 0 0 0 0.97,-1.636 l -15.55,-9.238 a 0.95,0.95 0 0 0 0.269,-0.664 v -9.492 a 0.95,0.95 0 0 0 -0.952,-0.951 h -1.345 v -41.114 h 4.593 a 0.95,0.95 0 0 0 0.952,-0.949 v -3.024 h 5.627 l 12.7,9.44 a 0.95120608,0.95120608 0 1 0 1.136,-1.526 l -9.848,-7.318 11.215,1.78 a 0.95,0.95 0 0 0 1.1,-0.937 V 8.4793791 a 0.953,0.953 0 0 0 -1.1,-0.939 l -11.33,1.8 9.972,-7.634 a 0.95,0.95 0 0 0 -0.453,-1.69699996 m 1.01,9.58399996 V 28.126379 l -13.137,-2.088 v -14.358 z m -34.465,2.2259999 h 19.428 v 14.08 h -19.428 a 2.796,2.796 0 0 1 -2.7900004,-2.793 v -8.496 a 2.794,2.794 0 0 1 2.7900004,-2.79 m 4.852,15.98 h 7.681 v 2.075 h -7.68 z m 1.741,46.99 h 2.693 v 7.59 h -2.693 z"
   style="stroke-width:0.475197"
   id="path2" />
</svg>
