<svg xmlns="http://www.w3.org/2000/svg" xml:space="preserve" width="27" height="90">
    <path d="M264.533 412.245v-19.712H307.2a8.536 8.536 0 0 0 8.533-8.533V8.533A8.536 8.536 0 0 0 307.2 0H204.8a8.536 8.536 0 0 0-8.533 8.533V384a8.536 8.536 0 0 0 8.533 8.533h42.667v19.712c-32.777 1.399-65.417 12.442-68.267 31.488v38.4C179.2 505.711 227.473 512 256 512s76.8-6.289 76.8-29.867v-38.4c-2.85-19.046-35.49-30.088-68.267-31.488m-51.2-36.778v-358.4h85.333v358.4zm34.134 53.956v5.777a8.536 8.536 0 0 0 8.533 8.533 8.536 8.536 0 0 0 8.533-8.533v-5.777c33.502 1.57 51.2 11.776 51.2 15.531 0 4.07-20.54 15.846-59.733 15.846s-59.733-11.776-59.733-15.846c0-3.764 17.698-13.961 51.2-15.531m8.533 65.51c-37.82 0-58.112-9.515-59.733-12.8v-15.539c15.027 7.629 37.845 11.273 59.733 11.273 21.914 0 44.757-3.652 59.785-11.298l.034 15.061c-1.707 3.789-21.999 13.303-59.819 13.303" style="stroke-width:5.68889" transform="translate(-31.5)scale(.17578)"/>
</svg>
