<svg xmlns="http://www.w3.org/2000/svg" width="100" height="100">
    <path d="M50 5c-11.556 0-21.132 8.376-21.46 19.015 0 .046-.062.076-.062.122a2 2 0 0 0 0 .428c0 14.919 4.403 23.295 4.403 23.295.068.107.152.214.244.306 0 0 6.221 7.704 16.875 7.704s16.875-7.704 16.875-7.704a2 2 0 0 0 .245-.306s4.402-8.376 4.402-23.295v-.244c0-.107-.061-.2-.061-.306C71.132 13.376 61.556 5 50 5m0 3.913c9.737 0 17.425 6.932 17.609 15.347a2 2 0 0 0 0 .305c0 .535 0 1.07-.061 1.59C66.66 33.98 59.24 40.217 50 40.217s-16.66-6.236-17.547-14.062c-.062-.52-.062-1.055-.062-1.59a1.5 1.5 0 0 0 0-.367c.222-8.384 7.895-15.285 17.61-15.285m0 11.372c-5.273 0-9.783 3.921-9.783 8.988s4.51 8.988 9.783 8.988c5.274 0 9.783-3.92 9.783-8.988s-4.51-8.988-9.783-8.988m0 3.913c3.37 0 5.87 2.362 5.87 5.075s-2.5 5.075-5.87 5.075-5.87-2.362-5.87-5.075 2.5-5.075 5.87-5.075m-37.54 6.237a1.956 1.956 0 0 0-1.59 1.956V67.61a1.95 1.95 0 0 0 1.406 1.895L37.71 77.33c.175.046.367.069.55.061h5.014a7.7 7.7 0 0 0-.979 2.935l-21.888 2.935a1.953 1.953 0 0 0-1.712 1.956v7.826A1.96 1.96 0 0 0 20.652 95h58.696a1.96 1.96 0 0 0 1.956-1.957v-7.826a1.953 1.953 0 0 0-1.712-1.956l-21.888-2.935a7.7 7.7 0 0 0-.978-2.935h5.013c.184.008.375-.015.55-.06l25.435-7.827a1.95 1.95 0 0 0 1.407-1.895V32.39a1.96 1.96 0 0 0-1.957-1.956H74.457c0 1.299-.49 3.913-.49 3.913h3.424V56.48l-18.036 7.215h-18.71L22.61 56.48V34.348h3.424s-.49-2.614-.49-3.913zm2.323 3.913h3.913v23.478a1.95 1.95 0 0 0 1.223 1.834l19.565 7.826c.237.084.481.13.733.123h19.566c.252.007.496-.039.733-.123l19.566-7.826a1.95 1.95 0 0 0 1.222-1.834V34.348h3.913V66.14l-23.845 7.337H38.628L14.783 66.14Zm18.77 2.812C37.52 41.425 43.45 44.13 50 44.13s12.48-2.705 16.447-6.97c-1.131 5.686-2.69 8.637-2.751 8.744-.268.32-5.16 6.053-13.696 6.053-8.537 0-13.428-5.732-13.696-6.053-.06-.107-1.62-3.058-2.75-8.744M50 83.322l27.391 3.607v4.158H22.61v-4.158z" style="stroke-width:1"/>
</svg>
