<svg xmlns="http://www.w3.org/2000/svg" width="100" height="100">
    <path d="M50 5c-11.938 0-21.522 8.804-21.522 19.565 0 14.873 4.326 22.905 4.525 23.295 0 .199.183.168.183.367.199.39 6.443 7.643 16.814 7.643s16.615-7.444 16.814-7.643c0 0 .183-.168.183-.367.199-.39 4.525-8.422 4.525-23.295C71.522 13.805 61.938 5 50 5m0 3.913c9.783 0 17.609 7.047 17.609 15.652S59.783 40.217 50 40.217s-17.609-7.046-17.609-15.652S40.217 8.913 50 8.913m0 11.372c-5.273 0-9.783 3.921-9.783 8.988s4.51 8.988 9.783 8.988 9.783-3.92 9.783-8.988-4.51-8.988-9.783-8.988m0 3.913c3.37 0 5.87 2.362 5.87 5.075s-2.5 5.075-5.87 5.075-5.87-2.362-5.87-5.075 2.5-5.075 5.87-5.075m-37.174 6.237c-1.177 0-1.956.78-1.956 1.956V67.61c0 .78.565 1.566 1.345 1.956l25.434 7.826h7.276c-1.421 1.238-2.384 2.935-2.629 4.892L20.47 85.217c-.979.2-1.773.979-1.773 1.957v5.87c0 1.176.78 1.956 1.956 1.956h58.696c1.177 0 1.941-.78 2.14-1.957v-5.87c0-.977-.795-1.757-1.773-1.956l-22.011-2.934c-.245-1.957-1.208-3.654-2.63-4.892h7.277l25.434-7.826c.78-.198 1.345-.978 1.345-1.956V32.39c0-1.177-.78-1.956-1.956-1.956H74.457c0 1.368-.367 3.913-.367 3.913h5.258v24.09l-19.932 7.214H40.584l-19.932-7.215v-24.09h5.258s-.367-2.544-.367-3.912z" style="stroke-width:1"/>
</svg>
