<?xml version="1.0" encoding="UTF-8" standalone="no"?>
<!-- Uploaded to: SVG Repo, www.svgrepo.com, Generator: SVG Repo Mixer Tools -->

<svg
   fill="#000000"
   height="100"
   width="100"
   version="1.1"
   id="Capa_1"
   viewBox="0 0 100 100"
   xml:space="preserve"
   sodipodi:docname="lights_1.svg"
   inkscape:version="1.3.2 (091e20e, 2023-11-25)"
   xmlns:inkscape="http://www.inkscape.org/namespaces/inkscape"
   xmlns:sodipodi="http://sodipodi.sourceforge.net/DTD/sodipodi-0.dtd"
   xmlns="http://www.w3.org/2000/svg"
   xmlns:svg="http://www.w3.org/2000/svg"><defs
   id="defs1" /><sodipodi:namedview
   id="namedview1"
   pagecolor="#ffffff"
   bordercolor="#000000"
   borderopacity="0.25"
   inkscape:showpageshadow="2"
   inkscape:pageopacity="0.0"
   inkscape:pagecheckerboard="0"
   inkscape:deskcolor="#d1d1d1"
   inkscape:zoom="1.5788277"
   inkscape:cx="-42.43655"
   inkscape:cy="65.554969"
   inkscape:window-width="1592"
   inkscape:window-height="924"
   inkscape:window-x="0"
   inkscape:window-y="25"
   inkscape:window-maximized="0"
   inkscape:current-layer="Capa_1" />
<path
   style="fill:#ffcc00;stroke:#060606;stroke-width:0.0684421;stroke-linecap:square;stroke-linejoin:round;stroke-miterlimit:4.7"
   d="m 46.561987,31.144684 c -2.125009,-1.103959 -3.865396,-3.383416 -4.229722,-5.539839 -1.216978,-7.203233 7.517612,-12.11873 12.904351,-7.262082 1.807207,1.629365 2.649774,3.500573 2.649774,5.884726 0,5.975128 -6.038225,9.663408 -11.324403,6.917195 z"
   id="path2" /><path
   d="m 29.994133,93.830186 c -0.37252,0 -0.740195,-0.170814 -0.977639,-0.49427 -0.395537,-0.539095 -0.279844,-1.297461 0.259856,-1.693604 L 48.964196,77.181258 V 42.035942 h -3.509565 c -0.564534,0 -1.053959,-0.390086 -1.180556,-0.940084 L 43.222539,36.52022 h -0.742012 c -2.69426,0 -4.88577,-2.19151 -4.88577,-4.88577 v -0.336782 l -7.329865,1.685124 c -0.3598,0.08359 -0.737772,-0.0024 -1.026097,-0.233204 -0.28893,-0.229569 -0.456716,-0.578466 -0.456716,-0.947352 V 16.774224 c 0,-0.368886 0.167786,-0.718388 0.456716,-0.947352 0.288931,-0.230175 0.666902,-0.315582 1.026097,-0.233204 L 41.718526,18.22675 44.274075,7.109898 c 0.126597,-0.5499974 0.616627,-0.9400836 1.180556,-0.9400836 h 9.442631 c 0.564535,0 1.05396,0.3900862 1.180556,0.9400836 l 2.537378,11.039925 11.119275,-2.556155 c 0.3598,-0.08298 0.737771,0.003 1.026096,0.233204 0.28893,0.229569 0.456716,0.578466 0.456716,0.947352 v 15.028012 c 0,0.368886 -0.167786,0.718388 -0.456716,0.947352 -0.28893,0.230781 -0.666902,0.316188 -1.026096,0.233204 l -6.715662,-1.543991 v 0.195043 c 0,2.694261 -2.191509,4.88577 -4.885769,4.88577 h -1.003685 l -1.051537,4.575639 c -0.126596,0.549997 -0.616627,0.940083 -1.180556,0.940083 h -3.51017 v 35.151373 l 19.345006,14.461054 c 0.536066,0.400384 0.645702,1.159356 0.244712,1.695421 -0.400383,0.53546 -1.15875,0.645702 -1.695421,0.244713 L 51.387092,80.211695 v 12.405832 c 0,0.668719 -0.542729,1.211448 -1.211448,1.211448 -0.668719,0 -1.211448,-0.542729 -1.211448,-1.211448 V 80.186254 L 30.710099,93.59456 c -0.216244,0.159305 -0.467619,0.235626 -0.715966,0.235626 z m 20.180905,-54.21714 h 3.7567 l 1.690576,-7.352277 c -1.552471,1.063651 -3.428398,1.686335 -5.447276,1.686335 -2.018878,0 -3.894805,-0.622078 -5.446064,-1.685729 l 1.68997,7.351671 z m 7.511583,-5.515722 h 0.446419 c 1.358033,0 2.462873,-1.104841 2.462873,-2.462874 V 30.882747 L 58.534029,30.408465 Z M 40.017047,30.741007 v 0.893443 c 0,1.358033 1.104841,2.462874 2.462874,2.462874 h 0.184746 l -0.86558,-3.766392 z m 10.157991,-13.68815 c -3.989904,0 -7.235373,3.245469 -7.235373,7.235373 0,3.989904 3.245469,7.235978 7.235373,7.235978 3.989904,0 7.235979,-3.246074 7.235979,-7.235978 0,-3.989904 -3.246075,-7.235373 -7.235979,-7.235373 z m 8.898691,10.993284 9.721264,2.234516 V 18.295803 l -9.721264,2.234516 c 0.490031,1.155721 0.760789,2.425318 0.760789,3.757305 0,1.331987 -0.271364,2.602796 -0.760789,3.758517 z m -27.86936,-9.750338 v 11.984854 l 10.042298,-2.30902 c -0.470042,-1.135732 -0.729897,-2.380495 -0.729897,-3.684013 0,-1.303518 0.259855,-2.547675 0.729897,-3.683407 z m 18.970669,-3.665842 c 2.063096,0 3.977184,0.649942 5.548432,1.7566 L 53.931738,8.5933161 h -7.512794 l -1.791732,7.7926389 c 1.571248,-1.106052 3.48473,-1.755994 5.547826,-1.755994 z"
   id="path1"
   sodipodi:nodetypes="sccccsccsscccssccccssccccsscccssccsccccccsssccscccsccccssccccsscccsssssccccsccccsccsccccs"
   style="stroke-width:0.605724" />
</svg>
