<svg xmlns="http://www.w3.org/2000/svg" xml:space="preserve" width="100" height="100">
    <path d="M79.527 3.383a.9.9 0 0 0-.363.097L69.04 8.543a.95.95 0 1 0 .85 1.701l10.125-5.062a.95.95 0 0 0-.487-1.8M69.463 20.408a.95.95 0 0 0 0 1.9h13.101a.95.95 0 1 0 0-1.9zm.06 11.967a1 1 0 0 1 .366.098l10.125 5.062a.95.95 0 0 1-.852 1.701L69.04 34.174a.95.95 0 0 1 .484-1.799" style="stroke-width:.475197;fill:#fc0"/>
    <path d="M60.992 2.508a.95.95 0 0 0-.703.187l-12.697 9.723H27.537a4.696 4.696 0 0 0-4.691 4.691v8.496a4.7 4.7 0 0 0 4.691 4.694h2.951v3.025c0 .525.425.95.95.95h3.09v41.113H33.18a.95.95 0 0 0-.95.95v9.493c0 .258.103.493.27.664l-15.55 9.238a.95.95 0 0 0 .97 1.635l16.225-9.64-1.66 8.642a.95.95 0 0 0 1.867.36l1.804-9.391 16.88 10.03a.951.951 0 0 0 .97-1.636l-15.55-9.238a.95.95 0 0 0 .269-.664v-9.492a.95.95 0 0 0-.952-.951h-1.345V34.273h4.593a.95.95 0 0 0 .952-.949V30.3H47.6l12.7 9.44a.95.95 0 1 0 1.136-1.526l-9.848-7.318 11.215 1.78a.95.95 0 0 0 1.1-.937v-20.76a.953.953 0 0 0-1.1-.939l-11.33 1.8 9.972-7.634a.95.95 0 0 0-.453-1.697m1.01 9.584v18.533l-13.137-2.088V14.18Zm-34.465 2.226h19.428v14.08H27.537a2.796 2.796 0 0 1-2.79-2.793V17.11a2.794 2.794 0 0 1 2.79-2.79m4.852 15.98h7.681v2.075h-7.68zm1.741 46.99h2.693v7.59H34.13z" style="stroke-width:.475197"/>
</svg>
