<svg xmlns="http://www.w3.org/2000/svg" xml:space="preserve" width="42.437" height="87.66">
    <path d="M17.78 24.975c-2.125-1.104-3.865-3.384-4.23-5.54-1.217-7.203 7.518-12.119 12.905-7.262 1.807 1.63 2.65 3.5 2.65 5.884 0 5.976-6.039 9.664-11.325 6.918z" style="fill:#fc0;stroke:#060606;stroke-width:.0684421;stroke-linecap:square;stroke-linejoin:round;stroke-miterlimit:4.7"/>
    <path d="M1.212 87.66a1.212 1.212 0 0 1-.718-2.188l19.688-14.46V35.865h-3.51c-.564 0-1.053-.39-1.18-.94l-1.051-4.576h-.742a4.89 4.89 0 0 1-4.886-4.886v-.336l-7.33 1.685A1.21 1.21 0 0 1 0 25.632V10.603a1.21 1.21 0 0 1 1.483-1.18l11.454 2.633L15.492.94c.127-.55.617-.94 1.18-.94h9.443c.565 0 1.054.39 1.18.94l2.538 11.04 11.12-2.556a1.21 1.21 0 0 1 1.482 1.18v15.028a1.21 1.21 0 0 1-1.483 1.18l-6.714-1.542v.195a4.89 4.89 0 0 1-4.886 4.886h-1.004l-1.051 4.575c-.127.55-.617.94-1.18.94h-3.51v35.152l19.344 14.46a1.211 1.211 0 1 1-1.45 1.94L22.604 74.043v12.406a1.212 1.212 0 0 1-2.423 0V74.016L1.928 87.425a1.2 1.2 0 0 1-.716.235m20.181-54.217h3.757l1.69-7.352a9.6 9.6 0 0 1-5.447 1.686 9.6 9.6 0 0 1-5.446-1.686l1.69 7.352zm7.512-5.516h.446a2.466 2.466 0 0 0 2.463-2.463v-.751l-2.062-.475zm-17.67-3.356v.893a2.466 2.466 0 0 0 2.463 2.463h.185l-.866-3.766zm10.158-13.688a7.24 7.24 0 0 0-7.235 7.235c0 3.99 3.245 7.236 7.235 7.236s7.236-3.246 7.236-7.236-3.246-7.235-7.236-7.235m8.899 10.993 9.721 2.235V12.126l-9.721 2.234c.49 1.156.76 2.426.76 3.758a9.6 9.6 0 0 1-.76 3.758m-27.87-9.75V24.11l10.043-2.31a9.6 9.6 0 0 1-.73-3.683c0-1.304.26-2.548.73-3.684zM21.393 8.46a9.6 9.6 0 0 1 5.548 1.757L25.15 2.423h-7.513l-1.792 7.793a9.6 9.6 0 0 1 5.548-1.756" style="stroke-width:.605724"/>
</svg>
