<?xml version="1.0" encoding="UTF-8" standalone="no"?>
<!-- Uploaded to: SVG Repo, www.svgrepo.com, Generator: SVG Repo Mixer Tools -->

<svg
   fill="#000000"
   width="100"
   height="100"
   viewBox="0 0 100 100"
   version="1.1"
   id="svg1"
   sodipodi:docname="light_moving_head_1.svg"
   inkscape:version="1.3.2 (091e20e, 2023-11-25)"
   xmlns:inkscape="http://www.inkscape.org/namespaces/inkscape"
   xmlns:sodipodi="http://sodipodi.sourceforge.net/DTD/sodipodi-0.dtd"
   xmlns="http://www.w3.org/2000/svg"
   xmlns:svg="http://www.w3.org/2000/svg">
  <defs
     id="defs1" />
  <sodipodi:namedview
     id="namedview1"
     pagecolor="#ffffff"
     bordercolor="#000000"
     borderopacity="0.25"
     inkscape:showpageshadow="2"
     inkscape:pageopacity="0.0"
     inkscape:pagecheckerboard="0"
     inkscape:deskcolor="#d1d1d1"
     inkscape:current-layer="svg1" />
  <path
     d="m 50.00009,5.0000019 c -11.555707,0 -21.131963,8.3763581 -21.460598,19.0149451 0,0.04586 -0.06114,0.07642 -0.06114,0.122283 -0.01526,0.145213 -0.01526,0.282778 0,0.427989 0,14.918478 4.402174,23.294836 4.402174,23.294836 0.06879,0.107003 0.152863,0.213995 0.244565,0.305707 0,0 6.221129,7.703804 16.875,7.703804 10.653873,0 16.874999,-7.703804 16.874999,-7.703804 0.0917,-0.0917 0.175774,-0.198708 0.244565,-0.305707 0,0 4.402174,-8.376358 4.402174,-23.294836 0,-0.06114 0,-0.122283 0,-0.183424 0,-0.02293 0,-0.03821 0,-0.06114 0,-0.107002 -0.06114,-0.198709 -0.06114,-0.305707 C 71.132052,13.37636 61.555796,5.0000019 50.00009,5.0000019 Z m 0,3.9130434 c 9.736753,0 17.425271,6.9318957 17.608695,15.3464667 -0.0076,0.09935 -0.0076,0.206353 0,0.305707 0,0.534987 0,1.069973 -0.06114,1.589674 -0.886549,7.826087 -8.307575,14.062499 -17.547554,14.062499 -9.239979,0 -16.661006,-6.236412 -17.547554,-14.062499 -0.06114,-0.519701 -0.06114,-1.054687 -0.06114,-1.589674 0.01526,-0.122283 0.01526,-0.244565 0,-0.366848 C 32.613031,15.81437 40.286265,8.9130453 50.00009,8.9130453 Z m 0,11.3722827 c -5.273437,0 -9.782609,3.920685 -9.782609,8.987771 0,5.067086 4.509172,8.987772 9.782609,8.987772 5.273438,0 9.782608,-3.920686 9.782608,-8.987772 0,-5.067086 -4.50917,-8.987771 -9.782608,-8.987771 z m 0,3.913043 c 3.370413,0 5.869565,2.361582 5.869565,5.074728 0,2.713146 -2.499152,5.074728 -5.869565,5.074728 -3.370414,0 -5.869566,-2.361582 -5.869566,-5.074728 0,-2.713146 2.499152,-5.074728 5.869566,-5.074728 z m -37.54076,6.236413 c -0.932404,0.175782 -1.604959,1.001189 -1.589674,1.956522 v 35.21739 c -0.0077,0.878907 0.565558,1.650815 1.40625,1.895381 l 25.434782,7.826086 c 0.175781,0.04586 0.366847,0.06878 0.550271,0.06114 h 5.013587 c -0.512059,0.886549 -0.848336,1.872452 -0.978261,2.934782 l -21.888586,2.934783 c -0.985903,0.122283 -1.719599,0.962976 -1.711957,1.956522 v 7.826086 c 0,1.077615 0.878907,1.956522 1.956522,1.956522 h 58.695651 c 1.077615,0 1.956522,-0.878907 1.956522,-1.956522 v -7.826084 c 0.0076,-0.993546 -0.726054,-1.834239 -1.711957,-1.956522 L 57.703894,80.326087 c -0.129933,-1.06233 -0.466202,-2.048233 -0.978261,-2.934782 h 5.013587 c 0.183424,0.0076 0.37449,-0.01526 0.550272,-0.06114 l 25.434782,-7.826086 c 0.840694,-0.244566 1.413892,-1.016474 1.40625,-1.895381 v -35.21739 c 0,-1.077615 -0.878907,-1.956522 -1.956522,-1.956522 H 74.456611 c 0,1.299254 -0.489131,3.913043 -0.489131,3.913043 h 3.423913 v 22.13315 L 59.354709,63.695653 H 40.64547 L 22.608786,56.480979 V 34.347827 h 3.423913 c 0,0 -0.489131,-2.613789 -0.489131,-3.913043 H 12.826177 c -0.06114,0 -0.122282,0 -0.183423,0 -0.06114,0 -0.122283,0 -0.183424,0 z m 2.323369,3.913043 h 3.913043 v 23.478261 c -0.0076,0.802479 0.473846,1.536175 1.222826,1.834239 l 19.565217,7.826087 c 0.236924,0.08407 0.481489,0.129924 0.733696,0.122282 h 19.565217 c 0.252207,0.0076 0.496773,-0.03821 0.733696,-0.122282 l 19.565217,-7.826087 c 0.748982,-0.298064 1.230468,-1.03176 1.222826,-1.834239 V 34.347827 H 85.21748 V 66.141305 L 61.372372,73.478261 H 38.627807 L 14.782699,66.141305 Z m 18.77038,2.8125 c 3.966543,4.264607 9.897249,6.970109 16.447011,6.970109 6.549761,0 12.480468,-2.705502 16.44701,-6.970109 -1.131114,5.686142 -2.690217,8.63621 -2.751359,8.743207 -0.267493,0.320993 -5.158797,6.052989 -13.695651,6.052989 -8.536854,0 -13.428159,-5.731996 -13.695652,-6.052989 -0.06114,-0.106997 -1.620245,-3.057065 -2.751359,-8.743207 z m 16.447011,46.161684 27.391303,3.607337 v 4.157609 H 22.608786 v -4.157609 z"
     id="path1"
     style="stroke-width:1" />
</svg>
