<?xml version="1.0" encoding="UTF-8" standalone="no"?>
<!-- Uploaded to: SVG Repo, www.svgrepo.com, Generator: SVG Repo Mixer Tools -->

<svg
   fill="#000000"
   height="100"
   width="100"
   version="1.1"
   viewBox="0 0 100 100"
   xml:space="preserve"
   sodipodi:docname="lights_2.svg"
   inkscape:version="1.3.2 (091e20e, 2023-11-25)"
   id="svg1"
   xmlns:inkscape="http://www.inkscape.org/namespaces/inkscape"
   xmlns:sodipodi="http://sodipodi.sourceforge.net/DTD/sodipodi-0.dtd"
   xmlns="http://www.w3.org/2000/svg"
   xmlns:svg="http://www.w3.org/2000/svg"><defs
     id="defs1" /><sodipodi:namedview
     inkscape:zoom="1.404123"
     inkscape:cx="-4.9853182"
     inkscape:cy="47.716617"
     inkscape:window-width="1536"
     inkscape:window-height="449"
     inkscape:window-x="0"
     inkscape:window-y="25"
     inkscape:window-maximized="0"
     inkscape:current-layer="g1"
     id="namedview1"
     pagecolor="#ffffff"
     bordercolor="#000000"
     borderopacity="0.25"
     inkscape:showpageshadow="2"
     inkscape:pageopacity="0.0"
     inkscape:pagecheckerboard="0"
     inkscape:deskcolor="#d1d1d1"
     showgrid="false" /><g
     id="g1"
     inkscape:label="par"><path
       id="path9"
       style="stroke-width:0.475197;fill:#ffcc00"
       d="m 79.527344,3.3828125 c -0.123247,0.0078 -0.24567,0.038851 -0.363282,0.097656 l -10.125,5.0625 c -0.469969,0.2352221 -0.660528,0.8058964 -0.425781,1.2753906 0.166794,0.3331129 0.502768,0.5253909 0.851563,0.5253909 0.142559,0 0.286972,-0.03166 0.423828,-0.09961 l 10.125,-5.0625007 C 80.483642,4.9464184 80.6742,4.3757441 80.439453,3.90625 80.263037,3.5544859 79.897084,3.359424 79.527344,3.3828125 Z M 69.462891,20.408203 c -0.524617,0 -0.949219,0.424602 -0.949219,0.949219 0,0.524617 0.424602,0.951172 0.949219,0.951172 h 13.101562 c 0.525093,0 0.951172,-0.426555 0.951172,-0.951172 0,-0.524617 -0.426554,-0.949219 -0.951172,-0.949219 z M 69.523437,32.375 c 0.123344,0.0078 0.247505,0.03885 0.365235,0.09766 l 10.125,5.0625 c 0.469493,0.234747 0.658575,0.805422 0.423828,1.275391 -0.166794,0.333113 -0.500815,0.52539 -0.849609,0.52539 -0.142559,0 -0.288925,-0.03165 -0.425782,-0.09961 l -10.123047,-5.0625 c -0.469494,-0.234747 -0.660529,-0.805422 -0.425781,-1.275391 0.175704,-0.351764 0.540127,-0.546825 0.910156,-0.523437 z"
       inkscape:label="lights" /><path
       d="m 60.992187,2.5078125 c -0.241281,-0.031838 -0.495464,0.028309 -0.703125,0.1875 L 47.591797,12.417969 H 27.537109 c -2.587444,0 -4.691406,2.103962 -4.691406,4.691406 v 8.496094 c 0,2.587445 2.103962,4.693359 4.691406,4.693359 h 2.951172 v 3.025391 c 0,0.524616 0.424603,0.949218 0.949219,0.949218 h 3.089844 v 41.113282 h -1.347657 c -0.524616,0 -0.949218,0.426554 -0.949218,0.951172 v 9.492187 c 0,0.258032 0.102262,0.492992 0.269531,0.664063 l -15.550781,9.238281 c -0.451437,0.268011 -0.600042,0.851298 -0.332032,1.302734 0.268011,0.451437 0.851298,0.600517 1.302735,0.332031 l 16.224609,-9.640625 -1.660156,8.642579 c -0.09932,0.515587 0.238793,1.014441 0.753906,1.113281 0.06083,0.01188 0.122241,0.01758 0.181641,0.01758 0.446684,0 0.844201,-0.316721 0.93164,-0.771484 l 1.804688,-9.390625 16.878906,10.029296 c 0.450487,0.268011 1.034248,0.119406 1.302735,-0.332031 0.26801,-0.451436 0.11893,-1.034723 -0.332032,-1.302734 L 38.455078,86.494141 c 0.167269,-0.171071 0.269531,-0.406031 0.269531,-0.664063 v -9.492187 c 0,-0.524618 -0.426555,-0.951172 -0.951172,-0.951172 H 36.427734 V 34.273437 h 4.59375 c 0.524617,0 0.951172,-0.424602 0.951172,-0.949218 v -3.025391 h 5.626953 l 12.701172,9.439453 c 0.42245,0.314105 1.0174,0.225711 1.330078,-0.195312 0.31268,-0.421025 0.226187,-1.016924 -0.195312,-1.330078 l -9.847656,-7.31836 11.214843,1.78125 c 0.274189,0.04372 0.553688,-0.03427 0.765625,-0.214844 0.210988,-0.180574 0.333985,-0.444665 0.333985,-0.722656 V 10.978516 c 0,-0.27799 -0.122997,-0.542082 -0.333985,-0.722657 -0.211937,-0.180578 -0.491436,-0.2600395 -0.765625,-0.216796 L 51.472656,11.839844 61.445312,4.2050781 C 61.86206,3.8857461 61.940425,3.2897942 61.621094,2.8730469 61.461427,2.6644356 61.233469,2.5396507 60.992187,2.5078125 Z m 1.009766,9.5839845 V 30.625 L 48.865234,28.537109 V 14.179688 Z m -34.464844,2.226562 h 19.427735 v 14.080078 h -5.94336 -13.484375 c -1.539161,0 -2.791015,-1.253807 -2.791015,-2.792968 v -8.496094 c 0,-1.539161 1.251854,-2.791016 2.791015,-2.791016 z m 4.851563,15.980469 h 7.68164 v 2.074219 h -7.68164 z m 1.742187,46.990234 h 2.69336 v 7.589844 h -1.330078 -0.03711 -1.326172 z"
       style="stroke-width:0.475197"
       id="path8"
       sodipodi:nodetypes="sccsssscssccsssccsccccsccccccsssccsscccsccccsscccccscccccscccsssscccccccccccc"
       inkscape:label="stand" /></g></svg>
