<svg xmlns="http://www.w3.org/2000/svg" xml:space="preserve" width="67.03" height="95">
    <path d="M63.043.883a.9.9 0 0 0-.363.097L52.556 6.043a.95.95 0 1 0 .85 1.701L63.53 2.682a.95.95 0 0 0-.487-1.8M52.979 17.908a.95.95 0 0 0 0 1.9h13.1a.95.95 0 1 0 0-1.9zm.06 11.967a1 1 0 0 1 .366.098l10.125 5.062a.951.951 0 0 1-.852 1.701l-10.122-5.062a.95.95 0 0 1 .484-1.799" style="fill:#fc0;stroke-width:.475197"/>
    <path d="M44.508.008a.95.95 0 0 0-.703.187L31.108 9.918H11.053a4.696 4.696 0 0 0-4.691 4.691v8.496a4.7 4.7 0 0 0 4.69 4.694h2.952v3.025c0 .525.425.95.95.95h3.09v41.113h-1.348a.95.95 0 0 0-.95.95v9.493c0 .258.103.493.27.664L.466 93.232a.95.95 0 0 0 .97 1.635l16.225-9.64L16 93.87a.95.95 0 0 0 1.867.36l1.804-9.39 16.88 10.03a.951.951 0 0 0 .97-1.637l-15.55-9.238a.95.95 0 0 0 .269-.664v-9.492a.95.95 0 0 0-.952-.95h-1.345V31.772h4.593a.95.95 0 0 0 .952-.949V27.8h5.627l12.7 9.44a.951.951 0 1 0 1.136-1.526l-9.848-7.318 11.215 1.78a.95.95 0 0 0 1.1-.937V8.48a.953.953 0 0 0-1.1-.939l-11.33 1.8 9.972-7.634A.95.95 0 0 0 44.508.01m1.01 9.584v18.533L32.38 26.038V11.68zM11.053 11.82H30.48V25.9H11.053a2.796 2.796 0 0 1-2.79-2.793V14.61a2.794 2.794 0 0 1 2.79-2.79m4.852 15.98h7.68v2.075h-7.68zm1.74 46.99h2.694v7.59h-2.693z" style="stroke-width:.475197"/>
</svg>
