<svg xmlns="http://www.w3.org/2000/svg" width="100" height="100">
    <g transform="translate(.263 -28.178)scale(.13368)">
        <path fill="#ababab" fill-opacity=".329" fill-rule="evenodd" stroke="#000" stroke-linecap="round" stroke-width="2" d="M108.46 772.93h528.57v110H108.46z"/>
        <path fill="none" stroke="#000" stroke-linejoin="round" stroke-width="7.678" d="M79.784 315h585.91v594.63H79.784z"/>
        <rect width="428.3" height="26.264" x="173.83" y="721.74" fill="#a9a9a9" stroke="#000" stroke-linejoin="round" stroke-width="4" ry="10"/>
        <path fill="#696969" stroke="#000" stroke-linecap="round" d="M94.974 326.568a3.214 3.214 0 1 1-6.429 0 3.214 3.214 0 0 1 6.429 0z" opacity=".99"/>
        <path fill="#333" stroke="#000" stroke-linecap="round" stroke-width="2.765" d="M328.713 819.361c0 8.87-7.19 16.06-16.06 16.06s-16.06-7.19-16.06-16.06 7.19-16.06 16.06-16.06 16.06 7.19 16.06 16.06z"/>
        <path fill="#ccc" d="M323.129 819.368c0 5.785-4.69 10.474-10.474 10.474s-10.473-4.69-10.473-10.474 4.69-10.473 10.473-10.473c5.785 0 10.474 4.69 10.474 10.473"/>
        <path fill="none" stroke="#000" stroke-width="1.382" d="M292.505 832.283c-6.37-11.128-2.513-25.312 8.615-31.682s25.312-2.514 31.682 8.614a23.22 23.22 0 0 1-.791 24.352"/>
        <g stroke="#000">
            <path fill="none" stroke-width="2" d="M535.464 806.49h86.873v64.65h-86.873z"/>
            <path fill="none" stroke-linecap="round" stroke-width="3" d="m578.884 869.63 22.223-35.355"/>
            <path fill="none" stroke-linecap="round" stroke-width="2" d="M542.414 841.6a22 22 0 0 1 .941-2.828 23 23 0 0 1 .823-1.8 25 25 0 0 1 .966-1.726 26 26 0 0 1 1.099-1.65 28 28 0 0 1 1.22-1.573 29 29 0 0 1 2.036-2.205 32 32 0 0 1 2.249-2.011 34 34 0 0 1 2.425-1.808 36 36 0 0 1 3.445-2.076 37 37 0 0 1 1.79-.891 42 42 0 0 1 3.692-1.52 44 44 0 0 1 3.816-1.174 46 46 0 0 1 4.897-.988 47 47 0 0 1 4.982-.462 49 49 0 0 1 5.006.054 49 49 0 0 1 7.917 1.148 46 46 0 0 1 3.86 1.074 44 44 0 0 1 2.819 1.032 41 41 0 0 1 2.733 1.23 39 39 0 0 1 2.63 1.432 37 37 0 0 1 2.506 1.637 35 35 0 0 1 1.593 1.208 32 32 0 0 1 2.25 1.997 31 31 0 0 1 2.047 2.207 29 29 0 0 1 1.802 2.4 27 27 0 0 1 1.047 1.7 25 25 0 0 1 .908 1.77 24 24 0 0 1 .758 1.84 23 23 0 0 1 .596 1.9"/>
            <path stroke-linecap="round" stroke-width="4" d="M573.637 869.39c.574-2.806 3.392-4.63 6.294-4.076 2.16.413 3.838 2.06 4.232 4.154l-5.27.93z"/>
        </g>
        <rect width="551.62" height="561.75" x="96.933" y="331.44" fill="none" stroke="#000" stroke-linecap="round" stroke-width="1.92" opacity=".99" rx="2.441" ry="2.763"/>
        <path fill="#696969" stroke="#000" stroke-linecap="round" d="M92.701 764.39a3.214 3.214 0 1 1-6.429 0 3.214 3.214 0 0 1 6.429 0zm.505-178.04a3.214 3.214 0 1 1-6.429 0 3.214 3.214 0 0 1 6.429 0zM494.74 899.53a3.214 3.214 0 1 1-6.429 0 3.214 3.214 0 0 1 6.429 0zm163.31-.02a3.214 3.214 0 1 1-6.429 0 3.214 3.214 0 0 1 6.429 0zm.84-135.55a3.214 3.214 0 1 1-6.429 0 3.214 3.214 0 0 1 6.429 0zm0-177.86a3.214 3.214 0 1 1-6.429 0 3.214 3.214 0 0 1 6.429 0zm-1.51-260.037a3.214 3.214 0 1 1-6.429 0 3.214 3.214 0 0 1 6.429 0zm-162.13 0a3.214 3.214 0 1 1-6.429 0 3.214 3.214 0 0 1 6.429 0zm-220.216 0a3.214 3.214 0 1 1-6.429 0 3.214 3.214 0 0 1 6.429 0z" opacity=".99"/>
        <path fill="#696969" stroke="#000" stroke-linecap="round" stroke-width="2.019" d="M247.297 870.174a6.49 6.49 0 1 1-12.98 0 6.49 6.49 0 0 1 12.98 0zm51.253 0a6.49 6.49 0 1 1-12.98 0 6.49 6.49 0 0 1 12.98 0zm-25.625 0a6.49 6.49 0 1 1-12.98 0 6.49 6.49 0 0 1 12.98 0z" opacity=".99"/>
        <path fill="#333" stroke="#000" stroke-linecap="round" stroke-width="2.765" d="M383.413 819.361c0 8.87-7.19 16.06-16.06 16.06s-16.06-7.19-16.06-16.06 7.19-16.06 16.06-16.06 16.06 7.19 16.06 16.06z"/>
        <path fill="#ccc" d="M377.829 819.368c0 5.785-4.69 10.474-10.474 10.474s-10.473-4.69-10.473-10.474 4.69-10.473 10.473-10.473c5.785 0 10.474 4.69 10.474 10.473"/>
        <path fill="none" stroke="#000" stroke-width="1.382" d="M347.205 832.283c-6.37-11.128-2.513-25.312 8.615-31.682s25.312-2.514 31.682 8.614a23.22 23.22 0 0 1-.791 24.352"/>
        <path fill="#333" stroke="#000" stroke-linecap="round" stroke-width="2.765" d="M274.018 819.361c0 8.87-7.19 16.06-16.06 16.06s-16.06-7.19-16.06-16.06 7.19-16.06 16.06-16.06 16.06 7.19 16.06 16.06z"/>
        <path fill="#ccc" d="M268.434 819.368c0 5.785-4.69 10.474-10.474 10.474s-10.473-4.69-10.473-10.474 4.69-10.473 10.473-10.473c5.785 0 10.474 4.69 10.474 10.473"/>
        <path fill="none" stroke="#000" stroke-width="1.382" d="M237.81 832.283c-6.37-11.128-2.513-25.312 8.615-31.682s25.312-2.514 31.682 8.614a23.22 23.22 0 0 1-.791 24.352"/>
        <path fill="#696969" stroke="#000" stroke-linecap="round" d="M95.689 899.74a3.214 3.214 0 1 1-6.429 0 3.214 3.214 0 0 1 6.429 0z" opacity=".99"/>
        <path fill="#333" stroke="#000" stroke-linecap="round" stroke-width="4.494" d="M210.224 820.94c0 14.416-11.686 26.103-26.103 26.103s-26.103-11.687-26.103-26.104 11.686-26.103 26.103-26.103 26.103 11.686 26.103 26.103z"/>
        <path fill="#ccc" d="M201.147 820.946c0 9.402-7.622 17.024-17.023 17.024s-17.023-7.622-17.023-17.024 7.621-17.023 17.023-17.023 17.023 7.622 17.023 17.023"/>
        <path fill="none" stroke="#000" stroke-width="2.247" d="M151.374 841.936c-10.354-18.087-4.085-41.142 14.002-51.496s41.142-4.085 51.497 14.002a37.74 37.74 0 0 1-1.287 39.582"/>
        <path fill="none" stroke="#000" stroke-linecap="round" stroke-width="8" d="M156.58 672.637c-15.62-11.12-19.267-32.796-8.147-48.416a35 35 0 0 1 3.35-4.024" opacity=".99"/>
        <path fill="#333" stroke="#000" stroke-linecap="round" stroke-width="1.607" d="M152.784 638.568a9.333 9.333 0 0 1-9.332 9.333 9.333 9.333 0 0 1-9.333-9.333 9.333 9.333 0 0 1 9.333-9.333 9.333 9.333 0 0 1 9.332 9.333z"/>
        <path fill="#ccc" d="M149.54 638.569a6.086 6.086 0 1 1-12.173 0 6.086 6.086 0 0 1 12.172 0"/>
        <g stroke="#000">
            <path fill="none" stroke-width="2" d="M441.46 806.49h86.873v64.65H441.46z"/>
            <path fill="none" stroke-linecap="round" stroke-width="3" d="m484.88 869.63 22.223-35.355"/>
            <path fill="none" stroke-linecap="round" stroke-width="2" d="M448.41 841.6a22 22 0 0 1 .941-2.828 23 23 0 0 1 .823-1.8 25 25 0 0 1 .966-1.726 26 26 0 0 1 1.099-1.65 28 28 0 0 1 1.22-1.573 29 29 0 0 1 2.036-2.205 32 32 0 0 1 2.249-2.011 34 34 0 0 1 2.425-1.808 36 36 0 0 1 3.445-2.076 37 37 0 0 1 1.79-.891 42 42 0 0 1 3.692-1.52 44 44 0 0 1 3.816-1.174 46 46 0 0 1 4.897-.988 47 47 0 0 1 4.982-.462 49 49 0 0 1 5.006.054 49 49 0 0 1 7.917 1.148 46 46 0 0 1 3.86 1.074 44 44 0 0 1 2.819 1.032 41 41 0 0 1 2.733 1.23 39 39 0 0 1 2.63 1.432 37 37 0 0 1 2.506 1.637 35 35 0 0 1 1.593 1.208 32 32 0 0 1 2.25 1.997 31 31 0 0 1 2.047 2.207 29 29 0 0 1 1.802 2.4 27 27 0 0 1 1.047 1.7 25 25 0 0 1 .908 1.77 24 24 0 0 1 .758 1.84 23 23 0 0 1 .596 1.9"/>
            <path stroke-linecap="round" stroke-width="4" d="M479.633 869.39c.574-2.806 3.392-4.63 6.294-4.076 2.16.413 3.838 2.06 4.232 4.154l-5.27.93z"/>
        </g>
        <g stroke="#000">
            <path fill="#ababab" fill-opacity=".329" stroke-linejoin="round" stroke-width="4.086" d="M348.998 423.273c0 91.19-73.922 165.111-165.11 165.111S18.775 514.462 18.775 423.274 92.7 258.161 183.887 258.161c91.189 0 165.111 73.923 165.111 165.111z"/>
            <path fill="#696969" fill-rule="evenodd" stroke-linecap="round" stroke-width="4.086" d="M279.038 423.27c0 52.228-42.602 94.564-95.154 94.564S88.73 475.494 88.73 423.27c0-52.228 42.602-94.565 95.154-94.565s95.154 42.34 95.154 94.565z" opacity=".99"/>
            <path fill="none" stroke-width=".678" d="M251.453 439.457c-8.15-3.676-21.578 12.4-22.803 13.974-1.427 1.877-11.372 19.877-5.103 26.253 52.808 53.705 59.69 62.03 82.935 27.323 24.37-33.926 13.577-36.613-55.027-67.55zm-106.228 36.278c5.736-6.858-6.125-24.12-7.312-25.725-1.423-1.88-16.077-16.308-23.905-11.99-65.95 36.38-75.82 40.765-48.662 72.5 26.102 32.611 31.598 22.941 79.88-34.785zm12.741-116.002c1.703 8.777 22.58 10.462 24.574 10.554 2.356.082 22.796-2.188 24.383-10.986 13.372-74.122 16.197-84.546-25.56-83.492-41.77-.316-37.734 10.048-23.397 83.925z"/>
            <g stroke-linecap="round">
                <path fill="#333" stroke-width="3.269" d="M202.872 423.267c0 10.487-8.5 18.988-18.988 18.988s-18.988-8.501-18.988-18.988 8.501-18.988 18.988-18.988 18.988 8.5 18.988 18.988z"/>
                <path fill="none" stroke-width=".817" d="M226.21 423.272c0 23.373-18.948 42.322-42.323 42.322-23.373 0-42.322-18.948-42.322-42.322s18.948-42.323 42.322-42.323 42.323 18.948 42.323 42.323z" opacity=".99"/>
                <path fill="#696969" stroke-width=".817" d="M185.328 391.516a2.627 2.627 0 1 1-5.254 0 2.627 2.627 0 0 1 5.254 0zm-26.853 45.824a2.627 2.627 0 1 1-5.253 0 2.627 2.627 0 0 1 5.253 0zm53.998 2.337a2.627 2.627 0 1 1-5.254 0 2.627 2.627 0 0 1 5.254 0z" opacity=".99"/>
                <path fill="none" stroke-width="2.452" d="m178.083 420.94 6.73 1.503m4.871-5.077-4.667 5.076m2.103 6.735-2.063-6.58"/>
            </g>
        </g>
        <path fill="none" stroke="#000" stroke-linecap="round" stroke-width="8" d="M591.498 672.637c15.62-11.12 19.267-32.796 8.147-48.416a35 35 0 0 0-3.35-4.024" opacity=".99"/>
        <path fill="#333" stroke="#000" stroke-linecap="round" stroke-width="1.607" d="M595.294 638.568a9.333 9.333 0 0 0 9.332 9.333 9.333 9.333 0 0 0 9.333-9.333 9.333 9.333 0 0 0-9.333-9.333 9.333 9.333 0 0 0-9.332 9.333z"/>
        <path fill="#ccc" d="M598.539 638.569a6.086 6.086 0 1 0 12.172 0 6.086 6.086 0 0 0-12.172 0"/>
        <g stroke="#000">
            <path fill="#ababab" fill-opacity=".329" stroke-linejoin="round" stroke-width="4.086" d="M725.32 423.273c0 91.19-73.923 165.111-165.112 165.111s-165.11-73.922-165.11-165.11 73.922-165.112 165.11-165.112S725.32 332.085 725.32 423.273z"/>
            <path fill="#696969" fill-rule="evenodd" stroke-linecap="round" stroke-width="4.086" d="M655.359 423.27c0 52.228-42.602 94.564-95.154 94.564s-95.154-42.34-95.154-94.565c0-52.228 42.602-94.565 95.154-94.565s95.154 42.34 95.154 94.565z" opacity=".99"/>
            <path fill="none" stroke-width=".678" d="M627.774 439.457c-8.15-3.676-21.578 12.4-22.803 13.974-1.427 1.877-11.372 19.877-5.103 26.253 52.808 53.705 59.69 62.03 82.935 27.323 24.37-33.926 13.577-36.613-55.027-67.55zm-106.228 36.278c5.736-6.858-6.125-24.12-7.312-25.725-1.423-1.88-16.077-16.308-23.905-11.99-65.95 36.38-75.82 40.765-48.662 72.5 26.102 32.611 31.598 22.941 79.88-34.785zm12.741-116.002c1.703 8.777 22.58 10.462 24.574 10.554 2.356.082 22.796-2.188 24.383-10.986 13.372-74.122 16.197-84.546-25.56-83.492-41.77-.316-37.734 10.048-23.397 83.925z"/>
            <g stroke-linecap="round">
                <path fill="#333" stroke-width="3.269" d="M579.193 423.267c0 10.487-8.5 18.988-18.988 18.988s-18.988-8.501-18.988-18.988 8.501-18.988 18.988-18.988 18.988 8.5 18.988 18.988z"/>
                <path fill="none" stroke-width=".817" d="M602.53 423.272c0 23.373-18.947 42.322-42.322 42.322-23.373 0-42.322-18.948-42.322-42.322s18.948-42.323 42.322-42.323 42.323 18.948 42.323 42.323z" opacity=".99"/>
                <path fill="#696969" stroke-width=".817" d="M561.65 391.516a2.627 2.627 0 1 1-5.255 0 2.627 2.627 0 0 1 5.254 0zm-26.854 45.824a2.627 2.627 0 1 1-5.253 0 2.627 2.627 0 0 1 5.253 0zm53.998 2.337a2.627 2.627 0 1 1-5.254 0 2.627 2.627 0 0 1 5.254 0z" opacity=".99"/>
                <path fill="none" stroke-width="2.452" d="m554.404 420.94 6.73 1.503m4.871-5.077-4.667 5.076m2.103 6.735-2.063-6.58"/>
            </g>
        </g>
        <rect width="48.02" height="13.446" x="348.73" y="570.06" fill="#333" stroke="#000" stroke-linejoin="round" stroke-width="4" ry="2.881"/>
        <path fill="none" stroke="#000" d="m87.97 435.16 46.11 206.41"/>
        <path fill="none" stroke="#000" stroke-width=".958" d="m146.21 645.57 74.044-27.38"/>
        <path fill="none" stroke="#000" d="m237.32 619.65 87.679 40"/>
        <path fill="#333" stroke="#000" stroke-linecap="round" stroke-width="4" d="M249.898 641.894c0 12.832-10.402 23.234-23.234 23.234s-23.234-10.402-23.234-23.234 10.402-23.234 23.234-23.234 23.234 10.402 23.234 23.234zm294.752-.888c0 12.832-10.402 23.234-23.234 23.234s-23.234-10.402-23.234-23.234 10.402-23.234 23.234-23.234 23.234 10.402 23.234 23.234z"/>
        <path fill="none" stroke="#000" d="m656.26 435.79-42.62 205.63"/>
        <path fill="none" stroke="#000" stroke-width=".958" d="m598.71 646.08-66.57-26.6"/>
        <path fill="none" stroke="#000" d="m510.08 619.51-90.536 40.714"/>
        <path fill="#696969" stroke="#000" stroke-linecap="round" d="M275.157 900.34a3.214 3.214 0 1 1-6.429 0 3.214 3.214 0 0 1 6.429 0z" opacity=".99"/>
        <path fill="#878787" stroke="#000" stroke-width="4" d="M296.01 615.5h159.85c10.125-.08 8.847 13.698 4.153 24.898l-21.161 36.281c-1.813 4.089-2.86 3.845-6.23 3.845h-114.55c-4.464.355-4.72-.21-6.987-4.271l-21.78-38.994c-5.612-10.493-.728-21.758 6.7-21.758z"/>
    </g>
</svg>
