<?xml version="1.0" encoding="UTF-8" standalone="no"?>
<!-- Uploaded to: SVG Repo, www.svgrepo.com, Generator: SVG Repo Mixer Tools -->

<svg
   fill="#000000"
   height="50"
   width="55"
   version="1.1"
   id="Capa_1"
   viewBox="0 0 55 50"
   xml:space="preserve"
   sodipodi:docname="maracas_1.svg"
   inkscape:version="1.3.2 (091e20e, 2023-11-25)"
   xmlns:inkscape="http://www.inkscape.org/namespaces/inkscape"
   xmlns:sodipodi="http://sodipodi.sourceforge.net/DTD/sodipodi-0.dtd"
   xmlns="http://www.w3.org/2000/svg"
   xmlns:svg="http://www.w3.org/2000/svg"><defs
   id="defs1" /><sodipodi:namedview
   id="namedview1"
   pagecolor="#ffffff"
   bordercolor="#000000"
   borderopacity="0.25"
   inkscape:showpageshadow="2"
   inkscape:pageopacity="0.0"
   inkscape:pagecheckerboard="0"
   inkscape:deskcolor="#d1d1d1"
   inkscape:current-layer="Capa_1" />
<path
   d="M 54.066331,40.554855 43.228946,37.889252 34.077375,22.687137 C 35.630778,21.299776 36.532448,19.177663 36.641566,16.57634 36.763997,13.650815 35.8625,10.429462 34.102597,7.5060391 31.357476,2.9463678 27.043189,0 23.11143,0 21.808492,0 20.614321,0.32122449 19.562548,0.95439055 17.40155,2.2552271 16.139597,4.6861294 16.009286,7.7990645 c -0.12243,2.9256995 0.779241,6.1468775 2.53932,9.0703015 2.74477,4.559845 7.059057,7.506038 10.990992,7.506038 0.863838,0 1.678459,-0.144148 2.436857,-0.423862 l 7.892945,13.111354 -14.035794,-3.4522 c 0.112797,-2.079902 -0.755246,-4.215852 -2.52198,-6.128486 -1.986898,-2.150664 -4.906117,-3.783935 -8.21995,-4.599256 -1.48124,-0.364311 -2.974041,-0.549094 -4.437241,-0.549094 -5.3417147,0 -9.5465328,2.504465 -10.46344134,6.232 -0.60216457,2.449293 0.23032181,5.058673 2.34490384,7.347179 1.9868978,2.150837 4.9061174,3.784108 8.2197735,4.59943 1.481241,0.364311 2.974217,0.549094 4.437593,0.549094 4.765121,0 8.623143,-1.994079 10.051839,-5.070233 l 16.409072,4.035974 5.317369,8.833148 c 0.229972,0.382352 0.635618,0.593933 1.051598,0.593933 0.215084,0 0.43332,-0.05674 0.631065,-0.17585 0.580271,-0.349249 0.76733,-1.102567 0.418082,-1.682663 l -4.058743,-6.742387 8.46726,2.082705 c 0.09843,0.02417 0.196868,0.03573 0.293901,0.03573 0.551022,0 1.051949,-0.37447 1.189617,-0.933548 0.161487,-0.657512 -0.240481,-1.321679 -0.897993,-1.483517 z M 18.459105,7.9017022 c 0.09475,-2.2631089 0.935824,-3.9843047 2.368023,-4.8465665 0.664693,-0.4000419 1.433249,-0.6030403 2.284127,-0.6030403 2.607278,0 5.603212,1.8658694 7.838999,4.7779078 -0.427716,0.5396361 -0.606369,1.0994145 -0.749116,1.5513007 -0.174974,0.5534729 -0.254843,0.8062139 -0.698672,1.0734923 -0.44383,0.2667528 -0.704277,0.2189378 -1.27474,0.1148983 -0.735978,-0.1348654 -1.743614,-0.3191229 -2.981222,0.4261385 -1.238133,0.745262 -1.546747,1.722072 -1.771989,2.435281 -0.174799,0.553473 -0.254492,0.80604 -0.697971,1.073143 -0.44348,0.266753 -0.704277,0.219111 -1.27474,0.114547 -0.466424,-0.08548 -1.045643,-0.189862 -1.723823,-0.06358 -0.935124,-2.030861 -1.399446,-4.1296788 -1.318876,-6.0535218 z m 2.740391,8.5544848 c 0.721091,0.12856 1.680035,0.248012 2.841453,-0.45101 1.237958,-0.745262 1.546572,-1.722072 1.771814,-2.435281 0.174624,-0.553298 0.254492,-0.805864 0.698147,-1.072967 0.444004,-0.267279 0.704277,-0.219637 1.275264,-0.115073 0.735629,0.134865 1.743265,0.318772 2.981048,-0.42614 1.161768,-0.699548 1.505236,-1.602619 1.729428,-2.3007656 2.46418,4.7313186 2.221949,9.9225786 -0.6731,11.6654926 -0.664694,0.400043 -1.433075,0.602866 -2.283952,0.602866 -2.807649,0 -6.065959,-2.163273 -8.340102,-5.467122 z M 2.5723286,29.151561 c 0.6420987,-2.611131 3.8902493,-4.365606 8.0821064,-4.365606 0.666269,0 1.340596,0.04589 2.018249,0.13434 0.08039,0.685361 0.351701,1.207832 0.571339,1.627841 0.268855,0.514239 0.391459,0.74894 0.267978,1.251619 -0.12383,0.50303 -0.341541,0.65401 -0.818474,0.985042 -0.614425,0.426314 -1.456194,1.010614 -1.801064,2.413737 -0.345219,1.40295 0.129436,2.310751 0.476057,2.973692 0.268855,0.514239 0.391635,0.74894 0.267804,1.25162 -0.123481,0.502679 -0.341017,0.653658 -0.817774,0.984341 -0.388131,0.269205 -0.8699685,0.605492 -1.2588005,1.173502 -4.649348,-1.725924 -7.7510734,-5.3249 -6.9874209,-8.430128 z m 12.6209354,9.457907 c -0.942656,0 -1.901776,-0.0895 -2.862822,-0.265878 0.600763,-0.420709 1.362839,-1.015868 1.687042,-2.333694 0.34522,-1.402948 -0.129435,-2.310749 -0.476057,-2.973691 -0.268855,-0.514239 -0.391634,-0.749115 -0.267804,-1.251794 0.123656,-0.503031 0.341192,-0.65401 0.818124,-0.985043 0.614425,-0.426313 1.456019,-1.010263 1.801415,-2.413562 0.324027,-1.31765 -0.07496,-2.198478 -0.411777,-2.84986 2.441762,0.755771 4.557395,2.017374 6.029177,3.610185 1.537113,1.663921 2.163798,3.474444 1.764282,5.097906 -0.641748,2.611307 -3.889549,4.365431 -8.08158,4.365431 z"
   id="path1"
   style="stroke-width:0.999997" />
</svg>
