<svg xmlns="http://www.w3.org/2000/svg" xml:space="preserve" width="55" height="50">
    <path d="M54.066 40.555 43.23 37.889l-9.152-15.202c1.554-1.387 2.455-3.51 2.565-6.11.122-2.926-.78-6.148-2.54-9.071C31.358 2.946 27.044 0 23.113 0c-1.304 0-2.498.321-3.55.954-2.16 1.301-3.422 3.732-3.553 6.845-.122 2.926.78 6.147 2.54 9.07 2.744 4.56 7.059 7.506 10.99 7.506.864 0 1.68-.144 2.437-.423l7.893 13.11-14.035-3.451c.112-2.08-.756-4.216-2.522-6.129-1.987-2.15-4.906-3.784-8.22-4.599a18.6 18.6 0 0 0-4.438-.55c-5.341 0-9.546 2.505-10.463 6.233-.602 2.45.23 5.059 2.345 7.347 1.987 2.15 4.906 3.784 8.22 4.6 1.48.364 2.974.549 4.437.549 4.765 0 8.623-1.995 10.052-5.07l16.41 4.035 5.317 8.833a1.225 1.225 0 1 0 2.1-1.264l-4.058-6.743 8.467 2.083q.148.036.294.036a1.227 1.227 0 0 0 .291-2.417M18.46 7.902c.095-2.263.936-3.985 2.368-4.847.665-.4 1.433-.603 2.284-.603 2.608 0 5.603 1.866 7.84 4.778-.428.54-.607 1.1-.75 1.551-.175.554-.255.807-.699 1.074s-.704.219-1.274.115c-.736-.135-1.744-.32-2.981.426-1.239.745-1.547 1.722-1.772 2.435-.175.554-.255.806-.698 1.073-.444.267-.705.22-1.275.115-.467-.086-1.046-.19-1.724-.064-.935-2.03-1.4-4.13-1.319-6.053m2.74 8.554c.722.129 1.68.248 2.842-.45 1.238-.746 1.547-1.723 1.772-2.436.174-.553.254-.806.698-1.073s.704-.22 1.275-.115c.736.135 1.743.319 2.981-.426 1.162-.7 1.505-1.603 1.73-2.301 2.464 4.731 2.222 9.923-.673 11.665-.665.4-1.434.603-2.284.603-2.808 0-6.066-2.163-8.34-5.467M2.572 29.152c.642-2.612 3.89-4.366 8.082-4.366q1.001.001 2.019.134c.08.686.351 1.208.571 1.628.269.514.391.75.268 1.252-.124.503-.342.654-.818.985-.615.426-1.457 1.01-1.802 2.414-.345 1.402.13 2.31.477 2.973.268.514.391.75.267 1.252-.123.503-.34.654-.817.984-.389.27-.87.606-1.26 1.174-4.649-1.726-7.75-5.325-6.987-8.43m12.621 9.457c-.942 0-1.902-.089-2.863-.265.601-.421 1.363-1.016 1.687-2.334.346-1.403-.129-2.31-.476-2.974-.268-.514-.391-.749-.267-1.252.123-.503.34-.654.818-.985.614-.426 1.456-1.01 1.801-2.413.324-1.318-.075-2.199-.412-2.85 2.442.756 4.558 2.017 6.03 3.61 1.537 1.664 2.163 3.475 1.764 5.098-.642 2.611-3.89 4.365-8.082 4.365" style="stroke-width:.999997"/>
</svg>
