<?xml version="1.0" encoding="UTF-8" standalone="no"?>
<!-- Uploaded to: SVG Repo, www.svgrepo.com, Generator: SVG Repo Mixer Tools -->

<svg
   fill="#000000"
   height="41"
   width="50"
   version="1.1"
   id="Capa_1"
   viewBox="0 0 50 41"
   xml:space="preserve"
   sodipodi:docname="megaphone_1.svg"
   inkscape:version="1.3.2 (091e20e, 2023-11-25)"
   xmlns:inkscape="http://www.inkscape.org/namespaces/inkscape"
   xmlns:sodipodi="http://sodipodi.sourceforge.net/DTD/sodipodi-0.dtd"
   xmlns="http://www.w3.org/2000/svg"
   xmlns:svg="http://www.w3.org/2000/svg"><defs
   id="defs1" /><sodipodi:namedview
   id="namedview1"
   pagecolor="#ffffff"
   bordercolor="#000000"
   borderopacity="0.25"
   inkscape:showpageshadow="2"
   inkscape:pageopacity="0.0"
   inkscape:pagecheckerboard="0"
   inkscape:deskcolor="#d1d1d1"
   inkscape:current-layer="Capa_1" />
<path
   d="m 15.401809,40.445111 c -0.338558,0 -0.676628,-0.06727 -0.998124,-0.202062 C 13.7663,39.976152 13.27126,39.476968 13.009725,38.83739 L 8.3903283,27.545557 H 6.0019012 c -1.5277744,0 -2.7706145,-1.162892 -2.7706145,-2.592195 V 24.554356 C 1.2584396,23.483599 0,21.391562 0,19.140118 0,16.888674 1.2584396,14.796881 3.2312867,13.725635 v -0.198406 c 0,-1.429302 1.2428401,-2.592195 2.7706145,-2.592195 H 18.045921 c 7.35735,0 14.580398,-2.3223738 20.339289,-6.5391091 l 3.963243,-2.9019915 c 0.0022,-0.00171 0.0044,-0.00341 0.0066,-0.00512 l 1.604554,-1.17459237 c 0.497477,-0.36439419 1.15168,-0.41558 1.707656,-0.13405807 0.518195,0.2627538 0.827503,0.75267507 0.827503,1.31035664 V 10.966477 C 48.663076,12.581754 50,15.683614 50,19.140118 c 0,3.456505 -1.336681,6.558363 -3.505253,8.173641 v 9.475955 c 0,0.557681 -0.309308,1.047602 -0.827503,1.310356 -0.555976,0.281522 -1.209935,0.230336 -1.707656,-0.134058 l -5.300656,-3.881346 c -5.44422,-3.986399 -12.197334,-6.279767 -19.13496,-6.518391 l 0.821654,1.877301 c 0.05314,0.121139 0.0546,0.25861 0.0044,0.380725 -0.05045,0.122358 -0.147951,0.21888 -0.270797,0.267872 l -1.652326,0.656885 2.011602,5.0769 c 0.518439,1.30865 -0.118946,2.808151 -1.421259,3.343164 l -2.633388,1.08124 c -0.317108,0.129914 -0.649572,0.194749 -0.982036,0.194749 z M 9.4437809,27.545801 13.912302,38.468608 c 0.162819,0.398274 0.471397,0.709045 0.868208,0.875277 0.396812,0.165989 0.834816,0.167695 1.233091,0.0044 l 2.633388,-1.08124 c 0.811173,-0.332707 1.208228,-1.266726 0.88527,-2.082043 L 17.3437,30.661067 c -7.31e-4,-0.0017 -0.0015,-0.0032 -0.0019,-0.0049 -7.32e-4,-0.0022 -0.0017,-0.0041 -0.0024,-0.0061 L 16.109478,27.54577 Z m 33.6831841,8.602384 1.408585,1.031516 c 0.238623,0.175006 0.513564,0.140883 0.690521,0.05094 0.08823,-0.04485 0.293709,-0.177444 0.293709,-0.440929 V 1.4905211 c 0,-0.2634851 -0.205231,-0.3960807 -0.293709,-0.4409292 C 45.04887,0.95965115 44.774173,0.92577102 44.53555,1.100534 L 43.126965,2.1320498 Z M 23.957881,27.013956 c 5.552441,0.87674 10.83701,3.033125 15.277013,6.284398 l 2.91686,2.135911 V 2.8462138 L 38.960928,5.1824801 C 34.594048,8.3801304 29.409901,10.51921 23.957881,11.422761 Z m -6.800399,0.531845 0.910132,2.297024 1.182392,-0.470178 -0.799473,-1.826602 c -0.04363,-2.44e-4 -0.0875,-2.44e-4 -0.131134,-2.44e-4 z M 6.0019012,11.910002 c -0.9900797,0 -1.7956468,0.725619 -1.7956468,1.617227 v 11.426377 c 0,0.891608 0.8055671,1.617227 1.7956468,1.617227 H 18.319643 c 1.564336,0 3.122822,0.102128 4.663514,0.302728 V 11.570713 c -1.629902,0.22473 -3.280035,0.339532 -4.937236,0.339532 H 6.0019012 Z m 40.4928458,0.339776 v 13.780923 c 1.559949,-1.530699 2.530042,-4.1168 2.530042,-6.890583 0,-2.773783 -0.96985,-5.359641 -2.530042,-6.89034 z M 3.2312867,14.86781 c -1.3917664,0.958881 -2.256319,2.56124 -2.256319,4.272308 0,1.711069 0.8645526,3.313672 2.256319,4.272309 z m 2.5244351,7.381968 c -0.269091,0 -0.4874838,-0.218393 -0.4874838,-0.487484 v -7.50262 c 0,-0.746338 0.6071611,-1.353255 1.3532552,-1.353255 H 19.02942 c 0.269091,0 0.487484,0.218392 0.487484,0.487483 0,0.269091 -0.218393,0.487484 -0.487484,0.487484 H 6.6214932 c -0.2083994,0 -0.3782875,0.169645 -0.3782875,0.378288 v 7.50262 c 0,0.269335 -0.218149,0.487484 -0.4874839,0.487484 z"
   id="path1"
   inkscape:label="megaphone"
   style="stroke-width:0.243742" />
</svg>
