<svg xmlns="http://www.w3.org/2000/svg" xml:space="preserve" width="50" height="41">
    <path d="M15.402 40.445c-.339 0-.677-.067-.998-.202a2.57 2.57 0 0 1-1.394-1.406L8.39 27.546H6.002c-1.528 0-2.77-1.163-2.77-2.593v-.399A6.2 6.2 0 0 1 0 19.14a6.2 6.2 0 0 1 3.231-5.414v-.199c0-1.43 1.243-2.592 2.77-2.592h12.045c7.357 0 14.58-2.322 20.34-6.54l3.962-2.901.007-.005L43.96.314A1.63 1.63 0 0 1 45.667.18c.518.263.828.753.828 1.31v9.476C48.663 12.582 50 15.684 50 19.14c0 3.457-1.337 6.558-3.505 8.174v9.476c0 .557-.31 1.047-.828 1.31a1.63 1.63 0 0 1-1.707-.134l-5.301-3.881c-5.444-3.987-12.197-6.28-19.135-6.519l.822 1.878a.487.487 0 0 1-.267.648l-1.652.657 2.012 5.077a2.595 2.595 0 0 1-1.422 3.343l-2.633 1.081c-.317.13-.65.195-.982.195m-5.958-12.9 4.468 10.924a1.6 1.6 0 0 0 .869.875c.396.166.834.168 1.233.004l2.633-1.081a1.615 1.615 0 0 0 .885-2.082l-2.188-5.524-.002-.005-.003-.006-1.23-3.104Zm33.683 8.603 1.409 1.032a.66.66 0 0 0 .69.05c.088-.044.294-.177.294-.44V1.49c0-.263-.205-.396-.294-.44a.66.66 0 0 0-.69.05l-1.409 1.032Zm-19.17-9.134c5.553.877 10.838 3.033 15.278 6.284l2.917 2.136V2.846L38.96 5.182c-4.367 3.198-9.551 5.337-15.003 6.24Zm-6.8.532.91 2.297 1.183-.47-.8-1.827h-.13zM6.002 11.91c-.99 0-1.796.726-1.796 1.617v11.427c0 .891.806 1.617 1.796 1.617H18.32c1.564 0 3.122.102 4.663.303V11.57c-1.63.224-3.28.34-4.937.34zm40.493.34v13.78c1.56-1.53 2.53-4.116 2.53-6.89s-.97-5.36-2.53-6.89M3.23 14.868A5.22 5.22 0 0 0 .975 19.14c0 1.711.865 3.314 2.256 4.272zm2.525 7.382a.49.49 0 0 1-.488-.488V14.26c0-.747.607-1.354 1.353-1.354h12.41a.488.488 0 0 1 0 .975H6.621a.38.38 0 0 0-.378.379v7.502c0 .27-.218.488-.487.488" style="stroke-width:.243742"/>
</svg>
