<svg xmlns="http://www.w3.org/2000/svg" xml:space="preserve" width="35" height="50">
    <path d="M32.519 45.301 24.343 6.076c-.515-2.47-2.58-3.576-4.398-3.576s-3.883 1.106-4.397 3.576l-3.54 16.981-1.848-2.445.873-.658-2.35-3.86-1.231.927-4.332-5.745-.639.481 4.332 5.746-1.23.928 3.065 3.321.873-.658 2.27 3.002-4.419 21.205h2.03V47.5H12.3v-2.199h15.29V47.5h2.9v-2.199ZM6.769 18.537l1.69-1.273 1.514 2.488-1.229.926Zm21.973 12.565h-.789l-5.226-25.08h.782q.029.106.051.217zm-9.832-5.989h1.08v-.8h-1.08v-1.342h1.08v-.8h-1.08V20.83h1.08v-.8h-1.08v-1.342h1.08v-.8h-1.08v-1.342h1.08v-.8h-1.08v-1.341h1.08v-.8h-1.08v-1.342h1.08v-.8h-1.08v-1.341h1.08v-.8h-1.08v-1.2h2.099v18.39H18.91zm0 2.199h2.099v3.79H18.91Zm-.8-19.989v23.779h-.02l-4.183-5.533 4.074-19.547h3.93l5.226 25.08h-5.328V7.323Zm-1.023 23.779h-4.333l.936-4.494ZM19.945 3.3c1.142 0 2.55.523 3.263 1.922h-6.525c.713-1.399 2.12-1.922 3.262-1.922M16.33 6.239q.024-.11.052-.217h.782l-3.897 18.7-.618-.818zM13.05 25.76l-1.113 5.34h-.789l1.284-6.158zm-2.068 6.14h17.927l2.626 12.6H8.355Zm.518 14.8h-1.299v-1.4h1.3zm18.19 0h-1.3v-1.4h1.3z" style="stroke-width:.099942"/>
</svg>
