<svg xmlns="http://www.w3.org/2000/svg" width="80" height="80"><path d="M-8.765-64.39a.36.36 0 0 0 .26-.437l-.559-2.198a.36.36 0 0 0-.436-.257l-16.438 4.179a.36.36 0 0 0-.26.435l.558 2.197a.36.36 0 0 0 .437.26z" style="stroke:#000;stroke-width:.265001;stroke-linecap:square;stroke-linejoin:round;stroke-miterlimit:4.7" transform="rotate(-165.736 19.317 1.81)"/><path d="m-2.534-2.504 1.305-.86-14.8-58.212a.36.36 0 0 0-.434-.26l-.757.192a.36.36 0 0 0-.258.436l14.9 58.613q.017.05.044.091" style="stroke-width:.264999;stroke-linecap:square;stroke-linejoin:round;stroke-miterlimit:4.7" transform="rotate(-165.736 19.317 1.81)"/><g style="display:inline"><path d="m-8.208 5.402-2.018-2.839-.766.505c-.29.205-.456 1.08-.28 1.38l.688.98c.216.304 1.088.965 1.394.75zm-.28-3.984-1.387.915 1.997 2.807 1.302-1.03a2.713 2.722 75.736 0 0 .005-.03L-8.46 1.43a2.713 2.722 75.736 0 0-.028-.011m1.912 2.692-1.302 1.03.555.778a2.713 2.722 75.736 0 0 .14-.142 2.713 2.722 75.736 0 0 .607-1.666m-1.068 2.083-.564-.791-.982.775c-.306.216-1.178-.445-1.394-.75l-.688-.98c-.176-.299-.01-1.174.28-1.379l.766-.505-.557-.783a2.713 2.722 75.736 0 0-.536.477 2.713 2.722 75.736 0 0 .3 3.825 2.713 2.722 75.736 0 0 3.375.111m-2.772-4.623.54.763 1.389-.915a2.713 2.722 75.736 0 0-1.929.152" style="stroke-width:.140747;stroke-linecap:square;stroke-linejoin:round;stroke-miterlimit:4.7" transform="rotate(-165.736 19.317 1.81)"/><path d="m-6.104 3.738 9.558-7.555c.225-.187.516-.412.23-.814l-.66-.932c-.215-.305-.605-.218-.911-.002L-1.23-3.364l.102.4a.36.36 0 0 1-.258.436l-.757.193a.35.35 0 0 1-.392-.169L-7.989 1.09zm3.57-6.242a.35.35 0 0 0 .392.169l.757-.193a.36.36 0 0 0 .258-.436l-.102-.4Z" style="fill:gray;stroke-width:.140747;stroke-linecap:square;stroke-linejoin:round;stroke-miterlimit:4.7" transform="rotate(-165.736 19.317 1.81)"/></g></svg>