<?xml version="1.0" encoding="UTF-8" standalone="no"?>
<svg
   width="100"
   height="100"
   version="1.1"
   id="svg6"
   sodipodi:docname="mic_on_stand_3.svg"
   inkscape:version="1.3.2 (091e20e, 2023-11-25)"
   xmlns:inkscape="http://www.inkscape.org/namespaces/inkscape"
   xmlns:sodipodi="http://sodipodi.sourceforge.net/DTD/sodipodi-0.dtd"
   xmlns="http://www.w3.org/2000/svg"
   xmlns:svg="http://www.w3.org/2000/svg">
  <defs
     id="defs6" />
  <sodipodi:namedview
     id="namedview6"
     pagecolor="#ffffff"
     bordercolor="#000000"
     borderopacity="0.25"
     inkscape:showpageshadow="2"
     inkscape:pageopacity="0.0"
     inkscape:pagecheckerboard="0"
     inkscape:deskcolor="#d1d1d1"
     inkscape:current-layer="g6" />
  <g
     transform="rotate(-165.736,27.585796,10.312998)"
     id="g6">
    <g
       id="g1"
       transform="matrix(-0.87858382,0.47758817,0.47758817,0.87858382,13.963796,-4.4739254)">
      <g
         transform="matrix(1.8596122,0.54985386,0.54985386,-1.8596122,-35.180109,46.963604)"
         id="g5">
        <path
           d="m 17.016,19.67 a 0.36,0.36 0 0 0 0.286,-0.351 V 18.712 A 0.357,0.357 0 0 0 16.944,18.354 H 8.4 a 0.356,0.356 0 0 0 -0.355,0.328 h 0.317 c 0.043,0 0.077,0.02 0.077,0.047 v 0.041 c 0,0.026 -0.034,0.047 -0.077,0.047 h -0.32 v 0.095 h 0.314 c 0.043,0 0.078,0.02 0.078,0.046 V 19 c 0,0.026 -0.035,0.047 -0.077,0.048 H 8.042 v 0.094 h 0.309 c 0.043,0 0.077,0.02 0.077,0.047 v 0.04 c 0,0.026 -0.034,0.047 -0.077,0.048 h -0.31 v 0.043 c 0,0.198 0.16,0.358 0.359,0.358 h 8.544 a 0.4,0.4 0 0 0 0.072,-0.007"
           style="fill:#363636;fill-opacity:1;stroke-width:0.264999;stroke-linecap:square;stroke-linejoin:round;stroke-miterlimit:4.7"
           id="path2" />
        <rect
           width="0.13500001"
           height="1.068"
           x="9.401"
           y="18.608999"
           rx="0.024"
           ry="0.039999999"
           style="fill:#ffffff;stroke:none;stroke-width:0.264999;stroke-linecap:square;stroke-linejoin:round;stroke-miterlimit:4.7;stroke-dasharray:none;stroke-opacity:1"
           id="rect3" />
        <rect
           width="0.13500001"
           height="1.068"
           x="9.7740002"
           y="18.613001"
           rx="0.024"
           ry="0.039999999"
           style="fill:#ffffff;stroke:none;stroke-width:0.264999;stroke-linecap:square;stroke-linejoin:round;stroke-miterlimit:4.7;stroke-dasharray:none;stroke-opacity:1"
           id="rect4" />
        <rect
           width="0.13500001"
           height="1.068"
           x="16.044001"
           y="18.610001"
           rx="0.024"
           ry="0.039999999"
           style="fill:#ffffff;stroke:none;stroke-width:0.264999;stroke-linecap:square;stroke-linejoin:round;stroke-miterlimit:4.7;stroke-dasharray:none;stroke-opacity:1"
           id="rect5" />
      </g>
      <path
         style="color:#000000;fill:#000000;stroke-width:1;stroke-linecap:round;stroke-linejoin:round;stroke-miterlimit:4.7;-inkscape-stroke:none"
         d="m 16.336409,-33.1249 c -0.171496,0.85529 -2.109546,6.857553 -2.442771,6.910163 L 1.4352584,17.635262 1.9349782,18.298545 c -0.041297,0.145847 -0.5413962,2.108314 -0.6273829,2.20389 -0.074891,0.08325 -1.4939147,0.194526 -2.3279222,-0.793353 -0.098864,-0.117088 0.56771469,-1.824458 0.62650079,-2.032107 L 0.48985669,17.303631 12.972002,-26.630351 c -0.339895,-0.400636 1.576725,-7.244569 1.576725,-7.244569 0.504567,-0.444148 1.961302,0.136668 1.78767,0.749974 z"
         id="path6"
         sodipodi:nodetypes="ccccsscccccc" />
    </g>
    <rect
       width="18.177999"
       height="3.0780001"
       x="-10.869122"
       y="65.444"
       rx="0.35800001"
       ry="0.35800001"
       style="fill:#000000;stroke:#000000;stroke-width:0.513887;stroke-linecap:square;stroke-linejoin:round;stroke-miterlimit:4.7;stroke-dasharray:none;stroke-opacity:1"
       transform="rotate(165.736)"
       id="rect1" />
    <path
       style="fill:#000000;stroke:#000000;stroke-linecap:round;stroke-linejoin:round;stroke-miterlimit:4.7"
       d="M 0.90912227,-2.9958891 C -14.549694,-63.802832 -14.549694,-63.802832 -14.549694,-63.802832"
       id="path1" />
    <circle
       style="fill:#000000;stroke:#000000;stroke-linecap:round;stroke-linejoin:round;stroke-miterlimit:4.7"
       id="path3"
       cx="1.4949884"
       cy="11.667735"
       r="2.6435902"
       transform="matrix(0.96917073,-0.24639011,-0.24639011,-0.96917073,0,0)" />
  </g>
</svg>
