<?xml version="1.0" encoding="UTF-8" standalone="no"?>
<svg
   width="30"
   height="65"
   version="1.1"
   id="svg6"
   sodipodi:docname="mic_on_stand_5.svg"
   inkscape:version="1.3.2 (091e20e, 2023-11-25)"
   xmlns:inkscape="http://www.inkscape.org/namespaces/inkscape"
   xmlns:sodipodi="http://sodipodi.sourceforge.net/DTD/sodipodi-0.dtd"
   xmlns="http://www.w3.org/2000/svg"
   xmlns:svg="http://www.w3.org/2000/svg">
  <defs
     id="defs6" />
  <sodipodi:namedview
     id="namedview6"
     pagecolor="#ffffff"
     bordercolor="#000000"
     borderopacity="0.25"
     inkscape:showpageshadow="2"
     inkscape:pageopacity="0.0"
     inkscape:pagecheckerboard="0"
     inkscape:deskcolor="#d1d1d1"
     inkscape:current-layer="svg6" />
  <g
     transform="rotate(-165.736,7.1052366,6.38501)"
     id="g6">
    <g
       id="g9"
       transform="matrix(0.87858382,-0.47758817,-0.47758817,-0.87858382,-4.1562666,-1.3549181)">
      <g
         transform="matrix(1.8596122,0.54985386,0.54985386,-1.8596122,-35.180109,46.963604)"
         id="g5">
        <path
           d="m 17.016,19.67 a 0.36,0.36 0 0 0 0.286,-0.351 V 18.712 A 0.357,0.357 0 0 0 16.944,18.354 H 8.4 a 0.356,0.356 0 0 0 -0.355,0.328 h 0.317 c 0.043,0 0.077,0.02 0.077,0.047 v 0.041 c 0,0.026 -0.034,0.047 -0.077,0.047 h -0.32 v 0.095 h 0.314 c 0.043,0 0.078,0.02 0.078,0.046 V 19 c 0,0.026 -0.035,0.047 -0.077,0.048 H 8.042 v 0.094 h 0.309 c 0.043,0 0.077,0.02 0.077,0.047 v 0.04 c 0,0.026 -0.034,0.047 -0.077,0.048 h -0.31 v 0.043 c 0,0.198 0.16,0.358 0.359,0.358 h 8.544 a 0.4,0.4 0 0 0 0.072,-0.007"
           style="fill:#363636;fill-opacity:1;stroke-width:0.264999;stroke-linecap:square;stroke-linejoin:round;stroke-miterlimit:4.7"
           id="path2" />
        <rect
           width="0.13500001"
           height="1.068"
           x="9.401"
           y="18.608999"
           rx="0.024"
           ry="0.039999999"
           style="fill:#ffffff;stroke:none;stroke-width:0.264999;stroke-linecap:square;stroke-linejoin:round;stroke-miterlimit:4.7;stroke-dasharray:none;stroke-opacity:1"
           id="rect3" />
        <rect
           width="0.13500001"
           height="1.068"
           x="9.7740002"
           y="18.613001"
           rx="0.024"
           ry="0.039999999"
           style="fill:#ffffff;stroke:none;stroke-width:0.264999;stroke-linecap:square;stroke-linejoin:round;stroke-miterlimit:4.7;stroke-dasharray:none;stroke-opacity:1"
           id="rect4" />
        <rect
           width="0.13500001"
           height="1.068"
           x="16.044001"
           y="18.610001"
           rx="0.024"
           ry="0.039999999"
           style="fill:#ffffff;stroke:none;stroke-width:0.264999;stroke-linecap:square;stroke-linejoin:round;stroke-miterlimit:4.7;stroke-dasharray:none;stroke-opacity:1"
           id="rect5" />
      </g>
      <path
         style="color:#000000;fill:#000000;stroke-linecap:round;stroke-linejoin:round;stroke-miterlimit:4.7;-inkscape-stroke:none"
         d="m 12.15703,-17.162722 c -0.101249,0.605981 -1.530234,4.801544 -1.85207,4.813734 l -8.6340245,30.45679 0.5403371,0.51913 c -0.029053,0.102398 -0.5973194,2.320603 -0.6739924,2.383124 -0.066781,0.05446 -1.44606936,0.02472 -2.33860529,-0.755437 -0.10580028,-0.09247 0.64512759,-2.113017 0.68648369,-2.258805 l 0.8353028,-0.201641 8.6507407,-30.515754 c -0.3635953,-0.316523 0.9789979,-5.123203 0.9789979,-5.123203 0.458987,-0.282382 1.928965,0.251432 1.806815,0.682028 z"
         id="path6"
         sodipodi:nodetypes="ccccsscccccc" />
    </g>
    <rect
       width="18.177999"
       height="3.0780001"
       x="-6.0912662"
       y="45.444"
       rx="0.35800001"
       ry="0.35800001"
       style="fill:#000000;stroke:#000000;stroke-width:0.513887;stroke-linecap:square;stroke-linejoin:round;stroke-miterlimit:4.7;stroke-dasharray:none;stroke-opacity:1"
       transform="matrix(0.96917073,-0.24639011,-0.24639011,-0.96917073,0,0)"
       id="rect1" />
    <path
       id="path8"
       style="stroke:#000000;stroke-linecap:round;stroke-linejoin:round;stroke-miterlimit:4.7"
       d="M 3.7919773,-4.4302998 A 2,2 0 0 0 1.3608556,-5.875861 2,2 0 0 0 -0.08470557,-3.4447393 2,2 0 0 0 2.3464161,-1.9991781 2,2 0 0 0 3.7919773,-4.4302998 Z M 2.89,-0.02739623 -8.5764521,-45.130464 v 0" />
  </g>
</svg>
