<svg xmlns="http://www.w3.org/2000/svg" xml:space="preserve" width="20.154" height="35">
    <path d="M.65 12.63h18.854c.156 0 .283.126.283.283v4.13a.28.28 0 0 1-.283.283H.65a.28.28 0 0 1-.283-.283v-4.13c0-.157.126-.283.283-.283m8.915 8.595.082 13.408h1.261l-.052-13.484m-1.608-10.46.17 10.382h1.624l.107-10.331M7.636 2.224l.115-.676C8.003.063 12.449.12 12.635 1.48l.105.77M7.99 6.944l-.032.35 1.267 3.437h1.936l1.36-3.555v-.449M7.433 2.543s3.207 1.056 5.54-.062l.018 4.059c-3.288 1.237-5.548.111-5.548.111Z" style="fill:none;fill-opacity:0;stroke:#000;stroke-width:.734208;stroke-linecap:round;stroke-linejoin:round;stroke-miterlimit:4.7"/>
</svg>
