<svg xmlns="http://www.w3.org/2000/svg" width="25" height="100">
    <path d="M-8.167-19.964h1.175c.137 0 .248.402.248.902v7.332c0 .5-.11.902-.248.902h-1.175c-.137 0-.248-.402-.248-.902v-7.332c0-.5.11-.902.248-.902m.091 3.675.64-.53a.356.356 0 0 1 .504.043l54.77 66.69a.36.36 0 0 1-.053.504l-.64.53a.356.356 0 0 1-.504-.043L-8.13-15.784a.36.36 0 0 1 .053-.505M39.55 54.946l13.59-11.251a.356.356 0 0 1 .503.043l1.484 1.807a.36.36 0 0 1-.053.504l-13.59 11.252a.356.356 0 0 1-.503-.044l-1.485-1.807a.36.36 0 0 1 .054-.504" style="stroke-width:1.15413;stroke-linecap:square;stroke-linejoin:round;stroke-miterlimit:4.7" transform="matrix(.76487 .64418 -.62818 .77807 7.663 27.549)"/>
    <path d="M17.016 19.67a.36.36 0 0 0 .286-.351v-.607a.357.357 0 0 0-.358-.358H8.4a.356.356 0 0 0-.355.328h.317c.043 0 .077.02.077.047v.041c0 .026-.034.047-.077.047h-.32v.095h.314c.043 0 .078.02.078.046V19c0 .026-.035.047-.077.048h-.315v.094h.309c.043 0 .077.02.077.047v.04c0 .026-.034.047-.077.048h-.31v.043c0 .198.16.358.359.358h8.544a.4.4 0 0 0 .072-.007" style="fill:#363636;fill-opacity:1;stroke-width:.264999;stroke-linecap:square;stroke-linejoin:round;stroke-miterlimit:4.7" transform="rotate(-142.446 13.37 28.592)scale(1.9392)"/>
    <path d="M16.068 18.61h.087c.013 0 .024.018.024.04v.988c0 .022-.01.04-.024.04h-.087c-.013 0-.024-.018-.024-.04v-.988c0-.022.01-.04.024-.04m-6.27.003h.087c.013 0 .024.018.024.04v.988c0 .022-.01.04-.024.04h-.087c-.013 0-.024-.018-.024-.04v-.988c0-.022.01-.04.024-.04m-.373-.004h.087c.013 0 .024.018.024.04v.988c0 .022-.01.04-.024.04h-.087c-.013 0-.024-.018-.024-.04v-.988c0-.022.01-.04.024-.04" style="fill:#fff;stroke-width:.264999;stroke-linecap:square;stroke-linejoin:round;stroke-miterlimit:4.7" transform="rotate(-142.446 13.37 28.592)scale(1.9392)"/>
    <path d="M17.016 19.67a.36.36 0 0 0 .286-.351v-.607a.357.357 0 0 0-.358-.358H8.4a.356.356 0 0 0-.355.328h.317c.043 0 .077.02.077.047v.041c0 .026-.034.047-.077.047h-.32v.095h.314c.043 0 .078.02.078.046V19c0 .026-.035.047-.077.048h-.315v.094h.309c.043 0 .077.02.077.047v.04c0 .026-.034.047-.077.048h-.31v.043c0 .198.16.358.359.358h8.544a.4.4 0 0 0 .072-.007" style="fill:#363636;fill-opacity:1;stroke-width:.264999;stroke-linecap:square;stroke-linejoin:round;stroke-miterlimit:4.7" transform="rotate(-142.446 14.998 23.663)scale(1.9392)"/>
    <path d="M16.068 18.61h.087c.013 0 .024.018.024.04v.988c0 .022-.01.04-.024.04h-.087c-.013 0-.024-.018-.024-.04v-.988c0-.022.01-.04.024-.04m-6.27.003h.087c.013 0 .024.018.024.04v.988c0 .022-.01.04-.024.04h-.087c-.013 0-.024-.018-.024-.04v-.988c0-.022.01-.04.024-.04m-.373-.004h.087c.013 0 .024.018.024.04v.988c0 .022-.01.04-.024.04h-.087c-.013 0-.024-.018-.024-.04v-.988c0-.022.01-.04.024-.04" style="fill:#fff;stroke-width:.264999;stroke-linecap:square;stroke-linejoin:round;stroke-miterlimit:4.7" transform="rotate(-142.446 14.998 23.663)scale(1.9392)"/>
</svg>
