<svg xmlns="http://www.w3.org/2000/svg" width="25" height="100">
    <path d="M8.225 8.116v87.46c.376.824.918.62 1.496.001V7.515M.493 95.05a.36.36 0 0 0-.36.36v2.268a.36.36 0 0 0 .36.356h16.96a.36.36 0 0 0 .36-.357V95.41a.36.36 0 0 0-.359-.36z" style="stroke-width:.319773;stroke-linecap:square;stroke-linejoin:round;stroke-miterlimit:4.7" transform="translate(2.164 .983)"/>
    <g style="display:inline">
        <path d="m-8.208 5.402-2.018-2.839-.766.505c-.29.205-.456 1.08-.28 1.38l.688.98c.216.304 1.088.965 1.394.75zm-.28-3.984-1.387.915 1.997 2.807 1.302-1.03a2.713 2.722 75.736 0 0 .005-.03L-8.46 1.43a2.713 2.722 75.736 0 0-.028-.011m1.912 2.692-1.302 1.03.555.778a2.713 2.722 75.736 0 0 .14-.142 2.713 2.722 75.736 0 0 .607-1.666m-1.068 2.083-.564-.791-.982.775c-.306.216-1.178-.445-1.394-.75l-.688-.98c-.176-.299-.01-1.174.28-1.379l.766-.505-.557-.783a2.713 2.722 75.736 0 0-.536.477 2.713 2.722 75.736 0 0 .3 3.825 2.713 2.722 75.736 0 0 3.375.111m-2.772-4.623.54.763 1.389-.915a2.713 2.722 75.736 0 0-1.929.152" style="stroke-width:.140747;stroke-linecap:square;stroke-linejoin:round;stroke-miterlimit:4.7" transform="rotate(-165.736 5.345 2.024)"/>
        <path d="m-6.104 3.738 9.558-7.555c.225-.187.516-.412.23-.814l-.66-.932c-.215-.305-.605-.218-.911-.002L-1.23-3.364l.102.4a.36.36 0 0 1-.258.436l-.757.193a.35.35 0 0 1-.392-.169L-7.989 1.09Zm3.57-6.242a.35.35 0 0 0 .392.169l.757-.193a.36.36 0 0 0 .258-.436l-.102-.4z" style="fill:gray;stroke-width:.140747;stroke-linecap:square;stroke-linejoin:round;stroke-miterlimit:4.7" transform="rotate(-165.736 5.345 2.024)"/>
    </g>
</svg>
