<?xml version="1.0" encoding="UTF-8" standalone="no"?>
<svg
   width="25"
   height="100"
   version="1.1"
   id="svg9"
   sodipodi:docname="mic_on_stand_stereo.svg"
   inkscape:version="1.3.2 (091e20e, 2023-11-25)"
   xmlns:inkscape="http://www.inkscape.org/namespaces/inkscape"
   xmlns:sodipodi="http://sodipodi.sourceforge.net/DTD/sodipodi-0.dtd"
   xmlns="http://www.w3.org/2000/svg"
   xmlns:svg="http://www.w3.org/2000/svg">
  <defs
     id="defs9" />
  <sodipodi:namedview
     id="namedview9"
     pagecolor="#ffffff"
     bordercolor="#000000"
     borderopacity="0.25"
     inkscape:showpageshadow="2"
     inkscape:pageopacity="0.0"
     inkscape:pagecheckerboard="0"
     inkscape:deskcolor="#d1d1d1"
     inkscape:current-layer="svg9" />
  <g
     transform="rotate(-165.736,5.5550484,13.294937)"
     id="g9">
    <path
       id="rect9"
       style="stroke-width:1.15413;stroke-linecap:square;stroke-linejoin:round;stroke-miterlimit:4.7"
       transform="matrix(-0.90001,-0.43586,0.4171,-0.90886,0,0)"
       d="m -8.167,-19.964001 h 1.175 c 0.137392,0 0.248,0.402292 0.248,0.902 v 7.332 c 0,0.499708 -0.110608,0.902 -0.248,0.902 h -1.175 c -0.137392,0 -0.248,-0.402292 -0.248,-0.902 v -7.332 c 0,-0.499708 0.110608,-0.902 0.248,-0.902 z m 0.091045,3.675441 0.6404934,-0.530274 c 0.1543503,-0.127789 0.3789322,-0.108514 0.5035468,0.04322 L 47.83835,49.913147 c 0.124615,0.151732 0.100676,0.376762 -0.05367,0.504551 l -0.640494,0.530273 c -0.15435,0.127789 -0.378932,0.108514 -0.503546,-0.04322 L -8.12963,-15.78401 c -0.1246146,-0.151732 -0.1006758,-0.376762 0.053675,-0.50455 z M 39.551138,54.945733 53.140802,43.694655 c 0.154351,-0.127789 0.378933,-0.108514 0.503547,0.04322 l 1.484076,1.807024 c 0.124615,0.151732 0.100676,0.376762 -0.05367,0.50455 L 41.485086,57.300526 c -0.15435,0.127789 -0.378932,0.108513 -0.503547,-0.04322 l -1.484076,-1.807024 c -0.124614,-0.151732 -0.100675,-0.376761 0.05367,-0.50455 z" />
    <g
       transform="matrix(1.7811851,0.76673097,-0.76673097,1.7811851,-6.765417,-31.154376)"
       id="g5"
       inkscape:label="mic1">
      <path
         d="m 17.016,19.67 a 0.36,0.36 0 0 0 0.286,-0.351 V 18.712 A 0.357,0.357 0 0 0 16.944,18.354 H 8.4 a 0.356,0.356 0 0 0 -0.355,0.328 h 0.317 c 0.043,0 0.077,0.02 0.077,0.047 v 0.041 c 0,0.026 -0.034,0.047 -0.077,0.047 h -0.32 v 0.095 h 0.314 c 0.043,0 0.078,0.02 0.078,0.046 V 19 c 0,0.026 -0.035,0.047 -0.077,0.048 H 8.042 v 0.094 h 0.309 c 0.043,0 0.077,0.02 0.077,0.047 v 0.04 c 0,0.026 -0.034,0.047 -0.077,0.048 h -0.31 v 0.043 c 0,0.198 0.16,0.358 0.359,0.358 h 8.544 a 0.4,0.4 0 0 0 0.072,-0.007"
         style="fill:#363636;fill-opacity:1;stroke-width:0.264999;stroke-linecap:square;stroke-linejoin:round;stroke-miterlimit:4.7"
         id="path2" />
      <path
         id="rect5"
         style="fill:#ffffff;stroke-width:0.264999;stroke-linecap:square;stroke-linejoin:round;stroke-miterlimit:4.7"
         d="m 16.068001,18.610001 h 0.087 c 0.0133,0 0.024,0.01784 0.024,0.04 v 0.988 c 0,0.02216 -0.0107,0.04 -0.024,0.04 h -0.087 c -0.0133,0 -0.024,-0.01784 -0.024,-0.04 v -0.988 c 0,-0.02216 0.0107,-0.04 0.024,-0.04 z m -6.2700008,0.003 h 0.087 c 0.013296,0 0.024,0.01784 0.024,0.04 v 0.988 c 0,0.02216 -0.010704,0.04 -0.024,0.04 h -0.087 c -0.013296,0 -0.024,-0.01784 -0.024,-0.04 v -0.988 c 0,-0.02216 0.010704,-0.04 0.024,-0.04 z M 9.425,18.608999 h 0.087 c 0.013296,0 0.024,0.01784 0.024,0.04 v 0.988 c 0,0.02216 -0.010704,0.04 -0.024,0.04 H 9.425 c -0.013296,0 -0.024,-0.01784 -0.024,-0.04 v -0.988 c 0,-0.02216 0.010704,-0.04 0.024,-0.04 z" />
    </g>
    <g
       transform="matrix(1.7811851,0.76673097,-0.76673097,1.7811851,-10.571894,-22.092322)"
       id="g8"
       inkscape:label="mic2">
      <path
         d="m 17.016,19.67 a 0.36,0.36 0 0 0 0.286,-0.351 V 18.712 A 0.357,0.357 0 0 0 16.944,18.354 H 8.4 a 0.356,0.356 0 0 0 -0.355,0.328 h 0.317 c 0.043,0 0.077,0.02 0.077,0.047 v 0.041 c 0,0.026 -0.034,0.047 -0.077,0.047 h -0.32 v 0.095 h 0.314 c 0.043,0 0.078,0.02 0.078,0.046 V 19 c 0,0.026 -0.035,0.047 -0.077,0.048 H 8.042 v 0.094 h 0.309 c 0.043,0 0.077,0.02 0.077,0.047 v 0.04 c 0,0.026 -0.034,0.047 -0.077,0.048 h -0.31 v 0.043 c 0,0.198 0.16,0.358 0.359,0.358 h 8.544 a 0.4,0.4 0 0 0 0.072,-0.007"
         style="fill:#363636;fill-opacity:1;stroke-width:0.264999;stroke-linecap:square;stroke-linejoin:round;stroke-miterlimit:4.7"
         id="path5" />
      <path
         id="rect8"
         style="fill:#ffffff;stroke-width:0.264999;stroke-linecap:square;stroke-linejoin:round;stroke-miterlimit:4.7"
         d="m 16.068001,18.610001 h 0.087 c 0.0133,0 0.024,0.01784 0.024,0.04 v 0.988 c 0,0.02216 -0.0107,0.04 -0.024,0.04 h -0.087 c -0.0133,0 -0.024,-0.01784 -0.024,-0.04 v -0.988 c 0,-0.02216 0.0107,-0.04 0.024,-0.04 z m -6.2700008,0.003 h 0.087 c 0.013296,0 0.024,0.01784 0.024,0.04 v 0.988 c 0,0.02216 -0.010704,0.04 -0.024,0.04 h -0.087 c -0.013296,0 -0.024,-0.01784 -0.024,-0.04 v -0.988 c 0,-0.02216 0.010704,-0.04 0.024,-0.04 z M 9.425,18.608999 h 0.087 c 0.013296,0 0.024,0.01784 0.024,0.04 v 0.988 c 0,0.02216 -0.010704,0.04 -0.024,0.04 H 9.425 c -0.013296,0 -0.024,-0.01784 -0.024,-0.04 v -0.988 c 0,-0.02216 0.010704,-0.04 0.024,-0.04 z" />
    </g>
  </g>
</svg>
