<svg xmlns="http://www.w3.org/2000/svg" xml:space="preserve" width="15" height="30">
    <path d="M10.102 11.674c-.002-.063.001-.288.008-.501.026-.91.007-.981-.386-1.397-.28-.297-.588-.425-1.019-.425-.268 0-.31-.013-.43-.133-.221-.22-.159-.516.109-.516.162-.026.326-1.039-.076-.629-.162.166-.19.168-2.082.165-1.767-.004-1.902-.247-1.983-.783-.149-.991.177-1.585 1.094-1.747.25 0 2.132-.644 2.505-.553.097.026.172.028.188.002.054-.087.51.036.553-.13.038-.148.029-.147 1.699-.204.569-.02.677.02.779.284.059.154.93.002.94-.028.04-.117.287-.197.573-.186.839.01.944.687 1.112 1.338l.996-.014c1.94-.029 2.818.494 2.818 1.678 0 3.864-5.937.32-6.324 2.818-.14 9.702-.058 9.766.012 19.468h-.964c-.006-8.154.104-8.052-.122-18.507m5.58-2.115c1.626-.513 2.072-2.133.77-2.794-.51-.257-.62-.267-2.54-.219l-.171.004c.13.347.185.611-.016.9-.537.773-.984.525-1.731.645-.303.057-.358.66-.086.946.098.103.112.151.089.296l-.028.173.392-.014c1.012-.039 2.162.43 3.321.063m-5.267-.556q.345-.12.703-.134c.197-.008.366-.022.377-.033.046-.046.115-.589.079-.624-.115-.112-.276-.095-.425.044 0 0-1.866.186-2.184-.04-.296-.255-.171.304-.163.468.3.091.601.187.888.319.308.147.725 0 .725 0" style="fill:#000;stroke-width:1" transform="translate(-3.354 -2.5)"/>
</svg>
