<svg xmlns="http://www.w3.org/2000/svg" width="80" height="80"><g transform="rotate(-165.736 19.282 11.352)"><rect width="18.178" height="3.078" x="-4.622" y="45.444" rx=".358" ry=".358" style="fill:#000;stroke:#000;stroke-width:.513887;stroke-linecap:square;stroke-linejoin:round;stroke-miterlimit:4.7;stroke-dasharray:none;stroke-opacity:1" transform="rotate(165.736)"/><rect width="1.539" height="63.134" x="3.697" y="-18.288" rx=".358" ry=".358" style="fill:#000;stroke:none;stroke-width:.513884;stroke-linecap:square;stroke-linejoin:round;stroke-miterlimit:4.7;stroke-dasharray:none;stroke-opacity:1" transform="rotate(165.736)"/><g transform="translate(-25.256 -16.57)scale(1.9392)"><path d="M17.016 19.67a.36.36 0 0 0 .286-.351v-.607a.357.357 0 0 0-.358-.358H8.4a.356.356 0 0 0-.355.328h.317c.043 0 .077.02.077.047v.041c0 .026-.034.047-.077.047h-.32v.095h.314c.043 0 .078.02.078.046V19c0 .026-.035.047-.077.048h-.315v.094h.309c.043 0 .077.02.077.047v.04c0 .026-.034.047-.077.048h-.31v.043c0 .198.16.358.359.358h8.544a.4.4 0 0 0 .072-.007" style="stroke-width:.264999;stroke-linecap:square;stroke-linejoin:round;stroke-miterlimit:4.7;fill:#363636;fill-opacity:1"/><rect width=".135" height="1.068" x="9.401" y="18.609" rx=".024" ry=".04" style="fill:#fff;stroke:none;stroke-width:.264999;stroke-linecap:square;stroke-linejoin:round;stroke-miterlimit:4.7;stroke-dasharray:none;stroke-opacity:1"/><rect width=".135" height="1.068" x="9.774" y="18.613" rx=".024" ry=".04" style="fill:#fff;stroke:none;stroke-width:.264999;stroke-linecap:square;stroke-linejoin:round;stroke-miterlimit:4.7;stroke-dasharray:none;stroke-opacity:1"/><rect width=".135" height="1.068" x="16.044" y="18.61" rx=".024" ry=".04" style="fill:#fff;stroke:none;stroke-width:.264999;stroke-linecap:square;stroke-linejoin:round;stroke-miterlimit:4.7;stroke-dasharray:none;stroke-opacity:1"/></g></g></svg>