<svg xmlns="http://www.w3.org/2000/svg" width="20" height="100">
    <path d="M4.055-18.288h.823c.198 0 .358.23.358.516v90.02c0 .286-.16.517-.358.517h-.823c-.198 0-.358-.23-.358-.517v-90.02c0-.286.16-.516.358-.516m-8.319 90.524h17.462c.198 0 .358.16.358.358v2.362c0 .198-.16.358-.358.358H-4.264a.357.357 0 0 1-.358-.358v-2.362c0-.198.16-.358.358-.358" style="stroke-width:.617134;stroke-linecap:square;stroke-linejoin:round;stroke-miterlimit:4.7" transform="translate(5.172 22.818)"/>
    <path d="M17.016 19.67a.36.36 0 0 0 .286-.351v-.607a.357.357 0 0 0-.358-.358H8.4a.356.356 0 0 0-.355.328h.317c.043 0 .077.02.077.047v.041c0 .026-.034.047-.077.047h-.32v.095h.314c.043 0 .078.02.078.046V19c0 .026-.035.047-.077.048h-.315v.094h.309c.043 0 .077.02.077.047v.04c0 .026-.034.047-.077.048h-.31v.043c0 .198.16.358.359.358h8.544a.4.4 0 0 0 .072-.007" style="fill:#363636;fill-opacity:1;stroke-width:.264999;stroke-linecap:square;stroke-linejoin:round;stroke-miterlimit:4.7" transform="rotate(-165.736 15.605 20.95)scale(1.9392)"/>
    <path d="M16.068 18.61h.087c.013 0 .024.018.024.04v.988c0 .022-.01.04-.024.04h-.087c-.013 0-.024-.018-.024-.04v-.988c0-.022.01-.04.024-.04m-6.27.003h.087c.013 0 .024.018.024.04v.988c0 .022-.01.04-.024.04h-.087c-.013 0-.024-.018-.024-.04v-.988c0-.022.01-.04.024-.04m-.373-.004h.087c.013 0 .024.018.024.04v.988c0 .022-.01.04-.024.04h-.087c-.013 0-.024-.018-.024-.04v-.988c0-.022.01-.04.024-.04" style="fill:#fff;stroke-width:.264999;stroke-linecap:square;stroke-linejoin:round;stroke-miterlimit:4.7" transform="rotate(-165.736 15.605 20.95)scale(1.9392)"/>
</svg>
