<?xml version="1.0" encoding="UTF-8" standalone="no"?>
<!-- Created with Inkscape (http://www.inkscape.org/) -->

<svg
   width="80"
   height="80"
   viewBox="0 0 80 80"
   version="1.1"
   id="svg1"
   inkscape:version="1.3.2 (091e20e, 2023-11-25)"
   sodipodi:docname="mic_on_stand_stereo.svg"
   xmlns:inkscape="http://www.inkscape.org/namespaces/inkscape"
   xmlns:sodipodi="http://sodipodi.sourceforge.net/DTD/sodipodi-0.dtd"
   xmlns="http://www.w3.org/2000/svg"
   xmlns:svg="http://www.w3.org/2000/svg"
   xmlns:rdf="http://www.w3.org/1999/02/22-rdf-syntax-ns#"
   xmlns:cc="http://creativecommons.org/ns#">
  <sodipodi:namedview
     id="namedview1"
     pagecolor="#ffffff"
     bordercolor="#000000"
     borderopacity="0.25"
     inkscape:showpageshadow="2"
     inkscape:pageopacity="0.0"
     inkscape:pagecheckerboard="0"
     inkscape:deskcolor="#d1d1d1"
     inkscape:document-units="px"
     inkscape:zoom="3.3130458"
     inkscape:cx="19.015735"
     inkscape:cy="3.4711262"
     inkscape:window-width="1336"
     inkscape:window-height="828"
     inkscape:window-x="115"
     inkscape:window-y="25"
     inkscape:window-maximized="0"
     inkscape:current-layer="g1"
     showgrid="false" />
  <defs
     id="defs1" />
  <g
     inkscape:label="Слой 1"
     inkscape:groupmode="layer"
     id="layer1">
    <g
       id="g1"
       transform="rotate(-165.73614,19.282182,11.35196)"
       inkscape:label="main">
      <rect
         style="fill:#000000;stroke:#000000;stroke-width:0.513887;stroke-linecap:square;stroke-linejoin:round;stroke-miterlimit:4.7;stroke-dasharray:none;stroke-opacity:1"
         id="rect1"
         width="18.177637"
         height="3.0784702"
         x="-4.6223369"
         y="45.443623"
         rx="0.35826418"
         ry="0.35826415"
         transform="rotate(165.73614)"
         inkscape:label="base" />
      <rect
         style="fill:#000000;stroke:none;stroke-width:0.513884;stroke-linecap:square;stroke-linejoin:round;stroke-miterlimit:4.7;stroke-dasharray:none;stroke-opacity:1"
         id="rect2"
         width="1.5392351"
         height="62.721905"
         x="3.6968641"
         y="-17.876234"
         rx="0.35826415"
         ry="0.35826418"
         transform="rotate(165.73614)"
         inkscape:label="stand" />
      <g
         id="g16"
         transform="matrix(1.7811842,0.76671728,-0.76671728,1.7811842,-6.7652399,-31.154176)"
         inkscape:label="mic">
        <path
           d="m 17.016397,19.669891 c 0.163549,-0.0333 0.285622,-0.177275 0.285622,-0.350944 l -1.54e-4,-0.606744 c 0,-0.198479 -0.159646,-0.357912 -0.358125,-0.357912 l -8.543569,-2.76e-4 c -0.1881407,0 -0.3399329,0.144151 -0.355399,0.32816 l 0.3172217,-1.33e-4 c 0.042752,-6.2e-5 0.076979,0.02083 0.077017,0.04707 l 2.882e-4,0.04098 c 3.85e-5,0.02624 -0.034266,0.04724 -0.077018,0.04731 l -0.320354,3.95e-4 -1.284e-4,0.09388 0.3144629,-4.97e-4 c 0.042752,-6.3e-5 0.077479,0.02071 0.077518,0.04694 l -2.127e-4,0.04111 c 3.86e-5,0.02624 -0.034266,0.04724 -0.077018,0.04731 l -0.3149637,6.25e-4 3.724e-4,0.09375 0.3090726,-7.27e-4 c 0.042752,-6.2e-5 0.077106,0.02133 0.077145,0.04757 l 1.608e-4,0.04048 c 3.85e-5,0.02624 -0.034266,0.04724 -0.077018,0.04731 l -0.3097007,3.53e-4 1.692e-4,0.04261 c 0,0.198478 0.1597738,0.358413 0.3582519,0.358413 l 8.5435698,2.75e-4 c 0.02481,0 0.04943,-0.0026 0.07279,-0.0073 z"
           style="fill:#363636;fill-opacity:1;stroke-width:0.264999;stroke-linecap:square;stroke-linejoin:round;stroke-miterlimit:4.7"
           id="path16" />
        <rect
           style="fill:#ffffff;stroke:none;stroke-width:0.264999;stroke-linecap:square;stroke-linejoin:round;stroke-miterlimit:4.7;stroke-dasharray:none;stroke-opacity:1"
           id="rect5"
           width="0.13541684"
           height="1.0683669"
           x="9.4013491"
           y="18.608601"
           rx="0.024423487"
           ry="0.039794698" />
        <rect
           style="fill:#ffffff;stroke:none;stroke-width:0.264999;stroke-linecap:square;stroke-linejoin:round;stroke-miterlimit:4.7;stroke-dasharray:none;stroke-opacity:1"
           id="rect12"
           width="0.13541684"
           height="1.0683669"
           x="9.773716"
           y="18.612728"
           rx="0.024423487"
           ry="0.039794698" />
        <rect
           style="fill:#ffffff;stroke:none;stroke-width:0.264999;stroke-linecap:square;stroke-linejoin:round;stroke-miterlimit:4.7;stroke-dasharray:none;stroke-opacity:1"
           id="rect16"
           width="0.13541684"
           height="1.0683669"
           x="16.043602"
           y="18.609568"
           rx="0.024423487"
           ry="0.039794698" />
      </g>
      <g
         id="g13"
         transform="matrix(1.7811842,0.76671728,-0.76671728,1.7811842,-10.572259,-22.091737)"
         inkscape:label="mic">
        <path
           d="m 17.016397,19.669891 c 0.163549,-0.0333 0.285622,-0.177275 0.285622,-0.350944 l -1.54e-4,-0.606744 c 0,-0.198479 -0.159646,-0.357912 -0.358125,-0.357912 l -8.543569,-2.76e-4 c -0.1881407,0 -0.3399329,0.144151 -0.355399,0.32816 l 0.3172217,-1.33e-4 c 0.042752,-6.2e-5 0.076979,0.02083 0.077017,0.04707 l 2.882e-4,0.04098 c 3.85e-5,0.02624 -0.034266,0.04724 -0.077018,0.04731 l -0.320354,3.95e-4 -1.284e-4,0.09388 0.3144629,-4.97e-4 c 0.042752,-6.3e-5 0.077479,0.02071 0.077518,0.04694 l -2.127e-4,0.04111 c 3.86e-5,0.02624 -0.034266,0.04724 -0.077018,0.04731 l -0.3149637,6.25e-4 3.724e-4,0.09375 0.3090726,-7.27e-4 c 0.042752,-6.2e-5 0.077106,0.02133 0.077145,0.04757 l 1.608e-4,0.04048 c 3.85e-5,0.02624 -0.034266,0.04724 -0.077018,0.04731 l -0.3097007,3.53e-4 1.692e-4,0.04261 c 0,0.198478 0.1597738,0.358413 0.3582519,0.358413 l 8.5435698,2.75e-4 c 0.02481,0 0.04943,-0.0026 0.07279,-0.0073 z"
           style="fill:#363636;fill-opacity:1;stroke-width:0.264999;stroke-linecap:square;stroke-linejoin:round;stroke-miterlimit:4.7"
           id="path9" />
        <rect
           style="fill:#ffffff;stroke:none;stroke-width:0.264999;stroke-linecap:square;stroke-linejoin:round;stroke-miterlimit:4.7;stroke-dasharray:none;stroke-opacity:1"
           id="rect10"
           width="0.13541684"
           height="1.0683669"
           x="9.4013491"
           y="18.608601"
           rx="0.024423487"
           ry="0.039794698" />
        <rect
           style="fill:#ffffff;stroke:none;stroke-width:0.264999;stroke-linecap:square;stroke-linejoin:round;stroke-miterlimit:4.7;stroke-dasharray:none;stroke-opacity:1"
           id="rect11"
           width="0.13541684"
           height="1.0683669"
           x="9.773716"
           y="18.612728"
           rx="0.024423487"
           ry="0.039794698" />
        <rect
           style="fill:#ffffff;stroke:none;stroke-width:0.264999;stroke-linecap:square;stroke-linejoin:round;stroke-miterlimit:4.7;stroke-dasharray:none;stroke-opacity:1"
           id="rect13"
           width="0.13541684"
           height="1.0683669"
           x="16.043602"
           y="18.609568"
           rx="0.024423487"
           ry="0.039794698" />
      </g>
      <rect
         style="fill:#000000;stroke-width:1.15413;stroke-linecap:square;stroke-linejoin:round;stroke-miterlimit:4.7"
         id="rect9"
         width="1.6712519"
         height="9.1357298"
         x="-8.4152155"
         y="-19.964151"
         transform="matrix(-0.90001465,-0.43585964,0.41710239,-0.9088595,0,0)"
         rx="0.24764097"
         ry="0.90199989" />
    </g>
  </g>
  <metadata
     id="metadata1">
    <rdf:RDF>
      <cc:License
         rdf:about="http://creativecommons.org/licenses/by-nc/4.0/">
        <cc:permits
           rdf:resource="http://creativecommons.org/ns#Reproduction" />
        <cc:permits
           rdf:resource="http://creativecommons.org/ns#Distribution" />
        <cc:requires
           rdf:resource="http://creativecommons.org/ns#Notice" />
        <cc:requires
           rdf:resource="http://creativecommons.org/ns#Attribution" />
        <cc:prohibits
           rdf:resource="http://creativecommons.org/ns#CommercialUse" />
        <cc:permits
           rdf:resource="http://creativecommons.org/ns#DerivativeWorks" />
      </cc:License>
      <cc:Work
         rdf:about="">
        <cc:license
           rdf:resource="http://creativecommons.org/licenses/by-nc/4.0/" />
      </cc:Work>
    </rdf:RDF>
  </metadata>
</svg>
