<svg xmlns="http://www.w3.org/2000/svg" width="40" height="95">
    <g transform="rotate(-165.736 16.276 10.271)">
        <g transform="rotate(135 29.512 23.932)scale(1.9392)">
            <path d="M17.016 19.67a.36.36 0 0 0 .286-.351v-.607a.357.357 0 0 0-.358-.358H8.4a.356.356 0 0 0-.355.328h.317c.043 0 .077.02.077.047v.041c0 .026-.034.047-.077.047h-.32v.095h.314c.043 0 .078.02.078.046V19c0 .026-.035.047-.077.048h-.315v.094h.309c.043 0 .077.02.077.047v.04c0 .026-.034.047-.077.048h-.31v.043c0 .198.16.358.359.358h8.544a.4.4 0 0 0 .072-.007" style="fill:#363636;fill-opacity:1;stroke-width:.264999;stroke-linecap:square;stroke-linejoin:round;stroke-miterlimit:4.7"/>
            <rect width=".135" height="1.068" x="9.401" y="18.609" rx=".024" ry=".04" style="fill:#fff;stroke:none;stroke-width:.264999;stroke-linecap:square;stroke-linejoin:round;stroke-miterlimit:4.7;stroke-dasharray:none;stroke-opacity:1"/>
            <rect width=".135" height="1.068" x="9.774" y="18.613" rx=".024" ry=".04" style="fill:#fff;stroke:none;stroke-width:.264999;stroke-linecap:square;stroke-linejoin:round;stroke-miterlimit:4.7;stroke-dasharray:none;stroke-opacity:1"/>
            <rect width=".135" height="1.068" x="16.044" y="18.61" rx=".024" ry=".04" style="fill:#fff;stroke:none;stroke-width:.264999;stroke-linecap:square;stroke-linejoin:round;stroke-miterlimit:4.7;stroke-dasharray:none;stroke-opacity:1"/>
        </g>
        <path d="M16.336-33.125c-.171.855-2.11 6.858-2.442 6.91L1.435 17.635l.5.664c-.041.145-.541 2.108-.627 2.203-.075.084-1.494.195-2.328-.793-.1-.117.567-1.824.626-2.032l.884-.373L12.972-26.63c-.34-.401 1.577-7.245 1.577-7.245.504-.444 1.961.137 1.787.75" style="color:#000;fill:#000;stroke-width:1;stroke-linecap:round;stroke-linejoin:round;stroke-miterlimit:4.7;-inkscape-stroke:none" transform="scale(-1 1)rotate(28.528 1.817 -29.7)"/>
        <rect width="18.178" height="3.078" x="-10.869" y="65.444" rx=".358" ry=".358" style="fill:#000;stroke:#000;stroke-width:.513887;stroke-linecap:square;stroke-linejoin:round;stroke-miterlimit:4.7;stroke-dasharray:none;stroke-opacity:1" transform="rotate(165.736)"/>
        <path d="m.91-2.996-15.46-60.807" style="fill:#000;stroke:#000;stroke-linecap:round;stroke-linejoin:round;stroke-miterlimit:4.7"/>
        <circle cx="1.495" cy="11.668" r="2.644" style="fill:#000;stroke:#000;stroke-linecap:round;stroke-linejoin:round;stroke-miterlimit:4.7" transform="scale(1 -1)rotate(14.264)"/>
    </g>
</svg>
