<?xml version="1.0" encoding="UTF-8" standalone="no"?>
<!-- Created with Inkscape (http://www.inkscape.org/) -->

<svg
   width="30.820868"
   height="36.424244"
   viewBox="0 0 30.820868 36.424244"
   version="1.1"
   id="svg1"
   xml:space="preserve"
   inkscape:version="1.4 (e7c3feb1, 2024-10-09)"
   sodipodi:docname="mic_pickup_2.svg"
   xmlns:inkscape="http://www.inkscape.org/namespaces/inkscape"
   xmlns:sodipodi="http://sodipodi.sourceforge.net/DTD/sodipodi-0.dtd"
   xmlns="http://www.w3.org/2000/svg"
   xmlns:svg="http://www.w3.org/2000/svg"><sodipodi:namedview
     id="namedview1"
     pagecolor="#ffffff"
     bordercolor="#000000"
     borderopacity="0.25"
     inkscape:showpageshadow="2"
     inkscape:pageopacity="0.0"
     inkscape:pagecheckerboard="0"
     inkscape:deskcolor="#d1d1d1"
     inkscape:document-units="mm"
     inkscape:current-layer="svg1" /><defs
     id="defs1" /><path
     id="path13"
     style="fill:none;fill-opacity:0;stroke:#000000;stroke-width:1.2024;stroke-linecap:round;stroke-linejoin:round;stroke-miterlimit:4.7"
     d="m 17.833415,25.18159 3.01762,-0.45038 m -4.09307,-7.86438 2.95886,0.007 m -0.85071,-1.31486 c 0,0 0.23105,-1.04847 1.35071,-0.95051 2.25525,0.19731 7.60925,0.13055 9.29586,-3.39272 1.68661,-3.52326 0.41706,-6.55901 -4.49334,-6.46253 m -7.76138,8.66142 0.31138,3.46108 -1.04102,-0.023 2.58687,18.97037 3.05118,-1.79091 -2.33903,-17.26605 -0.86507,0.003 -0.33721,-3.61955 z m 2.35241,-4.73745 -0.0607,2.12381 m -7.85807,-0.12136 0.0303,1.82041 m -0.91016,0.4551 -0.0303,1.6687 9.86054,-1.9721 0.0303,-1.85075 z m 8.77013,-11.913 c 2.34983,3.71424 1.44022,7.32743 1.44022,7.32743 m -3.05731,-6.99896 c 2.34983,3.71424 1.44022,7.32743 1.44022,7.32743 m -7.70643,-5.91248 c 2.34983,3.71424 1.44022,7.32743 1.44022,7.32743 m -3.05731,-6.99896 c 2.34983,3.71424 1.44022,7.32743 1.44022,7.32743 M 2.727174,4.61681 20.859565,0.6314 c 3.5411,-0.77832 5.65354,6.62306 1.75065,7.47098 L 4.149352,12.11306 C 0.48174,12.90986 -0.958302,5.42686 2.727174,4.61681 Z" /></svg>
