<svg xmlns="http://www.w3.org/2000/svg" xml:space="preserve" width="30.821" height="36.424">
    <path d="m17.833 25.182 3.018-.45m-4.093-7.865 2.959.007m-.85-1.315s.23-1.048 1.35-.95c2.255.197 7.61.13 9.296-3.393 1.686-3.524.417-6.56-4.494-6.463m-7.761 8.662.311 3.46-1.04-.022 2.586 18.97 3.051-1.79-2.339-17.267-.865.003-.337-3.62zm2.352-4.738-.06 2.124m-7.858-.121.03 1.82m-.91.455-.03 1.669 9.86-1.972.03-1.851zm8.77-11.913c2.35 3.714 1.44 7.328 1.44 7.328m-3.057-7c2.35 3.715 1.44 7.328 1.44 7.328m-7.706-5.912c2.35 3.714 1.44 7.327 1.44 7.327M10.08 3.114c2.35 3.714 1.44 7.327 1.44 7.327M2.728 4.617 20.86.63c3.54-.778 5.653 6.623 1.75 7.471L4.15 12.113C.481 12.91-.959 5.427 2.726 4.617" style="fill:none;fill-opacity:0;stroke:#000;stroke-width:1.2024;stroke-linecap:round;stroke-linejoin:round;stroke-miterlimit:4.7"/>
</svg>
