<svg xmlns="http://www.w3.org/2000/svg" width="30" height="65">
    <g transform="scale(1 -1)rotate(14.264 66.402 61.907)">
        <g transform="rotate(-45 -59.523 56.178)scale(1.9392)">
            <path d="M17.016 19.67a.36.36 0 0 0 .286-.351v-.607a.357.357 0 0 0-.358-.358H8.4a.356.356 0 0 0-.355.328h.317c.043 0 .077.02.077.047v.041c0 .026-.034.047-.077.047h-.32v.095h.314c.043 0 .078.02.078.046V19c0 .026-.035.047-.077.048h-.315v.094h.309c.043 0 .077.02.077.047v.04c0 .026-.034.047-.077.048h-.31v.043c0 .198.16.358.359.358h8.544a.4.4 0 0 0 .072-.007" style="fill:#363636;fill-opacity:1;stroke-width:.264999;stroke-linecap:square;stroke-linejoin:round;stroke-miterlimit:4.7"/>
            <rect width=".135" height="1.068" x="9.401" y="18.609" rx=".024" ry=".04" style="fill:#fff;stroke:none;stroke-width:.264999;stroke-linecap:square;stroke-linejoin:round;stroke-miterlimit:4.7;stroke-dasharray:none;stroke-opacity:1"/>
            <rect width=".135" height="1.068" x="9.774" y="18.613" rx=".024" ry=".04" style="fill:#fff;stroke:none;stroke-width:.264999;stroke-linecap:square;stroke-linejoin:round;stroke-miterlimit:4.7;stroke-dasharray:none;stroke-opacity:1"/>
            <rect width=".135" height="1.068" x="16.044" y="18.61" rx=".024" ry=".04" style="fill:#fff;stroke:none;stroke-width:.264999;stroke-linecap:square;stroke-linejoin:round;stroke-miterlimit:4.7;stroke-dasharray:none;stroke-opacity:1"/>
        </g>
        <path d="M12.157-17.163c-.101.606-1.53 4.802-1.852 4.814L1.671 18.108l.54.519c-.029.102-.597 2.32-.674 2.383-.067.055-1.446.025-2.338-.755-.106-.093.645-2.113.686-2.26l.835-.2 8.651-30.517c-.363-.316.98-5.123.98-5.123.458-.282 1.928.252 1.806.682" style="color:#000;fill:#000;stroke-linecap:round;stroke-linejoin:round;stroke-miterlimit:4.7;-inkscape-stroke:none" transform="scale(1 -1)rotate(28.528 -4.221 -6.925)"/>
        <rect width="18.178" height="3.078" x="-6.091" y="45.444" rx=".358" ry=".358" style="fill:#000;stroke:#000;stroke-width:.513887;stroke-linecap:square;stroke-linejoin:round;stroke-miterlimit:4.7;stroke-dasharray:none;stroke-opacity:1" transform="scale(1 -1)rotate(14.264)"/>
        <path d="M4.129-4.25a2 2 0 0 0-2.432-1.446 2 2 0 0 0-1.445 2.43A2 2 0 0 0 2.683-1.82a2 2 0 0 0 1.446-2.43M3.227.151-8.24-44.95v0" style="stroke:#000;stroke-linecap:round;stroke-linejoin:round;stroke-miterlimit:4.7"/>
    </g>
</svg>
