<svg xmlns="http://www.w3.org/2000/svg" xml:space="preserve" width="100.001" height="65">
    <g style="stroke-width:1.14186" transform="matrix(.87659 0 0 .87494 -37.376 -102.411)">
        <path d="M43.209 131.395h112.938v54.011H43.209z" style="fill:#404040;stroke:#000;stroke-width:1.14186;stroke-linecap:square;stroke-linejoin:round;stroke-miterlimit:4.7"/>
        <g style="stroke-width:1.14186" transform="translate(-2.493 3.65)">
            <circle cx="53.127" cy="174.113" r="3.633" style="fill:#404040;stroke:#000;stroke-width:1.14186;stroke-linecap:square;stroke-linejoin:round;stroke-miterlimit:4.7"/>
            <circle cx="51.637" cy="173.722" r=".552" style="fill:#f90;stroke:none;stroke-width:1.14186;stroke-linecap:square;stroke-linejoin:round;stroke-miterlimit:4.7"/>
            <circle cx="54.647" cy="173.722" r=".552" style="fill:#f90;stroke:none;stroke-width:1.14186;stroke-linecap:square;stroke-linejoin:round;stroke-miterlimit:4.7"/>
            <circle cx="53.092" cy="172.292" r=".552" style="fill:#f90;stroke:none;stroke-width:1.14186;stroke-linecap:square;stroke-linejoin:round;stroke-miterlimit:4.7"/>
        </g>
        <g style="stroke-width:1.14186" transform="translate(8.09 3.65)">
            <circle cx="53.127" cy="174.113" r="3.633" style="fill:#404040;stroke:#000;stroke-width:1.14186;stroke-linecap:square;stroke-linejoin:round;stroke-miterlimit:4.7"/>
            <circle cx="51.637" cy="173.722" r=".552" style="fill:#f90;stroke:none;stroke-width:1.14186;stroke-linecap:square;stroke-linejoin:round;stroke-miterlimit:4.7"/>
            <circle cx="54.647" cy="173.722" r=".552" style="fill:#f90;stroke:none;stroke-width:1.14186;stroke-linecap:square;stroke-linejoin:round;stroke-miterlimit:4.7"/>
            <circle cx="53.092" cy="172.292" r=".552" style="fill:#f90;stroke:none;stroke-width:1.14186;stroke-linecap:square;stroke-linejoin:round;stroke-miterlimit:4.7"/>
        </g>
        <g style="stroke-width:1.14186" transform="translate(18.674 3.65)">
            <circle cx="53.127" cy="174.113" r="3.633" style="fill:#404040;stroke:#000;stroke-width:1.14186;stroke-linecap:square;stroke-linejoin:round;stroke-miterlimit:4.7"/>
            <circle cx="51.637" cy="173.722" r=".552" style="fill:#f90;stroke:none;stroke-width:1.14186;stroke-linecap:square;stroke-linejoin:round;stroke-miterlimit:4.7"/>
            <circle cx="54.647" cy="173.722" r=".552" style="fill:#f90;stroke:none;stroke-width:1.14186;stroke-linecap:square;stroke-linejoin:round;stroke-miterlimit:4.7"/>
            <circle cx="53.092" cy="172.292" r=".552" style="fill:#f90;stroke:none;stroke-width:1.14186;stroke-linecap:square;stroke-linejoin:round;stroke-miterlimit:4.7"/>
        </g>
        <g style="stroke-width:1.14186" transform="translate(29.257 3.65)">
            <circle cx="53.127" cy="174.113" r="3.633" style="fill:#404040;stroke:#000;stroke-width:1.14186;stroke-linecap:square;stroke-linejoin:round;stroke-miterlimit:4.7"/>
            <circle cx="51.637" cy="173.722" r=".552" style="fill:#f90;stroke:none;stroke-width:1.14186;stroke-linecap:square;stroke-linejoin:round;stroke-miterlimit:4.7"/>
            <circle cx="54.647" cy="173.722" r=".552" style="fill:#f90;stroke:none;stroke-width:1.14186;stroke-linecap:square;stroke-linejoin:round;stroke-miterlimit:4.7"/>
            <circle cx="53.092" cy="172.292" r=".552" style="fill:#f90;stroke:none;stroke-width:1.14186;stroke-linecap:square;stroke-linejoin:round;stroke-miterlimit:4.7"/>
        </g>
        <g style="stroke-width:1.14186" transform="translate(39.84 3.65)">
            <circle cx="53.127" cy="174.113" r="3.633" style="fill:#404040;stroke:#000;stroke-width:1.14186;stroke-linecap:square;stroke-linejoin:round;stroke-miterlimit:4.7"/>
            <circle cx="51.637" cy="173.722" r=".552" style="fill:#f90;stroke:none;stroke-width:1.14186;stroke-linecap:square;stroke-linejoin:round;stroke-miterlimit:4.7"/>
            <circle cx="54.647" cy="173.722" r=".552" style="fill:#f90;stroke:none;stroke-width:1.14186;stroke-linecap:square;stroke-linejoin:round;stroke-miterlimit:4.7"/>
            <circle cx="53.092" cy="172.292" r=".552" style="fill:#f90;stroke:none;stroke-width:1.14186;stroke-linecap:square;stroke-linejoin:round;stroke-miterlimit:4.7"/>
        </g>
        <g style="stroke-width:1.14186" transform="translate(50.424 3.65)">
            <circle cx="53.127" cy="174.113" r="3.633" style="fill:#404040;stroke:#000;stroke-width:1.14186;stroke-linecap:square;stroke-linejoin:round;stroke-miterlimit:4.7"/>
            <circle cx="51.637" cy="173.722" r=".552" style="fill:#f90;stroke:none;stroke-width:1.14186;stroke-linecap:square;stroke-linejoin:round;stroke-miterlimit:4.7"/>
            <circle cx="54.647" cy="173.722" r=".552" style="fill:#f90;stroke:none;stroke-width:1.14186;stroke-linecap:square;stroke-linejoin:round;stroke-miterlimit:4.7"/>
            <circle cx="53.092" cy="172.292" r=".552" style="fill:#f90;stroke:none;stroke-width:1.14186;stroke-linecap:square;stroke-linejoin:round;stroke-miterlimit:4.7"/>
        </g>
        <g style="stroke-width:1.14186" transform="translate(61.007 3.65)">
            <circle cx="53.127" cy="174.113" r="3.633" style="fill:#404040;stroke:#000;stroke-width:1.14186;stroke-linecap:square;stroke-linejoin:round;stroke-miterlimit:4.7"/>
            <circle cx="51.637" cy="173.722" r=".552" style="fill:#f90;stroke:none;stroke-width:1.14186;stroke-linecap:square;stroke-linejoin:round;stroke-miterlimit:4.7"/>
            <circle cx="54.647" cy="173.722" r=".552" style="fill:#f90;stroke:none;stroke-width:1.14186;stroke-linecap:square;stroke-linejoin:round;stroke-miterlimit:4.7"/>
            <circle cx="53.092" cy="172.292" r=".552" style="fill:#f90;stroke:none;stroke-width:1.14186;stroke-linecap:square;stroke-linejoin:round;stroke-miterlimit:4.7"/>
        </g>
        <g style="stroke-width:1.14186" transform="translate(71.59 3.65)">
            <circle cx="53.127" cy="174.113" r="3.633" style="fill:#404040;stroke:#000;stroke-width:1.14186;stroke-linecap:square;stroke-linejoin:round;stroke-miterlimit:4.7"/>
            <circle cx="51.637" cy="173.722" r=".552" style="fill:#f90;stroke:none;stroke-width:1.14186;stroke-linecap:square;stroke-linejoin:round;stroke-miterlimit:4.7"/>
            <circle cx="54.647" cy="173.722" r=".552" style="fill:#f90;stroke:none;stroke-width:1.14186;stroke-linecap:square;stroke-linejoin:round;stroke-miterlimit:4.7"/>
            <circle cx="53.092" cy="172.292" r=".552" style="fill:#f90;stroke:none;stroke-width:1.14186;stroke-linecap:square;stroke-linejoin:round;stroke-miterlimit:4.7"/>
        </g>
        <path d="M44.748 170.43h108.294v.729H44.748z" style="fill:#bfbfbf;stroke:none;stroke-width:1.13694;stroke-linecap:square;stroke-linejoin:round;stroke-miterlimit:4.7"/>
        <g style="stroke-width:1.14186">
            <g style="stroke-width:1.14186" transform="translate(-2.493 -11.167)">
                <circle cx="53.127" cy="174.113" r="3.633" style="fill:#404040;stroke:#000;stroke-width:1.14186;stroke-linecap:square;stroke-linejoin:round;stroke-miterlimit:4.7"/>
                <path d="M53.145 172.302a1.6 1.6 0 0 0-1.451.927c-.32 0-.708.249-.708.704 0 .549.543.734.739.7a1.6 1.6 0 0 0 .747.721c-.033.308.21.756.7.756.477 0 .742-.432.698-.784a1.6 1.6 0 0 0 .68-.665c.321.025.742-.228.742-.7a.704.704 0 0 0-.683-.704 1.6 1.6 0 0 0-1.464-.955" style="fill:#000;stroke:none;stroke-width:.757736;stroke-linecap:square;stroke-linejoin:round;stroke-miterlimit:4.7"/>
            </g>
            <g style="stroke-width:1.14186" transform="translate(8.09 -11.167)">
                <circle cx="53.127" cy="174.113" r="3.633" style="fill:#404040;stroke:#000;stroke-width:1.14186;stroke-linecap:square;stroke-linejoin:round;stroke-miterlimit:4.7"/>
                <path d="M53.145 172.302a1.6 1.6 0 0 0-1.451.927c-.32 0-.708.249-.708.704 0 .549.543.734.739.7a1.6 1.6 0 0 0 .747.721c-.033.308.21.756.7.756.477 0 .742-.432.698-.784a1.6 1.6 0 0 0 .68-.665c.321.025.742-.228.742-.7a.704.704 0 0 0-.683-.704 1.6 1.6 0 0 0-1.464-.955" style="fill:#000;stroke:none;stroke-width:.757736;stroke-linecap:square;stroke-linejoin:round;stroke-miterlimit:4.7"/>
            </g>
            <g style="stroke-width:1.14186" transform="translate(18.674 -11.167)">
                <circle cx="53.127" cy="174.113" r="3.633" style="fill:#404040;stroke:#000;stroke-width:1.14186;stroke-linecap:square;stroke-linejoin:round;stroke-miterlimit:4.7"/>
                <path d="M53.145 172.302a1.6 1.6 0 0 0-1.451.927c-.32 0-.708.249-.708.704 0 .549.543.734.739.7a1.6 1.6 0 0 0 .747.721c-.033.308.21.756.7.756.477 0 .742-.432.698-.784a1.6 1.6 0 0 0 .68-.665c.321.025.742-.228.742-.7a.704.704 0 0 0-.683-.704 1.6 1.6 0 0 0-1.464-.955" style="fill:#000;stroke:none;stroke-width:.757736;stroke-linecap:square;stroke-linejoin:round;stroke-miterlimit:4.7"/>
            </g>
            <g style="stroke-width:1.14186" transform="translate(29.257 -11.167)">
                <circle cx="53.127" cy="174.113" r="3.633" style="fill:#404040;stroke:#000;stroke-width:1.14186;stroke-linecap:square;stroke-linejoin:round;stroke-miterlimit:4.7"/>
                <path d="M53.145 172.302a1.6 1.6 0 0 0-1.451.927c-.32 0-.708.249-.708.704 0 .549.543.734.739.7a1.6 1.6 0 0 0 .747.721c-.033.308.21.756.7.756.477 0 .742-.432.698-.784a1.6 1.6 0 0 0 .68-.665c.321.025.742-.228.742-.7a.704.704 0 0 0-.683-.704 1.6 1.6 0 0 0-1.464-.955" style="fill:#000;stroke:none;stroke-width:.757736;stroke-linecap:square;stroke-linejoin:round;stroke-miterlimit:4.7"/>
            </g>
            <g style="stroke-width:1.14186" transform="translate(39.84 -11.167)">
                <circle cx="53.127" cy="174.113" r="3.633" style="fill:#404040;stroke:#000;stroke-width:1.14186;stroke-linecap:square;stroke-linejoin:round;stroke-miterlimit:4.7"/>
                <path d="M53.145 172.302a1.6 1.6 0 0 0-1.451.927c-.32 0-.708.249-.708.704 0 .549.543.734.739.7a1.6 1.6 0 0 0 .747.721c-.033.308.21.756.7.756.477 0 .742-.432.698-.784a1.6 1.6 0 0 0 .68-.665c.321.025.742-.228.742-.7a.704.704 0 0 0-.683-.704 1.6 1.6 0 0 0-1.464-.955" style="fill:#000;stroke:none;stroke-width:.757736;stroke-linecap:square;stroke-linejoin:round;stroke-miterlimit:4.7"/>
            </g>
            <g style="stroke-width:1.14186" transform="translate(50.424 -11.167)">
                <circle cx="53.127" cy="174.113" r="3.633" style="fill:#404040;stroke:#000;stroke-width:1.14186;stroke-linecap:square;stroke-linejoin:round;stroke-miterlimit:4.7"/>
                <path d="M53.145 172.302a1.6 1.6 0 0 0-1.451.927c-.32 0-.708.249-.708.704 0 .549.543.734.739.7a1.6 1.6 0 0 0 .747.721c-.033.308.21.756.7.756.477 0 .742-.432.698-.784a1.6 1.6 0 0 0 .68-.665c.321.025.742-.228.742-.7a.704.704 0 0 0-.683-.704 1.6 1.6 0 0 0-1.464-.955" style="fill:#000;stroke:none;stroke-width:.757736;stroke-linecap:square;stroke-linejoin:round;stroke-miterlimit:4.7"/>
            </g>
            <g style="stroke-width:1.14186" transform="translate(61.007 -11.167)">
                <circle cx="53.127" cy="174.113" r="3.633" style="fill:#404040;stroke:#000;stroke-width:1.14186;stroke-linecap:square;stroke-linejoin:round;stroke-miterlimit:4.7"/>
                <path d="M53.145 172.302a1.6 1.6 0 0 0-1.451.927c-.32 0-.708.249-.708.704 0 .549.543.734.739.7a1.6 1.6 0 0 0 .747.721c-.033.308.21.756.7.756.477 0 .742-.432.698-.784a1.6 1.6 0 0 0 .68-.665c.321.025.742-.228.742-.7a.704.704 0 0 0-.683-.704 1.6 1.6 0 0 0-1.464-.955" style="fill:#000;stroke:none;stroke-width:.757736;stroke-linecap:square;stroke-linejoin:round;stroke-miterlimit:4.7"/>
            </g>
            <g style="stroke-width:1.14186" transform="translate(71.59 -11.167)">
                <circle cx="53.127" cy="174.113" r="3.633" style="fill:#404040;stroke:#000;stroke-width:1.14186;stroke-linecap:square;stroke-linejoin:round;stroke-miterlimit:4.7"/>
                <path d="M53.145 172.302a1.6 1.6 0 0 0-1.451.927c-.32 0-.708.249-.708.704 0 .549.543.734.739.7a1.6 1.6 0 0 0 .747.721c-.033.308.21.756.7.756.477 0 .742-.432.698-.784a1.6 1.6 0 0 0 .68-.665c.321.025.742-.228.742-.7a.704.704 0 0 0-.683-.704 1.6 1.6 0 0 0-1.464-.955" style="fill:#000;stroke:none;stroke-width:.757736;stroke-linecap:square;stroke-linejoin:round;stroke-miterlimit:4.7"/>
            </g>
        </g>
        <g style="stroke-width:1.14186">
            <g style="stroke-width:1.14186" transform="translate(-2.493 -21.75)">
                <circle cx="53.127" cy="174.113" r="3.633" style="fill:#404040;stroke:#000;stroke-width:1.14186;stroke-linecap:square;stroke-linejoin:round;stroke-miterlimit:4.7"/>
                <path d="M53.145 172.302a1.6 1.6 0 0 0-1.451.927c-.32 0-.708.249-.708.704 0 .549.543.734.739.7a1.6 1.6 0 0 0 .747.721c-.033.308.21.756.7.756.477 0 .742-.432.698-.784a1.6 1.6 0 0 0 .68-.665c.321.025.742-.228.742-.7a.704.704 0 0 0-.683-.704 1.6 1.6 0 0 0-1.464-.955" style="fill:#000;stroke:none;stroke-width:.757736;stroke-linecap:square;stroke-linejoin:round;stroke-miterlimit:4.7"/>
            </g>
            <g style="stroke-width:1.14186" transform="translate(8.09 -21.75)">
                <circle cx="53.127" cy="174.113" r="3.633" style="fill:#404040;stroke:#000;stroke-width:1.14186;stroke-linecap:square;stroke-linejoin:round;stroke-miterlimit:4.7"/>
                <path d="M53.145 172.302a1.6 1.6 0 0 0-1.451.927c-.32 0-.708.249-.708.704 0 .549.543.734.739.7a1.6 1.6 0 0 0 .747.721c-.033.308.21.756.7.756.477 0 .742-.432.698-.784a1.6 1.6 0 0 0 .68-.665c.321.025.742-.228.742-.7a.704.704 0 0 0-.683-.704 1.6 1.6 0 0 0-1.464-.955" style="fill:#000;stroke:none;stroke-width:.757736;stroke-linecap:square;stroke-linejoin:round;stroke-miterlimit:4.7"/>
            </g>
            <g style="stroke-width:1.14186" transform="translate(18.674 -21.75)">
                <circle cx="53.127" cy="174.113" r="3.633" style="fill:#404040;stroke:#000;stroke-width:1.14186;stroke-linecap:square;stroke-linejoin:round;stroke-miterlimit:4.7"/>
                <path d="M53.145 172.302a1.6 1.6 0 0 0-1.451.927c-.32 0-.708.249-.708.704 0 .549.543.734.739.7a1.6 1.6 0 0 0 .747.721c-.033.308.21.756.7.756.477 0 .742-.432.698-.784a1.6 1.6 0 0 0 .68-.665c.321.025.742-.228.742-.7a.704.704 0 0 0-.683-.704 1.6 1.6 0 0 0-1.464-.955" style="fill:#000;stroke:none;stroke-width:.757736;stroke-linecap:square;stroke-linejoin:round;stroke-miterlimit:4.7"/>
            </g>
            <g style="stroke-width:1.14186" transform="translate(29.257 -21.75)">
                <circle cx="53.127" cy="174.113" r="3.633" style="fill:#404040;stroke:#000;stroke-width:1.14186;stroke-linecap:square;stroke-linejoin:round;stroke-miterlimit:4.7"/>
                <path d="M53.145 172.302a1.6 1.6 0 0 0-1.451.927c-.32 0-.708.249-.708.704 0 .549.543.734.739.7a1.6 1.6 0 0 0 .747.721c-.033.308.21.756.7.756.477 0 .742-.432.698-.784a1.6 1.6 0 0 0 .68-.665c.321.025.742-.228.742-.7a.704.704 0 0 0-.683-.704 1.6 1.6 0 0 0-1.464-.955" style="fill:#000;stroke:none;stroke-width:.757736;stroke-linecap:square;stroke-linejoin:round;stroke-miterlimit:4.7"/>
            </g>
            <g style="stroke-width:1.14186" transform="translate(39.84 -21.75)">
                <circle cx="53.127" cy="174.113" r="3.633" style="fill:#404040;stroke:#000;stroke-width:1.14186;stroke-linecap:square;stroke-linejoin:round;stroke-miterlimit:4.7"/>
                <path d="M53.145 172.302a1.6 1.6 0 0 0-1.451.927c-.32 0-.708.249-.708.704 0 .549.543.734.739.7a1.6 1.6 0 0 0 .747.721c-.033.308.21.756.7.756.477 0 .742-.432.698-.784a1.6 1.6 0 0 0 .68-.665c.321.025.742-.228.742-.7a.704.704 0 0 0-.683-.704 1.6 1.6 0 0 0-1.464-.955" style="fill:#000;stroke:none;stroke-width:.757736;stroke-linecap:square;stroke-linejoin:round;stroke-miterlimit:4.7"/>
            </g>
            <g style="stroke-width:1.14186" transform="translate(50.424 -21.75)">
                <circle cx="53.127" cy="174.113" r="3.633" style="fill:#404040;stroke:#000;stroke-width:1.14186;stroke-linecap:square;stroke-linejoin:round;stroke-miterlimit:4.7"/>
                <path d="M53.145 172.302a1.6 1.6 0 0 0-1.451.927c-.32 0-.708.249-.708.704 0 .549.543.734.739.7a1.6 1.6 0 0 0 .747.721c-.033.308.21.756.7.756.477 0 .742-.432.698-.784a1.6 1.6 0 0 0 .68-.665c.321.025.742-.228.742-.7a.704.704 0 0 0-.683-.704 1.6 1.6 0 0 0-1.464-.955" style="fill:#000;stroke:none;stroke-width:.757736;stroke-linecap:square;stroke-linejoin:round;stroke-miterlimit:4.7"/>
            </g>
            <g style="stroke-width:1.14186" transform="translate(61.007 -21.75)">
                <circle cx="53.127" cy="174.113" r="3.633" style="fill:#404040;stroke:#000;stroke-width:1.14186;stroke-linecap:square;stroke-linejoin:round;stroke-miterlimit:4.7"/>
                <path d="M53.145 172.302a1.6 1.6 0 0 0-1.451.927c-.32 0-.708.249-.708.704 0 .549.543.734.739.7a1.6 1.6 0 0 0 .747.721c-.033.308.21.756.7.756.477 0 .742-.432.698-.784a1.6 1.6 0 0 0 .68-.665c.321.025.742-.228.742-.7a.704.704 0 0 0-.683-.704 1.6 1.6 0 0 0-1.464-.955" style="fill:#000;stroke:none;stroke-width:.757736;stroke-linecap:square;stroke-linejoin:round;stroke-miterlimit:4.7"/>
            </g>
            <g style="stroke-width:1.14186" transform="translate(71.59 -21.75)">
                <circle cx="53.127" cy="174.113" r="3.633" style="fill:#404040;stroke:#000;stroke-width:1.14186;stroke-linecap:square;stroke-linejoin:round;stroke-miterlimit:4.7"/>
                <path d="M53.145 172.302a1.6 1.6 0 0 0-1.451.927c-.32 0-.708.249-.708.704 0 .549.543.734.739.7a1.6 1.6 0 0 0 .747.721c-.033.308.21.756.7.756.477 0 .742-.432.698-.784a1.6 1.6 0 0 0 .68-.665c.321.025.742-.228.742-.7a.704.704 0 0 0-.683-.704 1.6 1.6 0 0 0-1.464-.955" style="fill:#000;stroke:none;stroke-width:.757736;stroke-linecap:square;stroke-linejoin:round;stroke-miterlimit:4.7"/>
            </g>
        </g>
        <path d="M44.748 143.971h62.903v.729H44.748z" style="fill:#bfbfbf;stroke:none;stroke-width:.82429;stroke-linecap:square;stroke-linejoin:round;stroke-miterlimit:4.7"/>
        <circle cx="82.311" cy="138.462" r="2.918" style="fill:#000;stroke:#bfbfbf;stroke-width:1.14186;stroke-linecap:square;stroke-linejoin:round;stroke-miterlimit:4.7"/>
        <circle cx="71.728" cy="138.462" r="2.918" style="fill:#000;stroke:#bfbfbf;stroke-width:1.14186;stroke-linecap:square;stroke-linejoin:round;stroke-miterlimit:4.7"/>
        <path d="M47.376 135.262h6.575v6.2h-6.575zm52.917 0h6.575v6.2h-6.575z" style="fill:#000;stroke:#bfbfbf;stroke-width:1.14186;stroke-linecap:square;stroke-linejoin:round;stroke-miterlimit:4.7"/>
        <path d="M91.392 134.884h3.412v3.217h-3.412z" style="fill:#000;stroke:#bfbfbf;stroke-width:.592482;stroke-linecap:square;stroke-linejoin:round;stroke-miterlimit:4.7"/>
        <circle cx="137.739" cy="164.257" r="2.255" style="fill:#000;stroke:#bfbfbf;stroke-width:1.72627373;stroke-linecap:square;stroke-linejoin:round;stroke-miterlimit:4.7;stroke-dasharray:none"/>
        <circle cx="148.323" cy="164.257" r="2.255" style="fill:#000;stroke:#bfbfbf;stroke-width:1.72627373;stroke-linecap:square;stroke-linejoin:round;stroke-miterlimit:4.7;stroke-dasharray:none"/>
        <circle cx="137.739" cy="178.015" r="2.255" style="fill:#000;stroke:#bfbfbf;stroke-width:1.72627373;stroke-linecap:square;stroke-linejoin:round;stroke-miterlimit:4.7;stroke-dasharray:none"/>
        <circle cx="148.323" cy="178.015" r="2.255" style="fill:#000;stroke:#000;stroke-width:2.28372;stroke-linecap:square;stroke-linejoin:round;stroke-miterlimit:4.7;stroke-dasharray:none"/>
        <path d="M146.304 118.191h.683v21.287h-.683z" style="fill:#000;stroke:#000;stroke-width:2.28372;stroke-linecap:square;stroke-linejoin:round;stroke-miterlimit:4.7;stroke-dasharray:none"/>
    </g>
</svg>
