<svg xmlns="http://www.w3.org/2000/svg" width="90" height="30">
    <path fill="none" d="M47.917 4.249h1186.761c24.177 0 43.642 19.464 43.642 43.642v234.337c0 24.177-19.464 43.642-43.642 43.642H47.918c-24.178 0-43.643-19.464-43.643-43.642V47.891c0-24.178 19.464-43.642 43.642-43.642z" style="fill:gray;stroke:#000;stroke-width:8.52647" transform="translate(0 3.418)scale(.07017)"/>
    <path fill="#fff" d="M236.832 44.214h283.355v244.508H236.832Z" style="stroke:#000;stroke-width:8.55047502;stroke-dasharray:none" transform="translate(0 3.418)scale(.07017)"/>
    <path d="M142.125 189.16v24.877h56.86V189.16zm0 42.217v24.877h56.86v-24.877zM39.818 273.594v24.877h56.86v-24.877zm102.307 0v24.877h56.86v-24.877z" style="fill:#fff;stroke:#000;stroke-width:8.55047502;stroke-dasharray:none" transform="translate(0 3.418)scale(.07017)"/>
    <path d="M573.893 36.89v118.432h146.425V36.891Zm170.529 0v118.432h146.426V36.891Zm170.527 0v118.432h146.424V36.891Zm170.526 0v118.432h146.423V36.891ZM573.992 173.159V291.59h146.42V173.158Zm170.53 0V291.59h146.42V173.158Zm170.527 0V291.59h146.42V173.158Zm170.525 0V291.59h146.42V173.158Z" style="fill:#bfbfbf;stroke:#000;stroke-width:8.55047502;stroke-dasharray:none" transform="translate(0 3.418)scale(.07017)"/>
</svg>
