<?xml version="1.0" encoding="UTF-8" standalone="no"?>
<svg
   id="svg6850"
   viewBox="0 0 99.999998 100"
   version="1.1"
   sodipodi:docname="midi_controller_mixer_1.svg"
   width="100"
   height="100"
   inkscape:version="1.3.2 (091e20e, 2023-11-25)"
   xmlns:inkscape="http://www.inkscape.org/namespaces/inkscape"
   xmlns:sodipodi="http://sodipodi.sourceforge.net/DTD/sodipodi-0.dtd"
   xmlns="http://www.w3.org/2000/svg"
   xmlns:svg="http://www.w3.org/2000/svg"
   xmlns:rdf="http://www.w3.org/1999/02/22-rdf-syntax-ns#"
   xmlns:cc="http://creativecommons.org/ns#"
   xmlns:dc="http://purl.org/dc/elements/1.1/">
  <defs
     id="defs1" />
  <sodipodi:namedview
     id="namedview1"
     pagecolor="#ffffff"
     bordercolor="#000000"
     borderopacity="0.25"
     inkscape:showpageshadow="2"
     inkscape:pageopacity="0.0"
     inkscape:pagecheckerboard="0"
     inkscape:deskcolor="#d1d1d1"
     inkscape:zoom="3.6197988"
     inkscape:cx="28.730879"
     inkscape:cy="118.79113"
     inkscape:window-width="1648"
     inkscape:window-height="847"
     inkscape:window-x="0"
     inkscape:window-y="25"
     inkscape:window-maximized="0"
     inkscape:current-layer="svg6850" />
  <g
     id="layer1"
     transform="translate(-67.646,-378.2245)">
    <g
       id="g14378"
       stroke="#000000"
       stroke-width="2.4236"
       transform="matrix(0.2468705,0,0,0.2468705,-74.574037,186.75734)">
      <path
         id="rect14153"
         transform="translate(-38.838,153.23)"
         fill="none"
         d="m 648.8,915.21 h 337.33 c 6.8723,0 12.405,5.5326 12.405,12.405 v 66.609 c 0,6.8722 -5.5326,12.405 -12.405,12.405 H 648.8 c -6.8723,0 -12.405,-5.5326 -12.405,-12.405 v -66.609 c 0,-6.8723 5.5326,-12.405 12.405,-12.405 z" />
      <path
         id="rect14155"
         transform="translate(-38.838,153.23)"
         fill="none"
         d="m 646.5,967.74 h 16.162 v 7.0711 H 646.5 Z" />
      <path
         id="rect14157"
         fill="none"
         d="m 627.66,1121 h 16.162 v 7.071 H 627.66 Z" />
      <path
         id="rect14159"
         fill="none"
         d="m 647.66,1121 h 16.162 v 7.071 H 647.66 Z" />
      <path
         id="rect14161"
         fill="none"
         d="m 607.66,1133 h 16.162 v 7.071 H 607.66 Z" />
      <path
         id="rect14163"
         fill="none"
         d="m 627.66,1133 h 16.162 v 7.071 H 627.66 Z" />
      <path
         id="rect14165"
         fill="none"
         d="m 647.66,1133 h 16.162 v 7.071 H 647.66 Z" />
      <path
         id="rect14167"
         fill="none"
         d="m 607.66,1145 h 16.162 v 7.071 H 607.66 Z" />
      <g
         id="g14371"
         stroke-width="2.4236"
         transform="translate(7.5898e-6)">
        <path
           id="path14169"
           stroke-width="2.4236"
           transform="translate(-38.838,153.23)"
           fill="none"
           d="M 727.06,1000.8 V 945.242" />
        <path
           id="rect14191"
           transform="translate(-38.838,153.23)"
           fill="none"
           d="m 708.39,955.77 h 10 v 10.714 h -10 z" />
        <path
           id="rect14193"
           fill="none"
           d="m 669.56,1133 h 10 v 10.714 h -10 z" />
        <path
           id="path14195"
           transform="translate(-38.838,153.23)"
           fill="none"
           d="m 733.75,929.7 c 0,3.7476 -3.078,6.7857 -6.875,6.7857 -3.797,0 -6.875,-3.0381 -6.875,-6.7857 0,-3.7476 3.078,-6.7857 6.875,-6.7857 3.797,0 6.875,3.0381 6.875,6.7857 z" />
        <path
           id="rect14197"
           fill="#ffffff"
           d="m 682.95,1113.7 h 11.071 v 24.286 H 682.95 Z" />
      </g>
      <path
         id="path14199"
         transform="translate(-38.838,153.23)"
         fill="#ffffff"
         d="m 673.93,995.33 c 0,1.1342 -0.87944,2.0536 -1.9643,2.0536 -1.0848,0 -1.9643,-0.91941 -1.9643,-2.0536 0,-1.13419 0.87944,-2.0536 1.9643,-2.0536 1.0848,0 1.9643,0.91942 1.9643,2.0536 z" />
      <path
         id="path14203"
         transform="translate(-30.838,153.23)"
         fill="#ffffff"
         d="m 673.93,995.33 c 0,1.1342 -0.87944,2.0536 -1.9643,2.0536 -1.0848,0 -1.9643,-0.91941 -1.9643,-2.0536 0,-1.13419 0.87944,-2.0536 1.9643,-2.0536 1.0848,0 1.9643,0.91942 1.9643,2.0536 z" />
      <path
         id="path14205"
         transform="translate(-22.838,153.23)"
         fill="#ffffff"
         d="m 673.93,995.33 c 0,1.1342 -0.87944,2.0536 -1.9643,2.0536 -1.0848,0 -1.9643,-0.91941 -1.9643,-2.0536 0,-1.13419 0.87944,-2.0536 1.9643,-2.0536 1.0848,0 1.9643,0.91942 1.9643,2.0536 z" />
      <path
         id="path14207"
         transform="translate(-14.838,153.23)"
         fill="#ffffff"
         d="m 673.93,995.33 c 0,1.1342 -0.87944,2.0536 -1.9643,2.0536 -1.0848,0 -1.9643,-0.91941 -1.9643,-2.0536 0,-1.13419 0.87944,-2.0536 1.9643,-2.0536 1.0848,0 1.9643,0.91942 1.9643,2.0536 z" />
      <g
         id="g14364"
         stroke-width="2.4236"
         transform="translate(-0.57143)">
        <path
           id="path14224"
           stroke-width="2.4236"
           fill="none"
           d="m 720.22,1154 v -55.558" />
        <path
           id="rect14226"
           fill="none"
           d="m 701.56,1109 h 10 v 10.714 h -10 z" />
        <path
           id="rect14228"
           fill="none"
           d="m 701.56,1133 h 10 v 10.714 h -10 z" />
        <path
           id="path14230"
           transform="translate(-6.8378,153.23)"
           fill="none"
           d="m 733.75,929.7 c 0,3.7476 -3.078,6.7857 -6.875,6.7857 -3.797,0 -6.875,-3.0381 -6.875,-6.7857 0,-3.7476 3.078,-6.7857 6.875,-6.7857 3.797,0 6.875,3.0381 6.875,6.7857 z" />
        <path
           id="rect14232"
           fill="#ffffff"
           d="m 714.95,1113.7 h 11.071 v 24.286 H 714.95 Z" />
      </g>
      <g
         id="g14357"
         stroke-width="2.4236"
         transform="translate(-1.1428)">
        <path
           id="path14234"
           stroke-width="2.4236"
           fill="none"
           d="m 752.22,1154 v -55.558" />
        <path
           id="rect14236"
           fill="none"
           d="m 733.56,1109 h 10 v 10.714 h -10 z" />
        <path
           id="rect14238"
           fill="none"
           d="m 733.56,1133 h 10 v 10.714 h -10 z" />
        <path
           id="path14240"
           transform="translate(25.162,153.23)"
           fill="none"
           d="m 733.75,929.7 c 0,3.7476 -3.078,6.7857 -6.875,6.7857 -3.797,0 -6.875,-3.0381 -6.875,-6.7857 0,-3.7476 3.078,-6.7857 6.875,-6.7857 3.797,0 6.875,3.0381 6.875,6.7857 z" />
        <path
           id="rect14242"
           fill="#ffffff"
           d="m 746.95,1113.7 h 11.071 v 24.286 H 746.95 Z" />
      </g>
      <g
         id="g14344"
         stroke-width="2.4236"
         transform="translate(0.28574)">
        <path
           id="path14244"
           stroke-width="2.4236"
           fill="none"
           d="m 782.22,1154 v -55.558" />
        <path
           id="rect14246"
           fill="none"
           d="m 763.56,1109 h 10 v 10.714 h -10 z" />
        <path
           id="rect14248"
           fill="none"
           d="m 763.56,1133 h 10 v 10.714 h -10 z" />
        <path
           id="path14250"
           transform="translate(55.162,153.23)"
           fill="none"
           d="m 733.75,929.7 c 0,3.7476 -3.078,6.7857 -6.875,6.7857 -3.797,0 -6.875,-3.0381 -6.875,-6.7857 0,-3.7476 3.078,-6.7857 6.875,-6.7857 3.797,0 6.875,3.0381 6.875,6.7857 z" />
        <path
           id="rect14252"
           fill="#ffffff"
           d="m 776.95,1113.7 h 11.071 v 24.286 H 776.95 Z" />
        <g
           id="g14337"
           stroke-width="2.4236">
          <path
             id="path14254"
             stroke-width="2.4236"
             fill="none"
             d="m 812.22,1154 v -55.558" />
          <path
             id="rect14256"
             fill="none"
             d="m 793.56,1109 h 10 v 10.714 h -10 z" />
          <path
             id="rect14258"
             fill="none"
             d="m 793.56,1133 h 10 v 10.714 h -10 z" />
          <path
             id="path14260"
             transform="translate(85.162,153.23)"
             fill="none"
             d="m 733.75,929.7 c 0,3.7476 -3.078,6.7857 -6.875,6.7857 -3.797,0 -6.875,-3.0381 -6.875,-6.7857 0,-3.7476 3.078,-6.7857 6.875,-6.7857 3.797,0 6.875,3.0381 6.875,6.7857 z" />
          <path
             id="rect14262"
             fill="#ffffff"
             d="m 806.95,1113.7 h 11.071 v 24.286 H 806.95 Z" />
        </g>
      </g>
      <g
         id="g14330"
         stroke-width="2.4236"
         transform="translate(1.7143)">
        <path
           id="path14264"
           stroke-width="2.4236"
           fill="none"
           d="m 842.22,1154 v -55.558" />
        <path
           id="rect14266"
           fill="none"
           d="m 823.56,1109 h 10 v 10.714 h -10 z" />
        <path
           id="rect14268"
           fill="none"
           d="m 823.56,1133 h 10 v 10.714 h -10 z" />
        <path
           id="path14270"
           transform="translate(115.16,153.23)"
           fill="none"
           d="m 733.75,929.7 c 0,3.7476 -3.078,6.7857 -6.875,6.7857 -3.797,0 -6.875,-3.0381 -6.875,-6.7857 0,-3.7476 3.078,-6.7857 6.875,-6.7857 3.797,0 6.875,3.0381 6.875,6.7857 z" />
        <path
           id="rect14272"
           fill="#ffffff"
           d="m 836.95,1113.7 h 11.071 v 24.286 H 836.95 Z" />
      </g>
      <g
         id="g14323"
         stroke-width="2.4236"
         transform="translate(1.1429)">
        <path
           id="path14274"
           stroke-width="2.4236"
           fill="none"
           d="m 874.22,1154 v -55.558" />
        <path
           id="rect14276"
           fill="none"
           d="m 855.56,1109 h 10 v 10.714 h -10 z" />
        <path
           id="rect14278"
           fill="none"
           d="m 855.56,1133 h 10 v 10.714 h -10 z" />
        <path
           id="path14280"
           transform="translate(147.16,153.23)"
           fill="none"
           d="m 733.75,929.7 c 0,3.7476 -3.078,6.7857 -6.875,6.7857 -3.797,0 -6.875,-3.0381 -6.875,-6.7857 0,-3.7476 3.078,-6.7857 6.875,-6.7857 3.797,0 6.875,3.0381 6.875,6.7857 z" />
        <path
           id="rect14282"
           fill="#ffffff"
           d="m 868.95,1113.7 h 11.071 v 24.286 H 868.95 Z" />
      </g>
      <g
         id="g14311"
         stroke-width="2.4236"
         transform="translate(0.57151)">
        <path
           id="path14284"
           stroke-width="2.4236"
           fill="none"
           d="m 906.22,1154 v -55.558" />
        <path
           id="rect14286"
           fill="none"
           d="m 887.56,1109 h 10 v 10.714 h -10 z" />
        <path
           id="rect14288"
           fill="none"
           d="m 887.56,1133 h 10 v 10.714 h -10 z" />
        <path
           id="path14290"
           transform="translate(179.16,153.23)"
           fill="none"
           d="m 733.75,929.7 c 0,3.7476 -3.078,6.7857 -6.875,6.7857 -3.797,0 -6.875,-3.0381 -6.875,-6.7857 0,-3.7476 3.078,-6.7857 6.875,-6.7857 3.797,0 6.875,3.0381 6.875,6.7857 z" />
        <path
           id="rect14292"
           fill="#ffffff"
           d="m 900.95,1113.7 h 11.071 v 24.286 H 900.95 Z" />
      </g>
      <g
         id="g14304"
         stroke-width="2.4236"
         transform="translate(9.9143e-5)">
        <path
           id="path14294"
           stroke-width="2.4236"
           fill="none"
           d="m 938.22,1154 v -55.558" />
        <path
           id="rect14296"
           fill="none"
           d="m 919.56,1109 h 10 v 10.714 h -10 z" />
        <path
           id="rect14298"
           fill="none"
           d="m 919.56,1133 h 10 v 10.714 h -10 z" />
        <path
           id="path14300"
           transform="translate(211.16,153.23)"
           fill="none"
           d="m 733.75,929.7 c 0,3.7476 -3.078,6.7857 -6.875,6.7857 -3.797,0 -6.875,-3.0381 -6.875,-6.7857 0,-3.7476 3.078,-6.7857 6.875,-6.7857 3.797,0 6.875,3.0381 6.875,6.7857 z" />
        <path
           id="rect14302"
           fill="#ffffff"
           d="m 932.95,1113.7 h 11.071 v 24.286 H 932.95 Z" />
      </g>
    </g>
  </g>
  <metadata
     id="metadata1">
    <rdf:RDF>
      <cc:Work>
        <dc:format>image/svg+xml</dc:format>
        <dc:type
           rdf:resource="http://purl.org/dc/dcmitype/StillImage" />
        <cc:license
           rdf:resource="http://creativecommons.org/publicdomain/zero/1.0/" />
        <dc:publisher>
          <cc:Agent
             rdf:about="http://openclipart.org/">
            <dc:title>Openclipart</dc:title>
          </cc:Agent>
        </dc:publisher>
        <dc:title>MIDI Mixer Controller Interface</dc:title>
        <dc:date>2012-09-21T21:30:34</dc:date>
        <dc:description>Protable MIDI controller device for a music rider. </dc:description>
        <dc:source>http://openclipart.org/detail/172445/midi-mixer-controller-interface-by-diegomadero-172445</dc:source>
        <dc:creator>
          <cc:Agent>
            <dc:title>diegomadero</dc:title>
          </cc:Agent>
        </dc:creator>
        <dc:subject>
          <rdf:Bag>
            <rdf:li>audio</rdf:li>
            <rdf:li>clip art</rdf:li>
            <rdf:li>clipart</rdf:li>
            <rdf:li>controlador</rdf:li>
            <rdf:li>controller</rdf:li>
            <rdf:li>digital</rdf:li>
            <rdf:li>interface</rdf:li>
            <rdf:li>mezcladora</rdf:li>
            <rdf:li>midi</rdf:li>
            <rdf:li>mixer</rdf:li>
            <rdf:li>nano</rdf:li>
            <rdf:li>sliders</rdf:li>
            <rdf:li>visuals</rdf:li>
          </rdf:Bag>
        </dc:subject>
      </cc:Work>
      <cc:License
         rdf:about="http://creativecommons.org/licenses/publicdomain/">
        <cc:permits
           rdf:resource="http://creativecommons.org/ns#Reproduction" />
        <cc:permits
           rdf:resource="http://creativecommons.org/ns#Distribution" />
        <cc:permits
           rdf:resource="http://creativecommons.org/ns#DerivativeWorks" />
      </cc:License>
    </rdf:RDF>
  </metadata>
  <path
     style="fill:#808080;stroke-width:0.0138513;stroke-linecap:square;stroke-linejoin:round;stroke-miterlimit:4.7"
     d="m 27.042928,77.057434 c -0.249398,-0.116113 -0.386976,-0.235061 -0.52669,-0.455366 -0.382257,-0.602757 -0.319868,-1.159761 0.184651,-1.648558 0.58443,-0.566217 1.305608,-0.564518 1.874541,0.0044 0.66921,0.669209 0.509619,1.668801 -0.333514,2.088952 -0.425106,0.211839 -0.760313,0.21479 -1.198988,0.01056 z"
     id="path1" />
  <path
     style="fill:#808080;stroke-width:0.0138513;stroke-linecap:square;stroke-linejoin:round;stroke-miterlimit:4.7"
     d="m 34.885985,77.113146 c -0.788376,-0.341484 -1.081119,-1.297224 -0.605039,-1.975318 0.712291,-1.014539 2.306855,-0.638995 2.450898,0.577223 0.04749,0.400949 -0.05468,0.72876 -0.322039,1.033261 -0.377745,0.430227 -1.018612,0.583664 -1.52382,0.364834 z"
     id="path2" />
  <path
     style="fill:#808080;stroke-width:0.0138513;stroke-linecap:square;stroke-linejoin:round;stroke-miterlimit:4.7"
     d="m 42.682037,77.131108 c -0.331231,-0.105483 -0.732925,-0.537889 -0.833547,-0.897277 -0.197354,-0.704879 0.218054,-1.423116 0.945381,-1.634556 0.840266,-0.244271 1.694471,0.385967 1.701204,1.255159 0.0073,0.939668 -0.889142,1.570894 -1.813038,1.276674 z"
     id="path3" />
  <path
     style="fill:#808080;stroke-width:0.0138513;stroke-linecap:square;stroke-linejoin:round;stroke-miterlimit:4.7"
     d="m 50.38013,77.097524 c -0.303337,-0.145525 -0.640591,-0.483949 -0.736933,-0.739487 -0.108004,-0.286472 -0.08199,-0.795802 0.0542,-1.06138 0.485174,-0.946071 1.803151,-1.00837 2.357197,-0.111422 0.388253,0.628544 0.212723,1.395269 -0.414442,1.810307 -0.345594,0.228703 -0.902014,0.273738 -1.260025,0.101982 z"
     id="path4" />
  <path
     style="fill:#808080;stroke-width:0.0138513;stroke-linecap:square;stroke-linejoin:round;stroke-miterlimit:4.7"
     d="m 50.38013,77.050326 c -0.544485,-0.282603 -0.763382,-0.660024 -0.729595,-1.25797 0.02094,-0.37061 0.05453,-0.474374 0.219531,-0.678241 0.495959,-0.612774 1.304302,-0.699432 1.872304,-0.20072 0.740555,0.650216 0.57661,1.766144 -0.314149,2.138327 -0.305834,0.127786 -0.800468,0.127127 -1.048091,-0.0014 z"
     id="path5" />
  <path
     style="fill:#808080;stroke-width:0.0111887;stroke-linecap:square;stroke-linejoin:round;stroke-miterlimit:4.7"
     d="m 73.375233,77.141793 c -0.8649,-0.307092 -1.178797,-1.406064 -0.601615,-2.106286 0.188936,-0.229212 0.600137,-0.455791 0.902359,-0.497215 0.81839,-0.112173 1.641576,0.703946 1.521008,1.50795 -0.125328,0.835747 -1.026738,1.37783 -1.821752,1.095551 z"
     id="path6" />
  <path
     style="fill:#808080;stroke-width:0.0111887;stroke-linecap:square;stroke-linejoin:round;stroke-miterlimit:4.7"
     d="m 81.107978,77.134695 c -0.131683,-0.04649 -0.335367,-0.185668 -0.472674,-0.322976 -0.65667,-0.65667 -0.50402,-1.655756 0.322947,-2.113675 0.235544,-0.130428 0.331603,-0.152896 0.641324,-0.150001 0.775318,0.0072 1.345584,0.568004 1.345958,1.323511 2.67e-4,0.540481 -0.254062,0.942148 -0.755077,1.192508 -0.367847,0.183815 -0.700437,0.205517 -1.082478,0.07063 z"
     id="path7" />
  <path
     style="fill:#808080;stroke-width:0.0111887;stroke-linecap:square;stroke-linejoin:round;stroke-miterlimit:4.7"
     d="m 88.937292,77.163019 c -0.470827,-0.177488 -0.804673,-0.537212 -0.911382,-0.982025 -0.131768,-0.54927 0.122515,-1.141806 0.616737,-1.437136 0.486968,-0.290994 0.934052,-0.291543 1.419024,-0.0017 0.32419,0.193724 0.59419,0.590334 0.648519,0.952624 0.07709,0.514085 -0.245206,1.120995 -0.72687,1.368749 -0.288865,0.148584 -0.789529,0.196222 -1.046028,0.09953 z"
     id="path8" />
  <path
     style="fill:#808080;stroke-width:0.0111887;stroke-linecap:square;stroke-linejoin:round;stroke-miterlimit:4.7"
     d="m 65.61398,77.142566 c -0.11952,-0.0441 -0.321166,-0.171596 -0.448103,-0.28333 -0.70506,-0.620619 -0.559526,-1.735653 0.282209,-2.162192 0.537216,-0.272229 1.104799,-0.19802 1.540156,0.201367 0.709648,0.651016 0.552402,1.736088 -0.315776,2.178999 -0.277199,0.141417 -0.769637,0.171729 -1.058486,0.06516 z"
     id="path9" />
  <path
     style="fill:#808080;stroke-width:0.0111887;stroke-linecap:square;stroke-linejoin:round;stroke-miterlimit:4.7"
     d="m 57.821272,77.123015 c -0.946088,-0.381347 -1.157326,-1.601254 -0.390874,-2.257308 0.224413,-0.192089 0.618022,-0.347207 0.881033,-0.347207 0.474899,0 1.031809,0.358028 1.246384,0.80128 0.139379,0.287918 0.143061,0.806682 0.0078,1.0982 -0.298541,0.643405 -1.096793,0.966046 -1.744339,0.705035 z"
     id="path10" />
  <path
     style="fill:#808080;stroke-width:0.022034;stroke-linecap:square;stroke-linejoin:round;stroke-miterlimit:4.7"
     d="m 49.960711,86.497654 v -2.664571 h 1.024836 1.024835 v 2.664571 2.664572 h -1.024835 -1.024836 z"
     id="path11" />
  <path
     style="fill:#808080;stroke-width:0.022034;stroke-linecap:square;stroke-linejoin:round;stroke-miterlimit:4.7"
     d="m 57.442008,86.497654 v -2.664571 h 1.024835 1.024835 v 2.664571 2.664572 h -1.024835 -1.024835 z"
     id="path12" />
  <path
     style="fill:#808080;stroke-width:0.022034;stroke-linecap:square;stroke-linejoin:round;stroke-miterlimit:4.7"
     d="m 42.274448,86.497654 v -2.664571 h 1.024835 1.024835 v 2.664571 2.664572 h -1.024835 -1.024835 z"
     id="path13" />
  <path
     style="fill:#808080;stroke-width:0.022034;stroke-linecap:square;stroke-linejoin:round;stroke-miterlimit:4.7"
     d="m 34.485701,86.497654 v -2.664571 h 1.024835 1.024836 v 2.664571 2.664572 h -1.024836 -1.024835 z"
     id="path14" />
  <path
     style="fill:#808080;stroke-width:0.022034;stroke-linecap:square;stroke-linejoin:round;stroke-miterlimit:4.7"
     d="m 26.696955,86.497654 v -2.664571 h 1.024835 1.024835 v 2.664571 2.664572 H 27.72179 26.696955 Z"
     id="path15" />
  <path
     style="fill:#808080;stroke-width:0.022034;stroke-linecap:square;stroke-linejoin:round;stroke-miterlimit:4.7"
     d="m 80.705765,86.497654 v -2.664571 h 1.024835 1.024835 v 2.664571 2.664572 H 81.7306 80.705765 Z"
     id="path16" />
  <path
     style="fill:#808080;stroke-width:0.022034;stroke-linecap:square;stroke-linejoin:round;stroke-miterlimit:4.7"
     d="m 88.494511,86.497654 v -2.664571 h 0.973594 0.973593 v 2.664571 2.664572 h -0.973593 -0.973594 z"
     id="path17" />
  <path
     style="fill:#808080;stroke-width:0.022034;stroke-linecap:square;stroke-linejoin:round;stroke-miterlimit:4.7"
     d="m 72.917018,86.497654 v -2.664571 h 1.024835 1.024835 v 2.664571 2.664572 h -1.024835 -1.024835 z"
     id="path18" />
  <path
     style="fill:#ffcc00;stroke-width:0.013309;stroke-linecap:square;stroke-linejoin:round;stroke-miterlimit:4.7"
     d="m 23.881598,88.524146 c 0.265414,-0.01163 0.683254,-0.01156 0.928533,1.57e-4 0.245279,0.01172 0.02812,0.02123 -0.482571,0.02115 -0.510693,-8.7e-5 -0.711376,-0.0097 -0.445962,-0.02131 z"
     id="path20" />
  <path
     style="fill:#ffcc00;stroke-width:0.013309;stroke-linecap:square;stroke-linejoin:round;stroke-miterlimit:4.7"
     d="m 24.037393,88.527923 c 0.04469,-0.01788 0.09808,-0.01568 0.118646,0.0049 0.02057,0.02057 -0.01599,0.0352 -0.08125,0.03251 -0.07211,-0.003 -0.08678,-0.01764 -0.0374,-0.0374 z"
     id="path21" />
  <path
     style="fill:#ffcc00;stroke-width:0.013309;stroke-linecap:square;stroke-linejoin:round;stroke-miterlimit:4.7"
     d="m 23.429978,89.560644 v -0.990435 h 0.897582 0.897581 v 0.990435 0.990435 H 24.32756 23.429978 Z"
     id="path22" />
  <path
     style="fill:#ffcc00;stroke-width:0.013309;stroke-linecap:square;stroke-linejoin:round;stroke-miterlimit:4.7"
     d="m 31.167751,89.560644 v -0.990435 h 0.897582 0.897582 v 0.990435 0.990435 h -0.897582 -0.897582 z"
     id="path23" />
  <path
     style="fill:#ffcc00;stroke-width:0.013309;stroke-linecap:square;stroke-linejoin:round;stroke-miterlimit:4.7"
     d="m 38.905525,89.560644 v -0.990435 h 0.897581 0.897582 v 0.990435 0.990435 h -0.897582 -0.897581 z"
     id="path24" />
  <path
     style="fill:#ffcc00;stroke-width:0.013309;stroke-linecap:square;stroke-linejoin:round;stroke-miterlimit:4.7"
     d="m 46.7052,89.560644 v -0.990435 h 0.897582 0.897582 v 0.990435 0.990435 H 47.602782 46.7052 Z"
     id="path25" />
  <path
     style="fill:#ffcc00;stroke-width:0.013309;stroke-linecap:square;stroke-linejoin:round;stroke-miterlimit:4.7"
     d="m 54.071561,89.560644 v -0.990435 h 0.897581 0.897582 v 0.990435 0.990435 h -0.897582 -0.897581 z"
     id="path26" />
  <path
     style="fill:#ffcc00;stroke-width:0.013309;stroke-linecap:square;stroke-linejoin:round;stroke-miterlimit:4.7"
     d="m 61.871236,89.560644 v -0.990435 h 0.897582 0.897582 v 0.990435 0.990435 h -0.897582 -0.897582 z"
     id="path27" />
  <path
     style="fill:#ffcc00;stroke-width:0.013309;stroke-linecap:square;stroke-linejoin:round;stroke-miterlimit:4.7"
     d="m 69.60901,89.560644 v -0.990435 h 0.897581 0.897582 v 0.990435 0.990435 H 70.506591 69.60901 Z"
     id="path28" />
  <path
     style="fill:#ffcc00;stroke-width:0.013309;stroke-linecap:square;stroke-linejoin:round;stroke-miterlimit:4.7"
     d="m 77.346783,89.560644 v -0.990435 h 0.897582 0.897582 v 0.990435 0.990435 h -0.897582 -0.897582 z"
     id="path29" />
  <path
     style="fill:#cc0000;stroke-width:0.013309;stroke-linecap:square;stroke-linejoin:round;stroke-miterlimit:4.7"
     d="m 85.146459,83.618034 v -0.990435 h 0.897581 0.897582 v 0.990435 0.990435 H 86.04404 85.146459 Z"
     id="path31" />
  <path
     style="fill:#cc0000;stroke-width:0.013309;stroke-linecap:square;stroke-linejoin:round;stroke-miterlimit:4.7"
     d="m 77.346783,83.618034 v -0.990435 h 0.897582 0.897582 v 0.990435 0.990435 h -0.897582 -0.897582 z"
     id="path32" />
  <path
     style="fill:#cc0000;stroke-width:0.013309;stroke-linecap:square;stroke-linejoin:round;stroke-miterlimit:4.7"
     d="m 69.60901,83.618034 v -0.990435 h 0.897581 0.897582 v 0.990435 0.990435 H 70.506591 69.60901 Z"
     id="path33" />
  <path
     style="fill:#cc0000;stroke-width:0.013309;stroke-linecap:square;stroke-linejoin:round;stroke-miterlimit:4.7"
     d="m 61.871236,83.618034 v -0.990435 h 0.897582 0.897582 v 0.990435 0.990435 h -0.897582 -0.897582 z"
     id="path34" />
  <path
     style="fill:#cc0000;stroke-width:0.0122372;stroke-linecap:square;stroke-linejoin:round;stroke-miterlimit:4.7"
     d="m 54.099934,83.619468 v -0.996053 h 0.910677 0.910678 v 0.996053 0.996054 h -0.910678 -0.910677 z"
     id="path35" />
  <path
     style="fill:#cc0000;stroke-width:0.0122372;stroke-linecap:square;stroke-linejoin:round;stroke-miterlimit:4.7"
     d="m 46.700679,83.619468 v -0.996053 h 0.882219 0.882219 v 0.996053 0.996054 h -0.882219 -0.882219 z"
     id="path36" />
  <path
     style="fill:#cc0000;stroke-width:0.0122372;stroke-linecap:square;stroke-linejoin:round;stroke-miterlimit:4.7"
     d="m 38.903003,83.619468 v -0.996053 h 0.910678 0.910677 v 0.996053 0.996054 h -0.910677 -0.910678 z"
     id="path37" />
  <path
     style="fill:#ffcc00;stroke-width:0.00784115;stroke-linecap:square;stroke-linejoin:round;stroke-miterlimit:4.7"
     d="m 85.103852,89.565609 v -1.002938 h 0.911762 0.911762 v 1.002938 1.002938 h -0.911762 -0.911762 z"
     id="path41" />
  <path
     style="fill:#cc0000;stroke-width:0.0097943;stroke-linecap:square;stroke-linejoin:round;stroke-miterlimit:4.7"
     d="m 23.392431,83.634345 v -0.979429 h 0.911098 0.911097 v 0.979429 0.97943 h -0.911097 -0.911098 z"
     id="path42" />
  <path
     style="fill:#cc0000;stroke-width:0.0097943;stroke-linecap:square;stroke-linejoin:round;stroke-miterlimit:4.7"
     d="m 31.136761,83.634345 v -0.979429 h 0.911097 0.911098 v 0.979429 0.97943 h -0.911098 -0.911097 z"
     id="path43" />
  <path
     style="fill:#808080;stroke-width:0.0135303;stroke-linecap:square;stroke-linejoin:round;stroke-miterlimit:4.7"
     d="m 65.165527,86.45402 v -2.674588 h 1.038369 1.038369 v 2.674588 2.674587 h -1.038369 -1.038369 z"
     id="path44" />
  <path
     style="fill:#404040;stroke-width:0.0273841;stroke-linecap:square;stroke-linejoin:round;stroke-miterlimit:4.7"
     d="M 7.5637404,94.357318 C 6.796402,94.082439 6.290825,93.636241 5.9727857,92.953216 l -0.3024342,-0.649511 -0.00124,-8.741986 -0.00124,-8.741986 0.3558936,-0.681258 c 0.259108,-0.495989 0.5248343,-0.785706 0.9771116,-1.065328 L 7.6220861,72.689078 H 49.981837 92.341588 l 0.607848,0.357301 c 0.334318,0.196516 0.764184,0.593539 0.955258,0.882273 l 0.34741,0.524971 v 9.136962 9.136964 l -0.387759,0.552284 c -0.213268,0.303757 -0.643134,0.695573 -0.955257,0.870703 l -0.5675,0.31842 -42.158711,0.02665 C 15.944838,94.517246 7.937662,94.491265 7.5637404,94.357318 Z M 28.08458,91.666866 v -1.846832 h 0.700522 0.700522 V 86.44479 83.069546 H 28.785102 28.08458 v -1.719464 -1.719464 h -0.382104 -0.382103 v 1.719464 1.719464 h -0.636838 -0.636839 v 3.375244 3.375244 h 0.636839 0.636838 v 1.846832 1.846832 h 0.382103 0.382104 z m 7.76943,0 v -1.846832 h 0.700522 0.700522 V 86.44479 83.069546 H 36.554532 35.85401 v -1.719464 -1.719464 h -0.382103 -0.382104 v 1.719464 1.719464 h -0.636838 -0.636839 v 3.375244 3.375244 h 0.636839 0.636838 v 1.846832 1.846832 h 0.382104 0.382103 z m 7.741085,-0.03184 0.03534,-1.81499 h 0.697026 0.697025 V 86.44479 83.069546 H 44.32766 43.630834 l -0.03554,-1.687622 -0.03554,-1.687622 -0.350261,-0.0403 -0.350261,-0.0403 v 1.727924 1.727924 h -0.636839 -0.636838 v 3.375244 3.375244 h 0.636838 0.636839 v 1.855292 1.855291 l 0.350261,-0.0403 0.350261,-0.0403 z m 7.670407,0.03184 v -1.846832 h 0.764207 0.764206 V 86.44479 83.069546 h -0.764206 -0.764207 v -1.719464 -1.719464 h -0.318419 -0.318419 v 1.719464 1.719464 h -0.636839 -0.636838 v 3.375244 3.375244 h 0.636838 0.636839 v 1.846832 1.846832 h 0.318419 0.318419 z m 7.514695,0 v -1.846832 h 0.700522 0.700523 V 86.44479 83.069546 h -0.700523 -0.700522 v -1.719464 -1.719464 h -0.382103 -0.382103 v 1.719464 1.719464 h -0.636839 -0.636838 v 3.375244 3.375244 h 0.636838 0.636839 v 1.846832 1.846832 h 0.382103 0.382103 z m 7.642062,0 v -1.846832 h 0.764207 0.764206 V 86.44479 83.069546 H 67.186466 66.422259 V 81.350082 79.630618 H 66.10384 65.785421 v 1.719464 1.719464 h -0.636839 -0.636838 v 3.375244 3.375244 h 0.636838 0.636839 v 1.846832 1.846832 h 0.318419 0.318419 z m 7.769431,0 v -1.846832 h 0.764206 0.764206 V 86.44479 83.069546 H 74.955896 74.19169 v -1.719464 -1.719464 h -0.31842 -0.318419 v 1.719464 1.719464 h -0.636838 -0.636839 v 3.375244 3.375244 h 0.636839 0.636838 v 1.846832 1.846832 h 0.318419 0.31842 z m 7.76943,0 v -1.846832 h 0.764206 0.764206 V 86.44479 83.069546 H 82.725326 81.96112 v -1.719464 -1.719464 h -0.318419 -0.31842 v 1.719464 1.719464 h -0.700522 -0.700523 v -0.573155 -0.573155 h -1.659477 -1.659477 l 0.03554,1.687623 0.03554,1.687622 h 1.624069 1.62407 l -1.31e-4,1.305519 -1.32e-4,1.305519 h -1.65578 -1.65578 v 1.65578 1.65578 h 1.65578 1.65578 v -0.700522 -0.700523 h 0.700523 0.700522 v 1.846832 1.846832 h 0.31842 0.318419 z m 7.76943,0 v -1.846832 h 0.700522 0.700523 V 86.44479 83.069546 H 90.431072 89.73055 v -1.719464 -1.719464 h -0.318419 -0.31842 v 1.719464 1.719464 h -0.700522 -0.700522 v 3.375244 3.375244 h 0.700522 0.700522 v 1.846832 1.846832 h 0.31842 0.318419 z M 12.163616,92.048969 V 90.838976 H 9.8073135 7.4510109 v 1.209993 1.209993 h 2.3563026 2.3563025 z m 2.579196,0.547977 c 0.29418,-0.340221 0.281273,-0.630458 -0.04657,-1.047243 -0.548569,-0.697393 -1.702927,-0.07066 -1.423114,0.772644 0.225108,0.678437 0.995959,0.822465 1.469684,0.274599 z m 1.910516,0.04976 c 0.503562,-0.432485 0.0821,-1.425628 -0.604997,-1.425628 -0.687777,0 -1.107398,0.990706 -0.604996,1.428368 0.429147,0.37385 0.772418,0.373073 1.209993,-0.0027 z m 2.037883,-0.04976 c 0.292933,-0.33878 0.281422,-0.630269 -0.04109,-1.040271 -0.637332,-0.810237 -1.806251,0.01347 -1.328946,0.936476 0.291524,0.563748 0.930468,0.612154 1.370032,0.103795 z m 1.910516,0.04976 c 0.503562,-0.432485 0.0821,-1.425628 -0.604997,-1.425628 -0.687777,0 -1.107398,0.990706 -0.604997,1.428368 0.429148,0.37385 0.772418,0.373073 1.209994,-0.0027 z m 5.317601,-3.081408 v -1.65578 h -1.592096 -1.592096 v 1.65578 1.65578 h 1.592096 1.592096 z m 7.769431,0 v -1.65578 h -1.592097 -1.592096 v 1.65578 1.65578 h 1.592096 1.592097 z m 7.76943,0 v -1.65578 h -1.592097 -1.592096 v 1.65578 1.65578 h 1.592096 1.592097 z m 7.76943,0 v -1.65578 h -1.592096 -1.592097 v 1.65578 1.65578 h 1.592097 1.592096 z m 7.387327,0 v -1.65578 H 55.02285 53.430753 v 1.65578 1.65578 h 1.592097 1.592096 z m 7.76943,0 v -1.65578 H 62.79228 61.200183 v 1.65578 1.65578 h 1.592097 1.592096 z m 7.76943,0 v -1.65578 H 70.56171 68.969614 v 1.65578 1.65578 h 1.592096 1.592096 z m 15.411493,0 v -1.65578 h -1.592096 -1.592097 v 1.65578 1.65578 h 1.592097 1.592096 z M 12.163616,89.119512 V 87.909519 H 9.8073135 7.4510109 v 1.209993 1.209993 h 2.3563026 2.3563025 z m 4.967341,0 v -1.209993 h -2.356303 -2.356303 v 1.209993 1.209993 h 2.356303 2.356303 z m 4.839973,0 v -1.209993 h -2.356303 -2.356303 v 1.209993 1.209993 h 2.356303 2.356303 z M 12.163616,86.126371 V 84.852694 H 9.8073135 7.4510109 v 1.273677 1.273677 h 2.3563026 2.3563025 z m 4.940111,0.03184 -0.03645,-1.241835 -2.324461,-0.03472 -2.324461,-0.03472 v 1.27655 1.276551 h 2.360915 2.360915 z m 4.867203,-0.03472 v -1.27655 l -2.324461,0.03472 -2.324461,0.03472 -0.03645,1.241835 -0.03645,1.241835 h 2.360915 2.360915 z m 3.948398,-2.480796 V 81.92323 h -1.592096 -1.592096 v 1.719465 1.719464 h 1.592096 1.592096 z m 7.769431,0 V 81.92323 h -1.592097 -1.592096 v 1.719465 1.719464 h 1.592096 1.592097 z m 7.76943,0 V 81.92323 h -1.592097 -1.592096 v 1.719465 1.719464 h 1.592096 1.592097 z m 7.76943,0 V 81.92323 h -1.592096 -1.592097 v 1.719465 1.719464 h 1.592097 1.592096 z m 7.387327,0 V 81.923236 H 55.02285 53.430753 v 1.719465 1.719464 h 1.592097 1.592096 z m 7.76943,0 V 81.923236 H 62.79228 61.200183 v 1.719465 1.719464 h 1.592097 1.592096 z m 7.76943,0 V 81.923236 H 70.56171 68.969614 v 1.719465 1.719464 h 1.592096 1.592096 z m 15.411493,0 V 81.92323 h -1.592096 -1.592097 v 1.719465 1.719464 h 1.592097 1.592096 z M 28.722713,77.560892 c 0.705605,-0.48023 0.926669,-0.882826 0.926669,-1.687622 0,-1.18081 -0.808013,-1.974199 -2.010589,-1.974199 -1.193711,0 -2.028786,0.812606 -2.028786,1.974199 0,1.161594 0.835075,1.9742 2.028786,1.9742 0.477728,0 0.780449,-0.08004 1.08392,-0.286578 z m 7.774255,-4.32e-4 c 1.650262,-1.112111 0.919035,-3.661389 -1.050222,-3.661389 -1.429034,0 -2.379654,1.184674 -2.0206,2.518097 0.125114,0.464643 0.754703,1.196095 1.154187,1.340926 0.509188,0.184605 1.501225,0.08231 1.916635,-0.197634 z m 7.732633,0.03296 c 1.244446,-0.758748 1.244446,-2.66679 0,-3.447695 -0.541486,-0.339788 -1.778385,-0.298845 -2.295019,0.07597 -0.411316,0.298408 -0.858496,1.148598 -0.858496,1.632195 0,0.720811 0.570626,1.603058 1.209993,1.870771 0.48591,0.203459 1.507744,0.134458 1.943522,-0.131239 z m 7.76943,0 c 1.244101,-0.758538 1.244101,-2.681766 0,-3.440304 -0.538545,-0.328354 -1.538702,-0.33667 -2.133386,-0.01774 -0.505857,0.271294 -1.020129,1.137234 -1.020129,1.717709 0,0.566448 0.465757,1.431779 0.931068,1.729836 0.550723,0.352768 1.652542,0.357971 2.222447,0.0105 z m 7.424125,-0.03296 c 1.222982,-0.824167 1.21635,-2.550371 -0.01301,-3.385537 -0.373623,-0.253821 -0.559632,-0.290726 -1.250652,-0.248132 -0.759002,0.04678 -0.843294,0.08385 -1.297137,0.570394 -0.561411,0.601863 -0.730752,1.236459 -0.518759,1.944028 0.151152,0.504501 0.669325,1.110802 1.099235,1.286188 0.532154,0.217098 1.536022,0.132472 1.98032,-0.166941 z m 7.732632,0.03296 c 1.244446,-0.758748 1.244446,-2.66679 0,-3.447695 -0.541486,-0.339788 -1.778384,-0.298845 -2.295018,0.07597 -0.411317,0.298408 -0.858497,1.148598 -0.858497,1.632195 0,0.720811 0.570626,1.603058 1.209993,1.870771 0.485911,0.203459 1.507745,0.134458 1.943522,-0.131239 z m 7.76943,0 c 0.602025,-0.367059 0.921299,-0.963174 0.921299,-1.720152 0,-1.18352 -0.789923,-1.97284 -1.975234,-1.973723 -0.37981,-2.83e-4 -0.81748,0.09534 -1.079451,0.235834 -0.496715,0.266391 -1.020129,1.134358 -1.020129,1.691661 0,0.622066 0.386252,1.377225 0.873927,1.708609 0.596159,0.4051 1.665477,0.4322 2.279588,0.05777 z m 7.813115,-0.03507 c 0.535804,-0.357941 0.878171,-1.014893 0.878171,-1.685084 0,-1.166006 -0.822622,-1.974199 -2.009447,-1.974199 -0.866037,0 -1.463878,0.338157 -1.815148,1.026703 -0.476679,0.934368 -0.181824,2.105217 0.667039,2.64876 0.596837,0.382167 1.694762,0.374373 2.279385,-0.01618 z m 7.76943,0 c 0.535804,-0.357941 0.878171,-1.014893 0.878171,-1.685084 0,-1.178518 -0.821188,-1.974199 -2.037487,-1.974199 -0.858032,0 -1.434518,0.325331 -1.802048,1.016954 -0.477311,0.898213 -0.186882,2.069748 0.655674,2.644867 0.588237,0.401524 1.702682,0.400297 2.30569,-0.0025 z"
     id="path45" />
</svg>
