<?xml version="1.0" encoding="UTF-8" standalone="no"?>
<svg
   width="90.000015"
   height="30"
   version="1.1"
   id="svg31"
   sodipodi:docname="midi_controller_mixer_1.svg"
   inkscape:version="1.3.2 (091e20e, 2023-11-25)"
   xmlns:inkscape="http://www.inkscape.org/namespaces/inkscape"
   xmlns:sodipodi="http://sodipodi.sourceforge.net/DTD/sodipodi-0.dtd"
   xmlns="http://www.w3.org/2000/svg"
   xmlns:svg="http://www.w3.org/2000/svg">
  <defs
     id="defs31" />
  <sodipodi:namedview
     id="namedview31"
     pagecolor="#ffffff"
     bordercolor="#000000"
     borderopacity="0.25"
     inkscape:showpageshadow="2"
     inkscape:pageopacity="0.0"
     inkscape:pagecheckerboard="0"
     inkscape:deskcolor="#d1d1d1"
     inkscape:current-layer="svg31" />
  <g
     id="g85"
     inkscape:label="korg"
     transform="translate(-4.999994)">
    <path
       fill="none"
       d="m 8.362,3.716 h 83.276 a 3.056,3.056 0 0 1 3.063,3.062 v 16.444 a 3.056,3.056 0 0 1 -3.063,3.062 H 8.362 A 3.056,3.056 0 0 1 5.299,23.222 V 6.778 A 3.056,3.056 0 0 1 8.362,3.716 Z"
       id="path1"
       style="display:inline;fill:#404040;stroke:#000000;stroke-width:0.598"
       inkscape:label="bg" />
    <path
       id="path43"
       style="fill:#ffffff;fill-opacity:1;stroke:#000000;stroke-width:0.7;stroke-linecap:square;stroke-linejoin:miter;stroke-miterlimit:4.7;stroke-dasharray:none;stroke-opacity:1"
       d="m 7.8847656,16.734375 v 1.666016 H 11.8125 v -1.666016 z m 4.8847654,0 v 1.666016 h 3.925781 v -1.666016 z m 4.882813,0 v 1.666016 h 3.927734 v -1.666016 z m -9.7675784,2.896484 v 1.666016 H 11.8125 v -1.666016 z m 4.8847654,0 v 1.666016 h 3.925781 v -1.666016 z m 4.882813,0 v 1.666016 h 3.927734 V 19.630859 Z M 7.8847656,22.585938 V 24.25 H 11.8125 v -1.664062 z m 6.6250004,0.04492 a 0.78661281,0.78661281 0 0 0 -0.785157,0.78711 0.78661281,0.78661281 0 0 0 0.785157,0.787109 0.78661281,0.78661281 0 0 0 0.787109,-0.787109 0.78661281,0.78661281 0 0 0 -0.787109,-0.78711 z m 2.583984,0 a 0.78661281,0.78661281 0 0 0 -0.785156,0.78711 0.78661281,0.78661281 0 0 0 0.785156,0.787109 0.78661281,0.78661281 0 0 0 0.787109,-0.787109 0.78661281,0.78661281 0 0 0 -0.787109,-0.78711 z m 2.585938,0 a 0.78661281,0.78661281 0 0 0 -0.78711,0.78711 0.78661281,0.78661281 0 0 0 0.78711,0.787109 0.78661281,0.78661281 0 0 0 0.785156,-0.787109 0.78661281,0.78661281 0 0 0 -0.785156,-0.78711 z"
       inkscape:label="btns" />
    <path
       id="path33"
       style="fill:#808080;fill-opacity:1;stroke:#000000;stroke-width:0.8;stroke-linecap:round;stroke-linejoin:round;stroke-miterlimit:4.7;stroke-dasharray:none;stroke-opacity:1"
       d="m 27.769531,5.9980469 a 1.349052,1.349052 0 0 0 -1.347656,1.3496093 1.349052,1.349052 0 0 0 1.347656,1.3496094 1.349052,1.349052 0 0 0 1.34961,-1.3496094 1.349052,1.349052 0 0 0 -1.34961,-1.3496093 z m 8.867188,0 a 1.349052,1.349052 0 0 0 -1.34961,1.3496093 1.349052,1.349052 0 0 0 1.34961,1.3496094 1.349052,1.349052 0 0 0 1.347656,-1.3496094 1.349052,1.349052 0 0 0 -1.347656,-1.3496093 z m 8.865234,0 a 1.349052,1.349052 0 0 0 -1.349609,1.3496093 1.349052,1.349052 0 0 0 1.349609,1.3496094 1.349052,1.349052 0 0 0 1.349609,-1.3496094 1.349052,1.349052 0 0 0 -1.349609,-1.3496093 z m 8.865235,0 a 1.349052,1.349052 0 0 0 -1.34961,1.3496093 1.349052,1.349052 0 0 0 1.34961,1.3496094 1.349052,1.349052 0 0 0 1.349609,-1.3496094 1.349052,1.349052 0 0 0 -1.349609,-1.3496093 z m 8.865234,0 a 1.349052,1.349052 0 0 0 -1.347656,1.3496093 1.349052,1.349052 0 0 0 1.347656,1.3496094 1.349052,1.349052 0 0 0 1.349609,-1.3496094 1.349052,1.349052 0 0 0 -1.349609,-1.3496093 z m 8.865234,0 A 1.349052,1.349052 0 0 0 70.75,7.3476562 a 1.349052,1.349052 0 0 0 1.347656,1.3496094 1.349052,1.349052 0 0 0 1.34961,-1.3496094 1.349052,1.349052 0 0 0 -1.34961,-1.3496093 z m 8.867188,0 a 1.349052,1.349052 0 0 0 -1.34961,1.3496093 1.349052,1.349052 0 0 0 1.34961,1.3496094 A 1.349052,1.349052 0 0 0 82.3125,7.3476562 1.349052,1.349052 0 0 0 80.964844,5.9980469 Z m 8.865234,0 a 1.349052,1.349052 0 0 0 -1.349609,1.3496093 1.349052,1.349052 0 0 0 1.349609,1.3496094 1.349052,1.349052 0 0 0 1.34961,-1.3496094 1.349052,1.349052 0 0 0 -1.34961,-1.3496093 z"
       inkscape:label="knobs" />
    <path
       id="rect33"
       style="fill:#cc0000;fill-opacity:1;stroke:#000000;stroke-width:0.721761;stroke-linecap:square;stroke-linejoin:miter;stroke-miterlimit:4.7;stroke-dasharray:none;stroke-opacity:1"
       d="m 23.015625,13.701172 v 2.605469 h 2.603516 v -2.605469 z m 8.865234,0 v 2.605469 h 2.603516 v -2.605469 z m 8.865235,0 v 2.605469 h 2.603515 v -2.605469 z m 8.865234,0 v 2.605469 h 2.603516 v -2.605469 z m 8.865234,0 v 2.605469 h 2.605469 v -2.605469 z m 8.867188,0 v 2.605469 h 2.603516 v -2.605469 z m 8.865234,0 v 2.605469 H 78.8125 v -2.605469 z m 8.865235,0 v 2.605469 h 2.603515 v -2.605469 z"
       inkscape:label="reds" />
    <path
       id="rect45"
       style="fill:#000000;fill-opacity:1;stroke:none;stroke-width:0.68077;stroke-linecap:square;stroke-linejoin:miter;stroke-miterlimit:4.7;stroke-dasharray:none;stroke-opacity:1"
       d="m 27.375,11.033203 v 13.667969 h 0.791016 V 11.033203 Z m 8.865234,0 V 24.701172 H 37.03125 V 11.033203 Z m 8.865235,0 v 13.667969 h 0.791015 V 11.033203 Z m 8.867187,0 v 13.667969 h 0.789063 V 11.033203 Z m 8.865235,0 v 13.667969 h 0.791015 V 11.033203 Z m 8.865234,0 v 13.667969 h 0.791016 V 11.033203 Z m 8.865234,0 v 13.667969 h 0.791016 V 11.033203 Z m 8.865235,0 v 13.667969 h 0.791015 V 11.033203 Z"
       inkscape:label="lines" />
    <path
       id="rect44"
       style="fill:#bfbfbf;fill-opacity:1;stroke:#000000;stroke-width:0.8;stroke-linecap:square;stroke-linejoin:miter;stroke-miterlimit:4.7;stroke-dasharray:none;stroke-opacity:1"
       d="m 26.507812,14.912109 v 5.833985 h 2.525391 v -5.833985 z m 8.867188,0 v 5.833985 h 2.523438 v -5.833985 z m 8.865234,0 v 5.833985 h 2.523438 v -5.833985 z m 8.865235,0 v 5.833985 h 2.523437 v -5.833985 z m 8.865234,0 v 5.833985 h 2.523438 v -5.833985 z m 8.865235,0 v 5.833985 h 2.52539 v -5.833985 z m 8.867187,0 v 5.833985 h 2.523437 v -5.833985 z m 8.865234,0 v 5.833985 h 2.523438 v -5.833985 z"
       inkscape:label="slider" />
    <path
       id="rect34"
       style="fill:#ffcc00;fill-opacity:1;stroke:#000000;stroke-width:0.721761;stroke-linecap:square;stroke-linejoin:miter;stroke-miterlimit:4.7;stroke-dasharray:none;stroke-opacity:1"
       d="m 23.015625,19.634766 v 2.603515 h 2.603516 v -2.603515 z m 8.865234,0 v 2.603515 h 2.603516 v -2.603515 z m 8.865235,0 v 2.603515 h 2.603515 v -2.603515 z m 8.865234,0 v 2.603515 h 2.603516 v -2.603515 z m 8.865234,0 v 2.603515 h 2.605469 v -2.603515 z m 8.867188,0 v 2.603515 h 2.603516 v -2.603515 z m 8.865234,0 v 2.603515 H 78.8125 v -2.603515 z m 8.865235,0 v 2.603515 h 2.603515 v -2.603515 z"
       inkscape:label="yellow" />
  </g>
</svg>
