<svg xmlns="http://www.w3.org/2000/svg" width="100" height="30"><g stroke="#000" stroke-width="2.424" style="display:inline"><path fill="none" stroke-width=".59841288" d="M8.362 3.716h83.276a3.056 3.056 0 0 1 3.063 3.062v16.444a3.056 3.056 0 0 1-3.063 3.062H8.362a3.056 3.056 0 0 1-3.063-3.062V6.778a3.056 3.056 0 0 1 3.063-3.062z"/><path fill="none" stroke-width=".59841288" d="M7.794 16.684h3.99v1.745h-3.99ZM12.73 16.691h3.99v1.746h-3.99ZM17.668 16.691h3.99v1.746h-3.99ZM7.793 19.654h3.99v1.745h-3.99ZM12.73 19.654h3.99v1.745h-3.99ZM17.668 19.654h3.99v1.745h-3.99ZM7.793 22.616h3.99v1.746h-3.99ZM27.682 24.845V11.13M23.073 13.729h2.468v2.645h-2.468zM23.075 19.654h2.468v2.645h-2.468zM29.333 7.293c0 .925-.76 1.675-1.697 1.675s-1.697-.75-1.697-1.675.76-1.675 1.697-1.675 1.697.75 1.697 1.675z"/><path fill="#fff" stroke-width=".59841288" d="M26.38 14.889h2.733v5.996H26.38ZM14.565 23.495c0 .28-.217.507-.484.507a.496.496 0 0 1-.485-.507c0-.28.217-.507.485-.507.267 0 .484.227.484.507zM16.54 23.495c0 .28-.217.507-.485.507a.496.496 0 0 1-.484-.507c0-.28.217-.507.484-.507.268 0 .485.227.485.507zM18.515 23.495c0 .28-.217.507-.485.507a.496.496 0 0 1-.484-.507c0-.28.217-.507.484-.507.268 0 .485.227.485.507zM20.49 23.495c0 .28-.217.507-.485.507a.496.496 0 0 1-.485-.507c0-.28.218-.507.485-.507.268 0 .485.227.485.507z"/><path fill="none" stroke-width=".59841288" d="M35.44 24.838V11.122M30.833 13.729h2.47v2.645h-2.47zM30.833 19.654h2.47v2.645h-2.47zM37.092 7.293c0 .925-.76 1.675-1.697 1.675s-1.697-.75-1.697-1.675.76-1.675 1.697-1.675 1.697.75 1.697 1.675z"/><path fill="#fff" stroke-width=".59841288" d="M34.139 14.889h2.733v5.996H34.14Z"/><path fill="none" stroke-width=".59841288" d="M43.199 24.838V11.122M38.592 13.729h2.469v2.645h-2.469zM38.592 19.654h2.469v2.645h-2.469zM44.85 7.293c0 .925-.759 1.675-1.696 1.675-.938 0-1.698-.75-1.698-1.675s.76-1.675 1.698-1.675 1.697.75 1.697 1.675z"/><path fill="#fff" stroke-width=".59841288" d="M41.898 14.889h2.733v5.996h-2.733Z"/><path fill="none" stroke-width=".59841288" d="M50.958 24.838V11.122M46.35 13.729h2.47v2.645h-2.47zM46.35 19.654h2.47v2.645h-2.47zM52.61 7.293c0 .925-.76 1.675-1.698 1.675s-1.697-.75-1.697-1.675.76-1.675 1.697-1.675 1.698.75 1.698 1.675z"/><path fill="#fff" stroke-width=".59841288" d="M49.657 14.889h2.733v5.996h-2.733Z"/><path fill="none" stroke-width=".59841288" d="M58.364 24.838V11.122M53.757 13.729h2.469v2.645h-2.469zM53.757 19.654h2.469v2.645h-2.469zM60.016 7.293c0 .925-.76 1.675-1.698 1.675s-1.697-.75-1.697-1.675.76-1.675 1.697-1.675 1.698.75 1.698 1.675z"/><path fill="#fff" stroke-width=".59841288" d="M57.063 14.889h2.733v5.996h-2.733Z"/><path fill="none" stroke-width=".59841288" d="M66.122 24.838V11.122M61.516 13.729h2.469v2.645h-2.47zM61.516 19.654h2.469v2.645h-2.47zM67.774 7.293c0 .925-.76 1.675-1.697 1.675s-1.697-.75-1.697-1.675.76-1.675 1.697-1.675 1.697.75 1.697 1.675z"/><path fill="#fff" stroke-width=".59841288" d="M64.821 14.889h2.734v5.996H64.82Z"/><path fill="none" stroke-width=".59841288" d="M73.881 24.838V11.122M69.275 13.729h2.468v2.645h-2.468zM69.275 19.654h2.468v2.645h-2.468zM75.533 7.293c0 .925-.76 1.675-1.697 1.675s-1.698-.75-1.698-1.675.76-1.675 1.698-1.675 1.697.75 1.697 1.675z"/><path fill="#fff" stroke-width=".59841288" d="M72.58 14.889h2.733v5.996H72.58Z"/><path fill="none" stroke-width=".59841288" d="M81.64 24.838V11.122M77.033 13.729h2.47v2.645h-2.47zM77.033 19.654h2.47v2.645h-2.47zM83.292 7.293c0 .925-.76 1.675-1.698 1.675s-1.697-.75-1.697-1.675.76-1.675 1.697-1.675 1.698.75 1.698 1.675z"/><path fill="#fff" stroke-width=".59841288" d="M80.339 14.889h2.733v5.996H80.34Z"/><path fill="none" stroke-width=".59841288" d="M89.399 24.838V11.122M84.792 13.729h2.469v2.645h-2.469zM84.792 19.654h2.469v2.645h-2.469zM91.05 7.293c0 .925-.76 1.675-1.697 1.675s-1.697-.75-1.697-1.675.76-1.675 1.697-1.675 1.697.75 1.697 1.675z"/><path fill="#fff" stroke-width=".59841288" d="M88.098 14.889h2.733v5.996h-2.733Z"/></g><path d="M27.043 77.057a1.1 1.1 0 0 1-.527-.455c-.382-.603-.32-1.16.185-1.648.584-.567 1.305-.565 1.874.004.67.67.51 1.669-.333 2.089-.425.212-.76.215-1.2.01M34.886 77.113c-.788-.341-1.081-1.297-.605-1.975.712-1.015 2.307-.64 2.45.577.048.401-.054.729-.321 1.033-.378.43-1.019.584-1.524.365M42.682 77.131c-.331-.105-.733-.538-.834-.897-.197-.705.219-1.423.946-1.635.84-.244 1.694.386 1.701 1.255.007.94-.89 1.571-1.813 1.277M50.38 77.098c-.303-.146-.64-.484-.737-.74-.108-.286-.082-.796.054-1.061.486-.946 1.804-1.009 2.358-.112.388.629.212 1.396-.415 1.81-.345.23-.902.274-1.26.103" style="fill:gray;stroke-width:.0138513;stroke-linecap:square;stroke-linejoin:round;stroke-miterlimit:4.7" transform="translate(0 -68.583)"/><path d="M50.38 77.05c-.544-.282-.763-.66-.73-1.258.021-.37.055-.474.22-.678.496-.613 1.304-.7 1.872-.2.74.65.577 1.766-.314 2.138-.306.128-.8.127-1.048-.002" style="fill:gray;stroke-width:.0138513;stroke-linecap:square;stroke-linejoin:round;stroke-miterlimit:4.7" transform="translate(0 -68.583)"/><path d="M73.375 77.142c-.865-.307-1.179-1.406-.601-2.106.189-.23.6-.456.902-.498.818-.112 1.642.704 1.521 1.508-.125.836-1.027 1.378-1.822 1.096M81.108 77.135a1.5 1.5 0 0 1-.473-.323c-.656-.657-.504-1.656.323-2.114.236-.13.332-.153.642-.15.775.007 1.345.568 1.346 1.324 0 .54-.255.942-.756 1.192a1.29 1.29 0 0 1-1.082.07M88.937 77.163c-.47-.177-.804-.537-.911-.982a1.33 1.33 0 0 1 .617-1.437c.487-.291.934-.292 1.419-.002.324.194.594.59.648.953.077.514-.245 1.12-.727 1.369-.289.148-.79.196-1.046.1M65.614 77.143a1.8 1.8 0 0 1-.448-.284 1.31 1.31 0 0 1 .282-2.162c.537-.272 1.105-.198 1.54.201.71.651.553 1.736-.316 2.18-.277.14-.77.171-1.058.065M57.821 77.123c-.946-.381-1.157-1.601-.39-2.257.224-.192.617-.347.88-.347.475 0 1.032.358 1.247.8.14.289.143.807.008 1.099-.299.643-1.097.966-1.745.705" style="fill:gray;stroke-width:.0111887;stroke-linecap:square;stroke-linejoin:round;stroke-miterlimit:4.7" transform="translate(0 -68.583)"/><path d="M49.96 86.498v-2.665h2.05v5.329000000000001h-2.049zM57.442 86.498v-2.665h2.05v5.329000000000001h-2.05zM42.274 86.498v-2.665h2.05v5.329000000000001h-2.05zM34.486 86.498v-2.665h2.049v5.329000000000001h-2.049zM26.697 86.498v-2.665h2.05v5.329000000000001h-2.05ZM80.706 86.498v-2.665h2.049v5.329000000000001h-2.049ZM88.495 86.498v-2.665h1.947v5.329000000000001h-1.947zM72.917 86.498v-2.665h2.05v5.329000000000001h-2.05z" style="fill:gray;stroke-width:.022034;stroke-linecap:square;stroke-linejoin:round;stroke-miterlimit:4.7" transform="translate(0 -68.583)"/><path d="M23.882 88.524c.265-.011.683-.011.928 0 .245.012.028.022-.482.021-.511 0-.712-.01-.446-.02" style="fill:#fc0;stroke-width:.013309;stroke-linecap:square;stroke-linejoin:round;stroke-miterlimit:4.7" transform="translate(0 -68.583)"/><path d="M24.037 88.528c.045-.018.098-.016.119.005.02.02-.016.035-.081.032q-.11-.006-.038-.037M23.43 89.56v-.99h1.795v1.9809999999999999H23.43ZM31.168 89.56v-.99h1.795v1.9809999999999999h-1.795zM38.906 89.56v-.99H40.7v1.9809999999999999h-1.795zM46.705 89.56v-.99H48.5v1.9809999999999999h-1.795ZM54.072 89.56v-.99h1.795v1.9809999999999999h-1.795zM61.871 89.56v-.99h1.795v1.9809999999999999h-1.795zM69.609 89.56v-.99h1.795v1.9809999999999999H69.61ZM77.347 89.56v-.99h1.795v1.9809999999999999h-1.795z" style="fill:#fc0;stroke-width:.013309;stroke-linecap:square;stroke-linejoin:round;stroke-miterlimit:4.7" transform="translate(0 -68.583)"/><path d="M85.146 83.618v-.99h1.796v1.98h-1.796ZM77.347 83.618v-.99h1.795v1.98h-1.795zM69.609 83.618v-.99h1.795v1.98H69.61ZM61.871 83.618v-.99h1.795v1.98h-1.795z" style="fill:#c00;stroke-width:.013309;stroke-linecap:square;stroke-linejoin:round;stroke-miterlimit:4.7" transform="translate(0 -68.583)"/><path d="M54.1 83.62v-.997h1.8210000000000002v1.9929999999999999H54.1zM46.7 83.62v-.997h1.7650000000000001v1.9929999999999999h-1.764zM38.903 83.62v-.997h1.8210000000000002v1.9929999999999999h-1.8210000000000002z" style="fill:#c00;stroke-width:.0122372;stroke-linecap:square;stroke-linejoin:round;stroke-miterlimit:4.7" transform="translate(0 -68.583)"/><path d="M85.104 89.566v-1.003h1.823v2.006h-1.823z" style="fill:#fc0;stroke-width:.00784115;stroke-linecap:square;stroke-linejoin:round;stroke-miterlimit:4.7" transform="translate(0 -68.583)"/><path d="M23.392 83.634v-.98h1.822v1.96h-1.822zM31.137 83.634v-.98h1.822v1.96h-1.822z" style="fill:#c00;stroke-width:.0097943;stroke-linecap:square;stroke-linejoin:round;stroke-miterlimit:4.7" transform="translate(0 -68.583)"/><path d="M65.166 86.454v-2.675h2.076v5.35h-2.076z" style="fill:gray;stroke-width:.0135303;stroke-linecap:square;stroke-linejoin:round;stroke-miterlimit:4.7" transform="translate(0 -68.583)"/><path d="M7.564 94.357c-.768-.275-1.273-.72-1.591-1.404l-.303-.65v-8.741l-.002-8.742.356-.682c.259-.496.525-.785.977-1.065l.621-.384h84.72l.607.357c.335.197.765.594.956.883l.347.525v18.274l-.388.552a3.5 3.5 0 0 1-.955.87l-.567.319-42.16.027c-34.237.021-42.244-.005-42.618-.139m20.52-2.69V89.82h1.401v-6.75h-1.4v-3.44h-.765v3.44h-1.273v6.75h1.273v3.694h.765zm7.77 0V89.82h1.401v-6.75h-1.401v-3.44h-.764v3.44h-1.274v6.75h1.274v3.694h.764zm7.741-.032.035-1.815h1.394v-6.75h-1.393l-.036-1.688-.035-1.688-.35-.04-.35-.04v3.456h-1.274v6.75h1.273v3.711l.35-.04.35-.041zm7.67.032V89.82h1.529v-6.75h-1.528v-3.44h-.637v3.44h-1.274v6.75h1.274v3.694h.637zm7.515 0V89.82h1.401v-6.75h-1.4v-3.44h-.765v3.44h-1.274v6.75h1.274v3.694h.764zm7.642 0V89.82h1.529v-6.75h-1.529v-3.44h-.637v3.44h-1.273v6.75h1.273v3.694h.637zm7.77 0V89.82h1.528v-6.75h-1.528v-3.44h-.637v3.44H72.28v6.75h1.274v3.694h.637zm7.77 0V89.82h1.528v-6.75H81.96v-3.44h-.637v3.44h-1.4v-1.147h-3.32l.036 1.688.035 1.687h3.249v2.612h-3.312v3.311h3.311V89.82h1.401v3.694h.637zm7.769 0V89.82h1.4v-6.75h-1.4v-3.44h-.637v3.44h-1.401v6.75h1.4v3.694h.638zm-77.567.382v-1.21H7.45v2.42h4.713zm2.579.548c.294-.34.281-.63-.047-1.047-.548-.698-1.703-.071-1.423.772.225.679.996.823 1.47.275m1.91.05c.504-.433.082-1.426-.605-1.426s-1.107.99-.605 1.428c.43.374.773.374 1.21-.002m2.038-.05c.293-.339.282-.63-.04-1.04-.638-.81-1.807.013-1.33.936.292.564.93.612 1.37.104m1.91.05c.504-.433.083-1.426-.604-1.426-.688 0-1.108.99-.605 1.428.429.374.772.374 1.21-.002m5.318-3.082V87.91h-3.184v3.311h3.184zm7.77 0V87.91h-3.184v3.311h3.184zm7.77 0V87.91h-3.185v3.311h3.184zm7.769 0V87.91h-3.185v3.311h3.185zm7.387 0V87.91H53.43v3.311h3.184zm7.77 0V87.91H61.2v3.311h3.184zm7.769 0V87.91H68.97v3.311h3.184zm15.411 0V87.91h-3.184v3.311h3.184zm-75.401-.445v-1.21H7.45v2.42h4.713zm4.967 0v-1.21h-4.713v2.42h4.713zm4.84 0v-1.21h-4.713v2.42h4.713zm-9.807-2.994v-1.273H7.45V87.4h4.713zm4.94.032-.037-1.242-2.324-.034-2.325-.035V87.4h4.722zm4.867-.035v-1.276l-2.325.035-2.324.034-.036 1.242-.037 1.242h4.721zm3.948-2.48v-1.72h-3.184v3.44h3.184zm7.77 0v-1.72h-3.184v3.44h3.184zm7.77 0v-1.72h-3.185v3.44h3.184zm7.769 0v-1.72h-3.185v3.44h3.185zm7.387 0v-1.72H53.43v3.44h3.184zm7.77 0v-1.72H61.2v3.44h3.184zm7.769 0v-1.72H68.97v3.44h3.184zm15.411 0v-1.72h-3.184v3.44h3.184zM28.723 77.56c.705-.48.926-.883.926-1.688 0-1.18-.808-1.974-2.01-1.974-1.194 0-2.029.813-2.029 1.974s.835 1.974 2.029 1.974c.478 0 .78-.08 1.084-.286m7.774 0c1.65-1.113.919-3.662-1.05-3.662-1.43 0-2.38 1.185-2.02 2.518.124.465.754 1.196 1.153 1.341.51.185 1.502.082 1.917-.198m7.733.032c1.244-.758 1.244-2.666 0-3.447-.542-.34-1.779-.3-2.295.076-.412.298-.859 1.148-.859 1.632 0 .72.57 1.603 1.21 1.87.486.204 1.508.135 1.944-.13m7.769 0c1.244-.758 1.244-2.681 0-3.44-.539-.328-1.539-.337-2.133-.018-.506.272-1.02 1.138-1.02 1.718 0 .567.465 1.432.93 1.73.551.353 1.653.358 2.223.01m7.424-.033c1.223-.824 1.217-2.55-.013-3.385-.373-.254-.56-.29-1.25-.248-.76.047-.844.084-1.298.57-.561.602-.73 1.237-.518 1.944.15.505.669 1.111 1.099 1.286.532.217 1.536.133 1.98-.167m7.733.033c1.244-.758 1.244-2.666 0-3.447-.542-.34-1.779-.3-2.295.076-.412.298-.859 1.148-.859 1.632 0 .72.57 1.603 1.21 1.87.486.204 1.508.135 1.944-.13m7.77 0c.601-.367.92-.963.92-1.72 0-1.183-.79-1.973-1.975-1.973-.38 0-.817.095-1.08.235-.496.267-1.02 1.135-1.02 1.692 0 .622.387 1.377.875 1.709.596.405 1.665.432 2.28.057m7.812-.035c.536-.358.879-1.015.879-1.685 0-1.166-.823-1.974-2.01-1.974-.866 0-1.464.338-1.815 1.027-.477.934-.182 2.105.667 2.649.597.382 1.695.374 2.28-.017m7.77 0c.536-.358.878-1.015.878-1.685 0-1.178-.821-1.974-2.038-1.974-.858 0-1.434.325-1.802 1.017-.477.898-.186 2.07.656 2.645.588.401 1.703.4 2.306-.003" style="fill:#404040;stroke-width:.0273841;stroke-linecap:square;stroke-linejoin:round;stroke-miterlimit:4.7" transform="translate(0 -68.583)"/></svg>