<svg xmlns="http://www.w3.org/2000/svg" width="90" height="30">
    <path fill="none" d="M8.362 3.716h83.276a3.056 3.056 0 0 1 3.063 3.062v16.444a3.056 3.056 0 0 1-3.063 3.062H8.362a3.056 3.056 0 0 1-3.063-3.062V6.778a3.056 3.056 0 0 1 3.063-3.062Z" style="display:inline;fill:#404040;stroke:#000;stroke-width:.598" transform="translate(-5)"/>
    <path d="M7.885 16.734V18.4h3.928v-1.666zm4.885 0V18.4h3.925v-1.666zm4.882 0V18.4h3.928v-1.666zm-9.767 2.897v1.666h3.928V19.63zm4.885 0v1.666h3.925V19.63zm4.882 0v1.666h3.928V19.63Zm-9.767 2.955v1.664h3.928v-1.664zm6.625.045a.787.787 0 0 0-.785.787.787.787 0 0 0 .785.787.787.787 0 0 0 .787-.787.787.787 0 0 0-.787-.787zm2.584 0a.787.787 0 0 0-.785.787.787.787 0 0 0 .785.787.787.787 0 0 0 .787-.787.787.787 0 0 0-.787-.787zm2.586 0a.787.787 0 0 0-.787.787.787.787 0 0 0 .787.787.787.787 0 0 0 .785-.787.787.787 0 0 0-.785-.787z" style="fill:#fff;fill-opacity:1;stroke:#000;stroke-width:.7;stroke-linecap:square;stroke-linejoin:miter;stroke-miterlimit:4.7;stroke-dasharray:none;stroke-opacity:1" transform="translate(-5)"/>
    <path d="M27.77 5.998a1.35 1.35 0 0 0-1.348 1.35 1.35 1.35 0 0 0 1.348 1.35 1.35 1.35 0 0 0 1.35-1.35 1.35 1.35 0 0 0-1.35-1.35m8.867 0a1.35 1.35 0 0 0-1.35 1.35 1.35 1.35 0 0 0 1.35 1.35 1.35 1.35 0 0 0 1.347-1.35 1.35 1.35 0 0 0-1.347-1.35m8.865 0a1.35 1.35 0 0 0-1.35 1.35 1.35 1.35 0 0 0 1.35 1.35 1.35 1.35 0 0 0 1.35-1.35 1.35 1.35 0 0 0-1.35-1.35m8.865 0a1.35 1.35 0 0 0-1.35 1.35 1.35 1.35 0 0 0 1.35 1.35 1.35 1.35 0 0 0 1.35-1.35 1.35 1.35 0 0 0-1.35-1.35m8.865 0a1.35 1.35 0 0 0-1.347 1.35 1.35 1.35 0 0 0 1.347 1.35 1.35 1.35 0 0 0 1.35-1.35 1.35 1.35 0 0 0-1.35-1.35m8.866 0a1.35 1.35 0 0 0-1.348 1.35 1.35 1.35 0 0 0 1.348 1.35 1.35 1.35 0 0 0 1.35-1.35 1.35 1.35 0 0 0-1.35-1.35m8.867 0a1.35 1.35 0 0 0-1.35 1.35 1.35 1.35 0 0 0 1.35 1.35 1.35 1.35 0 0 0 1.347-1.35 1.35 1.35 0 0 0-1.347-1.35m8.865 0a1.35 1.35 0 0 0-1.35 1.35 1.35 1.35 0 0 0 1.35 1.35 1.35 1.35 0 0 0 1.35-1.35 1.35 1.35 0 0 0-1.35-1.35" style="fill:gray;fill-opacity:1;stroke:#000;stroke-width:.8;stroke-linecap:round;stroke-linejoin:round;stroke-miterlimit:4.7;stroke-dasharray:none;stroke-opacity:1" transform="translate(-5)"/>
    <path d="M23.016 13.701v2.606h2.603V13.7zm8.865 0v2.606h2.603V13.7zm8.865 0v2.606h2.604V13.7zm8.865 0v2.606h2.604V13.7zm8.866 0v2.606h2.605V13.7zm8.867 0v2.606h2.603V13.7zm8.865 0v2.606h2.603V13.7zm8.865 0v2.606h2.604V13.7z" style="fill:#c00;fill-opacity:1;stroke:#000;stroke-width:.721761;stroke-linecap:square;stroke-linejoin:miter;stroke-miterlimit:4.7;stroke-dasharray:none;stroke-opacity:1" transform="translate(-5)"/>
    <path d="M27.375 11.033v13.668h.791V11.033Zm8.865 0v13.668h.791V11.033Zm8.865 0v13.668h.791V11.033Zm8.868 0v13.668h.789V11.033Zm8.865 0v13.668h.79V11.033Zm8.865 0v13.668h.791V11.033Zm8.865 0v13.668h.791V11.033Zm8.866 0v13.668h.79V11.033Z" style="fill:#000;fill-opacity:1;stroke:none;stroke-width:.68077;stroke-linecap:square;stroke-linejoin:miter;stroke-miterlimit:4.7;stroke-dasharray:none;stroke-opacity:1" transform="translate(-5)"/>
    <path d="M26.508 14.912v5.834h2.525v-5.834zm8.867 0v5.834h2.523v-5.834zm8.865 0v5.834h2.524v-5.834zm8.865 0v5.834h2.524v-5.834zm8.866 0v5.834h2.523v-5.834zm8.865 0v5.834h2.525v-5.834zm8.867 0v5.834h2.524v-5.834zm8.865 0v5.834h2.524v-5.834z" style="fill:#bfbfbf;fill-opacity:1;stroke:#000;stroke-width:.8;stroke-linecap:square;stroke-linejoin:miter;stroke-miterlimit:4.7;stroke-dasharray:none;stroke-opacity:1" transform="translate(-5)"/>
    <path d="M23.016 19.635v2.603h2.603v-2.603zm8.865 0v2.603h2.603v-2.603zm8.865 0v2.603h2.604v-2.603zm8.865 0v2.603h2.604v-2.603zm8.866 0v2.603h2.605v-2.603zm8.867 0v2.603h2.603v-2.603zm8.865 0v2.603h2.603v-2.603zm8.865 0v2.603h2.604v-2.603z" style="fill:#fc0;fill-opacity:1;stroke:#000;stroke-width:.721761;stroke-linecap:square;stroke-linejoin:miter;stroke-miterlimit:4.7;stroke-dasharray:none;stroke-opacity:1" transform="translate(-5)"/>
</svg>
