<?xml version="1.0" encoding="UTF-8" standalone="no"?>
<!-- Generator: Adobe Illustrator 19.0.0, SVG Export Plug-In . SVG Version: 6.00 Build 0)  -->

<svg
   version="1.1"
   id="Layer_1"
   x="0px"
   y="0px"
   viewBox="0 0 70 70"
   xml:space="preserve"
   sodipodi:docname="mixer_1.svg"
   width="70"
   height="70"
   inkscape:version="1.3.2 (091e20e, 2023-11-25)"
   xmlns:inkscape="http://www.inkscape.org/namespaces/inkscape"
   xmlns:sodipodi="http://sodipodi.sourceforge.net/DTD/sodipodi-0.dtd"
   xmlns="http://www.w3.org/2000/svg"
   xmlns:svg="http://www.w3.org/2000/svg"><defs
   id="defs38" /><sodipodi:namedview
   id="namedview38"
   pagecolor="#ffffff"
   bordercolor="#000000"
   borderopacity="0.25"
   inkscape:showpageshadow="2"
   inkscape:pageopacity="0.0"
   inkscape:pagecheckerboard="0"
   inkscape:deskcolor="#d1d1d1"
   inkscape:current-layer="Layer_1" />
<g
   id="g23"
   transform="matrix(0.13617021,0,0,0.13617021,3.0000006,3.0000006)">
	<g
   id="g22">
		<g
   id="g21">
			<path
   d="M 462.5,0 H 7.5 C 3.358,0 0,3.357 0,7.5 v 455 c 0,4.143 3.358,7.5 7.5,7.5 h 455 c 4.142,0 7.5,-3.357 7.5,-7.5 V 7.5 C 470,3.357 466.642,0 462.5,0 Z M 455,455 H 15 V 205.05 h 440 z m 0,-264.95 H 15 V 15 h 440 z"
   id="path1" />
			<path
   d="m 58.214,175.05 c 15.164,0 27.5,-12.337 27.5,-27.5 0,-15.163 -12.336,-27.5 -27.5,-27.5 -15.164,0 -27.5,12.337 -27.5,27.5 0,15.163 12.337,27.5 27.5,27.5 z m 0,-40 c 6.893,0 12.5,5.607 12.5,12.5 0,6.893 -5.607,12.5 -12.5,12.5 -6.893,0 -12.5,-5.607 -12.5,-12.5 0,-6.893 5.608,-12.5 12.5,-12.5 z"
   id="path2" />
			<path
   d="m 93.571,105 c 20.678,0 37.5,-16.822 37.5,-37.5 0,-20.678 -16.822,-37.5 -37.5,-37.5 -20.678,0 -37.5,16.822 -37.5,37.5 0,20.678 16.823,37.5 37.5,37.5 z m 0,-60 c 12.407,0 22.5,10.094 22.5,22.5 0,12.406 -10.093,22.5 -22.5,22.5 -12.407,0 -22.5,-10.094 -22.5,-22.5 0,-12.406 10.094,-22.5 22.5,-22.5 z"
   id="path3" />
			<circle
   cx="411.78601"
   cy="67.5"
   r="10"
   id="circle3" />
			<circle
   cx="341.07101"
   cy="67.5"
   r="10"
   id="circle4" />
			<path
   d="m 235,105 c 20.678,0 37.5,-16.822 37.5,-37.5 C 272.5,46.822 255.678,30 235,30 c -20.678,0 -37.5,16.822 -37.5,37.5 0,20.678 16.822,37.5 37.5,37.5 z m 0,-60 c 12.407,0 22.5,10.094 22.5,22.5 C 257.5,79.906 247.407,90 235,90 222.593,90 212.5,79.906 212.5,67.5 212.5,55.094 222.593,45 235,45 Z"
   id="path4" />
			<path
   d="m 58.214,380 c 4.142,0 7.5,-3.357 7.5,-7.5 V 227.55 c 0,-4.143 -3.358,-7.5 -7.5,-7.5 -4.142,0 -7.5,3.357 -7.5,7.5 V 372.5 c 0,4.143 3.358,7.5 7.5,7.5 z"
   id="path5" />
			<path
   d="m 38.214,410 h 12.5 v 22.5 c 0,4.143 3.358,7.5 7.5,7.5 4.142,0 7.5,-3.357 7.5,-7.5 V 410 h 12.5 c 4.142,0 7.5,-3.357 7.5,-7.5 0,-4.143 -3.358,-7.5 -7.5,-7.5 h -40 c -4.142,0 -7.5,3.357 -7.5,7.5 0,4.143 3.358,7.5 7.5,7.5 z"
   id="path6" />
			<path
   d="m 411.786,380 c 4.142,0 7.5,-3.357 7.5,-7.5 V 227.55 c 0,-4.143 -3.358,-7.5 -7.5,-7.5 -4.142,0 -7.5,3.357 -7.5,7.5 V 372.5 c 0,4.143 3.358,7.5 7.5,7.5 z"
   id="path7" />
			<path
   d="m 391.786,410 h 12.5 v 22.5 c 0,4.143 3.358,7.5 7.5,7.5 4.142,0 7.5,-3.357 7.5,-7.5 V 410 h 12.5 c 4.142,0 7.5,-3.357 7.5,-7.5 0,-4.143 -3.358,-7.5 -7.5,-7.5 h -40 c -4.142,0 -7.5,3.357 -7.5,7.5 0,4.143 3.358,7.5 7.5,7.5 z"
   id="path8" />
			<path
   d="m 101.429,147.55 c 0,15.163 12.336,27.5 27.5,27.5 15.164,0 27.5,-12.337 27.5,-27.5 0,-15.163 -12.336,-27.5 -27.5,-27.5 -15.164,0 -27.5,12.337 -27.5,27.5 z m 40,0 c 0,6.893 -5.607,12.5 -12.5,12.5 -6.893,0 -12.5,-5.607 -12.5,-12.5 0,-6.893 5.607,-12.5 12.5,-12.5 6.893,0 12.5,5.607 12.5,12.5 z"
   id="path9" />
			<path
   d="m 128.929,320 c 4.142,0 7.5,-3.357 7.5,-7.5 v -84.95 c 0,-4.143 -3.358,-7.5 -7.5,-7.5 -4.142,0 -7.5,3.357 -7.5,7.5 v 84.95 c 0,4.143 3.358,7.5 7.5,7.5 z"
   id="path10" />
			<path
   d="m 108.929,350 h 12.5 v 82.5 c 0,4.143 3.358,7.5 7.5,7.5 4.142,0 7.5,-3.357 7.5,-7.5 V 350 h 12.5 c 4.142,0 7.5,-3.357 7.5,-7.5 0,-4.143 -3.358,-7.5 -7.5,-7.5 h -40 c -4.142,0 -7.5,3.357 -7.5,7.5 0,4.143 3.358,7.5 7.5,7.5 z"
   id="path11" />
			<path
   d="m 199.643,175.05 c 15.164,0 27.5,-12.337 27.5,-27.5 0,-15.163 -12.336,-27.5 -27.5,-27.5 -15.164,0 -27.5,12.337 -27.5,27.5 0,15.163 12.336,27.5 27.5,27.5 z m 0,-40 c 6.893,0 12.5,5.607 12.5,12.5 0,6.893 -5.607,12.5 -12.5,12.5 -6.893,0 -12.5,-5.607 -12.5,-12.5 0,-6.893 5.607,-12.5 12.5,-12.5 z"
   id="path12" />
			<path
   d="m 199.643,380 c 4.142,0 7.5,-3.357 7.5,-7.5 V 227.55 c 0,-4.143 -3.358,-7.5 -7.5,-7.5 -4.142,0 -7.5,3.357 -7.5,7.5 V 372.5 c 0,4.143 3.358,7.5 7.5,7.5 z"
   id="path13" />
			<path
   d="m 179.643,410 h 12.5 v 22.5 c 0,4.143 3.358,7.5 7.5,7.5 4.142,0 7.5,-3.357 7.5,-7.5 V 410 h 12.5 c 4.142,0 7.5,-3.357 7.5,-7.5 0,-4.143 -3.358,-7.5 -7.5,-7.5 h -40 c -4.142,0 -7.5,3.357 -7.5,7.5 0,4.143 3.358,7.5 7.5,7.5 z"
   id="path14" />
			<path
   d="m 242.857,147.55 c 0,15.163 12.336,27.5 27.5,27.5 15.164,0 27.5,-12.337 27.5,-27.5 0,-15.163 -12.336,-27.5 -27.5,-27.5 -15.164,0 -27.5,12.337 -27.5,27.5 z m 40,0 c 0,6.893 -5.607,12.5 -12.5,12.5 -6.893,0 -12.5,-5.607 -12.5,-12.5 0,-6.893 5.607,-12.5 12.5,-12.5 6.893,0 12.5,5.607 12.5,12.5 z"
   id="path15" />
			<path
   d="m 411.786,175.05 c 15.164,0 27.5,-12.337 27.5,-27.5 0,-15.163 -12.336,-27.5 -27.5,-27.5 -15.164,0 -27.5,12.337 -27.5,27.5 0,15.163 12.336,27.5 27.5,27.5 z m 0,-40 c 6.893,0 12.5,5.607 12.5,12.5 0,6.893 -5.607,12.5 -12.5,12.5 -6.893,0 -12.5,-5.607 -12.5,-12.5 0,-6.893 5.607,-12.5 12.5,-12.5 z"
   id="path16" />
			<path
   d="m 341.071,175.05 c 15.164,0 27.5,-12.337 27.5,-27.5 0,-15.163 -12.336,-27.5 -27.5,-27.5 -15.164,0 -27.5,12.337 -27.5,27.5 0,15.163 12.337,27.5 27.5,27.5 z m 0,-40 c 6.893,0 12.5,5.607 12.5,12.5 0,6.893 -5.607,12.5 -12.5,12.5 -6.893,0 -12.5,-5.607 -12.5,-12.5 0,-6.893 5.608,-12.5 12.5,-12.5 z"
   id="path17" />
			<path
   d="m 270.357,320 c 4.142,0 7.5,-3.357 7.5,-7.5 v -84.95 c 0,-4.143 -3.358,-7.5 -7.5,-7.5 -4.142,0 -7.5,3.357 -7.5,7.5 v 84.95 c 0,4.143 3.358,7.5 7.5,7.5 z"
   id="path18" />
			<path
   d="m 250.357,350 h 12.5 v 82.5 c 0,4.143 3.358,7.5 7.5,7.5 4.142,0 7.5,-3.357 7.5,-7.5 V 350 h 12.5 c 4.142,0 7.5,-3.357 7.5,-7.5 0,-4.143 -3.358,-7.5 -7.5,-7.5 h -40 c -4.142,0 -7.5,3.357 -7.5,7.5 0,4.143 3.358,7.5 7.5,7.5 z"
   id="path19" />
			<path
   d="m 341.071,320 c 4.142,0 7.5,-3.357 7.5,-7.5 v -84.95 c 0,-4.143 -3.358,-7.5 -7.5,-7.5 -4.142,0 -7.5,3.357 -7.5,7.5 v 84.95 c 0,4.143 3.358,7.5 7.5,7.5 z"
   id="path20" />
			<path
   d="m 321.071,350 h 12.5 v 82.5 c 0,4.143 3.358,7.5 7.5,7.5 4.142,0 7.5,-3.357 7.5,-7.5 V 350 h 12.5 c 4.142,0 7.5,-3.357 7.5,-7.5 0,-4.143 -3.358,-7.5 -7.5,-7.5 h -40 c -4.142,0 -7.5,3.357 -7.5,7.5 0,4.143 3.358,7.5 7.5,7.5 z"
   id="path21" />
		</g>
	</g>
</g>
<g
   id="g24">
</g>
<g
   id="g25">
</g>
<g
   id="g26">
</g>
<g
   id="g27">
</g>
<g
   id="g28">
</g>
<g
   id="g29">
</g>
<g
   id="g30">
</g>
<g
   id="g31">
</g>
<g
   id="g32">
</g>
<g
   id="g33">
</g>
<g
   id="g34">
</g>
<g
   id="g35">
</g>
<g
   id="g36">
</g>
<g
   id="g37">
</g>
<g
   id="g38">
</g>
</svg>
