<svg xmlns="http://www.w3.org/2000/svg" width="100" height="100"><g style="stroke-width:1.5"><path d="m155.79 260.47 711.55.43c2.432.002 4.463 13.572 4.39 30.43L868.7 988.4c-.074 16.858-1.958 30.43-4.39 30.429l-704.47-.136s-4.293-13.572-4.39-30.43l-4.041-697.37c-.098-16.856 1.958-30.43 4.39-30.428z" style="fill:none;stroke:#000;stroke-width:2.5" transform="translate(-13.696 -28.524)scale(.12451)"/><path d="M244.96 308c0 13.437-11.69 24.329-26.109 24.329S192.742 321.437 192.742 308s11.689-24.329 26.109-24.329S244.96 294.564 244.96 308z" style="fill:none;stroke:#000;stroke-width:1.5" transform="translate(-13.696 -28.524)scale(.12451)"/><path d="M240.96 308c0 11.376-9.897 20.598-22.105 20.598S196.75 319.376 196.75 308s9.896-20.598 22.105-20.598S240.96 296.624 240.96 308zM221.6 365.92c0 5.221-4.543 9.454-10.146 9.454s-10.146-4.233-10.146-9.454 4.542-9.454 10.146-9.454 10.146 4.233 10.146 9.454zM203.24 394.09h16.846c2.432 0 4.39 2.667 4.39 5.98 0 3.312-1.958 5.979-4.39 5.979H203.24c-2.432 0-4.39-2.667-4.39-5.98 0-3.312 1.958-5.979 4.39-5.979z" style="fill:none;stroke:#000;stroke-width:1.5" transform="translate(-13.696 -28.524)scale(.12451)"/><path d="M226.17 365.92c0 7.577-6.592 13.719-14.723 13.719s-14.722-6.142-14.722-13.719 6.591-13.719 14.722-13.719 14.723 6.142 14.723 13.719zM230.74 427.97c0 6.133-4.972 11.105-11.105 11.105s-11.105-4.972-11.105-11.105 4.972-11.105 11.105-11.105 11.105 4.972 11.105 11.105zM188.03 275.07V449.9M303.59 308c0 13.437-11.69 24.329-26.109 24.329S251.372 321.437 251.372 308s11.689-24.329 26.109-24.329S303.59 294.564 303.59 308z" style="fill:none;stroke:#000;stroke-width:1.5" transform="translate(-13.696 -28.524)scale(.12451)"/><path d="M299.59 308c0 11.376-9.897 20.598-22.105 20.598S255.38 319.376 255.38 308s9.896-20.598 22.105-20.598S299.59 296.624 299.59 308zM280.23 365.92c0 5.221-4.543 9.454-10.146 9.454s-10.146-4.233-10.146-9.454 4.542-9.454 10.146-9.454 10.146 4.233 10.146 9.454zM261.87 394.09h16.846c2.432 0 4.39 2.667 4.39 5.98 0 3.312-1.958 5.979-4.39 5.979H261.87c-2.432 0-4.39-2.667-4.39-5.98 0-3.312 1.958-5.979 4.39-5.979z" style="fill:none;stroke:#000;stroke-width:1.5" transform="translate(-13.696 -28.524)scale(.12451)"/><path d="M284.8 365.92c0 7.577-6.592 13.719-14.723 13.719s-14.722-6.142-14.722-13.719 6.591-13.719 14.722-13.719 14.723 6.142 14.723 13.719zM289.37 427.97c0 6.133-4.972 11.105-11.105 11.105s-11.105-4.972-11.105-11.105 4.972-11.105 11.105-11.105 11.105 4.972 11.105 11.105zM246.66 275.07V449.9M362.22 308c0 13.437-11.69 24.329-26.109 24.329S310.002 321.437 310.002 308s11.689-24.329 26.109-24.329S362.22 294.564 362.22 308z" style="fill:none;stroke:#000;stroke-width:1.5" transform="translate(-13.696 -28.524)scale(.12451)"/><path d="M358.22 308c0 11.376-9.897 20.598-22.105 20.598S314.01 319.376 314.01 308s9.896-20.598 22.105-20.598S358.22 296.624 358.22 308zM338.85 365.92c0 5.221-4.543 9.454-10.146 9.454s-10.146-4.233-10.146-9.454 4.542-9.454 10.146-9.454 10.146 4.233 10.146 9.454zM320.49 394.09h16.846c2.432 0 4.39 2.667 4.39 5.98 0 3.312-1.958 5.979-4.39 5.979H320.49c-2.432 0-4.39-2.667-4.39-5.98 0-3.312 1.958-5.979 4.39-5.979z" style="fill:none;stroke:#000;stroke-width:1.5" transform="translate(-13.696 -28.524)scale(.12451)"/><path d="M343.43 365.92c0 7.577-6.592 13.719-14.723 13.719s-14.722-6.142-14.722-13.719 6.591-13.719 14.722-13.719 14.723 6.142 14.723 13.719zM347.99 427.97c0 6.133-4.972 11.105-11.105 11.105s-11.105-4.972-11.105-11.105 4.972-11.105 11.105-11.105 11.105 4.972 11.105 11.105zM305.28 275.07V449.9M420.85 308c0 13.437-11.69 24.329-26.109 24.329S368.632 321.437 368.632 308s11.689-24.329 26.109-24.329S420.85 294.564 420.85 308z" style="fill:none;stroke:#000;stroke-width:1.5" transform="translate(-13.696 -28.524)scale(.12451)"/><path d="M416.85 308c0 11.376-9.897 20.598-22.105 20.598S372.64 319.376 372.64 308s9.896-20.598 22.105-20.598S416.85 296.624 416.85 308zM397.48 365.92c0 5.221-4.543 9.454-10.146 9.454s-10.146-4.233-10.146-9.454 4.542-9.454 10.146-9.454 10.146 4.233 10.146 9.454zM379.12 394.09h16.846c2.432 0 4.39 2.667 4.39 5.98 0 3.312-1.958 5.979-4.39 5.979H379.12c-2.432 0-4.39-2.667-4.39-5.98 0-3.312 1.958-5.979 4.39-5.979z" style="fill:none;stroke:#000;stroke-width:1.5" transform="translate(-13.696 -28.524)scale(.12451)"/><path d="M402.06 365.92c0 7.577-6.592 13.719-14.723 13.719s-14.722-6.142-14.722-13.719 6.591-13.719 14.722-13.719 14.723 6.142 14.723 13.719zM406.62 427.97c0 6.133-4.972 11.105-11.105 11.105s-11.105-4.972-11.105-11.105 4.972-11.105 11.105-11.105 11.105 4.972 11.105 11.105zM363.91 275.07V449.9M818 524.51c0 6.133-4.972 11.105-11.105 11.105s-11.105-4.972-11.105-11.105 4.972-11.105 11.105-11.105S818 518.377 818 524.51zM422.54 275.07V449.9M438.43 432.81h16.846c2.432 0 4.39 2.667 4.39 5.98 0 3.312-1.958 5.979-4.39 5.979H438.43c-2.432 0-4.39-2.667-4.39-5.98 0-3.312 1.958-5.979 4.39-5.979zM456.43 411.47c0 5.221-4.543 9.454-10.146 9.454s-10.146-4.233-10.146-9.454 4.542-9.454 10.146-9.454c5.603 0 10.146 4.233 10.146 9.454z" style="fill:none;stroke:#000;stroke-width:1.5" transform="translate(-13.696 -28.524)scale(.12451)"/><path d="M461.01 411.47c0 7.577-6.591 13.719-14.722 13.719s-14.722-6.142-14.722-13.719 6.591-13.719 14.722-13.719 14.722 6.142 14.722 13.719z" style="fill:none;stroke:#000;stroke-width:1.5" transform="translate(-13.696 -28.524)scale(.12451)"/><g style="fill:none;stroke-width:.6652"><path d="M1109.9 829.72c0 2.316-2.014 4.193-4.5 4.193-2.484 0-4.499-1.878-4.499-4.193s2.015-4.193 4.5-4.193 4.499 1.878 4.499 4.193z" style="fill:none;stroke:#000;stroke-width:.6652" transform="matrix(.28077 0 0 .28077 -268.745 -220.047)"/><path d="M1111.9 829.72c0 3.36-2.923 6.084-6.529 6.084s-6.529-2.724-6.529-6.084 2.923-6.084 6.53-6.084c3.605 0 6.528 2.724 6.528 6.084z" style="fill:none;stroke:#000;stroke-width:.6652" transform="matrix(.28077 0 0 .28077 -268.745 -220.047)"/></g><g style="fill:none;stroke-width:.6652"><path d="M1127.9 829.72c0 2.316-2.014 4.193-4.5 4.193-2.484 0-4.499-1.878-4.499-4.193s2.015-4.193 4.5-4.193 4.499 1.878 4.499 4.193z" style="fill:none;stroke:#000;stroke-width:.6652" transform="matrix(.28077 0 0 .28077 -269.019 -220.047)"/><path d="M1129.9 829.72c0 3.36-2.923 6.084-6.529 6.084s-6.529-2.724-6.529-6.084 2.923-6.084 6.53-6.084c3.605 0 6.528 2.724 6.528 6.084z" style="fill:none;stroke:#000;stroke-width:.6652" transform="matrix(.28077 0 0 .28077 -269.019 -220.047)"/></g><g style="fill:none;stroke-width:.6652"><path d="M1143.9 829.72c0 2.316-2.014 4.193-4.5 4.193-2.484 0-4.499-1.878-4.499-4.193s2.015-4.193 4.5-4.193 4.499 1.878 4.499 4.193z" style="fill:none;stroke:#000;stroke-width:.6652" transform="matrix(.28077 0 0 .28077 -268.745 -220.047)"/><path d="M1145.9 829.72c0 3.36-2.923 6.084-6.529 6.084s-6.529-2.724-6.529-6.084 2.923-6.084 6.53-6.084c3.605 0 6.528 2.724 6.528 6.084z" style="fill:none;stroke:#000;stroke-width:.6652" transform="matrix(.28077 0 0 .28077 -268.745 -220.047)"/></g><g style="fill:none;stroke-width:.6652"><path d="M1109.9 829.72c0 2.316-2.014 4.193-4.5 4.193-2.484 0-4.499-1.878-4.499-4.193s2.015-4.193 4.5-4.193 4.499 1.878 4.499 4.193z" style="fill:none;stroke:#000;stroke-width:.6652" transform="matrix(.28077 0 0 .28077 -268.745 -224.541)"/><path d="M1111.9 829.72c0 3.36-2.923 6.084-6.529 6.084s-6.529-2.724-6.529-6.084 2.923-6.084 6.53-6.084c3.605 0 6.528 2.724 6.528 6.084z" style="fill:none;stroke:#000;stroke-width:.6652" transform="matrix(.28077 0 0 .28077 -268.745 -224.541)"/></g><g style="fill:none;stroke-width:.6652"><path d="M1127.9 829.72c0 2.316-2.014 4.193-4.5 4.193-2.484 0-4.499-1.878-4.499-4.193s2.015-4.193 4.5-4.193 4.499 1.878 4.499 4.193z" style="fill:none;stroke:#000;stroke-width:.6652" transform="matrix(.28077 0 0 .28077 -269.019 -224.541)"/><path d="M1129.9 829.72c0 3.36-2.923 6.084-6.529 6.084s-6.529-2.724-6.529-6.084 2.923-6.084 6.53-6.084c3.605 0 6.528 2.724 6.528 6.084z" style="fill:none;stroke:#000;stroke-width:.6652" transform="matrix(.28077 0 0 .28077 -269.019 -224.541)"/></g><g style="fill:none;stroke-width:.6652"><path d="M1143.9 829.72c0 2.316-2.014 4.193-4.5 4.193-2.484 0-4.499-1.878-4.499-4.193s2.015-4.193 4.5-4.193 4.499 1.878 4.499 4.193z" style="fill:none;stroke:#000;stroke-width:.6652" transform="matrix(.28077 0 0 .28077 -268.745 -224.541)"/><path d="M1145.9 829.72c0 3.36-2.923 6.084-6.529 6.084s-6.529-2.724-6.529-6.084 2.923-6.084 6.53-6.084c3.605 0 6.528 2.724 6.528 6.084z" style="fill:none;stroke:#000;stroke-width:.6652" transform="matrix(.28077 0 0 .28077 -268.745 -224.541)"/></g><g style="fill:none;stroke-width:1.1081"><path d="M1143.9 829.72c0 2.316-2.014 4.193-4.5 4.193-2.484 0-4.499-1.878-4.499-4.193s2.015-4.193 4.5-4.193 4.499 1.878 4.499 4.193z" style="fill:none;stroke:#000;stroke-width:1.1081" transform="translate(-133.976 -126.3)scale(.16855)"/><path d="M1145.9 829.72c0 3.36-2.923 6.084-6.529 6.084s-6.529-2.724-6.529-6.084 2.923-6.084 6.53-6.084c3.605 0 6.528 2.724 6.528 6.084z" style="fill:none;stroke:#000;stroke-width:1.1081" transform="translate(-133.976 -126.3)scale(.16855)"/></g><g style="fill:none;stroke-width:1.1081"><path d="M1143.9 829.72c0 2.316-2.014 4.193-4.5 4.193-2.484 0-4.499-1.878-4.499-4.193s2.015-4.193 4.5-4.193 4.499 1.878 4.499 4.193z" style="fill:none;stroke:#000;stroke-width:1.1081" transform="translate(-133.976 -130.232)scale(.16855)"/><path d="M1145.9 829.72c0 3.36-2.923 6.084-6.529 6.084s-6.529-2.724-6.529-6.084 2.923-6.084 6.53-6.084c3.605 0 6.528 2.724 6.528 6.084z" style="fill:none;stroke:#000;stroke-width:1.1081" transform="translate(-133.976 -130.232)scale(.16855)"/></g><g style="fill:none;stroke-width:1.1081"><path d="M1143.9 829.72c0 2.316-2.014 4.193-4.5 4.193-2.484 0-4.499-1.878-4.499-4.193s2.015-4.193 4.5-4.193 4.499 1.878 4.499 4.193z" style="fill:none;stroke:#000;stroke-width:1.1081" transform="translate(-130.046 -130.232)scale(.16855)"/><path d="M1145.9 829.72c0 3.36-2.923 6.084-6.529 6.084s-6.529-2.724-6.529-6.084 2.923-6.084 6.53-6.084c3.605 0 6.528 2.724 6.528 6.084z" style="fill:none;stroke:#000;stroke-width:1.1081" transform="translate(-130.046 -130.232)scale(.16855)"/></g><g style="fill:none;stroke-width:1.1081"><path d="M1143.9 829.72c0 2.316-2.014 4.193-4.5 4.193-2.484 0-4.499-1.878-4.499-4.193s2.015-4.193 4.5-4.193 4.499 1.878 4.499 4.193z" style="fill:none;stroke:#000;stroke-width:1.1081" transform="translate(-130.046 -126.3)scale(.16855)"/><path d="M1145.9 829.72c0 3.36-2.923 6.084-6.529 6.084s-6.529-2.724-6.529-6.084 2.923-6.084 6.53-6.084c3.605 0 6.528 2.724 6.528 6.084z" style="fill:none;stroke:#000;stroke-width:1.1081" transform="translate(-130.046 -126.3)scale(.16855)"/></g><path d="M483.58 358.78v93.677M542.21 274.79v75.143M423.22 355.37h275.63M681.83 495.39h89.033c5.608 0 10.123 11.674 10.123 26.174s-4.515 26.174-10.123 26.174H681.83c-5.608 0-10.123-11.674-10.123-26.174s4.515-26.174 10.123-26.174z" style="fill:none;stroke:#000;stroke-width:1.5" transform="translate(-13.696 -28.524)scale(.12451)"/><path d="M716.2 506.28h49.126v32.214H716.2Z" style="fill:none;stroke:#000;stroke-width:1.5" transform="translate(-13.696 -28.524)scale(.12451)"/><g style="stroke-width:1.5"><path d="M769.41 690.74c0 6.762-5.482 12.244-12.244 12.244s-12.244-5.482-12.244-12.244 5.482-12.244 12.244-12.244 12.244 5.482 12.244 12.244zM757.17 691.02v-14.806" style="fill:none;stroke:#000;stroke-width:1.5" transform="translate(-13.696 -28.524)scale(.12451)"/></g><path d="M747.17 649.39h18.187c.54 0 .973 3.233.973 7.248s-.434 7.248-.973 7.248H747.17c-.54 0-.973-3.232-.973-7.248 0-4.015.434-7.248.973-7.248zM798.95 480.76h18.187c.54 0 .973 3.233.973 7.248s-.434 7.248-.973 7.248H798.95c-.54 0-.973-3.232-.973-7.248 0-4.015.434-7.248.973-7.248z" style="fill:none;stroke:#000;stroke-width:1.5" transform="translate(-13.696 -28.524)scale(.12451)"/><g style="stroke-width:1.5"><path d="M769.41 690.74c0 6.762-5.482 12.244-12.244 12.244s-12.244-5.482-12.244-12.244 5.482-12.244 12.244-12.244 12.244 5.482 12.244 12.244zM757.17 691.02v-14.806" style="fill:none;stroke:#000;stroke-width:1.5" transform="translate(-13.696 -36.492)scale(.12451)"/></g><g style="stroke-width:1.5"><path d="M769.41 690.74c0 6.762-5.482 12.244-12.244 12.244s-12.244-5.482-12.244-12.244 5.482-12.244 12.244-12.244 12.244 5.482 12.244 12.244zM757.17 691.02v-14.806" style="fill:none;stroke:#000;stroke-width:1.5" transform="translate(-13.696 -41.473)scale(.12451)"/></g><g style="stroke-width:1.5"><path d="M769.41 690.74c0 6.762-5.482 12.244-12.244 12.244s-12.244-5.482-12.244-12.244 5.482-12.244 12.244-12.244 12.244 5.482 12.244 12.244zM757.17 691.02v-14.806" style="fill:none;stroke:#000;stroke-width:1.5" transform="translate(-22.66 -36.492)scale(.12451)"/></g><g style="stroke-width:1.5"><path d="M769.41 690.74c0 6.762-5.482 12.244-12.244 12.244s-12.244-5.482-12.244-12.244 5.482-12.244 12.244-12.244 12.244 5.482 12.244 12.244zM757.17 691.02v-14.806" style="fill:none;stroke:#000;stroke-width:1.5" transform="translate(-22.66 -41.473)scale(.12451)"/></g><g style="stroke-width:1.5"><path d="M769.41 690.74c0 6.762-5.482 12.244-12.244 12.244s-12.244-5.482-12.244-12.244 5.482-12.244 12.244-12.244 12.244 5.482 12.244 12.244zM757.17 691.02v-14.806" style="fill:none;stroke:#000;stroke-width:1.5" transform="translate(-7.47 -41.473)scale(.12451)"/></g><path d="M798.95 618.76h18.187c.54 0 .973 3.233.973 7.248s-.434 7.248-.973 7.248H798.95c-.54 0-.973-3.232-.973-7.248 0-4.015.434-7.248.973-7.248zM747.17 767.39h18.187c.54 0 .973 3.233.973 7.248s-.434 7.248-.973 7.248H747.17c-.54 0-.973-3.232-.973-7.248 0-4.015.434-7.248.973-7.248zM707.17 767.39h18.187c.54 0 .973 3.233.973 7.248s-.434 7.248-.973 7.248H707.17c-.54 0-.973-3.232-.973-7.248 0-4.015.434-7.248.973-7.248zM677.17 767.39h18.187c.54 0 .973 3.233.973 7.248s-.434 7.248-.973 7.248H677.17c-.54 0-.973-3.232-.973-7.248 0-4.015.434-7.248.973-7.248zM707.17 741.39h18.187c.54 0 .973 3.233.973 7.248s-.434 7.248-.973 7.248H707.17c-.54 0-.973-3.232-.973-7.248 0-4.015.434-7.248.973-7.248zM677.17 741.39h18.187c.54 0 .973 3.233.973 7.248s-.434 7.248-.973 7.248H677.17c-.54 0-.973-3.232-.973-7.248 0-4.015.434-7.248.973-7.248zM683.59 699.96h18.187c.54 0 .973 3.233.973 7.248s-.434 7.248-.973 7.248H683.59c-.54 0-.973-3.232-.973-7.248 0-4.015.434-7.248.973-7.248zM683.59 673.96h18.187c.54 0 .973 3.233.973 7.248s-.434 7.248-.973 7.248H683.59c-.54 0-.973-3.232-.973-7.248 0-4.015.434-7.248.973-7.248zM683.59 647.96h18.187c.54 0 .973 3.233.973 7.248s-.434 7.248-.973 7.248H683.59c-.54 0-.973-3.232-.973-7.248 0-4.015.434-7.248.973-7.248z" style="fill:none;stroke:#000;stroke-width:1.5" transform="translate(-13.696 -28.524)scale(.12451)"/><g style="stroke-width:1.5"><g style="fill:none;stroke-width:.6652"><path d="M1112.7 611.58a5.43 5.43 0 1 1-10.86 0 5.43 5.43 0 0 1 10.86 0z" style="fill:none;stroke:#000;stroke-width:.6652" transform="matrix(.28077 0 0 .28077 -298.504 -139.364)"/><path d="M1105.3 899.07v-6.566" style="fill:none;stroke:#000;stroke-width:.6652" transform="matrix(.28077 0 0 .28077 -297.943 -220.047)"/></g><g style="fill:none;stroke-width:.6652"><path d="M1112.7 611.58a5.43 5.43 0 1 1-10.86 0 5.43 5.43 0 0 1 10.86 0z" style="fill:none;stroke:#000;stroke-width:.6652" transform="matrix(.28077 0 0 .28077 -298.504 -134.682)"/><path d="M1105.3 899.07v-6.566" style="fill:none;stroke:#000;stroke-width:.6652" transform="matrix(.28077 0 0 .28077 -297.943 -215.365)"/></g><g style="fill:none;stroke-width:.6652"><path d="M1112.7 611.58a5.43 5.43 0 1 1-10.86 0 5.43 5.43 0 0 1 10.86 0z" style="fill:none;stroke:#000;stroke-width:.6652" transform="matrix(.28077 0 0 .28077 -298.504 -130)"/><path d="M1105.3 899.07v-6.566" style="fill:none;stroke:#000;stroke-width:.6652" transform="matrix(.28077 0 0 .28077 -297.943 -210.683)"/></g><g style="fill:none;stroke-width:.6652"><path d="M1112.7 611.58a5.43 5.43 0 1 1-10.86 0 5.43 5.43 0 0 1 10.86 0z" style="fill:none;stroke:#000;stroke-width:.6652" transform="matrix(.28077 0 0 .28077 -298.504 -125.319)"/><path d="M1105.3 899.07v-6.566" style="fill:none;stroke:#000;stroke-width:.6652" transform="matrix(.28077 0 0 .28077 -297.943 -206.002)"/></g><g style="fill:none;stroke-width:.6652"><path d="M1112.7 611.58a5.43 5.43 0 1 1-10.86 0 5.43 5.43 0 0 1 10.86 0z" style="fill:none;stroke:#000;stroke-width:.6652" transform="matrix(.28077 0 0 .28077 -298.504 -120.65)"/><path d="M1105.3 899.07v-6.566" style="fill:none;stroke:#000;stroke-width:.6652" transform="matrix(.28077 0 0 .28077 -297.943 -201.333)"/></g><g style="fill:none;stroke-width:.6652"><path d="M1112.7 611.58a5.43 5.43 0 1 1-10.86 0 5.43 5.43 0 0 1 10.86 0z" style="fill:none;stroke:#000;stroke-width:.6652" transform="matrix(.28077 0 0 .28077 -298.504 -115.968)"/><path d="M1105.3 899.07v-6.566" style="fill:none;stroke:#000;stroke-width:.6652" transform="matrix(.28077 0 0 .28077 -297.943 -196.651)"/></g><g style="fill:none;stroke-width:.6652"><path d="M1112.7 611.58a5.43 5.43 0 1 1-10.86 0 5.43 5.43 0 0 1 10.86 0z" style="fill:none;stroke:#000;stroke-width:.6652" transform="matrix(.28077 0 0 .28077 -298.504 -111.287)"/><path d="M1105.3 899.07v-6.566" style="fill:none;stroke:#000;stroke-width:.6652" transform="matrix(.28077 0 0 .28077 -297.943 -191.97)"/></g><path d="M195.26 973.94h45.319c2.432 0 4.39 2.92 4.39 6.549 0 3.628-1.958 6.549-4.39 6.549H195.26c-2.432 0-4.39-2.921-4.39-6.55 0-3.627 1.958-6.548 4.39-6.548z" style="fill:none;stroke:#000;stroke-width:1.5" transform="translate(-13.696 -28.524)scale(.12451)"/><path d="M192.99 804.24h51.014c2.432 0 4.39 5.334 4.39 11.959v163.44c0 6.625-1.958 11.959-4.39 11.959H192.99c-2.432 0-4.39-5.334-4.39-11.959v-163.44c0-6.625 1.958-11.959 4.39-11.959zM188.6 510.26v108.77l.57 37.881M189.73 735.18l-2 66.885M229.43 689.78h13.998c.54 0 .973 3.302.973 7.403s-.434 7.403-.973 7.403H229.43c-.54 0-.973-3.302-.973-7.403s.434-7.403.973-7.403zM227.72 777.77h16.846c.54 0 .973 4.953.973 11.105s-.434 11.105-.973 11.105H227.72c-.54 0-.973-4.953-.973-11.105s.434-11.105.973-11.105zM192.99 778.34h27.096c.54 0 .973 4.572.973 10.25 0 5.679-.434 10.25-.973 10.25H192.99c-.54 0-.973-4.572-.973-10.25 0-5.679.434-10.25.973-10.25z" style="fill:none;stroke:#000;stroke-width:1.5" transform="translate(-13.696 -28.524)scale(.12451)"/><path d="M240.26 956.2a6.04 6.04 0 1 1-12.08 0 6.04 6.04 0 0 1 12.08 0zM237.09 830.61c0 1.78-1.532 3.221-3.423 3.221-1.89 0-3.423-1.442-3.423-3.221s1.533-3.221 3.423-3.221 3.423 1.442 3.423 3.221z" style="fill:none;stroke:#000;stroke-width:1.5" transform="translate(-13.696 -28.524)scale(.12451)"/><g style="stroke-width:1.5"><path d="M209.67 812.22c-1.137 1.137-1.139 38.74-.856 76.12m.51 49.468c.19 15.11.346 25.32.346 25.32" style="fill:none;stroke:#000;stroke-width:1.5" transform="translate(-13.945 -28.524)scale(.12451)"/><path d="M199.82 888.52h18.554c2.432 0 4.39 5.334 4.39 11.959v25.626c0 6.625-1.958 11.959-4.39 11.959H199.82c-2.432 0-4.39-5.334-4.39-11.959v-25.626c0-6.625 1.958-11.959 4.39-11.959z" style="fill:none;stroke:#000;stroke-width:1.5" transform="translate(-13.945 -28.524)scale(.12451)"/><path d="M209.67 812.22c-1.139 1.139-1.139 38.862-.854 76.303m.51 49.466c.189 15.01.344 25.139.344 25.139" style="fill:none;stroke:#000;stroke-width:1.5" transform="translate(-13.945 -28.524)scale(.12451)"/><path d="M199.82 888.52h18.554c2.432 0 4.39 5.334 4.39 11.959v25.626c0 6.625-1.958 11.959-4.39 11.959H199.82c-2.432 0-4.39-5.334-4.39-11.959v-25.626c0-6.625 1.958-11.959 4.39-11.959z" style="fill:none;stroke:#000;stroke-width:1.5" transform="translate(-13.945 -28.524)scale(.12451)"/><path d="M60.893 751.65h25.893" style="fill:none;stroke:#000;stroke-width:1.5" transform="translate(2.926 -10.837)scale(.12451)"/><path d="M196.4 895.7h25.893M196.4 897.7h25.893M196.4 899.7h25.893M196.4 901.7h25.893M196.4 903.7h25.893M196.4 905.7h25.893M196.4 907.7h25.893M196.4 909.7h25.893M196.4 911.7h25.893M196.4 913.7h25.893M196.4 915.7h25.893M196.4 917.7h25.893M196.4 919.7h25.893M196.4 921.7h25.893M196.4 923.7h25.893M196.4 925.7h25.893M196.4 927.7h25.893M196.4 929.7h25.893M196.4 931.7h25.893" style="fill:none;stroke:#000;stroke-width:1.5" transform="translate(-13.945 -28.524)scale(.12451)"/></g><path d="M237.09 818.61c0 1.78-1.532 3.221-3.423 3.221-1.89 0-3.423-1.442-3.423-3.221s1.533-3.221 3.423-3.221 3.423 1.442 3.423 3.221zM225.38 846.68h18.187c.54 0 .973 3.233.973 7.248s-.434 7.248-.973 7.248H225.38c-.54 0-.973-3.233-.973-7.248s.434-7.248.973-7.248zM225.38 874.68h18.187c.54 0 .973 3.233.973 7.248s-.434 7.248-.973 7.248H225.38c-.54 0-.973-3.233-.973-7.248s.434-7.248.973-7.248zM225.38 904.68h18.187c.54 0 .973 3.233.973 7.248s-.434 7.248-.973 7.248H225.38c-.54 0-.973-3.233-.973-7.248s.434-7.248.973-7.248z" style="fill:none;stroke:#000;stroke-width:1.5" transform="translate(-13.696 -28.524)scale(.12451)"/><g style="fill:none;stroke-width:.6652"><path d="M1112.7 611.58a5.43 5.43 0 1 1-10.86 0 5.43 5.43 0 0 1 10.86 0z" style="fill:none;stroke:#000;stroke-width:.6652" transform="matrix(.28077 0 0 .28077 -298.504 -106.057)"/><path d="M1105.3 899.07v-6.566" style="fill:none;stroke:#000;stroke-width:.6652" transform="matrix(.28077 0 0 .28077 -297.943 -186.74)"/></g></g><g style="stroke-width:1.5"><g style="fill:none;stroke-width:.6652"><path d="M1112.7 611.58a5.43 5.43 0 1 1-10.86 0 5.43 5.43 0 0 1 10.86 0z" style="fill:none;stroke:#000;stroke-width:.6652" transform="matrix(.28077 0 0 .28077 -291.034 -139.364)"/><path d="M1105.3 899.07v-6.566" style="fill:none;stroke:#000;stroke-width:.6652" transform="matrix(.28077 0 0 .28077 -290.472 -220.047)"/></g><g style="fill:none;stroke-width:.6652"><path d="M1112.7 611.58a5.43 5.43 0 1 1-10.86 0 5.43 5.43 0 0 1 10.86 0z" style="fill:none;stroke:#000;stroke-width:.6652" transform="matrix(.28077 0 0 .28077 -291.034 -134.682)"/><path d="M1105.3 899.07v-6.566" style="fill:none;stroke:#000;stroke-width:.6652" transform="matrix(.28077 0 0 .28077 -290.472 -215.365)"/></g><g style="fill:none;stroke-width:.6652"><path d="M1112.7 611.58a5.43 5.43 0 1 1-10.86 0 5.43 5.43 0 0 1 10.86 0z" style="fill:none;stroke:#000;stroke-width:.6652" transform="matrix(.28077 0 0 .28077 -291.034 -130)"/><path d="M1105.3 899.07v-6.566" style="fill:none;stroke:#000;stroke-width:.6652" transform="matrix(.28077 0 0 .28077 -290.472 -210.683)"/></g><g style="fill:none;stroke-width:.6652"><path d="M1112.7 611.58a5.43 5.43 0 1 1-10.86 0 5.43 5.43 0 0 1 10.86 0z" style="fill:none;stroke:#000;stroke-width:.6652" transform="matrix(.28077 0 0 .28077 -291.034 -125.319)"/><path d="M1105.3 899.07v-6.566" style="fill:none;stroke:#000;stroke-width:.6652" transform="matrix(.28077 0 0 .28077 -290.472 -206.002)"/></g><g style="fill:none;stroke-width:.6652"><path d="M1112.7 611.58a5.43 5.43 0 1 1-10.86 0 5.43 5.43 0 0 1 10.86 0z" style="fill:none;stroke:#000;stroke-width:.6652" transform="matrix(.28077 0 0 .28077 -291.034 -120.65)"/><path d="M1105.3 899.07v-6.566" style="fill:none;stroke:#000;stroke-width:.6652" transform="matrix(.28077 0 0 .28077 -290.472 -201.333)"/></g><g style="fill:none;stroke-width:.6652"><path d="M1112.7 611.58a5.43 5.43 0 1 1-10.86 0 5.43 5.43 0 0 1 10.86 0z" style="fill:none;stroke:#000;stroke-width:.6652" transform="matrix(.28077 0 0 .28077 -291.034 -115.968)"/><path d="M1105.3 899.07v-6.566" style="fill:none;stroke:#000;stroke-width:.6652" transform="matrix(.28077 0 0 .28077 -290.472 -196.651)"/></g><g style="fill:none;stroke-width:.6652"><path d="M1112.7 611.58a5.43 5.43 0 1 1-10.86 0 5.43 5.43 0 0 1 10.86 0z" style="fill:none;stroke:#000;stroke-width:.6652" transform="matrix(.28077 0 0 .28077 -291.034 -111.287)"/><path d="M1105.3 899.07v-6.566" style="fill:none;stroke:#000;stroke-width:.6652" transform="matrix(.28077 0 0 .28077 -290.472 -191.97)"/></g><path d="M195.26 973.94h45.319c2.432 0 4.39 2.92 4.39 6.549 0 3.628-1.958 6.549-4.39 6.549H195.26c-2.432 0-4.39-2.921-4.39-6.55 0-3.627 1.958-6.548 4.39-6.548z" style="fill:none;stroke:#000;stroke-width:1.5" transform="translate(-6.225 -28.524)scale(.12451)"/><path d="M192.99 804.24h51.014c2.432 0 4.39 5.334 4.39 11.959v163.44c0 6.625-1.958 11.959-4.39 11.959H192.99c-2.432 0-4.39-5.334-4.39-11.959v-163.44c0-6.625 1.958-11.959 4.39-11.959zM188.6 510.26v108.77l.57 37.881M189.73 735.18l-2 66.885M229.43 689.78h13.998c.54 0 .973 3.302.973 7.403s-.434 7.403-.973 7.403H229.43c-.54 0-.973-3.302-.973-7.403s.434-7.403.973-7.403zM227.72 777.77h16.846c.54 0 .973 4.953.973 11.105s-.434 11.105-.973 11.105H227.72c-.54 0-.973-4.953-.973-11.105s.434-11.105.973-11.105zM192.99 778.34h27.096c.54 0 .973 4.572.973 10.25 0 5.679-.434 10.25-.973 10.25H192.99c-.54 0-.973-4.572-.973-10.25 0-5.679.434-10.25.973-10.25z" style="fill:none;stroke:#000;stroke-width:1.5" transform="translate(-6.225 -28.524)scale(.12451)"/><path d="M240.26 956.2a6.04 6.04 0 1 1-12.08 0 6.04 6.04 0 0 1 12.08 0zM237.09 830.61c0 1.78-1.532 3.221-3.423 3.221-1.89 0-3.423-1.442-3.423-3.221s1.533-3.221 3.423-3.221 3.423 1.442 3.423 3.221z" style="fill:none;stroke:#000;stroke-width:1.5" transform="translate(-6.225 -28.524)scale(.12451)"/><g style="stroke-width:1.5"><path d="M209.67 812.22c-1.137 1.137-1.139 38.74-.856 76.12m.51 49.468c.19 15.11.346 25.32.346 25.32" style="fill:none;stroke:#000;stroke-width:1.5" transform="translate(-6.474 -28.524)scale(.12451)"/><path d="M199.82 888.52h18.554c2.432 0 4.39 5.334 4.39 11.959v25.626c0 6.625-1.958 11.959-4.39 11.959H199.82c-2.432 0-4.39-5.334-4.39-11.959v-25.626c0-6.625 1.958-11.959 4.39-11.959z" style="fill:none;stroke:#000;stroke-width:1.5" transform="translate(-6.474 -28.524)scale(.12451)"/><path d="M209.67 812.22c-1.139 1.139-1.139 38.862-.854 76.303m.51 49.466c.189 15.01.344 25.139.344 25.139" style="fill:none;stroke:#000;stroke-width:1.5" transform="translate(-6.474 -28.524)scale(.12451)"/><path d="M199.82 888.52h18.554c2.432 0 4.39 5.334 4.39 11.959v25.626c0 6.625-1.958 11.959-4.39 11.959H199.82c-2.432 0-4.39-5.334-4.39-11.959v-25.626c0-6.625 1.958-11.959 4.39-11.959z" style="fill:none;stroke:#000;stroke-width:1.5" transform="translate(-6.474 -28.524)scale(.12451)"/><path d="M60.893 751.65h25.893" style="fill:none;stroke:#000;stroke-width:1.5" transform="translate(10.397 -10.837)scale(.12451)"/><path d="M196.4 895.7h25.893M196.4 897.7h25.893M196.4 899.7h25.893M196.4 901.7h25.893M196.4 903.7h25.893M196.4 905.7h25.893M196.4 907.7h25.893M196.4 909.7h25.893M196.4 911.7h25.893M196.4 913.7h25.893M196.4 915.7h25.893M196.4 917.7h25.893M196.4 919.7h25.893M196.4 921.7h25.893M196.4 923.7h25.893M196.4 925.7h25.893M196.4 927.7h25.893M196.4 929.7h25.893M196.4 931.7h25.893" style="fill:none;stroke:#000;stroke-width:1.5" transform="translate(-6.474 -28.524)scale(.12451)"/></g><path d="M237.09 818.61c0 1.78-1.532 3.221-3.423 3.221-1.89 0-3.423-1.442-3.423-3.221s1.533-3.221 3.423-3.221 3.423 1.442 3.423 3.221zM225.38 846.68h18.187c.54 0 .973 3.233.973 7.248s-.434 7.248-.973 7.248H225.38c-.54 0-.973-3.233-.973-7.248s.434-7.248.973-7.248zM225.38 874.68h18.187c.54 0 .973 3.233.973 7.248s-.434 7.248-.973 7.248H225.38c-.54 0-.973-3.233-.973-7.248s.434-7.248.973-7.248zM225.38 904.68h18.187c.54 0 .973 3.233.973 7.248s-.434 7.248-.973 7.248H225.38c-.54 0-.973-3.233-.973-7.248s.434-7.248.973-7.248z" style="fill:none;stroke:#000;stroke-width:1.5" transform="translate(-6.225 -28.524)scale(.12451)"/><g style="fill:none;stroke-width:.6652"><path d="M1112.7 611.58a5.43 5.43 0 1 1-10.86 0 5.43 5.43 0 0 1 10.86 0z" style="fill:none;stroke:#000;stroke-width:.6652" transform="matrix(.28077 0 0 .28077 -291.034 -106.057)"/><path d="M1105.3 899.07v-6.566" style="fill:none;stroke:#000;stroke-width:.6652" transform="matrix(.28077 0 0 .28077 -290.472 -186.74)"/></g></g><g style="stroke-width:1.5"><g style="fill:none;stroke-width:.6652"><path d="M1112.7 611.58a5.43 5.43 0 1 1-10.86 0 5.43 5.43 0 0 1 10.86 0z" style="fill:none;stroke:#000;stroke-width:.6652" transform="matrix(.28077 0 0 .28077 -283.563 -139.364)"/><path d="M1105.3 899.07v-6.566" style="fill:none;stroke:#000;stroke-width:.6652" transform="matrix(.28077 0 0 .28077 -283.001 -220.047)"/></g><g style="fill:none;stroke-width:.6652"><path d="M1112.7 611.58a5.43 5.43 0 1 1-10.86 0 5.43 5.43 0 0 1 10.86 0z" style="fill:none;stroke:#000;stroke-width:.6652" transform="matrix(.28077 0 0 .28077 -283.563 -134.682)"/><path d="M1105.3 899.07v-6.566" style="fill:none;stroke:#000;stroke-width:.6652" transform="matrix(.28077 0 0 .28077 -283.001 -215.365)"/></g><g style="fill:none;stroke-width:.6652"><path d="M1112.7 611.58a5.43 5.43 0 1 1-10.86 0 5.43 5.43 0 0 1 10.86 0z" style="fill:none;stroke:#000;stroke-width:.6652" transform="matrix(.28077 0 0 .28077 -283.563 -130)"/><path d="M1105.3 899.07v-6.566" style="fill:none;stroke:#000;stroke-width:.6652" transform="matrix(.28077 0 0 .28077 -283.001 -210.683)"/></g><g style="fill:none;stroke-width:.6652"><path d="M1112.7 611.58a5.43 5.43 0 1 1-10.86 0 5.43 5.43 0 0 1 10.86 0z" style="fill:none;stroke:#000;stroke-width:.6652" transform="matrix(.28077 0 0 .28077 -283.563 -125.319)"/><path d="M1105.3 899.07v-6.566" style="fill:none;stroke:#000;stroke-width:.6652" transform="matrix(.28077 0 0 .28077 -283.001 -206.002)"/></g><g style="fill:none;stroke-width:.6652"><path d="M1112.7 611.58a5.43 5.43 0 1 1-10.86 0 5.43 5.43 0 0 1 10.86 0z" style="fill:none;stroke:#000;stroke-width:.6652" transform="matrix(.28077 0 0 .28077 -283.563 -120.65)"/><path d="M1105.3 899.07v-6.566" style="fill:none;stroke:#000;stroke-width:.6652" transform="matrix(.28077 0 0 .28077 -283.001 -201.333)"/></g><g style="fill:none;stroke-width:.6652"><path d="M1112.7 611.58a5.43 5.43 0 1 1-10.86 0 5.43 5.43 0 0 1 10.86 0z" style="fill:none;stroke:#000;stroke-width:.6652" transform="matrix(.28077 0 0 .28077 -283.563 -115.968)"/><path d="M1105.3 899.07v-6.566" style="fill:none;stroke:#000;stroke-width:.6652" transform="matrix(.28077 0 0 .28077 -283.001 -196.651)"/></g><g style="fill:none;stroke-width:.6652"><path d="M1112.7 611.58a5.43 5.43 0 1 1-10.86 0 5.43 5.43 0 0 1 10.86 0z" style="fill:none;stroke:#000;stroke-width:.6652" transform="matrix(.28077 0 0 .28077 -283.563 -111.287)"/><path d="M1105.3 899.07v-6.566" style="fill:none;stroke:#000;stroke-width:.6652" transform="matrix(.28077 0 0 .28077 -283.001 -191.97)"/></g><path d="M195.26 973.94h45.319c2.432 0 4.39 2.92 4.39 6.549 0 3.628-1.958 6.549-4.39 6.549H195.26c-2.432 0-4.39-2.921-4.39-6.55 0-3.627 1.958-6.548 4.39-6.548z" style="fill:none;stroke:#000;stroke-width:1.5" transform="translate(1.245 -28.524)scale(.12451)"/><path d="M192.99 804.24h51.014c2.432 0 4.39 5.334 4.39 11.959v163.44c0 6.625-1.958 11.959-4.39 11.959H192.99c-2.432 0-4.39-5.334-4.39-11.959v-163.44c0-6.625 1.958-11.959 4.39-11.959zM188.6 510.26v108.77l.57 37.881M189.73 735.18l-2 66.885M229.43 689.78h13.998c.54 0 .973 3.302.973 7.403s-.434 7.403-.973 7.403H229.43c-.54 0-.973-3.302-.973-7.403s.434-7.403.973-7.403zM227.72 777.77h16.846c.54 0 .973 4.953.973 11.105s-.434 11.105-.973 11.105H227.72c-.54 0-.973-4.953-.973-11.105s.434-11.105.973-11.105zM192.99 778.34h27.096c.54 0 .973 4.572.973 10.25 0 5.679-.434 10.25-.973 10.25H192.99c-.54 0-.973-4.572-.973-10.25 0-5.679.434-10.25.973-10.25z" style="fill:none;stroke:#000;stroke-width:1.5" transform="translate(1.245 -28.524)scale(.12451)"/><path d="M240.26 956.2a6.04 6.04 0 1 1-12.08 0 6.04 6.04 0 0 1 12.08 0zM237.09 830.61c0 1.78-1.532 3.221-3.423 3.221-1.89 0-3.423-1.442-3.423-3.221s1.533-3.221 3.423-3.221 3.423 1.442 3.423 3.221z" style="fill:none;stroke:#000;stroke-width:1.5" transform="translate(1.245 -28.524)scale(.12451)"/><g style="stroke-width:1.5"><path d="M209.67 812.22c-1.137 1.137-1.139 38.74-.856 76.12m.51 49.468c.19 15.11.346 25.32.346 25.32" style="fill:none;stroke:#000;stroke-width:1.5" transform="translate(.996 -28.524)scale(.12451)"/><path d="M199.82 888.52h18.554c2.432 0 4.39 5.334 4.39 11.959v25.626c0 6.625-1.958 11.959-4.39 11.959H199.82c-2.432 0-4.39-5.334-4.39-11.959v-25.626c0-6.625 1.958-11.959 4.39-11.959z" style="fill:none;stroke:#000;stroke-width:1.5" transform="translate(.996 -28.524)scale(.12451)"/><path d="M209.67 812.22c-1.139 1.139-1.139 38.862-.854 76.303m.51 49.466c.189 15.01.344 25.139.344 25.139" style="fill:none;stroke:#000;stroke-width:1.5" transform="translate(.996 -28.524)scale(.12451)"/><path d="M199.82 888.52h18.554c2.432 0 4.39 5.334 4.39 11.959v25.626c0 6.625-1.958 11.959-4.39 11.959H199.82c-2.432 0-4.39-5.334-4.39-11.959v-25.626c0-6.625 1.958-11.959 4.39-11.959z" style="fill:none;stroke:#000;stroke-width:1.5" transform="translate(.996 -28.524)scale(.12451)"/><path d="M60.893 751.65h25.893" style="fill:none;stroke:#000;stroke-width:1.5" transform="translate(17.868 -10.837)scale(.12451)"/><path d="M196.4 895.7h25.893M196.4 897.7h25.893M196.4 899.7h25.893M196.4 901.7h25.893M196.4 903.7h25.893M196.4 905.7h25.893M196.4 907.7h25.893M196.4 909.7h25.893M196.4 911.7h25.893M196.4 913.7h25.893M196.4 915.7h25.893M196.4 917.7h25.893M196.4 919.7h25.893M196.4 921.7h25.893M196.4 923.7h25.893M196.4 925.7h25.893M196.4 927.7h25.893M196.4 929.7h25.893M196.4 931.7h25.893" style="fill:none;stroke:#000;stroke-width:1.5" transform="translate(.996 -28.524)scale(.12451)"/></g><path d="M237.09 818.61c0 1.78-1.532 3.221-3.423 3.221-1.89 0-3.423-1.442-3.423-3.221s1.533-3.221 3.423-3.221 3.423 1.442 3.423 3.221zM225.38 846.68h18.187c.54 0 .973 3.233.973 7.248s-.434 7.248-.973 7.248H225.38c-.54 0-.973-3.233-.973-7.248s.434-7.248.973-7.248zM225.38 874.68h18.187c.54 0 .973 3.233.973 7.248s-.434 7.248-.973 7.248H225.38c-.54 0-.973-3.233-.973-7.248s.434-7.248.973-7.248zM225.38 904.68h18.187c.54 0 .973 3.233.973 7.248s-.434 7.248-.973 7.248H225.38c-.54 0-.973-3.233-.973-7.248s.434-7.248.973-7.248z" style="fill:none;stroke:#000;stroke-width:1.5" transform="translate(1.245 -28.524)scale(.12451)"/><g style="fill:none;stroke-width:.6652"><path d="M1112.7 611.58a5.43 5.43 0 1 1-10.86 0 5.43 5.43 0 0 1 10.86 0z" style="fill:none;stroke:#000;stroke-width:.6652" transform="matrix(.28077 0 0 .28077 -283.563 -106.057)"/><path d="M1105.3 899.07v-6.566" style="fill:none;stroke:#000;stroke-width:.6652" transform="matrix(.28077 0 0 .28077 -283.001 -186.74)"/></g></g><g style="stroke-width:1.5"><g style="fill:none;stroke-width:.6652"><path d="M1112.7 611.58a5.43 5.43 0 1 1-10.86 0 5.43 5.43 0 0 1 10.86 0z" style="fill:none;stroke:#000;stroke-width:.6652" transform="matrix(.28077 0 0 .28077 -276.092 -139.364)"/><path d="M1105.3 899.07v-6.566" style="fill:none;stroke:#000;stroke-width:.6652" transform="matrix(.28077 0 0 .28077 -275.53 -220.047)"/></g><g style="fill:none;stroke-width:.6652"><path d="M1112.7 611.58a5.43 5.43 0 1 1-10.86 0 5.43 5.43 0 0 1 10.86 0z" style="fill:none;stroke:#000;stroke-width:.6652" transform="matrix(.28077 0 0 .28077 -276.092 -134.682)"/><path d="M1105.3 899.07v-6.566" style="fill:none;stroke:#000;stroke-width:.6652" transform="matrix(.28077 0 0 .28077 -275.53 -215.365)"/></g><g style="fill:none;stroke-width:.6652"><path d="M1112.7 611.58a5.43 5.43 0 1 1-10.86 0 5.43 5.43 0 0 1 10.86 0z" style="fill:none;stroke:#000;stroke-width:.6652" transform="matrix(.28077 0 0 .28077 -276.092 -130)"/><path d="M1105.3 899.07v-6.566" style="fill:none;stroke:#000;stroke-width:.6652" transform="matrix(.28077 0 0 .28077 -275.53 -210.683)"/></g><g style="fill:none;stroke-width:.6652"><path d="M1112.7 611.58a5.43 5.43 0 1 1-10.86 0 5.43 5.43 0 0 1 10.86 0z" style="fill:none;stroke:#000;stroke-width:.6652" transform="matrix(.28077 0 0 .28077 -276.092 -125.319)"/><path d="M1105.3 899.07v-6.566" style="fill:none;stroke:#000;stroke-width:.6652" transform="matrix(.28077 0 0 .28077 -275.53 -206.002)"/></g><g style="fill:none;stroke-width:.6652"><path d="M1112.7 611.58a5.43 5.43 0 1 1-10.86 0 5.43 5.43 0 0 1 10.86 0z" style="fill:none;stroke:#000;stroke-width:.6652" transform="matrix(.28077 0 0 .28077 -276.092 -120.65)"/><path d="M1105.3 899.07v-6.566" style="fill:none;stroke:#000;stroke-width:.6652" transform="matrix(.28077 0 0 .28077 -275.53 -201.333)"/></g><g style="fill:none;stroke-width:.6652"><path d="M1112.7 611.58a5.43 5.43 0 1 1-10.86 0 5.43 5.43 0 0 1 10.86 0z" style="fill:none;stroke:#000;stroke-width:.6652" transform="matrix(.28077 0 0 .28077 -276.092 -115.968)"/><path d="M1105.3 899.07v-6.566" style="fill:none;stroke:#000;stroke-width:.6652" transform="matrix(.28077 0 0 .28077 -275.53 -196.651)"/></g><g style="fill:none;stroke-width:.6652"><path d="M1112.7 611.58a5.43 5.43 0 1 1-10.86 0 5.43 5.43 0 0 1 10.86 0z" style="fill:none;stroke:#000;stroke-width:.6652" transform="matrix(.28077 0 0 .28077 -276.092 -111.287)"/><path d="M1105.3 899.07v-6.566" style="fill:none;stroke:#000;stroke-width:.6652" transform="matrix(.28077 0 0 .28077 -275.53 -191.97)"/></g><path d="M195.26 973.94h45.319c2.432 0 4.39 2.92 4.39 6.549 0 3.628-1.958 6.549-4.39 6.549H195.26c-2.432 0-4.39-2.921-4.39-6.55 0-3.627 1.958-6.548 4.39-6.548z" style="fill:none;stroke:#000;stroke-width:1.5" transform="translate(8.716 -28.524)scale(.12451)"/><path d="M192.99 804.24h51.014c2.432 0 4.39 5.334 4.39 11.959v163.44c0 6.625-1.958 11.959-4.39 11.959H192.99c-2.432 0-4.39-5.334-4.39-11.959v-163.44c0-6.625 1.958-11.959 4.39-11.959zM188.6 510.26v108.77l.57 37.881M189.73 735.18l-2 66.885M229.43 689.78h13.998c.54 0 .973 3.302.973 7.403s-.434 7.403-.973 7.403H229.43c-.54 0-.973-3.302-.973-7.403s.434-7.403.973-7.403zM227.72 777.77h16.846c.54 0 .973 4.953.973 11.105s-.434 11.105-.973 11.105H227.72c-.54 0-.973-4.953-.973-11.105s.434-11.105.973-11.105zM192.99 778.34h27.096c.54 0 .973 4.572.973 10.25 0 5.679-.434 10.25-.973 10.25H192.99c-.54 0-.973-4.572-.973-10.25 0-5.679.434-10.25.973-10.25z" style="fill:none;stroke:#000;stroke-width:1.5" transform="translate(8.716 -28.524)scale(.12451)"/><path d="M240.26 956.2a6.04 6.04 0 1 1-12.08 0 6.04 6.04 0 0 1 12.08 0zM237.09 830.61c0 1.78-1.532 3.221-3.423 3.221-1.89 0-3.423-1.442-3.423-3.221s1.533-3.221 3.423-3.221 3.423 1.442 3.423 3.221z" style="fill:none;stroke:#000;stroke-width:1.5" transform="translate(8.716 -28.524)scale(.12451)"/><g style="stroke-width:1.5"><path d="M209.67 812.22c-1.137 1.137-1.139 38.74-.856 76.12m.51 49.468c.19 15.11.346 25.32.346 25.32" style="fill:none;stroke:#000;stroke-width:1.5" transform="translate(8.467 -28.524)scale(.12451)"/><path d="M199.82 888.52h18.554c2.432 0 4.39 5.334 4.39 11.959v25.626c0 6.625-1.958 11.959-4.39 11.959H199.82c-2.432 0-4.39-5.334-4.39-11.959v-25.626c0-6.625 1.958-11.959 4.39-11.959z" style="fill:none;stroke:#000;stroke-width:1.5" transform="translate(8.467 -28.524)scale(.12451)"/><path d="M209.67 812.22c-1.139 1.139-1.139 38.862-.854 76.303m.51 49.466c.189 15.01.344 25.139.344 25.139" style="fill:none;stroke:#000;stroke-width:1.5" transform="translate(8.467 -28.524)scale(.12451)"/><path d="M199.82 888.52h18.554c2.432 0 4.39 5.334 4.39 11.959v25.626c0 6.625-1.958 11.959-4.39 11.959H199.82c-2.432 0-4.39-5.334-4.39-11.959v-25.626c0-6.625 1.958-11.959 4.39-11.959z" style="fill:none;stroke:#000;stroke-width:1.5" transform="translate(8.467 -28.524)scale(.12451)"/><path d="M60.893 751.65h25.893" style="fill:none;stroke:#000;stroke-width:1.5" transform="translate(25.338 -10.837)scale(.12451)"/><path d="M196.4 895.7h25.893M196.4 897.7h25.893M196.4 899.7h25.893M196.4 901.7h25.893M196.4 903.7h25.893M196.4 905.7h25.893M196.4 907.7h25.893M196.4 909.7h25.893M196.4 911.7h25.893M196.4 913.7h25.893M196.4 915.7h25.893M196.4 917.7h25.893M196.4 919.7h25.893M196.4 921.7h25.893M196.4 923.7h25.893M196.4 925.7h25.893M196.4 927.7h25.893M196.4 929.7h25.893M196.4 931.7h25.893" style="fill:none;stroke:#000;stroke-width:1.5" transform="translate(8.467 -28.524)scale(.12451)"/></g><path d="M237.09 818.61c0 1.78-1.532 3.221-3.423 3.221-1.89 0-3.423-1.442-3.423-3.221s1.533-3.221 3.423-3.221 3.423 1.442 3.423 3.221zM225.38 846.68h18.187c.54 0 .973 3.233.973 7.248s-.434 7.248-.973 7.248H225.38c-.54 0-.973-3.233-.973-7.248s.434-7.248.973-7.248zM225.38 874.68h18.187c.54 0 .973 3.233.973 7.248s-.434 7.248-.973 7.248H225.38c-.54 0-.973-3.233-.973-7.248s.434-7.248.973-7.248zM225.38 904.68h18.187c.54 0 .973 3.233.973 7.248s-.434 7.248-.973 7.248H225.38c-.54 0-.973-3.233-.973-7.248s.434-7.248.973-7.248z" style="fill:none;stroke:#000;stroke-width:1.5" transform="translate(8.716 -28.524)scale(.12451)"/><g style="fill:none;stroke-width:.6652"><path d="M1112.7 611.58a5.43 5.43 0 1 1-10.86 0 5.43 5.43 0 0 1 10.86 0z" style="fill:none;stroke:#000;stroke-width:.6652" transform="matrix(.28077 0 0 .28077 -276.092 -106.057)"/><path d="M1105.3 899.07v-6.566" style="fill:none;stroke:#000;stroke-width:.6652" transform="matrix(.28077 0 0 .28077 -275.53 -186.74)"/></g></g><g style="stroke-width:1.5"><g style="fill:none;stroke-width:.6652"><path d="M1112.7 611.58a5.43 5.43 0 1 1-10.86 0 5.43 5.43 0 0 1 10.86 0z" style="fill:none;stroke:#000;stroke-width:.6652" transform="matrix(.28077 0 0 .28077 -268.621 -134.682)"/><path d="M1105.3 899.07v-6.566" style="fill:none;stroke:#000;stroke-width:.6652" transform="matrix(.28077 0 0 .28077 -268.06 -215.365)"/></g><g style="fill:none;stroke-width:.6652"><path d="M1112.7 611.58a5.43 5.43 0 1 1-10.86 0 5.43 5.43 0 0 1 10.86 0z" style="fill:none;stroke:#000;stroke-width:.6652" transform="matrix(.28077 0 0 .28077 -268.621 -130)"/><path d="M1105.3 899.07v-6.566" style="fill:none;stroke:#000;stroke-width:.6652" transform="matrix(.28077 0 0 .28077 -268.06 -210.683)"/></g><g style="fill:none;stroke-width:.6652"><path d="M1112.7 611.58a5.43 5.43 0 1 1-10.86 0 5.43 5.43 0 0 1 10.86 0z" style="fill:none;stroke:#000;stroke-width:.6652" transform="matrix(.28077 0 0 .28077 -268.621 -125.319)"/><path d="M1105.3 899.07v-6.566" style="fill:none;stroke:#000;stroke-width:.6652" transform="matrix(.28077 0 0 .28077 -268.06 -206.002)"/></g><g style="fill:none;stroke-width:.6652"><path d="M1112.7 611.58a5.43 5.43 0 1 1-10.86 0 5.43 5.43 0 0 1 10.86 0z" style="fill:none;stroke:#000;stroke-width:.6652" transform="matrix(.28077 0 0 .28077 -268.621 -120.65)"/><path d="M1105.3 899.07v-6.566" style="fill:none;stroke:#000;stroke-width:.6652" transform="matrix(.28077 0 0 .28077 -268.06 -201.333)"/></g><g style="fill:none;stroke-width:.6652"><path d="M1112.7 611.58a5.43 5.43 0 1 1-10.86 0 5.43 5.43 0 0 1 10.86 0z" style="fill:none;stroke:#000;stroke-width:.6652" transform="matrix(.28077 0 0 .28077 -268.621 -115.968)"/><path d="M1105.3 899.07v-6.566" style="fill:none;stroke:#000;stroke-width:.6652" transform="matrix(.28077 0 0 .28077 -268.06 -196.651)"/></g><g style="fill:none;stroke-width:.6652"><path d="M1112.7 611.58a5.43 5.43 0 1 1-10.86 0 5.43 5.43 0 0 1 10.86 0z" style="fill:none;stroke:#000;stroke-width:.6652" transform="matrix(.28077 0 0 .28077 -268.621 -111.287)"/><path d="M1105.3 899.07v-6.566" style="fill:none;stroke:#000;stroke-width:.6652" transform="matrix(.28077 0 0 .28077 -268.06 -191.97)"/></g><path d="M195.26 973.94h45.319c2.432 0 4.39 2.92 4.39 6.549 0 3.628-1.958 6.549-4.39 6.549H195.26c-2.432 0-4.39-2.921-4.39-6.55 0-3.627 1.958-6.548 4.39-6.548z" style="fill:none;stroke:#000;stroke-width:1.5" transform="translate(16.187 -28.524)scale(.12451)"/><path d="M192.99 804.24h51.014c2.432 0 4.39 5.334 4.39 11.959v163.44c0 6.625-1.958 11.959-4.39 11.959H192.99c-2.432 0-4.39-5.334-4.39-11.959v-163.44c0-6.625 1.958-11.959 4.39-11.959zM188.6 510.26v108.77l.57 37.881M189.73 735.18l-2 66.885M229.43 689.78h13.998c.54 0 .973 3.302.973 7.403s-.434 7.403-.973 7.403H229.43c-.54 0-.973-3.302-.973-7.403s.434-7.403.973-7.403zM227.72 777.77h16.846c.54 0 .973 4.953.973 11.105s-.434 11.105-.973 11.105H227.72c-.54 0-.973-4.953-.973-11.105s.434-11.105.973-11.105zM192.99 778.34h27.096c.54 0 .973 4.572.973 10.25 0 5.679-.434 10.25-.973 10.25H192.99c-.54 0-.973-4.572-.973-10.25 0-5.679.434-10.25.973-10.25z" style="fill:none;stroke:#000;stroke-width:1.5" transform="translate(16.187 -28.524)scale(.12451)"/><path d="M240.26 956.2a6.04 6.04 0 1 1-12.08 0 6.04 6.04 0 0 1 12.08 0zM237.09 830.61c0 1.78-1.532 3.221-3.423 3.221-1.89 0-3.423-1.442-3.423-3.221s1.533-3.221 3.423-3.221 3.423 1.442 3.423 3.221z" style="fill:none;stroke:#000;stroke-width:1.5" transform="translate(16.187 -28.524)scale(.12451)"/><g style="stroke-width:1.5"><path d="M209.67 812.22c-1.137 1.137-1.139 38.74-.856 76.12m.51 49.468c.19 15.11.346 25.32.346 25.32" style="fill:none;stroke:#000;stroke-width:1.5" transform="translate(15.938 -28.524)scale(.12451)"/><path d="M199.82 888.52h18.554c2.432 0 4.39 5.334 4.39 11.959v25.626c0 6.625-1.958 11.959-4.39 11.959H199.82c-2.432 0-4.39-5.334-4.39-11.959v-25.626c0-6.625 1.958-11.959 4.39-11.959z" style="fill:none;stroke:#000;stroke-width:1.5" transform="translate(15.938 -28.524)scale(.12451)"/><path d="M209.67 812.22c-1.139 1.139-1.139 38.862-.854 76.303m.51 49.466c.189 15.01.344 25.139.344 25.139" style="fill:none;stroke:#000;stroke-width:1.5" transform="translate(15.938 -28.524)scale(.12451)"/><path d="M199.82 888.52h18.554c2.432 0 4.39 5.334 4.39 11.959v25.626c0 6.625-1.958 11.959-4.39 11.959H199.82c-2.432 0-4.39-5.334-4.39-11.959v-25.626c0-6.625 1.958-11.959 4.39-11.959z" style="fill:none;stroke:#000;stroke-width:1.5" transform="translate(15.938 -28.524)scale(.12451)"/><path d="M60.893 751.65h25.893" style="fill:none;stroke:#000;stroke-width:1.5" transform="translate(32.809 -10.837)scale(.12451)"/><path d="M196.4 895.7h25.893M196.4 897.7h25.893M196.4 899.7h25.893M196.4 901.7h25.893M196.4 903.7h25.893M196.4 905.7h25.893M196.4 907.7h25.893M196.4 909.7h25.893M196.4 911.7h25.893M196.4 913.7h25.893M196.4 915.7h25.893M196.4 917.7h25.893M196.4 919.7h25.893M196.4 921.7h25.893M196.4 923.7h25.893M196.4 925.7h25.893M196.4 927.7h25.893M196.4 929.7h25.893M196.4 931.7h25.893" style="fill:none;stroke:#000;stroke-width:1.5" transform="translate(15.938 -28.524)scale(.12451)"/></g><path d="M237.09 818.61c0 1.78-1.532 3.221-3.423 3.221-1.89 0-3.423-1.442-3.423-3.221s1.533-3.221 3.423-3.221 3.423 1.442 3.423 3.221zM225.38 846.68h18.187c.54 0 .973 3.233.973 7.248s-.434 7.248-.973 7.248H225.38c-.54 0-.973-3.233-.973-7.248s.434-7.248.973-7.248zM225.38 874.68h18.187c.54 0 .973 3.233.973 7.248s-.434 7.248-.973 7.248H225.38c-.54 0-.973-3.233-.973-7.248s.434-7.248.973-7.248zM225.38 904.68h18.187c.54 0 .973 3.233.973 7.248s-.434 7.248-.973 7.248H225.38c-.54 0-.973-3.233-.973-7.248s.434-7.248.973-7.248z" style="fill:none;stroke:#000;stroke-width:1.5" transform="translate(16.187 -28.524)scale(.12451)"/><g style="fill:none;stroke-width:.6652"><path d="M1112.7 611.58a5.43 5.43 0 1 1-10.86 0 5.43 5.43 0 0 1 10.86 0z" style="fill:none;stroke:#000;stroke-width:.6652" transform="matrix(.28077 0 0 .28077 -268.621 -106.057)"/><path d="M1105.3 899.07v-6.566" style="fill:none;stroke:#000;stroke-width:.6652" transform="matrix(.28077 0 0 .28077 -268.06 -186.74)"/></g></g><g style="stroke-width:1.5"><g style="fill:none;stroke-width:.6652"><path d="M1112.7 611.58a5.43 5.43 0 1 1-10.86 0 5.43 5.43 0 0 1 10.86 0z" style="fill:none;stroke:#000;stroke-width:.6652" transform="matrix(.28077 0 0 .28077 -261.15 -134.682)"/><path d="M1105.3 899.07v-6.566" style="fill:none;stroke:#000;stroke-width:.6652" transform="matrix(.28077 0 0 .28077 -260.59 -215.365)"/></g><g style="fill:none;stroke-width:.6652"><path d="M1112.7 611.58a5.43 5.43 0 1 1-10.86 0 5.43 5.43 0 0 1 10.86 0z" style="fill:none;stroke:#000;stroke-width:.6652" transform="matrix(.28077 0 0 .28077 -261.15 -130)"/><path d="M1105.3 899.07v-6.566" style="fill:none;stroke:#000;stroke-width:.6652" transform="matrix(.28077 0 0 .28077 -260.59 -210.683)"/></g><g style="fill:none;stroke-width:.6652"><path d="M1112.7 611.58a5.43 5.43 0 1 1-10.86 0 5.43 5.43 0 0 1 10.86 0z" style="fill:none;stroke:#000;stroke-width:.6652" transform="matrix(.28077 0 0 .28077 -261.15 -125.319)"/><path d="M1105.3 899.07v-6.566" style="fill:none;stroke:#000;stroke-width:.6652" transform="matrix(.28077 0 0 .28077 -260.59 -206.002)"/></g><g style="fill:none;stroke-width:.6652"><path d="M1112.7 611.58a5.43 5.43 0 1 1-10.86 0 5.43 5.43 0 0 1 10.86 0z" style="fill:none;stroke:#000;stroke-width:.6652" transform="matrix(.28077 0 0 .28077 -261.15 -120.65)"/><path d="M1105.3 899.07v-6.566" style="fill:none;stroke:#000;stroke-width:.6652" transform="matrix(.28077 0 0 .28077 -260.59 -201.333)"/></g><g style="fill:none;stroke-width:.6652"><path d="M1112.7 611.58a5.43 5.43 0 1 1-10.86 0 5.43 5.43 0 0 1 10.86 0z" style="fill:none;stroke:#000;stroke-width:.6652" transform="matrix(.28077 0 0 .28077 -261.15 -115.968)"/><path d="M1105.3 899.07v-6.566" style="fill:none;stroke:#000;stroke-width:.6652" transform="matrix(.28077 0 0 .28077 -260.59 -196.651)"/></g><g style="fill:none;stroke-width:.6652"><path d="M1112.7 611.58a5.43 5.43 0 1 1-10.86 0 5.43 5.43 0 0 1 10.86 0z" style="fill:none;stroke:#000;stroke-width:.6652" transform="matrix(.28077 0 0 .28077 -261.15 -111.287)"/><path d="M1105.3 899.07v-6.566" style="fill:none;stroke:#000;stroke-width:.6652" transform="matrix(.28077 0 0 .28077 -260.59 -191.97)"/></g><path d="M195.26 973.94h45.319c2.432 0 4.39 2.92 4.39 6.549 0 3.628-1.958 6.549-4.39 6.549H195.26c-2.432 0-4.39-2.921-4.39-6.55 0-3.627 1.958-6.548 4.39-6.548z" style="fill:none;stroke:#000;stroke-width:1.5" transform="translate(23.657 -28.524)scale(.12451)"/><path d="M192.99 804.24h51.014c2.432 0 4.39 5.334 4.39 11.959v163.44c0 6.625-1.958 11.959-4.39 11.959H192.99c-2.432 0-4.39-5.334-4.39-11.959v-163.44c0-6.625 1.958-11.959 4.39-11.959zM188.6 510.26v108.77l.57 37.881M189.73 735.18l-2 66.885M229.43 689.78h13.998c.54 0 .973 3.302.973 7.403s-.434 7.403-.973 7.403H229.43c-.54 0-.973-3.302-.973-7.403s.434-7.403.973-7.403zM227.72 777.77h16.846c.54 0 .973 4.953.973 11.105s-.434 11.105-.973 11.105H227.72c-.54 0-.973-4.953-.973-11.105s.434-11.105.973-11.105zM192.99 778.34h27.096c.54 0 .973 4.572.973 10.25 0 5.679-.434 10.25-.973 10.25H192.99c-.54 0-.973-4.572-.973-10.25 0-5.679.434-10.25.973-10.25z" style="fill:none;stroke:#000;stroke-width:1.5" transform="translate(23.657 -28.524)scale(.12451)"/><path d="M240.26 956.2a6.04 6.04 0 1 1-12.08 0 6.04 6.04 0 0 1 12.08 0zM237.09 830.61c0 1.78-1.532 3.221-3.423 3.221-1.89 0-3.423-1.442-3.423-3.221s1.533-3.221 3.423-3.221 3.423 1.442 3.423 3.221z" style="fill:none;stroke:#000;stroke-width:1.5" transform="translate(23.657 -28.524)scale(.12451)"/><g style="stroke-width:1.5"><path d="M209.67 812.22c-1.137 1.137-1.139 38.74-.856 76.12m.51 49.468c.19 15.11.346 25.32.346 25.32" style="fill:none;stroke:#000;stroke-width:1.5" transform="translate(23.408 -28.524)scale(.12451)"/><path d="M199.82 888.52h18.554c2.432 0 4.39 5.334 4.39 11.959v25.626c0 6.625-1.958 11.959-4.39 11.959H199.82c-2.432 0-4.39-5.334-4.39-11.959v-25.626c0-6.625 1.958-11.959 4.39-11.959z" style="fill:none;stroke:#000;stroke-width:1.5" transform="translate(23.408 -28.524)scale(.12451)"/><path d="M209.67 812.22c-1.139 1.139-1.139 38.862-.854 76.303m.51 49.466c.189 15.01.344 25.139.344 25.139" style="fill:none;stroke:#000;stroke-width:1.5" transform="translate(23.408 -28.524)scale(.12451)"/><path d="M199.82 888.52h18.554c2.432 0 4.39 5.334 4.39 11.959v25.626c0 6.625-1.958 11.959-4.39 11.959H199.82c-2.432 0-4.39-5.334-4.39-11.959v-25.626c0-6.625 1.958-11.959 4.39-11.959z" style="fill:none;stroke:#000;stroke-width:1.5" transform="translate(23.408 -28.524)scale(.12451)"/><path d="M60.893 751.65h25.893" style="fill:none;stroke:#000;stroke-width:1.5" transform="translate(40.28 -10.837)scale(.12451)"/><path d="M196.4 895.7h25.893M196.4 897.7h25.893M196.4 899.7h25.893M196.4 901.7h25.893M196.4 903.7h25.893M196.4 905.7h25.893M196.4 907.7h25.893M196.4 909.7h25.893M196.4 911.7h25.893M196.4 913.7h25.893M196.4 915.7h25.893M196.4 917.7h25.893M196.4 919.7h25.893M196.4 921.7h25.893M196.4 923.7h25.893M196.4 925.7h25.893M196.4 927.7h25.893M196.4 929.7h25.893M196.4 931.7h25.893" style="fill:none;stroke:#000;stroke-width:1.5" transform="translate(23.408 -28.524)scale(.12451)"/></g><path d="M237.09 818.61c0 1.78-1.532 3.221-3.423 3.221-1.89 0-3.423-1.442-3.423-3.221s1.533-3.221 3.423-3.221 3.423 1.442 3.423 3.221zM225.38 846.68h18.187c.54 0 .973 3.233.973 7.248s-.434 7.248-.973 7.248H225.38c-.54 0-.973-3.233-.973-7.248s.434-7.248.973-7.248zM225.38 874.68h18.187c.54 0 .973 3.233.973 7.248s-.434 7.248-.973 7.248H225.38c-.54 0-.973-3.233-.973-7.248s.434-7.248.973-7.248zM225.38 904.68h18.187c.54 0 .973 3.233.973 7.248s-.434 7.248-.973 7.248H225.38c-.54 0-.973-3.233-.973-7.248s.434-7.248.973-7.248z" style="fill:none;stroke:#000;stroke-width:1.5" transform="translate(23.657 -28.524)scale(.12451)"/><g style="fill:none;stroke-width:.6652"><path d="M1112.7 611.58a5.43 5.43 0 1 1-10.86 0 5.43 5.43 0 0 1 10.86 0z" style="fill:none;stroke:#000;stroke-width:.6652" transform="matrix(.28077 0 0 .28077 -261.15 -106.057)"/><path d="M1105.3 899.07v-6.566" style="fill:none;stroke:#000;stroke-width:.6652" transform="matrix(.28077 0 0 .28077 -260.59 -186.74)"/></g></g><g style="stroke-width:1.5"><g style="fill:none;stroke-width:.6652"><path d="M1112.7 611.58a5.43 5.43 0 1 1-10.86 0 5.43 5.43 0 0 1 10.86 0z" style="fill:none;stroke:#000;stroke-width:.6652" transform="matrix(.28077 0 0 .28077 -253.68 -134.682)"/><path d="M1105.3 899.07v-6.566" style="fill:none;stroke:#000;stroke-width:.6652" transform="matrix(.28077 0 0 .28077 -253.119 -215.365)"/></g><g style="fill:none;stroke-width:.6652"><path d="M1112.7 611.58a5.43 5.43 0 1 1-10.86 0 5.43 5.43 0 0 1 10.86 0z" style="fill:none;stroke:#000;stroke-width:.6652" transform="matrix(.28077 0 0 .28077 -253.68 -130)"/><path d="M1105.3 899.07v-6.566" style="fill:none;stroke:#000;stroke-width:.6652" transform="matrix(.28077 0 0 .28077 -253.119 -210.683)"/></g><g style="fill:none;stroke-width:.6652"><path d="M1112.7 611.58a5.43 5.43 0 1 1-10.86 0 5.43 5.43 0 0 1 10.86 0z" style="fill:none;stroke:#000;stroke-width:.6652" transform="matrix(.28077 0 0 .28077 -253.68 -125.319)"/><path d="M1105.3 899.07v-6.566" style="fill:none;stroke:#000;stroke-width:.6652" transform="matrix(.28077 0 0 .28077 -253.119 -206.002)"/></g><g style="fill:none;stroke-width:.6652"><path d="M1112.7 611.58a5.43 5.43 0 1 1-10.86 0 5.43 5.43 0 0 1 10.86 0z" style="fill:none;stroke:#000;stroke-width:.6652" transform="matrix(.28077 0 0 .28077 -253.68 -120.65)"/><path d="M1105.3 899.07v-6.566" style="fill:none;stroke:#000;stroke-width:.6652" transform="matrix(.28077 0 0 .28077 -253.119 -201.333)"/></g><g style="fill:none;stroke-width:.6652"><path d="M1112.7 611.58a5.43 5.43 0 1 1-10.86 0 5.43 5.43 0 0 1 10.86 0z" style="fill:none;stroke:#000;stroke-width:.6652" transform="matrix(.28077 0 0 .28077 -253.68 -115.968)"/><path d="M1105.3 899.07v-6.566" style="fill:none;stroke:#000;stroke-width:.6652" transform="matrix(.28077 0 0 .28077 -253.119 -196.651)"/></g><g style="fill:none;stroke-width:.6652"><path d="M1112.7 611.58a5.43 5.43 0 1 1-10.86 0 5.43 5.43 0 0 1 10.86 0z" style="fill:none;stroke:#000;stroke-width:.6652" transform="matrix(.28077 0 0 .28077 -253.68 -111.287)"/><path d="M1105.3 899.07v-6.566" style="fill:none;stroke:#000;stroke-width:.6652" transform="matrix(.28077 0 0 .28077 -253.119 -191.97)"/></g><path d="M195.26 973.94h45.319c2.432 0 4.39 2.92 4.39 6.549 0 3.628-1.958 6.549-4.39 6.549H195.26c-2.432 0-4.39-2.921-4.39-6.55 0-3.627 1.958-6.548 4.39-6.548z" style="fill:none;stroke:#000;stroke-width:1.5" transform="translate(31.128 -28.524)scale(.12451)"/><path d="M192.99 804.24h51.014c2.432 0 4.39 5.334 4.39 11.959v163.44c0 6.625-1.958 11.959-4.39 11.959H192.99c-2.432 0-4.39-5.334-4.39-11.959v-163.44c0-6.625 1.958-11.959 4.39-11.959zM188.6 510.26v108.77l.57 37.881M189.73 735.18l-2 66.885M229.43 689.78h13.998c.54 0 .973 3.302.973 7.403s-.434 7.403-.973 7.403H229.43c-.54 0-.973-3.302-.973-7.403s.434-7.403.973-7.403zM227.72 777.77h16.846c.54 0 .973 4.953.973 11.105s-.434 11.105-.973 11.105H227.72c-.54 0-.973-4.953-.973-11.105s.434-11.105.973-11.105zM192.99 778.34h27.096c.54 0 .973 4.572.973 10.25 0 5.679-.434 10.25-.973 10.25H192.99c-.54 0-.973-4.572-.973-10.25 0-5.679.434-10.25.973-10.25z" style="fill:none;stroke:#000;stroke-width:1.5" transform="translate(31.128 -28.524)scale(.12451)"/><path d="M240.26 956.2a6.04 6.04 0 1 1-12.08 0 6.04 6.04 0 0 1 12.08 0zM237.09 830.61c0 1.78-1.532 3.221-3.423 3.221-1.89 0-3.423-1.442-3.423-3.221s1.533-3.221 3.423-3.221 3.423 1.442 3.423 3.221z" style="fill:none;stroke:#000;stroke-width:1.5" transform="translate(31.128 -28.524)scale(.12451)"/><g style="stroke-width:1.5"><path d="M209.67 812.22c-1.137 1.137-1.139 38.74-.856 76.12m.51 49.468c.19 15.11.346 25.32.346 25.32" style="fill:none;stroke:#000;stroke-width:1.5" transform="translate(30.879 -28.524)scale(.12451)"/><path d="M199.82 888.52h18.554c2.432 0 4.39 5.334 4.39 11.959v25.626c0 6.625-1.958 11.959-4.39 11.959H199.82c-2.432 0-4.39-5.334-4.39-11.959v-25.626c0-6.625 1.958-11.959 4.39-11.959z" style="fill:none;stroke:#000;stroke-width:1.5" transform="translate(30.879 -28.524)scale(.12451)"/><path d="M209.67 812.22c-1.139 1.139-1.139 38.862-.854 76.303m.51 49.466c.189 15.01.344 25.139.344 25.139" style="fill:none;stroke:#000;stroke-width:1.5" transform="translate(30.879 -28.524)scale(.12451)"/><path d="M199.82 888.52h18.554c2.432 0 4.39 5.334 4.39 11.959v25.626c0 6.625-1.958 11.959-4.39 11.959H199.82c-2.432 0-4.39-5.334-4.39-11.959v-25.626c0-6.625 1.958-11.959 4.39-11.959z" style="fill:none;stroke:#000;stroke-width:1.5" transform="translate(30.879 -28.524)scale(.12451)"/><path d="M60.893 751.65h25.893" style="fill:none;stroke:#000;stroke-width:1.5" transform="translate(47.75 -10.837)scale(.12451)"/><path d="M196.4 895.7h25.893M196.4 897.7h25.893M196.4 899.7h25.893M196.4 901.7h25.893M196.4 903.7h25.893M196.4 905.7h25.893M196.4 907.7h25.893M196.4 909.7h25.893M196.4 911.7h25.893M196.4 913.7h25.893M196.4 915.7h25.893M196.4 917.7h25.893M196.4 919.7h25.893M196.4 921.7h25.893M196.4 923.7h25.893M196.4 925.7h25.893M196.4 927.7h25.893M196.4 929.7h25.893M196.4 931.7h25.893" style="fill:none;stroke:#000;stroke-width:1.5" transform="translate(30.879 -28.524)scale(.12451)"/></g><path d="M237.09 818.61c0 1.78-1.532 3.221-3.423 3.221-1.89 0-3.423-1.442-3.423-3.221s1.533-3.221 3.423-3.221 3.423 1.442 3.423 3.221zM225.38 846.68h18.187c.54 0 .973 3.233.973 7.248s-.434 7.248-.973 7.248H225.38c-.54 0-.973-3.233-.973-7.248s.434-7.248.973-7.248zM225.38 874.68h18.187c.54 0 .973 3.233.973 7.248s-.434 7.248-.973 7.248H225.38c-.54 0-.973-3.233-.973-7.248s.434-7.248.973-7.248zM225.38 904.68h18.187c.54 0 .973 3.233.973 7.248s-.434 7.248-.973 7.248H225.38c-.54 0-.973-3.233-.973-7.248s.434-7.248.973-7.248z" style="fill:none;stroke:#000;stroke-width:1.5" transform="translate(31.128 -28.524)scale(.12451)"/><g style="fill:none;stroke-width:.6652"><path d="M1112.7 611.58a5.43 5.43 0 1 1-10.86 0 5.43 5.43 0 0 1 10.86 0z" style="fill:none;stroke:#000;stroke-width:.6652" transform="matrix(.28077 0 0 .28077 -253.68 -106.057)"/><path d="M1105.3 899.07v-6.566" style="fill:none;stroke:#000;stroke-width:.6652" transform="matrix(.28077 0 0 .28077 -253.119 -186.74)"/></g></g><g style="stroke-width:1.5"><g style="fill:none;stroke-width:.6652"><path d="M1112.7 611.58a5.43 5.43 0 1 1-10.86 0 5.43 5.43 0 0 1 10.86 0z" style="fill:none;stroke:#000;stroke-width:.6652" transform="matrix(.28077 0 0 .28077 -246.21 -134.682)"/><path d="M1105.3 899.07v-6.566" style="fill:none;stroke:#000;stroke-width:.6652" transform="matrix(.28077 0 0 .28077 -245.648 -215.365)"/></g><g style="fill:none;stroke-width:.6652"><path d="M1112.7 611.58a5.43 5.43 0 1 1-10.86 0 5.43 5.43 0 0 1 10.86 0z" style="fill:none;stroke:#000;stroke-width:.6652" transform="matrix(.28077 0 0 .28077 -246.21 -130)"/><path d="M1105.3 899.07v-6.566" style="fill:none;stroke:#000;stroke-width:.6652" transform="matrix(.28077 0 0 .28077 -245.648 -210.683)"/></g><g style="fill:none;stroke-width:.6652"><path d="M1112.7 611.58a5.43 5.43 0 1 1-10.86 0 5.43 5.43 0 0 1 10.86 0z" style="fill:none;stroke:#000;stroke-width:.6652" transform="matrix(.28077 0 0 .28077 -246.21 -125.319)"/><path d="M1105.3 899.07v-6.566" style="fill:none;stroke:#000;stroke-width:.6652" transform="matrix(.28077 0 0 .28077 -245.648 -206.002)"/></g><g style="fill:none;stroke-width:.6652"><path d="M1112.7 611.58a5.43 5.43 0 1 1-10.86 0 5.43 5.43 0 0 1 10.86 0z" style="fill:none;stroke:#000;stroke-width:.6652" transform="matrix(.28077 0 0 .28077 -246.21 -120.65)"/><path d="M1105.3 899.07v-6.566" style="fill:none;stroke:#000;stroke-width:.6652" transform="matrix(.28077 0 0 .28077 -245.648 -201.333)"/></g><g style="fill:none;stroke-width:.6652"><path d="M1112.7 611.58a5.43 5.43 0 1 1-10.86 0 5.43 5.43 0 0 1 10.86 0z" style="fill:none;stroke:#000;stroke-width:.6652" transform="matrix(.28077 0 0 .28077 -246.21 -115.968)"/><path d="M1105.3 899.07v-6.566" style="fill:none;stroke:#000;stroke-width:.6652" transform="matrix(.28077 0 0 .28077 -245.648 -196.651)"/></g><g style="fill:none;stroke-width:.6652"><path d="M1112.7 611.58a5.43 5.43 0 1 1-10.86 0 5.43 5.43 0 0 1 10.86 0z" style="fill:none;stroke:#000;stroke-width:.6652" transform="matrix(.28077 0 0 .28077 -246.21 -111.287)"/><path d="M1105.3 899.07v-6.566" style="fill:none;stroke:#000;stroke-width:.6652" transform="matrix(.28077 0 0 .28077 -245.648 -191.97)"/></g><path d="M195.26 973.94h45.319c2.432 0 4.39 2.92 4.39 6.549 0 3.628-1.958 6.549-4.39 6.549H195.26c-2.432 0-4.39-2.921-4.39-6.55 0-3.627 1.958-6.548 4.39-6.548z" style="fill:none;stroke:#000;stroke-width:1.5" transform="translate(38.599 -28.524)scale(.12451)"/><path d="M192.99 804.24h51.014c2.432 0 4.39 5.334 4.39 11.959v163.44c0 6.625-1.958 11.959-4.39 11.959H192.99c-2.432 0-4.39-5.334-4.39-11.959v-163.44c0-6.625 1.958-11.959 4.39-11.959zM188.6 510.26v108.77l.57 37.881M189.73 735.18l-2 66.885M229.43 689.78h13.998c.54 0 .973 3.302.973 7.403s-.434 7.403-.973 7.403H229.43c-.54 0-.973-3.302-.973-7.403s.434-7.403.973-7.403zM227.72 777.77h16.846c.54 0 .973 4.953.973 11.105s-.434 11.105-.973 11.105H227.72c-.54 0-.973-4.953-.973-11.105s.434-11.105.973-11.105zM192.99 778.34h27.096c.54 0 .973 4.572.973 10.25 0 5.679-.434 10.25-.973 10.25H192.99c-.54 0-.973-4.572-.973-10.25 0-5.679.434-10.25.973-10.25z" style="fill:none;stroke:#000;stroke-width:1.5" transform="translate(38.599 -28.524)scale(.12451)"/><path d="M240.26 956.2a6.04 6.04 0 1 1-12.08 0 6.04 6.04 0 0 1 12.08 0zM237.09 830.61c0 1.78-1.532 3.221-3.423 3.221-1.89 0-3.423-1.442-3.423-3.221s1.533-3.221 3.423-3.221 3.423 1.442 3.423 3.221z" style="fill:none;stroke:#000;stroke-width:1.5" transform="translate(38.599 -28.524)scale(.12451)"/><g style="stroke-width:1.5"><path d="M209.67 812.22c-1.137 1.137-1.139 38.74-.856 76.12m.51 49.468c.19 15.11.346 25.32.346 25.32" style="fill:none;stroke:#000;stroke-width:1.5" transform="translate(38.35 -28.524)scale(.12451)"/><path d="M199.82 888.52h18.554c2.432 0 4.39 5.334 4.39 11.959v25.626c0 6.625-1.958 11.959-4.39 11.959H199.82c-2.432 0-4.39-5.334-4.39-11.959v-25.626c0-6.625 1.958-11.959 4.39-11.959z" style="fill:none;stroke:#000;stroke-width:1.5" transform="translate(38.35 -28.524)scale(.12451)"/><path d="M209.67 812.22c-1.139 1.139-1.139 38.862-.854 76.303m.51 49.466c.189 15.01.344 25.139.344 25.139" style="fill:none;stroke:#000;stroke-width:1.5" transform="translate(38.35 -28.524)scale(.12451)"/><path d="M199.82 888.52h18.554c2.432 0 4.39 5.334 4.39 11.959v25.626c0 6.625-1.958 11.959-4.39 11.959H199.82c-2.432 0-4.39-5.334-4.39-11.959v-25.626c0-6.625 1.958-11.959 4.39-11.959z" style="fill:none;stroke:#000;stroke-width:1.5" transform="translate(38.35 -28.524)scale(.12451)"/><path d="M60.893 751.65h25.893" style="fill:none;stroke:#000;stroke-width:1.5" transform="translate(55.22 -10.837)scale(.12451)"/><path d="M196.4 895.7h25.893M196.4 897.7h25.893M196.4 899.7h25.893M196.4 901.7h25.893M196.4 903.7h25.893M196.4 905.7h25.893M196.4 907.7h25.893M196.4 909.7h25.893M196.4 911.7h25.893M196.4 913.7h25.893M196.4 915.7h25.893M196.4 917.7h25.893M196.4 919.7h25.893M196.4 921.7h25.893M196.4 923.7h25.893M196.4 925.7h25.893M196.4 927.7h25.893M196.4 929.7h25.893M196.4 931.7h25.893" style="fill:none;stroke:#000;stroke-width:1.5" transform="translate(38.35 -28.524)scale(.12451)"/></g><path d="M237.09 818.61c0 1.78-1.532 3.221-3.423 3.221-1.89 0-3.423-1.442-3.423-3.221s1.533-3.221 3.423-3.221 3.423 1.442 3.423 3.221zM225.38 846.68h18.187c.54 0 .973 3.233.973 7.248s-.434 7.248-.973 7.248H225.38c-.54 0-.973-3.233-.973-7.248s.434-7.248.973-7.248zM225.38 874.68h18.187c.54 0 .973 3.233.973 7.248s-.434 7.248-.973 7.248H225.38c-.54 0-.973-3.233-.973-7.248s.434-7.248.973-7.248zM225.38 904.68h18.187c.54 0 .973 3.233.973 7.248s-.434 7.248-.973 7.248H225.38c-.54 0-.973-3.233-.973-7.248s.434-7.248.973-7.248z" style="fill:none;stroke:#000;stroke-width:1.5" transform="translate(38.599 -28.524)scale(.12451)"/><g style="fill:none;stroke-width:.6652"><path d="M1112.7 611.58a5.43 5.43 0 1 1-10.86 0 5.43 5.43 0 0 1 10.86 0z" style="fill:none;stroke:#000;stroke-width:.6652" transform="matrix(.28077 0 0 .28077 -246.21 -106.057)"/><path d="M1105.3 899.07v-6.566" style="fill:none;stroke:#000;stroke-width:.6652" transform="matrix(.28077 0 0 .28077 -245.648 -186.74)"/></g><path d="M257.26 973.94h149.96c2.432 0 4.39 2.92 4.39 6.549 0 3.628-1.958 6.549-4.39 6.549H257.26c-2.432 0-4.39-2.921-4.39-6.55 0-3.627 1.958-6.548 4.39-6.548z" style="fill:none;stroke:#000;stroke-width:1.5" transform="translate(38.599 -28.524)scale(.12451)"/></g><path d="M456.43 373.47c0 5.221-4.543 9.454-10.146 9.454s-10.146-4.233-10.146-9.454 4.542-9.454 10.146-9.454c5.603 0 10.146 4.233 10.146 9.454z" style="fill:none;stroke:#000;stroke-width:1.5" transform="translate(-13.696 -28.524)scale(.12451)"/><path d="M461.01 373.47c0 7.577-6.591 13.719-14.722 13.719s-14.722-6.142-14.722-13.719 6.591-13.719 14.722-13.719 14.722 6.142 14.722 13.719zM516.43 411.47c0 5.221-4.543 9.454-10.146 9.454s-10.146-4.233-10.146-9.454 4.542-9.454 10.146-9.454c5.603 0 10.146 4.233 10.146 9.454z" style="fill:none;stroke:#000;stroke-width:1.5" transform="translate(-13.696 -28.524)scale(.12451)"/><path d="M521.01 411.47c0 7.577-6.591 13.719-14.722 13.719s-14.722-6.142-14.722-13.719 6.591-13.719 14.722-13.719 14.722 6.142 14.722 13.719zM516.43 373.47c0 5.221-4.543 9.454-10.146 9.454s-10.146-4.233-10.146-9.454 4.542-9.454 10.146-9.454c5.603 0 10.146 4.233 10.146 9.454z" style="fill:none;stroke:#000;stroke-width:1.5" transform="translate(-13.696 -28.524)scale(.12451)"/><path d="M521.01 373.47c0 7.577-6.591 13.719-14.722 13.719s-14.722-6.142-14.722-13.719 6.591-13.719 14.722-13.719 14.722 6.142 14.722 13.719zM576.43 411.47c0 5.221-4.543 9.454-10.146 9.454s-10.146-4.233-10.146-9.454 4.542-9.454 10.146-9.454c5.603 0 10.146 4.233 10.146 9.454z" style="fill:none;stroke:#000;stroke-width:1.5" transform="translate(-13.696 -28.524)scale(.12451)"/><path d="M581.01 411.47c0 7.577-6.591 13.719-14.722 13.719s-14.722-6.142-14.722-13.719 6.591-13.719 14.722-13.719 14.722 6.142 14.722 13.719zM576.43 373.47c0 5.221-4.543 9.454-10.146 9.454s-10.146-4.233-10.146-9.454 4.542-9.454 10.146-9.454c5.603 0 10.146 4.233 10.146 9.454z" style="fill:none;stroke:#000;stroke-width:1.5" transform="translate(-13.696 -28.524)scale(.12451)"/><path d="M581.01 373.47c0 7.577-6.591 13.719-14.722 13.719s-14.722-6.142-14.722-13.719 6.591-13.719 14.722-13.719 14.722 6.142 14.722 13.719zM636.43 411.47c0 5.221-4.543 9.454-10.146 9.454s-10.146-4.233-10.146-9.454 4.542-9.454 10.146-9.454c5.603 0 10.146 4.233 10.146 9.454z" style="fill:none;stroke:#000;stroke-width:1.5" transform="translate(-13.696 -28.524)scale(.12451)"/><path d="M641.01 411.47c0 7.577-6.591 13.719-14.722 13.719s-14.722-6.142-14.722-13.719 6.591-13.719 14.722-13.719 14.722 6.142 14.722 13.719zM636.43 373.47c0 5.221-4.543 9.454-10.146 9.454s-10.146-4.233-10.146-9.454 4.542-9.454 10.146-9.454c5.603 0 10.146 4.233 10.146 9.454z" style="fill:none;stroke:#000;stroke-width:1.5" transform="translate(-13.696 -28.524)scale(.12451)"/><path d="M641.01 373.47c0 7.577-6.591 13.719-14.722 13.719s-14.722-6.142-14.722-13.719 6.591-13.719 14.722-13.719 14.722 6.142 14.722 13.719zM543.58 358.78v93.677M603.58 358.78v93.677M663.58 358.78v93.677M640.21 274.79v75.143M670.72 332.9c0 5.221-4.543 9.454-10.146 9.454s-10.146-4.233-10.146-9.454 4.542-9.454 10.146-9.454c5.603 0 10.146 4.233 10.146 9.454z" style="fill:none;stroke:#000;stroke-width:1.5" transform="translate(-13.696 -28.524)scale(.12451)"/><path d="M675.29 332.9c0 7.577-6.591 13.719-14.722 13.719s-14.722-6.142-14.722-13.719 6.591-13.719 14.722-13.719 14.722 6.142 14.722 13.719zM670.72 294.9c0 5.221-4.543 9.454-10.146 9.454s-10.146-4.233-10.146-9.454 4.542-9.454 10.146-9.454c5.603 0 10.146 4.233 10.146 9.454z" style="fill:none;stroke:#000;stroke-width:1.5" transform="translate(-13.696 -28.524)scale(.12451)"/><path d="M675.29 294.9c0 7.577-6.591 13.719-14.722 13.719s-14.722-6.142-14.722-13.719 6.591-13.719 14.722-13.719 14.722 6.142 14.722 13.719zM694.43 373.47c0 5.221-4.543 9.454-10.146 9.454s-10.146-4.233-10.146-9.454 4.542-9.454 10.146-9.454c5.603 0 10.146 4.233 10.146 9.454z" style="fill:none;stroke:#000;stroke-width:1.5" transform="translate(-13.696 -28.524)scale(.12451)"/><path d="M699.01 373.47c0 7.577-6.591 13.719-14.722 13.719s-14.722-6.142-14.722-13.719 6.591-13.719 14.722-13.719 14.722 6.142 14.722 13.719zM694.43 431.47c0 5.221-4.543 9.454-10.146 9.454s-10.146-4.233-10.146-9.454 4.542-9.454 10.146-9.454c5.603 0 10.146 4.233 10.146 9.454z" style="fill:none;stroke:#000;stroke-width:1.5" transform="translate(-13.696 -28.524)scale(.12451)"/><path d="M699.01 431.47c0 7.577-6.591 13.719-14.722 13.719s-14.722-6.142-14.722-13.719 6.591-13.719 14.722-13.719 14.722 6.142 14.722 13.719zM703.58 275.21v177.25M710.95 618.76h18.187c.54 0 .973 3.233.973 7.248s-.434 7.248-.973 7.248H710.95c-.54 0-.973-3.232-.973-7.248 0-4.015.434-7.248.973-7.248zM710.95 582.76h18.187c.54 0 .973 3.233.973 7.248s-.434 7.248-.973 7.248H710.95c-.54 0-.973-3.232-.973-7.248 0-4.015.434-7.248.973-7.248zM735.58 558.36v80.106M837.58 275.21v177.25M685.28 537.69h13.183v5.973H685.28ZM685.28 531.69h13.183v5.973H685.28ZM685.28 525.69h13.183v5.973H685.28ZM685.28 519.69h13.183v5.973H685.28ZM685.28 513.69h13.183v5.973H685.28ZM685.28 507.69h13.183v5.973H685.28ZM685.28 501.69h13.183v5.973H685.28Z" style="fill:none;stroke:#000;stroke-width:1.5" transform="translate(-13.696 -28.524)scale(.12451)"/><g style="stroke-width:1.5"><path d="M-85.816 643.63h158.09c2.432 0 4.39 5.334 4.39 11.959v324.16c0 6.625-1.958 11.959-4.39 11.959h-158.09c-2.432 0-4.39-5.334-4.39-11.959v-324.16c0-6.625 4.39-11.959 4.39-11.959z" style="fill:none;stroke:#000;stroke-width:1.5" transform="translate(80.932 -28.524)scale(.12451)"/></g><g style="stroke-width:1.5"><path d="M209.67 812.22c-1.137 1.137-1.139 38.74-.856 76.12m.51 49.468c.19 15.11.346 25.32.346 25.32" style="fill:none;stroke:#000;stroke-width:1.5" transform="translate(45.81 -28.668)scale(.12451)"/><path d="M199.82 888.52h18.554c2.432 0 4.39 5.334 4.39 11.959v25.626c0 6.625-1.958 11.959-4.39 11.959H199.82c-2.432 0-4.39-5.334-4.39-11.959v-25.626c0-6.625 1.958-11.959 4.39-11.959z" style="fill:none;stroke:#000;stroke-width:1.5" transform="translate(45.81 -28.668)scale(.12451)"/><path d="M209.67 812.22c-1.139 1.139-1.139 38.862-.854 76.303m.51 49.466c.189 15.01.344 25.139.344 25.139" style="fill:none;stroke:#000;stroke-width:1.5" transform="translate(45.81 -28.668)scale(.12451)"/><path d="M199.82 888.52h18.554c2.432 0 4.39 5.334 4.39 11.959v25.626c0 6.625-1.958 11.959-4.39 11.959H199.82c-2.432 0-4.39-5.334-4.39-11.959v-25.626c0-6.625 1.958-11.959 4.39-11.959z" style="fill:none;stroke:#000;stroke-width:1.5" transform="translate(45.81 -28.668)scale(.12451)"/><path d="M60.893 751.65h25.893" style="fill:none;stroke:#000;stroke-width:1.5" transform="translate(62.68 -10.98)scale(.12451)"/><path d="M196.4 895.7h25.893M196.4 897.7h25.893M196.4 899.7h25.893M196.4 901.7h25.893M196.4 903.7h25.893M196.4 905.7h25.893M196.4 907.7h25.893M196.4 909.7h25.893M196.4 911.7h25.893M196.4 913.7h25.893M196.4 915.7h25.893M196.4 917.7h25.893M196.4 919.7h25.893M196.4 921.7h25.893M196.4 923.7h25.893M196.4 925.7h25.893M196.4 927.7h25.893M196.4 929.7h25.893M196.4 931.7h25.893" style="fill:none;stroke:#000;stroke-width:1.5" transform="translate(45.81 -28.668)scale(.12451)"/></g><g style="stroke-width:1.5"><path d="M209.67 812.22c-1.137 1.137-1.139 38.74-.856 76.12m.51 49.468c.19 15.11.346 25.32.346 25.32" style="fill:none;stroke:#000;stroke-width:1.5" transform="translate(49.793 -28.668)scale(.12451)"/><path d="M199.82 888.52h18.554c2.432 0 4.39 5.334 4.39 11.959v25.626c0 6.625-1.958 11.959-4.39 11.959H199.82c-2.432 0-4.39-5.334-4.39-11.959v-25.626c0-6.625 1.958-11.959 4.39-11.959z" style="fill:none;stroke:#000;stroke-width:1.5" transform="translate(49.793 -28.668)scale(.12451)"/><path d="M209.67 812.22c-1.139 1.139-1.139 38.862-.854 76.303m.51 49.466c.189 15.01.344 25.139.344 25.139" style="fill:none;stroke:#000;stroke-width:1.5" transform="translate(49.793 -28.668)scale(.12451)"/><path d="M199.82 888.52h18.554c2.432 0 4.39 5.334 4.39 11.959v25.626c0 6.625-1.958 11.959-4.39 11.959H199.82c-2.432 0-4.39-5.334-4.39-11.959v-25.626c0-6.625 1.958-11.959 4.39-11.959z" style="fill:none;stroke:#000;stroke-width:1.5" transform="translate(49.793 -28.668)scale(.12451)"/><path d="M60.893 751.65h25.893" style="fill:none;stroke:#000;stroke-width:1.5" transform="translate(66.665 -10.98)scale(.12451)"/><path d="M196.4 895.7h25.893M196.4 897.7h25.893M196.4 899.7h25.893M196.4 901.7h25.893M196.4 903.7h25.893M196.4 905.7h25.893M196.4 907.7h25.893M196.4 909.7h25.893M196.4 911.7h25.893M196.4 913.7h25.893M196.4 915.7h25.893M196.4 917.7h25.893M196.4 919.7h25.893M196.4 921.7h25.893M196.4 923.7h25.893M196.4 925.7h25.893M196.4 927.7h25.893M196.4 929.7h25.893M196.4 931.7h25.893" style="fill:none;stroke:#000;stroke-width:1.5" transform="translate(49.793 -28.668)scale(.12451)"/></g><g style="stroke-width:1.5"><path d="M209.67 812.22c-1.137 1.137-1.139 38.74-.856 76.12m.51 49.468c.19 15.11.346 25.32.346 25.32" style="fill:none;stroke:#000;stroke-width:1.5" transform="translate(57.762 -28.668)scale(.12451)"/><path d="M199.82 888.52h18.554c2.432 0 4.39 5.334 4.39 11.959v25.626c0 6.625-1.958 11.959-4.39 11.959H199.82c-2.432 0-4.39-5.334-4.39-11.959v-25.626c0-6.625 1.958-11.959 4.39-11.959z" style="fill:none;stroke:#000;stroke-width:1.5" transform="translate(57.762 -28.668)scale(.12451)"/><path d="M209.67 812.22c-1.139 1.139-1.139 38.862-.854 76.303m.51 49.466c.189 15.01.344 25.139.344 25.139" style="fill:none;stroke:#000;stroke-width:1.5" transform="translate(57.762 -28.668)scale(.12451)"/><path d="M199.82 888.52h18.554c2.432 0 4.39 5.334 4.39 11.959v25.626c0 6.625-1.958 11.959-4.39 11.959H199.82c-2.432 0-4.39-5.334-4.39-11.959v-25.626c0-6.625 1.958-11.959 4.39-11.959z" style="fill:none;stroke:#000;stroke-width:1.5" transform="translate(57.762 -28.668)scale(.12451)"/><path d="M60.893 751.65h25.893" style="fill:none;stroke:#000;stroke-width:1.5" transform="translate(74.633 -10.98)scale(.12451)"/><path d="M196.4 895.7h25.893M196.4 897.7h25.893M196.4 899.7h25.893M196.4 901.7h25.893M196.4 903.7h25.893M196.4 905.7h25.893M196.4 907.7h25.893M196.4 909.7h25.893M196.4 911.7h25.893M196.4 913.7h25.893M196.4 915.7h25.893M196.4 917.7h25.893M196.4 919.7h25.893M196.4 921.7h25.893M196.4 923.7h25.893M196.4 925.7h25.893M196.4 927.7h25.893M196.4 929.7h25.893M196.4 931.7h25.893" style="fill:none;stroke:#000;stroke-width:1.5" transform="translate(57.762 -28.668)scale(.12451)"/></g><g style="stroke-width:1.5"><path d="M209.67 812.22c-1.137 1.137-1.139 38.74-.856 76.12m.51 49.468c.19 15.11.346 25.32.346 25.32" style="fill:none;stroke:#000;stroke-width:1.5" transform="translate(61.747 -28.668)scale(.12451)"/><path d="M199.82 888.52h18.554c2.432 0 4.39 5.334 4.39 11.959v25.626c0 6.625-1.958 11.959-4.39 11.959H199.82c-2.432 0-4.39-5.334-4.39-11.959v-25.626c0-6.625 1.958-11.959 4.39-11.959z" style="fill:none;stroke:#000;stroke-width:1.5" transform="translate(61.747 -28.668)scale(.12451)"/><path d="M209.67 812.22c-1.139 1.139-1.139 38.862-.854 76.303m.51 49.466c.189 15.01.344 25.139.344 25.139" style="fill:none;stroke:#000;stroke-width:1.5" transform="translate(61.747 -28.668)scale(.12451)"/><path d="M199.82 888.52h18.554c2.432 0 4.39 5.334 4.39 11.959v25.626c0 6.625-1.958 11.959-4.39 11.959H199.82c-2.432 0-4.39-5.334-4.39-11.959v-25.626c0-6.625 1.958-11.959 4.39-11.959z" style="fill:none;stroke:#000;stroke-width:1.5" transform="translate(61.747 -28.668)scale(.12451)"/><path d="M60.893 751.65h25.893" style="fill:none;stroke:#000;stroke-width:1.5" transform="translate(78.618 -10.98)scale(.12451)"/><path d="M196.4 895.7h25.893M196.4 897.7h25.893M196.4 899.7h25.893M196.4 901.7h25.893M196.4 903.7h25.893M196.4 905.7h25.893M196.4 907.7h25.893M196.4 909.7h25.893M196.4 911.7h25.893M196.4 913.7h25.893M196.4 915.7h25.893M196.4 917.7h25.893M196.4 919.7h25.893M196.4 921.7h25.893M196.4 923.7h25.893M196.4 925.7h25.893M196.4 927.7h25.893M196.4 929.7h25.893M196.4 931.7h25.893" style="fill:none;stroke:#000;stroke-width:1.5" transform="translate(61.747 -28.668)scale(.12451)"/></g><path d="M817.99 785.65c0 1.78-1.532 3.221-3.423 3.221-1.89 0-3.423-1.442-3.423-3.221s1.533-3.221 3.423-3.221 3.423 1.442 3.423 3.221zM793.99 785.65c0 1.78-1.532 3.221-3.423 3.221-1.89 0-3.423-1.442-3.423-3.221s1.533-3.221 3.423-3.221 3.423 1.442 3.423 3.221zM817.99 773.65c0 1.78-1.532 3.221-3.423 3.221-1.89 0-3.423-1.442-3.423-3.221s1.533-3.221 3.423-3.221 3.423 1.442 3.423 3.221zM793.99 773.65c0 1.78-1.532 3.221-3.423 3.221-1.89 0-3.423-1.442-3.423-3.221s1.533-3.221 3.423-3.221 3.423 1.442 3.423 3.221zM817.99 761.65c0 1.78-1.532 3.221-3.423 3.221-1.89 0-3.423-1.442-3.423-3.221s1.533-3.221 3.423-3.221 3.423 1.442 3.423 3.221zM793.99 761.65c0 1.78-1.532 3.221-3.423 3.221-1.89 0-3.423-1.442-3.423-3.221s1.533-3.221 3.423-3.221 3.423 1.442 3.423 3.221zM817.99 749.65c0 1.78-1.532 3.221-3.423 3.221-1.89 0-3.423-1.442-3.423-3.221s1.533-3.221 3.423-3.221 3.423 1.442 3.423 3.221zM793.99 749.65c0 1.78-1.532 3.221-3.423 3.221-1.89 0-3.423-1.442-3.423-3.221s1.533-3.221 3.423-3.221 3.423 1.442 3.423 3.221zM817.99 737.65c0 1.78-1.532 3.221-3.423 3.221-1.89 0-3.423-1.442-3.423-3.221s1.533-3.221 3.423-3.221 3.423 1.442 3.423 3.221zM793.99 737.65c0 1.78-1.532 3.221-3.423 3.221-1.89 0-3.423-1.442-3.423-3.221s1.533-3.221 3.423-3.221 3.423 1.442 3.423 3.221zM817.99 725.65c0 1.78-1.532 3.221-3.423 3.221-1.89 0-3.423-1.442-3.423-3.221s1.533-3.221 3.423-3.221 3.423 1.442 3.423 3.221zM793.99 725.65c0 1.78-1.532 3.221-3.423 3.221-1.89 0-3.423-1.442-3.423-3.221s1.533-3.221 3.423-3.221 3.423 1.442 3.423 3.221zM817.99 713.65c0 1.78-1.532 3.221-3.423 3.221-1.89 0-3.423-1.442-3.423-3.221s1.533-3.221 3.423-3.221 3.423 1.442 3.423 3.221zM793.99 713.65c0 1.78-1.532 3.221-3.423 3.221-1.89 0-3.423-1.442-3.423-3.221s1.533-3.221 3.423-3.221 3.423 1.442 3.423 3.221zM817.99 701.65c0 1.78-1.532 3.221-3.423 3.221-1.89 0-3.423-1.442-3.423-3.221s1.533-3.221 3.423-3.221 3.423 1.442 3.423 3.221zM793.99 701.65c0 1.78-1.532 3.221-3.423 3.221-1.89 0-3.423-1.442-3.423-3.221s1.533-3.221 3.423-3.221 3.423 1.442 3.423 3.221zM817.99 689.65c0 1.78-1.532 3.221-3.423 3.221-1.89 0-3.423-1.442-3.423-3.221s1.533-3.221 3.423-3.221 3.423 1.442 3.423 3.221zM793.99 689.65c0 1.78-1.532 3.221-3.423 3.221-1.89 0-3.423-1.442-3.423-3.221s1.533-3.221 3.423-3.221 3.423 1.442 3.423 3.221zM817.99 677.65c0 1.78-1.532 3.221-3.423 3.221-1.89 0-3.423-1.442-3.423-3.221s1.533-3.221 3.423-3.221 3.423 1.442 3.423 3.221zM793.99 677.65c0 1.78-1.532 3.221-3.423 3.221-1.89 0-3.423-1.442-3.423-3.221s1.533-3.221 3.423-3.221 3.423 1.442 3.423 3.221zM817.99 665.65c0 1.78-1.532 3.221-3.423 3.221-1.89 0-3.423-1.442-3.423-3.221s1.533-3.221 3.423-3.221 3.423 1.442 3.423 3.221zM793.99 665.65c0 1.78-1.532 3.221-3.423 3.221-1.89 0-3.423-1.442-3.423-3.221s1.533-3.221 3.423-3.221 3.423 1.442 3.423 3.221zM817.99 653.65c0 1.78-1.532 3.221-3.423 3.221-1.89 0-3.423-1.442-3.423-3.221s1.533-3.221 3.423-3.221 3.423 1.442 3.423 3.221zM793.99 653.65c0 1.78-1.532 3.221-3.423 3.221-1.89 0-3.423-1.442-3.423-3.221s1.533-3.221 3.423-3.221 3.423 1.442 3.423 3.221zM761.99 713.65c0 1.78-1.532 3.221-3.423 3.221-1.89 0-3.423-1.442-3.423-3.221s1.533-3.221 3.423-3.221 3.423 1.442 3.423 3.221zM761.99 749.65c0 1.78-1.532 3.221-3.423 3.221-1.89 0-3.423-1.442-3.423-3.221s1.533-3.221 3.423-3.221 3.423 1.442 3.423 3.221zM791.99 487.65c0 1.78-1.532 3.221-3.423 3.221-1.89 0-3.423-1.442-3.423-3.221s1.533-3.221 3.423-3.221 3.423 1.442 3.423 3.221zM616.67 433.47h18.187c.54 0 .973 3.233.973 7.248s-.434 7.248-.973 7.248H616.67c-.54 0-.973-3.232-.973-7.248 0-4.015.434-7.248.973-7.248zM556.67 433.47h18.187c.54 0 .973 3.233.973 7.248s-.434 7.248-.973 7.248H556.67c-.54 0-.973-3.232-.973-7.248 0-4.015.434-7.248.973-7.248zM496.67 433.47h18.187c.54 0 .973 3.233.973 7.248s-.434 7.248-.973 7.248H496.67c-.54 0-.973-3.232-.973-7.248 0-4.015.434-7.248.973-7.248z" style="fill:none;stroke:#000;stroke-width:1.5" transform="translate(-13.696 -28.524)scale(.12451)"/><path d="m615.71 119.15 5.15-19.22h59.136l5.146 19.206M602.41 118.7v-15.089h-23.482v15.268" style="fill:none;stroke:#000;stroke-width:1.5" transform="translate(3.175 -10.837)scale(.12451)"/><path d="M693.91 260.75v-15.089h-23.482v15.268M627.57 260.75v-6.63h-51.135v6.809M563.57 260.75v-6.63h-51.135v6.809M206.4 260.28v-1.098h4.509v-5.215h.982v-4.925h15.508v4.925h1.01v5.113h4.704v1.2M245.25 260.28v-1.098h4.509v-5.215h.982v-4.925h15.508v4.925h1.01v5.113h4.704v1.2M284.11 260.28v-1.098h4.509v-5.215h.982v-4.925h15.508v4.925h1.01v5.113h4.704v1.2M322.97 260.28v-1.098h4.509v-5.215h.982v-4.925h15.508v4.925h1.01v5.113h4.704v1.2M361.82 260.28v-1.098h4.509v-5.215h.982v-4.925h15.508v4.925h1.01v5.113h4.704v1.2M400.68 260.28v-1.098h4.509v-5.215h.982v-4.925h15.508v4.925h1.01v5.113h4.704v1.2M439.54 260.28v-1.098h4.509v-5.215h.982v-4.925h15.508v4.925h1.01v5.113h4.704v1.2M478.4 260.28v-1.098h4.509v-5.215h.982v-4.925h15.508v4.925h1.01v5.113h4.704v1.2" style="fill:none;stroke:#000;stroke-width:1.5" transform="translate(-13.696 -28.524)scale(.12451)"/><path d="M595 231.65h79.286l-39.015-53.42z" style="fill:none;stroke:#000;stroke-width:1.5" transform="translate(3.175 -10.837)scale(.12451)"/><g style="stroke-width:1.5"><path d="M230.89 306.16c0 1.143-.995 2.07-2.221 2.07-1.227 0-2.222-.927-2.222-2.07s.995-2.07 2.222-2.07 2.221.927 2.221 2.07zM210.89 306.16c0 1.143-.995 2.07-2.221 2.07-1.227 0-2.222-.927-2.222-2.07s.995-2.07 2.222-2.07 2.221.927 2.221 2.07zM220.89 316.16c0 1.143-.995 2.07-2.221 2.07-1.227 0-2.222-.927-2.222-2.07s.995-2.07 2.222-2.07 2.221.927 2.221 2.07z" style="fill:#000001;stroke:#000;stroke-width:1.5" transform="translate(-13.673 -28.17)scale(.12451)"/></g><g style="stroke-width:1.5"><path d="M230.89 306.16c0 1.143-.995 2.07-2.221 2.07-1.227 0-2.222-.927-2.222-2.07s.995-2.07 2.222-2.07 2.221.927 2.221 2.07zM210.89 306.16c0 1.143-.995 2.07-2.221 2.07-1.227 0-2.222-.927-2.222-2.07s.995-2.07 2.222-2.07 2.221.927 2.221 2.07zM220.89 316.16c0 1.143-.995 2.07-2.221 2.07-1.227 0-2.222-.927-2.222-2.07s.995-2.07 2.222-2.07 2.221.927 2.221 2.07z" style="fill:#000001;stroke:#000;stroke-width:1.5" transform="translate(-6.373 -28.17)scale(.12451)"/></g><g style="stroke-width:1.5"><path d="M230.89 306.16c0 1.143-.995 2.07-2.221 2.07-1.227 0-2.222-.927-2.222-2.07s.995-2.07 2.222-2.07 2.221.927 2.221 2.07zM210.89 306.16c0 1.143-.995 2.07-2.221 2.07-1.227 0-2.222-.927-2.222-2.07s.995-2.07 2.222-2.07 2.221.927 2.221 2.07zM220.89 316.16c0 1.143-.995 2.07-2.221 2.07-1.227 0-2.222-.927-2.222-2.07s.995-2.07 2.222-2.07 2.221.927 2.221 2.07z" style="fill:#000001;stroke:#000;stroke-width:1.5" transform="translate(.927 -28.17)scale(.12451)"/></g><g style="stroke-width:1.5"><path d="M230.89 306.16c0 1.143-.995 2.07-2.221 2.07-1.227 0-2.222-.927-2.222-2.07s.995-2.07 2.222-2.07 2.221.927 2.221 2.07zM210.89 306.16c0 1.143-.995 2.07-2.221 2.07-1.227 0-2.222-.927-2.222-2.07s.995-2.07 2.222-2.07 2.221.927 2.221 2.07zM220.89 316.16c0 1.143-.995 2.07-2.221 2.07-1.227 0-2.222-.927-2.222-2.07s.995-2.07 2.222-2.07 2.221.927 2.221 2.07z" style="fill:#000001;stroke:#000;stroke-width:1.5" transform="translate(8.227 -28.17)scale(.12451)"/></g></g></svg>