<svg xmlns="http://www.w3.org/2000/svg" width="70" height="70">
    <path d="M4.718 4.937h60.455v60.345H4.718z" style="fill:#fff;stroke-width:1.51181;stroke-linecap:square;stroke-linejoin:round;stroke-miterlimit:4.7"/>
    <path d="M65 62c0 1.654-1.346 3-3 3H8c-1.654 0-3-1.346-3-3V8c0-1.654 1.346-3 3-3h54c1.654 0 3 1.346 3 3zM62 3H8a5 5 0 0 0-5 5v54a5 5 0 0 0 5 5h54a5 5 0 0 0 5-5V8a5 5 0 0 0-5-5M40 17h8c.55 0 1-.45 1-1s-.45-1-1-1h-8c-.55 0-1 .45-1 1s.45 1 1 1m14-2h-2c-.55 0-1 .45-1 1s.45 1 1 1h2c.55 0 1-.45 1-1s-.45-1-1-1m4 2h2c.55 0 1-.45 1-1s-.45-1-1-1h-2c-.55 0-1 .45-1 1s.45 1 1 1m-39-1c0-.55-.45-1-1-1h-2c-.55 0-1 .45-1 1s.45 1 1 1h2c.55 0 1-.45 1-1m-7-1h-2c-.55 0-1 .45-1 1s.45 1 1 1h2c.55 0 1-.45 1-1s-.45-1-1-1m-2-2h8c.55 0 1-.45 1-1v-2c0-.55-.45-1-1-1h-8c-.55 0-1 .45-1 1v2c0 .55.45 1 1 1m51 10c0 .551-.449 1-1 1s-1-.449-1-1 .449-1 1-1 1 .449 1 1m-3 0a2 2 0 1 0 3.999.001A2 2 0 0 0 58 23m-8 1c-.551 0-1-.449-1-1s.449-1 1-1 1 .449 1 1-.449 1-1 1m0-3a2 2 0 1 0-.001 3.999A2 2 0 0 0 50 21m-10 1c.551 0 1 .449 1 1s-.449 1-1 1-1-.449-1-1 .449-1 1-1m0 3a2 2 0 1 0 .001-3.999A2 2 0 0 0 40 25m-10-3c.551 0 1 .449 1 1s-.449 1-1 1-1-.449-1-1 .449-1 1-1m0 3a2 2 0 1 0 .001-3.999A2 2 0 0 0 30 25m-10-3c.551 0 1 .449 1 1s-.449 1-1 1-1-.449-1-1 .449-1 1-1m-2 1a2 2 0 1 0 3.999.001A2 2 0 0 0 18 23m-8-1c.551 0 1 .449 1 1s-.449 1-1 1-1-.449-1-1 .449-1 1-1m0 3a2 2 0 1 0 .001-3.999A2 2 0 0 0 10 25m50 5c-.551 0-1-.449-1-1s.449-1 1-1 1 .449 1 1-.449 1-1 1m0-3a2 2 0 1 0-.001 3.999A2 2 0 0 0 60 27m-10 3c-.551 0-1-.449-1-1s.449-1 1-1 1 .449 1 1-.449 1-1 1m0-3a2 2 0 1 0-.001 3.999A2 2 0 0 0 50 27m-10 1c.551 0 1 .449 1 1s-.449 1-1 1-1-.449-1-1 .449-1 1-1m0 3a2 2 0 1 0 .001-3.999A2 2 0 0 0 40 31m-10-3c.551 0 1 .449 1 1s-.449 1-1 1-1-.449-1-1 .449-1 1-1m0 3a2 2 0 1 0 .001-3.999A2 2 0 0 0 30 31m-10-1c-.551 0-1-.449-1-1s.449-1 1-1 1 .449 1 1-.449 1-1 1m0-3a2 2 0 1 0-.001 3.999A2 2 0 0 0 20 27m-10 1c.551 0 1 .449 1 1s-.449 1-1 1-1-.449-1-1 .449-1 1-1m0 3a2 2 0 1 0 .001-3.999A2 2 0 0 0 10 31M53 9a2 2 0 1 0-.001 3.999A2 2 0 0 0 53 9m6 4a2 2 0 1 0 .001-3.999A2 2 0 0 0 59 13M10 43a2 2 0 1 0 .001-3.999A2 2 0 0 0 10 43m0-6a2 2 0 1 0 .001-3.999A2 2 0 0 0 10 37m10 2a2 2 0 1 0-.001 3.999A2 2 0 0 0 20 39m0-6a2 2 0 1 0-.001 3.999A2 2 0 0 0 20 33m10 10a2 2 0 1 0 .001-3.999A2 2 0 0 0 30 43m0-6a2 2 0 1 0 .001-3.999A2 2 0 0 0 30 37m10 6a2 2 0 1 0 .001-3.999A2 2 0 0 0 40 43m0-6a2 2 0 1 0 .001-3.999A2 2 0 0 0 40 37m10 2a2 2 0 1 0-.001 3.999A2 2 0 0 0 50 39m0-6a2 2 0 1 0-.001 3.999A2 2 0 0 0 50 33m10 6a2 2 0 1 0-.001 3.999A2 2 0 0 0 60 39m0-6a2 2 0 1 0-.001 3.999A2 2 0 0 0 60 33M40 12a1 1 0 1 0 0-2 1 1 0 0 0 0 2m4 0a1 1 0 1 0 0-2 1 1 0 0 0 0 2m4 0a1 1 0 1 0 0-2 1 1 0 0 0 0 2m14 41h-1v-5a1 1 0 0 0-2 0v5h-1c-.55 0-1 .45-1 1s.45 1 1 1h1v5a1 1 0 0 0 2 0v-5h1c.55 0 1-.45 1-1s-.45-1-1-1m-10-2h-1v-3a1 1 0 0 0-2 0v3h-1c-.55 0-1 .45-1 1s.45 1 1 1h1v7a1 1 0 0 0 2 0v-7h1c.55 0 1-.45 1-1s-.45-1-1-1m-10-2h-1v-1a1 1 0 0 0-2 0v1h-1c-.55 0-1 .45-1 1s.45 1 1 1h1v9a1 1 0 0 0 2 0v-9h1c.55 0 1-.45 1-1s-.45-1-1-1m-10 4h-1v-5a1 1 0 0 0-2 0v5h-1c-.55 0-1 .45-1 1s.45 1 1 1h1v5a1 1 0 0 0 2 0v-5h1c.55 0 1-.45 1-1s-.45-1-1-1m-10 2h-1v-7a1 1 0 0 0-2 0v7h-1c-.55 0-1 .45-1 1s.45 1 1 1h1v3a1 1 0 0 0 2 0v-3h1c.55 0 1-.45 1-1s-.45-1-1-1m-10-4h-1v-3a1 1 0 0 0-2 0v3H8c-.55 0-1 .45-1 1s.45 1 1 1h1v7a1 1 0 0 0 2 0v-7h1c.55 0 1-.45 1-1s-.45-1-1-1" style="fill:#000;fill-rule:evenodd;stroke:none;stroke-width:1"/>
</svg>
