<svg xmlns="http://www.w3.org/2000/svg" width="100" height="70"><path d="M80 62c0 1.654-1.346 3-3 3H23c-1.654 0-3-1.346-3-3V8c0-1.654 1.346-3 3-3h54c1.654 0 3 1.346 3 3zM77 3H23a5 5 0 0 0-5 5v54a5 5 0 0 0 5 5h54a5 5 0 0 0 5-5V8a5 5 0 0 0-5-5M55 17h8c.55 0 1-.45 1-1s-.45-1-1-1h-8c-.55 0-1 .45-1 1s.45 1 1 1m14-2h-2c-.55 0-1 .45-1 1s.45 1 1 1h2c.55 0 1-.45 1-1s-.45-1-1-1m4 2h2c.55 0 1-.45 1-1s-.45-1-1-1h-2c-.55 0-1 .45-1 1s.45 1 1 1m-39-1c0-.55-.45-1-1-1h-2c-.55 0-1 .45-1 1s.45 1 1 1h2c.55 0 1-.45 1-1m-7-1h-2c-.55 0-1 .45-1 1s.45 1 1 1h2c.55 0 1-.45 1-1s-.45-1-1-1m-2-2h8c.55 0 1-.45 1-1v-2c0-.55-.45-1-1-1h-8c-.55 0-1 .45-1 1v2c0 .55.45 1 1 1m51 10c0 .551-.449 1-1 1s-1-.449-1-1 .449-1 1-1 1 .449 1 1m-3 0a2 2 0 1 0 3.999.001A2 2 0 0 0 73 23m-8 1c-.551 0-1-.449-1-1s.449-1 1-1 1 .449 1 1-.449 1-1 1m0-3a2 2 0 1 0-.001 3.999A2 2 0 0 0 65 21m-10 1c.551 0 1 .449 1 1s-.449 1-1 1-1-.449-1-1 .449-1 1-1m0 3a2 2 0 1 0 .001-3.999A2 2 0 0 0 55 25m-10-3c.551 0 1 .449 1 1s-.449 1-1 1-1-.449-1-1 .449-1 1-1m0 3a2 2 0 1 0 .001-3.999A2 2 0 0 0 45 25m-10-3c.551 0 1 .449 1 1s-.449 1-1 1-1-.449-1-1 .449-1 1-1m-2 1a2 2 0 1 0 3.999.001A2 2 0 0 0 33 23m-8-1c.551 0 1 .449 1 1s-.449 1-1 1-1-.449-1-1 .449-1 1-1m0 3a2 2 0 1 0 .001-3.999A2 2 0 0 0 25 25m50 5c-.551 0-1-.449-1-1s.449-1 1-1 1 .449 1 1-.449 1-1 1m0-3a2 2 0 1 0-.001 3.999A2 2 0 0 0 75 27m-10 3c-.551 0-1-.449-1-1s.449-1 1-1 1 .449 1 1-.449 1-1 1m0-3a2 2 0 1 0-.001 3.999A2 2 0 0 0 65 27m-10 1c.551 0 1 .449 1 1s-.449 1-1 1-1-.449-1-1 .449-1 1-1m0 3a2 2 0 1 0 .001-3.999A2 2 0 0 0 55 31m-10-3c.551 0 1 .449 1 1s-.449 1-1 1-1-.449-1-1 .449-1 1-1m0 3a2 2 0 1 0 .001-3.999A2 2 0 0 0 45 31m-10-1c-.551 0-1-.449-1-1s.449-1 1-1 1 .449 1 1-.449 1-1 1m0-3a2 2 0 1 0-.001 3.999A2 2 0 0 0 35 27m-10 1c.551 0 1 .449 1 1s-.449 1-1 1-1-.449-1-1 .449-1 1-1m0 3a2 2 0 1 0 .001-3.999A2 2 0 0 0 25 31M68 9a2 2 0 1 0-.001 3.999A2 2 0 0 0 68 9m6 4a2 2 0 1 0 .001-3.999A2 2 0 0 0 74 13M25 43a2 2 0 1 0 .001-3.999A2 2 0 0 0 25 43m0-6a2 2 0 1 0 .001-3.999A2 2 0 0 0 25 37m10 2a2 2 0 1 0-.001 3.999A2 2 0 0 0 35 39m0-6a2 2 0 1 0-.001 3.999A2 2 0 0 0 35 33m10 10a2 2 0 1 0 .001-3.999A2 2 0 0 0 45 43m0-6a2 2 0 1 0 .001-3.999A2 2 0 0 0 45 37m10 6a2 2 0 1 0 .001-3.999A2 2 0 0 0 55 43m0-6a2 2 0 1 0 .001-3.999A2 2 0 0 0 55 37m10 2a2 2 0 1 0-.001 3.999A2 2 0 0 0 65 39m0-6a2 2 0 1 0-.001 3.999A2 2 0 0 0 65 33m10 6a2 2 0 1 0-.001 3.999A2 2 0 0 0 75 39m0-6a2 2 0 1 0-.001 3.999A2 2 0 0 0 75 33M55 12a1 1 0 1 0 0-2 1 1 0 0 0 0 2m4 0a1 1 0 1 0 0-2 1 1 0 0 0 0 2m4 0a1 1 0 1 0 0-2 1 1 0 0 0 0 2m14 41h-1v-5a1 1 0 0 0-2 0v5h-1c-.55 0-1 .45-1 1s.45 1 1 1h1v5a1 1 0 0 0 2 0v-5h1c.55 0 1-.45 1-1s-.45-1-1-1m-10-2h-1v-3a1 1 0 0 0-2 0v3h-1c-.55 0-1 .45-1 1s.45 1 1 1h1v7a1 1 0 0 0 2 0v-7h1c.55 0 1-.45 1-1s-.45-1-1-1m-10-2h-1v-1a1 1 0 0 0-2 0v1h-1c-.55 0-1 .45-1 1s.45 1 1 1h1v9a1 1 0 0 0 2 0v-9h1c.55 0 1-.45 1-1s-.45-1-1-1m-10 4h-1v-5a1 1 0 0 0-2 0v5h-1c-.55 0-1 .45-1 1s.45 1 1 1h1v5a1 1 0 0 0 2 0v-5h1c.55 0 1-.45 1-1s-.45-1-1-1m-10 2h-1v-7a1 1 0 0 0-2 0v7h-1c-.55 0-1 .45-1 1s.45 1 1 1h1v3a1 1 0 0 0 2 0v-3h1c.55 0 1-.45 1-1s-.45-1-1-1m-10-4h-1v-3a1 1 0 0 0-2 0v3h-1c-.55 0-1 .45-1 1s.45 1 1 1h1v7a1 1 0 0 0 2 0v-7h1c.55 0 1-.45 1-1s-.45-1-1-1" style="fill:#000;fill-rule:evenodd;stroke:none;stroke-width:1"/></svg>