<?xml version="1.0" encoding="UTF-8" standalone="no"?>
<svg
   width="70"
   height="70"
   version="1.1"
   id="svg1"
   sodipodi:docname="mixer_2.svg"
   inkscape:version="1.3.2 (091e20e, 2023-11-25)"
   xmlns:inkscape="http://www.inkscape.org/namespaces/inkscape"
   xmlns:sodipodi="http://sodipodi.sourceforge.net/DTD/sodipodi-0.dtd"
   xmlns="http://www.w3.org/2000/svg"
   xmlns:svg="http://www.w3.org/2000/svg">
  <defs
     id="defs1" />
  <sodipodi:namedview
     id="namedview1"
     pagecolor="#ffffff"
     bordercolor="#000000"
     borderopacity="0.25"
     inkscape:showpageshadow="2"
     inkscape:pageopacity="0.0"
     inkscape:pagecheckerboard="0"
     inkscape:deskcolor="#d1d1d1"
     inkscape:current-layer="svg1" />
  <path
     d="m 65,62 c 0,1.654 -1.346,3 -3,3 H 8 C 6.346,65 5,63.654 5,62 V 8 C 5,6.346 6.346,5 8,5 h 54 c 1.654,0 3,1.346 3,3 z M 62,3 H 8 A 5,5 0 0 0 3,8 v 54 a 5,5 0 0 0 5,5 h 54 a 5,5 0 0 0 5,-5 V 8 A 5,5 0 0 0 62,3 M 40,17 h 8 c 0.55,0 1,-0.45 1,-1 0,-0.55 -0.45,-1 -1,-1 h -8 c -0.55,0 -1,0.45 -1,1 0,0.55 0.45,1 1,1 m 14,-2 h -2 c -0.55,0 -1,0.45 -1,1 0,0.55 0.45,1 1,1 h 2 c 0.55,0 1,-0.45 1,-1 0,-0.55 -0.45,-1 -1,-1 m 4,2 h 2 c 0.55,0 1,-0.45 1,-1 0,-0.55 -0.45,-1 -1,-1 h -2 c -0.55,0 -1,0.45 -1,1 0,0.55 0.45,1 1,1 M 19,16 c 0,-0.55 -0.45,-1 -1,-1 h -2 c -0.55,0 -1,0.45 -1,1 0,0.55 0.45,1 1,1 h 2 c 0.55,0 1,-0.45 1,-1 m -7,-1 h -2 c -0.55,0 -1,0.45 -1,1 0,0.55 0.45,1 1,1 h 2 c 0.55,0 1,-0.45 1,-1 0,-0.55 -0.45,-1 -1,-1 m -2,-2 h 8 c 0.55,0 1,-0.45 1,-1 V 10 C 19,9.45 18.55,9 18,9 H 10 C 9.45,9 9,9.45 9,10 v 2 c 0,0.55 0.45,1 1,1 m 51,10 c 0,0.551 -0.449,1 -1,1 -0.551,0 -1,-0.449 -1,-1 0,-0.551 0.449,-1 1,-1 0.551,0 1,0.449 1,1 m -3,0 A 2,2 0 1 0 61.999,23.001 2,2 0 0 0 58,23 m -8,1 c -0.551,0 -1,-0.449 -1,-1 0,-0.551 0.449,-1 1,-1 0.551,0 1,0.449 1,1 0,0.551 -0.449,1 -1,1 m 0,-3 A 2,2 0 1 0 49.999,24.999 2,2 0 0 0 50,21 m -10,1 c 0.551,0 1,0.449 1,1 0,0.551 -0.449,1 -1,1 -0.551,0 -1,-0.449 -1,-1 0,-0.551 0.449,-1 1,-1 m 0,3 A 2,2 0 1 0 40.001,21.001 2,2 0 0 0 40,25 M 30,22 c 0.551,0 1,0.449 1,1 0,0.551 -0.449,1 -1,1 -0.551,0 -1,-0.449 -1,-1 0,-0.551 0.449,-1 1,-1 m 0,3 A 2,2 0 1 0 30.001,21.001 2,2 0 0 0 30,25 M 20,22 c 0.551,0 1,0.449 1,1 0,0.551 -0.449,1 -1,1 -0.551,0 -1,-0.449 -1,-1 0,-0.551 0.449,-1 1,-1 m -2,1 A 2,2 0 1 0 21.999,23.001 2,2 0 0 0 18,23 m -8,-1 c 0.551,0 1,0.449 1,1 0,0.551 -0.449,1 -1,1 -0.551,0 -1,-0.449 -1,-1 0,-0.551 0.449,-1 1,-1 m 0,3 A 2,2 0 1 0 10.001,21.001 2,2 0 0 0 10,25 m 50,5 c -0.551,0 -1,-0.449 -1,-1 0,-0.551 0.449,-1 1,-1 0.551,0 1,0.449 1,1 0,0.551 -0.449,1 -1,1 m 0,-3 A 2,2 0 1 0 59.999,30.999 2,2 0 0 0 60,27 m -10,3 c -0.551,0 -1,-0.449 -1,-1 0,-0.551 0.449,-1 1,-1 0.551,0 1,0.449 1,1 0,0.551 -0.449,1 -1,1 m 0,-3 A 2,2 0 1 0 49.999,30.999 2,2 0 0 0 50,27 m -10,1 c 0.551,0 1,0.449 1,1 0,0.551 -0.449,1 -1,1 -0.551,0 -1,-0.449 -1,-1 0,-0.551 0.449,-1 1,-1 m 0,3 A 2,2 0 1 0 40.001,27.001 2,2 0 0 0 40,31 M 30,28 c 0.551,0 1,0.449 1,1 0,0.551 -0.449,1 -1,1 -0.551,0 -1,-0.449 -1,-1 0,-0.551 0.449,-1 1,-1 m 0,3 A 2,2 0 1 0 30.001,27.001 2,2 0 0 0 30,31 M 20,30 c -0.551,0 -1,-0.449 -1,-1 0,-0.551 0.449,-1 1,-1 0.551,0 1,0.449 1,1 0,0.551 -0.449,1 -1,1 m 0,-3 A 2,2 0 1 0 19.999,30.999 2,2 0 0 0 20,27 m -10,1 c 0.551,0 1,0.449 1,1 0,0.551 -0.449,1 -1,1 -0.551,0 -1,-0.449 -1,-1 0,-0.551 0.449,-1 1,-1 m 0,3 A 2,2 0 1 0 10.001,27.001 2,2 0 0 0 10,31 M 53,9 A 2,2 0 1 0 52.999,12.999 2,2 0 0 0 53,9 m 6,4 A 2,2 0 1 0 59.001,9.001 2,2 0 0 0 59,13 M 10,43 A 2,2 0 1 0 10.001,39.001 2,2 0 0 0 10,43 m 0,-6 A 2,2 0 1 0 10.001,33.001 2,2 0 0 0 10,37 m 10,2 A 2,2 0 1 0 19.999,42.999 2,2 0 0 0 20,39 m 0,-6 A 2,2 0 1 0 19.999,36.999 2,2 0 0 0 20,33 M 30,43 A 2,2 0 1 0 30.001,39.001 2,2 0 0 0 30,43 m 0,-6 A 2,2 0 1 0 30.001,33.001 2,2 0 0 0 30,37 m 10,6 A 2,2 0 1 0 40.001,39.001 2,2 0 0 0 40,43 m 0,-6 A 2,2 0 1 0 40.001,33.001 2,2 0 0 0 40,37 m 10,2 A 2,2 0 1 0 49.999,42.999 2,2 0 0 0 50,39 m 0,-6 A 2,2 0 1 0 49.999,36.999 2,2 0 0 0 50,33 m 10,6 A 2,2 0 1 0 59.999,42.999 2,2 0 0 0 60,39 m 0,-6 A 2,2 0 1 0 59.999,36.999 2,2 0 0 0 60,33 M 40,12 a 1,1 0 1 0 0,-2 1,1 0 0 0 0,2 m 4,0 a 1,1 0 1 0 0,-2 1,1 0 0 0 0,2 m 4,0 a 1,1 0 1 0 0,-2 1,1 0 0 0 0,2 m 14,41 h -1 v -5 a 1,1 0 0 0 -2,0 v 5 h -1 c -0.55,0 -1,0.45 -1,1 0,0.55 0.45,1 1,1 h 1 v 5 a 1,1 0 0 0 2,0 v -5 h 1 c 0.55,0 1,-0.45 1,-1 0,-0.55 -0.45,-1 -1,-1 M 52,51 h -1 v -3 a 1,1 0 0 0 -2,0 v 3 h -1 c -0.55,0 -1,0.45 -1,1 0,0.55 0.45,1 1,1 h 1 v 7 a 1,1 0 0 0 2,0 v -7 h 1 c 0.55,0 1,-0.45 1,-1 0,-0.55 -0.45,-1 -1,-1 M 42,49 h -1 v -1 a 1,1 0 0 0 -2,0 v 1 h -1 c -0.55,0 -1,0.45 -1,1 0,0.55 0.45,1 1,1 h 1 v 9 a 1,1 0 0 0 2,0 v -9 h 1 c 0.55,0 1,-0.45 1,-1 0,-0.55 -0.45,-1 -1,-1 m -10,4 h -1 v -5 a 1,1 0 0 0 -2,0 v 5 h -1 c -0.55,0 -1,0.45 -1,1 0,0.55 0.45,1 1,1 h 1 v 5 a 1,1 0 0 0 2,0 v -5 h 1 c 0.55,0 1,-0.45 1,-1 0,-0.55 -0.45,-1 -1,-1 m -10,2 h -1 v -7 a 1,1 0 0 0 -2,0 v 7 h -1 c -0.55,0 -1,0.45 -1,1 0,0.55 0.45,1 1,1 h 1 v 3 a 1,1 0 0 0 2,0 v -3 h 1 c 0.55,0 1,-0.45 1,-1 0,-0.55 -0.45,-1 -1,-1 M 12,51 h -1 v -3 a 1,1 0 0 0 -2,0 v 3 H 8 c -0.55,0 -1,0.45 -1,1 0,0.55 0.45,1 1,1 h 1 v 7 a 1,1 0 0 0 2,0 v -7 h 1 c 0.55,0 1,-0.45 1,-1 0,-0.55 -0.45,-1 -1,-1"
     style="fill:#000000;fill-rule:evenodd;stroke:none;stroke-width:1"
     id="path1"
     inkscape:label="mixer" />
</svg>
