<svg xmlns="http://www.w3.org/2000/svg" xml:space="preserve" width="70" height="70">
    <path d="M4.389 3.95h61.223v61.991H4.389z" style="fill:#fff;stroke-width:1.51181;stroke-linecap:square;stroke-linejoin:round;stroke-miterlimit:4.7"/>
    <g transform="translate(3 3)scale(.13617)">
        <path d="M462.5 0H7.5A7.5 7.5 0 0 0 0 7.5v455a7.5 7.5 0 0 0 7.5 7.5h455a7.5 7.5 0 0 0 7.5-7.5V7.5a7.5 7.5 0 0 0-7.5-7.5M455 455H15V205.05h440zm0-264.95H15V15h440z"/>
        <path d="M58.214 175.05c15.164 0 27.5-12.337 27.5-27.5s-12.336-27.5-27.5-27.5-27.5 12.337-27.5 27.5 12.337 27.5 27.5 27.5m0-40c6.893 0 12.5 5.607 12.5 12.5s-5.607 12.5-12.5 12.5-12.5-5.607-12.5-12.5 5.608-12.5 12.5-12.5M93.571 105c20.678 0 37.5-16.822 37.5-37.5S114.249 30 93.571 30s-37.5 16.822-37.5 37.5 16.823 37.5 37.5 37.5m0-60c12.407 0 22.5 10.094 22.5 22.5S105.978 90 93.571 90s-22.5-10.094-22.5-22.5S81.165 45 93.571 45"/>
        <circle cx="411.786" cy="67.5" r="10"/>
        <circle cx="341.071" cy="67.5" r="10"/>
        <path d="M235 105c20.678 0 37.5-16.822 37.5-37.5S255.678 30 235 30s-37.5 16.822-37.5 37.5S214.322 105 235 105m0-60c12.407 0 22.5 10.094 22.5 22.5S247.407 90 235 90s-22.5-10.094-22.5-22.5S222.593 45 235 45M58.214 380a7.5 7.5 0 0 0 7.5-7.5V227.55a7.5 7.5 0 0 0-7.5-7.5 7.5 7.5 0 0 0-7.5 7.5V372.5a7.5 7.5 0 0 0 7.5 7.5m-20 30h12.5v22.5a7.5 7.5 0 0 0 7.5 7.5 7.5 7.5 0 0 0 7.5-7.5V410h12.5a7.5 7.5 0 0 0 7.5-7.5 7.5 7.5 0 0 0-7.5-7.5h-40a7.5 7.5 0 0 0-7.5 7.5 7.5 7.5 0 0 0 7.5 7.5m373.572-30a7.5 7.5 0 0 0 7.5-7.5V227.55a7.5 7.5 0 0 0-7.5-7.5 7.5 7.5 0 0 0-7.5 7.5V372.5a7.5 7.5 0 0 0 7.5 7.5m-20 30h12.5v22.5a7.5 7.5 0 0 0 7.5 7.5 7.5 7.5 0 0 0 7.5-7.5V410h12.5a7.5 7.5 0 0 0 7.5-7.5 7.5 7.5 0 0 0-7.5-7.5h-40a7.5 7.5 0 0 0-7.5 7.5 7.5 7.5 0 0 0 7.5 7.5M101.429 147.55c0 15.163 12.336 27.5 27.5 27.5s27.5-12.337 27.5-27.5-12.336-27.5-27.5-27.5-27.5 12.337-27.5 27.5m40 0c0 6.893-5.607 12.5-12.5 12.5s-12.5-5.607-12.5-12.5 5.607-12.5 12.5-12.5 12.5 5.607 12.5 12.5M128.929 320a7.5 7.5 0 0 0 7.5-7.5v-84.95a7.5 7.5 0 0 0-7.5-7.5 7.5 7.5 0 0 0-7.5 7.5v84.95a7.5 7.5 0 0 0 7.5 7.5m-20 30h12.5v82.5a7.5 7.5 0 0 0 7.5 7.5 7.5 7.5 0 0 0 7.5-7.5V350h12.5a7.5 7.5 0 0 0 7.5-7.5 7.5 7.5 0 0 0-7.5-7.5h-40a7.5 7.5 0 0 0-7.5 7.5 7.5 7.5 0 0 0 7.5 7.5m90.714-174.95c15.164 0 27.5-12.337 27.5-27.5s-12.336-27.5-27.5-27.5-27.5 12.337-27.5 27.5 12.336 27.5 27.5 27.5m0-40c6.893 0 12.5 5.607 12.5 12.5s-5.607 12.5-12.5 12.5-12.5-5.607-12.5-12.5 5.607-12.5 12.5-12.5m0 244.95a7.5 7.5 0 0 0 7.5-7.5V227.55a7.5 7.5 0 0 0-7.5-7.5 7.5 7.5 0 0 0-7.5 7.5V372.5a7.5 7.5 0 0 0 7.5 7.5m-20 30h12.5v22.5a7.5 7.5 0 0 0 7.5 7.5 7.5 7.5 0 0 0 7.5-7.5V410h12.5a7.5 7.5 0 0 0 7.5-7.5 7.5 7.5 0 0 0-7.5-7.5h-40a7.5 7.5 0 0 0-7.5 7.5 7.5 7.5 0 0 0 7.5 7.5m63.214-262.45c0 15.163 12.336 27.5 27.5 27.5s27.5-12.337 27.5-27.5-12.336-27.5-27.5-27.5-27.5 12.337-27.5 27.5m40 0c0 6.893-5.607 12.5-12.5 12.5s-12.5-5.607-12.5-12.5 5.607-12.5 12.5-12.5 12.5 5.607 12.5 12.5m128.929 27.5c15.164 0 27.5-12.337 27.5-27.5s-12.336-27.5-27.5-27.5-27.5 12.337-27.5 27.5 12.336 27.5 27.5 27.5m0-40c6.893 0 12.5 5.607 12.5 12.5s-5.607 12.5-12.5 12.5-12.5-5.607-12.5-12.5 5.607-12.5 12.5-12.5m-70.715 40c15.164 0 27.5-12.337 27.5-27.5s-12.336-27.5-27.5-27.5-27.5 12.337-27.5 27.5 12.337 27.5 27.5 27.5m0-40c6.893 0 12.5 5.607 12.5 12.5s-5.607 12.5-12.5 12.5-12.5-5.607-12.5-12.5 5.608-12.5 12.5-12.5M270.357 320a7.5 7.5 0 0 0 7.5-7.5v-84.95a7.5 7.5 0 0 0-7.5-7.5 7.5 7.5 0 0 0-7.5 7.5v84.95a7.5 7.5 0 0 0 7.5 7.5m-20 30h12.5v82.5a7.5 7.5 0 0 0 7.5 7.5 7.5 7.5 0 0 0 7.5-7.5V350h12.5a7.5 7.5 0 0 0 7.5-7.5 7.5 7.5 0 0 0-7.5-7.5h-40a7.5 7.5 0 0 0-7.5 7.5 7.5 7.5 0 0 0 7.5 7.5m90.714-30a7.5 7.5 0 0 0 7.5-7.5v-84.95a7.5 7.5 0 0 0-7.5-7.5 7.5 7.5 0 0 0-7.5 7.5v84.95a7.5 7.5 0 0 0 7.5 7.5m-20 30h12.5v82.5a7.5 7.5 0 0 0 7.5 7.5 7.5 7.5 0 0 0 7.5-7.5V350h12.5a7.5 7.5 0 0 0 7.5-7.5 7.5 7.5 0 0 0-7.5-7.5h-40a7.5 7.5 0 0 0-7.5 7.5 7.5 7.5 0 0 0 7.5 7.5"/>
    </g>
</svg>
