<svg xmlns="http://www.w3.org/2000/svg" width="100" height="90" fill="none">
    <path d="M17.656 11.107c-6.689 0-12.174 5.485-12.174 12.174v36.563c0 6.689 5.485 12.174 12.174 12.174h26.719a.48.48 0 0 1 .482.482v8.438a.48.48 0 0 1-.482.482h-11.25c-4.883 0-4.883 7.473 0 7.473h33.75c4.883 0 4.883-7.473 0-7.473H52.813a.48.48 0 0 1-.483-.483V72.5c0-.267.216-.483.483-.482h29.53c6.69 0 12.175-5.485 12.175-12.174V23.28c0-6.689-5.485-12.174-12.174-12.174zm64.688 7.473c2.186 0 4.7 1.723 4.7 4.701v36.563c0 2.516-2.018 4.7-4.7 4.7H17.656a4.71 4.71 0 0 1-4.7-4.7V23.28c0-2.163 1.604-4.418 4.24-4.677z" style="fill:#000;stroke-width:5.625" transform="translate(0 -2)"/>
</svg>
