<svg xmlns="http://www.w3.org/2000/svg" xml:space="preserve" width="75.021" height="32.306">
    <path d="M32.455 100.833h145.09v61.342H32.455z" style="fill:#000;stroke:#000;stroke-width:2;stroke-linecap:square;stroke-linejoin:miter;stroke-miterlimit:4.7;stroke-dasharray:none" transform="translate(-16.043 -50.918)scale(.51003)"/>
    <g style="display:inline">
        <g style="stroke:#fff;stroke-width:.5;stroke-dasharray:none">
            <path d="M57.952 115.79a3.72 3.72 0 0 1-3.721 3.72 3.72 3.72 0 0 1-3.72-3.72 3.72 3.72 0 0 1 3.72-3.72 3.72 3.72 0 0 1 3.72 3.72z" style="fill:#fff;stroke:#fff;stroke-width:.5;stroke-linecap:square;stroke-miterlimit:4.7;stroke-dasharray:none" transform="translate(-12.405 -45.52)scale(.51003)"/>
            <path d="M54.23 111.07a4.736 4.736 0 0 0-4.72 4.721 4.736 4.736 0 0 0 4.72 4.72 4.736 4.736 0 0 0 4.721-4.72 4.736 4.736 0 0 0-4.72-4.72zm0 2a2.706 2.706 0 0 1 2.721 2.721 2.706 2.706 0 0 1-2.72 2.72 2.706 2.706 0 0 1-2.721-2.72 2.706 2.706 0 0 1 2.72-2.72z" style="stroke:#fff;stroke-width:.5;stroke-linecap:square;stroke-miterlimit:4.7;stroke-dasharray:none" transform="translate(-12.405 -45.52)scale(.51003)"/>
        </g>
        <g style="stroke:#fff;stroke-width:.5;stroke-dasharray:none">
            <path d="M71.707 115.79a3.72 3.72 0 0 1-3.721 3.72 3.72 3.72 0 0 1-3.72-3.72 3.72 3.72 0 0 1 3.72-3.72 3.72 3.72 0 0 1 3.72 3.72z" style="fill:#fff;stroke:#fff;stroke-width:.5;stroke-linecap:square;stroke-miterlimit:4.7;stroke-dasharray:none" transform="translate(-12.405 -45.52)scale(.51003)"/>
            <path d="M67.986 111.07a4.736 4.736 0 0 0-4.72 4.721 4.736 4.736 0 0 0 4.72 4.72 4.736 4.736 0 0 0 4.721-4.72 4.736 4.736 0 0 0-4.72-4.72zm0 2a2.706 2.706 0 0 1 2.721 2.721 2.706 2.706 0 0 1-2.72 2.72 2.706 2.706 0 0 1-2.721-2.72 2.706 2.706 0 0 1 2.72-2.72z" style="stroke:#fff;stroke-width:.5;stroke-linecap:square;stroke-miterlimit:4.7;stroke-dasharray:none" transform="translate(-12.405 -45.52)scale(.51003)"/>
        </g>
        <g style="stroke:#fff;stroke-width:.5;stroke-dasharray:none">
            <path d="M37.206 115.79a3.72 3.72 0 0 1-3.72 3.72 3.72 3.72 0 0 1-3.721-3.72 3.72 3.72 0 0 1 3.72-3.72 3.72 3.72 0 0 1 3.721 3.72z" style="fill:#fff;stroke:#fff;stroke-width:.5;stroke-linecap:square;stroke-miterlimit:4.7;stroke-dasharray:none" transform="translate(-12.405 -45.52)scale(.51003)"/>
            <path d="M33.486 111.07a4.736 4.736 0 0 0-4.72 4.721 4.736 4.736 0 0 0 4.72 4.72 4.736 4.736 0 0 0 4.721-4.72 4.736 4.736 0 0 0-4.72-4.72zm0 2a2.706 2.706 0 0 1 2.721 2.721 2.706 2.706 0 0 1-2.72 2.72 2.706 2.706 0 0 1-2.721-2.72 2.706 2.706 0 0 1 2.72-2.72z" style="stroke:#fff;stroke-width:.5;stroke-linecap:square;stroke-miterlimit:4.7;stroke-dasharray:none" transform="translate(-12.405 -45.52)scale(.51003)"/>
        </g>
        <g style="stroke:#fff;stroke-width:.5;stroke-dasharray:none">
            <path d="M37.206 100.875a3.72 3.72 0 0 1-3.72 3.72 3.72 3.72 0 0 1-3.721-3.72 3.72 3.72 0 0 1 3.72-3.72 3.72 3.72 0 0 1 3.721 3.72z" style="fill:#fff;stroke:#fff;stroke-width:.5;stroke-linecap:square;stroke-miterlimit:4.7;stroke-dasharray:none" transform="translate(-12.405 -45.52)scale(.51003)"/>
            <path d="M33.486 96.154a4.736 4.736 0 0 0-4.72 4.721 4.736 4.736 0 0 0 4.72 4.72 4.736 4.736 0 0 0 4.721-4.72 4.736 4.736 0 0 0-4.72-4.72zm0 2a2.706 2.706 0 0 1 2.721 2.721 2.706 2.706 0 0 1-2.72 2.72 2.706 2.706 0 0 1-2.721-2.72 2.706 2.706 0 0 1 2.72-2.72z" style="stroke:#fff;stroke-width:.5;stroke-linecap:square;stroke-miterlimit:4.7;stroke-dasharray:none" transform="translate(-12.405 -45.52)scale(.51003)"/>
        </g>
        <g style="stroke:#fff;stroke-width:.5;stroke-dasharray:none">
            <path d="M57.952 100.875a3.72 3.72 0 0 1-3.721 3.72 3.72 3.72 0 0 1-3.72-3.72 3.72 3.72 0 0 1 3.72-3.72 3.72 3.72 0 0 1 3.72 3.72z" style="fill:#fff;stroke:#fff;stroke-width:.5;stroke-linecap:square;stroke-miterlimit:4.7;stroke-dasharray:none" transform="translate(-12.405 -45.52)scale(.51003)"/>
            <path d="M54.23 96.154a4.736 4.736 0 0 0-4.72 4.721 4.736 4.736 0 0 0 4.72 4.72 4.736 4.736 0 0 0 4.721-4.72 4.736 4.736 0 0 0-4.72-4.72zm0 2a2.706 2.706 0 0 1 2.721 2.721 2.706 2.706 0 0 1-2.72 2.72 2.706 2.706 0 0 1-2.721-2.72 2.706 2.706 0 0 1 2.72-2.72z" style="stroke:#fff;stroke-width:.5;stroke-linecap:square;stroke-miterlimit:4.7;stroke-dasharray:none" transform="translate(-12.405 -45.52)scale(.51003)"/>
        </g>
        <g style="stroke:#fff;stroke-width:.5;stroke-dasharray:none">
            <path d="M71.707 100.875a3.72 3.72 0 0 1-3.721 3.72 3.72 3.72 0 0 1-3.72-3.72 3.72 3.72 0 0 1 3.72-3.72 3.72 3.72 0 0 1 3.72 3.72z" style="fill:#fff;stroke:#fff;stroke-width:.5;stroke-linecap:square;stroke-miterlimit:4.7;stroke-dasharray:none" transform="translate(-12.405 -45.52)scale(.51003)"/>
            <path d="M67.986 96.154a4.736 4.736 0 0 0-4.72 4.721 4.736 4.736 0 0 0 4.72 4.72 4.736 4.736 0 0 0 4.721-4.72 4.736 4.736 0 0 0-4.72-4.72zm0 2a2.706 2.706 0 0 1 2.721 2.721 2.706 2.706 0 0 1-2.72 2.72 2.706 2.706 0 0 1-2.721-2.72 2.706 2.706 0 0 1 2.72-2.72z" style="stroke:#fff;stroke-width:.5;stroke-linecap:square;stroke-miterlimit:4.7;stroke-dasharray:none" transform="translate(-12.405 -45.52)scale(.51003)"/>
        </g>
        <g style="stroke:#fff;stroke-width:.5;stroke-dasharray:none">
            <path d="M50.285 131.124a3.72 3.72 0 0 1-3.72 3.72 3.72 3.72 0 0 1-3.721-3.72 3.72 3.72 0 0 1 3.72-3.72 3.72 3.72 0 0 1 3.72 3.72z" style="fill:#fff;stroke:#fff;stroke-width:.5;stroke-linecap:square;stroke-miterlimit:4.7;stroke-dasharray:none" transform="translate(-12.405 -45.52)scale(.51003)"/>
            <path d="M46.564 126.402a4.736 4.736 0 0 0-4.72 4.721 4.736 4.736 0 0 0 4.72 4.72 4.736 4.736 0 0 0 4.721-4.72 4.736 4.736 0 0 0-4.72-4.72zm0 2a2.706 2.706 0 0 1 2.721 2.721 2.706 2.706 0 0 1-2.72 2.72 2.706 2.706 0 0 1-2.721-2.72 2.706 2.706 0 0 1 2.72-2.72z" style="stroke:#fff;stroke-width:.5;stroke-linecap:square;stroke-miterlimit:4.7;stroke-dasharray:none" transform="translate(-12.405 -45.52)scale(.51003)"/>
        </g>
        <g style="stroke:#fff;stroke-width:.5;stroke-dasharray:none">
            <path d="M111.055 100.875a3.72 3.72 0 0 1-3.72 3.72 3.72 3.72 0 0 1-3.721-3.72 3.72 3.72 0 0 1 3.72-3.72 3.72 3.72 0 0 1 3.72 3.72z" style="fill:#fff;stroke:#fff;stroke-width:.5;stroke-linecap:square;stroke-miterlimit:4.7;stroke-dasharray:none" transform="translate(-12.405 -45.52)scale(.51003)"/>
            <path d="M107.334 96.154a4.736 4.736 0 0 0-4.72 4.721 4.736 4.736 0 0 0 4.72 4.72 4.736 4.736 0 0 0 4.72-4.72 4.736 4.736 0 0 0-4.72-4.72zm0 2a2.706 2.706 0 0 1 2.72 2.721 2.706 2.706 0 0 1-2.72 2.72 2.706 2.706 0 0 1-2.72-2.72 2.706 2.706 0 0 1 2.72-2.72z" style="stroke:#fff;stroke-width:.5;stroke-linecap:square;stroke-miterlimit:4.7;stroke-dasharray:none" transform="translate(-12.405 -45.52)scale(.51003)"/>
        </g>
        <g style="stroke:#fff;stroke-width:.5;stroke-dasharray:none">
            <path d="M124.81 100.875a3.72 3.72 0 0 1-3.72 3.72 3.72 3.72 0 0 1-3.721-3.72 3.72 3.72 0 0 1 3.72-3.72 3.72 3.72 0 0 1 3.721 3.72z" style="fill:#fff;stroke:#fff;stroke-width:.5;stroke-linecap:square;stroke-miterlimit:4.7;stroke-dasharray:none" transform="translate(-12.405 -45.52)scale(.51003)"/>
            <path d="M121.09 96.154a4.736 4.736 0 0 0-4.72 4.721 4.736 4.736 0 0 0 4.72 4.72 4.736 4.736 0 0 0 4.72-4.72 4.736 4.736 0 0 0-4.72-4.72zm0 2a2.706 2.706 0 0 1 2.72 2.721 2.706 2.706 0 0 1-2.72 2.72 2.706 2.706 0 0 1-2.72-2.72 2.706 2.706 0 0 1 2.72-2.72z" style="stroke:#fff;stroke-width:.5;stroke-linecap:square;stroke-miterlimit:4.7;stroke-dasharray:none" transform="translate(-12.405 -45.52)scale(.51003)"/>
        </g>
        <g style="stroke:#fff;stroke-width:.5;stroke-dasharray:none">
            <path d="M131.687 115.79a3.72 3.72 0 0 1-3.72 3.72 3.72 3.72 0 0 1-3.72-3.72 3.72 3.72 0 0 1 3.72-3.72 3.72 3.72 0 0 1 3.72 3.72z" style="fill:#fff;stroke:#fff;stroke-width:.5;stroke-linecap:square;stroke-miterlimit:4.7;stroke-dasharray:none" transform="translate(-12.405 -45.52)scale(.51003)"/>
            <path d="M127.967 111.07a4.736 4.736 0 0 0-4.72 4.721 4.736 4.736 0 0 0 4.72 4.72 4.736 4.736 0 0 0 4.72-4.72 4.736 4.736 0 0 0-4.72-4.72zm0 2a2.706 2.706 0 0 1 2.72 2.721 2.706 2.706 0 0 1-2.72 2.72 2.706 2.706 0 0 1-2.72-2.72 2.706 2.706 0 0 1 2.72-2.72z" style="stroke:#fff;stroke-width:.5;stroke-linecap:square;stroke-miterlimit:4.7;stroke-dasharray:none" transform="translate(-12.405 -45.52)scale(.51003)"/>
        </g>
        <g style="stroke:#fff;stroke-width:.5;stroke-dasharray:none">
            <path d="M117.932 115.79a3.72 3.72 0 0 1-3.72 3.72 3.72 3.72 0 0 1-3.72-3.72 3.72 3.72 0 0 1 3.72-3.72 3.72 3.72 0 0 1 3.72 3.72z" style="fill:#fff;stroke:#fff;stroke-width:.5;stroke-linecap:square;stroke-miterlimit:4.7;stroke-dasharray:none" transform="translate(-12.405 -45.52)scale(.51003)"/>
            <path d="M114.21 111.07a4.736 4.736 0 0 0-4.72 4.721 4.736 4.736 0 0 0 4.72 4.72 4.736 4.736 0 0 0 4.722-4.72 4.736 4.736 0 0 0-4.721-4.72zm0 2a2.706 2.706 0 0 1 2.722 2.721 2.706 2.706 0 0 1-2.721 2.72 2.706 2.706 0 0 1-2.72-2.72 2.706 2.706 0 0 1 2.72-2.72z" style="stroke:#fff;stroke-width:.5;stroke-linecap:square;stroke-miterlimit:4.7;stroke-dasharray:none" transform="translate(-12.405 -45.52)scale(.51003)"/>
        </g>
        <g style="stroke:#fff;stroke-width:.5;stroke-dasharray:none">
            <path d="M104.177 115.79a3.72 3.72 0 0 1-3.72 3.72 3.72 3.72 0 0 1-3.72-3.72 3.72 3.72 0 0 1 3.72-3.72 3.72 3.72 0 0 1 3.72 3.72z" style="fill:#fff;stroke:#fff;stroke-width:.5;stroke-linecap:square;stroke-miterlimit:4.7;stroke-dasharray:none" transform="translate(-12.405 -45.52)scale(.51003)"/>
            <path d="M100.457 111.07a4.736 4.736 0 0 0-4.72 4.721 4.736 4.736 0 0 0 4.72 4.72 4.736 4.736 0 0 0 4.72-4.72 4.736 4.736 0 0 0-4.72-4.72zm0 2a2.706 2.706 0 0 1 2.72 2.721 2.706 2.706 0 0 1-2.72 2.72 2.706 2.706 0 0 1-2.72-2.72 2.706 2.706 0 0 1 2.72-2.72z" style="stroke:#fff;stroke-width:.5;stroke-linecap:square;stroke-miterlimit:4.7;stroke-dasharray:none" transform="translate(-12.405 -45.52)scale(.51003)"/>
        </g>
        <g style="stroke:#fff;stroke-width:.5;stroke-dasharray:none">
            <path d="M131.687 115.79a3.72 3.72 0 0 1-3.72 3.72 3.72 3.72 0 0 1-3.72-3.72 3.72 3.72 0 0 1 3.72-3.72 3.72 3.72 0 0 1 3.72 3.72z" style="fill:#fff;stroke:#fff;stroke-width:.5;stroke-linecap:square;stroke-miterlimit:4.7;stroke-dasharray:none" transform="translate(-5.388 -45.52)scale(.51003)"/>
            <path d="M127.967 111.07a4.736 4.736 0 0 0-4.72 4.721 4.736 4.736 0 0 0 4.72 4.72 4.736 4.736 0 0 0 4.72-4.72 4.736 4.736 0 0 0-4.72-4.72zm0 2a2.706 2.706 0 0 1 2.72 2.721 2.706 2.706 0 0 1-2.72 2.72 2.706 2.706 0 0 1-2.72-2.72 2.706 2.706 0 0 1 2.72-2.72z" style="stroke:#fff;stroke-width:.5;stroke-linecap:square;stroke-miterlimit:4.7;stroke-dasharray:none" transform="translate(-5.388 -45.52)scale(.51003)"/>
        </g>
        <path d="M131.687 115.79a3.72 3.72 0 0 1-3.72 3.72 3.72 3.72 0 0 1-3.72-3.72 3.72 3.72 0 0 1 3.72-3.72 3.72 3.72 0 0 1 3.72 3.72z" style="fill:#fff;stroke:#fff;stroke-width:.5;stroke-linecap:square;stroke-miterlimit:4.7;stroke-dasharray:none" transform="translate(-5.118 -53.077)scale(.51003)"/>
        <path d="M127.967 111.07a4.736 4.736 0 0 0-4.72 4.721 4.736 4.736 0 0 0 4.72 4.72 4.736 4.736 0 0 0 4.72-4.72 4.736 4.736 0 0 0-4.72-4.72zm0 2a2.706 2.706 0 0 1 2.72 2.721 2.706 2.706 0 0 1-2.72 2.72 2.706 2.706 0 0 1-2.72-2.72 2.706 2.706 0 0 1 2.72-2.72z" style="stroke:#fff;stroke-width:.5;stroke-linecap:square;stroke-miterlimit:4.7;stroke-dasharray:none" transform="translate(-5.118 -53.077)scale(.51003)"/>
    </g>
    <g style="display:inline" transform="translate(-12.405 -45.52)scale(.51003)">
        <circle cx="62.702" cy="136.094" r=".867" style="fill:#c00;stroke:none;stroke-width:.499999;stroke-linecap:square;stroke-linejoin:miter;stroke-miterlimit:4.7;stroke-dasharray:none"/>
        <circle cx="74.041" cy="136.094" r=".867" style="fill:gray;stroke:none;stroke-width:.499999;stroke-linecap:square;stroke-linejoin:miter;stroke-miterlimit:4.7;stroke-dasharray:none"/>
        <circle cx="85.38" cy="136.094" r=".867" style="fill:gray;stroke:none;stroke-width:.499999;stroke-linecap:square;stroke-linejoin:miter;stroke-miterlimit:4.7;stroke-dasharray:none"/>
        <circle cx="96.719" cy="136.094" r=".867" style="fill:gray;stroke:none;stroke-width:.499999;stroke-linecap:square;stroke-linejoin:miter;stroke-miterlimit:4.7;stroke-dasharray:none"/>
        <circle cx="108.059" cy="136.094" r=".867" style="fill:gray;stroke:none;stroke-width:.499999;stroke-linecap:square;stroke-linejoin:miter;stroke-miterlimit:4.7;stroke-dasharray:none"/>
        <circle cx="119.398" cy="136.094" r=".867" style="fill:gray;stroke:none;stroke-width:.499999;stroke-linecap:square;stroke-linejoin:miter;stroke-miterlimit:4.7;stroke-dasharray:none"/>
        <circle cx="130.737" cy="136.094" r=".867" style="fill:gray;stroke:none;stroke-width:.499999;stroke-linecap:square;stroke-linejoin:miter;stroke-miterlimit:4.7;stroke-dasharray:none"/>
        <circle cx="142.077" cy="136.094" r=".867" style="fill:gray;stroke:none;stroke-width:.499999;stroke-linecap:square;stroke-linejoin:miter;stroke-miterlimit:4.7;stroke-dasharray:none"/>
        <circle cx="37.901" cy="137.491" r=".867" style="fill:gray;stroke:none;stroke-width:.499999;stroke-linecap:square;stroke-linejoin:miter;stroke-miterlimit:4.7;stroke-dasharray:none"/>
    </g>
    <path d="M77.358 116.124h-1.342l-.67-1.162.67-1.162h1.342l.67 1.162z" style="fill:#000;stroke:#fff;stroke-width:.849546;stroke-linecap:square;stroke-linejoin:miter;stroke-miterlimit:4.7;stroke-dasharray:none" transform="matrix(.59756 0 0 .60317 19.215 -64.876)"/>
    <path d="M77.358 116.124h-1.342l-.67-1.162.67-1.162h1.342l.67 1.162z" style="fill:#000;stroke:#fff;stroke-width:.849546;stroke-linecap:square;stroke-linejoin:miter;stroke-miterlimit:4.7;stroke-dasharray:none" transform="matrix(.59756 0 0 .60317 19.215 -61.625)"/>
    <path d="M77.358 116.124h-1.342l-.67-1.162.67-1.162h1.342l.67 1.162z" style="fill:#000;stroke:#fff;stroke-width:.849546;stroke-linecap:square;stroke-linejoin:miter;stroke-miterlimit:4.7;stroke-dasharray:none" transform="matrix(.59756 0 0 .60317 19.215 -58.373)"/>
    <path d="M77.358 116.124h-1.342l-.67-1.162.67-1.162h1.342l.67 1.162z" style="fill:#000;stroke:#fff;stroke-width:.849546;stroke-linecap:square;stroke-linejoin:miter;stroke-miterlimit:4.7;stroke-dasharray:none" transform="matrix(.59756 0 0 .60317 19.215 -55.122)"/>
    <path d="M77.358 116.124h-1.342l-.67-1.162.67-1.162h1.342l.67 1.162z" style="fill:#000;stroke:#fff;stroke-width:.849546;stroke-linecap:square;stroke-linejoin:miter;stroke-miterlimit:4.7;stroke-dasharray:none" transform="matrix(.59756 0 0 .60317 19.215 -51.87)"/>
    <path d="M77.358 116.124h-1.342l-.67-1.162.67-1.162h1.342l.67 1.162z" style="fill:#000;stroke:#fff;stroke-width:.849546;stroke-linecap:square;stroke-linejoin:miter;stroke-miterlimit:4.7;stroke-dasharray:none" transform="matrix(.59756 0 0 .60317 19.215 -48.619)"/>
    <path d="M77.358 116.124h-1.342l-.67-1.162.67-1.162h1.342l.67 1.162z" style="fill:#000;stroke:#fff;stroke-width:.849546;stroke-linecap:square;stroke-linejoin:miter;stroke-miterlimit:4.7;stroke-dasharray:none" transform="matrix(.59756 0 0 .60317 19.215 -42.116)"/>
    <path d="M77.358 116.124h-1.342l-.67-1.162.67-1.162h1.342l.67 1.162z" style="fill:#000;stroke:#fff;stroke-width:.849546;stroke-linecap:square;stroke-linejoin:miter;stroke-miterlimit:4.7;stroke-dasharray:none" transform="matrix(.59756 0 0 .60317 19.215 -45.367)"/>
    <path d="M77.358 116.124h-1.342l-.67-1.162.67-1.162h1.342l.67 1.162z" style="fill:#000;stroke:#fff;stroke-width:.849546;stroke-linecap:square;stroke-linejoin:miter;stroke-miterlimit:4.7;stroke-dasharray:none" transform="matrix(.59756 0 0 .60317 22.589 -64.876)"/>
    <path d="M77.358 116.124h-1.342l-.67-1.162.67-1.162h1.342l.67 1.162z" style="fill:#000;stroke:#fff;stroke-width:.849546;stroke-linecap:square;stroke-linejoin:miter;stroke-miterlimit:4.7;stroke-dasharray:none" transform="matrix(.59756 0 0 .60317 22.589 -61.625)"/>
    <path d="M77.358 116.124h-1.342l-.67-1.162.67-1.162h1.342l.67 1.162z" style="fill:#000;stroke:#fff;stroke-width:.849546;stroke-linecap:square;stroke-linejoin:miter;stroke-miterlimit:4.7;stroke-dasharray:none" transform="matrix(.59756 0 0 .60317 22.589 -58.373)"/>
    <path d="M77.358 116.124h-1.342l-.67-1.162.67-1.162h1.342l.67 1.162z" style="fill:#000;stroke:#fff;stroke-width:.849546;stroke-linecap:square;stroke-linejoin:miter;stroke-miterlimit:4.7;stroke-dasharray:none" transform="matrix(.59756 0 0 .60317 22.589 -55.122)"/>
    <path d="M77.358 116.124h-1.342l-.67-1.162.67-1.162h1.342l.67 1.162z" style="fill:#000;stroke:#fff;stroke-width:.849546;stroke-linecap:square;stroke-linejoin:miter;stroke-miterlimit:4.7;stroke-dasharray:none" transform="matrix(.59756 0 0 .60317 22.589 -51.87)"/>
    <path d="M77.358 116.124h-1.342l-.67-1.162.67-1.162h1.342l.67 1.162z" style="fill:#000;stroke:#fff;stroke-width:.849546;stroke-linecap:square;stroke-linejoin:miter;stroke-miterlimit:4.7;stroke-dasharray:none" transform="matrix(.59756 0 0 .60317 22.589 -48.619)"/>
    <path d="M77.358 116.124h-1.342l-.67-1.162.67-1.162h1.342l.67 1.162z" style="fill:#000;stroke:#fff;stroke-width:.849546;stroke-linecap:square;stroke-linejoin:miter;stroke-miterlimit:4.7;stroke-dasharray:none" transform="matrix(.59756 0 0 .60317 22.589 -42.116)"/>
    <path d="M77.358 116.124h-1.342l-.67-1.162.67-1.162h1.342l.67 1.162z" style="fill:#000;stroke:#fff;stroke-width:.849546;stroke-linecap:square;stroke-linejoin:miter;stroke-miterlimit:4.7;stroke-dasharray:none" transform="matrix(.59756 0 0 .60317 22.589 -45.367)"/>
    <path d="M77.358 116.124h-1.342l-.67-1.162.67-1.162h1.342l.67 1.162z" style="fill:#000;stroke:#fff;stroke-width:.849546;stroke-linecap:square;stroke-linejoin:miter;stroke-miterlimit:4.7;stroke-dasharray:none" transform="matrix(.59756 0 0 .60317 25.962 -64.876)"/>
    <path d="M77.358 116.124h-1.342l-.67-1.162.67-1.162h1.342l.67 1.162z" style="fill:#000;stroke:#fff;stroke-width:.849546;stroke-linecap:square;stroke-linejoin:miter;stroke-miterlimit:4.7;stroke-dasharray:none" transform="matrix(.59756 0 0 .60317 25.962 -61.625)"/>
    <path d="M77.358 116.124h-1.342l-.67-1.162.67-1.162h1.342l.67 1.162z" style="fill:#000;stroke:#fff;stroke-width:.849546;stroke-linecap:square;stroke-linejoin:miter;stroke-miterlimit:4.7;stroke-dasharray:none" transform="matrix(.59756 0 0 .60317 25.962 -58.373)"/>
    <path d="M77.358 116.124h-1.342l-.67-1.162.67-1.162h1.342l.67 1.162z" style="fill:#000;stroke:#fff;stroke-width:.849546;stroke-linecap:square;stroke-linejoin:miter;stroke-miterlimit:4.7;stroke-dasharray:none" transform="matrix(.59756 0 0 .60317 25.962 -55.122)"/>
    <path d="M77.358 116.124h-1.342l-.67-1.162.67-1.162h1.342l.67 1.162z" style="fill:#000;stroke:#fff;stroke-width:.849546;stroke-linecap:square;stroke-linejoin:miter;stroke-miterlimit:4.7;stroke-dasharray:none" transform="matrix(.59756 0 0 .60317 25.962 -51.87)"/>
    <path d="M77.358 116.124h-1.342l-.67-1.162.67-1.162h1.342l.67 1.162z" style="fill:#000;stroke:#fff;stroke-width:.849546;stroke-linecap:square;stroke-linejoin:miter;stroke-miterlimit:4.7;stroke-dasharray:none" transform="matrix(.59756 0 0 .60317 25.962 -48.619)"/>
    <path d="M77.358 116.124h-1.342l-.67-1.162.67-1.162h1.342l.67 1.162z" style="fill:#000;stroke:#fff;stroke-width:.849546;stroke-linecap:square;stroke-linejoin:miter;stroke-miterlimit:4.7;stroke-dasharray:none" transform="matrix(.59756 0 0 .60317 25.962 -42.116)"/>
    <path d="M77.358 116.124h-1.342l-.67-1.162.67-1.162h1.342l.67 1.162z" style="fill:#000;stroke:#fff;stroke-width:.849546;stroke-linecap:square;stroke-linejoin:miter;stroke-miterlimit:4.7;stroke-dasharray:none" transform="matrix(.59756 0 0 .60317 25.962 -45.367)"/>
    <g transform="translate(-12.405 -45.52)scale(.51003)">
        <circle cx="42.396" cy="141.353" r="2.386" style="fill:#c00;stroke:none;stroke-width:.5;stroke-linecap:square;stroke-linejoin:miter;stroke-miterlimit:4.7;stroke-dasharray:none"/>
        <circle cx="50.863" cy="141.353" r="2.386" style="fill:gray;stroke:#fff;stroke-width:.15;stroke-linecap:square;stroke-linejoin:miter;stroke-miterlimit:4.7;stroke-dasharray:none"/>
        <circle cx="33.4" cy="131.298" r="2.386" style="fill:gray;stroke:none;stroke-width:.5;stroke-linecap:square;stroke-linejoin:miter;stroke-miterlimit:4.7;stroke-dasharray:none"/>
    </g>
    <g style="display:inline">
        <g transform="translate(-12.405 -45.52)scale(.51003)">
            <circle cx="62.838" cy="129.938" r="1.449" style="fill:#000;stroke:#fff;stroke-width:.25;stroke-linecap:square;stroke-linejoin:miter;stroke-miterlimit:4.7;stroke-dasharray:none"/>
            <path d="M62.605 128.482h.466v.819h-.466z" style="fill:#fff;stroke:none;stroke-width:.25;stroke-linecap:square;stroke-linejoin:miter;stroke-miterlimit:4.7;stroke-dasharray:none"/>
        </g>
        <g transform="translate(-6.622 -45.52)scale(.51003)">
            <circle cx="62.838" cy="129.938" r="1.449" style="fill:#000;stroke:#fff;stroke-width:.25;stroke-linecap:square;stroke-linejoin:miter;stroke-miterlimit:4.7;stroke-dasharray:none"/>
            <path d="M62.605 128.482h.466v.819h-.466z" style="fill:#fff;stroke:none;stroke-width:.25;stroke-linecap:square;stroke-linejoin:miter;stroke-miterlimit:4.7;stroke-dasharray:none"/>
        </g>
        <g transform="translate(-.839 -45.52)scale(.51003)">
            <circle cx="62.838" cy="129.938" r="1.449" style="fill:#000;stroke:#fff;stroke-width:.25;stroke-linecap:square;stroke-linejoin:miter;stroke-miterlimit:4.7;stroke-dasharray:none"/>
            <path d="M62.605 128.482h.466v.819h-.466z" style="fill:#fff;stroke:none;stroke-width:.25;stroke-linecap:square;stroke-linejoin:miter;stroke-miterlimit:4.7;stroke-dasharray:none"/>
        </g>
        <g transform="translate(4.945 -45.52)scale(.51003)">
            <circle cx="62.838" cy="129.938" r="1.449" style="fill:#000;stroke:#fff;stroke-width:.25;stroke-linecap:square;stroke-linejoin:miter;stroke-miterlimit:4.7;stroke-dasharray:none"/>
            <path d="M62.605 128.482h.466v.819h-.466z" style="fill:#fff;stroke:none;stroke-width:.25;stroke-linecap:square;stroke-linejoin:miter;stroke-miterlimit:4.7;stroke-dasharray:none"/>
        </g>
        <g transform="translate(10.728 -45.52)scale(.51003)">
            <circle cx="62.838" cy="129.938" r="1.449" style="fill:#000;stroke:#fff;stroke-width:.25;stroke-linecap:square;stroke-linejoin:miter;stroke-miterlimit:4.7;stroke-dasharray:none"/>
            <path d="M62.605 128.482h.466v.819h-.466z" style="fill:#fff;stroke:none;stroke-width:.25;stroke-linecap:square;stroke-linejoin:miter;stroke-miterlimit:4.7;stroke-dasharray:none"/>
        </g>
        <g transform="translate(16.512 -45.52)scale(.51003)">
            <circle cx="62.838" cy="129.938" r="1.449" style="fill:#000;stroke:#fff;stroke-width:.25;stroke-linecap:square;stroke-linejoin:miter;stroke-miterlimit:4.7;stroke-dasharray:none"/>
            <path d="M62.605 128.482h.466v.819h-.466z" style="fill:#fff;stroke:none;stroke-width:.25;stroke-linecap:square;stroke-linejoin:miter;stroke-miterlimit:4.7;stroke-dasharray:none"/>
        </g>
        <g transform="translate(22.295 -45.52)scale(.51003)">
            <circle cx="62.838" cy="129.938" r="1.449" style="fill:#000;stroke:#fff;stroke-width:.25;stroke-linecap:square;stroke-linejoin:miter;stroke-miterlimit:4.7;stroke-dasharray:none"/>
            <path d="M62.605 128.482h.466v.819h-.466z" style="fill:#fff;stroke:none;stroke-width:.25;stroke-linecap:square;stroke-linejoin:miter;stroke-miterlimit:4.7;stroke-dasharray:none"/>
        </g>
        <g transform="translate(28.078 -45.52)scale(.51003)">
            <circle cx="62.838" cy="129.938" r="1.449" style="fill:#000;stroke:#fff;stroke-width:.25;stroke-linecap:square;stroke-linejoin:miter;stroke-miterlimit:4.7;stroke-dasharray:none"/>
            <path d="M62.605 128.482h.466v.819h-.466z" style="fill:#fff;stroke:none;stroke-width:.25;stroke-linecap:square;stroke-linejoin:miter;stroke-miterlimit:4.7;stroke-dasharray:none"/>
        </g>
        <g transform="translate(-.029 -50.918)scale(.51003)">
            <circle cx="62.838" cy="129.938" r="1.449" style="fill:#000;stroke:#fff;stroke-width:.25;stroke-linecap:square;stroke-linejoin:miter;stroke-miterlimit:4.7;stroke-dasharray:none"/>
            <path d="M62.605 128.482h.466v.819h-.466z" style="fill:#fff;stroke:none;stroke-width:.25;stroke-linecap:square;stroke-linejoin:miter;stroke-miterlimit:4.7;stroke-dasharray:none"/>
        </g>
        <g transform="translate(-.029 -56.316)scale(.51003)">
            <circle cx="62.838" cy="129.938" r="1.449" style="fill:#000;stroke:#fff;stroke-width:.25;stroke-linecap:square;stroke-linejoin:miter;stroke-miterlimit:4.7;stroke-dasharray:none"/>
            <path d="M62.605 128.482h.466v.819h-.466z" style="fill:#fff;stroke:none;stroke-width:.25;stroke-linecap:square;stroke-linejoin:miter;stroke-miterlimit:4.7;stroke-dasharray:none"/>
        </g>
        <g transform="translate(-.029 -61.444)scale(.51003)">
            <circle cx="62.838" cy="129.938" r="1.449" style="fill:#000;stroke:#fff;stroke-width:.25;stroke-linecap:square;stroke-linejoin:miter;stroke-miterlimit:4.7;stroke-dasharray:none"/>
            <path d="M62.605 128.482h.466v.819h-.466z" style="fill:#fff;stroke:none;stroke-width:.25;stroke-linecap:square;stroke-linejoin:miter;stroke-miterlimit:4.7;stroke-dasharray:none"/>
        </g>
        <g transform="translate(-12.405 -39.853)scale(.51003)">
            <circle cx="62.838" cy="129.938" r="1.449" style="fill:#000;stroke:#fff;stroke-width:.25;stroke-linecap:square;stroke-linejoin:miter;stroke-miterlimit:4.7;stroke-dasharray:none"/>
            <path d="M62.605 128.482h.466v.819h-.466z" style="fill:#fff;stroke:none;stroke-width:.25;stroke-linecap:square;stroke-linejoin:miter;stroke-miterlimit:4.7;stroke-dasharray:none"/>
        </g>
        <g transform="translate(-6.622 -39.853)scale(.51003)">
            <circle cx="62.838" cy="129.938" r="1.449" style="fill:#000;stroke:#fff;stroke-width:.25;stroke-linecap:square;stroke-linejoin:miter;stroke-miterlimit:4.7;stroke-dasharray:none"/>
            <path d="M62.605 128.482h.466v.819h-.466z" style="fill:#fff;stroke:none;stroke-width:.25;stroke-linecap:square;stroke-linejoin:miter;stroke-miterlimit:4.7;stroke-dasharray:none"/>
        </g>
        <g transform="translate(-.839 -39.853)scale(.51003)">
            <circle cx="62.838" cy="129.938" r="1.449" style="fill:#000;stroke:#fff;stroke-width:.25;stroke-linecap:square;stroke-linejoin:miter;stroke-miterlimit:4.7;stroke-dasharray:none"/>
            <path d="M62.605 128.482h.466v.819h-.466z" style="fill:#fff;stroke:none;stroke-width:.25;stroke-linecap:square;stroke-linejoin:miter;stroke-miterlimit:4.7;stroke-dasharray:none"/>
        </g>
        <g transform="translate(4.945 -39.853)scale(.51003)">
            <circle cx="62.838" cy="129.938" r="1.449" style="fill:#000;stroke:#fff;stroke-width:.25;stroke-linecap:square;stroke-linejoin:miter;stroke-miterlimit:4.7;stroke-dasharray:none"/>
            <path d="M62.605 128.482h.466v.819h-.466z" style="fill:#fff;stroke:none;stroke-width:.25;stroke-linecap:square;stroke-linejoin:miter;stroke-miterlimit:4.7;stroke-dasharray:none"/>
        </g>
        <g transform="translate(10.728 -39.853)scale(.51003)">
            <circle cx="62.838" cy="129.938" r="1.449" style="fill:#000;stroke:#fff;stroke-width:.25;stroke-linecap:square;stroke-linejoin:miter;stroke-miterlimit:4.7;stroke-dasharray:none"/>
            <path d="M62.605 128.482h.466v.819h-.466z" style="fill:#fff;stroke:none;stroke-width:.25;stroke-linecap:square;stroke-linejoin:miter;stroke-miterlimit:4.7;stroke-dasharray:none"/>
        </g>
        <g transform="translate(16.512 -39.853)scale(.51003)">
            <circle cx="62.838" cy="129.938" r="1.449" style="fill:#000;stroke:#fff;stroke-width:.25;stroke-linecap:square;stroke-linejoin:miter;stroke-miterlimit:4.7;stroke-dasharray:none"/>
            <path d="M62.605 128.482h.466v.819h-.466z" style="fill:#fff;stroke:none;stroke-width:.25;stroke-linecap:square;stroke-linejoin:miter;stroke-miterlimit:4.7;stroke-dasharray:none"/>
        </g>
        <g transform="translate(22.295 -39.853)scale(.51003)">
            <circle cx="62.838" cy="129.938" r="1.449" style="fill:#000;stroke:#fff;stroke-width:.25;stroke-linecap:square;stroke-linejoin:miter;stroke-miterlimit:4.7;stroke-dasharray:none"/>
            <path d="M62.605 128.482h.466v.819h-.466z" style="fill:#fff;stroke:none;stroke-width:.25;stroke-linecap:square;stroke-linejoin:miter;stroke-miterlimit:4.7;stroke-dasharray:none"/>
        </g>
        <g transform="translate(28.078 -39.853)scale(.51003)">
            <circle cx="62.838" cy="129.938" r="1.449" style="fill:#000;stroke:#fff;stroke-width:.25;stroke-linecap:square;stroke-linejoin:miter;stroke-miterlimit:4.7;stroke-dasharray:none"/>
            <path d="M62.605 128.482h.466v.819h-.466z" style="fill:#fff;stroke:none;stroke-width:.25;stroke-linecap:square;stroke-linejoin:miter;stroke-miterlimit:4.7;stroke-dasharray:none"/>
        </g>
    </g>
    <g style="display:inline">
        <path d="M77.358 116.124h-1.342l-.67-1.162.67-1.162h1.342l.67 1.162z" style="fill:#000;stroke:#fff;stroke-width:1;stroke-linecap:square;stroke-linejoin:round;stroke-miterlimit:4.7;stroke-dasharray:none" transform="translate(-11.641 -44.818)scale(.51003)"/>
        <path d="M77.896 116.042h.554l.473-2.664H77.44z" style="fill:#fff;stroke:gray;stroke-width:.25;stroke-linecap:square;stroke-linejoin:round;stroke-miterlimit:4.7;stroke-dasharray:none;stroke-opacity:1" transform="translate(-12.405 -45.52)scale(.51003)"/>
        <path d="M77.358 116.124h-1.342l-.67-1.162.67-1.162h1.342l.67 1.162z" style="fill:#000;stroke:#fff;stroke-width:1;stroke-linecap:square;stroke-linejoin:round;stroke-miterlimit:4.7;stroke-dasharray:none" transform="translate(-11.641 -52.644)scale(.51003)"/>
        <path d="M77.896 116.042h.554l.473-2.664H77.44z" style="fill:#fff;stroke:gray;stroke-width:.25;stroke-linecap:square;stroke-linejoin:round;stroke-miterlimit:4.7;stroke-dasharray:none;stroke-opacity:1" transform="translate(-12.405 -53.347)scale(.51003)"/>
        <path d="M77.358 116.124h-1.342l-.67-1.162.67-1.162h1.342l.67 1.162z" style="fill:#000;stroke:#fff;stroke-width:1;stroke-linecap:square;stroke-linejoin:round;stroke-miterlimit:4.7;stroke-dasharray:none" transform="translate(-2.195 -52.644)scale(.51003)"/>
        <path d="M77.896 116.042h.554l.473-2.664H77.44z" style="fill:#fff;stroke:gray;stroke-width:.25;stroke-linecap:square;stroke-linejoin:round;stroke-miterlimit:4.7;stroke-dasharray:none;stroke-opacity:1" transform="translate(-2.96 -53.347)scale(.51003)"/>
        <path d="M77.358 116.124h-1.342l-.67-1.162.67-1.162h1.342l.67 1.162z" style="fill:#000;stroke:#fff;stroke-width:1;stroke-linecap:square;stroke-linejoin:round;stroke-miterlimit:4.7;stroke-dasharray:none" transform="translate(-29.184 -52.644)scale(.51003)"/>
        <path d="M77.896 116.042h.554l.473-2.664H77.44z" style="fill:#fff;stroke:gray;stroke-width:.25;stroke-linecap:square;stroke-linejoin:round;stroke-miterlimit:4.7;stroke-dasharray:none;stroke-opacity:1" transform="translate(-29.948 -53.347)scale(.51003)"/>
        <path d="M77.358 116.124h-1.342l-.67-1.162.67-1.162h1.342l.67 1.162z" style="fill:#000;stroke:#fff;stroke-width:1;stroke-linecap:square;stroke-linejoin:round;stroke-miterlimit:4.7;stroke-dasharray:none" transform="translate(-29.184 -44.818)scale(.51003)"/>
        <path d="M77.896 116.042h.554l.473-2.664H77.44z" style="fill:#fff;stroke:gray;stroke-width:.25;stroke-linecap:square;stroke-linejoin:round;stroke-miterlimit:4.7;stroke-dasharray:none;stroke-opacity:1" transform="translate(-29.948 -45.52)scale(.51003)"/>
        <path d="M77.358 116.124h-1.342l-.67-1.162.67-1.162h1.342l.67 1.162z" style="fill:#000;stroke:#fff;stroke-width:1;stroke-linecap:square;stroke-linejoin:round;stroke-miterlimit:4.7;stroke-dasharray:none" transform="translate(15.888 -52.644)scale(.51003)"/>
        <path d="M77.896 116.042h.554l.473-2.664H77.44z" style="fill:#fff;stroke:gray;stroke-width:.25;stroke-linecap:square;stroke-linejoin:round;stroke-miterlimit:4.7;stroke-dasharray:none;stroke-opacity:1" transform="translate(15.124 -53.347)scale(.51003)"/>
    </g>
</svg>
