<?xml version="1.0" encoding="UTF-8" standalone="no"?>
<svg
   xml:space="preserve"
   width="30"
   height="65"
   version="1.1"
   id="svg1"
   sodipodi:docname="music_stand_low_1.svg"
   inkscape:version="1.3.2 (091e20e, 2023-11-25)"
   xmlns:inkscape="http://www.inkscape.org/namespaces/inkscape"
   xmlns:sodipodi="http://sodipodi.sourceforge.net/DTD/sodipodi-0.dtd"
   xmlns="http://www.w3.org/2000/svg"
   xmlns:svg="http://www.w3.org/2000/svg"><defs
     id="defs1" /><sodipodi:namedview
     id="namedview1"
     pagecolor="#ffffff"
     bordercolor="#000000"
     borderopacity="0.25"
     inkscape:showpageshadow="2"
     inkscape:pageopacity="0.0"
     inkscape:pagecheckerboard="0"
     inkscape:deskcolor="#d1d1d1"
     inkscape:current-layer="svg1" /><path
     d="m 29.655,7.7308074 -6.72,-5.748 a 0.79,0.79 0 0 0 -1.024,1.2 l 5.083,4.345 H 15.788 v -2.078 a 0.789,0.789 0 0 0 -1.578,0 v 2.078 H 3.0039998 l 5.085,-4.345 a 0.78903058,0.78903058 0 1 0 -1.026,-1.199 l -6.71899994,5.748 a 0.78,0.78 0 0 0 -0.26399999,0.586 V 20.400808 c 0,0.436 0.35299999,0.79 0.78799999,0.79 H 14.211 v 18.842 l -13.39000014,15.52 a 0.789,0.789 0 0 0 1.19399994,1.03 l 8.0770002,-9.361 4.12,2.698 v 12.525 a 0.789,0.789 0 0 0 1.577,0 v -12.527 l 4.118,-2.698 8.078,9.362 a 0.789,0.789 0 1 0 1.194,-1.03 l -13.39,-15.52 v -18.844 h 13.343 a 0.79,0.79 0 0 0 0.788,-0.789 V 8.3168074 a 0.78,0.78 0 0 0 -0.264,-0.586 m -18.525,38.2850006 3.08,-3.57 v 5.587 z m 7.736,0 -3.079,2.016 v -5.585 z M 17.135,9.1058074 h 11.207 v 9.5820006 z m -4.272,0 L 1.6569998,18.687808 V 9.1058074 Z M 3.0039998,19.611808 14.21,10.029807 v 9.582001 z M 15.788,10.028807 26.994,19.610808 H 15.788 Z"
     style="stroke-width:1"
     id="path1" /></svg>
