<svg xmlns="http://www.w3.org/2000/svg" xml:space="preserve" width="40" height="40">
    <path d="M31.855 6.452h-4.57l.467 5.137a1.7 1.7 0 0 0-.413-.057c-.934 0-1.694.76-1.694 1.694s.76 1.693 1.694 1.693 1.693-.76 1.693-1.693q-.002-.026-.005-.051h.003l-.509-5.594h3.334Zm-4.516 7.338a.565.565 0 0 1 0-1.129c.303 0 .548.242.56.543l.003.03a.564.564 0 0 1-.563.556M9.839 9.943a1.7 1.7 0 0 0-.565-.104c-.934 0-1.693.76-1.693 1.693 0 .934.76 1.694 1.693 1.694.934 0 1.694-.76 1.694-1.694V6.914l4.516-.903v5.06a1.7 1.7 0 0 0-.565-.103c-.933 0-1.693.76-1.693 1.693 0 .934.76 1.694 1.693 1.694.934 0 1.694-.76 1.694-1.694V4.634L9.839 5.989zm-.565 2.154a.565.565 0 1 1 0-1.13.565.565 0 0 1 0 1.13m5.645 1.129a.565.565 0 1 1 0-1.13.565.565 0 0 1 0 1.13"/>
    <path d="M32.532 18.645 36.478 7.37 29.78 2.5H10.22L3.522 7.371l3.946 11.274L2.5 21.956v10.133L7.911 37.5H32.09l5.411-5.411V21.956ZM7.581 35.572l-3.952-3.951v-7.542l3.952 3.513zm23.71-5.975h-1.13v1.129h1.13v1.129h-1.13v1.129h1.13v1.129h-1.13v1.129h1.13v1.129H8.71v-1.13h1.129v-1.128h-1.13v-1.13h1.13v-1.128h-1.13v-1.13h1.13v-1.128h-1.13v-1.694H31.29zM20 24.517a3.39 3.39 0 0 0-3.19 2.257h-4.053c.546-3.511 3.582-6.21 7.243-6.21s6.697 2.699 7.243 6.21H23.19A3.39 3.39 0 0 0 20 24.516m1.944 2.257h-3.888A2.25 2.25 0 0 1 20 25.645a2.25 2.25 0 0 1 1.944 1.13M20 19.435c-4.286 0-7.829 3.203-8.384 7.34h-1.14c.561-4.761 4.615-8.469 9.524-8.469s8.963 3.708 9.525 8.468h-1.141c-.555-4.136-4.098-7.339-8.384-7.339m11.64 7.34h-.975c-.566-5.386-5.132-9.598-10.665-9.598S9.9 21.39 9.335 26.774H8.36l-.142-.126c.634-6.054 5.664-10.6 11.782-10.6s11.148 4.546 11.782 10.6zm4.731 4.847-3.952 3.95v-7.98l3.952-3.512zm0-9.053-3.575 3.177C31.766 19.511 26.433 14.92 20 14.92S8.234 19.511 7.204 25.747l-3.575-3.178v-.009l5.194-3.463L4.865 7.79l5.722-4.161h18.826l5.722 4.161-3.958 11.307 5.194 3.463Z"/>
    <path d="M20 30.726c-.934 0-1.694.76-1.694 1.693 0 .934.76 1.694 1.694 1.694s1.694-.76 1.694-1.694-.76-1.693-1.694-1.693m0 2.258a.565.565 0 1 1 0-1.13.565.565 0 0 1 0 1.13M14.355 30.726c-.934 0-1.694.76-1.694 1.693 0 .934.76 1.694 1.694 1.694s1.693-.76 1.693-1.694-.76-1.693-1.693-1.693m0 2.258a.565.565 0 1 1 0-1.13.565.565 0 0 1 0 1.13M25.645 30.726c-.934 0-1.693.76-1.693 1.693 0 .934.76 1.694 1.693 1.694.934 0 1.694-.76 1.694-1.694s-.76-1.693-1.694-1.693m0 2.258a.565.565 0 1 1 0-1.13.565.565 0 0 1 0 1.13"/>
</svg>
