<?xml version="1.0" encoding="UTF-8" standalone="no"?>
<!-- Uploaded to: SVG Repo, www.svgrepo.com, Generator: SVG Repo Mixer Tools -->

<svg
   fill="#000000"
   height="40"
   width="40"
   version="1.1"
   id="Layer_1"
   viewBox="0 0 40 40"
   xml:space="preserve"
   sodipodi:docname="music_box_1.svg"
   inkscape:version="1.4 (e7c3feb1, 2024-10-09)"
   xmlns:inkscape="http://www.inkscape.org/namespaces/inkscape"
   xmlns:sodipodi="http://sodipodi.sourceforge.net/DTD/sodipodi-0.dtd"
   xmlns="http://www.w3.org/2000/svg"
   xmlns:svg="http://www.w3.org/2000/svg"><defs
   id="defs8" /><sodipodi:namedview
   id="namedview8"
   pagecolor="#ffffff"
   bordercolor="#000000"
   borderopacity="0.25"
   inkscape:showpageshadow="2"
   inkscape:pageopacity="0.0"
   inkscape:pagecheckerboard="0"
   inkscape:deskcolor="#d1d1d1"
   inkscape:current-layer="Layer_1" />
<g
   id="g8"
   transform="matrix(0.07056452,0,0,0.07056452,2.499999,2.499999)">
	<g
   id="g7">
		<g
   id="g6">
			<path
   d="m 416,56 h -64.76 l 6.616,72.808 C 355.976,128.328 354.032,128 352,128 c -13.232,0 -24,10.768 -24,24 0,13.232 10.768,24 24,24 13.232,0 24,-10.768 24,-24 0,-0.248 -0.064,-0.48 -0.072,-0.72 h 0.04 L 368.76,72 H 416 Z m -64,104 c -4.416,0 -8,-3.584 -8,-8 0,-4.416 3.584,-8 8,-8 4.304,0 7.768,3.424 7.936,7.688 l 0.04,0.432 c -0.064,4.352 -3.6,7.88 -7.976,7.88 z"
   id="path1" />
			<path
   d="M 104,105.472 C 101.488,104.576 98.816,104 96,104 c -13.232,0 -24,10.768 -24,24 0,13.232 10.768,24 24,24 13.232,0 24,-10.768 24,-24 V 62.552 l 64,-12.8 v 71.72 c -2.512,-0.896 -5.184,-1.472 -8,-1.472 -13.232,0 -24,10.768 -24,24 0,13.232 10.768,24 24,24 13.232,0 24,-10.768 24,-24 V 30.24 l -96,19.2 z M 96,136 c -4.416,0 -8,-3.584 -8,-8 0,-4.416 3.584,-8 8,-8 4.416,0 8,3.584 8,8 0,4.416 -3.584,8 -8,8 z m 80,16 c -4.416,0 -8,-3.584 -8,-8 0,-4.416 3.584,-8 8,-8 4.416,0 8,3.584 8,8 0,4.416 -3.584,8 -8,8 z"
   id="path2" />
			<path
   d="M 425.6,228.792 481.512,69.032 386.6,0 H 109.4 L 14.48,69.032 70.4,228.792 0,275.72 V 419.312 L 76.688,496 H 419.312 L 496,419.312 V 275.72 Z M 72,468.68 16,412.68 V 305.808 l 56,49.776 z M 408,384 h -16 v 16 h 16 v 16 h -16 v 16 h 16 v 16 h -16 v 16 h 16 v 16 H 88 v -16 h 16 V 448 H 88 v -16 h 16 V 416 H 88 v -16 h 16 V 384 H 88 v -24 h 8 16 16 16 56 16 64 16 56 16 16 16 8 z M 248,312 c -20.856,0 -38.592,13.384 -45.2,32 h -57.44 c 7.736,-49.76 50.752,-88 102.64,-88 51.888,0 94.904,38.24 102.64,88 H 293.2 C 286.592,325.384 268.848,312 248,312 Z m 27.552,32 h -55.104 c 5.552,-9.52 15.76,-16 27.552,-16 11.792,0 22,6.48 27.552,16 z M 248,240 c -60.736,0 -110.944,45.384 -118.808,104 h -16.168 c 7.96,-67.464 65.408,-120 134.976,-120 69.568,0 127.016,52.536 134.976,120 H 366.808 C 358.944,285.384 308.736,240 248,240 Z M 412.96,344 H 399.136 C 391.12,267.68 326.408,208 248,208 169.592,208 104.88,267.68 96.864,344 H 83.04 l -2.008,-1.784 C 90.024,256.416 161.304,192 248,192 c 86.696,0 157.976,64.416 166.968,150.216 z M 480,412.696 424,468.688 V 355.592 l 56,-49.776 z m 0,-128.288 -50.656,45.024 C 414.736,241.064 339.168,176 248,176 156.832,176 81.264,241.064 66.656,329.44 L 16,284.408 V 284.28 L 89.6,235.208 33.512,74.968 114.6,16 H 381.4 L 462.488,74.968 406.4,235.208 480,284.28 Z"
   id="path3" />
			<path
   d="m 248,400 c -13.232,0 -24,10.768 -24,24 0,13.232 10.768,24 24,24 13.232,0 24,-10.768 24,-24 0,-13.232 -10.768,-24 -24,-24 z m 0,32 c -4.416,0 -8,-3.584 -8,-8 0,-4.416 3.584,-8 8,-8 4.416,0 8,3.584 8,8 0,4.416 -3.584,8 -8,8 z"
   id="path4" />
			<path
   d="m 168,400 c -13.232,0 -24,10.768 -24,24 0,13.232 10.768,24 24,24 13.232,0 24,-10.768 24,-24 0,-13.232 -10.768,-24 -24,-24 z m 0,32 c -4.416,0 -8,-3.584 -8,-8 0,-4.416 3.584,-8 8,-8 4.416,0 8,3.584 8,8 0,4.416 -3.584,8 -8,8 z"
   id="path5" />
			<path
   d="m 328,400 c -13.232,0 -24,10.768 -24,24 0,13.232 10.768,24 24,24 13.232,0 24,-10.768 24,-24 0,-13.232 -10.768,-24 -24,-24 z m 0,32 c -4.416,0 -8,-3.584 -8,-8 0,-4.416 3.584,-8 8,-8 4.416,0 8,3.584 8,8 0,4.416 -3.584,8 -8,8 z"
   id="path6" />
		</g>
	</g>
</g>
</svg>
