<svg xmlns="http://www.w3.org/2000/svg" xml:space="preserve" width="30" height="65">
    <path d="m29.655 7.73-6.72-5.747a.79.79 0 0 0-1.024 1.2l5.083 4.345H15.788V5.45a.789.789 0 0 0-1.578 0v2.078H3.004l5.085-4.345a.789.789 0 1 0-1.026-1.2L.344 7.733a.78.78 0 0 0-.264.586V20.4c0 .436.353.79.788.79h13.343v18.842L.821 55.553a.789.789 0 0 0 1.194 1.03l8.077-9.361 4.12 2.698v12.525a.789.789 0 0 0 1.577 0V49.918l4.118-2.698 8.078 9.362a.789.789 0 1 0 1.194-1.03l-13.39-15.52V21.188h13.343a.79.79 0 0 0 .788-.79V8.318a.78.78 0 0 0-.264-.586M11.131 46.016l3.08-3.57v5.587zm7.736 0-3.079 2.016v-5.585zm-1.732-36.91h11.207v9.582zm-4.272 0L1.657 18.688V9.106ZM3.004 19.612 14.21 10.03v9.582zm12.784-9.583 11.206 9.582H15.788Z" style="stroke-width:1"/>
</svg>
