<svg xmlns="http://www.w3.org/2000/svg" xml:space="preserve" width="30" height="95">
    <path d="M29.656 7.733c-.004-.005-6.72-5.75-6.72-5.75a.79.79 0 0 0-1.024 1.2l5.083 4.346H15.789V5.45a.789.789 0 0 0-1.578 0v2.078H3.005l5.084-4.346a.789.789 0 1 0-1.026-1.2L.344 7.734a.78.78 0 0 0-.264.585v12.084a.79.79 0 0 0 .788.789h13.343v48.842L.821 85.553a.789.789 0 0 0 1.194 1.03l8.077-9.361 4.12 2.699v12.524a.789.789 0 0 0 1.577 0V79.919l4.118-2.698 8.078 9.362a.789.789 0 1 0 1.194-1.03l-13.39-15.52V21.19h13.343a.79.79 0 0 0 .788-.79V8.319a.78.78 0 0 0-.264-.585M11.132 76.017l3.08-3.57v5.587zm7.736 0-3.079 2.016v-5.585zm-1.732-66.91h11.207v9.582zm-4.272 0L1.658 18.69V9.108ZM3.005 19.613l11.206-9.582v9.582zM15.79 10.03l11.206 9.582H15.789Z" style="stroke-width:1"/>
</svg>
