<svg xmlns="http://www.w3.org/2000/svg" xml:space="preserve" width="100" height="70"><path d="m64.656 10.218-6.72-5.748a.79.79 0 0 0-1.024 1.2l5.083 4.345H50.789V7.937a.789.789 0 0 0-1.578 0v2.078H38.005L43.09 5.67a.789.789 0 1 0-1.026-1.199l-6.719 5.748a.78.78 0 0 0-.264.586v12.083c0 .436.353.79.788.79h13.343V42.52l-13.39 15.52a.789.789 0 0 0 1.194 1.03l8.077-9.361 4.12 2.698v12.525a.789.789 0 0 0 1.577 0V52.405l4.118-2.698 8.078 9.362a.789.789 0 1 0 1.194-1.03l-13.39-15.52V23.675h13.343a.79.79 0 0 0 .788-.789V10.804a.78.78 0 0 0-.264-.586M46.132 48.503l3.08-3.57v5.587zm7.736 0-3.079 2.016v-5.585Zm-1.732-36.91h11.207v9.582zm-4.272 0-11.206 9.582v-9.582zm-9.859 10.506 11.206-9.582v9.582zm12.784-9.583 11.206 9.582H50.789Z" style="stroke-width:1"/></svg>