<?xml version="1.0" encoding="UTF-8" standalone="no"?>
<svg
   xml:space="preserve"
   width="35"
   height="90"
   viewBox="0 0 3.1818501 8.1819"
   version="1.1"
   id="svg1"
   sodipodi:docname="music_stand_2.svg"
   inkscape:version="1.3.2 (091e20e, 2023-11-25)"
   xmlns:inkscape="http://www.inkscape.org/namespaces/inkscape"
   xmlns:sodipodi="http://sodipodi.sourceforge.net/DTD/sodipodi-0.dtd"
   xmlns="http://www.w3.org/2000/svg"
   xmlns:svg="http://www.w3.org/2000/svg"><defs
     id="defs1" /><sodipodi:namedview
     id="namedview1"
     pagecolor="#ffffff"
     bordercolor="#000000"
     borderopacity="0.25"
     inkscape:showpageshadow="2"
     inkscape:pageopacity="0.0"
     inkscape:pagecheckerboard="0"
     inkscape:deskcolor="#d1d1d1"
     inkscape:current-layer="svg1" /><path
     d="M 2.9183567,7.5977434 1.7394554,6.3805419 V 2.4337448 h 1.0929592 c 0.1429254,0 0.2596946,-0.072864 0.2596946,-0.1625427 V 2.1095936 H 0.08974086 v 0.1616085 c 0,0.089679 0.11676915,0.1625427 0.25969458,0.1625427 H 1.4797608 v 3.9458629 l -1.15274504,1.1583499 -0.0766006,-0.0766 -0.0803372,0.080337 c -0.0439052,0.043905 -0.0186831,0.1419913 0.0569833,0.2176577 l 0.0467077,0.046708 c 0.0747323,0.074732 0.17281834,0.1018227 0.21765769,0.056983 L 0.57176389,7.7827058 0.51010978,7.7210517 1.4797608,6.7467299 v 0.5567553 h -0.097152 v 0.1139667 c 0,0.062588 0.086876,0.1130325 0.1943038,0.1130325 h 0.065391 c 0.1074276,0 0.1943038,-0.050444 0.1943038,-0.1130325 V 7.3034852 H 1.7394554 V 6.753269 l 0.9958072,1.0275685 -0.070996,0.07193 0.080337,0.080337 c 0.044839,0.043905 0.1419913,0.018683 0.2185918,-0.057917 l 0.045773,-0.046708 c 0.074733,-0.075667 0.1008897,-0.1737527 0.05605,-0.2176579 L 2.9856157,7.5304844 Z M 2.3130254,0.22727506 H 0.85294399 a 0.51938916,0.51938916 0 0 0 -0.51938916,0.518455 V 1.9143556 H 2.8324146 V 0.74666422 A 0.51938916,0.51938916 0 0 0 2.3130254,0.22727506 M 0.75485791,1.6873564 a 0.15133281,0.15133281 0 1 1 0,-0.3026656 0.15133281,0.15133281 0 0 1 0,0.3026656 m 0,-0.3895419 a 0.15133281,0.15133281 0 1 1 0,-0.30266554 0.15133281,0.15133281 0 0 1 0,0.30266554 m 0,-0.43251283 a 0.15133282,0.15133282 0 1 1 0,-0.30266563 0.15133282,0.15133282 0 0 1 0,0.30266563 M 1.2639714,1.6873564 a 0.15133281,0.15133281 0 1 1 0,-0.3026656 0.15133281,0.15133281 0 0 1 0,0.3026656 m 0,-0.3895419 a 0.15133281,0.15133281 0 1 1 0,-0.30266554 0.15133281,0.15133281 0 0 1 0,0.30266554 m 0,-0.43251283 a 0.15133282,0.15133282 0 1 1 0,-0.30266563 0.15133282,0.15133282 0 0 1 0,0.30266563 M 1.7721507,1.6873564 a 0.15133281,0.15133281 0 1 1 0,-0.3026656 0.15133281,0.15133281 0 0 1 0,0.3026656 m 0,-0.3895419 a 0.15133281,0.15133281 0 1 1 0,-0.30266554 0.15133281,0.15133281 0 0 1 0,0.30266554 m 0,-0.43251283 a 0.15133282,0.15133282 0 1 1 0,-0.30266563 0.15133282,0.15133282 0 0 1 0,0.30266563 M 2.2803301,1.6873564 a 0.15133281,0.15133281 0 1 1 0,-0.3026656 0.15133281,0.15133281 0 0 1 0,0.3026656 m 0,-0.3895419 a 0.15133281,0.15133281 0 1 1 0,-0.30266554 0.15133281,0.15133281 0 0 1 0,0.30266554 m 0,-0.43251283 a 0.15133282,0.15133282 0 1 1 0,-0.30266563 0.15133282,0.15133282 0 0 1 0,0.30266563"
     style="stroke-width:0.934148"
     id="path1" /></svg>
