<?xml version="1.0" encoding="UTF-8" standalone="no"?>
<svg
   xml:space="preserve"
   width="40"
   height="60"
   viewBox="0 0 40 60"
   version="1.1"
   id="svg1"
   sodipodi:docname="music_stand_low_2.svg"
   inkscape:version="1.3.2 (091e20e, 2023-11-25)"
   xmlns:inkscape="http://www.inkscape.org/namespaces/inkscape"
   xmlns:sodipodi="http://sodipodi.sourceforge.net/DTD/sodipodi-0.dtd"
   xmlns="http://www.w3.org/2000/svg"
   xmlns:svg="http://www.w3.org/2000/svg"><defs
     id="defs1" /><sodipodi:namedview
     id="namedview1"
     pagecolor="#ffffff"
     bordercolor="#000000"
     borderopacity="0.25"
     inkscape:showpageshadow="2"
     inkscape:pageopacity="0.0"
     inkscape:pagecheckerboard="0"
     inkscape:deskcolor="#d1d1d1"
     inkscape:current-layer="svg1" /><path
     d="M 34.575616,53.591585 21.63091,40.22633 V 26.737987 h 12.001035 c 1.569367,0 2.851528,-0.800069 2.851528,-1.784768 v -1.78477 H 3.5165274 v 1.78477 c 0,0.984699 1.2821617,1.784768 2.8515278,1.784768 H 18.779382 V 40.216073 L 6.1218801,52.935119 5.280782,52.09402 4.3986547,52.976146 c -0.4820929,0.482094 -0.2051459,1.55911 0.6256949,2.389951 l 0.5128647,0.512865 c 0.8205836,0.83084 1.8975996,1.118044 2.3899496,0.625695 L 8.8092913,55.632786 8.1323099,54.955805 18.779382,44.24719 v 6.113347 h -1.066759 v 1.241133 c 0,0.687239 0.953929,1.25139 2.133519,1.25139 h 0.71801 c 1.179588,0 2.133517,-0.564151 2.133517,-1.25139 V 50.360537 H 21.63091 v -6.051804 l 10.934277,11.293282 -0.779555,0.779555 0.882128,0.882126 c 0.492349,0.482094 1.559108,0.205146 2.400207,-0.635951 l 0.502606,-0.502609 c 0.820584,-0.83084 1.107789,-1.907856 0.615438,-2.389949 L 35.314141,52.85306 Z M 27.928888,2.5102574 H 11.896737 A 5.7030559,5.7030559 0 0 0 6.1936813,8.203056 V 21.024674 H 33.631945 V 8.203056 A 5.7030559,5.7030559 0 0 0 27.928888,2.5000001 M 10.819721,18.532151 a 1.6668104,1.6668104 0 1 1 0,-3.33362 1.6668104,1.6668104 0 0 1 0,3.33362 m 0,-4.277291 a 1.6616818,1.6616818 0 1 1 0,-3.323363 1.6616818,1.6616818 0 0 1 0,3.323363 m 0,-4.7491277 a 1.6668104,1.6668104 0 1 1 0,-3.3336207 1.6668104,1.6668104 0 0 1 0,3.3336207 m 5.590226,9.0264187 a 1.6668104,1.6668104 0 1 1 0,-3.33362 1.6668104,1.6668104 0 0 1 0,3.33362 m 0,-4.277291 a 1.6668106,1.6668106 0 1 1 0,-3.333621 1.6668106,1.6668106 0 0 1 0,3.333621 m 0,-4.7491277 a 1.6668104,1.6668104 0 1 1 0,-3.3336207 1.6668104,1.6668104 0 0 1 0,3.3336207 m 5.579967,9.0264187 a 1.6668104,1.6668104 0 1 1 0,-3.33362 1.6668104,1.6668104 0 0 1 0,3.33362 m 0,-4.277291 a 1.6616818,1.6616818 0 1 1 0,-3.323363 1.6616818,1.6616818 0 0 1 0,3.323363 m 0,-4.7491277 a 1.6668104,1.6668104 0 1 1 0,-3.3336207 1.6668104,1.6668104 0 0 1 0,3.3336207 m 5.57997,9.0264187 a 1.6668104,1.6668104 0 1 1 0,-3.33362 1.6668104,1.6668104 0 0 1 0,3.33362 m 0,-4.277291 a 1.6616818,1.6616818 0 1 1 0,-3.323363 1.6616818,1.6616818 0 0 1 0,3.323363 m 0,-4.7491277 a 1.6668104,1.6668104 0 1 1 0,-3.3336207 1.6668104,1.6668104 0 0 1 0,3.3336207"
     style="stroke-width:10.2571"
     id="path1" /></svg>
