<svg xmlns="http://www.w3.org/2000/svg" xml:space="preserve" width="51.89" height="80">
    <path d="M25.945 80a.793.793 0 0 1-.793-.793V66.196L10.827 79.782a.793.793 0 1 1-1.09-1.15l15.415-14.62V31.817H.792a.79.79 0 0 1-.74-.507v-.002a.8.8 0 0 1-.05-.234v-.002L0 31.022V6.988a.793.793 0 0 1 .793-.793h13.116V.793A.793.793 0 0 1 14.7 0h22.49a.793.793 0 0 1 .792.793v5.402h13.116a.793.793 0 0 1 .793.793V31.06a.8.8 0 0 1-.217.51l-.001.002-.002.001v.001a.8.8 0 0 1-.256.178.8.8 0 0 1-.316.066h-24.36V64.01l15.354 14.562A.793.793 0 1 1 41 79.723L26.738 66.196v13.011a.794.794 0 0 1-.793.793m12.036-49.768H49.13l-11.15-10.72Zm-22.487 0h20.902V1.585H15.494zm-12.694 0h11.11v-10.39ZM1.585 7.78v21.418l12.324-11.526V7.78Zm36.396 9.534 12.324 11.85V7.78H37.98Zm-6.798-3.799H20.728a.793.793 0 0 1 0-1.585h10.455a.793.793 0 0 1 0 1.585m2.576-3.9H18.152a.793.793 0 0 1 0-1.585h15.607a.793.793 0 0 1 0 1.585" style="stroke-width:.999999"/>
</svg>
