<?xml version="1.0" encoding="UTF-8" standalone="no"?>
<svg
   xml:space="preserve"
   width="30"
   height="95"
   version="1.1"
   id="svg1"
   sodipodi:docname="music_stand_1.svg"
   inkscape:version="1.3.2 (091e20e, 2023-11-25)"
   xmlns:inkscape="http://www.inkscape.org/namespaces/inkscape"
   xmlns:sodipodi="http://sodipodi.sourceforge.net/DTD/sodipodi-0.dtd"
   xmlns="http://www.w3.org/2000/svg"
   xmlns:svg="http://www.w3.org/2000/svg"><defs
     id="defs1" /><sodipodi:namedview
     id="namedview1"
     pagecolor="#ffffff"
     bordercolor="#000000"
     borderopacity="0.25"
     inkscape:showpageshadow="2"
     inkscape:pageopacity="0.0"
     inkscape:pagecheckerboard="0"
     inkscape:deskcolor="#d1d1d1"
     inkscape:current-layer="svg1" /><path
     d="m 29.656,7.7328074 c -0.004,-0.005 -6.72,-5.749 -6.72,-5.749 a 0.79,0.79 0 0 0 -1.024,1.2 l 5.083,4.345 H 15.789 v -2.078 a 0.789,0.789 0 0 0 -1.578,0 v 2.078 H 3.005 l 5.084,-4.346 a 0.78903058,0.78903058 0 1 0 -1.026,-1.199 l -6.719,5.749 a 0.78,0.78 0 0 0 -0.264,0.585 V 20.401808 a 0.79,0.79 0 0 0 0.788,0.789 h 13.343 v 48.842 l -13.39,15.52 a 0.789,0.789 0 0 0 1.194,1.03 l 8.077,-9.361 4.12,2.699 v 12.524 a 0.789,0.789 0 0 0 1.577,0 v -12.526 l 4.118,-2.698 8.078,9.362 a 0.789,0.789 0 1 0 1.194,-1.03 l -13.39,-15.52 v -48.843 h 13.343 a 0.79,0.79 0 0 0 0.788,-0.79 V 8.3188074 a 0.78,0.78 0 0 0 -0.264,-0.585 m -18.524,68.2830006 3.08,-3.57 v 5.587 z m 7.736,0 -3.079,2.016 v -5.585 z M 17.136,9.1068074 h 11.207 v 9.5820006 z m -4.272,0 L 1.658,18.689808 V 9.1078074 Z M 3.005,19.612808 14.211,10.030807 v 9.582001 z M 15.79,10.029807 26.996,19.611808 H 15.789 Z"
     style="stroke-width:1"
     id="path1" /></svg>
