<?xml version="1.0" encoding="UTF-8" standalone="no"?>
<svg
   xml:space="preserve"
   width="51.889954"
   height="80.000366"
   viewBox="0 0 51.889954 80.000366"
   version="1.1"
   id="svg1"
   sodipodi:docname="music_stand_3.svg"
   inkscape:version="1.3.2 (091e20e, 2023-11-25)"
   xmlns:inkscape="http://www.inkscape.org/namespaces/inkscape"
   xmlns:sodipodi="http://sodipodi.sourceforge.net/DTD/sodipodi-0.dtd"
   xmlns="http://www.w3.org/2000/svg"
   xmlns:svg="http://www.w3.org/2000/svg"><defs
   id="defs1" /><sodipodi:namedview
   id="namedview1"
   pagecolor="#ffffff"
   bordercolor="#000000"
   borderopacity="0.25"
   inkscape:showpageshadow="2"
   inkscape:pageopacity="0.0"
   inkscape:pagecheckerboard="0"
   inkscape:deskcolor="#d1d1d1"
   inkscape:current-layer="svg1" />
    <path
   d="M 25.944977,79.999985 A 0.79262448,0.79262448 0 0 1 25.152353,79.207361 V 66.196033 L 10.82725,79.78241 A 0.79263966,0.79263966 0 1 1 9.7362028,78.632312 L 25.152353,64.011164 V 31.817532 H 0.79222817 A 0.79064292,0.79064292 0 0 1 0.05270953,31.311441 l -3.9631e-4,-0.002 A 0.79262448,0.79262448 0 0 1 0.00118894,31.074843 v -0.002 L 0,31.021737 V 6.9877774 A 0.79262448,0.79262448 0 0 1 0.79262448,6.1951529 H 13.908578 V 0.79262448 A 0.79262448,0.79262448 0 0 1 14.701203,0 h 22.487549 a 0.79262448,0.79262448 0 0 1 0.792624,0.79262448 V 6.1951529 H 51.09733 a 0.79262448,0.79262448 0 0 1 0.792624,0.7926245 V 31.02253 l -3.96e-4,0.03527 v 0.002 a 0.79262448,0.79262448 0 0 1 -0.216387,0.510054 v 3.96e-4 l -0.0016,0.0016 -0.0016,0.0016 -3.96e-4,7.92e-4 A 0.79262448,0.79262448 0 0 1 51.41435,31.75179 0.79262448,0.79262448 0 0 1 51.098092,31.81758 H 26.738394 v 32.193632 l 15.353533,14.561304 a 0.79264012,0.79264012 0 1 1 -1.091048,1.150099 L 26.738394,66.195637 v 13.011327 a 0.79381342,0.79381342 0 0 1 -0.793417,0.793021 M 37.981376,30.232283 H 49.129639 L 37.981376,19.512829 Z m -22.487549,0 h 20.9023 V 1.585249 h -20.9023 z m -12.6934847,0 H 13.908578 V 19.842561 Z M 1.5848526,7.7804019 V 29.198304 L 13.908578,17.672355 V 7.7804019 Z M 37.981376,17.314089 50.304705,29.163429 V 7.7804019 H 37.981376 Z M 31.183036,13.51504 H 20.727923 a 0.7926245,0.7926245 0 0 1 0,-1.585249 h 10.455113 a 0.7926245,0.7926245 0 0 1 0,1.585249 m 2.57603,-3.8997124 H 18.151893 a 0.7926245,0.7926245 0 0 1 0,-1.585249 h 15.607173 a 0.7926245,0.7926245 0 0 1 0,1.585249"
   id="path1"
   style="stroke-width:0.999999" />
</svg>
