<?xml version="1.0" encoding="UTF-8" standalone="no"?>
<!-- Uploaded to: SVG Repo, www.svgrepo.com, Generator: SVG Repo Mixer Tools -->

<svg
   fill="#000000"
   version="1.1"
   id="Capa_1"
   width="100"
   height="100"
   viewBox="0 0 9.0909091 9.0909091"
   xml:space="preserve"
   sodipodi:docname="music_stand_2.svg"
   inkscape:version="1.3.2 (091e20e, 2023-11-25)"
   xmlns:inkscape="http://www.inkscape.org/namespaces/inkscape"
   xmlns:sodipodi="http://sodipodi.sourceforge.net/DTD/sodipodi-0.dtd"
   xmlns="http://www.w3.org/2000/svg"
   xmlns:svg="http://www.w3.org/2000/svg"><defs
   id="defs2" /><sodipodi:namedview
   id="namedview2"
   pagecolor="#ffffff"
   bordercolor="#000000"
   borderopacity="0.25"
   inkscape:showpageshadow="2"
   inkscape:pageopacity="0.0"
   inkscape:pagecheckerboard="0"
   inkscape:deskcolor="#d1d1d1"
   inkscape:zoom="3.7745592"
   inkscape:cx="51.39673"
   inkscape:cy="56.165499"
   inkscape:window-width="1536"
   inkscape:window-height="921"
   inkscape:window-x="0"
   inkscape:window-y="25"
   inkscape:window-maximized="0"
   inkscape:current-layer="Capa_1" />

<path
   id="path2"
   d="M 5.8351365,8.3068142 4.572988,7.003678 V 2.7790566 h 1.169546 c 0.153506,0 0.2780879,-0.077733 0.2780879,-0.1737476 V 2.4317692 H 2.807302 V 2.605309 c 0,0.096015 0.1243894,0.1737476 0.2779396,0.1737476 h 1.2099849 v 4.2234489 l -1.234471,1.2396652 -0.081294,-0.081472 c 0,0 -0.038569,0.038479 -0.086117,0.085805 -0.047518,0.047339 -0.020255,0.1520071 0.060933,0.2334192 l 0.049031,0.04942 c 0.081235,0.081412 0.1857236,0.1091927 0.2332711,0.061616 l 0.086087,-0.085761 -0.06583,-0.066009 1.038256,-1.042693 V 7.9920875 H 4.1909307 v 0.121733 c 0,0.067136 0.093314,0.1215105 0.2084436,0.1215105 h 0.069526 c 0.1151291,0 0.2083845,-0.054359 0.2083845,-0.1215105 V 7.9920875 H 4.572988 V 7.4032036 l 1.0658882,1.100629 -0.075655,0.075996 c 0,0 0.038701,0.038245 0.086235,0.085761 0.047462,0.047323 0.152007,0.019796 0.2332417,-0.061853 l 0.048958,-0.049181 C 6.0128909,8.4730236 6.0403,8.3683572 5.9926039,8.3211359 l -0.085999,-0.08594 z M 5.186788,0.41679939 H 3.6236095 c -0.3070113,0 -0.5558494,0.24879375 -0.5558494,0.55562681 V 2.2231178 H 5.742534 V 0.97260456 c 0,-0.30701142 -0.2487051,-0.55580517 -0.555746,-0.55580517 z M 3.5193283,1.9800968 c -0.089589,0 -0.1621721,-0.072582 -0.1621721,-0.162172 0,-0.089589 0.072582,-0.1621723 0.1621721,-0.1621723 0.08959,0 0.1621723,0.072583 0.1621723,0.1621723 0,0.089589 -0.072582,0.162172 -0.1621723,0.162172 z m 0,-0.4168574 c -0.089589,0 -0.1621721,-0.072583 -0.1621721,-0.1621724 0,-0.089471 0.072582,-0.162172 0.1621721,-0.162172 0.08959,0 0.1621723,0.072582 0.1621723,0.162172 0,0.089589 -0.072582,0.1621724 -0.1621723,0.1621724 z m 0,-0.4632178 c -0.089589,0 -0.1621721,-0.072583 -0.1621721,-0.16217238 0,-0.0894114 0.072582,-0.16211296 0.1621721,-0.16211296 0.08959,0 0.1621723,0.0725235 0.1621723,0.16211296 0,0.0895894 -0.072582,0.16217238 -0.1621723,0.16217238 z m 0.5442746,0.8800752 c -0.089471,0 -0.1621724,-0.072582 -0.1621724,-0.162172 0,-0.089589 0.072701,-0.1621723 0.1621724,-0.1621723 0.089589,0 0.1621873,0.072583 0.1621873,0.1621723 -1.312e-4,0.089589 -0.072716,0.162172 -0.1621873,0.162172 z m 0,-0.4168574 c -0.089471,0 -0.1621724,-0.072583 -0.1621724,-0.1621724 0,-0.089471 0.072701,-0.162172 0.1621724,-0.162172 0.089589,0 0.1621873,0.072582 0.1621873,0.162172 -1.312e-4,0.089589 -0.072716,0.1621724 -0.1621873,0.1621724 z m 0,-0.4632178 c -0.089471,0 -0.1621724,-0.072583 -0.1621724,-0.16217238 0,-0.0894114 0.072701,-0.16211296 0.1621724,-0.16211296 0.089589,0 0.1621873,0.0725235 0.1621873,0.16211296 C 4.225659,1.0274386 4.1530738,1.1000216 4.0636029,1.1000216 Z M 4.607907,1.9800968 c -0.08956,0 -0.1621574,-0.072582 -0.1621574,-0.162172 0,-0.089589 0.072598,-0.1621723 0.1621574,-0.1621723 0.08956,0 0.1621717,0.072583 0.1621717,0.1621723 -1.206e-4,0.089589 -0.072731,0.162172 -0.1621717,0.162172 z m 0,-0.4168574 c -0.08956,0 -0.1621574,-0.072583 -0.1621574,-0.1621724 0,-0.089471 0.072598,-0.162172 0.1621574,-0.162172 0.08956,0 0.1621717,0.072582 0.1621717,0.162172 -1.206e-4,0.089589 -0.072731,0.1621724 -0.1621717,0.1621724 z m 0,-0.4632178 c -0.08956,0 -0.1621574,-0.072583 -0.1621574,-0.16217238 0,-0.0894114 0.072598,-0.16211296 0.1621574,-0.16211296 0.08956,0 0.1621717,0.0725235 0.1621717,0.16211296 C 4.7699581,1.0274386 4.6973478,1.1000216 4.607907,1.1000216 Z m 0.5442151,0.8800752 c -0.089442,0 -0.1620689,-0.072582 -0.1620689,-0.162172 0,-0.089589 0.072628,-0.1621723 0.1620689,-0.1621723 0.089619,0 0.1622314,0.072583 0.1622314,0.1621723 0,0.089589 -0.072612,0.162172 -0.1622314,0.162172 z m 0,-0.4168574 c -0.089442,0 -0.1620689,-0.072583 -0.1620689,-0.1621724 0,-0.089471 0.072628,-0.162172 0.1620689,-0.162172 0.089619,0 0.1622314,0.072582 0.1622314,0.162172 0,0.089589 -0.072612,0.1621724 -0.1622314,0.1621724 z m 0,-0.4632178 c -0.089442,0 -0.1620689,-0.072583 -0.1620689,-0.16217238 0,-0.0894114 0.072628,-0.16211296 0.1620689,-0.16211296 0.089619,0 0.1622314,0.0725235 0.1622314,0.16211296 0,0.0895894 -0.072612,0.16217238 -0.1622314,0.16217238 z"
   inkscape:label="stand"
   style="stroke-width:0.999995"
   sodipodi:nodetypes="cccssccsscccccccccccccsssscccccccccccsssccsssssssssssssssssssscsssscsssscsssscsssscsssscssssssssssssssss" /></svg>
