<svg xmlns="http://www.w3.org/2000/svg" xml:space="preserve" width="100" height="70" viewBox="0 0 9.091 6.364"><path d="M5.835 5.481 4.573 4.178V2.863h1.17c.153 0 .278-.078.278-.174v-.174H2.807v.174c0 .096.125.174.278.174h1.21v1.314l-1.234 1.24-.082-.082-.086.086c-.047.047-.02.152.061.233l.05.05c.08.081.185.109.233.061l.086-.085-.066-.066L4.295 4.57v.596h-.104v.121c0 .067.093.122.208.122h.07c.115 0 .208-.055.208-.122v-.121h-.104v-.59l1.066 1.101-.076.076.086.086c.048.047.152.02.234-.062l.049-.049c.08-.081.108-.186.06-.233l-.085-.086zM5.187.501H3.624a.556.556 0 0 0-.556.555v1.25h2.675v-1.25A.556.556 0 0 0 5.187.5M3.519 2.063a.162.162 0 1 1 0-.325.162.162 0 0 1 0 .325m0-.417a.162.162 0 1 1 0-.324.162.162 0 0 1 0 .324m0-.463a.162.162 0 1 1 0-.325.162.162 0 0 1 0 .325m.545.88a.162.162 0 1 1 0-.325.162.162 0 0 1 0 .325m0-.417a.162.162 0 1 1 0-.325.162.162 0 0 1 0 .325m0-.463a.162.162 0 1 1 0-.325.162.162 0 0 1 0 .325m.544.88a.162.162 0 1 1 0-.325.162.162 0 0 1 0 .325m0-.417a.162.162 0 1 1 0-.324.162.162 0 0 1 0 .324m0-.463a.162.162 0 1 1 0-.325.162.162 0 0 1 0 .325m.544.88a.162.162 0 1 1 0-.325.162.162 0 0 1 0 .325m0-.417a.162.162 0 1 1 0-.324.162.162 0 0 1 0 .324m0-.463a.162.162 0 1 1 0-.325.162.162 0 0 1 0 .325" style="stroke-width:.999995"/></svg>