<svg xmlns="http://www.w3.org/2000/svg" xml:space="preserve" width="35" height="90" viewBox="0 0 3.182 8.182">
    <path d="M2.918 7.598 1.74 6.38V2.434h1.093c.143 0 .26-.073.26-.163V2.11H.09v.161c0 .09.117.163.26.163h1.13V6.38L.327 7.538.25 7.461l-.08.08c-.044.045-.019.143.057.218l.047.047c.075.075.173.102.217.057l.08-.08-.06-.062.969-.974v.556h-.097v.114c0 .063.086.113.194.113h.065c.108 0 .195-.05.195-.113v-.114h-.098v-.55l.996 1.028-.07.072.08.08c.044.044.142.019.218-.058l.046-.047c.075-.075.1-.173.056-.217l-.08-.08ZM2.313.228H.853a.52.52 0 0 0-.52.518v1.168h2.5V.747a.52.52 0 0 0-.52-.52M.755 1.687a.151.151 0 1 1 0-.302.151.151 0 0 1 0 .302m0-.39a.151.151 0 1 1 0-.302.151.151 0 0 1 0 .303m0-.433a.151.151 0 1 1 0-.302.151.151 0 0 1 0 .302m.509.822a.151.151 0 1 1 0-.302.151.151 0 0 1 0 .302m0-.39a.151.151 0 1 1 0-.302.151.151 0 0 1 0 .303m0-.433a.151.151 0 1 1 0-.302.151.151 0 0 1 0 .302m.508.822a.151.151 0 1 1 0-.302.151.151 0 0 1 0 .302m0-.39a.151.151 0 1 1 0-.302.151.151 0 0 1 0 .303m0-.433a.151.151 0 1 1 0-.302.151.151 0 0 1 0 .302m.508.822a.151.151 0 1 1 0-.302.151.151 0 0 1 0 .302m0-.39a.151.151 0 1 1 0-.302.151.151 0 0 1 0 .303m0-.433a.151.151 0 1 1 0-.302.151.151 0 0 1 0 .302" style="stroke-width:.934148"/>
</svg>
