<?xml version="1.0" encoding="UTF-8" standalone="no"?>
<!-- Uploaded to: SVG Repo, www.svgrepo.com, Generator: SVG Repo Mixer Tools -->

<svg
   fill="#000000"
   height="100"
   width="100"
   version="1.1"
   id="Capa_1"
   viewBox="0 0 100 100"
   xml:space="preserve"
   sodipodi:docname="music_stand_low_1.svg"
   inkscape:version="1.3.2 (091e20e, 2023-11-25)"
   xmlns:inkscape="http://www.inkscape.org/namespaces/inkscape"
   xmlns:sodipodi="http://sodipodi.sourceforge.net/DTD/sodipodi-0.dtd"
   xmlns="http://www.w3.org/2000/svg"
   xmlns:svg="http://www.w3.org/2000/svg"><defs
   id="defs1" /><sodipodi:namedview
   id="namedview1"
   pagecolor="#ffffff"
   bordercolor="#000000"
   borderopacity="0.25"
   inkscape:showpageshadow="2"
   inkscape:pageopacity="0.0"
   inkscape:pagecheckerboard="0"
   inkscape:deskcolor="#d1d1d1"
   inkscape:zoom="2.36"
   inkscape:cx="50"
   inkscape:cy="50"
   inkscape:window-width="1536"
   inkscape:window-height="839"
   inkscape:window-x="124"
   inkscape:window-y="26"
   inkscape:window-maximized="0"
   inkscape:current-layer="Capa_1" />
<path
   d="m 64.65573,39.972729 c -0.0039,-0.0043 -6.718852,-5.748534 -6.718852,-5.748534 -0.331131,-0.283404 -0.829111,-0.24396 -1.112314,0.08678 -0.283206,0.331328 -0.244158,0.829108 0.08698,1.112314 l 5.083313,4.346112 h -11.20598 v -2.078489 c 0,-0.435656 -0.353214,-0.788876 -0.788873,-0.788876 -0.435656,0 -0.788874,0.35322 -0.788874,0.788876 v 2.078489 H 38.005148 l 5.083516,-4.346112 c 0.33113,-0.283206 0.369982,-0.780987 0.08677,-1.112314 -0.28301,-0.330934 -0.780788,-0.369786 -1.112312,-0.08678 0,0 -6.714316,5.744196 -6.718658,5.748337 -0.161321,0.144364 -0.264864,0.352037 -0.264864,0.585741 v 12.083401 c 0,0.435657 0.353218,0.788876 0.788875,0.788876 h 13.342451 v 18.842239 l -13.39037,15.519944 c -0.284587,0.329948 -0.247901,0.827925 0.08204,1.112708 0.148904,0.12859 0.332516,0.191697 0.514941,0.191697 0.221479,0 0.441573,-0.09269 0.597773,-0.27354 l 8.076901,-9.361589 4.118917,2.698545 v 12.52419 c 0,0.435657 0.353217,0.788874 0.788873,0.788874 0.435658,0 0.788875,-0.353217 0.788875,-0.788874 V 82.159372 l 4.118524,-2.698152 8.077294,9.362179 c 0.284783,0.330146 0.782956,0.366628 1.112708,0.08185 0.329948,-0.28439 0.366633,-0.782759 0.08204,-1.112708 L 50.788874,72.272395 V 53.43055 h 13.342645 c 0.435656,0 0.788881,-0.353219 0.788881,-0.788876 V 40.558273 c 0,-0.233507 -0.103346,-0.440981 -0.26467,-0.585544 z m -18.523783,38.284273 3.079377,-3.569066 v 5.586419 z m 7.735911,-5.62e-4 -3.078786,2.016957 V 74.687964 Z M 52.136473,41.347148 h 11.206172 v 9.581878 z m -4.272746,0 -11.206172,9.581878 V 41.347148 Z M 38.005148,51.8528 49.211127,42.27092 v 9.58188 z m 12.783726,-9.582076 11.206174,9.581878 H 50.788874 Z"
   id="path1"
   style="stroke-width:1"
   sodipodi:nodetypes="ccccccsssccccccsssccccscccssscccccccsssccccccccccccccccccccccccc" />
</svg>
