<svg xmlns="http://www.w3.org/2000/svg" xml:space="preserve" width="100" height="100"><path d="M64.656 11.973c-.004-.005-6.72-5.749-6.72-5.749a.79.79 0 0 0-1.024 1.2l5.083 4.345H50.789V9.691a.789.789 0 0 0-1.578 0v2.078H38.005l5.084-4.346a.789.789 0 1 0-1.026-1.199l-6.719 5.749a.78.78 0 0 0-.264.585v12.084a.79.79 0 0 0 .788.789h13.343v48.842l-13.39 15.52a.789.789 0 0 0 1.194 1.03l8.077-9.361 4.12 2.699v12.524a.789.789 0 0 0 1.577 0V84.159l4.118-2.698 8.078 9.362a.789.789 0 1 0 1.194-1.03l-13.39-15.52V25.43h13.343a.79.79 0 0 0 .788-.79V12.559a.78.78 0 0 0-.264-.585M46.132 80.257l3.08-3.57v5.587zm7.736 0-3.079 2.016v-5.585Zm-1.732-66.91h11.207v9.582zm-4.272 0L36.658 22.93v-9.582Zm-9.859 10.506 11.206-9.582v9.582zM50.79 14.27l11.206 9.582H50.789Z" style="stroke-width:1"/></svg>