<svg xmlns="http://www.w3.org/2000/svg" xml:space="preserve" width="100" height="100" viewBox="0 0 9.091 9.091"><path d="M5.835 8.307 4.573 7.004V2.779h1.17c.153 0 .278-.078.278-.174v-.173H2.807v.173c0 .096.125.174.278.174h1.21v4.224l-1.234 1.24-.082-.082-.086.086c-.047.047-.02.152.061.233l.05.05c.08.08.185.109.233.061l.086-.086-.066-.066 1.038-1.043v.596h-.104v.122c0 .067.093.121.208.121h.07c.115 0 .208-.054.208-.121v-.122h-.104v-.589l1.066 1.1-.076.077.086.086c.048.047.152.02.234-.062l.049-.05c.08-.081.108-.186.06-.233l-.085-.086zM5.187.417H3.624a.556.556 0 0 0-.556.555v1.251h2.675V.973a.556.556 0 0 0-.556-.556M3.519 1.98a.162.162 0 1 1 0-.324.162.162 0 0 1 0 .324m0-.417a.162.162 0 1 1 0-.324.162.162 0 0 1 0 .324m0-.463a.162.162 0 1 1 0-.324.162.162 0 0 1 0 .324m.545.88a.162.162 0 1 1 0-.324.162.162 0 0 1 0 .324m0-.417a.162.162 0 1 1 0-.324.162.162 0 0 1 0 .324m0-.463a.162.162 0 1 1 0-.324.162.162 0 0 1 0 .324m.544.88a.162.162 0 1 1 0-.324.162.162 0 0 1 0 .324m0-.417a.162.162 0 1 1 0-.324.162.162 0 0 1 0 .324m0-.463a.162.162 0 1 1 0-.324.162.162 0 0 1 0 .324m.544.88a.162.162 0 1 1 0-.324.162.162 0 0 1 0 .324m0-.417a.162.162 0 1 1 0-.324.162.162 0 0 1 0 .324m0-.463a.162.162 0 1 1 0-.324.162.162 0 0 1 0 .324" style="stroke-width:.999995"/></svg>