<svg xmlns="http://www.w3.org/2000/svg" xml:space="preserve" width="40" height="60">
    <path d="M34.576 53.592 21.63 40.226V26.738h12c1.57 0 2.852-.8 2.852-1.785v-1.785H3.517v1.785c0 .985 1.282 1.785 2.851 1.785H18.78v13.478L6.122 52.936l-.841-.842-.882.882c-.482.482-.205 1.56.625 2.39l.513.513c.82.83 1.898 1.118 2.39.626l.882-.872-.677-.677L18.78 44.247v6.114h-1.066v1.24c0 .688.954 1.252 2.133 1.252h.718c1.18 0 2.134-.564 2.134-1.251V50.36H21.63v-6.052l10.934 11.293-.78.78.883.882c.492.482 1.559.205 2.4-.636l.503-.503c.82-.83 1.107-1.908.615-2.39l-.872-.882ZM27.929 2.51H11.897a5.703 5.703 0 0 0-5.703 5.693v12.822h27.438V8.203A5.703 5.703 0 0 0 27.929 2.5m-17.11 16.032a1.667 1.667 0 1 1 0-3.333 1.667 1.667 0 0 1 0 3.333m0-4.277a1.662 1.662 0 1 1 0-3.324 1.662 1.662 0 0 1 0 3.324m0-4.75a1.667 1.667 0 1 1 0-3.333 1.667 1.667 0 0 1 0 3.334m5.59 9.026a1.667 1.667 0 1 1 0-3.333 1.667 1.667 0 0 1 0 3.333m0-4.277a1.667 1.667 0 1 1 0-3.334 1.667 1.667 0 0 1 0 3.334m0-4.75a1.667 1.667 0 1 1 0-3.333 1.667 1.667 0 0 1 0 3.334m5.58 9.026a1.667 1.667 0 1 1 0-3.333 1.667 1.667 0 0 1 0 3.333m0-4.277a1.662 1.662 0 1 1 0-3.324 1.662 1.662 0 0 1 0 3.324m0-4.75a1.667 1.667 0 1 1 0-3.333 1.667 1.667 0 0 1 0 3.334m5.58 9.026a1.667 1.667 0 1 1 0-3.333 1.667 1.667 0 0 1 0 3.333m0-4.277a1.662 1.662 0 1 1 0-3.324 1.662 1.662 0 0 1 0 3.324m0-4.75a1.667 1.667 0 1 1 0-3.333 1.667 1.667 0 0 1 0 3.334" style="stroke-width:10.2571"/>
</svg>
