<?xml version="1.0" encoding="UTF-8" standalone="no"?>
<svg
   xml:space="preserve"
   width="70"
   height="70"
   version="1.1"
   id="svg83"
   sodipodi:docname="novation_launchpad_mini.svg"
   inkscape:version="1.3.2 (091e20e, 2023-11-25)"
   xmlns:inkscape="http://www.inkscape.org/namespaces/inkscape"
   xmlns:sodipodi="http://sodipodi.sourceforge.net/DTD/sodipodi-0.dtd"
   xmlns="http://www.w3.org/2000/svg"
   xmlns:svg="http://www.w3.org/2000/svg"><defs
     id="defs83" /><sodipodi:namedview
     id="namedview83"
     pagecolor="#ffffff"
     bordercolor="#000000"
     borderopacity="0.25"
     inkscape:showpageshadow="2"
     inkscape:pageopacity="0.0"
     inkscape:pagecheckerboard="0"
     inkscape:deskcolor="#d1d1d1"
     inkscape:current-layer="svg83" /><g
     id="g147"
     inkscape:label="device"
     transform="matrix(0.8,0,0,0.8,-5,-8.2)"><path
       id="rect10"
       style="fill:#808080;stroke-width:3.77954;stroke-linecap:square;stroke-linejoin:round;stroke-miterlimit:4.7"
       d="m 79,19 h 6 v 6 h -6 z" /><path
       id="rect1"
       style="color:#000000;fill:#000000;stroke-linecap:square;stroke-linejoin:round;stroke-miterlimit:4.7;-inkscape-stroke:none"
       d="M 12.138672,14 C 10.98704,14 10,14.98704 10,16.138672 V 91.861328 C 10,93.01296 10.98704,94 12.138672,94 H 87.861328 C 89.01296,94 90,93.01296 90,91.861328 V 16.138672 C 90,14.98704 89.01296,14 87.861328,14 Z m 1.640625,3.779297 H 86.220703 V 90.220703 H 13.779297 Z M 15,19 v 6 h 6 v -6 z m 8,0 v 6 h 6 v -6 z m 8,0 v 6 h 6 v -6 z m 8,0 v 6 h 6 v -6 z m 8,0 v 6 h 6 v -6 z m 8,0 v 6 h 6 v -6 z m 8,0 v 6 h 6 v -6 z m 8,0 v 6 h 6 v -6 z m 8,8 v 6 h 6 v -6 z m 0,8 v 6 h 6 v -6 z m 0,8 v 6 h 6 v -6 z m 0,8 v 6 h 6 v -6 z m 0,8 v 6 h 6 v -6 z m 0,8 v 6 h 6 v -6 z m 0,8 v 6 h 6 v -6 z m 0,8 v 6 h 6 v -6 z" /><path
       d="m 15.5,27.5 v 5 h 5 v -5 z m 8,0 v 5 h 5 v -5 z m 8,0 v 5 h 5 v -5 z m 8,0 v 5 h 5 v -5 z m 8,0 v 5 h 5 v -5 z m 8,0 v 5 h 5 v -5 z m 8,0 v 5 h 5 v -5 z m 8,0 v 5 h 5 v -5 z m -56,8 v 5 h 5 v -5 z m 8,0 v 5 h 5 v -5 z m 8,0 v 5 h 5 v -5 z m 8,0 v 5 h 5 v -5 z m 8,0 v 5 h 5 v -5 z m 8,0 v 5 h 5 v -5 z m 8,0 v 5 h 5 v -5 z m 8,0 v 5 h 5 v -5 z m -56,8 v 5 h 5 v -5 z m 8,0 v 5 h 5 v -5 z m 8,0 v 5 h 5 v -5 z m 8,0 v 5 h 5 v -5 z m 8,0 v 5 h 5 v -5 z m 8,0 v 5 h 5 v -5 z m 8,0 v 5 h 5 v -5 z m 8,0 v 5 h 5 v -5 z m -56,8 v 5 h 5 v -5 z m 8,0 v 5 h 5 v -5 z m 8,0 v 5 h 5 v -5 z m 8,0 v 5 h 5 v -5 z m 8,0 v 5 h 5 v -5 z m 8,0 v 5 h 5 v -5 z m 8,0 v 5 h 5 v -5 z m 8,0 v 5 h 5 v -5 z m -56,8 v 5 h 5 v -5 z m 8,0 v 5 h 5 v -5 z m 8,0 v 5 h 5 v -5 z m 8,0 v 5 h 5 v -5 z m 8,0 v 5 h 5 v -5 z m 8,0 v 5 h 5 v -5 z m 8,0 v 5 h 5 v -5 z m 8,0 v 5 h 5 v -5 z m -56,8 v 5 h 5 v -5 z m 8,0 v 5 h 5 v -5 z m 8,0 v 5 h 5 v -5 z m 8,0 v 5 h 5 v -5 z m 8,0 v 5 h 5 v -5 z m 8,0 v 5 h 5 v -5 z m 8,0 v 5 h 5 v -5 z m 8,0 v 5 h 5 v -5 z m -56,8 v 5 h 5 v -5 z m 8,0 v 5 h 5 v -5 z m 8,0 v 5 h 5 v -5 z m 8,0 v 5 h 5 v -5 z m 8,0 v 5 h 5 v -5 z m 8,0 v 5 h 5 v -5 z m 8,0 v 5 h 5 v -5 z m 8,0 v 5 h 5 v -5 z m -56,8 v 5 h 5 v -5 z m 8,0 v 5 h 5 v -5 z m 8,0 v 5 h 5 v -5 z m 8,0 v 5 h 5 v -5 z m 8,0 v 5 h 5 v -5 z m 8,0 v 5 h 5 v -5 z m 8,0 v 5 h 5 v -5 z m 8,0 v 5 h 5 v -5 z"
       style="display:inline;fill:none;stroke:#000000;stroke-linecap:square;stroke-miterlimit:4.7"
       id="path146" /></g></svg>
