<svg xmlns="http://www.w3.org/2000/svg" xml:space="preserve" width="70" height="70">
    <path d="M4.279 4.389h60.564v61.003H4.279z" style="fill:#fff;stroke-width:1.51181;stroke-linecap:square;stroke-linejoin:round;stroke-miterlimit:4.7"/>
    <path d="M79 19h6v6h-6z" style="fill:gray;stroke-width:3.77954;stroke-linecap:square;stroke-linejoin:round;stroke-miterlimit:4.7" transform="matrix(.8 0 0 .8 -5 -8.2)"/>
    <path d="M12.139 14C10.987 14 10 14.987 10 16.139V91.86c0 1.152.987 2.139 2.139 2.139H87.86C89.013 94 90 93.013 90 91.861V16.14c0-1.153-.987-2.14-2.139-2.14Zm1.64 3.78h72.442v72.44H13.779ZM15 19v6h6v-6zm8 0v6h6v-6zm8 0v6h6v-6zm8 0v6h6v-6zm8 0v6h6v-6zm8 0v6h6v-6zm8 0v6h6v-6zm8 0v6h6v-6zm8 8v6h6v-6zm0 8v6h6v-6zm0 8v6h6v-6zm0 8v6h6v-6zm0 8v6h6v-6zm0 8v6h6v-6zm0 8v6h6v-6zm0 8v6h6v-6z" style="color:#000;fill:#000;stroke-linecap:square;stroke-linejoin:round;stroke-miterlimit:4.7;-inkscape-stroke:none" transform="matrix(.8 0 0 .8 -5 -8.2)"/>
    <path d="M15.5 27.5v5h5v-5zm8 0v5h5v-5zm8 0v5h5v-5zm8 0v5h5v-5zm8 0v5h5v-5zm8 0v5h5v-5zm8 0v5h5v-5zm8 0v5h5v-5zm-56 8v5h5v-5zm8 0v5h5v-5zm8 0v5h5v-5zm8 0v5h5v-5zm8 0v5h5v-5zm8 0v5h5v-5zm8 0v5h5v-5zm8 0v5h5v-5zm-56 8v5h5v-5zm8 0v5h5v-5zm8 0v5h5v-5zm8 0v5h5v-5zm8 0v5h5v-5zm8 0v5h5v-5zm8 0v5h5v-5zm8 0v5h5v-5zm-56 8v5h5v-5zm8 0v5h5v-5zm8 0v5h5v-5zm8 0v5h5v-5zm8 0v5h5v-5zm8 0v5h5v-5zm8 0v5h5v-5zm8 0v5h5v-5zm-56 8v5h5v-5zm8 0v5h5v-5zm8 0v5h5v-5zm8 0v5h5v-5zm8 0v5h5v-5zm8 0v5h5v-5zm8 0v5h5v-5zm8 0v5h5v-5zm-56 8v5h5v-5zm8 0v5h5v-5zm8 0v5h5v-5zm8 0v5h5v-5zm8 0v5h5v-5zm8 0v5h5v-5zm8 0v5h5v-5zm8 0v5h5v-5zm-56 8v5h5v-5zm8 0v5h5v-5zm8 0v5h5v-5zm8 0v5h5v-5zm8 0v5h5v-5zm8 0v5h5v-5zm8 0v5h5v-5zm8 0v5h5v-5zm-56 8v5h5v-5zm8 0v5h5v-5zm8 0v5h5v-5zm8 0v5h5v-5zm8 0v5h5v-5zm8 0v5h5v-5zm8 0v5h5v-5zm8 0v5h5v-5z" style="display:inline;fill:none;stroke:#000;stroke-linecap:square;stroke-miterlimit:4.7" transform="matrix(.8 0 0 .8 -5 -8.2)"/>
</svg>
