<svg xmlns="http://www.w3.org/2000/svg" xml:space="preserve" width="100" height="100"><g transform="translate(0 4)"><rect width="76.22" height="76.22" x="11.89" y="11.89" rx=".248" ry=".248" style="display:inline;fill:none;stroke:#000;stroke-width:3.77953;stroke-linecap:square;stroke-linejoin:round;stroke-miterlimit:4.7;stroke-dasharray:none"/><g transform="translate(4 4)"><rect width="6" height="6" x="11" y="11" rx="0" ry="0" style="fill:#000;stroke:none;stroke-width:3.77954;stroke-linecap:square;stroke-linejoin:round;stroke-miterlimit:4.7;stroke-dasharray:none"/><rect width="6" height="6" x="19" y="11" rx="0" ry="0" style="fill:#000;stroke:none;stroke-width:3.77954;stroke-linecap:square;stroke-linejoin:round;stroke-miterlimit:4.7;stroke-dasharray:none"/><rect width="6" height="6" x="27" y="11" rx="0" ry="0" style="fill:#000;stroke:none;stroke-width:3.77954;stroke-linecap:square;stroke-linejoin:round;stroke-miterlimit:4.7;stroke-dasharray:none"/><rect width="6" height="6" x="35" y="11" rx="0" ry="0" style="fill:#000;stroke:none;stroke-width:3.77954;stroke-linecap:square;stroke-linejoin:round;stroke-miterlimit:4.7;stroke-dasharray:none"/><rect width="6" height="6" x="43" y="11" rx="0" ry="0" style="fill:#000;stroke:none;stroke-width:3.77954;stroke-linecap:square;stroke-linejoin:round;stroke-miterlimit:4.7;stroke-dasharray:none"/><rect width="6" height="6" x="51" y="11" rx="0" ry="0" style="fill:#000;stroke:none;stroke-width:3.77954;stroke-linecap:square;stroke-linejoin:round;stroke-miterlimit:4.7;stroke-dasharray:none"/><rect width="6" height="6" x="59" y="11" rx="0" ry="0" style="fill:#000;stroke:none;stroke-width:3.77954;stroke-linecap:square;stroke-linejoin:round;stroke-miterlimit:4.7;stroke-dasharray:none"/><rect width="6" height="6" x="67" y="11" rx="0" ry="0" style="fill:#000;stroke:none;stroke-width:3.77954;stroke-linecap:square;stroke-linejoin:round;stroke-miterlimit:4.7;stroke-dasharray:none"/><rect width="6" height="6" x="75" y="11" rx="0" ry="0" style="fill:gray;stroke:none;stroke-width:3.77954;stroke-linecap:square;stroke-linejoin:round;stroke-miterlimit:4.7;stroke-dasharray:none"/></g><g transform="rotate(-90 4 0)"><rect width="6" height="6" x="-81" y="75" rx="0" ry="0" style="fill:#000;stroke:none;stroke-width:3.77954;stroke-linecap:square;stroke-linejoin:round;stroke-miterlimit:4.7;stroke-dasharray:none"/><rect width="6" height="6" x="-73" y="75" rx="0" ry="0" style="fill:#000;stroke:none;stroke-width:3.77954;stroke-linecap:square;stroke-linejoin:round;stroke-miterlimit:4.7;stroke-dasharray:none"/><rect width="6" height="6" x="-65" y="75" rx="0" ry="0" style="fill:#000;stroke:none;stroke-width:3.77954;stroke-linecap:square;stroke-linejoin:round;stroke-miterlimit:4.7;stroke-dasharray:none"/><rect width="6" height="6" x="-57" y="75" rx="0" ry="0" style="fill:#000;stroke:none;stroke-width:3.77954;stroke-linecap:square;stroke-linejoin:round;stroke-miterlimit:4.7;stroke-dasharray:none"/><rect width="6" height="6" x="-49" y="75" rx="0" ry="0" style="fill:#000;stroke:none;stroke-width:3.77954;stroke-linecap:square;stroke-linejoin:round;stroke-miterlimit:4.7;stroke-dasharray:none"/><rect width="6" height="6" x="-41" y="75" rx="0" ry="0" style="fill:#000;stroke:none;stroke-width:3.77954;stroke-linecap:square;stroke-linejoin:round;stroke-miterlimit:4.7;stroke-dasharray:none"/><rect width="6" height="6" x="-33" y="75" rx="0" ry="0" style="fill:#000;stroke:none;stroke-width:3.77954;stroke-linecap:square;stroke-linejoin:round;stroke-miterlimit:4.7;stroke-dasharray:none"/><rect width="6" height="6" x="-25" y="75" rx="0" ry="0" style="fill:#000;stroke:none;stroke-width:3.77954;stroke-linecap:square;stroke-linejoin:round;stroke-miterlimit:4.7;stroke-dasharray:none"/></g><g transform="rotate(-90 85.75 17.75)"><rect width="5" height="5" x="75" y="-28.5" rx="0" ry="0" style="fill:none;stroke:#000;stroke-width:1;stroke-linecap:square;stroke-linejoin:miter;stroke-miterlimit:4.7;stroke-dasharray:none;stroke-opacity:1"/><rect width="5" height="5" x="75" y="-20.5" rx="0" ry="0" style="fill:none;stroke:#000;stroke-width:1;stroke-linecap:square;stroke-linejoin:miter;stroke-miterlimit:4.7;stroke-dasharray:none;stroke-opacity:1"/><rect width="5" height="5" x="75" y="-12.5" rx="0" ry="0" style="fill:none;stroke:#000;stroke-width:1;stroke-linecap:square;stroke-linejoin:miter;stroke-miterlimit:4.7;stroke-dasharray:none;stroke-opacity:1"/><rect width="5" height="5" x="75" y="-4.5" rx="0" ry="0" style="fill:none;stroke:#000;stroke-width:1;stroke-linecap:square;stroke-linejoin:miter;stroke-miterlimit:4.7;stroke-dasharray:none;stroke-opacity:1"/><rect width="5" height="5" x="75" y="3.5" rx="0" ry="0" style="fill:none;stroke:#000;stroke-width:1;stroke-linecap:square;stroke-linejoin:miter;stroke-miterlimit:4.7;stroke-dasharray:none;stroke-opacity:1"/><rect width="5" height="5" x="75" y="-36.5" rx="0" ry="0" style="fill:none;stroke:#000;stroke-width:1;stroke-linecap:square;stroke-linejoin:miter;stroke-miterlimit:4.7;stroke-dasharray:none;stroke-opacity:1"/><rect width="5" height="5" x="75" y="-44.5" rx="0" ry="0" style="fill:none;stroke:#000;stroke-width:1;stroke-linecap:square;stroke-linejoin:miter;stroke-miterlimit:4.7;stroke-dasharray:none;stroke-opacity:1"/><rect width="5" height="5" x="75" y="-52.5" rx="0" ry="0" style="fill:none;stroke:#000;stroke-width:1;stroke-linecap:square;stroke-linejoin:miter;stroke-miterlimit:4.7;stroke-dasharray:none;stroke-opacity:1"/></g><g transform="rotate(-90 89.75 21.75)"><rect width="5" height="5" x="75" y="-28.5" rx="0" ry="0" style="fill:none;stroke:#000;stroke-width:1;stroke-linecap:square;stroke-linejoin:miter;stroke-miterlimit:4.7;stroke-dasharray:none;stroke-opacity:1"/><rect width="5" height="5" x="75" y="-20.5" rx="0" ry="0" style="fill:none;stroke:#000;stroke-width:1;stroke-linecap:square;stroke-linejoin:miter;stroke-miterlimit:4.7;stroke-dasharray:none;stroke-opacity:1"/><rect width="5" height="5" x="75" y="-12.5" rx="0" ry="0" style="fill:none;stroke:#000;stroke-width:1;stroke-linecap:square;stroke-linejoin:miter;stroke-miterlimit:4.7;stroke-dasharray:none;stroke-opacity:1"/><rect width="5" height="5" x="75" y="-4.5" rx="0" ry="0" style="fill:none;stroke:#000;stroke-width:1;stroke-linecap:square;stroke-linejoin:miter;stroke-miterlimit:4.7;stroke-dasharray:none;stroke-opacity:1"/><rect width="5" height="5" x="75" y="3.5" rx="0" ry="0" style="fill:none;stroke:#000;stroke-width:1;stroke-linecap:square;stroke-linejoin:miter;stroke-miterlimit:4.7;stroke-dasharray:none;stroke-opacity:1"/><rect width="5" height="5" x="75" y="-36.5" rx="0" ry="0" style="fill:none;stroke:#000;stroke-width:1;stroke-linecap:square;stroke-linejoin:miter;stroke-miterlimit:4.7;stroke-dasharray:none;stroke-opacity:1"/><rect width="5" height="5" x="75" y="-44.5" rx="0" ry="0" style="fill:none;stroke:#000;stroke-width:1;stroke-linecap:square;stroke-linejoin:miter;stroke-miterlimit:4.7;stroke-dasharray:none;stroke-opacity:1"/><rect width="5" height="5" x="75" y="-52.5" rx="0" ry="0" style="fill:none;stroke:#000;stroke-width:1;stroke-linecap:square;stroke-linejoin:miter;stroke-miterlimit:4.7;stroke-dasharray:none;stroke-opacity:1"/></g><g transform="rotate(-90 93.75 25.75)"><rect width="5" height="5" x="75" y="-28.5" rx="0" ry="0" style="fill:none;stroke:#000;stroke-width:1;stroke-linecap:square;stroke-linejoin:miter;stroke-miterlimit:4.7;stroke-dasharray:none;stroke-opacity:1"/><rect width="5" height="5" x="75" y="-20.5" rx="0" ry="0" style="fill:none;stroke:#000;stroke-width:1;stroke-linecap:square;stroke-linejoin:miter;stroke-miterlimit:4.7;stroke-dasharray:none;stroke-opacity:1"/><rect width="5" height="5" x="75" y="-12.5" rx="0" ry="0" style="fill:none;stroke:#000;stroke-width:1;stroke-linecap:square;stroke-linejoin:miter;stroke-miterlimit:4.7;stroke-dasharray:none;stroke-opacity:1"/><rect width="5" height="5" x="75" y="-4.5" rx="0" ry="0" style="fill:none;stroke:#000;stroke-width:1;stroke-linecap:square;stroke-linejoin:miter;stroke-miterlimit:4.7;stroke-dasharray:none;stroke-opacity:1"/><rect width="5" height="5" x="75" y="3.5" rx="0" ry="0" style="fill:none;stroke:#000;stroke-width:1;stroke-linecap:square;stroke-linejoin:miter;stroke-miterlimit:4.7;stroke-dasharray:none;stroke-opacity:1"/><rect width="5" height="5" x="75" y="-36.5" rx="0" ry="0" style="fill:none;stroke:#000;stroke-width:1;stroke-linecap:square;stroke-linejoin:miter;stroke-miterlimit:4.7;stroke-dasharray:none;stroke-opacity:1"/><rect width="5" height="5" x="75" y="-44.5" rx="0" ry="0" style="fill:none;stroke:#000;stroke-width:1;stroke-linecap:square;stroke-linejoin:miter;stroke-miterlimit:4.7;stroke-dasharray:none;stroke-opacity:1"/><rect width="5" height="5" x="75" y="-52.5" rx="0" ry="0" style="fill:none;stroke:#000;stroke-width:1;stroke-linecap:square;stroke-linejoin:miter;stroke-miterlimit:4.7;stroke-dasharray:none;stroke-opacity:1"/></g><g transform="rotate(-90 97.75 29.75)"><rect width="5" height="5" x="75" y="-28.5" rx="0" ry="0" style="fill:none;stroke:#000;stroke-width:1;stroke-linecap:square;stroke-linejoin:miter;stroke-miterlimit:4.7;stroke-dasharray:none;stroke-opacity:1"/><rect width="5" height="5" x="75" y="-20.5" rx="0" ry="0" style="fill:none;stroke:#000;stroke-width:1;stroke-linecap:square;stroke-linejoin:miter;stroke-miterlimit:4.7;stroke-dasharray:none;stroke-opacity:1"/><rect width="5" height="5" x="75" y="-12.5" rx="0" ry="0" style="fill:none;stroke:#000;stroke-width:1;stroke-linecap:square;stroke-linejoin:miter;stroke-miterlimit:4.7;stroke-dasharray:none;stroke-opacity:1"/><rect width="5" height="5" x="75" y="-4.5" rx="0" ry="0" style="fill:none;stroke:#000;stroke-width:1;stroke-linecap:square;stroke-linejoin:miter;stroke-miterlimit:4.7;stroke-dasharray:none;stroke-opacity:1"/><rect width="5" height="5" x="75" y="3.5" rx="0" ry="0" style="fill:none;stroke:#000;stroke-width:1;stroke-linecap:square;stroke-linejoin:miter;stroke-miterlimit:4.7;stroke-dasharray:none;stroke-opacity:1"/><rect width="5" height="5" x="75" y="-36.5" rx="0" ry="0" style="fill:none;stroke:#000;stroke-width:1;stroke-linecap:square;stroke-linejoin:miter;stroke-miterlimit:4.7;stroke-dasharray:none;stroke-opacity:1"/><rect width="5" height="5" x="75" y="-44.5" rx="0" ry="0" style="fill:none;stroke:#000;stroke-width:1;stroke-linecap:square;stroke-linejoin:miter;stroke-miterlimit:4.7;stroke-dasharray:none;stroke-opacity:1"/><rect width="5" height="5" x="75" y="-52.5" rx="0" ry="0" style="fill:none;stroke:#000;stroke-width:1;stroke-linecap:square;stroke-linejoin:miter;stroke-miterlimit:4.7;stroke-dasharray:none;stroke-opacity:1"/></g><g transform="rotate(-90 101.75 33.75)"><rect width="5" height="5" x="75" y="-28.5" rx="0" ry="0" style="fill:none;stroke:#000;stroke-width:1;stroke-linecap:square;stroke-linejoin:miter;stroke-miterlimit:4.7;stroke-dasharray:none;stroke-opacity:1"/><rect width="5" height="5" x="75" y="-20.5" rx="0" ry="0" style="fill:none;stroke:#000;stroke-width:1;stroke-linecap:square;stroke-linejoin:miter;stroke-miterlimit:4.7;stroke-dasharray:none;stroke-opacity:1"/><rect width="5" height="5" x="75" y="-12.5" rx="0" ry="0" style="fill:none;stroke:#000;stroke-width:1;stroke-linecap:square;stroke-linejoin:miter;stroke-miterlimit:4.7;stroke-dasharray:none;stroke-opacity:1"/><rect width="5" height="5" x="75" y="-4.5" rx="0" ry="0" style="fill:none;stroke:#000;stroke-width:1;stroke-linecap:square;stroke-linejoin:miter;stroke-miterlimit:4.7;stroke-dasharray:none;stroke-opacity:1"/><rect width="5" height="5" x="75" y="3.5" rx="0" ry="0" style="fill:none;stroke:#000;stroke-width:1;stroke-linecap:square;stroke-linejoin:miter;stroke-miterlimit:4.7;stroke-dasharray:none;stroke-opacity:1"/><rect width="5" height="5" x="75" y="-36.5" rx="0" ry="0" style="fill:none;stroke:#000;stroke-width:1;stroke-linecap:square;stroke-linejoin:miter;stroke-miterlimit:4.7;stroke-dasharray:none;stroke-opacity:1"/><rect width="5" height="5" x="75" y="-44.5" rx="0" ry="0" style="fill:none;stroke:#000;stroke-width:1;stroke-linecap:square;stroke-linejoin:miter;stroke-miterlimit:4.7;stroke-dasharray:none;stroke-opacity:1"/><rect width="5" height="5" x="75" y="-52.5" rx="0" ry="0" style="fill:none;stroke:#000;stroke-width:1;stroke-linecap:square;stroke-linejoin:miter;stroke-miterlimit:4.7;stroke-dasharray:none;stroke-opacity:1"/></g><g transform="rotate(-90 105.75 37.75)"><rect width="5" height="5" x="75" y="-28.5" rx="0" ry="0" style="fill:none;stroke:#000;stroke-width:1;stroke-linecap:square;stroke-linejoin:miter;stroke-miterlimit:4.7;stroke-dasharray:none;stroke-opacity:1"/><rect width="5" height="5" x="75" y="-20.5" rx="0" ry="0" style="fill:none;stroke:#000;stroke-width:1;stroke-linecap:square;stroke-linejoin:miter;stroke-miterlimit:4.7;stroke-dasharray:none;stroke-opacity:1"/><rect width="5" height="5" x="75" y="-12.5" rx="0" ry="0" style="fill:none;stroke:#000;stroke-width:1;stroke-linecap:square;stroke-linejoin:miter;stroke-miterlimit:4.7;stroke-dasharray:none;stroke-opacity:1"/><rect width="5" height="5" x="75" y="-4.5" rx="0" ry="0" style="fill:none;stroke:#000;stroke-width:1;stroke-linecap:square;stroke-linejoin:miter;stroke-miterlimit:4.7;stroke-dasharray:none;stroke-opacity:1"/><rect width="5" height="5" x="75" y="3.5" rx="0" ry="0" style="fill:none;stroke:#000;stroke-width:1;stroke-linecap:square;stroke-linejoin:miter;stroke-miterlimit:4.7;stroke-dasharray:none;stroke-opacity:1"/><rect width="5" height="5" x="75" y="-36.5" rx="0" ry="0" style="fill:none;stroke:#000;stroke-width:1;stroke-linecap:square;stroke-linejoin:miter;stroke-miterlimit:4.7;stroke-dasharray:none;stroke-opacity:1"/><rect width="5" height="5" x="75" y="-44.5" rx="0" ry="0" style="fill:none;stroke:#000;stroke-width:1;stroke-linecap:square;stroke-linejoin:miter;stroke-miterlimit:4.7;stroke-dasharray:none;stroke-opacity:1"/><rect width="5" height="5" x="75" y="-52.5" rx="0" ry="0" style="fill:none;stroke:#000;stroke-width:1;stroke-linecap:square;stroke-linejoin:miter;stroke-miterlimit:4.7;stroke-dasharray:none;stroke-opacity:1"/></g><g transform="rotate(-90 109.75 41.75)"><rect width="5" height="5" x="75" y="-28.5" rx="0" ry="0" style="fill:none;stroke:#000;stroke-width:1;stroke-linecap:square;stroke-linejoin:miter;stroke-miterlimit:4.7;stroke-dasharray:none;stroke-opacity:1"/><rect width="5" height="5" x="75" y="-20.5" rx="0" ry="0" style="fill:none;stroke:#000;stroke-width:1;stroke-linecap:square;stroke-linejoin:miter;stroke-miterlimit:4.7;stroke-dasharray:none;stroke-opacity:1"/><rect width="5" height="5" x="75" y="-12.5" rx="0" ry="0" style="fill:none;stroke:#000;stroke-width:1;stroke-linecap:square;stroke-linejoin:miter;stroke-miterlimit:4.7;stroke-dasharray:none;stroke-opacity:1"/><rect width="5" height="5" x="75" y="-4.5" rx="0" ry="0" style="fill:none;stroke:#000;stroke-width:1;stroke-linecap:square;stroke-linejoin:miter;stroke-miterlimit:4.7;stroke-dasharray:none;stroke-opacity:1"/><rect width="5" height="5" x="75" y="3.5" rx="0" ry="0" style="fill:none;stroke:#000;stroke-width:1;stroke-linecap:square;stroke-linejoin:miter;stroke-miterlimit:4.7;stroke-dasharray:none;stroke-opacity:1"/><rect width="5" height="5" x="75" y="-36.5" rx="0" ry="0" style="fill:none;stroke:#000;stroke-width:1;stroke-linecap:square;stroke-linejoin:miter;stroke-miterlimit:4.7;stroke-dasharray:none;stroke-opacity:1"/><rect width="5" height="5" x="75" y="-44.5" rx="0" ry="0" style="fill:none;stroke:#000;stroke-width:1;stroke-linecap:square;stroke-linejoin:miter;stroke-miterlimit:4.7;stroke-dasharray:none;stroke-opacity:1"/><rect width="5" height="5" x="75" y="-52.5" rx="0" ry="0" style="fill:none;stroke:#000;stroke-width:1;stroke-linecap:square;stroke-linejoin:miter;stroke-miterlimit:4.7;stroke-dasharray:none;stroke-opacity:1"/></g><g transform="rotate(-90 113.75 45.75)"><rect width="5" height="5" x="75" y="-28.5" rx="0" ry="0" style="fill:none;stroke:#000;stroke-width:1;stroke-linecap:square;stroke-linejoin:miter;stroke-miterlimit:4.7;stroke-dasharray:none;stroke-opacity:1"/><rect width="5" height="5" x="75" y="-20.5" rx="0" ry="0" style="fill:none;stroke:#000;stroke-width:1;stroke-linecap:square;stroke-linejoin:miter;stroke-miterlimit:4.7;stroke-dasharray:none;stroke-opacity:1"/><rect width="5" height="5" x="75" y="-12.5" rx="0" ry="0" style="fill:none;stroke:#000;stroke-width:1;stroke-linecap:square;stroke-linejoin:miter;stroke-miterlimit:4.7;stroke-dasharray:none;stroke-opacity:1"/><rect width="5" height="5" x="75" y="-4.5" rx="0" ry="0" style="fill:none;stroke:#000;stroke-width:1;stroke-linecap:square;stroke-linejoin:miter;stroke-miterlimit:4.7;stroke-dasharray:none;stroke-opacity:1"/><rect width="5" height="5" x="75" y="3.5" rx="0" ry="0" style="fill:none;stroke:#000;stroke-width:1;stroke-linecap:square;stroke-linejoin:miter;stroke-miterlimit:4.7;stroke-dasharray:none;stroke-opacity:1"/><rect width="5" height="5" x="75" y="-36.5" rx="0" ry="0" style="fill:none;stroke:#000;stroke-width:1;stroke-linecap:square;stroke-linejoin:miter;stroke-miterlimit:4.7;stroke-dasharray:none;stroke-opacity:1"/><rect width="5" height="5" x="75" y="-44.5" rx="0" ry="0" style="fill:none;stroke:#000;stroke-width:1;stroke-linecap:square;stroke-linejoin:miter;stroke-miterlimit:4.7;stroke-dasharray:none;stroke-opacity:1"/><rect width="5" height="5" x="75" y="-52.5" rx="0" ry="0" style="fill:none;stroke:#000;stroke-width:1;stroke-linecap:square;stroke-linejoin:miter;stroke-miterlimit:4.7;stroke-dasharray:none;stroke-opacity:1"/></g></g></svg>