<?xml version="1.0" encoding="UTF-8" standalone="no"?>
<!-- Uploaded to: SVG Repo, www.svgrepo.com, Generator: SVG Repo Mixer Tools -->

<svg
   fill="#000000"
   height="100"
   width="100"
   version="1.1"
   id="Layer_1"
   viewBox="0 0 100 100"
   xml:space="preserve"
   sodipodi:docname="oboe_2.svg"
   inkscape:version="1.3.2 (091e20e, 2023-11-25)"
   xmlns:inkscape="http://www.inkscape.org/namespaces/inkscape"
   xmlns:sodipodi="http://sodipodi.sourceforge.net/DTD/sodipodi-0.dtd"
   xmlns="http://www.w3.org/2000/svg"
   xmlns:svg="http://www.w3.org/2000/svg"><defs
   id="defs2" /><sodipodi:namedview
   id="namedview2"
   pagecolor="#ffffff"
   bordercolor="#000000"
   borderopacity="0.25"
   inkscape:showpageshadow="2"
   inkscape:pageopacity="0.0"
   inkscape:pagecheckerboard="0"
   inkscape:deskcolor="#d1d1d1"
   inkscape:current-layer="Layer_1" />
<g
   id="g2">
	<g
   id="g1">
		<path
   id="path1"
   sodipodi:type="inkscape:offset"
   inkscape:radius="-2.807899"
   inkscape:original="M 441.03906 15.914062 C 433.35619 15.914062 425.67322 18.837047 419.82422 24.685547 L 401.08594 43.423828 L 395.7832 38.121094 C 393.7742 36.114094 390.80442 35.411594 388.10742 36.308594 L 356.28711 46.914062 C 356.23011 46.933062 356.17709 46.960469 356.12109 46.980469 C 355.95209 47.041469 355.78609 47.108641 355.62109 47.181641 C 355.53309 47.220641 355.44733 47.260734 355.36133 47.302734 C 355.19933 47.382734 355.04081 47.468547 354.88281 47.560547 C 354.80181 47.607547 354.72058 47.653125 354.64258 47.703125 C 354.48558 47.803125 354.33264 47.912391 354.18164 48.025391 C 354.11164 48.078391 354.03675 48.126641 353.96875 48.181641 C 353.78375 48.330641 353.60564 48.491156 353.43164 48.660156 C 353.40764 48.683156 353.38042 48.702562 353.35742 48.726562 L 264.26172 137.82227 L 262.49414 136.05469 C 259.56414 133.12669 254.81767 133.12669 251.88867 136.05469 C 248.95967 138.98469 248.95967 143.73311 251.88867 146.66211 L 253.6543 148.42969 L 243.04883 159.03516 L 241.28125 157.26758 C 238.35125 154.33858 233.60278 154.33858 230.67578 157.26758 C 227.74578 160.19758 227.74678 164.94505 230.67578 167.87305 L 232.44336 169.64258 L 221.83789 180.24805 L 220.07031 178.48047 C 217.14031 175.55247 212.39189 175.55247 209.46289 178.48047 C 206.53389 181.41047 206.53389 186.15889 209.46289 189.08789 L 211.23047 190.85547 L 200.625 201.46094 L 198.85742 199.69141 C 195.92742 196.76341 191.18095 196.76341 188.25195 199.69141 C 185.32295 202.62141 185.32295 207.36983 188.25195 210.29883 L 190.01758 212.06641 L 179.41211 222.67383 L 177.64258 220.9043 C 174.71458 217.9763 169.96611 217.9743 167.03711 220.9043 C 164.10811 223.8333 164.10711 228.58372 167.03711 231.51172 L 168.80664 233.2793 L 94.466797 307.61914 L 37.037109 342.26758 C 31.623109 345.53358 26.568578 349.49683 22.017578 354.04883 C 5.8795781 370.18683 -2.1610937 391.80867 0.50390625 411.88867 C 0.72090625 413.52367 1.4697656 415.03908 2.6347656 416.20508 L 38.912109 452.48242 C 40.078109 453.64742 41.594516 454.39628 43.228516 454.61328 C 45.706516 454.94228 48.259359 455.10938 50.818359 455.10938 C 68.763359 455.10938 87.0795 447.08852 101.0625 433.10352 C 105.6155 428.55152 109.5807 423.49703 112.8457 418.08203 L 147.49414 360.65234 L 158.19336 349.95312 L 159.96289 351.7207 C 161.42789 353.1857 163.34562 353.91797 165.26562 353.91797 C 167.18463 353.91797 169.10436 353.18666 170.56836 351.72266 C 173.49836 348.79266 173.49931 344.04323 170.57031 341.11523 L 168.80078 339.34766 L 179.40625 328.74023 L 181.17578 330.50977 C 182.64078 331.97377 184.55952 332.70508 186.47852 332.70508 C 188.39752 332.70508 190.3182 331.97377 191.7832 330.50977 C 194.7122 327.57977 194.7122 322.83134 191.7832 319.90234 L 190.01562 318.13477 L 289.00977 219.14062 L 290.77734 220.9082 C 292.24234 222.3722 294.16108 223.10352 296.08008 223.10352 C 297.99908 223.10352 299.91977 222.3722 301.38477 220.9082 C 304.31377 217.9782 304.31377 213.22978 301.38477 210.30078 L 299.61719 208.5332 L 310.22266 197.92773 L 311.99023 199.69531 C 313.45523 201.15931 315.37592 201.89258 317.29492 201.89258 C 319.21392 201.89258 321.13266 201.15931 322.59766 199.69531 C 325.52666 196.76531 325.52666 192.01884 322.59766 189.08984 L 320.83008 187.32031 L 356.18555 151.9668 L 357.95312 153.73438 C 359.41812 155.19837 361.33881 155.93164 363.25781 155.93164 C 365.17681 155.93164 367.09555 155.19838 368.56055 153.73438 C 371.48955 150.80437 371.48955 146.05791 368.56055 143.12891 L 366.79297 141.35938 L 379.87305 128.2793 L 381.64258 130.04688 C 383.10758 131.51087 385.02631 132.24219 386.94531 132.24219 C 388.86431 132.24219 390.785 131.51088 392.25 130.04688 C 395.179 127.11687 395.179 122.36845 392.25 119.43945 L 390.48242 117.67188 L 406.39062 101.76367 C 406.58862 101.56567 406.77041 101.35658 406.94141 101.14258 C 406.98541 101.08758 407.02341 101.03061 407.06641 100.97461 C 407.19241 100.80861 407.31383 100.6408 407.42383 100.4668 C 407.46583 100.4008 407.50297 100.33167 407.54297 100.26367 C 407.64497 100.09167 407.73822 99.918234 407.82422 99.740234 C 407.85922 99.668234 407.89278 99.594484 407.92578 99.521484 C 408.00778 99.338484 408.08144 99.153797 408.14844 98.966797 C 408.16444 98.921797 408.18517 98.878031 408.20117 98.832031 L 418.80859 67.013672 C 419.70659 64.318672 419.00509 61.346891 416.99609 59.337891 L 411.69336 54.033203 L 430.43164 35.296875 C 433.25764 32.469875 437.02606 30.912109 441.03906 30.912109 C 445.05206 30.912109 448.81853 32.469875 451.64453 35.296875 C 457.49353 41.144875 457.49358 50.659719 451.64258 56.511719 L 439.8418 68.3125 C 429.9248 78.2285 424.46289 91.412547 424.46289 105.43555 C 424.46289 119.45855 429.92384 132.64259 439.83984 142.55859 L 457.87891 160.59766 C 459.34291 162.06166 461.26264 162.79297 463.18164 162.79297 C 465.10064 162.79297 467.01938 162.0607 468.48438 160.5957 C 471.41337 157.6667 471.41437 152.91823 468.48438 149.99023 L 450.44531 131.94922 C 443.36231 124.86722 439.46289 115.45059 439.46289 105.43359 C 439.46289 95.416594 443.36427 86.000969 450.44727 78.917969 L 462.25195 67.113281 C 473.94795 55.416281 473.94991 36.383547 462.25391 24.685547 C 456.40541 18.837047 448.72194 15.914062 441.03906 15.914062 z M 388.45312 52.005859 L 403.11133 66.664062 L 397.80859 82.572266 L 372.54492 57.308594 L 388.45312 52.005859 z M 358.66016 64.640625 L 369.26758 75.246094 L 308.45508 136.05664 C 305.52608 138.98664 305.52608 143.73506 308.45508 146.66406 C 309.92008 148.12806 311.84077 148.85937 313.75977 148.85938 C 315.67877 148.85938 317.59945 148.12806 319.06445 146.66406 L 334.97266 130.75586 L 345.57812 141.35938 L 179.4082 307.52734 L 168.80273 296.92383 L 248.35156 217.37305 C 251.28056 214.44305 251.28056 209.69658 248.35156 206.76758 L 232.44141 190.85742 L 243.04883 180.25195 L 258.95703 196.16016 C 260.42203 197.62516 262.34172 198.35742 264.26172 198.35742 C 266.18072 198.35742 268.10045 197.62416 269.56445 196.16016 C 272.49445 193.23016 272.49345 188.48269 269.56445 185.55469 L 253.6543 169.64453 L 264.26172 159.03711 L 280.17188 174.94727 C 281.63687 176.41127 283.55756 177.14453 285.47656 177.14453 C 287.39556 177.14453 289.3143 176.41127 290.7793 174.94727 C 293.7083 172.01727 293.7083 167.2708 290.7793 164.3418 L 274.86914 148.43164 L 358.66016 64.640625 z M 379.87109 85.853516 L 390.47656 96.457031 L 379.87109 107.0625 L 369.26758 96.457031 L 379.87109 85.853516 z M 358.66016 107.06641 L 369.26562 117.67188 L 356.18359 130.75195 L 345.57812 120.14648 L 358.66016 107.06641 z M 221.83398 201.46484 L 232.44141 212.07031 L 221.83594 222.67578 L 211.22852 212.07031 L 221.83398 201.46484 z M 200.62109 222.67773 L 211.22656 233.2832 L 200.62109 243.88867 L 190.01562 233.2832 L 200.62109 222.67773 z M 179.4082 243.89062 L 190.01367 254.49609 L 117.53516 326.97461 C 114.60616 329.90461 114.60616 334.65303 117.53516 337.58203 C 119.00016 339.04603 120.92084 339.77734 122.83984 339.77734 C 124.75884 339.77734 126.67758 339.04603 128.14258 337.58203 L 136.98242 328.74219 L 147.58789 339.34961 L 136.24219 350.69336 C 135.81319 351.12336 135.43605 351.60205 135.12305 352.12305 L 100.00391 410.33789 C 97.363906 414.71289 94.152031 418.80405 90.457031 422.49805 C 79.265031 433.69105 64.815359 440.11133 50.818359 440.11133 C 49.751359 440.11133 48.688719 440.07114 47.636719 439.99414 L 15.117188 407.47656 C 14.007188 392.67456 20.435141 376.84316 32.619141 364.66016 C 36.312141 360.96616 40.404297 357.75523 44.779297 355.11523 L 102.99219 319.99414 C 103.51319 319.68114 103.99187 319.30595 104.42188 318.87695 L 179.4082 243.89062 z M 158.19531 307.5293 L 168.80078 318.13477 L 158.19336 328.74219 L 147.58984 318.13672 L 158.19531 307.5293 z "
   d="m 441.03906,18.722656 c -6.97067,0 -13.91812,2.639277 -19.22851,7.949219 l -18.73828,18.738281 a 2.8081798,2.8081798 0 0 1 -3.97266,0 l -5.30078,-5.302734 h -0.002 c -1.26191,-1.259723 -3.10862,-1.698214 -4.80273,-1.134766 l -31.81836,10.605469 c 0.21593,-0.07198 0.18313,-0.05759 -0.10937,0.04687 -0.0996,0.03618 -0.20082,0.07732 -0.3086,0.125 v -0.002 c -0.0502,0.02225 -0.0993,0.04653 -0.15234,0.07227 -0.001,6.08e-4 -0.003,0.0013 -0.004,0.002 -0.003,0.0013 -0.005,0.0026 -0.008,0.0039 -0.0957,0.0476 -0.19448,0.0994 -0.29883,0.160156 a 2.8081798,2.8081798 0 0 1 -0.002,0.002 c -0.10426,0.0605 -0.14974,0.08772 -0.13477,0.07813 a 2.8081798,2.8081798 0 0 1 -0.008,0.0059 c -0.0722,0.04599 -0.1691,0.112862 -0.28711,0.201171 -0.14326,0.108113 -0.21157,0.158661 -0.12891,0.0918 a 2.8081798,2.8081798 0 0 1 -0.004,0.0039 c -0.10344,0.08331 -0.21735,0.183811 -0.3418,0.304687 a 2.8081798,2.8081798 0 0 1 -0.0137,0.01367 c -0.22008,0.21091 -0.2098,0.21153 0.01,-0.01758 a 2.8081798,2.8081798 0 0 1 -0.041,0.04297 l -89.0957,89.095699 a 2.8081798,2.8081798 0 0 1 -3.97266,0 l -1.76562,-1.76757 c -1.85683,-1.85557 -4.77835,-1.85563 -6.63477,-0.002 -1.85661,1.85724 -1.85606,4.78066 0,6.63672 a 2.8081798,2.8081798 0 0 1 0,0.002 l 1.76562,1.76758 a 2.8081798,2.8081798 0 0 1 0,3.97071 l -10.60546,10.60546 a 2.8081798,2.8081798 0 0 1 -3.97266,0 l -1.76563,-1.76757 c -1.85723,-1.8566 -4.78108,-1.85691 -6.63476,-0.002 a 2.8081798,2.8081798 0 0 1 0,0.002 c -1.85741,1.85741 -1.8579,4.77749 -0.002,6.63281 a 2.8081798,2.8081798 0 0 1 0.002,0.002 l 1.76758,1.76953 a 2.8081798,2.8081798 0 0 1 0,3.97071 l -10.60547,10.60546 a 2.8081798,2.8081798 0 0 1 -3.97266,0 l -1.76562,-1.76757 c -1.85639,-1.85513 -4.78074,-1.85519 -6.63672,-0.002 -1.85661,1.85725 -1.85606,4.78066 0,6.63672 l 1.76758,1.76758 a 2.8081798,2.8081798 0 0 1 0,3.97266 l -10.60547,10.60547 a 2.8081798,2.8081798 0 0 1 -3.97266,-0.002 l -1.76562,-1.76758 c -1.85683,-1.85556 -4.77835,-1.85562 -6.63477,-0.002 -1.85661,1.85724 -1.85606,4.78066 0,6.63672 a 2.8081798,2.8081798 0 0 1 0,0.002 l 1.76563,1.76758 a 2.8081798,2.8081798 0 0 1 0,3.96875 l -10.60547,10.60742 a 2.8081798,2.8081798 0 0 1 -3.97266,0.002 l -1.76953,-1.76954 c -1.85513,-1.85513 -4.77703,-1.85836 -6.63281,-0.002 a 2.8081798,2.8081798 0 0 1 0,0.002 c -1.85584,1.85584 -1.8576,4.78039 -0.002,6.63477 l 1.76954,1.76758 a 2.8081798,2.8081798 0 0 1 0.002,3.97265 l -74.339845,74.33985 a 2.8081798,2.8081798 0 0 1 -0.535156,0.41797 l -57.429688,34.64843 c -5.215574,3.1463 -10.092188,6.96818 -14.484375,11.36133 a 2.8081798,2.8081798 0 0 1 0,0.002 c -15.581013,15.58101 -23.25029518,36.3952 -20.7167966,55.48437 0.1359211,1.02411 0.603532,1.97009 1.3339843,2.70117 l 36.2753903,36.27539 c 0.730514,0.72989 1.678136,1.19813 2.701172,1.33399 2.351547,0.31221 4.783941,0.4707 7.220703,0.4707 17.108287,0 34.762131,-7.68403 48.257813,-21.18164 a 2.8081798,2.8081798 0 0 1 0.002,-0.002 c 4.394475,-4.39351 8.218405,-9.2686 11.363285,-14.48438 a 2.8081798,2.8081798 0 0 1 0,-0.002 l 34.64843,-57.42969 a 2.8081798,2.8081798 0 0 1 0.41797,-0.53515 l 10.69922,-10.69922 a 2.8081798,2.8081798 0 0 1 3.9707,0 l 1.76954,1.76757 a 2.8081798,2.8081798 0 0 1 0.002,0 c 0.92945,0.92946 2.11034,1.375 3.3164,1.375 1.20564,0 2.38966,-0.44629 3.31641,-1.37304 1.85741,-1.85741 1.85897,-4.78033 0.004,-6.63477 l -1.76953,-1.76758 a 2.8081798,2.8081798 0 0 1 -0.002,-3.9707 l 10.60547,-10.60742 a 2.8081798,2.8081798 0 0 1 3.97266,-0.002 l 1.76758,1.76953 c 0.9286,0.92797 2.11273,1.37304 3.31836,1.37304 1.20475,0 2.39092,-0.44536 3.31835,-1.37109 v -0.002 c 4.1e-4,-4.1e-4 0.002,4e-4 0.002,0 1.8546,-1.85734 1.85343,-4.77938 -0.002,-6.63477 l -1.76757,-1.76758 a 2.8081798,2.8081798 0 0 1 0,-3.97265 l 98.99414,-98.99414 a 2.8081798,2.8081798 0 0 1 3.97265,0 l 1.76563,1.76757 c 0.92861,0.92798 2.11274,1.37305 3.31836,1.37305 1.20474,0 2.39092,-0.44536 3.31836,-1.37109 v -0.002 c 4e-4,-4e-4 0.002,4.1e-4 0.002,0 1.8546,-1.85734 1.85344,-4.77937 -0.002,-6.63476 l -1.76758,-1.76758 a 2.8081798,2.8081798 0 0 1 0,-3.97266 l 10.60547,-10.60546 a 2.8081798,2.8081798 0 0 1 3.97265,0 l 1.76563,1.76757 c 0.92861,0.92798 2.1166,1.375 3.32031,1.375 1.20284,0 2.38722,-0.44555 3.31641,-1.37304 v -0.002 c 4e-4,-4e-4 0.002,4.1e-4 0.002,0 1.85504,-1.85777 1.85388,-4.77698 -0.002,-6.63281 a 2.8081798,2.8081798 0 0 1 0,-0.002 l -1.76758,-1.76953 a 2.8081798,2.8081798 0 0 1 0,-3.97071 l 35.35547,-35.35351 a 2.8081798,2.8081798 0 0 1 3.97265,0 l 1.76563,1.76758 c 0.92861,0.92797 2.1166,1.375 3.32031,1.375 1.20285,0 2.38722,-0.44556 3.31641,-1.37305 v -0.002 c 4e-4,-4.1e-4 0.002,4e-4 0.002,0 1.85505,-1.8578 1.85388,-4.77698 -0.002,-6.63282 a 2.8081798,2.8081798 0 0 1 0,-0.002 l -1.76758,-1.76953 a 2.8081798,2.8081798 0 0 1 0,-3.9707 l 13.08008,-13.08008 a 2.8081798,2.8081798 0 0 1 3.9707,0 l 1.76953,1.76758 c 0.92862,0.92797 2.11275,1.37304 3.31836,1.37304 1.20475,0 2.39093,-0.44536 3.31836,-1.37109 v -0.002 c 1.85541,-1.85732 1.85566,-4.77911 0,-6.63477 l -1.76758,-1.76758 a 2.8081798,2.8081798 0 0 1 0,-3.97265 L 404.4043,99.777344 c 0.10674,-0.106748 0.22178,-0.234084 0.34375,-0.386719 a 2.8081798,2.8081798 0 0 1 0,-0.002 c -0.0483,0.06043 -0.005,0.0025 0.082,-0.111328 l 0.008,-0.01172 c 0.0946,-0.125199 0.16761,-0.227196 0.21289,-0.298828 a 2.8081798,2.8081798 0 0 1 0.004,-0.0078 c -0.0323,0.0507 -0.008,0.01099 0.0684,-0.11914 a 2.8081798,2.8081798 0 0 1 0.004,-0.0078 c 0.0626,-0.105504 0.119,-0.207088 0.16992,-0.3125 a 2.8081798,2.8081798 0 0 1 0.002,-0.0078 c 0.0132,-0.02713 0.0359,-0.07555 0.0644,-0.138672 l 0.004,-0.0078 c 0.049,-0.109928 0.0951,-0.224089 0.13867,-0.345703 l -0.004,0.0059 c 0.0732,-0.205841 0.0783,-0.20868 0.043,-0.105469 l 10.59961,-31.792969 v -0.002 c 0.56268,-1.691077 0.12585,-3.540164 -1.13476,-4.800781 a 2.8081798,2.8081798 0 0 1 0,-0.002 l -5.30274,-5.304688 a 2.8081798,2.8081798 0 0 1 0,-3.970703 L 428.44531,33.3125 c 3.34376,-3.344936 7.85411,-5.208984 12.59375,-5.208984 4.73964,0 9.2485,1.864505 12.5918,5.208984 6.92391,6.924887 6.92437,18.25609 -0.002,25.183594 a 2.8081798,2.8081798 0 0 1 0,0.002 l -11.80079,11.800781 c -9.40152,9.400578 -14.55664,21.84284 -14.55664,35.136722 0,13.294 5.15417,25.73619 14.55469,35.13672 l 18.03906,18.03906 c 0.92676,0.92675 2.11078,1.37305 3.31641,1.37304 1.20469,0 2.38741,-0.446 3.31641,-1.375 1.85626,-1.85627 1.85803,-4.77799 0.002,-6.63281 a 2.8081798,2.8081798 0 0 1 -0.002,0 l -18.03711,-18.04101 c -7.59868,-7.59761 -11.80664,-17.75626 -11.80664,-28.50196 0,-10.746054 4.2084,-20.903712 11.80664,-28.501949 l 11.80468,-11.804688 c 10.6189,-10.619798 10.62004,-27.834003 0.002,-38.455078 -5.30979,-5.309789 -12.25783,-7.949219 -19.22852,-7.949219 z m -53.47461,30.619141 a 2.8081798,2.8081798 0 0 1 2.875,0.677734 l 14.65821,14.658203 a 2.8081798,2.8081798 0 0 1 0.67773,2.875 l -5.30273,15.908203 a 2.8081798,2.8081798 0 0 1 -4.65039,1.097657 L 370.55859,59.294922 a 2.8081798,2.8081798 0 0 1 1.09766,-4.650391 z m -30.89062,13.3125 a 2.8081798,2.8081798 0 0 1 3.9707,0 l 10.60742,10.605469 a 2.8081798,2.8081798 0 0 1 0.002,3.972656 l -60.8125,60.810548 c -1.85541,1.8573 -1.85566,4.77911 0,6.63476 0.92755,0.92628 2.11324,1.37304 3.31836,1.37305 1.20561,0 2.39257,-0.44594 3.32031,-1.37305 l 15.90625,-15.9082 a 2.8081798,2.8081798 0 0 1 3.9707,0 l 10.60547,10.60352 a 2.8081798,2.8081798 0 0 1 0.002,3.97265 L 181.39453,309.51367 a 2.8081798,2.8081798 0 0 1 -3.9707,0 l -10.60547,-10.60351 a 2.8081798,2.8081798 0 0 1 -0.002,-3.97266 l 79.54882,-79.54883 v -0.002 c 1.85585,-1.85774 1.8561,-4.77671 0,-6.63281 l -15.91015,-15.91016 a 2.8081798,2.8081798 0 0 1 0.002,-3.97266 l 10.60742,-10.60547 a 2.8081798,2.8081798 0 0 1 3.97071,0 l 15.9082,15.90821 c 0.92857,0.92856 2.11229,1.375 3.31836,1.375 1.20372,0 2.38877,-0.44737 3.3164,-1.375 1.85742,-1.85742 1.85791,-4.7775 0.002,-6.63281 a 2.8081798,2.8081798 0 0 1 -0.002,0 l -15.91015,-15.91016 a 2.8081798,2.8081798 0 0 1 0,-3.97266 l 10.60742,-10.60742 a 2.8081798,2.8081798 0 0 1 3.97266,0 l 15.9082,15.91016 c 0.9286,0.92797 2.11659,1.375 3.32031,1.375 1.20285,0 2.38722,-0.44556 3.31641,-1.37305 v -0.002 c 4e-4,-4.1e-4 0.002,4e-4 0.002,0 1.85504,-1.85778 1.85388,-4.77698 -0.002,-6.63282 l -15.91016,-15.91015 a 2.8081798,2.8081798 0 0 1 0,-3.97266 z m 21.21094,21.21289 a 2.8081798,2.8081798 0 0 1 3.9707,0 l 10.60547,10.603516 a 2.8081798,2.8081798 0 0 1 0.002,3.972656 l -10.60547,10.605471 a 2.8081798,2.8081798 0 0 1 -3.97265,-0.002 L 367.28125,98.441406 a 2.8081798,2.8081798 0 0 1 0,-3.970703 z m -21.20899,21.212893 a 2.8081798,2.8081798 0 0 1 3.9707,0 l 10.60547,10.60547 a 2.8081798,2.8081798 0 0 1 -0.002,3.97265 l -13.08203,13.08008 a 2.8081798,2.8081798 0 0 1 -3.9707,0 L 343.5918,122.13281 a 2.8081798,2.8081798 0 0 1 0.002,-3.97265 z m -136.82812,94.39844 a 2.8081798,2.8081798 0 0 1 3.9707,0 l 10.60742,10.60546 a 2.8081798,2.8081798 0 0 1 0.002,3.97266 l -10.60546,10.60547 a 2.8081798,2.8081798 0 0 1 -3.97071,0 l -10.60742,-10.60547 a 2.8081798,2.8081798 0 0 1 -0.002,-3.97266 z m -21.21289,21.21289 a 2.8081798,2.8081798 0 0 1 3.97265,0 l 10.60547,10.60546 a 2.8081798,2.8081798 0 0 1 0,3.97266 L 202.60742,245.875 a 2.8081798,2.8081798 0 0 1 -3.97265,0 L 188.0293,235.26953 a 2.8081798,2.8081798 0 0 1 0,-3.97266 z m -21.2129,21.21289 a 2.8081798,2.8081798 0 0 1 3.97266,0 L 192,252.50977 a 2.8081798,2.8081798 0 0 1 0,3.97265 l -72.47852,72.47852 c -1.8554,1.8573 -1.85565,4.7791 0,6.63476 0.92756,0.92628 2.11326,1.37305 3.31836,1.37305 1.20563,0 2.38975,-0.44507 3.31836,-1.37305 l 8.83789,-8.83984 a 2.8081798,2.8081798 0 0 1 3.97266,0.002 l 10.60547,10.60742 a 2.8081798,2.8081798 0 0 1 -0.002,3.97071 l -11.34571,11.34375 c -0.27252,0.27378 -0.50695,0.57189 -0.69726,0.88867 a 2.8081798,2.8081798 0 0 1 -0.002,0.006 l -35.11914,58.21484 c -2.760427,4.57457 -6.114085,8.84365 -9.966794,12.69531 -11.66667,11.66723 -26.767861,18.43555 -41.623047,18.43555 -1.137507,0 -2.268368,-0.0431 -3.386718,-0.125 a 2.8081798,2.8081798 0 0 1 -1.78125,-0.81445 L 13.130859,409.46289 a 2.8081798,2.8081798 0 0 1 -0.814453,-1.77539 c -1.18158,-15.75654 5.622202,-32.31803 18.316406,-45.01172 3.851057,-3.8521 8.121157,-7.20467 12.695313,-9.96484 l 58.212895,-35.1211 a 2.8081798,2.8081798 0 0 1 0.006,-0.002 c 0.3215,-0.19315 0.61759,-0.42731 0.88867,-0.69727 l 0.004,-0.002 z m -17.24023,63.63867 10.60547,10.60547 a 2.8081798,2.8081798 0 0 1 0,3.97265 l -10.60742,10.60743 a 2.8081798,2.8081798 0 0 1 -3.97266,-0.002 l -10.60351,-10.60547 a 2.8081798,2.8081798 0 0 1 0,-3.96875 l 10.60546,-10.60742 a 2.8081798,2.8081798 0 0 1 3.97266,-0.002 z"
   transform="matrix(0.19337387,0,0,0.19337387,4.4564637,4.4581875)" />
	</g>
</g>
</svg>
