<svg xmlns="http://www.w3.org/2000/svg" xml:space="preserve" width="100" height="100">
    <path d="M89.742 8.079c-1.348 0-2.692.51-3.718 1.537L82.4 13.239a.543.543 0 0 1-.768 0l-1.025-1.025a.91.91 0 0 0-.93-.22l-6.152 2.051-.021.01-.06.024q-.015.005-.03.013l-.002.001-.057.031-.027.016h-.001a1 1 0 0 0-.08.058h-.002l-.066.06-.002.002q-.064.061.002-.004l-.008.009-17.23 17.229a.543.543 0 0 1-.767 0l-.342-.342a.9.9 0 0 0-1.283 0 .9.9 0 0 0 0 1.283l.342.342a.543.543 0 0 1 0 .768l-2.051 2.05a.543.543 0 0 1-.768 0l-.342-.341a.9.9 0 0 0-1.283 0 .9.9 0 0 0 0 1.282l.342.343a.543.543 0 0 1 0 .768l-2.05 2.05a.543.543 0 0 1-.77 0l-.34-.341a.9.9 0 0 0-1.284 0 .9.9 0 0 0 0 1.283l.342.342a.543.543 0 0 1 0 .768l-2.05 2.05a.543.543 0 0 1-.77 0l-.34-.342a.9.9 0 0 0-1.284 0 .9.9 0 0 0 0 1.283l.342.343a.543.543 0 0 1 0 .767l-2.05 2.051a.543.543 0 0 1-.77 0l-.341-.342a.9.9 0 0 0-1.283 0 .9.9 0 0 0 0 1.283l.342.342a.543.543 0 0 1 0 .768L23.108 64.328a.5.5 0 0 1-.104.08l-11.105 6.7a14.7 14.7 0 0 0-2.8 2.198c-3.014 3.013-4.497 7.038-4.007 10.73a.9.9 0 0 0 .258.522l7.015 7.014a.9.9 0 0 0 .522.258c.455.06.925.091 1.396.091 3.309 0 6.722-1.486 9.332-4.096.85-.85 1.59-1.792 2.198-2.8v-.001l6.7-11.106a.5.5 0 0 1 .08-.103l2.07-2.07a.543.543 0 0 1 .768 0l.342.343c.18.18.408.266.641.266a.9.9 0 0 0 .642-.266.9.9 0 0 0 0-1.283l-.342-.342a.543.543 0 0 1 0-.768l2.05-2.05a.543.543 0 0 1 .769-.001l.342.342c.18.18.408.266.641.266a.9.9 0 0 0 .642-.266.9.9 0 0 0 0-1.283l-.342-.342a.543.543 0 0 1 0-.768L59.96 46.45a.543.543 0 0 1 .768 0l.342.342c.18.18.408.265.642.265a.9.9 0 0 0 .641-.265.9.9 0 0 0 0-1.283l-.342-.342a.543.543 0 0 1 0-.768l2.051-2.05a.543.543 0 0 1 .768 0l.342.34a.9.9 0 0 0 .642.267.9.9 0 0 0 .641-.266.9.9 0 0 0 0-1.283l-.342-.342a.543.543 0 0 1 0-.768l6.837-6.837a.543.543 0 0 1 .768 0l.342.342a.9.9 0 0 0 .642.266.9.9 0 0 0 .641-.265.9.9 0 0 0 0-1.283L75 32.176a.543.543 0 0 1 0-.768l2.53-2.53a.543.543 0 0 1 .768 0l.342.343c.18.18.408.265.642.265a.9.9 0 0 0 .641-.265.9.9 0 0 0 0-1.283l-.342-.342a.543.543 0 0 1 0-.768l3.077-3.076a1 1 0 0 0 .066-.075c-.01.011 0 0 .016-.022l.002-.002.04-.058.002-.002q-.01.015.013-.023v-.001l.033-.06v-.002l.013-.027.001-.002.027-.066h-.001l.008-.02 2.05-6.148a.9.9 0 0 0-.22-.928l-1.025-1.026a.543.543 0 0 1 0-.768l3.624-3.623a3.44 3.44 0 0 1 2.435-1.007c.916 0 1.788.36 2.435 1.007a3.454 3.454 0 0 1 0 4.87l-2.283 2.282a9.53 9.53 0 0 0-2.814 6.795c0 2.57.996 4.976 2.814 6.794l3.488 3.488c.18.18.409.266.642.266a.9.9 0 0 0 .641-.266.9.9 0 0 0 0-1.283l-3.488-3.488a7.76 7.76 0 0 1-2.283-5.512c0-2.078.814-4.042 2.283-5.511l2.283-2.283a5.26 5.26 0 0 0 0-7.436 5.24 5.24 0 0 0-3.718-1.537m-10.34 5.92a.54.54 0 0 1 .555.132l2.835 2.834a.54.54 0 0 1 .13.556l-1.025 3.076a.543.543 0 0 1-.899.213l-4.885-4.886a.543.543 0 0 1 .212-.899zm-5.974 2.575a.543.543 0 0 1 .768 0l2.05 2.05a.543.543 0 0 1 .001.769l-11.76 11.76a.9.9 0 0 0 0 1.282c.18.18.41.266.642.266a.9.9 0 0 0 .642-.266l3.076-3.076a.543.543 0 0 1 .768 0l2.051 2.05a.543.543 0 0 1 0 .769L39.533 64.31a.543.543 0 0 1-.767 0l-2.051-2.05a.543.543 0 0 1 0-.769L52.096 46.11a.9.9 0 0 0 0-1.283l-3.077-3.077a.543.543 0 0 1 0-.768l2.052-2.05a.543.543 0 0 1 .768 0l3.076 3.075c.18.18.409.266.642.266a.9.9 0 0 0 .641-.266.9.9 0 0 0 0-1.282l-3.077-3.077a.543.543 0 0 1 0-.768l2.052-2.051a.543.543 0 0 1 .768 0l3.076 3.076a.9.9 0 0 0 .642.266.9.9 0 0 0 .641-.265.9.9 0 0 0 0-1.283l-3.076-3.077a.543.543 0 0 1 0-.768zm4.102 4.102a.543.543 0 0 1 .767 0l2.051 2.05a.543.543 0 0 1 0 .769l-2.05 2.05a.543.543 0 0 1-.768 0l-2.05-2.05a.543.543 0 0 1 0-.769zm-4.102 4.102a.543.543 0 0 1 .768 0l2.05 2.05a.543.543 0 0 1 0 .769l-2.53 2.53a.543.543 0 0 1-.767 0l-2.05-2.052a.543.543 0 0 1 0-.768zM46.97 43.032a.543.543 0 0 1 .768 0l2.051 2.05a.543.543 0 0 1 0 .77l-2.05 2.05a.543.543 0 0 1-.768 0l-2.051-2.05a.543.543 0 0 1 0-.77zm-4.102 4.102a.543.543 0 0 1 .768 0l2.051 2.051a.543.543 0 0 1 0 .768l-2.05 2.051a.543.543 0 0 1-.769 0l-2.05-2.05a.543.543 0 0 1 0-.769zm-4.102 4.102a.543.543 0 0 1 .768 0l2.051 2.051a.543.543 0 0 1 0 .768L27.57 68.071a.9.9 0 0 0 0 1.283c.18.179.408.265.641.265a.9.9 0 0 0 .642-.265l1.71-1.71a.543.543 0 0 1 .767 0l2.051 2.052a.543.543 0 0 1 0 .768l-2.194 2.193a1 1 0 0 0-.135.172v.001L24.26 84.087a13 13 0 0 1-1.928 2.455c-2.256 2.257-5.176 3.565-8.049 3.565q-.33 0-.655-.024a.54.54 0 0 1-.344-.157l-6.288-6.288a.54.54 0 0 1-.158-.344c-.228-3.047 1.087-6.25 3.542-8.704a13 13 0 0 1 2.455-1.927l11.257-6.791h.001a1 1 0 0 0 .172-.135zm-3.334 12.306 2.051 2.051a.543.543 0 0 1 0 .768l-2.051 2.051a.543.543 0 0 1-.768 0l-2.05-2.05a.543.543 0 0 1 0-.768l2.05-2.051a.543.543 0 0 1 .768 0"/>
</svg>
