<svg xmlns="http://www.w3.org/2000/svg" xml:space="preserve" width="100" height="100">
    <path d="M5.834 79.423a.843.843 0 0 0 0 1.204l1.356 1.356 12.184 12.185c.169.168.383.25.602.25a.84.84 0 0 0 .602-.25.843.843 0 0 0 0-1.204l-.435-.435a.585.585 0 0 1-.039-.784l11.319-13.833.039-.043 5.704-5.704a.585.585 0 0 1 .826 0l.339.338c.169.169.383.25.602.25s.434-.081.602-.25a.843.843 0 0 0 0-1.204l-.339-.338a.585.585 0 0 1 0-.827l2.032-2.031a.585.585 0 0 1 .826 0l.339.338a.84.84 0 0 0 .602.25.84.84 0 0 0 .602-.25.843.843 0 0 0 0-1.204l-.338-.339a.585.585 0 0 1 0-.826l18.956-18.957a.585.585 0 0 1 .827 0l.338.338c.17.169.384.25.603.25s.434-.08.602-.25a.843.843 0 0 0 0-1.204l-.338-.338a.585.585 0 0 1 0-.827l2.03-2.03a.585.585 0 0 1 .827 0l.339.337a.84.84 0 0 0 .602.25c.219 0 .434-.08.603-.25a.843.843 0 0 0 0-1.204l-.34-.338a.585.585 0 0 1 0-.827l6.771-6.77a.585.585 0 0 1 .827 0l.338.338c.169.169.384.25.602.25.22 0 .434-.081.603-.25a.843.843 0 0 0 0-1.204l-.339-.339a.585.585 0 0 1 0-.826l2.505-2.505a.585.585 0 0 1 .827 0l.338.338c.17.169.384.25.602.25.22 0 .434-.081.603-.25a.84.84 0 0 0 0-1.204l-.339-.339a.585.585 0 0 1 0-.826l3.047-3.047q.03-.03.06-.067l.016-.022v-.001l.04-.057.014-.024.03-.056h.001l.012-.026v-.001l.026-.064q.027-.075.006-.014l2.032-6.094a.85.85 0 0 0-.206-.872l-1.016-1.015a.585.585 0 0 1 0-.827l8.459-8.458a.844.844 0 0 0 0-1.204.843.843 0 0 0-1.205 0l-8.458 8.458a.585.585 0 0 1-.827 0L82.66 13.28a.85.85 0 0 0-.871-.206l-6.093 2.03-.004.002q.094-.031-.011.006h-.003l-.06.025-.005.001-.02.01-.057.03-.003.002-.025.015-.057.04v.001q-.044.033-.017.011v.001a1 1 0 0 0-.071.063L58.303 32.37a.585.585 0 0 1-.827 0l-.338-.338a.843.843 0 0 0-1.205 0 .843.843 0 0 0 0 1.204l.339.339a.585.585 0 0 1 0 .827l-2.031 2.03a.585.585 0 0 1-.827 0l-.339-.338a.843.843 0 0 0-1.204 0 .843.843 0 0 0 0 1.204l.339.339a.585.585 0 0 1 0 .826l-2.032 2.031a.585.585 0 0 1-.826 0l-.339-.338a.843.843 0 0 0-1.204 0 .843.843 0 0 0 0 1.204l.339.339a.585.585 0 0 1 0 .826l-2.031 2.031a.585.585 0 0 1-.827 0l-.339-.338a.843.843 0 0 0-1.204 0 .843.843 0 0 0 0 1.204l.339.339a.585.585 0 0 1 0 .826l-2.032 2.032a.585.585 0 0 1-.826 0l-.339-.339a.843.843 0 0 0-1.204 0 .843.843 0 0 0 0 1.204l.338.339a.585.585 0 0 1 0 .827l-17.89 17.89-.043.04L8.256 79.896a.585.585 0 0 1-.783-.039l-.435-.435a.843.843 0 0 0-1.204 0m3.723 1.611 12.66-10.358a.585.585 0 0 1 .784.039L29.287 77a.585.585 0 0 1 .04.784l-10.36 12.66a.585.585 0 0 1-.865.044L9.514 81.9a.585.585 0 0 1 .043-.866m14.745-12.253 16.925-16.926a.585.585 0 0 1 .827 0l2.031 2.031a.585.585 0 0 1 0 .827L30.206 68.592a.843.843 0 0 0 0 1.204c.168.169.383.25.602.25a.84.84 0 0 0 .602-.25l1.693-1.692a.585.585 0 0 1 .827 0l2.03 2.03a.585.585 0 0 1 0 .827l-4.738 4.74a.585.585 0 0 1-.827 0l-6.093-6.094a.585.585 0 0 1 0-.826m18.957-18.957 2.03-2.031a.585.585 0 0 1 .827 0l2.031 2.03a.585.585 0 0 1 0 .827l-2.03 2.031a.585.585 0 0 1-.827 0l-2.031-2.03a.585.585 0 0 1 0-.827m4.062-4.062 2.03-2.032a.585.585 0 0 1 .827 0l2.032 2.032a.585.585 0 0 1 0 .826l-2.032 2.031a.585.585 0 0 1-.826 0l-2.031-2.03a.585.585 0 0 1 0-.827m4.062-4.063 2.03-2.03a.585.585 0 0 1 .827 0l3.047 3.046c.169.169.383.25.602.25s.434-.081.603-.25a.843.843 0 0 0 0-1.204l-3.047-3.047a.585.585 0 0 1 0-.826l2.031-2.032a.585.585 0 0 1 .827 0l3.046 3.047c.17.169.384.25.603.25s.433-.081.602-.25a.843.843 0 0 0 0-1.204l-3.047-3.047a.585.585 0 0 1 0-.827L75.553 17.53a.585.585 0 0 1 .827 0l2.03 2.03a.585.585 0 0 1 0 .827L66.766 32.032a.843.843 0 0 0 0 1.205.846.846 0 0 0 1.204 0l3.047-3.047a.585.585 0 0 1 .826 0l2.031 2.031a.585.585 0 0 1 0 .827l-7.784 7.784-4.064 4.064-19.972 19.972a.585.585 0 0 1-.827 0l-2.03-2.03a.585.585 0 0 1 0-.828l11.17-11.17 4.062-4.063a.843.843 0 0 0 0-1.204l-3.046-3.047a.585.585 0 0 1 0-.827M78.44 15.985l3.047-1.015a.59.59 0 0 1 .598.14l1.403 1.404 1.403 1.404a.59.59 0 0 1 .142.598l-1.016 3.047a.585.585 0 0 1-.968.228l-4.838-4.838a.585.585 0 0 1 .229-.968M35.134 66.072l2.031-2.03a.585.585 0 0 1 .827 0l2.031 2.03a.585.585 0 0 1 0 .827l-2.031 2.031a.585.585 0 0 1-.827 0l-2.03-2.031a.585.585 0 0 1 0-.827M73.048 28.16l2.504-2.505a.585.585 0 0 1 .827 0l2.031 2.031a.585.585 0 0 1 0 .827l-2.505 2.505a.585.585 0 0 1-.826 0l-2.031-2.031a.585.585 0 0 1 0-.827m4.536-4.536 2.03-2.031a.585.585 0 0 1 .827 0l2.031 2.031a.585.585 0 0 1 0 .827l-2.03 2.03a.585.585 0 0 1-.827 0l-2.031-2.03a.585.585 0 0 1 0-.827"/>
</svg>
