<?xml version="1.0" encoding="UTF-8" standalone="no"?>
<!-- Uploaded to: SVG Repo, www.svgrepo.com, Generator: SVG Repo Mixer Tools -->

<svg
   fill="#000000"
   height="100"
   width="100"
   version="1.1"
   id="Layer_1"
   viewBox="0 0 100 100"
   xml:space="preserve"
   sodipodi:docname="oboe_1.svg"
   xmlns:inkscape="http://www.inkscape.org/namespaces/inkscape"
   xmlns:sodipodi="http://sodipodi.sourceforge.net/DTD/sodipodi-0.dtd"
   xmlns="http://www.w3.org/2000/svg"
   xmlns:svg="http://www.w3.org/2000/svg"><defs
   id="defs2">
		
	</defs><sodipodi:namedview
   id="namedview2"
   pagecolor="#ffffff"
   bordercolor="#000000"
   borderopacity="0.25"
   inkscape:showpageshadow="2"
   inkscape:pageopacity="0.0"
   inkscape:pagecheckerboard="0"
   inkscape:deskcolor="#d1d1d1" />
<g
   id="g2"
   transform="matrix(0.13540483,-0.13540483,0.13540483,0.13540483,-13.640041,50.001931)">
	<path
   id="path1"
   d="m -36.732422,180.55078 c -2.492075,0 -4.447691,1.95646 -4.447265,4.44727 v 10.01367 89.98633 c 0,1.24435 0.494672,2.33646 1.302734,3.14453 0.80777,0.80777 1.896644,1.30121 3.142578,1.30078 a 3.0531794,3.0531794 0 0 1 0.002,0 c 2.493032,0 4.447691,-1.95452 4.447266,-4.44531 v -3.21289 a 3.0531794,3.0531794 0 0 1 2.748047,-3.03711 l 92.875,-9.28711 a 3.0531794,3.0531794 0 0 1 0.304687,-0.0156 h 42.125002 a 3.0531794,3.0531794 0 0 1 3.05273,3.05274 v 2.5 c 0,1.24627 0.49377,2.33752 1.30078,3.14453 0.80776,0.80776 1.9005,1.30315 3.14454,1.30273 a 3.0531794,3.0531794 0 0 1 0.002,0 c 2.49207,0 4.44574,-1.9555 4.44531,-4.44726 v -2.5 a 3.0531794,3.0531794 0 0 1 3.05274,-3.05274 h 15.00195 a 3.0531794,3.0531794 0 0 1 3.05273,3.05274 v 2.5 a 3.0531794,3.0531794 0 0 1 0,0.002 c -4.2e-4,1.24594 0.49302,2.33482 1.30078,3.14258 0.80882,0.80881 1.89855,1.30315 3.14258,1.30273 a 3.0531794,3.0531794 0 0 1 0.002,0 c 2.49209,0 4.4477,-1.95646 4.44727,-4.44726 v -2.5 a 3.0531794,3.0531794 0 0 1 3.05273,-3.05274 h 140 a 3.0531794,3.0531794 0 0 1 3.05274,3.05274 v 2.49804 c 4.2e-4,1.24666 0.4957,2.34141 1.30273,3.14844 0.80776,0.80776 1.90017,1.30274 3.14649,1.30274 2.49208,0 4.44769,-1.95647 4.44726,-4.44727 v -2.5 a 3.0531794,3.0531794 0 0 1 3.05274,-3.05273 h 14.99804 a 3.0531794,3.0531794 0 0 1 3.05274,3.05273 v 2.49805 c 9.7e-4,1.24585 0.49614,2.33989 1.30273,3.14648 0.80778,0.80778 1.90015,1.30274 3.14649,1.30274 2.49207,0 4.44574,-1.95552 4.44531,-4.44727 v -2.5 a 3.0531794,3.0531794 0 0 1 3.05273,-3.05273 h 50 a 3.0531794,3.0531794 0 0 1 3.05274,3.05273 v 2.49805 c 9.7e-4,1.24585 0.49614,2.33989 1.30273,3.14648 0.80778,0.80777 1.90017,1.30274 3.14649,1.30274 2.49207,0 4.44573,-1.95551 4.44531,-4.44727 v -2.5 a 3.0531794,3.0531794 0 0 1 3.05273,-3.05273 h 18.5 a 3.0531794,3.0531794 0 0 1 3.05274,3.05273 v 2.49805 0.002 c 9.7e-4,1.24583 0.49513,2.33693 1.30273,3.14453 0.80778,0.80777 1.90017,1.30274 3.14649,1.30274 2.49303,0 4.44573,-1.95354 4.44531,-4.44532 V 272.5 a 3.0531794,3.0531794 0 0 1 3.05273,-3.05273 h 22.5 c 0.1526,0 0.31117,-0.009 0.46875,-0.0254 -0.004,5.3e-4 0.01,-4.5e-4 0.006,0 -0.0936,0.0109 -0.0467,0.002 0.13672,-0.0234 l 0.006,-0.002 c 0.14918,-0.0209 0.26779,-0.0407 0.35547,-0.0605 -0.0231,0.005 0.0233,-0.007 0.13867,-0.0371 a 3.0531794,3.0531794 0 0 1 0.002,0 c 0.11376,-0.0292 0.21715,-0.0597 0.31836,-0.0937 l 0.004,-0.002 c 0.073,-0.0258 0.11923,-0.0421 0.13672,-0.0488 a 3.0531794,3.0531794 0 0 1 0.01,-0.004 c 0.10974,-0.0418 0.21989,-0.089 0.32812,-0.14062 a 3.0531794,3.0531794 0 0 1 0.004,-0.002 c 0.24506,-0.11656 0.26459,-0.12592 0.0684,-0.0273 a 3.0531794,3.0531794 0 0 1 0.006,-0.002 l 30,-15 c 1.51246,-0.75645 2.45898,-2.28772 2.45898,-3.97852 v -7.5 a 3.0531794,3.0531794 0 0 1 3.05273,-3.05273 l 62.4668,0.002 c 2.4875,0 4.44531,-1.95724 4.44531,-4.44922 -4.2e-4,-2.49439 -1.95414,-4.44769 -4.44726,-4.44727 h -62.4668 A 3.0531794,3.0531794 0 0 1 491.21094,227.5 V 220 c 0,-1.69081 -0.94381,-3.21904 -2.45899,-3.97852 h -0.002 l -29.99609,-15 a 3.0531794,3.0531794 0 0 1 -0.0176,-0.008 c 0.30552,0.15524 0.28749,0.14487 -0.0625,-0.0215 a 3.0531794,3.0531794 0 0 1 -0.0117,-0.006 c -0.0992,-0.0477 -0.20487,-0.0923 -0.31641,-0.13477 a 3.0531794,3.0531794 0 0 1 -0.0215,-0.01 c -0.0424,-0.0165 -0.0759,-0.0275 -0.10938,-0.0391 -0.0965,-0.033 -0.20436,-0.0665 -0.32422,-0.0976 l -0.0156,-0.004 c -0.1211,-0.0305 -0.18104,-0.0474 -0.14453,-0.0391 h -0.004 c -0.0848,-0.0183 -0.20078,-0.038 -0.36133,-0.0606 h -0.002 c -0.18557,-0.0259 -0.22518,-0.0311 -0.10156,-0.0176 a 3.0531794,3.0531794 0 0 1 -0.006,0 c -0.18514,-0.0206 -0.34406,-0.0312 -0.49219,-0.0312 h -126 a 3.0531794,3.0531794 0 0 1 -3.05273,-3.05468 L 327.71289,195 c 0,-2.49277 -1.95322,-4.44684 -4.44727,-4.44727 -2.49301,0 -4.44769,1.95453 -4.44726,4.44532 V 197.5 a 3.0531794,3.0531794 0 0 1 -3.05274,3.05273 l -15,-0.002 a 3.0531794,3.0531794 0 0 1 -3.05273,-3.05273 v -2.5 c -4.1e-4,-2.49403 -1.9545,-4.44727 -4.44727,-4.44727 -2.49205,0 -4.44768,1.95646 -4.44726,4.44727 v 2.5 a 3.0531794,3.0531794 0 0 1 -3.05274,3.05273 h -15 a 3.0531794,3.0531794 0 0 1 -3.05273,-3.05273 v -2.5 c 0,-2.49305 -1.9545,-4.4477 -4.44531,-4.44727 -2.49207,0 -4.44769,1.95646 -4.44727,4.44727 v 2.5 a 3.0531794,3.0531794 0 0 1 -3.05273,3.05273 h -15 a 3.0531794,3.0531794 0 0 1 -3.05274,-3.05273 v -2.5 c 0,-2.49209 -1.95645,-4.4477 -4.44726,-4.44727 -2.49207,0 -4.44769,1.95646 -4.44727,4.44727 v 2.5 a 3.0531794,3.0531794 0 0 1 -3.05273,3.05273 h -15 a 3.0531794,3.0531794 0 0 1 -3.05274,-3.05273 v -2.5 c 0,-2.49208 -1.95647,-4.4477 -4.44726,-4.44727 -2.49207,0 -4.44769,1.95645 -4.44727,4.44727 v 2.5 a 3.0531794,3.0531794 0 0 1 -3.05273,3.05273 H 63.642578 a 3.0531794,3.0531794 0 0 1 -0.304687,-0.0156 l -92.875,-9.28711 a 3.0531794,3.0531794 0 0 1 -2.748047,-3.03711 v -3.21289 c 0,-2.49207 -1.95646,-4.44769 -4.447266,-4.44727 z m 7.798828,19.69922 85.001953,8.5 a 3.0531794,3.0531794 0 0 1 2.748047,3.03711 v 46.42578 A 3.0531794,3.0531794 0 0 1 56.068359,261.25 l -85.001953,8.5 a 3.0531794,3.0531794 0 0 1 -3.357422,-3.03711 v -63.42578 a 3.0531794,3.0531794 0 0 1 3.357422,-3.03711 z m 99.695313,9.19727 H 195.76172 a 3.0531794,3.0531794 0 0 1 3.05273,3.05273 v 15 a 3.0531794,3.0531794 0 0 1 -3.05273,3.05273 H 93.261719 c -2.492069,0 -4.447691,1.95648 -4.447266,4.44727 0,1.24435 0.494673,2.33647 1.302734,3.14453 0.808808,0.80881 1.898572,1.30316 3.142579,1.30274 a 3.0531794,3.0531794 0 0 1 0.002,0 h 12.500001 a 3.0531794,3.0531794 0 0 1 3.05273,3.05273 v 15 a 3.0531794,3.0531794 0 0 1 -3.05273,3.05273 H 70.761719 A 3.0531794,3.0531794 0 0 1 67.708984,257.5 v -45 a 3.0531794,3.0531794 0 0 1 3.052735,-3.05273 z m 140.001951,0 h 15 a 3.0531794,3.0531794 0 0 1 3.05274,3.05273 v 15 a 3.0531794,3.0531794 0 0 1 -3.05274,3.05273 h -15 A 3.0531794,3.0531794 0 0 1 207.71094,227.5 v -15 a 3.0531794,3.0531794 0 0 1 3.05273,-3.05273 z m 30,0 h 15 a 3.0531794,3.0531794 0 0 1 3.05274,3.05273 v 15 a 3.0531794,3.0531794 0 0 1 -3.05274,3.05273 h -15 A 3.0531794,3.0531794 0 0 1 237.71094,227.5 v -15 a 3.0531794,3.0531794 0 0 1 3.05273,-3.05273 z m 30,0 h 14.99805 a 3.0531794,3.0531794 0 0 1 3.05273,3.05273 v 22.49805 c 4.3e-4,1.24668 0.49468,2.33842 1.30274,3.14648 0.80777,0.80777 1.90016,1.30274 3.14648,1.30274 2.49207,0 4.44574,-1.95552 4.44531,-4.44727 v -22.5 a 3.0531794,3.0531794 0 0 1 3.05274,-3.05273 h 15.00195 A 3.0531794,3.0531794 0 0 1 318.81641,212.5 V 235 c 0,1.24702 0.49396,2.33771 1.30273,3.14648 0.80882,0.80882 1.8982,1.30274 3.14453,1.30274 2.49207,0 4.44769,-1.95646 4.44727,-4.44727 v -22.5 a 3.0531794,3.0531794 0 0 1 3.05273,-3.05273 h 118.5 a 3.0531794,3.0531794 0 0 1 3.05274,3.05273 V 227.5 a 3.0531794,3.0531794 0 0 1 -3.05274,3.05273 h -86 c -2.49207,0 -4.44769,1.95648 -4.44726,4.44727 9.6e-4,1.24583 0.49614,2.33989 1.30273,3.14648 0.80674,0.80674 1.89824,1.30079 3.14648,1.30079 h 22.49805 a 3.0531794,3.0531794 0 0 1 3.05274,3.05273 v 15 a 3.0531794,3.0531794 0 0 1 -3.05274,3.05273 H 328.27148 298.26367 150.76172 A 3.0531794,3.0531794 0 0 1 147.70898,257.5 v -15 a 3.0531794,3.0531794 0 0 1 3.05274,-3.05273 h 82.5 30.00195 c 2.49207,0 4.44769,-1.95648 4.44727,-4.44727 v -22.5 a 3.0531794,3.0531794 0 0 1 3.05273,-3.05273 z m 194.86328,4.95898 15.00196,7.5 a 3.0531794,3.0531794 0 0 1 1.6875,2.73047 L 482.31445,235 v 10.36523 a 3.0531794,3.0531794 0 0 1 -1.6875,2.73047 l -15,7.5 a 3.0531794,3.0531794 0 0 1 -4.41797,-2.73047 v -35.72851 a 3.0531794,3.0531794 0 0 1 4.41797,-2.73047 z m -344.86328,25.04102 h 15 a 3.0531794,3.0531794 0 0 1 3.05274,3.05273 v 15 a 3.0531794,3.0531794 0 0 1 -3.05274,3.05273 h -15 A 3.0531794,3.0531794 0 0 1 117.71094,257.5 v -15 a 3.0531794,3.0531794 0 0 1 3.05273,-3.05273 z m 280,0 h 18.49805 a 3.0531794,3.0531794 0 0 1 3.05273,3.05273 v 15 a 3.0531794,3.0531794 0 0 1 -3.05273,3.05273 H 400.76367 A 3.0531794,3.0531794 0 0 1 397.71094,257.5 v -15 a 3.0531794,3.0531794 0 0 1 3.05273,-3.05273 z m 33.5,0 h 14.99805 a 3.0531794,3.0531794 0 0 1 3.05273,3.05273 v 15 a 3.0531794,3.0531794 0 0 1 -3.05273,3.05273 H 434.26367 A 3.0531794,3.0531794 0 0 1 431.21094,257.5 v -15 a 3.0531794,3.0531794 0 0 1 3.05273,-3.05273 z" />
</g>
</svg>
