<?xml version="1.0" encoding="UTF-8" standalone="no"?>
<svg
   xml:space="preserve"
   width="70"
   height="70"
   viewBox="0 0 70 70"
   version="1.1"
   id="svg6"
   sodipodi:docname="organ_1.svg"
   inkscape:version="1.3.2 (091e20e, 2023-11-25)"
   xmlns:inkscape="http://www.inkscape.org/namespaces/inkscape"
   xmlns:sodipodi="http://sodipodi.sourceforge.net/DTD/sodipodi-0.dtd"
   xmlns="http://www.w3.org/2000/svg"
   xmlns:svg="http://www.w3.org/2000/svg"><defs
   id="defs6" /><sodipodi:namedview
   id="namedview6"
   pagecolor="#ffffff"
   bordercolor="#000000"
   borderopacity="0.25"
   inkscape:showpageshadow="2"
   inkscape:pageopacity="0.0"
   inkscape:pagecheckerboard="0"
   inkscape:deskcolor="#d1d1d1"
   inkscape:current-layer="svg6" />
    <path
   id="path1"
   d="M 1.1169922,0 A 1.1170213,1.1170213 0 0 0 0,1.1169922 V 18.244606 c 0,5.044164 5.3077557,8.271022 5.5336917,8.40581 a 1.1170213,1.1170213 0 0 0 1.1453617,0 C 6.9049893,26.515628 12.212745,23.28877 12.212745,18.244606 V 1.1169922 A 1.1170213,1.1170213 0 0 0 11.095752,0 Z M 15.824511,0 A 1.1170213,1.1170213 0 0 0 14.70752,1.1169922 V 18.244606 c 0,5.044164 5.307756,8.271022 5.53369,8.40581 a 1.1170213,1.1170213 0 0 0 1.145364,0 c 0.225935,-0.134937 5.533689,-3.361646 5.533689,-8.40581 V 1.1169922 A 1.1170213,1.1170213 0 0 0 25.803273,0 Z M 30.53186,0 A 1.1170213,1.1170213 0 0 0 29.41487,1.1169922 V 18.244606 c 0,5.044164 5.307756,8.271022 5.533689,8.40581 a 1.1170213,1.1170213 0 0 0 1.145364,0 c 0.225934,-0.134937 5.53369,-3.361646 5.53369,-8.40581 V 1.1169922 A 1.1170213,1.1170213 0 0 0 40.510623,0 Z M 45.23938,0 A 1.1170213,1.1170213 0 0 0 44.12239,1.1169922 V 18.244606 c 0,5.044164 5.307753,8.271022 5.533689,8.40581 a 1.1170213,1.1170213 0 0 0 1.145364,0 c 0.225933,-0.134937 5.533689,-3.361646 5.533689,-8.40581 V 1.1169922 A 1.1170213,1.1170213 0 0 0 55.218143,0 Z M 59.946729,0 A 1.1170213,1.1170213 0 0 0 58.829742,1.1169922 V 18.244606 c 0,5.008269 4.762917,8.241159 4.965615,8.376245 a 1.1155319,1.1155319 0 0 0 1.23919,0 C 65.237251,26.485765 70,23.252875 70,18.244606 V 1.1169922 A 1.1170213,1.1170213 0 0 0 68.883013,0 Z M 2.2339845,2.2339845 H 9.9787598 V 18.244606 c 0,2.935081 -2.6701763,5.217951 -3.8723876,6.096973 C 4.9041607,23.462706 2.2339845,21.179687 2.2339845,18.244606 Z m 14.7075205,0 h 7.744602 V 18.244606 c 0,2.935081 -2.670002,5.217951 -3.872213,6.096973 -1.202215,-0.878873 -3.872389,-3.161892 -3.872389,-6.096973 z m 14.707349,0 h 7.744774 V 18.244606 c 0,2.935081 -2.670174,5.217951 -3.872387,6.096973 -1.202213,-0.878873 -3.872387,-3.161892 -3.872387,-6.096973 z m 14.707521,0 h 7.744773 V 18.244606 c 0,2.935081 -2.670174,5.217951 -3.872387,6.096973 -1.202212,-0.878873 -3.872386,-3.161892 -3.872386,-6.096973 z m 14.70752,0 h 6.70212 V 18.244606 c 0,2.86672 -2.236349,5.101463 -3.353364,6.038867 -1.117469,-0.932639 -3.348756,-3.156359 -3.348756,-6.038867 z M 5.5851319,17.127612 a 1.1170781,1.1170781 0 0 0 0,2.234155 h 1.0424804 a 1.1170781,1.1170781 0 0 0 0,-2.234155 z m 14.7073491,0 a 1.1170781,1.1170781 0 0 0 0,2.234155 h 1.042651 a 1.1170781,1.1170781 0 0 0 0,-2.234155 z m 14.70752,0 a 1.1170781,1.1170781 0 0 0 0,2.234155 h 1.04248 a 1.1170781,1.1170781 0 0 0 0,-2.234155 z m 14.70752,0 a 1.1170781,1.1170781 0 0 0 0,2.234155 h 1.04248 a 1.1170781,1.1170781 0 0 0 0,-2.234155 z m 14.334964,0 a 1.1170781,1.1170781 0 0 0 0,2.234155 h 0.744772 a 1.1170781,1.1170781 0 0 0 0,-2.234155 z M 1.1169922,29.042481 A 1.1170213,1.1170213 0 0 0 0,30.159644 V 68.883013 A 1.1170213,1.1170213 0 0 0 1.1169922,70 H 68.883013 A 1.1170213,1.1170213 0 0 0 70,68.883013 V 30.159644 a 1.1170213,1.1170213 0 0 0 -1.116987,-1.117163 z m 1.1169923,2.234156 H 67.766015 v 17.127612 h -8.936273 v -2.978758 h 1.116987 a 1.1170213,1.1170213 0 0 0 1.117166,-1.116994 v -8.56389 h 3.350979 a 1.1170213,1.1170213 0 0 0 0,-2.233984 H 5.5851319 a 1.1170213,1.1170213 0 0 0 0,2.233984 H 8.936109 v 8.56389 a 1.1170213,1.1170213 0 0 0 1.117162,1.116994 h 1.116993 v 2.978758 H 2.2339845 Z m 8.9362795,4.46797 h 2.233985 v 7.446899 h -2.233985 z m 4.467969,0 h 2.383008 v 8.56389 a 1.1170213,1.1170213 0 0 0 1.116992,1.116994 h 1.117162 v 2.978758 h -6.851146 v -2.978758 h 1.116991 a 1.1170213,1.1170213 0 0 0 1.116993,-1.116994 z m 4.617162,0 h 2.233984 v 7.446899 h -2.233984 z m 4.46797,0 h 4.616992 v 12.659642 h -6.850978 v -2.978758 h 1.116996 a 1.1170213,1.1170213 0 0 0 1.11699,-1.116994 z m 6.851146,0 h 4.616995 v 8.56389 a 1.1170213,1.1170213 0 0 0 1.116991,1.116994 h 1.116994 v 2.978758 h -6.85098 z m 6.85098,0 h 2.234154 v 7.446899 h -2.234154 z m 4.468137,0 h 2.383009 v 8.56389 a 1.1170213,1.1170213 0 0 0 1.116991,1.116994 h 1.116995 v 2.978758 h -6.850978 v -2.978758 h 1.116992 a 1.1170213,1.1170213 0 0 0 1.116991,-1.116994 z m 4.616995,0 h 2.233983 v 7.446899 h -2.233983 z m 4.468138,0 h 2.383008 v 8.56389 a 1.1170213,1.1170213 0 0 0 1.116992,1.116994 h 1.116995 v 2.978758 h -6.85115 v -2.978758 h 1.117163 a 1.1170213,1.1170213 0 0 0 1.116992,-1.116994 z m 4.616995,0 h 2.233986 v 7.446899 H 56.595756 Z M 2.2339845,50.638233 H 67.766015 v 17.127782 h -8.936273 v -2.978758 h 1.116987 a 1.1170213,1.1170213 0 0 0 1.117166,-1.116993 v -8.563889 h 3.350979 a 1.1170213,1.1170213 0 0 0 0,-2.233985 H 5.5851319 a 1.1170213,1.1170213 0 0 0 0,2.233985 H 8.936109 v 8.563889 a 1.1170213,1.1170213 0 0 0 1.117162,1.116993 h 1.116993 v 2.978758 H 2.2339845 Z m 8.9362795,4.468142 h 2.233985 v 7.446896 h -2.233985 z m 4.467969,0 h 2.383008 v 8.563889 a 1.1170213,1.1170213 0 0 0 1.116992,1.116993 h 1.117162 v 2.978758 h -6.851146 v -2.978758 h 1.116991 a 1.1170213,1.1170213 0 0 0 1.116993,-1.116993 z m 4.617162,0 h 2.233984 v 7.446896 h -2.233984 z m 4.46797,0 h 4.616992 v 12.65964 h -6.850978 v -2.978758 h 1.116996 a 1.1170213,1.1170213 0 0 0 1.11699,-1.116993 z m 6.851146,0 h 4.616995 v 8.563889 a 1.1170213,1.1170213 0 0 0 1.116991,1.116993 h 1.116994 v 2.978758 h -6.85098 z m 6.85098,0 h 2.234154 v 7.446896 h -2.234154 z m 4.468137,0 h 2.383009 v 8.563889 a 1.1170213,1.1170213 0 0 0 1.116991,1.116993 h 1.116995 v 2.978758 h -6.850978 v -2.978758 h 1.116992 a 1.1170213,1.1170213 0 0 0 1.116991,-1.116993 z m 4.616995,0 h 2.233983 v 7.446896 h -2.233983 z m 4.468138,0 h 2.383008 v 8.563889 a 1.1170213,1.1170213 0 0 0 1.116992,1.116993 h 1.116995 v 2.978758 h -6.85115 v -2.978758 h 1.117163 a 1.1170213,1.1170213 0 0 0 1.116992,-1.116993 z m 4.616995,0 h 2.233986 v 7.446896 h -2.233986 z"
   style="stroke-width:0.999997" />
    
    
    
    
    
</svg>
