<svg xmlns="http://www.w3.org/2000/svg" xml:space="preserve" width="70" height="70">
    <path d="M1.117 0A1.117 1.117 0 0 0 0 1.117v17.128c0 5.044 5.308 8.27 5.534 8.405a1.12 1.12 0 0 0 1.145 0c.226-.134 5.534-3.361 5.534-8.405V1.117A1.117 1.117 0 0 0 11.096 0Zm14.708 0a1.117 1.117 0 0 0-1.117 1.117v17.128c0 5.044 5.307 8.27 5.533 8.405a1.12 1.12 0 0 0 1.146 0c.226-.135 5.533-3.361 5.533-8.405V1.117A1.117 1.117 0 0 0 25.803 0Zm14.707 0a1.117 1.117 0 0 0-1.117 1.117v17.128c0 5.044 5.308 8.27 5.534 8.405a1.12 1.12 0 0 0 1.145 0c.226-.135 5.534-3.361 5.534-8.405V1.117A1.117 1.117 0 0 0 40.51 0Zm14.707 0a1.117 1.117 0 0 0-1.117 1.117v17.128c0 5.044 5.308 8.27 5.534 8.405a1.12 1.12 0 0 0 1.145 0c.226-.135 5.534-3.361 5.534-8.405V1.117A1.117 1.117 0 0 0 55.218 0Zm14.708 0a1.117 1.117 0 0 0-1.117 1.117v17.128c0 5.008 4.763 8.24 4.965 8.376a1.12 1.12 0 0 0 1.24 0c.202-.135 4.965-3.368 4.965-8.376V1.117A1.117 1.117 0 0 0 68.883 0ZM2.234 2.234h7.745v16.01c0 2.936-2.67 5.219-3.873 6.098-1.202-.88-3.872-3.162-3.872-6.097Zm14.708 0h7.744v16.01c0 2.936-2.67 5.219-3.872 6.098-1.202-.88-3.872-3.162-3.872-6.097zm14.707 0h7.745v16.01c0 2.936-2.67 5.219-3.873 6.098-1.202-.88-3.872-3.162-3.872-6.097zm14.707 0h7.745v16.01c0 2.936-2.67 5.219-3.872 6.098-1.202-.88-3.873-3.162-3.873-6.097zm14.708 0h6.702v16.01c0 2.867-2.236 5.102-3.353 6.04-1.118-.933-3.35-3.157-3.35-6.04zM5.585 17.128a1.117 1.117 0 0 0 0 2.234h1.043a1.117 1.117 0 0 0 0-2.234zm14.707 0a1.117 1.117 0 0 0 0 2.234h1.043a1.117 1.117 0 0 0 0-2.234zm14.708 0a1.117 1.117 0 0 0 0 2.234h1.042a1.117 1.117 0 0 0 0-2.234zm14.708 0a1.117 1.117 0 0 0 0 2.234h1.042a1.117 1.117 0 0 0 0-2.234zm14.334 0a1.117 1.117 0 0 0 0 2.234h.745a1.117 1.117 0 0 0 0-2.234zM1.117 29.042A1.117 1.117 0 0 0 0 30.16v38.723A1.117 1.117 0 0 0 1.117 70h67.766A1.117 1.117 0 0 0 70 68.883V30.16a1.117 1.117 0 0 0-1.117-1.118zm1.117 2.235h65.532v17.127H58.83v-2.979h1.117a1.117 1.117 0 0 0 1.117-1.117v-8.563h3.35a1.117 1.117 0 0 0 0-2.234H5.586a1.117 1.117 0 0 0 0 2.234h3.351v8.563a1.117 1.117 0 0 0 1.117 1.117h1.117v2.98H2.234Zm8.936 4.468h2.234v7.447H11.17zm4.468 0h2.383v8.563a1.117 1.117 0 0 0 1.117 1.117h1.117v2.98h-6.85v-2.98h1.116a1.117 1.117 0 0 0 1.117-1.117zm4.617 0h2.234v7.447h-2.234zm4.468 0h4.617v12.66h-6.85v-2.98h1.116a1.117 1.117 0 0 0 1.117-1.117zm6.852 0h4.617v8.563a1.117 1.117 0 0 0 1.116 1.117h1.117v2.98h-6.85zm6.85 0h2.235v7.447h-2.235zm4.469 0h2.383v8.563a1.117 1.117 0 0 0 1.117 1.117h1.117v2.98H40.66v-2.98h1.117a1.117 1.117 0 0 0 1.117-1.117zm4.617 0h2.234v7.447H47.51zm4.468 0h2.383v8.563a1.117 1.117 0 0 0 1.117 1.117h1.117v2.98h-6.851v-2.98h1.117a1.117 1.117 0 0 0 1.117-1.117zm4.617 0h2.234v7.447h-2.234ZM2.234 50.638h65.532v17.128H58.83v-2.979h1.117a1.117 1.117 0 0 0 1.117-1.117v-8.564h3.35a1.117 1.117 0 0 0 0-2.234H5.586a1.117 1.117 0 0 0 0 2.234h3.351v8.564a1.117 1.117 0 0 0 1.117 1.117h1.117v2.979H2.234Zm8.936 4.468h2.234v7.447H11.17zm4.468 0h2.383v8.564a1.117 1.117 0 0 0 1.117 1.117h1.117v2.979h-6.85v-2.979h1.116a1.117 1.117 0 0 0 1.117-1.117zm4.617 0h2.234v7.447h-2.234zm4.468 0h4.617v12.66h-6.85v-2.979h1.116a1.117 1.117 0 0 0 1.117-1.117zm6.852 0h4.617v8.564a1.117 1.117 0 0 0 1.116 1.117h1.117v2.979h-6.85zm6.85 0h2.235v7.447h-2.235zm4.469 0h2.383v8.564a1.117 1.117 0 0 0 1.117 1.117h1.117v2.979H40.66v-2.979h1.117a1.117 1.117 0 0 0 1.117-1.117zm4.617 0h2.234v7.447H47.51zm4.468 0h2.383v8.564a1.117 1.117 0 0 0 1.117 1.117h1.117v2.979h-6.851v-2.979h1.117a1.117 1.117 0 0 0 1.117-1.117zm4.617 0h2.234v7.447h-2.234z" style="stroke-width:.999997"/>
</svg>
