<?xml version="1.0" encoding="UTF-8" standalone="no"?>
<!-- Uploaded to: SVG Repo, www.svgrepo.com, Generator: SVG Repo Mixer Tools -->

<svg
   fill="#000000"
   height="50"
   width="50"
   version="1.1"
   id="Capa_1"
   viewBox="0 0 50 50"
   xml:space="preserve"
   sodipodi:docname="pan_1.svg"
   inkscape:version="1.3.2 (091e20e, 2023-11-25)"
   xmlns:inkscape="http://www.inkscape.org/namespaces/inkscape"
   xmlns:sodipodi="http://sodipodi.sourceforge.net/DTD/sodipodi-0.dtd"
   xmlns="http://www.w3.org/2000/svg"
   xmlns:svg="http://www.w3.org/2000/svg"><defs
   id="defs5">
	
	
	
	
	
</defs><sodipodi:namedview
   id="namedview5"
   pagecolor="#ffffff"
   bordercolor="#000000"
   borderopacity="0.25"
   inkscape:showpageshadow="2"
   inkscape:pageopacity="0.0"
   inkscape:pagecheckerboard="0"
   inkscape:deskcolor="#d1d1d1"
   inkscape:current-layer="Capa_1" />
<path
   id="path1"
   style="stroke-width:0.111789"
   d="M 45.642578 0 C 44.478044 0 43.382051 0.45392193 42.558594 1.2773438 L 36.603516 7.2324219 C 35.779946 8.0558436 35.326172 9.1499699 35.326172 10.314453 C 35.326172 10.577935 35.350984 10.837817 35.396484 11.091797 L 28.820312 17.667969 C 21.777106 12.341438 11.677386 12.885612 5.2597656 19.302734 C -1.7534808 26.315793 -1.7534808 37.727063 5.2597656 44.740234 C 8.7665595 48.246762 13.372254 50 17.978516 50 C 22.584666 50 27.19254 48.246762 30.699219 44.740234 C 34.096676 41.342921 35.966797 36.82586 35.966797 32.021484 C 35.966797 28.055288 34.690104 24.285795 32.333984 21.179688 L 38.912109 14.603516 C 39.168224 14.649456 39.426079 14.673828 39.685547 14.673828 C 40.80201 14.673828 41.91958 14.248354 42.769531 13.398438 L 48.724609 7.4433594 C 50.424402 5.7434171 50.424513 2.9771743 48.724609 1.2773438 C 47.901152 0.45392393 46.807111 0 45.642578 0 z M 45.642578 1.5644531 C 46.389121 1.5644531 47.09126 1.8549551 47.619141 2.3828125 C 48.708774 3.4723987 48.708774 5.2463514 47.619141 6.3359375 L 41.662109 12.291016 C 40.572476 13.380491 38.800793 13.380826 37.710938 12.291016 C 37.182946 11.763159 36.890625 11.060965 36.890625 10.314453 C 36.890625 9.5679408 37.183058 8.8677011 37.710938 8.3398438 L 43.666016 2.3828125 C 44.193784 1.8550669 44.896033 1.5644531 45.642578 1.5644531 z M 45.800781 3.3867188 C 45.058301 3.4153046 44.733636 4.5125937 45.5 4.8730469 C 45.812569 5.0200465 46.198845 4.9414926 46.425781 4.6796875 C 46.866163 4.1717381 46.488671 3.3602507 45.800781 3.3867188 z M 36.023438 12.679688 C 36.18956 12.936014 36.382392 13.177324 36.603516 13.398438 C 36.826428 13.62134 37.067492 13.814077 37.322266 13.978516 L 31.332031 19.96875 C 31.127117 19.742381 30.916765 19.52016 30.699219 19.302734 C 30.481337 19.084863 30.257405 18.87438 30.03125 18.669922 L 36.023438 12.679688 z M 17.978516 15.607422 C 22.183446 15.607422 26.390644 17.209139 29.591797 20.410156 C 32.693679 23.511793 34.402344 27.635082 34.402344 32.021484 C 34.402344 36.407776 32.693679 40.531063 29.591797 43.632812 C 23.188821 50.035738 12.770164 50.035403 6.3671875 43.632812 C -0.035900337 37.229886 -0.035788547 26.81297 6.3671875 20.410156 C 9.5692345 17.208356 13.772581 15.607422 17.978516 15.607422 z M 17.978516 17.027344 C 13.973023 17.027344 10.207352 18.585851 7.375 21.417969 C 1.5282989 27.264532 1.5282989 36.778437 7.375 42.625 C 10.207352 45.457119 13.973023 47.015625 17.978516 47.015625 C 21.98401 47.015625 25.749679 45.457231 28.582031 42.625 C 34.428732 36.778549 34.428732 27.264532 28.582031 21.417969 C 25.749679 18.585851 21.98401 17.027344 17.978516 17.027344 z M 17.978516 18.591797 C 21.565909 18.591797 24.94001 19.988837 27.476562 22.525391 C 32.713104 27.76171 32.713104 36.281259 27.476562 41.517578 C 24.94001 44.054133 21.565909 45.451172 17.978516 45.451172 C 14.391124 45.451172 11.018973 44.054133 8.4824219 41.517578 C 3.2458794 36.281259 3.2458794 27.76171 8.4824219 22.525391 C 11.018973 19.988837 14.391124 18.591797 17.978516 18.591797 z M 10.349609 23.609375 C 9.9174234 23.609375 9.5664063 23.96041 9.5664062 24.392578 L 9.5664062 28.880859 C 9.5664062 30.231803 9.9619332 31.538658 10.710938 32.658203 C 11.978095 34.552207 14.092341 35.681641 16.367188 35.681641 L 19.298828 35.681641 C 18.822372 36.545865 18.568359 37.520914 18.568359 38.535156 C 18.568359 40.117723 19.185543 41.605511 20.304688 42.724609 C 20.45147 42.871386 20.649936 42.953125 20.857422 42.953125 C 21.064908 42.953125 21.263373 42.871275 21.410156 42.724609 C 22.96473 41.169991 23.471423 38.96022 22.933594 36.976562 C 23.443475 37.114842 23.969167 37.185547 24.494141 37.185547 C 26.011264 37.185547 27.528451 36.608219 28.683594 35.453125 C 28.98912 35.147611 28.98912 34.651216 28.683594 34.345703 C 27.564448 33.226605 26.076886 32.611328 24.494141 32.611328 C 23.479855 32.611328 22.504999 32.865361 21.640625 33.341797 L 21.640625 30.410156 C 21.640625 28.135853 20.510154 26.021122 18.617188 24.753906 C 17.499271 24.004712 16.191687 23.609375 14.837891 23.609375 L 10.349609 23.609375 z M 11.130859 25.173828 L 14.837891 25.173828 C 15.713666 25.173828 16.563311 25.390525 17.322266 25.800781 C 16.7604 28.605401 14.562217 30.802 11.757812 31.363281 C 11.347313 30.603355 11.130859 29.754809 11.130859 28.880859 L 11.130859 25.173828 z M 18.673828 26.847656 C 19.564471 27.806227 20.074219 29.072068 20.074219 30.410156 L 20.074219 34.117188 L 16.367188 34.117188 C 15.028708 34.117188 13.763189 33.607851 12.804688 32.716797 C 15.627537 31.888122 17.844447 29.670496 18.673828 26.847656 z M 13.662109 26.976562 A 0.8180806 0.8180806 0 0 0 12.84375 27.794922 A 0.8180806 0.8180806 0 0 0 13.662109 28.613281 A 0.8180806 0.8180806 0 0 0 14.480469 27.794922 A 0.8180806 0.8180806 0 0 0 13.662109 26.976562 z M 24.494141 34.175781 C 25.36332 34.175781 26.192749 34.428039 26.900391 34.898438 C 25.447099 35.861259 23.539117 35.861147 22.085938 34.898438 C 22.793579 34.428039 23.625071 34.175781 24.494141 34.175781 z M 20.857422 36.128906 C 21.820171 37.582136 21.820171 39.490242 20.857422 40.943359 C 20.38689 40.235748 20.132812 39.404187 20.132812 38.535156 C 20.132812 37.666014 20.38689 36.836518 20.857422 36.128906 z " />
</svg>
