<svg xmlns="http://www.w3.org/2000/svg" xml:space="preserve" width="50" height="50">
    <path d="M45.643 0c-1.165 0-2.26.454-3.084 1.277l-5.955 5.955a4.33 4.33 0 0 0-1.208 3.86l-6.576 6.576c-7.043-5.327-17.143-4.782-23.56 1.635-7.013 7.013-7.013 18.424 0 25.437A17.93 17.93 0 0 0 17.979 50c4.606 0 9.214-1.753 12.72-5.26a17.87 17.87 0 0 0 5.268-12.719 17.85 17.85 0 0 0-3.633-10.841l6.578-6.576q.384.069.774.07a4.35 4.35 0 0 0 3.084-1.276l5.955-5.955c1.7-1.7 1.7-4.466 0-6.166A4.33 4.33 0 0 0 45.643 0m0 1.564c.746 0 1.448.291 1.976.819a2.8 2.8 0 0 1 0 3.953l-5.957 5.955a2.797 2.797 0 0 1-4.771-1.977c0-.746.292-1.446.82-1.974l5.955-5.957a2.78 2.78 0 0 1 1.977-.819m.158 1.823c-.743.028-1.067 1.126-.301 1.486a.79.79 0 0 0 .926-.193c.44-.508.063-1.32-.625-1.293m-9.778 9.293a4.4 4.4 0 0 0 1.3 1.299l-5.991 5.99a18 18 0 0 0-1.3-1.3zM17.98 15.607c4.204 0 8.412 1.602 11.613 4.803a16.3 16.3 0 0 1 4.81 11.611c0 4.387-1.708 8.51-4.81 11.612-6.403 6.403-16.822 6.402-23.225 0s-6.403-16.82 0-23.223a16.37 16.37 0 0 1 11.612-4.803m0 1.42a14.9 14.9 0 0 0-10.604 4.391c-5.847 5.847-5.847 15.36 0 21.207a14.9 14.9 0 0 0 10.604 4.39c4.005 0 7.77-1.558 10.603-4.39 5.847-5.846 5.847-15.36 0-21.207a14.9 14.9 0 0 0-10.603-4.39m0 1.565c3.587 0 6.961 1.397 9.498 3.933 5.236 5.237 5.236 13.756 0 18.993a13.35 13.35 0 0 1-9.498 3.933c-3.588 0-6.96-1.397-9.497-3.933-5.236-5.237-5.236-13.756 0-18.993a13.34 13.34 0 0 1 9.497-3.933m-7.63 5.017a.784.784 0 0 0-.783.784v4.488c0 1.35.396 2.658 1.145 3.777a6.8 6.8 0 0 0 5.656 3.024H19.3a5.9 5.9 0 0 0-.73 2.853c0 1.583.617 3.07 1.736 4.19a.78.78 0 0 0 1.105 0 5.93 5.93 0 0 0 1.524-5.748c.51.138 1.035.209 1.56.209a5.9 5.9 0 0 0 4.19-1.733.784.784 0 0 0 0-1.107 5.9 5.9 0 0 0-4.19-1.735 5.9 5.9 0 0 0-2.853.73v-2.93a6.797 6.797 0 0 0-6.803-6.802zm.782 1.565h3.707c.876 0 1.725.217 2.484.627a7.1 7.1 0 0 1-5.564 5.562 5.2 5.2 0 0 1-.627-2.482zm7.543 1.674c.89.958 1.4 2.224 1.4 3.562v3.707h-3.707a5.23 5.23 0 0 1-3.562-1.4 8.67 8.67 0 0 0 5.869-5.87m-5.012.129a.82.82 0 0 0-.818.818.82.82 0 0 0 .818.818.82.82 0 0 0 .818-.818.82.82 0 0 0-.818-.818m10.832 7.199c.87 0 1.699.252 2.406.722a4.37 4.37 0 0 1-4.814 0 4.33 4.33 0 0 1 2.408-.722m-3.637 1.953a4.37 4.37 0 0 1 0 4.814 4.33 4.33 0 0 1-.724-2.408c0-.869.254-1.698.724-2.406" style="stroke-width:.111789"/>
</svg>
