<svg xmlns="http://www.w3.org/2000/svg" xml:space="preserve" width="60" height="60">
    <path d="M18.724 0a1.917 1.917 0 0 0-1.915 1.915 1.914 1.914 0 0 0 3.57.957h21.855a.957.957 0 1 0 0-1.915H20.379A1.91 1.91 0 0 0 18.724 0M.957 5.745A.957.957 0 0 0 0 6.702v7.66c0 .529.429.957.957.957H3.83v2.872c0 .53.428.958.957.958h22.34v11.49h-.318a.957.957 0 1 0 0 1.914h.319v5.745L13.915 55.915a.958.958 0 0 0 1.532 1.149l7.354-9.806 4.856 2.428.016.007.072.03.027.01a1 1 0 0 0 .182.044l.025.004q.052.006.106.006h3.83a1 1 0 0 0 .106-.006q.013-.001.025-.004a1 1 0 0 0 .28-.084l.017-.007 4.856-2.428 7.354 9.806a.956.956 0 0 0 1.34.191.96.96 0 0 0 .192-1.34L32.872 38.298v-19.15h22.34a.957.957 0 0 0 .958-.957V15.32h2.873a.957.957 0 0 0 .957-.957v-7.66a.957.957 0 0 0-.957-.957h-16.81a.957.957 0 0 0-.957.957v6.702h-1.914V6.702a.957.957 0 0 0-.958-.957H21.596a.957.957 0 0 0-.958.957v6.702h-1.914V6.702a.957.957 0 0 0-.958-.957zm.958 1.915h14.894v5.744H1.915Zm20.638 0h14.894v5.744H22.553Zm20.638 0h14.894v5.744H43.191ZM4.787 9.574a.957.957 0 1 0 0 1.915h9.15a.957.957 0 1 0 0-1.915zm20.639 0a.957.957 0 1 0 0 1.915h9.148a.957.957 0 1 0 0-1.915zm20.638 0a.957.957 0 1 0 0 1.915h9.149a.957.957 0 1 0 0-1.915zM5.744 15.32h48.511v1.915H5.745Zm23.299 3.83h1.914v8.298h-1.914zm0 10.213h1.914v4.468h-1.914zm0 6.383h1.914v12.127h-1.914zm-1.915 5.744v5.792l-3.16-1.58zm5.744 0 3.16 4.212-3.16 1.58z" style="stroke-width:.999996"/>
</svg>
