<?xml version="1.0" encoding="UTF-8" standalone="no"?>
<!-- Uploaded to: SVG Repo, www.svgrepo.com, Generator: SVG Repo Mixer Tools -->

<svg
   fill="#000000"
   height="60"
   width="60"
   version="1.1"
   id="Layer_1"
   viewBox="0 0 60 60"
   xml:space="preserve"
   sodipodi:docname="percussion_1.svg"
   inkscape:version="1.3.2 (091e20e, 2023-11-25)"
   xmlns:inkscape="http://www.inkscape.org/namespaces/inkscape"
   xmlns:sodipodi="http://sodipodi.sourceforge.net/DTD/sodipodi-0.dtd"
   xmlns="http://www.w3.org/2000/svg"
   xmlns:svg="http://www.w3.org/2000/svg"><defs
   id="defs7">
	

		
	
			
			
			
			
			
		</defs><sodipodi:namedview
   id="namedview7"
   pagecolor="#ffffff"
   bordercolor="#000000"
   borderopacity="0.25"
   inkscape:showpageshadow="2"
   inkscape:pageopacity="0.0"
   inkscape:pagecheckerboard="0"
   inkscape:deskcolor="#d1d1d1"
   inkscape:current-layer="Layer_1" />
<path
   id="path1"
   d="m 18.72357,0 c -1.055872,0 -1.914894,0.85902228 -1.914894,1.9148935 0,1.0558713 0.859022,1.9148935 1.914894,1.9148935 0.706976,0 1.324046,-0.386043 1.655833,-0.9574468 h 21.85447 c 0.528894,0 0.957447,-0.4285536 0.957447,-0.9574467 0,-0.5288931 -0.428553,-0.95744676 -0.957447,-0.95744676 H 20.379403 C 20.047743,0.3860431 19.430546,0 18.72357,0 Z M 0.95744674,5.7446804 C 0.42855369,5.7446804 0,6.1732342 0,6.7021272 v 7.6595748 c 0,0.528893 0.42855369,0.957446 0.95744674,0.957446 H 3.829787 v 2.872341 c 0,0.528893 0.4285536,0.957446 0.9574468,0.957446 H 27.127658 v 11.489361 h -0.319149 c -0.528894,0 -0.957447,0.428553 -0.957447,0.957446 0,0.528894 0.428553,0.957447 0.957447,0.957447 h 0.319149 V 38.29787 L 13.914893,55.91489 c -0.317234,0.422936 -0.231447,1.023191 0.191489,1.340426 0.172341,0.129191 0.373933,0.191488 0.57372,0.191488 0.291064,0 0.578536,-0.132126 0.766706,-0.382977 l 7.354138,-9.805603 4.85605,2.427776 c 0.0054,0.0027 0.0111,0.0047 0.01646,0.0072 0.02324,0.01111 0.04705,0.02148 0.07131,0.03067 0.0092,0.0035 0.01849,0.0066 0.02768,0.01 0.02439,0.0084 0.04915,0.01593 0.0743,0.02244 0.0092,0.0024 0.01849,0.0048 0.02768,0.007 0.02617,0.0058 0.05273,0.01039 0.07953,0.01396 0.0084,0.0011 0.01663,0.0029 0.02518,0.0037 0.03485,0.0038 0.07009,0.0062 0.105968,0.0062 h 3.829787 c 0.03588,0 0.07112,-0.0024 0.105967,-0.0062 0.0084,-8.95e-4 0.01676,-0.0026 0.02518,-0.0037 0.02681,-0.0037 0.05349,-0.0081 0.07953,-0.01396 0.0093,-0.0022 0.01849,-0.0046 0.02768,-0.007 0.02528,-0.0065 0.04992,-0.01402 0.0743,-0.02244 0.0093,-0.0032 0.01849,-0.0065 0.02768,-0.01 0.02425,-0.0093 0.04795,-0.01944 0.07131,-0.03067 0.0055,-0.0026 0.0111,-0.0045 0.01646,-0.0072 l 4.85605,-2.427776 7.354138,9.805603 c 0.18817,0.250851 0.475642,0.382977 0.766705,0.382977 0.199788,0 0.401636,-0.0623 0.573721,-0.191488 0.422936,-0.317235 0.508723,-0.91749 0.191489,-1.340426 L 32.872342,38.29787 V 19.148935 h 22.340424 c 0.528894,0 0.957447,-0.428553 0.957447,-0.957446 v -2.872341 h 2.87234 C 59.571447,15.319148 60,14.890595 60,14.361702 V 6.7021272 C 60,6.1732342 59.571447,5.7446804 59.042553,5.7446804 h -16.80868 c -0.528891,0 -0.957447,0.4285538 -0.957447,0.9574468 V 13.404255 H 39.361533 V 6.7021272 c 0,-0.528893 -0.428553,-0.9574468 -0.957447,-0.9574468 H 21.59591 c -0.528894,0 -0.957447,0.4285538 -0.957447,0.9574468 V 13.404255 H 18.72357 V 6.7021272 c 0,-0.528893 -0.428555,-0.9574468 -0.957447,-0.9574468 z M 1.9148935,7.659574 H 16.808676 v 5.744681 H 1.9148935 Z m 20.6384635,0 h 14.893282 v 5.744681 H 22.553357 Z m 20.637963,0 h 14.893782 v 5.744681 H 43.19132 Z M 4.7872338,9.5744675 c -0.5288932,0 -0.9574468,0.4285535 -0.9574468,0.9574465 0,0.528893 0.4285536,0.957447 0.9574468,0.957447 h 9.1491022 c 0.528892,0 0.957446,-0.428554 0.957446,-0.957447 0,-0.528893 -0.428554,-0.9574465 -0.957446,-0.9574465 z m 20.6384632,0 c -0.528894,0 -0.957447,0.4285535 -0.957447,0.9574465 0,0.528893 0.428553,0.957447 0.957447,0.957447 h 9.148602 c 0.528894,0 0.957447,-0.428554 0.957447,-0.957447 0,-0.528893 -0.428553,-0.9574465 -0.957447,-0.9574465 z m 20.637963,0 c -0.528892,0 -0.957446,0.4285535 -0.957446,0.9574465 0,0.528893 0.428554,0.957447 0.957446,0.957447 h 9.149102 c 0.528894,0 0.957447,-0.428554 0.957447,-0.957447 0,-0.528893 -0.428553,-0.9574465 -0.957447,-0.9574465 z M 5.7446804,15.319148 H 54.255315 v 1.914894 H 5.7446804 Z m 23.2978716,3.829787 h 1.914893 v 8.297872 h -1.914893 z m 0,10.212765 h 1.914893 v 4.468085 h -1.914893 z m 0,6.382978 h 1.914893 v 12.12766 h -1.914893 z m -1.914894,5.744681 v 5.791305 l -3.158826,-1.579536 z m 5.74468,0 3.158826,4.211769 -3.158826,1.579536 z"
   style="stroke-width:0.999996" />
</svg>
