<?xml version="1.0" encoding="UTF-8" standalone="no"?>
<!-- Uploaded to: SVG Repo, www.svgrepo.com, Generator: SVG Repo Mixer Tools -->

<svg
   height="40"
   width="40"
   version="1.1"
   id="_x32_"
   viewBox="0 0 40 40"
   xml:space="preserve"
   sodipodi:docname="phones_4.svg"
   inkscape:version="1.3.2 (091e20e, 2023-11-25)"
   xmlns:inkscape="http://www.inkscape.org/namespaces/inkscape"
   xmlns:sodipodi="http://sodipodi.sourceforge.net/DTD/sodipodi-0.dtd"
   xmlns="http://www.w3.org/2000/svg"
   xmlns:svg="http://www.w3.org/2000/svg"><defs
   id="defs3">
	
	
	
</defs><sodipodi:namedview
   id="namedview3"
   pagecolor="#ffffff"
   bordercolor="#000000"
   borderopacity="0.25"
   inkscape:showpageshadow="2"
   inkscape:pageopacity="0.0"
   inkscape:pagecheckerboard="0"
   inkscape:deskcolor="#d1d1d1"
   inkscape:current-layer="_x32_" />
<style
   type="text/css"
   id="style1">
	.st0{fill:#000000;}
</style>
<path
   id="path1"
   class="st0"
   d="M 20.000341,3.2030377e-7 C 15.937615,-7.028032e-4 12.119733,1.1562365 8.8995826,3.1549043 5.6761516,5.1542753 3.0383185,7.9893843 1.2734001,11.363361 l -0.86776639,1.658781 c -0.3360149,0.6425 -0.089014,1.43681 0.5546564,1.773528 l 0.59753359,0.311584 c -0.62124879,1.899605 -0.96267599,3.926799 -0.96267599,6.034997 0.00328,2.480698 0.57458619,4.917793 1.21841309,7.074273 0.6430455,2.146558 1.3726429,4.039633 1.7160016,5.265803 L 6.3171877,32.695279 C 5.9039073,31.242704 5.1934114,29.413719 4.5865376,27.385989 3.979742,25.364899 3.4884992,23.168732 3.4924836,21.142251 c 0,-1.624293 0.2370387,-3.190446 0.6735222,-4.672083 l 0.1123046,0.06073 c 0.6437487,0.334766 1.4367493,0.08725 1.7727643,-0.555876 L 6.9186886,14.315629 C 8.1521236,11.956415 10.005565,9.96578 12.257123,8.5705478 14.509307,7.1753166 17.145116,6.372384 20.000188,6.371759 c 2.854369,6.25e-4 5.490882,0.8036358 7.743064,2.1987888 2.251011,1.395154 4.10439,3.3858672 5.337825,5.7450812 l 0.867766,1.659392 c 0.336093,0.643045 1.129641,0.890564 1.772765,0.555876 l 0.112304,-0.06073 c 0.436405,1.481637 0.674132,3.04779 0.674132,4.672083 0.0033,2.026403 -0.487396,4.222648 -1.094817,6.243738 -0.60617,2.02773 -1.317138,3.856715 -1.730497,5.30929 l 2.787625,0.787048 c 0.343359,-1.22617 1.073031,-3.119245 1.716155,-5.265803 0.643748,-2.156402 1.21553,-4.593575 1.218108,-7.074273 0,-2.108277 -0.341428,-4.135392 -0.962676,-6.034997 l 0.597533,-0.311584 c 0.643671,-0.336718 0.890735,-1.131028 0.555267,-1.773528 l -0.867614,-1.65878 C 36.961506,7.9893843 34.323692,5.1542753 31.100183,3.1549043 27.880033,1.1562365 24.062363,-7.028032e-4 20.000341,3.2030377e-7 Z M 9.9493856,23.117652 c -0.123811,0.0057 -0.248438,0.01786 -0.373687,0.03647 -2.004605,0.295155 -3.3886142,2.161817 -3.0914273,4.165797 l 1.4155563,9.549704 c 0.297187,2.003902 2.1618034,3.387788 4.1664094,3.090054 2.003979,-0.296484 3.3873,-2.1611 3.090817,-4.166408 l -1.414947,-9.549551 c -0.279198,-1.87939 -1.935549,-3.212154 -3.7927214,-3.126065 z m 20.1017564,0 c -1.857171,-0.08609 -3.513522,1.246675 -3.792721,3.126065 l -1.415709,9.549551 c -0.29578,2.00523 1.086897,3.869924 3.09158,4.166408 2.003903,0.297812 3.868597,-1.086074 4.166408,-3.090054 l 1.415557,-9.549704 c 0.297109,-2.00398 -1.087526,-3.870642 -3.091428,-4.165797 -0.125249,-0.01861 -0.249876,-0.03073 -0.373687,-0.03647 z"
   style="stroke-width:0.999999" />
</svg>
