<?xml version="1.0" encoding="UTF-8" standalone="no"?>
<!-- Uploaded to: SVG Repo, www.svgrepo.com, Generator: SVG Repo Mixer Tools -->

<svg
   width="100"
   height="100"
   viewBox="0 0 100 100"
   fill="none"
   version="1.1"
   id="svg8"
   sodipodi:docname="phones_3.svg"
   inkscape:version="1.3.2 (091e20e, 2023-11-25)"
   xmlns:inkscape="http://www.inkscape.org/namespaces/inkscape"
   xmlns:sodipodi="http://sodipodi.sourceforge.net/DTD/sodipodi-0.dtd"
   xmlns="http://www.w3.org/2000/svg"
   xmlns:svg="http://www.w3.org/2000/svg">
  <defs
     id="defs8" />
  <sodipodi:namedview
     id="namedview8"
     pagecolor="#ffffff"
     bordercolor="#000000"
     borderopacity="0.25"
     inkscape:showpageshadow="2"
     inkscape:pageopacity="0.0"
     inkscape:pagecheckerboard="0"
     inkscape:deskcolor="#d1d1d1"
     inkscape:current-layer="svg8" />
  <g
     id="g7"
     transform="matrix(4.1667438,0,0,4.1667438,0.20657824,-1.294149)">
    <g
       id="g1">
      <path
         opacity="0.4"
         d="M 15.5,21.9998 V 7.21973"
         stroke="#292d32"
         stroke-width="1.5"
         stroke-miterlimit="10"
         stroke-linecap="round"
         stroke-linejoin="round"
         id="path1" />
      <path
         d="m 13.9004,5.29999 c 0,0.49 0.2,0.95002 0.53,1.27002 0.32,0.33 0.77,0.52997 1.27,0.52997 h 2.25 C 17.6704,6.72998 17.5004,6.25 17.5004,5.75 V 4.84998 c 0,-0.5 0.17,-0.97998 0.45,-1.34998 h -2.25 c -0.99,0 -1.8,0.80999 -1.8,1.79999 z"
         stroke="#292d32"
         stroke-width="1.5"
         stroke-miterlimit="10"
         stroke-linecap="round"
         stroke-linejoin="round"
         id="path4" />
      <path
         d="m 17.5,4.85002 v 0.90003 c 0,0.5 0.17,0.97997 0.45,1.34997 0.76,1.01 2.32,1.35 3.77,0.06 C 21.88,7.02002 22,6.72005 22,6.50005 V 4.16002 c 0,-0.19 -0.1,-0.46999 -0.23,-0.60999 -1.26,-1.32 -2.78,-1.12998 -3.61,-0.29998 -0.07,0.07 -0.14,0.14999 -0.21,0.23999 -0.28,0.38 -0.45,0.85998 -0.45,1.35998 z"
         stroke="#292d32"
         stroke-width="1.5"
         stroke-miterlimit="10"
         stroke-linecap="round"
         stroke-linejoin="round"
         id="path5" />
    </g>
    <g
       id="g6"
       transform="matrix(-1,0,0,1,23.9004,0)">
      <path
         opacity="0.4"
         d="M 15.5,21.9998 V 7.21973"
         stroke="#292d32"
         stroke-width="1.5"
         stroke-miterlimit="10"
         stroke-linecap="round"
         stroke-linejoin="round"
         id="path2" />
      <path
         d="m 13.9004,5.29999 c 0,0.49 0.2,0.95002 0.53,1.27002 0.32,0.33 0.77,0.52997 1.27,0.52997 h 2.25 C 17.6704,6.72998 17.5004,6.25 17.5004,5.75 V 4.84998 c 0,-0.5 0.17,-0.97998 0.45,-1.34998 h -2.25 c -0.99,0 -1.8,0.80999 -1.8,1.79999 z"
         stroke="#292d32"
         stroke-width="1.5"
         stroke-miterlimit="10"
         stroke-linecap="round"
         stroke-linejoin="round"
         id="path3" />
      <path
         d="m 17.5,4.85002 v 0.90003 c 0,0.5 0.17,0.97997 0.45,1.34997 0.76,1.01 2.32,1.35 3.77,0.06 C 21.88,7.02002 22,6.72005 22,6.50005 V 4.16002 c 0,-0.19 -0.1,-0.46999 -0.23,-0.60999 -1.26,-1.32 -2.78,-1.12998 -3.61,-0.29998 -0.07,0.07 -0.14,0.14999 -0.21,0.23999 -0.28,0.38 -0.45,0.85998 -0.45,1.35998 z"
         stroke="#292d32"
         stroke-width="1.5"
         stroke-miterlimit="10"
         stroke-linecap="round"
         stroke-linejoin="round"
         id="path6" />
    </g>
  </g>
</svg>
