<svg xmlns="http://www.w3.org/2000/svg" width="100" height="100" fill="none">
    <g stroke="#292d32" stroke-linecap="round" stroke-linejoin="round" stroke-miterlimit="10" stroke-width="6.25">
        <path d="M64.791 90.373V28.79" opacity=".4"/>
        <path d="M58.126 20.79c0 2.041.833 3.958 2.208 5.291 1.334 1.375 3.209 2.209 5.292 2.209h9.375a9.4 9.4 0 0 1-1.875-5.625v-3.75c0-2.084.709-4.084 1.875-5.626h-9.375c-4.125 0-7.5 3.375-7.5 7.5"/>
        <path d="M73.125 18.915v3.75c0 2.083.708 4.083 1.875 5.625 3.166 4.208 9.666 5.625 15.708.25.667-.584 1.167-1.833 1.167-2.75v-9.75c0-.792-.417-1.959-.958-2.542-5.25-5.5-11.584-4.708-15.042-1.25q-.438.438-.875 1a9.63 9.63 0 0 0-1.875 5.667"/>
        <path d="M35.209 90.373V28.79" opacity=".4"/>
        <path d="M41.874 20.79c0 2.041-.833 3.958-2.208 5.291-1.334 1.375-3.209 2.209-5.292 2.209h-9.375a9.4 9.4 0 0 0 1.875-5.625v-3.75a9.4 9.4 0 0 0-1.875-5.626h9.375c4.125 0 7.5 3.375 7.5 7.5"/>
        <path d="M26.875 18.915v3.75A9.4 9.4 0 0 1 25 28.29c-3.166 4.208-9.666 5.625-15.708.25-.667-.584-1.167-1.833-1.167-2.75v-9.75c0-.792.417-1.959.958-2.542 5.25-5.5 11.584-4.708 15.042-1.25q.438.438.875 1a9.63 9.63 0 0 1 1.875 5.667"/>
    </g>
</svg>
