<?xml version="1.0" encoding="UTF-8" standalone="no"?>
<!-- Uploaded to: SVG Repo, www.svgrepo.com, Generator: SVG Repo Mixer Tools -->

<svg
   version="1.0"
   width="100"
   height="100"
   viewBox="0 0 100 100"
   xml:space="preserve"
   id="svg6"
   sodipodi:docname="phones_1.svg"
   inkscape:version="1.3.2 (091e20e, 2023-11-25)"
   xmlns:inkscape="http://www.inkscape.org/namespaces/inkscape"
   xmlns:sodipodi="http://sodipodi.sourceforge.net/DTD/sodipodi-0.dtd"
   xmlns="http://www.w3.org/2000/svg"
   xmlns:svg="http://www.w3.org/2000/svg"><defs
   id="defs6" /><sodipodi:namedview
   id="namedview6"
   pagecolor="#ffffff"
   bordercolor="#000000"
   borderopacity="0.25"
   inkscape:showpageshadow="2"
   inkscape:pageopacity="0.0"
   inkscape:pagecheckerboard="0"
   inkscape:deskcolor="#d1d1d1"
   inkscape:current-layer="svg6" />
<g
   id="Guides"
   transform="matrix(3.7500007,0,0,3.7500007,-3.8778426e-5,-1.2581959e-5)">
	<g
   id="_x32_0_px_2_">
	</g>
	<g
   id="_x32_0px">
	</g>
	<g
   id="_x34_0px">
	</g>
	<g
   id="_x34_4_px">
	</g>
	<g
   id="_x34_8px">
		<g
   id="_x31_6px">
		</g>
		<g
   id="square_4px">
			<g
   id="_x32_8_px">
				<g
   id="square_4px_2_">
				</g>
				<g
   id="square_4px_3_">
				</g>
				<g
   id="square_4px_1_">
				</g>
				<g
   id="_x32_4_px_2_">
				</g>
				<g
   id="_x31_2_px">
				</g>
			</g>
		</g>
	</g>
	<g
   id="Icons">
	</g>
	<g
   id="_x32_0_px">
	</g>
	<g
   id="square_6px">
		<g
   id="_x31_2_PX">
		</g>
	</g>
	<g
   id="_x33_6_px">
		<g
   id="_x33_2_px">
			<g
   id="_x32_8_px_1_">
				<g
   id="square_6px_1_">
				</g>
				<g
   id="_x32_0_px_1_">
					<g
   id="_x31_2_PX_2_">
					</g>
					<g
   id="_x34_8_px">
						<g
   id="_x32_4_px">
						</g>
						<g
   id="_x32_4_px_1_">
						</g>
					</g>
				</g>
			</g>
		</g>
	</g>
	<g
   id="_x32_0_px_3_">
	</g>
	<g
   id="_x32_0_px_4_">
	</g>
	<g
   id="New_Symbol_8">
		<g
   id="_x32_4_px_3_">
		</g>
	</g>
</g>
<g
   id="Artboard"
   transform="matrix(3.7500007,0,0,3.7500007,-3.8778426e-5,-1.2581959e-5)">
</g>
<g
   id="Free_Icons"
   transform="matrix(3.7500007,0,0,3.7500007,4.9999916,4.999983)">
	<g
   id="g6">
		<polygon
   style="fill:none;stroke:#000000;stroke-linejoin:round;stroke-miterlimit:10"
   points="3.5,19.5 3.5,16.5 6.5,12.5 6.5,23.5 "
   id="polygon1" />
		<polyline
   style="fill:none;stroke:#000000;stroke-linejoin:round;stroke-miterlimit:10"
   points="4.5,5 0.5,7 3,13 3,16.5   "
   id="polyline1" />
		<polyline
   style="fill:none;stroke:#000000;stroke-linejoin:round;stroke-miterlimit:10"
   points="3.5,16.5 1.5,16.5 1.5,19.5     3.5,19.5   "
   id="polyline2" />
		<polyline
   style="fill:none;stroke:#000000;stroke-linejoin:round;stroke-miterlimit:10"
   points="6.5,12.5 8.5,12.5 8.5,23.5     6.5,23.5   "
   id="polyline3" />
		<polygon
   style="fill:none;stroke:#000000;stroke-linejoin:round;stroke-miterlimit:10"
   points="20.5,19.5 20.5,16.5 17.5,12.5 17.5,23.5 "
   id="polygon3" />
		<polyline
   style="fill:none;stroke:#000000;stroke-linejoin:round;stroke-miterlimit:10"
   points="19.5,5 23.5,7 21,13 21,16.5       "
   id="polyline4" />
		<polyline
   style="fill:none;stroke:#000000;stroke-linejoin:round;stroke-miterlimit:10"
   points="20.5,16.5 22.5,16.5 22.5,19.5     20.5,19.5   "
   id="polyline5" />
		<polyline
   style="fill:none;stroke:#000000;stroke-linejoin:round;stroke-miterlimit:10"
   points="17.5,12.5 15.5,12.5 15.5,23.5     17.5,23.5   "
   id="polyline6" />
		<polygon
   style="fill:none;stroke:#000000;stroke-linejoin:round;stroke-miterlimit:10"
   points="4,4 5,6 12,3 19,6 20,4 12,0.5 "
   id="polygon6" />
	</g>
</g>
</svg>
