<svg xmlns="http://www.w3.org/2000/svg" width="100" height="100" fill="none">
    <path d="M5 50.558C5 25.397 25.147 5 50 5s45 20.397 45 45.558v23.596c0 3.676.002 6.197-.644 8.41-1.264 4.328-4.285 7.908-8.31 9.846-2.06.992-4.52 1.384-8.106 1.956l-.585.094c-1.275.204-2.365.378-3.27.468-.94.093-1.9.122-2.882-.074-3.229-.644-5.892-2.947-7.024-6.077-.344-.95-.465-1.915-.521-2.87-.053-.918-.053-2.035-.053-3.343V63.788c-.003-1.914-.005-3.562.433-4.973 1.002-3.228 3.62-5.676 6.877-6.434 1.424-.33 3.046-.199 4.931-.046l.42.034.494.04c3.526.28 5.94.472 7.988 1.239 1.44.539 2.774 1.28 3.973 2.191v-5.281c0-21.65-17.336-39.201-38.721-39.201s-38.72 17.55-38.72 39.2v5.282a15.6 15.6 0 0 1 3.972-2.191c2.049-.767 4.461-.96 7.988-1.24l.494-.04.42-.033c1.885-.153 3.507-.285 4.931.046 3.258.758 5.875 3.206 6.877 6.434.438 1.411.436 3.059.434 4.973v18.776c0 1.308 0 2.425-.054 3.343-.055.955-.177 1.92-.521 2.87-1.132 3.13-3.795 5.433-7.024 6.077-.982.196-1.942.167-2.882.074-.905-.09-1.995-.264-3.27-.468l-.585-.094c-3.587-.572-6.047-.964-8.105-1.956-4.026-1.938-7.048-5.518-8.311-9.846-.533-1.825-.626-3.86-.641-6.578L5 75.111z" style="fill:#000;stroke-width:4.50002"/>
</svg>
