<svg xmlns="http://www.w3.org/2000/svg" xml:space="preserve" width="100" height="100" version="1.0">
    <path d="M3.5 19.5v-3l3-4v11zM4.5 5l-4 2L3 13v3.5m.5 0h-2v3h2m3-7h2v11h-2m14-4v-3l-3-4v11zM19.5 5l4 2-2.5 6v3.5m-.5 0h2v3h-2m-3-7h-2v11h2" style="fill:none;stroke:#000;stroke-linejoin:round;stroke-miterlimit:10" transform="translate(5 5)scale(3.75)"/>
    <path d="m4 4 1 2 7-3 7 3 1-2-8-3.5z" style="fill:none;stroke:#000;stroke-linejoin:round;stroke-miterlimit:10" transform="translate(5 5)scale(3.75)"/>
</svg>
