<svg xmlns="http://www.w3.org/2000/svg" xml:space="preserve" width="40" height="40">
    <path d="M20 0c-4.062 0-7.88 1.156-11.1 3.155a21.26 21.26 0 0 0-7.627 8.208l-.867 1.66a1.314 1.314 0 0 0 .554 1.773l.598.311a19.4 19.4 0 0 0-.963 6.035c.003 2.48.575 4.918 1.219 7.075.643 2.146 1.372 4.04 1.716 5.265l2.787-.787c-.413-1.452-1.124-3.281-1.73-5.309-.607-2.021-1.099-4.217-1.095-6.244 0-1.624.238-3.19.674-4.672l.112.06a1.315 1.315 0 0 0 1.773-.555l.868-1.66a14.9 14.9 0 0 1 5.338-5.744A14.6 14.6 0 0 1 20 6.37c2.855.001 5.491.804 7.743 2.2a14.9 14.9 0 0 1 5.338 5.745l.868 1.659c.336.643 1.13.89 1.773.556l.112-.06c.436 1.48.674 3.047.674 4.671.003 2.027-.487 4.223-1.095 6.244-.606 2.028-1.317 3.857-1.73 5.31l2.787.786c.344-1.226 1.073-3.119 1.717-5.265.643-2.157 1.215-4.594 1.218-7.075 0-2.108-.342-4.135-.963-6.035l.597-.311a1.316 1.316 0 0 0 .556-1.774l-.868-1.659A21.26 21.26 0 0 0 31.1 3.155 21 21 0 0 0 20 0M9.95 23.118a3.667 3.667 0 0 0-3.465 4.202L7.9 36.87a3.668 3.668 0 1 0 7.257-1.076l-1.415-9.55a3.667 3.667 0 0 0-3.793-3.126m20.101 0a3.667 3.667 0 0 0-3.793 3.126l-1.415 9.55A3.668 3.668 0 0 0 32.1 36.87l1.415-9.55a3.667 3.667 0 0 0-3.465-4.202" style="fill:#000;stroke-width:.999999"/>
</svg>
