<?xml version="1.0" encoding="UTF-8" standalone="no"?>
<!-- Uploaded to: SVG Repo, www.svgrepo.com, Generator: SVG Repo Mixer Tools -->

<svg
   width="100"
   height="100"
   viewBox="0 0 100 100"
   fill="none"
   version="1.1"
   id="svg1"
   sodipodi:docname="phones_2.svg"
   inkscape:version="1.3.2 (091e20e, 2023-11-25)"
   xmlns:inkscape="http://www.inkscape.org/namespaces/inkscape"
   xmlns:sodipodi="http://sodipodi.sourceforge.net/DTD/sodipodi-0.dtd"
   xmlns="http://www.w3.org/2000/svg"
   xmlns:svg="http://www.w3.org/2000/svg">
  <defs
     id="defs1" />
  <sodipodi:namedview
     id="namedview1"
     pagecolor="#ffffff"
     bordercolor="#000000"
     borderopacity="0.25"
     inkscape:showpageshadow="2"
     inkscape:pageopacity="0.0"
     inkscape:pagecheckerboard="0"
     inkscape:current-layer="svg1"
     inkscape:deskcolor="#d1d1d1" />
  <path
     d="m 5.0000192,50.557986 c 0,-25.160987 20.1471588,-45.5581674 44.9997148,-45.5581674 24.853138,0 45.000168,20.3971804 45.000168,45.5581674 v 23.595837 c 10e-4,3.67606 0.002,6.19697 -0.64396,8.41008 -1.2636,4.32812 -4.28491,7.90788 -8.31063,9.84649 -2.05875,0.9918 -4.51846,1.38375 -8.10543,1.9557 l -0.58455,0.0936 c -1.27575,0.20385 -2.36566,0.378 -3.27016,0.46801 -0.94095,0.0936 -1.90036,0.1224 -2.88181,-0.0734 -3.22921,-0.64395 -5.89232,-2.94751 -7.024526,-6.07682 -0.343802,-0.95085 -0.465302,-1.9152 -0.521102,-2.87056 -0.0531,-0.918 -0.0531,-2.03536 -0.0531,-3.34261 l -4.5e-4,-18.775869 c -0.0023,-1.914757 -0.0041,-3.562213 0.433802,-4.972968 1.002156,-3.228312 3.619366,-5.676771 6.876926,-6.434124 1.4238,-0.331201 3.04606,-0.19935 4.93112,-0.04635 l 0.4194,0.03375 0.4941,0.0396 c 3.52666,0.280351 5.93957,0.472501 7.98798,1.239304 1.43955,0.539102 2.77426,1.281155 3.97351,2.191508 v -5.281219 c 0,-21.650119 -17.33631,-39.201174 -38.721287,-39.201174 -21.384709,0 -38.720662,17.551055 -38.720662,39.201174 v 5.281219 c 1.198894,-0.910353 2.533914,-1.652406 3.97329,-2.191508 2.048227,-0.766803 4.461136,-0.958953 7.987799,-1.239304 l 0.494237,-0.0396 0.419536,-0.03375 c 1.885192,-0.153 3.507313,-0.284851 4.931253,0.04635 3.257472,0.757353 5.874412,3.205812 6.8767,6.434124 0.438077,1.410755 0.436097,3.058211 0.433757,4.972968 l -3.15e-4,18.775869 c 0,1.30725 4.5e-5,2.42461 -0.05328,3.34261 -0.05549,0.95536 -0.177166,1.91971 -0.521147,2.87056 -1.131844,3.12931 -3.794954,5.43287 -7.024256,6.07682 -0.981498,0.19576 -1.941172,0.16696 -2.88199,0.0734 -0.904369,-0.09 -1.994363,-0.26416 -3.269982,-0.46801 l -0.584823,-0.0936 c -3.586828,-0.57195 -6.046627,-0.9639 -8.105204,-1.9557 -4.0255798,-1.93861 -7.0471608,-5.51837 -8.3107658,-9.84649 -0.532847,-1.82476 -0.625682,-3.85921 -0.641162,-6.57767 l -0.0027,-0.87481 z"
     id="path1"
     style="fill:#000000;stroke-width:4.50002" />
</svg>
