<svg xmlns="http://www.w3.org/2000/svg" width="35" height="29.755" fill="none">
    <path fill="#464455" fill-rule="evenodd" d="M32.016 12.75c.867-.636 1.335-1.457 1.35-2.296.027-1.416-.927-3.988-7.027-6.756C20.355.98 15.028.94 8.447 3.604 5.13 4.947 3.457 6.256 2.6 7.371c-.832 1.084-.95 2.059-.966 2.922-.016.835.417 1.654 1.253 2.295.837.64 2.041 1.067 3.417 1.075.585.003.937-.167 1.178-.394.261-.247.467-.63.613-1.166.252-.93.264-2.052.275-3.115q.003-.299.008-.589a.8.8 0 0 1 .144-.448c.863-1.253 2.38-2.103 4.051-2.64 1.691-.542 3.652-.8 5.548-.79 1.891.011 3.77.29 5.286.864 1.485.56 2.808 1.476 3.25 2.88a.8.8 0 0 1 .037.26l-.015.59c-.028 1.063-.059 2.184.159 3.115.125.536.315.917.561 1.16.226.223.565.398 1.15.401 1.375.008 2.6-.404 3.467-1.04m.966 1.317c-1.174.862-2.748 1.367-4.443 1.357-.951-.005-1.719-.31-2.288-.872-.548-.541-.84-1.252-1.004-1.95-.27-1.159-.23-2.537-.2-3.587l.01-.374c-.257-.643-.98-1.258-2.226-1.729-1.288-.486-2.962-.748-4.72-.758-1.754-.01-3.54.231-5.039.713-1.404.45-2.464 1.081-3.065 1.823l-.002.26c-.01 1.05-.021 2.428-.334 3.581-.19.696-.507 1.397-1.07 1.927-.582.548-1.354.844-2.306.838-1.695-.01-3.254-.533-4.401-1.412C.745 13.004-.026 11.73 0 10.262c.02-1.048.177-2.418 1.304-3.885C2.408 4.94 4.38 3.49 7.834 2.09c6.962-2.819 12.757-2.796 19.18.12 6.309 2.863 8.03 5.868 7.985 8.274-.027 1.464-.844 2.721-2.017 3.582m-21.939-.655a4.187 4.187 0 0 1 4.188-4.187h4.69a4.187 4.187 0 0 1 4.188 4.187 2.32 2.32 0 0 0 1.586 2.201l.822.274a4.67 4.67 0 0 1 3.19 4.427v4.775a4.666 4.666 0 0 1-4.665 4.666H10.11a4.666 4.666 0 0 1-4.666-4.666v-4.775a4.67 4.67 0 0 1 3.19-4.427l.823-.274a2.32 2.32 0 0 0 1.586-2.201m4.188-2.321a2.32 2.32 0 0 0-2.321 2.32 4.19 4.19 0 0 1-2.863 3.973l-.822.274a2.8 2.8 0 0 0-1.914 2.656v4.775a2.8 2.8 0 0 0 2.8 2.8h14.93a2.8 2.8 0 0 0 2.8-2.8v-4.775a2.8 2.8 0 0 0-1.914-2.656l-.822-.274a4.19 4.19 0 0 1-2.863-3.972 2.32 2.32 0 0 0-2.32-2.321zm-.455 10.265a2.8 2.8 0 1 1 5.6 0 2.8 2.8 0 0 1-5.6 0m2.8-4.666a4.666 4.666 0 1 0 0 9.332 4.666 4.666 0 0 0 0-9.332" clip-rule="evenodd" style="fill:#000;stroke-width:1"/>
</svg>
