<?xml version="1.0" encoding="UTF-8" standalone="no"?>
<!-- Uploaded to: SVG Repo, www.svgrepo.com, Generator: SVG Repo Mixer Tools -->

<svg
   fill="#000000"
   height="100"
   width="100"
   version="1.1"
   id="Capa_1"
   viewBox="0 0 100 100"
   xml:space="preserve"
   sodipodi:docname="piano-svgrepo-com.svg"
   inkscape:version="1.3.2 (091e20e, 2023-11-25)"
   xmlns:inkscape="http://www.inkscape.org/namespaces/inkscape"
   xmlns:sodipodi="http://sodipodi.sourceforge.net/DTD/sodipodi-0.dtd"
   xmlns="http://www.w3.org/2000/svg"
   xmlns:svg="http://www.w3.org/2000/svg"><defs
   id="defs1" /><sodipodi:namedview
   id="namedview1"
   pagecolor="#ffffff"
   bordercolor="#000000"
   borderopacity="0.25"
   inkscape:showpageshadow="2"
   inkscape:pageopacity="0.0"
   inkscape:pagecheckerboard="0"
   inkscape:deskcolor="#d1d1d1"
   inkscape:zoom="4.3506755"
   inkscape:cx="42.292283"
   inkscape:cy="45.854948"
   inkscape:window-width="1344"
   inkscape:window-height="748"
   inkscape:window-x="0"
   inkscape:window-y="25"
   inkscape:window-maximized="0"
   inkscape:current-layer="Capa_1" />
<path
   d="M 77.838208,44.082092 67.426706,13.823982 72.947995,10.152331 71.092796,7.36451 15.879374,44.082092 h -5.523442 v 21.52619 h 4.458253 l 0.95684,2.152799 1.83726,22.781705 h 1.37947 v 1.375165 h 1.435079 v -1.375165 h 1.644602 l 0.747138,-24.934504 h 14.937024 l 1.063752,12.295043 h 0.890288 v 0.986078 h 1.435079 v -0.986078 h 1.079897 l 0.42891,-12.295043 h 2.210381 v 18.766174 c -1.207081,0.341011 -2.095216,1.44961 -2.095216,2.764322 v 4.300933 h 2.870159 v 0.47824 c 0,0.396261 0.321278,0.717539 0.717539,0.717539 0.396262,0 0.71754,-0.321278 0.71754,-0.717539 v -0.47824 h 1.913499 v 0.47824 c 0,0.396261 0.321278,0.717539 0.71754,0.717539 0.396261,0 0.717539,-0.321278 0.717539,-0.717539 v -0.47824 h 1.913499 v 0.47824 c 0,0.396261 0.321279,0.717539 0.71754,0.717539 0.396261,0 0.71754,-0.321278 0.71754,-0.717539 v -0.47824 h 2.870158 v -4.300933 c 0,-1.314533 -0.888134,-2.423311 -2.095216,-2.764322 V 65.608282 h 22.6434 l 0.746959,24.934504 h 1.64478 v 1.375165 h 1.43508 v -1.375165 h 1.37947 l 1.837259,-22.781705 0.956839,-2.152799 h 4.458255 V 44.082092 Z M 88.208988,58.97104 H 86.146062 V 45.517171 h 2.062926 z M 84.710982,45.517171 v 0.986617 H 15.289018 V 45.517171 Z M 35.507134,39.615766 c -0.02296,-0.256162 0.06942,-0.506045 0.25329,-0.685609 0.184049,-0.179564 0.435907,-0.267284 0.69153,-0.236788 1.703797,0.193915 3.410825,0.0818 5.073903,-0.333836 5.817453,-1.454632 11.967485,-1.454632 17.785297,0 1.663077,0.415456 3.370284,0.527571 5.073544,0.333836 0.257058,-0.02798 0.507659,0.05704 0.691708,0.236788 0.183869,0.179564 0.276253,0.429627 0.253291,0.685609 -0.142073,1.588992 0.514835,3.135469 1.757255,4.136437 l 0.409536,0.329889 H 33.340342 l 0.409357,-0.329889 c 1.242599,-1.000968 1.899507,-2.547445 1.757435,-4.136437 z M 15.289018,56.728729 v -8.789861 h 69.421964 v 8.789861 z m 0,1.435079 h 1.517237 v 0.807232 h -1.517237 z m 2.952316,0 h 1.517238 v 0.807232 h -1.517238 z m 2.952498,0 h 1.517237 v 0.807232 h -1.517237 z m 2.952317,0 h 1.517237 v 0.807232 h -1.517237 z m 2.952317,0 h 1.517237 v 0.807232 h -1.517237 z m 2.952496,0 H 31.5682 v 0.807232 h -1.517238 z m 2.952317,0 h 1.517238 v 0.807232 h -1.517238 z m 2.952317,0 h 1.517238 v 0.807232 h -1.517238 z m 2.952496,0 h 1.517238 v 0.807232 h -1.517238 z m 2.952318,0 h 1.517237 V 58.97104 H 41.86041 Z m 2.952317,0 h 1.517237 v 0.807232 h -1.517237 z m 2.952495,0 h 1.517238 v 0.807232 h -1.517238 z m 2.952317,0 h 1.517238 v 0.807232 h -1.517238 z m 2.952318,0 h 1.517237 v 0.807232 h -1.517237 z m 2.952495,0 h 1.517239 v 0.807232 h -1.517239 z m 2.952317,0 h 1.517238 v 0.807232 h -1.517238 z m 2.952317,0 h 1.517238 v 0.807232 h -1.517238 z m 2.952497,0 h 1.517237 v 0.807232 h -1.517237 z m 2.952317,0 h 1.517237 V 58.97104 H 68.4318 Z m 2.952317,0 h 1.517237 v 0.807232 h -1.517237 z m 2.952496,0 h 1.517238 v 0.807232 h -1.517238 z m 2.952317,0 h 1.517238 V 58.97104 H 77.28893 Z m 2.952317,0 h 1.517238 v 0.807232 h -1.517238 z m 2.952497,0 h 1.517237 V 58.97104 H 83.193745 Z M 76.320432,44.082092 h -6.53607 l -1.796899,-1.447457 c -0.868581,-0.699422 -1.327627,-1.780216 -1.228247,-2.890788 0.06153,-0.687403 -0.186382,-1.358303 -0.680407,-1.840489 -0.494027,-0.482366 -1.169949,-0.713414 -1.856635,-0.63592 -1.532127,0.17508 -3.067302,0.07355 -4.563193,-0.30029 -6.045092,-1.511318 -12.436039,-1.511318 -18.481132,0 -1.49625,0.373838 -3.031604,0.475011 -4.563372,0.30029 -0.684354,-0.07857 -1.362429,0.153554 -1.856455,0.63592 -0.494026,0.482186 -0.741936,1.153086 -0.680407,1.840489 0.09956,1.110572 -0.359666,2.191366 -1.228248,2.890788 l -1.79672,1.447457 H 21.92608 L 66.191821,14.645385 Z M 70.692948,9.3538888 70.958078,9.7523027 19.334327,44.082092 H 18.471126 Z M 13.853938,45.517171 V 58.97104 H 11.791012 V 45.517171 Z m 3.400241,22.781885 h 4.101457 l -0.56883,17.474603 h -2.123379 z m 1.677967,20.808651 -0.153016,-1.898969 h 1.961036 l -0.06189,1.898969 z m 2.447348,-22.24373 H 16.942767 L 16.3847,65.608282 h 4.994973 v 1.255695 z m 18.752183,9.604268 -0.06691,-0.772431 h 0.796649 l -0.02691,0.772431 z m 0.779786,-2.207511 h -0.970831 l -0.748573,-8.652452 h 2.02113 z m 7.292356,-8.652452 h 2.994113 V 84.264314 H 48.203818 Z M 46.76874,84.264314 H 46.294804 V 65.608282 h 0.473935 z m 8.433422,2.874464 v 2.865853 h -1.435079 v -1.435079 c 0,-0.396261 -0.321278,-0.71754 -0.71754,-0.71754 -0.396261,0 -0.71754,0.321279 -0.71754,0.71754 v 1.435079 h -1.913499 v -1.435079 c 0,-0.396261 -0.321278,-0.71754 -0.717539,-0.71754 -0.396262,0 -0.71754,0.321279 -0.71754,0.71754 v 1.435079 h -1.913499 v -1.435079 c 0,-0.396261 -0.321278,-0.71754 -0.71754,-0.71754 -0.396261,0 -0.717539,0.321279 -0.717539,0.71754 v 1.435079 h -1.43508 v -2.865853 c 0,-0.793778 0.645965,-1.439385 1.439564,-1.439385 h 2.564487 2.994114 2.564487 c 0.793778,0 1.439743,0.645607 1.439743,1.439385 z M 53.106946,84.264314 H 52.633012 V 65.608282 h 0.473934 z m 26.214595,4.843393 -0.06189,-1.898969 h 1.961215 l -0.153194,1.898969 z m 2.015031,-3.334048 h -2.123559 l -0.56883,-17.474603 h 4.101636 z m 1.72066,-18.909682 h -4.436727 v -1.255695 h 4.994973 z m -71.26622,-2.690774 v -3.767084 h 76.417976 v 3.767084 z"
   id="path1"
   style="stroke-width:0.999999" />
</svg>
