<?xml version="1.0" encoding="UTF-8" standalone="no"?>
<svg
   id="svg2"
   xml:space="preserve"
   viewBox="0 0 100 100"
   version="1.0"
   sodipodi:docname="piano_keyboard_1.svg"
   inkscape:version="1.3.2 (091e20e, 2023-11-25)"
   width="100"
   height="100"
   xmlns:inkscape="http://www.inkscape.org/namespaces/inkscape"
   xmlns:sodipodi="http://sodipodi.sourceforge.net/DTD/sodipodi-0.dtd"
   xmlns="http://www.w3.org/2000/svg"
   xmlns:svg="http://www.w3.org/2000/svg"
   xmlns:rdf="http://www.w3.org/1999/02/22-rdf-syntax-ns#"
   xmlns:cc="http://creativecommons.org/ns#"
   xmlns:dc="http://purl.org/dc/elements/1.1/"><defs
   id="defs1" /><sodipodi:namedview
   id="namedview1"
   pagecolor="#ffffff"
   bordercolor="#000000"
   borderopacity="0.25"
   inkscape:showpageshadow="2"
   inkscape:pageopacity="0.0"
   inkscape:pagecheckerboard="0"
   inkscape:deskcolor="#d1d1d1"
   inkscape:zoom="1.8851679"
   inkscape:cx="-14.852788"
   inkscape:cy="80.098966"
   inkscape:window-width="1536"
   inkscape:window-height="449"
   inkscape:window-x="0"
   inkscape:window-y="25"
   inkscape:window-maximized="0"
   inkscape:current-layer="svg2" />


<g
   id="g1"
   transform="matrix(0.19,0,0,0.19,2.5,75.2)"><g
     id="background">
	<g
   id="g238">
		<path
   id="path240"
   fill="#231f20"
   d="m 0,111 c 0,4.97 4.029,9 9,9 h 482 c 4.97,0 9,-4.03 9,-9 V 9 c 0,-4.971 -4.03,-9 -9,-9 H 9 C 4.029,0 0,4.029 0,9 Z" />
	</g>
</g><g
     id="white_keys">
	<g
   id="g243">
		<g
   id="g245">
			<path
   id="path247"
   fill="#ffffff"
   d="m 475,102 c 0,1.1 0.9,2 2,2 h 5 c 1.1,0 2,-0.9 2,-2 V 56 c 0,-1.104 -0.9,-2 -2,-2 h -5 c -1.1,0 -2,0.896 -2,2 z" />
			<path
   id="path249"
   stroke="#000000"
   fill="none"
   d="m 475,102 c 0,1.1 0.9,2 2,2 h 5 c 1.1,0 2,-0.9 2,-2 V 56 c 0,-1.104 -0.9,-2 -2,-2 h -5 c -1.1,0 -2,0.896 -2,2 z" />
		</g>
		<g
   id="g251">
			<path
   id="path253"
   fill="#ffffff"
   d="m 466,102 c 0,1.1 0.9,2 2,2 h 5 c 1.1,0 2,-0.9 2,-2 V 56 c 0,-1.104 -0.9,-2 -2,-2 h -5 c -1.1,0 -2,0.896 -2,2 z" />
			<path
   id="path255"
   stroke="#000000"
   fill="none"
   d="m 466,102 c 0,1.1 0.9,2 2,2 h 5 c 1.1,0 2,-0.9 2,-2 V 56 c 0,-1.104 -0.9,-2 -2,-2 h -5 c -1.1,0 -2,0.896 -2,2 z" />
		</g>
		<g
   id="g257">
			<path
   id="path259"
   fill="#ffffff"
   d="m 457,102 c 0,1.1 0.9,2 2,2 h 5 c 1.1,0 2,-0.9 2,-2 V 56 c 0,-1.104 -0.9,-2 -2,-2 h -5 c -1.1,0 -2,0.896 -2,2 z" />
			<path
   id="path261"
   stroke="#000000"
   fill="none"
   d="m 457,102 c 0,1.1 0.9,2 2,2 h 5 c 1.1,0 2,-0.9 2,-2 V 56 c 0,-1.104 -0.9,-2 -2,-2 h -5 c -1.1,0 -2,0.896 -2,2 z" />
		</g>
		<g
   id="g263">
			<path
   id="path265"
   fill="#ffffff"
   d="m 448,102 c 0,1.1 0.9,2 2,2 h 5 c 1.1,0 2,-0.9 2,-2 V 56 c 0,-1.104 -0.9,-2 -2,-2 h -5 c -1.1,0 -2,0.896 -2,2 z" />
			<path
   id="path267"
   stroke="#000000"
   fill="none"
   d="m 448,102 c 0,1.1 0.9,2 2,2 h 5 c 1.1,0 2,-0.9 2,-2 V 56 c 0,-1.104 -0.9,-2 -2,-2 h -5 c -1.1,0 -2,0.896 -2,2 z" />
		</g>
		<g
   id="g269">
			<path
   id="path271"
   fill="#ffffff"
   d="m 439,102 c 0,1.1 0.9,2 2,2 h 5 c 1.1,0 2,-0.9 2,-2 V 56 c 0,-1.104 -0.9,-2 -2,-2 h -5 c -1.1,0 -2,0.896 -2,2 z" />
			<path
   id="path273"
   stroke="#000000"
   fill="none"
   d="m 439,102 c 0,1.1 0.9,2 2,2 h 5 c 1.1,0 2,-0.9 2,-2 V 56 c 0,-1.104 -0.9,-2 -2,-2 h -5 c -1.1,0 -2,0.896 -2,2 z" />
		</g>
		<g
   id="g275">
			<path
   id="path277"
   fill="#ffffff"
   d="m 430,102 c 0,1.1 0.9,2 2,2 h 5 c 1.1,0 2,-0.9 2,-2 V 56 c 0,-1.104 -0.9,-2 -2,-2 h -5 c -1.1,0 -2,0.896 -2,2 z" />
			<path
   id="path279"
   stroke="#000000"
   fill="none"
   d="m 430,102 c 0,1.1 0.9,2 2,2 h 5 c 1.1,0 2,-0.9 2,-2 V 56 c 0,-1.104 -0.9,-2 -2,-2 h -5 c -1.1,0 -2,0.896 -2,2 z" />
		</g>
		<g
   id="g281">
			<path
   id="path283"
   fill="#ffffff"
   d="m 421,102 c 0,1.1 0.9,2 2,2 h 5 c 1.1,0 2,-0.9 2,-2 V 56 c 0,-1.104 -0.9,-2 -2,-2 h -5 c -1.1,0 -2,0.896 -2,2 z" />
			<path
   id="path285"
   stroke="#000000"
   fill="none"
   d="m 421,102 c 0,1.1 0.9,2 2,2 h 5 c 1.1,0 2,-0.9 2,-2 V 56 c 0,-1.104 -0.9,-2 -2,-2 h -5 c -1.1,0 -2,0.896 -2,2 z" />
		</g>
		<g
   id="g287">
			<path
   id="path289"
   fill="#ffffff"
   d="m 412,102 c 0,1.1 0.9,2 2,2 h 5 c 1.1,0 2,-0.9 2,-2 V 56 c 0,-1.104 -0.9,-2 -2,-2 h -5 c -1.1,0 -2,0.896 -2,2 z" />
			<path
   id="path291"
   stroke="#000000"
   fill="none"
   d="m 412,102 c 0,1.1 0.9,2 2,2 h 5 c 1.1,0 2,-0.9 2,-2 V 56 c 0,-1.104 -0.9,-2 -2,-2 h -5 c -1.1,0 -2,0.896 -2,2 z" />
		</g>
		<g
   id="g293">
			<path
   id="path295"
   fill="#ffffff"
   d="m 403,102 c 0,1.1 0.9,2 2,2 h 5 c 1.1,0 2,-0.9 2,-2 V 56 c 0,-1.104 -0.9,-2 -2,-2 h -5 c -1.1,0 -2,0.896 -2,2 z" />
			<path
   id="path297"
   stroke="#000000"
   fill="none"
   d="m 403,102 c 0,1.1 0.9,2 2,2 h 5 c 1.1,0 2,-0.9 2,-2 V 56 c 0,-1.104 -0.9,-2 -2,-2 h -5 c -1.1,0 -2,0.896 -2,2 z" />
		</g>
		<g
   id="g299">
			<path
   id="path301"
   fill="#ffffff"
   d="m 394,102 c 0,1.1 0.9,2 2,2 h 5 c 1.1,0 2,-0.9 2,-2 V 56 c 0,-1.104 -0.9,-2 -2,-2 h -5 c -1.1,0 -2,0.896 -2,2 z" />
			<path
   id="path303"
   stroke="#000000"
   fill="none"
   d="m 394,102 c 0,1.1 0.9,2 2,2 h 5 c 1.1,0 2,-0.9 2,-2 V 56 c 0,-1.104 -0.9,-2 -2,-2 h -5 c -1.1,0 -2,0.896 -2,2 z" />
		</g>
		<g
   id="g305">
			<path
   id="path307"
   fill="#ffffff"
   d="m 385,102 c 0,1.1 0.9,2 2,2 h 5 c 1.1,0 2,-0.9 2,-2 V 56 c 0,-1.104 -0.9,-2 -2,-2 h -5 c -1.1,0 -2,0.896 -2,2 z" />
			<path
   id="path309"
   stroke="#000000"
   fill="none"
   d="m 385,102 c 0,1.1 0.9,2 2,2 h 5 c 1.1,0 2,-0.9 2,-2 V 56 c 0,-1.104 -0.9,-2 -2,-2 h -5 c -1.1,0 -2,0.896 -2,2 z" />
		</g>
		<g
   id="g311">
			<path
   id="path313"
   fill="#ffffff"
   d="m 376,102 c 0,1.1 0.9,2 2,2 h 5 c 1.1,0 2,-0.9 2,-2 V 56 c 0,-1.104 -0.9,-2 -2,-2 h -5 c -1.1,0 -2,0.896 -2,2 z" />
			<path
   id="path315"
   stroke="#000000"
   fill="none"
   d="m 376,102 c 0,1.1 0.9,2 2,2 h 5 c 1.1,0 2,-0.9 2,-2 V 56 c 0,-1.104 -0.9,-2 -2,-2 h -5 c -1.1,0 -2,0.896 -2,2 z" />
		</g>
		<g
   id="g317">
			<path
   id="path319"
   fill="#ffffff"
   d="m 367,102 c 0,1.1 0.9,2 2,2 h 5 c 1.1,0 2,-0.9 2,-2 V 56 c 0,-1.104 -0.9,-2 -2,-2 h -5 c -1.1,0 -2,0.896 -2,2 z" />
			<path
   id="path321"
   stroke="#000000"
   fill="none"
   d="m 367,102 c 0,1.1 0.9,2 2,2 h 5 c 1.1,0 2,-0.9 2,-2 V 56 c 0,-1.104 -0.9,-2 -2,-2 h -5 c -1.1,0 -2,0.896 -2,2 z" />
		</g>
		<g
   id="g323">
			<path
   id="path325"
   fill="#ffffff"
   d="m 358,102 c 0,1.1 0.9,2 2,2 h 5 c 1.1,0 2,-0.9 2,-2 V 56 c 0,-1.104 -0.9,-2 -2,-2 h -5 c -1.1,0 -2,0.896 -2,2 z" />
			<path
   id="path327"
   stroke="#000000"
   fill="none"
   d="m 358,102 c 0,1.1 0.9,2 2,2 h 5 c 1.1,0 2,-0.9 2,-2 V 56 c 0,-1.104 -0.9,-2 -2,-2 h -5 c -1.1,0 -2,0.896 -2,2 z" />
		</g>
		<g
   id="g329">
			<path
   id="path331"
   fill="#ffffff"
   d="m 349,102 c 0,1.1 0.9,2 2,2 h 5 c 1.1,0 2,-0.9 2,-2 V 56 c 0,-1.104 -0.9,-2 -2,-2 h -5 c -1.1,0 -2,0.896 -2,2 z" />
			<path
   id="path333"
   stroke="#000000"
   fill="none"
   d="m 349,102 c 0,1.1 0.9,2 2,2 h 5 c 1.1,0 2,-0.9 2,-2 V 56 c 0,-1.104 -0.9,-2 -2,-2 h -5 c -1.1,0 -2,0.896 -2,2 z" />
		</g>
		<g
   id="g335">
			<path
   id="path337"
   fill="#ffffff"
   d="m 340,102 c 0,1.1 0.9,2 2,2 h 5 c 1.1,0 2,-0.9 2,-2 V 56 c 0,-1.104 -0.9,-2 -2,-2 h -5 c -1.1,0 -2,0.896 -2,2 z" />
			<path
   id="path339"
   stroke="#000000"
   fill="none"
   d="m 340,102 c 0,1.1 0.9,2 2,2 h 5 c 1.1,0 2,-0.9 2,-2 V 56 c 0,-1.104 -0.9,-2 -2,-2 h -5 c -1.1,0 -2,0.896 -2,2 z" />
		</g>
		<g
   id="g341">
			<path
   id="path343"
   fill="#ffffff"
   d="m 331,102 c 0,1.1 0.9,2 2,2 h 5 c 1.1,0 2,-0.9 2,-2 V 56 c 0,-1.104 -0.9,-2 -2,-2 h -5 c -1.1,0 -2,0.896 -2,2 z" />
			<path
   id="path345"
   stroke="#000000"
   fill="none"
   d="m 331,102 c 0,1.1 0.9,2 2,2 h 5 c 1.1,0 2,-0.9 2,-2 V 56 c 0,-1.104 -0.9,-2 -2,-2 h -5 c -1.1,0 -2,0.896 -2,2 z" />
		</g>
		<g
   id="g347">
			<path
   id="path349"
   fill="#ffffff"
   d="m 322,102 c 0,1.1 0.9,2 2,2 h 5 c 1.1,0 2,-0.9 2,-2 V 56 c 0,-1.104 -0.9,-2 -2,-2 h -5 c -1.1,0 -2,0.896 -2,2 z" />
			<path
   id="path351"
   stroke="#000000"
   fill="none"
   d="m 322,102 c 0,1.1 0.9,2 2,2 h 5 c 1.1,0 2,-0.9 2,-2 V 56 c 0,-1.104 -0.9,-2 -2,-2 h -5 c -1.1,0 -2,0.896 -2,2 z" />
		</g>
		<g
   id="g353">
			<path
   id="path355"
   fill="#ffffff"
   d="m 313,102 c 0,1.1 0.9,2 2,2 h 5 c 1.1,0 2,-0.9 2,-2 V 56 c 0,-1.104 -0.9,-2 -2,-2 h -5 c -1.1,0 -2,0.896 -2,2 z" />
			<path
   id="path357"
   stroke="#000000"
   fill="none"
   d="m 313,102 c 0,1.1 0.9,2 2,2 h 5 c 1.1,0 2,-0.9 2,-2 V 56 c 0,-1.104 -0.9,-2 -2,-2 h -5 c -1.1,0 -2,0.896 -2,2 z" />
		</g>
		<g
   id="g359">
			<path
   id="path361"
   fill="#ffffff"
   d="m 304,102 c 0,1.1 0.9,2 2,2 h 5 c 1.1,0 2,-0.9 2,-2 V 56 c 0,-1.104 -0.9,-2 -2,-2 h -5 c -1.1,0 -2,0.896 -2,2 z" />
			<path
   id="path363"
   stroke="#000000"
   fill="none"
   d="m 304,102 c 0,1.1 0.9,2 2,2 h 5 c 1.1,0 2,-0.9 2,-2 V 56 c 0,-1.104 -0.9,-2 -2,-2 h -5 c -1.1,0 -2,0.896 -2,2 z" />
		</g>
		<g
   id="g365">
			<path
   id="path367"
   fill="#ffffff"
   d="m 295,102 c 0,1.1 0.9,2 2,2 h 5 c 1.1,0 2,-0.9 2,-2 V 56 c 0,-1.104 -0.9,-2 -2,-2 h -5 c -1.1,0 -2,0.896 -2,2 z" />
			<path
   id="path369"
   stroke="#000000"
   fill="none"
   d="m 295,102 c 0,1.1 0.9,2 2,2 h 5 c 1.1,0 2,-0.9 2,-2 V 56 c 0,-1.104 -0.9,-2 -2,-2 h -5 c -1.1,0 -2,0.896 -2,2 z" />
		</g>
		<g
   id="g371">
			<path
   id="path373"
   fill="#ffffff"
   d="m 286,102 c 0,1.1 0.9,2 2,2 h 5 c 1.1,0 2,-0.9 2,-2 V 56 c 0,-1.104 -0.9,-2 -2,-2 h -5 c -1.1,0 -2,0.896 -2,2 z" />
			<path
   id="path375"
   stroke="#000000"
   fill="none"
   d="m 286,102 c 0,1.1 0.9,2 2,2 h 5 c 1.1,0 2,-0.9 2,-2 V 56 c 0,-1.104 -0.9,-2 -2,-2 h -5 c -1.1,0 -2,0.896 -2,2 z" />
		</g>
		<g
   id="g377">
			<path
   id="path379"
   fill="#ffffff"
   d="m 277,102 c 0,1.1 0.9,2 2,2 h 5 c 1.1,0 2,-0.9 2,-2 V 56 c 0,-1.104 -0.9,-2 -2,-2 h -5 c -1.1,0 -2,0.896 -2,2 z" />
			<path
   id="path381"
   stroke="#000000"
   fill="none"
   d="m 277,102 c 0,1.1 0.9,2 2,2 h 5 c 1.1,0 2,-0.9 2,-2 V 56 c 0,-1.104 -0.9,-2 -2,-2 h -5 c -1.1,0 -2,0.896 -2,2 z" />
		</g>
		<g
   id="g383">
			<path
   id="path385"
   fill="#ffffff"
   d="m 268,102 c 0,1.1 0.9,2 2,2 h 5 c 1.1,0 2,-0.9 2,-2 V 56 c 0,-1.104 -0.9,-2 -2,-2 h -5 c -1.1,0 -2,0.896 -2,2 z" />
			<path
   id="path387"
   stroke="#000000"
   fill="none"
   d="m 268,102 c 0,1.1 0.9,2 2,2 h 5 c 1.1,0 2,-0.9 2,-2 V 56 c 0,-1.104 -0.9,-2 -2,-2 h -5 c -1.1,0 -2,0.896 -2,2 z" />
		</g>
		<g
   id="g389">
			<path
   id="path391"
   fill="#ffffff"
   d="m 259,102 c 0,1.1 0.9,2 2,2 h 5 c 1.1,0 2,-0.9 2,-2 V 56 c 0,-1.104 -0.9,-2 -2,-2 h -5 c -1.1,0 -2,0.896 -2,2 z" />
			<path
   id="path393"
   stroke="#000000"
   fill="none"
   d="m 259,102 c 0,1.1 0.9,2 2,2 h 5 c 1.1,0 2,-0.9 2,-2 V 56 c 0,-1.104 -0.9,-2 -2,-2 h -5 c -1.1,0 -2,0.896 -2,2 z" />
		</g>
		<g
   id="g395">
			<path
   id="path397"
   fill="#ffffff"
   d="m 250,102 c 0,1.1 0.9,2 2,2 h 5 c 1.1,0 2,-0.9 2,-2 V 56 c 0,-1.104 -0.9,-2 -2,-2 h -5 c -1.1,0 -2,0.896 -2,2 z" />
			<path
   id="path399"
   stroke="#000000"
   fill="none"
   d="m 250,102 c 0,1.1 0.9,2 2,2 h 5 c 1.1,0 2,-0.9 2,-2 V 56 c 0,-1.104 -0.9,-2 -2,-2 h -5 c -1.1,0 -2,0.896 -2,2 z" />
		</g>
		<g
   id="g401">
			<path
   id="path403"
   fill="#ffffff"
   d="m 241,102 c 0,1.1 0.9,2 2,2 h 5 c 1.1,0 2,-0.9 2,-2 V 56 c 0,-1.104 -0.9,-2 -2,-2 h -5 c -1.1,0 -2,0.896 -2,2 z" />
			<path
   id="path405"
   stroke="#000000"
   fill="none"
   d="m 241,102 c 0,1.1 0.9,2 2,2 h 5 c 1.1,0 2,-0.9 2,-2 V 56 c 0,-1.104 -0.9,-2 -2,-2 h -5 c -1.1,0 -2,0.896 -2,2 z" />
		</g>
		<g
   id="g407">
			<path
   id="path409"
   fill="#ffffff"
   d="m 232,102 c 0,1.1 0.9,2 2,2 h 5 c 1.1,0 2,-0.9 2,-2 V 56 c 0,-1.104 -0.9,-2 -2,-2 h -5 c -1.1,0 -2,0.896 -2,2 z" />
			<path
   id="path411"
   stroke="#000000"
   fill="none"
   d="m 232,102 c 0,1.1 0.9,2 2,2 h 5 c 1.1,0 2,-0.9 2,-2 V 56 c 0,-1.104 -0.9,-2 -2,-2 h -5 c -1.1,0 -2,0.896 -2,2 z" />
		</g>
		<g
   id="g413">
			<path
   id="path415"
   fill="#ffffff"
   d="m 223,102 c 0,1.1 0.9,2 2,2 h 5 c 1.1,0 2,-0.9 2,-2 V 56 c 0,-1.104 -0.9,-2 -2,-2 h -5 c -1.1,0 -2,0.896 -2,2 z" />
			<path
   id="path417"
   stroke="#000000"
   fill="none"
   d="m 223,102 c 0,1.1 0.9,2 2,2 h 5 c 1.1,0 2,-0.9 2,-2 V 56 c 0,-1.104 -0.9,-2 -2,-2 h -5 c -1.1,0 -2,0.896 -2,2 z" />
		</g>
		<g
   id="g419">
			<path
   id="path421"
   fill="#ffffff"
   d="m 214,102 c 0,1.1 0.9,2 2,2 h 5 c 1.1,0 2,-0.9 2,-2 V 56 c 0,-1.104 -0.9,-2 -2,-2 h -5 c -1.1,0 -2,0.896 -2,2 z" />
			<path
   id="path423"
   stroke="#000000"
   fill="none"
   d="m 214,102 c 0,1.1 0.9,2 2,2 h 5 c 1.1,0 2,-0.9 2,-2 V 56 c 0,-1.104 -0.9,-2 -2,-2 h -5 c -1.1,0 -2,0.896 -2,2 z" />
		</g>
		<g
   id="g425">
			<path
   id="path427"
   fill="#ffffff"
   d="m 205,102 c 0,1.1 0.9,2 2,2 h 5 c 1.1,0 2,-0.9 2,-2 V 56 c 0,-1.104 -0.9,-2 -2,-2 h -5 c -1.1,0 -2,0.896 -2,2 z" />
			<path
   id="path429"
   stroke="#000000"
   fill="none"
   d="m 205,102 c 0,1.1 0.9,2 2,2 h 5 c 1.1,0 2,-0.9 2,-2 V 56 c 0,-1.104 -0.9,-2 -2,-2 h -5 c -1.1,0 -2,0.896 -2,2 z" />
		</g>
		<g
   id="g431">
			<path
   id="path433"
   fill="#ffffff"
   d="m 196,102 c 0,1.1 0.9,2 2,2 h 5 c 1.1,0 2,-0.9 2,-2 V 56 c 0,-1.104 -0.9,-2 -2,-2 h -5 c -1.1,0 -2,0.896 -2,2 z" />
			<path
   id="path435"
   stroke="#000000"
   fill="none"
   d="m 196,102 c 0,1.1 0.9,2 2,2 h 5 c 1.1,0 2,-0.9 2,-2 V 56 c 0,-1.104 -0.9,-2 -2,-2 h -5 c -1.1,0 -2,0.896 -2,2 z" />
		</g>
		<g
   id="g437">
			<path
   id="path439"
   fill="#ffffff"
   d="m 187,102 c 0,1.1 0.9,2 2,2 h 5 c 1.1,0 2,-0.9 2,-2 V 56 c 0,-1.104 -0.9,-2 -2,-2 h -5 c -1.1,0 -2,0.896 -2,2 z" />
			<path
   id="path441"
   stroke="#000000"
   fill="none"
   d="m 187,102 c 0,1.1 0.9,2 2,2 h 5 c 1.1,0 2,-0.9 2,-2 V 56 c 0,-1.104 -0.9,-2 -2,-2 h -5 c -1.1,0 -2,0.896 -2,2 z" />
		</g>
		<g
   id="g443">
			<path
   id="path445"
   fill="#ffffff"
   d="m 178,102 c 0,1.1 0.9,2 2,2 h 5 c 1.1,0 2,-0.9 2,-2 V 56 c 0,-1.104 -0.9,-2 -2,-2 h -5 c -1.1,0 -2,0.896 -2,2 z" />
			<path
   id="path447"
   stroke="#000000"
   fill="none"
   d="m 178,102 c 0,1.1 0.9,2 2,2 h 5 c 1.1,0 2,-0.9 2,-2 V 56 c 0,-1.104 -0.9,-2 -2,-2 h -5 c -1.1,0 -2,0.896 -2,2 z" />
		</g>
		<g
   id="g449">
			<path
   id="path451"
   fill="#ffffff"
   d="m 169,102 c 0,1.1 0.9,2 2,2 h 5 c 1.1,0 2,-0.9 2,-2 V 56 c 0,-1.104 -0.9,-2 -2,-2 h -5 c -1.1,0 -2,0.896 -2,2 z" />
			<path
   id="path453"
   stroke="#000000"
   fill="none"
   d="m 169,102 c 0,1.1 0.9,2 2,2 h 5 c 1.1,0 2,-0.9 2,-2 V 56 c 0,-1.104 -0.9,-2 -2,-2 h -5 c -1.1,0 -2,0.896 -2,2 z" />
		</g>
		<g
   id="g455">
			<path
   id="path457"
   fill="#ffffff"
   d="m 160,102 c 0,1.1 0.9,2 2,2 h 5 c 1.1,0 2,-0.9 2,-2 V 56 c 0,-1.104 -0.9,-2 -2,-2 h -5 c -1.1,0 -2,0.896 -2,2 z" />
			<path
   id="path459"
   stroke="#000000"
   fill="none"
   d="m 160,102 c 0,1.1 0.9,2 2,2 h 5 c 1.1,0 2,-0.9 2,-2 V 56 c 0,-1.104 -0.9,-2 -2,-2 h -5 c -1.1,0 -2,0.896 -2,2 z" />
		</g>
		<g
   id="g461">
			<path
   id="path463"
   fill="#ffffff"
   d="m 151,102 c 0,1.1 0.9,2 2,2 h 5 c 1.1,0 2,-0.9 2,-2 V 56 c 0,-1.104 -0.9,-2 -2,-2 h -5 c -1.1,0 -2,0.896 -2,2 z" />
			<path
   id="path465"
   stroke="#000000"
   fill="none"
   d="m 151,102 c 0,1.1 0.9,2 2,2 h 5 c 1.1,0 2,-0.9 2,-2 V 56 c 0,-1.104 -0.9,-2 -2,-2 h -5 c -1.1,0 -2,0.896 -2,2 z" />
		</g>
		<g
   id="g467">
			<path
   id="path469"
   fill="#ffffff"
   d="m 142,102 c 0,1.1 0.9,2 2,2 h 5 c 1.1,0 2,-0.9 2,-2 V 56 c 0,-1.104 -0.9,-2 -2,-2 h -5 c -1.1,0 -2,0.896 -2,2 z" />
			<path
   id="path471"
   stroke="#000000"
   fill="none"
   d="m 142,102 c 0,1.1 0.9,2 2,2 h 5 c 1.1,0 2,-0.9 2,-2 V 56 c 0,-1.104 -0.9,-2 -2,-2 h -5 c -1.1,0 -2,0.896 -2,2 z" />
		</g>
		<g
   id="g473">
			<path
   id="path475"
   fill="#ffffff"
   d="m 133,102 c 0,1.1 0.9,2 2,2 h 5 c 1.1,0 2,-0.9 2,-2 V 56 c 0,-1.104 -0.9,-2 -2,-2 h -5 c -1.1,0 -2,0.896 -2,2 z" />
			<path
   id="path477"
   stroke="#000000"
   fill="none"
   d="m 133,102 c 0,1.1 0.9,2 2,2 h 5 c 1.1,0 2,-0.9 2,-2 V 56 c 0,-1.104 -0.9,-2 -2,-2 h -5 c -1.1,0 -2,0.896 -2,2 z" />
		</g>
		<g
   id="g479">
			<path
   id="path481"
   fill="#ffffff"
   d="m 124,102 c 0,1.1 0.9,2 2,2 h 5 c 1.1,0 2,-0.9 2,-2 V 56 c 0,-1.104 -0.9,-2 -2,-2 h -5 c -1.1,0 -2,0.896 -2,2 z" />
			<path
   id="path483"
   stroke="#000000"
   fill="none"
   d="m 124,102 c 0,1.1 0.9,2 2,2 h 5 c 1.1,0 2,-0.9 2,-2 V 56 c 0,-1.104 -0.9,-2 -2,-2 h -5 c -1.1,0 -2,0.896 -2,2 z" />
		</g>
		<g
   id="g485">
			<path
   id="path487"
   fill="#ffffff"
   d="m 115,102 c 0,1.1 0.9,2 2,2 h 5 c 1.1,0 2,-0.9 2,-2 V 56 c 0,-1.104 -0.9,-2 -2,-2 h -5 c -1.1,0 -2,0.896 -2,2 z" />
			<path
   id="path489"
   stroke="#000000"
   fill="none"
   d="m 115,102 c 0,1.1 0.9,2 2,2 h 5 c 1.1,0 2,-0.9 2,-2 V 56 c 0,-1.104 -0.9,-2 -2,-2 h -5 c -1.1,0 -2,0.896 -2,2 z" />
		</g>
		<g
   id="g491">
			<path
   id="path493"
   fill="#ffffff"
   d="m 106,102 c 0,1.1 0.9,2 2,2 h 5 c 1.1,0 2,-0.9 2,-2 V 56 c 0,-1.104 -0.9,-2 -2,-2 h -5 c -1.1,0 -2,0.896 -2,2 z" />
			<path
   id="path495"
   stroke="#000000"
   fill="none"
   d="m 106,102 c 0,1.1 0.9,2 2,2 h 5 c 1.1,0 2,-0.9 2,-2 V 56 c 0,-1.104 -0.9,-2 -2,-2 h -5 c -1.1,0 -2,0.896 -2,2 z" />
		</g>
		<g
   id="g497">
			<path
   id="path499"
   fill="#ffffff"
   d="m 97,102 c 0,1.1 0.896,2 2,2 h 5 c 1.1,0 2,-0.9 2,-2 V 56 c 0,-1.104 -0.9,-2 -2,-2 h -5 c -1.104,0 -2,0.896 -2,2 z" />
			<path
   id="path501"
   stroke="#000000"
   fill="none"
   d="m 97,102 c 0,1.1 0.896,2 2,2 h 5 c 1.1,0 2,-0.9 2,-2 V 56 c 0,-1.104 -0.9,-2 -2,-2 h -5 c -1.104,0 -2,0.896 -2,2 z" />
		</g>
		<g
   id="g503">
			<path
   id="path505"
   fill="#ffffff"
   d="m 88,102 c 0,1.1 0.896,2 2,2 h 5 c 1.104,0 2,-0.9 2,-2 V 56 c 0,-1.104 -0.896,-2 -2,-2 h -5 c -1.104,0 -2,0.896 -2,2 z" />
			<path
   id="path507"
   stroke="#000000"
   fill="none"
   d="m 88,102 c 0,1.1 0.896,2 2,2 h 5 c 1.104,0 2,-0.9 2,-2 V 56 c 0,-1.104 -0.896,-2 -2,-2 h -5 c -1.104,0 -2,0.896 -2,2 z" />
		</g>
		<g
   id="g509">
			<path
   id="path511"
   fill="#ffffff"
   d="m 79,102 c 0,1.1 0.896,2 2,2 h 5 c 1.104,0 2,-0.9 2,-2 V 56 c 0,-1.104 -0.896,-2 -2,-2 h -5 c -1.104,0 -2,0.896 -2,2 z" />
			<path
   id="path513"
   stroke="#000000"
   fill="none"
   d="m 79,102 c 0,1.1 0.896,2 2,2 h 5 c 1.104,0 2,-0.9 2,-2 V 56 c 0,-1.104 -0.896,-2 -2,-2 h -5 c -1.104,0 -2,0.896 -2,2 z" />
		</g>
		<g
   id="g515">
			<path
   id="path517"
   fill="#ffffff"
   d="m 70,102 c 0,1.1 0.896,2 2,2 h 5 c 1.104,0 2,-0.9 2,-2 V 56 c 0,-1.104 -0.896,-2 -2,-2 h -5 c -1.104,0 -2,0.896 -2,2 z" />
			<path
   id="path519"
   stroke="#000000"
   fill="none"
   d="m 70,102 c 0,1.1 0.896,2 2,2 h 5 c 1.104,0 2,-0.9 2,-2 V 56 c 0,-1.104 -0.896,-2 -2,-2 h -5 c -1.104,0 -2,0.896 -2,2 z" />
		</g>
		<g
   id="g521">
			<path
   id="path523"
   fill="#ffffff"
   d="m 61,102 c 0,1.1 0.896,2 2,2 h 5 c 1.104,0 2,-0.9 2,-2 V 56 c 0,-1.104 -0.896,-2 -2,-2 h -5 c -1.104,0 -2,0.896 -2,2 z" />
			<path
   id="path525"
   stroke="#000000"
   fill="none"
   d="m 61,102 c 0,1.1 0.896,2 2,2 h 5 c 1.104,0 2,-0.9 2,-2 V 56 c 0,-1.104 -0.896,-2 -2,-2 h -5 c -1.104,0 -2,0.896 -2,2 z" />
		</g>
		<g
   id="g527">
			<path
   id="path529"
   fill="#ffffff"
   d="m 52,102 c 0,1.1 0.896,2 2,2 h 5 c 1.104,0 2,-0.9 2,-2 V 56 c 0,-1.104 -0.896,-2 -2,-2 h -5 c -1.104,0 -2,0.896 -2,2 z" />
			<path
   id="path531"
   stroke="#000000"
   fill="none"
   d="m 52,102 c 0,1.1 0.896,2 2,2 h 5 c 1.104,0 2,-0.9 2,-2 V 56 c 0,-1.104 -0.896,-2 -2,-2 h -5 c -1.104,0 -2,0.896 -2,2 z" />
		</g>
		<g
   id="g533">
			<path
   id="path535"
   fill="#ffffff"
   d="m 43,102 c 0,1.1 0.896,2 2,2 h 5 c 1.104,0 2,-0.9 2,-2 V 56 c 0,-1.104 -0.896,-2 -2,-2 h -5 c -1.104,0 -2,0.896 -2,2 z" />
			<path
   id="path537"
   stroke="#000000"
   fill="none"
   d="m 43,102 c 0,1.1 0.896,2 2,2 h 5 c 1.104,0 2,-0.9 2,-2 V 56 c 0,-1.104 -0.896,-2 -2,-2 h -5 c -1.104,0 -2,0.896 -2,2 z" />
		</g>
		<g
   id="g539">
			<path
   id="path541"
   fill="#ffffff"
   d="m 34,102 c 0,1.1 0.896,2 2,2 h 5 c 1.104,0 2,-0.9 2,-2 V 56 c 0,-1.104 -0.896,-2 -2,-2 h -5 c -1.104,0 -2,0.896 -2,2 z" />
			<path
   id="path543"
   stroke="#000000"
   fill="none"
   d="m 34,102 c 0,1.1 0.896,2 2,2 h 5 c 1.104,0 2,-0.9 2,-2 V 56 c 0,-1.104 -0.896,-2 -2,-2 h -5 c -1.104,0 -2,0.896 -2,2 z" />
		</g>
		<g
   id="g545">
			<path
   id="path547"
   fill="#ffffff"
   d="m 25,102 c 0,1.1 0.896,2 2,2 h 5 c 1.104,0 2,-0.9 2,-2 V 56 c 0,-1.104 -0.896,-2 -2,-2 h -5 c -1.104,0 -2,0.896 -2,2 z" />
			<path
   id="path549"
   stroke="#000000"
   fill="none"
   d="m 25,102 c 0,1.1 0.896,2 2,2 h 5 c 1.104,0 2,-0.9 2,-2 V 56 c 0,-1.104 -0.896,-2 -2,-2 h -5 c -1.104,0 -2,0.896 -2,2 z" />
		</g>
		<g
   id="g551">
			<path
   id="path553"
   fill="#ffffff"
   d="m 16,102 c 0,1.1 0.896,2 2,2 h 5 c 1.104,0 2,-0.9 2,-2 V 56 c 0,-1.104 -0.896,-2 -2,-2 h -5 c -1.104,0 -2,0.896 -2,2 z" />
			<path
   id="path555"
   stroke="#000000"
   fill="none"
   d="m 16,102 c 0,1.1 0.896,2 2,2 h 5 c 1.104,0 2,-0.9 2,-2 V 56 c 0,-1.104 -0.896,-2 -2,-2 h -5 c -1.104,0 -2,0.896 -2,2 z" />
		</g>
	</g>
	<rect
   id="rect557"
   y="53"
   width="470"
   x="15"
   height="5" />
</g><g
     id="black_keys">
	<rect
   id="rect560"
   y="58"
   width="5"
   x="23"
   height="30" />
	<g
   id="g562">
		<g
   id="g564">
			<rect
   id="rect566"
   y="58"
   width="5"
   x="418"
   height="30" />
		</g>
		<g
   id="g568">
			<rect
   id="rect570"
   y="58"
   width="5"
   x="355"
   height="30" />
		</g>
		<g
   id="g572">
			<rect
   id="rect574"
   y="58"
   width="5"
   x="292"
   height="30" />
		</g>
		<g
   id="g576">
			<rect
   id="rect578"
   y="58"
   width="5"
   x="229"
   height="30" />
		</g>
		<g
   id="g580">
			<rect
   id="rect582"
   y="58"
   width="5"
   x="166"
   height="30" />
		</g>
		<g
   id="g584">
			<rect
   id="rect586"
   y="58"
   width="5"
   x="103"
   height="30" />
		</g>
		<g
   id="g588">
			<rect
   id="rect590"
   y="58"
   width="5"
   x="40"
   height="30" />
		</g>
	</g>
	<g
   id="g592">
		<g
   id="g594">
			<rect
   id="rect596"
   y="58"
   width="5"
   x="428"
   height="30" />
		</g>
		<g
   id="g598">
			<rect
   id="rect600"
   y="58"
   width="5"
   x="365"
   height="30" />
		</g>
		<g
   id="g602">
			<rect
   id="rect604"
   y="58"
   width="5"
   x="302"
   height="30" />
		</g>
		<g
   id="g606">
			<rect
   id="rect608"
   y="58"
   width="5"
   x="239"
   height="30" />
		</g>
		<g
   id="g610">
			<rect
   id="rect612"
   y="58"
   width="5"
   x="176"
   height="30" />
		</g>
		<g
   id="g614">
			<rect
   id="rect616"
   y="58"
   width="5"
   x="113"
   height="30" />
		</g>
		<g
   id="g618">
			<rect
   id="rect620"
   y="58"
   width="5"
   x="50"
   height="30" />
		</g>
	</g>
	<g
   id="g622">
		<g
   id="g624">
			<rect
   id="rect626"
   y="58"
   width="5"
   x="445"
   height="30" />
		</g>
		<g
   id="g628">
			<rect
   id="rect630"
   y="58"
   width="5"
   x="382"
   height="30" />
		</g>
		<g
   id="g632">
			<rect
   id="rect634"
   y="58"
   width="5"
   x="319"
   height="30" />
		</g>
		<g
   id="g636">
			<rect
   id="rect638"
   y="58"
   width="5"
   x="256"
   height="30" />
		</g>
		<g
   id="g640">
			<rect
   id="rect642"
   y="58"
   width="5"
   x="193"
   height="30" />
		</g>
		<g
   id="g644">
			<rect
   id="rect646"
   y="58"
   width="5"
   x="130"
   height="30" />
		</g>
		<g
   id="g648">
			<rect
   id="rect650"
   y="58"
   width="5"
   x="67"
   height="30" />
		</g>
	</g>
	<g
   id="g652">
		<g
   id="g654">
			<rect
   id="rect656"
   y="58"
   width="5"
   x="454.5"
   height="30" />
		</g>
		<g
   id="g658">
			<rect
   id="rect660"
   y="58"
   width="5"
   x="391.5"
   height="30" />
		</g>
		<g
   id="g662">
			<rect
   id="rect664"
   y="58"
   width="5"
   x="328.5"
   height="30" />
		</g>
		<g
   id="g666">
			<rect
   id="rect668"
   y="58"
   width="5"
   x="265.5"
   height="30" />
		</g>
		<g
   id="g670">
			<rect
   id="rect672"
   y="58"
   width="5"
   x="202.5"
   height="30" />
		</g>
		<g
   id="g674">
			<rect
   id="rect676"
   y="58"
   width="5"
   x="139.5"
   height="30" />
		</g>
		<g
   id="g678">
			<rect
   id="rect680"
   y="58"
   width="5"
   x="76.5"
   height="30" />
		</g>
	</g>
	<g
   id="g682">
		<g
   id="g684">
			<rect
   id="rect686"
   y="58"
   width="5"
   x="464"
   height="30" />
		</g>
		<g
   id="g688">
			<rect
   id="rect690"
   y="58"
   width="5"
   x="401"
   height="30" />
		</g>
		<g
   id="g692">
			<rect
   id="rect694"
   y="58"
   width="5"
   x="338"
   height="30" />
		</g>
		<g
   id="g696">
			<rect
   id="rect698"
   y="58"
   width="5"
   x="275"
   height="30" />
		</g>
		<g
   id="g700">
			<rect
   id="rect702"
   y="58"
   width="5"
   x="212"
   height="30" />
		</g>
		<g
   id="g704">
			<rect
   id="rect706"
   y="58"
   width="5"
   x="149"
   height="30" />
		</g>
		<g
   id="g708">
			<rect
   id="rect710"
   y="58"
   width="5"
   x="86"
   height="30" />
		</g>
	</g>
</g></g>

<metadata
   id="metadata1"><rdf:RDF><cc:Work><dc:format>image/svg+xml</dc:format><dc:type
         rdf:resource="http://purl.org/dc/dcmitype/StillImage" /><cc:license
         rdf:resource="http://creativecommons.org/publicdomain/zero/1.0/" /><dc:publisher><cc:Agent
           rdf:about="http://openclipart.org/"><dc:title>Openclipart</dc:title></cc:Agent></dc:publisher><dc:title>Keyboard</dc:title><dc:date>2009-03-31T15:28:59</dc:date><dc:description>Basic keyboard with music staff and notes.</dc:description><dc:source>http://openclipart.org/detail/23534/keyboard-by-studiofibonacci</dc:source><dc:creator><cc:Agent><dc:title>StudioFibonacci</dc:title></cc:Agent></dc:creator><dc:subject><rdf:Bag><rdf:li>cartoon</rdf:li><rdf:li>clip art</rdf:li><rdf:li>clipart</rdf:li><rdf:li>image</rdf:li><rdf:li>keyboard</rdf:li><rdf:li>keys</rdf:li><rdf:li>media</rdf:li><rdf:li>music notes</rdf:li><rdf:li>music staff</rdf:li><rdf:li>piano</rdf:li><rdf:li>png</rdf:li><rdf:li>public domain</rdf:li><rdf:li>svg</rdf:li></rdf:Bag></dc:subject></cc:Work><cc:License
       rdf:about="http://creativecommons.org/licenses/publicdomain/"><cc:permits
         rdf:resource="http://creativecommons.org/ns#Reproduction" /><cc:permits
         rdf:resource="http://creativecommons.org/ns#Distribution" /><cc:permits
         rdf:resource="http://creativecommons.org/ns#DerivativeWorks" /></cc:License></rdf:RDF></metadata></svg>
