<svg xmlns="http://www.w3.org/2000/svg" xml:space="preserve" width="100" height="100">
    <path d="M77.838 44.082 67.427 13.824l5.521-3.672-1.855-2.787-55.214 36.717h-5.523v21.526h4.458l.957 2.153 1.837 22.782h1.38v1.375h1.435v-1.375h1.644l.748-24.935h14.937l1.063 12.295h.89v.986h1.436v-.986h1.08l.429-12.295h2.21v18.766a2.88 2.88 0 0 0-2.095 2.765v4.3h2.87v.479a.718.718 0 0 0 1.435 0v-.478h1.913v.478a.718.718 0 0 0 1.436 0v-.478h1.913v.478a.718.718 0 0 0 1.435 0v-.478h2.87v-4.301a2.88 2.88 0 0 0-2.095-2.765V65.608h22.643l.747 24.935h1.645v1.375h1.435v-1.375h1.38l1.837-22.782.957-2.153h4.458V44.082ZM88.21 58.971h-2.063V45.517h2.063zm-3.498-13.454v.987H15.289v-.987Zm-49.204-5.901a.85.85 0 0 1 .945-.923c1.704.194 3.41.082 5.074-.333a36.8 36.8 0 0 1 17.785 0 14.2 14.2 0 0 0 5.074.333.85.85 0 0 1 .945.923 4.76 4.76 0 0 0 1.757 4.136l.41.33H33.34l.41-.33a4.76 4.76 0 0 0 1.757-4.136M15.29 56.729v-8.79h69.422v8.79zm0 1.435h1.517v.807H15.29zm2.952 0h1.518v.807h-1.52zm2.953 0h1.517v.807h-1.517zm2.952 0h1.517v.807h-1.517zm2.952 0h1.518v.807h-1.518zm2.953 0h1.517v.807h-1.517zm2.952 0h1.518v.807h-1.518zm2.953 0h1.517v.807h-1.517zm2.952 0h1.517v.807h-1.517zm2.952 0h1.518v.807H41.86Zm2.953 0h1.517v.807h-1.517zm2.952 0h1.517v.807h-1.517zm2.953 0h1.517v.807h-1.517zm2.952 0h1.517v.807H53.67zm2.952 0h1.518v.807h-1.518zm2.953 0h1.517v.807h-1.517zm2.952 0h1.517v.807h-1.517zm2.952 0h1.518v.807H65.48zm2.953 0h1.517v.807h-1.517Zm2.952 0h1.517v.807h-1.517zm2.953 0h1.517v.807h-1.517zm2.952 0h1.517v.807H77.29Zm2.952 0h1.517v.807h-1.517zm2.953 0h1.517v.807h-1.517ZM76.32 44.082h-6.536l-1.797-1.447a3.32 3.32 0 0 1-1.228-2.891 2.28 2.28 0 0 0-.68-1.84 2.28 2.28 0 0 0-1.857-.637 12.8 12.8 0 0 1-4.563-.3 38.2 38.2 0 0 0-18.481 0 12.8 12.8 0 0 1-4.564.3 2.28 2.28 0 0 0-1.856.636 2.28 2.28 0 0 0-.68 1.84 3.32 3.32 0 0 1-1.229 2.892l-1.796 1.447h-9.127l44.266-29.437ZM70.693 9.354l.265.398-51.624 34.33h-.863Zm-56.84 36.163v13.454h-2.062V45.517ZM17.255 68.3h4.102l-.57 17.475h-2.123zm1.678 20.809-.153-1.9h1.961l-.062 1.9zm2.447-22.244h-4.436l-.558-1.256h4.995zm18.753 9.604-.067-.772h.796l-.026.772zm.78-2.207h-.971l-.749-8.653h2.021zm7.292-8.653h2.994v18.656h-2.994ZM46.77 84.265h-.474V65.608h.474zm8.433 2.875v2.866h-1.435V88.57a.718.718 0 0 0-1.435 0v1.435H50.42V88.57a.718.718 0 0 0-1.436 0v1.435H47.07V88.57a.718.718 0 0 0-1.435 0v1.435H44.2v-2.866c0-.794.646-1.44 1.44-1.44h8.122c.794 0 1.44.646 1.44 1.44m-2.095-2.875h-.474V65.608h.474zm26.215 4.844-.062-1.9h1.96l-.152 1.9zm2.015-3.334h-2.124l-.569-17.475h4.102zm1.72-18.91h-4.436v-1.256h4.994zm-71.266-2.69v-3.768h76.418v3.767z" style="stroke-width:.999999"/>
</svg>
