<svg xmlns="http://www.w3.org/2000/svg" xml:space="preserve" width="180" height="50" version="1.0">
    <path fill="#231f20" d="M2.5 22.19c0 .944.766 1.71 1.71 1.71h91.58a1.71 1.71 0 0 0 1.71-1.71V2.81a1.71 1.71 0 0 0-1.71-1.71H4.21A1.71 1.71 0 0 0 2.5 2.81Z" style="display:inline" transform="translate(-4.737 1.316)scale(1.89474)"/>
    <path d="M5.92 11.36a.38.38 0 0 0-.38.38v8.74c0 .21.17.38.38.38h.95a.38.38 0 0 0 .38-.38c0 .21.17.38.38.38h.95c.21 0 .38-.17.38-.38 0 .21.17.38.38.38h.95a.38.38 0 0 0 .38-.38c0 .21.17.38.38.38H12c.21 0 .38-.17.38-.38 0 .21.17.38.38.38h.95a.38.38 0 0 0 .38-.38c0 .21.17.38.38.38h.95c.21 0 .38-.17.38-.38 0 .21.17.38.38.38h.95a.38.38 0 0 0 .38-.38c0 .21.17.38.38.38h.95c.21 0 .38-.17.38-.38 0 .21.17.38.38.38h.95a.38.38 0 0 0 .38-.38c0 .21.17.38.38.38h.95a.38.38 0 0 0 .38-.38c0 .21.17.38.38.38h.95a.38.38 0 0 0 .38-.38.38.38 0 0 0 .38.38h.95a.38.38 0 0 0 .38-.38c0 .21.17.38.38.38h.95a.38.38 0 0 0 .38-.38.38.38 0 0 0 .38.38h.95a.38.38 0 0 0 .38-.38c0 .21.17.38.38.38h.95a.38.38 0 0 0 .38-.38.38.38 0 0 0 .38.38h.95a.38.38 0 0 0 .38-.38c0 .21.17.38.38.38h.95a.38.38 0 0 0 .38-.38.38.38 0 0 0 .38.38h.95a.38.38 0 0 0 .38-.38c0 .21.17.38.38.38h.95a.38.38 0 0 0 .38-.38.38.38 0 0 0 .38.38h.95a.38.38 0 0 0 .38-.38c0 .21.17.38.38.38h.95a.38.38 0 0 0 .38-.38.38.38 0 0 0 .38.38h.95a.38.38 0 0 0 .38-.38c0 .21.17.38.38.38h.95a.38.38 0 0 0 .38-.38.38.38 0 0 0 .38.38h.95a.38.38 0 0 0 .38-.38.38.38 0 0 0 .38.38h.95a.38.38 0 0 0 .38-.38.38.38 0 0 0 .38.38h.95a.38.38 0 0 0 .38-.38.38.38 0 0 0 .38.38h.95a.38.38 0 0 0 .38-.38c0 .21.17.38.38.38h.95a.38.38 0 0 0 .38-.38.38.38 0 0 0 .38.38h.95a.38.38 0 0 0 .38-.38c0 .21.17.38.38.38h.95a.38.38 0 0 0 .38-.38.38.38 0 0 0 .38.38h.95a.38.38 0 0 0 .38-.38c0 .21.17.38.38.38h.95a.38.38 0 0 0 .38-.38.38.38 0 0 0 .38.38h.95a.38.38 0 0 0 .38-.38c0 .21.17.38.38.38h.95a.38.38 0 0 0 .38-.38.38.38 0 0 0 .38.38h.95a.38.38 0 0 0 .38-.38c0 .21.17.38.38.38h.95a.38.38 0 0 0 .38-.38.38.38 0 0 0 .38.38h.95a.38.38 0 0 0 .38-.38c0 .21.17.38.38.38h.95a.38.38 0 0 0 .38-.38.38.38 0 0 0 .38.38h.95a.38.38 0 0 0 .38-.38c0 .21.17.38.38.38h.95a.38.38 0 0 0 .38-.38.38.38 0 0 0 .38.38h.95a.38.38 0 0 0 .38-.38c0 .21.17.38.38.38h.95a.38.38 0 0 0 .38-.38.38.38 0 0 0 .38.38h.95a.38.38 0 0 0 .38-.38c0 .21.17.38.38.38h.95a.38.38 0 0 0 .38-.38.38.38 0 0 0 .38.38h.95a.38.38 0 0 0 .38-.38c0 .21.17.38.38.38h.95a.38.38 0 0 0 .38-.38.38.38 0 0 0 .38.38h.95a.38.38 0 0 0 .38-.38c0 .21.17.38.38.38h.95a.38.38 0 0 0 .38-.38.38.38 0 0 0 .38.38h.95a.38.38 0 0 0 .38-.38.38.38 0 0 0 .38.38h.95a.38.38 0 0 0 .38-.38.38.38 0 0 0 .38.38h.95a.38.38 0 0 0 .38-.38.38.38 0 0 0 .38.38h.95a.38.38 0 0 0 .38-.38v-8.74a.38.38 0 0 0-.38-.38z" style="display:inline;fill:#fff" transform="translate(-4.737 1.316)scale(1.89474)"/>
    <path d="M5.35 11.17v.95h.095v8.36c0 .261.213.475.475.475h.95a.48.48 0 0 0 .38-.193.48.48 0 0 0 .38.193h.95a.47.47 0 0 0 .38-.193.47.47 0 0 0 .38.193h.95a.48.48 0 0 0 .38-.193.48.48 0 0 0 .38.193H12a.47.47 0 0 0 .379-.193.47.47 0 0 0 .38.193h.952a.47.47 0 0 0 .379-.191.48.48 0 0 0 .38.191h.95a.47.47 0 0 0 .38-.193.47.47 0 0 0 .38.193h.95a.47.47 0 0 0 .38-.191.48.48 0 0 0 .38.191h.95a.47.47 0 0 0 .379-.193.47.47 0 0 0 .38.193h.952a.47.47 0 0 0 .379-.193.47.47 0 0 0 .38.193h.95a.47.47 0 0 0 .38-.193.47.47 0 0 0 .38.193h.95a.47.47 0 0 0 .382-.193.47.47 0 0 0 .378.193h.95a.47.47 0 0 0 .379-.193.47.47 0 0 0 .38.193h.952a.47.47 0 0 0 .379-.193.47.47 0 0 0 .38.193h.95a.47.47 0 0 0 .38-.193.47.47 0 0 0 .38.193h.95a.47.47 0 0 0 .381-.193.47.47 0 0 0 .38.193h.949a.47.47 0 0 0 .378-.193.47.47 0 0 0 .381.193h.951a.47.47 0 0 0 .38-.193.47.47 0 0 0 .38.193h.95a.47.47 0 0 0 .38-.193.47.47 0 0 0 .38.193h.95a.47.47 0 0 0 .381-.193.47.47 0 0 0 .38.193h.948a.48.48 0 0 0 .381-.191.47.47 0 0 0 .38.191h.95a.47.47 0 0 0 .38-.193.47.47 0 0 0 .38.193h.95a.48.48 0 0 0 .38-.191.47.47 0 0 0 .38.191h.95a.47.47 0 0 0 .381-.193.47.47 0 0 0 .379.193h.95a.48.48 0 0 0 .38-.193.48.48 0 0 0 .38.193h.95a.47.47 0 0 0 .38-.193.47.47 0 0 0 .38.193h.95a.48.48 0 0 0 .38-.193.48.48 0 0 0 .38.193h.95a.47.47 0 0 0 .38-.193.47.47 0 0 0 .38.193h.95a.48.48 0 0 0 .38-.193.48.48 0 0 0 .38.193h.95a.47.47 0 0 0 .379-.193.47.47 0 0 0 .38.193h.952a.47.47 0 0 0 .379-.191.48.48 0 0 0 .38.191h.95a.47.47 0 0 0 .38-.193.47.47 0 0 0 .38.193h.95a.47.47 0 0 0 .38-.191.48.48 0 0 0 .38.191h.95a.47.47 0 0 0 .379-.193.47.47 0 0 0 .38.193h.952a.47.47 0 0 0 .379-.193.47.47 0 0 0 .38.193h.95a.47.47 0 0 0 .38-.193.47.47 0 0 0 .38.193h.95a.47.47 0 0 0 .382-.193.47.47 0 0 0 .378.193h.95a.47.47 0 0 0 .379-.193.47.47 0 0 0 .38.193h.952a.47.47 0 0 0 .379-.193.47.47 0 0 0 .38.193h.95a.47.47 0 0 0 .38-.193.47.47 0 0 0 .38.193h.95a.47.47 0 0 0 .381-.193.47.47 0 0 0 .38.193h.949a.47.47 0 0 0 .378-.193.47.47 0 0 0 .381.193h.951a.47.47 0 0 0 .38-.193.47.47 0 0 0 .38.193h.95a.47.47 0 0 0 .38-.193.47.47 0 0 0 .38.193h.95a.47.47 0 0 0 .381-.193.47.47 0 0 0 .38.193h.948a.48.48 0 0 0 .381-.191.47.47 0 0 0 .38.191h.95a.47.47 0 0 0 .38-.193.47.47 0 0 0 .38.193h.95a.48.48 0 0 0 .38-.191.47.47 0 0 0 .38.191h.95a.47.47 0 0 0 .381-.193.47.47 0 0 0 .379.193h.95a.48.48 0 0 0 .38-.193.48.48 0 0 0 .38.193h.95a.47.47 0 0 0 .38-.193.47.47 0 0 0 .38.193h.95a.48.48 0 0 0 .38-.193.48.48 0 0 0 .38.193h.95c.26 0 .475-.214.475-.475v-8.36h.095v-.95zm.285.95h1.234v5.7h.285v2.66a.284.284 0 0 1-.285.286h-.95a.285.285 0 0 1-.284-.286zm2.185 0h1.045v8.36a.284.284 0 0 1-.285.286h-.95a.285.285 0 0 1-.284-.286v-2.66h.474zm1.235 0H10.1v5.7h.474v2.66a.284.284 0 0 1-.285.286h-.95a.285.285 0 0 1-.284-.286zm1.996 0H12v5.7h.285v2.66a.284.284 0 0 1-.285.286h-.95a.285.285 0 0 1-.284-.286v-2.66h.285zm1.898 0h1.045v8.36a.28.28 0 0 1-.283.286h-.951a.285.285 0 0 1-.285-.286v-2.66h.474zm1.237 0h1.044v5.7h.475v2.66a.284.284 0 0 1-.285.286h-.95a.285.285 0 0 1-.284-.286zm1.994 0h.855v5.7h.38v2.66a.28.28 0 0 1-.284.286h-.951a.285.285 0 0 1-.285-.286v-2.66h.285zm1.804 0h.856v5.7h.285v2.66a.284.284 0 0 1-.285.286h-.95a.285.285 0 0 1-.285-.286v-2.66h.38zm1.805 0h1.047v8.36a.284.284 0 0 1-.285.286H19.6a.285.285 0 0 1-.286-.286v-2.66h.475zm1.236 0h1.045v5.7h.475v2.66a.286.286 0 0 1-.285.286h-.95a.285.285 0 0 1-.285-.286zm1.995 0h.95v5.7h.286v2.66a.286.286 0 0 1-.285.286h-.951a.286.286 0 0 1-.286-.286v-2.66h.286zm1.9 0h1.045v8.36a.286.286 0 0 1-.285.286h-.95a.286.286 0 0 1-.285-.286v-2.66h.475zm1.234 0H27.2v5.7h.477v2.66a.286.286 0 0 1-.285.286h-.952a.286.286 0 0 1-.285-.286zm1.996 0h.856v5.7h.379v2.66a.286.286 0 0 1-.285.286h-.95a.286.286 0 0 1-.285-.286v-2.66h.285zm1.805 0h.856v5.7h.285v2.66a.286.286 0 0 1-.285.286h-.952a.286.286 0 0 1-.285-.286v-2.66h.381zm1.805 0h1.045v8.36a.286.286 0 0 1-.285.286h-.95a.286.286 0 0 1-.285-.286v-2.66h.475zm1.234 0h1.045v5.7h.477v2.66a.286.286 0 0 1-.286.286h-.95a.286.286 0 0 1-.286-.286zm1.996 0h.95v5.7h.285v2.66a.286.286 0 0 1-.286.286h-.949a.286.286 0 0 1-.285-.286v-2.66h.285zm1.9 0h1.046v8.36a.286.286 0 0 1-.286.286h-.95a.286.286 0 0 1-.286-.286v-2.66h.477zm1.235 0h1.045v5.7h.475v2.66a.286.286 0 0 1-.286.286h-.949a.286.286 0 0 1-.285-.286zm1.994 0h.856v5.7h.38v2.66a.286.286 0 0 1-.285.286h-.95a.284.284 0 0 1-.284-.286v-2.66h.283zm1.807 0h.853v5.7h.285v2.66a.286.286 0 0 1-.285.286h-.949a.286.286 0 0 1-.285-.286v-2.66h.38zm1.804 0h1.045v8.36a.286.286 0 0 1-.285.286h-.95a.284.284 0 0 1-.284-.286v-2.66h.474zm1.235 0h1.045v5.7h.474v2.66a.286.286 0 0 1-.285.286h-.949a.286.286 0 0 1-.285-.286zm1.996 0h.95v5.7h.284v2.66a.286.286 0 0 1-.285.286h-.95a.286.286 0 0 1-.284-.286v-2.66h.285zm1.898 0h1.045v8.36a.286.286 0 0 1-.285.286h-.95a.286.286 0 0 1-.284-.286v-2.66h.474zm1.237 0h1.045v5.7h.474v2.66a.286.286 0 0 1-.285.286h-.95a.286.286 0 0 1-.284-.286zm1.994 0h.855v5.7h.38v2.66a.286.286 0 0 1-.286.286h-.95a.286.286 0 0 1-.284-.286v-2.66h.285zm1.805 0h.855v5.7h.285v2.66a.286.286 0 0 1-.285.286h-.95a.286.286 0 0 1-.284-.286v-2.66h.379zm1.804 0h1.045v8.36a.284.284 0 0 1-.283.286h-.951a.286.286 0 0 1-.285-.286v-2.66h.474zm1.237 0h1.044v5.7h.475v2.66a.286.286 0 0 1-.285.286h-.95a.286.286 0 0 1-.284-.286zm1.994 0h.95v5.7h.284v2.66a.284.284 0 0 1-.283.286h-.951a.286.286 0 0 1-.285-.286v-2.66h.285zm1.9 0h1.045v8.36a.286.286 0 0 1-.285.286h-.95a.286.286 0 0 1-.285-.286v-2.66h.475zm1.234 0h1.045v5.7h.477v2.66a.286.286 0 0 1-.285.286h-.951a.286.286 0 0 1-.286-.286zm1.997 0h.853v5.7h.38v2.66a.286.286 0 0 1-.284.286h-.95a.286.286 0 0 1-.285-.286v-2.66h.286zm1.804 0h.856v5.7h.285v2.66a.286.286 0 0 1-.285.286h-.951a.286.286 0 0 1-.286-.286v-2.66h.381zm1.805 0h1.045v8.36a.286.286 0 0 1-.285.286h-.95a.286.286 0 0 1-.285-.286v-2.66h.475zm1.234 0h1.045v5.7h.477v2.66a.286.286 0 0 1-.285.286h-.952a.286.286 0 0 1-.285-.286zm1.996 0h.95v5.7h.285v2.66a.286.286 0 0 1-.285.286h-.95a.286.286 0 0 1-.285-.286v-2.66h.285zm1.9 0h1.046v8.36a.286.286 0 0 1-.285.286h-.952a.286.286 0 0 1-.285-.286v-2.66h.477zm1.235 0h1.045v5.7h.475v2.66a.286.286 0 0 1-.285.286h-.95a.286.286 0 0 1-.285-.286zm1.994 0h.856v5.7h.38v2.66a.286.286 0 0 1-.285.286h-.95a.286.286 0 0 1-.286-.286v-2.66h.285zm1.807 0h.853v5.7h.286v2.66a.286.286 0 0 1-.286.286h-.949a.286.286 0 0 1-.285-.286v-2.66h.38zm1.805 0h1.045v8.36a.286.286 0 0 1-.286.286h-.95a.286.286 0 0 1-.286-.286v-2.66h.477zm1.234 0h1.045v5.7h.475v2.66a.286.286 0 0 1-.286.286h-.949a.286.286 0 0 1-.285-.286zm1.994 0h.951v5.7h.285v2.66a.286.286 0 0 1-.285.286h-.95a.284.284 0 0 1-.284-.286v-2.66h.283zm1.9 0h1.045v8.36a.286.286 0 0 1-.285.286h-.949a.286.286 0 0 1-.285-.286v-2.66h.475zm1.237 0h1.045v5.7h.474v2.66a.286.286 0 0 1-.285.286h-.95a.284.284 0 0 1-.284-.286zm1.994 0h.855v5.7h.38v2.66a.286.286 0 0 1-.286.286H88a.286.286 0 0 1-.285-.286v-2.66H88Zm1.805 0h.855v5.7h.285v2.66a.286.286 0 0 1-.285.286h-.95a.286.286 0 0 1-.284-.286v-2.66h.379zm1.804 0h1.045v8.36a.286.286 0 0 1-.285.286h-.95a.286.286 0 0 1-.284-.286v-2.66h.474zm1.237 0h1.52v8.36a.286.286 0 0 1-.286.286h-.95a.286.286 0 0 1-.284-.286z" style="color:#000;display:inline;fill:#000;-inkscape-stroke:none" transform="translate(-4.737 1.316)scale(1.89474)"/>
</svg>
