<svg xmlns="http://www.w3.org/2000/svg" xml:space="preserve" width="100" height="25" version="1.0"><path fill="#231f20" d="M2.5 22.19c0 .944.766 1.71 1.71 1.71h91.58a1.71 1.71 0 0 0 1.71-1.71V2.81a1.71 1.71 0 0 0-1.71-1.71H4.21A1.71 1.71 0 0 0 2.5 2.81Z"/><path fill="#fff" d="M92.75 20.48c0 .209.171.38.38.38h.95c.209 0 .38-.171.38-.38v-8.74a.38.38 0 0 0-.38-.38h-.95a.38.38 0 0 0-.38.38z"/><path fill="none" stroke="#000" stroke-width=".19" d="M92.75 20.48c0 .209.171.38.38.38h.95c.209 0 .38-.171.38-.38v-8.74a.38.38 0 0 0-.38-.38h-.95a.38.38 0 0 0-.38.38z"/><path fill="#fff" d="M91.04 20.48c0 .209.171.38.38.38h.95c.209 0 .38-.171.38-.38v-8.74a.38.38 0 0 0-.38-.38h-.95a.38.38 0 0 0-.38.38z"/><path fill="none" stroke="#000" stroke-width=".19" d="M91.04 20.48c0 .209.171.38.38.38h.95c.209 0 .38-.171.38-.38v-8.74a.38.38 0 0 0-.38-.38h-.95a.38.38 0 0 0-.38.38z"/><path fill="#fff" d="M89.33 20.48c0 .209.171.38.38.38h.95c.209 0 .38-.171.38-.38v-8.74a.38.38 0 0 0-.38-.38h-.95a.38.38 0 0 0-.38.38z"/><path fill="none" stroke="#000" stroke-width=".19" d="M89.33 20.48c0 .209.171.38.38.38h.95c.209 0 .38-.171.38-.38v-8.74a.38.38 0 0 0-.38-.38h-.95a.38.38 0 0 0-.38.38z"/><path fill="#fff" d="M87.62 20.48c0 .209.171.38.38.38h.95c.209 0 .38-.171.38-.38v-8.74a.38.38 0 0 0-.38-.38H88a.38.38 0 0 0-.38.38z"/><path fill="none" stroke="#000" stroke-width=".19" d="M87.62 20.48c0 .209.171.38.38.38h.95c.209 0 .38-.171.38-.38v-8.74a.38.38 0 0 0-.38-.38H88a.38.38 0 0 0-.38.38z"/><path fill="#fff" d="M85.91 20.48c0 .209.171.38.38.38h.95c.209 0 .38-.171.38-.38v-8.74a.38.38 0 0 0-.38-.38h-.95a.38.38 0 0 0-.38.38z"/><path fill="none" stroke="#000" stroke-width=".19" d="M85.91 20.48c0 .209.171.38.38.38h.95c.209 0 .38-.171.38-.38v-8.74a.38.38 0 0 0-.38-.38h-.95a.38.38 0 0 0-.38.38z"/><path fill="#fff" d="M84.2 20.48c0 .209.171.38.38.38h.95c.209 0 .38-.171.38-.38v-8.74a.38.38 0 0 0-.38-.38h-.95a.38.38 0 0 0-.38.38z"/><path fill="none" stroke="#000" stroke-width=".19" d="M84.2 20.48c0 .209.171.38.38.38h.95c.209 0 .38-.171.38-.38v-8.74a.38.38 0 0 0-.38-.38h-.95a.38.38 0 0 0-.38.38z"/><path fill="#fff" d="M82.49 20.48c0 .209.171.38.38.38h.95c.209 0 .38-.171.38-.38v-8.74a.38.38 0 0 0-.38-.38h-.95a.38.38 0 0 0-.38.38z"/><path fill="none" stroke="#000" stroke-width=".19" d="M82.49 20.48c0 .209.171.38.38.38h.95c.209 0 .38-.171.38-.38v-8.74a.38.38 0 0 0-.38-.38h-.95a.38.38 0 0 0-.38.38z"/><path fill="#fff" d="M80.78 20.48c0 .209.171.38.38.38h.95c.209 0 .38-.171.38-.38v-8.74a.38.38 0 0 0-.38-.38h-.95a.38.38 0 0 0-.38.38z"/><path fill="none" stroke="#000" stroke-width=".19" d="M80.78 20.48c0 .209.171.38.38.38h.95c.209 0 .38-.171.38-.38v-8.74a.38.38 0 0 0-.38-.38h-.95a.38.38 0 0 0-.38.38z"/><path fill="#fff" d="M79.07 20.48c0 .209.171.38.38.38h.95c.209 0 .38-.171.38-.38v-8.74a.38.38 0 0 0-.38-.38h-.95a.38.38 0 0 0-.38.38z"/><path fill="none" stroke="#000" stroke-width=".19" d="M79.07 20.48c0 .209.171.38.38.38h.95c.209 0 .38-.171.38-.38v-8.74a.38.38 0 0 0-.38-.38h-.95a.38.38 0 0 0-.38.38z"/><path fill="#fff" d="M77.36 20.48c0 .209.171.38.38.38h.95c.209 0 .38-.171.38-.38v-8.74a.38.38 0 0 0-.38-.38h-.95a.38.38 0 0 0-.38.38z"/><path fill="none" stroke="#000" stroke-width=".19" d="M77.36 20.48c0 .209.171.38.38.38h.95c.209 0 .38-.171.38-.38v-8.74a.38.38 0 0 0-.38-.38h-.95a.38.38 0 0 0-.38.38z"/><path fill="#fff" d="M75.65 20.48c0 .209.171.38.38.38h.95c.209 0 .38-.171.38-.38v-8.74a.38.38 0 0 0-.38-.38h-.95a.38.38 0 0 0-.38.38z"/><path fill="none" stroke="#000" stroke-width=".19" d="M75.65 20.48c0 .209.171.38.38.38h.95c.209 0 .38-.171.38-.38v-8.74a.38.38 0 0 0-.38-.38h-.95a.38.38 0 0 0-.38.38z"/><path fill="#fff" d="M73.94 20.48c0 .209.171.38.38.38h.95c.209 0 .38-.171.38-.38v-8.74a.38.38 0 0 0-.38-.38h-.95a.38.38 0 0 0-.38.38z"/><path fill="none" stroke="#000" stroke-width=".19" d="M73.94 20.48c0 .209.171.38.38.38h.95c.209 0 .38-.171.38-.38v-8.74a.38.38 0 0 0-.38-.38h-.95a.38.38 0 0 0-.38.38z"/><path fill="#fff" d="M72.23 20.48c0 .209.171.38.38.38h.95c.209 0 .38-.171.38-.38v-8.74a.38.38 0 0 0-.38-.38h-.95a.38.38 0 0 0-.38.38z"/><path fill="none" stroke="#000" stroke-width=".19" d="M72.23 20.48c0 .209.171.38.38.38h.95c.209 0 .38-.171.38-.38v-8.74a.38.38 0 0 0-.38-.38h-.95a.38.38 0 0 0-.38.38z"/><path fill="#fff" d="M70.52 20.48c0 .209.171.38.38.38h.95c.209 0 .38-.171.38-.38v-8.74a.38.38 0 0 0-.38-.38h-.95a.38.38 0 0 0-.38.38z"/><path fill="none" stroke="#000" stroke-width=".19" d="M70.52 20.48c0 .209.171.38.38.38h.95c.209 0 .38-.171.38-.38v-8.74a.38.38 0 0 0-.38-.38h-.95a.38.38 0 0 0-.38.38z"/><path fill="#fff" d="M68.81 20.48c0 .209.171.38.38.38h.95c.209 0 .38-.171.38-.38v-8.74a.38.38 0 0 0-.38-.38h-.95a.38.38 0 0 0-.38.38z"/><path fill="none" stroke="#000" stroke-width=".19" d="M68.81 20.48c0 .209.171.38.38.38h.95c.209 0 .38-.171.38-.38v-8.74a.38.38 0 0 0-.38-.38h-.95a.38.38 0 0 0-.38.38z"/><path fill="#fff" d="M67.1 20.48c0 .209.171.38.38.38h.95c.209 0 .38-.171.38-.38v-8.74a.38.38 0 0 0-.38-.38h-.95a.38.38 0 0 0-.38.38z"/><path fill="none" stroke="#000" stroke-width=".19" d="M67.1 20.48c0 .209.171.38.38.38h.95c.209 0 .38-.171.38-.38v-8.74a.38.38 0 0 0-.38-.38h-.95a.38.38 0 0 0-.38.38z"/><path fill="#fff" d="M65.39 20.48c0 .209.171.38.38.38h.95c.209 0 .38-.171.38-.38v-8.74a.38.38 0 0 0-.38-.38h-.95a.38.38 0 0 0-.38.38z"/><path fill="none" stroke="#000" stroke-width=".19" d="M65.39 20.48c0 .209.171.38.38.38h.95c.209 0 .38-.171.38-.38v-8.74a.38.38 0 0 0-.38-.38h-.95a.38.38 0 0 0-.38.38z"/><path fill="#fff" d="M63.68 20.48c0 .209.171.38.38.38h.95c.209 0 .38-.171.38-.38v-8.74a.38.38 0 0 0-.38-.38h-.95a.38.38 0 0 0-.38.38z"/><path fill="none" stroke="#000" stroke-width=".19" d="M63.68 20.48c0 .209.171.38.38.38h.95c.209 0 .38-.171.38-.38v-8.74a.38.38 0 0 0-.38-.38h-.95a.38.38 0 0 0-.38.38z"/><path fill="#fff" d="M61.97 20.48c0 .209.171.38.38.38h.95c.209 0 .38-.171.38-.38v-8.74a.38.38 0 0 0-.38-.38h-.95a.38.38 0 0 0-.38.38z"/><path fill="none" stroke="#000" stroke-width=".19" d="M61.97 20.48c0 .209.171.38.38.38h.95c.209 0 .38-.171.38-.38v-8.74a.38.38 0 0 0-.38-.38h-.95a.38.38 0 0 0-.38.38z"/><path fill="#fff" d="M60.26 20.48c0 .209.171.38.38.38h.95c.209 0 .38-.171.38-.38v-8.74a.38.38 0 0 0-.38-.38h-.95a.38.38 0 0 0-.38.38z"/><path fill="none" stroke="#000" stroke-width=".19" d="M60.26 20.48c0 .209.171.38.38.38h.95c.209 0 .38-.171.38-.38v-8.74a.38.38 0 0 0-.38-.38h-.95a.38.38 0 0 0-.38.38z"/><path fill="#fff" d="M58.55 20.48c0 .209.171.38.38.38h.95c.209 0 .38-.171.38-.38v-8.74a.38.38 0 0 0-.38-.38h-.95a.38.38 0 0 0-.38.38z"/><path fill="none" stroke="#000" stroke-width=".19" d="M58.55 20.48c0 .209.171.38.38.38h.95c.209 0 .38-.171.38-.38v-8.74a.38.38 0 0 0-.38-.38h-.95a.38.38 0 0 0-.38.38z"/><path fill="#fff" d="M56.84 20.48c0 .209.171.38.38.38h.95c.209 0 .38-.171.38-.38v-8.74a.38.38 0 0 0-.38-.38h-.95a.38.38 0 0 0-.38.38z"/><path fill="none" stroke="#000" stroke-width=".19" d="M56.84 20.48c0 .209.171.38.38.38h.95c.209 0 .38-.171.38-.38v-8.74a.38.38 0 0 0-.38-.38h-.95a.38.38 0 0 0-.38.38z"/><path fill="#fff" d="M55.13 20.48c0 .209.171.38.38.38h.95c.209 0 .38-.171.38-.38v-8.74a.38.38 0 0 0-.38-.38h-.95a.38.38 0 0 0-.38.38z"/><path fill="none" stroke="#000" stroke-width=".19" d="M55.13 20.48c0 .209.171.38.38.38h.95c.209 0 .38-.171.38-.38v-8.74a.38.38 0 0 0-.38-.38h-.95a.38.38 0 0 0-.38.38z"/><path fill="#fff" d="M53.42 20.48c0 .209.171.38.38.38h.95c.209 0 .38-.171.38-.38v-8.74a.38.38 0 0 0-.38-.38h-.95a.38.38 0 0 0-.38.38z"/><path fill="none" stroke="#000" stroke-width=".19" d="M53.42 20.48c0 .209.171.38.38.38h.95c.209 0 .38-.171.38-.38v-8.74a.38.38 0 0 0-.38-.38h-.95a.38.38 0 0 0-.38.38z"/><path fill="#fff" d="M51.71 20.48c0 .209.171.38.38.38h.95c.209 0 .38-.171.38-.38v-8.74a.38.38 0 0 0-.38-.38h-.95a.38.38 0 0 0-.38.38z"/><path fill="none" stroke="#000" stroke-width=".19" d="M51.71 20.48c0 .209.171.38.38.38h.95c.209 0 .38-.171.38-.38v-8.74a.38.38 0 0 0-.38-.38h-.95a.38.38 0 0 0-.38.38z"/><path fill="#fff" d="M50 20.48c0 .209.171.38.38.38h.95c.209 0 .38-.171.38-.38v-8.74a.38.38 0 0 0-.38-.38h-.95a.38.38 0 0 0-.38.38z"/><path fill="none" stroke="#000" stroke-width=".19" d="M50 20.48c0 .209.171.38.38.38h.95c.209 0 .38-.171.38-.38v-8.74a.38.38 0 0 0-.38-.38h-.95a.38.38 0 0 0-.38.38z"/><path fill="#fff" d="M48.29 20.48c0 .209.171.38.38.38h.95c.209 0 .38-.171.38-.38v-8.74a.38.38 0 0 0-.38-.38h-.95a.38.38 0 0 0-.38.38z"/><path fill="none" stroke="#000" stroke-width=".19" d="M48.29 20.48c0 .209.171.38.38.38h.95c.209 0 .38-.171.38-.38v-8.74a.38.38 0 0 0-.38-.38h-.95a.38.38 0 0 0-.38.38z"/><path fill="#fff" d="M46.58 20.48c0 .209.171.38.38.38h.95c.209 0 .38-.171.38-.38v-8.74a.38.38 0 0 0-.38-.38h-.95a.38.38 0 0 0-.38.38z"/><path fill="none" stroke="#000" stroke-width=".19" d="M46.58 20.48c0 .209.171.38.38.38h.95c.209 0 .38-.171.38-.38v-8.74a.38.38 0 0 0-.38-.38h-.95a.38.38 0 0 0-.38.38z"/><path fill="#fff" d="M44.87 20.48c0 .209.171.38.38.38h.95c.209 0 .38-.171.38-.38v-8.74a.38.38 0 0 0-.38-.38h-.95a.38.38 0 0 0-.38.38z"/><path fill="none" stroke="#000" stroke-width=".19" d="M44.87 20.48c0 .209.171.38.38.38h.95c.209 0 .38-.171.38-.38v-8.74a.38.38 0 0 0-.38-.38h-.95a.38.38 0 0 0-.38.38z"/><path fill="#fff" d="M43.16 20.48c0 .209.171.38.38.38h.95c.209 0 .38-.171.38-.38v-8.74a.38.38 0 0 0-.38-.38h-.95a.38.38 0 0 0-.38.38z"/><path fill="none" stroke="#000" stroke-width=".19" d="M43.16 20.48c0 .209.171.38.38.38h.95c.209 0 .38-.171.38-.38v-8.74a.38.38 0 0 0-.38-.38h-.95a.38.38 0 0 0-.38.38z"/><path fill="#fff" d="M41.45 20.48c0 .209.171.38.38.38h.95c.209 0 .38-.171.38-.38v-8.74a.38.38 0 0 0-.38-.38h-.95a.38.38 0 0 0-.38.38z"/><path fill="none" stroke="#000" stroke-width=".19" d="M41.45 20.48c0 .209.171.38.38.38h.95c.209 0 .38-.171.38-.38v-8.74a.38.38 0 0 0-.38-.38h-.95a.38.38 0 0 0-.38.38z"/><path fill="#fff" d="M39.74 20.48c0 .209.171.38.38.38h.95c.209 0 .38-.171.38-.38v-8.74a.38.38 0 0 0-.38-.38h-.95a.38.38 0 0 0-.38.38z"/><path fill="none" stroke="#000" stroke-width=".19" d="M39.74 20.48c0 .209.171.38.38.38h.95c.209 0 .38-.171.38-.38v-8.74a.38.38 0 0 0-.38-.38h-.95a.38.38 0 0 0-.38.38z"/><path fill="#fff" d="M38.03 20.48c0 .209.171.38.38.38h.95c.209 0 .38-.171.38-.38v-8.74a.38.38 0 0 0-.38-.38h-.95a.38.38 0 0 0-.38.38z"/><path fill="none" stroke="#000" stroke-width=".19" d="M38.03 20.48c0 .209.171.38.38.38h.95c.209 0 .38-.171.38-.38v-8.74a.38.38 0 0 0-.38-.38h-.95a.38.38 0 0 0-.38.38z"/><path fill="#fff" d="M36.32 20.48c0 .209.171.38.38.38h.95c.209 0 .38-.171.38-.38v-8.74a.38.38 0 0 0-.38-.38h-.95a.38.38 0 0 0-.38.38z"/><path fill="none" stroke="#000" stroke-width=".19" d="M36.32 20.48c0 .209.171.38.38.38h.95c.209 0 .38-.171.38-.38v-8.74a.38.38 0 0 0-.38-.38h-.95a.38.38 0 0 0-.38.38z"/><path fill="#fff" d="M34.61 20.48c0 .209.171.38.38.38h.95c.209 0 .38-.171.38-.38v-8.74a.38.38 0 0 0-.38-.38h-.95a.38.38 0 0 0-.38.38z"/><path fill="none" stroke="#000" stroke-width=".19" d="M34.61 20.48c0 .209.171.38.38.38h.95c.209 0 .38-.171.38-.38v-8.74a.38.38 0 0 0-.38-.38h-.95a.38.38 0 0 0-.38.38z"/><path fill="#fff" d="M32.9 20.48c0 .209.171.38.38.38h.95c.209 0 .38-.171.38-.38v-8.74a.38.38 0 0 0-.38-.38h-.95a.38.38 0 0 0-.38.38z"/><path fill="none" stroke="#000" stroke-width=".19" d="M32.9 20.48c0 .209.171.38.38.38h.95c.209 0 .38-.171.38-.38v-8.74a.38.38 0 0 0-.38-.38h-.95a.38.38 0 0 0-.38.38z"/><path fill="#fff" d="M31.19 20.48c0 .209.171.38.38.38h.95c.209 0 .38-.171.38-.38v-8.74a.38.38 0 0 0-.38-.38h-.95a.38.38 0 0 0-.38.38z"/><path fill="none" stroke="#000" stroke-width=".19" d="M31.19 20.48c0 .209.171.38.38.38h.95c.209 0 .38-.171.38-.38v-8.74a.38.38 0 0 0-.38-.38h-.95a.38.38 0 0 0-.38.38z"/><path fill="#fff" d="M29.48 20.48c0 .209.171.38.38.38h.95c.209 0 .38-.171.38-.38v-8.74a.38.38 0 0 0-.38-.38h-.95a.38.38 0 0 0-.38.38z"/><path fill="none" stroke="#000" stroke-width=".19" d="M29.48 20.48c0 .209.171.38.38.38h.95c.209 0 .38-.171.38-.38v-8.74a.38.38 0 0 0-.38-.38h-.95a.38.38 0 0 0-.38.38z"/><path fill="#fff" d="M27.77 20.48c0 .209.171.38.38.38h.95c.209 0 .38-.171.38-.38v-8.74a.38.38 0 0 0-.38-.38h-.95a.38.38 0 0 0-.38.38z"/><path fill="none" stroke="#000" stroke-width=".19" d="M27.77 20.48c0 .209.171.38.38.38h.95c.209 0 .38-.171.38-.38v-8.74a.38.38 0 0 0-.38-.38h-.95a.38.38 0 0 0-.38.38z"/><path fill="#fff" d="M26.06 20.48c0 .209.171.38.38.38h.95c.209 0 .38-.171.38-.38v-8.74a.38.38 0 0 0-.38-.38h-.95a.38.38 0 0 0-.38.38z"/><path fill="none" stroke="#000" stroke-width=".19" d="M26.06 20.48c0 .209.171.38.38.38h.95c.209 0 .38-.171.38-.38v-8.74a.38.38 0 0 0-.38-.38h-.95a.38.38 0 0 0-.38.38z"/><path fill="#fff" d="M24.35 20.48c0 .209.171.38.38.38h.95c.209 0 .38-.171.38-.38v-8.74a.38.38 0 0 0-.38-.38h-.95a.38.38 0 0 0-.38.38z"/><path fill="none" stroke="#000" stroke-width=".19" d="M24.35 20.48c0 .209.171.38.38.38h.95c.209 0 .38-.171.38-.38v-8.74a.38.38 0 0 0-.38-.38h-.95a.38.38 0 0 0-.38.38z"/><path fill="#fff" d="M22.64 20.48c0 .209.171.38.38.38h.95c.209 0 .38-.171.38-.38v-8.74a.38.38 0 0 0-.38-.38h-.95a.38.38 0 0 0-.38.38z"/><path fill="none" stroke="#000" stroke-width=".19" d="M22.64 20.48c0 .209.171.38.38.38h.95c.209 0 .38-.171.38-.38v-8.74a.38.38 0 0 0-.38-.38h-.95a.38.38 0 0 0-.38.38z"/><path fill="#fff" d="M20.93 20.48c0 .209.17.38.38.38h.95c.209 0 .38-.171.38-.38v-8.74a.38.38 0 0 0-.38-.38h-.95a.38.38 0 0 0-.38.38z"/><path fill="none" stroke="#000" stroke-width=".19" d="M20.93 20.48c0 .209.17.38.38.38h.95c.209 0 .38-.171.38-.38v-8.74a.38.38 0 0 0-.38-.38h-.95a.38.38 0 0 0-.38.38z"/><path fill="#fff" d="M19.22 20.48c0 .209.17.38.38.38h.95a.38.38 0 0 0 .38-.38v-8.74a.38.38 0 0 0-.38-.38h-.95a.38.38 0 0 0-.38.38z"/><path fill="none" stroke="#000" stroke-width=".19" d="M19.22 20.48c0 .209.17.38.38.38h.95a.38.38 0 0 0 .38-.38v-8.74a.38.38 0 0 0-.38-.38h-.95a.38.38 0 0 0-.38.38z"/><path fill="#fff" d="M17.51 20.48c0 .209.17.38.38.38h.95a.38.38 0 0 0 .38-.38v-8.74a.38.38 0 0 0-.38-.38h-.95a.38.38 0 0 0-.38.38z"/><path fill="none" stroke="#000" stroke-width=".19" d="M17.51 20.48c0 .209.17.38.38.38h.95a.38.38 0 0 0 .38-.38v-8.74a.38.38 0 0 0-.38-.38h-.95a.38.38 0 0 0-.38.38z"/><path fill="#fff" d="M15.8 20.48c0 .209.17.38.38.38h.95a.38.38 0 0 0 .38-.38v-8.74a.38.38 0 0 0-.38-.38h-.95a.38.38 0 0 0-.38.38z"/><path fill="none" stroke="#000" stroke-width=".19" d="M15.8 20.48c0 .209.17.38.38.38h.95a.38.38 0 0 0 .38-.38v-8.74a.38.38 0 0 0-.38-.38h-.95a.38.38 0 0 0-.38.38z"/><path fill="#fff" d="M14.09 20.48c0 .209.17.38.38.38h.95a.38.38 0 0 0 .38-.38v-8.74a.38.38 0 0 0-.38-.38h-.95a.38.38 0 0 0-.38.38z"/><path fill="none" stroke="#000" stroke-width=".19" d="M14.09 20.48c0 .209.17.38.38.38h.95a.38.38 0 0 0 .38-.38v-8.74a.38.38 0 0 0-.38-.38h-.95a.38.38 0 0 0-.38.38z"/><path fill="#fff" d="M12.38 20.48c0 .209.17.38.38.38h.95a.38.38 0 0 0 .38-.38v-8.74a.38.38 0 0 0-.38-.38h-.95a.38.38 0 0 0-.38.38z"/><path fill="none" stroke="#000" stroke-width=".19" d="M12.38 20.48c0 .209.17.38.38.38h.95a.38.38 0 0 0 .38-.38v-8.74a.38.38 0 0 0-.38-.38h-.95a.38.38 0 0 0-.38.38z"/><path fill="#fff" d="M10.67 20.48c0 .209.17.38.38.38H12a.38.38 0 0 0 .38-.38v-8.74a.38.38 0 0 0-.38-.38h-.95a.38.38 0 0 0-.38.38z"/><path fill="none" stroke="#000" stroke-width=".19" d="M10.67 20.48c0 .209.17.38.38.38H12a.38.38 0 0 0 .38-.38v-8.74a.38.38 0 0 0-.38-.38h-.95a.38.38 0 0 0-.38.38z"/><path fill="#fff" d="M8.96 20.48c0 .209.17.38.38.38h.95a.38.38 0 0 0 .38-.38v-8.74a.38.38 0 0 0-.38-.38h-.95a.38.38 0 0 0-.38.38z"/><path fill="none" stroke="#000" stroke-width=".19" d="M8.96 20.48c0 .209.17.38.38.38h.95a.38.38 0 0 0 .38-.38v-8.74a.38.38 0 0 0-.38-.38h-.95a.38.38 0 0 0-.38.38z"/><path fill="#fff" d="M7.25 20.48c0 .209.17.38.38.38h.95a.38.38 0 0 0 .38-.38v-8.74a.38.38 0 0 0-.38-.38h-.95a.38.38 0 0 0-.38.38z"/><path fill="none" stroke="#000" stroke-width=".19" d="M7.25 20.48c0 .209.17.38.38.38h.95a.38.38 0 0 0 .38-.38v-8.74a.38.38 0 0 0-.38-.38h-.95a.38.38 0 0 0-.38.38z"/><path fill="#fff" d="M5.54 20.48c0 .209.17.38.38.38h.95a.38.38 0 0 0 .38-.38v-8.74a.38.38 0 0 0-.38-.38h-.95a.38.38 0 0 0-.38.38z"/><path fill="none" stroke="#000" stroke-width=".19" d="M5.54 20.48c0 .209.17.38.38.38h.95a.38.38 0 0 0 .38-.38v-8.74a.38.38 0 0 0-.38-.38h-.95a.38.38 0 0 0-.38.38z"/><path d="M5.35 11.17h89.3v.95H5.35zM6.87 12.12h.95v5.7h-.95zM81.92 12.12h.95v5.7h-.95zM69.95 12.12h.95v5.7h-.95zM57.98 12.12h.95v5.7h-.95zM46.01 12.12h.95v5.7h-.95zM34.04 12.12h.95v5.7h-.95zM22.07 12.12h.95v5.7h-.95zM10.1 12.12h.95v5.7h-.95zM83.82 12.12h.95v5.7h-.95zM71.85 12.12h.95v5.7h-.95zM59.88 12.12h.95v5.7h-.95zM47.91 12.12h.95v5.7h-.95zM35.94 12.12h.95v5.7h-.95zM23.97 12.12h.95v5.7h-.95zM12 12.12h.95v5.7H12zM87.05 12.12H88v5.7h-.95zM75.08 12.12h.95v5.7h-.95zM63.11 12.12h.95v5.7h-.95zM51.14 12.12h.95v5.7h-.95zM39.17 12.12h.95v5.7h-.95zM27.2 12.12h.95v5.7h-.95zM15.23 12.12h.95v5.7h-.95zM88.855 12.12h.95v5.7h-.95zM76.885 12.12h.95v5.7h-.95zM64.915 12.12h.95v5.7h-.95zM52.945 12.12h.95v5.7h-.95zM40.975 12.12h.95v5.7h-.95zM29.005 12.12h.95v5.7h-.95zM17.035 12.12h.95v5.7h-.95zM90.66 12.12h.95v5.7h-.95zM78.69 12.12h.95v5.7h-.95zM66.72 12.12h.95v5.7h-.95zM54.75 12.12h.95v5.7h-.95zM42.78 12.12h.95v5.7h-.95zM30.81 12.12h.95v5.7h-.95zM18.84 12.12h.95v5.7h-.95z"/></svg>