<?xml version="1.0" encoding="UTF-8" standalone="no"?>
<!-- Created with Inkscape (http://www.inkscape.org/) -->

<svg
   width="100"
   height="100"
   viewBox="0 0 100 100"
   version="1.1"
   id="svg1"
   xml:space="preserve"
   inkscape:version="1.3.2 (091e20e, 2023-11-25)"
   sodipodi:docname="piano_2.svg"
   xmlns:inkscape="http://www.inkscape.org/namespaces/inkscape"
   xmlns:sodipodi="http://sodipodi.sourceforge.net/DTD/sodipodi-0.dtd"
   xmlns="http://www.w3.org/2000/svg"
   xmlns:svg="http://www.w3.org/2000/svg"><sodipodi:namedview
     id="namedview1"
     pagecolor="#ffffff"
     bordercolor="#000000"
     borderopacity="0.25"
     inkscape:showpageshadow="2"
     inkscape:pageopacity="0.0"
     inkscape:pagecheckerboard="0"
     inkscape:deskcolor="#d1d1d1"
     inkscape:document-units="px"
     inkscape:current-layer="svg1"
     showgrid="false" /><defs
     id="defs1" /><path
     id="path366"
     style="fill:none;stroke:#000000;stroke-width:1.00824;stroke-linecap:round;stroke-linejoin:round;stroke-miterlimit:10;stroke-dasharray:none;stroke-opacity:1"
     d="m 88.41725,93.758916 c 0.23366,0.5452 0.82336,0.84562 1.40194,0.70097 0.57857,-0.13351 0.96798,-0.66758 0.92348,-1.25728 -0.0445,-0.60083 -0.50068,-1.06814 -1.09039,-1.12378 m 0,-2.21415 v 3.89424 m -2.18076,0 h 2.18076 m -2.18076,-3.89424 v 3.89424 m -67.036397,-5.67447 h 0.400548 m -0.400548,3.13766 v -3.13766 m 1.235027,3.13766 h -1.235027 m 1.235027,0.85672 c -0.589697,0.0556 -1.04588,0.52295 -1.090385,1.12378 -0.0445,0.5897 0.356045,1.12377 0.923489,1.25728 0.578572,0.14465 1.179397,-0.15577 1.401924,-0.70097 M 80.87358,45.347848 h -1.468681 m 1.468681,2.636964 v -2.636964 m -1.468681,2.636964 v -2.636964 m -42.157828,-35.103871 0.333793,0.634205 0.856731,0.333793 0.967994,-0.122391 0.634203,-0.511815 V 9.9101832 l -0.634203,-0.522941 -0.967994,-0.111261 -0.856731,0.333793 -0.333793,0.6342058 m -1.813598,57.178697 -9.546426,18.380859 m 9.023487,-18.647895 -8.978983,17.27934 M 91.69955,63.895598 v -1.657836 m 0,1.657836 c -0.44507,1.112643 -0.70097,2.292045 -0.77885,3.493699 m -5.64108,-3.493699 v -1.657836 m 0.77886,5.151535 c -0.0778,-1.201654 -0.3338,-2.381056 -0.77886,-3.493699 M 47.806002,45.347848 h -1.457556 m 1.457556,2.636964 v -2.636964 m -1.457556,2.636964 V 45.347848 M 38.192815,16.830821 h 0.990247 m -0.990247,0 -0.389424,31.153991 m 1.379671,-31.153991 0.389422,31.153991 M 56.985258,6.9283022 c 0,-0.789977 -0.634201,-1.424184 -1.424174,-1.424184 m 1.424174,1.424184 V 19.401023 M 34.799272,5.5041182 H 55.561084 M 87.32688,47.984812 c 3.86085,-2.236413 6.19738,-6.397697 6.09725,-10.870518 m 0,0 C 93.56878,31.628966 89.97496,26.733338 84.70106,25.242398 m 0,0 c -2.05839,-0.50069 -4.16127,-0.81223 -6.27528,-0.93462 M 56.328803,19.145116 c 7.065247,2.837239 14.508791,4.584087 22.096977,5.162662 M 43.377703,7.0729452 c 3.026375,5.2182928 7.543682,9.4129548 12.9511,12.0721708 M 43.377703,7.0729452 c -0.200273,-0.344919 -0.545191,-0.567447 -0.94574,-0.62308 m -7.632691,0 h 7.632691 M 34.799272,47.984812 V 5.5041182 M 85.27962,63.895598 h 6.41993 M 78.692811,62.237762 V 60.22388 M 92.42276,62.237762 V 60.22388 M 78.692811,62.237762 H 92.42276 m -6.36428,5.151535 H 90.9207 M 86.93746,86.982936 86.43677,67.389297 m 3.60495,19.593639 0.50069,-19.593639 m -0.25592,19.593639 h -3.59381 v 2.88174 h 3.59381 v -2.88174 M 36.857651,66.28778 v -1.802479 m -2.336539,1.802479 c 0,0.645333 0.522939,1.168276 1.168269,1.168276 0.645329,0 1.16827,-0.522943 1.16827,-1.168276 m -2.336539,0 v -1.802479 m -7.999864,2.837238 -0.82335,23.899567 m 0,0 h -1.835851 m 0.723213,-4.23917 0.500687,-17.60201 m 7.310027,-4.895625 v 1.368549 h -2.581319 v 0 l -1.479807,0.267034 -1.312912,0.734345 -1.001374,1.123768 -0.556319,1.401929 h -2.247526 m -2.125138,17.60201 -0.511814,-17.60201 m -7.2989,-4.895625 v 1.368549 h 2.581319 v 0 l 1.479807,0.267034 1.312913,0.734345 0.990247,1.123768 0.556317,1.401929 h 3.015249 m -1.546567,20.48375 v 3.89424 m 2.191897,0 H 21.67015 m 2.191897,-3.89424 v 3.89424 m -3.026376,-6.77598 h 3.99437 v 2.88174 h -3.99437 v -2.88174 M 37.491853,64.485301 V 62.204383 M 7.4395191,64.485301 V 62.204383 M 40.206687,60.22388 c -1.090384,0 -1.980494,0.890113 -1.980494,1.980503 m -0.73434,2.280918 H 7.4395191 m 6.1640119,-13.774517 0.867856,0.611955 0.556318,0.912366 0.133517,1.045884 v 0 l -0.367169,1.746849 -1.146017,1.368551 -1.65783,0.667585 v 0 L 10.56603,57.275376 H 7.8066891 v 0 l -0.823352,0.400551 -0.411676,0.812229 m 0,3.716227 V 58.488156 M 13.603531,50.710784 V 47.984812 M 6.5716611,62.204383 H 38.226193 M 93.42413,60.22388 H 40.206687 m 53.217443,0 V 47.984812 m -79.820599,0 H 93.42413"
     inkscape:label="piano" /></svg>
