<svg xmlns="http://www.w3.org/2000/svg" xml:space="preserve" width="100" height="100">
    <path d="M88.417 93.759c.234.545.824.846 1.402.7.579-.133.968-.667.924-1.256a1.205 1.205 0 0 0-1.09-1.124m0-2.214v3.894m-2.181 0h2.18m-2.18-3.894v3.894m-67.037-5.675h.4m-.4 3.138v-3.138m1.235 3.138h-1.235m1.235.857a1.205 1.205 0 0 0-1.09 1.124c-.045.59.356 1.123.923 1.257a1.2 1.2 0 0 0 1.402-.701m57.969-48.411h-1.47m1.47 2.637v-2.637m-1.47 2.637v-2.637M37.248 10.244l.334.634.857.334.968-.122.634-.512V9.91l-.634-.523-.968-.111-.857.334zm-1.814 57.179-9.546 18.38m9.024-18.647-8.98 17.279M91.7 63.895v-1.657m0 1.658a11.4 11.4 0 0 0-.78 3.493m-5.64-3.493v-1.658m.778 5.151a11.4 11.4 0 0 0-.778-3.493M47.806 45.348h-1.458m1.458 2.637v-2.637m-1.458 2.637v-2.637M38.193 16.83h.99m-.99 0-.39 31.154m1.38-31.154.39 31.154M56.984 6.928a1.42 1.42 0 0 0-1.424-1.424m1.424 1.424v12.473M34.8 5.504h20.762m31.766 42.48a12.24 12.24 0 0 0 6.097-10.87m0 0c.145-5.485-3.449-10.38-8.723-11.872m0 0a35 35 0 0 0-6.275-.934M56.33 19.145a74.5 74.5 0 0 0 22.097 5.163M43.378 7.073a30.55 30.55 0 0 0 12.95 12.072M43.379 7.073a1.28 1.28 0 0 0-.946-.623m-7.633 0h7.633M34.8 47.985V5.505m50.48 58.39h6.42m-13.006-1.657v-2.014m13.73 2.014v-2.014m-13.73 2.014h13.73m-6.365 5.151h4.863m-3.984 19.594-.5-19.594m3.605 19.594.5-19.594m-.256 19.594h-3.593v2.882h3.593zM36.858 66.288v-1.803m-2.337 1.803a1.168 1.168 0 1 0 2.337 0m-2.337 0v-1.803m-8 2.838-.823 23.9m0 0h-1.836m.723-4.24.5-17.602m7.311-4.896v1.369h-2.581v0l-1.48.267-1.313.734-1.001 1.124-.557 1.402h-2.247m-2.125 17.602L20.58 69.38m-7.3-4.896v1.369h2.582v0l1.48.267 1.313.734.99 1.124.556 1.402h3.016M21.67 89.865v3.894m2.192 0H21.67m2.192-3.894v3.894m-3.026-6.776h3.994v2.882h-3.994zm16.656-22.498v-2.28M7.44 64.484v-2.28m32.767-1.981c-1.09 0-1.98.89-1.98 1.98m-.735 2.281H7.44m6.164-13.774.867.612.557.912.133 1.046v0l-.367 1.747-1.146 1.368-1.658.668v0l-1.424.211h-2.76v0l-.823.4-.411.813m0 3.716v-3.716m7.032-7.777v-2.726m-7.032 14.22h31.654m55.198-1.981H40.207m53.217 0v-12.24m-79.82 0h79.82" style="fill:none;stroke:#000;stroke-width:1.00824;stroke-linecap:round;stroke-linejoin:round;stroke-miterlimit:10;stroke-dasharray:none;stroke-opacity:1"/>
</svg>
