<?xml version="1.0" encoding="UTF-8" standalone="no"?>
<svg
   xml:space="preserve"
   width="180"
   height="50"
   version="1.0"
   id="svg106"
   sodipodi:docname="piano_keyboard_1.svg"
   inkscape:version="1.3.2 (091e20e, 2023-11-25)"
   xmlns:inkscape="http://www.inkscape.org/namespaces/inkscape"
   xmlns:sodipodi="http://sodipodi.sourceforge.net/DTD/sodipodi-0.dtd"
   xmlns="http://www.w3.org/2000/svg"
   xmlns:svg="http://www.w3.org/2000/svg"><defs
     id="defs106" /><sodipodi:namedview
     id="namedview106"
     pagecolor="#ffffff"
     bordercolor="#000000"
     borderopacity="0.25"
     inkscape:showpageshadow="2"
     inkscape:pageopacity="0.0"
     inkscape:pagecheckerboard="0"
     inkscape:deskcolor="#d1d1d1"
     inkscape:current-layer="svg106" /><g
     id="g107"
     inkscape:label="piano"
     transform="matrix(1.8947368,0,0,1.8947368,-4.73684,1.31579)"><path
       fill="#231f20"
       d="m 2.5,22.19 c 0,0.944 0.766,1.71 1.71,1.71 H 95.79 A 1.71,1.71 0 0 0 97.5,22.19 V 2.81 A 1.71,1.71 0 0 0 95.79,1.1 H 4.21 A 1.71,1.71 0 0 0 2.5,2.81 Z"
       id="path1"
       style="display:inline" /><path
       id="path2"
       style="display:inline;fill:#ffffff"
       d="M 5.9199219,11.359375 C 5.7093821,11.358898 5.538586,11.529694 5.5390625,11.740234 v 8.740235 c 0,0.209 0.1708602,0.378906 0.3808594,0.378906 h 0.9492187 c 0.209777,4.75e-4 0.380256,-0.169129 0.3808594,-0.378906 0,0.209 0.1708602,0.378906 0.3808594,0.378906 h 0.9492187 c 0.209777,4.75e-4 0.380256,-0.169129 0.3808594,-0.378906 0,0.209 0.1689073,0.378906 0.3789063,0.378906 h 0.9492182 c 0.209777,4.76e-4 0.380257,-0.169129 0.38086,-0.378906 0,0.209 0.170859,0.378906 0.380859,0.378906 H 12 c 0.209777,4.75e-4 0.380256,-0.169129 0.380859,-0.378906 0,0.209 0.168907,0.378906 0.378907,0.378906 h 0.951172 c 0.209015,-6.01e-4 0.378305,-0.169891 0.378906,-0.378906 0,0.209 0.170859,0.378906 0.380859,0.378906 h 0.949219 c 0.209777,4.75e-4 0.380256,-0.169129 0.380859,-0.378906 0,0.209 0.168907,0.378906 0.378907,0.378906 h 0.951171 c 0.209015,-6e-4 0.378306,-0.169891 0.378907,-0.378906 0,0.209 0.170859,0.378906 0.380859,0.378906 h 0.949219 c 0.209777,4.75e-4 0.380256,-0.169129 0.380859,-0.378906 0,0.209 0.168911,0.378906 0.378906,0.378906 h 0.951172 c 0.209015,-6e-4 0.378306,-0.169891 0.378907,-0.378906 0,0.209 0.170859,0.378906 0.380859,0.378906 h 0.949219 c 0.208995,0 0.380859,-0.169906 0.380859,-0.378906 0,0.209 0.169906,0.378906 0.378906,0.378906 h 0.951172 c 0.209,0 0.378906,-0.169906 0.378906,-0.378906 0,0.209 0.17186,0.378906 0.38086,0.378906 h 0.949219 c 0.208995,0 0.380859,-0.169906 0.380859,-0.378906 0,0.209 0.169906,0.378906 0.378906,0.378906 h 0.951172 c 0.209,0 0.378906,-0.169906 0.378906,-0.378906 0,0.209 0.17186,0.378906 0.38086,0.378906 h 0.949218 c 0.209,0 0.38086,-0.169906 0.38086,-0.378906 0,0.209 0.169906,0.378906 0.378906,0.378906 h 0.951172 c 0.209,0 0.378906,-0.169906 0.378906,-0.378906 0,0.209 0.171864,0.378906 0.380859,0.378906 h 0.949219 c 0.209,0 0.38086,-0.169906 0.38086,-0.378906 0,0.209 0.169906,0.378906 0.378906,0.378906 h 0.951172 c 0.209,0 0.378906,-0.169906 0.378906,-0.378906 0,0.209 0.171864,0.378906 0.380859,0.378906 h 0.949219 c 0.209,0 0.38086,-0.169906 0.380859,-0.378906 0,0.209 0.169907,0.378906 0.378907,0.378906 h 0.951172 c 0.208995,0 0.378906,-0.169906 0.378906,-0.378906 0,0.209 0.171859,0.378906 0.380859,0.378906 h 0.949219 c 0.209,0 0.380859,-0.169906 0.380859,-0.378906 0,0.209 0.169907,0.378906 0.378907,0.378906 h 0.951171 c 0.209,0 0.378907,-0.169906 0.378907,-0.378906 0,0.209 0.171859,0.378906 0.380859,0.378906 h 0.949219 c 0.209,0 0.380859,-0.169906 0.380859,-0.378906 0,0.209 0.169911,0.378906 0.378906,0.378906 h 0.951172 c 0.209,0 0.378907,-0.169906 0.378907,-0.378906 0,0.209 0.171859,0.378906 0.380859,0.378906 h 0.949219 c 0.209,0 0.380859,-0.169906 0.380859,-0.378906 0,0.209 0.17186,0.378906 0.38086,0.378906 h 0.949218 c 0.209,0 0.378907,-0.169906 0.378906,-0.378906 0,0.209 0.17186,0.378906 0.38086,0.378906 h 0.949219 C 49.828136,20.859375 50,20.689469 50,20.480469 c 0,0.209 0.171862,0.378906 0.380859,0.378906 h 0.949219 c 0.209,0 0.380859,-0.169906 0.38086,-0.378906 0,0.209 0.169906,0.378906 0.378906,0.378906 h 0.949218 c 0.209,0 0.38086,-0.169906 0.38086,-0.378906 0,0.209 0.171859,0.378906 0.380859,0.378906 H 54.75 c 0.209,0 0.380859,-0.169906 0.380859,-0.378906 0,0.209 0.169907,0.378906 0.378907,0.378906 h 0.951172 c 0.208997,0 0.378906,-0.169906 0.378906,-0.378906 0,0.209 0.171859,0.378906 0.380859,0.378906 h 0.949219 c 0.209,0 0.380859,-0.169906 0.380859,-0.378906 0,0.209 0.169907,0.378906 0.378907,0.378906 h 0.951171 c 0.209,0 0.378907,-0.169906 0.378907,-0.378906 0,0.209 0.171859,0.378906 0.380859,0.378906 h 0.949219 c 0.209,0 0.380859,-0.169906 0.380859,-0.378906 0,0.209 0.169909,0.378906 0.378906,0.378906 h 0.951172 c 0.209,0 0.378906,-0.169906 0.378907,-0.378906 0,0.209 0.171859,0.378906 0.380859,0.378906 h 0.949219 c 0.208997,0 0.380859,-0.169906 0.380859,-0.378906 0,0.209 0.169906,0.378906 0.378906,0.378906 h 0.951172 c 0.209,0 0.378906,-0.169906 0.378906,-0.378906 0,0.209 0.17186,0.378906 0.38086,0.378906 h 0.949219 c 0.208997,0 0.380859,-0.169906 0.380859,-0.378906 0,0.209 0.169906,0.378906 0.378906,0.378906 h 0.951172 c 0.209,0 0.378906,-0.169906 0.378906,-0.378906 0,0.209 0.17186,0.378906 0.38086,0.378906 h 0.949218 c 0.209,0 0.38086,-0.169906 0.38086,-0.378906 0,0.209 0.169906,0.378906 0.378906,0.378906 h 0.951172 c 0.209,0 0.378906,-0.169906 0.378906,-0.378906 0,0.209 0.171862,0.378906 0.380859,0.378906 h 0.949219 c 0.209,0 0.38086,-0.169906 0.38086,-0.378906 0,0.209 0.169906,0.378906 0.378906,0.378906 h 0.951172 c 0.209,0 0.378906,-0.169906 0.378906,-0.378906 0,0.209 0.171862,0.378906 0.380859,0.378906 h 0.949219 c 0.209,0 0.380859,-0.169906 0.380859,-0.378906 0,0.209 0.169907,0.378906 0.378907,0.378906 h 0.951172 c 0.208998,0 0.378906,-0.169906 0.378906,-0.378906 0,0.209 0.171859,0.378906 0.380859,0.378906 h 0.949219 c 0.209,0 0.380859,-0.169906 0.380859,-0.378906 0,0.209 0.169907,0.378906 0.378907,0.378906 h 0.951171 c 0.209,0 0.378907,-0.169906 0.378907,-0.378906 0,0.209 0.171859,0.378906 0.380859,0.378906 h 0.949219 c 0.209,0 0.380859,-0.169906 0.380859,-0.378906 0,0.209 0.169908,0.378906 0.378906,0.378906 h 0.951172 c 0.209,0 0.378907,-0.169906 0.378907,-0.378906 0,0.209 0.171859,0.378906 0.380859,0.378906 h 0.949219 c 0.209,0 0.380859,-0.169906 0.380859,-0.378906 0,0.209 0.17186,0.378906 0.38086,0.378906 h 0.949218 c 0.209,0 0.378906,-0.169906 0.378906,-0.378906 0,0.209 0.17186,0.378906 0.38086,0.378906 h 0.949219 c 0.208998,0 0.380859,-0.169906 0.380859,-0.378906 0,0.209 0.171861,0.378906 0.380859,0.378906 h 0.949219 c 0.209,0 0.380859,-0.169906 0.38086,-0.378906 v -8.740235 c 4.76e-4,-0.21054 -0.17032,-0.381336 -0.38086,-0.380859 z"
       sodipodi:nodetypes="ccssccsccsccsccsccsccsccsccsccsscsscsscsscsscsscsscsscsscsscsscsscsscsscsscsscsscsscsscsscsscsscsscsscsscsscsscsscsscsscsscsscsscsscsscsscsscsscsscsscsscsscsscccc" /><path
       id="path3"
       style="color:#000000;display:inline;fill:#000000;-inkscape-stroke:none"
       d="m 5.3496094,11.169922 v 0.949219 h 0.095703 v 8.361328 c 0,0.260513 0.2130386,0.474609 0.4746094,0.474609 h 0.9492187 c 0.1558514,0 0.2936595,-0.07659 0.3808594,-0.193359 0.087131,0.116818 0.2247924,0.193359 0.3808594,0.193359 H 8.580078 c 0.156197,0 0.2942605,-0.07615 0.3808594,-0.193359 0.086581,0.116694 0.2229369,0.193359 0.3789063,0.193359 h 0.9492183 c 0.155851,0 0.29366,-0.07659 0.38086,-0.193359 0.08713,0.116818 0.224792,0.193359 0.380859,0.193359 H 12 c 0.155754,0 0.292256,-0.07672 0.378906,-0.193359 0.08653,0.117257 0.224446,0.193359 0.38086,0.193359 h 0.951172 c 0.155202,0 0.292195,-0.07546 0.378906,-0.191406 0.08719,0.116138 0.225328,0.191406 0.380859,0.191406 h 0.949219 c 0.156197,0 0.29426,-0.07615 0.380859,-0.193359 0.08658,0.116694 0.222937,0.193359 0.378907,0.193359 h 0.951171 c 0.155204,0 0.292196,-0.07546 0.378907,-0.191406 0.08719,0.116138 0.225328,0.191406 0.380859,0.191406 h 0.949219 c 0.155754,0 0.292256,-0.07672 0.378906,-0.193359 0.08653,0.117257 0.224447,0.193359 0.380859,0.193359 h 0.951172 c 0.155754,0 0.292256,-0.07672 0.378907,-0.193359 0.08653,0.117257 0.224446,0.193359 0.380859,0.193359 h 0.949219 c 0.155961,0 0.294185,-0.07612 0.380859,-0.193359 0.08672,0.116671 0.223386,0.193359 0.378906,0.193359 h 0.951172 c 0.155963,0 0.294187,-0.07612 0.380859,-0.193359 0.08672,0.116671 0.223386,0.193359 0.378907,0.193359 h 0.949219 c 0.155519,0 0.292181,-0.07669 0.378906,-0.193359 0.08667,0.117235 0.224896,0.193359 0.380859,0.193359 h 0.951172 c 0.15552,0 0.292182,-0.07669 0.378906,-0.193359 0.08667,0.117235 0.224897,0.193359 0.38086,0.193359 h 0.949218 c 0.155963,0 0.294186,-0.07612 0.38086,-0.193359 0.08672,0.116671 0.223386,0.193359 0.378906,0.193359 h 0.951172 c 0.155963,0 0.294186,-0.07612 0.380859,-0.193359 0.08672,0.116671 0.223388,0.193359 0.378906,0.193359 h 0.949219 c 0.155521,0 0.292182,-0.07669 0.378907,-0.193359 0.08667,0.117235 0.224896,0.193359 0.380859,0.193359 h 0.951172 c 0.15552,0 0.292182,-0.07669 0.378906,-0.193359 0.08667,0.117235 0.224898,0.193359 0.380859,0.193359 h 0.949219 c 0.155963,0 0.294187,-0.07612 0.380859,-0.193359 0.08673,0.116671 0.223386,0.193359 0.378907,0.193359 h 0.951172 c 0.155961,0 0.294185,-0.07612 0.380859,-0.193359 0.08672,0.116671 0.223386,0.193359 0.378906,0.193359 h 0.949219 c 0.155083,0 0.293527,-0.07529 0.380859,-0.191406 0.08678,0.115973 0.223935,0.191406 0.378907,0.191406 h 0.951171 c 0.155521,0 0.292182,-0.07669 0.378907,-0.193359 0.08667,0.117235 0.224896,0.193359 0.380859,0.193359 h 0.949219 c 0.155083,0 0.293527,-0.07529 0.380859,-0.191406 0.08678,0.115973 0.223937,0.191406 0.378906,0.191406 h 0.951172 c 0.155963,0 0.294186,-0.07612 0.38086,-0.193359 0.08672,0.116671 0.223386,0.193359 0.378906,0.193359 h 0.949219 c 0.155617,0 0.293585,-0.07656 0.380859,-0.193359 0.08727,0.116795 0.225242,0.193359 0.38086,0.193359 h 0.949218 c 0.155521,0 0.292183,-0.07669 0.378906,-0.193359 0.08667,0.117235 0.224897,0.193359 0.38086,0.193359 h 0.949219 c 0.155616,0 0.293585,-0.07656 0.380859,-0.193359 0.08727,0.116795 0.225243,0.193359 0.380859,0.193359 h 0.949219 c 0.155963,0 0.294186,-0.07612 0.38086,-0.193359 0.08672,0.116671 0.223385,0.193359 0.378906,0.193359 h 0.949218 c 0.155618,0 0.293585,-0.07656 0.38086,-0.193359 0.08727,0.116795 0.225242,0.193359 0.380859,0.193359 H 54.75 c 0.15552,0 0.292182,-0.07669 0.378906,-0.193359 0.08667,0.117235 0.224897,0.193359 0.38086,0.193359 h 0.951172 c 0.15497,0 0.292121,-0.07543 0.378906,-0.191406 0.08733,0.116115 0.225776,0.191406 0.380859,0.191406 h 0.949219 c 0.155963,0 0.294186,-0.07612 0.380859,-0.193359 0.08673,0.116671 0.223387,0.193359 0.378907,0.193359 h 0.951171 c 0.154972,0 0.292122,-0.07543 0.378907,-0.191406 0.08733,0.116115 0.225776,0.191406 0.380859,0.191406 h 0.949219 c 0.15552,0 0.292182,-0.07669 0.378906,-0.193359 0.08667,0.117235 0.224898,0.193359 0.380859,0.193359 h 0.951172 c 0.155521,0 0.292182,-0.07669 0.378907,-0.193359 0.08667,0.117235 0.224896,0.193359 0.380859,0.193359 h 0.949219 c 0.155961,0 0.294185,-0.07612 0.380859,-0.193359 0.08672,0.116671 0.223386,0.193359 0.378906,0.193359 h 0.951172 c 0.155963,0 0.294187,-0.07612 0.380859,-0.193359 0.08673,0.116671 0.223386,0.193359 0.378907,0.193359 h 0.949219 c 0.155519,0 0.292181,-0.07669 0.378906,-0.193359 0.08667,0.117235 0.224896,0.193359 0.380859,0.193359 h 0.951172 c 0.15552,0 0.292182,-0.07669 0.378906,-0.193359 0.08667,0.117235 0.224897,0.193359 0.38086,0.193359 h 0.949218 c 0.155963,0 0.294186,-0.07612 0.38086,-0.193359 0.08672,0.116671 0.223386,0.193359 0.378906,0.193359 h 0.951172 c 0.155963,0 0.294186,-0.07612 0.380859,-0.193359 0.08673,0.116671 0.223388,0.193359 0.378906,0.193359 h 0.949219 c 0.155521,0 0.292182,-0.07669 0.378907,-0.193359 0.08667,0.117235 0.224896,0.193359 0.380859,0.193359 h 0.951172 c 0.15552,0 0.292182,-0.07669 0.378906,-0.193359 0.08667,0.117235 0.224898,0.193359 0.380859,0.193359 h 0.949219 c 0.155963,0 0.294187,-0.07612 0.380859,-0.193359 0.08673,0.116671 0.223386,0.193359 0.378907,0.193359 h 0.951172 c 0.155961,0 0.294185,-0.07612 0.380859,-0.193359 0.08672,0.116671 0.223386,0.193359 0.378906,0.193359 h 0.949219 c 0.155083,0 0.293527,-0.07529 0.380859,-0.191406 0.08679,0.115973 0.223935,0.191406 0.378907,0.191406 h 0.951171 c 0.155521,0 0.292182,-0.07669 0.378907,-0.193359 0.08667,0.117235 0.224896,0.193359 0.380859,0.193359 h 0.949219 c 0.155083,0 0.293527,-0.07529 0.380859,-0.191406 0.08679,0.115973 0.223937,0.191406 0.378906,0.191406 h 0.951172 c 0.155963,0 0.294186,-0.07612 0.38086,-0.193359 0.08672,0.116671 0.223386,0.193359 0.378906,0.193359 h 0.949219 c 0.155617,0 0.293585,-0.07656 0.380859,-0.193359 0.08728,0.116795 0.225242,0.193359 0.38086,0.193359 h 0.949218 c 0.155521,0 0.292183,-0.07669 0.378906,-0.193359 0.08667,0.117235 0.224897,0.193359 0.38086,0.193359 h 0.949219 c 0.155616,0 0.293585,-0.07656 0.380859,-0.193359 0.08727,0.116795 0.225243,0.193359 0.380859,0.193359 h 0.949219 c 0.260818,0 0.474609,-0.213793 0.47461,-0.474609 v -8.361328 h 0.0957 v -0.949219 z m 0.2851562,0.949219 h 1.234375 v 5.701171 h 0.2851563 v 2.660157 c 0,0.158526 -0.1266302,0.285156 -0.2851563,0.285156 H 5.9199219 c -0.1584282,0 -0.2851563,-0.127672 -0.2851563,-0.285156 z m 2.1855469,0 h 1.0449219 v 8.361328 c 0,0.158526 -0.1266302,0.285156 -0.2851563,0.285156 H 7.6308594 c -0.1584282,0 -0.2851563,-0.127672 -0.2851563,-0.285156 v -2.660157 h 0.4746094 z m 1.234375,0 h 1.0449215 v 5.701171 h 0.47461 v 2.660157 c 0,0.158526 -0.126631,0.285156 -0.285157,0.285156 H 9.3398438 c -0.1584283,0 -0.2851563,-0.127672 -0.2851563,-0.285156 z m 1.9960935,0 H 12 v 5.701171 h 0.285156 v 2.660157 c 0,0.158526 -0.12663,0.285156 -0.285156,0.285156 h -0.949219 c -0.158428,0 -0.285156,-0.127672 -0.285156,-0.285156 v -2.660157 h 0.285156 z m 1.898438,0 h 1.044922 v 8.361328 c 0,0.158526 -0.124679,0.285156 -0.283203,0.285156 h -0.951172 c -0.158429,0 -0.285157,-0.127672 -0.285157,-0.285156 v -2.660157 h 0.47461 z m 1.236328,0 h 1.044922 v 5.701171 h 0.474609 v 2.660157 c 0,0.158526 -0.12663,0.285156 -0.285156,0.285156 h -0.949219 c -0.158428,0 -0.285156,-0.127672 -0.285156,-0.285156 z m 1.994141,0 h 0.855468 v 5.701171 h 0.378906 v 2.660157 c 0,0.158526 -0.124676,0.285156 -0.283203,0.285156 h -0.951171 c -0.158428,0 -0.285157,-0.127672 -0.285157,-0.285156 v -2.660157 h 0.285157 z m 1.804687,0 h 0.855469 v 5.701171 H 19.125 v 2.660157 c 0,0.158526 -0.12663,0.285156 -0.285156,0.285156 h -0.949219 c -0.158428,0 -0.285156,-0.127672 -0.285156,-0.285156 v -2.660157 h 0.378906 z m 1.804687,0 h 1.046876 v 8.361328 c 0,0.158526 -0.126631,0.285156 -0.285157,0.285156 h -0.951172 c -0.158426,0 -0.285156,-0.127672 -0.285156,-0.285156 v -2.660157 h 0.474609 z m 1.236329,0 h 1.044921 v 5.701171 h 0.47461 v 2.660157 c 0,0.157181 -0.127977,0.285156 -0.285156,0.285156 h -0.949219 c -0.158429,0 -0.285156,-0.127672 -0.285156,-0.285156 z m 1.99414,0 h 0.951172 v 5.701171 h 0.285156 v 2.660157 c 0,0.157181 -0.127974,0.285156 -0.285156,0.285156 h -0.951172 c -0.157181,0 -0.285156,-0.127975 -0.285156,-0.285156 v -2.660157 h 0.285156 z m 1.900391,0 h 1.044922 v 8.361328 c 0,0.157181 -0.127976,0.285156 -0.285156,0.285156 h -0.949219 c -0.157182,0 -0.285156,-0.127975 -0.285157,-0.285156 v -2.660157 h 0.47461 z m 1.234375,0 h 1.044922 v 5.701171 h 0.476562 v 2.660157 c 0,0.157181 -0.127974,0.285156 -0.285156,0.285156 h -0.951172 c -0.157182,0 -0.285156,-0.127975 -0.285156,-0.285156 z m 1.996094,0 h 0.855468 v 5.701171 h 0.378907 v 2.660157 c 0,0.157181 -0.127975,0.285156 -0.285157,0.285156 h -0.949218 c -0.157182,0 -0.285157,-0.127975 -0.285157,-0.285156 v -2.660157 h 0.285157 z m 1.804687,0 h 0.855469 v 5.701171 h 0.285156 v 2.660157 c 0,0.157181 -0.127974,0.285156 -0.285156,0.285156 h -0.951172 c -0.157182,0 -0.285156,-0.127975 -0.285156,-0.285156 v -2.660157 h 0.380859 z m 1.804688,0 h 1.044922 v 8.361328 c 0,0.157181 -0.127975,0.285156 -0.285157,0.285156 h -0.949219 c -0.157179,0 -0.285156,-0.127975 -0.285156,-0.285156 v -2.660157 h 0.47461 z m 1.234375,0 h 1.044921 v 5.701171 h 0.476563 v 2.660157 c 0,0.157181 -0.127975,0.285156 -0.285156,0.285156 h -0.951172 c -0.157182,0 -0.285156,-0.127975 -0.285156,-0.285156 z m 1.996093,0 h 0.949219 v 5.701171 h 0.285156 v 2.660157 c 0,0.157181 -0.127974,0.285156 -0.285156,0.285156 h -0.949219 c -0.157179,0 -0.285156,-0.127975 -0.285156,-0.285156 v -2.660157 h 0.285156 z m 1.900391,0 h 1.044922 v 8.361328 c 0,0.157181 -0.127977,0.285156 -0.285156,0.285156 h -0.951172 c -0.157182,0 -0.285157,-0.127975 -0.285157,-0.285156 v -2.660157 h 0.476563 z m 1.234375,0 h 1.044922 v 5.701171 h 0.474609 v 2.660157 c 0,0.157181 -0.127974,0.285156 -0.285156,0.285156 h -0.949219 c -0.157181,0 -0.285156,-0.127975 -0.285156,-0.285156 z m 1.994141,0 h 0.855468 v 5.701171 h 0.38086 v 2.660157 c 0,0.157181 -0.127975,0.285156 -0.285157,0.285156 h -0.951171 c -0.157182,0 -0.283203,-0.127975 -0.283203,-0.285156 v -2.660157 h 0.283203 z m 1.80664,0 h 0.853516 v 5.701171 h 0.285156 v 2.660157 c 0,0.157181 -0.127974,0.285156 -0.285156,0.285156 h -0.949219 c -0.157182,0 -0.285156,-0.127975 -0.285156,-0.285156 v -2.660157 h 0.380859 z m 1.804688,0 h 1.044922 v 8.361328 c 0,0.157181 -0.127975,0.285156 -0.285157,0.285156 h -0.951172 c -0.157179,0 -0.283203,-0.127975 -0.283203,-0.285156 v -2.660157 h 0.47461 z m 1.234375,0 h 1.044922 v 5.701171 h 0.474609 v 2.660157 c 0,0.157181 -0.127975,0.285156 -0.285156,0.285156 H 45.25 c -0.157182,0 -0.285156,-0.127975 -0.285156,-0.285156 z m 1.996094,0 h 0.949218 v 5.701171 h 0.285156 v 2.660157 c 0,0.157181 -0.127974,0.285156 -0.285156,0.285156 h -0.949218 c -0.157181,0 -0.285157,-0.127975 -0.285157,-0.285156 v -2.660157 h 0.285157 z m 1.898437,0 h 1.044922 v 8.361328 c 0,0.157181 -0.127977,0.285156 -0.285156,0.285156 h -0.949219 c -0.157182,0 -0.285156,-0.127975 -0.285156,-0.285156 v -2.660157 h 0.474609 z m 1.236328,0 h 1.044922 v 5.701171 h 0.474609 v 2.660157 c 0,0.157181 -0.127974,0.285156 -0.285156,0.285156 h -0.949219 c -0.157179,0 -0.285156,-0.127975 -0.285156,-0.285156 z m 1.994141,0 h 0.855468 v 5.701171 h 0.378907 v 2.660157 c 0,0.157181 -0.127975,0.285156 -0.285157,0.285156 h -0.949218 c -0.157182,0 -0.285156,-0.127975 -0.285156,-0.285156 v -2.660157 h 0.285156 z m 1.804687,0 H 54.75 v 5.701171 h 0.285156 v 2.660157 c 0,0.157181 -0.127974,0.285156 -0.285156,0.285156 h -0.949219 c -0.157181,0 -0.285156,-0.127975 -0.285156,-0.285156 v -2.660157 h 0.378906 z m 1.804688,0 h 1.044922 v 8.361328 c 0,0.157181 -0.126023,0.285156 -0.283203,0.285156 h -0.951172 c -0.157182,0 -0.285157,-0.127975 -0.285157,-0.285156 v -2.660157 h 0.47461 z m 1.236328,0 h 1.044922 v 5.701171 h 0.474609 v 2.660157 c 0,0.157181 -0.127974,0.285156 -0.285156,0.285156 h -0.949219 c -0.157182,0 -0.285156,-0.127975 -0.285156,-0.285156 z m 1.994141,0 h 0.951171 v 5.701171 h 0.283203 v 2.660157 c 0,0.157181 -0.126021,0.285156 -0.283203,0.285156 h -0.951171 c -0.157181,0 -0.285157,-0.127975 -0.285157,-0.285156 v -2.660157 h 0.285157 z m 1.90039,0 H 61.875 v 8.361328 c 0,0.157181 -0.127975,0.285156 -0.285156,0.285156 h -0.949219 c -0.157182,0 -0.285156,-0.127975 -0.285156,-0.285156 v -2.660157 h 0.474609 z m 1.234375,0 h 1.044922 v 5.701171 h 0.476563 v 2.660157 c 0,0.157181 -0.127975,0.285156 -0.285157,0.285156 h -0.951172 c -0.157179,0 -0.285156,-0.127975 -0.285156,-0.285156 z m 1.996094,0 h 0.853515 v 5.701171 h 0.38086 v 2.660157 c 0,0.157181 -0.127977,0.285156 -0.285156,0.285156 h -0.949219 c -0.157182,0 -0.285156,-0.127975 -0.285156,-0.285156 v -2.660157 h 0.285156 z m 1.804687,0 h 0.855469 v 5.701171 h 0.285156 v 2.660157 c 0,0.157181 -0.127974,0.285156 -0.285156,0.285156 h -0.951172 c -0.157181,0 -0.285156,-0.127975 -0.285156,-0.285156 v -2.660157 h 0.380859 z m 1.804688,0 h 1.044922 v 8.361328 c 0,0.157181 -0.127976,0.285156 -0.285156,0.285156 h -0.949219 c -0.157182,0 -0.285157,-0.127975 -0.285157,-0.285156 v -2.660157 h 0.47461 z m 1.234375,0 h 1.044922 v 5.701171 h 0.476562 v 2.660157 c 0,0.157181 -0.127974,0.285156 -0.285156,0.285156 h -0.951172 c -0.157182,0 -0.285156,-0.127975 -0.285156,-0.285156 z m 1.996094,0 h 0.949218 v 5.701171 h 0.285157 v 2.660157 c 0,0.157181 -0.127975,0.285156 -0.285157,0.285156 h -0.949218 c -0.157182,0 -0.285157,-0.127975 -0.285157,-0.285156 v -2.660157 h 0.285157 z m 1.90039,0 h 1.044922 v 8.361328 c 0,0.157181 -0.127974,0.285156 -0.285156,0.285156 h -0.951172 c -0.157182,0 -0.285156,-0.127975 -0.285156,-0.285156 v -2.660157 h 0.476562 z m 1.234375,0 h 1.044922 v 5.701171 h 0.47461 v 2.660157 c 0,0.157181 -0.127975,0.285156 -0.285157,0.285156 h -0.949219 c -0.157179,0 -0.285156,-0.127975 -0.285156,-0.285156 z m 1.994141,0 h 0.855469 v 5.701171 h 0.380859 v 2.660157 c 0,0.157181 -0.127975,0.285156 -0.285156,0.285156 h -0.951172 c -0.157182,0 -0.285156,-0.127975 -0.285156,-0.285156 v -2.660157 h 0.285156 z m 1.806641,0 h 0.853515 v 5.701171 h 0.285156 v 2.660157 c 0,0.157181 -0.127974,0.285156 -0.285156,0.285156 h -0.949219 c -0.157179,0 -0.285156,-0.127975 -0.285156,-0.285156 v -2.660157 h 0.38086 z m 1.804687,0 h 1.044922 v 8.361328 c 0,0.157181 -0.127977,0.285156 -0.285156,0.285156 h -0.951172 c -0.157182,0 -0.285157,-0.127975 -0.285157,-0.285156 v -2.660157 h 0.476563 z m 1.234375,0 h 1.044922 v 5.701171 h 0.474609 v 2.660157 c 0,0.157181 -0.127974,0.285156 -0.285156,0.285156 h -0.949219 c -0.157181,0 -0.285156,-0.127975 -0.285156,-0.285156 z m 1.994141,0 h 0.951171 v 5.701171 h 0.285157 v 2.660157 c 0,0.157181 -0.127975,0.285156 -0.285157,0.285156 h -0.951171 c -0.157182,0 -0.283204,-0.127975 -0.283203,-0.285156 v -2.660157 h 0.283203 z m 1.90039,0 h 1.044922 v 8.361328 c 0,0.157181 -0.127974,0.285156 -0.285156,0.285156 h -0.949219 c -0.157182,0 -0.285156,-0.127975 -0.285156,-0.285156 v -2.660157 h 0.474609 z m 1.236328,0 h 1.044922 v 5.701171 h 0.47461 v 2.660157 c 0,0.157181 -0.127975,0.285156 -0.285157,0.285156 h -0.951172 c -0.157179,0 -0.283203,-0.127975 -0.283203,-0.285156 z m 1.994141,0 h 0.855469 v 5.701171 h 0.378906 v 2.660157 c 0,0.157181 -0.127975,0.285156 -0.285156,0.285156 H 88 c -0.157182,0 -0.285156,-0.127975 -0.285156,-0.285156 V 17.820312 H 88 Z m 1.804688,0 h 0.855468 v 5.701171 h 0.285156 v 2.660157 c 0,0.157181 -0.127974,0.285156 -0.285156,0.285156 h -0.949218 c -0.157181,0 -0.285157,-0.127975 -0.285157,-0.285156 v -2.660157 h 0.378907 z m 1.804687,0 h 1.044922 v 8.361328 c 0,0.157181 -0.127977,0.285156 -0.285156,0.285156 h -0.949219 c -0.157182,0 -0.285156,-0.127975 -0.285156,-0.285156 v -2.660157 h 0.474609 z m 1.236328,0 h 1.519531 v 8.361328 c 0,0.157181 -0.127974,0.285156 -0.285156,0.285156 h -0.949219 c -0.157179,0 -0.285156,-0.127975 -0.285156,-0.285156 z" /></g></svg>
