<?xml version="1.0" encoding="UTF-8" standalone="no"?>
<!-- Uploaded to: SVG Repo, www.svgrepo.com, Generator: SVG Repo Mixer Tools -->

<svg
   fill="#000000"
   width="30"
   height="40"
   viewBox="0 0 30 40"
   enable-background="new 0 0 64 64"
   version="1.1"
   xml:space="preserve"
   id="svg4"
   sodipodi:docname="powerbank_1.svg"
   inkscape:version="1.3.2 (091e20e, 2023-11-25)"
   xmlns:inkscape="http://www.inkscape.org/namespaces/inkscape"
   xmlns:sodipodi="http://sodipodi.sourceforge.net/DTD/sodipodi-0.dtd"
   xmlns="http://www.w3.org/2000/svg"
   xmlns:svg="http://www.w3.org/2000/svg"><defs
   id="defs4" /><sodipodi:namedview
   id="namedview4"
   pagecolor="#ffffff"
   bordercolor="#000000"
   borderopacity="0.25"
   inkscape:showpageshadow="2"
   inkscape:pageopacity="0.0"
   inkscape:pagecheckerboard="0"
   inkscape:deskcolor="#d1d1d1"
   inkscape:current-layer="svg4" />

<g
   id="_x31_-smartphone"
   transform="translate(-11,-3)" />

<g
   id="_x32_-smartTV"
   transform="translate(-11,-3)" />

<g
   id="_x33_-telepon"
   transform="translate(-11,-3)" />

<g
   id="_x34_-computer"
   transform="translate(-11,-3)" />

<g
   id="_x35_-kalkulator"
   transform="translate(-11,-3)" />

<g
   id="_x36_-radio"
   transform="translate(-11,-3)" />

<g
   id="_x37_-hadset"
   transform="translate(-11,-3)" />

<g
   id="_x38_-usbflashdisk"
   transform="translate(-11,-3)" />

<g
   id="_x39_-camera"
   transform="translate(-11,-3)" />

<g
   id="_x31_0-printer"
   transform="translate(-11,-3)" />

<g
   id="_x31_1-powerbank"
   transform="matrix(0.625,0,0,0.625,-6.875,-1.875)"
   style="stroke-width:1.6">

<g
   id="g4"
   style="stroke-width:1.6">

<polygon
   points="38.3,27.6 36.7,26.4 23.058,44.59 36.518,41.483 28.628,55.51 30.372,56.49 40.482,38.517 27.942,41.41 "
   id="polygon1"
   style="stroke-width:1.6" />

<path
   d="m 49,25 h -6 v 6 h 6 z m -2,4 h -2 v -2 h 2 z"
   id="path1"
   style="stroke-width:1.6" />

<path
   d="m 49,34 h -6 v 6 h 6 z m -2,4 h -2 v -2 h 2 z"
   id="path2"
   style="stroke-width:1.6" />

<path
   d="m 49,43 h -6 v 6 h 6 z m -2,4 h -2 v -2 h 2 z"
   id="path3"
   style="stroke-width:1.6" />

<path
   d="M 52.762,3 H 41.238 C 37.798,3 35,6.112 35,9.938 v 3.285 H 31 V 19 H 17 c -3.309,0 -6,2.691 -6,6 v 30 c 0,3.309 2.691,6 6,6 h 30 c 3.309,0 6,-2.691 6,-6 V 25 c 0,-3.309 -2.691,-6 -6,-6 H 42 V 13.222 H 37 V 9.938 C 37,7.215 38.901,5 41.238,5 H 52.761 C 55.099,5 57,7.215 57,9.938 V 61 h 2 V 9.938 C 59,6.112 56.202,3 52.762,3 Z M 51,25 v 30 c 0,2.206 -1.794,4 -4,4 H 17 c -2.206,0 -4,-1.794 -4,-4 V 25 c 0,-2.206 1.794,-4 4,-4 h 30 c 2.206,0 4,1.794 4,4 z M 40,19 h -7 v -3.778 h 7 z"
   id="path4"
   style="stroke-width:1.6" />

</g>

</g>

<g
   id="_x31_2-kulkas"
   transform="translate(-11,-3)" />

<g
   id="_x31_3-modem"
   transform="translate(-11,-3)" />

<g
   id="_x31_4-tablet"
   transform="translate(-11,-3)" />

<g
   id="_x31_5-gamebot"
   transform="translate(-11,-3)" />

<g
   id="_x31_6-wasing_machine"
   transform="translate(-11,-3)" />

<g
   id="_x31_7-handdryer"
   transform="translate(-11,-3)" />

<g
   id="_x31_8-blender"
   transform="translate(-11,-3)" />

<g
   id="_x31_9-controller"
   transform="translate(-11,-3)" />

<g
   id="_x32_0-michrophone"
   transform="translate(-11,-3)" />

<g
   id="_x32_1-lamp"
   transform="translate(-11,-3)" />

</svg>
