<svg xmlns="http://www.w3.org/2000/svg" xml:space="preserve" width="30" height="40">
    <g style="stroke-width:1.6">
        <path d="m38.3 27.6-1.6-1.2-13.642 18.19 13.46-3.107-7.89 14.027 1.744.98 10.11-17.973-12.54 2.893zM49 25h-6v6h6zm-2 4h-2v-2h2zm2 5h-6v6h6zm-2 4h-2v-2h2zm2 5h-6v6h6zm-2 4h-2v-2h2z" style="stroke-width:1.6" transform="translate(-6.875 -1.875)scale(.625)"/>
        <path d="M52.762 3H41.238C37.798 3 35 6.112 35 9.938v3.285h-4V19H17c-3.309 0-6 2.691-6 6v30c0 3.309 2.691 6 6 6h30c3.309 0 6-2.691 6-6V25c0-3.309-2.691-6-6-6h-5v-5.778h-5V9.938C37 7.215 38.901 5 41.238 5h11.523C55.099 5 57 7.215 57 9.938V61h2V9.938C59 6.112 56.202 3 52.762 3M51 25v30c0 2.206-1.794 4-4 4H17c-2.206 0-4-1.794-4-4V25c0-2.206 1.794-4 4-4h30c2.206 0 4 1.794 4 4m-11-6h-7v-3.778h7z" style="stroke-width:1.6" transform="translate(-6.875 -1.875)scale(.625)"/>
    </g>
</svg>
