<svg xmlns="http://www.w3.org/2000/svg" width="50" height="50">
    <path d="M46.518 12.424h-5.894V0H9.376v12.424H3.482A3.487 3.487 0 0 0 0 15.906V37.09a3.485 3.485 0 0 0 3.48 3.483h5.894v9.374h31.249v-9.374h5.895A3.487 3.487 0 0 0 50 37.089V15.905a3.487 3.487 0 0 0-3.482-3.483zM12.5 3.078h25v9.346h-25Zm25 43.747h-25V29.621h25zm9.375-9.733c0 .2-.16.36-.357.36h-5.895V26.495H9.374V37.45H3.481a.36.36 0 0 1-.358-.36V15.909a.36.36 0 0 1 .358-.36h43.037c.196 0 .357.16.357.36zm-6.252-18.394H39.06a1.563 1.563 0 0 0 0 3.125h1.563a1.563 1.563 0 0 0 0-3.125" style="stroke-width:1"/>
</svg>
