<?xml version="1.0" encoding="UTF-8" standalone="no"?>
<!-- Uploaded to: SVG Repo, www.svgrepo.com, Generator: SVG Repo Mixer Tools -->

<svg
   fill="#000000"
   height="35"
   width="60"
   version="1.1"
   id="Capa_1"
   viewBox="0 0 60 35"
   xml:space="preserve"
   sodipodi:docname="projector_1.svg"
   inkscape:version="1.3.2 (091e20e, 2023-11-25)"
   xmlns:inkscape="http://www.inkscape.org/namespaces/inkscape"
   xmlns:sodipodi="http://sodipodi.sourceforge.net/DTD/sodipodi-0.dtd"
   xmlns="http://www.w3.org/2000/svg"
   xmlns:svg="http://www.w3.org/2000/svg"><defs
   id="defs1" /><sodipodi:namedview
   id="namedview1"
   pagecolor="#ffffff"
   bordercolor="#000000"
   borderopacity="0.25"
   inkscape:showpageshadow="2"
   inkscape:pageopacity="0.0"
   inkscape:pagecheckerboard="0"
   inkscape:deskcolor="#d1d1d1"
   inkscape:current-layer="Capa_1" />
<path
   d="m 50.057975,31.361517 c -0.184557,0 -0.362532,-0.101265 -0.451899,-0.277215 l -2.966835,-5.846581 c -1.78,1.10076 -3.876456,1.736201 -6.118482,1.736201 -2.967848,0 -5.680253,-1.113671 -7.741518,-2.945315 H 13.974177 l -3.580506,7.055442 C 10.266835,31.333416 9.9620253,31.432403 9.7129114,31.306328 9.4635443,31.179746 9.3640506,30.874935 9.4906329,30.625568 L 12.838481,24.028353 H 8.4437975 C 6.5448101,24.028607 5,22.483797 5,20.584808 V 10.027595 C 5,8.12886 6.5448101,6.5837955 8.4437975,6.5837955 H 32.779241 c 2.061265,-1.831645 4.77367,-2.945316 7.741518,-2.945316 2.967849,0 5.680254,1.113671 7.741519,2.945316 h 3.293925 C 53.45519,6.5837955 55,8.12886 55,10.027595 v 10.557213 c 0,1.898987 -1.54481,3.443799 -3.443797,3.443799 h -3.293925 c -0.250379,0.222532 -0.510126,0.434176 -0.778987,0.634682 l 3.025823,5.962532 c 0.126582,0.249367 0.02684,0.554178 -0.222279,0.68076 -0.07342,0.03721 -0.151645,0.05494 -0.22886,0.05494 z M 31.627342,21.168607 c 1.908354,2.88557 5.182278,4.792659 8.893417,4.792659 3.713925,0 6.99038,-1.910128 8.898228,-4.799495 1.133924,-1.725316 1.756709,-3.762532 1.756709,-5.855442 0,-2.092911 -0.623038,-4.130126 -1.756962,-5.855444 -1.907848,-2.8893675 -5.184304,-4.7994945 -8.897975,-4.7994945 -3.711139,0 -6.98481,1.906836 -8.893164,4.7924055 -1.136709,1.726835 -1.761519,3.766836 -1.761519,5.862785 -2.53e-4,2.095442 0.624557,4.135443 1.761266,5.862026 z m 17.648354,1.847341 h 2.280507 c 1.340506,0 2.431139,-1.090632 2.431139,-2.43114 V 10.027595 c 0,-1.340507 -1.090633,-2.43114 -2.431139,-2.43114 h -2.280507 c 0.373924,0.425316 0.71519,0.875949 1.021519,1.347595 1.195696,1.83114 1.891139,4.016708 1.891139,6.362279 0,2.345569 -0.695696,4.531392 -1.891392,6.362531 -0.306329,0.471646 -0.647342,0.922025 -1.021266,1.347088 z M 8.4437975,7.596455 c -1.3405064,0 -2.4311393,1.090633 -2.4311393,2.43114 v 10.557213 c 0,1.340507 1.0906329,2.43114 2.4311393,2.43114 H 31.766076 c -0.372152,-0.423291 -0.711646,-0.871139 -1.016962,-1.340252 -1.198481,-1.832407 -1.895949,-4.021267 -1.895949,-6.369367 0,-2.348101 0.697215,-4.536456 1.895696,-6.369115 0.305569,-0.469367 0.64481,-0.917468 1.017215,-1.340759 z M 40.520759,24.049618 c -4.821012,0 -8.743544,-3.922277 -8.743544,-8.743544 0,-4.821265 3.922279,-8.7435435 8.743544,-8.7435435 4.821266,0 8.743545,3.9222785 8.743545,8.7435435 0,4.821267 -3.922279,8.743544 -8.743545,8.743544 z m 0,-16.474176 c -4.262784,0 -7.730886,3.468102 -7.730886,7.730887 0,4.262784 3.468102,7.730884 7.730886,7.730884 4.262785,0 7.730887,-3.4681 7.730887,-7.730884 0,-4.262785 -3.468102,-7.730887 -7.730887,-7.730887 z m 0,14.451139 c -3.705569,0 -6.720253,-3.014683 -6.720253,-6.720253 0,-3.705571 3.014684,-6.720253 6.720253,-6.720253 3.70557,0 6.720254,3.014682 6.720254,6.720253 0,3.70557 -3.014684,6.720253 -6.720254,6.720253 z m 0,-12.428101 c -3.147088,0 -5.707594,2.560506 -5.707594,5.707594 0,3.14709 2.560506,5.707596 5.707594,5.707596 3.147342,0 5.707595,-2.560506 5.707595,-5.707596 0,-3.147088 -2.560253,-5.707594 -5.707595,-5.707594 z m 0,10.324557 c -2.545569,0 -4.616708,-2.071139 -4.616708,-4.616708 0,-2.545824 2.071139,-4.616709 4.616708,-4.616709 0.473418,0 0.942279,0.07241 1.393165,0.21519 0.151899,0.0481 0.272152,0.16481 0.325063,0.314937 0.05266,0.15038 0.03165,0.316709 -0.05696,0.449114 -0.148354,0.221771 -0.226835,0.480506 -0.226835,0.748101 0,0.743797 0.605316,1.34886 1.349114,1.34886 0.283038,0 0.554937,-0.08835 0.786582,-0.255189 0.129114,-0.09291 0.294684,-0.119747 0.446076,-0.07266 0.151899,0.04734 0.272911,0.163038 0.326582,0.312658 0.181772,0.507342 0.273924,1.030633 0.273924,1.555696 0,2.54557 -2.070886,4.616709 -4.616709,4.616709 z m 0,-8.221013 c -1.987341,0 -3.60405,1.616709 -3.60405,3.604051 0,1.987341 1.616709,3.60405 3.60405,3.60405 1.987342,0 3.604051,-1.616709 3.604051,-3.60405 0,-0.218228 -0.02076,-0.436709 -0.06152,-0.653417 -0.242532,0.08278 -0.497975,0.125317 -0.758987,0.125317 -1.302279,0 -2.361772,-1.059495 -2.361772,-2.361519 0,-0.231393 0.03342,-0.458988 0.09873,-0.676962 -0.171646,-0.02481 -0.34557,-0.03747 -0.520507,-0.03747 z m -23.286582,8.221013 c -0.279493,0 -0.506329,-0.226836 -0.506329,-0.50633 v -8.221011 c 0,-0.279494 0.226836,-0.506329 0.506329,-0.506329 0.279494,0 0.506329,0.226836 0.506329,0.506329 v 8.220758 c 0,0.279747 -0.226835,0.506583 -0.506329,0.506583 z m -3.710633,0 c -0.279493,0 -0.506329,-0.226836 -0.506329,-0.50633 v -8.221011 c 0,-0.279494 0.226836,-0.506329 0.506329,-0.506329 0.279494,0 0.506329,0.226836 0.506329,0.506329 v 8.220758 c 0,0.279747 -0.226582,0.506583 -0.506329,0.506583 z m -3.7103794,0 c -0.2794937,0 -0.5063292,-0.226836 -0.5063292,-0.50633 v -8.221011 c 0,-0.279494 0.2268355,-0.506329 0.5063292,-0.506329 0.2794934,0 0.5063294,0.226836 0.5063294,0.506329 v 8.220758 c 0,0.279747 -0.226836,0.506583 -0.5063294,0.506583 z"
   id="path1"
   style="stroke-width:0.25;stroke:#000000;stroke-opacity:1;stroke-dasharray:none" />
</svg>
