<svg xmlns="http://www.w3.org/2000/svg" xml:space="preserve" width="60" height="35">
    <path d="M50.058 31.362a.51.51 0 0 1-.452-.278l-2.967-5.846a11.6 11.6 0 0 1-6.118 1.736 11.62 11.62 0 0 1-7.742-2.945H13.974l-3.58 7.055a.507.507 0 0 1-.903-.458l3.347-6.598H8.444A3.447 3.447 0 0 1 5 20.585V10.028a3.45 3.45 0 0 1 3.444-3.444h24.335a11.62 11.62 0 0 1 7.742-2.946 11.62 11.62 0 0 1 7.741 2.946h3.294A3.45 3.45 0 0 1 55 10.028v10.557a3.45 3.45 0 0 1-3.444 3.444h-3.294q-.375.334-.779.634l3.026 5.963a.507.507 0 0 1-.451.736zm-18.43-10.193a10.65 10.65 0 0 0 8.893 4.792c3.714 0 6.99-1.91 8.898-4.8a10.7 10.7 0 0 0 1.757-5.855c0-2.093-.623-4.13-1.757-5.855a10.66 10.66 0 0 0-8.898-4.8 10.65 10.65 0 0 0-8.893 4.793 10.7 10.7 0 0 0-1.762 5.863c0 2.095.625 4.135 1.761 5.862zm17.648 1.847h2.28c1.34 0 2.431-1.09 2.431-2.431V10.028c0-1.34-1.09-2.432-2.43-2.432h-2.281q.561.64 1.021 1.348a11.6 11.6 0 0 1 1.891 6.362 11.6 11.6 0 0 1-1.891 6.363 12 12 0 0 1-1.021 1.347zM8.444 7.596a2.434 2.434 0 0 0-2.431 2.432v10.557c0 1.34 1.09 2.43 2.43 2.43h23.323a12 12 0 0 1-1.017-1.34 11.6 11.6 0 0 1-1.896-6.369 11.6 11.6 0 0 1 1.896-6.369q.458-.705 1.017-1.34zM40.52 24.05c-4.821 0-8.744-3.923-8.744-8.744s3.922-8.743 8.744-8.743 8.743 3.922 8.743 8.743-3.922 8.744-8.743 8.744zm0-16.475c-4.263 0-7.731 3.469-7.731 7.731s3.468 7.731 7.73 7.731c4.264 0 7.732-3.468 7.732-7.73s-3.468-7.732-7.731-7.732zm0 14.452a6.73 6.73 0 0 1-6.72-6.72 6.73 6.73 0 0 1 6.72-6.72 6.73 6.73 0 0 1 6.72 6.72 6.73 6.73 0 0 1-6.72 6.72zm0-12.429a5.714 5.714 0 0 0-5.708 5.708 5.714 5.714 0 0 0 5.708 5.708 5.714 5.714 0 0 0 5.707-5.708 5.714 5.714 0 0 0-5.707-5.708zm0 10.325a4.62 4.62 0 0 1-4.617-4.617 4.622 4.622 0 0 1 6.01-4.401.507.507 0 0 1 .268.764 1.35 1.35 0 0 0 1.122 2.097c.283 0 .555-.089.787-.255a.507.507 0 0 1 .773.24c.181.507.273 1.03.273 1.555a4.62 4.62 0 0 1-4.616 4.617zm0-8.221a3.61 3.61 0 0 0-3.604 3.604 3.61 3.61 0 0 0 3.604 3.604 3.61 3.61 0 0 0 3.604-3.604q0-.328-.062-.653a2.364 2.364 0 0 1-3.022-2.913 4 4 0 0 0-.52-.038zm-23.287 8.221a.507.507 0 0 1-.506-.506v-8.221a.507.507 0 0 1 1.013 0v8.22c0 .28-.227.507-.507.507zm-3.71 0a.507.507 0 0 1-.507-.506v-8.221a.507.507 0 0 1 1.013 0v8.22c0 .28-.227.507-.506.507zm-3.71 0a.507.507 0 0 1-.507-.506v-8.221a.507.507 0 0 1 1.012 0v8.22c0 .28-.226.507-.506.507z" style="stroke-width:.25;stroke:#000;stroke-opacity:1;stroke-dasharray:none"/>
</svg>
