<svg xmlns="http://www.w3.org/2000/svg" width="50" height="44">
    <path d="M1.663 13.793h46.636v28.579H1.663z" style="fill:#fff;stroke-width:1.51181;stroke-linecap:square;stroke-linejoin:round;stroke-miterlimit:4.7"/>
    <path d="M44 0a2 2 0 0 0-1.902 1.389L6.789 9.023A1 1 0 0 0 6 10v2H5c-2.75 0-5 2.25-5 5v25c0 1.093.907 2 2 2h46c1.093 0 2-.907 2-2V17c0-2.75-2.25-5-5-5H8v-1.193l34.52-7.465A2 2 0 0 0 44 4a2 2 0 0 0 2-2 2 2 0 0 0-2-2M5 14h1.832a1 1 0 0 0 .326 0H45c1.668 0 3 1.332 3 3v25H2V17c0-1.668 1.332-3 3-3m13.984 2.986a1 1 0 0 0-.144.014H6a1 1 0 0 0-1 1v6a1 1 0 0 0 1 1h12.832a1 1 0 0 0 .326 0H44a1 1 0 0 0 1-1v-6a1 1 0 0 0-1-1H19.154a1 1 0 0 0-.17-.014M7 19h11v4H7Zm13 0h23v4H20ZM6 28a1 1 0 0 0-1 1 1 1 0 0 0 1 1 1 1 0 0 0 1-1 1 1 0 0 0-1-1m6 0a1 1 0 0 0-1 1 1 1 0 0 0 1 1 1 1 0 0 0 1-1 1 1 0 0 0-1-1m6 0a1 1 0 0 0-1 1 1 1 0 0 0 1 1 1 1 0 0 0 1-1 1 1 0 0 0-1-1m6 0a1 1 0 0 0-1 1 1 1 0 0 0 1 1 1 1 0 0 0 1-1 1 1 0 0 0-1-1m6 0a1 1 0 0 0-1 1 1 1 0 0 0 1 1 1 1 0 0 0 1-1 1 1 0 0 0-1-1m9.5 0c-3.026 0-5.5 2.475-5.5 5.5s2.474 5.5 5.5 5.5c3.028 0 5.5-2.475 5.5-5.5S42.528 28 39.5 28M9 30a1 1 0 0 0-1 1 1 1 0 0 0 1 1 1 1 0 0 0 1-1 1 1 0 0 0-1-1m6 0a1 1 0 0 0-1 1 1 1 0 0 0 1 1 1 1 0 0 0 1-1 1 1 0 0 0-1-1m6 0a1 1 0 0 0-1 1 1 1 0 0 0 1 1 1 1 0 0 0 1-1 1 1 0 0 0-1-1m6 0a1 1 0 0 0-1 1 1 1 0 0 0 1 1 1 1 0 0 0 1-1 1 1 0 0 0-1-1m12.5 0c.605 0 1.162.165 1.656.43l-1.863 1.863a1 1 0 1 0 1.414 1.414l1.863-1.863c.265.494.43 1.052.43 1.656 0 1.945-1.552 3.5-3.5 3.5a3.485 3.485 0 0 1-3.5-3.5c0-1.945 1.554-3.5 3.5-3.5M6 32a1 1 0 0 0-1 1 1 1 0 0 0 1 1 1 1 0 0 0 1-1 1 1 0 0 0-1-1m6 0a1 1 0 0 0-1 1 1 1 0 0 0 1 1 1 1 0 0 0 1-1 1 1 0 0 0-1-1m6 0a1 1 0 0 0-1 1 1 1 0 0 0 1 1 1 1 0 0 0 1-1 1 1 0 0 0-1-1m6 0a1 1 0 0 0-1 1 1 1 0 0 0 1 1 1 1 0 0 0 1-1 1 1 0 0 0-1-1m6 0a1 1 0 0 0-1 1 1 1 0 0 0 1 1 1 1 0 0 0 1-1 1 1 0 0 0-1-1M9 34a1 1 0 0 0-1 1 1 1 0 0 0 1 1 1 1 0 0 0 1-1 1 1 0 0 0-1-1m6 0a1 1 0 0 0-1 1 1 1 0 0 0 1 1 1 1 0 0 0 1-1 1 1 0 0 0-1-1m6 0a1 1 0 0 0-1 1 1 1 0 0 0 1 1 1 1 0 0 0 1-1 1 1 0 0 0-1-1m6 0a1 1 0 0 0-1 1 1 1 0 0 0 1 1 1 1 0 0 0 1-1 1 1 0 0 0-1-1M6 36a1 1 0 0 0-1 1 1 1 0 0 0 1 1 1 1 0 0 0 1-1 1 1 0 0 0-1-1m6 0a1 1 0 0 0-1 1 1 1 0 0 0 1 1 1 1 0 0 0 1-1 1 1 0 0 0-1-1m6 0a1 1 0 0 0-1 1 1 1 0 0 0 1 1 1 1 0 0 0 1-1 1 1 0 0 0-1-1m6 0a1 1 0 0 0-1 1 1 1 0 0 0 1 1 1 1 0 0 0 1-1 1 1 0 0 0-1-1m6 0a1 1 0 0 0-1 1 1 1 0 0 0 1 1 1 1 0 0 0 1-1 1 1 0 0 0-1-1"/>
</svg>
