<?xml version="1.0" encoding="UTF-8" standalone="no"?>
<!-- Uploaded to: SVG Repo, www.svgrepo.com, Generator: SVG Repo Mixer Tools -->

<svg
   fill="#000000"
   version="1.1"
   id="Layer_1"
   viewBox="0 0 100 100"
   xml:space="preserve"
   sodipodi:docname="radio_system_uhd_1.svg"
   width="100"
   height="100"
   inkscape:version="1.3.2 (091e20e, 2023-11-25)"
   xmlns:inkscape="http://www.inkscape.org/namespaces/inkscape"
   xmlns:sodipodi="http://sodipodi.sourceforge.net/DTD/sodipodi-0.dtd"
   xmlns="http://www.w3.org/2000/svg"
   xmlns:svg="http://www.w3.org/2000/svg"><defs
   id="defs11">
		
	
	
</defs><sodipodi:namedview
   id="namedview11"
   pagecolor="#ffffff"
   bordercolor="#000000"
   borderopacity="0.25"
   inkscape:showpageshadow="2"
   inkscape:pageopacity="0.0"
   inkscape:pagecheckerboard="0"
   inkscape:deskcolor="#d1d1d1"
   inkscape:current-layer="Layer_1" />
<g
   id="g9"
   transform="matrix(0.3,0,0,0.3,5,5.00015)">
			<path
   d="M 275.806,208.065 H 48.387 V 77.419 c 0,-8.003 -6.513,-14.516 -14.516,-14.516 -8.003,0 -14.516,6.513 -14.516,14.516 V 208.553 C 8.327,210.803 0,220.577 0,232.258 v 29.032 c 0,9.895 5.985,18.397 14.516,22.142 v 6.89 c 0,5.337 4.34,9.677 9.677,9.677 h 19.355 c 5.337,0 9.677,-4.34 9.677,-9.677 v -4.839 h 188.71 v 4.839 c 0,5.337 4.34,9.677 9.677,9.677 h 19.355 c 5.337,0 9.677,-4.34 9.677,-9.677 v -5.327 C 291.673,282.745 300,272.977 300,261.29 v -29.032 c 0,-13.34 -10.853,-24.193 -24.194,-24.193 z M 33.871,72.581 c 2.666,0 4.839,2.173 4.839,4.839 V 208.065 H 29.033 V 77.419 h -0.001 c 0,-2.666 2.173,-4.838 4.839,-4.838 z m 9.678,217.742 H 43.548 24.194 v -4.839 h 19.355 z m 227.419,0 h -19.355 v -4.839 h 19.355 z m 19.355,-29.033 c 0,8.003 -6.513,14.516 -14.516,14.516 H 241.936 53.226 24.194 c -8.003,0 -14.516,-6.513 -14.516,-14.516 v -29.032 c 0,-8.003 6.513,-14.516 14.516,-14.516 h 24.194 227.419 c 8.003,0 14.516,6.513 14.516,14.516 z"
   id="path1" />
			
			
			
			
			
			
			
			
			
			<path
   id="path9"
   d="m 198.387,111.29 h 9.677 C 208.065,49.927 158.139,0 96.774,0 v 9.677 c 56.032,0 101.613,45.581 101.613,101.613 z m -24.193,0 h 9.677 c 0,-48.024 -39.073,-87.097 -87.097,-87.097 v 9.677 c 42.687,0.001 77.42,34.733 77.42,77.42 z m -24.194,0 h 9.677 c 0,-34.684 -28.219,-62.903 -62.903,-62.903 v 9.677 C 126.121,58.065 150,81.944 150,111.29 Z m -24.194,0 h 9.677 c 0,-21.344 -17.366,-38.71 -38.71,-38.71 v 9.677 c 16.012,10e-4 29.033,13.022 29.033,29.033 z m -29.032,14.516 c 8.003,0 14.516,-6.513 14.516,-14.516 0,-8.003 -6.513,-14.516 -14.516,-14.516 -8.003,0 -14.516,6.513 -14.516,14.516 0,8.003 6.513,14.516 14.516,14.516 z m 0,-19.353 c 2.666,0 4.839,2.173 4.839,4.839 0,2.666 -2.173,4.839 -4.839,4.839 -2.666,0 -4.839,-2.173 -4.839,-4.839 0,-2.667 2.173,-4.839 4.839,-4.839 z" />
		</g>
<text
   xml:space="preserve"
   style="font-weight:500;font-size:22.0298px;line-height:1;font-family:'Helvetica Neue';-inkscape-font-specification:'Helvetica Neue, Medium';text-align:center;text-anchor:middle;fill:#000000;stroke:none;stroke-width:2.5;stroke-linecap:round;stroke-linejoin:round;stroke-miterlimit:4.7"
   x="56.086205"
   y="61.877979"
   id="text11"><tspan
     sodipodi:role="line"
     id="tspan11"
     x="56.086205"
     y="61.877979"
     style="stroke-width:2.5">UHF</tspan></text><rect
   style="fill:#abdf9f;fill-opacity:1;stroke:#000000;stroke-width:2.5;stroke-linecap:round;stroke-linejoin:round;stroke-miterlimit:4.7;stroke-opacity:1"
   id="rect11"
   width="33.407356"
   height="10.870647"
   x="39.17947"
   y="73.564674"
   rx="2.3598089"
   ry="2.3598056" /><g
   id="g14"><rect
     style="fill:#000000;fill-opacity:1;stroke:#000000;stroke-width:2.5;stroke-linecap:round;stroke-linejoin:round;stroke-miterlimit:4.7;stroke-opacity:1"
     id="rect12"
     width="2.5"
     height="2.5"
     x="78.25"
     y="74.25"
     rx="2.3598089"
     ry="1.7677516" /><rect
     style="fill:#000000;fill-opacity:1;stroke:#000000;stroke-width:2.5;stroke-linecap:round;stroke-linejoin:round;stroke-miterlimit:4.7;stroke-opacity:1"
     id="rect13"
     width="2.5"
     height="2.5"
     x="78.25"
     y="81.25"
     rx="2.3598089"
     ry="1.7677516" /></g><ellipse
   style="fill:#000000;fill-opacity:1;stroke:#000000;stroke-width:2.5;stroke-linecap:round;stroke-linejoin:round;stroke-miterlimit:4.7;stroke-opacity:1"
   id="path14"
   cx="30.310642"
   cy="79"
   rx="3.75"
   ry="3.7500002" /><circle
   style="fill:none;fill-opacity:1;stroke:#010101;stroke-width:1;stroke-linecap:round;stroke-linejoin:round;stroke-miterlimit:4.7;stroke-dasharray:none;stroke-opacity:1"
   id="path15"
   cx="14.300335"
   cy="81.936867"
   r="2" /></svg>
