<svg xmlns="http://www.w3.org/2000/svg" xml:space="preserve" width="100" height="100">
    <path d="M41.54 73.565h28.687a2.355 2.355 0 0 1 2.36 2.36v6.15a2.355 2.355 0 0 1-2.36 2.36H41.539a2.355 2.355 0 0 1-2.36-2.36v-6.15a2.355 2.355 0 0 1 2.36-2.36" style="display:inline;fill:#abdf9f;stroke:#000;stroke-width:2.5;stroke-linecap:round;stroke-linejoin:round;stroke-miterlimit:4.7"/>
    <path d="M34.031 5v2.902c16.81 0 30.485 13.675 30.485 30.485h2.904C67.42 19.977 52.44 5 34.03 5m0 7.258v2.904c12.806 0 23.227 10.419 23.227 23.225h2.904c0-14.407-11.724-26.13-26.13-26.13m0 7.258v2.904C42.835 22.42 50 29.583 50 38.387h2.902c0-10.405-8.466-18.871-18.87-18.871m-18.87 4.354a4.36 4.36 0 0 0-4.355 4.356v39.34C7.498 68.24 5 71.172 5 74.676v8.71c0 2.968 1.796 5.519 4.355 6.642v2.069A2.905 2.905 0 0 0 12.258 95h5.806a2.905 2.905 0 0 0 2.903-2.902v-1.453H77.58v1.453A2.906 2.906 0 0 0 80.484 95h5.807a2.905 2.905 0 0 0 2.902-2.902v-1.6C92.502 89.823 95 86.893 95 83.387v-8.71c0-4.001-3.256-7.257-7.258-7.257H19.516V28.227a4.36 4.36 0 0 0-4.354-4.356m18.87 2.902v2.905c4.803 0 8.71 3.905 8.71 8.709h2.903c0-6.403-5.21-11.614-11.614-11.614m-18.87.002c.8 0 1.451.652 1.451 1.452V67.42H13.71V28.227c0-.8.653-1.452 1.453-1.452m18.87 7.258a4.36 4.36 0 0 0-4.354 4.354 4.36 4.36 0 0 0 4.353 4.355 4.36 4.36 0 0 0 4.356-4.355 4.36 4.36 0 0 0-4.356-4.354m0 2.903c.799 0 1.452.653 1.452 1.453s-.653 1.45-1.453 1.45a1.453 1.453 0 0 1 0-2.903m1.114 9.212v10.069q0 1.519.463 2.642c1.13 2.745 3.76 3.393 5.993 3.393 1.455 0 4.702-.26 5.992-3.393q.463-1.123.463-2.642V46.148h-2.754v9.164q0 .794-.088 1.61c-.202 2.486-2.17 2.951-3.613 2.951-.935 0-3.326-.087-3.635-2.951a20 20 0 0 1-.067-1.61v-9.164zm16.016 0V61.88h2.754v-7.094h7.16v7.094h2.754V46.15h-2.754v6.255h-7.16v-6.256zm15.973 0V61.88h2.754v-6.984h7.115v-2.247h-7.115v-4.12h8.105v-2.38ZM12.258 70.322h75.484a4.36 4.36 0 0 1 4.356 4.356v8.709c0 2.4-1.955 4.355-4.356 4.355H12.258a4.36 4.36 0 0 1-4.354-4.355v-8.71a4.36 4.36 0 0 1 4.354-4.355M79.5 73a2.523 2.523 0 0 0-2.5 2.5c0 1.363 1.137 2.5 2.5 2.5s2.5-1.137 2.5-2.5-1.137-2.5-2.5-2.5m-49.19 1c-2.746 0-5 2.253-5 5s2.254 5 5 5 5-2.253 5-5-2.253-5-5-5M14.3 79.438a2.51 2.51 0 0 0-2.5 2.5c0 1.374 1.126 2.5 2.5 2.5 1.376 0 2.5-1.126 2.5-2.5s-1.124-2.5-2.5-2.5M79.5 80a2.523 2.523 0 0 0-2.5 2.5c0 1.363 1.137 2.5 2.5 2.5s2.5-1.137 2.5-2.5-1.137-2.5-2.5-2.5m-65.2.438c.835 0 1.5.665 1.5 1.5 0 .834-.665 1.5-1.5 1.5-.834 0-1.5-.666-1.5-1.5 0-.835.666-1.5 1.5-1.5m-2.042 10.207h5.806v1.453h-5.806zm68.226 0h5.807v1.453h-5.807z" style="stroke-width:.3"/>
</svg>
