<?xml version="1.0" encoding="UTF-8" standalone="no"?>
<!-- Uploaded to: SVG Repo, www.svgrepo.com, Generator: SVG Repo Mixer Tools -->

<svg
   fill="#000000"
   version="1.1"
   id="Layer_1"
   viewBox="0 0 100 100"
   xml:space="preserve"
   sodipodi:docname="radio_system_uhf_1.svg"
   width="100"
   height="100"
   inkscape:version="1.3.2 (091e20e, 2023-11-25)"
   xmlns:inkscape="http://www.inkscape.org/namespaces/inkscape"
   xmlns:sodipodi="http://sodipodi.sourceforge.net/DTD/sodipodi-0.dtd"
   xmlns="http://www.w3.org/2000/svg"
   xmlns:svg="http://www.w3.org/2000/svg"><defs
     id="defs1">
		
	
	

			
			
			
			
			
			
			
			
			
			
			
		<inkscape:path-effect
   effect="fill_between_many"
   method="originald"
   linkedpaths="#rect11,0,1|"
   id="path-effect1" /></defs><sodipodi:namedview
     id="namedview11"
     pagecolor="#ffffff"
     bordercolor="#000000"
     borderopacity="0.25"
     inkscape:showpageshadow="2"
     inkscape:pageopacity="0.0"
     inkscape:pagecheckerboard="0"
     inkscape:deskcolor="#d1d1d1"
     inkscape:current-layer="g5" /><g
     id="g5"
     inkscape:label="radio"><path
       id="rect11"
       style="display:inline;fill:#abdf9f;stroke:#000000;stroke-width:2.5;stroke-linecap:round;stroke-linejoin:round;stroke-miterlimit:4.7"
       d="m 41.539279,73.564674 h 28.687738 c 1.307335,0 2.359809,1.052474 2.359809,2.359806 v 6.151036 c 0,1.307333 -1.052474,2.359806 -2.359809,2.359806 H 41.539279 c -1.307334,0 -2.359809,-1.052473 -2.359809,-2.359806 V 75.92448 c 0,-1.307332 1.052475,-2.359806 2.359809,-2.359806 z" /><path
       id="path1"
       style="stroke-width:0.3"
       d="m 34.03125,5 v 2.9023438 c 16.80955,0 30.484375,13.6748272 30.484375,30.4843752 h 2.904297 C 67.420222,19.977874 52.440695,5 34.03125,5 Z m 0,7.257812 v 2.904297 c 12.806061,3e-4 23.226562,10.41855 23.226562,23.22461 h 2.904297 c 0,-14.407157 -11.7237,-26.128906 -26.130859,-26.128907 z m 0,7.257813 v 2.904297 C 42.835322,22.420222 50,29.582947 50,38.386719 h 2.902344 c 0,-10.405169 -8.465924,-18.871094 -18.871094,-18.871094 z m -18.869141,4.355469 c -2.400891,0 -4.355468,1.954577 -4.355468,4.355468 V 67.566406 C 7.4982497,68.241406 5,71.173448 5,74.677734 v 8.708985 c 0,2.968491 1.7961764,5.51908 4.3554688,6.642578 v 2.068359 C 9.3554688,93.698754 10.656718,95 12.257812,95 h 5.806641 c 1.601097,0 2.902344,-1.301246 2.902344,-2.902344 v -1.453125 h 56.613281 v 1.453125 C 77.580078,93.698754 78.883282,95 80.484375,95 h 5.806641 c 1.601096,0 2.902343,-1.301246 2.902343,-2.902344 V 90.498047 C 92.50205,89.823049 95,86.892808 95,83.386719 v -8.708985 c 0,-4.001986 -3.255525,-7.257812 -7.257812,-7.257812 H 19.515625 v -39.19336 c 0,-2.400891 -1.952622,-4.355468 -4.353516,-4.355468 z m 18.869141,2.902344 v 2.904296 c 4.803586,3e-4 8.710938,3.905701 8.710938,8.708985 h 2.902343 c 0,-6.403181 -5.2101,-11.613281 -11.613281,-11.613281 z m -18.869141,0.002 c 0.799799,0 1.451172,0.651374 1.451172,1.451171 v 39.19336 h -2.904297 v -39.19336 c 0,-0.799797 0.653328,-1.451171 1.453125,-1.451171 z M 34.03125,34.03325 c -2.400894,0 -4.353516,1.952623 -4.353516,4.353516 0,2.400891 1.952622,4.355469 4.353516,4.355469 2.400895,0 4.355469,-1.954578 4.355469,-4.355469 0,-2.400893 -1.954574,-4.353516 -4.355469,-4.353516 z m 0,2.902344 c 0.799797,0 1.453125,0.65333 1.453125,1.453125 0,0.799798 -0.653328,1.451172 -1.453125,1.451172 -0.799797,0 -1.451172,-0.651374 -1.451172,-1.451172 0,-0.800095 0.651375,-1.453125 1.451172,-1.453125 z m 1.115234,9.212891 v 10.068359 c 0,1.013369 0.154474,1.893566 0.462891,2.642578 1.130193,2.744748 3.760334,3.392578 5.992187,3.392578 1.454982,0 4.702018,-0.259315 5.992188,-3.392578 0.308417,-0.749012 0.462891,-1.629209 0.462891,-2.642578 V 46.148438 H 45.302734 V 55.3125 c 0,0.528714 -0.02914,1.065975 -0.08789,1.609375 -0.201596,2.486317 -2.169681,2.951172 -3.613282,2.951172 -0.934358,0 -3.325111,-0.08687 -3.634765,-2.951172 -0.04406,-0.5434 -0.06641,-1.080661 -0.06641,-1.609375 v -9.164062 z m 16.015625,0 v 15.730468 h 2.753907 v -7.09375 h 7.160156 v 7.09375 h 2.753906 V 46.148438 h -2.753906 v 6.255859 h -7.160156 v -6.255859 z m 15.972657,0 v 15.730468 h 2.753906 v -6.984375 h 7.115234 v -2.246093 h -7.115234 v -4.121094 h 8.105469 V 46.148438 Z M 12.257812,70.322266 h 7.257813 68.226563 c 2.400891,0 4.355468,1.954577 4.355468,4.355468 v 8.708985 c 0,2.400891 -1.954577,4.355469 -4.355468,4.355469 H 77.580078 20.96875 12.257812 c -2.4008914,0 -4.3535151,-1.954578 -4.3535151,-4.355469 v -8.708985 c 0,-2.400891 1.9526237,-4.355468 4.3535151,-4.355468 z M 79.5,73 C 78.136624,73 77,74.136624 77,75.5 77,76.863376 78.136624,78 79.5,78 80.863376,78 82,76.863376 82,75.5 82,74.136624 80.863376,73 79.5,73 Z m -49.189453,1 c -2.746606,0 -5,2.253394 -5,5 0,2.746606 2.253394,5 5,5 2.746606,0 5,-2.253394 5,-5 0,-2.746606 -2.253394,-5 -5,-5 z m -16.009766,5.4375 c -1.374782,0 -2.5,1.125215 -2.5,2.5 0,1.374785 1.125218,2.5 2.5,2.5 1.374785,0 2.5,-1.125215 2.5,-2.5 0,-1.374785 -1.125215,-2.5 -2.5,-2.5 z M 79.5,80 C 78.136624,80 77,81.136624 77,82.5 77,83.863376 78.136624,85 79.5,85 80.863376,85 82,83.863376 82,82.5 82,81.136624 80.863376,80 79.5,80 Z m -65.199219,0.4375 c 0.834346,0 1.5,0.665654 1.5,1.5 0,0.834346 -0.665654,1.5 -1.5,1.5 -0.834345,0 -1.5,-0.665654 -1.5,-1.5 0,-0.834346 0.665655,-1.5 1.5,-1.5 z m -2.042969,10.207031 h 5.806641 v 1.453125 h -5.806641 z m 68.226563,0 h 5.806641 v 1.453125 h -5.806641 z"
       sodipodi:nodetypes="cccccccccccccccsscsscssssccsssscssscsscccccssccsssssssssssscsssssccscscsccccccccccccccccccccccccccscssssccssssssssssssssssssssssssssssscccccccccc" /></g></svg>
