<?xml version="1.0" encoding="UTF-8" standalone="no"?>
<!-- Uploaded to: SVG Repo, www.svgrepo.com, Generator: SVG Repo Mixer Tools -->

<svg
   fill="#000000"
   width="50"
   height="44"
   viewBox="0 0 50 44"
   version="1.1"
   id="svg1"
   sodipodi:docname="radio-2-svgrepo-com.svg"
   inkscape:version="1.3.2 (091e20e, 2023-11-25)"
   xmlns:inkscape="http://www.inkscape.org/namespaces/inkscape"
   xmlns:sodipodi="http://sodipodi.sourceforge.net/DTD/sodipodi-0.dtd"
   xmlns="http://www.w3.org/2000/svg"
   xmlns:svg="http://www.w3.org/2000/svg">
  <defs
     id="defs1" />
  <sodipodi:namedview
     id="namedview1"
     pagecolor="#ffffff"
     bordercolor="#000000"
     borderopacity="0.25"
     inkscape:showpageshadow="2"
     inkscape:pageopacity="0.0"
     inkscape:pagecheckerboard="0"
     inkscape:deskcolor="#d1d1d1"
     inkscape:current-layer="svg1" />
  <path
     d="M 44,0 A 2,2 0 0 0 42.097656,1.3886719 L 6.7890625,9.023438 A 1.0001,1.0001 0 0 0 6,10 v 2 H 5 c -2.7495161,0 -5,2.250484 -5,5 v 25 c 0,1.093063 0.9069372,2 2,2 h 46 c 1.093063,0 2,-0.906937 2,-2 V 17 c 0,-2.749516 -2.250484,-5 -5,-5 H 8 V 10.806641 L 42.519531,3.3417969 A 2,2 0 0 0 44,4 2,2 0 0 0 46,2 2,2 0 0 0 44,0 Z M 5,14 h 1.8320312 a 1.0001,1.0001 0 0 0 0.3261719,0 H 45 c 1.668484,0 3,1.331516 3,3 V 42 H 2 V 17 c 0,-1.668484 1.3315161,-3 3,-3 z m 13.984375,2.986328 A 1.0001,1.0001 0 0 0 18.839844,17 H 6 a 1.0001,1.0001 0 0 0 -1,1 v 6 a 1.0001,1.0001 0 0 0 1,1 h 12.832031 a 1.0001,1.0001 0 0 0 0.326172,0 H 44 a 1.0001,1.0001 0 0 0 1,-1 V 18 A 1.0001,1.0001 0 0 0 44,17 H 19.154297 A 1.0001,1.0001 0 0 0 18.984375,16.98633 Z M 7,19 h 11 v 4 H 7 Z m 13,0 h 23 v 4 H 20 Z M 6,28 a 1,1 0 0 0 -1,1 1,1 0 0 0 1,1 1,1 0 0 0 1,-1 1,1 0 0 0 -1,-1 z m 6,0 a 1,1 0 0 0 -1,1 1,1 0 0 0 1,1 1,1 0 0 0 1,-1 1,1 0 0 0 -1,-1 z m 6,0 a 1,1 0 0 0 -1,1 1,1 0 0 0 1,1 1,1 0 0 0 1,-1 1,1 0 0 0 -1,-1 z m 6,0 a 1,1 0 0 0 -1,1 1,1 0 0 0 1,1 1,1 0 0 0 1,-1 1,1 0 0 0 -1,-1 z m 6,0 a 1,1 0 0 0 -1,1 1,1 0 0 0 1,1 1,1 0 0 0 1,-1 1,1 0 0 0 -1,-1 z m 9.5,0 C 36.473641,28 34,30.474691 34,33.5 34,36.525309 36.473641,39 39.5,39 42.527925,39 45,36.524772 45,33.5 45,30.475228 42.527925,28 39.5,28 Z M 9,30 a 1,1 0 0 0 -1,1 1,1 0 0 0 1,1 1,1 0 0 0 1,-1 1,1 0 0 0 -1,-1 z m 6,0 a 1,1 0 0 0 -1,1 1,1 0 0 0 1,1 1,1 0 0 0 1,-1 1,1 0 0 0 -1,-1 z m 6,0 a 1,1 0 0 0 -1,1 1,1 0 0 0 1,1 1,1 0 0 0 1,-1 1,1 0 0 0 -1,-1 z m 6,0 a 1,1 0 0 0 -1,1 1,1 0 0 0 1,1 1,1 0 0 0 1,-1 1,1 0 0 0 -1,-1 z m 12.5,0 c 0.605002,0 1.162285,0.164648 1.65625,0.429688 l -1.863281,1.863281 a 1.0001,1.0001 0 1 0 1.414062,1.414062 L 42.570312,31.84375 C 42.835319,32.337857 43,32.895564 43,33.5 43,35.445228 41.448075,37 39.5,37 37.554359,37 36,35.444691 36,33.5 36,31.555309 37.554359,30 39.5,30 Z M 6,32 a 1,1 0 0 0 -1,1 1,1 0 0 0 1,1 1,1 0 0 0 1,-1 1,1 0 0 0 -1,-1 z m 6,0 a 1,1 0 0 0 -1,1 1,1 0 0 0 1,1 1,1 0 0 0 1,-1 1,1 0 0 0 -1,-1 z m 6,0 a 1,1 0 0 0 -1,1 1,1 0 0 0 1,1 1,1 0 0 0 1,-1 1,1 0 0 0 -1,-1 z m 6,0 a 1,1 0 0 0 -1,1 1,1 0 0 0 1,1 1,1 0 0 0 1,-1 1,1 0 0 0 -1,-1 z m 6,0 a 1,1 0 0 0 -1,1 1,1 0 0 0 1,1 1,1 0 0 0 1,-1 1,1 0 0 0 -1,-1 z M 9,34 a 1,1 0 0 0 -1,1 1,1 0 0 0 1,1 1,1 0 0 0 1,-1 1,1 0 0 0 -1,-1 z m 6,0 a 1,1 0 0 0 -1,1 1,1 0 0 0 1,1 1,1 0 0 0 1,-1 1,1 0 0 0 -1,-1 z m 6,0 a 1,1 0 0 0 -1,1 1,1 0 0 0 1,1 1,1 0 0 0 1,-1 1,1 0 0 0 -1,-1 z m 6,0 a 1,1 0 0 0 -1,1 1,1 0 0 0 1,1 1,1 0 0 0 1,-1 1,1 0 0 0 -1,-1 z M 6,36 a 1,1 0 0 0 -1,1 1,1 0 0 0 1,1 1,1 0 0 0 1,-1 1,1 0 0 0 -1,-1 z m 6,0 a 1,1 0 0 0 -1,1 1,1 0 0 0 1,1 1,1 0 0 0 1,-1 1,1 0 0 0 -1,-1 z m 6,0 a 1,1 0 0 0 -1,1 1,1 0 0 0 1,1 1,1 0 0 0 1,-1 1,1 0 0 0 -1,-1 z m 6,0 a 1,1 0 0 0 -1,1 1,1 0 0 0 1,1 1,1 0 0 0 1,-1 1,1 0 0 0 -1,-1 z m 6,0 a 1,1 0 0 0 -1,1 1,1 0 0 0 1,1 1,1 0 0 0 1,-1 1,1 0 0 0 -1,-1 z"
     id="path1" />
</svg>
