<?xml version="1.0" encoding="UTF-8" standalone="no"?>
<svg
   width="80"
   height="60"
   version="1.1"
   id="svg23"
   sodipodi:docname="raspberry_pi_color.svg"
   inkscape:version="1.3.2 (091e20e, 2023-11-25)"
   xmlns:inkscape="http://www.inkscape.org/namespaces/inkscape"
   xmlns:sodipodi="http://sodipodi.sourceforge.net/DTD/sodipodi-0.dtd"
   xmlns="http://www.w3.org/2000/svg"
   xmlns:svg="http://www.w3.org/2000/svg">
  <defs
     id="defs23">
    <inkscape:path-effect
       effect="fill_between_many"
       method="originald"
       linkedpaths="#path26,0,1"
       id="path-effect26"
       is_visible="true"
       lpeversion="0"
       join="true"
       close="true"
       autoreverse="true" />
  </defs>
  <sodipodi:namedview
     id="namedview23"
     pagecolor="#ffffff"
     bordercolor="#000000"
     borderopacity="0.25"
     inkscape:showpageshadow="2"
     inkscape:pageopacity="0.0"
     inkscape:pagecheckerboard="0"
     inkscape:deskcolor="#d1d1d1"
     inkscape:current-layer="svg23" />
  <g
     id="g27"
     inkscape:label="rpi"
     transform="translate(0,5)">
    <path
       id="rect1"
       style="color:#000000;fill:#000000;stroke-linecap:square;stroke-miterlimit:4.7;-inkscape-stroke:none"
       d="M 4.90625,0 C 2.178848,0 0,2.3424961 0,5.195312 V 44.804688 C 0,47.657504 2.178848,50 4.90625,50 h 70.1875 C 77.821152,50 80,47.657504 80,44.804688 V 5.195312 C 80,2.3424961 77.821152,0 75.09375,0 Z m 0,1 h 70.1875 C 77.24929,1 79,2.8460843 79,5.195312 V 44.804688 C 79,47.153916 77.24929,49 75.09375,49 H 4.90625 C 2.75071,49 1,47.153916 1,44.804688 V 5.195312 C 1,2.8460843 2.75071,1 4.90625,1 Z m 1.398438,4.134766 c -0.772734,0 -1.41211,0.63656 -1.41211,1.410156 v 0.04492 c 0,0.773595 0.638085,1.412109 1.41211,1.412109 h 17.390624 c 0.774027,0 1.41211,-0.638515 1.41211,-1.412109 v -0.04492 c 0,-0.773596 -0.639374,-1.410156 -1.41211,-1.410156 z m 50,0 c -0.772734,0 -1.41211,0.63656 -1.41211,1.410156 v 0.04492 c 0,0.773595 0.638085,1.412109 1.41211,1.412109 h 17.390624 c 0.774027,0 1.41211,-0.638515 1.41211,-1.412109 v -0.04492 c 0,-0.773596 -0.639374,-1.410156 -1.41211,-1.410156 z m -50,1 h 17.390624 c 0.236678,0 0.41211,0.175101 0.41211,0.410156 v 0.04492 c 0,0.235051 -0.176723,0.412109 -0.41211,0.412109 H 6.304688 c -0.235385,0 -0.41211,-0.177058 -0.41211,-0.412109 v -0.04492 c 0,-0.235054 0.175434,-0.410156 0.41211,-0.410156 z m 50,0 h 17.390624 c 0.236678,0 0.41211,0.175101 0.41211,0.410156 v 0.04492 c 0,0.235051 -0.176723,0.412109 -0.41211,0.412109 H 56.304688 c -0.235385,0 -0.41211,-0.177058 -0.41211,-0.412109 v -0.04492 c 0,-0.235054 0.175434,-0.410156 0.41211,-0.410156 z m -50,3.095703 c -0.774025,0 -1.41211,0.638514 -1.41211,1.412109 v 0.04492 c 0,0.773596 0.639375,1.410156 1.41211,1.410156 h 17.390624 c 0.772736,0 1.41211,-0.636561 1.41211,-1.410156 v -0.04492 c 0,-0.773594 -0.638083,-1.412109 -1.41211,-1.412109 z m 50,0 c -0.774025,0 -1.41211,0.638514 -1.41211,1.412109 v 0.04492 c 0,0.773596 0.639375,1.410156 1.41211,1.410156 h 17.390624 c 0.772736,0 1.41211,-0.636561 1.41211,-1.410156 v -0.04492 c 0,-0.773594 -0.638083,-1.412109 -1.41211,-1.412109 z m -50,1 h 17.390624 c 0.235387,0 0.41211,0.177058 0.41211,0.412109 v 0.04492 c 0,0.235053 -0.175432,0.410156 -0.41211,0.410156 H 6.304688 c -0.236675,0 -0.41211,-0.175104 -0.41211,-0.410156 v -0.04492 c 0,-0.235051 0.176725,-0.412109 0.41211,-0.412109 z m 50,0 h 17.390624 c 0.235387,0 0.41211,0.177058 0.41211,0.412109 v 0.04492 c 0,0.235053 -0.175432,0.410156 -0.41211,0.410156 H 56.304688 c -0.236675,0 -0.41211,-0.175104 -0.41211,-0.410156 v -0.04492 c 0,-0.235051 0.176725,-0.412109 0.41211,-0.412109 z m -50,3.097656 c -0.772736,0 -1.41211,0.636561 -1.41211,1.410156 v 0.04492 c 0,0.773596 0.639376,1.410156 1.41211,1.410156 h 17.390624 c 0.772736,0 1.41211,-0.63656 1.41211,-1.410156 v -0.04492 c 0,-0.773594 -0.639373,-1.410156 -1.41211,-1.410156 z m 50,0 c -0.772736,0 -1.41211,0.636561 -1.41211,1.410156 v 0.04492 c 0,0.773596 0.639376,1.410156 1.41211,1.410156 h 17.390624 c 0.772736,0 1.41211,-0.63656 1.41211,-1.410156 v -0.04492 c 0,-0.773594 -0.639373,-1.410156 -1.41211,-1.410156 z m -50,1 h 17.390624 c 0.236677,0 0.41211,0.175105 0.41211,0.410156 v 0.04492 c 0,0.235055 -0.175432,0.410156 -0.41211,0.410156 H 6.304688 c -0.236676,0 -0.41211,-0.175102 -0.41211,-0.410156 v -0.04492 c 0,-0.235051 0.175436,-0.410156 0.41211,-0.410156 z m 50,0 h 17.390624 c 0.236677,0 0.41211,0.175105 0.41211,0.410156 v 0.04492 c 0,0.235055 -0.175432,0.410156 -0.41211,0.410156 H 56.304688 c -0.236676,0 -0.41211,-0.175102 -0.41211,-0.410156 v -0.04492 c 0,-0.235051 0.175436,-0.410156 0.41211,-0.410156 z m -50,3.095703 c -0.772736,0 -1.41211,0.636561 -1.41211,1.410156 v 0.04492 c 0,0.773596 0.639376,1.410156 1.41211,1.410156 h 17.390624 c 0.772736,0 1.41211,-0.63656 1.41211,-1.410156 v -0.04492 c 0,-0.773594 -0.639373,-1.410156 -1.41211,-1.410156 z m 50,0 c -0.772736,0 -1.41211,0.636561 -1.41211,1.410156 v 0.04492 c 0,0.773596 0.639376,1.410157 1.41211,1.410156 h 17.390624 c 0.772736,0 1.41211,-0.63656 1.41211,-1.410156 v -0.04492 c 0,-0.773594 -0.639373,-1.410156 -1.41211,-1.410156 z m -50,1 h 17.390624 c 0.236677,0 0.41211,0.175106 0.41211,0.410156 v 0.04492 c 0,0.235055 -0.175432,0.410157 -0.41211,0.410156 H 6.304688 c -0.236676,0 -0.41211,-0.175102 -0.41211,-0.410156 v -0.04492 c 0,-0.235049 0.175436,-0.410156 0.41211,-0.410156 z m 50,0 h 17.390624 c 0.236677,0 0.41211,0.175106 0.41211,0.410156 v 0.04492 c 0,0.235055 -0.175432,0.410157 -0.41211,0.410156 H 56.304688 c -0.236676,0 -0.41211,-0.175102 -0.41211,-0.410156 v -0.04492 c 0,-0.235049 0.175436,-0.410156 0.41211,-0.410156 z m -50,3.095703 c -0.772736,0 -1.41211,0.636561 -1.41211,1.410157 v 0.04492 c 0,0.773597 0.639375,1.410157 1.41211,1.410157 h 17.390624 c 0.772736,0 1.41211,-0.63656 1.41211,-1.410157 v -0.04492 c 0,-0.773595 -0.639373,-1.410157 -1.41211,-1.410157 z m 50,0 c -0.772736,0 -1.41211,0.636561 -1.41211,1.410157 v 0.04492 c 0,0.773597 0.639375,1.410157 1.41211,1.410157 h 17.390624 c 0.772736,0 1.41211,-0.63656 1.41211,-1.410157 v -0.04492 c 0,-0.773595 -0.639373,-1.410157 -1.41211,-1.410157 z m -50,1 h 17.390624 c 0.236677,0 0.41211,0.175104 0.41211,0.410157 v 0.04492 c 0,0.235055 -0.175432,0.410157 -0.41211,0.410157 H 6.304688 c -0.236675,0 -0.41211,-0.175103 -0.41211,-0.410157 v -0.04492 c 0,-0.235052 0.175436,-0.410157 0.41211,-0.410157 z m 50,0 h 17.390624 c 0.236677,0 0.41211,0.175104 0.41211,0.410157 v 0.04492 c 0,0.235055 -0.175432,0.410157 -0.41211,0.410157 H 56.304688 c -0.236675,0 -0.41211,-0.175103 -0.41211,-0.410157 v -0.04492 c 0,-0.235052 0.175436,-0.410157 0.41211,-0.410157 z m -50,3.095703 c -0.772735,0 -1.41211,0.63656 -1.41211,1.410157 v 0.04492 c 0,0.773597 0.639374,1.410157 1.41211,1.410157 h 17.390624 c 0.772737,0 1.41211,-0.636561 1.41211,-1.410157 v -0.04492 c 0,-0.773597 -0.639374,-1.410157 -1.41211,-1.410157 z m 50,0 c -0.772735,0 -1.41211,0.63656 -1.41211,1.410157 v 0.04492 c 0,0.773597 0.639374,1.410157 1.41211,1.410157 h 17.390624 c 0.772737,0 1.41211,-0.636561 1.41211,-1.410157 v -0.04492 c 0,-0.773597 -0.639374,-1.410157 -1.41211,-1.410157 z m -50,1 h 17.390624 c 0.236678,0 0.41211,0.175102 0.41211,0.410157 v 0.04492 c 0,0.235054 -0.175433,0.410157 -0.41211,0.410157 H 6.304688 c -0.236674,0 -0.41211,-0.175104 -0.41211,-0.410157 v -0.04492 c 0,-0.235054 0.175435,-0.410157 0.41211,-0.410157 z m 50,0 h 17.390624 c 0.236678,0 0.41211,0.175102 0.41211,0.410157 v 0.04492 c 0,0.235054 -0.175433,0.410157 -0.41211,0.410157 H 56.304688 c -0.236674,0 -0.41211,-0.175104 -0.41211,-0.410157 v -0.04492 c 0,-0.235054 0.175435,-0.410157 0.41211,-0.410157 z m -50,3.095704 c -0.772734,0 -1.41211,0.63656 -1.41211,1.410156 v 0.04492 c 0,0.773595 0.639374,1.410156 1.41211,1.410156 h 17.390624 c 0.772737,0 1.41211,-0.636562 1.41211,-1.410156 v -0.04492 c 0,-0.773596 -0.639374,-1.410156 -1.41211,-1.410156 z m 50,0 c -0.772734,0 -1.41211,0.63656 -1.41211,1.410156 v 0.04492 c 0,0.773595 0.639374,1.410156 1.41211,1.410156 h 17.390624 c 0.772737,0 1.41211,-0.636562 1.41211,-1.410156 v -0.04492 c 0,-0.773596 -0.639374,-1.410156 -1.41211,-1.410156 z m -50,1 h 17.390624 c 0.236678,0 0.41211,0.175101 0.41211,0.410156 v 0.04492 c 0,0.23505 -0.175433,0.410156 -0.41211,0.410156 H 6.304688 c -0.236674,0 -0.41211,-0.175107 -0.41211,-0.410156 v -0.04492 c 0,-0.235054 0.175434,-0.410156 0.41211,-0.410156 z m 50,0 h 17.390624 c 0.236678,0 0.41211,0.175101 0.41211,0.410156 v 0.04492 c 0,0.23505 -0.175433,0.410156 -0.41211,0.410156 H 56.304688 c -0.236674,0 -0.41211,-0.175107 -0.41211,-0.410156 v -0.04492 c 0,-0.235054 0.175434,-0.410156 0.41211,-0.410156 z m -50,3.095703 c -0.772734,0 -1.41211,0.63656 -1.41211,1.410156 v 0.04492 c 0,0.773595 0.638085,1.412109 1.41211,1.412109 h 17.390624 c 0.774027,0 1.41211,-0.638515 1.41211,-1.412109 v -0.04492 c 0,-0.773596 -0.639374,-1.410156 -1.41211,-1.410156 z m 50,0 c -0.772734,0 -1.41211,0.63656 -1.41211,1.410156 v 0.04492 c 0,0.773595 0.638085,1.412109 1.41211,1.412109 h 17.390624 c 0.774027,0 1.41211,-0.638515 1.41211,-1.412109 v -0.04492 c 0,-0.773596 -0.639374,-1.410156 -1.41211,-1.410156 z m -50,1 h 17.390624 c 0.236678,0 0.41211,0.175101 0.41211,0.410156 v 0.04492 c 0,0.235051 -0.176723,0.412109 -0.41211,0.412109 H 6.304688 c -0.235385,0 -0.41211,-0.177058 -0.41211,-0.412109 v -0.04492 c 0,-0.235054 0.175434,-0.410156 0.41211,-0.410156 z m 50,0 h 17.390624 c 0.236678,0 0.41211,0.175101 0.41211,0.410156 v 0.04492 c 0,0.235051 -0.176723,0.412109 -0.41211,0.412109 H 56.304688 c -0.235385,0 -0.41211,-0.177058 -0.41211,-0.412109 v -0.04492 c 0,-0.235054 0.175434,-0.410156 0.41211,-0.410156 z m -50,3.095703 c -0.774025,0 -1.41211,0.638514 -1.41211,1.412109 v 0.04492 c 0,0.773596 0.639375,1.410156 1.41211,1.410156 h 17.390624 c 0.772736,0 1.41211,-0.636561 1.41211,-1.410156 v -0.04492 c 0,-0.773594 -0.638083,-1.412109 -1.41211,-1.412109 z m 50,0 c -0.774025,0 -1.41211,0.638514 -1.41211,1.412109 v 0.04492 c 0,0.773596 0.639375,1.410156 1.41211,1.410156 h 17.390624 c 0.772736,0 1.41211,-0.636561 1.41211,-1.410156 v -0.04492 c 0,-0.773594 -0.638083,-1.412109 -1.41211,-1.412109 z m -50,1 h 17.390624 c 0.235387,0 0.41211,0.177058 0.41211,0.412109 v 0.04492 c 0,0.235053 -0.175432,0.410156 -0.41211,0.410156 H 6.304688 c -0.236675,0 -0.41211,-0.175104 -0.41211,-0.410156 v -0.04492 c 0,-0.235051 0.176725,-0.412109 0.41211,-0.412109 z m 50,0 h 17.390624 c 0.235387,0 0.41211,0.177058 0.41211,0.412109 v 0.04492 c 0,0.235053 -0.175432,0.410156 -0.41211,0.410156 H 56.304688 c -0.236675,0 -0.41211,-0.175104 -0.41211,-0.410156 v -0.04492 c 0,-0.235051 0.176725,-0.412109 0.41211,-0.412109 z M 6.304688,42 c -0.772736,0 -1.41211,0.636561 -1.41211,1.410156 v 0.04492 c 0,0.773596 0.639376,1.410156 1.41211,1.410156 h 17.390624 c 0.772736,0 1.41211,-0.63656 1.41211,-1.410156 v -0.04492 C 25.107422,42.636562 24.468049,42 23.695312,42 Z m 50,0 c -0.772736,0 -1.41211,0.636561 -1.41211,1.410156 v 0.04492 c 0,0.773596 0.639376,1.410156 1.41211,1.410156 h 17.390624 c 0.772736,0 1.41211,-0.63656 1.41211,-1.410156 v -0.04492 C 75.107422,42.636562 74.468049,42 73.695312,42 Z m -50,1 h 17.390624 c 0.236677,0 0.41211,0.175105 0.41211,0.410156 v 0.04492 c 0,0.235055 -0.175432,0.410156 -0.41211,0.410156 H 6.304688 c -0.236676,0 -0.41211,-0.175102 -0.41211,-0.410156 v -0.04492 C 5.892578,43.175105 6.068014,43 6.304688,43 Z m 50,0 h 17.390624 c 0.236677,0 0.41211,0.175105 0.41211,0.410156 v 0.04492 c 0,0.235055 -0.175432,0.410156 -0.41211,0.410156 H 56.304688 c -0.236676,0 -0.41211,-0.175102 -0.41211,-0.410156 v -0.04492 C 55.892578,43.175105 56.068014,43 56.304688,43 Z" />
    <path
       id="path26"
       style="display:inline;fill:#bc1142;stroke-width:1.4;stroke-linecap:square;stroke-miterlimit:4.7"
       inkscape:label="red"
       d="m 49.720703,22.173828 c -1.402347,-0.04104 -2.60381,1.346803 -4.03294,0.683128 -2.622449,-0.419397 -5.676182,1.633716 -5.547804,4.447637 -0.165086,1.662494 -2.045922,2.406596 -2.324203,4.032898 -0.468854,1.711027 0.07474,3.689436 1.444019,4.842244 0.754212,1.233716 0.12551,2.907127 1.210235,4.024866 0.883041,1.393559 2.450734,2.426439 4.135468,2.391146 1.307175,0.484563 1.542799,2.195999 2.940445,2.604817 2.115351,1.171129 4.925789,0.472508 6.376436,-1.421162 0.73087,-1.365916 2.263172,-1.152044 3.458541,-1.680957 1.901236,-0.948119 3.230519,-3.109486 2.919615,-5.255271 0.200377,-1.486634 1.783673,-2.509048 1.590026,-4.101189 0.111948,-1.577019 -0.586088,-3.180401 -1.871651,-4.111809 -0.956333,-0.871521 -0.277237,-2.300905 -1.082626,-3.291104 -0.996179,-1.873925 -3.294148,-2.709329 -5.315192,-2.306971 -1.381401,0.09097 -2.489551,-1.083496 -3.900369,-0.858273 z"
       transform="translate(-10,-5)" />
    <path
       id="path24"
       style="fill:#669900;stroke-width:1.4;stroke-linecap:square;stroke-miterlimit:4.7"
       d="m 45.982422,9.537109 c -2.362715,0.12742 -5.019513,1.440132 -5.421875,3.828125 -0.07003,2.54196 2.307965,4.802988 4.957031,4.773438 4.828363,-1.497391 5.088844,-3.815413 5.337891,-6.25586 -0.111641,-2.306951 -2.929985,-1.850923 -4.873047,-2.345703 z m -11.97461,0.07031 c -1.943062,0.494779 -4.761405,0.03875 -4.873046,2.345703 0.249046,2.440447 2.327415,5.539729 4.748046,6.210937 2.649067,0.02955 5.616901,-2.186556 5.546876,-4.728515 C 39.027325,11.04755 36.370527,9.734839 34.007812,9.607419 Z"
       inkscape:label="green" />
    <path
       d="m 50.25,23.534 -0.244,-0.369 c 0,-2.934 -1.343,-4.039 -2.815,-4.894 0.492,-0.125 0.98,-0.244 1.104,-0.856 0.856,-0.244 0.98,-0.612 1.1,-0.98 0.243,-0.124 0.855,-0.487 0.855,-1.223 0.368,-0.244 0.612,-0.612 0.492,-1.1 0.368,-0.492 0.488,-0.86 0.368,-1.224 0.488,-0.611 0.244,-0.98 0.12,-1.348 0.368,-0.736 0,-1.467 -0.98,-1.347 C 49.887,9.581 48.907,9.705 48.783,9.705 48.663,9.461 48.415,9.337 47.803,9.461 47.191,9.093 46.703,9.093 46.216,9.337 c -0.612,-0.488 -0.98,-0.12 -1.348,0 -0.736,-0.244 -0.856,0.124 -1.224,0.244 -0.736,-0.12 -0.98,0.248 -1.348,0.612 h -0.363 c -1.104,0.611 -1.716,2.084 -1.96,2.695 -0.244,-0.736 -0.736,-2.084 -1.96,-2.695 H 37.65 C 37.282,9.829 37.038,9.461 36.302,9.581 35.934,9.461 35.814,9.093 35.078,9.337 34.834,9.217 34.591,9.093 34.223,9.093 c -0.125,0 -0.244,0.124 -0.493,0.244 -0.487,-0.244 -0.975,-0.244 -1.343,0.124 -0.612,-0.124 -0.855,0.12 -0.98,0.244 -0.124,0 -1.1,-0.124 -1.467,0.488 -1.104,-0.12 -1.468,0.611 -1.104,1.347 -0.244,0.369 -0.364,0.612 0.124,1.348 -0.244,0.244 -0.124,0.732 0.368,1.1 -0.124,0.487 0,0.855 0.487,1.224 -0.119,0.611 0.612,0.98 0.737,1.223 0.12,0.368 0.243,0.736 1.099,0.98 0.124,0.612 0.612,0.731 1.104,0.856 -1.592,0.855 -2.815,2.079 -2.815,4.894 l -0.244,0.369 c -1.716,1.099 -3.308,4.526 -0.86,7.342 0.124,0.855 0.368,1.467 0.611,2.203 0.368,2.81 2.696,4.159 3.308,4.283 0.856,0.731 1.836,1.343 3.179,1.836 1.224,1.223 2.572,1.71 3.915,1.71 1.348,0 2.696,-0.487 3.92,-1.71 1.343,-0.493 2.322,-1.105 3.178,-1.836 0.612,-0.124 2.94,-1.472 3.303,-4.283 0.249,-0.736 0.492,-1.348 0.736,-2.203 2.691,-2.816 1.1,-6.243 -0.736,-7.342 m -1.587,-0.493 c -0.124,1.224 -5.999,-4.034 -5.019,-4.158 2.815,-0.488 5.139,1.099 5.02,4.158 M 42.177,10.93 c 0,0.243 0.12,0.368 0.12,0.487 0.367,-0.363 0.61,-0.731 0.979,-1.1 0,0.245 -0.12,0.369 0.124,0.613 0.244,-0.368 0.488,-0.612 0.98,-0.856 -0.248,0.368 0,0.488 0.12,0.612 0.368,-0.244 0.612,-0.492 1.223,-0.736 -0.12,0.244 -0.368,0.368 -0.12,0.612 0.364,-0.244 0.613,-0.368 1.468,-0.612 -0.124,0.244 -0.492,0.368 -0.368,0.612 0.368,-0.12 0.856,-0.244 1.348,-0.368 -0.248,0.248 -0.492,0.368 -0.248,0.492 0.492,-0.124 0.98,-0.368 1.591,-0.124 L 49.026,10.93 H 50.5 c -0.249,0.368 -0.493,0.611 -0.612,1.099 H 50.5 c -0.249,0.736 -0.737,0.86 -0.86,1.104 q 0.184,0.18 0.735,0 c -0.243,0.488 -0.612,0.732 -0.98,1.1 0.125,0.124 0.244,0.124 0.612,0 -0.368,0.368 -0.731,0.611 -1.1,0.98 0.12,0.124 0.369,0.124 0.613,0.124 -0.368,0.363 -0.98,0.612 -1.468,0.855 0.12,0.244 0.364,0.12 0.488,0.12 -0.368,0.249 -0.98,0.492 -1.468,0.612 0.12,0.124 0.244,0.248 0.488,0.248 -0.612,0.364 -1.468,0.12 -1.711,0.364 0,0.124 0.243,0.248 0.368,0.368 -0.98,0 -3.552,0 -4.04,-1.955 0.98,-1.105 2.692,-2.328 5.75,-3.92 -2.322,0.86 -4.526,1.836 -6.242,3.308 -1.955,-0.98 -0.612,-3.427 0.493,-4.407 m -2.204,7.098 c 1.467,0 3.303,1.1 3.303,2.204 0,0.975 -1.343,1.71 -3.303,1.71 -1.96,0 -3.303,-0.98 -3.303,-1.835 0,-0.855 1.592,-2.079 3.303,-2.079 m -7.466,-0.736 c 0.248,0 0.368,-0.12 0.492,-0.244 -0.612,-0.244 -1.224,-0.368 -1.592,-0.736 0.244,0 0.368,0 0.612,-0.12 -0.487,-0.243 -0.98,-0.492 -1.467,-0.855 0.243,0 0.487,0 0.611,-0.124 -0.368,-0.244 -0.736,-0.612 -1.104,-0.856 h 0.612 c -0.363,-0.492 -0.731,-0.736 -0.975,-1.224 a 0.79,0.79 0 0 0 0.731,0 c -0.12,-0.244 -0.731,-0.368 -0.98,-0.98 h 0.612 c -0.12,-0.487 -0.363,-0.855 -0.487,-1.1 h 1.467 l -0.368,-0.491 c 0.612,-0.12 1.224,0 1.592,0.124 0.244,-0.124 0,-0.368 -0.244,-0.492 0.488,0.124 0.98,0.248 1.348,0.368 C 33.612,10.318 33.244,10.194 33,9.95 c 0.856,0.124 1.1,0.368 1.467,0.612 0.244,-0.244 0,-0.368 -0.124,-0.612 0.612,0.244 0.86,0.492 1.224,0.736 0.124,-0.124 0.248,-0.244 0.124,-0.612 0.244,0.244 0.612,0.488 0.856,0.856 0.244,-0.125 0.124,-0.368 0.124,-0.612 0.368,0.368 0.731,0.736 0.98,1.1 0.12,0 0.12,-0.245 0.12,-0.488 0.98,0.98 2.447,3.427 0.367,4.407 -1.71,-1.472 -3.914,-2.572 -6.242,-3.308 3.059,1.592 4.775,2.815 5.755,3.92 -0.492,1.955 -3.06,2.079 -4.04,1.955 q 0.368,-0.181 0.369,-0.368 c -0.124,-0.12 -0.86,0 -1.472,-0.244 m 3.427,1.467 c 0.98,0.125 -4.895,5.387 -5.014,4.164 -0.125,-2.94 2.198,-4.651 5.014,-4.164 m -6.238,11.625 c -1.472,-1.223 -1.96,-4.526 0.731,-6.118 1.592,-0.488 0.612,6.61 -0.731,6.118 m 5.626,6.119 c -0.856,0.492 -2.815,0.248 -4.159,-1.712 -0.98,-1.71 -0.855,-3.427 -0.124,-3.914 0.98,-0.612 2.572,0.243 3.671,1.591 0.98,1.1 1.468,3.303 0.612,4.035 M 33.73,29.04 c -1.467,-0.98 -1.71,-3.183 -0.612,-5.019 1.224,-1.711 3.308,-2.447 4.776,-1.467 1.468,0.98 1.71,3.183 0.612,5.019 -1.105,1.835 -3.303,2.447 -4.776,1.467 m 6.243,10.889 c -1.836,0.124 -3.547,-1.467 -3.547,-1.955 0,-0.736 2.199,-1.348 3.671,-1.348 1.468,-0.124 3.423,0.488 3.423,1.224 0,0.487 -1.836,2.079 -3.547,2.079 m 3.671,-7.83 c 0,1.836 -1.592,3.303 -3.547,3.303 -1.96,0 -3.67,-1.467 -3.67,-3.303 0,-1.836 1.586,-3.303 3.546,-3.303 2.08,0 3.671,1.468 3.671,3.303 m -2.204,-4.65 c -1.223,-1.712 -0.855,-4.04 0.612,-5.02 1.468,-0.975 3.671,-0.363 4.776,1.473 1.099,1.835 0.855,4.034 -0.612,5.014 -1.473,0.855 -3.671,0.244 -4.776,-1.468 m 7.343,7.341 c -1.592,2.204 -3.671,2.204 -4.403,1.592 -0.86,-0.736 -0.248,-3.183 0.975,-4.526 1.224,-1.473 2.696,-2.448 3.552,-1.716 0.612,0.855 0.98,3.183 -0.124,4.65 m 1.104,-4.526 c -1.348,0.612 -2.448,-6.487 -0.736,-6.119 2.69,1.468 2.203,4.895 0.736,6.119"
       style="display:inline;stroke-width:1"
       id="path21"
       inkscape:label="logo" />
  </g>
</svg>
