<svg xmlns="http://www.w3.org/2000/svg" width="100" height="60"><rect width="49" height="79" x="-54.5" y="10.5" rx="4.695" ry="4.407" style="display:inline;fill:none;stroke:#000;stroke-width:1;stroke-linecap:square;stroke-miterlimit:4.7" transform="rotate(-90)"/><g style="stroke-width:1.24026" transform="matrix(.63486 0 0 1.024 6.803 -40.96)"><rect width="30.264" height="1.822" x="13.531" y="54.386" rx="1.435" ry=".889" style="fill:none;stroke:#000;stroke-width:1.24025;stroke-linecap:square;stroke-miterlimit:4.7"/><rect width="30.264" height="1.822" x="13.531" y="58.386" rx="1.435" ry=".889" style="fill:none;stroke:#000;stroke-width:1.24025;stroke-linecap:square;stroke-miterlimit:4.7"/><rect width="30.264" height="1.822" x="13.531" y="62.386" rx="1.435" ry=".889" style="fill:none;stroke:#000;stroke-width:1.24025;stroke-linecap:square;stroke-miterlimit:4.7"/><rect width="30.264" height="1.822" x="13.531" y="66.386" rx="1.435" ry=".889" style="fill:none;stroke:#000;stroke-width:1.24025;stroke-linecap:square;stroke-miterlimit:4.7"/><rect width="30.264" height="1.822" x="13.531" y="70.386" rx="1.435" ry=".889" style="fill:none;stroke:#000;stroke-width:1.24025;stroke-linecap:square;stroke-miterlimit:4.7"/><rect width="30.264" height="1.822" x="13.531" y="74.386" rx="1.435" ry=".889" style="fill:none;stroke:#000;stroke-width:1.24025;stroke-linecap:square;stroke-miterlimit:4.7"/><rect width="30.264" height="1.822" x="13.531" y="78.386" rx="1.435" ry=".889" style="fill:none;stroke:#000;stroke-width:1.24025;stroke-linecap:square;stroke-miterlimit:4.7"/><rect width="30.264" height="1.822" x="13.531" y="82.386" rx="1.435" ry=".889" style="fill:none;stroke:#000;stroke-width:1.24025;stroke-linecap:square;stroke-miterlimit:4.7"/><rect width="30.264" height="1.822" x="13.531" y="86.386" rx="1.435" ry=".889" style="fill:none;stroke:#000;stroke-width:1.24025;stroke-linecap:square;stroke-miterlimit:4.7"/><rect width="30.264" height="1.822" x="13.531" y="50.386" rx="1.435" ry=".889" style="fill:none;stroke:#000;stroke-width:1.24025;stroke-linecap:square;stroke-miterlimit:4.7"/></g><g style="stroke-width:1.24026" transform="matrix(.63486 0 0 1.024 56.803 -40.96)"><rect width="30.264" height="1.822" x="13.531" y="54.386" rx="1.435" ry=".889" style="fill:none;stroke:#000;stroke-width:1.24025;stroke-linecap:square;stroke-miterlimit:4.7"/><rect width="30.264" height="1.822" x="13.531" y="58.386" rx="1.435" ry=".889" style="fill:none;stroke:#000;stroke-width:1.24025;stroke-linecap:square;stroke-miterlimit:4.7"/><rect width="30.264" height="1.822" x="13.531" y="62.386" rx="1.435" ry=".889" style="fill:none;stroke:#000;stroke-width:1.24025;stroke-linecap:square;stroke-miterlimit:4.7"/><rect width="30.264" height="1.822" x="13.531" y="66.386" rx="1.435" ry=".889" style="fill:none;stroke:#000;stroke-width:1.24025;stroke-linecap:square;stroke-miterlimit:4.7"/><rect width="30.264" height="1.822" x="13.531" y="70.386" rx="1.435" ry=".889" style="fill:none;stroke:#000;stroke-width:1.24025;stroke-linecap:square;stroke-miterlimit:4.7"/><rect width="30.264" height="1.822" x="13.531" y="74.386" rx="1.435" ry=".889" style="fill:none;stroke:#000;stroke-width:1.24025;stroke-linecap:square;stroke-miterlimit:4.7"/><rect width="30.264" height="1.822" x="13.531" y="78.386" rx="1.435" ry=".889" style="fill:none;stroke:#000;stroke-width:1.24025;stroke-linecap:square;stroke-miterlimit:4.7"/><rect width="30.264" height="1.822" x="13.531" y="82.386" rx="1.435" ry=".889" style="fill:none;stroke:#000;stroke-width:1.24025;stroke-linecap:square;stroke-miterlimit:4.7"/><rect width="30.264" height="1.822" x="13.531" y="86.386" rx="1.435" ry=".889" style="fill:none;stroke:#000;stroke-width:1.24025;stroke-linecap:square;stroke-miterlimit:4.7"/><rect width="30.264" height="1.822" x="13.531" y="50.386" rx="1.435" ry=".889" style="fill:none;stroke:#000;stroke-width:1.24025;stroke-linecap:square;stroke-miterlimit:4.7"/></g><path d="m60.25 68.534-.244-.369c0-2.934-1.343-4.039-2.815-4.894.492-.125.98-.244 1.104-.856.856-.244.98-.612 1.1-.98.243-.124.855-.487.855-1.223.368-.244.612-.612.492-1.1.368-.492.488-.86.368-1.224.488-.611.244-.98.12-1.348.368-.736 0-1.467-.98-1.347-.363-.612-1.343-.488-1.467-.488-.12-.244-.368-.368-.98-.244-.612-.368-1.1-.368-1.587-.124-.612-.488-.98-.12-1.348 0-.736-.244-.856.124-1.224.244-.736-.12-.98.248-1.348.612h-.363c-1.104.611-1.716 2.084-1.96 2.695-.244-.736-.736-2.084-1.96-2.695h-.363c-.368-.364-.612-.732-1.348-.612-.368-.12-.488-.488-1.224-.244-.244-.12-.487-.244-.855-.244-.125 0-.244.124-.493.244-.487-.244-.975-.244-1.343.124-.612-.124-.855.12-.98.244-.124 0-1.1-.124-1.467.488-1.104-.12-1.468.611-1.104 1.347-.244.369-.364.612.124 1.348-.244.244-.124.732.368 1.1-.124.487 0 .855.487 1.224-.119.611.612.98.737 1.223.12.368.243.736 1.099.98.124.612.612.731 1.104.856-1.592.855-2.815 2.079-2.815 4.894l-.244.369c-1.716 1.099-3.308 4.526-.86 7.342.124.855.368 1.467.611 2.203.368 2.81 2.696 4.159 3.308 4.283.856.731 1.836 1.343 3.179 1.836 1.224 1.223 2.572 1.71 3.915 1.71 1.348 0 2.696-.487 3.92-1.71 1.343-.493 2.322-1.105 3.178-1.836.612-.124 2.94-1.472 3.303-4.283.249-.736.492-1.348.736-2.203 2.691-2.816 1.1-6.243-.736-7.342m-1.587-.493c-.124 1.224-5.999-4.034-5.019-4.158 2.815-.488 5.139 1.099 5.02 4.158M52.177 55.93c0 .243.12.368.12.487.367-.363.61-.731.979-1.1 0 .245-.12.369.124.613.244-.368.488-.612.98-.856-.248.368 0 .488.12.612.368-.244.612-.492 1.223-.736-.12.244-.368.368-.12.612.364-.244.613-.368 1.468-.612-.124.244-.492.368-.368.612.368-.12.856-.244 1.348-.368-.248.248-.492.368-.248.492.492-.124.98-.368 1.591-.124l-.368.368H60.5c-.249.368-.493.611-.612 1.099h.612c-.249.736-.737.86-.86 1.104q.184.18.735 0c-.243.488-.612.732-.98 1.1.125.124.244.124.612 0-.368.368-.731.611-1.1.98.12.124.369.124.613.124-.368.363-.98.612-1.468.855.12.244.364.12.488.12-.368.249-.98.492-1.468.612.12.124.244.248.488.248-.612.364-1.468.12-1.711.364 0 .124.243.248.368.368-.98 0-3.552 0-4.04-1.955.98-1.105 2.692-2.328 5.75-3.92-2.322.86-4.526 1.836-6.242 3.308-1.955-.98-.612-3.427.493-4.407m-2.204 7.098c1.467 0 3.303 1.1 3.303 2.204 0 .975-1.343 1.71-3.303 1.71s-3.303-.98-3.303-1.835 1.592-2.079 3.303-2.079m-7.466-.736c.248 0 .368-.12.492-.244-.612-.244-1.224-.368-1.592-.736.244 0 .368 0 .612-.12-.487-.243-.98-.492-1.467-.855.243 0 .487 0 .611-.124-.368-.244-.736-.612-1.104-.856h.612c-.363-.492-.731-.736-.975-1.224a.79.79 0 0 0 .731 0c-.12-.244-.731-.368-.98-.98h.612c-.12-.487-.363-.855-.487-1.1h1.467l-.368-.491c.612-.12 1.224 0 1.592.124.244-.124 0-.368-.244-.492.488.124.98.248 1.348.368.244-.244-.124-.368-.368-.612.856.124 1.1.368 1.467.612.244-.244 0-.368-.124-.612.612.244.86.492 1.224.736.124-.124.248-.244.124-.612.244.244.612.488.856.856.244-.125.124-.368.124-.612.368.368.731.736.98 1.1.12 0 .12-.245.12-.488.98.98 2.447 3.427.367 4.407-1.71-1.472-3.914-2.572-6.242-3.308 3.059 1.592 4.775 2.815 5.755 3.92-.492 1.955-3.06 2.079-4.04 1.955q.368-.181.369-.368c-.124-.12-.86 0-1.472-.244m3.427 1.467c.98.125-4.895 5.387-5.014 4.164-.125-2.94 2.198-4.651 5.014-4.164m-6.238 11.625c-1.472-1.223-1.96-4.526.731-6.118 1.592-.488.612 6.61-.731 6.118m5.626 6.119c-.856.492-2.815.248-4.159-1.712-.98-1.71-.855-3.427-.124-3.914.98-.612 2.572.243 3.671 1.591.98 1.1 1.468 3.303.612 4.035M43.73 74.04c-1.467-.98-1.71-3.183-.612-5.019 1.224-1.711 3.308-2.447 4.776-1.467s1.71 3.183.612 5.019c-1.105 1.835-3.303 2.447-4.776 1.467m6.243 10.889c-1.836.124-3.547-1.467-3.547-1.955 0-.736 2.199-1.348 3.671-1.348 1.468-.124 3.423.488 3.423 1.224 0 .487-1.836 2.079-3.547 2.079m3.671-7.83c0 1.836-1.592 3.303-3.547 3.303-1.96 0-3.67-1.467-3.67-3.303s1.586-3.303 3.546-3.303c2.08 0 3.671 1.468 3.671 3.303m-2.204-4.65c-1.223-1.712-.855-4.04.612-5.02 1.468-.975 3.671-.363 4.776 1.473 1.099 1.835.855 4.034-.612 5.014-1.473.855-3.671.244-4.776-1.468m7.343 7.341c-1.592 2.204-3.671 2.204-4.403 1.592-.86-.736-.248-3.183.975-4.526 1.224-1.473 2.696-2.448 3.552-1.716.612.855.98 3.183-.124 4.65m1.104-4.526c-1.348.612-2.448-6.487-.736-6.119 2.69 1.468 2.203 4.895.736 6.119" style="display:inline;stroke-width:1" transform="translate(0 -40)"/><path d="M54.933 62.818q-1.96-.247-2.57-1.477l-.175-.355.359-.364c.928-.941 2.534-2.033 4.727-3.212.385-.207.663-.377.618-.377-.151-.001-2.036.778-2.924 1.208-1.28.62-2.298 1.241-3.018 1.842-.294.245-.385.227-.761-.15-.239-.238-.295-.33-.386-.63-.085-.28-.1-.417-.077-.674.07-.746.527-1.675 1.154-2.346l.27-.288.061.229c.035.126.074.228.089.227s.221-.23.46-.509l.435-.506.027.159c.015.087.055.21.089.272.061.113.062.112.303-.158.133-.15.34-.339.46-.421l.217-.15-.032.144c-.025.114-.004.176.097.296l.128.152.297-.21c.408-.289.753-.485.79-.448.017.017.005.057-.026.088-.079.08-.072.304.012.373.054.045.107.032.255-.066.16-.106.667-.313 1.075-.439.112-.034.107-.021-.06.163q-.261.29-.143.362c.02.013.263-.04.539-.117.637-.18.66-.18.525.004-.094.127-.098.155-.037.215.06.061.122.054.48-.051.306-.091.492-.118.733-.106.178.01.34.033.36.052.019.02-.034.107-.119.194s-.154.173-.154.191.317.039.704.046l.703.014-.154.212c-.162.225-.382.663-.383.765 0 .042.09.06.289.06.16 0 .29.012.29.026 0 .116-.261.483-.514.724-.169.16-.307.318-.307.35 0 .082.214.124.465.09l.216-.03-.16.223a3.7 3.7 0 0 1-.46.488c-.167.146-.302.295-.302.33 0 .085.202.136.374.095l.132-.031-.13.11c-.821.7-.906.785-.84.85.035.036.155.077.265.092.19.026.197.032.124.113-.043.047-.347.223-.677.392-.33.168-.6.334-.6.368 0 .035.066.09.147.125l.147.062-.328.148a8 8 0 0 1-.657.254c-.316.103-.326.11-.247.197.045.05.122.103.172.119.27.085-.06.198-.707.243q-.747.051-.747.189c0 .035.066.12.148.19l.149.124-.426-.006a9 9 0 0 1-.764-.049m-11.082-.022c.083-.066.15-.163.15-.216 0-.083-.085-.105-.604-.155-.333-.033-.62-.073-.637-.09s.036-.085.117-.149.129-.136.104-.158c-.024-.023-.266-.12-.536-.218a6 6 0 0 1-.738-.319l-.245-.143.233-.032c.408-.057.39-.126-.106-.39a12 12 0 0 1-.701-.402c-.229-.149-.236-.16-.11-.176q.384-.046.383-.117c0-.027-.21-.217-.465-.423l-.465-.374.22-.017c.124-.01.218-.045.217-.082-.001-.036-.198-.286-.437-.555-.24-.27-.436-.508-.436-.53 0-.021.08-.026.178-.01.185.03.478-.053.478-.134 0-.026-.135-.14-.301-.254-.304-.21-.628-.536-.628-.633 0-.029.126-.052.28-.052.276 0 .278-.002.243-.15a4 4 0 0 0-.222-.547l-.186-.396h.707c.39 0 .708-.015.708-.033s-.074-.126-.164-.24l-.163-.206.122-.033c.207-.055.596-.036.997.049.539.114.539.114.502-.11-.017-.106-.013-.192.009-.192s.255.063.518.139c.262.076.501.124.53.106.106-.066.052-.29-.098-.402-.36-.27.472-.02.886.265.204.14.268.162.332.109.103-.086.1-.217-.005-.368-.047-.067-.068-.122-.046-.122.058 0 .503.267.793.475.357.256.42.237.482-.142l.03-.19.396.39c.352.347.404.38.477.307.046-.046.083-.161.084-.256v-.174l.344.355c.188.195.393.426.455.514.139.196.238.148.238-.116 0-.195 0-.196.113-.095.164.15.613.771.805 1.117.461.828.582 1.718.31 2.274a1.8 1.8 0 0 1-.727.728c-.114.059-.157.042-.41-.16-1.5-1.194-3.476-2.238-5.521-2.918-.238-.08-.442-.134-.454-.122s.33.213.76.445c2.18 1.18 3.708 2.223 4.626 3.158l.35.356-.093.23c-.41 1.025-1.49 1.605-3.119 1.674l-.71.03z" style="fill:#690;fill-opacity:1;stroke:none;stroke-width:1.4;stroke-linecap:square;stroke-miterlimit:4.7;stroke-dasharray:none;stroke-opacity:1" transform="translate(0 -40)"/><path d="M54.004 74.193c-1.491-.315-2.796-1.616-3.167-3.158-.129-.536-.128-1.268.002-1.765.376-1.432 1.572-2.353 2.94-2.264 1.696.11 3.074 1.369 3.586 3.277.128.475.14 1.412.024 1.844-.225.838-.761 1.56-1.38 1.856-.616.294-1.278.363-2.005.21m3.949-6.162c-1.32-.664-4.17-3.246-4.379-3.966-.044-.152.124-.198.825-.227 2.41-.099 4.078 1.346 4.227 3.661.039.602.015.683-.203.683-.102 0-.292-.061-.47-.151M54.96 81.627c-.717-.187-.994-.663-.938-1.611.055-.922.485-2.017 1.126-2.867.333-.442 1.418-1.497 1.79-1.743.525-.344.835-.459 1.244-.459.488 0 .66.099.86.49.083.166.205.504.272.754.107.402.12.54.122 1.21 0 .639-.015.814-.1 1.124a4 4 0 0 1-.686 1.38c-.701.928-1.6 1.542-2.542 1.735-.448.092-.758.089-1.148-.013m-5.789 3.226a5 5 0 0 1-.74-.22c-1.013-.407-2.066-1.346-1.964-1.75.048-.194.443-.504.863-.68.89-.373 1.805-.54 3.008-.547.705-.005.923.01 1.285.09.923.202 1.621.55 1.803.9.086.168.087.178.007.355-.183.405-1.14 1.178-1.869 1.508-.785.356-1.661.482-2.393.344m.334-4.517c-1.412-.239-2.55-1.18-2.934-2.43-.154-.5-.146-1.21.021-1.721.353-1.082 1.226-1.894 2.403-2.235.302-.088.46-.103 1.022-.1.585.005.715.02 1.078.13.67.202 1.085.448 1.564.921.34.338.45.484.607.803.257.525.333.847.333 1.4 0 .551-.076.873-.333 1.397-.155.317-.267.465-.607.802-.473.47-.777.666-1.322.853-.62.213-1.262.276-1.832.18m-5.645 1.307c-1.182-.222-2.287-1.091-2.858-2.246-.349-.706-.49-1.267-.497-1.973-.008-.848.188-1.316.662-1.582.18-.1.258-.115.64-.112.379.002.484.021.804.148.588.233 1.036.554 1.673 1.2.678.686.958 1.12 1.207 1.87.35 1.053.31 1.998-.1 2.437-.242.259-.92.373-1.531.258m.745-7.247c-1-.273-1.727-1.015-2.025-2.065-.153-.538-.143-1.383.023-2.013a4.33 4.33 0 0 1 2.721-2.977c1.633-.584 3.165.173 3.695 1.827.117.366.16 1.29.082 1.737-.283 1.594-1.339 2.9-2.742 3.391-.344.12-.479.142-.951.155-.387.01-.626-.006-.803-.055m-5.132.731c-.966-1.056-1.222-2.812-.604-4.132a4.03 4.03 0 0 1 1.326-1.546c.31-.209.49-.218.666-.034.22.23.314.625.339 1.434.057 1.881-.538 4.133-1.182 4.465-.216.112-.298.084-.545-.187m1.51-7.104c-.047-.056-.055-.189-.033-.565.124-2.137 1.568-3.582 3.747-3.751.393-.03 1.228.043 1.299.114.116.116-.276.651-1.059 1.443-1.695 1.714-3.675 3.096-3.954 2.76m8.008-1.197c-1.332-.264-2.275-.976-2.275-1.717 0-.332.165-.621.57-1 .744-.697 1.942-1.125 2.924-1.045.63.05 1.487.359 2.038.732.307.209.748.678.87.927.461.944-.396 1.818-2.063 2.105-.504.086-1.625.085-2.064-.002m10.59 8.421c-.116-.048-.347-.296-.47-.506-.245-.412-.51-1.267-.678-2.179-.1-.544-.143-2.014-.072-2.436.097-.566.375-.98.66-.98.096 0 .51.257.803.497.485.401.935 1.134 1.115 1.818.12.462.134 1.311.026 1.79-.168.755-.53 1.45-.963 1.845-.219.2-.264.217-.421.151" style="display:inline;fill:#bc1142;fill-opacity:1;stroke:none;stroke-width:1.4;stroke-linecap:square;stroke-miterlimit:4.7;stroke-dasharray:none;stroke-opacity:1" transform="translate(0 -40)"/></svg>