<svg xmlns="http://www.w3.org/2000/svg" width="80" height="60">
    <path d="M4.906 0C2.18 0 0 2.342 0 5.195v39.61C0 47.658 2.179 50 4.906 50h70.188C77.82 50 80 47.658 80 44.805V5.195C80 2.342 77.821 0 75.094 0Zm0 1h70.188C77.249 1 79 2.846 79 5.195v39.61C79 47.154 77.25 49 75.094 49H4.906C2.751 49 1 47.154 1 44.805V5.195C1 2.846 2.75 1 4.906 1m1.399 4.135a1.42 1.42 0 0 0-1.412 1.41v.045a1.42 1.42 0 0 0 1.412 1.412h17.39a1.42 1.42 0 0 0 1.412-1.412v-.045c0-.774-.639-1.41-1.412-1.41zm50 0a1.42 1.42 0 0 0-1.412 1.41v.045a1.42 1.42 0 0 0 1.412 1.412h17.39a1.42 1.42 0 0 0 1.412-1.412v-.045c0-.774-.639-1.41-1.412-1.41zm-50 1h17.39a.4.4 0 0 1 .412.41v.045a.403.403 0 0 1-.412.412H6.305a.403.403 0 0 1-.412-.412v-.045a.4.4 0 0 1 .412-.41m50 0h17.39a.4.4 0 0 1 .412.41v.045a.403.403 0 0 1-.412.412h-17.39a.403.403 0 0 1-.412-.412v-.045a.4.4 0 0 1 .412-.41m-50 3.095a1.42 1.42 0 0 0-1.412 1.413v.044c0 .774.639 1.41 1.412 1.41h17.39a1.42 1.42 0 0 0 1.412-1.41v-.044a1.42 1.42 0 0 0-1.412-1.413zm50 0a1.42 1.42 0 0 0-1.412 1.413v.044c0 .774.639 1.41 1.412 1.41h17.39a1.42 1.42 0 0 0 1.412-1.41v-.044a1.42 1.42 0 0 0-1.412-1.413zm-50 1h17.39c.236 0 .412.178.412.413v.044a.4.4 0 0 1-.412.41H6.305a.4.4 0 0 1-.412-.41v-.044c0-.235.176-.413.412-.413m50 0h17.39c.236 0 .412.178.412.413v.044a.4.4 0 0 1-.412.41h-17.39a.4.4 0 0 1-.412-.41v-.044c0-.235.176-.413.412-.413m-50 3.098a1.42 1.42 0 0 0-1.412 1.41v.045c0 .774.639 1.41 1.412 1.41h17.39a1.42 1.42 0 0 0 1.412-1.41v-.045a1.42 1.42 0 0 0-1.412-1.41zm50 0a1.42 1.42 0 0 0-1.412 1.41v.045c0 .774.639 1.41 1.412 1.41h17.39a1.42 1.42 0 0 0 1.412-1.41v-.045a1.42 1.42 0 0 0-1.412-1.41zm-50 1h17.39a.4.4 0 0 1 .412.41v.045a.4.4 0 0 1-.412.41H6.305a.4.4 0 0 1-.412-.41v-.045a.4.4 0 0 1 .412-.41m50 0h17.39a.4.4 0 0 1 .412.41v.045a.4.4 0 0 1-.412.41h-17.39a.4.4 0 0 1-.412-.41v-.045a.4.4 0 0 1 .412-.41m-50 3.096a1.42 1.42 0 0 0-1.412 1.41v.045c0 .774.639 1.41 1.412 1.41h17.39a1.42 1.42 0 0 0 1.412-1.41v-.045c0-.774-.639-1.41-1.412-1.41zm50 0a1.42 1.42 0 0 0-1.412 1.41v.045c0 .774.639 1.41 1.412 1.41h17.39a1.42 1.42 0 0 0 1.412-1.41v-.045c0-.774-.639-1.41-1.412-1.41zm-50 1h17.39a.4.4 0 0 1 .412.41v.045a.4.4 0 0 1-.412.41H6.305a.4.4 0 0 1-.412-.41v-.045a.4.4 0 0 1 .412-.41m50 0h17.39a.4.4 0 0 1 .412.41v.045a.4.4 0 0 1-.412.41h-17.39a.4.4 0 0 1-.412-.41v-.045a.4.4 0 0 1 .412-.41m-50 3.096a1.42 1.42 0 0 0-1.412 1.41v.045c0 .773.639 1.41 1.412 1.41h17.39a1.42 1.42 0 0 0 1.412-1.41v-.045c0-.774-.639-1.41-1.412-1.41zm50 0a1.42 1.42 0 0 0-1.412 1.41v.045c0 .773.639 1.41 1.412 1.41h17.39a1.42 1.42 0 0 0 1.412-1.41v-.045c0-.774-.639-1.41-1.412-1.41zm-50 1h17.39a.4.4 0 0 1 .412.41v.045a.4.4 0 0 1-.412.41H6.305a.4.4 0 0 1-.412-.41v-.045a.4.4 0 0 1 .412-.41m50 0h17.39a.4.4 0 0 1 .412.41v.045a.4.4 0 0 1-.412.41h-17.39a.4.4 0 0 1-.412-.41v-.045a.4.4 0 0 1 .412-.41m-50 3.095a1.42 1.42 0 0 0-1.412 1.41v.045c0 .774.639 1.41 1.412 1.41h17.39a1.42 1.42 0 0 0 1.412-1.41v-.045a1.42 1.42 0 0 0-1.412-1.41zm50 0a1.42 1.42 0 0 0-1.412 1.41v.045c0 .774.639 1.41 1.412 1.41h17.39a1.42 1.42 0 0 0 1.412-1.41v-.045a1.42 1.42 0 0 0-1.412-1.41zm-50 1h17.39a.4.4 0 0 1 .412.41v.045a.4.4 0 0 1-.412.41H6.305a.4.4 0 0 1-.412-.41v-.045a.4.4 0 0 1 .412-.41m50 0h17.39a.4.4 0 0 1 .412.41v.045a.4.4 0 0 1-.412.41h-17.39a.4.4 0 0 1-.412-.41v-.045a.4.4 0 0 1 .412-.41m-50 3.096a1.42 1.42 0 0 0-1.412 1.41v.045c0 .774.639 1.41 1.412 1.41h17.39a1.42 1.42 0 0 0 1.412-1.41v-.045c0-.774-.639-1.41-1.412-1.41zm50 0a1.42 1.42 0 0 0-1.412 1.41v.045c0 .774.639 1.41 1.412 1.41h17.39a1.42 1.42 0 0 0 1.412-1.41v-.045c0-.774-.639-1.41-1.412-1.41zm-50 1h17.39a.4.4 0 0 1 .412.41v.045a.4.4 0 0 1-.412.41H6.305a.4.4 0 0 1-.412-.41v-.045a.4.4 0 0 1 .412-.41m50 0h17.39a.4.4 0 0 1 .412.41v.045a.4.4 0 0 1-.412.41h-17.39a.4.4 0 0 1-.412-.41v-.045a.4.4 0 0 1 .412-.41m-50 3.096a1.42 1.42 0 0 0-1.412 1.41v.045a1.42 1.42 0 0 0 1.412 1.412h17.39a1.42 1.42 0 0 0 1.412-1.412v-.045c0-.774-.639-1.41-1.412-1.41zm50 0a1.42 1.42 0 0 0-1.412 1.41v.045a1.42 1.42 0 0 0 1.412 1.412h17.39a1.42 1.42 0 0 0 1.412-1.412v-.045c0-.774-.639-1.41-1.412-1.41zm-50 1h17.39a.4.4 0 0 1 .412.41v.045a.403.403 0 0 1-.412.412H6.305a.403.403 0 0 1-.412-.412v-.045a.4.4 0 0 1 .412-.41m50 0h17.39a.4.4 0 0 1 .412.41v.045a.403.403 0 0 1-.412.412h-17.39a.403.403 0 0 1-.412-.412v-.045a.4.4 0 0 1 .412-.41m-50 3.095a1.42 1.42 0 0 0-1.412 1.412v.045c0 .774.639 1.41 1.412 1.41h17.39a1.42 1.42 0 0 0 1.412-1.41v-.045a1.42 1.42 0 0 0-1.412-1.412zm50 0a1.42 1.42 0 0 0-1.412 1.412v.045c0 .774.639 1.41 1.412 1.41h17.39a1.42 1.42 0 0 0 1.412-1.41v-.045a1.42 1.42 0 0 0-1.412-1.412zm-50 1h17.39c.236 0 .412.177.412.412v.045a.4.4 0 0 1-.412.41H6.305a.4.4 0 0 1-.412-.41v-.045c0-.235.176-.412.412-.412m50 0h17.39c.236 0 .412.177.412.412v.045a.4.4 0 0 1-.412.41h-17.39a.4.4 0 0 1-.412-.41v-.045c0-.235.176-.412.412-.412M6.305 42a1.42 1.42 0 0 0-1.412 1.41v.045c0 .774.639 1.41 1.412 1.41h17.39a1.42 1.42 0 0 0 1.412-1.41v-.045A1.42 1.42 0 0 0 23.695 42Zm50 0a1.42 1.42 0 0 0-1.412 1.41v.045c0 .774.639 1.41 1.412 1.41h17.39a1.42 1.42 0 0 0 1.412-1.41v-.045A1.42 1.42 0 0 0 73.695 42Zm-50 1h17.39a.4.4 0 0 1 .412.41v.045a.4.4 0 0 1-.412.41H6.305a.4.4 0 0 1-.412-.41v-.045a.4.4 0 0 1 .412-.41m50 0h17.39a.4.4 0 0 1 .412.41v.045a.4.4 0 0 1-.412.41h-17.39a.4.4 0 0 1-.412-.41v-.045a.4.4 0 0 1 .412-.41" style="color:#000;fill:#000;stroke-linecap:square;stroke-miterlimit:4.7;-inkscape-stroke:none" transform="translate(0 5)"/>
    <path d="M49.72 22.174c-1.402-.041-2.603 1.347-4.032.683-2.623-.42-5.676 1.634-5.548 4.448-.165 1.662-2.046 2.406-2.324 4.032-.47 1.712.074 3.69 1.444 4.843.754 1.233.125 2.907 1.21 4.025.883 1.393 2.45 2.426 4.135 2.39 1.308.485 1.543 2.197 2.94 2.606 2.116 1.17 4.927.472 6.377-1.422.731-1.366 2.264-1.152 3.459-1.68 1.901-.949 3.23-3.11 2.92-5.256.2-1.486 1.783-2.509 1.59-4.101.111-1.577-.587-3.18-1.872-4.112-.956-.871-.277-2.3-1.083-3.29-.996-1.875-3.294-2.71-5.315-2.308-1.381.091-2.49-1.083-3.9-.858" style="display:inline;fill:#bc1142;stroke-width:1.4;stroke-linecap:square;stroke-miterlimit:4.7" transform="translate(-10)"/>
    <path d="M45.982 9.537c-2.362.128-5.02 1.44-5.421 3.828-.07 2.542 2.308 4.803 4.957 4.774 4.828-1.498 5.088-3.816 5.337-6.256-.111-2.307-2.93-1.851-4.873-2.346m-11.974.07c-1.943.495-4.762.04-4.873 2.346.249 2.44 2.327 5.54 4.748 6.211 2.649.03 5.617-2.186 5.547-4.728-.403-2.388-3.06-3.701-5.422-3.829" style="fill:#690;stroke-width:1.4;stroke-linecap:square;stroke-miterlimit:4.7" transform="translate(0 5)"/>
    <path d="m50.25 23.534-.244-.369c0-2.934-1.343-4.039-2.815-4.894.492-.125.98-.244 1.104-.856.856-.244.98-.612 1.1-.98.243-.124.855-.487.855-1.223.368-.244.612-.612.492-1.1.368-.492.488-.86.368-1.224.488-.611.244-.98.12-1.348.368-.736 0-1.467-.98-1.347-.363-.612-1.343-.488-1.467-.488-.12-.244-.368-.368-.98-.244-.612-.368-1.1-.368-1.587-.124-.612-.488-.98-.12-1.348 0-.736-.244-.856.124-1.224.244-.736-.12-.98.248-1.348.612h-.363c-1.104.611-1.716 2.084-1.96 2.695-.244-.736-.736-2.084-1.96-2.695h-.363c-.368-.364-.612-.732-1.348-.612-.368-.12-.488-.488-1.224-.244-.244-.12-.487-.244-.855-.244-.125 0-.244.124-.493.244-.487-.244-.975-.244-1.343.124-.612-.124-.855.12-.98.244-.124 0-1.1-.124-1.467.488-1.104-.12-1.468.611-1.104 1.347-.244.369-.364.612.124 1.348-.244.244-.124.732.368 1.1-.124.487 0 .855.487 1.224-.119.611.612.98.737 1.223.12.368.243.736 1.099.98.124.612.612.731 1.104.856-1.592.855-2.815 2.079-2.815 4.894l-.244.369c-1.716 1.099-3.308 4.526-.86 7.342.124.855.368 1.467.611 2.203.368 2.81 2.696 4.159 3.308 4.283.856.731 1.836 1.343 3.179 1.836 1.224 1.223 2.572 1.71 3.915 1.71 1.348 0 2.696-.487 3.92-1.71 1.343-.493 2.322-1.105 3.178-1.836.612-.124 2.94-1.472 3.303-4.283.249-.736.492-1.348.736-2.203 2.691-2.816 1.1-6.243-.736-7.342m-1.587-.493c-.124 1.224-5.999-4.034-5.019-4.158 2.815-.488 5.139 1.099 5.02 4.158M42.177 10.93c0 .243.12.368.12.487.367-.363.61-.731.979-1.1 0 .245-.12.369.124.613.244-.368.488-.612.98-.856-.248.368 0 .488.12.612.368-.244.612-.492 1.223-.736-.12.244-.368.368-.12.612.364-.244.613-.368 1.468-.612-.124.244-.492.368-.368.612.368-.12.856-.244 1.348-.368-.248.248-.492.368-.248.492.492-.124.98-.368 1.591-.124l-.368.368H50.5c-.249.368-.493.611-.612 1.099h.612c-.249.736-.737.86-.86 1.104q.184.18.735 0c-.243.488-.612.732-.98 1.1.125.124.244.124.612 0-.368.368-.731.611-1.1.98.12.124.369.124.613.124-.368.363-.98.612-1.468.855.12.244.364.12.488.12-.368.249-.98.492-1.468.612.12.124.244.248.488.248-.612.364-1.468.12-1.711.364 0 .124.243.248.368.368-.98 0-3.552 0-4.04-1.955.98-1.105 2.692-2.328 5.75-3.92-2.322.86-4.526 1.836-6.242 3.308-1.955-.98-.612-3.427.493-4.407m-2.204 7.098c1.467 0 3.303 1.1 3.303 2.204 0 .975-1.343 1.71-3.303 1.71s-3.303-.98-3.303-1.835 1.592-2.079 3.303-2.079m-7.466-.736c.248 0 .368-.12.492-.244-.612-.244-1.224-.368-1.592-.736.244 0 .368 0 .612-.12-.487-.243-.98-.492-1.467-.855.243 0 .487 0 .611-.124-.368-.244-.736-.612-1.104-.856h.612c-.363-.492-.731-.736-.975-1.224a.79.79 0 0 0 .731 0c-.12-.244-.731-.368-.98-.98h.612c-.12-.487-.363-.855-.487-1.1h1.467l-.368-.491c.612-.12 1.224 0 1.592.124.244-.124 0-.368-.244-.492.488.124.98.248 1.348.368.244-.244-.124-.368-.368-.612.856.124 1.1.368 1.467.612.244-.244 0-.368-.124-.612.612.244.86.492 1.224.736.124-.124.248-.244.124-.612.244.244.612.488.856.856.244-.125.124-.368.124-.612.368.368.731.736.98 1.1.12 0 .12-.245.12-.488.98.98 2.447 3.427.367 4.407-1.71-1.472-3.914-2.572-6.242-3.308 3.059 1.592 4.775 2.815 5.755 3.92-.492 1.955-3.06 2.079-4.04 1.955q.368-.181.369-.368c-.124-.12-.86 0-1.472-.244m3.427 1.467c.98.125-4.895 5.387-5.014 4.164-.125-2.94 2.198-4.651 5.014-4.164m-6.238 11.625c-1.472-1.223-1.96-4.526.731-6.118 1.592-.488.612 6.61-.731 6.118m5.626 6.119c-.856.492-2.815.248-4.159-1.712-.98-1.71-.855-3.427-.124-3.914.98-.612 2.572.243 3.671 1.591.98 1.1 1.468 3.303.612 4.035M33.73 29.04c-1.467-.98-1.71-3.183-.612-5.019 1.224-1.711 3.308-2.447 4.776-1.467s1.71 3.183.612 5.019c-1.105 1.835-3.303 2.447-4.776 1.467m6.243 10.889c-1.836.124-3.547-1.467-3.547-1.955 0-.736 2.199-1.348 3.671-1.348 1.468-.124 3.423.488 3.423 1.224 0 .487-1.836 2.079-3.547 2.079m3.671-7.83c0 1.836-1.592 3.303-3.547 3.303-1.96 0-3.67-1.467-3.67-3.303s1.586-3.303 3.546-3.303c2.08 0 3.671 1.468 3.671 3.303m-2.204-4.65c-1.223-1.712-.855-4.04.612-5.02 1.468-.975 3.671-.363 4.776 1.473 1.099 1.835.855 4.034-.612 5.014-1.473.855-3.671.244-4.776-1.468m7.343 7.341c-1.592 2.204-3.671 2.204-4.403 1.592-.86-.736-.248-3.183.975-4.526 1.224-1.473 2.696-2.448 3.552-1.716.612.855.98 3.183-.124 4.65m1.104-4.526c-1.348.612-2.448-6.487-.736-6.119 2.69 1.468 2.203 4.895.736 6.119" style="display:inline;stroke-width:1" transform="translate(0 5)"/>
</svg>
