<?xml version="1.0" encoding="UTF-8" standalone="no"?>
<!-- Uploaded to: SVG Repo, www.svgrepo.com, Generator: SVG Repo Mixer Tools -->

<svg
   fill="#000000"
   width="100"
   height="100"
   viewBox="0 0 100 100"
   version="1.1"
   id="svg1"
   sodipodi:docname="raspberry_pi_color.svg"
   inkscape:version="1.3.2 (091e20e, 2023-11-25)"
   xmlns:inkscape="http://www.inkscape.org/namespaces/inkscape"
   xmlns:sodipodi="http://sodipodi.sourceforge.net/DTD/sodipodi-0.dtd"
   xmlns="http://www.w3.org/2000/svg"
   xmlns:svg="http://www.w3.org/2000/svg">
  <defs
     id="defs1">
    <inkscape:perspective
       sodipodi:type="inkscape:persp3d"
       inkscape:vp_x="-206.60943 : -33.959339 : 0"
       inkscape:vp_y="0 : 1000 : 0"
       inkscape:vp_z="70.345034 : 13.82783 : 0"
       inkscape:persp3d-origin="49.668926 : 100.87238 : 1"
       id="perspective1" />
  </defs>
  <sodipodi:namedview
     id="namedview1"
     pagecolor="#ffffff"
     bordercolor="#000000"
     borderopacity="0.25"
     inkscape:showpageshadow="2"
     inkscape:pageopacity="0.0"
     inkscape:pagecheckerboard="0"
     inkscape:deskcolor="#d1d1d1"
     inkscape:zoom="3.5672591"
     inkscape:cx="52.4212"
     inkscape:cy="67.979364"
     inkscape:window-width="1536"
     inkscape:window-height="818"
     inkscape:window-x="87"
     inkscape:window-y="62"
     inkscape:window-maximized="0"
     inkscape:current-layer="svg1"
     showgrid="false" />
  <rect
     style="fill:none;stroke:#000000;stroke-width:1;stroke-linecap:square;stroke-miterlimit:4.7"
     id="rect1"
     width="49"
     height="79"
     x="-96.5"
     y="10.5"
     ry="4.4069009"
     rx="4.6954951"
     transform="rotate(-90)"
     inkscape:label="box" />
  <g
     id="g39"
     transform="matrix(0.63485775,0,0,1.0240062,6.8027715,1.0397847)"
     style="stroke-width:1.24026"
     inkscape:label="grid1">
    <rect
       style="fill:none;stroke:#000000;stroke-width:1.24025;stroke-linecap:square;stroke-miterlimit:4.7"
       id="rect30"
       width="30.26396"
       height="1.8215473"
       x="13.531494"
       y="54.386196"
       ry="0.889422"
       rx="1.4346106" />
    <rect
       style="fill:none;stroke:#000000;stroke-width:1.24025;stroke-linecap:square;stroke-miterlimit:4.7"
       id="rect31"
       width="30.26396"
       height="1.8215473"
       x="13.531494"
       y="58.3862"
       ry="0.889422"
       rx="1.4346106" />
    <rect
       style="fill:none;stroke:#000000;stroke-width:1.24025;stroke-linecap:square;stroke-miterlimit:4.7"
       id="rect32"
       width="30.26396"
       height="1.8215473"
       x="13.531494"
       y="62.3862"
       ry="0.889422"
       rx="1.4346106" />
    <rect
       style="fill:none;stroke:#000000;stroke-width:1.24025;stroke-linecap:square;stroke-miterlimit:4.7"
       id="rect33"
       width="30.26396"
       height="1.8215473"
       x="13.531494"
       y="66.3862"
       ry="0.889422"
       rx="1.4346106" />
    <rect
       style="fill:none;stroke:#000000;stroke-width:1.24025;stroke-linecap:square;stroke-miterlimit:4.7"
       id="rect34"
       width="30.26396"
       height="1.8215473"
       x="13.531494"
       y="70.3862"
       ry="0.889422"
       rx="1.4346106" />
    <rect
       style="fill:none;stroke:#000000;stroke-width:1.24025;stroke-linecap:square;stroke-miterlimit:4.7"
       id="rect35"
       width="30.26396"
       height="1.8215473"
       x="13.531494"
       y="74.3862"
       ry="0.889422"
       rx="1.4346106" />
    <rect
       style="fill:none;stroke:#000000;stroke-width:1.24025;stroke-linecap:square;stroke-miterlimit:4.7"
       id="rect36"
       width="30.26396"
       height="1.8215473"
       x="13.531494"
       y="78.3862"
       ry="0.889422"
       rx="1.4346106" />
    <rect
       style="fill:none;stroke:#000000;stroke-width:1.24025;stroke-linecap:square;stroke-miterlimit:4.7"
       id="rect37"
       width="30.26396"
       height="1.8215473"
       x="13.531494"
       y="82.3862"
       ry="0.889422"
       rx="1.4346106" />
    <rect
       style="fill:none;stroke:#000000;stroke-width:1.24025;stroke-linecap:square;stroke-miterlimit:4.7"
       id="rect38"
       width="30.26396"
       height="1.8215473"
       x="13.531494"
       y="86.3862"
       ry="0.889422"
       rx="1.4346106" />
    <rect
       style="fill:none;stroke:#000000;stroke-width:1.24025;stroke-linecap:square;stroke-miterlimit:4.7"
       id="rect39"
       width="30.26396"
       height="1.8215473"
       x="13.531494"
       y="50.3862"
       ry="0.889422"
       rx="1.4346106" />
  </g>
  <g
     id="g97"
     transform="matrix(0.63485775,0,0,1.0240062,56.802772,1.0397847)"
     style="stroke-width:1.24026"
     inkscape:label="grid2">
    <rect
       style="fill:none;stroke:#000000;stroke-width:1.24025;stroke-linecap:square;stroke-miterlimit:4.7"
       id="rect88"
       width="30.26396"
       height="1.8215473"
       x="13.531494"
       y="54.386196"
       ry="0.889422"
       rx="1.4346106" />
    <rect
       style="fill:none;stroke:#000000;stroke-width:1.24025;stroke-linecap:square;stroke-miterlimit:4.7"
       id="rect89"
       width="30.26396"
       height="1.8215473"
       x="13.531494"
       y="58.3862"
       ry="0.889422"
       rx="1.4346106" />
    <rect
       style="fill:none;stroke:#000000;stroke-width:1.24025;stroke-linecap:square;stroke-miterlimit:4.7"
       id="rect90"
       width="30.26396"
       height="1.8215473"
       x="13.531494"
       y="62.3862"
       ry="0.889422"
       rx="1.4346106" />
    <rect
       style="fill:none;stroke:#000000;stroke-width:1.24025;stroke-linecap:square;stroke-miterlimit:4.7"
       id="rect91"
       width="30.26396"
       height="1.8215473"
       x="13.531494"
       y="66.3862"
       ry="0.889422"
       rx="1.4346106" />
    <rect
       style="fill:none;stroke:#000000;stroke-width:1.24025;stroke-linecap:square;stroke-miterlimit:4.7"
       id="rect92"
       width="30.26396"
       height="1.8215473"
       x="13.531494"
       y="70.3862"
       ry="0.889422"
       rx="1.4346106" />
    <rect
       style="fill:none;stroke:#000000;stroke-width:1.24025;stroke-linecap:square;stroke-miterlimit:4.7"
       id="rect93"
       width="30.26396"
       height="1.8215473"
       x="13.531494"
       y="74.3862"
       ry="0.889422"
       rx="1.4346106" />
    <rect
       style="fill:none;stroke:#000000;stroke-width:1.24025;stroke-linecap:square;stroke-miterlimit:4.7"
       id="rect94"
       width="30.26396"
       height="1.8215473"
       x="13.531494"
       y="78.3862"
       ry="0.889422"
       rx="1.4346106" />
    <rect
       style="fill:none;stroke:#000000;stroke-width:1.24025;stroke-linecap:square;stroke-miterlimit:4.7"
       id="rect95"
       width="30.26396"
       height="1.8215473"
       x="13.531494"
       y="82.3862"
       ry="0.889422"
       rx="1.4346106" />
    <rect
       style="fill:none;stroke:#000000;stroke-width:1.24025;stroke-linecap:square;stroke-miterlimit:4.7"
       id="rect96"
       width="30.26396"
       height="1.8215473"
       x="13.531494"
       y="86.3862"
       ry="0.889422"
       rx="1.4346106" />
    <rect
       style="fill:none;stroke:#000000;stroke-width:1.24025;stroke-linecap:square;stroke-miterlimit:4.7"
       id="rect97"
       width="30.26396"
       height="1.8215473"
       x="13.531494"
       y="50.3862"
       ry="0.889422"
       rx="1.4346106" />
  </g>
  <g
     id="g1"
     inkscape:label="logo"
     transform="translate(0,2)">
    <path
       d="m 60.250026,68.533532 -0.243781,-0.36806 c 0,-2.934927 -1.343183,-4.039109 -2.815426,-4.894732 0.49234,-0.124279 0.979902,-0.243781 1.104181,-0.855622 0.855623,-0.24378 0.979904,-0.611841 1.099404,-0.979902 0.24378,-0.12428 0.855622,-0.48756 0.855622,-1.223683 0.368061,-0.243781 0.611842,-0.611841 0.49234,-1.099402 0.368062,-0.492341 0.487562,-0.860401 0.368062,-1.223682 0.487561,-0.611842 0.24378,-0.979904 0.119505,-1.347964 0.368061,-0.736121 0,-1.467464 -0.979902,-1.347963 -0.363286,-0.611841 -1.343189,-0.487562 -1.467469,-0.487562 -0.119505,-0.24378 -0.36806,-0.368059 -0.979902,-0.24378 -0.611841,-0.36806 -1.099403,-0.36806 -1.586963,-0.124279 -0.611841,-0.487562 -0.979903,-0.119506 -1.347964,0 -0.736121,-0.243781 -0.855622,0.124279 -1.223682,0.24378 -0.736121,-0.119505 -0.979902,0.248561 -1.347963,0.611841 h -0.363281 c -1.104183,0.611842 -1.716024,2.084085 -1.959805,2.695927 -0.243781,-0.736123 -0.736121,-2.084085 -1.959804,-2.695927 h -0.36328 C 47.281856,54.829242 47.038076,54.46118 46.301954,54.580681 45.933893,54.461176 45.814393,54.09312 45.078271,54.336901 44.83449,54.217395 44.59071,54.09312 44.222648,54.09312 c -0.124279,0 -0.243779,0.12428 -0.49234,0.243781 -0.487561,-0.243781 -0.975122,-0.243781 -1.343184,0.124279 -0.611841,-0.124279 -0.85562,0.119505 -0.979901,0.24378 -0.12428,0 -1.099403,-0.124279 -1.467464,0.487562 -1.104181,-0.119505 -1.467463,0.611842 -1.104181,1.347963 -0.243781,0.36806 -0.363282,0.611841 0.124279,1.347964 -0.243781,0.243779 -0.124279,0.731341 0.368061,1.099401 -0.124281,0.487562 0,0.855623 0.487561,1.223683 -0.119504,0.611841 0.611842,0.979902 0.736121,1.223683 0.119505,0.368061 0.243781,0.736122 1.099403,0.979902 0.12428,0.611841 0.611842,0.731343 1.104183,0.855622 -1.591744,0.855623 -2.815427,2.079305 -2.815427,4.894732 l -0.24378,0.36806 c -1.716024,1.099403 -3.307767,4.52667 -0.860401,7.342097 0.124279,0.855622 0.368059,1.467463 0.61184,2.203585 0.368061,2.810647 2.695927,4.158609 3.307768,4.28289 0.855621,0.731341 1.835524,1.343183 3.178707,1.835524 1.223683,1.223684 2.571645,1.711244 3.914829,1.711244 1.347963,0 2.695926,-0.48756 3.919609,-1.711244 1.343183,-0.492341 2.323085,-1.104183 3.178707,-1.835524 0.611841,-0.124281 2.939707,-1.472243 3.302988,-4.28289 0.24856,-0.736122 0.49234,-1.347963 0.736121,-2.203585 2.691146,-2.815427 1.099403,-6.242694 -0.736121,-7.342097 z m -1.586964,-0.49234 c -0.124281,1.223682 -5.998913,-4.034329 -5.019011,-4.15861 2.815425,-0.487561 5.138511,1.099403 5.019011,4.15861 z M 52.176586,55.928644 c 0,0.243781 0.119506,0.36806 0.119506,0.487561 0.36806,-0.363281 0.611841,-0.731342 0.979902,-1.099403 0,0.243781 -0.119505,0.368061 0.124279,0.611842 0.243778,-0.368061 0.487558,-0.611842 0.979899,-0.855623 -0.24856,0.368062 0,0.487562 0.119506,0.611842 0.36806,-0.24378 0.611841,-0.492341 1.223682,-0.736122 -0.119504,0.243781 -0.36806,0.368061 -0.119504,0.611842 0.36328,-0.243781 0.611841,-0.368061 1.467462,-0.611842 -0.12428,0.243781 -0.49234,0.368061 -0.368061,0.611842 0.368061,-0.119505 0.855622,-0.243781 1.347964,-0.368061 -0.248561,0.248561 -0.492342,0.368061 -0.248561,0.492341 0.49234,-0.12428 0.979902,-0.368061 1.591744,-0.12428 l -0.368061,0.368061 c 0,0 0.860402,0 1.472243,0 -0.24856,0.36806 -0.492341,0.611841 -0.611841,1.099403 0,0 0.363281,0 0.611841,0 -0.24856,0.736121 -0.736121,0.860402 -0.860402,1.104181 0.124281,0.119505 0.368061,0.119505 0.736122,0 -0.243781,0.487562 -0.611841,0.731343 -0.979902,1.099403 0.12428,0.12428 0.24378,0.12428 0.611841,0 -0.368061,0.368061 -0.731341,0.611842 -1.099403,0.979902 0.119505,0.124281 0.368062,0.124281 0.611842,0.124281 -0.368061,0.363281 -0.979903,0.611842 -1.467463,0.855621 0.119505,0.243781 0.363281,0.119505 0.48756,0.119505 -0.36806,0.248561 -0.979902,0.49234 -1.467463,0.611842 0.119504,0.124279 0.243781,0.24856 0.487561,0.24856 -0.611841,0.363281 -1.467463,0.119505 -1.711244,0.363281 0,0.124279 0.243781,0.248561 0.368062,0.36806 -0.979903,0 -3.551548,0 -4.039111,-1.955023 0.979904,-1.104183 2.691147,-2.327867 5.750354,-3.91961 -2.323084,0.860402 -4.52667,1.835524 -6.242694,3.307768 -1.955025,-0.979903 -0.611841,-3.427269 0.49234,-4.407171 z m -2.203584,7.098315 c 1.467463,0 3.302988,1.099404 3.302988,2.203586 0,0.975123 -1.343183,1.711243 -3.302988,1.711243 -1.959804,0 -3.302988,-0.979901 -3.302988,-1.835524 0,-0.855622 1.591745,-2.079305 3.302988,-2.079305 z m -7.466376,-0.73612 c 0.24856,0 0.36806,-0.119506 0.49234,-0.243781 -0.611842,-0.243781 -1.223683,-0.368061 -1.591743,-0.736122 0.24378,0 0.36806,0 0.611841,-0.119505 -0.48756,-0.243779 -0.979902,-0.49234 -1.467464,-0.85562 0.243781,0 0.487562,0 0.611842,-0.124281 -0.368061,-0.243781 -0.736121,-0.611842 -1.104182,-0.855623 0.368061,0 0.49234,0 0.611842,0 -0.363282,-0.49234 -0.731343,-0.73612 -0.975123,-1.223682 0.24378,0.119505 0.487561,0.119505 0.731342,0 -0.119506,-0.24378 -0.731342,-0.368061 -0.979903,-0.979903 0.248561,0 0.611842,0 0.611842,0 -0.119505,-0.48756 -0.363281,-0.855622 -0.487562,-1.099401 0.611842,0 1.467464,0 1.467464,0 l -0.36806,-0.492342 c 0.611841,-0.119505 1.223682,0 1.591743,0.12428 0.243781,-0.12428 0,-0.368061 -0.243781,-0.49234 0.487562,0.124279 0.979902,0.24856 1.347964,0.36806 0.243779,-0.243781 -0.124281,-0.36806 -0.368062,-0.611841 0.855622,0.124279 1.099403,0.36806 1.467463,0.611841 0.243781,-0.243781 0,-0.36806 -0.124279,-0.611841 0.611841,0.243781 0.860402,0.492341 1.223682,0.736121 0.12428,-0.12428 0.248561,-0.24378 0.12428,-0.611842 0.243781,0.243781 0.611842,0.487562 0.855623,0.855623 0.243781,-0.12428 0.124279,-0.368061 0.124279,-0.611842 0.368062,0.368061 0.731343,0.736123 0.979904,1.099403 0.119504,0 0.119504,-0.24378 0.119504,-0.487561 0.979897,0.979902 2.447361,3.427267 0.368056,4.407171 -1.711244,-1.472244 -3.91483,-2.571647 -6.242694,-3.307768 3.059207,1.591744 4.77523,2.815426 5.755134,3.919609 -0.492342,1.955024 -3.059208,2.079304 -4.039111,1.955024 0.243781,-0.119505 0.368062,-0.243781 0.368062,-0.368061 -0.124281,-0.119504 -0.860402,0 -1.472243,-0.24378 z m 3.427267,1.467463 c 0.979902,0.12428 -4.894731,5.387071 -5.014231,4.163388 -0.124281,-2.939705 2.198805,-4.65095 5.014231,-4.163388 z m -6.237914,11.624986 c -1.472243,-1.223682 -1.959805,-4.52667 0.731342,-6.118414 1.591743,-0.487561 0.611841,6.610755 -0.731342,6.118414 z m 5.626072,6.118414 c -0.855622,0.49234 -2.815425,0.248561 -4.158609,-1.711244 -0.979902,-1.711244 -0.855622,-3.427267 -0.12428,-3.914829 0.979902,-0.611842 2.571645,0.243781 3.671048,1.591744 0.979902,1.099402 1.467464,3.302987 0.611841,4.034329 z m -1.591743,-7.461598 c -1.467463,-0.979902 -1.711244,-3.183486 -0.611841,-5.019011 1.223683,-1.711244 3.307767,-2.447365 4.77523,-1.467463 1.467464,0.979902 1.711244,3.183488 0.611841,5.019012 -1.104181,1.835524 -3.302986,2.447366 -4.77523,1.467462 z m 6.242694,10.888866 c -1.835524,0.12428 -3.546768,-1.467464 -3.546768,-1.955024 0,-0.736123 2.198806,-1.347964 3.671049,-1.347964 1.467463,-0.12428 3.422487,0.487562 3.422487,1.223683 0,0.487561 -1.835524,2.079305 -3.546768,2.079305 z m 3.671049,-7.829658 c 0,1.835524 -1.591744,3.302987 -3.546768,3.302987 -1.959805,0 -3.671049,-1.467463 -3.671049,-3.302987 0,-1.835525 1.586964,-3.302987 3.546768,-3.302987 2.079305,0 3.671049,1.467462 3.671049,3.302987 z m -2.203586,-4.650951 c -1.223682,-1.711243 -0.855622,-4.039108 0.611842,-5.019011 1.467463,-0.975122 3.671048,-0.36328 4.775231,1.472244 1.099402,1.835524 0.855621,4.034329 -0.611841,5.014231 -1.472243,0.855622 -3.671049,0.243781 -4.775232,-1.467464 z m 7.342097,7.342097 c -1.591743,2.203584 -3.671048,2.203584 -4.40239,1.591743 -0.860402,-0.736121 -0.24856,-3.183486 0.975123,-4.526669 1.223683,-1.472244 2.695926,-2.447366 3.551547,-1.716025 0.611842,0.855623 0.979903,3.183487 -0.12428,4.650951 z m 1.104183,-4.526671 c -1.347964,0.611842 -2.447365,-6.486474 -0.736122,-6.118414 2.691146,1.467464 2.203585,4.894731 0.736122,6.118414 z"
       id="path1"
       style="display:inline;stroke-width:1"
       inkscape:label="berry" />
    <path
       id="path102"
       style="fill:#669900;fill-opacity:1;stroke:none;stroke-width:1.4;stroke-linecap:square;stroke-miterlimit:4.7;stroke-dasharray:none;stroke-opacity:1"
       d="M 54.932555,62.8184 C 53.627414,62.654069 52.76859,62.16016 52.363793,61.341108 l -0.175578,-0.355257 0.358476,-0.363679 c 0.927849,-0.941318 2.534652,-2.033281 4.726894,-3.212338 0.385028,-0.20708 0.663404,-0.376729 0.618613,-0.376997 -0.151278,-9.06e-4 -2.036277,0.777682 -2.924673,1.208018 -1.279694,0.61988 -2.297765,1.241266 -3.01787,1.841974 -0.293311,0.244679 -0.384907,0.226718 -0.760817,-0.149191 -0.23888,-0.238881 -0.29508,-0.330651 -0.386195,-0.630625 -0.08486,-0.279395 -0.100511,-0.416916 -0.07665,-0.673649 0.06933,-0.745971 0.526521,-1.675802 1.153741,-2.346476 l 0.269685,-0.288368 0.06206,0.229288 c 0.03413,0.126108 0.07384,0.228199 0.08825,0.226868 0.0144,-0.0013 0.221689,-0.230131 0.460631,-0.508445 l 0.434441,-0.506024 0.02727,0.158479 c 0.015,0.08716 0.05494,0.209526 0.08876,0.271918 0.0613,0.113092 0.06223,0.112608 0.303203,-0.157754 0.132942,-0.149156 0.339676,-0.338595 0.459411,-0.420975 l 0.2177,-0.149781 -0.03165,0.144102 c -0.02501,0.113866 -0.0048,0.176017 0.09633,0.296202 l 0.127984,0.152099 0.296785,-0.210229 c 0.408021,-0.289024 0.753625,-0.484863 0.790528,-0.44796 0.01694,0.01694 0.0051,0.05651 -0.02632,0.08793 -0.07882,0.07882 -0.07172,0.303501 0.01178,0.372803 0.05466,0.04537 0.10741,0.0317 0.25524,-0.06613 0.160112,-0.105957 0.667208,-0.31285 1.075647,-0.43886 0.111038,-0.03426 0.106251,-0.02132 -0.06034,0.163075 -0.174377,0.193015 -0.222184,0.313634 -0.143565,0.362223 0.02056,0.01271 0.263286,-0.04032 0.539394,-0.117829 0.636898,-0.178797 0.660736,-0.178587 0.525292,0.0046 -0.09394,0.127067 -0.09872,0.154389 -0.03765,0.215245 0.06099,0.06077 0.122549,0.05413 0.480259,-0.05182 0.306204,-0.09069 0.492317,-0.117384 0.733544,-0.105204 0.177782,0.009 0.339212,0.03229 0.358734,0.05182 0.01952,0.01952 -0.03362,0.106801 -0.118086,0.193951 -0.08447,0.08715 -0.153582,0.173133 -0.153582,0.191071 0,0.01794 0.316578,0.03863 0.703508,0.04597 l 0.703509,0.01336 -0.154015,0.212498 c -0.162776,0.224587 -0.382857,0.663424 -0.38365,0.764992 -3.38e-4,0.04162 0.08938,0.06034 0.289155,0.06034 0.159295,0 0.289627,0.01173 0.289627,0.02606 0,0.115471 -0.2606,0.482484 -0.513629,0.723366 -0.168839,0.160733 -0.30698,0.318117 -0.30698,0.349742 0,0.08291 0.214172,0.12446 0.46459,0.09014 l 0.216388,-0.02966 -0.159472,0.22275 c -0.08771,0.122513 -0.295235,0.34213 -0.461167,0.488038 -0.165933,0.145908 -0.301695,0.294805 -0.301695,0.33088 0,0.08404 0.202744,0.135335 0.374101,0.09466 l 0.132746,-0.03151 -0.130076,0.110754 c -0.821414,0.6994 -0.906024,0.784833 -0.841336,0.84952 0.03581,0.03581 0.155684,0.07726 0.266381,0.09211 0.189268,0.02539 0.19664,0.03211 0.123637,0.112778 -0.0427,0.04718 -0.347241,0.223433 -0.676764,0.391674 -0.329524,0.168241 -0.599392,0.334093 -0.599707,0.368561 -3.38e-4,0.03447 0.06563,0.09051 0.146555,0.124533 l 0.147129,0.06186 -0.328146,0.148029 c -0.18048,0.08141 -0.476124,0.195943 -0.656988,0.254506 -0.316208,0.102388 -0.325701,0.109952 -0.247057,0.196851 0.04498,0.0497 0.122364,0.103251 0.171961,0.118993 0.269345,0.08549 -0.05963,0.198302 -0.707232,0.242532 -0.498181,0.03402 -0.747268,0.09714 -0.747268,0.18934 0,0.0354 0.06683,0.120608 0.148517,0.189341 l 0.148517,0.124969 -0.426076,-0.0061 c -0.234342,-0.0034 -0.57813,-0.02525 -0.763974,-0.04865 z M 43.851438,62.7963 c 0.08262,-0.06617 0.150223,-0.163614 0.150223,-0.216552 0,-0.08259 -0.08588,-0.104586 -0.605054,-0.154972 -0.33278,-0.0323 -0.619225,-0.07289 -0.636545,-0.09021 -0.01732,-0.01732 0.03547,-0.08416 0.117312,-0.148538 0.08184,-0.06438 0.128612,-0.135552 0.103936,-0.158169 -0.02468,-0.02262 -0.266104,-0.120459 -0.536505,-0.217426 -0.270401,-0.09697 -0.602257,-0.240614 -0.737458,-0.319213 l -0.245819,-0.142908 0.233248,-0.0325 c 0.408492,-0.05691 0.389668,-0.126192 -0.106124,-0.390585 -0.250186,-0.133417 -0.565502,-0.314183 -0.700703,-0.401702 -0.228768,-0.148087 -0.236346,-0.160258 -0.109253,-0.175468 0.255117,-0.03053 0.382386,-0.06966 0.382386,-0.117554 0,-0.02628 -0.209222,-0.216318 -0.464937,-0.422315 l -0.464937,-0.37454 0.219118,-0.0168 c 0.125134,-0.0096 0.218388,-0.04474 0.217418,-0.08194 -9.35e-4,-0.03583 -0.19759,-0.285702 -0.437012,-0.555275 -0.239422,-0.269574 -0.435313,-0.507702 -0.435313,-0.529175 0,-0.02147 0.07989,-0.02631 0.177536,-0.01075 0.184917,0.02947 0.477982,-0.05268 0.477982,-0.133984 0,-0.0258 -0.135408,-0.140158 -0.300906,-0.254141 -0.304231,-0.209532 -0.627745,-0.53535 -0.627745,-0.632216 0,-0.029 0.125575,-0.05273 0.279055,-0.05273 0.27669,0 0.278751,-0.0013 0.243231,-0.150223 -0.0197,-0.08262 -0.119484,-0.328442 -0.221736,-0.546265 l -0.185912,-0.396043 h 0.707453 c 0.389098,0 0.707452,-0.0149 0.707452,-0.03311 0,-0.01821 -0.07358,-0.126006 -0.163502,-0.239547 l -0.163502,-0.206438 0.122532,-0.03284 c 0.206556,-0.05536 0.595389,-0.03641 0.996536,0.04856 0.538924,0.114153 0.538658,0.114211 0.502241,-0.110202 -0.01707,-0.105156 -0.01307,-0.191193 0.0089,-0.191193 0.02194,0 0.254869,0.06232 0.517613,0.138495 0.262744,0.07617 0.501355,0.123885 0.530247,0.106029 0.10635,-0.06573 0.05171,-0.290653 -0.09769,-0.402117 -0.360331,-0.268836 0.471645,-0.01939 0.885871,0.265601 0.203973,0.140337 0.26834,0.161314 0.332246,0.108276 0.102652,-0.08519 0.100597,-0.216142 -0.0058,-0.368009 -0.04677,-0.06677 -0.06737,-0.121407 -0.04577,-0.121407 0.05776,0 0.502828,0.266328 0.792849,0.474441 0.357031,0.256199 0.420758,0.237491 0.482378,-0.141604 l 0.03086,-0.189826 0.395003,0.389555 c 0.352467,0.347606 0.403894,0.380662 0.477579,0.306978 0.04542,-0.04542 0.08301,-0.160712 0.08355,-0.256211 l 9.71e-4,-0.173635 0.342707,0.355073 c 0.188489,0.19529 0.393281,0.426421 0.455094,0.513624 0.139125,0.196274 0.238161,0.148198 0.238161,-0.115616 0,-0.194928 8.63e-4,-0.195653 0.112612,-0.09452 0.164951,0.149279 0.613295,0.770565 0.805927,1.116803 0.460667,0.828005 0.581888,1.717311 0.309872,2.273291 -0.135401,0.276752 -0.434187,0.575874 -0.727276,0.728095 -0.113723,0.05906 -0.156756,0.04236 -0.409699,-0.159051 -1.499657,-1.194121 -3.476052,-2.238887 -5.521496,-2.918787 -0.237454,-0.07893 -0.44168,-0.13356 -0.453837,-0.121404 -0.01216,0.01216 0.329615,0.212377 0.759493,0.444934 2.179706,1.179185 3.708762,2.222751 4.626807,3.157752 l 0.349116,0.355563 -0.09223,0.230504 c -0.410057,1.024833 -1.490669,1.604913 -3.11882,1.674204 l -0.710145,0.03022 z"
       inkscape:label="leafs" />
    <path
       id="path109"
       style="display:inline;fill:#bc1142;fill-opacity:1;stroke:none;stroke-width:1.4;stroke-linecap:square;stroke-miterlimit:4.7;stroke-dasharray:none;stroke-opacity:1"
       d="m 54.003761,74.1925 c -1.490922,-0.314526 -2.795732,-1.615414 -3.166723,-3.157205 -0.129073,-0.536411 -0.128155,-1.268368 0.0022,-1.765711 0.375366,-1.431965 1.571472,-2.352951 2.940294,-2.263989 1.695592,0.1102 3.073083,1.369281 3.585904,3.277658 0.127577,0.474756 0.139733,1.411466 0.02392,1.843262 -0.224982,0.838829 -0.761648,1.560099 -1.380981,1.856018 -0.615397,0.294039 -1.277422,0.36338 -2.00463,0.209967 z m 3.948853,-6.161482 c -1.318686,-0.66425 -4.169478,-3.246205 -4.378579,-3.965666 -0.04418,-0.152008 0.123861,-0.198287 0.824723,-0.227134 2.40937,-0.09917 4.077946,1.345813 4.22737,3.660883 0.03883,0.601599 0.01462,0.682855 -0.203378,0.682675 -0.10191,-8.3e-5 -0.292072,-0.06106 -0.470136,-0.150758 z M 54.96121,81.626914 c -0.717173,-0.187059 -0.9944,-0.663177 -0.938148,-1.611203 0.05469,-0.921657 0.484537,-2.016264 1.125751,-2.866714 0.333087,-0.441777 1.418112,-1.497394 1.791055,-1.742511 0.523977,-0.344384 0.834366,-0.459025 1.242952,-0.459079 0.488588,-6.4e-5 0.660994,0.0983 0.859482,0.490354 0.08341,0.164755 0.206026,0.503662 0.272477,0.753125 0.107029,0.401797 0.120923,0.539957 0.121722,1.210382 7.62e-4,0.638632 -0.0148,0.814112 -0.09964,1.123752 -0.138691,0.506147 -0.355622,0.94266 -0.685529,1.379432 -0.701568,0.928823 -1.600853,1.542904 -2.542076,1.735872 -0.448238,0.0919 -0.758184,0.08828 -1.148043,-0.01341 z m -5.788869,3.225749 c -0.200459,-0.03793 -0.533776,-0.13694 -0.740705,-0.220026 -1.012374,-0.406489 -2.065497,-1.345188 -1.963791,-1.75042 0.04849,-0.193185 0.442905,-0.503629 0.863607,-0.679738 0.890391,-0.372725 1.804406,-0.538877 3.00804,-0.546808 0.704097,-0.0046 0.922724,0.01066 1.284287,0.08987 0.923426,0.202313 1.621216,0.550996 1.802767,0.900837 0.08683,0.167316 0.08703,0.177655 0.007,0.355116 -0.182568,0.404864 -1.140175,1.177745 -1.868283,1.507885 -0.784897,0.355889 -1.661583,0.481655 -2.392932,0.34328 z m 0.333779,-4.516942 c -1.412246,-0.238316 -2.549697,-1.180198 -2.934449,-2.429911 -0.154118,-0.50059 -0.145222,-1.209874 0.02158,-1.720995 0.352947,-1.081486 1.226218,-1.893688 2.402712,-2.234688 0.302421,-0.08765 0.459645,-0.102926 1.022453,-0.09931 0.584794,0.0038 0.714908,0.01935 1.077884,0.129156 0.669042,0.202395 1.085022,0.447608 1.563267,0.921519 0.340833,0.337744 0.45126,0.4837 0.607288,0.80268 0.256879,0.525157 0.333628,0.846977 0.333628,1.398956 0,0.551875 -0.07681,0.874072 -0.333202,1.397668 -0.155158,0.316861 -0.26725,0.465021 -0.607288,0.802692 -0.472523,0.469235 -0.777292,0.665782 -1.322375,0.852808 -0.620465,0.21289 -1.261206,0.27566 -1.831502,0.179423 z m -5.645235,1.307186 c -1.181738,-0.222267 -2.286847,-1.090904 -2.857954,-2.246406 -0.348487,-0.70508 -0.489773,-1.266344 -0.496484,-1.972299 -0.0081,-0.848375 0.187586,-1.316266 0.661703,-1.582426 0.179305,-0.100658 0.257499,-0.114356 0.640002,-0.112108 0.37835,0.0022 0.484217,0.02177 0.803809,0.148417 0.58784,0.232945 1.036385,0.554415 1.673031,1.199053 0.678452,0.686968 0.957827,1.119916 1.206673,1.869985 0.349559,1.053637 0.3109,1.998473 -0.09976,2.438083 -0.241549,0.258579 -0.919577,0.372705 -1.531023,0.257701 z m 0.745179,-7.246788 c -0.999252,-0.272954 -1.727158,-1.015302 -2.025088,-2.065268 -0.152667,-0.538028 -0.142905,-1.382985 0.02326,-2.012825 0.365627,-1.38593 1.382174,-2.498217 2.72091,-2.977169 1.633039,-0.584244 3.164912,0.173312 3.694851,1.82721 0.117208,0.365797 0.160769,1.290833 0.08179,1.736804 -0.282398,1.594572 -1.338723,2.900915 -2.742238,3.391285 -0.343799,0.120119 -0.478185,0.141939 -0.950799,0.154382 -0.386981,0.01019 -0.625313,-0.006 -0.80268,-0.05442 z m -5.132462,0.73111 c -0.965275,-1.056164 -1.221843,-2.81198 -0.603878,-4.132613 0.27546,-0.588677 0.780531,-1.177161 1.326748,-1.545862 0.309143,-0.208674 0.489797,-0.217966 0.665811,-0.03425 0.220444,0.230095 0.313601,0.625082 0.338364,1.43468 0.05754,1.881187 -0.538125,4.132504 -1.181418,4.465163 -0.216039,0.111718 -0.298283,0.08351 -0.545627,-0.18712 z m 1.510543,-7.103911 c -0.04695,-0.05658 -0.05465,-0.188956 -0.03286,-0.565381 0.123675,-2.136731 1.567376,-3.582152 3.746516,-3.750982 0.392754,-0.03043 1.227758,0.04275 1.298892,0.11384 0.116689,0.11661 -0.275416,0.651197 -1.058564,1.443222 -1.694755,1.713963 -3.674773,3.095727 -3.953982,2.759301 z m 8.008013,-1.196961 c -1.332155,-0.264694 -2.275332,-0.976661 -2.275332,-1.717557 0,-0.331512 0.164933,-0.621011 0.569308,-0.999285 0.745307,-0.697198 1.943193,-1.125436 2.925218,-1.045751 0.630234,0.05114 1.486779,0.359153 2.037491,0.732681 0.307484,0.208555 0.748009,0.677972 0.86974,0.926782 0.461518,0.943309 -0.39581,1.817976 -2.062688,2.104406 -0.503478,0.08651 -1.625393,0.08582 -2.063737,-0.0013 z m 10.589618,8.420829 c -0.115571,-0.04834 -0.346295,-0.296497 -0.470659,-0.506228 -0.2443,-0.411999 -0.509921,-1.266464 -0.677275,-2.178702 -0.09983,-0.544176 -0.142979,-2.014472 -0.07148,-2.435847 0.09614,-0.566639 0.374453,-0.980511 0.659744,-0.981105 0.09591,-1.99e-4 0.510813,0.257267 0.802397,0.49792 0.485978,0.401091 0.935298,1.133742 1.115075,1.818214 0.121216,0.461511 0.133979,1.310745 0.02691,1.790294 -0.168335,0.753925 -0.531395,1.44912 -0.963377,1.844699 -0.218945,0.200493 -0.263924,0.216587 -0.42133,0.150755 z"
       inkscape:label="pink" />
  </g>
</svg>
