<?xml version="1.0" encoding="UTF-8" standalone="no"?>
<!-- Uploaded to: SVG Repo, www.svgrepo.com, Generator: SVG Repo Mixer Tools -->

<svg
   fill="#000000"
   width="100"
   height="60"
   viewBox="0 0 100 60"
   version="1.1"
   id="svg1"
   sodipodi:docname="raspberry_pi_bw.svg"
   inkscape:version="1.3.2 (091e20e, 2023-11-25)"
   xmlns:inkscape="http://www.inkscape.org/namespaces/inkscape"
   xmlns:sodipodi="http://sodipodi.sourceforge.net/DTD/sodipodi-0.dtd"
   xmlns="http://www.w3.org/2000/svg"
   xmlns:svg="http://www.w3.org/2000/svg">
  <defs
     id="defs1">
    <inkscape:perspective
       sodipodi:type="inkscape:persp3d"
       inkscape:vp_x="-206.60943 : -33.959339 : 0"
       inkscape:vp_y="0 : 1000 : 0"
       inkscape:vp_z="70.345034 : 13.82783 : 0"
       inkscape:persp3d-origin="49.668926 : 60.87238 : 1"
       id="perspective1" />
  </defs>
  <sodipodi:namedview
     id="namedview1"
     pagecolor="#ffffff"
     bordercolor="#000000"
     borderopacity="0.25"
     inkscape:showpageshadow="2"
     inkscape:pageopacity="0.0"
     inkscape:pagecheckerboard="0"
     inkscape:deskcolor="#d1d1d1"
     inkscape:zoom="3.5672591"
     inkscape:cx="52.561363"
     inkscape:cy="67.979363"
     inkscape:window-width="1536"
     inkscape:window-height="818"
     inkscape:window-x="87"
     inkscape:window-y="34"
     inkscape:window-maximized="0"
     inkscape:current-layer="svg1"
     showgrid="false" />
  <rect
     style="fill:none;stroke:#000000;stroke-width:1;stroke-linecap:square;stroke-miterlimit:4.7"
     id="rect1"
     width="49"
     height="79"
     x="-54.5"
     y="10.5"
     ry="4.4069009"
     rx="4.6954951"
     transform="rotate(-90)"
     inkscape:label="box" />
  <g
     id="g39"
     transform="matrix(0.63485775,0,0,1.0240062,6.8027715,-40.960531)"
     style="stroke-width:1.24026"
     inkscape:label="grid1">
    <rect
       style="fill:none;stroke:#000000;stroke-width:1.24025;stroke-linecap:square;stroke-miterlimit:4.7"
       id="rect30"
       width="30.26396"
       height="1.8215473"
       x="13.531494"
       y="54.386196"
       ry="0.889422"
       rx="1.4346106" />
    <rect
       style="fill:none;stroke:#000000;stroke-width:1.24025;stroke-linecap:square;stroke-miterlimit:4.7"
       id="rect31"
       width="30.26396"
       height="1.8215473"
       x="13.531494"
       y="58.3862"
       ry="0.889422"
       rx="1.4346106" />
    <rect
       style="fill:none;stroke:#000000;stroke-width:1.24025;stroke-linecap:square;stroke-miterlimit:4.7"
       id="rect32"
       width="30.26396"
       height="1.8215473"
       x="13.531494"
       y="62.3862"
       ry="0.889422"
       rx="1.4346106" />
    <rect
       style="fill:none;stroke:#000000;stroke-width:1.24025;stroke-linecap:square;stroke-miterlimit:4.7"
       id="rect33"
       width="30.26396"
       height="1.8215473"
       x="13.531494"
       y="66.3862"
       ry="0.889422"
       rx="1.4346106" />
    <rect
       style="fill:none;stroke:#000000;stroke-width:1.24025;stroke-linecap:square;stroke-miterlimit:4.7"
       id="rect34"
       width="30.26396"
       height="1.8215473"
       x="13.531494"
       y="70.3862"
       ry="0.889422"
       rx="1.4346106" />
    <rect
       style="fill:none;stroke:#000000;stroke-width:1.24025;stroke-linecap:square;stroke-miterlimit:4.7"
       id="rect35"
       width="30.26396"
       height="1.8215473"
       x="13.531494"
       y="74.3862"
       ry="0.889422"
       rx="1.4346106" />
    <rect
       style="fill:none;stroke:#000000;stroke-width:1.24025;stroke-linecap:square;stroke-miterlimit:4.7"
       id="rect36"
       width="30.26396"
       height="1.8215473"
       x="13.531494"
       y="78.3862"
       ry="0.889422"
       rx="1.4346106" />
    <rect
       style="fill:none;stroke:#000000;stroke-width:1.24025;stroke-linecap:square;stroke-miterlimit:4.7"
       id="rect37"
       width="30.26396"
       height="1.8215473"
       x="13.531494"
       y="82.3862"
       ry="0.889422"
       rx="1.4346106" />
    <rect
       style="fill:none;stroke:#000000;stroke-width:1.24025;stroke-linecap:square;stroke-miterlimit:4.7"
       id="rect38"
       width="30.26396"
       height="1.8215473"
       x="13.531494"
       y="86.3862"
       ry="0.889422"
       rx="1.4346106" />
    <rect
       style="fill:none;stroke:#000000;stroke-width:1.24025;stroke-linecap:square;stroke-miterlimit:4.7"
       id="rect39"
       width="30.26396"
       height="1.8215473"
       x="13.531494"
       y="50.3862"
       ry="0.889422"
       rx="1.4346106" />
  </g>
  <g
     id="g97"
     transform="matrix(0.63485775,0,0,1.0240062,56.802772,-40.960531)"
     style="stroke-width:1.24026"
     inkscape:label="grid2">
    <rect
       style="fill:none;stroke:#000000;stroke-width:1.24025;stroke-linecap:square;stroke-miterlimit:4.7"
       id="rect88"
       width="30.26396"
       height="1.8215473"
       x="13.531494"
       y="54.386196"
       ry="0.889422"
       rx="1.4346106" />
    <rect
       style="fill:none;stroke:#000000;stroke-width:1.24025;stroke-linecap:square;stroke-miterlimit:4.7"
       id="rect89"
       width="30.26396"
       height="1.8215473"
       x="13.531494"
       y="58.3862"
       ry="0.889422"
       rx="1.4346106" />
    <rect
       style="fill:none;stroke:#000000;stroke-width:1.24025;stroke-linecap:square;stroke-miterlimit:4.7"
       id="rect90"
       width="30.26396"
       height="1.8215473"
       x="13.531494"
       y="62.3862"
       ry="0.889422"
       rx="1.4346106" />
    <rect
       style="fill:none;stroke:#000000;stroke-width:1.24025;stroke-linecap:square;stroke-miterlimit:4.7"
       id="rect91"
       width="30.26396"
       height="1.8215473"
       x="13.531494"
       y="66.3862"
       ry="0.889422"
       rx="1.4346106" />
    <rect
       style="fill:none;stroke:#000000;stroke-width:1.24025;stroke-linecap:square;stroke-miterlimit:4.7"
       id="rect92"
       width="30.26396"
       height="1.8215473"
       x="13.531494"
       y="70.3862"
       ry="0.889422"
       rx="1.4346106" />
    <rect
       style="fill:none;stroke:#000000;stroke-width:1.24025;stroke-linecap:square;stroke-miterlimit:4.7"
       id="rect93"
       width="30.26396"
       height="1.8215473"
       x="13.531494"
       y="74.3862"
       ry="0.889422"
       rx="1.4346106" />
    <rect
       style="fill:none;stroke:#000000;stroke-width:1.24025;stroke-linecap:square;stroke-miterlimit:4.7"
       id="rect94"
       width="30.26396"
       height="1.8215473"
       x="13.531494"
       y="78.3862"
       ry="0.889422"
       rx="1.4346106" />
    <rect
       style="fill:none;stroke:#000000;stroke-width:1.24025;stroke-linecap:square;stroke-miterlimit:4.7"
       id="rect95"
       width="30.26396"
       height="1.8215473"
       x="13.531494"
       y="82.3862"
       ry="0.889422"
       rx="1.4346106" />
    <rect
       style="fill:none;stroke:#000000;stroke-width:1.24025;stroke-linecap:square;stroke-miterlimit:4.7"
       id="rect96"
       width="30.26396"
       height="1.8215473"
       x="13.531494"
       y="86.3862"
       ry="0.889422"
       rx="1.4346106" />
    <rect
       style="fill:none;stroke:#000000;stroke-width:1.24025;stroke-linecap:square;stroke-miterlimit:4.7"
       id="rect97"
       width="30.26396"
       height="1.8215473"
       x="13.531494"
       y="50.3862"
       ry="0.889422"
       rx="1.4346106" />
  </g>
  <g
     id="g1"
     inkscape:label="logo"
     transform="translate(0,-40)">
    <path
       d="m 60.250026,68.533532 -0.243781,-0.36806 c 0,-2.934927 -1.343183,-4.039109 -2.815426,-4.894732 0.49234,-0.124279 0.979902,-0.243781 1.104181,-0.855622 0.855623,-0.24378 0.979904,-0.611841 1.099404,-0.979902 0.24378,-0.12428 0.855622,-0.48756 0.855622,-1.223683 0.368061,-0.243781 0.611842,-0.611841 0.49234,-1.099402 0.368062,-0.492341 0.487562,-0.860401 0.368062,-1.223682 0.487561,-0.611842 0.24378,-0.979904 0.119505,-1.347964 0.368061,-0.736121 0,-1.467464 -0.979902,-1.347963 -0.363286,-0.611841 -1.343189,-0.487562 -1.467469,-0.487562 -0.119505,-0.24378 -0.36806,-0.368059 -0.979902,-0.24378 -0.611841,-0.36806 -1.099403,-0.36806 -1.586963,-0.124279 -0.611841,-0.487562 -0.979903,-0.119506 -1.347964,0 -0.736121,-0.243781 -0.855622,0.124279 -1.223682,0.24378 -0.736121,-0.119505 -0.979902,0.248561 -1.347963,0.611841 h -0.363281 c -1.104183,0.611842 -1.716024,2.084085 -1.959805,2.695927 -0.243781,-0.736123 -0.736121,-2.084085 -1.959804,-2.695927 h -0.36328 C 47.281856,54.829242 47.038076,54.46118 46.301954,54.580681 45.933893,54.461176 45.814393,54.09312 45.078271,54.336901 44.83449,54.217395 44.59071,54.09312 44.222648,54.09312 c -0.124279,0 -0.243779,0.12428 -0.49234,0.243781 -0.487561,-0.243781 -0.975122,-0.243781 -1.343184,0.124279 -0.611841,-0.124279 -0.85562,0.119505 -0.979901,0.24378 -0.12428,0 -1.099403,-0.124279 -1.467464,0.487562 -1.104181,-0.119505 -1.467463,0.611842 -1.104181,1.347963 -0.243781,0.36806 -0.363282,0.611841 0.124279,1.347964 -0.243781,0.243779 -0.124279,0.731341 0.368061,1.099401 -0.124281,0.487562 0,0.855623 0.487561,1.223683 -0.119504,0.611841 0.611842,0.979902 0.736121,1.223683 0.119505,0.368061 0.243781,0.736122 1.099403,0.979902 0.12428,0.611841 0.611842,0.731343 1.104183,0.855622 -1.591744,0.855623 -2.815427,2.079305 -2.815427,4.894732 l -0.24378,0.36806 c -1.716024,1.099403 -3.307767,4.52667 -0.860401,7.342097 0.124279,0.855622 0.368059,1.467463 0.61184,2.203585 0.368061,2.810647 2.695927,4.158609 3.307768,4.28289 0.855621,0.731341 1.835524,1.343183 3.178707,1.835524 1.223683,1.223684 2.571645,1.711244 3.914829,1.711244 1.347963,0 2.695926,-0.48756 3.919609,-1.711244 1.343183,-0.492341 2.323085,-1.104183 3.178707,-1.835524 0.611841,-0.124281 2.939707,-1.472243 3.302988,-4.28289 0.24856,-0.736122 0.49234,-1.347963 0.736121,-2.203585 2.691146,-2.815427 1.099403,-6.242694 -0.736121,-7.342097 z m -1.586964,-0.49234 c -0.124281,1.223682 -5.998913,-4.034329 -5.019011,-4.15861 2.815425,-0.487561 5.138511,1.099403 5.019011,4.15861 z M 52.176586,55.928644 c 0,0.243781 0.119506,0.36806 0.119506,0.487561 0.36806,-0.363281 0.611841,-0.731342 0.979902,-1.099403 0,0.243781 -0.119505,0.368061 0.124279,0.611842 0.243778,-0.368061 0.487558,-0.611842 0.979899,-0.855623 -0.24856,0.368062 0,0.487562 0.119506,0.611842 0.36806,-0.24378 0.611841,-0.492341 1.223682,-0.736122 -0.119504,0.243781 -0.36806,0.368061 -0.119504,0.611842 0.36328,-0.243781 0.611841,-0.368061 1.467462,-0.611842 -0.12428,0.243781 -0.49234,0.368061 -0.368061,0.611842 0.368061,-0.119505 0.855622,-0.243781 1.347964,-0.368061 -0.248561,0.248561 -0.492342,0.368061 -0.248561,0.492341 0.49234,-0.12428 0.979902,-0.368061 1.591744,-0.12428 l -0.368061,0.368061 c 0,0 0.860402,0 1.472243,0 -0.24856,0.36806 -0.492341,0.611841 -0.611841,1.099403 0,0 0.363281,0 0.611841,0 -0.24856,0.736121 -0.736121,0.860402 -0.860402,1.104181 0.124281,0.119505 0.368061,0.119505 0.736122,0 -0.243781,0.487562 -0.611841,0.731343 -0.979902,1.099403 0.12428,0.12428 0.24378,0.12428 0.611841,0 -0.368061,0.368061 -0.731341,0.611842 -1.099403,0.979902 0.119505,0.124281 0.368062,0.124281 0.611842,0.124281 -0.368061,0.363281 -0.979903,0.611842 -1.467463,0.855621 0.119505,0.243781 0.363281,0.119505 0.48756,0.119505 -0.36806,0.248561 -0.979902,0.49234 -1.467463,0.611842 0.119504,0.124279 0.243781,0.24856 0.487561,0.24856 -0.611841,0.363281 -1.467463,0.119505 -1.711244,0.363281 0,0.124279 0.243781,0.248561 0.368062,0.36806 -0.979903,0 -3.551548,0 -4.039111,-1.955023 0.979904,-1.104183 2.691147,-2.327867 5.750354,-3.91961 -2.323084,0.860402 -4.52667,1.835524 -6.242694,3.307768 -1.955025,-0.979903 -0.611841,-3.427269 0.49234,-4.407171 z m -2.203584,7.098315 c 1.467463,0 3.302988,1.099404 3.302988,2.203586 0,0.975123 -1.343183,1.711243 -3.302988,1.711243 -1.959804,0 -3.302988,-0.979901 -3.302988,-1.835524 0,-0.855622 1.591745,-2.079305 3.302988,-2.079305 z m -7.466376,-0.73612 c 0.24856,0 0.36806,-0.119506 0.49234,-0.243781 -0.611842,-0.243781 -1.223683,-0.368061 -1.591743,-0.736122 0.24378,0 0.36806,0 0.611841,-0.119505 -0.48756,-0.243779 -0.979902,-0.49234 -1.467464,-0.85562 0.243781,0 0.487562,0 0.611842,-0.124281 -0.368061,-0.243781 -0.736121,-0.611842 -1.104182,-0.855623 0.368061,0 0.49234,0 0.611842,0 -0.363282,-0.49234 -0.731343,-0.73612 -0.975123,-1.223682 0.24378,0.119505 0.487561,0.119505 0.731342,0 -0.119506,-0.24378 -0.731342,-0.368061 -0.979903,-0.979903 0.248561,0 0.611842,0 0.611842,0 -0.119505,-0.48756 -0.363281,-0.855622 -0.487562,-1.099401 0.611842,0 1.467464,0 1.467464,0 l -0.36806,-0.492342 c 0.611841,-0.119505 1.223682,0 1.591743,0.12428 0.243781,-0.12428 0,-0.368061 -0.243781,-0.49234 0.487562,0.124279 0.979902,0.24856 1.347964,0.36806 0.243779,-0.243781 -0.124281,-0.36806 -0.368062,-0.611841 0.855622,0.124279 1.099403,0.36806 1.467463,0.611841 0.243781,-0.243781 0,-0.36806 -0.124279,-0.611841 0.611841,0.243781 0.860402,0.492341 1.223682,0.736121 0.12428,-0.12428 0.248561,-0.24378 0.12428,-0.611842 0.243781,0.243781 0.611842,0.487562 0.855623,0.855623 0.243781,-0.12428 0.124279,-0.368061 0.124279,-0.611842 0.368062,0.368061 0.731343,0.736123 0.979904,1.099403 0.119504,0 0.119504,-0.24378 0.119504,-0.487561 0.979897,0.979902 2.447361,3.427267 0.368056,4.407171 -1.711244,-1.472244 -3.91483,-2.571647 -6.242694,-3.307768 3.059207,1.591744 4.77523,2.815426 5.755134,3.919609 -0.492342,1.955024 -3.059208,2.079304 -4.039111,1.955024 0.243781,-0.119505 0.368062,-0.243781 0.368062,-0.368061 -0.124281,-0.119504 -0.860402,0 -1.472243,-0.24378 z m 3.427267,1.467463 c 0.979902,0.12428 -4.894731,5.387071 -5.014231,4.163388 -0.124281,-2.939705 2.198805,-4.65095 5.014231,-4.163388 z m -6.237914,11.624986 c -1.472243,-1.223682 -1.959805,-4.52667 0.731342,-6.118414 1.591743,-0.487561 0.611841,6.610755 -0.731342,6.118414 z m 5.626072,6.118414 c -0.855622,0.49234 -2.815425,0.248561 -4.158609,-1.711244 -0.979902,-1.711244 -0.855622,-3.427267 -0.12428,-3.914829 0.979902,-0.611842 2.571645,0.243781 3.671048,1.591744 0.979902,1.099402 1.467464,3.302987 0.611841,4.034329 z m -1.591743,-7.461598 c -1.467463,-0.979902 -1.711244,-3.183486 -0.611841,-5.019011 1.223683,-1.711244 3.307767,-2.447365 4.77523,-1.467463 1.467464,0.979902 1.711244,3.183488 0.611841,5.019012 -1.104181,1.835524 -3.302986,2.447366 -4.77523,1.467462 z m 6.242694,10.888866 c -1.835524,0.12428 -3.546768,-1.467464 -3.546768,-1.955024 0,-0.736123 2.198806,-1.347964 3.671049,-1.347964 1.467463,-0.12428 3.422487,0.487562 3.422487,1.223683 0,0.487561 -1.835524,2.079305 -3.546768,2.079305 z m 3.671049,-7.829658 c 0,1.835524 -1.591744,3.302987 -3.546768,3.302987 -1.959805,0 -3.671049,-1.467463 -3.671049,-3.302987 0,-1.835525 1.586964,-3.302987 3.546768,-3.302987 2.079305,0 3.671049,1.467462 3.671049,3.302987 z m -2.203586,-4.650951 c -1.223682,-1.711243 -0.855622,-4.039108 0.611842,-5.019011 1.467463,-0.975122 3.671048,-0.36328 4.775231,1.472244 1.099402,1.835524 0.855621,4.034329 -0.611841,5.014231 -1.472243,0.855622 -3.671049,0.243781 -4.775232,-1.467464 z m 7.342097,7.342097 c -1.591743,2.203584 -3.671048,2.203584 -4.40239,1.591743 -0.860402,-0.736121 -0.24856,-3.183486 0.975123,-4.526669 1.223683,-1.472244 2.695926,-2.447366 3.551547,-1.716025 0.611842,0.855623 0.979903,3.183487 -0.12428,4.650951 z m 1.104183,-4.526671 c -1.347964,0.611842 -2.447365,-6.486474 -0.736122,-6.118414 2.691146,1.467464 2.203585,4.894731 0.736122,6.118414 z"
       id="path1"
       style="display:inline;stroke-width:1"
       inkscape:label="berry" />
  </g>
</svg>
