<?xml version="1.0" encoding="UTF-8" standalone="no"?>
<!-- Uploaded to: SVG Repo, www.svgrepo.com, Generator: SVG Repo Mixer Tools -->

<svg
   fill="#000000"
   height="30"
   width="40"
   version="1.1"
   id="Layer_1"
   viewBox="0 0 40 30"
   xml:space="preserve"
   sodipodi:docname="recorder-svgrepo-com(3).svg"
   inkscape:version="1.3.2 (091e20e, 2023-11-25)"
   xmlns:inkscape="http://www.inkscape.org/namespaces/inkscape"
   xmlns:sodipodi="http://sodipodi.sourceforge.net/DTD/sodipodi-0.dtd"
   xmlns="http://www.w3.org/2000/svg"
   xmlns:svg="http://www.w3.org/2000/svg"><defs
   id="defs10">
	

		
	
			
			
			
			
			
			
			
			
		</defs><sodipodi:namedview
   id="namedview10"
   pagecolor="#ffffff"
   bordercolor="#000000"
   borderopacity="0.25"
   inkscape:showpageshadow="2"
   inkscape:pageopacity="0.0"
   inkscape:pagecheckerboard="0"
   inkscape:deskcolor="#d1d1d1"
   inkscape:current-layer="Layer_1" />
<path
   id="path1"
   d="M 5.3334045,0 C 4.2000464,0 3.3334351,0.86661128 3.3334351,1.9999695 V 2.666626 C 1.4667182,2.666626 0,4.1332697 0,5.9999085 V 8.6665341 23.333283 c 0,1.866638 1.4667182,3.333282 3.3334351,3.333282 H 31.333313 36.666717 C 38.533356,26.666565 40,25.199921 40,23.333283 V 5.9999085 C 40,4.1332697 38.533282,2.666626 36.666565,2.666626 H 23.333435 V 1.9999695 c 0,-0.3999996 -0.266657,-0.6666565 -0.666656,-0.6666565 -0.4,0 -0.666657,0.2666569 -0.666657,0.6666565 V 2.666626 H 20.666656 V 1.9999695 c 0,-0.3999996 -0.266504,-0.6666565 -0.666503,-0.6666565 -0.4,0 -0.666656,0.2666569 -0.666656,0.6666565 V 2.666626 H 18.00003 V 1.9999695 C 18.00003,0.86661128 17.13342,0 16.000061,0 H 13.333436 C 12.200077,0 11.333313,0.86661128 11.333313,1.9999695 V 2.666626 H 10 V 1.9999695 C 10,0.86661128 9.133389,0 8.0000307,0 Z m -1.562e-4,1.333313 h 2.6667784 c 0.4000004,0 0.6666561,0.2666569 0.6666561,0.6666565 V 2.666626 H 4.6665955 V 1.9999695 c 0,-0.3999996 0.2666568,-0.6666565 0.6666564,-0.6666565 z m 8.0000317,0 h 2.666777 c 0.4,0 0.666504,0.2666569 0.666504,0.6666565 V 2.666626 H 12.666622 V 1.9999695 c 0,-0.3999996 0.266657,-0.6666565 0.666658,-0.6666565 z M 3.3334351,3.999939 h 0.6665039 5.3334045 2.6666255 5.333405 19.333343 c 1.133359,0 1.99997,0.8666113 1.99997,1.9999695 V 23.333283 c 0,1.133358 -0.866763,1.999969 -2.000122,1.999969 H 31.99997 V 11.333313 c 0,-1.8666386 -1.466566,-3.333435 -3.333283,-3.333435 H 1.333313 V 5.9999085 c 0,-1.1333582 0.8667638,-1.9999695 2.0001221,-1.9999695 z M 34.666596,7.3332212 c -0.733359,0 -1.333313,0.600107 -1.333313,1.3334656 V 10 c 0,0.733359 0.599954,1.333313 1.333313,1.333313 h 1.333465 c 0.733359,0 1.333313,-0.599954 1.333313,-1.333313 V 8.6666868 c 0,-0.7333586 -0.599954,-1.3334656 -1.333313,-1.3334656 z m 0,1.3333129 h 1.333465 V 9.9998477 H 34.666596 Z M 1.333313,9.3333435 h 27.333374 c 1.133359,0 1.999969,0.8666115 1.999969,1.9999695 V 25.333252 H 3.3334351 c -1.1333583,0 -2.0001221,-0.866611 -2.0001221,-1.999969 z m 5.333252,1.9999695 c -1.8666388,0 -3.3332825,1.466566 -3.3332825,3.333282 V 20 c 7.81e-5,1.866639 1.4666437,3.333283 3.3332825,3.333283 h 18.666687 c 1.866639,0 3.333435,-1.466719 3.333435,-3.333435 v -5.333253 c 0,-1.866638 -1.466644,-3.333282 -3.333282,-3.333282 z m 0,1.333313 h 18.666687 c 1.133359,0 1.999969,0.866611 1.999969,1.999969 v 5.333253 h 1.56e-4 c 0,1.133358 -0.866611,2.000122 -1.999969,2.000122 H 6.666565 c -1.1333583,0 -1.9999695,-0.866764 -1.9999695,-2.000122 v -5.333253 c 0,-1.133358 0.8666112,-1.999969 1.9999695,-1.999969 z m 28.000031,0 c -0.733359,0 -1.333313,0.599954 -1.333313,1.333313 v 1.333313 c 0,0.733359 0.599954,1.333313 1.333313,1.333313 h 1.333465 c 0.733359,0 1.333313,-0.599954 1.333313,-1.333313 v -1.333313 c 0,-0.733281 -0.599954,-1.333313 -1.333313,-1.333313 z m 0,1.333313 h 1.333465 v 1.333313 H 34.666596 Z M 8.6666868,15.333252 c -0.7333586,0 -1.3334656,0.599954 -1.3334656,1.333313 v 1.333465 c 0,0.733359 0.600107,1.333314 1.3334656,1.333314 H 10 c 0.733359,0 1.333313,-0.599955 1.333313,-1.333314 v -1.333465 c 0,-0.733359 -0.599954,-1.333313 -1.333313,-1.333313 z m 13.3332832,0 c -0.733359,0 -1.333314,0.599954 -1.333314,1.333313 v 1.333465 c 0,0.733359 0.599955,1.333314 1.333314,1.333314 h 1.333465 c 0.733359,0 1.333314,-0.599955 1.333314,-1.333314 v -1.333465 c -7.8e-5,-0.733359 -0.600033,-1.333313 -1.333314,-1.333313 z M 8.6666868,16.666565 H 10 v 1.333313 H 8.6666868 Z m 5.3332522,0 c -0.4,0 -0.666503,0.266657 -0.666503,0.666656 0,0.4 0.266503,0.666657 0.666503,0.666657 h 4.000091 c 0.400001,0 0.666657,-0.266657 0.666657,-0.666657 0,-0.399999 -0.266656,-0.666656 -0.666657,-0.666656 z m 8.000031,0 h 1.333465 v 1.333313 H 21.99997 Z m 12.666626,1.333313 c -0.733359,0 -1.333313,0.600107 -1.333313,1.333466 v 1.333312 c 0,0.733359 0.599954,1.333314 1.333313,1.333314 h 1.333465 c 0.733359,0 1.333313,-0.599955 1.333313,-1.333314 v -1.333312 c 0,-0.733359 -0.599954,-1.333466 -1.333313,-1.333466 z m 0,1.333466 h 1.333465 v 1.333312 h -1.333465 z"
   style="stroke-width:1" />
</svg>
