<svg xmlns="http://www.w3.org/2000/svg" xml:space="preserve" width="40" height="30">
    <path d="M5.333 0c-1.133 0-2 .867-2 2v.667A3.3 3.3 0 0 0 0 6v17.333a3.3 3.3 0 0 0 3.333 3.334h33.334A3.3 3.3 0 0 0 40 23.333V6a3.3 3.3 0 0 0-3.333-3.333H23.333V2c0-.4-.266-.667-.666-.667S22 1.6 22 2v.667h-1.333V2c0-.4-.267-.667-.667-.667s-.667.267-.667.667v.667H18V2c0-1.133-.867-2-2-2h-2.667c-1.133 0-2 .867-2 2v.667H10V2c0-1.133-.867-2-2-2Zm0 1.333H8c.4 0 .667.267.667.667v.667h-4V2c0-.4.266-.667.666-.667m8 0H16c.4 0 .667.267.667.667v.667h-4V2c0-.4.266-.667.666-.667M3.333 4h33.334c1.133 0 2 .867 2 2v17.333c0 1.134-.867 2-2 2H32v-14A3.3 3.3 0 0 0 28.667 8H1.333V6c0-1.133.867-2 2-2m31.334 3.333c-.734 0-1.334.6-1.334 1.334V10c0 .733.6 1.333 1.334 1.333H36c.733 0 1.333-.6 1.333-1.333V8.667c0-.734-.6-1.334-1.333-1.334zm0 1.334H36V10h-1.333Zm-33.334.666h27.334c1.133 0 2 .867 2 2v14H3.333c-1.133 0-2-.866-2-2zm5.334 2a3.3 3.3 0 0 0-3.334 3.334V20a3.3 3.3 0 0 0 3.334 3.333h18.666A3.3 3.3 0 0 0 28.667 20v-5.333a3.3 3.3 0 0 0-3.334-3.334zm0 1.334h18.666c1.134 0 2 .866 2 2V20c0 1.133-.866 2-2 2H6.667c-1.134 0-2-.867-2-2v-5.333c0-1.134.866-2 2-2m28 0c-.734 0-1.334.6-1.334 1.333v1.333c0 .734.6 1.334 1.334 1.334H36c.733 0 1.333-.6 1.333-1.334V14c0-.733-.6-1.333-1.333-1.333zm0 1.333H36v1.333h-1.333Zm-26 1.333c-.734 0-1.334.6-1.334 1.334V18c0 .733.6 1.333 1.334 1.333H10c.733 0 1.333-.6 1.333-1.333v-1.333c0-.734-.6-1.334-1.333-1.334zm13.333 0c-.733 0-1.333.6-1.333 1.334V18c0 .733.6 1.333 1.333 1.333h1.333c.734 0 1.334-.6 1.334-1.333v-1.333c0-.734-.6-1.334-1.334-1.334zM8.667 16.667H10V18H8.667Zm5.333 0c-.4 0-.667.266-.667.666S13.6 18 14 18h4c.4 0 .667-.267.667-.667s-.267-.666-.667-.666zm8 0h1.333V18H22ZM34.667 18c-.734 0-1.334.6-1.334 1.333v1.334c0 .733.6 1.333 1.334 1.333H36c.733 0 1.333-.6 1.333-1.333v-1.334c0-.733-.6-1.333-1.333-1.333zm0 1.333H36v1.334h-1.333z" style="stroke-width:1"/>
</svg>
