<svg xmlns="http://www.w3.org/2000/svg" width="50" height="35">
    <g transform="translate(.855 -6.625)scale(2.01207)">
        <path d="M19.44 10.94h-1.51v-6.4a.5.5 0 0 0-1 0v6.4H7.06V7a.5.5 0 0 0-1 0v3.94h-1.5a2.507 2.507 0 0 0-2.5 2.5v4a2.514 2.514 0 0 0 2.5 2.5h14.88a2.507 2.507 0 0 0 2.5-2.5v-4a2.5 2.5 0 0 0-2.5-2.5m1.5 6.5a1.5 1.5 0 0 1-1.5 1.5H4.56a1.51 1.51 0 0 1-1.5-1.5v-4a1.5 1.5 0 0 1 1.5-1.5h14.88a1.5 1.5 0 0 1 1.5 1.5z"/>
        <circle cx="4.75" cy="15.436" r=".75"/>
        <circle cx="8.25" cy="15.436" r=".75"/>
        <path d="M18.507 16.936h-5.005a1.502 1.5 0 1 1 0-3h5.005a1.502 1.5 0 0 1 0 3m-5.005-2a.5.5 0 1 0 0 1h5.005a.5.5 0 0 0 0-1z" style="stroke-width:1"/>
    </g>
</svg>
