<?xml version="1.0" encoding="UTF-8" standalone="no"?>
<!-- Uploaded to: SVG Repo, www.svgrepo.com, Generator: SVG Repo Mixer Tools -->

<svg
   fill="#000000"
   version="1.1"
   id="Layer_1"
   viewBox="0 0 40.000134 45"
   xml:space="preserve"
   sodipodi:docname="router_1.svg"
   width="40.000134"
   height="45"
   inkscape:version="1.3.2 (091e20e, 2023-11-25)"
   xmlns:inkscape="http://www.inkscape.org/namespaces/inkscape"
   xmlns:sodipodi="http://sodipodi.sourceforge.net/DTD/sodipodi-0.dtd"
   xmlns="http://www.w3.org/2000/svg"
   xmlns:svg="http://www.w3.org/2000/svg"><defs
   id="defs11" /><sodipodi:namedview
   id="namedview11"
   pagecolor="#ffffff"
   bordercolor="#000000"
   borderopacity="0.25"
   inkscape:showpageshadow="2"
   inkscape:pageopacity="0.0"
   inkscape:pagecheckerboard="0"
   inkscape:deskcolor="#d1d1d1"
   inkscape:current-layer="Layer_1" />
<g
   id="g11"
   transform="scale(0.13333378)"
   style="stroke-width:7.49998">
	<g
   id="g10"
   style="stroke-width:7.49998">
		<g
   id="g9"
   style="stroke-width:7.49998">
			<path
   d="M 275.806,208.065 H 48.387 V 77.419 c 0,-8.003 -6.513,-14.516 -14.516,-14.516 -8.003,0 -14.516,6.513 -14.516,14.516 V 208.553 C 8.327,210.803 0,220.577 0,232.258 v 29.032 c 0,9.895 5.985,18.397 14.516,22.142 v 6.89 c 0,5.337 4.34,9.677 9.677,9.677 h 19.355 c 5.337,0 9.677,-4.34 9.677,-9.677 v -4.839 h 188.71 v 4.839 c 0,5.337 4.34,9.677 9.677,9.677 h 19.355 c 5.337,0 9.677,-4.34 9.677,-9.677 v -5.327 C 291.673,282.745 300,272.977 300,261.29 v -29.032 c 0,-13.34 -10.853,-24.193 -24.194,-24.193 z M 33.871,72.581 c 2.666,0 4.839,2.173 4.839,4.839 V 208.065 H 29.033 V 77.419 h -0.001 c 0,-2.666 2.173,-4.838 4.839,-4.838 z m 9.678,217.742 H 43.548 24.194 v -4.839 h 19.355 z m 227.419,0 h -19.355 v -4.839 h 19.355 z m 19.355,-29.033 c 0,8.003 -6.513,14.516 -14.516,14.516 H 241.936 53.226 24.194 c -8.003,0 -14.516,-6.513 -14.516,-14.516 v -29.032 c 0,-8.003 6.513,-14.516 14.516,-14.516 h 24.194 227.419 c 8.003,0 14.516,6.513 14.516,14.516 z"
   id="path1"
   style="stroke-width:7.49998" />
			<path
   d="M 96.774,227.419 H 29.032 c -5.337,0 -9.677,4.34 -9.677,9.677 v 19.355 c 0,5.337 4.34,9.677 9.677,9.677 h 67.742 c 5.337,0 9.677,-4.34 9.677,-9.677 v -19.355 c 0.001,-5.336 -4.34,-9.677 -9.677,-9.677 z m -67.742,29.033 v -19.355 h 67.742 l 0.005,19.355 z"
   id="path2"
   style="stroke-width:7.49998" />
			<rect
   x="270.96799"
   y="241.935"
   width="9.677"
   height="9.677"
   id="rect2"
   style="stroke-width:7.49998" />
			<rect
   x="251.61301"
   y="241.935"
   width="9.677"
   height="9.677"
   id="rect3"
   style="stroke-width:7.49998" />
			<rect
   x="232.258"
   y="241.935"
   width="9.677"
   height="9.677"
   id="rect4"
   style="stroke-width:7.49998" />
			<rect
   x="212.903"
   y="241.935"
   width="9.677"
   height="9.677"
   id="rect5"
   style="stroke-width:7.49998" />
			<path
   d="m 96.774,125.806 c 8.003,0 14.516,-6.513 14.516,-14.516 0,-8.003 -6.513,-14.516 -14.516,-14.516 -8.003,0 -14.516,6.513 -14.516,14.516 0,8.003 6.513,14.516 14.516,14.516 z m 0,-19.353 c 2.666,0 4.839,2.173 4.839,4.839 0,2.666 -2.173,4.839 -4.839,4.839 -2.666,0 -4.839,-2.173 -4.839,-4.839 0,-2.667 2.173,-4.839 4.839,-4.839 z"
   id="path5"
   style="stroke-width:7.49998" />
			<path
   d="m 125.806,111.29 h 9.677 c 0,-21.344 -17.366,-38.71 -38.71,-38.71 v 9.677 c 16.012,10e-4 29.033,13.022 29.033,29.033 z"
   id="path6"
   style="stroke-width:7.49998" />
			<path
   d="m 150,111.29 h 9.677 c 0,-34.684 -28.219,-62.903 -62.903,-62.903 v 9.677 C 126.121,58.065 150,81.944 150,111.29 Z"
   id="path7"
   style="stroke-width:7.49998" />
			<path
   d="m 174.194,111.29 h 9.677 c 0,-48.024 -39.073,-87.097 -87.097,-87.097 v 9.677 c 42.687,0.001 77.42,34.733 77.42,77.42 z"
   id="path8"
   style="stroke-width:7.49998" />
			<path
   d="m 198.387,111.29 h 9.677 C 208.065,49.927 158.139,0 96.774,0 v 9.677 c 56.032,0 101.613,45.581 101.613,101.613 z"
   id="path9"
   style="stroke-width:7.49998" />
		</g>
	</g>
</g>
</svg>
