<svg xmlns="http://www.w3.org/2000/svg" xml:space="preserve" width="40" height="45">
    <g style="stroke-width:7.49998">
        <path d="M275.806 208.065H48.387V77.419c0-8.003-6.513-14.516-14.516-14.516s-14.516 6.513-14.516 14.516v131.134C8.327 210.803 0 220.577 0 232.258v29.032c0 9.895 5.985 18.397 14.516 22.142v6.89c0 5.337 4.34 9.677 9.677 9.677h19.355c5.337 0 9.677-4.34 9.677-9.677v-4.839h188.71v4.839c0 5.337 4.34 9.677 9.677 9.677h19.355c5.337 0 9.677-4.34 9.677-9.677v-5.327C291.673 282.745 300 272.977 300 261.29v-29.032c0-13.34-10.853-24.193-24.194-24.193M33.871 72.581a4.847 4.847 0 0 1 4.839 4.839v130.645h-9.677V77.419h-.001a4.846 4.846 0 0 1 4.839-4.838m9.678 217.742H24.194v-4.839h19.355zm227.419 0h-19.355v-4.839h19.355zm19.355-29.033c0 8.003-6.513 14.516-14.516 14.516H24.194c-8.003 0-14.516-6.513-14.516-14.516v-29.032c0-8.003 6.513-14.516 14.516-14.516h251.613c8.003 0 14.516 6.513 14.516 14.516z" style="stroke-width:7.49998" transform="scale(.13333)"/>
        <path d="M96.774 227.419H29.032c-5.337 0-9.677 4.34-9.677 9.677v19.355c0 5.337 4.34 9.677 9.677 9.677h67.742c5.337 0 9.677-4.34 9.677-9.677v-19.355c.001-5.336-4.34-9.677-9.677-9.677m-67.742 29.033v-19.355h67.742l.005 19.355zm241.936-14.517h9.677v9.677h-9.677zm-19.355 0h9.677v9.677h-9.677zm-19.355 0h9.677v9.677h-9.677zm-19.355 0h9.677v9.677h-9.677zM96.774 125.806c8.003 0 14.516-6.513 14.516-14.516s-6.513-14.516-14.516-14.516-14.516 6.513-14.516 14.516 6.513 14.516 14.516 14.516m0-19.353a4.847 4.847 0 0 1 4.839 4.839 4.847 4.847 0 0 1-4.839 4.839 4.847 4.847 0 0 1-4.839-4.839 4.847 4.847 0 0 1 4.839-4.839m29.032 4.837h9.677c0-21.344-17.366-38.71-38.71-38.71v9.677c16.012.001 29.033 13.022 29.033 29.033" style="stroke-width:7.49998" transform="scale(.13333)"/>
        <path d="M150 111.29h9.677c0-34.684-28.219-62.903-62.903-62.903v9.677C126.121 58.065 150 81.944 150 111.29" style="stroke-width:7.49998" transform="scale(.13333)"/>
        <path d="M174.194 111.29h9.677c0-48.024-39.073-87.097-87.097-87.097v9.677c42.687.001 77.42 34.733 77.42 77.42" style="stroke-width:7.49998" transform="scale(.13333)"/>
        <path d="M198.387 111.29h9.677C208.065 49.927 158.139 0 96.774 0v9.677c56.032 0 101.613 45.581 101.613 101.613" style="stroke-width:7.49998" transform="scale(.13333)"/>
    </g>
</svg>
