<?xml version="1.0" encoding="UTF-8" standalone="no"?>
<!-- Uploaded to: SVG Repo, www.svgrepo.com, Generator: SVG Repo Mixer Tools -->

<svg
   fill="#000000"
   width="50"
   height="35"
   viewBox="0 0 50 35"
   version="1.1"
   id="svg2"
   sodipodi:docname="router_2.svg"
   inkscape:version="1.3.2 (091e20e, 2023-11-25)"
   xmlns:inkscape="http://www.inkscape.org/namespaces/inkscape"
   xmlns:sodipodi="http://sodipodi.sourceforge.net/DTD/sodipodi-0.dtd"
   xmlns="http://www.w3.org/2000/svg"
   xmlns:svg="http://www.w3.org/2000/svg">
  <defs
     id="defs2" />
  <sodipodi:namedview
     id="namedview2"
     pagecolor="#ffffff"
     bordercolor="#000000"
     borderopacity="0.25"
     inkscape:showpageshadow="2"
     inkscape:pageopacity="0.0"
     inkscape:pagecheckerboard="0"
     inkscape:deskcolor="#d1d1d1"
     inkscape:current-layer="svg2" />
  <g
     id="Router"
     transform="matrix(2.0120724,0,0,2.0120724,0.8551312,-6.6247481)">
    <path
       d="m 19.44,10.94 h -1.51 v -6.4 a 0.5,0.5 0 0 0 -1,0 v 6.4 H 7.06 V 7 a 0.5,0.5 0 0 0 -1,0 v 3.94 h -1.5 a 2.507,2.507 0 0 0 -2.5,2.5 v 4 a 2.514,2.514 0 0 0 2.5,2.5 h 14.88 a 2.507,2.507 0 0 0 2.5,-2.5 v -4 a 2.5,2.5 0 0 0 -2.5,-2.5 z m 1.5,6.5 a 1.5,1.5 0 0 1 -1.5,1.5 H 4.56 a 1.511,1.511 0 0 1 -1.5,-1.5 v -4 a 1.5,1.5 0 0 1 1.5,-1.5 h 14.88 a 1.5,1.5 0 0 1 1.5,1.5 z"
       id="path1" />
    <circle
       cx="4.75"
       cy="15.436"
       r="0.75"
       id="circle1" />
    <circle
       cx="8.25"
       cy="15.436"
       r="0.75"
       id="circle2" />
    <path
       d="m 18.50732,16.936 h -5.005632 a 1.5016892,1.5 0 1 1 0,-3 h 5.005632 a 1.5016892,1.5 0 0 1 0,3 z m -5.005632,-2 a 0.50056306,0.5 0 1 0 0,1 h 5.005632 a 0.50056306,0.5 0 0 0 0,-1 z"
       id="path2"
       style="stroke-width:1" />
  </g>
</svg>
