<?xml version="1.0" encoding="UTF-8" standalone="no"?>
<!-- Created with Inkscape (http://www.inkscape.org/) -->

<svg
   width="100"
   height="100"
   viewBox="0 0 100 100"
   version="1.1"
   id="svg1"
   xml:space="preserve"
   inkscape:version="1.3.2 (091e20e, 2023-11-25)"
   sodipodi:docname="saxophone_alto_1.svg"
   xmlns:inkscape="http://www.inkscape.org/namespaces/inkscape"
   xmlns:sodipodi="http://sodipodi.sourceforge.net/DTD/sodipodi-0.dtd"
   xmlns="http://www.w3.org/2000/svg"
   xmlns:svg="http://www.w3.org/2000/svg"><sodipodi:namedview
     id="namedview1"
     pagecolor="#ffffff"
     bordercolor="#000000"
     borderopacity="0.25"
     inkscape:showpageshadow="2"
     inkscape:pageopacity="0.0"
     inkscape:pagecheckerboard="0"
     inkscape:deskcolor="#d1d1d1"
     inkscape:document-units="px"
     inkscape:current-layer="svg1" /><defs
     id="defs1" /><g
     id="g24"><path
       style="color:#000000;display:inline;fill:#ffffff;fill-opacity:1;-inkscape-stroke:none"
       d="m 45.298828,6.0683594 c -0.03171,0.1274507 -0.06437,0.2546692 -0.09961,0.3808594 -0.06248,0.2171231 -0.160986,0.4187952 -0.259766,0.6210937 -0.110477,0.2193931 -0.226728,0.4377034 -0.349609,0.6503906 -0.104038,0.1713437 -0.197523,0.3471692 -0.289063,0.5253907 -0.05171,0.099645 -0.100655,0.2011514 -0.152343,0.3007812 -0.02071,0.041537 -0.04268,0.082236 -0.06445,0.1230469 0.249099,0.073884 0.451507,0.1281162 0.548828,0.1191406 0.720357,-0.066437 10.534128,4.2631975 11.853516,6.4707035 0.580949,0.97196 0.221716,2.556416 0.128906,3.089843 -2.873432,16.312665 -6.278701,34.623047 -9.427734,50.210938 -0.07736,0.201592 -0.334225,0.187439 -1.017578,-0.05273 -1.065167,-0.374375 -1.778052,-0.191948 -2.134766,0.544922 -0.611763,1.263736 0.07945,0.855908 1.585938,0.728516 4.143971,-0.350423 -6.895893,23.514161 4.603515,26.355469 4.343699,0.925441 9.654395,0.365417 11.828125,-4.0625 2.984894,-6.650997 2.917865,-14.435705 5.632813,-21.210938 2.18442,-6.233994 3.343917,-6.848097 5.546875,-7.302734 0.285097,0.171358 3.742177,2.221188 1.623047,-0.400391 -2.194363,-2.714658 -11.019871,-10.243572 -12.240235,-10.294922 -1.234155,-0.05195 0.68392,1.478029 0.66211,2.441407 -8.747094,17.241672 -5.004976,24.504432 -7.916016,30.832031 -1.128024,2.451935 -4.042426,2.300624 -3.986328,-0.148438 -0.17098,-1.240508 5.044796,-35.485711 7.113281,-53.285156 0.707846,-6.091051 2.734778,-16.52796 1.8125,-18.30664 -1.07392,-3.048389 -4.49025,-4.302292 -4.623047,-4.332032 -0.251735,-0.05638 -0.276863,-0.097821 -0.220703,-0.3535154 0.113041,-0.5146706 -0.561547,-0.807691 -0.935547,-0.40625 -0.339489,0.3643995 -2.31452,-1.7377731 -1.890625,-0.048828 0.08784,0.3499718 -0.06062,0.3750025 -0.660156,0.109375 C 45.553373,6.5239574 49.262009,8.0231647 46.130859,6.7167969 45.853286,6.4999789 45.576244,6.2836287 45.298828,6.0683594 Z"
       id="path24" /><path
       id="path21"
       style="color:#000000;fill:#000000;-inkscape-stroke:none"
       d="M 36.039062,2.9824219 C 35.816658,2.9782819 35.60933,2.9697429 35.359375,3.109375 35.234398,3.179191 35.1006,3.3136257 35.041016,3.4785156 c -0.05958,0.16489 -0.04656,0.3259784 -0.01367,0.4570313 0.116367,0.4636411 0.444756,0.8233609 0.914062,1.2226562 0.468978,0.3990155 1.102704,0.8247747 1.910156,1.2929688 l 0.175782,0.1015625 c -0.03072,0.1335335 -0.07723,0.243462 -0.06445,0.4296875 0.01158,0.1688206 0.08094,0.372124 0.208984,0.5253906 0.114885,0.137512 0.265883,0.2253099 0.427734,0.3046875 0.464571,0.3059888 0.968806,0.3675237 1.279297,0.3984375 0.01909,0.0019 0.0091,-2.827e-4 0.02734,0.00195 0.04696,0.198708 0.02396,0.4285673 0.144531,0.5625 0.218133,0.2423029 0.491419,0.3892449 0.771485,0.4863282 0.280066,0.097083 0.566849,0.1451693 0.855468,0.1113281 0.14431,-0.016921 0.293338,-0.05369 0.441407,-0.1464844 0.123709,-0.077528 0.219527,-0.2306925 0.285156,-0.3886719 -0.01827,0.011891 0.0016,-0.00226 0.0625,-0.00781 0.121853,-0.011111 0.37679,0.01875 0.648437,0.083984 0.271648,0.065234 0.564306,0.1577788 0.822266,0.234375 0.12898,0.038298 0.249301,0.073144 0.363281,0.099609 0.113981,0.026465 0.206613,0.054952 0.378906,0.039063 -0.104459,0.00963 -0.02478,1.035e-4 0.06641,0.023437 0.09119,0.023334 0.224711,0.063682 0.386718,0.1191406 0.324016,0.110917 0.764816,0.2813021 1.279297,0.4941406 1.028963,0.4256773 2.355907,1.0257223 3.699219,1.6953133 1.343312,0.66959 2.705739,1.409287 3.798828,2.109375 1.09309,0.700087 1.91975,1.407752 2.146485,1.787109 0.205804,0.344322 0.274403,0.894809 0.248046,1.429687 -0.02636,0.534879 -0.130892,1.026681 -0.18164,1.31836 -2.855146,16.208852 -6.235598,34.369386 -9.367188,49.888672 -0.102291,-0.0218 -0.190035,-0.03639 -0.419922,-0.117188 -0.589472,-0.207182 -1.129512,-0.282309 -1.623046,-0.15625 -0.493535,0.126059 -0.89873,0.483632 -1.126954,0.955078 -0.164434,0.339678 -0.278805,0.573191 -0.273437,0.892578 0.0027,0.159694 0.06947,0.368395 0.212891,0.50586 0.143418,0.137465 0.308261,0.182696 0.439453,0.201172 0.262384,0.03695 0.480757,-0.0018 0.753906,-0.03906 0.273149,-0.03723 0.587812,-0.085 0.945312,-0.115234 0.144941,-0.01226 0.155641,0.0031 0.205079,0.05469 0.04944,0.05164 0.127553,0.198026 0.175781,0.455078 0.09646,0.514105 0.06364,1.404808 -0.07031,2.501954 -0.267908,2.194291 -0.901145,5.244307 -1.30664,8.408203 -0.405495,3.163896 -0.590501,6.447668 0.08398,9.191406 0.674485,2.743738 2.302346,4.97853 5.353516,5.732422 l 0.0078,0.002 h 0.0078 c 2.23257,0.475657 4.714634,0.576555 6.960937,-0.0293 2.246303,-0.605852 4.265749,-1.949716 5.419922,-4.300781 l 0.0039,-0.0078 0.0039,-0.0078 c 3.045712,-6.786513 2.975922,-14.580624 5.640625,-21.230469 l 0.0039,-0.0098 0.0039,-0.0098 c 1.084774,-3.095777 1.915351,-4.764426 2.675781,-5.66211 0.720272,-0.850276 1.377089,-1.063792 2.355469,-1.273437 0.282201,0.168794 0.941431,0.574728 1.601563,0.789062 0.187156,0.06077 0.360138,0.111889 0.580078,0.101563 0.10997,-0.0052 0.244907,-0.02708 0.382812,-0.119141 0.137906,-0.09206 0.248013,-0.270034 0.275391,-0.425781 0.05476,-0.311494 -0.05451,-0.507522 -0.185547,-0.744141 -0.131042,-0.236618 -0.32384,-0.508454 -0.599609,-0.849609 -1.161132,-1.436442 -3.904619,-3.973957 -6.550782,-6.212891 -1.323081,-1.119466 -2.61543,-2.155186 -3.664062,-2.921875 -0.524316,-0.383344 -0.986223,-0.700204 -1.371094,-0.929687 -0.384871,-0.229483 -0.625208,-0.399341 -1.021484,-0.416016 -0.203068,-0.0085 -0.392208,-0.0032 -0.59961,0.119141 -0.207401,0.122296 -0.343853,0.423042 -0.335937,0.625 0.01583,0.403915 0.200946,0.607252 0.371094,0.869141 0.170147,0.261888 0.362656,0.533292 0.501953,0.779296 0.126098,0.222697 0.173522,0.396793 0.183593,0.486329 -4.32769,8.580007 -5.600588,14.748271 -6.123046,19.517578 -0.526017,4.801795 -0.335404,8.144068 -1.726563,11.167968 -0.494051,1.073898 -1.337003,1.499816 -1.960937,1.472657 -0.311968,-0.01358 -0.566732,-0.127688 -0.75586,-0.341797 C 52.002278,86.846438 51.863248,86.515023 51.875,86.001953 l 0.002,-0.04102 -0.0059,-0.03906 c 0.01167,0.08468 0.0027,-0.17935 0.03125,-0.494141 0.02854,-0.31479 0.0758,-0.750634 0.140625,-1.292968 0.129654,-1.084668 0.327746,-2.593554 0.576172,-4.423829 0.49685,-3.660548 1.198247,-8.613173 1.96875,-14.083984 1.540998,-10.94162 3.360918,-23.952219 4.396478,-32.863279 C 59.335761,29.739977 60.020434,25.604843 60.501953,22 c 0.240759,-1.802422 0.431173,-3.471631 0.503906,-4.820313 0.07221,-1.339056 0.08931,-2.302592 -0.259765,-2.990234 -0.591508,-1.63344 -1.775754,-2.771504 -2.824219,-3.5 C 57.392263,10.321467 56.895659,10.054075 56.519531,9.875 56.331467,9.7854624 56.173259,9.7190819 56.054687,9.671875 55.995397,9.648271 55.946166,9.6294 55.90625,9.615234 55.87938,9.605694 55.85346,9.597715 55.82617,9.589843 55.78807,9.2232896 55.673508,8.8383676 55.371092,8.7070305 54.989679,8.5413858 54.48681,8.6100265 54.156248,8.964843 c 0.121694,-0.1306233 0.284286,-0.1121569 0.279297,-0.1132813 -0.005,-0.00112 -0.08474,-0.028003 -0.179688,-0.078125 -0.1899,-0.1002436 -0.455166,-0.2769399 -0.722654,-0.4257804 -0.133744,-0.07442 -0.268861,-0.1420545 -0.419922,-0.1933594 -0.15106,-0.051305 -0.333223,-0.1084954 -0.580078,-0.021484 -0.246854,0.087011 -0.424079,0.3738141 -0.453125,0.5898438 -0.0067,0.050157 0.01612,0.103459 0.01563,0.1523437 C 49.043932,7.5215503 48.293103,7.1531164 48.056641,7.0253906 47.824619,6.9000639 47.782172,6.8678229 46.388672,6.2851562 44.978543,5.1816249 43.547061,3.9804208 41.664062,3.4316406 41.292541,3.2949083 41.022658,3.1987512 40.642578,3.1679688 40.253795,3.1364814 39.774333,3.1561697 38.826172,3.1914063 37.823877,3.2286546 36.782374,2.9962448 36.039062,2.9824219 Z M 36.253906,4 c 0.564292,0.040775 1.535183,0.2313991 2.611328,0.1914062 0.947913,-0.035227 1.416721,-0.049907 1.695313,-0.027344 0.278592,0.022563 0.393976,0.068911 0.779297,0.2109375 l 0.01758,0.00586 0.01758,0.00586 c 1.657329,0.4797961 2.999618,1.5938248 4.447266,2.7246094 l 0.05469,0.041016 0.06055,0.025391 c 1.563563,0.6523443 1.350808,0.5709154 1.642578,0.7285156 0.29177,0.1576002 0.975978,0.4950881 4.1875,1.9179688 0.31906,0.1413614 0.483156,0.2776975 0.873047,0.2128905 0.194945,-0.0324 0.451131,-0.2698709 0.496094,-0.4648437 0.03166,-0.1372788 0.0025,-0.2171161 -0.01563,-0.3066406 0.20255,0.1173281 0.431493,0.2677489 0.667968,0.3925781 0.131326,0.069323 0.259437,0.1324295 0.425782,0.1699219 0.166345,0.037492 0.465308,0.040083 0.671875,-0.1816406 0.04251,-0.045628 0.06332,-0.030667 0.08398,-0.021484 -0.03411,0.1472262 -0.107619,0.3396124 0.05664,0.6035159 0.08479,0.136224 0.213452,0.214796 0.304687,0.253906 0.09123,0.03911 0.162378,0.0557 0.236328,0.07227 -0.06296,-0.0141 -0.02134,-0.0051 0.0039,0.0039 0.02524,0.009 0.06435,0.02153 0.113281,0.04101 0.09787,0.03897 0.236625,0.09986 0.404297,0.179688 0.335342,0.159657 0.78641,0.402167 1.261718,0.732422 0.950618,0.66051 1.989628,1.664996 2.478516,3.052734 l 0.0098,0.0332 0.01758,0.03125 c 0.104137,0.200837 0.220436,1.197259 0.15039,2.496094 -0.07005,1.298835 -0.258877,2.953623 -0.498046,4.744141 -0.478339,3.581035 -1.161119,7.709987 -1.517579,10.777343 -1.032924,8.888385 -2.853622,21.900861 -4.394531,32.841797 -0.770454,5.470469 -1.471222,10.42235 -1.96875,14.087891 -0.248764,1.83277 -0.447226,3.34437 -0.578125,4.439453 -0.06545,0.547542 -0.11445,0.990441 -0.144531,1.322266 -0.02772,0.305747 -0.04521,0.454729 -0.02344,0.664062 -0.0102,0.699054 0.186937,1.299955 0.558594,1.720703 0.376733,0.426494 0.910398,0.655723 1.460938,0.679688 1.10108,0.04793 2.28009,-0.676649 2.914062,-2.054688 1.519881,-3.303698 1.295222,-6.756488 1.8125,-11.478515 0.517279,-4.722028 1.746037,-10.766022 6.09375,-19.335938 l 0.05273,-0.101562 0.002,-0.113282 c 0.0093,-0.409626 -0.15639,-0.742542 -0.332032,-1.052734 -0.147555,-0.260591 -0.308679,-0.488593 -0.449218,-0.699219 0.07921,0.03722 0.05683,0.01959 0.148437,0.07422 0.339931,0.202687 0.785947,0.504825 1.294922,0.876953 1.01795,0.744257 2.297288,1.770395 3.607422,2.878906 2.620267,2.217023 5.38669,4.799909 6.419922,6.078125 0.0797,0.09859 0.09599,0.137385 0.158203,0.220703 -0.471195,-0.225872 -1.04156,-0.506478 -1.134766,-0.5625 l -0.167968,-0.101562 -0.191407,0.03906 c -1.128115,0.232816 -2.144386,0.568869 -3.060547,1.650391 -0.913779,1.078712 -1.754159,2.834127 -2.849609,5.957031 -2.763842,6.89725 -2.701364,14.668114 -5.621094,21.181641 -1.019984,2.072517 -2.741197,3.222314 -4.777343,3.771484 -2.033527,0.548464 -4.371324,0.466489 -6.478516,0.01953 -2.698535,-0.666762 -4.001847,-2.480966 -4.621094,-5 -0.619247,-2.519034 -0.461549,-5.710615 -0.0625,-8.824219 0.39905,-3.113604 1.031375,-6.143515 1.308594,-8.414063 0.138609,-1.135274 0.19845,-2.073579 0.06055,-2.808593 -0.06895,-0.367507 -0.189722,-0.700106 -0.439453,-0.960938 -0.249731,-0.260832 -0.638664,-0.390921 -1.011719,-0.359375 -0.395742,0.03347 -0.733106,0.08552 -0.994141,0.121094 -0.08493,0.01157 -0.08863,0.0074 -0.15625,0.01367 0.02545,-0.07 0.0094,-0.04886 0.05664,-0.146485 0.12849,-0.265424 0.258185,-0.36805 0.476562,-0.423828 0.218378,-0.05578 0.567274,-0.03438 1.042969,0.132813 0.357268,0.125566 0.608909,0.204786 0.875,0.21875 0.133046,0.007 0.283648,-0.0026 0.439453,-0.08203 0.155806,-0.07944 0.282738,-0.23832 0.335938,-0.376953 l 0.01563,-0.03906 0.0078,-0.04102 c 3.150228,-15.593806 6.555637,-33.908432 9.429688,-50.224609 0.04206,-0.241749 0.164087,-0.807712 0.195312,-1.441406 0.03123,-0.633695 -0.01157,-1.362597 -0.386718,-1.990235 -0.432959,-0.724396 -1.326218,-1.386684 -2.466797,-2.117187 -1.14058,-0.730503 -2.525529,-1.48166 -3.890625,-2.16211 C 49.193497,10.04416 47.849871,9.4364275 46.794922,9 46.267447,8.7817863 45.81274,8.6061411 45.457031,8.484375 45.279177,8.4234919 45.126493,8.3756641 44.994141,8.3417969 c -0.132353,-0.033867 -0.2137,-0.06872 -0.408204,-0.050781 0.07424,-0.00685 0.01611,-2.319e-4 -0.05859,-0.017578 -0.07471,-0.017346 -0.181951,-0.04754 -0.304688,-0.083984 C 43.977183,8.1165647 43.667889,8.0178384 43.349609,7.9414062 43.03133,7.8649741 42.708739,7.803553 42.375,7.8339844 42.20813,7.8492 42.030451,7.8886505 41.859375,8 c -0.171076,0.1113495 -0.314533,0.3097396 -0.367188,0.5195313 0.01552,-0.061852 0.07138,-0.1253811 0.0957,-0.140625 0.02432,-0.015244 0.01241,-0.00466 -0.02734,0 -0.07951,0.00932 -0.252998,-0.00802 -0.410156,-0.0625 C 40.993232,8.2619282 40.853544,8.1705865 40.794922,8.1054688 40.7363,8.040351 40.742527,8.0582567 40.753906,8.015625 l -0.134765,0.2304688 c 0.07517,-0.072471 0.225219,-0.1768204 0.199218,-0.4824219 -0.013,-0.1528008 -0.109365,-0.2982472 -0.191406,-0.3671875 -0.08204,-0.06894 -0.145891,-0.091817 -0.197266,-0.109375 -0.205499,-0.070233 -0.305991,-0.057811 -0.451171,-0.072266 -0.29036,-0.02891 -0.62473,-0.087058 -0.839844,-0.234375 L 39.101562,6.9550781 39.0625,6.9375 C 38.98434,6.901883 38.97551,6.890041 38.9668,6.882813 38.9711,6.849511 39.01004,6.6713963 39.0625,6.3789067 l 0.0625,-0.34375 -0.769531,-0.4472656 h -0.002 C 37.577406,5.1379489 36.984134,4.7336159 36.587891,4.3964844 36.364377,4.2063143 36.348713,4.1297728 36.253906,4 Z M 36.029297,3.4824219 c -0.376844,-0.00701 -0.584343,0.066007 -0.517578,0.3320312 0.137018,0.5459206 1.007424,1.2865544 2.591797,2.2050781 l 0.466796,0.2714844 c -0.09719,0.5418367 -0.286233,0.8411685 0.285157,1.1015625 0.687839,0.4710567 1.701584,0.218834 1.416015,0.4941407 -0.226564,0.8488285 1.566158,1.3074144 1.705078,0.7539062 0.132815,-0.5291748 1.062908,-0.2791689 1.802735,-0.058594 0.0312,-0.05935 0.06362,-0.1175093 0.09375,-0.1777343 0.05184,-0.098828 0.09853,-0.2019325 0.150391,-0.3007813 0.09389,-0.1828017 0.190264,-0.3632601 0.296874,-0.5390625 0.119375,-0.206354 0.232452,-0.416069 0.339844,-0.6289062 0.09055,-0.1853407 0.182315,-0.3715595 0.240235,-0.5703125 0.04669,-0.1668805 0.08799,-0.3353681 0.128906,-0.5039063 C 43.953601,5.0406483 42.842626,4.2909816 41.513672,3.90625 40.743314,3.6223003 40.741776,3.6209424 38.845703,3.6914062 37.758183,3.7318218 36.657369,3.4941018 36.029297,3.4824219 Z" /><path
       id="ellipse11"
       style="fill:#ffffff;stroke:#000000;stroke-width:0.728001;stroke-linecap:round;stroke-linejoin:round;stroke-miterlimit:4.7"
       inkscape:transform-center-x="-2.7617732"
       inkscape:transform-center-y="-0.35337685"
       d="m 58.679922,41.639378 a 1.4429492,1.9239318 0 0 1 -1.442949,1.923931 1.4429492,1.9239318 0 0 1 -1.442949,-1.923931 1.4429492,1.9239318 0 0 1 1.442949,-1.923932 1.4429492,1.9239318 0 0 1 1.442949,1.923932 z m -0.549694,4.672405 a 1.4429492,1.9239318 0 0 1 -1.442949,1.923932 1.4429492,1.9239318 0 0 1 -1.442949,-1.923932 1.4429492,1.9239318 0 0 1 1.442949,-1.923932 1.4429492,1.9239318 0 0 1 1.442949,1.923932 z m -0.432396,4.549213 a 1.6147288,2.0957115 0 0 1 -1.614729,2.095712 1.6147288,2.0957115 0 0 1 -1.614729,-2.095712 1.6147288,2.0957115 0 0 1 1.614729,-2.095711 1.6147288,2.0957115 0 0 1 1.614729,2.095711 z m -0.873128,5.929344 a 1.7521526,2.1644232 0 0 1 -1.752152,2.164424 1.7521526,2.1644232 0 0 1 -1.752153,-2.164424 1.7521526,2.1644232 0 0 1 1.752153,-2.164423 1.7521526,2.1644232 0 0 1 1.752152,2.164423 z m -0.950184,5.2221 a 1.7521526,2.1644232 0 0 1 -1.752152,2.164423 1.7521526,2.1644232 0 0 1 -1.752153,-2.164423 1.7521526,2.1644232 0 0 1 1.752153,-2.164423 1.7521526,2.1644232 0 0 1 1.752152,2.164423 z m -0.727365,5.53474 a 2.027,2.4736266 0 0 1 -2.027,2.473627 2.027,2.4736266 0 0 1 -2.027,-2.473627 2.027,2.4736266 0 0 1 2.027,-2.473626 2.027,2.4736266 0 0 1 2.027,2.473626 z m 4.42602,-30.099224 a 1.4429492,1.9239318 0 0 1 -1.442949,1.923932 1.4429492,1.9239318 0 0 1 -1.442949,-1.923932 1.4429492,1.9239318 0 0 1 1.442949,-1.923932 1.4429492,1.9239318 0 0 1 1.442949,1.923932 z m -5.35952,36.382923 a 2.2674913,2.5766945 0 0 1 -2.267492,2.576695 2.2674913,2.5766945 0 0 1 -2.267491,-2.576695 2.2674913,2.5766945 0 0 1 2.267491,-2.576694 2.2674913,2.5766945 0 0 1 2.267492,2.576694 z m -0.618406,6.046639 a 2.5423388,3.1263893 0 0 1 -2.542339,3.126389 2.5423388,3.1263893 0 0 1 -2.542339,-3.126389 2.5423388,3.1263893 0 0 1 2.542339,-3.12639 2.5423388,3.1263893 0 0 1 2.542339,3.12639 z"
       sodipodi:insensitive="true" /><path
       id="path19"
       style="fill:none;fill-opacity:1;stroke:#000000;stroke-width:0.728;stroke-linecap:round;stroke-linejoin:round;stroke-miterlimit:4.7;stroke-dasharray:none;stroke-opacity:1"
       d="m 43.950517,8.4723888 1.059049,-2.4846909 m 8.510666,75.8258991 1.273348,0.161474 m 0.925219,-16.793317 1.227771,0.107649 m 0.818103,-14.306606 1.343133,0.181737 M 54.395417,85.28621 59.452604,48.646079 M 56.499268,59.084388 53.146591,83.945634 M 63.32196,55.019163 c 0,0 2.89804,5.783759 9.95064,8.384718" /></g></svg>
