<svg xmlns="http://www.w3.org/2000/svg" xml:space="preserve" width="100" height="100">
    <path d="M45.299 6.068q-.048.192-.1.381c-.062.217-.16.419-.26.621q-.165.331-.35.65a8 8 0 0 0-.288.526c-.052.1-.1.201-.153.3q-.03.063-.064.124c.25.074.451.128.549.12.72-.067 10.534 4.262 11.853 6.47.581.972.222 2.556.13 3.09-2.874 16.312-6.28 34.623-9.428 50.21-.078.202-.335.188-1.018-.052q-1.599-.561-2.135.545c-.612 1.263.08.856 1.586.728 4.144-.35-6.896 23.514 4.604 26.356 4.343.925 9.654.365 11.828-4.063 2.985-6.65 2.918-14.435 5.633-21.21 2.184-6.235 3.343-6.849 5.546-7.303.286.17 3.743 2.22 1.623-.4-2.194-2.715-11.02-10.244-12.24-10.296-1.234-.052.684 1.478.662 2.442-8.747 17.241-5.005 24.504-7.916 30.832-1.128 2.452-4.042 2.3-3.986-.149-.171-1.24 5.045-35.485 7.113-53.285.708-6.091 2.735-16.528 1.813-18.307-1.074-3.048-4.49-4.302-4.623-4.332-.252-.056-.277-.097-.221-.353.113-.515-.562-.808-.936-.406-.339.364-2.314-1.738-1.89-.05.088.35-.06.376-.66.11-6.418-2.843-2.709-1.344-5.84-2.65z" style="color:#000;display:inline;fill:#fff;fill-opacity:1;-inkscape-stroke:none"/>
    <path d="M36.04 2.982c-.223-.004-.43-.012-.68.127a.73.73 0 0 0-.319.37.8.8 0 0 0-.014.457c.117.463.445.823.914 1.222.47.4 1.103.825 1.91 1.293l.176.102c-.03.133-.077.243-.064.43.011.168.08.372.209.525.115.137.266.225.428.305.464.305.968.367 1.279.398l.027.002c.047.199.024.428.145.562.218.243.491.39.771.487s.567.145.856.111a1 1 0 0 0 .441-.146c.124-.078.22-.231.285-.39-.018.013.002-.001.063-.007.122-.011.377.019.648.084.272.065.565.158.823.234q.192.06.363.1c.114.027.206.055.379.04-.105.009-.025 0 .066.023s.225.063.387.119c.324.11.765.281 1.28.494a61 61 0 0 1 3.698 1.695c1.344.67 2.706 1.41 3.8 2.11 1.092.7 1.919 1.407 2.146 1.787.205.344.274.894.248 1.43-.027.534-.131 1.026-.182 1.318-2.855 16.209-6.236 34.37-9.367 49.888-.102-.021-.19-.036-.42-.117-.59-.207-1.13-.282-1.623-.156s-.899.484-1.127.955c-.164.34-.279.573-.273.893a.75.75 0 0 0 .212.505.77.77 0 0 0 .44.202c.262.037.48-.002.754-.04.273-.037.588-.084.945-.115.145-.012.156.003.205.055.05.052.128.198.176.455.096.514.064 1.405-.07 2.502-.268 2.194-.902 5.244-1.307 8.408-.406 3.164-.59 6.448.084 9.192s2.302 4.978 5.353 5.732l.008.002h.008c2.233.476 4.715.577 6.961-.03 2.246-.605 4.266-1.949 5.42-4.3l.004-.008.004-.008c3.045-6.786 2.976-14.58 5.64-21.23l.004-.01.004-.01c1.085-3.095 1.916-4.764 2.676-5.662.72-.85 1.377-1.064 2.355-1.273.283.169.942.574 1.602.789.187.06.36.112.58.101a.73.73 0 0 0 .383-.119.7.7 0 0 0 .275-.426c.055-.311-.054-.507-.185-.744a6 6 0 0 0-.6-.85c-1.161-1.436-3.905-3.973-6.55-6.212-1.324-1.12-2.616-2.155-3.665-2.922-.524-.383-.986-.7-1.37-.93-.386-.23-.626-.4-1.022-.416-.203-.008-.393-.003-.6.12-.207.122-.344.422-.336.624.016.404.201.608.371.87.17.261.363.533.502.779.126.223.174.397.184.486-4.328 8.58-5.6 14.748-6.123 19.518-.526 4.802-.336 8.144-1.727 11.168-.494 1.074-1.337 1.5-1.96 1.472a1.03 1.03 0 0 1-.757-.341c-.189-.215-.328-.546-.316-1.059l.002-.041-.006-.04c.012.086.003-.178.031-.493.029-.315.076-.75.141-1.293.13-1.085.328-2.594.576-4.424.497-3.66 1.198-8.613 1.969-14.084 1.54-10.942 3.36-23.952 4.396-32.863.352-3.024 1.036-7.16 1.518-10.764.24-1.802.431-3.472.504-4.82.072-1.34.09-2.303-.26-2.99-.591-1.634-1.776-2.772-2.824-3.5a10 10 0 0 0-1.402-.815 8 8 0 0 0-.614-.26l-.08-.025c-.038-.367-.152-.752-.455-.883a1.09 1.09 0 0 0-1.215.258c.122-.13.285-.112.28-.113a1 1 0 0 1-.18-.079c-.19-.1-.455-.277-.723-.425a2.5 2.5 0 0 0-.42-.194c-.15-.051-.333-.108-.58-.021s-.424.374-.453.59c-.007.05.016.103.016.152-3.052-1.353-3.803-1.722-4.04-1.85-.231-.125-.274-.157-1.667-.74-1.41-1.103-2.842-2.305-4.725-2.853-.371-.137-.641-.233-1.021-.264-.39-.032-.869-.012-1.817.023-1.002.038-2.044-.195-2.787-.209M36.253 4c.564.04 1.535.231 2.611.191.948-.035 1.417-.05 1.696-.027s.394.069.779.211l.017.006.018.006c1.657.48 3 1.594 4.447 2.724l.055.041.06.026c1.564.652 1.351.57 1.643.728s.976.495 4.188 1.918c.319.142.483.278.873.213.195-.032.45-.27.496-.465.031-.137.002-.217-.016-.306.203.117.432.267.668.392.131.07.26.133.426.17s.465.04.672-.182c.042-.045.063-.03.084-.021-.034.147-.108.34.056.604a.67.67 0 0 0 .305.253c.091.04.162.056.236.073-.063-.014-.021-.005.004.004l.114.04a9 9 0 0 1 1.666.912c.95.661 1.99 1.666 2.478 3.053l.01.034.017.03c.105.202.22 1.198.15 2.497s-.258 2.954-.497 4.744c-.479 3.581-1.161 7.71-1.518 10.777-1.033 8.889-2.853 21.901-4.394 32.842-.77 5.47-1.472 10.423-1.97 14.088a304 304 0 0 0-.577 4.44q-.1.822-.145 1.322c-.027.306-.045.455-.023.664-.01.699.187 1.3.558 1.72.377.427.91.656 1.461.68 1.101.048 2.28-.676 2.914-2.054 1.52-3.304 1.296-6.757 1.813-11.479s1.746-10.766 6.094-19.336l.052-.101.002-.114c.01-.41-.156-.742-.332-1.052-.147-.261-.308-.489-.449-.7.08.038.057.02.149.075.34.202.786.504 1.295.877 1.017.744 2.297 1.77 3.607 2.878 2.62 2.217 5.387 4.8 6.42 6.079.08.098.096.137.158.22a32 32 0 0 1-1.135-.562l-.168-.102-.191.04c-1.128.232-2.144.568-3.06 1.65-.914 1.078-1.755 2.834-2.85 5.957-2.764 6.897-2.702 14.668-5.621 21.181-1.02 2.073-2.742 3.223-4.778 3.772-2.033.548-4.371.466-6.478.02-2.699-.667-4.002-2.482-4.621-5-.62-2.52-.462-5.711-.063-8.825.4-3.113 1.032-6.143 1.309-8.414.138-1.135.198-2.073.06-2.808-.069-.368-.19-.7-.44-.961-.249-.261-.638-.391-1.01-.36-.397.034-.734.086-.995.121-.085.012-.089.008-.156.014.025-.07.01-.049.056-.147.129-.265.259-.368.477-.423.218-.056.567-.035 1.043.132.357.126.609.205.875.22a.84.84 0 0 0 .44-.083.75.75 0 0 0 .335-.377l.016-.039.008-.04c3.15-15.595 6.555-33.91 9.43-50.225.042-.242.164-.808.195-1.442s-.012-1.362-.387-1.99c-.433-.725-1.326-1.387-2.467-2.117-1.14-.73-2.525-1.482-3.89-2.162A61 61 0 0 0 46.795 9a24 24 0 0 0-1.338-.516 6 6 0 0 0-.463-.142c-.132-.034-.214-.069-.408-.051.074-.007.016 0-.059-.018a6 6 0 0 1-.304-.084c-.246-.072-.555-.171-.873-.248-.319-.076-.641-.137-.975-.107a1.1 1.1 0 0 0-.516.166.9.9 0 0 0-.367.52.3.3 0 0 1 .096-.141c.024-.015.012-.005-.027 0a1.1 1.1 0 0 1-.766-.274c-.059-.065-.052-.047-.041-.09l-.135.231c.075-.072.225-.177.2-.482a.55.55 0 0 0-.389-.477c-.206-.07-.306-.058-.451-.072-.29-.03-.625-.087-.84-.235l-.037-.025-.04-.018c-.078-.035-.086-.047-.095-.054.004-.033.043-.212.096-.504l.062-.344-.77-.447h-.002c-.776-.45-1.369-.854-1.765-1.192-.224-.19-.24-.266-.334-.396m-.225-.518c-.377-.007-.584.066-.517.332.137.546 1.007 1.287 2.592 2.206l.466.271c-.097.542-.286.841.285 1.102.688.47 1.702.218 1.416.494-.226.849 1.567 1.307 1.706.754.132-.53 1.062-.28 1.802-.059q.048-.088.094-.178c.052-.099.099-.202.15-.3.094-.183.19-.364.297-.54q.18-.31.34-.628c.09-.186.182-.372.24-.57q.069-.252.13-.505c-1.076-.82-2.187-1.57-3.516-1.955-.77-.284-.772-.285-2.668-.215-1.088.04-2.189-.197-2.817-.209" style="color:#000;fill:#000;-inkscape-stroke:none"/>
    <path d="M58.68 41.64a1.443 1.924 0 0 1-1.443 1.923 1.443 1.924 0 0 1-1.443-1.924 1.443 1.924 0 0 1 1.443-1.924 1.443 1.924 0 0 1 1.443 1.924m-.55 4.672a1.443 1.924 0 0 1-1.443 1.924 1.443 1.924 0 0 1-1.443-1.924 1.443 1.924 0 0 1 1.443-1.924 1.443 1.924 0 0 1 1.443 1.924m-.432 4.549a1.615 2.096 0 0 1-1.615 2.096 1.615 2.096 0 0 1-1.615-2.096 1.615 2.096 0 0 1 1.615-2.096 1.615 2.096 0 0 1 1.615 2.096m-.873 5.93a1.752 2.164 0 0 1-1.752 2.164 1.752 2.164 0 0 1-1.753-2.165 1.752 2.164 0 0 1 1.753-2.164 1.752 2.164 0 0 1 1.752 2.164m-.95 5.221a1.752 2.164 0 0 1-1.753 2.165 1.752 2.164 0 0 1-1.752-2.165 1.752 2.164 0 0 1 1.752-2.164 1.752 2.164 0 0 1 1.753 2.164m-.728 5.535a2.027 2.474 0 0 1-2.027 2.474 2.027 2.474 0 0 1-2.027-2.474 2.027 2.474 0 0 1 2.027-2.473 2.027 2.474 0 0 1 2.027 2.473m4.426-30.099a1.443 1.924 0 0 1-1.443 1.924 1.443 1.924 0 0 1-1.443-1.924 1.443 1.924 0 0 1 1.443-1.924 1.443 1.924 0 0 1 1.443 1.924m-5.36 36.383a2.267 2.577 0 0 1-2.267 2.577 2.267 2.577 0 0 1-2.267-2.577 2.267 2.577 0 0 1 2.267-2.577 2.267 2.577 0 0 1 2.268 2.577m-.618 6.047a2.542 3.126 0 0 1-2.542 3.126 2.542 3.126 0 0 1-2.542-3.126 2.542 3.126 0 0 1 2.542-3.127 2.542 3.126 0 0 1 2.542 3.127" style="fill:#fff;stroke:#000;stroke-width:.728001;stroke-linecap:round;stroke-linejoin:round;stroke-miterlimit:4.7"/>
    <path d="m43.95 8.472 1.06-2.484m8.51 75.826 1.274.161m.925-16.793 1.228.107m.818-14.306 1.343.182m-4.713 34.121 5.058-36.64m-2.954 10.438-3.352 24.862m10.175-28.927s2.898 5.784 9.95 8.385" style="fill:none;fill-opacity:1;stroke:#000;stroke-width:.728;stroke-linecap:round;stroke-linejoin:round;stroke-miterlimit:4.7;stroke-dasharray:none;stroke-opacity:1"/>
</svg>
