<svg xmlns="http://www.w3.org/2000/svg" width="95" height="100" class="cf-icon-svg" viewBox="-3 0 95 100">
    <path d="M43.239 1.496a2.58 2.58 0 0 0-1.263 2.184v1.694c0 .962-.78 1.742-1.742 1.743H2.023C.702 7.117-.5 8.318-.5 9.639s1.202 2.525 2.523 2.525c.962 0 1.742.78 1.742 1.743v53.29c.005 1.137 1.039 2.171 2.176 2.175H39.04c1.425.002 2.247 1.617 1.41 2.77L23.913 94.844l-.004.006c-.785 1.068-.523 2.755.548 3.535s2.758.51 3.532-.566l.007-.008 15.24-20.923a1.744 1.744 0 0 1 2.828.013L60.98 97.788l.002.002c.779 1.053 2.435 1.314 3.5.553s1.351-2.413.608-3.49L48.856 72.137c-.824-1.154.001-2.756 1.42-2.756h32.783c1.137-.005 2.171-1.039 2.176-2.176V13.907c0-.962.78-1.742 1.742-1.743 1.32 0 2.523-1.202 2.523-2.523 0-1.32-1.202-2.524-2.523-2.524h-38.21c-.963 0-1.743-.78-1.743-1.743V3.68c0-.88-.5-1.744-1.263-2.184a2.58 2.58 0 0 0-2.522 0M10.555 16.908h67.89c.962 0 1.742.78 1.742 1.742v43.934c0 .963-.78 1.742-1.742 1.743h-67.89c-.962 0-1.742-.78-1.742-1.743V18.65c0-.962.78-1.742 1.742-1.742" style="stroke-width:7.7007"/>
</svg>
