<?xml version="1.0" encoding="UTF-8" standalone="no"?>
<!-- Uploaded to: SVG Repo, www.svgrepo.com, Generator: SVG Repo Mixer Tools -->

<svg
   fill="#000000"
   width="95"
   height="100"
   viewBox="-3 0 95 100"
   class="cf-icon-svg"
   version="1.1"
   id="svg1"
   sodipodi:docname="screen_1.svg"
   inkscape:version="1.3.2 (091e20e, 2023-11-25)"
   xmlns:inkscape="http://www.inkscape.org/namespaces/inkscape"
   xmlns:sodipodi="http://sodipodi.sourceforge.net/DTD/sodipodi-0.dtd"
   xmlns="http://www.w3.org/2000/svg"
   xmlns:svg="http://www.w3.org/2000/svg">
  <defs
     id="defs1" />
  <sodipodi:namedview
     id="namedview1"
     pagecolor="#ffffff"
     bordercolor="#000000"
     borderopacity="0.25"
     inkscape:showpageshadow="2"
     inkscape:pageopacity="0.0"
     inkscape:pagecheckerboard="0"
     inkscape:deskcolor="#d1d1d1"
     inkscape:current-layer="svg1" />
  <path
     id="path1"
     style="stroke-width:7.7007"
     d="M 43.238695,1.4955924 C 42.476646,1.9359805 41.97636,2.8001473 41.976328,3.6802957 v 1.6937826 c -6.5e-4,0.962176 -0.780486,1.742011 -1.742663,1.742662 H 2.0226098 c -1.32086394,0 -2.52260984,1.201746 -2.52260984,2.522609 0,1.3208657 1.2017459,2.5247367 2.52260984,2.5247367 0.9621758,6.51e-4 1.7420111,0.780485 1.7426621,1.742662 v 53.289334 c 0.00492,1.137472 1.0387279,2.171907 2.1762029,2.176202 H 39.039305 c 1.424273,0.0013 2.246408,1.617042 1.409006,2.769133 L 23.914272,94.844904 c -0.0014,0.0022 -0.0028,0.0042 -0.0042,0.0064 -0.785244,1.06774 -0.523509,2.754522 0.548301,3.534202 1.071811,0.77968 2.757987,0.51055 3.532079,-0.5653 0.0022,-0.003 0.0042,-0.006 0.0064,-0.008 L 43.236621,76.889168 c 0.700345,-0.961815 2.136994,-0.955338 2.828638,0.01275 l 14.914638,20.886448 c 5.95e-4,8e-4 0.0015,0.001 0.0022,0.002 0.778514,1.05225 2.435353,1.31405 3.500201,0.55256 1.064497,-0.76124 1.350945,-2.412673 0.607807,-3.489582 L 48.855593,72.137166 c -0.823194,-1.154272 0.0018,-2.756269 1.419632,-2.756381 h 32.783301 c 1.137866,-0.0044 2.171902,-1.038335 2.176202,-2.176203 V 13.906748 c 6.51e-4,-0.962176 0.780486,-1.742011 1.742662,-1.742662 1.320427,-2.84e-4 2.522326,-1.202183 2.52261,-2.5226097 3.74e-4,-1.320846 -1.201764,-2.524452 -2.52261,-2.524736 H 48.766335 c -0.962177,-6.51e-4 -1.742012,-0.780486 -1.742663,-1.742662 V 3.6802957 c 3e-6,-0.8807328 -0.499522,-1.7445229 -1.262367,-2.1847033 -0.758063,-0.4374217 -1.761,-0.4402146 -2.52261,0 z M 10.55528,16.907527 h 67.889442 c 0.962175,6.51e-4 1.742011,0.780487 1.742661,1.742662 v 43.934213 c -6.5e-4,0.962176 -0.780485,1.742012 -1.742661,1.742663 H 10.55528 C 9.5931029,64.326414 8.8132679,63.546578 8.8126169,62.584402 V 18.650189 c 6.51e-4,-0.962176 0.780486,-1.742011 1.7426631,-1.742662 z"
     sodipodi:nodetypes="ccccssccccccccsccccccscccccccccccsscccccccccc" />
</svg>
