<?xml version="1.0" encoding="UTF-8" standalone="no"?>
<!-- Generator: Adobe Illustrator 19.0.0, SVG Export Plug-In . SVG Version: 6.00 Build 0)  -->

<svg
   version="1.1"
   id="Layer_1"
   x="0px"
   y="0px"
   viewBox="0 0 120 120"
   xml:space="preserve"
   sodipodi:docname="screen_2.svg"
   width="120"
   height="120"
   inkscape:version="1.3.2 (091e20e, 2023-11-25)"
   xmlns:inkscape="http://www.inkscape.org/namespaces/inkscape"
   xmlns:sodipodi="http://sodipodi.sourceforge.net/DTD/sodipodi-0.dtd"
   xmlns="http://www.w3.org/2000/svg"
   xmlns:svg="http://www.w3.org/2000/svg"><defs
   id="defs17" /><sodipodi:namedview
   id="namedview17"
   pagecolor="#ffffff"
   bordercolor="#000000"
   borderopacity="0.25"
   inkscape:showpageshadow="2"
   inkscape:pageopacity="0.0"
   inkscape:pagecheckerboard="0"
   inkscape:deskcolor="#d1d1d1"
   inkscape:current-layer="Layer_1" />
<g
   id="g2"
   transform="matrix(0.39073157,0,0,0.39073157,4.157394e-5,1.6371686e-7)">
	<g
   id="g1">
		<path
   d="m 299.257,35.934 c 2.761,0 5,-2.238 5,-5 V 5 c 0,-2.762 -2.239,-5 -5,-5 H 7.859 c -2.761,0 -5,2.238 -5,5 v 25.934 c 0,2.762 2.239,5 5,5 H 17.31 V 191.738 H 7.859 c -2.761,0 -5,2.238 -5,5 v 25.934 c 0,2.762 2.239,5 5,5 h 140.699 v 15.399 l -54.567,55.541 c -1.935,1.97 -1.907,5.136 0.063,7.07 1.969,1.938 5.136,1.907 7.071,-0.063 l 19.347,-19.692 h 66.172 l 19.347,19.692 c 1.934,1.97 5.102,1.998 7.071,0.063 1.97,-1.935 1.998,-5.101 0.063,-7.07 l -54.567,-55.541 v -15.399 h 140.699 c 2.761,0 5,-2.238 5,-5 v -25.934 c 0,-2.762 -2.239,-5 -5,-5 h -9.451 V 35.934 Z M 176.819,275.927 h -46.523 l 23.261,-23.677 z m 117.438,-74.19 v 15.934 H 12.859 v -15.934 h 9.451 262.496 z m -266.947,-10 V 35.934 H 279.806 V 191.737 Z M 12.859,25.934 V 10 h 281.398 v 15.934 c -14.982,0 -267.484,0 -281.398,0 z"
   id="path1" />
	</g>
</g>
<g
   id="g3"
   transform="translate(-2.859)">
</g>
<g
   id="g4"
   transform="translate(-2.859)">
</g>
<g
   id="g5"
   transform="translate(-2.859)">
</g>
<g
   id="g6"
   transform="translate(-2.859)">
</g>
<g
   id="g7"
   transform="translate(-2.859)">
</g>
<g
   id="g8"
   transform="translate(-2.859)">
</g>
<g
   id="g9"
   transform="translate(-2.859)">
</g>
<g
   id="g10"
   transform="translate(-2.859)">
</g>
<g
   id="g11"
   transform="translate(-2.859)">
</g>
<g
   id="g12"
   transform="translate(-2.859)">
</g>
<g
   id="g13"
   transform="translate(-2.859)">
</g>
<g
   id="g14"
   transform="translate(-2.859)">
</g>
<g
   id="g15"
   transform="translate(-2.859)">
</g>
<g
   id="g16"
   transform="translate(-2.859)">
</g>
<g
   id="g17"
   transform="translate(-2.859)">
</g>
</svg>
