<svg xmlns="http://www.w3.org/2000/svg" xml:space="preserve" width="30" height="50">
    <path d="M368 512H144c-17.6 0-32-14.4-32-32V32c0-17.6 14.4-32 32-32h224c17.6 0 32 14.4 32 32v448c0 17.6-14.4 32-32 32" style="fill:#333" transform="translate(-5 5)scale(.07813)"/>
    <path d="M135.456 50.672h241.28v372h-241.28z" style="fill:#fff" transform="translate(-5 5)scale(.07813)"/>
    <path d="M345.232 25.328a7.79 7.79 0 0 1-7.792 7.792 7.79 7.79 0 0 1-7.792-7.792 7.79 7.79 0 0 1 7.792-7.792 7.79 7.79 0 0 1 7.792 7.792m-24.624 0a7.79 7.79 0 0 1-7.792 7.792 7.79 7.79 0 0 1-7.792-7.792 7.79 7.79 0 0 1 7.792-7.792 7.79 7.79 0 0 1 7.792 7.792m-56.656 0a7.79 7.79 0 0 1-7.792 7.792 7.79 7.79 0 0 1-7.792-7.792 7.79 7.79 0 0 1 7.792-7.792 7.79 7.79 0 0 1 7.792 7.792m-7.776 464.128c-12.496 0-22.656-10.176-22.656-22.672s10.16-22.672 22.656-22.672 22.672 10.176 22.672 22.672-10.176 22.672-22.672 22.672m0-37.344c-8.08 0-14.656 6.576-14.656 14.672s6.576 14.672 14.656 14.672c8.096 0 14.672-6.576 14.672-14.672s-6.576-14.672-14.672-14.672" style="fill:#d6d6d6" transform="translate(-5 5)scale(.07813)"/>
</svg>
