<?xml version="1.0" encoding="UTF-8" standalone="no"?>
<!-- Uploaded to: SVG Repo, www.svgrepo.com, Generator: SVG Repo Mixer Tools -->

<svg
   version="1.1"
   id="Layer_1"
   viewBox="0 0 30 50"
   xml:space="preserve"
   sodipodi:docname="smartphone_1.svg"
   inkscape:version="1.3.2 (091e20e, 2023-11-25)"
   width="30"
   height="50"
   xmlns:inkscape="http://www.inkscape.org/namespaces/inkscape"
   xmlns:sodipodi="http://sodipodi.sourceforge.net/DTD/sodipodi-0.dtd"
   xmlns="http://www.w3.org/2000/svg"
   xmlns:svg="http://www.w3.org/2000/svg"><defs
   id="defs7">
	
	
	
	
</defs><sodipodi:namedview
   id="namedview7"
   pagecolor="#ffffff"
   bordercolor="#000000"
   borderopacity="0.25"
   inkscape:showpageshadow="2"
   inkscape:pageopacity="0.0"
   inkscape:pagecheckerboard="0"
   inkscape:deskcolor="#d1d1d1"
   inkscape:current-layer="Layer_1" />


<g
   id="g7"
   inkscape:label="phone"
   transform="matrix(0.078125,0,0,0.078125,-5,5)"><path
     style="fill:#333333"
     d="M 368,512 H 144 c -17.6,0 -32,-14.4 -32,-32 V 32 C 112,14.4 126.4,0 144,0 h 224 c 17.6,0 32,14.4 32,32 v 448 c 0,17.6 -14.4,32 -32,32 z"
     id="path1" /><rect
     x="135.45599"
     y="50.672001"
     style="fill:#ffffff"
     width="241.28"
     height="372"
     id="rect1" /><path
     id="circle4"
     style="fill:#d6d6d6"
     d="m 345.232,25.327999 a 7.7919998,7.7919998 0 0 1 -7.792,7.792 7.7919998,7.7919998 0 0 1 -7.792,-7.792 7.7919998,7.7919998 0 0 1 7.792,-7.792 7.7919998,7.7919998 0 0 1 7.792,7.792 z m -24.62399,0 a 7.7919998,7.7919998 0 0 1 -7.792,7.792 7.7919998,7.7919998 0 0 1 -7.792,-7.792 7.7919998,7.7919998 0 0 1 7.792,-7.792 7.7919998,7.7919998 0 0 1 7.792,7.792 z m -56.65601,0 a 7.7919998,7.7919998 0 0 1 -7.792,7.792 7.7919998,7.7919998 0 0 1 -7.792,-7.792 7.7919998,7.7919998 0 0 1 7.792,-7.792 7.7919998,7.7919998 0 0 1 7.792,7.792 z M 256.176,489.456 c -12.496,0 -22.656,-10.176 -22.656,-22.672 0,-12.496 10.16,-22.672 22.656,-22.672 12.496,0 22.672,10.176 22.672,22.672 0,12.496 -10.176,22.672 -22.672,22.672 z m 0,-37.344 c -8.08,0 -14.656,6.576 -14.656,14.672 0,8.096 6.576,14.672 14.656,14.672 8.096,0 14.672,-6.576 14.672,-14.672 0,-8.096 -6.576,-14.672 -14.672,-14.672 z" /></g>

</svg>
