<svg xmlns="http://www.w3.org/2000/svg" xml:space="preserve" width="100" height="100"><path d="M47.07 72.54v3.989a1.21 1.21 0 0 0 .862 1.162l-8.896 15.486a1.214 1.214 0 1 0 2.106 1.21l7.644-13.306v6.477a1.214 1.214 0 1 0 2.429 0v-6.442l7.554 13.267a1.214 1.214 0 0 0 1.657.455 1.214 1.214 0 0 0 .454-1.657l-8.82-15.488a1.21 1.21 0 0 0 .87-1.164V49.857h10.957a1.214 1.214 0 0 0 1.214-1.214v-36.03q0-.058-.006-.117l-.007-.053q-.004-.03-.009-.061-.007-.033-.015-.064l-.012-.048-.022-.066-.01-.03-2.489-6.4A1.21 1.21 0 0 0 61.4 5H38.601a1.21 1.21 0 0 0-1.132.774l-2.488 6.4-.01.03-.022.066-.012.047q-.008.032-.015.065l-.01.06-.007.054a1 1 0 0 0-.006.117v36.03a1.214 1.214 0 0 0 1.214 1.214H47.07Zm4.645-25.112H37.328v-33.6h20.194a1.214 1.214 0 1 0 0-2.429H37.888l1.544-3.97h21.136l1.544 3.97H60.8a1.214 1.214 0 1 0 0 2.429h1.871v33.6Zm-1.214 27.886h-1.002v-1.56h1.002zm0-3.988h-1.002V49.857h1.002zM50 27.445c-5.43 0-9.845 4.416-9.845 9.844s4.416 9.844 9.844 9.844 9.844-4.416 9.844-9.844-4.416-9.844-9.844-9.844m0 17.26c-4.089 0-7.415-3.327-7.415-7.416S45.91 29.874 50 29.874s7.416 3.326 7.416 7.415-3.327 7.416-7.416 7.416m0-10.587a3.174 3.174 0 0 0-3.17 3.171A3.174 3.174 0 0 0 50 40.46a3.174 3.174 0 0 0 3.17-3.17A3.174 3.174 0 0 0 50 34.12m0 3.912a.743.743 0 1 1 .002-1.485A.743.743 0 0 1 50 38.03m6.219-.742A6.226 6.226 0 0 1 50 43.508a6.226 6.226 0 0 1-6.218-6.219A6.226 6.226 0 0 1 50 31.07a6.23 6.23 0 0 1 5.103 2.664 1.214 1.214 0 0 1-1.992 1.39 3.8 3.8 0 0 0-3.11-1.625c-2.09 0-3.79 1.7-3.79 3.79s1.7 3.79 3.79 3.79 3.79-1.7 3.79-3.79a1.214 1.214 0 1 1 2.428 0m5.23-21.817q0-.023-.002-.044l-.011-.074-.007-.044-.017-.066-.013-.05-.018-.05-.023-.06-.018-.039-.034-.069-.02-.034-.043-.068-.024-.033-.05-.063-.004-.007-.028-.03q-.023-.026-.048-.05-.022-.022-.044-.04L61 14.61l-.051-.037q-.022-.017-.045-.032l-.054-.033-.048-.027-.053-.026-.056-.024-.05-.02-.063-.02-.05-.013-.065-.014-.055-.009-.061-.008-.068-.003-.043-.002h-2.792a1.214 1.214 0 0 0-1.215 1.214c0 .522.33.966.793 1.138l-3.092 2.626h-7.867l-3.001-2.55h10.723a1.214 1.214 0 1 0 0-2.428H39.76l-.043.002q-.034 0-.068.003l-.06.008-.056.009q-.033.006-.064.014l-.051.013-.062.02-.05.02-.056.024-.054.026-.048.027-.054.033q-.023.015-.045.032-.026.017-.05.038-.023.018-.045.038l-.044.04-.048.051-.028.03-.005.007q-.026.03-.048.063l-.025.033q-.023.033-.042.068l-.02.034q-.019.033-.034.068l-.019.04-.022.059-.019.051-.012.05q-.01.033-.017.066l-.007.044q-.007.038-.012.074 0 .023-.003.044-.004.038-.004.077v9.974q0 .038.004.077 0 .023.003.044.005.037.012.074l.007.044q.007.033.017.066l.012.05.02.051.021.06.02.039q.014.035.032.068l.02.034.043.068.025.033q.023.032.048.063l.005.007.022.022q.029.033.06.064l.04.036a1 1 0 0 0 .1.08l.058.039.048.029q.031.018.064.033l.046.022q.038.016.078.03l.037.014q.047.015.096.026l.024.006q.057.012.116.019l.01.001q.062.007.127.007h20.48q.064 0 .127-.007l.01-.001q.058-.007.115-.019l.024-.006q.05-.011.097-.026.018-.007.037-.013l.078-.03.045-.023.065-.033.048-.03a1 1 0 0 0 .103-.072l.055-.046.039-.036q.032-.03.06-.064l.022-.022.005-.007q.025-.03.049-.063l.024-.033q.023-.033.043-.068l.02-.034q.018-.034.034-.07.01-.018.018-.037l.023-.062q.01-.024.018-.05l.013-.05.017-.065.007-.044q.007-.038.011-.075l.003-.043q.004-.038.004-.077v-9.974q0-.038-.004-.077m-17.705 5.064-2.77 2.353v-4.706zm2.322 1.215h7.867l3 2.55H43.067Zm10.188-1.215 2.77-2.353v4.706z" style="stroke-width:.999999"/></svg>