<?xml version="1.0" encoding="UTF-8" standalone="no"?>
<!-- Uploaded to: SVG Repo, www.svgrepo.com, Generator: SVG Repo Mixer Tools -->

<svg
   fill="#000000"
   height="60"
   width="35"
   version="1.1"
   id="Capa_1"
   viewBox="0 0 35 60"
   xml:space="preserve"
   sodipodi:docname="speaker_3.svg"
   inkscape:version="1.3.2 (091e20e, 2023-11-25)"
   xmlns:inkscape="http://www.inkscape.org/namespaces/inkscape"
   xmlns:sodipodi="http://sodipodi.sourceforge.net/DTD/sodipodi-0.dtd"
   xmlns="http://www.w3.org/2000/svg"
   xmlns:svg="http://www.w3.org/2000/svg"><defs
   id="defs1" /><sodipodi:namedview
   id="namedview1"
   pagecolor="#ffffff"
   bordercolor="#000000"
   borderopacity="0.25"
   inkscape:showpageshadow="2"
   inkscape:pageopacity="0.0"
   inkscape:pagecheckerboard="0"
   inkscape:deskcolor="#d1d1d1"
   inkscape:current-layer="Capa_1" />
<path
   d="m 17.499909,50.894871 c 5.797004,0 10.513209,-4.716206 10.513209,-10.513119 0,-5.796913 -4.716205,-10.513209 -10.513209,-10.513209 -5.797004,0 -10.5132091,4.716205 -10.5132091,10.513118 0,5.796914 4.7162051,10.51321 10.5132091,10.51321 z m 0,-19.664549 c 5.046119,0 9.15143,4.105311 9.15143,9.151339 0,5.046029 -4.105311,9.151339 -9.15143,9.151339 -5.046119,0 -9.1514297,-4.10531 -9.1514297,-9.151339 0,-5.046028 4.1053107,-9.151339 9.1514297,-9.151339 z m -3.958329,9.151339 c 0,2.18266 1.77576,3.95833 3.958329,3.95833 2.182569,0 3.95833,-1.77567 3.95833,-3.95833 0,-2.18266 -1.77567,-3.958329 -3.95833,-3.958329 -2.18266,0 -3.958329,1.77576 -3.958329,3.958329 z m 6.554879,0 c 0,1.431775 -1.164775,2.596551 -2.59655,2.596551 -1.431775,0 -2.59655,-1.164776 -2.59655,-2.596551 0,-1.431774 1.164866,-2.59655 2.59655,-2.59655 1.431684,0 2.59655,1.164866 2.59655,2.59655 z m -2.59655,-2.319564 c 1.278983,0 2.319564,1.040581 2.319564,2.319655 0,0.376033 -0.304857,0.68089 -0.680889,0.68089 -0.376033,0 -0.68089,-0.304857 -0.68089,-0.68089 0,-0.528189 -0.429687,-0.957875 -0.957785,-0.957875 -0.376033,0 -0.68089,-0.304857 -0.68089,-0.68089 0,-0.376033 0.304857,-0.68089 0.68089,-0.68089 z m 0,-19.101952 c -1.580209,0 -2.865819,1.285611 -2.865819,2.86582 0,1.580208 1.28561,2.865819 2.865819,2.865819 1.580209,0 2.865819,-1.285611 2.865819,-2.865819 0,-1.580209 -1.28561,-2.86582 -2.865819,-2.86582 z m 0,4.36986 c -0.829324,0 -1.50404,-0.674717 -1.50404,-1.50404 0,-0.829324 0.674716,-1.50404 1.50404,-1.50404 0.829324,0 1.50404,0.674716 1.50404,1.50404 0,0.829323 -0.674716,1.50404 -1.50404,1.50404 z M 9.1717203,40.381661 c 0,-4.592192 3.7359967,-8.328188 8.3281887,-8.328188 2.720835,0 5.275806,1.333908 6.834589,3.568134 0.215161,0.308398 0.139628,0.732819 -0.16877,0.94798 -0.308397,0.215161 -0.732909,0.139628 -0.94798,-0.168861 -1.304221,-1.86945 -3.441761,-2.985474 -5.717748,-2.985474 -3.841307,0 -6.96641,3.125102 -6.96641,6.966409 0,3.841308 3.125103,6.96641 6.96641,6.96641 3.841307,0 6.966409,-3.125102 6.966409,-6.96641 0,-0.376032 0.304857,-0.680889 0.68089,-0.680889 0.376033,0 0.68089,0.304857 0.68089,0.680889 0,4.592193 -3.735997,8.328189 -8.328189,8.328189 -4.592193,0 -8.3282797,-3.735996 -8.3282797,-8.328189 z M 17.499909,29.061734 c 3.989832,0 7.23577,-3.245937 7.23577,-7.235769 0,-3.989832 -3.245938,-7.23577 -7.23577,-7.23577 -3.989832,0 -7.235769,3.245938 -7.235769,7.23577 0,3.989832 3.245937,7.235769 7.235769,7.235769 z m 0,-13.109759 c 3.238947,0 5.87399,2.635043 5.87399,5.87399 0,3.238946 -2.635043,5.87399 -5.87399,5.87399 -3.238947,0 -5.87399,-2.635044 -5.87399,-5.87399 0,-3.238947 2.635043,-5.87399 5.87399,-5.87399 z m -5.217431,5.87399 c 0,-2.876896 2.340536,-5.217431 5.217431,-5.217431 1.704494,0 3.30513,0.835588 4.281616,2.235134 0.211076,0.302587 0.136904,0.718928 -0.165592,0.930095 -0.302588,0.211076 -0.71902,0.136904 -0.930096,-0.165592 C 19.95901,18.5665 18.767998,17.94453 17.499909,17.94453 c -2.140263,0 -3.881434,1.741171 -3.881434,3.881435 0,2.140263 1.741262,3.881434 3.881434,3.881434 2.140173,0 3.881435,-1.741262 3.881435,-3.881434 0,-0.368952 0.299046,-0.667999 0.667998,-0.667999 0.368951,0 0.667998,0.299047 0.667998,0.667999 0,2.876895 -2.340536,5.21743 -5.217431,5.21743 -2.876895,0 -5.217431,-2.340535 -5.217431,-5.21743 z m 21.19882,-10.822787 c -9.08e-4,-0.0071 -0.0021,-0.01398 -0.0032,-0.02097 -0.0034,-0.02179 -0.0077,-0.04322 -0.01307,-0.06428 -0.0015,-0.0061 -0.003,-0.01216 -0.0047,-0.01825 -0.01534,-0.05402 -0.03722,-0.105129 -0.06464,-0.152791 -0.0014,-0.0024 -0.0024,-0.005 -0.0037,-0.0074 L 30.192419,5.3340899 C 30.069859,5.1270086 29.847072,5 29.606491,5 H 5.3933272 C 5.1527462,5 4.9299591,5.1270086 4.8073989,5.3340899 L 1.6079436,10.739446 c -0.00136,0.0022 -0.00227,0.0047 -0.00354,0.007 -0.027599,0.04775 -0.049478,0.09914 -0.064912,0.153337 -0.00163,0.0058 -0.00309,0.0118 -0.00454,0.0177 -0.00545,0.02124 -0.0098,0.04285 -0.013164,0.06473 -0.00109,0.0069 -0.00227,0.0138 -0.00318,0.0207 -0.00336,0.02733 -0.00554,0.05493 -0.00554,0.08316 v 0 c 0,0 0,0 0,0 V 54.31911 C 1.513073,54.695143 1.81793,55 2.1939627,55 H 32.806037 c 0.376033,0 0.68089,-0.304857 0.68089,-0.68089 V 11.086337 c -9.1e-5,-0.02823 -0.0023,-0.05592 -0.0056,-0.08316 z M 2.8747616,53.638402 V 11.767136 H 24.600953 c 0.376033,0 0.68089,-0.304857 0.68089,-0.68089 0,-0.376033 -0.304857,-0.68089 -0.68089,-0.68089 H 3.3881524 L 5.7815251,6.3617794 H 29.218293 l 2.393464,4.0436676 h -2.640854 c -0.376032,0 -0.680889,0.304766 -0.680889,0.68089 0,0.376032 0.304857,0.68089 0.680889,0.68089 h 3.154154 V 53.638493 H 2.8747616 Z M 30.309532,12.715661 H 4.6907398 c -0.3760327,0 -0.6808897,0.304857 -0.6808897,0.680889 v 38.793645 c 0,0.376033 0.304857,0.68089 0.6808897,0.68089 H 30.309532 c 0.376033,0 0.68089,-0.304857 0.68089,-0.68089 V 13.39655 c 0,-0.376032 -0.304857,-0.680889 -0.68089,-0.680889 z M 29.628643,51.509305 H 5.3716295 V 14.07744 H 29.628643 Z"
   id="path1"
   style="stroke-width:0.0907853" />
</svg>
