<svg xmlns="http://www.w3.org/2000/svg" xml:space="preserve" width="800" height="800" viewBox="0 0 555.804 555.804"><path d="M259.81 417.115v24.633a7.5 7.5 0 0 0 5.322 7.176l-54.94 95.643a7.5 7.5 0 1 0 13.007 7.471l47.205-82.177v40.004c0 4.142 3.357 7.5 7.5 7.5s7.5-3.358 7.5-7.5v-39.789l46.656 81.937a7.497 7.497 0 0 0 10.228 2.807 7.5 7.5 0 0 0 2.807-10.229l-54.468-95.655a7.5 7.5 0 0 0 5.369-7.188V277.03h67.668a7.5 7.5 0 0 0 7.5-7.5V47.021q0-.364-.037-.726c-.011-.112-.031-.22-.046-.33-.018-.125-.033-.251-.057-.375-.026-.133-.06-.263-.093-.394-.025-.098-.047-.197-.076-.295q-.063-.206-.137-.407c-.022-.063-.04-.128-.064-.19L355.291 4.783A7.5 7.5 0 0 0 348.301 0H207.503a7.5 7.5 0 0 0-6.99 4.783L185.15 44.304c-.024.061-.04.124-.062.185-.049.137-.098.273-.139.413q-.04.143-.074.287c-.033.133-.068.265-.094.401-.024.122-.039.245-.056.369-.016.112-.036.223-.047.336a8 8 0 0 0-.036.72V269.53a7.5 7.5 0 0 0 7.5 7.5h67.669zm28.685-155.085h-88.854V54.521h124.716c4.143 0 7.5-3.358 7.5-7.5s-3.357-7.5-7.5-7.5H203.103L212.635 15H343.17l9.531 24.521h-8.096c-4.143 0-7.5 3.358-7.5 7.5s3.357 7.5 7.5 7.5h11.558V262.03zm-7.5 172.218h-6.186v-9.633h6.186zm0-24.633h-6.186V277.03h6.186zm-3.093-271c-33.523 0-60.797 27.273-60.797 60.797s27.273 60.797 60.797 60.797 60.797-27.273 60.797-60.797-27.273-60.797-60.797-60.797m0 106.594c-25.253 0-45.797-20.544-45.797-45.797s20.544-45.797 45.797-45.797 45.797 20.544 45.797 45.797-20.544 45.797-45.797 45.797m0-65.378c-10.797 0-19.581 8.784-19.581 19.581s8.784 19.581 19.581 19.581 19.581-8.784 19.581-19.581-8.784-19.581-19.581-19.581m0 24.162c-2.526 0-4.581-2.055-4.581-4.581s2.055-4.581 4.581-4.581 4.581 2.055 4.581 4.581-2.054 4.581-4.581 4.581m38.406-4.581c0 21.177-17.229 38.405-38.405 38.405s-38.405-17.229-38.405-38.405 17.229-38.406 38.405-38.406a38.46 38.46 0 0 1 31.516 16.451 7.5 7.5 0 0 1-12.302 8.583 23.45 23.45 0 0 0-19.213-10.034c-12.905 0-23.405 10.5-23.405 23.406s10.5 23.405 23.405 23.405 23.405-10.5 23.405-23.405a7.5 7.5 0 1 1 14.999 0m32.306-134.739c-.006-.089-.007-.179-.017-.268-.016-.153-.044-.306-.07-.458-.015-.091-.025-.184-.044-.274-.028-.136-.068-.27-.104-.405-.027-.102-.049-.206-.08-.307-.032-.104-.076-.206-.113-.309-.046-.127-.087-.255-.14-.379-.034-.08-.076-.156-.113-.235-.067-.144-.132-.288-.208-.427-.039-.071-.085-.138-.126-.208-.084-.143-.168-.287-.261-.424-.047-.069-.101-.134-.151-.201a7 7 0 0 0-.301-.392l-.031-.041c-.055-.065-.116-.122-.173-.184-.097-.107-.193-.214-.296-.315-.088-.087-.181-.166-.273-.248q-.133-.121-.271-.236-.156-.123-.316-.237-.135-.1-.274-.194a7 7 0 0 0-.333-.202q-.149-.089-.301-.171-.163-.083-.328-.158a7 7 0 0 0-.344-.152q-.155-.061-.313-.115a7 7 0 0 0-.382-.127 7 7 0 0 0-.313-.08c-.131-.032-.262-.065-.397-.091q-.172-.03-.343-.052-.187-.029-.377-.049c-.138-.013-.277-.016-.416-.021-.089-.003-.176-.013-.266-.013h-17.247a7.5 7.5 0 0 0-7.5 7.5c0 3.224 2.038 5.965 4.894 7.025l-19.094 16.221h-48.583L235.074 72.7h66.22c4.143 0 7.5-3.358 7.5-7.5s-3.357-7.5-7.5-7.5h-86.632c-.09 0-.177.01-.266.013-.139.005-.277.008-.416.021-.127.011-.252.031-.377.049q-.172.022-.343.052-.2.04-.397.091c-.105.026-.209.05-.313.08a7 7 0 0 0-.382.127q-.158.054-.313.115a8 8 0 0 0-.343.152q-.165.075-.329.158-.152.082-.301.171-.169.096-.333.202-.14.094-.274.194c-.106.077-.213.153-.316.237q-.138.114-.271.236c-.092.082-.184.161-.273.248-.103.101-.199.208-.296.315-.057.063-.118.119-.173.184l-.031.041c-.106.126-.203.259-.301.392-.05.068-.104.133-.151.201-.094.137-.177.281-.261.424-.041.07-.087.137-.126.208-.074.136-.138.278-.204.419-.038.082-.082.161-.117.243-.051.12-.091.245-.136.368-.039.106-.083.211-.117.319-.031.1-.053.205-.08.307-.036.135-.076.269-.104.405-.019.09-.029.183-.044.274-.026.153-.054.305-.07.458-.009.088-.01.179-.017.268-.011.159-.023.318-.024.478q-.001.027-.003.052v61.492q0 .027.003.052c.001.159.013.319.024.478.006.089.007.179.017.268.016.153.044.306.07.458.015.091.025.184.044.274.028.136.068.27.104.405.027.102.049.206.08.307.034.107.078.212.117.319.045.123.085.248.136.368.035.083.079.162.117.243.066.141.129.283.204.419.039.071.085.138.126.208.084.143.168.287.261.424.047.069.101.134.151.201q.144.201.301.392l.031.041c.042.049.089.091.132.139q.18.203.375.395.119.112.241.219a8 8 0 0 0 .624.499q.173.123.354.236.145.093.295.179.197.11.401.208c.093.045.184.093.279.134q.238.101.483.188c.076.027.151.059.228.083q.292.092.594.161c.051.012.1.028.151.039q.35.073.711.113.031.004.062.01.388.041.787.042H341.14q.399 0 .787-.042.031-.004.062-.01.36-.04.711-.113c.051-.011.1-.027.151-.039q.302-.069.594-.161c.077-.025.152-.056.228-.083q.246-.087.484-.188c.094-.041.186-.089.278-.134a8 8 0 0 0 .401-.208q.149-.086.295-.179a8 8 0 0 0 .636-.447 7 7 0 0 0 .342-.288q.122-.107.241-.219.195-.19.375-.395c.043-.048.09-.089.132-.139l.031-.041c.106-.126.203-.259.301-.392.05-.068.104-.133.151-.201.094-.137.177-.281.261-.424.041-.07.087-.137.126-.208.076-.138.141-.283.208-.427.037-.079.079-.155.113-.235.052-.123.094-.252.14-.379.037-.103.08-.205.113-.309.031-.1.053-.205.08-.307.036-.135.076-.269.104-.405.019-.09.029-.183.044-.274.026-.153.054-.305.07-.458.009-.088.01-.179.017-.268.011-.159.023-.318.024-.478q.002-.027.003-.052v-61.49q0-.027-.003-.052c-.003-.16-.015-.319-.026-.478M239.272 95.949l-17.108 14.533V81.415zm14.339 7.5h48.583l18.535 15.746h-85.652zm62.922-7.5 17.108-14.534v29.067z"/></svg>