<svg xmlns="http://www.w3.org/2000/svg" xml:space="preserve" width="35" height="60">
    <path d="M17.5 50.895c5.797 0 10.513-4.716 10.513-10.513S23.297 29.869 17.5 29.869 6.987 34.585 6.987 40.382 11.703 50.895 17.5 50.895m0-19.665c5.046 0 9.151 4.106 9.151 9.152s-4.105 9.151-9.151 9.151-9.152-4.105-9.152-9.151 4.106-9.152 9.152-9.152m-3.958 9.152A3.963 3.963 0 0 0 17.5 44.34a3.963 3.963 0 0 0 3.958-3.958 3.963 3.963 0 0 0-3.958-3.959 3.963 3.963 0 0 0-3.958 3.959m6.554 0a2.6 2.6 0 0 1-2.596 2.596 2.6 2.6 0 0 1-2.597-2.596 2.6 2.6 0 0 1 2.597-2.597 2.6 2.6 0 0 1 2.596 2.597m-2.596-2.32c1.279 0 2.32 1.04 2.32 2.32a.68.68 0 0 1-1.362 0 .96.96 0 0 0-.958-.958.68.68 0 0 1 0-1.362m0-19.102a2.87 2.87 0 0 0-2.866 2.866 2.87 2.87 0 0 0 2.866 2.866 2.87 2.87 0 0 0 2.866-2.866A2.87 2.87 0 0 0 17.5 18.96m0 4.37c-.83 0-1.504-.675-1.504-1.504 0-.83.675-1.504 1.504-1.504.83 0 1.504.675 1.504 1.504 0 .83-.675 1.504-1.504 1.504M9.172 40.382c0-4.593 3.736-8.329 8.328-8.329a8.34 8.34 0 0 1 6.834 3.569.68.68 0 1 1-1.116.779 6.98 6.98 0 0 0-5.718-2.986 6.974 6.974 0 0 0-6.966 6.967 6.974 6.974 0 0 0 6.966 6.966 6.974 6.974 0 0 0 6.966-6.966.68.68 0 0 1 1.362 0c0 4.592-3.736 8.328-8.328 8.328s-8.328-3.736-8.328-8.328m8.328-11.32c3.99 0 7.236-3.246 7.236-7.236S21.49 14.59 17.5 14.59s-7.236 3.246-7.236 7.236 3.246 7.236 7.236 7.236m0-13.11a5.88 5.88 0 0 1 5.874 5.874A5.88 5.88 0 0 1 17.5 27.7a5.88 5.88 0 0 1-5.874-5.874 5.88 5.88 0 0 1 5.874-5.874m-5.218 5.874a5.223 5.223 0 0 1 5.218-5.217c1.704 0 3.305.835 4.282 2.235a.668.668 0 0 1-1.096.764 3.89 3.89 0 0 0-3.186-1.663 3.886 3.886 0 0 0-3.882 3.881 3.886 3.886 0 0 0 3.882 3.881 3.886 3.886 0 0 0 3.881-3.881.668.668 0 1 1 1.336 0 5.223 5.223 0 0 1-5.217 5.217 5.223 5.223 0 0 1-5.218-5.217m21.2-10.823-.004-.02a.7.7 0 0 0-.082-.236l-.004-.008-3.2-5.405A.68.68 0 0 0 29.606 5H5.393a.68.68 0 0 0-.586.334l-3.2 5.405q0 .004-.003.007a.7.7 0 0 0-.065.154l-.004.017-.013.065-.003.02-.006.084V54.32c0 .376.305.681.681.681h30.612a.68.68 0 0 0 .68-.68V11.085l-.005-.083M2.874 53.638v-41.87H24.6a.68.68 0 0 0 0-1.363H3.388l2.394-4.043h23.436l2.394 4.043H28.97a.68.68 0 1 0 0 1.362h3.154v41.871zM30.31 12.716H4.69a.68.68 0 0 0-.68.68V52.19a.68.68 0 0 0 .68.681h25.62a.68.68 0 0 0 .68-.68V13.396a.68.68 0 0 0-.68-.681m-.681 38.793H5.372V14.077h24.257Z" style="stroke-width:.0907853"/>
</svg>
