<svg xmlns="http://www.w3.org/2000/svg" width="50" height="80">
    <path d="M4.07 4.592c-.713 0-1.17.479-1.343.783a1.5 1.5 0 0 0-.213.807v67.636c0 .253.038.503.213.807.174.304.63.783 1.343.783h41.86c.713 0 1.17-.479 1.343-.783.175-.304.213-.554.213-.807V6.182c0-.253-.038-.503-.213-.807-.174-.304-.63-.783-1.343-.783zm1.467 3.023h38.926v64.77H5.537zm4.479 2.912a1.5 1.476 0 0 0-1.5 1.475 1.5 1.476 0 0 0 1.5 1.477 1.5 1.476 0 0 0 1.502-1.477 1.5 1.476 0 0 0-1.502-1.475m29.968 0a1.5 1.476 0 0 0-1.502 1.475 1.5 1.476 0 0 0 1.502 1.477 1.5 1.476 0 0 0 1.5-1.477 1.5 1.476 0 0 0-1.5-1.475M25 12.111c-4.113 0-7.505 3.32-7.504 7.407 0 4.085 3.391 7.404 7.504 7.404s7.504-3.32 7.504-7.404c.001-4.087-3.39-7.407-7.504-7.407m0 3.024c2.506 0 4.481 1.958 4.48 4.383s-1.974 4.38-4.48 4.38-4.48-1.956-4.48-4.38c-.001-2.425 1.974-4.384 4.48-4.383m0 20.41c-8.25 0-14.994 6.619-14.994 14.773S16.75 65.091 25 65.092s14.994-6.62 14.994-14.774S33.25 35.545 25 35.545m0 3.023c6.643 0 11.97 5.257 11.97 11.75S31.644 62.068 25 62.068s-11.97-5.256-11.97-11.75 5.327-11.75 11.97-11.75m0 4.346c-4.113 0-7.504 3.32-7.504 7.404 0 4.086 3.391 7.405 7.504 7.405s7.504-3.32 7.504-7.405-3.391-7.405-7.504-7.404m0 3.023c2.506 0 4.48 1.957 4.48 4.381S27.506 54.7 25 54.7s-4.48-1.956-4.48-4.38 1.974-4.382 4.48-4.382M10.016 67.999a1.5 1.476 0 0 0-1.5 1.475 1.5 1.476 0 0 0 1.5 1.476 1.5 1.476 0 0 0 1.502-1.476 1.5 1.476 0 0 0-1.502-1.475m29.968 0a1.5 1.476 0 0 0-1.502 1.475 1.5 1.476 0 0 0 1.502 1.476 1.5 1.476 0 0 0 1.5-1.476 1.5 1.476 0 0 0-1.5-1.475" style="color:#000;fill:#000;stroke-linecap:square;stroke-linejoin:round;stroke-miterlimit:4.7;-inkscape-stroke:none"/>
</svg>
