<svg xmlns="http://www.w3.org/2000/svg" xml:space="preserve" width="100" height="60">
    <path d="M87.936 10.232c-.14-.013-3-.136-1.857-.018-.884.133-9.245 26.477-10.124 29.561C74 46.725 78.178 56.9 81.677 53.59c3.727-2.862 8.304-6.73 11.86-9.801.186-1.916.601-7.328 1.268-21.097-.154-2.319-6.87-11.876-6.87-12.46m-.127 17.057.043.117.005.014c.932 2.48 1.599 5.262.69 7.853-.729 2.657-1.494 5.287-2.453 7.856-1.147-.293-2.021-1.264-2.065-2.47-.33-2.074.343-4.052.676-6.079.552-2.586 1.496-5.14 3.104-7.29M5.974 42.733c.787 2.228 2.174 5.372 3.06 7.562 22.443 1.234 46.763 2.046 69.461 3.846 2.441.195-1.26-6.204-1.886-7.537-.686-1.146-1.24-3.652-2.34-3.857-2.62-.011-59.974-3.51-65.512-3.768.06-1.222-3.023 3.291-2.783 3.754" style="fill:#fff;stroke-width:1.51181;stroke-linecap:square;stroke-linejoin:round;stroke-miterlimit:4.7" transform="matrix(-1 0 0 1 100 0)"/>
    <path d="m8.022 82.833 10.187-31.811 66.638 4.313L74.812 86.9Z" style="fill:#b1b1b1;fill-opacity:1;stroke:#060606;stroke-width:.043021;stroke-linecap:square;stroke-linejoin:round;stroke-miterlimit:4.7" transform="matrix(-1 0 0 1 100 -45.222)"/>
    <path d="M8.693 95.912C2.54 83.53 4.825 82.506 10.078 66.834l5.494-16.39 72.67 4.422S93.458 62.84 95 67.79c-.274 7.186-.992 21.388-.992 21.388L80.836 100Zm69.866 3.038-2.788-6.935c-43.423-2.597-68.449-4.357-68.449-4.357l2.727 7.187zm14.76-10.105s1.063-20.237.774-21.101c-1.539-4.604-6.368-12.17-6.368-12.17s-8.331 26.65-8.665 27.897c-.34 1.276-1.882 9.346 2.068 15.35 4.149-3.223 8.167-6.603 12.192-9.976M82.966 84.29c.679-4.624 1.6-10.18 5.176-13.511l.73 1.903c1.035 2.702 1.106 4.695 1.07 5.929-.026.865-2.534 9.524-3.351 10.895-3.14-.944-3.543-2.017-3.625-5.216m5.168-3.163c-.274.17-.516-.241-.537-.912-.053-1.626-2.669 5.996-2.424 6.695.276.785 2.087-5.87 2.32-5.17.233.697-2.207 6.971-1.525 6.227.602-.656 2.827-7.248 2.166-6.84m.34-5.92c.308-1.02-.92-1.765-1.07-.277-.096.963.773 1.255 1.07.277M8.022 91.196c-.775-1.938-1.496-3.439-1.6-3.334s.44 1.78 1.21 3.723c.772 1.943 1.492 3.443 1.602 3.334.11-.11-.436-1.785-1.212-3.723m66.372-2.602c-.071-.304-64.946-4.34-65.753-4.157-.806.183-.575 1.322-.313 1.473.263.15 65.405 4.179 65.657 4.151.226-.024.645-.463.41-1.467m12.153-32.142c.294-.919-.285-.726-.492-.718-10.226 30.22-10.053 31.234-10.053 31.417 0 .944.785.515.987-.116.819-2.56 6.39-20.787 9.558-30.583m-1.839-.61-66.286-4.076-9.978 30.956 66.282 4.012ZM11.528 66.835c2.826-8.578 4.987-15.591 4.803-15.584-.184.008-2.44 6.892-5.302 15.2C5.2 83.365 6.335 82.645 6.335 82.645s-1.728 5.198 5.193-15.81m.065 3.427c3.465-10.459 6.36-19.298 5.804-18.692-.683.741-10.64 31.6-10.2 31.6.203 0 2.974-8.619 4.396-12.908" style="fill:#000;stroke-width:1.99824" transform="matrix(-1 0 0 1 100 -45.222)"/>
</svg>
