<svg xmlns="http://www.w3.org/2000/svg" xml:space="preserve" width="40" height="95">
    <path d="M17.07 70.041v3.99a1.21 1.21 0 0 0 .862 1.161L9.036 90.678c-.807 1.404 1.299 2.614 2.106 1.21l7.644-13.306v6.477c0 1.62 2.429 1.62 2.429 0v-6.442l7.554 13.267c.785 1.382 2.899.178 2.111-1.202l-8.82-15.488a1.21 1.21 0 0 0 .87-1.164V47.358h10.957c.67 0 1.214-.543 1.214-1.214v-36.03q0-.057-.006-.117a1.3 1.3 0 0 0-.065-.292l-.01-.03-2.489-6.4a1.21 1.21 0 0 0-1.131-.774H8.601a1.21 1.21 0 0 0-1.132.774l-2.488 6.4-.01.03a1.2 1.2 0 0 0-.072.41v36.03c0 .67.544 1.213 1.214 1.213H17.07Zm4.645-25.112H7.328v-33.6h20.194c1.62 0 1.62-2.429 0-2.429H7.888l1.544-3.97h21.136l1.544 3.97H30.8c-1.62 0-1.62 2.43 0 2.43h1.871v33.6zm-1.214 27.886h-1.002v-1.56h1.002zm0-3.988h-1.002V47.358h1.002zM20 24.947c-5.43 0-9.845 4.415-9.845 9.843s4.416 9.844 9.844 9.844 9.844-4.416 9.844-9.844-4.416-9.844-9.844-9.844m0 17.26c-4.089 0-7.415-3.327-7.415-7.416S15.91 27.375 20 27.375s7.416 3.326 7.416 7.415-3.327 7.416-7.416 7.416m0-10.587a3.174 3.174 0 0 0-3.17 3.171A3.174 3.174 0 0 0 20 37.961a3.174 3.174 0 0 0 3.17-3.17 3.174 3.174 0 0 0-3.17-3.17m0 3.912c-1.027.037-1.025-1.524.002-1.485.928.06.926 1.426-.002 1.483m6.219-.742A6.226 6.226 0 0 1 20 41.01a6.226 6.226 0 0 1-6.218-6.219A6.226 6.226 0 0 1 20 28.571a6.23 6.23 0 0 1 5.103 2.664c.926 1.328-1.066 2.718-1.992 1.39A3.8 3.8 0 0 0 20.001 31c-2.09 0-3.79 1.7-3.79 3.79s1.7 3.79 3.79 3.79 3.79-1.7 3.79-3.79c0-1.618 2.428-1.618 2.428 0m5.23-21.817c0-.14-.146-1.08-1.211-1.13h-2.792a1.214 1.214 0 0 0-.422 2.352l-3.092 2.626h-7.867l-3.001-2.55h10.723c1.619 0 1.619-2.428 0-2.428H9.76c-.79.037-1.215.631-1.215 1.206v9.974a1.22 1.22 0 0 0 1.215 1.206h20.48a1.22 1.22 0 0 0 1.214-1.206c-.004-3.35.008-6.7-.004-10.05m-17.705 5.063-2.77 2.353v-4.706zm2.322 1.215h7.867l3 2.55H13.067zm10.188-1.215 2.77-2.353v4.706z" style="stroke:none;stroke-width:.999999;stroke-opacity:1"/>
</svg>
