<?xml version="1.0" encoding="UTF-8" standalone="no"?>
<svg
   xml:space="preserve"
   width="40"
   height="95"
   version="1.1"
   id="svg1"
   sodipodi:docname="speaker_2.svg"
   inkscape:version="1.3.2 (091e20e, 2023-11-25)"
   xmlns:inkscape="http://www.inkscape.org/namespaces/inkscape"
   xmlns:sodipodi="http://sodipodi.sourceforge.net/DTD/sodipodi-0.dtd"
   xmlns="http://www.w3.org/2000/svg"
   xmlns:svg="http://www.w3.org/2000/svg"><defs
     id="defs1" /><sodipodi:namedview
     id="namedview1"
     pagecolor="#ffffff"
     bordercolor="#000000"
     borderopacity="0.25"
     inkscape:showpageshadow="2"
     inkscape:pageopacity="0.0"
     inkscape:pagecheckerboard="0"
     inkscape:deskcolor="#d1d1d1"
     inkscape:current-layer="svg1" /><path
     d="m 17.070014,70.041288 v 3.989 c -0.0014,0.535381 0.349237,1.008024 0.862,1.162 l -8.8960003,15.486 c -0.8071804,1.404138 1.2988203,2.614138 2.1060003,1.21 l 7.644,-13.306 v 6.477 c 0,1.619333 2.429,1.619333 2.429,0 v -6.442 l 7.554,13.267 c 0.784899,1.381893 2.898836,0.178208 2.111,-1.202 l -8.82,-15.488 c 0.516645,-0.151266 0.871223,-0.625667 0.87,-1.164 v -26.672 h 10.957 c 0.670474,0 1.214,-0.543526 1.214,-1.214 V 10.114289 c 0,-0.03867 -0.002,-0.07767 -0.006,-0.1170002 -0.0015,-0.032762 -0.0167,-0.1470984 -0.065,-0.292 l -0.01,-0.03 -2.489,-6.4 c -0.180474,-0.4672129 -0.630143,-0.7749443 -1.131,-0.774 H 8.6010137 c -0.5012221,-0.00136 -0.9513955,0.3064452 -1.132,0.774 l -2.488,6.4 -0.01,0.03 c -0.036886,0.1106564 -0.048381,0.156081 -0.066,0.292 -0.00428,0.038849 -0.00629,0.077916 -0.006,0.1170002 v 36.029999 c 0,0.670474 0.5435263,1.214 1.214,1.214 H 17.070014 Z m 4.645,-25.112 H 7.3280137 V 11.329289 H 27.522014 c 1.619333,0 1.619333,-2.4290002 0,-2.4290002 H 7.8880137 l 1.544,-3.97 H 30.568014 l 1.544,3.97 h -1.312 c -1.619333,0 -1.619333,2.4290002 0,2.4290002 h 1.871 v 33.599999 z m -1.214,27.886 h -1.002 v -1.56 h 1.002 z m 0,-3.988 h -1.002 v -21.469 h 1.002 z m -0.501,-43.881 c -5.43,0 -9.845,4.416 -9.845,9.844 0,5.428 4.416,9.844 9.844,9.844 5.428,0 9.844,-4.416 9.844,-9.844 0,-5.428 -4.416,-9.844 -9.844,-9.844 m 0,17.26 c -4.089,0 -7.415,-3.327 -7.415,-7.416 0,-4.089 3.326,-7.415 7.416,-7.415 4.09,0 7.416,3.326 7.416,7.415 0,4.089 -3.327,7.416 -7.416,7.416 m 0,-10.587 c -1.750219,0.0022 -3.168347,1.42078 -3.17,3.171 0.0017,1.75022 1.419781,3.168795 3.17,3.171 1.749829,-0.0022 3.167796,-1.420171 3.17,-3.17 -0.0022,-1.749829 -1.420171,-3.167796 -3.17,-3.17 m 0,3.912 c -1.027029,0.03629 -1.024928,-1.524053 0.002,-1.485 0.927682,0.06028 0.925841,1.425223 -0.002,1.483 m 6.219,-0.742 c -0.0033,3.43345 -2.78555,6.216141 -6.219,6.22 -3.432669,-0.0044 -6.214143,-2.78633 -6.218,-6.219 0.0039,-3.43267 2.785331,-6.214591 6.218,-6.219 2.033875,0.0018 3.938827,0.996261 5.103,2.664 0.926084,1.327896 -1.065916,2.717896 -1.992,1.39 -0.709546,-1.016526 -1.870332,-1.623046 -3.11,-1.625 -2.09,0 -3.79,1.7 -3.79,3.79 0,2.09 1.7,3.79 3.79,3.79 2.09,0 3.79,-1.7 3.79,-3.79 0,-1.618666 2.428,-1.618666 2.428,0 m 5.23,-21.817 c 0,-0.140143 -0.146484,-1.080488 -1.211,-1.13 h -2.792 c -0.670864,-5.53e-4 -1.215,0.543136 -1.215,1.214 0,0.522 0.33,0.966 0.793,1.138 l -3.092,2.626 h -7.867 l -3.001,-2.55 h 10.723 c 1.618666,0 1.618666,-2.428 0,-2.428 H 9.7600137 c -0.7896653,0.03673 -1.215,0.630976 -1.215,1.206 v 9.974 c 0,0.630841 0.5245381,1.206 1.215,1.206 H 30.240014 c 0.68359,0 1.214,-0.5675 1.214,-1.206 -0.0044,-3.350237 0.008,-6.701021 -0.004,-10.051 m -17.705,5.064 -2.77,2.353 v -4.706 z m 2.322,1.215 h 7.867 l 3,2.55 h -13.867 z m 10.188,-1.215 2.77,-2.353 v 4.706 z"
     style="stroke:none;stroke-width:0.999999;stroke-opacity:1"
     id="path1"
     inkscape:label="speaker"
     sodipodi:nodetypes="ccccccssccccccssscccccccccccsscccccssccccssccccccccccccccsssccsssccccccccccccccccsssccccsccccsscssssscccccccccccccc" /></svg>
