<?xml version="1.0" encoding="UTF-8" standalone="no"?>
<!-- Created with Inkscape (http://www.inkscape.org/) -->

<svg
   width="100"
   height="60"
   viewBox="0 0 100 60"
   version="1.1"
   id="svg1"
   xml:space="preserve"
   inkscape:version="1.3.2 (091e20e, 2023-11-25)"
   sodipodi:docname="speaker_floor_1.svg"
   xmlns:inkscape="http://www.inkscape.org/namespaces/inkscape"
   xmlns:sodipodi="http://sodipodi.sourceforge.net/DTD/sodipodi-0.dtd"
   xmlns="http://www.w3.org/2000/svg"
   xmlns:svg="http://www.w3.org/2000/svg"><sodipodi:namedview
     id="namedview1"
     pagecolor="#ffffff"
     bordercolor="#000000"
     borderopacity="0.25"
     inkscape:showpageshadow="2"
     inkscape:pageopacity="0.0"
     inkscape:pagecheckerboard="0"
     inkscape:deskcolor="#d1d1d1"
     inkscape:document-units="mm"
     showguides="true"
     inkscape:zoom="1.4936861"
     inkscape:cx="35.817432"
     inkscape:cy="23.766707"
     inkscape:window-width="1632"
     inkscape:window-height="904"
     inkscape:window-x="0"
     inkscape:window-y="25"
     inkscape:window-maximized="0"
     inkscape:current-layer="layer1" /><defs
     id="defs1" /><g
     inkscape:label="Слой 1"
     inkscape:groupmode="layer"
     id="layer1"
     transform="translate(-5,-46.44379)"><g
       id="g326951"
       transform="translate(5,1.221895)"><path
         style="fill:#b1b1b1;fill-opacity:1;stroke:#060606;stroke-width:0.043021;stroke-linecap:square;stroke-linejoin:round;stroke-miterlimit:4.7"
         d="M 8.0215098,82.83348 18.209225,51.02151 84.847014,55.335263 74.812262,86.899329 Z"
         id="path326951"
         sodipodi:nodetypes="ccccc" /><path
         style="fill:#000000;stroke-width:1.99824"
         d="M 8.6925083,95.912187 C 2.5396087,83.528502 4.8249542,82.506358 10.078477,66.833559 l 5.493849,-16.389769 72.669993,4.422537 c 0,0 5.216002,7.97218 6.757681,12.923992 -0.273592,7.185252 -0.991881,21.387942 -0.991881,21.387942 L 80.836394,100 Z M 78.558797,98.950101 75.770972,92.015369 C 32.348249,89.418069 7.3221475,87.658214 7.3221475,87.658214 l 2.7270095,7.18711 z M 93.319756,88.845113 c 0,0 1.061868,-20.236832 0.772885,-21.101513 -1.538574,-4.603677 -6.367669,-12.169894 -6.367669,-12.169894 0,0 -8.331013,26.650421 -8.664512,27.897106 -0.341262,1.27572 -1.882145,9.346033 2.067915,15.349244 4.148629,-3.221993 8.166499,-6.601624 12.191381,-9.974943 z M 82.964652,84.290491 c 0.67932,-4.624358 1.601065,-10.18094 5.176306,-13.511755 l 0.72944,1.903708 c 1.035336,2.702048 1.106527,4.694937 1.070396,5.928475 -0.0259,0.865478 -2.533471,9.524177 -3.350887,10.895534 -3.139983,-0.944391 -3.543033,-2.01775 -3.625255,-5.215962 z m 5.16841,-3.163101 c -0.274013,0.169251 -0.515913,-0.241449 -0.537559,-0.912879 -0.05239,-1.625854 -2.668468,5.996514 -2.423049,6.69508 0.276006,0.785672 2.08687,-5.870265 2.320282,-5.170001 0.232312,0.69699 -2.207471,6.97184 -1.525333,6.227694 0.601165,-0.655804 2.826099,-7.248078 2.165659,-6.839894 z m 0.339389,-5.920782 c 0.30883,-1.019385 -0.92003,-1.764551 -1.069263,-0.276158 -0.09654,0.962735 0.772949,1.254239 1.069263,0.276158 z M 8.0233958,91.195629 c -0.7758827,-1.938117 -1.4963221,-3.43822 -1.6009762,-3.333572 -0.1046482,0.104706 0.4404772,1.780077 1.2114063,3.72315 0.770929,1.943074 1.4913685,3.443177 1.6009782,3.333573 C 9.344408,94.809277 8.7992806,93.133747 8.0233958,91.195629 Z M 74.395242,88.594233 C 74.323863,88.289721 9.4487923,84.254664 8.6422346,84.437224 7.8356766,84.619863 8.0672653,85.758643 8.329487,85.90977 c 0.2622217,0.151067 65.404516,4.17915 65.656892,4.151715 0.225314,-0.02458 0.644221,-0.463293 0.408863,-1.467252 z M 86.548232,56.451655 C 86.841988,55.532982 86.262643,55.725513 86.056094,55.733985 75.830408,85.954051 76.003411,86.967762 76.003411,87.1506 c 0,0.944491 0.784569,0.515848 0.986671,-0.116096 0.818867,-2.560273 6.389648,-20.78685 9.55815,-30.582909 z M 84.70901,55.84287 18.422629,51.765629 8.4449197,82.722049 74.727035,86.734207 Z M 11.527835,66.834339 c 2.826057,-8.578568 4.987435,-15.591351 4.803061,-15.583977 -0.184379,0.008 -2.439227,6.891529 -5.302395,15.200194 -5.8285241,16.91387 -4.6932849,16.193401 -4.6932849,16.193401 0,0 -1.7279008,5.197838 5.1926249,-15.809618 z m 0.06486,3.426911 C 15.058303,59.802373 17.953743,50.963214 17.39667,51.568542 16.713939,52.310411 6.7575893,83.169116 7.1969295,83.169116 c 0.2032675,0 2.9745525,-8.618772 4.3957685,-12.907866 z"
         id="path326950"
         sodipodi:nodetypes="csccccccccccccscsccscsccscsssscssssssssszzssccsscccccccssscssssss" /></g></g></svg>
