<?xml version="1.0" encoding="UTF-8" standalone="no"?>
<!-- Uploaded to: SVG Repo, www.svgrepo.com, Generator: SVG Repo Mixer Tools -->

<svg
   fill="#000000"
   height="80"
   width="100"
   version="1.1"
   id="Capa_1"
   viewBox="0 0 100 80"
   xml:space="preserve"
   sodipodi:docname="stage_1.svg"
   inkscape:version="1.3.2 (091e20e, 2023-11-25)"
   xmlns:inkscape="http://www.inkscape.org/namespaces/inkscape"
   xmlns:sodipodi="http://sodipodi.sourceforge.net/DTD/sodipodi-0.dtd"
   xmlns="http://www.w3.org/2000/svg"
   xmlns:svg="http://www.w3.org/2000/svg"><defs
   id="defs1" /><sodipodi:namedview
   id="namedview1"
   pagecolor="#ffffff"
   bordercolor="#000000"
   borderopacity="0.25"
   inkscape:showpageshadow="2"
   inkscape:pageopacity="0.0"
   inkscape:pagecheckerboard="0"
   inkscape:deskcolor="#d1d1d1"
   inkscape:current-layer="Capa_1" />
<path
   id="path1"
   style="stroke-width:0.163936"
   d="m 15.195313,4.9707031 c -0.299345,0 -0.552768,0.1974837 -0.625,0.4863281 L 7.1113281,35.291016 c -9.291e-4,0.0042 0.00263,-0.01005 0,0.002 a 0.58604068,0.58604068 0 0 1 -0.00195,0.0059 c -2.743e-4,0.0012 -0.00173,0.01478 -0.00586,0.03906 a 0.58604068,0.58604068 0 0 1 0,0.0039 c 7.077e-4,-0.004 -0.00132,0.0043 -0.00391,0.02539 -0.00157,0.01344 -0.00339,0.02436 -0.00391,0.03125 a 0.58604068,0.58604068 0 0 1 0,0.002 c -0.00164,0.02163 -0.00185,0.03204 -0.00195,0.03711 a 0.58604068,0.58604068 0 0 1 0,0.002 c 2.722e-4,-0.01163 0,-0.0083 0,0.0078 v 6.61914 26.119141 A 0.58604068,0.58604068 0 0 1 6.5078125,68.771484 H 6.2304687 c -0.3628807,-5e-6 -0.6445312,0.280804 -0.6445312,0.642578 v 4.972657 c 0,0.36176 0.2816458,0.642578 0.6445312,0.642578 h 7.9843753 c 0.362885,0 0.644531,-0.280818 0.644531,-0.642578 v -4.972657 c 0,-0.361773 -0.281641,-0.642578 -0.644531,-0.642578 H 13.9375 a 0.58604068,0.58604068 0 0 1 -0.585937,-0.585937 v -2.47461 A 0.58604068,0.58604068 0 0 1 13.9375,65.125 h 72.125 a 0.58604068,0.58604068 0 0 1 0.585937,0.585937 v 2.47461 A 0.58604068,0.58604068 0 0 1 86.0625,68.771484 h -0.277344 c -0.36289,0 -0.644532,0.280804 -0.644531,0.642578 v 4.972657 c 0,0.36176 0.281646,0.642578 0.644531,0.642578 h 7.984375 c 0.362885,0 0.644531,-0.280818 0.644531,-0.642578 v -4.972657 c 0,-0.362242 -0.28258,-0.644531 -0.644531,-0.644531 H 93.492187 A 0.58604068,0.58604068 0 0 1 92.90625,68.183594 v -26.117188 -6.61914 -0.0098 -0.01172 c -3.25e-4,-0.0065 -8.23e-4,-0.01046 -0.002,-0.02539 -9.5e-4,-0.01246 -0.0031,-0.02314 -0.0039,-0.0293 a 0.58604068,0.58604068 0 0 1 0,-0.002 c -0.0021,-0.01678 -0.0033,-0.0275 -0.0039,-0.03125 v -0.002 c -0.0038,-0.02207 -0.0055,-0.03569 -0.0059,-0.03711 a 0.58604068,0.58604068 0 0 1 -0.002,-0.002 c -0.0035,-0.01558 7.78e-4,-0.0021 0,-0.0059 l -0.002,-0.0078 -7.457032,-29.8261718 c -0.07211,-0.2887151 -0.325414,-0.4863281 -0.625,-0.4863281 z m 0.958984,1.2871094 h 67.691406 a 0.58604068,0.58604068 0 0 1 0.568359,0.4433594 l 6.84375,27.3730471 a 0.58604068,0.58604068 0 0 1 -0.568359,0.728515 h -3.398437 c -0.361762,0 -0.642579,0.281647 -0.642579,0.644532 0,0.362886 0.279693,0.642578 0.642579,0.642578 h 3.742187 a 0.58604068,0.58604068 0 0 1 0.585938,0.585937 v 4.16211 a 0.58604068,0.58604068 0 0 1 -0.585938,0.585937 H 87.291016 12.708984 8.9648438 A 0.58604068,0.58604068 0 0 1 8.3789063,40.837891 v -4.16211 A 0.58604068,0.58604068 0 0 1 8.9648438,36.089844 H 74.861328 c 0.362886,0 0.642578,-0.279692 0.642578,-0.642578 0,-0.362885 -0.280817,-0.644532 -0.642578,-0.644532 H 9.3105469 A 0.58604068,0.58604068 0 0 1 8.7421875,34.074219 L 15.585938,6.7011719 A 0.58604068,0.58604068 0 0 1 16.154297,6.2578125 Z M 8.9648438,42.710937 h 2.5136722 a 0.58604068,0.58604068 0 0 1 0.585937,0.585938 v 21.183594 3.703125 a 0.58604068,0.58604068 0 0 1 -0.585937,0.585937 H 8.9648438 A 0.58604068,0.58604068 0 0 1 8.3789063,68.183594 V 43.296875 a 0.58604068,0.58604068 0 0 1 0.5859375,-0.585938 z m 79.5566402,0 h 2.511719 a 0.58604068,0.58604068 0 0 1 0.585938,0.585938 v 24.886719 a 0.58604068,0.58604068 0 0 1 -0.585938,0.585937 H 88.521484 A 0.58604068,0.58604068 0 0 1 87.935547,68.183594 V 64.480469 43.296875 a 0.58604068,0.58604068 0 0 1 0.585937,-0.585938 z M 13.9375,42.75 h 72.125 a 0.58604068,0.58604068 0 0 1 0.585937,0.585937 V 63.251953 A 0.58604068,0.58604068 0 0 1 86.0625,63.837891 H 13.9375 A 0.58604068,0.58604068 0 0 1 13.351563,63.251953 V 43.335937 A 0.58604068,0.58604068 0 0 1 13.9375,42.75 Z m 2.755859,2.431641 c -0.361761,0 -0.644531,0.282768 -0.644531,0.644531 v 11.195312 c 0,0.210404 0.102645,0.406586 0.275391,0.527344 0.108246,0.07569 0.237185,0.115234 0.36914,0.115234 0.07587,0 0.150458,-0.01333 0.220703,-0.03906 L 47.556641,46.429687 c 0.297132,-0.108577 0.469113,-0.405772 0.414062,-0.716796 -0.05508,-0.311257 -0.318877,-0.53125 -0.634766,-0.53125 z m 41.296875,0 c 0.227449,0.0067 -1.092523,-0.0071 -0.08594,0.0078 -0.03685,5.24e-4 -0.08366,0.01903 -0.08789,0.01563 -8.72e-4,2.36e-4 -0.0048,0.0016 -0.0059,0.002 -0.0085,0.0025 -0.01937,0.006 -0.04492,0.01563 a 0.58604068,0.58604068 0 0 1 -0.0059,0.002 0.58604068,0.58604068 0 0 1 -0.0078,0.002 c 0.06576,-0.02309 -0.0012,0.0015 -0.002,0.002 l -5.806641,2.222656 a 0.58604068,0.58604068 0 0 1 -0.208984,0.03906 h 0.105469 L 18.722656,60.160156 c -0.292432,0.111884 -0.459404,0.41178 -0.402344,0.720703 0.05773,0.307892 0.31908,0.525391 0.632813,0.525391 h 61.554687 c 0.306579,0 0.564545,-0.208916 0.628907,-0.509766 0.06422,-0.300192 -0.08685,-0.594948 -0.367188,-0.720703 L 55.136719,48.677734 a 0.58604068,0.58604068 0 0 1 0.03125,-1.082031 l 2.580078,-0.988281 a 0.58604068,0.58604068 0 0 1 0.445312,0.01172 l 24.853516,10.992187 c 0.08167,0.0361 0.167759,0.05273 0.259766,0.05273 0.122864,0 0.245485,-0.03448 0.351562,-0.103515 0.183591,-0.119573 0.292969,-0.320852 0.292969,-0.539063 V 45.826172 c 0,-0.361763 -0.28277,-0.644531 -0.644531,-0.644531 z M 17.921875,46.46875 h 22.466797 a 0.58604068,0.58604068 0 0 1 0.201172,1.136719 l -22.466797,8.208984 a 0.58604068,0.58604068 0 0 1 -0.78711,-0.550781 v -8.208985 a 0.58604068,0.58604068 0 0 1 0.585938,-0.585937 z m 45.888672,0 h 18.267578 a 0.58604068,0.58604068 0 0 1 0.585937,0.585937 v 8.078125 a 0.58604068,0.58604068 0 0 1 -0.822265,0.535157 L 63.574219,47.589844 a 0.58604068,0.58604068 0 0 1 0.236328,-1.121094 z m -11.884766,2.367187 a 0.58604068,0.58604068 0 0 1 0.449219,0.01172 l 22.626953,10.150391 a 0.58604068,0.58604068 0 0 1 -0.240234,1.121094 H 25.607422 A 0.58604068,0.58604068 0 0 1 25.398437,58.986328 Z M 7.4589844,70.056641 h 0.2773437 4.9726559 0.277344 a 0.58604068,0.58604068 0 0 1 0.585938,0.585937 v 2.513672 a 0.58604068,0.58604068 0 0 1 -0.585938,0.585937 H 7.4589844 A 0.58604068,0.58604068 0 0 1 6.8730469,73.15625 v -2.513672 a 0.58604068,0.58604068 0 0 1 0.5859375,-0.585937 z m 79.5546876,0 h 0.277344 4.972656 0.277344 a 0.58604068,0.58604068 0 0 1 0.585937,0.585937 v 2.513672 a 0.58604068,0.58604068 0 0 1 -0.585937,0.585937 H 87.013672 A 0.58604068,0.58604068 0 0 1 86.427734,73.15625 v -2.513672 a 0.58604068,0.58604068 0 0 1 0.585938,-0.585937 z" />
</svg>
