<svg xmlns="http://www.w3.org/2000/svg" xml:space="preserve" width="100" height="80">
    <path d="M15.195 4.97a.64.64 0 0 0-.625.487L7.111 35.291c0 .004.003-.01 0 .002l-.002.006-.005.039v.004l-.004.025-.004.032v.002l-.002.037v32.748a.586.586 0 0 1-.586.585H6.23a.635.635 0 0 0-.644.643v4.973c0 .361.282.642.644.642h7.985c.363 0 .644-.28.644-.642v-4.973a.635.635 0 0 0-.644-.643h-.277a.586.586 0 0 1-.586-.585V65.71a.586.586 0 0 1 .585-.586h72.126a.586.586 0 0 1 .585.586v2.475a.586.586 0 0 1-.585.585h-.278a.635.635 0 0 0-.644.643v4.973c0 .361.281.642.644.642h7.985c.362 0 .644-.28.644-.642v-4.973a.637.637 0 0 0-.644-.644h-.278a.586.586 0 0 1-.586-.586V35.426l-.002-.026q-.001-.019-.004-.029v-.002l-.004-.031v-.002l-.005-.037-.002-.002c-.004-.016 0-.002 0-.006l-.002-.008L85.43 5.457a.64.64 0 0 0-.625-.487zm.96 1.288h67.69a.586.586 0 0 1 .57.443l6.843 27.373a.586.586 0 0 1-.569.729h-3.398a.635.635 0 0 0-.643.644c0 .363.28.643.643.643h3.742a.586.586 0 0 1 .586.586v4.162a.586.586 0 0 1-.586.586H8.965a.586.586 0 0 1-.586-.586v-4.162a.586.586 0 0 1 .586-.586H74.86c.363 0 .643-.28.643-.643a.635.635 0 0 0-.643-.644H9.311a.586.586 0 0 1-.569-.729l6.844-27.373a.586.586 0 0 1 .568-.443M8.964 42.71h2.514a.586.586 0 0 1 .585.586v24.887a.586.586 0 0 1-.585.586H8.965a.586.586 0 0 1-.586-.586V43.297a.586.586 0 0 1 .586-.586m79.556 0h2.512a.586.586 0 0 1 .586.586v24.887a.586.586 0 0 1-.586.586h-2.512a.586.586 0 0 1-.585-.586V43.297a.586.586 0 0 1 .585-.586m-74.583.039h72.125a.586.586 0 0 1 .585.586v19.916a.586.586 0 0 1-.585.586H13.938a.586.586 0 0 1-.586-.586V43.336a.586.586 0 0 1 .585-.586m2.755 2.432a.637.637 0 0 0-.644.644v11.195a.643.643 0 0 0 .865.604L47.557 46.43a.64.64 0 0 0 .414-.717.64.64 0 0 0-.635-.531zm41.297 0c.228.006-1.092-.007-.086.007-.037.001-.083.02-.088.016l-.005.002-.045.016-.006.002-.008.002c.066-.023-.001.001-.002.002l-5.807 2.222a.6.6 0 0 1-.209.04h.106L18.723 60.16a.64.64 0 0 0-.403.72c.058.308.32.525.633.525h61.555a.64.64 0 0 0 .629-.51.64.64 0 0 0-.367-.72L55.137 48.678a.586.586 0 0 1 .031-1.082l2.58-.989a.6.6 0 0 1 .445.012l24.854 10.992a.644.644 0 0 0 .904-.59V45.826a.637.637 0 0 0-.644-.644zm-40.068 1.287h22.467a.586.586 0 0 1 .2 1.136l-22.466 8.21a.586.586 0 0 1-.787-.551v-8.21a.586.586 0 0 1 .586-.585m45.889 0h18.267a.586.586 0 0 1 .586.586v8.078a.586.586 0 0 1-.822.535L63.574 47.59a.586.586 0 0 1 .237-1.121m-11.885 2.367a.6.6 0 0 1 .449.012l22.627 10.15a.586.586 0 0 1-.24 1.121H25.607a.586.586 0 0 1-.209-1.133ZM7.459 70.056h5.527a.586.586 0 0 1 .586.587v2.513a.586.586 0 0 1-.586.586H7.46a.586.586 0 0 1-.586-.586v-2.513a.586.586 0 0 1 .586-.586m79.555 0h5.527a.586.586 0 0 1 .586.587v2.513a.586.586 0 0 1-.586.586h-5.527a.586.586 0 0 1-.586-.586v-2.513a.586.586 0 0 1 .586-.586" style="stroke-width:.163936"/>
</svg>
