<svg xmlns="http://www.w3.org/2000/svg" xml:space="preserve" width="100" height="100">
    <g style="stroke-width:5.68889">
        <path d="M135.25 135.031v-20.296c0-4.2-3.405-7.604-7.604-7.604h-22.305a7.604 7.604 0 0 0-7.604 7.604v20.296c-12.654 6.738-21.291 20.061-21.291 35.37s8.637 28.631 21.291 35.37v97.545c0 4.2 3.405 7.604 7.604 7.604h22.305a7.604 7.604 0 0 0 7.604-7.604V205.77c12.654-6.738 21.291-20.061 21.291-35.37 0-15.31-8.637-28.632-21.291-35.369m-22.306-12.692h7.098v8.179a40 40 0 0 0-3.549-.166c-1.197 0-2.379.063-3.549.166zm7.099 173.37h-7.098v-85.428c1.17.103 2.352.166 3.549.166s2.378-.063 3.549-.166zm-3.549-100.47c-13.696 0-24.84-11.142-24.84-24.84s11.143-24.84 24.84-24.84 24.84 11.142 24.84 24.84-11.144 24.84-24.84 24.84M93.617 341.667c-22.627 0-41.037 18.41-41.037 41.038s18.41 41.037 41.037 41.037 41.037-18.409 41.037-41.037c0-22.629-18.41-41.038-41.037-41.038m0 66.867c-14.242 0-25.829-11.587-25.829-25.829 0-11.597 7.683-21.432 18.225-24.685v17.428a7.604 7.604 0 0 0 15.208 0V358.02c10.542 3.254 18.225 13.089 18.225 24.685 0 14.241-11.587 25.829-25.829 25.829" style="stroke-width:5.68889" transform="translate(5 11)scale(.17578)"/>
        <path d="M352.997 70.294h-92.769v-24.84c0-4.2-3.405-7.604-7.604-7.604h-41.906a7.604 7.604 0 0 0-7.604 7.604v24.84h-50.017v-24.84c0-4.2-3.405-7.604-7.604-7.604H113.05a7.604 7.604 0 0 0 0 15.208h24.84v17.236H69.284v-24.84a7.604 7.604 0 0 0-15.208 0v24.84H7.604A7.603 7.603 0 0 0 0 77.898v388.647c0 4.2 3.405 7.604 7.604 7.604h68.269a7.604 7.604 0 0 0 0-15.207H15.208V85.502h337.789a7.604 7.604 0 0 0 0-15.208m-107.977 0h-26.698V53.059h26.698zm259.376 0h-80.429a7.604 7.604 0 0 0 0 15.208h72.825v373.439H143.464a7.604 7.604 0 0 0 0 15.208h360.932a7.604 7.604 0 0 0 7.604-7.604V77.898c0-4.2-3.405-7.604-7.604-7.604" style="stroke-width:5.68889" transform="translate(5 11)scale(.17578)"/>
        <path d="M321.296 135.031v-20.295c0-4.2-3.405-7.604-7.604-7.604h-22.305a7.604 7.604 0 0 0-7.604 7.604v20.295c-12.654 6.738-21.291 20.061-21.291 35.37s8.637 28.631 21.291 35.37v97.545c0 4.2 3.405 7.604 7.604 7.604h22.305a7.604 7.604 0 0 0 7.604-7.604v-97.545c12.654-6.738 21.291-20.061 21.291-35.37s-8.637-28.631-21.291-35.37m-22.306-12.692h7.097v8.179a40 40 0 0 0-3.549-.166c-1.197 0-2.379.063-3.549.166zm7.099 173.37h-7.097v-85.428c1.17.103 2.352.166 3.549.166s2.379-.063 3.549-.166zm-3.55-100.47c-13.696 0-24.84-11.142-24.84-24.84s11.143-24.84 24.84-24.84 24.84 11.142 24.84 24.84-11.143 24.84-24.84 24.84m-74.266 8.938v-89.443c0-4.2-3.405-7.604-7.604-7.604h-22.305a7.604 7.604 0 0 0-7.604 7.604v89.443c-12.654 6.738-21.291 20.061-21.291 35.37s8.637 28.631 21.291 35.37v28.397c0 4.2 3.405 7.604 7.604 7.604h22.305a7.604 7.604 0 0 0 7.604-7.604v-28.397c12.654-6.738 21.291-20.061 21.291-35.37s-8.637-28.631-21.291-35.37m-22.306-81.838h7.098v77.326a40 40 0 0 0-3.549-.166c-1.197 0-2.378.063-3.549.166zm7.099 173.37h-7.098v-16.28c1.17.103 2.352.166 3.549.166s2.379-.063 3.549-.166zm-3.55-31.323c-13.696 0-24.84-11.142-24.84-24.84s11.143-24.84 24.84-24.84 24.84 11.142 24.84 24.84-11.143 24.84-24.84 24.84m204.803-60.209v-89.443c0-4.2-3.405-7.604-7.604-7.604H384.41a7.604 7.604 0 0 0-7.604 7.604v89.443c-12.654 6.738-21.291 20.061-21.291 35.37s8.637 28.631 21.291 35.37v28.397c0 4.2 3.405 7.604 7.604 7.604h22.305a7.604 7.604 0 0 0 7.604-7.604v-28.397c12.654-6.738 21.291-20.061 21.291-35.37s-8.637-28.631-21.291-35.37m-22.306-81.838h7.098v77.326a40 40 0 0 0-3.549-.166c-1.197 0-2.379.063-3.549.166zm7.099 173.37h-7.098v-16.28c1.17.103 2.352.166 3.549.166s2.379-.063 3.549-.166zm-3.55-31.323c-13.696 0-24.84-11.142-24.84-24.84s11.143-24.84 24.84-24.84 24.84 11.142 24.84 24.84-11.144 24.84-24.84 24.84m-84.81 77.281c-22.627 0-41.037 18.41-41.037 41.038s18.41 41.037 41.037 41.037 41.037-18.409 41.037-41.037-18.41-41.038-41.037-41.038m0 66.867c-14.242 0-25.829-11.587-25.829-25.829 0-11.597 7.683-21.432 18.225-24.685v17.428a7.604 7.604 0 0 0 15.208 0V358.02c10.542 3.254 18.225 13.089 18.225 24.685 0 14.24-11.588 25.829-25.829 25.829m149.574-51.563c-6.874-8.539-16.662-13.889-27.559-15.066-10.898-1.172-21.602 1.961-30.14 8.834s-13.889 16.661-15.066 27.559c-2.43 22.497 13.896 42.777 36.394 45.208q2.237.24 4.436.239c20.668 0 38.501-15.628 40.769-36.633 1.176-10.898-1.96-21.602-8.834-30.141m-6.286 28.508c-1.529 14.161-14.293 24.453-28.453 22.906-14.161-1.53-24.436-14.294-22.906-28.453.741-6.86 4.108-13.02 9.483-17.345a25.7 25.7 0 0 1 11.287-5.235l-1.871 17.323a7.606 7.606 0 0 0 7.568 8.423 7.605 7.605 0 0 0 7.55-6.788l1.873-17.338a25.65 25.65 0 0 1 9.908 7.537c4.327 5.374 6.302 12.109 5.561 18.97M237.039 365.24c-9.629-20.477-34.124-29.3-54.598-19.673-20.477 9.63-29.302 34.122-19.673 54.599 4.665 9.92 12.913 17.428 23.226 21.144a41.1 41.1 0 0 0 13.937 2.452c5.955 0 11.888-1.313 17.436-3.923 20.476-9.628 29.3-34.12 19.672-54.599m-26.145 40.838c-6.244 2.935-13.256 3.264-19.747.927-6.491-2.339-11.682-7.066-14.618-13.309-6.061-12.888-.507-28.305 12.381-34.366a25.7 25.7 0 0 1 10.952-2.454 25.96 25.96 0 0 1 19.139 8.443l-15.768 7.415a7.604 7.604 0 0 0-3.645 10.117 7.6 7.6 0 0 0 6.886 4.371 7.6 7.6 0 0 0 3.231-.725l15.772-7.416c1.542 10.925-4.088 22.062-14.583 26.997" style="stroke-width:5.68889" transform="translate(5 11)scale(.17578)"/>
    </g>
</svg>
