<?xml version="1.0" encoding="UTF-8" standalone="no"?>
<!-- Uploaded to: SVG Repo, www.svgrepo.com, Generator: SVG Repo Mixer Tools -->

<svg
   fill="#000000"
   height="100"
   width="100"
   version="1.1"
   viewBox="0 0 100 100"
   enable-background="new 0 0 467.978 467.978"
   id="svg14"
   sodipodi:docname="synth_2.svg"
   inkscape:version="1.3.2 (091e20e, 2023-11-25)"
   xmlns:inkscape="http://www.inkscape.org/namespaces/inkscape"
   xmlns:sodipodi="http://sodipodi.sourceforge.net/DTD/sodipodi-0.dtd"
   xmlns="http://www.w3.org/2000/svg"
   xmlns:svg="http://www.w3.org/2000/svg">
  <defs
     id="defs1" />
  <sodipodi:namedview
     id="namedview14"
     pagecolor="#ffffff"
     bordercolor="#000000"
     borderopacity="0.25"
     inkscape:showpageshadow="2"
     inkscape:pageopacity="0.0"
     inkscape:pagecheckerboard="0"
     inkscape:deskcolor="#d1d1d1"
     inkscape:zoom="2.6790146"
     inkscape:cx="15.677406"
     inkscape:cy="97.983788"
     inkscape:window-width="1536"
     inkscape:window-height="826"
     inkscape:window-x="0"
     inkscape:window-y="25"
     inkscape:window-maximized="0"
     inkscape:current-layer="g14" />
  <g
     id="g14"
     transform="matrix(0.203001,0,0,0.19608766,2.499999,26.617645)"
     style="stroke-width:5.01217">
    <path
       d="M 460.478,106.495 H 7.5 c -4.143,0 -7.5,3.358 -7.5,7.5 v 239.988 c 0,4.142 3.357,7.5 7.5,7.5 h 452.978 c 4.143,0 7.5,-3.358 7.5,-7.5 V 113.995 c 0,-4.142 -3.358,-7.5 -7.5,-7.5 z M 48.299,243.489 v 62.21 c 0,2.761 2.238,5 5,5 h 3.611 v 35.784 H 32.495 V 243.489 Z m 43.027,0 V 346.483 H 66.91 v -35.784 h 3.612 c 2.762,0 5,-2.239 5,-5 v -62.21 z m 60.218,0 v 62.21 c 0,2.761 2.238,5 5,5 h 3.612 v 35.784 h -24.415 v -35.784 h 3.611 c 2.762,0 5,-2.239 5,-5 v -62.21 z m 43.027,0 v 102.994 h -24.415 v -35.784 h 3.612 c 2.762,0 5,-2.239 5,-5 v -62.21 z m 94.634,0 v 62.21 c 0,2.761 2.238,5 5,5 h 3.612 v 35.784 h -24.416 v -35.784 h 3.612 c 2.762,0 5,-2.239 5,-5 v -62.21 z m 43.027,0 v 102.994 h -24.415 v -35.784 h 3.611 c 2.762,0 5,-2.239 5,-5 v -62.21 z m 68.831,0 v 102.994 h -24.415 v -35.784 h 3.612 c 2.762,0 5,-2.239 5,-5 v -62.21 z m 34.415,102.994 H 411.063 V 243.489 h 24.415 z M 375.26,300.699 h -7.225 v -57.21 h 7.225 z m -12.225,10 h 3.612 v 35.784 H 342.232 V 243.489 h 15.803 v 62.21 c 0,2.761 2.238,5 5,5 z m -56.606,-10 h -7.224 v -57.21 h 7.224 z m -34.415,0 h -7.224 v -57.21 h 7.224 z m -12.224,10 h 3.611 v 35.784 H 238.986 V 243.489 h 15.804 v 62.21 c 0,2.761 2.238,5 5,5 z m -30.804,35.784 H 204.571 V 243.489 h 24.415 z m -60.217,-45.784 h -7.225 v -57.21 h 7.225 z m -34.416,0 h -7.224 v -57.21 h 7.224 z m -12.224,10 h 3.612 v 35.784 H 101.326 V 243.489 h 15.803 v 62.21 c 0,2.761 2.238,5 5,5 z m -56.607,-10 h -7.224 v -57.21 h 7.224 z m 387.456,45.784 h -7.5 V 238.489 c 0,-2.761 -2.238,-5 -5,-5 H 27.495 c -2.762,0 -5,2.239 -5,5 V 346.483 H 15 V 121.495 h 437.978 z"
       id="path1"
       style="stroke-width:5.01217" />
    <path
       d="m 27.5,224.996 h 412.978 c 2.762,0 5,-2.239 5,-5 v -86.001 c 0,-2.761 -2.238,-5 -5,-5 H 27.5 c -2.762,0 -5,2.239 -5,5 v 86.001 c 0,2.761 2.238,5 5,5 z m 5,-86.001 h 402.978 v 76.001 H 32.5 Z"
       id="path2"
       style="stroke-width:5.01217" />
    <path
       d="m 358.116,148.995 h -93.698 c -2.762,0 -5,2.239 -5,5 v 46.001 c 0,2.761 2.238,5 5,5 h 93.698 c 2.762,0 5,-2.239 5,-5 v -46.001 c 0,-2.762 -2.238,-5 -5,-5 z m -5,46.001 h -83.698 v -36.001 h 83.698 z"
       id="path3"
       style="stroke-width:5.01217" />
    <path
       d="m 56.618,161.477 h -1 v -7.482 c 0,-2.761 -2.238,-5 -5,-5 -2.762,0 -5,2.239 -5,5 v 7.482 h -1 c -2.762,0 -5,2.239 -5,5 0,2.761 2.238,5 5,5 h 1 v 28.519 c 0,2.761 2.238,5 5,5 2.762,0 5,-2.239 5,-5 v -28.519 h 1 c 2.762,0 5,-2.239 5,-5 0,-2.761 -2.238,-5 -5,-5 z"
       id="path4"
       style="stroke-width:5.01217" />
    <path
       d="m 119.285,166.255 h -1 v -12.26 c 0,-2.761 -2.238,-5 -5,-5 -2.762,0 -5,2.239 -5,5 v 12.26 h -1 c -2.762,0 -5,2.239 -5,5 0,2.761 2.238,5 5,5 h 1 v 23.741 c 0,2.761 2.238,5 5,5 2.762,0 5,-2.239 5,-5 v -23.741 h 1 c 2.762,0 5,-2.239 5,-5 0,-2.761 -2.238,-5 -5,-5 z"
       id="path5"
       style="stroke-width:5.01217" />
    <path
       d="m 181.951,171.033 h -1 v -17.038 c 0,-2.761 -2.238,-5 -5,-5 -2.762,0 -5,2.239 -5,5 v 17.038 h -1 c -2.762,0 -5,2.239 -5,5 0,2.761 2.238,5 5,5 h 1 v 18.963 c 0,2.761 2.238,5 5,5 2.762,0 5,-2.239 5,-5 v -18.963 h 1 c 2.762,0 5,-2.239 5,-5 0,-2.761 -2.238,-5 -5,-5 z"
       id="path6"
       style="stroke-width:5.01217" />
    <path
       d="m 244.618,185.366 h -1 v -31.371 c 0,-2.761 -2.238,-5 -5,-5 -2.762,0 -5,2.239 -5,5 v 31.371 h -1 c -2.762,0 -5,2.239 -5,5 0,2.761 2.238,5 5,5 h 1 v 4.63 c 0,2.761 2.238,5 5,5 2.762,0 5,-2.239 5,-5 v -4.63 h 1 c 2.762,0 5,-2.239 5,-5 0,-2.761 -2.238,-5 -5,-5 z"
       id="path7"
       style="stroke-width:5.01217" />
    <path
       d="m 87.951,175.81 h -1 v -21.816 c 0,-2.761 -2.238,-5 -5,-5 -2.762,0 -5,2.239 -5,5 v 21.816 h -1 c -2.762,0 -5,2.239 -5,5 0,2.761 2.238,5 5,5 h 1 v 14.186 c 0,2.761 2.238,5 5,5 2.762,0 5,-2.239 5,-5 V 185.81 h 1 c 2.762,0 5,-2.239 5,-5 0,-2.761 -2.238,-5 -5,-5 z"
       id="path8"
       style="stroke-width:5.01217" />
    <path
       d="m 150.618,180.588 h -1 v -26.594 c 0,-2.761 -2.238,-5 -5,-5 -2.762,0 -5,2.239 -5,5 v 26.594 h -1 c -2.762,0 -5,2.239 -5,5 0,2.761 2.238,5 5,5 h 1 v 9.408 c 0,2.761 2.238,5 5,5 2.762,0 5,-2.239 5,-5 v -9.408 h 1 c 2.762,0 5,-2.239 5,-5 0,-2.761 -2.238,-5 -5,-5 z"
       id="path9"
       style="stroke-width:5.01217" />
    <path
       d="m 213.285,156.699 h -1 v -2.705 c 0,-2.761 -2.238,-5 -5,-5 -2.762,0 -5,2.239 -5,5 v 2.705 h -1 c -2.762,0 -5,2.239 -5,5 0,2.761 2.238,5 5,5 h 1 v 33.297 c 0,2.761 2.238,5 5,5 2.762,0 5,-2.239 5,-5 v -33.297 h 1 c 2.762,0 5,-2.239 5,-5 0,-2.761 -2.238,-5 -5,-5 z"
       id="path10"
       style="stroke-width:5.01217" />
    <path
       d="m 411.812,148.995 c -7.536,0 -13.667,6.131 -13.667,13.667 0,7.536 6.131,13.667 13.667,13.667 7.535,0 13.666,-6.131 13.666,-13.667 0,-7.537 -6.131,-13.667 -13.666,-13.667 z m 0,17.333 c -2.022,0 -3.667,-1.645 -3.667,-3.667 0,-2.021 1.645,-3.667 3.667,-3.667 2.021,0 3.666,1.645 3.666,3.667 0,2.022 -1.645,3.667 -3.666,3.667 z"
       id="path11"
       style="stroke-width:5.01217" />
    <path
       d="m 382.944,148.995 c -7.535,0 -13.666,6.131 -13.666,13.667 0,7.536 6.131,13.667 13.666,13.667 7.536,0 13.667,-6.131 13.667,-13.667 0,-7.537 -6.131,-13.667 -13.667,-13.667 z m 0,17.333 c -2.021,0 -3.666,-1.645 -3.666,-3.667 0,-2.021 1.645,-3.667 3.666,-3.667 2.022,0 3.667,1.645 3.667,3.667 0,2.022 -1.644,3.667 -3.667,3.667 z"
       id="path12"
       style="stroke-width:5.01217" />
    <path
       d="m 411.812,177.662 c -7.536,0 -13.667,6.131 -13.667,13.667 0,7.536 6.131,13.667 13.667,13.667 7.535,0 13.666,-6.131 13.666,-13.667 0,-7.536 -6.131,-13.667 -13.666,-13.667 z m 0,17.334 c -2.022,0 -3.667,-1.645 -3.667,-3.667 0,-2.022 1.645,-3.667 3.667,-3.667 2.021,0 3.666,1.645 3.666,3.667 0,2.022 -1.645,3.667 -3.666,3.667 z"
       id="path13"
       style="stroke-width:5.01217" />
    <path
       d="m 382.944,177.662 c -7.535,0 -13.666,6.131 -13.666,13.667 0,7.536 6.131,13.667 13.666,13.667 7.536,0 13.667,-6.131 13.667,-13.667 0,-7.536 -6.131,-13.667 -13.667,-13.667 z m 0,17.334 c -2.021,0 -3.666,-1.645 -3.666,-3.667 0,-2.022 1.645,-3.667 3.666,-3.667 2.022,0 3.667,1.645 3.667,3.667 0,2.022 -1.644,3.667 -3.667,3.667 z"
       id="path14"
       style="stroke-width:5.01217" />
  </g>
</svg>
