<svg xmlns="http://www.w3.org/2000/svg" width="100" height="60">
    <path d="M3.464 5.705h92.914v48.291H3.464z" style="fill:#fff;stroke-width:1.51181;stroke-linecap:square;stroke-linejoin:round;stroke-miterlimit:4.7"/>
    <g style="stroke-width:5.01217">
        <path d="M460.478 106.495H7.5a7.5 7.5 0 0 0-7.5 7.5v239.988a7.5 7.5 0 0 0 7.5 7.5h452.978a7.5 7.5 0 0 0 7.5-7.5V113.995a7.5 7.5 0 0 0-7.5-7.5M48.299 243.489v62.21a5 5 0 0 0 5 5h3.611v35.784H32.495V243.489Zm43.027 0v102.994H66.91v-35.784h3.612a5 5 0 0 0 5-5v-62.21zm60.218 0v62.21a5 5 0 0 0 5 5h3.612v35.784h-24.415v-35.784h3.611a5 5 0 0 0 5-5v-62.21zm43.027 0v102.994h-24.415v-35.784h3.612a5 5 0 0 0 5-5v-62.21zm94.634 0v62.21a5 5 0 0 0 5 5h3.612v35.784h-24.416v-35.784h3.612a5 5 0 0 0 5-5v-62.21zm43.027 0v102.994h-24.415v-35.784h3.611a5 5 0 0 0 5-5v-62.21zm68.831 0v102.994h-24.415v-35.784h3.612a5 5 0 0 0 5-5v-62.21zm34.415 102.994h-24.415V243.489h24.415zm-60.218-45.784h-7.225v-57.21h7.225zm-12.225 10h3.612v35.784h-24.415V243.489h15.803v62.21a5 5 0 0 0 5 5m-56.606-10h-7.224v-57.21h7.224zm-34.415 0h-7.224v-57.21h7.224zm-12.224 10h3.611v35.784h-24.415V243.489h15.804v62.21a5 5 0 0 0 5 5m-30.804 35.784h-24.415V243.489h24.415zm-60.217-45.784h-7.225v-57.21h7.225zm-34.416 0h-7.224v-57.21h7.224zm-12.224 10h3.612v35.784h-24.415V243.489h15.803v62.21a5 5 0 0 0 5 5m-56.607-10h-7.224v-57.21h7.224zm387.456 45.784h-7.5V238.489a5 5 0 0 0-5-5H27.495a5 5 0 0 0-5 5v107.994H15V121.495h437.978z" style="stroke-width:5.01217" transform="matrix(.203 0 0 .19609 2.5 -15.883)"/>
        <path d="M27.5 224.996h412.978a5 5 0 0 0 5-5v-86.001a5 5 0 0 0-5-5H27.5a5 5 0 0 0-5 5v86.001a5 5 0 0 0 5 5m5-86.001h402.978v76.001H32.5Z" style="stroke-width:5.01217" transform="matrix(.203 0 0 .19609 2.5 -15.883)"/>
        <path d="M358.116 148.995h-93.698a5 5 0 0 0-5 5v46.001a5 5 0 0 0 5 5h93.698a5 5 0 0 0 5-5v-46.001a5 5 0 0 0-5-5m-5 46.001h-83.698v-36.001h83.698zM56.618 161.477h-1v-7.482a5 5 0 1 0-10 0v7.482h-1a5 5 0 1 0 0 10h1v28.519a5 5 0 1 0 10 0v-28.519h1a5 5 0 1 0 0-10m62.667 4.778h-1v-12.26a5 5 0 1 0-10 0v12.26h-1a5 5 0 1 0 0 10h1v23.741a5 5 0 1 0 10 0v-23.741h1a5 5 0 1 0 0-10m62.666 4.778h-1v-17.038a5 5 0 1 0-10 0v17.038h-1a5 5 0 1 0 0 10h1v18.963a5 5 0 1 0 10 0v-18.963h1a5 5 0 1 0 0-10m62.667 14.333h-1v-31.371a5 5 0 1 0-10 0v31.371h-1a5 5 0 1 0 0 10h1v4.63a5 5 0 1 0 10 0v-4.63h1a5 5 0 1 0 0-10M87.951 175.81h-1v-21.816a5 5 0 1 0-10 0v21.816h-1a5 5 0 1 0 0 10h1v14.186a5 5 0 1 0 10 0V185.81h1a5 5 0 1 0 0-10m62.667 4.778h-1v-26.594a5 5 0 1 0-10 0v26.594h-1a5 5 0 1 0 0 10h1v9.408a5 5 0 1 0 10 0v-9.408h1a5 5 0 1 0 0-10m62.667-23.889h-1v-2.705a5 5 0 1 0-10 0v2.705h-1a5 5 0 1 0 0 10h1v33.297a5 5 0 1 0 10 0v-33.297h1a5 5 0 1 0 0-10m198.527-7.704c-7.536 0-13.667 6.131-13.667 13.667s6.131 13.667 13.667 13.667 13.666-6.131 13.666-13.667c0-7.537-6.131-13.667-13.666-13.667m0 17.333a3.67 3.67 0 0 1-3.667-3.667 3.67 3.67 0 0 1 3.667-3.667 3.67 3.67 0 0 1 3.666 3.667 3.67 3.67 0 0 1-3.666 3.667m-28.868-17.333c-7.535 0-13.666 6.131-13.666 13.667s6.131 13.667 13.666 13.667 13.667-6.131 13.667-13.667c0-7.537-6.131-13.667-13.667-13.667m0 17.333a3.67 3.67 0 0 1-3.666-3.667 3.67 3.67 0 0 1 3.666-3.667 3.67 3.67 0 0 1 3.667 3.667 3.67 3.67 0 0 1-3.667 3.667m28.868 11.334c-7.536 0-13.667 6.131-13.667 13.667s6.131 13.667 13.667 13.667 13.666-6.131 13.666-13.667-6.131-13.667-13.666-13.667m0 17.334a3.67 3.67 0 0 1-3.667-3.667 3.67 3.67 0 0 1 3.667-3.667 3.67 3.67 0 0 1 3.666 3.667 3.67 3.67 0 0 1-3.666 3.667m-28.868-17.334c-7.535 0-13.666 6.131-13.666 13.667s6.131 13.667 13.666 13.667 13.667-6.131 13.667-13.667-6.131-13.667-13.667-13.667m0 17.334a3.67 3.67 0 0 1-3.666-3.667 3.67 3.67 0 0 1 3.666-3.667 3.67 3.67 0 0 1 3.667 3.667 3.67 3.67 0 0 1-3.667 3.667" style="stroke-width:5.01217" transform="matrix(.203 0 0 .19609 2.5 -15.883)"/>
    </g>
</svg>
