<?xml version="1.0" encoding="UTF-8" standalone="no"?>
<svg
   width="100"
   height="60"
   version="1.1"
   id="svg3"
   sodipodi:docname="synth_2.svg"
   inkscape:version="1.3.2 (091e20e, 2023-11-25)"
   xmlns:inkscape="http://www.inkscape.org/namespaces/inkscape"
   xmlns:sodipodi="http://sodipodi.sourceforge.net/DTD/sodipodi-0.dtd"
   xmlns="http://www.w3.org/2000/svg"
   xmlns:svg="http://www.w3.org/2000/svg">
  <defs
     id="defs3" />
  <sodipodi:namedview
     id="namedview3"
     pagecolor="#ffffff"
     bordercolor="#000000"
     borderopacity="0.25"
     inkscape:showpageshadow="2"
     inkscape:pageopacity="0.0"
     inkscape:pagecheckerboard="0"
     inkscape:deskcolor="#d1d1d1"
     inkscape:current-layer="svg3" />
  <g
     style="stroke-width:5.01217"
     id="g3"
     transform="translate(2.33e-4,-42.500903)">
    <path
       d="M 460.478,106.495 H 7.5 a 7.5,7.5 0 0 0 -7.5,7.5 v 239.988 a 7.5,7.5 0 0 0 7.5,7.5 h 452.978 a 7.5,7.5 0 0 0 7.5,-7.5 V 113.995 a 7.5,7.5 0 0 0 -7.5,-7.5 M 48.299,243.489 v 62.21 a 5,5 0 0 0 5,5 h 3.611 v 35.784 H 32.495 V 243.489 Z m 43.027,0 V 346.483 H 66.91 v -35.784 h 3.612 a 5,5 0 0 0 5,-5 v -62.21 z m 60.218,0 v 62.21 a 5,5 0 0 0 5,5 h 3.612 v 35.784 h -24.415 v -35.784 h 3.611 a 5,5 0 0 0 5,-5 v -62.21 z m 43.027,0 v 102.994 h -24.415 v -35.784 h 3.612 a 5,5 0 0 0 5,-5 v -62.21 z m 94.634,0 v 62.21 a 5,5 0 0 0 5,5 h 3.612 v 35.784 h -24.416 v -35.784 h 3.612 a 5,5 0 0 0 5,-5 v -62.21 z m 43.027,0 v 102.994 h -24.415 v -35.784 h 3.611 a 5,5 0 0 0 5,-5 v -62.21 z m 68.831,0 v 102.994 h -24.415 v -35.784 h 3.612 a 5,5 0 0 0 5,-5 v -62.21 z m 34.415,102.994 H 411.063 V 243.489 h 24.415 z M 375.26,300.699 h -7.225 v -57.21 h 7.225 z m -12.225,10 h 3.612 v 35.784 H 342.232 V 243.489 h 15.803 v 62.21 a 5,5 0 0 0 5,5 m -56.606,-10 h -7.224 v -57.21 h 7.224 z m -34.415,0 h -7.224 v -57.21 h 7.224 z m -12.224,10 h 3.611 v 35.784 H 238.986 V 243.489 h 15.804 v 62.21 a 5,5 0 0 0 5,5 m -30.804,35.784 H 204.571 V 243.489 h 24.415 z m -60.217,-45.784 h -7.225 v -57.21 h 7.225 z m -34.416,0 h -7.224 v -57.21 h 7.224 z m -12.224,10 h 3.612 v 35.784 H 101.326 V 243.489 h 15.803 v 62.21 a 5,5 0 0 0 5,5 m -56.607,-10 h -7.224 v -57.21 h 7.224 z m 387.456,45.784 h -7.5 V 238.489 a 5,5 0 0 0 -5,-5 H 27.495 a 5,5 0 0 0 -5,5 V 346.483 H 15 V 121.495 h 437.978 z"
       style="stroke-width:5.01217"
       transform="matrix(0.203,0,0,0.19609,2.5,26.618)"
       id="path1" />
    <path
       d="m 27.5,224.996 h 412.978 a 5,5 0 0 0 5,-5 v -86.001 a 5,5 0 0 0 -5,-5 H 27.5 a 5,5 0 0 0 -5,5 v 86.001 a 5,5 0 0 0 5,5 m 5,-86.001 h 402.978 v 76.001 H 32.5 Z"
       style="stroke-width:5.01217"
       transform="matrix(0.203,0,0,0.19609,2.5,26.618)"
       id="path2" />
    <path
       d="m 358.116,148.995 h -93.698 a 5,5 0 0 0 -5,5 v 46.001 a 5,5 0 0 0 5,5 h 93.698 a 5,5 0 0 0 5,-5 v -46.001 a 5,5 0 0 0 -5,-5 m -5,46.001 h -83.698 v -36.001 h 83.698 z M 56.618,161.477 h -1 v -7.482 a 5,5 0 1 0 -10,0 v 7.482 h -1 a 5,5 0 1 0 0,10 h 1 v 28.519 a 5,5 0 1 0 10,0 v -28.519 h 1 a 5,5 0 1 0 0,-10 m 62.667,4.778 h -1 v -12.26 a 5,5 0 1 0 -10,0 v 12.26 h -1 a 5,5 0 1 0 0,10 h 1 v 23.741 a 5,5 0 1 0 10,0 v -23.741 h 1 a 5,5 0 1 0 0,-10 m 62.666,4.778 h -1 v -17.038 a 5,5 0 1 0 -10,0 v 17.038 h -1 a 5,5 0 1 0 0,10 h 1 v 18.963 a 5,5 0 1 0 10,0 v -18.963 h 1 a 5,5 0 1 0 0,-10 m 62.667,14.333 h -1 v -31.371 a 5,5 0 1 0 -10,0 v 31.371 h -1 a 5,5 0 1 0 0,10 h 1 v 4.63 a 5,5 0 1 0 10,0 v -4.63 h 1 a 5,5 0 1 0 0,-10 M 87.951,175.81 h -1 v -21.816 a 5,5 0 1 0 -10,0 v 21.816 h -1 a 5,5 0 1 0 0,10 h 1 v 14.186 a 5,5 0 1 0 10,0 V 185.81 h 1 a 5,5 0 1 0 0,-10 m 62.667,4.778 h -1 v -26.594 a 5,5 0 1 0 -10,0 v 26.594 h -1 a 5,5 0 1 0 0,10 h 1 v 9.408 a 5,5 0 1 0 10,0 v -9.408 h 1 a 5,5 0 1 0 0,-10 m 62.667,-23.889 h -1 v -2.705 a 5,5 0 1 0 -10,0 v 2.705 h -1 a 5,5 0 1 0 0,10 h 1 v 33.297 a 5,5 0 1 0 10,0 v -33.297 h 1 a 5,5 0 1 0 0,-10 m 198.527,-7.704 c -7.536,0 -13.667,6.131 -13.667,13.667 0,7.536 6.131,13.667 13.667,13.667 7.536,0 13.666,-6.131 13.666,-13.667 0,-7.537 -6.131,-13.667 -13.666,-13.667 m 0,17.333 a 3.67,3.67 0 0 1 -3.667,-3.667 3.67,3.67 0 0 1 3.667,-3.667 3.67,3.67 0 0 1 3.666,3.667 3.67,3.67 0 0 1 -3.666,3.667 m -28.868,-17.333 c -7.535,0 -13.666,6.131 -13.666,13.667 0,7.536 6.131,13.667 13.666,13.667 7.535,0 13.667,-6.131 13.667,-13.667 0,-7.537 -6.131,-13.667 -13.667,-13.667 m 0,17.333 a 3.67,3.67 0 0 1 -3.666,-3.667 3.67,3.67 0 0 1 3.666,-3.667 3.67,3.67 0 0 1 3.667,3.667 3.67,3.67 0 0 1 -3.667,3.667 m 28.868,11.334 c -7.536,0 -13.667,6.131 -13.667,13.667 0,7.536 6.131,13.667 13.667,13.667 7.536,0 13.666,-6.131 13.666,-13.667 0,-7.536 -6.131,-13.667 -13.666,-13.667 m 0,17.334 a 3.67,3.67 0 0 1 -3.667,-3.667 3.67,3.67 0 0 1 3.667,-3.667 3.67,3.67 0 0 1 3.666,3.667 3.67,3.67 0 0 1 -3.666,3.667 m -28.868,-17.334 c -7.535,0 -13.666,6.131 -13.666,13.667 0,7.536 6.131,13.667 13.666,13.667 7.535,0 13.667,-6.131 13.667,-13.667 0,-7.536 -6.131,-13.667 -13.667,-13.667 m 0,17.334 a 3.67,3.67 0 0 1 -3.666,-3.667 3.67,3.67 0 0 1 3.666,-3.667 3.67,3.67 0 0 1 3.667,3.667 3.67,3.67 0 0 1 -3.667,3.667"
       style="stroke-width:5.01217"
       transform="matrix(0.203,0,0,0.19609,2.5,26.618)"
       id="path3" />
  </g>
</svg>
