<svg xmlns="http://www.w3.org/2000/svg" xml:space="preserve" width="50" height="45">
    <path d="M7.185 2.5a.697.697 0 0 0-.697.698v2.277H2.227a.697.697 0 0 0-.697.697v35.631c0 .385.312.697.697.697h6.26a.697.697 0 0 0 0-1.395H2.923V6.87h30.969a.697.697 0 0 0 0-1.394h-8.506V3.198a.697.697 0 0 0-.697-.698h-3.842a.697.697 0 0 0-.697.698v2.277h-4.585V3.198a.7.7 0 0 0-.698-.698h-2.974a.697.697 0 0 0 0 1.395h2.278v1.58h-6.29V3.198a.697.697 0 0 0-.697-.698m14.36 1.395h2.449v1.58h-2.448zM40.4 5.475a.697.697 0 0 0 0 1.394h6.677v34.236H14.683a.697.697 0 0 0 0 1.395h33.09a.697.697 0 0 0 .697-.697V6.173a.7.7 0 0 0-.698-.698zM11.188 8.852a.697.697 0 0 0-.698.697v1.861a3.67 3.67 0 0 0-1.952 3.243c0 1.403.792 2.624 1.952 3.242v8.943c0 .385.313.698.698.698h2.044a.697.697 0 0 0 .697-.698v-8.943a3.68 3.68 0 0 0 1.953-3.242 3.68 3.68 0 0 0-1.953-3.243V9.55a.697.697 0 0 0-.697-.698zm8.528 0a.697.697 0 0 0-.698.697v8.2a3.67 3.67 0 0 0-1.951 3.243c0 1.403.791 2.624 1.951 3.242v2.604c0 .385.313.697.698.697h2.045a.697.697 0 0 0 .696-.697v-2.604a3.68 3.68 0 0 0 1.953-3.242 3.68 3.68 0 0 0-1.953-3.243v-8.2a.697.697 0 0 0-.696-.697zm8.528 0a.697.697 0 0 0-.697.697v1.861a3.67 3.67 0 0 0-1.952 3.243c0 1.403.792 2.624 1.952 3.242v8.943c0 .385.312.698.697.698h2.045a.697.697 0 0 0 .697-.698v-8.943a3.68 3.68 0 0 0 1.952-3.242 3.68 3.68 0 0 0-1.952-3.243V9.55a.697.697 0 0 0-.697-.698zm8.529 0a.697.697 0 0 0-.698.697v8.2a3.67 3.67 0 0 0-1.952 3.243c0 1.403.792 2.624 1.952 3.242v2.604c0 .385.313.697.698.697h2.044a.697.697 0 0 0 .697-.697v-2.604a3.68 3.68 0 0 0 1.953-3.242 3.68 3.68 0 0 0-1.953-3.243v-8.2a.697.697 0 0 0-.697-.697zm-24.888 1.394h.65v.75a4 4 0 0 0-.325-.015q-.165 0-.325.016zm8.528 0h.65v7.09a4 4 0 0 0-.325-.015q-.165 0-.325.015zm8.528 0h.651v.75a4 4 0 0 0-.326-.015q-.165 0-.325.016zm8.529 0h.65v7.09a4 4 0 0 0-.326-.015q-.164 0-.324.015zm-25.26 2.129a2.28 2.28 0 0 1 2.277 2.278 2.28 2.28 0 0 1-2.277 2.276 2.28 2.28 0 0 1-2.277-2.276 2.28 2.28 0 0 1 2.277-2.278m17.056 0a2.28 2.28 0 0 1 2.278 2.278 2.28 2.28 0 0 1-2.278 2.276 2.28 2.28 0 0 1-2.277-2.276 2.28 2.28 0 0 1 2.277-2.278m-17.381 5.934a3.7 3.7 0 0 0 .65 0v7.832h-.65zm17.056 0a3.7 3.7 0 0 0 .651 0v7.832h-.65zm-8.203.405a2.28 2.28 0 0 1 2.278 2.278 2.28 2.28 0 0 1-2.278 2.278 2.28 2.28 0 0 1-2.277-2.278 2.28 2.28 0 0 1 2.277-2.278m17.056 0a2.28 2.28 0 0 1 2.278 2.278 2.28 2.28 0 0 1-2.278 2.278 2.28 2.28 0 0 1-2.276-2.278 2.28 2.28 0 0 1 2.276-2.278m-17.381 5.934a3.7 3.7 0 0 0 .65 0v1.493h-.65zm17.057 0a3.7 3.7 0 0 0 .65 0v1.493h-.65zm-27.358 5.706a3.766 3.766 0 0 0-3.762 3.762 3.767 3.767 0 0 0 3.762 3.763 3.77 3.77 0 0 0 3.763-3.763 3.767 3.767 0 0 0-3.763-3.762m19.907 0a3.766 3.766 0 0 0-3.762 3.762 3.767 3.767 0 0 0 3.762 3.763 3.77 3.77 0 0 0 3.763-3.763 3.767 3.767 0 0 0-3.763-3.762m10.813 0a3.74 3.74 0 0 0-2.39.832 3.74 3.74 0 0 0-1.381 2.527 3.766 3.766 0 0 0 3.744 4.166 3.77 3.77 0 0 0 3.737-3.358c.108-1-.18-1.981-.81-2.764a3.74 3.74 0 0 0-2.9-1.403m-21.126.004a3.767 3.767 0 0 0-3.254 5.36 3.74 3.74 0 0 0 2.13 1.938 3.8 3.8 0 0 0 1.278.224 3.766 3.766 0 0 0 3.401-5.365 3.77 3.77 0 0 0-3.555-2.157m.147 1.391a2.38 2.38 0 0 1 1.755.773l-1.446.68a.697.697 0 0 0-.334.928.7.7 0 0 0 .632.401.7.7 0 0 0 .295-.067l1.447-.68a2.37 2.37 0 0 1-1.338 2.476 2.35 2.35 0 0 1-1.81.084 2.35 2.35 0 0 1-1.34-1.22 2.37 2.37 0 0 1 1.135-3.15 2.4 2.4 0 0 1 1.004-.225m20.498.043-.17 1.589a.697.697 0 0 0 .693.772.697.697 0 0 0 .693-.622l.17-1.59a2.35 2.35 0 0 1 .91.691 2.368 2.368 0 1 1-3.33-.36 2.36 2.36 0 0 1 1.034-.48m-30.936.062v1.597a.697.697 0 0 0 1.395 0v-1.597c.966.298 1.67 1.2 1.67 2.262a2.37 2.37 0 0 1-2.368 2.369 2.37 2.37 0 0 1-2.367-2.369 2.37 2.37 0 0 1 1.67-2.262m19.907 0v1.597a.697.697 0 0 0 1.395 0v-1.597c.966.298 1.67 1.2 1.67 2.262a2.37 2.37 0 0 1-2.368 2.369 2.37 2.37 0 0 1-2.367-2.369 2.37 2.37 0 0 1 1.67-2.262" style="stroke-width:.521554"/>
</svg>
