<svg xmlns="http://www.w3.org/2000/svg" xml:space="preserve" width="75" height="40">
    <g transform="translate(-12.844 -48.329)scale(.4792)">
        <path d="M29.755 104.662h151.491v76.581H29.755Z" style="fill:#f90;stroke:#000;stroke-width:1.86448;stroke-linecap:square;stroke-linejoin:round;stroke-miterlimit:4.7;stroke-dasharray:none"/>
        <path d="M31.56 159.615h147.158v20.252H31.56Z" style="fill:#000;fill-opacity:1;stroke:gray;stroke-width:.4;stroke-linecap:square;stroke-linejoin:round;stroke-miterlimit:4.7;stroke-dasharray:none"/>
        <rect width="147.24" height="2.209" x="31.567" y="159.504" ry=".335" style="fill:gray;fill-opacity:1;stroke:none;stroke-width:.332115;stroke-linecap:square;stroke-linejoin:round;stroke-miterlimit:4.7;stroke-dasharray:none"/>
        <path d="M26.804 102.941h3.583v80.888h-3.583zm152.93 0h3.583v80.888h-3.583z" style="fill:#4e1800;fill-opacity:1;stroke:none;stroke-width:1.84777;stroke-linecap:square;stroke-linejoin:round;stroke-miterlimit:4.7;stroke-dasharray:none"/>
        <circle cx="171.223" cy="166.725" r="1.086" style="fill:#f90;fill-opacity:1;stroke:none;stroke-width:1.47368;stroke-linecap:square;stroke-linejoin:round;stroke-miterlimit:4.7;stroke-dasharray:none"/>
        <path d="M109.031 171.533h6.359v6.359h-6.359zm6.954 0h6.359v6.359h-6.359zm6.955 0h6.359v6.359h-6.359zm6.955 0h6.359v6.359h-6.359zm6.955 0h6.359v6.359h-6.359zm6.954 0h6.359v6.359h-6.359zm6.955 0h6.359v6.359h-6.359zm6.955 0h6.359v6.359h-6.359z" style="fill:#c00;fill-opacity:1;stroke:none;stroke-width:2;stroke-linecap:square;stroke-linejoin:round;stroke-miterlimit:4.7;stroke-dasharray:none"/>
        <path d="M112.956 162.879h5.533v5.533h-5.533zm6.999 0h5.533v5.533h-5.533zm13.758 0h5.533v5.533h-5.533zm6.88 0h5.533v5.533h-5.533zm7 0h5.533v5.533h-5.533z" style="fill:#000;fill-opacity:1;stroke:gray;stroke-width:.4;stroke-linecap:square;stroke-linejoin:round;stroke-miterlimit:4.7;stroke-dasharray:none"/>
        <path d="M52.578 165.53h5.639v2.934h-5.639zm7.055 0h5.639v2.934h-5.639zm7.056 0h5.639v2.934h-5.639zm7.055 0h5.639v2.934h-5.639zm14.112 7.409h5.639v2.934h-5.639zm7.055 0h5.639v2.934h-5.639z" style="fill:#000;fill-opacity:1;stroke:gray;stroke-width:.294073;stroke-linecap:square;stroke-linejoin:round;stroke-miterlimit:4.7;stroke-dasharray:none"/>
        <path d="M52.578 165.53h5.639v2.934h-5.639zm7.055 0h5.639v2.934h-5.639zm7.056 0h5.639v2.934h-5.639z" style="fill:#000;fill-opacity:1;stroke:gray;stroke-width:.294073;stroke-linecap:square;stroke-linejoin:round;stroke-miterlimit:4.7;stroke-dasharray:none" transform="translate(0 7.408)"/>
        <path d="M73.744 165.53h5.639v2.934h-5.639z" style="fill:#c00;fill-opacity:1;stroke:gray;stroke-width:.294073;stroke-linecap:square;stroke-linejoin:round;stroke-miterlimit:4.7;stroke-dasharray:none" transform="translate(0 7.408)"/>
        <circle cx="85.374" cy="166.601" r=".962" style="fill:#0c0;fill-opacity:1;stroke:none;stroke-width:1.30544;stroke-linecap:square;stroke-linejoin:round;stroke-miterlimit:4.7;stroke-dasharray:none"/>
        <circle cx="87.869" cy="166.601" r=".962" style="fill:gray;fill-opacity:1;stroke:none;stroke-width:1.30544;stroke-linecap:square;stroke-linejoin:round;stroke-miterlimit:4.7;stroke-dasharray:none"/>
        <circle cx="90.364" cy="166.601" r=".962" style="fill:gray;fill-opacity:1;stroke:none;stroke-width:1.30544;stroke-linecap:square;stroke-linejoin:round;stroke-miterlimit:4.7;stroke-dasharray:none"/>
        <circle cx="92.858" cy="166.601" r=".962" style="fill:#c00;fill-opacity:1;stroke:none;stroke-width:1.30544;stroke-linecap:square;stroke-linejoin:round;stroke-miterlimit:4.7;stroke-dasharray:none"/>
        <circle cx="95.353" cy="166.601" r=".962" style="fill:gray;fill-opacity:1;stroke:none;stroke-width:1.30544;stroke-linecap:square;stroke-linejoin:round;stroke-miterlimit:4.7;stroke-dasharray:none"/>
        <circle cx="97.847" cy="166.601" r=".962" style="fill:gray;fill-opacity:1;stroke:none;stroke-width:1.30544;stroke-linecap:square;stroke-linejoin:round;stroke-miterlimit:4.7;stroke-dasharray:none"/>
        <circle cx="100.342" cy="166.601" r=".962" style="fill:gray;fill-opacity:1;stroke:none;stroke-width:1.30544;stroke-linecap:square;stroke-linejoin:round;stroke-miterlimit:4.7;stroke-dasharray:none"/>
        <circle cx="102.837" cy="166.601" r=".962" style="fill:gray;fill-opacity:1;stroke:none;stroke-width:1.30544;stroke-linecap:square;stroke-linejoin:round;stroke-miterlimit:4.7;stroke-dasharray:none"/>
        <g transform="matrix(1.0002 0 0 .81133 -.021 13.851)">
            <path d="M31.56 159.615h147.158v20.252H31.56Z" style="fill:#000;fill-opacity:1;stroke:gray;stroke-width:.4;stroke-linecap:square;stroke-linejoin:round;stroke-miterlimit:4.7;stroke-dasharray:none"/>
            <rect width="147.24" height="2.209" x="31.567" y="159.504" ry=".335" style="fill:gray;fill-opacity:1;stroke:none;stroke-width:.332115;stroke-linecap:square;stroke-linejoin:round;stroke-miterlimit:4.7;stroke-dasharray:none"/>
        </g>
        <g transform="translate(0 -35.983)">
            <path d="M31.56 159.615h147.158v20.252H31.56Z" style="fill:#000;fill-opacity:1;stroke:gray;stroke-width:.4;stroke-linecap:square;stroke-linejoin:round;stroke-miterlimit:4.7;stroke-dasharray:none"/>
            <rect width="147.24" height="2.209" x="31.567" y="159.504" ry=".335" style="fill:gray;fill-opacity:1;stroke:none;stroke-width:.332115;stroke-linecap:square;stroke-linejoin:round;stroke-miterlimit:4.7;stroke-dasharray:none"/>
        </g>
        <circle cx="41.897" cy="169.793" r="3.675" style="fill:gray;fill-opacity:1;stroke:none;stroke-width:.4;stroke-linecap:square;stroke-linejoin:round;stroke-miterlimit:4.7;stroke-dasharray:none"/>
        <rect width=".591" height="1.6" x="41.602" y="166.115" ry="0" style="fill:#fff;fill-opacity:1;stroke:none;stroke-width:.228573;stroke-linecap:square;stroke-linejoin:round;stroke-miterlimit:4.7;stroke-dasharray:none"/>
        <g transform="translate(0 -37.57)">
            <circle cx="41.897" cy="169.793" r="3.675" style="fill:gray;fill-opacity:1;stroke:none;stroke-width:.4;stroke-linecap:square;stroke-linejoin:round;stroke-miterlimit:4.7;stroke-dasharray:none"/>
            <rect width=".591" height="1.6" x="41.602" y="166.115" ry="0" style="fill:#fff;fill-opacity:1;stroke:none;stroke-width:.228573;stroke-linecap:square;stroke-linejoin:round;stroke-miterlimit:4.7;stroke-dasharray:none"/>
        </g>
        <g transform="translate(18.143 -37.57)">
            <circle cx="41.897" cy="169.793" r="3.675" style="fill:gray;fill-opacity:1;stroke:none;stroke-width:.4;stroke-linecap:square;stroke-linejoin:round;stroke-miterlimit:4.7;stroke-dasharray:none"/>
            <rect width=".591" height="1.6" x="41.602" y="166.115" ry="0" style="fill:#fff;fill-opacity:1;stroke:none;stroke-width:.228573;stroke-linecap:square;stroke-linejoin:round;stroke-miterlimit:4.7;stroke-dasharray:none"/>
        </g>
        <g transform="translate(36.286 -37.57)">
            <circle cx="41.897" cy="169.793" r="3.675" style="fill:gray;fill-opacity:1;stroke:none;stroke-width:.4;stroke-linecap:square;stroke-linejoin:round;stroke-miterlimit:4.7;stroke-dasharray:none"/>
            <rect width=".591" height="1.6" x="41.602" y="166.115" ry="0" style="fill:#fff;fill-opacity:1;stroke:none;stroke-width:.228573;stroke-linecap:square;stroke-linejoin:round;stroke-miterlimit:4.7;stroke-dasharray:none"/>
        </g>
        <g transform="translate(54.429 -37.57)">
            <circle cx="41.897" cy="169.793" r="3.675" style="fill:gray;fill-opacity:1;stroke:none;stroke-width:.4;stroke-linecap:square;stroke-linejoin:round;stroke-miterlimit:4.7;stroke-dasharray:none"/>
            <rect width=".591" height="1.6" x="41.602" y="166.115" ry="0" style="fill:#fff;fill-opacity:1;stroke:none;stroke-width:.228573;stroke-linecap:square;stroke-linejoin:round;stroke-miterlimit:4.7;stroke-dasharray:none"/>
        </g>
        <g transform="translate(72.571 -37.57)">
            <circle cx="41.897" cy="169.793" r="3.675" style="fill:gray;fill-opacity:1;stroke:none;stroke-width:.4;stroke-linecap:square;stroke-linejoin:round;stroke-miterlimit:4.7;stroke-dasharray:none"/>
            <rect width=".591" height="1.6" x="41.602" y="166.115" ry="0" style="fill:#fff;fill-opacity:1;stroke:none;stroke-width:.228573;stroke-linecap:square;stroke-linejoin:round;stroke-miterlimit:4.7;stroke-dasharray:none"/>
        </g>
        <g transform="translate(90.714 -37.57)">
            <circle cx="41.897" cy="169.793" r="3.675" style="fill:gray;fill-opacity:1;stroke:none;stroke-width:.4;stroke-linecap:square;stroke-linejoin:round;stroke-miterlimit:4.7;stroke-dasharray:none"/>
            <rect width=".591" height="1.6" x="41.602" y="166.115" ry="0" style="fill:#fff;fill-opacity:1;stroke:none;stroke-width:.228573;stroke-linecap:square;stroke-linejoin:round;stroke-miterlimit:4.7;stroke-dasharray:none"/>
        </g>
        <g transform="translate(108.857 -37.57)">
            <circle cx="41.897" cy="169.793" r="3.675" style="fill:gray;fill-opacity:1;stroke:none;stroke-width:.4;stroke-linecap:square;stroke-linejoin:round;stroke-miterlimit:4.7;stroke-dasharray:none"/>
            <rect width=".591" height="1.6" x="41.602" y="166.115" ry="0" style="fill:#fff;fill-opacity:1;stroke:none;stroke-width:.228573;stroke-linecap:square;stroke-linejoin:round;stroke-miterlimit:4.7;stroke-dasharray:none"/>
        </g>
        <g transform="translate(127 -37.57)">
            <circle cx="41.897" cy="169.793" r="3.675" style="fill:gray;fill-opacity:1;stroke:none;stroke-width:.4;stroke-linecap:square;stroke-linejoin:round;stroke-miterlimit:4.7;stroke-dasharray:none"/>
            <rect width=".591" height="1.6" x="41.602" y="166.115" ry="0" style="fill:#fff;fill-opacity:1;stroke:none;stroke-width:.228573;stroke-linecap:square;stroke-linejoin:round;stroke-miterlimit:4.7;stroke-dasharray:none"/>
        </g>
        <g transform="translate(0 -17.992)">
            <circle cx="41.897" cy="169.793" r="3.675" style="fill:gray;fill-opacity:1;stroke:none;stroke-width:.4;stroke-linecap:square;stroke-linejoin:round;stroke-miterlimit:4.7;stroke-dasharray:none"/>
            <rect width=".591" height="1.6" x="41.602" y="166.115" ry="0" style="fill:#fff;fill-opacity:1;stroke:none;stroke-width:.228573;stroke-linecap:square;stroke-linejoin:round;stroke-miterlimit:4.7;stroke-dasharray:none"/>
        </g>
        <g transform="translate(18.143 -17.992)">
            <circle cx="41.897" cy="169.793" r="3.675" style="fill:gray;fill-opacity:1;stroke:none;stroke-width:.4;stroke-linecap:square;stroke-linejoin:round;stroke-miterlimit:4.7;stroke-dasharray:none"/>
            <rect width=".591" height="1.6" x="41.602" y="166.115" ry="0" style="fill:#fff;fill-opacity:1;stroke:none;stroke-width:.228573;stroke-linecap:square;stroke-linejoin:round;stroke-miterlimit:4.7;stroke-dasharray:none"/>
        </g>
        <g transform="translate(36.286 -17.992)">
            <circle cx="41.897" cy="169.793" r="3.675" style="fill:gray;fill-opacity:1;stroke:none;stroke-width:.4;stroke-linecap:square;stroke-linejoin:round;stroke-miterlimit:4.7;stroke-dasharray:none"/>
            <rect width=".591" height="1.6" x="41.602" y="166.115" ry="0" style="fill:#fff;fill-opacity:1;stroke:none;stroke-width:.228573;stroke-linecap:square;stroke-linejoin:round;stroke-miterlimit:4.7;stroke-dasharray:none"/>
        </g>
        <g transform="translate(72.571 -17.992)">
            <circle cx="41.897" cy="169.793" r="3.675" style="fill:gray;fill-opacity:1;stroke:none;stroke-width:.4;stroke-linecap:square;stroke-linejoin:round;stroke-miterlimit:4.7;stroke-dasharray:none"/>
            <rect width=".591" height="1.6" x="41.602" y="166.115" ry="0" style="fill:#fff;fill-opacity:1;stroke:none;stroke-width:.228573;stroke-linecap:square;stroke-linejoin:round;stroke-miterlimit:4.7;stroke-dasharray:none"/>
        </g>
        <path d="M14.63 142.152h.722v37.296h-.722Z" style="fill:gray;fill-opacity:1;stroke:none;stroke-width:.4;stroke-linecap:square;stroke-linejoin:round;stroke-miterlimit:4.7;stroke-dasharray:none" transform="translate(90.714 -17.992)"/>
        <g transform="translate(108.857 -17.992)">
            <circle cx="41.897" cy="169.793" r="3.675" style="fill:gray;fill-opacity:1;stroke:none;stroke-width:.4;stroke-linecap:square;stroke-linejoin:round;stroke-miterlimit:4.7;stroke-dasharray:none"/>
            <rect width=".591" height="1.6" x="41.602" y="166.115" ry="0" style="fill:#fff;fill-opacity:1;stroke:none;stroke-width:.228573;stroke-linecap:square;stroke-linejoin:round;stroke-miterlimit:4.7;stroke-dasharray:none"/>
        </g>
        <g transform="translate(127 -17.992)">
            <circle cx="41.897" cy="169.793" r="3.675" style="fill:gray;fill-opacity:1;stroke:none;stroke-width:.4;stroke-linecap:square;stroke-linejoin:round;stroke-miterlimit:4.7;stroke-dasharray:none"/>
            <rect width=".591" height="1.6" x="41.602" y="166.115" ry="0" style="fill:#fff;fill-opacity:1;stroke:none;stroke-width:.228573;stroke-linecap:square;stroke-linejoin:round;stroke-miterlimit:4.7;stroke-dasharray:none"/>
        </g>
        <circle cx="59.756" cy="140.707" r="1.176" style="fill:#fff;fill-opacity:1;stroke:none;stroke-width:.294056;stroke-linecap:square;stroke-linejoin:round;stroke-miterlimit:4.7;stroke-dasharray:none"/>
        <path d="M59.715 140.59v.361l2.84.491v-1.314z" style="fill:gray;fill-opacity:1;stroke:none;stroke-width:.224453;stroke-linecap:square;stroke-linejoin:round;stroke-miterlimit:4.7;stroke-dasharray:none"/>
        <g transform="translate(18.256)">
            <circle cx="59.756" cy="140.707" r="1.176" style="fill:#fff;fill-opacity:1;stroke:none;stroke-width:.294056;stroke-linecap:square;stroke-linejoin:round;stroke-miterlimit:4.7;stroke-dasharray:none"/>
            <path d="M59.715 140.59v.361l2.84.491v-1.314z" style="fill:gray;fill-opacity:1;stroke:none;stroke-width:.224453;stroke-linecap:square;stroke-linejoin:round;stroke-miterlimit:4.7;stroke-dasharray:none"/>
        </g>
        <g transform="translate(36.513)">
            <circle cx="59.756" cy="140.707" r="1.176" style="fill:#fff;fill-opacity:1;stroke:none;stroke-width:.294056;stroke-linecap:square;stroke-linejoin:round;stroke-miterlimit:4.7;stroke-dasharray:none"/>
            <path d="M59.715 140.59v.361l2.84.491v-1.314z" style="fill:gray;fill-opacity:1;stroke:none;stroke-width:.224453;stroke-linecap:square;stroke-linejoin:round;stroke-miterlimit:4.7;stroke-dasharray:none"/>
        </g>
        <g transform="translate(54.769)">
            <circle cx="59.756" cy="140.707" r="1.176" style="fill:#fff;fill-opacity:1;stroke:none;stroke-width:.294056;stroke-linecap:square;stroke-linejoin:round;stroke-miterlimit:4.7;stroke-dasharray:none"/>
            <path d="M59.715 140.59v.361l2.84.491v-1.314z" style="fill:gray;fill-opacity:1;stroke:none;stroke-width:.224453;stroke-linecap:square;stroke-linejoin:round;stroke-miterlimit:4.7;stroke-dasharray:none"/>
        </g>
        <g transform="translate(73.025)">
            <circle cx="59.756" cy="140.707" r="1.176" style="fill:#fff;fill-opacity:1;stroke:none;stroke-width:.294056;stroke-linecap:square;stroke-linejoin:round;stroke-miterlimit:4.7;stroke-dasharray:none"/>
            <path d="M59.715 140.59v.361l2.84.491v-1.314z" style="fill:gray;fill-opacity:1;stroke:none;stroke-width:.224453;stroke-linecap:square;stroke-linejoin:round;stroke-miterlimit:4.7;stroke-dasharray:none"/>
        </g>
        <g transform="translate(91.281)">
            <circle cx="59.756" cy="140.707" r="1.176" style="fill:#fff;fill-opacity:1;stroke:none;stroke-width:.294056;stroke-linecap:square;stroke-linejoin:round;stroke-miterlimit:4.7;stroke-dasharray:none"/>
            <path d="M59.715 140.59v.361l2.84.491v-1.314z" style="fill:gray;fill-opacity:1;stroke:none;stroke-width:.224453;stroke-linecap:square;stroke-linejoin:round;stroke-miterlimit:4.7;stroke-dasharray:none"/>
        </g>
        <g transform="translate(109.538)">
            <circle cx="59.756" cy="140.707" r="1.176" style="fill:#fff;fill-opacity:1;stroke:none;stroke-width:.294056;stroke-linecap:square;stroke-linejoin:round;stroke-miterlimit:4.7;stroke-dasharray:none"/>
            <path d="M59.715 140.59v.361l2.84.491v-1.314z" style="fill:gray;fill-opacity:1;stroke:none;stroke-width:.224453;stroke-linecap:square;stroke-linejoin:round;stroke-miterlimit:4.7;stroke-dasharray:none"/>
        </g>
        <g transform="translate(36.513 11.113)">
            <circle cx="59.756" cy="140.707" r="1.176" style="fill:#fff;fill-opacity:1;stroke:none;stroke-width:.294056;stroke-linecap:square;stroke-linejoin:round;stroke-miterlimit:4.7;stroke-dasharray:none"/>
            <path d="M59.715 140.59v.361l2.84.491v-1.314z" style="fill:gray;fill-opacity:1;stroke:none;stroke-width:.224453;stroke-linecap:square;stroke-linejoin:round;stroke-miterlimit:4.7;stroke-dasharray:none"/>
        </g>
        <g transform="translate(73.025 11.113)">
            <circle cx="59.756" cy="140.707" r="1.176" style="fill:#fff;fill-opacity:1;stroke:none;stroke-width:.294056;stroke-linecap:square;stroke-linejoin:round;stroke-miterlimit:4.7;stroke-dasharray:none"/>
            <path d="M59.715 140.59v.361l2.84.491v-1.314z" style="fill:gray;fill-opacity:1;stroke:none;stroke-width:.224453;stroke-linecap:square;stroke-linejoin:round;stroke-miterlimit:4.7;stroke-dasharray:none"/>
        </g>
        <circle cx="119.316" cy="148.081" r=".962" style="fill:#c00;fill-opacity:1;stroke:none;stroke-width:1.30544;stroke-linecap:square;stroke-linejoin:round;stroke-miterlimit:4.7;stroke-dasharray:none"/>
        <g style="fill:#000;stroke:gray">
            <path d="M70.678 111.279a.897.897 0 0 1-.897.897.897.897 0 0 1-.897-.897.897.897 0 0 1 .897-.897.897.897 0 0 1 .897.897z" style="fill:#000;stroke:gray;stroke-width:.513296;stroke-linecap:square;stroke-linejoin:round;stroke-miterlimit:4.7" transform="translate(-10.373 -2.091)scale(1.0207)"/>
            <path d="M69.781 109.332a1.95 1.95 0 0 0-1.947 1.947 1.95 1.95 0 0 0 1.947 1.947 1.95 1.95 0 0 0 1.947-1.947 1.95 1.95 0 0 0-1.947-1.947zm0 .398c.857 0 1.547.692 1.547 1.549s-.69 1.547-1.547 1.547-1.547-.69-1.547-1.547.69-1.549 1.547-1.549z" style="fill:#000;stroke:gray;stroke-width:.326027;stroke-linecap:square;stroke-linejoin:round;stroke-miterlimit:4.7;stroke-dasharray:none" transform="translate(-10.373 -2.091)scale(1.0207)"/>
            <path d="M70.678 111.279a.897.897 0 0 1-.897.897.897.897 0 0 1-.897-.897.897.897 0 0 1 .897-.897.897.897 0 0 1 .897.897z" style="fill:#000;stroke:gray;stroke-width:.513296;stroke-linecap:square;stroke-linejoin:round;stroke-miterlimit:4.7" transform="translate(-10.373 4.299)scale(1.0207)"/>
            <path d="M69.781 109.332a1.95 1.95 0 0 0-1.947 1.947 1.95 1.95 0 0 0 1.947 1.947 1.95 1.95 0 0 0 1.947-1.947 1.95 1.95 0 0 0-1.947-1.947zm0 .398c.857 0 1.547.692 1.547 1.549s-.69 1.547-1.547 1.547-1.547-.69-1.547-1.547.69-1.549 1.547-1.549z" style="fill:#000;stroke:gray;stroke-width:.326027;stroke-linecap:square;stroke-linejoin:round;stroke-miterlimit:4.7;stroke-dasharray:none" transform="translate(-10.373 4.299)scale(1.0207)"/>
            <path d="M70.678 111.279a.897.897 0 0 1-.897.897.897.897 0 0 1-.897-.897.897.897 0 0 1 .897-.897.897.897 0 0 1 .897.897z" style="fill:#000;stroke:gray;stroke-width:.513296;stroke-linecap:square;stroke-linejoin:round;stroke-miterlimit:4.7" transform="translate(-3.983 -2.091)scale(1.0207)"/>
            <path d="M69.781 109.332a1.95 1.95 0 0 0-1.947 1.947 1.95 1.95 0 0 0 1.947 1.947 1.95 1.95 0 0 0 1.947-1.947 1.95 1.95 0 0 0-1.947-1.947zm0 .398c.857 0 1.547.692 1.547 1.549s-.69 1.547-1.547 1.547-1.547-.69-1.547-1.547.69-1.549 1.547-1.549z" style="fill:#000;stroke:gray;stroke-width:.326027;stroke-linecap:square;stroke-linejoin:round;stroke-miterlimit:4.7;stroke-dasharray:none" transform="translate(-3.983 -2.091)scale(1.0207)"/>
            <path d="M70.678 111.279a.897.897 0 0 1-.897.897.897.897 0 0 1-.897-.897.897.897 0 0 1 .897-.897.897.897 0 0 1 .897.897z" style="fill:#000;stroke:gray;stroke-width:.513296;stroke-linecap:square;stroke-linejoin:round;stroke-miterlimit:4.7" transform="translate(-3.983 4.299)scale(1.0207)"/>
            <path d="M69.781 109.332a1.95 1.95 0 0 0-1.947 1.947 1.95 1.95 0 0 0 1.947 1.947 1.95 1.95 0 0 0 1.947-1.947 1.95 1.95 0 0 0-1.947-1.947zm0 .398c.857 0 1.547.692 1.547 1.549s-.69 1.547-1.547 1.547-1.547-.69-1.547-1.547.69-1.549 1.547-1.549z" style="fill:#000;stroke:gray;stroke-width:.326027;stroke-linecap:square;stroke-linejoin:round;stroke-miterlimit:4.7;stroke-dasharray:none" transform="translate(-3.983 4.299)scale(1.0207)"/>
            <path d="M70.678 111.279a.897.897 0 0 1-.897.897.897.897 0 0 1-.897-.897.897.897 0 0 1 .897-.897.897.897 0 0 1 .897.897z" style="fill:#000;stroke:gray;stroke-width:.513296;stroke-linecap:square;stroke-linejoin:round;stroke-miterlimit:4.7" transform="translate(2.407 -2.091)scale(1.0207)"/>
            <path d="M69.781 109.332a1.95 1.95 0 0 0-1.947 1.947 1.95 1.95 0 0 0 1.947 1.947 1.95 1.95 0 0 0 1.947-1.947 1.95 1.95 0 0 0-1.947-1.947zm0 .398c.857 0 1.547.692 1.547 1.549s-.69 1.547-1.547 1.547-1.547-.69-1.547-1.547.69-1.549 1.547-1.549z" style="fill:#000;stroke:gray;stroke-width:.326027;stroke-linecap:square;stroke-linejoin:round;stroke-miterlimit:4.7;stroke-dasharray:none" transform="translate(2.407 -2.091)scale(1.0207)"/>
            <path d="M70.678 111.279a.897.897 0 0 1-.897.897.897.897 0 0 1-.897-.897.897.897 0 0 1 .897-.897.897.897 0 0 1 .897.897z" style="fill:#000;stroke:gray;stroke-width:.513296;stroke-linecap:square;stroke-linejoin:round;stroke-miterlimit:4.7" transform="translate(2.407 4.299)scale(1.0207)"/>
            <path d="M69.781 109.332a1.95 1.95 0 0 0-1.947 1.947 1.95 1.95 0 0 0 1.947 1.947 1.95 1.95 0 0 0 1.947-1.947 1.95 1.95 0 0 0-1.947-1.947zm0 .398c.857 0 1.547.692 1.547 1.549s-.69 1.547-1.547 1.547-1.547-.69-1.547-1.547.69-1.549 1.547-1.549z" style="fill:#000;stroke:gray;stroke-width:.326027;stroke-linecap:square;stroke-linejoin:round;stroke-miterlimit:4.7;stroke-dasharray:none" transform="translate(2.407 4.299)scale(1.0207)"/>
            <path d="M70.678 111.279a.897.897 0 0 1-.897.897.897.897 0 0 1-.897-.897.897.897 0 0 1 .897-.897.897.897 0 0 1 .897.897z" style="fill:#000;stroke:gray;stroke-width:.513296;stroke-linecap:square;stroke-linejoin:round;stroke-miterlimit:4.7" transform="translate(8.797 -2.091)scale(1.0207)"/>
            <path d="M69.781 109.332a1.95 1.95 0 0 0-1.947 1.947 1.95 1.95 0 0 0 1.947 1.947 1.95 1.95 0 0 0 1.947-1.947 1.95 1.95 0 0 0-1.947-1.947zm0 .398c.857 0 1.547.692 1.547 1.549s-.69 1.547-1.547 1.547-1.547-.69-1.547-1.547.69-1.549 1.547-1.549z" style="fill:#000;stroke:gray;stroke-width:.326027;stroke-linecap:square;stroke-linejoin:round;stroke-miterlimit:4.7;stroke-dasharray:none" transform="translate(8.797 -2.091)scale(1.0207)"/>
            <path d="M70.678 111.279a.897.897 0 0 1-.897.897.897.897 0 0 1-.897-.897.897.897 0 0 1 .897-.897.897.897 0 0 1 .897.897z" style="fill:#000;stroke:gray;stroke-width:.513296;stroke-linecap:square;stroke-linejoin:round;stroke-miterlimit:4.7" transform="translate(8.797 4.299)scale(1.0207)"/>
            <path d="M69.781 109.332a1.95 1.95 0 0 0-1.947 1.947 1.95 1.95 0 0 0 1.947 1.947 1.95 1.95 0 0 0 1.947-1.947 1.95 1.95 0 0 0-1.947-1.947zm0 .398c.857 0 1.547.692 1.547 1.549s-.69 1.547-1.547 1.547-1.547-.69-1.547-1.547.69-1.549 1.547-1.549z" style="fill:#000;stroke:gray;stroke-width:.326027;stroke-linecap:square;stroke-linejoin:round;stroke-miterlimit:4.7;stroke-dasharray:none" transform="translate(8.797 4.299)scale(1.0207)"/>
            <path d="M70.678 111.279a.897.897 0 0 1-.897.897.897.897 0 0 1-.897-.897.897.897 0 0 1 .897-.897.897.897 0 0 1 .897.897z" style="fill:#000;stroke:gray;stroke-width:.513296;stroke-linecap:square;stroke-linejoin:round;stroke-miterlimit:4.7" transform="translate(15.187 -2.091)scale(1.0207)"/>
            <path d="M69.781 109.332a1.95 1.95 0 0 0-1.947 1.947 1.95 1.95 0 0 0 1.947 1.947 1.95 1.95 0 0 0 1.947-1.947 1.95 1.95 0 0 0-1.947-1.947zm0 .398c.857 0 1.547.692 1.547 1.549s-.69 1.547-1.547 1.547-1.547-.69-1.547-1.547.69-1.549 1.547-1.549z" style="fill:#000;stroke:gray;stroke-width:.326027;stroke-linecap:square;stroke-linejoin:round;stroke-miterlimit:4.7;stroke-dasharray:none" transform="translate(15.187 -2.091)scale(1.0207)"/>
            <path d="M70.678 111.279a.897.897 0 0 1-.897.897.897.897 0 0 1-.897-.897.897.897 0 0 1 .897-.897.897.897 0 0 1 .897.897z" style="fill:#000;stroke:gray;stroke-width:.513296;stroke-linecap:square;stroke-linejoin:round;stroke-miterlimit:4.7" transform="translate(15.187 4.299)scale(1.0207)"/>
            <path d="M69.781 109.332a1.95 1.95 0 0 0-1.947 1.947 1.95 1.95 0 0 0 1.947 1.947 1.95 1.95 0 0 0 1.947-1.947 1.95 1.95 0 0 0-1.947-1.947zm0 .398c.857 0 1.547.692 1.547 1.549s-.69 1.547-1.547 1.547-1.547-.69-1.547-1.547.69-1.549 1.547-1.549z" style="fill:#000;stroke:gray;stroke-width:.326027;stroke-linecap:square;stroke-linejoin:round;stroke-miterlimit:4.7;stroke-dasharray:none" transform="translate(15.187 4.299)scale(1.0207)"/>
            <path d="M70.678 111.279a.897.897 0 0 1-.897.897.897.897 0 0 1-.897-.897.897.897 0 0 1 .897-.897.897.897 0 0 1 .897.897z" style="fill:#000;stroke:gray;stroke-width:.513296;stroke-linecap:square;stroke-linejoin:round;stroke-miterlimit:4.7" transform="translate(21.577 -2.091)scale(1.0207)"/>
            <path d="M69.781 109.332a1.95 1.95 0 0 0-1.947 1.947 1.95 1.95 0 0 0 1.947 1.947 1.95 1.95 0 0 0 1.947-1.947 1.95 1.95 0 0 0-1.947-1.947zm0 .398c.857 0 1.547.692 1.547 1.549s-.69 1.547-1.547 1.547-1.547-.69-1.547-1.547.69-1.549 1.547-1.549z" style="fill:#000;stroke:gray;stroke-width:.326027;stroke-linecap:square;stroke-linejoin:round;stroke-miterlimit:4.7;stroke-dasharray:none" transform="translate(21.577 -2.091)scale(1.0207)"/>
            <path d="M70.678 111.279a.897.897 0 0 1-.897.897.897.897 0 0 1-.897-.897.897.897 0 0 1 .897-.897.897.897 0 0 1 .897.897z" style="fill:#000;stroke:gray;stroke-width:.513296;stroke-linecap:square;stroke-linejoin:round;stroke-miterlimit:4.7" transform="translate(21.577 4.299)scale(1.0207)"/>
            <path d="M69.781 109.332a1.95 1.95 0 0 0-1.947 1.947 1.95 1.95 0 0 0 1.947 1.947 1.95 1.95 0 0 0 1.947-1.947 1.95 1.95 0 0 0-1.947-1.947zm0 .398c.857 0 1.547.692 1.547 1.549s-.69 1.547-1.547 1.547-1.547-.69-1.547-1.547.69-1.549 1.547-1.549z" style="fill:#000;stroke:gray;stroke-width:.326027;stroke-linecap:square;stroke-linejoin:round;stroke-miterlimit:4.7;stroke-dasharray:none" transform="translate(21.577 4.299)scale(1.0207)"/>
            <path d="M70.678 111.279a.897.897 0 0 1-.897.897.897.897 0 0 1-.897-.897.897.897 0 0 1 .897-.897.897.897 0 0 1 .897.897z" style="fill:#000;stroke:gray;stroke-width:.513296;stroke-linecap:square;stroke-linejoin:round;stroke-miterlimit:4.7" transform="translate(27.967 -2.091)scale(1.0207)"/>
            <path d="M69.781 109.332a1.95 1.95 0 0 0-1.947 1.947 1.95 1.95 0 0 0 1.947 1.947 1.95 1.95 0 0 0 1.947-1.947 1.95 1.95 0 0 0-1.947-1.947zm0 .398c.857 0 1.547.692 1.547 1.549s-.69 1.547-1.547 1.547-1.547-.69-1.547-1.547.69-1.549 1.547-1.549z" style="fill:#000;stroke:gray;stroke-width:.326027;stroke-linecap:square;stroke-linejoin:round;stroke-miterlimit:4.7;stroke-dasharray:none" transform="translate(27.967 -2.091)scale(1.0207)"/>
            <path d="M70.678 111.279a.897.897 0 0 1-.897.897.897.897 0 0 1-.897-.897.897.897 0 0 1 .897-.897.897.897 0 0 1 .897.897z" style="fill:#000;stroke:gray;stroke-width:.513296;stroke-linecap:square;stroke-linejoin:round;stroke-miterlimit:4.7" transform="translate(27.967 4.299)scale(1.0207)"/>
            <path d="M69.781 109.332a1.95 1.95 0 0 0-1.947 1.947 1.95 1.95 0 0 0 1.947 1.947 1.95 1.95 0 0 0 1.947-1.947 1.95 1.95 0 0 0-1.947-1.947zm0 .398c.857 0 1.547.692 1.547 1.549s-.69 1.547-1.547 1.547-1.547-.69-1.547-1.547.69-1.549 1.547-1.549z" style="fill:#000;stroke:gray;stroke-width:.326027;stroke-linecap:square;stroke-linejoin:round;stroke-miterlimit:4.7;stroke-dasharray:none" transform="translate(27.967 4.299)scale(1.0207)"/>
            <path d="M70.678 111.279a.897.897 0 0 1-.897.897.897.897 0 0 1-.897-.897.897.897 0 0 1 .897-.897.897.897 0 0 1 .897.897z" style="fill:#000;stroke:gray;stroke-width:.513296;stroke-linecap:square;stroke-linejoin:round;stroke-miterlimit:4.7" transform="translate(34.357 -2.091)scale(1.0207)"/>
            <path d="M69.781 109.332a1.95 1.95 0 0 0-1.947 1.947 1.95 1.95 0 0 0 1.947 1.947 1.95 1.95 0 0 0 1.947-1.947 1.95 1.95 0 0 0-1.947-1.947zm0 .398c.857 0 1.547.692 1.547 1.549s-.69 1.547-1.547 1.547-1.547-.69-1.547-1.547.69-1.549 1.547-1.549z" style="fill:#000;stroke:gray;stroke-width:.326027;stroke-linecap:square;stroke-linejoin:round;stroke-miterlimit:4.7;stroke-dasharray:none" transform="translate(34.357 -2.091)scale(1.0207)"/>
            <path d="M70.678 111.279a.897.897 0 0 1-.897.897.897.897 0 0 1-.897-.897.897.897 0 0 1 .897-.897.897.897 0 0 1 .897.897z" style="fill:#000;stroke:gray;stroke-width:.513296;stroke-linecap:square;stroke-linejoin:round;stroke-miterlimit:4.7" transform="translate(34.357 4.299)scale(1.0207)"/>
            <path d="M69.781 109.332a1.95 1.95 0 0 0-1.947 1.947 1.95 1.95 0 0 0 1.947 1.947 1.95 1.95 0 0 0 1.947-1.947 1.95 1.95 0 0 0-1.947-1.947zm0 .398c.857 0 1.547.692 1.547 1.549s-.69 1.547-1.547 1.547-1.547-.69-1.547-1.547.69-1.549 1.547-1.549z" style="fill:#000;stroke:gray;stroke-width:.326027;stroke-linecap:square;stroke-linejoin:round;stroke-miterlimit:4.7;stroke-dasharray:none" transform="translate(34.357 4.299)scale(1.0207)"/>
            <path d="M70.678 111.279a.897.897 0 0 1-.897.897.897.897 0 0 1-.897-.897.897.897 0 0 1 .897-.897.897.897 0 0 1 .897.897z" style="fill:#000;stroke:gray;stroke-width:.513296;stroke-linecap:square;stroke-linejoin:round;stroke-miterlimit:4.7" transform="translate(40.747 -2.091)scale(1.0207)"/>
            <path d="M69.781 109.332a1.95 1.95 0 0 0-1.947 1.947 1.95 1.95 0 0 0 1.947 1.947 1.95 1.95 0 0 0 1.947-1.947 1.95 1.95 0 0 0-1.947-1.947zm0 .398c.857 0 1.547.692 1.547 1.549s-.69 1.547-1.547 1.547-1.547-.69-1.547-1.547.69-1.549 1.547-1.549z" style="fill:#000;stroke:gray;stroke-width:.326027;stroke-linecap:square;stroke-linejoin:round;stroke-miterlimit:4.7;stroke-dasharray:none" transform="translate(40.747 -2.091)scale(1.0207)"/>
            <path d="M70.678 111.279a.897.897 0 0 1-.897.897.897.897 0 0 1-.897-.897.897.897 0 0 1 .897-.897.897.897 0 0 1 .897.897z" style="fill:#000;stroke:gray;stroke-width:.513296;stroke-linecap:square;stroke-linejoin:round;stroke-miterlimit:4.7" transform="translate(40.747 4.299)scale(1.0207)"/>
            <path d="M69.781 109.332a1.95 1.95 0 0 0-1.947 1.947 1.95 1.95 0 0 0 1.947 1.947 1.95 1.95 0 0 0 1.947-1.947 1.95 1.95 0 0 0-1.947-1.947zm0 .398c.857 0 1.547.692 1.547 1.549s-.69 1.547-1.547 1.547-1.547-.69-1.547-1.547.69-1.549 1.547-1.549z" style="fill:#000;stroke:gray;stroke-width:.326027;stroke-linecap:square;stroke-linejoin:round;stroke-miterlimit:4.7;stroke-dasharray:none" transform="translate(40.747 4.299)scale(1.0207)"/>
            <path d="M70.678 111.279a.897.897 0 0 1-.897.897.897.897 0 0 1-.897-.897.897.897 0 0 1 .897-.897.897.897 0 0 1 .897.897z" style="fill:#000;stroke:gray;stroke-width:.513296;stroke-linecap:square;stroke-linejoin:round;stroke-miterlimit:4.7" transform="translate(47.137 -2.091)scale(1.0207)"/>
            <path d="M69.781 109.332a1.95 1.95 0 0 0-1.947 1.947 1.95 1.95 0 0 0 1.947 1.947 1.95 1.95 0 0 0 1.947-1.947 1.95 1.95 0 0 0-1.947-1.947zm0 .398c.857 0 1.547.692 1.547 1.549s-.69 1.547-1.547 1.547-1.547-.69-1.547-1.547.69-1.549 1.547-1.549z" style="fill:#000;stroke:gray;stroke-width:.326027;stroke-linecap:square;stroke-linejoin:round;stroke-miterlimit:4.7;stroke-dasharray:none" transform="translate(47.137 -2.091)scale(1.0207)"/>
            <path d="M70.678 111.279a.897.897 0 0 1-.897.897.897.897 0 0 1-.897-.897.897.897 0 0 1 .897-.897.897.897 0 0 1 .897.897z" style="fill:#000;stroke:gray;stroke-width:.513296;stroke-linecap:square;stroke-linejoin:round;stroke-miterlimit:4.7" transform="translate(47.137 4.299)scale(1.0207)"/>
            <path d="M69.781 109.332a1.95 1.95 0 0 0-1.947 1.947 1.95 1.95 0 0 0 1.947 1.947 1.95 1.95 0 0 0 1.947-1.947 1.95 1.95 0 0 0-1.947-1.947zm0 .398c.857 0 1.547.692 1.547 1.549s-.69 1.547-1.547 1.547-1.547-.69-1.547-1.547.69-1.549 1.547-1.549z" style="fill:#000;stroke:gray;stroke-width:.326027;stroke-linecap:square;stroke-linejoin:round;stroke-miterlimit:4.7;stroke-dasharray:none" transform="translate(47.137 4.299)scale(1.0207)"/>
            <path d="M70.678 111.279a.897.897 0 0 1-.897.897.897.897 0 0 1-.897-.897.897.897 0 0 1 .897-.897.897.897 0 0 1 .897.897z" style="fill:#000;stroke:gray;stroke-width:.513296;stroke-linecap:square;stroke-linejoin:round;stroke-miterlimit:4.7" transform="translate(53.527 -2.091)scale(1.0207)"/>
            <path d="M69.781 109.332a1.95 1.95 0 0 0-1.947 1.947 1.95 1.95 0 0 0 1.947 1.947 1.95 1.95 0 0 0 1.947-1.947 1.95 1.95 0 0 0-1.947-1.947zm0 .398c.857 0 1.547.692 1.547 1.549s-.69 1.547-1.547 1.547-1.547-.69-1.547-1.547.69-1.549 1.547-1.549z" style="fill:#000;stroke:gray;stroke-width:.326027;stroke-linecap:square;stroke-linejoin:round;stroke-miterlimit:4.7;stroke-dasharray:none" transform="translate(53.527 -2.091)scale(1.0207)"/>
            <path d="M70.678 111.279a.897.897 0 0 1-.897.897.897.897 0 0 1-.897-.897.897.897 0 0 1 .897-.897.897.897 0 0 1 .897.897z" style="fill:#000;stroke:gray;stroke-width:.513296;stroke-linecap:square;stroke-linejoin:round;stroke-miterlimit:4.7" transform="translate(53.527 4.299)scale(1.0207)"/>
            <path d="M69.781 109.332a1.95 1.95 0 0 0-1.947 1.947 1.95 1.95 0 0 0 1.947 1.947 1.95 1.95 0 0 0 1.947-1.947 1.95 1.95 0 0 0-1.947-1.947zm0 .398c.857 0 1.547.692 1.547 1.549s-.69 1.547-1.547 1.547-1.547-.69-1.547-1.547.69-1.549 1.547-1.549z" style="fill:#000;stroke:gray;stroke-width:.326027;stroke-linecap:square;stroke-linejoin:round;stroke-miterlimit:4.7;stroke-dasharray:none" transform="translate(53.527 4.299)scale(1.0207)"/>
            <path d="M70.678 111.279a.897.897 0 0 1-.897.897.897.897 0 0 1-.897-.897.897.897 0 0 1 .897-.897.897.897 0 0 1 .897.897z" style="fill:#000;stroke:gray;stroke-width:.513296;stroke-linecap:square;stroke-linejoin:round;stroke-miterlimit:4.7" transform="translate(59.917 -2.091)scale(1.0207)"/>
            <path d="M69.781 109.332a1.95 1.95 0 0 0-1.947 1.947 1.95 1.95 0 0 0 1.947 1.947 1.95 1.95 0 0 0 1.947-1.947 1.95 1.95 0 0 0-1.947-1.947zm0 .398c.857 0 1.547.692 1.547 1.549s-.69 1.547-1.547 1.547-1.547-.69-1.547-1.547.69-1.549 1.547-1.549z" style="fill:#000;stroke:gray;stroke-width:.326027;stroke-linecap:square;stroke-linejoin:round;stroke-miterlimit:4.7;stroke-dasharray:none" transform="translate(59.917 -2.091)scale(1.0207)"/>
            <path d="M70.678 111.279a.897.897 0 0 1-.897.897.897.897 0 0 1-.897-.897.897.897 0 0 1 .897-.897.897.897 0 0 1 .897.897z" style="fill:#000;stroke:gray;stroke-width:.513296;stroke-linecap:square;stroke-linejoin:round;stroke-miterlimit:4.7" transform="translate(59.917 4.299)scale(1.0207)"/>
            <path d="M69.781 109.332a1.95 1.95 0 0 0-1.947 1.947 1.95 1.95 0 0 0 1.947 1.947 1.95 1.95 0 0 0 1.947-1.947 1.95 1.95 0 0 0-1.947-1.947zm0 .398c.857 0 1.547.692 1.547 1.549s-.69 1.547-1.547 1.547-1.547-.69-1.547-1.547.69-1.549 1.547-1.549z" style="fill:#000;stroke:gray;stroke-width:.326027;stroke-linecap:square;stroke-linejoin:round;stroke-miterlimit:4.7;stroke-dasharray:none" transform="translate(59.917 4.299)scale(1.0207)"/>
            <path d="M70.678 111.279a.897.897 0 0 1-.897.897.897.897 0 0 1-.897-.897.897.897 0 0 1 .897-.897.897.897 0 0 1 .897.897z" style="fill:#000;stroke:gray;stroke-width:.513296;stroke-linecap:square;stroke-linejoin:round;stroke-miterlimit:4.7" transform="translate(66.307 -2.091)scale(1.0207)"/>
            <path d="M69.781 109.332a1.95 1.95 0 0 0-1.947 1.947 1.95 1.95 0 0 0 1.947 1.947 1.95 1.95 0 0 0 1.947-1.947 1.95 1.95 0 0 0-1.947-1.947zm0 .398c.857 0 1.547.692 1.547 1.549s-.69 1.547-1.547 1.547-1.547-.69-1.547-1.547.69-1.549 1.547-1.549z" style="fill:#000;stroke:gray;stroke-width:.326027;stroke-linecap:square;stroke-linejoin:round;stroke-miterlimit:4.7;stroke-dasharray:none" transform="translate(66.307 -2.091)scale(1.0207)"/>
            <path d="M70.678 111.279a.897.897 0 0 1-.897.897.897.897 0 0 1-.897-.897.897.897 0 0 1 .897-.897.897.897 0 0 1 .897.897z" style="fill:#000;stroke:gray;stroke-width:.513296;stroke-linecap:square;stroke-linejoin:round;stroke-miterlimit:4.7" transform="translate(66.307 4.299)scale(1.0207)"/>
            <path d="M69.781 109.332a1.95 1.95 0 0 0-1.947 1.947 1.95 1.95 0 0 0 1.947 1.947 1.95 1.95 0 0 0 1.947-1.947 1.95 1.95 0 0 0-1.947-1.947zm0 .398c.857 0 1.547.692 1.547 1.549s-.69 1.547-1.547 1.547-1.547-.69-1.547-1.547.69-1.549 1.547-1.549z" style="fill:#000;stroke:gray;stroke-width:.326027;stroke-linecap:square;stroke-linejoin:round;stroke-miterlimit:4.7;stroke-dasharray:none" transform="translate(66.307 4.299)scale(1.0207)"/>
            <path d="M70.678 111.279a.897.897 0 0 1-.897.897.897.897 0 0 1-.897-.897.897.897 0 0 1 .897-.897.897.897 0 0 1 .897.897z" style="fill:#000;stroke:gray;stroke-width:.513296;stroke-linecap:square;stroke-linejoin:round;stroke-miterlimit:4.7" transform="translate(72.697 -2.091)scale(1.0207)"/>
            <path d="M69.781 109.332a1.95 1.95 0 0 0-1.947 1.947 1.95 1.95 0 0 0 1.947 1.947 1.95 1.95 0 0 0 1.947-1.947 1.95 1.95 0 0 0-1.947-1.947zm0 .398c.857 0 1.547.692 1.547 1.549s-.69 1.547-1.547 1.547-1.547-.69-1.547-1.547.69-1.549 1.547-1.549z" style="fill:#000;stroke:gray;stroke-width:.326027;stroke-linecap:square;stroke-linejoin:round;stroke-miterlimit:4.7;stroke-dasharray:none" transform="translate(72.697 -2.091)scale(1.0207)"/>
            <path d="M70.678 111.279a.897.897 0 0 1-.897.897.897.897 0 0 1-.897-.897.897.897 0 0 1 .897-.897.897.897 0 0 1 .897.897z" style="fill:#000;stroke:gray;stroke-width:.513296;stroke-linecap:square;stroke-linejoin:round;stroke-miterlimit:4.7" transform="translate(72.697 4.299)scale(1.0207)"/>
            <path d="M69.781 109.332a1.95 1.95 0 0 0-1.947 1.947 1.95 1.95 0 0 0 1.947 1.947 1.95 1.95 0 0 0 1.947-1.947 1.95 1.95 0 0 0-1.947-1.947zm0 .398c.857 0 1.547.692 1.547 1.549s-.69 1.547-1.547 1.547-1.547-.69-1.547-1.547.69-1.549 1.547-1.549z" style="fill:#000;stroke:gray;stroke-width:.326027;stroke-linecap:square;stroke-linejoin:round;stroke-miterlimit:4.7;stroke-dasharray:none" transform="translate(72.697 4.299)scale(1.0207)"/>
            <path d="M70.678 111.279a.897.897 0 0 1-.897.897.897.897 0 0 1-.897-.897.897.897 0 0 1 .897-.897.897.897 0 0 1 .897.897z" style="fill:#000;stroke:gray;stroke-width:.513296;stroke-linecap:square;stroke-linejoin:round;stroke-miterlimit:4.7" transform="translate(79.087 -2.091)scale(1.0207)"/>
            <path d="M69.781 109.332a1.95 1.95 0 0 0-1.947 1.947 1.95 1.95 0 0 0 1.947 1.947 1.95 1.95 0 0 0 1.947-1.947 1.95 1.95 0 0 0-1.947-1.947zm0 .398c.857 0 1.547.692 1.547 1.549s-.69 1.547-1.547 1.547-1.547-.69-1.547-1.547.69-1.549 1.547-1.549z" style="fill:#000;stroke:gray;stroke-width:.326027;stroke-linecap:square;stroke-linejoin:round;stroke-miterlimit:4.7;stroke-dasharray:none" transform="translate(79.087 -2.091)scale(1.0207)"/>
            <path d="M70.678 111.279a.897.897 0 0 1-.897.897.897.897 0 0 1-.897-.897.897.897 0 0 1 .897-.897.897.897 0 0 1 .897.897z" style="fill:#000;stroke:gray;stroke-width:.513296;stroke-linecap:square;stroke-linejoin:round;stroke-miterlimit:4.7" transform="translate(79.087 4.299)scale(1.0207)"/>
            <path d="M69.781 109.332a1.95 1.95 0 0 0-1.947 1.947 1.95 1.95 0 0 0 1.947 1.947 1.95 1.95 0 0 0 1.947-1.947 1.95 1.95 0 0 0-1.947-1.947zm0 .398c.857 0 1.547.692 1.547 1.549s-.69 1.547-1.547 1.547-1.547-.69-1.547-1.547.69-1.549 1.547-1.549z" style="fill:#000;stroke:gray;stroke-width:.326027;stroke-linecap:square;stroke-linejoin:round;stroke-miterlimit:4.7;stroke-dasharray:none" transform="translate(79.087 4.299)scale(1.0207)"/>
            <path d="M70.678 111.279a.897.897 0 0 1-.897.897.897.897 0 0 1-.897-.897.897.897 0 0 1 .897-.897.897.897 0 0 1 .897.897z" style="fill:#000;stroke:gray;stroke-width:.513296;stroke-linecap:square;stroke-linejoin:round;stroke-miterlimit:4.7" transform="translate(85.477 -2.091)scale(1.0207)"/>
            <path d="M69.781 109.332a1.95 1.95 0 0 0-1.947 1.947 1.95 1.95 0 0 0 1.947 1.947 1.95 1.95 0 0 0 1.947-1.947 1.95 1.95 0 0 0-1.947-1.947zm0 .398c.857 0 1.547.692 1.547 1.549s-.69 1.547-1.547 1.547-1.547-.69-1.547-1.547.69-1.549 1.547-1.549z" style="fill:#000;stroke:gray;stroke-width:.326027;stroke-linecap:square;stroke-linejoin:round;stroke-miterlimit:4.7;stroke-dasharray:none" transform="translate(85.477 -2.091)scale(1.0207)"/>
            <path d="M70.678 111.279a.897.897 0 0 1-.897.897.897.897 0 0 1-.897-.897.897.897 0 0 1 .897-.897.897.897 0 0 1 .897.897z" style="fill:#000;stroke:gray;stroke-width:.513296;stroke-linecap:square;stroke-linejoin:round;stroke-miterlimit:4.7" transform="translate(85.477 4.299)scale(1.0207)"/>
            <path d="M69.781 109.332a1.95 1.95 0 0 0-1.947 1.947 1.95 1.95 0 0 0 1.947 1.947 1.95 1.95 0 0 0 1.947-1.947 1.95 1.95 0 0 0-1.947-1.947zm0 .398c.857 0 1.547.692 1.547 1.549s-.69 1.547-1.547 1.547-1.547-.69-1.547-1.547.69-1.549 1.547-1.549z" style="fill:#000;stroke:gray;stroke-width:.326027;stroke-linecap:square;stroke-linejoin:round;stroke-miterlimit:4.7;stroke-dasharray:none" transform="translate(85.477 4.299)scale(1.0207)"/>
            <path d="M70.678 111.279a.897.897 0 0 1-.897.897.897.897 0 0 1-.897-.897.897.897 0 0 1 .897-.897.897.897 0 0 1 .897.897z" style="fill:#000;stroke:gray;stroke-width:.513296;stroke-linecap:square;stroke-linejoin:round;stroke-miterlimit:4.7" transform="translate(91.867 -2.091)scale(1.0207)"/>
            <path d="M69.781 109.332a1.95 1.95 0 0 0-1.947 1.947 1.95 1.95 0 0 0 1.947 1.947 1.95 1.95 0 0 0 1.947-1.947 1.95 1.95 0 0 0-1.947-1.947zm0 .398c.857 0 1.547.692 1.547 1.549s-.69 1.547-1.547 1.547-1.547-.69-1.547-1.547.69-1.549 1.547-1.549z" style="fill:#000;stroke:gray;stroke-width:.326027;stroke-linecap:square;stroke-linejoin:round;stroke-miterlimit:4.7;stroke-dasharray:none" transform="translate(91.867 -2.091)scale(1.0207)"/>
            <path d="M70.678 111.279a.897.897 0 0 1-.897.897.897.897 0 0 1-.897-.897.897.897 0 0 1 .897-.897.897.897 0 0 1 .897.897z" style="fill:#000;stroke:gray;stroke-width:.513296;stroke-linecap:square;stroke-linejoin:round;stroke-miterlimit:4.7" transform="translate(91.867 4.299)scale(1.0207)"/>
            <path d="M69.781 109.332a1.95 1.95 0 0 0-1.947 1.947 1.95 1.95 0 0 0 1.947 1.947 1.95 1.95 0 0 0 1.947-1.947 1.95 1.95 0 0 0-1.947-1.947zm0 .398c.857 0 1.547.692 1.547 1.549s-.69 1.547-1.547 1.547-1.547-.69-1.547-1.547.69-1.549 1.547-1.549z" style="fill:#000;stroke:gray;stroke-width:.326027;stroke-linecap:square;stroke-linejoin:round;stroke-miterlimit:4.7;stroke-dasharray:none" transform="translate(91.867 4.299)scale(1.0207)"/>
            <path d="M70.678 111.279a.897.897 0 0 1-.897.897.897.897 0 0 1-.897-.897.897.897 0 0 1 .897-.897.897.897 0 0 1 .897.897z" style="fill:#000;stroke:gray;stroke-width:.513296;stroke-linecap:square;stroke-linejoin:round;stroke-miterlimit:4.7" transform="translate(101.92 -2.091)scale(1.0207)"/>
            <path d="M69.781 109.332a1.95 1.95 0 0 0-1.947 1.947 1.95 1.95 0 0 0 1.947 1.947 1.95 1.95 0 0 0 1.947-1.947 1.95 1.95 0 0 0-1.947-1.947zm0 .398c.857 0 1.547.692 1.547 1.549s-.69 1.547-1.547 1.547-1.547-.69-1.547-1.547.69-1.549 1.547-1.549z" style="fill:#000;stroke:gray;stroke-width:.326027;stroke-linecap:square;stroke-linejoin:round;stroke-miterlimit:4.7;stroke-dasharray:none" transform="translate(101.92 -2.091)scale(1.0207)"/>
        </g>
        <g style="fill:#000;stroke:gray">
            <circle cx="41.897" cy="169.793" r="3.675" style="fill:#000;fill-opacity:1;stroke:gray;stroke-width:.4;stroke-linecap:square;stroke-linejoin:round;stroke-miterlimit:4.7;stroke-dasharray:none" transform="translate(5.542 -71.643)scale(1.0945)"/>
        </g>
        <g transform="translate(3.99 8.925)scale(.92215)">
            <circle cx="114.08" cy="-53.994" r=".465" style="fill:gray;fill-opacity:1;stroke:none;stroke-width:2.09605;stroke-linecap:square;stroke-linejoin:round;stroke-miterlimit:4.7;stroke-dasharray:none" transform="rotate(90)"/>
            <circle cx="44.256" cy="-119.579" r=".465" style="fill:gray;fill-opacity:1;stroke:none;stroke-width:2.09605;stroke-linecap:square;stroke-linejoin:round;stroke-miterlimit:4.7;stroke-dasharray:none" transform="rotate(135)"/>
            <circle cx="-51.493" cy="-116.581" r=".465" style="fill:gray;fill-opacity:1;stroke:none;stroke-width:2.09605;stroke-linecap:square;stroke-linejoin:round;stroke-miterlimit:4.7;stroke-dasharray:none" transform="scale(-1)"/>
            <circle cx="-117.078" cy="-46.756" r=".465" style="fill:gray;fill-opacity:1;stroke:none;stroke-width:2.09605;stroke-linecap:square;stroke-linejoin:round;stroke-miterlimit:4.7;stroke-dasharray:none" transform="rotate(-135)"/>
            <circle cx="-114.08" cy="48.992" r=".465" style="fill:gray;fill-opacity:1;stroke:none;stroke-width:2.09605;stroke-linecap:square;stroke-linejoin:round;stroke-miterlimit:4.7;stroke-dasharray:none" transform="rotate(-90)"/>
        </g>
        <path d="M50.831 110.124h1.331v1.331h-1.331z" style="fill:gray;fill-opacity:1;stroke:none;stroke-width:1;stroke-linecap:square;stroke-linejoin:round;stroke-miterlimit:4.7;stroke-dasharray:none"/>
        <g style="fill:#000;stroke:gray">
            <circle cx="41.897" cy="169.793" r="3.675" style="fill:#000;fill-opacity:1;stroke:gray;stroke-width:.4;stroke-linecap:square;stroke-linejoin:round;stroke-miterlimit:4.7;stroke-dasharray:none" transform="translate(-5.042 -71.643)scale(1.0945)"/>
        </g>
        <g transform="translate(-6.593 8.925)scale(.92215)">
            <circle cx="114.08" cy="-53.994" r=".465" style="fill:gray;fill-opacity:1;stroke:none;stroke-width:2.09605;stroke-linecap:square;stroke-linejoin:round;stroke-miterlimit:4.7;stroke-dasharray:none" transform="rotate(90)"/>
            <circle cx="44.256" cy="-119.579" r=".465" style="fill:gray;fill-opacity:1;stroke:none;stroke-width:2.09605;stroke-linecap:square;stroke-linejoin:round;stroke-miterlimit:4.7;stroke-dasharray:none" transform="rotate(135)"/>
            <circle cx="-51.493" cy="-116.581" r=".465" style="fill:gray;fill-opacity:1;stroke:none;stroke-width:2.09605;stroke-linecap:square;stroke-linejoin:round;stroke-miterlimit:4.7;stroke-dasharray:none" transform="scale(-1)"/>
            <circle cx="-117.078" cy="-46.756" r=".465" style="fill:gray;fill-opacity:1;stroke:none;stroke-width:2.09605;stroke-linecap:square;stroke-linejoin:round;stroke-miterlimit:4.7;stroke-dasharray:none" transform="rotate(-135)"/>
            <circle cx="-114.08" cy="48.992" r=".465" style="fill:gray;fill-opacity:1;stroke:none;stroke-width:2.09605;stroke-linecap:square;stroke-linejoin:round;stroke-miterlimit:4.7;stroke-dasharray:none" transform="rotate(-90)"/>
        </g>
        <path d="M50.831 110.124h1.331v1.331h-1.331z" style="fill:gray;fill-opacity:1;stroke:none;stroke-width:1;stroke-linecap:square;stroke-linejoin:round;stroke-miterlimit:4.7;stroke-dasharray:none" transform="translate(-10.583)"/>
    </g>
</svg>
