<?xml version="1.0" encoding="UTF-8" standalone="no"?>
<!-- Uploaded to: SVG Repo, www.svgrepo.com, Generator: SVG Repo Mixer Tools -->

<svg
   fill="#000000"
   height="50"
   width="90"
   version="1.1"
   id="Layer_1"
   viewBox="0 0 90 50"
   xml:space="preserve"
   sodipodi:docname="table_2.svg"
   inkscape:version="1.3.2 (091e20e, 2023-11-25)"
   xmlns:inkscape="http://www.inkscape.org/namespaces/inkscape"
   xmlns:sodipodi="http://sodipodi.sourceforge.net/DTD/sodipodi-0.dtd"
   xmlns="http://www.w3.org/2000/svg"
   xmlns:svg="http://www.w3.org/2000/svg"><defs
   id="defs8">
	

		
	
	

		
	
	

		
	
	

		
	</defs><sodipodi:namedview
   id="namedview8"
   pagecolor="#ffffff"
   bordercolor="#000000"
   borderopacity="0.25"
   inkscape:showpageshadow="2"
   inkscape:pageopacity="0.0"
   inkscape:pagecheckerboard="0"
   inkscape:deskcolor="#d1d1d1"
   inkscape:current-layer="Layer_1" />



<path
   id="path6"
   d="m 73.75,13.749996 h -57.5 c -0.345,0 -0.625,0.28 -0.625,0.625004 0,0.344996 0.28,0.624996 0.625,0.624996 h 57.5 c 0.345,0 0.625,-0.28 0.625,-0.624996 0,-0.345004 -0.28,-0.625004 -0.625,-0.625004 z M 81.839375,43.461249 76.24375,7.4031244 C 76.190621,7.0618711 75.866875,6.8287511 75.53,6.8812489 75.18875,6.9344044 74.955625,7.2537467 75.008125,7.595 l 5.595625,36.058124 c 0.02563,0.165627 -0.01437,0.330623 -0.113125,0.465627 -0.09875,0.134373 -0.24375,0.222498 -0.411875,0.248747 -0.3425,0.05129 -0.659375,-0.19 -0.710625,-0.522498 l -5.625,-36.25 C 73.689996,7.2537467 73.36625,7.0231244 73.029375,7.0731244 72.688125,7.12628 72.455,7.4456222 72.5075,7.786876 l 5.625,36.25 c 0.143125,0.920622 0.921875,1.588124 1.851875,1.588124 0.09562,0 0.19375,-0.0071 0.289375,-0.02373 0.495,-0.07627 0.930625,-0.341254 1.22625,-0.745627 0.295625,-0.404373 0.41625,-0.899369 0.339375,-1.394373 z M 16.95625,7.0737467 C 16.62,7.0237022 16.295,7.2543778 16.2425,7.595622 l -5.625,36.25 c -0.05125,0.332507 -0.34,0.578125 -0.7137498,0.521876 C 9.5637502,44.314964 9.33,43.994378 9.3825,43.654378 l 5.61,-36.058125 C 15.04563,7.255 14.811875,6.9356222 14.47125,6.8825022 14.13,6.8299692 13.810625,7.0625022 13.7575,7.4037467 l -5.61,36.0587553 c -0.158125,1.021876 0.54375,1.981876 1.5625,2.139369 0.098125,0.01627 0.1956249,0.02311 0.291875,0.02311 0.93,0 1.70875,-0.667502 1.85125,-1.587502 l 5.625,-36.25 C 17.530623,7.4462356 17.2975,7.1268578 16.95625,7.0737289 Z M 84.375,4.375 H 5.625 C 5.28,4.375 5,4.655 5,5.0000044 v 2.5 C 5,7.845 5.28,8.125 5.625,8.125 h 78.75 C 84.72,8.125 85,7.845 85,7.5000044 v -2.5 C 85,4.655 84.72,4.375 84.375,4.375 Z m -0.625,2.5 H 6.25 v -1.25 h 77.5 z"
   inkscape:label="table"
   style="stroke-width:0.15625" />
</svg>
