<svg xmlns="http://www.w3.org/2000/svg" xml:space="preserve" width="90" height="50">
    <path d="M73.75 13.75h-57.5a.625.625 0 0 0 0 1.25h57.5a.625.625 0 0 0 0-1.25m8.09 29.711L76.243 7.403a.626.626 0 0 0-1.236.192l5.596 36.058a.62.62 0 0 1-.525.714.63.63 0 0 1-.71-.522l-5.626-36.25a.626.626 0 0 0-1.236.192l5.626 36.25a1.865 1.865 0 0 0 2.14 1.564 1.86 1.86 0 0 0 1.227-.745c.296-.405.416-.9.34-1.395M16.955 7.074a.63.63 0 0 0-.713.522l-5.625 36.25a.61.61 0 0 1-.714.521.626.626 0 0 1-.521-.713l5.61-36.058a.625.625 0 0 0-1.235-.192l-5.61 36.059a1.876 1.876 0 0 0 1.854 2.162c.93 0 1.709-.668 1.851-1.588l5.625-36.25a.626.626 0 0 0-.522-.713m67.419-2.699H5.625A.625.625 0 0 0 5 5v2.5c0 .345.28.625.625.625h78.75c.345 0 .625-.28.625-.625V5a.625.625 0 0 0-.625-.625m-.625 2.5H6.25v-1.25h77.5z" style="stroke-width:.15625"/>
</svg>
