<svg xmlns="http://www.w3.org/2000/svg" xml:space="preserve" width="70" height="40">
    <path d="m4.53 12.116 9.693-10.009h41.72l9.27 9.693Z" style="fill:#fff;stroke-width:3.77953;stroke-linecap:square;stroke-linejoin:round;stroke-miterlimit:4.7"/>
    <path d="M13.63 1.484a.83.83 0 0 0-.593.248l-.006.008-9.722 9.893-.004.004a.84.84 0 0 0 .007 1.187c.172.16.392.254.598.254h5.653a.563.563 0 0 1 .562.563v23.98c0 .436.323.826.719.883v.002a.842.842 0 0 0 .982-.844V13.641a.563.563 0 0 1 .563-.563h5.652a.563.563 0 0 1 .563.563v12.675c0 .436.322.827.718.883v.002a.842.842 0 0 0 .983-.844V13.641a.563.563 0 0 1 .562-.563H49.13a.563.563 0 0 1 .562.563v12.675c0 .436.323.827.72.883v.002a.842.842 0 0 0 .982-.844V13.641a.563.563 0 0 1 .562-.563h5.652a.563.563 0 0 1 .563.563v23.98c0 .436.323.826.719.883v.002a.84.84 0 0 0 .982-.842V13.641a.563.563 0 0 1 .563-.563h5.652a.853.853 0 0 0 .598-1.463L56.799 1.73a.8.8 0 0 0-.604-.246Zm.595 1.702h41.39a.56.56 0 0 1 .399.164l7.066 7.066a.563.563 0 0 1-.398.961H7.287a.563.563 0 0 1-.402-.957l6.937-7.066a.56.56 0 0 1 .403-.168" style="stroke-width:.132478"/>
</svg>
