<?xml version="1.0" encoding="UTF-8" standalone="no"?>
<!-- Uploaded to: SVG Repo, www.svgrepo.com, Generator: SVG Repo Mixer Tools -->

<svg
   fill="#000000"
   height="40"
   width="70"
   version="1.1"
   id="Layer_1"
   viewBox="0 0 70 40"
   xml:space="preserve"
   sodipodi:docname="table_1.svg"
   inkscape:version="1.3.2 (091e20e, 2023-11-25)"
   xmlns:inkscape="http://www.inkscape.org/namespaces/inkscape"
   xmlns:sodipodi="http://sodipodi.sourceforge.net/DTD/sodipodi-0.dtd"
   xmlns="http://www.w3.org/2000/svg"
   xmlns:svg="http://www.w3.org/2000/svg"><defs
   id="defs2">
	

		
	</defs><sodipodi:namedview
   id="namedview2"
   pagecolor="#ffffff"
   bordercolor="#000000"
   borderopacity="0.25"
   inkscape:showpageshadow="2"
   inkscape:pageopacity="0.0"
   inkscape:pagecheckerboard="0"
   inkscape:deskcolor="#d1d1d1"
   inkscape:current-layer="Layer_1"
   inkscape:document-units="px" />
<path
   id="path1"
   style="stroke-width:0.132478"
   inkscape:label="table"
   d="m 13.630859,1.484375 c -0.228667,0 -0.450399,0.096707 -0.59375,0.2480469 a 0.56343664,0.56343664 0 0 1 -0.0059,0.00781 L 3.3085938,11.632812 a 0.56343664,0.56343664 0 0 1 -0.00391,0.0039 c -0.329501,0.329501 -0.3188625,0.867741 0.00781,1.1875 0.1716519,0.1604 0.3913441,0.253906 0.5976562,0.253906 H 9.5625 a 0.56343664,0.56343664 0 0 1 0.5625,0.5625 v 23.980469 c 0,0.436076 0.322652,0.826206 0.71875,0.882812 a 0.56343664,0.56343664 0 0 1 0,0.002 c 0.548481,0.07962 0.982422,-0.327643 0.982422,-0.84375 V 13.640625 a 0.56343664,0.56343664 0 0 1 0.5625,-0.5625 h 5.652344 a 0.56343664,0.56343664 0 0 1 0.5625,0.5625 v 12.675781 c 0,0.436076 0.322652,0.826206 0.71875,0.882813 a 0.56343664,0.56343664 0 0 1 0,0.002 c 0.548481,0.07962 0.982422,-0.327643 0.982422,-0.84375 V 13.640625 a 0.56343664,0.56343664 0 0 1 0.5625,-0.5625 h 28.261718 a 0.56343664,0.56343664 0 0 1 0.5625,0.5625 v 12.675781 c 0,0.436076 0.322652,0.826206 0.71875,0.882813 a 0.56343664,0.56343664 0 0 1 0,0.002 c 0.548483,0.07962 0.982422,-0.327643 0.982422,-0.84375 V 13.640625 a 0.56343664,0.56343664 0 0 1 0.5625,-0.5625 h 5.652344 a 0.56343664,0.56343664 0 0 1 0.5625,0.5625 v 23.980469 c 0,0.436075 0.322652,0.826205 0.71875,0.882812 a 0.56343664,0.56343664 0 0 1 0,0.002 c 0.549294,0.07974 0.982422,-0.325691 0.982422,-0.841797 V 13.640625 a 0.56343664,0.56343664 0 0 1 0.5625,-0.5625 h 5.652344 c 0.46953,0 0.851562,-0.382032 0.851562,-0.851563 -3.16e-4,-0.227674 -0.092,-0.438965 -0.253906,-0.611328 L 56.798828,1.7304688 C 56.634269,1.5659092 56.437439,1.484375 56.195312,1.484375 Z m 0.59375,1.7011719 h 41.390625 a 0.56343664,0.56343664 0 0 1 0.398438,0.1640625 l 7.066406,7.0664066 a 0.56343664,0.56343664 0 0 1 -0.398437,0.960937 H 7.2871094 A 0.56343664,0.56343664 0 0 1 6.8847656,10.419922 L 13.822266,3.3535156 a 0.56343664,0.56343664 0 0 1 0.402343,-0.1679687 z" />
</svg>
