<?xml version="1.0" encoding="UTF-8" standalone="no"?>
<!-- Uploaded to: SVG Repo, www.svgrepo.com, Generator: SVG Repo Mixer Tools -->

<svg
   fill="#000000"
   height="50"
   width="53.733002"
   version="1.1"
   id="Capa_1"
   viewBox="0 0 53.733002 50"
   xml:space="preserve"
   sodipodi:docname="tambourine_1.svg"
   inkscape:version="1.3.2 (091e20e, 2023-11-25)"
   xmlns:inkscape="http://www.inkscape.org/namespaces/inkscape"
   xmlns:sodipodi="http://sodipodi.sourceforge.net/DTD/sodipodi-0.dtd"
   xmlns="http://www.w3.org/2000/svg"
   xmlns:svg="http://www.w3.org/2000/svg"><defs
   id="defs1" /><sodipodi:namedview
   id="namedview1"
   pagecolor="#ffffff"
   bordercolor="#000000"
   borderopacity="0.25"
   inkscape:showpageshadow="2"
   inkscape:pageopacity="0.0"
   inkscape:pagecheckerboard="0"
   inkscape:deskcolor="#d1d1d1"
   inkscape:current-layer="Capa_1" />
<path
   d="M 26.844793,50 C 15.757741,50 6.4545901,42.216154 4.1125553,31.826498 1.7429414,31.296762 0,29.157064 0,26.699252 0,24.24144 1.7429414,22.101742 4.1125553,21.572006 4.6474797,19.199115 5.5455737,16.961389 6.7451259,14.922178 6.1534051,14.050844 5.8421168,13.041341 5.8421168,11.981323 c 0,-2.8998965 2.3595106,-5.2594072 5.2594072,-5.2594072 0.936868,0 1.843973,0.246027 2.64595,0.7145978 2.388728,-1.6293485 5.095025,-2.8267162 8.004478,-3.477691 C 22.338485,1.6438207 24.42439,0 26.84452,0 c 2.42013,0 4.506307,1.6440937 5.09284,3.9590956 2.947136,0.6594397 5.68538,1.8794714 8.096499,3.5407679 0.827918,-0.5100759 1.769156,-0.7779477 2.745618,-0.7779477 2.899896,0 5.259407,2.3595107 5.259407,5.2594072 0,1.111354 -0.355251,2.195128 -1.007045,3.091038 1.153951,1.995522 2.020097,4.177816 2.542461,6.488449 2.3961,0.511988 4.158429,2.656054 4.158429,5.138169 0,2.482114 -1.762329,4.625908 -4.158429,5.137895 C 47.228169,42.221342 37.927475,50 26.844793,50 Z M 5.0576156,31.01906 C 7.073617,41.204467 16.076402,48.908033 26.84452,48.908033 c 10.809349,0 19.839714,-7.76282 21.809568,-18.005843 0.264868,-1.382502 0.39894,-2.793949 0.39894,-4.202665 0,-1.408989 -0.134072,-2.821528 -0.399213,-4.204304 C 46.878106,13.266616 39.371962,6.0515537 29.996723,4.7141063 27.889793,4.4148326 25.730435,4.4178363 23.624597,4.7239364 14.321173,6.0810442 6.8699143,13.22866 5.0578887,22.378352 c -0.2796133,1.418819 -0.4216045,2.871771 -0.4216045,4.321173 0,1.448856 0.1417181,2.900988 0.4213314,4.319535 z M 50.145541,26.699252 c 0,1.343455 -0.114139,2.659876 -0.333679,3.94162 1.656654,-0.563323 2.8289,-2.139971 2.8289,-3.94162 0,-1.801923 -1.172246,-3.37857 -2.8289,-3.941893 0.21954,1.282016 0.333679,2.598438 0.333679,3.941893 z M 3.8744471,22.774835 c -1.6301677,0.577795 -2.7822075,2.146251 -2.7822075,3.924417 0,1.778166 1.1520398,3.346622 2.7822075,3.924417 -0.2173557,-1.276009 -0.3306756,-2.587516 -0.3306756,-3.924417 0,-1.336902 0.1135929,-2.648408 0.3306756,-3.924417 z M 41.015237,8.208727 c 2.128502,1.6307138 3.936158,3.585277 5.388018,5.826552 0.353612,-0.623122 0.543389,-1.331167 0.543389,-2.053683 0,-2.2977994 -1.869368,-4.1671675 -4.167167,-4.1671675 -0.61575,0 -1.214298,0.1348916 -1.76424,0.3942985 z M 11.101251,7.8144285 c -2.2977995,0 -4.1671677,1.8693681 -4.1671677,4.1671675 0,0.667085 0.1556442,1.308776 0.4551909,1.89094 C 8.8400415,11.67413 10.637595,9.7556114 12.746983,8.1530228 12.230899,7.9302059 11.673038,7.8144285 11.101251,7.8144285 Z m 19.25045,-4.1524221 c 0.120966,0.018022 0.242204,0.037682 0.362897,0.057616 C 30.096936,2.1585389 28.579269,1.092513 26.84452,1.092513 c -1.73475,0 -3.252144,1.0660259 -3.869532,2.6271094 0.09694,-0.016384 0.194418,-0.031675 0.291901,-0.046966 2.30954,-0.3574354 4.772541,-0.3615313 7.084812,-0.010649 z M 26.844793,47.542461 c -6.012506,0 -11.438207,-2.558845 -15.246027,-6.64464 -0.01939,-0.01474 -0.03823,-0.03113 -0.05598,-0.04888 -0.0284,-0.0284 -0.05325,-0.05953 -0.074,-0.09229 -3.3941344,-3.708973 -5.4669322,-8.645623 -5.4669322,-14.057397 0,-3.850418 1.0493692,-7.459724 2.8769592,-10.558135 0.00846,-0.01884 0.018022,-0.03714 0.028398,-0.05516 1.535962,-2.589973 3.659549,-4.861558 6.141118,-6.5684559 0.02075,-0.014472 0.04232,-0.027033 0.06444,-0.038228 3.341707,-2.2838731 7.378625,-3.6218667 11.722735,-3.623505 2.73e-4,0 5.46e-4,0 5.46e-4,0 0.0055,0 0.01229,0 0.01748,0 h 2.73e-4 c 4.413467,0.00191 8.509366,1.3822292 11.881929,3.733002 0.01775,0.00983 0.0355,0.02048 0.05215,0.032494 2.43706,1.7071699 4.521872,3.9631909 6.02889,6.5239469 0.0096,0.01666 0.01829,0.03331 0.02621,0.05052 1.806291,3.083666 2.843372,6.670581 2.845011,10.494512 0,2.73e-4 0,2.73e-4 0,2.73e-4 0,0.003 0,0.0057 0,0.0087 0,0.003 0,0.0057 0,0.0087 0,0 0,0 0,2.73e-4 -0.0022,5.407951 -2.074709,10.340505 -5.466387,14.047567 -0.02075,0.03277 -0.04587,0.0639 -0.07455,0.09284 -0.01802,0.01802 -0.03714,0.03468 -0.05707,0.04997 -3.807821,4.084976 -9.233794,6.643821 -15.245208,6.643821 z m -14.14778,-7.074436 c 3.590191,3.688493 8.606029,5.982196 14.14778,5.982196 5.541751,0 10.557315,-2.293703 14.14778,-5.982196 -1.046639,-0.998034 -2.586697,-1.320518 -3.9479,-0.819453 l -2.17738,0.800338 c -5.17312,1.902136 -10.871334,1.902136 -16.045,0 l -2.17738,-0.800338 c -1.361477,-0.499973 -2.900989,-0.178308 -3.9479,0.819453 z m 2.639397,-2.143794 c 0.566599,0 1.137294,0.09776 1.685599,0.299547 l 2.177379,0.800339 c 4.930097,1.812298 10.360712,1.812298 15.290809,0 l 2.17738,-0.800339 c 1.746764,-0.64251 3.719349,-0.232374 5.065261,1.041177 2.04713,-2.347769 3.54896,-5.181311 4.307247,-8.303478 -1.730654,-0.901371 -2.825624,-2.684452 -2.825624,-4.661952 0,-1.9775 1.09497,-3.760581 2.825624,-4.662225 -0.427066,-1.758233 -1.089782,-3.424171 -1.952924,-4.964502 -0.430343,0.111681 -0.868331,0.168205 -1.307138,0.168205 -2.899896,0 -5.259407,-2.359511 -5.259407,-5.259407 0,-0.583802 0.09612,-1.155317 0.285621,-1.705259 -1.872645,-1.2538915 -3.970564,-2.1964943 -6.219213,-2.7527173 -0.8656,1.8098411 -2.714488,2.9954673 -4.741958,2.9954673 -2.027197,0 -3.876086,-1.1858993 -4.741686,-2.9954673 -2.187756,0.5409317 -4.232155,1.4474906 -6.066025,2.6508653 0.215171,0.581072 0.323849,1.186992 0.323849,1.807111 0,2.899896 -2.359511,5.259407 -5.259407,5.259407 -0.499427,0 -0.993392,-0.07154 -1.4734315,-0.212987 -0.8724264,1.546884 -1.5422424,3.22238 -1.9739501,4.990443 1.754683,0.894544 2.8646716,2.684725 2.8646716,4.681066 0,1.996341 -1.1099886,3.786522 -2.8646716,4.680793 0.7596526,3.114794 2.2595707,5.942057 4.3028776,8.284911 0.923216,-0.874065 2.141609,-1.340998 3.379117,-1.340998 z M 7.4190377,23.136639 c -0.2157173,1.180165 -0.3249413,2.375348 -0.3249413,3.562613 0,1.187264 0.109224,2.382448 0.3249413,3.562339 1.2375075,-0.746272 2.0075365,-2.082901 2.0075365,-3.562339 -2.731e-4,-1.479166 -0.770029,-2.815794 -2.0075365,-3.562613 z m 38.8558793,0.02266 c -1.213752,0.751734 -1.968216,2.078805 -1.968216,3.539949 0,1.46087 0.754464,2.787941 1.968216,3.539675 0.212986,-1.171973 0.320845,-2.35951 0.320845,-3.539675 0,-1.180165 -0.107859,-2.367976 -0.320845,-3.539949 z M 38.744471,10.94506 c -0.08738,0.337775 -0.131615,0.684562 -0.131615,1.036536 0,2.297799 1.869368,4.167167 4.167167,4.167167 0.238927,0 0.477855,-0.0213 0.714871,-0.06362 -1.267817,-1.981869 -2.879963,-3.723718 -4.750423,-5.14008 z m -28.528754,5.106767 c 0.291082,0.06417 0.587079,0.09666 0.885534,0.09666 2.297799,0 4.167167,-1.869368 4.167167,-4.167167 0,-0.393207 -0.05543,-0.779586 -0.165201,-1.154771 -1.928076,1.429742 -3.587188,3.201628 -4.8875,5.225275 z M 23.209819,7.2871498 c 0.727705,1.3014035 2.118672,2.1394244 3.634974,2.1394244 1.516574,0 2.907269,-0.8380209 3.634973,-2.1394244 C 29.277757,7.0626946 28.061002,6.9488286 26.853531,6.9482825 h -2.73e-4 c -0.0057,0 -0.01174,-2.731e-4 -0.01666,0 h -2.73e-4 c -1.208563,5.461e-4 -2.425318,0.1144121 -3.626509,0.3388673 z"
   id="path1"
   style="stroke-width:0.27306" />
</svg>
