<svg xmlns="http://www.w3.org/2000/svg" xml:space="preserve" width="53.733" height="50">
    <path d="M26.845 50c-11.087 0-20.39-7.784-22.732-18.174C1.743 31.296 0 29.157 0 26.7s1.743-4.597 4.113-5.127a23.2 23.2 0 0 1 2.632-6.65 5.2 5.2 0 0 1-.903-2.94c0-2.9 2.36-5.26 5.26-5.26.936 0 1.843.246 2.645.715a23.2 23.2 0 0 1 8.005-3.478A5.25 5.25 0 0 1 26.845 0a5.25 5.25 0 0 1 5.092 3.96 23.2 23.2 0 0 1 8.097 3.54 5.2 5.2 0 0 1 2.745-.778c2.9 0 5.26 2.36 5.26 5.26a5.26 5.26 0 0 1-1.007 3.09 23.2 23.2 0 0 1 2.542 6.489 5.28 5.28 0 0 1 4.159 5.138 5.28 5.28 0 0 1-4.159 5.138C47.228 42.22 37.927 50 26.844 50M5.058 31.02c2.016 10.184 11.018 17.888 21.787 17.888 10.809 0 19.84-7.763 21.81-18.006a22.4 22.4 0 0 0-.001-8.407c-1.776-9.228-9.282-16.443-18.657-17.78a22.5 22.5 0 0 0-6.372.009C14.32 6.08 6.87 13.229 5.058 22.378a22.4 22.4 0 0 0 0 8.641m45.088-4.32c0 1.343-.115 2.66-.334 3.94a4.18 4.18 0 0 0 2.829-3.94 4.18 4.18 0 0 0-2.83-3.943c.22 1.282.335 2.599.335 3.942M3.874 22.774c-1.63.578-2.782 2.146-2.782 3.924s1.152 3.347 2.782 3.925a23.4 23.4 0 0 1 0-7.849M41.015 8.209a23.2 23.2 0 0 1 5.388 5.826 4.17 4.17 0 0 0 .544-2.053 4.17 4.17 0 0 0-4.168-4.168c-.615 0-1.214.135-1.764.395m-29.914-.395a4.17 4.17 0 0 0-4.167 4.168c0 .667.156 1.308.455 1.89a23.2 23.2 0 0 1 5.358-5.719 4.1 4.1 0 0 0-1.646-.339m19.25-4.152q.183.027.364.058a4.16 4.16 0 0 0-3.87-2.627 4.16 4.16 0 0 0-3.87 2.627q.145-.025.292-.047a23.8 23.8 0 0 1 7.085-.011m-3.506 43.88c-6.013 0-11.438-2.558-15.246-6.644a.6.6 0 0 1-.13-.141 20.76 20.76 0 0 1-5.467-14.058c0-3.85 1.05-7.46 2.877-10.558l.028-.055a21.1 21.1 0 0 1 6.141-6.568l.065-.039a20.7 20.7 0 0 1 11.723-3.623h.018a20.73 20.73 0 0 1 11.882 3.733q.026.014.052.032a21.1 21.1 0 0 1 6.029 6.524l.026.05a20.7 20.7 0 0 1 2.845 10.495v.018a20.76 20.76 0 0 1-5.466 14.048.6.6 0 0 1-.132.143c-3.808 4.085-9.234 6.643-15.245 6.643m-14.148-7.074c3.59 3.689 8.606 5.982 14.148 5.982s10.557-2.293 14.148-5.982a3.83 3.83 0 0 0-3.948-.82l-2.178.8a23.27 23.27 0 0 1-16.045 0l-2.177-.8a3.83 3.83 0 0 0-3.948.82m2.64-2.144a4.9 4.9 0 0 1 1.685.3l2.177.8a22.18 22.18 0 0 0 15.291 0l2.178-.8a4.92 4.92 0 0 1 5.065 1.041 19.7 19.7 0 0 0 4.307-8.304 5.24 5.24 0 0 1-2.826-4.661 5.24 5.24 0 0 1 2.826-4.663 19.6 19.6 0 0 0-1.953-4.964q-.647.167-1.307.168c-2.9 0-5.26-2.36-5.26-5.26 0-.583.097-1.155.286-1.705a19.7 19.7 0 0 0-6.219-2.752 5.28 5.28 0 0 1-4.742 2.995 5.28 5.28 0 0 1-4.742-2.995 19.7 19.7 0 0 0-6.066 2.65q.324.875.324 1.808c0 2.9-2.36 5.259-5.26 5.259-.499 0-.993-.072-1.473-.213a19.6 19.6 0 0 0-1.974 4.99A5.23 5.23 0 0 1 10.52 26.7a5.23 5.23 0 0 1-2.865 4.68 19.7 19.7 0 0 0 4.303 8.285 4.92 4.92 0 0 1 3.38-1.34m-7.92-15.188a20 20 0 0 0-.325 3.562c0 1.188.11 2.383.325 3.563a4.14 4.14 0 0 0 2.008-3.563c0-1.479-.77-2.816-2.008-3.562m38.856.022a4.15 4.15 0 0 0-1.968 3.54c0 1.461.754 2.788 1.968 3.54.213-1.172.32-2.36.32-3.54s-.107-2.368-.32-3.54m-7.53-12.214a4.172 4.172 0 0 0 4.036 5.204q.358 0 .714-.064a19.9 19.9 0 0 0-4.75-5.14m-28.53 5.107q.438.096.886.096a4.17 4.17 0 0 0 4.167-4.167 4.1 4.1 0 0 0-.165-1.154 19.9 19.9 0 0 0-4.887 5.225M23.21 7.287a4.18 4.18 0 0 0 3.635 2.14 4.18 4.18 0 0 0 3.635-2.14 20 20 0 0 0-3.626-.339h-.017c-1.21 0-2.426.115-3.627.34" style="stroke-width:.27306"/>
</svg>
