<svg xmlns="http://www.w3.org/2000/svg" xml:space="preserve" width="72.233" height="50">
    <path d="M65.454 29.338q-.075.001-.148.004a29.6 29.6 0 0 0-3.773-9.062q.061-.057.121-.116a6.786 6.786 0 0 0 0-9.586 6.73 6.73 0 0 0-4.793-1.985c-1.81 0-3.512.705-4.793 1.985q-.06.061-.117.124a29.6 29.6 0 0 0-9.06-3.772l.004-.152A6.786 6.786 0 0 0 36.116 0a6.786 6.786 0 0 0-6.778 6.778l.004.151a29.6 29.6 0 0 0-9.072 3.76l-.106-.11a6.73 6.73 0 0 0-4.793-1.986c-1.81 0-3.512.705-4.793 1.985a6.786 6.786 0 0 0 0 9.586l.113.108a29.6 29.6 0 0 0-3.756 9.07q-.078-.003-.157-.004A6.786 6.786 0 0 0 0 36.116a6.786 6.786 0 0 0 6.778 6.778q.08 0 .16-.004a29.8 29.8 0 0 0 1.95 5.713 2.38 2.38 0 0 0 1.932 1.383 2.39 2.39 0 0 0 2.185-.963 29 29 0 0 1 4.756-5.03 1.86 1.86 0 0 0 2.078-.092c4.741-3.496 10.373-5.345 16.285-5.345s11.545 1.849 16.286 5.345a1.86 1.86 0 0 0 2.078.092 29 29 0 0 1 4.756 5.03 2.39 2.39 0 0 0 2.186.963 2.37 2.37 0 0 0 1.93-1.38 29.7 29.7 0 0 0 1.951-5.715l.143.003a6.786 6.786 0 0 0 6.779-6.778 6.786 6.786 0 0 0-6.779-6.778m-.593 6.987a29 29 0 0 1-.14 2.625 2.93 2.93 0 0 1-2.198-2.834c0-1.362.936-2.507 2.198-2.834q.15 1.508.14 3.043m-3.556-.209a4.156 4.156 0 0 0 3.274 4.056q-.099.7-.232 1.393a5.57 5.57 0 0 1-4.452-5.449 5.57 5.57 0 0 1 4.449-5.448q.133.693.232 1.393a4.156 4.156 0 0 0-3.271 4.055m4.636-2.887a2.93 2.93 0 0 1 2.444 2.887 2.93 2.93 0 0 1-2.443 2.887q.127-1.324.138-2.67a30 30 0 0 0-.139-3.104M52.21 12.326q.582.398 1.147.824a4.1 4.1 0 0 0-.644 2.221c0 1.108.431 2.15 1.215 2.934a4.12 4.12 0 0 0 2.934 1.216 4.1 4.1 0 0 0 2.22-.644q.428.565.825 1.147a5.5 5.5 0 0 1-3.045.907 5.52 5.52 0 0 1-3.931-1.629 5.52 5.52 0 0 1-1.628-3.93c0-1.1.317-2.149.907-3.046m7.018 4.77a31 31 0 0 0-4.09-4.092 2.9 2.9 0 0 1 1.724-.564c.783 0 1.519.305 2.073.859.553.553.858 1.29.858 2.072 0 .63-.2 1.227-.565 1.725m-2.713-1.183a30 30 0 0 1 1.806 1.998 2.9 2.9 0 0 1-1.459.39 2.9 2.9 0 0 1-2.072-.858 2.9 2.9 0 0 1-.859-2.072c0-.52.138-1.02.392-1.46q1.138.939 2.192 2.002m.347-6.101c1.485 0 2.881.578 3.931 1.628a5.565 5.565 0 0 1 .057 7.803 30 30 0 0 0-.843-1.166 4.12 4.12 0 0 0 1.005-2.706c0-1.108-.432-2.15-1.216-2.934a4.12 4.12 0 0 0-2.934-1.215 4.12 4.12 0 0 0-2.706 1.005 30 30 0 0 0-1.166-.843 5.52 5.52 0 0 1 3.872-1.572M32.063 7.664a4.156 4.156 0 0 0 4.053 3.264c1.984 0 3.646-1.4 4.054-3.263q.7.099 1.393.231a5.57 5.57 0 0 1-5.447 4.442 5.57 5.57 0 0 1-5.446-4.443 29 29 0 0 1 1.393-.23m4.062-.284h.069q1.389.004 2.755.138a2.93 2.93 0 0 1-2.833 2.19 2.93 2.93 0 0 1-2.832-2.19 29 29 0 0 1 2.84-.138M33.227 6.3a2.93 2.93 0 0 1 2.888-2.451A2.93 2.93 0 0 1 39.003 6.3a30 30 0 0 0-2.807-.138h-.072q-1.461 0-2.897.138m2.888-5.08a5.565 5.565 0 0 1 5.557 5.458 30 30 0 0 0-1.422-.232 4.154 4.154 0 0 0-4.135-3.816 4.154 4.154 0 0 0-4.135 3.816q-.715.1-1.422.23a5.565 5.565 0 0 1 5.557-5.456M20.931 15.37a5.52 5.52 0 0 1-1.629 3.931 5.52 5.52 0 0 1-3.93 1.629 5.5 5.5 0 0 1-3.059-.915q.396-.584.822-1.148a4.1 4.1 0 0 0 2.236.653c1.108 0 2.15-.432 2.934-1.216a4.12 4.12 0 0 0 1.215-2.934c0-.805-.228-1.575-.653-2.236q.564-.427 1.148-.823c.595.9.916 1.955.916 3.06M13.299 13.3a2.9 2.9 0 0 1 2.072-.858c.622 0 1.213.195 1.708.552a30.5 30.5 0 0 0-4.085 4.086 2.93 2.93 0 0 1 .305-3.78m5.003 2.072c0 .783-.305 1.519-.859 2.073a2.9 2.9 0 0 1-2.072.858 2.9 2.9 0 0 1-1.476-.401 29.3 29.3 0 0 1 4.005-4.006c.26.444.402.948.402 1.476M11.44 11.44a5.52 5.52 0 0 1 3.931-1.628c1.452 0 2.818.554 3.86 1.56q-.593.406-1.168.842a4.12 4.12 0 0 0-2.692-.992c-1.108 0-2.15.431-2.934 1.215a4.154 4.154 0 0 0-.222 5.627q-.435.575-.842 1.168a5.565 5.565 0 0 1 .067-7.792M7.388 36.116q0-1.428.137-2.83a2.93 2.93 0 0 1 2.184 2.83 2.93 2.93 0 0 1-2.183 2.83 29 29 0 0 1-.138-2.83m-1.08 2.89a2.93 2.93 0 0 1-2.46-2.89 2.93 2.93 0 0 1 2.458-2.889q-.136 1.431-.137 2.89.001 1.456.139 2.888m1.363 1.162a4.156 4.156 0 0 0 3.257-4.052 4.156 4.156 0 0 0-3.257-4.052q.1-.701.23-1.393a5.57 5.57 0 0 1 4.437 5.445A5.57 5.57 0 0 1 7.9 41.561a28 28 0 0 1-.23-1.393m-6.452-4.052a5.565 5.565 0 0 1 5.463-5.557q-.131.706-.23 1.422a4.154 4.154 0 0 0-3.823 4.135 4.154 4.154 0 0 0 3.822 4.136q.098.714.23 1.421a5.565 5.565 0 0 1-5.462-5.557m51.914 6.804c-4.952-3.652-10.834-5.583-17.009-5.583s-12.056 1.93-17.009 5.583a.652.652 0 1 1-.774-1.051c5.178-3.819 11.327-5.837 17.783-5.837s12.605 2.018 17.784 5.837c.29.214.351.623.138.913-.071.185-.572.39-.913.138m9.119 5.177c-.175.38-.53.634-.948.677a1.18 1.18 0 0 1-1.08-.476 30 30 0 0 0-4.954-5.24c.113-.298.15-.62.101-.943a1.86 1.86 0 0 0-.74-1.227c-5.389-3.974-11.788-6.075-18.507-6.075-6.718 0-13.118 2.1-18.507 6.075a1.86 1.86 0 0 0-.74 1.227c-.048.323-.011.646.102.943a30 30 0 0 0-4.954 5.24 1.18 1.18 0 0 1-1.079.476 1.17 1.17 0 0 1-.95-.68 28.6 28.6 0 0 1-1.838-5.341c3.078-.639 5.399-3.372 5.399-6.637 0-3.266-2.322-5.999-5.401-6.637a28.4 28.4 0 0 1 3.495-8.44 6.73 6.73 0 0 0 3.72 1.11c1.81 0 3.513-.705 4.793-1.985a6.73 6.73 0 0 0 1.986-4.793 6.73 6.73 0 0 0-1.113-3.722 28.4 28.4 0 0 1 8.44-3.499c.637 3.082 3.372 5.407 6.64 5.407 3.266 0 6-2.324 6.638-5.405a28.4 28.4 0 0 1 8.432 3.51 6.73 6.73 0 0 0-1.104 3.71c0 1.81.705 3.512 1.985 4.792a6.73 6.73 0 0 0 4.793 1.986 6.73 6.73 0 0 0 3.711-1.105 28.4 28.4 0 0 1 3.514 8.432c-3.084.634-5.41 3.37-5.41 6.64s2.328 6.007 5.414 6.64a28.5 28.5 0 0 1-1.838 5.34m3.314-6.424q.134-.708.232-1.423a4.154 4.154 0 0 0 3.806-4.134c0-2.173-1.68-3.96-3.809-4.134a30 30 0 0 0-.232-1.422 5.565 5.565 0 0 1 5.45 5.556 5.565 5.565 0 0 1-5.447 5.557" style="stroke-width:.152358"/>
</svg>
