<?xml version="1.0" encoding="UTF-8" standalone="no"?>
<!-- Uploaded to: SVG Repo, www.svgrepo.com, Generator: SVG Repo Mixer Tools -->

<svg
   fill="#000000"
   height="49.999985"
   width="72.232559"
   version="1.1"
   id="Capa_1"
   viewBox="0 0 72.232559 49.999985"
   xml:space="preserve"
   sodipodi:docname="tambourine_2.svg"
   inkscape:version="1.3.2 (091e20e, 2023-11-25)"
   xmlns:inkscape="http://www.inkscape.org/namespaces/inkscape"
   xmlns:sodipodi="http://sodipodi.sourceforge.net/DTD/sodipodi-0.dtd"
   xmlns="http://www.w3.org/2000/svg"
   xmlns:svg="http://www.w3.org/2000/svg"><defs
     id="defs1" /><sodipodi:namedview
     id="namedview1"
     pagecolor="#ffffff"
     bordercolor="#000000"
     borderopacity="0.25"
     inkscape:showpageshadow="2"
     inkscape:pageopacity="0.0"
     inkscape:pagecheckerboard="0"
     inkscape:deskcolor="#d1d1d1"
     inkscape:current-layer="Capa_1" /><path
     d="m 65.454015,29.33787 c -0.04966,0 -0.09858,0.0027 -0.147936,0.0039 -0.744272,-3.207751 -2.014786,-6.2636 -3.773153,-9.062116 0.04038,-0.03854 0.08167,-0.07587 0.121275,-0.115487 2.64296,-2.642806 2.64296,-6.942966 0,-9.585771 -1.280265,-1.2802661 -2.982412,-1.9853809 -4.792885,-1.9853809 -1.810624,0 -3.512771,0.7051148 -4.793037,1.9853809 -0.04023,0.04023 -0.07816,0.08213 -0.11731,0.123114 -2.79684,-1.7560817 -5.851014,-3.0282734 -9.060287,-3.7710194 0.0011,-0.050741 0.0039,-0.1011609 0.0039,-0.1522055 C 42.894563,3.0407656 39.853797,0 36.116297,0 c -3.737499,0 -6.778265,3.0407656 -6.778265,6.7782661 0,0.050589 0.0027,0.1005535 0.0039,0.1508387 -3.215673,0.7409185 -6.274417,2.0083871 -9.071866,3.7602012 -0.03535,-0.03702 -0.06947,-0.0748 -0.105734,-0.111066 C 18.884047,9.2979725 17.1819,8.5928595 15.371427,8.5928595 c -1.810625,0 -3.512771,0.705113 -4.793037,1.9853805 -2.6429587,2.642806 -2.6429587,6.942964 0,9.585771 0.03702,0.03702 0.07542,0.07177 0.113049,0.107708 -1.7499871,2.79684 -3.0165412,5.854671 -3.7562405,9.070039 -0.052259,-0.0012 -0.1042136,-0.0039 -0.1567768,-0.0039 C 3.0407657,29.33787 0,32.378636 0,36.116135 c 0,3.7375 3.0407657,6.778266 6.7782658,6.778266 0.05363,0 0.1064983,-0.0029 0.1598242,-0.004 0.4523517,1.955367 1.1013978,3.863959 1.9495762,5.712227 0.3574323,0.778239 1.0799152,1.295654 1.9328168,1.383855 0.856253,0.08943 1.672741,-0.271489 2.184512,-0.963197 1.37869,-1.863657 2.978604,-3.552241 4.756167,-5.030725 0.289175,0.174603 0.622993,0.273483 0.968084,0.273483 0.402074,0 0.785712,-0.126304 1.109778,-0.365203 4.741236,-3.496317 10.372702,-5.344422 16.28542,-5.344422 5.912871,0 11.544185,1.848105 16.285268,5.344271 0.324066,0.23905 0.707857,0.365507 1.109929,0.365507 h 3.05e-4 c 0.34494,-1.53e-4 0.678756,-0.09903 0.967779,-0.273636 1.777565,1.478484 3.377477,3.167068 4.756321,5.031028 C 59.705082,49.64608 60.412937,50 61.174272,50 c 0.08471,0 0.170031,-0.0051 0.255961,-0.0135 0.851074,-0.08808 1.572185,-0.604249 1.929313,-1.380818 0.848787,-1.84734 1.498748,-3.757002 1.951708,-5.715111 0.04769,0.0011 0.09522,0.0037 0.14306,0.0037 3.7375,0 6.778266,-3.040765 6.778266,-6.778266 0,-3.7375 -3.040917,-6.778112 -6.77857,-6.778112 z m -0.59313,6.986844 c -0.0064,0.882611 -0.05454,1.757909 -0.138943,2.625742 -1.262136,-0.326504 -2.198529,-1.471628 -2.198529,-2.834321 0,-1.36254 0.935936,-2.507512 2.197766,-2.834168 0.09873,1.004651 0.146874,2.019814 0.139719,3.042747 z m -3.556348,-0.208579 c 0,1.987665 1.405201,3.652636 3.27418,4.055777 -0.06567,0.466825 -0.142908,0.931061 -0.231433,1.392707 -2.537069,-0.514515 -4.452669,-2.761951 -4.452669,-5.448484 0,-2.685314 1.913923,-4.931988 4.449166,-5.447874 0.08883,0.461341 0.166531,0.925577 0.23265,1.392556 -1.867759,0.404053 -3.271894,2.068415 -3.271894,4.055318 z m 4.63672,-2.886731 c 1.384479,0.233107 2.443521,1.437043 2.443521,2.886731 0,1.449536 -1.05889,2.653471 -2.443218,2.886732 0.08395,-0.882459 0.131636,-1.77223 0.138183,-2.669316 0.0073,-1.04335 -0.04023,-2.078928 -0.138486,-3.104147 z M 52.208903,12.326005 c 0.388209,0.264647 0.770628,0.539197 1.147259,0.823801 -0.418986,0.658188 -0.644476,1.422264 -0.644476,2.221384 0,1.108253 0.431631,2.150383 1.215513,2.934115 0.783732,0.783882 1.82571,1.215513 2.934115,1.215513 0.798814,0 1.562587,-0.225337 2.220469,-0.643865 0.284758,0.376478 0.55946,0.758897 0.824107,1.147105 -0.897086,0.589626 -1.946226,0.906684 -3.044576,0.906684 -1.485036,0 -2.881095,-0.578352 -3.931299,-1.628405 -1.050053,-1.050052 -1.628253,-2.446111 -1.628253,-3.931147 1.52e-4,-1.098656 0.317362,-2.148099 0.907141,-3.045185 z m 7.018078,4.770032 c -0.581703,-0.702981 -1.196469,-1.384784 -1.847039,-2.041448 -0.71837,-0.725072 -1.466905,-1.408552 -2.242255,-2.050284 0.498057,-0.364138 1.094845,-0.563878 1.723475,-0.563878 0.78297,0 1.518859,0.304869 2.072376,0.858385 0.553519,0.553519 0.858387,1.289409 0.858387,2.072378 -1.52e-4,0.62924 -0.200046,1.226484 -0.564944,1.724847 z M 56.51409,15.912518 c 0.636553,0.642495 1.237758,1.309977 1.805598,1.998636 -0.43925,0.253219 -0.937765,0.390646 -1.458526,0.390646 -0.782817,0 -1.518707,-0.304868 -2.072377,-0.858386 -0.553517,-0.553669 -0.858387,-1.289561 -0.858387,-2.072376 0,-0.520914 0.137728,-1.019735 0.391104,-1.459136 0.758593,0.625583 1.490674,1.29215 2.192588,2.000616 z m 0.347224,-6.1007287 c 1.484885,0 2.880943,0.5783527 3.931148,1.6284047 2.148099,2.148253 2.166076,5.630552 0.05653,7.802724 -0.271197,-0.394303 -0.552451,-0.782817 -0.843454,-1.165541 0.649654,-0.752498 1.005258,-1.70169 1.005258,-2.706035 0,-1.108406 -0.431631,-2.150384 -1.215513,-2.934116 -0.783732,-0.783882 -1.825556,-1.215513 -2.934115,-1.215513 -1.004194,0 -1.953386,0.355451 -2.705883,1.004955 -0.382725,-0.291004 -0.771542,-0.571954 -1.165997,-0.842997 1.043196,-1.013488 2.414421,-1.5718817 3.872032,-1.5718817 z M 32.062877,7.6642996 c 0.407102,1.8636467 2.06933,3.2635134 4.053339,3.2635134 1.983857,0 3.646086,-1.3997149 4.053339,-3.263208 0.46713,0.065978 0.931671,0.1432116 1.393164,0.231889 -0.518933,2.531432 -2.76393,4.441243 -5.446503,4.441243 -2.683029,0 -4.92818,-1.910572 -5.446654,-4.4426132 0.461493,-0.088218 0.926032,-0.1651649 1.393315,-0.2308242 z M 36.124749,7.379542 c 0.02285,0 0.04617,1.536e-4 0.06902,1.536e-4 0.925728,0.00219 1.844754,0.049205 2.754941,0.138183 -0.329093,1.2584796 -1.472389,2.191064 -2.832492,2.191064 -1.360253,0 -2.503703,-0.9328898 -2.832644,-2.1915213 0.938222,-0.09156 1.886042,-0.1378793 2.841177,-0.1378793 z M 33.228267,6.2988661 c 0.229907,-1.3881361 1.435518,-2.4511397 2.887949,-2.4511397 1.452432,0 2.658195,1.0631554 2.887951,2.4514434 -0.927862,-0.088674 -1.864256,-0.1360569 -2.807505,-0.138183 -0.02454,0 -0.04769,-1.519e-4 -0.07207,-1.519e-4 -0.973417,-1.535e-4 -1.93952,0.046775 -2.896329,0.1380312 z m 2.887949,-5.0800814 c 3.031321,0 5.502266,2.4392552 5.55681,5.4577771 C 41.201935,6.5881915 40.727948,6.5109413 40.251067,6.445282 40.08073,4.3124189 38.291892,2.6287088 36.116064,2.6287088 c -2.175828,0 -3.964667,1.6837101 -4.135003,3.8165732 -0.476729,0.065523 -0.950714,0.1424522 -1.421807,0.2305188 0.05516,-3.0182182 2.525796,-5.4570161 5.556962,-5.4570161 z M 20.930518,15.37119 c 0,1.485036 -0.578199,2.881095 -1.628252,3.931147 -1.050206,1.050053 -2.446264,1.628405 -3.931148,1.628405 -1.103683,0 -2.157697,-0.319952 -3.057677,-0.914912 0.264036,-0.388666 0.537977,-0.77139 0.821972,-1.148323 0.661387,0.424775 1.430644,0.653311 2.235401,0.653311 1.108406,0 2.150383,-0.431631 2.934115,-1.215513 0.783883,-0.783732 1.215514,-1.82571 1.215514,-2.934115 0,-0.805213 -0.228843,-1.574775 -0.653921,-2.236468 0.376781,-0.284146 0.759505,-0.558391 1.148171,-0.822581 0.595569,0.900132 0.915825,1.954909 0.915825,3.059049 z m -7.631777,-2.072224 c 0.55367,-0.553519 1.289561,-0.858387 2.072377,-0.858387 0.622231,0 1.213077,0.195323 1.708089,0.552299 -0.728578,0.602271 -1.433691,1.240957 -2.111381,1.917124 -0.697039,0.695515 -1.355227,1.41952 -1.974258,2.168971 -0.822735,-1.144667 -0.723092,-2.751743 0.305173,-3.780007 z m 5.002988,2.072224 c 0,0.782817 -0.304869,1.518707 -0.858386,2.072377 -0.553517,0.553517 -1.289408,0.858385 -2.072377,0.858385 -0.527617,0 -1.03238,-0.141541 -1.475894,-0.401311 0.605166,-0.735738 1.249947,-1.44588 1.933273,-2.127683 0.664587,-0.663062 1.356294,-1.289103 2.071768,-1.878119 0.260075,0.443667 0.401616,0.948582 0.401616,1.476351 z m -6.861758,-3.931148 c 1.050205,-1.050052 2.446264,-1.6284046 3.9313,-1.6284046 1.451821,0 2.817713,0.5541276 3.859386,1.5599966 -0.395064,0.271044 -0.784341,0.551993 -1.167674,0.842846 -0.750211,-0.641886 -1.693766,-0.99292 -2.691865,-0.99292 -1.108254,0 -2.150384,0.431631 -2.934115,1.215514 -1.539885,1.539733 -1.613016,3.998186 -0.221529,5.626742 -0.290699,0.383486 -0.571495,0.772914 -0.842388,1.168132 -2.0990399,-2.172934 -2.0777097,-5.647158 0.06688,-7.791906 z M 7.3876988,36.116135 c 0,-0.951477 0.046164,-1.895946 0.1369698,-2.830663 1.2549749,0.331379 2.1842078,1.473 2.1842078,2.830663 0,1.357055 -0.9284711,2.498219 -2.1825319,2.830207 C 7.4355393,38.011471 7.3876992,37.067917 7.3876988,36.116135 Z M 6.3077836,39.005458 C 4.9152293,38.779205 3.847655,37.571614 3.847655,36.116135 c 0,-1.455021 1.0669648,-2.662307 2.4587574,-2.889016 -0.090653,0.954371 -0.1375789,1.918037 -0.1375789,2.889016 0,0.971437 0.048146,1.934493 0.1389501,2.889323 z m 1.3631491,1.162492 c 1.8602941,-0.409539 3.2569623,-2.070243 3.2569623,-4.051815 0,-1.981571 -1.3965158,-3.642123 -3.2566576,-4.051815 0.065514,-0.467435 0.1424556,-0.931976 0.2303658,-1.393621 2.5288418,0.520913 4.4362148,2.76454 4.4362148,5.445284 0,2.680896 -1.907677,4.924675 -4.436672,5.445435 C 7.8124737,41.099621 7.7365987,40.634929 7.6709327,40.16795 Z M 1.2188659,36.116135 c 0,-3.033301 2.4423026,-5.505464 5.4634143,-5.556962 -0.087911,0.470939 -0.1645473,0.944774 -0.230061,1.421503 -2.1360627,0.166987 -3.8235824,1.957194 -3.8235824,4.135459 0,2.177809 1.686758,3.967866 3.8223636,4.13546 0.065514,0.476272 0.1419982,0.950259 0.2303655,1.421502 -3.0206545,-0.05195 -5.4625,-2.523966 -5.4625,-5.556962 z m 51.9140901,6.803564 c -4.952252,-3.651874 -10.833738,-5.582253 -17.008818,-5.582253 -6.174775,0 -12.056412,1.930379 -17.008968,5.582406 -0.282822,0.208763 -0.693562,0.159198 -0.912474,-0.137889 -0.214287,-0.290231 -0.151944,-0.699185 0.137883,-0.912931 5.178046,-3.818708 11.32753,-5.837302 17.783558,-5.837302 6.456029,0 12.605359,2.018442 17.783711,5.837302 0.290312,0.214034 0.351627,0.623266 0.13773,0.912777 -0.07075,0.184905 -0.571132,0.390544 -0.912622,0.13789 z m 9.118946,5.177277 c -0.175212,0.380901 -0.529446,0.634116 -0.947669,0.677382 -0.422642,0.04489 -0.827306,-0.133982 -1.080677,-0.475955 -1.435976,-1.941211 -3.102471,-3.70018 -4.953928,-5.240521 0.113361,-0.297403 0.150231,-0.619946 0.101465,-0.943097 -0.07465,-0.494251 -0.337475,-0.929996 -0.739701,-1.226637 -5.389215,-3.974418 -11.788871,-6.075132 -18.507107,-6.075132 -6.718238,0 -13.117892,2.100714 -18.506955,6.075132 -0.40238,0.296641 -0.665044,0.732386 -0.739701,1.226637 -0.04891,0.323303 -0.01203,0.645845 0.101313,0.943249 -1.851456,1.540189 -3.517799,3.299158 -4.953775,5.240369 -0.252762,0.341737 -0.656359,0.518613 -1.079153,0.475803 -0.419595,-0.04337 -0.774894,-0.297695 -0.9504111,-0.679964 -0.7934817,-1.72927 -1.4053524,-3.513693 -1.8377451,-5.341229 3.0783982,-0.638991 5.3989672,-3.371841 5.3989672,-6.636878 0,-3.265799 -2.321635,-5.999106 -5.4009479,-6.637335 0.7029811,-2.987135 1.8805579,-5.830749 3.4950979,-8.440188 1.095456,0.72233 2.378008,1.110996 3.720436,1.110996 1.810472,0 3.512619,-0.705113 4.792885,-1.985381 1.280268,-1.280114 1.985229,-2.982259 1.985229,-4.792885 0,-1.343342 -0.388971,-2.626656 -1.112215,-3.722569 2.609592,-1.616063 5.453205,-2.7947073 8.440341,-3.4987539 0.635944,3.0822069 3.370927,5.4067359 6.638706,5.4067359 3.267017,0 6.001543,-2.323463 6.638248,-5.4047566 2.981955,0.7063331 5.822675,1.8890896 8.432419,3.5100296 -0.717759,1.093017 -1.103834,2.371304 -1.103834,3.709314 0,1.810626 0.704961,3.512771 1.985227,4.792885 1.280266,1.280268 2.982413,1.985381 4.793037,1.985381 1.338469,0 2.617211,-0.386381 3.710534,-1.104597 1.622919,2.61081 2.806439,5.451682 3.51399,8.43181 -3.083883,0.634572 -5.410241,3.370468 -5.410241,6.639467 0,3.270522 2.328339,6.007486 5.414507,6.640382 -0.432698,1.828756 -1.044721,3.613026 -1.838354,5.340306 z m 3.314401,-6.424183 c 0.08837,-0.471702 0.166532,-0.945687 0.232041,-1.422416 2.127531,-0.175669 3.805299,-1.962071 3.805299,-4.134089 0,-2.173086 -1.679444,-3.960095 -3.808347,-4.134394 -0.06613,-0.476881 -0.143667,-0.951019 -0.232498,-1.422264 3.015323,0.05835 5.450616,2.527776 5.450616,5.556658 1.53e-4,3.027815 -2.433466,5.496323 -5.447111,5.556505 z"
     id="path1"
     style="stroke-width:0.152358"
     sodipodi:nodetypes="cccccsscccsscccscscccsscccccscscssccscccssccscscsssccsccscscccccscsccsccccccssccscscscsscccscsccsscsccsccsccscsssscccsssccsccsscsccscsccscsccccscscccscsccscccccscscscscsccsccsccsccsccscscccscccscccccscccccccsccscsccsccscsccscssccscccc" /></svg>
