<?xml version="1.0" encoding="UTF-8" standalone="no"?>
<!-- Generator: Adobe Illustrator 17.1.0, SVG Export Plug-In . SVG Version: 6.00 Build 0)  -->

<svg
   version="1.1"
   id="Capa_1"
   x="0px"
   y="0px"
   viewBox="0 0 50.000001 65.000001"
   xml:space="preserve"
   sodipodi:docname="tape_recorder_1.svg"
   width="50"
   height="65"
   inkscape:version="1.3.2 (091e20e, 2023-11-25)"
   xmlns:inkscape="http://www.inkscape.org/namespaces/inkscape"
   xmlns:sodipodi="http://sodipodi.sourceforge.net/DTD/sodipodi-0.dtd"
   xmlns="http://www.w3.org/2000/svg"
   xmlns:svg="http://www.w3.org/2000/svg"><defs
     id="defs15" /><sodipodi:namedview
     id="namedview15"
     pagecolor="#ffffff"
     bordercolor="#000000"
     borderopacity="0.25"
     inkscape:showpageshadow="2"
     inkscape:pageopacity="0.0"
     inkscape:pagecheckerboard="0"
     inkscape:deskcolor="#d1d1d1"
     inkscape:current-layer="Capa_1" /><path
     d="m 45.316322,61.861013 h -4.913075 c -0.321386,0 -0.582221,-0.260835 -0.582221,-0.582221 V 59.040733 H 10.178975 v 2.238059 c 0,0.321386 -0.2608352,0.582221 -0.5822213,0.582221 H 4.6836792 c -0.3213861,0 -0.5822213,-0.260835 -0.5822213,-0.582221 V 59.040733 H 3.0272596 C 1.3580312,59.040733 0,57.682702 0,56.013765 V 11.28374 C 0,9.6145114 1.3580312,8.2564803 3.0272596,8.2564803 H 11.901186 V 2.5146138 C 11.901186,1.1280538 13.029239,0 14.41609,0 h 21.16782 c 1.386851,0 2.514905,1.1280538 2.514905,2.5146138 v 5.7418665 h 8.874217 c 1.668938,0 3.026969,1.3580311 3.026969,3.0272597 v 44.730025 c 0,1.668937 -1.358031,3.026968 -3.026969,3.026968 h -1.074489 v 2.238059 c 0,0.321386 -0.260835,0.582221 -0.582221,0.582221 z M 40.985468,60.696571 H 44.7341 v -1.655838 h -3.748632 z m -35.7195675,0 H 9.0145324 V 59.040733 H 5.2659005 Z M 45.316322,57.876582 h 1.65671 c 1.027039,0 1.862526,-0.835488 1.862526,-1.862526 V 11.28374 c 0,-1.027038 -0.835487,-1.8628171 -1.862526,-1.8628171 H 3.0272596 c -1.0270383,0 -1.862817,0.8357791 -1.862817,1.8628171 v 44.730025 c 0,1.027038 0.8357787,1.862526 1.862817,1.862526 H 45.316322 Z M 13.065628,8.2561891 H 36.934081 V 3.5661055 H 13.065628 Z m 0.0047,-5.8545262 H 36.929715 C 36.872075,1.7096928 36.290727,1.1644426 35.58391,1.1644426 H 14.41609 c -0.706816,0 -1.288164,0.5452502 -1.345804,1.2372203 z M 18.366462,54.63128 c -0.002,0 -0.0041,0 -0.0061,0 H 4.8787234 c -0.3213862,0 -0.5822213,-0.260835 -0.5822213,-0.582221 v -6.087997 c 0,-0.321386 0.2608351,-0.582221 0.5822213,-0.582221 H 18.367044 c 0.321386,0 0.582222,0.260835 0.582222,0.582221 v 6.082466 c 5.82e-4,0.0655 -0.0096,0.130708 -0.03086,0.193879 l -2.91e-4,2.92e-4 v 5.82e-4 c -0.02358,0.06812 -0.0591,0.130417 -0.104218,0.184564 -0.05327,0.06375 -0.117318,0.113242 -0.187766,0.148175 -0.06929,0.03435 -0.14672,0.05531 -0.228522,0.05968 0,0 0,0 -2.91e-4,0 h -2.91e-4 c -0.01019,2.91e-4 -0.02009,5.82e-4 -0.03057,5.82e-4 z M 7.1502598,53.466838 h 8.9455392 c -1.12194,-0.477131 -2.671522,-0.937377 -4.472624,-0.937377 -1.8011017,0 -3.3506837,0.460246 -4.4729152,0.937377 z m 4.4726242,-2.101819 c 2.783891,0 4.986434,0.968816 6.161939,1.627308 V 48.543283 H 5.4609447 v 4.449044 c 0.6421901,-0.359521 1.5906286,-0.811907 2.77312,-1.148431 L 7.7936143,50.115572 c -0.079182,-0.311489 0.1088754,-0.628508 0.4203638,-0.708272 0.3129439,-0.08064 0.628799,0.109166 0.7082722,0.420363 l 0.4453993,1.748702 c 0.6963364,-0.130418 1.4517684,-0.211346 2.2552344,-0.211346 z m 30.581756,2.894513 c -1.668938,0 -3.026678,-1.35774 -3.026678,-3.026678 0,-1.668646 1.35774,-3.026386 3.026678,-3.026386 1.469817,0 2.698596,1.052947 2.970493,2.444165 h 0.304211 c 0.321386,0 0.582221,0.260835 0.582221,0.582221 0,0.321387 -0.260835,0.582222 -0.582221,0.582222 h -0.304211 c -0.271897,1.391509 -1.500384,2.444456 -2.970493,2.444456 z m 0,-4.888912 c -1.026747,0 -1.862235,0.835196 -1.862235,1.861943 0,1.026748 0.835488,1.862235 1.862235,1.862235 0.823552,0 1.523964,-0.537681 1.769079,-1.280013 h -0.154871 c -0.321386,0 -0.582221,-0.260836 -0.582221,-0.582222 0,-0.321386 0.260835,-0.582221 0.582221,-0.582221 h 0.154871 C 43.728604,49.907719 43.028192,49.37062 42.20464,49.37062 Z m -8.041059,4.888912 c -1.668937,0 -3.026677,-1.35774 -3.026677,-3.026678 0,-1.668646 1.35774,-3.026386 3.026677,-3.026386 0.652379,0 1.257016,0.207562 1.752195,0.559806 l 0.206398,-0.206398 c 0.227357,-0.227357 0.595903,-0.227357 0.823261,0 0.227357,0.227358 0.227357,0.595904 0,0.823261 l -0.227358,0.227358 c 0.298971,0.46927 0.472473,1.025874 0.472473,1.622359 -2.91e-4,1.668938 -1.358031,3.026678 -3.026969,3.026678 z m 0,-4.888912 c -1.026747,0 -1.862234,0.835196 -1.862234,1.861943 0,1.026748 0.835487,1.862235 1.862234,1.862235 1.026748,0 1.862235,-0.835487 1.862235,-1.862235 0,-0.27277 -0.0588,-0.531859 -0.164768,-0.765621 l -0.08995,0.08995 c -0.227357,0.227358 -0.595903,0.227358 -0.82326,0 -0.227358,-0.227357 -0.227358,-0.595903 0,-0.82326 l 0.125468,-0.125469 C 34.804025,49.457079 34.493701,49.37062 34.163581,49.37062 Z m -8.041058,4.888912 c -1.668646,0 -3.026386,-1.35774 -3.026386,-3.026678 0,-1.469817 1.052947,-2.698304 2.444165,-2.970202 v -0.30421 c 0,-0.321386 0.260835,-0.582221 0.582221,-0.582221 0.321386,0 0.582221,0.260835 0.582221,0.582221 v 0.30421 c 1.391509,0.272189 2.444456,1.500385 2.444456,2.970202 0,1.668938 -1.35774,3.026678 -3.026677,3.026678 z m -0.582221,-4.795757 c -0.742624,0.245115 -1.279723,0.945236 -1.279723,1.768788 0,1.026748 0.835197,1.862235 1.861944,1.862235 1.026747,0 1.862235,-0.835487 1.862235,-1.862235 0,-0.823552 -0.537681,-1.523964 -1.280014,-1.768788 v 0.15458 c 0,0.321386 -0.260835,0.582221 -0.582221,0.582221 -0.321386,0 -0.582221,-0.260835 -0.582221,-0.582221 z m 4.313386,-8.140618 c -0.0017,0 -0.0038,0 -0.0058,0 h -9.703591 c -0.08471,-0.0038 -0.141189,-0.01106 -0.208727,-0.03639 -5.82e-4,-5.82e-4 -8.73e-4,-5.82e-4 -0.0015,-5.82e-4 -2.91e-4,-2.91e-4 -8.73e-4,-2.91e-4 -0.0012,-5.83e-4 0,0 0,0 -2.91e-4,0 -0.0556,-0.02096 -0.10742,-0.05065 -0.153706,-0.08704 L 7.9519785,32.072243 c -0.016302,-0.01252 -0.031731,-0.02562 -0.046287,-0.03959 -2.4459117,-1.846514 -4.0298447,-4.777416 -4.0298447,-8.071625 0,-5.573604 4.5343395,-10.107943 10.1079442,-10.107943 5.573605,0 10.107944,4.534339 10.107944,10.107943 0,5.573605 -4.534339,10.107944 -10.107944,10.107944 -0.589499,0 -1.167936,-0.05094 -1.729779,-0.148175 l 7.302801,5.635029 v -1.729779 c 0,-0.321387 0.260836,-0.582222 0.582222,-0.582222 h 9.714653 c 0.321386,0 0.582222,0.260835 0.582222,0.582222 v 1.735601 l 7.369466,-5.64056 c -3.12158,0.528657 -6.444899,-0.408719 -8.8486,-2.812711 -1.909394,-1.909103 -2.960886,-4.447297 -2.960886,-7.147349 0,-2.700051 1.051492,-5.238245 2.960886,-7.147348 1.909104,-1.909395 4.447298,-2.960887 7.147349,-2.960887 2.700051,0 5.237954,1.051492 7.147349,2.960887 3.941056,3.941056 3.941056,10.35335 0,14.294697 -0.286744,0.287035 -0.58717,0.552819 -0.898077,0.797934 -0.0041,0.0032 -0.0076,0.0061 -0.01164,0.009 -0.06579,0.05182 -0.131582,0.10218 -0.198246,0.151669 l -11.931462,9.132432 c -0.0524,0.04075 -0.111495,0.07278 -0.17583,0.09374 0,0 -2.91e-4,-2.91e-4 -0.0012,5.83e-4 -2.91e-4,0 -8.73e-4,2.91e-4 -0.0017,2.91e-4 -0.05851,0.01979 -0.119065,0.02911 -0.179616,0.02911 z m -9.132723,-1.164443 h 8.550211 V 38.408557 H 20.720965 Z M 7.6055568,30.224563 c 1.6235241,1.653218 3.8834162,2.680256 6.3782342,2.680256 2.494818,0 4.75471,-1.027038 6.378235,-2.680256 L 16.30045,27.583025 c -0.669264,0.42968 -1.464287,0.67887 -2.316659,0.67887 -0.852663,0 -1.647686,-0.24919 -2.316949,-0.67887 z m 19.5550672,-6.34563 c -2.91e-4,0.02766 -5.83e-4,0.05473 -5.83e-4,0.08238 0,2.388854 0.93039,4.634772 2.619705,6.324087 1.743171,1.743171 4.03392,2.614756 6.324088,2.615047 0.02707,0 0.05444,-2.91e-4 0.08151,-2.91e-4 l -1.004623,-4.739863 c -0.776683,-0.169427 -1.51494,-0.55544 -2.117539,-1.15833 -0.590081,-0.590081 -0.988029,-1.321933 -1.160949,-2.118412 z m 9.229372,4.371318 0.922238,4.351231 1.519016,-0.321678 -0.934174,-4.409453 c -0.478877,0.218916 -0.99065,0.34584 -1.50708,0.3799 z m 2.553622,-1.059352 1.02471,4.836512 c 0.513519,-0.245406 1.007243,-0.542048 1.475349,-0.890798 l 0.182235,-0.139442 c 0.277719,-0.218333 0.545832,-0.455879 0.80201,-0.711766 3.015906,-3.015906 3.423752,-7.667854 1.222373,-11.125666 l -3.461014,3.461014 c 0.486737,1.49136 0.138568,3.198142 -1.044796,4.381506 -0.06521,0.06521 -0.132456,0.12838 -0.200867,0.18864 z M 6.1730013,27.9146 7.0195511,29.216738 10.645916,26.85816 C 10.292508,26.472147 10.013624,26.026748 9.8220733,25.541757 Z m 11.0459027,-1.123105 3.728836,2.424661 0.84655,-1.301847 -3.778616,-2.456974 c -0.183982,0.493724 -0.45588,0.944654 -0.79677,1.33416 z m -4.428666,-5.729931 c -1.138825,0.470144 -1.942582,1.593249 -1.942582,2.900045 0,1.729197 1.406647,3.135844 3.135844,3.135844 0.717006,0 1.378409,-0.241913 1.907357,-0.648595 0.01048,-0.0093 0.02125,-0.01863 0.0326,-0.02766 0.624724,-0.493142 1.034899,-1.197047 1.155128,-1.981882 0.0032,-0.02183 0.0076,-0.04308 0.01339,-0.06433 0.01805,-0.135367 0.02736,-0.273644 0.02736,-0.41396 0,-1.307086 -0.803757,-2.4299 -1.942581,-2.900335 -0.0163,-0.0047 -0.03202,-0.0099 -0.04774,-0.0163 -0.36709,-0.144391 -0.749318,-0.218333 -1.135913,-0.219498 -0.0015,-2.91e-4 -0.0032,0 -0.0047,0 -0.0035,0 -0.0061,0 -0.0096,0 -0.0015,0 -0.0032,0 -0.0047,0 -0.386887,0.0012 -0.769406,0.07511 -1.135914,0.219498 -0.01601,0.0067 -0.03173,0.01223 -0.04803,0.01718 z m 22.906041,6.007651 c 0.01339,8.73e-4 0.02649,0.0017 0.03988,0.0035 0.788037,0.09345 1.578402,-0.114697 2.218263,-0.584841 0.01805,-0.0131 0.03668,-0.02533 0.0556,-0.0361 0.108294,-0.08297 0.21222,-0.174084 0.311198,-0.273062 0.924276,-0.924567 1.149596,-2.286965 0.676541,-3.425499 -0.0079,-0.01456 -0.01514,-0.0294 -0.02183,-0.04425 -0.157491,-0.361851 -0.375533,-0.684402 -0.648304,-0.958628 -2.91e-4,0 -2.91e-4,-2.91e-4 -5.82e-4,-2.91e-4 -8.73e-4,-0.0012 -0.0017,-0.002 -0.0026,-0.0029 -0.0012,-0.0012 -0.0023,-0.0023 -0.0035,-0.0035 -0.0012,-0.0012 -0.0023,-0.0023 -0.0035,-0.0032 -0.275099,-0.274517 -0.598814,-0.493723 -0.961829,-0.651505 -0.02009,-0.0087 -0.03988,-0.01863 -0.05851,-0.02969 -0.373786,-0.153707 -0.777556,-0.234345 -1.193844,-0.234345 -0.837817,0 -1.625271,0.326044 -2.21739,0.918455 -0.59241,0.592119 -0.918454,1.379573 -0.918454,2.217389 0,0.837526 0.326335,1.62498 0.918454,2.21739 0.508279,0.508279 1.14814,0.804921 1.810417,0.89109 z m -17.421226,-2.831925 4.144834,2.695394 c 0.328373,-0.930099 0.507114,-1.930064 0.507114,-2.971075 0,-4.264771 -3.00135,-7.84223 -7.002666,-8.731282 v 4.894152 c 1.398786,0.71031 2.35916,2.163826 2.35916,3.83713 2.92e-4,0.09257 -0.0026,0.184273 -0.0084,0.275681 z m -6.232097,-9.007254 c -4.0013154,0.889052 -7.0026662,4.466511 -7.0026662,8.731573 0,1.04072 0.1787419,2.040976 0.5071147,2.970784 l 4.1445424,-2.695394 c -0.00611,-0.09112 -0.00873,-0.183108 -0.00873,-0.27539 0,-1.673304 0.9609561,-3.126529 2.3594511,-3.83713 v -4.894443 z m 15.420714,7.522881 4.231293,0.896621 c 0.023,-0.522835 0.140898,-1.035189 0.34846,-1.513484 L 27.785347,21.233611 Z M 39.1538,20.929691 c 0.183691,0.184856 0.347004,0.382229 0.490231,0.589499 l 3.248794,-3.248503 -1.098069,-1.097779 -3.247922,3.247922 c 0.210182,0.145846 0.40872,0.311197 0.593575,0.49547 h 2.91e-4 c 0.0015,0.0015 0.0029,0.0032 0.0044,0.0047 0.0015,0.0015 0.0029,0.0029 0.0044,0.0041 0,2.91e-4 2.91e-4,2.91e-4 2.91e-4,5.82e-4 8.73e-4,0.0012 0.0023,0.0026 0.0041,0.0041 -2.91e-4,0 -2.91e-4,0 0,0 z m -11.120136,-0.833741 4.840297,1.025583 c 0.06055,-0.06841 0.123722,-0.135657 0.188931,-0.200866 0.811908,-0.812199 1.891928,-1.259636 3.040651,-1.259636 0.463157,0 0.915252,0.07278 1.342602,0.212511 l 3.460432,-3.460141 c -1.421784,-0.908848 -3.075001,-1.395876 -4.803034,-1.395876 -2.388854,0 -4.634773,0.93039 -6.324088,2.619705 -0.726903,0.727485 -1.313491,1.558024 -1.745791,2.45872 z M 13.993107,19.661031 c 0.261708,5.82e-4 0.518177,0.02474 0.767076,0.07016 V 15.13688 h -1.552784 v 4.594309 c 0.248609,-0.04541 0.505077,-0.06958 0.766786,-0.07016 2.91e-4,0 5.82e-4,0 5.82e-4,0 0.0015,0 0.0026,0 0.0041,0 0.0012,0 0.0029,0 0.0052,0 0.002,0 0.0038,0 0.0052,0 8.74e-4,-2.91e-4 0.002,-2.91e-4 0.0038,0 z"
     id="path1"
     style="stroke-width:1" /></svg>
