<svg xmlns="http://www.w3.org/2000/svg" xml:space="preserve" width="50" height="65">
    <path d="M45.316 61.861h-4.913a.58.58 0 0 1-.582-.582V59.04H10.179v2.238c0 .321-.26.582-.582.582H4.684a.58.58 0 0 1-.583-.582V59.04H3.027A3.03 3.03 0 0 1 0 56.014v-44.73a3.03 3.03 0 0 1 3.027-3.028h8.874V2.515A2.52 2.52 0 0 1 14.416 0h21.168a2.52 2.52 0 0 1 2.515 2.515v5.741h8.874A3.03 3.03 0 0 1 50 11.284v44.73a3.03 3.03 0 0 1-3.027 3.027h-1.074v2.238a.583.583 0 0 1-.583.582m-4.33-1.164h3.748V59.04h-3.749zm-35.72 0h3.749V59.04h-3.75Zm40.05-2.82h1.657a1.865 1.865 0 0 0 1.863-1.863v-44.73a1.865 1.865 0 0 0-1.863-1.863H3.027a1.865 1.865 0 0 0-1.863 1.863v44.73c0 1.027.836 1.862 1.863 1.862zm-32.25-49.62h23.868v-4.69H13.066Zm.004-5.855h23.86a1.35 1.35 0 0 0-1.346-1.238H14.416c-.707 0-1.288.546-1.346 1.238m5.296 52.23H4.88a.58.58 0 0 1-.582-.583v-6.088c0-.321.26-.582.582-.582h13.488c.321 0 .582.26.582.582v6.083a.6.6 0 0 1-.03.193v.001a.6.6 0 0 1-.293.333.6.6 0 0 1-.228.06h-.031M7.15 53.466h8.946c-1.122-.477-2.672-.938-4.473-.938s-3.35.46-4.473.938m4.473-2.102c2.784 0 4.986.969 6.162 1.627v-4.449H5.46v4.45c.642-.36 1.59-.813 2.773-1.15l-.44-1.727a.583.583 0 0 1 1.128-.288l.446 1.748c.696-.13 1.451-.211 2.255-.211m30.582 2.895a3.03 3.03 0 0 1-3.027-3.027 3.03 3.03 0 0 1 3.027-3.027 3.03 3.03 0 0 1 2.97 2.445h.304a.582.582 0 0 1 0 1.164h-.304a3.03 3.03 0 0 1-2.97 2.445m0-4.89a1.864 1.864 0 0 0-1.863 1.863c0 1.026.836 1.862 1.863 1.862.823 0 1.524-.538 1.769-1.28h-.155a.582.582 0 0 1 0-1.165h.155a1.865 1.865 0 0 0-1.77-1.28m-8.041 4.89a3.03 3.03 0 0 1-3.027-3.027 3.03 3.03 0 0 1 3.027-3.027c.652 0 1.257.208 1.752.56l.206-.206a.582.582 0 1 1 .823.823l-.227.227a3 3 0 0 1 .473 1.623 3.03 3.03 0 0 1-3.027 3.027m0-4.89a1.864 1.864 0 0 0-1.863 1.863c0 1.026.836 1.862 1.863 1.862a1.864 1.864 0 0 0 1.697-2.628l-.09.09a.582.582 0 1 1-.823-.823l.125-.126a1.85 1.85 0 0 0-.91-.237m-8.041 4.89a3.03 3.03 0 0 1-3.027-3.027 3.03 3.03 0 0 1 2.444-2.97v-.305a.582.582 0 0 1 1.165 0v.305a3.03 3.03 0 0 1 2.444 2.97 3.03 3.03 0 0 1-3.026 3.027m-.583-4.796a1.865 1.865 0 0 0-1.28 1.769c0 1.026.836 1.862 1.863 1.862a1.864 1.864 0 0 0 1.862-1.862c0-.824-.538-1.524-1.28-1.77v.155a.582.582 0 0 1-1.165 0zm4.314-8.14h-9.71a.6.6 0 0 1-.208-.037h-.002l-.001-.001a.6.6 0 0 1-.154-.087L7.952 32.072l-.046-.04a10.1 10.1 0 0 1-4.03-8.071c0-5.574 4.534-10.108 10.108-10.108 5.573 0 10.108 4.534 10.108 10.108s-4.535 10.108-10.108 10.108q-.886-.001-1.73-.148l7.303 5.635v-1.73c0-.321.26-.582.582-.582h9.715c.321 0 .582.26.582.582v1.736l7.37-5.64a10.1 10.1 0 0 1-8.85-2.814 10.04 10.04 0 0 1-2.96-7.147c0-2.7 1.051-5.238 2.96-7.147a10.04 10.04 0 0 1 7.148-2.961c2.7 0 5.238 1.051 7.147 2.96 3.942 3.942 3.942 10.354 0 14.295a10 10 0 0 1-.898.798l-.011.01-.198.151-11.932 9.132a.6.6 0 0 1-.176.094h-.001l-.002.001a.6.6 0 0 1-.18.03m-9.133-1.165h8.55v-1.75h-8.55ZM7.606 30.225a8.92 8.92 0 0 0 6.378 2.68 8.92 8.92 0 0 0 6.378-2.68L16.3 27.583a4.27 4.27 0 0 1-2.316.679c-.853 0-1.648-.25-2.317-.679zm19.555-6.346-.001.082c0 2.39.93 4.635 2.62 6.324a8.92 8.92 0 0 0 6.324 2.615h.081l-1.004-4.74a4.27 4.27 0 0 1-2.118-1.158 4.27 4.27 0 0 1-1.16-2.118zm9.229 4.371.922 4.351 1.52-.321-.935-4.41c-.479.22-.99.346-1.507.38m2.554-1.06 1.024 4.837a9 9 0 0 0 1.476-.89l.182-.14a9 9 0 0 0 .802-.712c3.016-3.016 3.424-7.667 1.222-11.125l-3.46 3.46a4.3 4.3 0 0 1-1.246 4.57m-32.771.725.847 1.302 3.626-2.359a4.3 4.3 0 0 1-.824-1.316Zm11.046-1.124 3.729 2.425.846-1.302-3.778-2.457a4.3 4.3 0 0 1-.797 1.334m-4.429-5.73a3.14 3.14 0 0 0-1.942 2.9 3.14 3.14 0 0 0 3.136 3.136 3.12 3.12 0 0 0 1.94-.676 3.12 3.12 0 0 0 1.155-1.982l.013-.064q.027-.203.027-.414a3.14 3.14 0 0 0-1.942-2.9l-.048-.017a3.1 3.1 0 0 0-1.136-.22h-.019a3.1 3.1 0 0 0-1.184.238m22.906 6.008.04.004a3.12 3.12 0 0 0 2.218-.585l.056-.036q.162-.125.311-.273a3.14 3.14 0 0 0 .677-3.426l-.022-.044a3.1 3.1 0 0 0-.648-.959h-.001l-.003-.003-.003-.003-.004-.004a3.1 3.1 0 0 0-.961-.651l-.059-.03a3.1 3.1 0 0 0-1.194-.234c-.838 0-1.625.326-2.217.918a3.1 3.1 0 0 0-.919 2.218c0 .837.327 1.625.919 2.217a3.12 3.12 0 0 0 1.81.891m-17.42-2.832 4.144 2.696c.328-.93.507-1.93.507-2.971 0-4.265-3.001-7.843-7.003-8.732v4.894a4.3 4.3 0 0 1 2.351 4.113m-6.233-9.007c-4.001.89-7.003 4.467-7.003 8.732 0 1.04.179 2.04.507 2.97l4.145-2.695a4.31 4.31 0 0 1 2.35-4.113zm15.42 7.523 4.232.897a4.3 4.3 0 0 1 .348-1.514l-4.258-.902Zm11.69-1.823q.276.278.491.59l3.249-3.25-1.098-1.097-3.248 3.248q.316.219.593.495l.005.005.004.004zm-11.12-.834 4.841 1.026q.09-.103.189-.201a4.27 4.27 0 0 1 3.04-1.26c.464 0 .916.073 1.343.213l3.46-3.46a8.9 8.9 0 0 0-4.802-1.396c-2.39 0-4.635.93-6.325 2.62a9 9 0 0 0-1.745 2.458m-14.04-.435q.393.001.767.07v-4.594h-1.553v4.594a4.3 4.3 0 0 1 .767-.07z" style="stroke-width:1"/>
</svg>
