<svg xmlns="http://www.w3.org/2000/svg" xml:space="preserve" width="50" height="35">
    <path d="M34.523 34.426H16.898a.62.62 0 0 1-.614-.542l-.086-.69c-.265-.255-.837-.834-1.936-2.064l-.02-.023a.6.6 0 0 1-.195-.04c-.23-.086-5.668-2.155-8.463-4.455C2.804 24.325 0 20.638 0 17.556c0-.841.13-3.004 1.327-4.909 1.155-1.835 2.938-2.805 5.157-2.805 3.639 0 5.562 1.968 6.33 3.02a12.4 12.4 0 0 1 2.146-1.858l.298-1.79a.62.62 0 0 1 .61-.516h.72c1.09-2.252 3.592-3.962 6.615-4.567a2.8 2.8 0 0 1-.343-1.338A2.796 2.796 0 0 1 25.653 0a2.796 2.796 0 0 1 2.794 2.793c0 .474-.122.933-.343 1.338 3.023.605 5.525 2.315 6.614 4.567h.835c.302 0 .56.218.61.517l.298 1.79a12.6 12.6 0 0 1 2.874 2.724l5.006-3.204c.373-.24.82-.33 1.257-.255l3.457.59c.402.069.727.337.87.718a1.13 1.13 0 0 1-.182 1.12c-.35.432-.715.749-1.085.943-.44.23-1.353.71-2.324 4.196-.305 1.097-.456 1.842-.578 2.44-.255 1.25-.408 2.006-1.533 4.096-1.676 3.115-6.412 6.27-6.612 6.403a.6.6 0 0 1-.224.092q-.12.142-.229.262c-1.098 1.23-1.67 1.81-1.935 2.063l-.086.692a.62.62 0 0 1-.614.541M17.445 33.19h16.532l.047-.374a.62.62 0 0 1 .217-.398c.016-.014.476-.411 1.995-2.112 1.192-1.333 3.963-5.032 3.963-10.574 0-5.008-4.574-7.796-4.62-7.823a.62.62 0 0 1-.293-.43l-.257-1.543H16.392l-.257 1.543a.62.62 0 0 1-.293.43c-.045.027-4.62 2.834-4.62 7.823 0 5.542 2.772 9.241 3.963 10.574 1.52 1.7 1.98 2.098 1.998 2.115.117.1.196.242.215.395zM6.484 11.08c-4.142 0-5.318 3.278-5.36 6.477-.045 3.436 2.695 6.002 5.246 8.1 1.718 1.414 4.615 2.781 6.443 3.569a18 18 0 0 1-.751-1.264l-.004-.002c-.144-.067-3.544-1.668-5.733-3.31-2.148-1.61-4.529-4.781-4.466-7.093.13-4.753 2.513-5.594 4.62-5.594 2.807 0 4.493 1.446 5.235 2.285q.137-.203.279-.394c-.424-.676-2.02-2.774-5.51-2.774m33.546 3.673c.8 1.332 1.406 2.995 1.406 4.979 0 3.388-.964 6.139-2.033 8.148 1.372-1.138 2.953-2.647 3.73-4.092 1.039-1.93 1.163-2.54 1.41-3.757.126-.617.282-1.386.6-2.525.979-3.517 1.992-4.462 2.94-4.96.184-.096.385-.266.589-.495l-3.282-.56a.54.54 0 0 0-.382.077zM6.48 13.2c-2.308 0-3.383 1.384-3.383 4.356 0 1.665 1.855 4.517 3.97 6.103 1.249.936 2.967 1.885 4.152 2.5a17.2 17.2 0 0 1-1.234-6.428 9.5 9.5 0 0 1 1.057-4.35C10.724 14.94 9.297 13.2 6.48 13.2m11.597-4.617H33.23c-1.215-1.812-3.612-3.107-6.395-3.393a.618.618 0 0 1-.292-1.123c.417-.291.666-.768.666-1.274 0-.858-.698-1.556-1.555-1.556-.858 0-1.556.698-1.556 1.556 0 .506.249.983.666 1.274a.619.619 0 0 1-.292 1.123c-2.783.286-5.18 1.581-6.395 3.393m-3.569 16.302a.62.62 0 0 1-.575-.391c-.037-.094-.91-2.326-.91-4.93 0-2.756 2.21-4.823 2.303-4.91a.618.618 0 0 1 .84.91c-.02.017-1.905 1.794-1.905 4 0 2.37.814 4.454.822 4.474a.62.62 0 0 1-.575.847" style="stroke-width:.123739"/>
</svg>
