<?xml version="1.0" encoding="UTF-8" standalone="no"?>
<!-- Uploaded to: SVG Repo, www.svgrepo.com, Generator: SVG Repo Mixer Tools -->

<svg
   fill="#000000"
   height="35"
   width="50"
   version="1.1"
   id="Capa_1"
   viewBox="0 0 50 35"
   xml:space="preserve"
   sodipodi:docname="teapot_1.svg"
   inkscape:version="1.3.2 (091e20e, 2023-11-25)"
   xmlns:inkscape="http://www.inkscape.org/namespaces/inkscape"
   xmlns:sodipodi="http://sodipodi.sourceforge.net/DTD/sodipodi-0.dtd"
   xmlns="http://www.w3.org/2000/svg"
   xmlns:svg="http://www.w3.org/2000/svg"><defs
   id="defs1" /><sodipodi:namedview
   id="namedview1"
   pagecolor="#ffffff"
   bordercolor="#000000"
   borderopacity="0.25"
   inkscape:showpageshadow="2"
   inkscape:pageopacity="0.0"
   inkscape:pagecheckerboard="0"
   inkscape:deskcolor="#d1d1d1"
   inkscape:current-layer="Capa_1" />
<path
   d="M 34.522959,34.426442 H 16.898305 c -0.311946,0 -0.575139,-0.232382 -0.61387,-0.541977 l -0.08649,-0.69133 c -0.264554,-0.254037 -0.836476,-0.833507 -1.935527,-2.063102 -0.0068,-0.0077 -0.01336,-0.01522 -0.02029,-0.02289 -0.06484,-0.0025 -0.130545,-0.01547 -0.194642,-0.0396 C 13.817325,30.98068 8.3786212,28.912133 5.5839739,26.612195 2.8045465,24.324754 0,20.6377 0,17.55635 0,16.7148 0.12930735,14.551717 1.3273492,12.647372 2.4818349,10.812074 4.2649152,9.8420835 6.4839283,9.8420835 c 3.6389187,0 5.5617007,1.9680705 6.3297497,3.0208425 0.884239,-0.959721 1.735564,-1.582994 2.146254,-1.858685 l 0.298211,-1.7895147 c 0.04962,-0.298335 0.30774,-0.5169819 0.610282,-0.5169819 h 0.720037 C 17.677366,6.4464354 20.179618,4.7356187 23.203059,4.1311533 22.981442,3.7260315 22.860302,3.2669594 22.860302,2.7931625 22.860302,1.252982 24.113284,0 25.653464,0 c 1.540057,0 2.793039,1.252982 2.793039,2.7931625 0,0.4737969 -0.12114,0.9329927 -0.342757,1.3379908 3.023441,0.6044654 5.525693,2.3152821 6.614597,4.5665911 h 0.834496 c 0.302418,0 0.560538,0.2186469 0.610281,0.5169819 l 0.298211,1.7895147 c 0.523293,0.351419 1.762416,1.267459 2.873222,2.724487 l 5.00636,-3.2041 c 0.373444,-0.23894 0.819895,-0.329393 1.256818,-0.254902 l 3.457394,0.590235 c 0.401781,0.06855 0.727214,0.337065 0.870628,0.718058 0.144156,0.383096 0.07585,0.801829 -0.182763,1.120458 -0.349934,0.431354 -0.715088,0.748497 -1.085068,0.94252 -0.43915,0.230279 -1.352963,0.70952 -2.323572,4.195869 -0.305388,1.097195 -0.456845,1.841856 -0.578604,2.440259 -0.254532,1.250754 -0.408092,2.00581 -1.532509,4.095887 -1.675922,3.115008 -6.411788,6.270231 -6.612617,6.403003 -0.06991,0.04628 -0.146012,0.07647 -0.223596,0.09157 -0.0808,0.09528 -0.157273,0.182763 -0.228547,0.262451 -1.098926,1.229719 -1.670972,1.809189 -1.93565,2.063225 l -0.08625,0.691331 c -0.03848,0.309471 -0.301552,0.541853 -0.613622,0.541853 z M 17.444613,33.189051 h 16.532161 l 0.04677,-0.373692 c 0.01943,-0.155664 0.09726,-0.298211 0.217904,-0.398563 0.01559,-0.01336 0.475158,-0.410938 1.994674,-2.111361 1.191484,-1.333288 3.962621,-5.03284 3.962621,-10.574618 0,-5.007969 -4.573397,-7.795687 -4.619552,-7.823281 -0.156158,-0.09318 -0.263316,-0.2502 -0.293137,-0.429622 L 35.028928,9.9348878 H 16.39246 l -0.25713,1.5430262 c -0.02982,0.179298 -0.136979,0.336447 -0.293138,0.429622 -0.04541,0.02722 -4.619552,2.83412 -4.619552,7.823281 0,5.541778 2.771261,9.241206 3.962621,10.574618 1.51964,1.700423 1.979083,2.097997 1.997891,2.114083 0.117181,0.100228 0.195508,0.2429 0.214564,0.395841 z M 6.4838046,11.079474 c -4.1414236,0 -5.3176572,3.277593 -5.3598291,6.476876 -0.045291,3.435907 2.695479,6.001222 5.2461128,8.100332 1.7177461,1.413595 4.6147257,2.780417 6.4427237,3.568016 -0.248345,-0.380374 -0.502134,-0.801953 -0.750973,-1.263871 -0.0014,-6.19e-4 -0.0026,-0.0012 -0.004,-0.0019 -0.143661,-0.06731 -3.5438872,-1.66825 -5.7328317,-3.310021 -2.1476156,-1.610711 -4.5286515,-4.781271 -4.46562,-7.0926 0.1296177,-4.753006 2.512646,-5.593997 4.6205414,-5.593997 2.8062788,0 4.4917293,1.445272 5.2337923,2.284595 C 11.805291,14.11178 11.898587,13.98037 11.993,13.853042 11.568699,13.17656 9.972217,11.07943 6.4837646,11.07943 Z m 33.5466574,3.672948 c 0.799478,1.331309 1.405676,2.994857 1.405676,4.978395 0,3.387976 -0.964051,6.139191 -2.03291,8.147971 1.371772,-1.137657 2.95291,-2.646779 3.730486,-4.092175 1.037924,-1.92934 1.162158,-2.539869 1.409636,-3.756224 0.125719,-0.617458 0.281878,-1.386002 0.599268,-2.525515 0.979148,-3.516912 1.992076,-4.462279 2.940907,-4.959834 0.183629,-0.09639 0.384953,-0.266163 0.588009,-0.495451 l -3.281809,-0.560291 c -0.132648,-0.02277 -0.268142,0.0048 -0.381611,0.07746 z M 6.4799687,13.199867 c -2.3081053,0 -3.3831505,1.384393 -3.3831505,4.356606 0,1.664539 1.8554677,4.51623 3.9706637,6.102688 1.2485274,0.936334 2.9660261,1.885042 4.1511991,2.499283 -0.706674,-1.766005 -1.2335551,-3.92253 -1.2335551,-6.427504 0,-1.682604 0.4360561,-3.134806 1.0564841,-4.349305 C 10.724219,14.939144 9.296889,13.199867 6.4799687,13.199867 Z M 18.077415,8.583162 H 33.229514 C 32.014643,6.7712505 29.61757,5.4755785 26.835049,5.1896174 26.578043,5.163261 26.364345,4.9798797 26.299506,4.729803 c -0.06496,-0.2500767 0.0323,-0.5142597 0.24389,-0.6623754 0.416877,-0.2919005 0.66584,-0.768296 0.66584,-1.2745126 0,-0.8578831 -0.697889,-1.5557716 -1.555648,-1.5557716 -0.857759,0 -1.555771,0.6978885 -1.555771,1.5557716 0,0.5060929 0.248963,0.9826121 0.66584,1.2745126 0.211593,0.1481157 0.308852,0.4122987 0.243889,0.6623754 -0.06484,0.2500767 -0.278536,0.433458 -0.535542,0.4598144 -2.782645,0.2859611 -5.179719,1.5817568 -6.394589,3.3935446 z m -3.56913,16.301883 c -0.246241,0 -0.479118,-0.148116 -0.575263,-0.391016 -0.03712,-0.09379 -0.90973,-2.3258 -0.90973,-4.930013 0,-2.755546 2.20899,-4.822978 2.302908,-4.909596 0.250943,-0.231515 0.642577,-0.215801 0.874217,0.03576 0.231268,0.250943 0.215553,0.641711 -0.03477,0.873474 v 0 c -0.01906,0.01769 -1.905087,1.794836 -1.905087,4.000485 0,2.37047 0.814451,4.45337 0.822617,4.474158 0.125967,0.317638 -0.02957,0.677224 -0.347335,0.803067 -0.07462,0.0297 -0.151704,0.04368 -0.227556,0.04368 z"
   id="path1"
   style="stroke-width:0.123739"
   sodipodi:nodetypes="csscccccscscccsccsssccscccccccccccccccccsccccccsccccccscscccscccccsscccccscscccccccssccscscccccsssccccsssccsssccss" />
</svg>
