<svg xmlns="http://www.w3.org/2000/svg" xml:space="preserve" width="100" height="80">
    <path d="M89.882 3.23c-1.643.017-3.124.828-4.023 1.727l-.001.001L47.055 43.76l-7.823-7.822a148 148 0 0 1 7.308-5.71c2.744-2.007 5.149-3.603 7.148-4.74 3.117-1.769 4.441-1.961 4.867-1.961l.085.002.313.311.017.016q.006.01.014.017l.008.008q.107.108.23.195.266.196.588.286.25.073.511.071h.044a1.87 1.87 0 0 0 1.255-3.224c-.025-.028-.046-.053-.074-.077l-.357-.357L51.023 10.61a1.87 1.87 0 0 0-2.65 0 1.873 1.873 0 0 0-.002 2.65l.576.577c.06.17.621 2.395-6.01 11.214-3.695 4.914-7.699 9.3-7.836 9.45l-6.607 6.61-11.477 11.474-.005.004c-.001.001-.008.01-.01.01l-9.266 9.266c-2.923 2.925-2.923 7.682 0 10.607a7.45 7.45 0 0 0 5.304 2.197c2.002 0 3.886-.78 5.302-2.197l3.847-3.847a8.4 8.4 0 0 0 4.042-.339c2.338-.782 3.876-2.277 4.044-2.444L52.357 43.76l2.652 2.652-2.651 2.65a1.874 1.874 0 1 0-2.652 2.65l2.651 2.654a1.88 1.88 0 0 0 2.652 0 1.88 1.88 0 0 0 .001-2.652L93.813 12.91c.165-.162 1-1.043 1.447-2.39.665-1.99.151-3.968-1.447-5.564-1.276-1.276-2.652-1.742-3.93-1.728zm-.096 3.756c.375-.04.822.07 1.376.622.712.714.684 1.236.564 1.653a2.8 2.8 0 0 1-.58 1.016L57.662 43.76l-2.651-2.653 33.502-33.5c0-.003.4-.366.923-.541a1.6 1.6 0 0 1 .351-.08zM36.45 38.46l7.954 7.953-16.765 16.764-.004.004L39.1 51.713a7.44 7.44 0 0 0 2.197-5.3 7.44 7.44 0 0 0-3.697-6.454l.007-.008c-.041-.024-.086-.04-.128-.064a7 7 0 0 0-.707-.352c-.035-.014-.068-.033-.102-.047a8 8 0 0 0-.878-.297l-.056-.02-.004.005h-.001l.004-.005zm-2.644 4.205a3.8 3.8 0 0 1 .794.093 3.72 3.72 0 0 1 2.947 3.656c0 1-.39 1.941-1.098 2.65L21.16 64.353a7 7 0 0 1-1.482-1.15c-1.648-1.649-2.16-3.376-1.569-5.277.484-1.557 1.536-2.664 1.57-2.7l.002-.002 10.132-10.133.006-.005 1.334-1.334a3.7 3.7 0 0 1 .659-.514 4 4 0 0 1 .555-.291q.01-.006.022-.01a3.7 3.7 0 0 1 .776-.213q.297-.053.598-.057l.041-.003zm-2.658 1.094zm-16.9 16.902c.294 1.858 1.219 3.631 2.78 5.193.46.46.943.846 1.436 1.197l-2.771 2.772a3.73 3.73 0 0 1-2.652 1.096 3.73 3.73 0 0 1-2.652-1.096 3.754 3.754 0 0 1 0-5.304z" style="display:inline;fill:none;stroke-width:1.5;stroke:#000;stroke-opacity:1;stroke-dasharray:none"/>
</svg>
