<?xml version="1.0" encoding="UTF-8" standalone="no"?>
<!-- Uploaded to: SVG Repo, www.svgrepo.com, Generator: SVG Repo Mixer Tools -->

<svg
   height="80"
   width="100"
   version="1.1"
   id="Layer_1"
   viewBox="0 0 100 80"
   xml:space="preserve"
   sodipodi:docname="trombone_1.svg"
   inkscape:version="1.3.2 (091e20e, 2023-11-25)"
   xmlns:inkscape="http://www.inkscape.org/namespaces/inkscape"
   xmlns:sodipodi="http://sodipodi.sourceforge.net/DTD/sodipodi-0.dtd"
   xmlns="http://www.w3.org/2000/svg"
   xmlns:svg="http://www.w3.org/2000/svg"><defs
   id="defs11">
	
	
	
</defs><sodipodi:namedview
   id="namedview11"
   pagecolor="#ffffff"
   bordercolor="#000000"
   borderopacity="0.25"
   inkscape:showpageshadow="2"
   inkscape:pageopacity="0.0"
   inkscape:pagecheckerboard="0"
   inkscape:deskcolor="#d1d1d1"
   inkscape:current-layer="Layer_1" />


<path
   id="path6"
   style="display:inline;fill:none;stroke-width:1.5;stroke:#000000;stroke-opacity:1;stroke-dasharray:none"
   inkscape:label="path6"
   d="m 89.882477,3.2294545 c -1.6432,0.01796 -3.124628,0.828544 -4.023846,1.727707 -3.52e-4,3.34e-4 -5.28e-4,7.56e-4 -8.79e-4,0.0011 L 47.05476,43.760373 39.232067,35.937681 c 1.502314,-1.248522 3.964482,-3.259975 7.308315,-5.709147 2.743831,-2.007644 5.148532,-3.603438 7.147914,-4.740594 3.1172,-1.768752 4.441184,-1.961056 4.866934,-1.961056 0.03569,0 0.06306,0.0026 0.08503,0.0026 l 0.313111,0.310472 c 0.0028,0.0054 0.01085,0.01085 0.01647,0.01647 0.0056,0.0056 0.0084,0.01108 0.01383,0.0167 l 0.0081,0.0081 c 0.07137,0.07137 0.148446,0.13724 0.230713,0.194897 0.175786,0.129027 0.373484,0.225394 0.587767,0.285864 0.164887,0.0494 0.337891,0.07119 0.510864,0.07119 h 0.04394 c 1.016215,-0.02197 1.834934,-0.85414 1.834934,-1.873167 -1.76e-4,-0.532981 -0.22565,-1.01082 -0.579858,-1.351317 -0.02479,-0.02742 -0.04662,-0.05234 -0.07405,-0.07712 L 61.189082,20.774577 C 59.164738,18.750409 51.122767,10.708569 51.02257,10.609602 c -0.731971,-0.7333775 -1.918368,-0.7333775 -2.650338,0 -0.733376,0.730563 -0.733507,1.91696 -0.0016,2.650337 l 0.576782,0.576782 c 0.05906,0.170336 0.620669,2.39524 -6.01083,11.214387 -3.694192,4.913781 -7.698345,9.298991 -7.835217,9.450423 L 28.493539,41.110457 17.01702,52.585441 c -0.0016,0.002 -0.0037,0.003 -0.0053,0.004 -0.0011,10e-4 -0.0078,0.009 -0.009,0.01 l -9.2665139,9.2652 c -2.9236604,2.92524 -2.9236604,7.68243 0,10.6075 1.4171808,1.41718 3.3001509,2.19726 5.3037509,2.19726 2.002195,0 3.886439,-0.78008 5.302214,-2.19726 l 3.846747,-3.84719 c 1.318367,0.21261 2.678336,0.11682 4.041644,-0.3386 2.338647,-0.78277 3.876758,-2.27693 4.044281,-2.44445 l 22.082265,-22.081167 2.651875,2.652096 -2.650996,2.650997 -8.79e-4,-8.79e-4 c -0.731795,-0.733377 -1.918279,-0.733377 -2.651656,0 -0.731969,0.733375 -0.731969,1.919773 0,2.650343 l 2.651656,2.65341 c 0.731969,0.73056 1.921312,0.73056 2.651875,0 0.730077,-0.73289 0.730423,-1.91839 0.0014,-2.65188 l 38.802336,-38.80357 c 0.164887,-0.162074 0.999787,-1.04371 1.447337,-2.389522 0.66482,-1.9912965 0.151254,-3.9687885 -1.447337,-5.5645675 -1.276102,-1.276179 -2.652145,-1.741674 -3.930242,-1.727707 z m -0.09624,3.756659 c 0.37453,-0.04084 0.822027,0.06946 1.376145,0.621606 0.711404,0.714039 0.684099,1.235949 0.563159,1.653439 -0.137127,0.4774 -0.463304,0.8938635 -0.578978,1.0153555 L 57.661384,43.760811 55.009728,41.108497 88.511825,7.6077195 h 1.76e-4 c 1.76e-4,-0.003 0.400858,-0.365446 0.922629,-0.541186 0.109866,-0.03639 0.226719,-0.06681 0.351562,-0.08042 z M 36.448578,38.458818 44.403326,46.411809 27.638435,63.176261 c -0.0016,0.001 -0.0033,0.002 -0.0048,0.004 l 11.465973,-11.46685 c 1.41718,-1.414543 2.197263,-3.298655 2.197263,-5.300674 0,-2.005006 -0.780083,-3.886262 -2.197263,-5.302212 -0.458299,-0.458575 -0.965498,-0.836788 -1.499851,-1.151586 l 0.0075,-0.0075 c -0.04151,-0.02446 -0.08643,-0.04037 -0.12832,-0.06394 -0.23097,-0.130259 -0.466462,-0.248367 -0.707299,-0.35222 -0.03434,-0.01471 -0.06722,-0.03306 -0.101734,-0.04724 -0.287314,-0.11881 -0.580902,-0.215902 -0.878245,-0.297508 -0.01887,-0.0052 -0.03691,-0.01385 -0.05581,-0.0189 l -0.0042,0.0042 c -3.52e-4,-7.4e-5 -5.27e-4,7.2e-5 -8.79e-4,0 l 0.0044,-0.0044 c 1.75e-4,6e-5 3.51e-4,1.6e-4 7.03e-4,1.76e-4 z m -2.643526,4.20534 c 0.210402,3.51e-4 0.420039,0.02472 0.627977,0.06021 0.05546,0.0095 0.110599,0.02076 0.165673,0.03274 0.678029,0.147419 1.324554,0.476477 1.850755,1.002172 0.707183,0.708765 1.096873,1.65091 1.096873,2.653412 0,0.999868 -0.390042,1.941747 -1.098631,2.650339 l -15.287014,15.2892 c -0.501948,-0.28878 -0.995857,-0.66385 -1.482053,-1.15004 -1.647987,-1.64799 -2.160275,-3.37548 -1.568406,-5.27607 0.48341,-1.5571 1.535446,-2.66409 1.569724,-2.69978 7.39e-4,-7e-4 0.0012,-0.002 0.002,-0.002 L 29.813723,45.091465 c 0.0021,-0.0021 0.0045,-0.0034 0.0066,-0.0055 l 1.333738,-1.333517 c 0.159722,-0.15865 0.333374,-0.293969 0.512402,-0.417919 0.04819,-0.03335 0.09696,-0.0654 0.146338,-0.09624 0.179038,-0.111829 0.363282,-0.212584 0.555029,-0.291357 0.0076,-0.0031 0.01461,-0.0077 0.02219,-0.01076 0.199346,-0.08036 0.405474,-0.136485 0.613475,-0.181274 0.05408,-0.01164 0.108365,-0.02175 0.162818,-0.03098 0.197936,-0.03355 0.39763,-0.05535 0.597874,-0.05713 0.01366,-1.19e-4 0.02721,-0.0027 0.04087,-0.0026 z m -2.658249,1.094238 c -3.51e-4,3.51e-4 -7.03e-4,7.03e-4 -0.0011,0.0011 v -1.76e-4 c 3.52e-4,-3.52e-4 7.04e-4,-5.28e-4 0.0011,-8.79e-4 z M 14.246341,60.659731 c 0.294686,1.8584 1.219675,3.63145 2.780415,5.19301 0.459965,0.45976 0.943566,0.8458 1.43657,1.19751 l -2.771407,2.77163 c -0.70859,0.70595 -1.650559,1.09577 -2.651656,1.09577 -1.002503,0 -1.943461,-0.38999 -2.651875,-1.09577 -1.4625334,-1.46394 -1.4625334,-3.84245 0,-5.30375 z" />



</svg>
