<svg xmlns="http://www.w3.org/2000/svg" xml:space="preserve" width="100" height="40"><path d="M94.522 23.761c.92-1.809 1.525-4.242 1.703-6.852.39-5.758-1.327-10.237-3.995-10.418-.69-.047-1.735.184-2.802 1.55-1.84 2.356-4.355 3.952-7.08 4.493-1.564.31-3.165.43-4.757.355l-28.77-1.35.078-1.143-1.189-.081.062-.903.41.028a.658.658 0 1 0 .09-1.314l-2.136-.145a.658.658 0 1 0-.089 1.314l.41.028-.06.903-1.19-.08-.083 1.22-.414-.02.084-1.229-1.19-.08.062-.904.41.028a.658.658 0 1 0 .09-1.314l-2.135-.145a.658.658 0 1 0-.09 1.314l.41.028-.06.903-1.19-.08-.088 1.306-.415-.02.09-1.315-1.19-.08.062-.904.41.028a.658.658 0 1 0 .09-1.314l-2.135-.145a.658.658 0 1 0-.09 1.314l.411.028-.061.903-1.19-.08-.094 1.393-22.883-1.075a1.59 1.59 0 0 0-1.46.827l-5.102-.347-2.74-1.527a.66.66 0 0 0-.978.531l-.19 2.794a.658.658 0 0 0 .897.658L7.367 11.7l5.102.346c.065.17.158.33.28.47l.005.005c.278.318.662.509 1.082.537l2.27.154q-.398.258-.762.575a6.63 6.63 0 0 0-2.267 4.57 6.65 6.65 0 0 0 1.631 4.835 6.65 6.65 0 0 0 4.57 2.27l4.443.301c.135.281.302.541.502.77a3.4 3.4 0 0 0 2.341 1.156l9.16.622-.182 2.67c-.033.493.127.97.452 1.342s.776.596 1.27.63a1.85 1.85 0 0 0 1.97-1.721l.299-4.395.414.028-.299 4.395c-.033.493.127.97.452 1.342s.776.596 1.27.63a1.85 1.85 0 0 0 1.97-1.721l.3-4.395.413.028-.299 4.395c-.033.493.128.97.453 1.342s.775.596 1.268.63a1.85 1.85 0 0 0 1.972-1.721l.298-4.395 22.42 1.522A6.62 6.62 0 0 0 75 27.288a6.62 6.62 0 0 0 2.268-4.57 6.62 6.62 0 0 0-1.251-4.361l1.196.106c1.616.144 3.212.488 4.743 1.022 2.618.913 4.871 2.8 6.348 5.313.87 1.481 1.87 1.848 2.554 1.894 1.355.092 2.656-.949 3.664-2.93M4.932 11.238l.05-.723.741.414zm40.103 1.442-.079 1.165-.414-.028.079-1.157zm-.721 4.5.414.027-.447 6.57-.413-.028zm.089-1.315.05-.734.414.028-.05.734zm-3.48-3.379-.073 1.082-.414-.028.073-1.073zm-.715 4.414.413.028-.446 6.57-.413-.028zm.089-1.313.05-.733.413.028-.05.733zm-26.371-3.842a.26.26 0 0 1-.182-.092.27.27 0 0 1-.062-.189.26.26 0 0 1 .273-.242l22.856 1.073-.067.994-11.583-.784.001-.009zm5.44 12.403a5.357 5.357 0 0 1-4.975-5.7 5.32 5.32 0 0 1 1.82-3.67 5.33 5.33 0 0 1 3.556-1.318l16.887 1.143-.05.733-16.496-1.12a4.6 4.6 0 0 0-3.344 1.126 4.6 4.6 0 0 0-1.567 3.16 4.6 4.6 0 0 0 1.128 3.342 4.6 4.6 0 0 0 3.159 1.57l16.496 1.12-.05.738zm16.703-.929-10.4-.706a2.08 2.08 0 0 1 1.269-.326l9.16.622zm-9.042-2.346a3.39 3.39 0 0 0-3.076 1.523l-4.378-.297a3.27 3.27 0 0 1-2.257-1.12 3.27 3.27 0 0 1-.805-2.388 3.28 3.28 0 0 1 1.12-2.257 3.28 3.28 0 0 1 2.388-.804l16.496 1.12-.329 4.845zm-.374 5.502a2.1 2.1 0 0 1-1.22-.495l10.408.706-.028.411zm10.7 5.264a.546.546 0 0 1-.497-.568l1.364-20.08 1.064.072-1.363 20.08a.534.534 0 0 1-.569.496m2.27-6.116.05-.739.413.028-.05.74zm1.835 6.395a.546.546 0 0 1-.496-.569l1.364-20.08 1.064.073-1.363 20.08a.534.534 0 0 1-.569.496m2.27-6.116.05-.739.414.028-.05.74zm1.836 6.395a.546.546 0 0 1-.496-.569l1.364-20.08 1.064.072-1.363 20.08a.534.534 0 0 1-.569.497m2.438-8.58 18.559 1.26a1.06 1.06 0 0 1 .813.468l-19.4-1.317zm20.82 1.827a2.4 2.4 0 0 0-.535-1.068c-.42-.48-1-.77-1.637-.812l-18.559-1.26.33-4.846 22.35 1.518a3.27 3.27 0 0 1 2.257 1.12c.578.662.863 1.51.804 2.388a3.27 3.27 0 0 1-1.12 2.257 3.27 3.27 0 0 1-2.388.805zm5.312.852a5.32 5.32 0 0 1-3.88 1.307l-22.42-1.522.05-.74 22.35 1.518a4.58 4.58 0 0 0 3.344-1.126 4.58 4.58 0 0 0 1.567-3.16 4.58 4.58 0 0 0-1.126-3.344 4.58 4.58 0 0 0-3.16-1.567l-22.35-1.518.05-.734 22.42 1.517a5.32 5.32 0 0 1 3.668 1.82 5.32 5.32 0 0 1 1.307 3.88 5.3 5.3 0 0 1-1.82 3.669m16.813-.918c-.667-.045-1.188-.703-1.508-1.248-1.634-2.78-4.137-4.873-7.049-5.888a21 21 0 0 0-5.06-1.09l-2.745-.245a6.6 6.6 0 0 0-3.518-1.293l-22.419-1.518.085-1.242 28.797 1.35c1.698.08 3.405-.047 5.074-.379 3.035-.602 5.827-2.368 7.862-4.973.393-.503 1.002-1.093 1.675-1.048 1.591.109 3.122 3.837 2.77 9.016-.166 2.436-.72 4.69-1.562 6.344-.743 1.46-1.619 2.268-2.402 2.214" style="stroke-width:.999996"/></svg>