<?xml version="1.0" encoding="UTF-8" standalone="no"?>
<!-- Uploaded to: SVG Repo, www.svgrepo.com, Generator: SVG Repo Mixer Tools -->

<svg
   fill="#000000"
   height="100"
   width="100"
   version="1.1"
   id="Capa_1"
   viewBox="0 0 100 100"
   xml:space="preserve"
   sodipodi:docname="trumpet_1.svg"
   inkscape:version="1.3.2 (091e20e, 2023-11-25)"
   xmlns:inkscape="http://www.inkscape.org/namespaces/inkscape"
   xmlns:sodipodi="http://sodipodi.sourceforge.net/DTD/sodipodi-0.dtd"
   xmlns="http://www.w3.org/2000/svg"
   xmlns:svg="http://www.w3.org/2000/svg"><defs
   id="defs1" /><sodipodi:namedview
   id="namedview1"
   pagecolor="#ffffff"
   bordercolor="#000000"
   borderopacity="0.25"
   inkscape:showpageshadow="2"
   inkscape:pageopacity="0.0"
   inkscape:pagecheckerboard="0"
   inkscape:deskcolor="#d1d1d1"
   inkscape:zoom="2.36"
   inkscape:cx="50"
   inkscape:cy="50.211864"
   inkscape:window-width="1680"
   inkscape:window-height="940"
   inkscape:window-x="0"
   inkscape:window-y="25"
   inkscape:window-maximized="0"
   inkscape:current-layer="Capa_1"
   inkscape:clip-to-page="false" />
<path
   d="m 94.522377,86.309023 c 0.92045,-1.809384 1.52508,-4.242715 1.70228,-6.852076 0.39105,-5.758528 -1.32683,-10.237682 -3.99508,-10.418763 -0.68904,-0.04668 -1.73414,0.184419 -2.80137,1.550748 -1.84031,2.35595 -4.3549,3.951375 -7.08012,4.492361 -1.56443,0.310515 -3.16477,0.429934 -4.75681,0.355073 l -28.76952,-1.348982 0.0777,-1.143947 -1.18924,-0.08076 0.0613,-0.903312 0.41066,0.02789 c 0.36304,0.02465 0.67707,-0.249436 0.7016,-0.612372 0.0248,-0.362687 -0.24967,-0.677086 -0.61226,-0.701476 l -2.13506,-0.144989 c -0.36304,-0.02465 -0.67707,0.249436 -0.7016,0.612372 -0.0124,0.181281 0.0502,0.350623 0.1609,0.477498 0.11074,0.126876 0.27019,0.211675 0.45136,0.223977 l 0.41066,0.02789 -0.0613,0.903311 -1.18924,-0.08076 -0.0829,1.220831 -0.41426,-0.0195 0.0835,-1.229424 -1.18924,-0.08076 0.0613,-0.903313 0.41066,0.02789 c 0.36304,0.02465 0.67707,-0.249436 0.7016,-0.61237 0.0247,-0.362689 -0.24967,-0.677087 -0.61226,-0.701477 l -2.13506,-0.144989 c -0.36304,-0.02465 -0.67707,0.249435 -0.7016,0.612371 -0.0124,0.181282 0.0502,0.350623 0.1609,0.4775 0.11074,0.126876 0.27019,0.211674 0.45136,0.223977 l 0.41066,0.02789 -0.0613,0.903313 -1.18924,-0.08076 -0.0887,1.306307 -0.41427,-0.0195 0.0893,-1.314902 -1.18901,-0.08074 0.0613,-0.903312 0.41043,0.02787 c 0.36304,0.02465 0.67707,-0.249434 0.7016,-0.61237 0.0248,-0.362687 -0.24967,-0.677088 -0.61226,-0.701478 l -2.13506,-0.144988 c -0.36305,-0.02465 -0.67707,0.249437 -0.7016,0.612372 -0.0124,0.181282 0.0502,0.350622 0.1609,0.477498 0.11074,0.126877 0.27019,0.211675 0.45136,0.223978 l 0.41066,0.02789 -0.0613,0.903313 -1.18924,-0.08076 -0.0946,1.393177 -22.88328,-1.07421 c -0.61936,-0.02992 -1.17806,0.311318 -1.45991,0.826304 l -5.1018897,-0.346462 -2.74022,-1.526764 c -0.19695,-0.109748 -0.4365,-0.111081 -0.63469,-0.0035 -0.19829,0.107524 -0.32761,0.309103 -0.34289,0.534176 l -0.18975,2.794251 c -0.012,0.176064 0.0473,0.347399 0.1609,0.477501 0.0315,0.03609 0.0672,0.06896 0.10664,0.0979 0.18181,0.133451 0.41934,0.164517 0.62933,0.08241 l 2.92169,-1.142276 5.1023597,0.346493 c 0.0649,0.169965 0.15792,0.328891 0.28014,0.468912 0.002,0.002 0.003,0.0037 0.005,0.0057 0.27744,0.317872 0.66174,0.508827 1.08216,0.537377 l 2.27004,0.153688 c -0.26581,0.172358 -0.52078,0.363654 -0.76227,0.574649 -1.34157,1.172694 -2.14671,2.796002 -2.26724,4.571035 -0.12455,1.83403 0.50825,3.547406 1.63125,4.833793 1.12257,1.28589 2.7352,2.145137 4.56888,2.269776 l 4.44432,0.301806 c 0.13468,0.28123 0.30197,0.540982 0.50191,0.770055 0.58216,0.666997 1.41408,1.09241 2.34073,1.155453 l 9.15959,0.622131 -0.18135,2.670451 c -0.0335,0.493112 0.12712,0.969778 0.45209,1.342095 0.32497,0.372321 0.77554,0.595894 1.26876,0.629503 1.01783,0.06912 1.90236,-0.702919 1.97137,-1.720868 l 0.29847,-4.395079 0.41367,0.02808 -0.29846,4.395083 c -0.0335,0.493116 0.12712,0.969782 0.45209,1.342099 0.32496,0.372317 0.77554,0.595894 1.26876,0.629503 1.01783,0.06912 1.90236,-0.702923 1.97137,-1.720868 l 0.29881,-4.394942 0.41368,0.02808 -0.29847,4.395082 c -0.0335,0.493117 0.12712,0.969779 0.45209,1.342095 0.32497,0.372321 0.77554,0.595895 1.26876,0.629503 1.01783,0.06912 1.90236,-0.702918 1.97137,-1.720867 l 0.29845,-4.394846 22.41894,1.522318 c 1.7769,0.120667 3.4944,-0.457837 4.83596,-1.62878 1.34169,-1.171048 2.14694,-2.794464 2.26761,-4.571357 0.10685,-1.573422 -0.3354,-3.099777 -1.25108,-4.360418 l 1.19604,0.106072 c 1.61604,0.14416 3.21198,0.488103 4.74365,1.022517 2.61727,0.912773 4.87124,2.799703 6.34756,5.312275 0.87069,1.481482 1.86935,1.848332 2.55386,1.894816 1.35496,0.09213 2.65631,-0.948888 3.66479,-2.931036 z M 4.9324973,73.785382 l 0.0492,-0.722248 0.74164,0.413097 z m 40.1025797,1.442123 -0.0791,1.16555 -0.41368,-0.02809 0.0786,-1.156955 z m -0.72113,4.499383 0.41368,0.02808 -0.44615,6.569862 -0.41368,-0.02808 z m 0.0891,-1.313861 0.0498,-0.734218 0.41369,0.02808 -0.0499,0.734217 z m -3.47992,-3.378885 -0.0735,1.081698 -0.41368,-0.02809 0.0729,-1.073105 z m -0.71532,4.413907 0.41367,0.02808 -0.44614,6.569858 -0.41368,-0.02808 z m 0.0892,-1.313741 0.0498,-0.73259 0.41368,0.02808 -0.0498,0.73259 z m -26.37144,-3.841941 c -0.089,-0.006 -0.14651,-0.05195 -0.18137,-0.09189 -0.0302,-0.04207 -0.0683,-0.09833 -0.0622,-0.188683 0.01,-0.142616 0.12915,-0.249076 0.27278,-0.24224 l 22.8563,1.072847 -0.0675,0.994595 -11.58227,-0.783966 8.1e-4,-0.0091 z m 5.44077,12.403062 c -2.94359,-0.200129 -5.17535,-2.757586 -4.9755,-5.700488 0.0967,-1.424305 0.74313,-2.727275 1.82001,-3.668728 0.98534,-0.861331 2.24729,-1.328896 3.55634,-1.318403 l 16.88699,1.143266 -0.0497,0.732361 -16.4962,-1.120115 c -1.22605,-0.08337 -2.41315,0.316468 -3.34392,1.126672 -0.92736,0.811597 -1.48402,1.933755 -1.56716,3.159819 -0.0861,1.26798 0.35137,2.452397 1.12774,3.341894 0.77605,0.889123 1.89089,1.482973 3.15864,1.569063 l 16.49631,1.120237 -0.0502,0.739094 z M 36.069317,85.767053 25.669267,85.0608 c 0.37605,-0.240828 0.81563,-0.357047 1.26846,-0.326416 l 9.15971,0.622023 z m -9.04259,-2.346655 c -0.90948,-0.06164 -1.78903,0.234947 -2.47686,0.8353 -0.23255,0.202969 -0.43078,0.434987 -0.59873,0.688428 l -4.37813,-0.297314 c -0.87706,-0.05956 -1.67865,-0.457475 -2.25703,-1.120133 -0.57849,-0.662782 -0.86415,-1.510788 -0.80482,-2.387872 0.0594,-0.875793 0.45729,-1.677609 1.1193,-2.256736 0.66465,-0.578595 1.51291,-0.864473 2.38845,-0.804901 l 16.49631,1.120241 -0.32903,4.845227 z m -0.3733,5.502236 c -0.46212,-0.03125 -0.88515,-0.210264 -1.21955,-0.495254 l 10.40691,0.706603 -0.0279,0.410658 z m 10.69898,5.264059 c -0.28454,-0.01932 -0.51554,-0.283989 -0.49622,-0.568524 l 1.36372,-20.07993 1.0644,0.07217 -1.36361,20.080055 c -0.02,0.29347 -0.27504,0.516031 -0.56829,0.496233 z m 2.26994,-6.115826 0.0502,-0.739094 0.41368,0.02808 -0.0502,0.739094 z m 1.83596,6.394653 c -0.28453,-0.01932 -0.51554,-0.283989 -0.49622,-0.568524 l 1.36372,-20.079932 1.0644,0.07217 -1.36361,20.080054 c -0.0198,0.293486 -0.2748,0.516051 -0.56829,0.496237 z m 2.26994,-6.115826 0.0502,-0.739098 0.41367,0.02808 -0.0502,0.739094 z m 1.8362,6.394665 c -0.28454,-0.01932 -0.51555,-0.283989 -0.49622,-0.568524 l 1.36371,-20.07993 1.0644,0.07217 -1.3636,20.080056 c -0.0199,0.29359 -0.27493,0.516155 -0.56829,0.496233 z m 2.43724,-8.579552 18.55936,1.26034 c 0.28534,0.01948 0.54574,0.148595 0.73377,0.364025 0.0289,0.0331 0.0548,0.068 0.0789,0.103714 l -19.39995,-1.317417 z m 20.82007,1.826414 c -0.0836,-0.391628 -0.26424,-0.758116 -0.53475,-1.068049 -0.41926,-0.480345 -1.00053,-0.768794 -1.63662,-0.811875 l -18.55936,-1.260339 0.32903,-4.845227 22.35007,1.517759 c 0.8774,0.0597 1.67913,0.457278 2.25729,1.119686 1.1e-4,1.25e-4 3.3e-4,3.3e-4 4.1e-4,4.02e-4 0.57803,0.662521 0.86347,1.510511 0.80412,2.38782 -0.0593,0.877316 -0.45726,1.678899 -1.11992,2.257282 -0.66265,0.578379 -1.51066,0.864043 -2.38796,0.804467 z m 5.31229,0.852638 c -1.07664,0.939721 -2.45479,1.403825 -3.88072,1.306992 l -22.41918,-1.522334 0.0502,-0.739094 22.34995,1.517634 c 1.22837,0.08354 2.41561,-0.316417 3.3433,-1.126126 0.92757,-0.809606 1.48448,-1.931976 1.56778,-3.160362 0.0834,-1.228032 -0.31632,-2.41525 -1.12569,-3.342806 -1.7e-4,-1.65e-4 -3.3e-4,-3.29e-4 -4e-4,-8.03e-4 -0.8095,-0.927449 -1.93189,-1.484122 -3.16015,-1.567533 l -22.35017,-1.517883 0.0499,-0.734217 22.41938,1.517566 c 1.42593,0.09683 2.72879,0.743119 3.6684,1.819644 0.93961,1.076521 1.40382,2.454796 1.30688,3.880599 -0.0964,1.425959 -0.74265,2.728818 -1.8193,3.668538 z m 16.81298,-0.917758 c -0.66684,-0.04552 -1.18767,-0.703565 -1.50771,-1.247991 -1.63401,-2.781359 -4.13752,-4.873082 -7.04929,-5.888689 -1.63391,-0.569947 -3.33645,-0.936872 -5.06069,-1.090601 l -2.74474,-0.243676 c -1.01501,-0.754842 -2.22482,-1.206151 -3.51719,-1.293916 l -22.41926,-1.517672 0.0844,-1.2422 28.79697,1.350377 c 1.69846,0.07987 3.40597,-0.04744 5.07496,-0.378853 3.03483,-0.602331 5.82692,-2.368504 7.86159,-4.973417 0.39291,-0.502893 1.00235,-1.092939 1.67444,-1.047415 1.59198,0.108343 3.122,3.837021 2.77031,9.015792 -0.16543,2.436087 -0.72025,4.689156 -1.56218,6.343915 -0.7431,1.460561 -1.61833,2.267535 -2.40156,2.214346 z"
   id="path1"
   style="stroke-width:0.999996"
   inkscape:label="trumpet" />
</svg>
