<?xml version="1.0" encoding="UTF-8" standalone="no"?>
<!-- Uploaded to: SVG Repo, www.svgrepo.com, Generator: SVG Repo Mixer Tools -->

<svg
   fill="#000000"
   version="1.1"
   id="Layer_1"
   viewBox="0 0 100 100"
   xml:space="preserve"
   sodipodi:docname="tuba_1.svg"
   width="100"
   height="100"
   inkscape:version="1.3.2 (091e20e, 2023-11-25)"
   xmlns:inkscape="http://www.inkscape.org/namespaces/inkscape"
   xmlns:sodipodi="http://sodipodi.sourceforge.net/DTD/sodipodi-0.dtd"
   xmlns="http://www.w3.org/2000/svg"
   xmlns:svg="http://www.w3.org/2000/svg"><defs
   id="defs6">
		
	
			
			
			
			
			
			
			
			
		</defs><sodipodi:namedview
   id="namedview6"
   pagecolor="#ffffff"
   bordercolor="#000000"
   borderopacity="0.25"
   inkscape:showpageshadow="2"
   inkscape:pageopacity="0.0"
   inkscape:pagecheckerboard="0"
   inkscape:deskcolor="#d1d1d1"
   inkscape:current-layer="Layer_1" />
<g
   id="g6"
   transform="matrix(0.17578091,0,0,0.17578091,4.9999991,4.9999991)">
	
<path
   id="path1"
   d="m 46.964844,3.0820313 v 9.5585937 h 12.925781 c 19.40519,0 35.242188,15.839177 35.242187,35.244141 V 272.15234 a 3.0815037,3.0815037 0 0 1 -3.082031,3.08203 H 67.753906 a 3.0815037,3.0815037 0 0 1 -3.082031,-3.08203 v -5.06445 h -9.560547 v 57.87109 h 9.560547 v -5.0664 a 3.0815037,3.0815037 0 0 1 3.082031,-3.08203 h 24.298828 a 3.0815037,3.0815037 0 0 1 3.082032,3.08203 v 16.15234 c 0,95.35177 77.522314,172.875 172.873044,172.875 85.2114,0 156.17313,-61.94491 170.30664,-143.14062 a 3.0815037,3.0815037 0 0 1 0.0391,-0.18555 c 1.07992,-4.5258 1.82771,-9.17764 2.21484,-13.93164 a 3.0815037,3.0815037 0 0 1 3.07031,-2.83203 h 5.38867 v -9.5586 h -5.06445 a 3.0815037,3.0815037 0 0 1 -3.08203,-3.08203 v -0.14453 -32.16015 a 3.0815037,3.0815037 0 0 1 3.08203,-3.08204 h 5.06445 v -9.56054 h -5.06445 a 3.0815037,3.0815037 0 0 1 -3.08203,-3.08203 v -16.15235 -16.15234 a 3.0815037,3.0815037 0 0 1 3.08203,-3.08203 h 5.06445 v -9.5586 h -5.06445 a 3.0815037,3.0815037 0 0 1 -3.08203,-3.08203 v -32.30273 a 3.0815037,3.0815037 0 0 1 3.08203,-3.08203 h 5.06445 v -9.5586 h -5.38867 a 3.0815037,3.0815037 0 0 1 -3.07031,-2.83203 c -3.88344,-47.64474 -43.8653,-85.21875 -92.51563,-85.21875 -23.87856,0 -45.64666,9.04968 -62.11523,23.90625 a 3.0815037,3.0815037 0 0 1 -5.14648,-2.28711 V 47.884766 c 0,-19.404963 15.83699,-35.244141 35.24218,-35.244141 h 12.92774 V 3.0820313 Z M 95.324219,12.642578 H 280.59766 a 3.0815037,3.0815037 0 0 1 2.28125,5.152344 c -5.66558,6.241082 -9.59581,14.067694 -11.03321,22.730469 a 3.0815037,3.0815037 0 0 1 -3.03906,2.578125 h -13.72656 v 9.558593 h 13.07031 a 3.0815037,3.0815037 0 0 1 3.08203,3.082032 v 91.234379 a 3.0815037,3.0815037 0 0 1 -0.51758,1.70703 c -9.78484,14.70631 -15.49023,32.32629 -15.49023,51.2832 v 72.18359 a 3.0815037,3.0815037 0 0 1 -3.08203,3.08203 H 107.77344 a 3.0815037,3.0815037 0 0 1 -3.08203,-3.08203 V 55.746094 a 3.0815037,3.0815037 0 0 1 3.08203,-3.082032 h 13.07031 v -9.558593 h -13.72656 a 3.0815037,3.0815037 0 0 1 -3.03906,-2.578125 C 102.64057,31.863677 98.709221,24.037055 93.042969,17.796875 a 3.0815037,3.0815037 0 0 1 2.28125,-5.154297 z m 47.693361,30.458984 v 9.558594 h 89.89258 v -9.558594 z m 205.03515,73.595708 c 45.88808,0 83.26954,37.38349 83.26954,83.27148 v 72.04102 a 3.0815037,3.0815037 0 0 1 -0.002,0 v 0.002 64.0332 c 0,9.34453 -0.8001,18.50487 -2.31445,27.42383 a 3.0815037,3.0815037 0 0 1 -0.043,0.21094 c -8.85308,36.48015 -41.78081,63.63867 -80.91016,63.63867 -45.88702,0 -83.27148,-37.38141 -83.27148,-83.26953 v -24.15625 a 3.0815037,3.0815037 0 0 1 3.08203,-3.08203 h 16.29492 a 3.0815037,3.0815037 0 0 1 3.08203,3.08203 v 24.15625 c 0,33.55876 27.25179,60.81055 60.81055,60.81054 33.55876,0 60.81055,-27.25178 60.81055,-60.81054 V 199.96875 c 0,-33.55876 -27.25179,-60.81055 -60.81055,-60.81055 -33.55876,0 -60.81055,27.25179 -60.81055,60.81055 v 72.18164 a 3.0815037,3.0815037 0 0 1 -3.08203,3.08203 h -16.29492 a 3.0815037,3.0815037 0 0 1 -3.08203,-3.08203 v -72.18164 c 0,-45.88712 37.38336,-83.27148 83.27148,-83.27148 z m -0.002,32.01953 c 28.23127,0 51.25195,23.02068 51.25195,51.25195 v 14.12695 a 3.0815037,3.0815037 0 0 1 -5.40625,2.02344 c -11.16267,-12.81584 -27.55205,-20.92969 -45.8457,-20.92969 -18.29334,-9.5e-4 -34.68293,8.11469 -45.8457,20.92969 a 3.0815037,3.0815037 0 0 1 -5.40625,-2.02344 v -14.12695 c 0,-28.23119 23.01975,-51.25195 51.25195,-51.25195 z m 123.29297,38.32617 v 5.0625 a 3.0815037,3.0815037 0 0 1 -3.08203,3.08203 h -5.06641 v 9.55859 h 5.06641 a 3.0815037,3.0815037 0 0 1 3.08203,3.08203 v 5.06836 h 9.55859 v -25.85351 z m -123.29102,17.70508 c 28.23134,0 51.25,23.02185 51.25,51.2539 0,28.23112 -23.01888,51.25 -51.25,51.25 H 67.753906 a 3.0815037,3.0815037 0 0 1 -3.082031,-3.08203 v -16.29297 a 3.0815037,3.0815037 0 0 1 3.082031,-3.08203 H 348.05273 c 15.90363,0 28.79297,-12.88934 28.79297,-28.79297 0,-15.90363 -12.88934,-28.79297 -28.79297,-28.79297 -15.90472,0 -28.79296,12.88923 -28.79296,28.79297 v 8.00391 c 0,6.1642 -5.06716,11.22851 -11.23047,11.22851 h -8.14649 a 3.0815037,3.0815037 0 0 1 -3.08203,-3.08203 v -16.15039 c 0,-28.23212 23.01968,-51.2539 51.25195,-51.2539 z m 123.29102,30.32031 v 5.06641 a 3.0815037,3.0815037 0 0 1 -3.08203,3.08203 h -5.06641 v 9.55859 h 5.06641 a 3.0815037,3.0815037 0 0 1 3.08203,3.08203 v 5.06641 h 9.55859 v -25.85547 z m -123.29102,1.69726 c 10.57791,0 19.23243,8.65692 19.23243,19.23438 0,10.57746 -8.65452,19.23437 -19.23243,19.23437 h -17.58398 a 3.0815037,3.0815037 0 0 1 -2.89453,-4.13671 c 0.80628,-2.2127 1.24414,-4.59425 1.24414,-7.0918 V 256 c 0,-10.57791 8.65647,-19.23437 19.23437,-19.23438 z M 31.097656,251.07617 v 89.89258 H 40.65625 V 251.07617 Z M 471.34375,283.0957 v 5.06446 a 3.0815037,3.0815037 0 0 1 -3.08203,3.08203 h -5.06641 v 9.55859 h 5.06641 a 3.0815037,3.0815037 0 0 1 3.08203,3.08203 v 5.06641 h 9.55859 V 283.0957 Z m -74.04102,11.92383 a 3.0815037,3.0815037 0 0 1 2.00196,2.88477 v 46.14453 c 0,0.21532 -0.004,0.25749 -0.004,0.14258 a 3.0815037,3.0815037 0 0 1 -3.08203,3.08203 h -17.62891 a 3.0815037,3.0815037 0 0 1 -2.9082,-2.06446 c -2.8345,-8.10067 -10.5387,-13.94336 -19.625,-13.94336 h -16.00977 c -9.08611,10e-6 -16.79156,5.8441 -19.625,13.94336 a 3.0815037,3.0815037 0 0 1 -2.9082,2.06446 h -17.62695 a 3.0815037,3.0815037 0 0 1 -3.08203,-3.08203 c 0,0.11932 -0.004,0.0703 -0.004,-0.14258 v -24.15821 a 3.0815037,3.0815037 0 0 1 3.08203,-3.08203 h 48.16992 c 18.29375,0 34.68308,-8.1129 45.84571,-20.92773 a 3.0815037,3.0815037 0 0 1 3.40429,-0.86133 z m -289.52734,21.79102 h 144.36719 a 3.0815037,3.0815037 0 0 1 3.08203,3.08203 v 24.15625 c 0,51.21371 41.61636,92.83008 92.83008,92.83008 19.61143,0 37.78983,-6.10796 52.79297,-16.52149 a 3.0815037,3.0815037 0 0 1 4.34375,4.20508 c -29.12042,44.97241 -79.74932,74.79688 -137.1836,74.79687 -90.02306,0 -163.31445,-73.29038 -163.31445,-163.31445 v -16.15234 a 3.0815037,3.0815037 0 0 1 3.08203,-3.08203 z m 363.56836,14.31054 v 5.06641 a 3.0815037,3.0815037 0 0 1 -3.08203,3.08203 h -5.06641 v 9.55859 h 5.06641 a 3.0815037,3.0815037 0 0 1 3.08203,3.08204 v 5.0664 h 9.55859 v -25.85547 z m -131.29688,9.70313 h 16.00782 c 6.1642,0 11.22851,5.06716 11.22851,11.23047 0,6.16331 -5.0652,11.22851 -11.22851,11.22851 h -16.00782 c -5.46419,0 -10.06055,-3.95545 -11.0332,-9.17187 a 3.0815037,3.0815037 0 0 1 -0.0527,-0.56446 v -2.98632 a 3.0815037,3.0815037 0 0 1 0.0527,-0.5625 c 0.9703,-5.21866 5.56901,-9.17383 11.0332,-9.17383 z m -196.7246,6.30859 c 1.68917,60.87468 52.72481,111.90854 113.5996,113.59766 v -9.56055 C 201.10689,449.49425 154.55848,402.946 152.88281,347.13281 Z m 159.2539,9.70117 h 14.93555 a 3.0815037,3.0815037 0 0 1 2.9082,2.06446 c 2.83628,8.09905 10.54217,13.94336 19.62695,13.94336 h 16.00782 c 9.0861,0 16.79262,-5.84402 19.62695,-13.94336 a 3.0815037,3.0815037 0 0 1 2.9082,-2.06446 h 14.93164 a 3.0815037,3.0815037 0 0 1 2.90821,4.09961 c -6.99852,19.99714 -26.05407,34.36719 -48.37891,34.36719 -22.32503,0 -41.38413,-14.37172 -48.38281,-34.36719 a 3.0815037,3.0815037 0 0 1 2.9082,-4.09961 z" /></g>
</svg>
