<svg xmlns="http://www.w3.org/2000/svg" xml:space="preserve" width="100" height="100">
    <path d="M13.256 5.542v1.68h2.272c3.41 0 6.195 2.784 6.195 6.195V52.84a.54.54 0 0 1-.542.542H16.91a.54.54 0 0 1-.542-.542v-.89h-1.68v10.173h1.68v-.891a.54.54 0 0 1 .542-.542h4.271a.54.54 0 0 1 .542.542v2.84c0 16.76 13.627 30.387 30.388 30.387 14.978 0 27.452-10.888 29.936-25.161l.007-.033q.286-1.194.39-2.449a.54.54 0 0 1 .54-.497h.946v-1.68h-.89a.54.54 0 0 1-.542-.542v-5.679a.54.54 0 0 1 .542-.542h.89v-1.68h-.89a.54.54 0 0 1-.542-.542v-5.678a.54.54 0 0 1 .542-.542h.89v-1.68h-.89a.54.54 0 0 1-.542-.542v-5.678a.54.54 0 0 1 .542-.542h.89v-1.68h-.947a.54.54 0 0 1-.54-.498c-.682-8.375-7.71-14.98-16.262-14.98-4.197 0-8.024 1.59-10.919 4.202a.542.542 0 0 1-.904-.402V13.417c0-3.41 2.784-6.195 6.195-6.195h2.272v-1.68Zm8.5 1.68h32.568a.542.542 0 0 1 .4.906 7.85 7.85 0 0 0-1.939 3.996.54.54 0 0 1-.534.453h-2.413v1.68h2.298a.54.54 0 0 1 .541.542v16.037a.54.54 0 0 1-.09.3 16.2 16.2 0 0 0-2.723 9.015v12.688a.54.54 0 0 1-.542.542H23.945a.54.54 0 0 1-.542-.542V14.8a.54.54 0 0 1 .542-.542h2.297v-1.68h-2.413a.54.54 0 0 1-.534-.453 7.85 7.85 0 0 0-1.94-3.996.542.542 0 0 1 .401-.906m8.384 5.354v1.68h15.8v-1.68zm36.04 12.936c8.066 0 14.637 6.571 14.637 14.638V64.07c0 1.643-.14 3.253-.407 4.82l-.008.038c-1.556 6.412-7.344 11.186-14.222 11.186-8.066 0-14.638-6.57-14.638-14.637v-4.246a.54.54 0 0 1 .542-.542h2.865a.54.54 0 0 1 .541.542v4.246c0 5.9 4.79 10.69 10.69 10.69s10.689-4.79 10.689-10.69V40.151c0-5.9-4.79-10.69-10.69-10.69-5.898 0-10.689 4.79-10.689 10.69v12.688a.54.54 0 0 1-.541.542h-2.865a.54.54 0 0 1-.542-.542V40.15c0-8.066 6.572-14.638 14.638-14.638m0 5.629c4.962 0 9.009 4.046 9.009 9.009v2.483a.542.542 0 0 1-.95.356 10.66 10.66 0 0 0-8.06-3.68 10.66 10.66 0 0 0-8.058 3.68.542.542 0 0 1-.95-.356V40.15c0-4.963 4.046-9.01 9.009-9.01m21.672 6.737v.89a.54.54 0 0 1-.542.541h-.89v1.68h.89a.54.54 0 0 1 .542.542v.891h1.68V37.88zM66.181 40.99c4.963 0 9.009 4.047 9.009 9.01 0 4.962-4.046 9.008-9.009 9.008H16.91a.54.54 0 0 1-.542-.542v-2.864a.54.54 0 0 1 .542-.541h49.27A5.06 5.06 0 1 0 61.12 50v1.407c0 1.084-.89 1.974-1.974 1.974h-1.432a.54.54 0 0 1-.542-.542V50c0-4.962 4.046-9.01 9.009-9.01m21.672 5.33v.89a.54.54 0 0 1-.542.542h-.89v1.68h.89a.54.54 0 0 1 .542.542v.89h1.68V46.32zm-21.672.298a3.39 3.39 0 0 1 3.38 3.38 3.39 3.39 0 0 1-3.38 3.382h-3.09a.542.542 0 0 1-.51-.727 3.6 3.6 0 0 0 .219-1.247V50a3.39 3.39 0 0 1 3.381-3.381m-55.715 2.515v15.802h1.68V49.134Zm77.387 5.629v.89a.54.54 0 0 1-.542.542h-.89v1.68h.89a.54.54 0 0 1 .542.542v.89h1.68v-4.544Zm-13.015 2.096a.54.54 0 0 1 .352.507v8.136a.54.54 0 0 1-.542.542h-3.1a.54.54 0 0 1-.51-.363 3.66 3.66 0 0 0-3.45-2.45h-2.814a3.66 3.66 0 0 0-3.45 2.45.54.54 0 0 1-.511.363h-3.099a.54.54 0 0 1-.541-.542q0 .032-.001-.025v-4.246a.54.54 0 0 1 .542-.542h8.467c3.216 0 6.097-1.426 8.059-3.679a.54.54 0 0 1 .598-.151m-50.893 3.83h25.377a.54.54 0 0 1 .542.542v4.246c0 9.003 7.315 16.318 16.317 16.318 3.448 0 6.643-1.074 9.28-2.904a.542.542 0 0 1 .764.739c-5.119 7.905-14.018 13.148-24.114 13.148-15.825 0-28.708-12.883-28.708-28.708v-2.839a.54.54 0 0 1 .542-.542m63.908 2.516v.89a.54.54 0 0 1-.542.542h-.89v1.68h.89a.54.54 0 0 1 .542.542v.89h1.68v-4.544zm-23.08 1.705h2.815c1.083 0 1.973.891 1.973 1.974 0 1.084-.89 1.974-1.973 1.974h-2.814a1.98 1.98 0 0 1-1.94-1.612.5.5 0 0 1-.009-.1v-.524a.5.5 0 0 1 .01-.099 1.98 1.98 0 0 1 1.939-1.613m-34.58 1.11c.297 10.7 9.268 19.67 19.969 19.968v-1.68c-9.811-.295-17.994-8.478-18.288-18.289Zm27.994 1.705h2.625a.54.54 0 0 1 .512.362 3.66 3.66 0 0 0 3.45 2.451h2.814a3.66 3.66 0 0 0 3.45-2.45.54.54 0 0 1 .51-.363h2.626a.542.542 0 0 1 .51.72c-1.23 3.515-4.579 6.041-8.503 6.041s-7.275-2.526-8.505-6.04a.542.542 0 0 1 .511-.721"/>
</svg>
