<svg xmlns="http://www.w3.org/2000/svg" xml:space="preserve" width="9.684" height="25">
    <path d="M502.277 132.8c-11.235-11.235-29.841-11.561-41.077-.326L307.269 286.406c-23.093 23.093-60.19 23.573-83.286.479-23.095-23.094-22.614-60.191.479-83.286L378.394 49.668c11.235-11.235 10.908-29.842-.326-41.077s-29.841-11.561-41.077-.326L183.06 162.197c-35.52 35.52-43.913 92.038-20.3 137.552 1.446 2.787.843 6.115-1.378 8.334l-96.513 96.513c10.195 3.607 19.26 8.931 26.998 16.669 6.847 6.847 12.188 15.122 15.485 23.654l95.111-95.111c2.271-2.271 5.692-2.839 8.502-1.288 45.127 24.943 100.42 16.575 137.707-20.711l153.932-153.932c11.234-11.235 10.907-29.842-.327-41.077M74.888 438.244c-16.85-16.85-44.268-16.85-61.118 0s-16.85 44.268 0 61.118 44.268 16.85 61.118 0 16.85-44.268 0-61.118" style="stroke-width:24.185" transform="rotate(-45.003 7.992 17.587)scale(.04135)"/>
</svg>
