<svg xmlns="http://www.w3.org/2000/svg" xml:space="preserve" width="60" height="60">
    <path d="M27.127 46.027a18.35 18.35 0 0 0 12.11-5.39 18.36 18.36 0 0 0 5.407-12.568 18.6 18.6 0 0 0-.475-4.728q.591.083 1.193.084c4.766 0 8.643-3.877 8.643-8.643a8.66 8.66 0 0 0-1.012-4.062.817.817 0 0 0-1.442.769 7 7 0 0 1 .82 3.293 7.017 7.017 0 0 1-8.705 6.8 18 18 0 0 0-.229-.635l1.165-2.624.602.278a.815.815 0 0 0 1.084-.4l2.276-4.934a.817.817 0 0 0-.4-1.084l-2.642-1.22a.817.817 0 0 0-1.085.4l-2.276 4.934a.817.817 0 0 0 .4 1.084l.557.258-.584 1.316a18.6 18.6 0 0 0-4.102-5.221 6.97 6.97 0 0 1 6.93-5.96c1.222 0 2.424.318 3.477.92a.817.817 0 1 0 .812-1.417 8.64 8.64 0 0 0-4.288-1.138 8.62 8.62 0 0 0-5.845 2.276 8.6 8.6 0 0 0-2.514 4.169A18.3 18.3 0 0 0 27.127 9.1h-.015a19 19 0 0 0-.409-.016l-.067-.003a19 19 0 0 0-.945 0l-.068.003-.408.015-.015.001a18.35 18.35 0 0 0-12.11 5.39A18.35 18.35 0 0 0 7.7 26.6c-.034.792-.035 1.12 0 1.927a18.35 18.35 0 0 0 5.39 12.11 18.35 18.35 0 0 0 12.11 5.39c.828.035 1.431.032 1.927 0m18.452-33.238 1.16.535-1.593 3.45-1.16-.534ZM27.028 44.396c-.57.028-1.15.029-1.73 0l-.014-.001C16.69 43.95 9.775 37.038 9.332 28.442c-.042-.58-.015-1.162-.001-1.743.39-8.41 7.493-15.57 15.967-15.968q.185-.009.371-.014l.064-.002a17 17 0 0 1 .86 0l.064.002q.186.005.37.014l.015.001c6.562.339 12.144 4.449 14.614 10.2l-7.723 17.395-4.137.287v-.802a.817.817 0 0 0-.817-.817h-6.095a.817.817 0 0 0-.817.817v.808H20.71a.817.817 0 1 0 0 1.634h1.356v.809c0 .451.366.817.817.817h6.095a.817.817 0 0 0 .817-.817v-.811l4.74-.328a.82.82 0 0 0 .691-.484l7.214-16.249a16.8 16.8 0 0 1 .57 4.832c-.237 8.79-7.235 15.921-15.97 16.372zm-3.327-4.15v-1.617h.75v1.617zm2.384-1.617h2.077v1.617h-2.077ZM13.097 27.563a.817.817 0 1 1-1.634 0c0-8.105 6.594-14.7 14.7-14.7a.817.817 0 1 1 0 1.634c-7.205 0-13.066 5.862-13.066 13.066m3.767 0a.817.817 0 1 1-1.635 0c0-6.028 4.905-10.933 10.934-10.933a.817.817 0 1 1 0 1.634c-5.128 0-9.3 4.172-9.3 9.3m9.3 6.864a6.82 6.82 0 0 0 4.852-2.01 6.87 6.87 0 0 0 0-9.707 6.82 6.82 0 0 0-4.853-2.01 6.82 6.82 0 0 0-4.853 2.01 6.87 6.87 0 0 0 0 9.707 6.82 6.82 0 0 0 4.853 2.01m-3.698-10.561a5.2 5.2 0 0 1 3.697-1.532c1.397 0 2.71.544 3.698 1.532a5.235 5.235 0 0 1 0 7.395 5.2 5.2 0 0 1-3.698 1.532 5.2 5.2 0 0 1-3.697-1.532 5.235 5.235 0 0 1 0-7.395m3.697 6.97a3.25 3.25 0 0 0 2.314-.96 3.275 3.275 0 0 0 0-4.626 3.25 3.25 0 0 0-2.314-.958 3.25 3.25 0 0 0-2.313.958 3.276 3.276 0 0 0 0 4.627 3.25 3.25 0 0 0 2.313.958m-1.158-4.43c.31-.31.72-.48 1.158-.48s.849.17 1.158.48a1.64 1.64 0 0 1-1.158 2.795 1.64 1.64 0 0 1-1.158-2.795M59.183 2.88H.817A.817.817 0 0 0 0 3.698v52.604c0 .452.366.817.817.817h58.366a.817.817 0 0 0 .817-.817V3.698a.817.817 0 0 0-.817-.817M1.634 55.485v-4.678h49.25a.817.817 0 1 0 0-1.634H1.634V4.515h56.732v44.658H56.84a.817.817 0 1 0 0 1.634h1.525v4.678zm45.584-19.62h-.441v-4.214a.817.817 0 1 0-1.634 0v4.214h-.441a.817.817 0 0 0-.817.817v5.032c0 .451.366.817.817.817h.44v4.214a.817.817 0 1 0 1.635 0v-4.214h.44a.817.817 0 0 0 .818-.817v-5.032a.817.817 0 0 0-.817-.817m-.818 5.032h-.881v-.882h.881zm-.881-2.516v-.882h.881v.882zm6.279 0h-.441v-6.73a.817.817 0 1 0-1.634 0v6.73h-.44a.817.817 0 0 0-.818.817v5.031c0 .452.366.817.817.817h.44v1.699a.817.817 0 1 0 1.635 0v-1.699h.44a.817.817 0 0 0 .818-.817v-5.031a.817.817 0 0 0-.817-.817m-.817 5.031h-.882v-.881h.882zm-.882-2.515v-.882h.882v.882zm6.279-2.14a.817.817 0 0 0 .817-.817v-5.03a.817.817 0 0 0-.817-.817h-.44v-.44a.817.817 0 1 0-1.635 0v.44h-.44a.817.817 0 0 0-.818.817v5.031c0 .452.366.817.817.817h.441v7.988a.817.817 0 1 0 1.634 0v-7.988zm-1.699-1.634v-.881h.882v.881zm0-3.397h.882v.882h-.882ZM12.742 8.481a2.64 2.64 0 0 0-2.636-2.636H5.594A2.64 2.64 0 0 0 2.957 8.48a2.64 2.64 0 0 0 2.637 2.637h4.512a2.64 2.64 0 0 0 2.636-2.637m-1.634 0c0 .553-.45 1.003-1.002 1.003H8.032a2.62 2.62 0 0 0 0-2.005h2.074c.553 0 1.002.45 1.002 1.002m-6.517 0a1.004 1.004 0 0 1 2.005 0 1.004 1.004 0 0 1-2.005 0m20.995 19.66a.82.82 0 0 1 0-1.155.818.818 0 0 1 1.155 1.155.82.82 0 0 1-1.155 0" style="stroke-width:.108942"/>
</svg>
