<?xml version="1.0" encoding="UTF-8" standalone="no"?>
<!-- Uploaded to: SVG Repo, www.svgrepo.com, Generator: SVG Repo Mixer Tools -->

<svg
   fill="#000000"
   height="60"
   width="60"
   version="1.1"
   id="Capa_1"
   viewBox="0 0 60 59.999999"
   xml:space="preserve"
   sodipodi:docname="turntable_1.svg"
   inkscape:version="1.3.2 (091e20e, 2023-11-25)"
   xmlns:inkscape="http://www.inkscape.org/namespaces/inkscape"
   xmlns:sodipodi="http://sodipodi.sourceforge.net/DTD/sodipodi-0.dtd"
   xmlns="http://www.w3.org/2000/svg"
   xmlns:svg="http://www.w3.org/2000/svg"><defs
   id="defs1" /><sodipodi:namedview
   id="namedview1"
   pagecolor="#ffffff"
   bordercolor="#000000"
   borderopacity="0.25"
   inkscape:showpageshadow="2"
   inkscape:pageopacity="0.0"
   inkscape:pagecheckerboard="0"
   inkscape:deskcolor="#d1d1d1"
   inkscape:current-layer="Capa_1" />
<path
   d="m 27.126872,46.026724 c 4.576325,-0.233463 8.845542,-2.126221 12.109443,-5.390122 3.372516,-3.372515 5.281179,-7.818438 5.407879,-12.567326 0.0087,-0.280175 0.01009,-0.621145 0.0012,-0.980364 -0.04292,-1.38721 -0.201215,-2.562817 -0.476623,-3.747383 0.394043,0.05447 0.792553,0.08323 1.193677,0.08323 4.765775,0 8.643019,-3.877244 8.643019,-8.64291 0,-1.415701 -0.350031,-2.820289 -1.012289,-4.0619 -0.212328,-0.398183 -0.70736,-0.548741 -1.105434,-0.336413 -0.398183,0.212328 -0.548849,0.707251 -0.336413,1.105325 0.536431,1.005752 0.820007,2.144522 0.820007,3.292988 0,3.864716 -3.144174,7.008781 -7.00889,7.008781 -0.575649,0 -1.144326,-0.0706 -1.696335,-0.207753 -0.07267,-0.213199 -0.148488,-0.425309 -0.228887,-0.635458 l 1.165025,-2.624085 0.60136,0.277475 c 0.110902,0.05109 0.227143,0.07528 0.34175,0.07528 0.308851,0 0.604519,-0.17605 0.74244,-0.474878 l 2.276669,-4.934307 c 0.09075,-0.196858 0.09968,-0.421606 0.02473,-0.624891 -0.07495,-0.203293 -0.227578,-0.368558 -0.424327,-0.459416 l -2.643368,-1.219605 c -0.409839,-0.188687 -0.895176,-0.01013 -1.08419,0.399599 L 42.160537,16.2969 c -0.09075,0.196857 -0.09968,0.421605 -0.02473,0.62489 0.07495,0.203286 0.22758,0.368551 0.424329,0.459408 l 0.55811,0.257539 -0.584365,1.316128 c -0.856829,-1.624543 -1.961936,-3.128921 -3.297673,-4.464659 -0.261352,-0.261351 -0.530003,-0.512898 -0.803992,-0.756492 0.507997,-3.425572 3.417836,-5.9606512 6.930343,-5.9606512 1.221457,0 2.42374,0.3186553 3.476664,0.9215401 0.391647,0.2242025 0.890819,0.08857 1.115021,-0.3030766 C 50.178447,7.99988 50.042814,7.500708 49.651168,7.2765054 48.35149,6.5323229 46.868572,6.1390425 45.362559,6.1390425 c -2.170887,0 -4.246449,0.8081314 -5.844409,2.2755795 -1.232134,1.1314712 -2.096915,2.578438 -2.514054,4.169209 -2.877484,-2.091686 -6.282247,-3.3000701 -9.877222,-3.4834194 -0.0051,-2.178e-4 -0.01024,-6.536e-4 -0.01525,-9.804e-4 -0.135851,-0.00686 -0.272137,-0.011657 -0.408532,-0.015579 -0.02255,-6.537e-4 -0.04499,-0.00185 -0.06754,-0.0024 -0.157095,-0.00392 -0.314516,-0.00599 -0.472264,-0.00599 -0.157748,0 -0.315169,0.00207 -0.472263,0.00599 -0.02255,5.447e-4 -0.04499,0.00185 -0.06754,0.0024 -0.136396,0.00392 -0.272682,0.00882 -0.408533,0.015579 -0.0051,2.178e-4 -0.01024,6.536e-4 -0.01525,9.804e-4 C 20.623486,9.3338742 16.35416,11.226632 13.090259,14.490424 9.8264665,17.754325 7.9336,22.023543 7.7001374,26.599757 c -0.033862,0.792553 -0.035046,1.120806 -1.09e-4,1.927293 0.2333537,4.576432 2.1262202,8.845868 5.3901216,12.10977 3.263901,3.263901 7.533227,5.156658 12.109443,5.390121 0.828135,0.03524 1.431638,0.03213 1.927279,-2.17e-4 z M 45.5787,12.789186 46.738278,13.324201 45.1462,16.774718 43.986622,16.239705 Z M 27.027737,44.395753 c -0.57021,0.02867 -1.149695,0.02895 -1.729352,0 -0.0047,-2.17e-4 -0.0093,-6.54e-4 -0.01394,-8.72e-4 C 16.688709,43.951271 9.7751438,37.037705 9.3315322,28.441966 9.2900675,27.861511 9.3168796,27.27966 9.3306606,26.698783 9.7205342,18.289394 16.823883,11.12932 25.298387,10.731164 c 0.123322,-0.0062 0.24708,-0.01057 0.371056,-0.01416 0.02114,-5.45e-4 0.04205,-0.0017 0.06319,-0.0023 0.14304,-0.0036 0.286517,-0.0054 0.430429,-0.0054 0.143913,0 0.287389,0.0019 0.43043,0.0054 0.02114,5.45e-4 0.04205,0.0017 0.06319,0.0023 0.123976,0.0036 0.247734,0.008 0.371057,0.01416 0.0047,2.18e-4 0.0093,6.53e-4 0.01394,8.71e-4 6.562446,0.338592 12.143869,4.448755 14.614781,10.199146 l -7.723331,17.396069 -4.137397,0.286408 v -0.801703 c 0,-0.451347 -0.365827,-0.817065 -0.817065,-0.817065 h -6.094866 c -0.451238,0 -0.817065,0.365718 -0.817065,0.817065 v 0.808349 h -1.356001 c -0.451237,0 -0.817064,0.365718 -0.817064,0.817065 0,0.451346 0.365827,0.817064 0.817064,0.817064 h 1.356001 v 0.80835 c 0,0.451346 0.365827,0.817064 0.817065,0.817064 h 6.094866 c 0.451238,0 0.817065,-0.365718 0.817065,-0.817064 v -0.810964 l 4.740938,-0.328242 c 0.301878,-0.02092 0.567479,-0.206989 0.690365,-0.483594 l 7.213918,-16.248584 c 0.336849,1.252942 0.533489,2.56286 0.569767,3.912106 0.0083,0.35148 0.0095,0.526143 0,0.919695 -0.236513,8.789001 -7.234291,15.920995 -15.969148,16.371798 -0.0046,1.08e-4 -0.0092,4.35e-4 -0.01384,7.62e-4 z m -3.32687,-4.150035 v -1.616699 h 0.749739 v 1.616699 z m 2.383977,-1.616699 h 2.076869 v 1.616699 H 26.084844 Z M 13.096784,27.563458 c 0,0.451347 -0.365827,0.817065 -0.817065,0.817065 -0.451237,0 -0.817064,-0.365718 -0.817064,-0.817065 0,-8.105826 6.594583,-14.700409 14.700518,-14.700409 0.451238,0 0.817065,0.365718 0.817065,0.817064 0,0.451347 -0.365827,0.817065 -0.817065,0.817065 -7.204876,-1.09e-4 -13.066389,5.861404 -13.066389,13.06628 z m 3.766777,0 c 0,0.451347 -0.365827,0.817065 -0.817065,0.817065 -0.451237,0 -0.817064,-0.365718 -0.817064,-0.817065 0,-6.028848 4.904784,-10.933633 10.933741,-10.933633 0.451238,0 0.817065,0.365719 0.817065,0.817065 0,0.451347 -0.365827,0.817065 -0.817065,0.817065 -5.127898,-1.09e-4 -9.299612,4.171605 -9.299612,9.299503 z m 9.299612,6.863235 c 1.833275,0 3.556737,-0.713897 4.853038,-2.010089 2.675941,-2.675941 2.675941,-7.030133 0,-9.706183 -1.296301,-1.296192 -3.019763,-2.010088 -4.853038,-2.010088 -1.833275,0 -3.556737,0.713896 -4.853037,2.010088 -2.675941,2.675941 -2.675941,7.030133 0,9.706183 1.296191,1.296192 3.019762,2.010089 4.853037,2.010089 z M 22.465574,23.865968 c 0.987668,-0.987667 2.300854,-1.531614 3.697599,-1.531614 1.396745,0 2.709931,0.543838 3.69749,1.531614 2.038849,2.038741 2.038849,5.356132 0,7.394981 -0.987668,0.987667 -2.300854,1.531614 -3.69749,1.531614 -1.396745,0 -2.709931,-0.543838 -3.697599,-1.531614 -2.038848,-2.038741 -2.038848,-5.35624 0,-7.394981 z m 3.697599,6.969236 c 0.873824,0 1.695464,-0.340335 2.313383,-0.958363 1.275601,-1.275601 1.275601,-3.351272 0,-4.626873 -0.617919,-0.617919 -1.43945,-0.958254 -2.313383,-0.958254 -0.873932,0 -1.695463,0.340335 -2.313382,0.958254 -1.275493,1.275601 -1.275602,3.351272 0,4.626982 0.61781,0.617919 1.43945,0.958254 2.313382,0.958254 z m -1.157944,-4.429581 c 0.309286,-0.309394 0.720542,-0.479672 1.157944,-0.479672 0.437402,0 0.848658,0.170277 1.157835,0.479672 0.638509,0.638401 0.638509,1.67727 0,2.315779 -0.309286,0.309395 -0.720542,0.479672 -1.157835,0.479672 -0.437402,0 -0.848658,-0.170276 -1.157835,-0.479562 -0.638618,-0.638619 -0.638618,-1.677488 -1.09e-4,-2.315889 z M 59.182935,2.8806975 H 0.81706467 C 0.36582709,2.8806975 0,3.2464157 0,3.6977622 v 46.2920508 6.312425 c 0,0.451347 0.36582709,0.817065 0.81706467,0.817065 H 59.182935 C 59.634173,57.119303 60,56.753585 60,56.302238 V 49.989813 3.6977622 C 60,3.2465246 59.634173,2.8806975 59.182935,2.8806975 Z M 1.6341293,55.485281 V 50.806988 H 50.884064 c 0.451238,0 0.817065,-0.365718 0.817065,-0.817065 0,-0.451346 -0.365827,-0.817064 -0.817065,-0.817064 H 1.6341293 V 4.5148268 H 58.365871 V 49.172749 h -1.525188 c -0.451237,0 -0.817064,0.365718 -0.817064,0.817064 0,0.451347 0.365827,0.817065 0.817064,0.817065 h 1.525188 v 4.678295 H 1.6341293 Z M 47.217514,35.865272 h -0.44078 V 31.65107 c 0,-0.451347 -0.365827,-0.817065 -0.817064,-0.817065 -0.451238,0 -0.817065,0.365718 -0.817065,0.817065 v 4.214202 h -0.44067 c -0.451238,0 -0.817065,0.365718 -0.817065,0.817064 v 5.031376 c 0,0.451346 0.365827,0.817064 0.817065,0.817064 h 0.44067 v 4.214202 c 0,0.451347 0.365827,0.817065 0.817065,0.817065 0.451237,0 0.817064,-0.365718 0.817064,-0.817065 v -4.214202 h 0.44078 c 0.451237,0 0.817064,-0.365718 0.817064,-0.817064 v -5.031376 c 0,-0.451346 -0.365718,-0.817064 -0.817064,-0.817064 z m -0.817065,5.031266 h -0.88145 V 40.01498 h 0.88145 z m -0.88145,-2.515579 v -0.881558 h 0.88145 v 0.881558 z m 6.278761,0 h -0.440779 v -6.72978 c 0,-0.451346 -0.365827,-0.817065 -0.817065,-0.817065 -0.451237,0 -0.817064,0.365719 -0.817064,0.817065 v 6.72978 h -0.440779 c -0.451238,0 -0.817065,0.365719 -0.817065,0.817065 v 5.031266 c 0,0.451347 0.365827,0.817065 0.817065,0.817065 h 0.440779 v 1.698623 c 0,0.451347 0.365827,0.817065 0.817064,0.817065 0.451238,0 0.817065,-0.365718 0.817065,-0.817065 v -1.698623 h 0.440779 c 0.451238,0 0.817065,-0.365718 0.817065,-0.817065 v -5.031266 c 0,-0.451346 -0.365827,-0.817065 -0.817065,-0.817065 z m -0.817065,5.031157 h -0.881558 v -0.88145 h 0.881558 z m -0.881449,-2.515579 v -0.881558 h 0.881558 v 0.881558 z m 6.278761,-2.139293 c 0.451237,0 0.817064,-0.365718 0.817064,-0.817065 v -5.031266 c 0,-0.451347 -0.365827,-0.817065 -0.817064,-0.817065 h -0.44067 v -0.440779 c 0,-0.451346 -0.365828,-0.817065 -0.817065,-0.817065 -0.451238,0 -0.817065,0.365719 -0.817065,0.817065 v 0.440779 h -0.440779 c -0.451237,0 -0.817065,0.365718 -0.817065,0.817065 v 5.031266 c 0,0.451347 0.365828,0.817065 0.817065,0.817065 h 0.440779 v 7.987624 c 0,0.451347 0.365827,0.817065 0.817065,0.817065 0.451237,0 0.817065,-0.365718 0.817065,-0.817065 v -7.987624 z m -1.698514,-1.634129 v -0.88145 h 0.881449 v 0.88145 z m 0,-3.397137 h 0.881449 v 0.881558 H 54.679493 Z M 12.742287,8.4812945 c 0,-1.4538304 -1.182674,-2.6365043 -2.636504,-2.6365043 H 5.5935158 c -1.4538304,0 -2.6366132,1.1826739 -2.6366132,2.6365043 0,1.4538304 1.1827828,2.6366135 2.6366132,2.6366135 h 4.5122672 c 1.45383,0 2.636504,-1.182892 2.636504,-2.6366135 z m -1.634129,0 c 0,0.5527715 -0.449604,1.0024839 -1.002375,1.0024839 H 8.0315278 C 8.1592078,9.1744922 8.23002,8.8361185 8.23002,8.4812945 c 0,-0.354715 -0.070812,-0.6931977 -0.1984922,-1.0023749 h 2.0742552 c 0.552771,-1.09e-4 1.002375,0.4496034 1.002375,1.0023749 z m -6.5171261,0 c 0,-0.5526625 0.4497124,-1.0023749 1.0024839,-1.0023749 0.5527715,0 1.0023749,0.4497124 1.0023749,1.0023749 0,0.5527715 -0.4496034,1.0024839 -1.0023749,1.0024839 -0.5527715,0 -1.0024839,-0.4497124 -1.0024839,-1.0024839 z M 25.585563,28.140959 c -0.152519,-0.151537 -0.239672,-0.361687 -0.239672,-0.577391 0,-0.215705 0.08715,-0.425963 0.239672,-0.577502 0.151429,-0.15241 0.362777,-0.239564 0.577392,-0.239564 0.215705,0 0.425963,0.08715 0.577393,0.239564 0.152518,0.151538 0.239672,0.361687 0.239672,0.577502 0,0.215596 -0.08715,0.425854 -0.239672,0.577391 -0.15143,0.15241 -0.361688,0.239673 -0.577393,0.239673 -0.214506,0 -0.425854,-0.08726 -0.577392,-0.239673 z"
   id="path1"
   style="stroke-width:0.108942"
   sodipodi:nodetypes="cscccsscccssccccsccsccccscccscscscsccccscscccccccscccccccccccccccscccccccsssscssscsssscccccccccccccccccccssssscsssssscssccsccscscssccscssccscsccsccssscsssscssccsssccccsssccccscssscsssscssscssssccccccccccscssscsssscssscssssccccccccccsssscssscsssscssscsccccccccccssssssssscsccsssssscscscscsc" />
</svg>
