<?xml version="1.0" encoding="UTF-8" standalone="no"?>
<!-- Uploaded to: SVG Repo, www.svgrepo.com, Generator: SVG Repo Mixer Tools -->

<svg
   fill="#000000"
   width="100"
   height="70"
   viewBox="0 0 100 70"
   enable-background="new 0 0 512 512"
   id="television_1_"
   version="1.1"
   xml:space="preserve"
   sodipodi:docname="tv_1.svg"
   inkscape:version="1.3.2 (091e20e, 2023-11-25)"
   xmlns:inkscape="http://www.inkscape.org/namespaces/inkscape"
   xmlns:sodipodi="http://sodipodi.sourceforge.net/DTD/sodipodi-0.dtd"
   xmlns="http://www.w3.org/2000/svg"
   xmlns:svg="http://www.w3.org/2000/svg"><defs
   id="defs2" /><sodipodi:namedview
   id="namedview2"
   pagecolor="#ffffff"
   bordercolor="#000000"
   borderopacity="0.25"
   inkscape:showpageshadow="2"
   inkscape:pageopacity="0.0"
   inkscape:pagecheckerboard="0"
   inkscape:deskcolor="#d1d1d1"
   inkscape:current-layer="television_1_" />

<g
   id="television"
   transform="matrix(0.19430094,0,0,0.19430094,0.25886221,-15.140257)"
   style="stroke-width:5.14666">

<path
   d="M 42.4,315.607 H 469.6 V 106.215 H 42.4 Z M 49.6,113.415 H 462.4 V 308.408 H 49.6 Z"
   id="path1"
   style="stroke-width:5.14666" />

<path
   d="M 479.111,88.215 H 32.889 c -4.68,0 -8.488,3.809 -8.488,8.489 v 228.415 c 0,4.681 3.809,8.488 8.488,8.488 h 116.232 v 17.744 c 0,3.329 2.709,6.037 6.038,6.037 h 49.521 l -0.295,59.191 H 157.04 v 7.201 h 47.309 v 0.004 h 92.217 v -0.004 h 47.675 v -7.201 h -47.639 l 0.296,-59.191 h 49.225 c 3.328,0 6.036,-2.708 6.036,-6.037 v -17.744 h 126.953 c 4.68,0 8.488,-3.808 8.488,-8.488 V 96.704 c 0,-4.681 -3.809,-8.489 -8.489,-8.489 z M 289.4,416.58 h -77.816 l 0.296,-59.191 h 77.816 z m 55.558,-66.391 H 156.321 V 333.607 H 344.958 Z M 480.4,325.119 c 0,0.711 -0.578,1.289 -1.289,1.289 H 352.158 149.121 32.889 c -0.711,0 -1.289,-0.578 -1.289,-1.289 V 96.704 c 0,-0.711 0.578,-1.289 1.289,-1.289 h 446.223 c 0.711,0 1.289,0.578 1.289,1.289 v 228.415 z"
   id="path2"
   style="stroke-width:5.14666" />

</g>

</svg>
