<svg xmlns="http://www.w3.org/2000/svg" xml:space="preserve" width="100" height="70">
    <g style="stroke-width:5.14666">
        <path d="M42.4 315.607h427.2V106.215H42.4Zm7.2-202.192h412.8v194.993H49.6Z" style="stroke-width:5.14666" transform="translate(.259 -15.14)scale(.1943)"/>
        <path d="M479.111 88.215H32.889c-4.68 0-8.488 3.809-8.488 8.489v228.415c0 4.681 3.809 8.488 8.488 8.488h116.232v17.744a6.044 6.044 0 0 0 6.038 6.037h49.521l-.295 59.191H157.04v7.201h47.309v.004h92.217v-.004h47.675v-7.201h-47.639l.296-59.191h49.225a6.043 6.043 0 0 0 6.036-6.037v-17.744h126.953c4.68 0 8.488-3.808 8.488-8.488V96.704c0-4.681-3.809-8.489-8.489-8.489M289.4 416.58h-77.816l.296-59.191h77.816zm55.558-66.391H156.321v-16.582h188.637Zm135.442-25.07a1.29 1.29 0 0 1-1.289 1.289H32.889a1.29 1.29 0 0 1-1.289-1.289V96.704a1.29 1.29 0 0 1 1.289-1.289h446.223a1.29 1.29 0 0 1 1.289 1.289v228.415z" style="stroke-width:5.14666" transform="translate(.259 -15.14)scale(.1943)"/>
    </g>
</svg>
