<svg xmlns="http://www.w3.org/2000/svg" xml:space="preserve" width="100" height="70">
    <path d="M6.648 2C5.74 2 5 2.741 5 3.65v44.381c0 .91.74 1.649 1.648 1.649h22.584v3.447a1.174 1.174 0 0 0 1.174 1.174h9.623l-.058 11.5h-9.2v1.4h36.374v-1.4h-9.256l.056-11.5h9.565a1.174 1.174 0 0 0 1.174-1.174V49.68H93.35c.909 0 1.65-.74 1.65-1.649V3.651C95 2.74 94.259 2 93.35 2Zm0 1.398H93.35a.25.25 0 0 1 .252.252v44.381a.25.25 0 0 1-.252.25H6.648a.25.25 0 0 1-.25-.25V3.651a.25.25 0 0 1 .25-.253m1.85 2.1v40.684h83.004V5.498Zm1.398 1.398h80.208v37.887H9.896ZM30.633 49.68h36.652v3.222H30.633Zm10.795 4.62h15.119l-.057 11.5H41.37Z" style="stroke-width:.999996"/>
</svg>
