<svg xmlns="http://www.w3.org/2000/svg" xml:space="preserve" width="50.04" height="50" version="1.2" viewBox="-63 65 50.04 50">
    <g style="stroke-width:2.498">
        <path d="M-30.2 76.9h62.5v5.2h-62.5zm0 10.4h62.5v5.2h-62.5zm0 10.5h62.5v5.2h-62.5z" style="stroke-width:2.498" transform="translate(-38.38 38.379)scale(.40032)"/>
        <path d="M58.3 103c2.9 0 5.2-2.3 5.2-5.2v-5.2c0-2.9-2.3-5.2-5.2-5.2h-5.2c0-5.8-4.7-10.4-10.4-10.4V66.5h-83.4v10.4c-5.7 0-10.4 4.7-10.4 10.4h-5.2c-2.9 0-5.2 2.3-5.2 5.2v5.2c0 2.9 2.3 5.2 5.2 5.2h5.2v5.2c-5.8 0-10.4 4.7-10.4 10.4V181c0 5.8 4.7 10.4 10.4 10.4H53.1c5.8 0 10.4-4.7 10.4-10.4v-62.4c0-5.8-4.7-10.4-10.4-10.4V103Zm-93.8-31.3h72.9v36.5H19.1c-3.6 6.2-10.3 10.5-18.1 10.5s-14.4-4.3-18-10.5h-18.5zm71.7 58.6c0 2.2-1.7 3.9-3.9 3.9s-3.9-1.7-3.9-3.9 1.7-3.9 3.9-3.9 3.9 1.7 3.9 3.9m-66.4 3.9c-2.2 0-3.9-1.7-3.9-3.9s1.7-3.9 3.9-3.9 3.9 1.7 3.9 3.9-1.7 3.9-3.9 3.9m3.9 27.3c0 2.2-1.7 3.9-3.9 3.9s-3.9-1.7-3.9-3.9c0-2.1 1.7-3.9 3.9-3.9s3.9 1.7 3.9 3.9m3.9-19.5c2.2 0 3.9 1.7 3.9 3.9s-1.7 3.9-3.9 3.9-3.9-1.7-3.9-3.9 1.7-3.9 3.9-3.9m7.8 15.6c2.2 0 3.9 1.7 3.9 3.9s-1.7 3.9-3.9 3.9-3.9-1.7-3.9-3.9c0-2.1 1.7-3.9 3.9-3.9m0-23.4c-2.2 0-3.9-1.7-3.9-3.9s1.7-3.9 3.9-3.9 3.9 1.7 3.9 3.9-1.7 3.9-3.9 3.9m7.8 7.8c2.2 0 3.9 1.7 3.9 3.9s-1.7 3.9-3.9 3.9-3.9-1.7-3.9-3.9S-9 142-6.8 142M1 157.6c2.2 0 3.9 1.7 3.9 3.9s-1.7 3.9-3.9 3.9-3.9-1.7-3.9-3.9c0-2.1 1.8-3.9 3.9-3.9m0-23.4c-2.1 0-3.9-1.7-3.9-3.9s1.7-3.9 3.9-3.9 3.9 1.7 3.9 3.9-1.7 3.9-3.9 3.9m7.8 7.8c2.2 0 3.9 1.7 3.9 3.9s-1.7 3.9-3.9 3.9-3.9-1.7-3.9-3.9 1.7-3.9 3.9-3.9m7.8 15.6c2.2 0 3.9 1.7 3.9 3.9s-1.7 3.9-3.9 3.9-3.9-1.7-3.9-3.9c0-2.1 1.8-3.9 3.9-3.9m0-23.4c-2.2 0-3.9-1.7-3.9-3.9s1.7-3.9 3.9-3.9 3.9 1.7 3.9 3.9-1.7 3.9-3.9 3.9m7.8 7.8c2.2 0 3.9 1.7 3.9 3.9s-1.7 3.9-3.9 3.9-3.9-1.7-3.9-3.9 1.7-3.9 3.9-3.9m-70.3-7.8c-2.2 0-3.9-1.7-3.9-3.9s1.7-3.9 3.9-3.9 3.9 1.7 3.9 3.9-1.7 3.9-3.9 3.9m7.8 15.6c-2.2 0-3.9-1.7-3.9-3.9s1.7-3.9 3.9-3.9 3.9 1.7 3.9 3.9-1.7 3.9-3.9 3.9m70.4 31.3h-62.5c-2.2 0-3.9-1.7-3.9-3.9s1.7-3.9 3.9-3.9h62.5c2.2 0 3.9 1.7 3.9 3.9 0 2.1-1.8 3.9-3.9 3.9m0-15.6c-2.2 0-3.9-1.7-3.9-3.9s1.7-3.9 3.9-3.9 3.9 1.7 3.9 3.9c0 2.1-1.8 3.9-3.9 3.9m7.8-15.7c-2.2 0-3.9-1.7-3.9-3.9s1.7-3.9 3.9-3.9 3.9 1.7 3.9 3.9-1.8 3.9-3.9 3.9m7.8-15.6c-2.2 0-3.9-1.7-3.9-3.9s1.7-3.9 3.9-3.9 3.9 1.7 3.9 3.9-1.8 3.9-3.9 3.9" style="stroke-width:2.498" transform="translate(-38.38 38.379)scale(.40032)"/>
    </g>
</svg>
