<svg xmlns="http://www.w3.org/2000/svg" xml:space="preserve" width="100" height="100">
    <path d="M35.948 58.61a.592.592 0 0 0 1.002-.444l-.147-6.225a.593.593 0 0 0-1.186.028l.147 6.225c.004.164.074.31.184.415m4.51-.848a.593.593 0 0 0-1.127.271l.008.34c.008.328.28.587.607.579l.362-.009a.617.617 0 1 1 .028 1.235l-6.58.156a1.807 1.807 0 0 0-1.762 1.847c.012.481.21.93.558 1.262.305.29.694.462 1.108.493a.593.593 0 0 0 1.128-.272l-.008-.34a.593.593 0 0 0-.607-.578l-.362.008a.61.61 0 0 1-.63-.602.62.62 0 0 1 .603-.632l6.58-.156a1.807 1.807 0 0 0 1.761-1.847 1.806 1.806 0 0 0-1.666-1.755m.073-7.82a.617.617 0 0 1-.41 1.064l-.363.008a.593.593 0 0 0-.579.607l.008.34a.593.593 0 0 0 1.14.217 1.805 1.805 0 0 0 1.022-3.095 1.8 1.8 0 0 0-1.288-.498l-6.58.156a.617.617 0 1 1-.03-1.235l.36-.008a.593.593 0 0 0 .58-.607l-.009-.34a.593.593 0 0 0-1.139-.217 1.805 1.805 0 0 0-1.581 1.832 1.8 1.8 0 0 0 .559 1.262 1.8 1.8 0 0 0 1.288.499l6.58-.156a.62.62 0 0 1 .442.17m55.272 4.39-.032-1.348a1.23 1.23 0 0 0-1.02-1.185l-1.38-.241-.01-.4a.593.593 0 1 0-1.186.028l.004.164-1.057-.185a1.23 1.23 0 0 0-1.34.714l-.665-.006-.017-.717c.244-.063.47-.16.663-.29.415-.28.648-.687.638-1.118a1.25 1.25 0 0 0-.404-.869c-.37-.352-.936-.545-1.556-.53-1.08.025-1.91.68-1.89 1.49.007.32.15.628.403.87.246.234.581.396.96.475l.017.677-3.247-.033-.014-.567c.244-.063.47-.16.663-.29.415-.28.647-.687.637-1.118a1.25 1.25 0 0 0-.403-.869c-.37-.352-.936-.545-1.556-.53-1.08.025-1.91.68-1.891 1.49.007.32.15.628.403.869.247.235.582.397.962.476l.012.528-18.522-.185c-.52-2.559-1.667-4.893-3.264-6.624-1.818-1.97-4.113-3.023-6.465-2.967q-.456.01-.886.039l-.343-14.485-.07-2.92a3.2 3.2 0 0 0-1.001-2.264 3.2 3.2 0 0 0-1.715-.851l-.01-.437a.593.593 0 0 0-1.186.028l.513 21.668-.177.064a4.8 4.8 0 0 1-3.019-.174 1.22 1.22 0 0 0-1.337.296 1.15 1.15 0 0 0-.221 1.285l.07.174a.83.83 0 0 1 .08.499c-.08.465-.683.9-1.61 1.162-1.107.312-2.527.357-3.999.127-2.076-.324-3.932-1.184-4.618-2.143q-.297-.416-.238-.763c.003-.019.043-.204.37-1.04a1.05 1.05 0 0 0-.258-1.154l-.003-.003a1.11 1.11 0 0 0-1.217-.212 4.8 4.8 0 0 1-1.81.401 4.64 4.64 0 0 1-2.024-.408c-2.407-1.1-4.74-1.658-6.751-1.61-3.33.079-6.279 1.904-8.302 5.14-1.873 2.994-2.849 6.96-2.749 11.166s1.262 8.12 3.274 11.021a13 13 0 0 0 1.681 1.98c1.946 1.855 4.314 2.821 6.855 2.761 2.009-.047 4.314-.713 6.667-1.925a4.7 4.7 0 0 1 3.827-.192q.211.082.433.076c.37-.008.71-.2.908-.513.193-.304.22-.669.073-1.001-.359-.803-.411-.989-.418-1.018q-.076-.344.2-.773c.64-.989 2.453-1.938 4.513-2.361 1.46-.3 2.88-.322 4-.063.938.218 1.56.624 1.664 1.086a.84.84 0 0 1-.058.505l-.06.17c-.178.45-.07.939.281 1.276l.003.003c.36.343.888.434 1.347.23a4.78 4.78 0 0 1 3.007-.315l.18.055.651 27.517a.59.59 0 0 0 .607.579.593.593 0 0 0 .579-.607l-.095-3.996 2.642-.062-.542-22.875q.43.007.887-.003c2.35-.056 4.593-1.217 6.315-3.27 1.513-1.804 2.548-4.19 2.947-6.77l16.281-.935.02.803a2.2 2.2 0 0 0-.663.29c-.415.28-.648.687-.637 1.118.007.319.15.627.403.868.37.352.936.546 1.556.531 1.08-.026 1.91-.68 1.89-1.49a1.25 1.25 0 0 0-.403-.87 1.96 1.96 0 0 0-.961-.475l-.02-.843 3.242-.186.023.95c-.776.203-1.315.755-1.3 1.41.007.319.15.627.404.868.369.352.936.546 1.555.531.468-.011.913-.143 1.254-.373.415-.28.648-.687.637-1.118a1.25 1.25 0 0 0-.403-.868 1.97 1.97 0 0 0-.962-.477l-.023-.991 2.879-.165a1.23 1.23 0 0 0 1.37.65l1.047-.234.004.164a.59.59 0 0 0 .607.58.593.593 0 0 0 .578-.608l-.009-.4 1.367-.307c.572-.128.977-.646.964-1.232m-8.064-4.521c.04-.081.297-.266.73-.277.334-.008.597.097.71.204a.2.2 0 0 1 .033.039c-.04.08-.297.266-.73.276-.335.008-.598-.096-.71-.203a.2.2 0 0 1-.033-.04m-4.43.105c.039-.081.296-.266.73-.277.334-.008.596.097.709.204a.2.2 0 0 1 .033.039c-.04.08-.297.266-.73.276-.335.008-.597-.096-.71-.203a.2.2 0 0 1-.033-.04m-.544 8.438c-.04.081-.297.266-.73.277-.334.008-.597-.097-.71-.204a.2.2 0 0 1-.033-.039c.04-.08.297-.266.73-.276.335-.008.598.096.71.203q.026.025.033.04m4.43-.104c-.04.08-.296.265-.73.276-.334.008-.597-.097-.709-.204a.2.2 0 0 1-.033-.039c.04-.08.297-.266.73-.276.335-.008.597.096.71.203q.025.026.033.04m2.498-5.186.035 1.476-.547.031-.036-1.512zm-34.42-9.837c2.035-.049 3.96.846 5.565 2.586 1.4 1.517 2.421 3.557 2.921 5.808l-9.175-.092-.196-8.262q.428-.03.885-.04m-3.182 14.66 1.455-.084.192 8.128a12 12 0 0 1-1.462-.224zm-.028-1.186-.095-4.012 1.457.015.093 3.913zm-1.185.067-4.348.25-.104-4.384 4.355.043zm1.062-5.265-.185-7.82q.686-.184 1.45-.293l.192 8.127zm-.68-28.727c.322.089.619.256.867.493.396.378.622.888.635 1.435l.01.419a3.2 3.2 0 0 0-1.472-.643zm.069 2.921a2.05 2.05 0 0 1 1.502 1.925l.345 14.574q-.759.101-1.45.27zM13.916 54.982l6.792-.16.03 1.23-6.793.16q-.016-.306-.024-.614a25 25 0 0 1-.005-.616m8.01 1.149-.034-1.446 6.632-1.503.098 4.136zm25.517 9.673c-.02.01-.031-.026-.031-.026q.037-.094.06-.173c.149-.39.181-.78.098-1.158-.411-1.842-3.447-2.671-7.06-1.928-2.425.499-4.445 1.602-5.271 2.88-.358.553-.483 1.132-.362 1.673.028.125.098.347.394 1.022a5.9 5.9 0 0 0-4.602.315c-2.163 1.114-4.348 1.75-6.151 1.794-3.74.088-6.162-2.252-7.534-4.232-1.594-2.298-2.615-5.295-2.948-8.575l7.263-.172 8.543 1.516-.167-7.035-8.461 1.918-7.263.172c.177-3.293 1.056-6.335 2.538-8.706 1.278-2.042 3.585-4.495 7.325-4.583 1.805-.043 4.018.49 6.23 1.503a5.8 5.8 0 0 0 2.545.515 6 6 0 0 0 2.067-.421c-.302.788-.332.96-.345 1.038-.096.549.057 1.122.442 1.66.886 1.236 2.955 2.241 5.399 2.623 3.645.57 6.637-.4 6.961-2.26a2 2 0 0 0-.153-1.152 2 2 0 0 0-.08-.197c.008-.005.02-.01.04-.002a6 6 0 0 0 3.657.242l.176 7.436-5.542-.055.162 6.836 5.533-.317.177 7.437a6 6 0 0 0-3.64.412m6.84 23.097-1.457.035-.074-3.124 1.456-.035zm-.103-4.31-1.456.035-.419-17.703q.699.136 1.461.201zm7.067-21.442c-1.521 1.814-3.4 2.798-5.434 2.846q-.457.011-.887.002l-.195-8.262 9.159-.525c-.393 2.271-1.316 4.357-2.643 5.94m-6.544-6.6-.091-3.833 26.696.265.048 2.039zm27.791-3.556 1.03.01.045 1.89-1.028.059zm2.26 1.832-.043-1.81 1.031.01.041 1.741zm2.175-1.788 1.03.01.037 1.592-1.028.059zm4.057 2.175c-.032.007-.056-.026-.057-.044l-.066-2.788c0-.006 0-.022.016-.036a.04.04 0 0 1 .039-.01l3.628.634q.014.002.024.012a.05.05 0 0 1 .015.033l.032 1.347a.05.05 0 0 1-.037.047z"/>
</svg>
