<?xml version="1.0" encoding="UTF-8" standalone="no"?>
<!-- Uploaded to: SVG Repo, www.svgrepo.com, Generator: SVG Repo Mixer Tools -->

<svg
   fill="#000000"
   width="40"
   height="40"
   viewBox="0 0 40 40"
   id="web-cam"
   data-name="Flat Line"
   class="icon flat-line"
   version="1.1"
   sodipodi:docname="web_camera_1.svg"
   inkscape:version="1.3.2 (091e20e, 2023-11-25)"
   xmlns:inkscape="http://www.inkscape.org/namespaces/inkscape"
   xmlns:sodipodi="http://sodipodi.sourceforge.net/DTD/sodipodi-0.dtd"
   xmlns="http://www.w3.org/2000/svg"
   xmlns:svg="http://www.w3.org/2000/svg">
  <defs
     id="defs1" />
  <sodipodi:namedview
     id="namedview1"
     pagecolor="#ffffff"
     bordercolor="#000000"
     borderopacity="0.25"
     inkscape:showpageshadow="2"
     inkscape:pageopacity="0.0"
     inkscape:pagecheckerboard="0"
     inkscape:deskcolor="#d1d1d1"
     inkscape:current-layer="web-cam" />
  <g
     id="g1"
     inkscape:label="web-camera"
     transform="matrix(1.7492801,0,0,1.7494401,-0.98568193,-0.98760228)">
    <path
       id="secondary"
       d="m 12,3 a 7,7 0 1 0 7,7 7,7 0 0 0 -7,-7 z m 0,9 a 2,2 0 1 1 2,-2 2,2 0 0 1 -2,2 z"
       style="fill:#ffffff;stroke-width:2" />
    <polyline
       id="primary"
       points="9.2 16.59 8 19 8 21 16 21 16 19 14.83 16.66"
       style="fill:none;stroke:#000000;stroke-width:2;stroke-linecap:round;stroke-linejoin:round" />
    <path
       id="primary-2"
       data-name="primary"
       d="m 14,10 a 2,2 0 1 1 -2,-2 2,2 0 0 1 2,2 z m 5,0 a 7,7 0 1 0 -7,7 7,7 0 0 0 7,-7 z"
       style="fill:none;stroke:#000000;stroke-width:2;stroke-linecap:round;stroke-linejoin:round" />
  </g>
</svg>
