<svg xmlns="http://www.w3.org/2000/svg" width="28" height="40" class="icon flat-line" data-name="Flat Line">
    <path d="M14 .166C6.419.166.23 6.355.23 13.936c0 5.037 2.735 9.458 6.793 11.859l-1.582 3.178a1.75 1.75 0 0 0-.183.779v3.498A1.75 1.75 0 0 0 7.008 35h13.994a1.75 1.75 0 0 0 1.75-1.75v-3.498a1.75 1.75 0 0 0-.186-.781l-1.588-3.178c4.057-2.4 6.791-6.82 6.791-11.857C27.77 6.355 21.581.166 14 .166m0 4a9.74 9.74 0 0 1 9.77 9.77 9.74 9.74 0 0 1-9.77 9.77 9.74 9.74 0 0 1-9.77-9.77A9.74 9.74 0 0 1 14 4.166m0 4.803c-2.707 0-4.934 2.226-4.934 4.933 0 2.708 2.227 4.936 4.934 4.936s4.934-2.228 4.934-4.936S16.707 8.97 14 8.97m0 3a1.91 1.91 0 0 1 1.934 1.933A1.91 1.91 0 0 1 14 15.838a1.91 1.91 0 0 1-1.934-1.936A1.91 1.91 0 0 1 14 11.97M10.184 27.3l.539.006a13.7 13.7 0 0 0 3.277.4c1.01 0 1.994-.114 2.943-.322l.926.012 1.383 2.77V31.5H8.758v-1.336z" style="color:#000;fill:#000;stroke-linecap:round;stroke-linejoin:round;-inkscape-stroke:none"/>
</svg>
