<svg xmlns="http://www.w3.org/2000/svg" xml:space="preserve" width="40" height="35">
    <g transform="scale(.07813)">
        <circle cx="256" cy="143.665" r="133.467" style="display:inline;fill:#ababab"/>
        <circle cx="256" cy="143.665" r="88.978" style="display:inline;fill:#fff"/>
        <path d="M256 0c-29.993 0-57.864 9.245-80.926 25.025H60.527C27.152 25.025 0 52.178 0 85.553v116.226c0 33.375 27.152 60.528 60.527 60.528h114.545a143.4 143.4 0 0 0 31.033 16.084c-41.19 18.955-69.859 60.616-69.859 108.851 0 5.633 4.566 10.2 10.2 10.2h219.107c5.633 0 10.199-4.567 10.199-10.2 0-48.235-28.67-89.896-69.86-108.851a143.3 143.3 0 0 0 31.032-16.084H451.47c33.375 0 60.525-27.153 60.525-60.528V85.553c.003-33.375-27.148-60.528-60.523-60.528H336.926C313.864 9.245 285.993 0 256 0m0 20.398c67.97 0 123.268 55.298 123.268 123.268S323.97 266.934 256 266.934s-123.268-55.298-123.268-123.268S188.03 20.398 256 20.398m0 24.09c-54.686 0-99.178 44.49-99.178 99.176s44.492 99.178 99.178 99.178 99.178-44.492 99.178-99.178S310.686 44.488 256 44.488m-195.473.936h90.75c-24.135 25.712-38.945 60.277-38.945 98.242s14.808 72.53 38.945 98.242h-90.75c-22.127 0-40.129-18.002-40.129-40.129V85.553c0-22.127 18.002-40.13 40.13-40.13m300.196 0h90.75c22.127 0 40.129 18.002 40.129 40.129v116.226c0 22.127-18.002 40.13-40.13 40.13h-90.75c24.136-25.713 38.946-60.279 38.946-98.243s-14.808-72.53-38.945-98.242M256 64.889c43.438 0 78.78 35.339 78.78 78.779s-35.341 78.777-78.78 78.777-78.78-35.339-78.78-78.779S212.563 64.889 256 64.889M42.838 71.166c-5.633 0-10.2 4.566-10.2 10.2v74.517c0 5.633 4.567 10.199 10.2 10.199s10.197-4.566 10.197-10.2V81.366c0-5.633-4.564-10.199-10.197-10.199m0 105.037c-5.633 0-10.2 4.566-10.2 10.2v3.152c0 5.633 4.567 10.199 10.2 10.199s10.197-4.566 10.197-10.2v-3.152c0-5.633-4.564-10.199-10.197-10.199M256 287.887c51.34 0 93.71 39.148 98.836 89.156H157.164c5.124-50.01 47.496-89.156 98.836-89.156" style="display:inline;fill:#000"/>
    </g>
</svg>
