<svg xmlns="http://www.w3.org/2000/svg" width="40" height="40" class="icon flat-line" data-name="Flat Line">
    <path d="M12 3a7 7 0 1 0 7 7 7 7 0 0 0-7-7m0 9a2 2 0 1 1 2-2 2 2 0 0 1-2 2" style="fill:#fff;stroke-width:2" transform="matrix(1.74928 0 0 1.74944 -.986 -.988)"/>
    <path d="M9.2 16.59 8 19v2h8v-2l-1.17-2.34" style="fill:none;stroke:#000;stroke-width:2;stroke-linecap:round;stroke-linejoin:round" transform="matrix(1.74928 0 0 1.74944 -.986 -.988)"/>
    <path d="M14 10a2 2 0 1 1-2-2 2 2 0 0 1 2 2m5 0a7 7 0 1 0-7 7 7 7 0 0 0 7-7" data-name="primary" style="fill:none;stroke:#000;stroke-width:2;stroke-linecap:round;stroke-linejoin:round" transform="matrix(1.74928 0 0 1.74944 -.986 -.988)"/>
</svg>
