<?xml version="1.0" encoding="UTF-8" standalone="no"?>
<!-- Generator: Adobe Illustrator 19.0.0, SVG Export Plug-In . SVG Version: 6.00 Build 0)  -->

<svg
   version="1.1"
   id="Layer_1"
   x="0px"
   y="0px"
   viewBox="0 0 40.000001 35.000001"
   xml:space="preserve"
   sodipodi:docname="web_camera_2.svg"
   width="40"
   height="35"
   inkscape:version="1.3.2 (091e20e, 2023-11-25)"
   xmlns:inkscape="http://www.inkscape.org/namespaces/inkscape"
   xmlns:sodipodi="http://sodipodi.sourceforge.net/DTD/sodipodi-0.dtd"
   xmlns="http://www.w3.org/2000/svg"
   xmlns:svg="http://www.w3.org/2000/svg"><defs
     id="defs1" /><sodipodi:namedview
     id="namedview20"
     pagecolor="#ffffff"
     bordercolor="#000000"
     borderopacity="0.25"
     inkscape:showpageshadow="2"
     inkscape:pageopacity="0.0"
     inkscape:pagecheckerboard="0"
     inkscape:deskcolor="#d1d1d1"
     inkscape:current-layer="Layer_1" /><g
     id="g20"
     transform="scale(0.0781256)"><circle
       style="display:inline;fill:#ababab"
       cx="256"
       cy="143.66499"
       r="133.467"
       id="circle1" /><circle
       style="display:inline;fill:#ffffff"
       cx="256"
       cy="143.66499"
       r="88.977997"
       id="circle2" /><path
       id="path3"
       d="M 256,0 C 226.00703,0 198.1362,9.2454064 175.07422,25.025391 H 60.527344 C 27.152377,25.025391 0,52.177768 0,85.552734 V 201.7793 c 0,33.37496 27.152377,60.52734 60.527344,60.52734 H 175.07227 c 9.57899,6.55399 19.98721,11.97999 31.0332,16.08398 -41.19096,18.95499 -69.85938,60.61662 -69.85938,108.85157 0,5.63299 4.56623,10.19922 10.19922,10.19922 h 219.10742 c 5.633,0 10.19922,-4.56623 10.19922,-10.19922 0,-48.23495 -28.66941,-89.89658 -69.85937,-108.85157 11.04699,-4.10399 21.45326,-9.52899 31.03125,-16.08398 H 451.4707 c 33.37497,0 60.52539,-27.15238 60.52539,-60.52734 V 85.552734 c 0.003,-33.374966 -27.14847,-60.527343 -60.52343,-60.527343 H 336.92578 C 313.8638,9.2444064 285.99297,0 256,0 Z m 0,20.398438 c 67.97093,0 123.26758,55.297646 123.26758,123.267582 0,67.96993 -55.29665,123.26757 -123.26758,123.26757 -67.97093,0 -123.26758,-55.29764 -123.26758,-123.26757 0,-67.970936 55.29665,-123.267582 123.26758,-123.267582 z m 0,24.089843 c -54.68595,0 -99.17773,44.489836 -99.17773,99.175779 0,54.68595 44.49178,99.17774 99.17773,99.17774 54.68595,0 99.17773,-44.49179 99.17773,-99.17774 0,-54.685943 -44.49178,-99.175779 -99.17773,-99.175779 z M 60.527344,45.423828 h 90.749996 c -24.13497,25.711974 -38.94531,60.277222 -38.94531,98.242192 0,37.96496 14.80834,72.53021 38.94531,98.24218 H 60.527344 c -22.126978,0 -40.128906,-18.00193 -40.128906,-40.1289 V 85.552734 c 0,-22.126977 18.001928,-40.128906 40.128906,-40.128906 z m 300.195316,0 h 90.75 c 22.12697,0 40.1289,18.001929 40.1289,40.128906 V 201.7793 c 0,22.12697 -18.00193,40.1289 -40.1289,40.1289 h -90.75 c 24.13497,-25.71197 38.94531,-60.27822 38.94531,-98.24218 0,-37.96397 -14.80834,-72.530218 -38.94531,-98.242192 z M 256,64.888672 c 43.43796,0 78.7793,35.339338 78.7793,78.779298 0,43.43996 -35.34034,78.77734 -78.7793,78.77734 -43.43896,0 -78.7793,-35.33934 -78.7793,-78.77929 0,-43.43996 35.34134,-78.777348 78.7793,-78.777348 z M 42.837891,71.166016 c -5.632995,0 -10.199219,4.566224 -10.199219,10.199218 v 74.517576 c 0,5.633 4.566224,10.19922 10.199219,10.19922 5.632994,0 10.197265,-4.56622 10.197265,-10.19922 V 81.365234 c 0,-5.632994 -4.564271,-10.199218 -10.197265,-10.199218 z m 0,105.037104 c -5.632995,0 -10.199219,4.56623 -10.199219,10.19922 v 3.15235 c 0,5.63299 4.566224,10.19922 10.199219,10.19922 5.632994,0 10.197265,-4.56623 10.197265,-10.19922 v -3.15235 c 0,-5.63299 -4.564271,-10.19922 -10.197265,-10.19922 z M 256,287.88672 c 51.33995,0 93.71094,39.1483 98.83594,89.15625 H 157.16406 c 5.124,-50.00995 47.49599,-89.15625 98.83594,-89.15625 z"
       style="display:inline;fill:#000000" /></g></svg>
