<svg xmlns="http://www.w3.org/2000/svg" width="35" height="25">
<!--! Font Awesome Free 6.4.0 by @fontawesome - https://fontawesome.com License - https://fontawesome.com/license/free (Icons: CC BY 4.0, Fonts: SIL OFL 1.1, Code: MIT License) Copyright 2023 Fonticons, Inc.-->
    <path d="M2.964 9.348A20.93 20.93 0 0 1 17.503 3.5 20.93 20.93 0 0 1 32.04 9.348c.7.667 1.805.645 2.473-.05a1.75 1.75 0 0 0-.05-2.472A24.4 24.4 0 0 0 17.503 0 24.44 24.44 0 0 0 .536 6.82a1.76 1.76 0 0 0-.05 2.48c.668.7 1.778.722 2.473.049Zm14.539 2.904a12.2 12.2 0 0 1 8.106 3.063c.727.64 1.832.569 2.472-.153a1.755 1.755 0 0 0-.153-2.472 15.72 15.72 0 0 0-10.425-3.938 15.7 15.7 0 0 0-10.42 3.938 1.75 1.75 0 0 0-.153 2.472 1.75 1.75 0 0 0 2.472.153 12.2 12.2 0 0 1 8.106-3.063zm3.5 8.752a3.5 3.5 0 1 0-7 0 3.5 3.5 0 1 0 7 0" style="stroke-width:1"/>
</svg>
