<svg xmlns="http://www.w3.org/2000/svg" xml:space="preserve" width="100" height="70">
    <path d="M94.435 17a.926.926 0 0 0-.935-.935h-9a.926.926 0 0 0-.936.935v39c0 .522.414.935.936.935h9a.93.93 0 0 0 .935-.935zm-1.87 1.5v36a.565.565 0 0 1-.565.564h-6a.565.565 0 0 1-.564-.564v-36a.565.565 0 0 1 .564-.564h6a.565.565 0 0 1 .564.564m-2.63 3.029a.92.92 0 0 0-.935-.927.935.935 0 0 0-.935.943c0 .522.413.936.935.936a.93.93 0 0 0 .936-.936zm0 30a.92.92 0 0 0-.935-.927.935.935 0 0 0-.935.943c0 .522.413.935.935.935a.93.93 0 0 0 .936-.935zM80.93 52.66a.9.9 0 0 0-.034-.37v-.002c-.12-.408-.482-.647-.896-.647a.565.565 0 0 1-.564-.564v-29.23a.565.565 0 0 1 .563-.565c.434 0 .802-.255.908-.68a.933.933 0 0 0-.68-1.134l-.365-.092a.565.565 0 0 1-.427-.547V15.5a.926.926 0 0 0-.935-.935h-9a.926.926 0 0 0-.935.935v42c0 .522.412.935.935.935h9a.93.93 0 0 0 .936-.935v-3.38a.565.565 0 0 1 .402-.54l.428-.128a.93.93 0 0 0 .664-.792M77.565 17v39a.565.565 0 0 1-.565.564h-6a.565.565 0 0 1-.564-.564V17a.565.565 0 0 1 .564-.565h6a.565.565 0 0 1 .565.565m-2.63 3.03a.92.92 0 0 0-.935-.928.935.935 0 0 0-.935.943c0 .522.413.936.935.936a.93.93 0 0 0 .936-.936zm0 32.998a.92.92 0 0 0-.935-.926.935.935 0 0 0-.935.943c0 .522.413.935.935.935a.93.93 0 0 0 .936-.935zm-9.004 1.132a.9.9 0 0 0-.034-.368l-.001-.004c-.12-.408-.482-.647-.896-.647a.565.565 0 0 1-.565-.564v-32.23a.565.565 0 0 1 .564-.565c.434 0 .802-.256.908-.68a.93.93 0 0 0-.68-1.134l-.365-.092a.565.565 0 0 1-.427-.548V14a.926.926 0 0 0-.935-.935h-9a.926.926 0 0 0-.935.935v45c0 .523.413.936.935.936h9a.93.93 0 0 0 .935-.936v-3.38a.565.565 0 0 1 .404-.54l.427-.128a.93.93 0 0 0 .665-.792M62.564 15.5v42a.565.565 0 0 1-.564.565h-6a.565.565 0 0 1-.564-.565v-42a.565.565 0 0 1 .564-.564h6a.565.565 0 0 1 .564.564m-2.628 3.03a.92.92 0 0 0-.936-.928.935.935 0 0 0-.936.943c0 .523.414.936.936.936a.93.93 0 0 0 .936-.936zm0 35.998a.92.92 0 0 0-.936-.926.935.935 0 0 0-.936.943c0 .523.413.935.936.935a.93.93 0 0 0 .936-.935zM50.93 55.66a.9.9 0 0 0-.034-.37v-.002c-.12-.408-.482-.647-.896-.647a.565.565 0 0 1-.565-.564v-35.23a.565.565 0 0 1 .563-.565c.435-.001.803-.256.909-.68a.93.93 0 0 0-.68-1.134l-.365-.092a.565.565 0 0 1-.426-.548V12.5a.926.926 0 0 0-.936-.935h-9a.926.926 0 0 0-.936.935v48c0 .523.413.935.936.935h9a.93.93 0 0 0 .935-.935v-3.38a.565.565 0 0 1 .403-.54l.428-.128a.93.93 0 0 0 .664-.792M47.564 14v45a.565.565 0 0 1-.564.565h-6a.565.565 0 0 1-.564-.565V14a.565.565 0 0 1 .564-.564h6a.565.565 0 0 1 .564.564m-2.628 3.03a.92.92 0 0 0-.936-.928.935.935 0 0 0-.935.943c0 .523.413.935.935.935a.93.93 0 0 0 .936-.935zm0 38.998a.92.92 0 0 0-.936-.926.935.935 0 0 0-.935.943c0 .522.413.935.935.935a.93.93 0 0 0 .936-.935zM35.93 57.16a.9.9 0 0 0-.034-.37v-.002c-.12-.408-.482-.647-.896-.647a.565.565 0 0 1-.564-.564v-38.23a.565.565 0 0 1 .563-.565c.434 0 .802-.256.908-.68V16.1a.93.93 0 0 0-.68-1.132l-.365-.092a.565.565 0 0 1-.427-.547v-3.33a.926.926 0 0 0-.935-.935h-9a.926.926 0 0 0-.935.936v51c0 .522.412.935.935.935h9a.93.93 0 0 0 .936-.935v-3.38a.565.565 0 0 1 .403-.54l.427-.128h.002a.93.93 0 0 0 .662-.792M32.565 12.5v48a.565.565 0 0 1-.565.565h-6a.565.565 0 0 1-.564-.565v-48a.565.565 0 0 1 .564-.565h6a.565.565 0 0 1 .565.565m-2.63 3.03a.92.92 0 0 0-.935-.928.935.935 0 0 0-.935.943c0 .523.413.936.935.936a.93.93 0 0 0 .936-.936zm0 41.998a.92.92 0 0 0-.935-.926.935.935 0 0 0-.935.943c0 .522.413.935.935.935a.93.93 0 0 0 .936-.935zM20.93 58.66a.9.9 0 0 0-.034-.37v-.002c-.12-.408-.482-.647-.896-.647a.565.565 0 0 1-.564-.564v-41.23a.565.565 0 0 1 .563-.565c.434 0 .802-.256.908-.68V14.6a.927.927 0 0 0-.68-1.133l-.365-.092a.565.565 0 0 1-.426-.548V9.5a.926.926 0 0 0-.936-.935h-9a.926.926 0 0 0-.935.935v1.84a.565.565 0 0 1-.707.547l-1.123-.293a.93.93 0 0 0-1.17.906c0 .415.272.793.699.906l1.878.489a.565.565 0 0 1 .423.546v44.137a.565.565 0 0 1-.428.548l-1.864.466h-.001a.93.93 0 0 0-.68 1.13v.004a.925.925 0 0 0 1.134.68h.002l1.136-.284a.565.565 0 0 1 .7.548v1.83c0 .523.413.936.936.936h9a.93.93 0 0 0 .936-.936v-3.38a.565.565 0 0 1 .403-.54l.427-.128a.93.93 0 0 0 .664-.792M17.564 11v51a.565.565 0 0 1-.564.565h-6a.565.565 0 0 1-.564-.565V11a.565.565 0 0 1 .564-.565h6a.565.565 0 0 1 .564.565m-2.628 3.03a.92.92 0 0 0-.936-.928.935.935 0 0 0-.936.943c0 .523.414.936.936.936a.93.93 0 0 0 .936-.936zm0 44.999a.92.92 0 0 0-.936-.927.935.935 0 0 0-.936.943c0 .523.414.936.936.936a.93.93 0 0 0 .936-.936z"/>
</svg>
