<?xml version="1.0" encoding="UTF-8" standalone="no"?>
<!-- Uploaded to: SVG Repo, www.svgrepo.com, Generator: SVG Repo Mixer Tools -->

<svg
   fill="#000000"
   height="70"
   width="100"
   version="1.1"
   id="Layer_1"
   viewBox="0 0 100 70"
   xml:space="preserve"
   sodipodi:docname="xylophone_1.svg"
   inkscape:version="1.3.2 (091e20e, 2023-11-25)"
   xmlns:inkscape="http://www.inkscape.org/namespaces/inkscape"
   xmlns:sodipodi="http://sodipodi.sourceforge.net/DTD/sodipodi-0.dtd"
   xmlns="http://www.w3.org/2000/svg"
   xmlns:svg="http://www.w3.org/2000/svg"><defs
   id="defs22">
			
			
			
			
			
			
			
			
			
			
			
			
			
			
			
			
			
			
			
			
		
		
	</defs><sodipodi:namedview
   id="namedview22"
   pagecolor="#ffffff"
   bordercolor="#000000"
   borderopacity="0.25"
   inkscape:showpageshadow="2"
   inkscape:pageopacity="0.0"
   inkscape:pagecheckerboard="0"
   inkscape:deskcolor="#d1d1d1"
   inkscape:current-layer="g22" />
<g
   id="g22"
   transform="matrix(0,0.17578125,-0.17578125,0,89.999676,5e-4)">
	<path
   id="path20"
   d="m 96.707031,-25.234375 c -2.984434,0 -5.320312,2.345167 -5.320312,5.322266 v 51.199218 c 0,2.977099 2.335878,5.322266 5.320312,5.322266 H 318.57422 c 2.97212,0 5.32226,-2.350144 5.32226,-5.322266 v -51.199218 c 0,-2.972122 -2.35014,-5.322266 -5.32226,-5.322266 z m 8.535159,10.644531 h 204.79883 a 3.2117913,3.2117913 0 0 1 3.21093,3.210938 v 34.132812 a 3.2117913,3.2117913 0 0 1 -3.21093,3.210938 H 105.24219 a 3.2117913,3.2117913 0 0 1 -3.21094,-3.210938 v -34.132812 a 3.2117913,3.2117913 0 0 1 3.21094,-3.210938 z M 122.4707,0.36328125 c -2.96116,0 -5.27148,2.33069825 -5.27148,5.32226565 0,2.9566799 2.3808,5.3222661 5.36523,5.3222661 2.97212,0 5.32227,-2.3501493 5.32227,-5.3222661 6.3e-4,-2.9717479 -2.34878,-5.32226571 -5.32227,-5.32226565 z m 170.66602,0 c -2.97212,0 -5.27149,2.32706185 -5.27149,5.32226565 0,2.9566799 2.3808,5.3222661 5.36524,5.3222661 2.97212,0 5.32226,-2.3501448 5.32226,-5.3222661 0,-2.9721213 -2.35014,-5.32226571 -5.32226,-5.32226565 z m 6.4375,51.23242175 c -0.68343,-0.07613 -1.38508,-0.02122 -2.10156,0.193359 a 3.2117913,3.2117913 0 0 1 -0.0156,0.0039 c -2.31872,0.682124 -3.67773,2.737374 -3.67773,5.09375 a 3.2117913,3.2117913 0 0 1 -3.21094,3.210937 H 124.2793 a 3.2117913,3.2117913 0 0 1 -3.21094,-3.205078 c -0.005,-2.470327 -1.4534,-4.564887 -3.86914,-5.166016 a 3.2117913,3.2117913 0 0 1 -0.004,-0.002 c -2.844,-0.711 -5.72905,1.000045 -6.44726,3.869141 a 3.2117913,3.2117913 0 0 1 0,0.0039 l -0.52149,2.074219 a 3.2117913,3.2117913 0 0 1 -3.11523,2.427734 H 88.175781 c -2.984434,0 -5.322265,2.346055 -5.322265,5.322266 v 51.199215 c 0,2.97485 2.337399,5.32032 5.322265,5.32032 H 327.10742 c 2.97301,0 5.32227,-2.3482 5.32227,-5.32032 V 65.419922 c 0,-2.972121 -2.35015,-5.322266 -5.32227,-5.322266 h -19.22461 a 3.2117913,3.2117913 0 0 1 -3.07617,-2.291015 L 304.08008,55.375 a 3.2117913,3.2117913 0 0 1 -0.002,-0.0039 c -0.63496,-2.135178 -2.45509,-3.547171 -4.5039,-3.775391 z M 96.707031,70.742187 h 204.775389 0.0254 0.0254 17.04102 a 3.2117913,3.2117913 0 0 1 3.21094,3.210938 v 34.132815 a 3.2117913,3.2117913 0 0 1 -3.21094,3.21094 H 96.707031 a 3.2117913,3.2117913 0 0 1 -3.210937,-3.21094 V 73.953125 a 3.2117913,3.2117913 0 0 1 3.210937,-3.210938 z m 17.238279,14.955079 c -2.98443,0 -5.27929,2.326521 -5.27929,5.322265 0,2.95668 2.3808,5.322266 5.36523,5.322266 2.97212,0 5.32227,-2.350145 5.32227,-5.322266 0,-2.972121 -2.35015,-5.322265 -5.32227,-5.322265 z m 187.72461,0 c -2.97212,0 -5.27148,2.327061 -5.27148,5.322265 0,2.95668 2.3808,5.322266 5.36523,5.322266 2.97212,0 5.32227,-2.350149 5.32227,-5.322266 0,-2.972571 -2.34878,-5.322265 -5.32227,-5.322265 z m 6.4375,51.226564 c -0.6829,-0.0755 -1.38425,-0.0194 -2.0957,0.19531 a 3.2117913,3.2117913 0 0 1 -0.0215,0.006 c -2.31772,0.68183 -3.67773,2.73933 -3.67773,5.0957 a 3.2117913,3.2117913 0 0 1 -3.21094,3.21094 H 115.74609 a 3.2117913,3.2117913 0 0 1 -3.21093,-3.20508 c -0.005,-2.46923 -1.45511,-4.56482 -3.8711,-5.16601 -2.87074,-0.71501 -5.73118,0.98906 -6.45117,3.86523 a 3.2117913,3.2117913 0 0 1 0,0.004 l -0.52148,2.07422 a 3.2117913,3.2117913 0 0 1 -3.115238,2.42773 H 79.642578 c -2.984431,0 -5.322266,2.34606 -5.322266,5.32227 v 51.20117 c -6.31e-4,2.97402 2.337399,5.32031 5.322266,5.32031 H 335.64258 c 2.97212,0 5.32226,-2.35013 5.32226,-5.32227 v -51.19921 c 0,-2.97212 -2.35015,-5.32227 -5.32226,-5.32227 h -19.22656 a 3.2117913,3.2117913 0 0 1 -3.07813,-2.29297 l -0.72461,-2.43164 a 3.2117913,3.2117913 0 0 1 0,-0.004 c -0.63522,-2.13983 -2.46204,-3.5534 -4.50586,-3.77929 z M 88.175781,156.07617 h 221.839839 0.0254 0.0273 17.04101 a 3.2117913,3.2117913 0 0 1 3.21094,3.21094 v 34.13281 a 3.2117913,3.2117913 0 0 1 -3.21094,3.21094 H 88.175781 a 3.2117913,3.2117913 0 0 1 -3.210937,-3.21094 v -34.13281 a 3.2117913,3.2117913 0 0 1 3.210937,-3.21094 z m 17.236329,14.95508 c -2.98443,0 -5.2793,2.32652 -5.2793,5.32227 0,2.95667 2.3808,5.32226 5.36524,5.32226 2.97212,0 5.32226,-2.35014 5.32226,-5.32226 0,-2.97213 -2.35015,-5.32227 -5.32226,-5.32227 z m 204.79101,0 c -2.9721,0 -5.26953,2.32618 -5.26953,5.32227 0,2.95668 2.3808,5.32226 5.36524,5.32226 2.97212,0 5.32031,-2.34926 5.32031,-5.32226 0,-2.97301 -2.3482,-5.32227 -5.32031,-5.32227 z m 6.4375,51.23437 c -0.68457,-0.0765 -1.39084,-0.0218 -2.10742,0.19141 a 3.2117913,3.2117913 0 0 1 -0.01,0.002 c -2.31773,0.68184 -3.67774,2.73933 -3.67774,5.09571 a 3.2117913,3.2117913 0 0 1 -3.21093,3.21093 H 107.21289 a 3.2117913,3.2117913 0 0 1 -3.21094,-3.20312 c -0.006,-2.47031 -1.45524,-4.56681 -3.87109,-5.16797 a 3.2117913,3.2117913 0 0 1 -0.002,-0.002 c -2.85704,-0.713 -5.730201,0.99487 -6.449223,3.86719 a 3.2117913,3.2117913 0 0 1 0,0.004 l -0.521484,2.07227 a 3.2117913,3.2117913 0 0 1 -3.115234,2.42773 H 71.109375 c -2.984431,0 -5.322266,2.34606 -5.322266,5.32227 v 51.20117 c -6.32e-4,2.97764 2.335424,5.32227 5.320313,5.32226 H 344.17578 c 2.97212,0 5.32031,-2.34925 5.32031,-5.32226 v -51.19922 c 0,-2.97301 -2.34819,-5.32227 -5.32031,-5.32227 h -19.22656 a 3.2117913,3.2117913 0 0 1 -3.07813,-2.29296 l -0.72461,-2.43164 a 3.2117913,3.2117913 0 0 1 0,-0.002 c -0.6348,-2.13464 -2.45414,-3.54411 -4.50586,-3.77344 z M 79.642578,241.41016 h 238.908202 0.0254 0.0254 17.04102 a 3.2117913,3.2117913 0 0 1 3.21094,3.21093 v 34.13282 a 3.2117913,3.2117913 0 0 1 -3.21094,3.21093 H 79.642578 a 3.2117913,3.2117913 0 0 1 -3.210937,-3.21093 v -34.13282 a 3.2117913,3.2117913 0 0 1 3.210937,-3.21093 z m 17.236328,14.95312 c -2.972116,0 -5.279297,2.33062 -5.279297,5.32227 0,2.95668 2.380799,5.32226 5.365235,5.32226 2.972115,0 5.320316,-2.34926 5.320316,-5.32226 6.3e-4,-2.97264 -2.346836,-5.32227 -5.320316,-5.32227 z m 221.857424,0 c -2.97212,0 -5.26953,2.32618 -5.26953,5.32227 0,2.95756 2.37884,5.32226 5.36328,5.32226 2.97212,0 5.32226,-2.35014 5.32226,-5.32226 0,-2.97212 -2.35015,-5.32227 -5.32226,-5.32227 z m 6.43554,51.23242 c -0.68398,-0.0762 -1.38459,-0.0206 -2.09765,0.19336 a 3.2117913,3.2117913 0 0 1 -0.0176,0.004 c -2.31872,0.68212 -3.67773,2.73737 -3.67773,5.09375 a 3.2117913,3.2117913 0 0 1 -3.21094,3.21094 H 98.679687 a 3.2117913,3.2117913 0 0 1 -3.210937,-3.20313 c -0.0058,-2.47031 -1.455245,-4.56682 -3.871094,-5.16797 a 3.2117913,3.2117913 0 0 1 -0.0078,-0.002 c -2.839149,-0.71479 -5.724928,0.99919 -6.44336,3.86914 l -0.519531,2.07617 a 3.2117913,3.2117913 0 0 1 -3.115234,2.42969 h -18.9375 c -2.984436,0 -5.322266,2.34604 -5.322266,5.32226 v 51.19922 c 0,2.97485 2.337399,5.32032 5.322266,5.32032 H 352.70703 c 2.97301,0 5.32227,-2.3482 5.32227,-5.32032 v -51.20117 c 0,-2.97212 -2.35015,-5.32226 -5.32227,-5.32226 h -19.22461 a 3.2117913,3.2117913 0 0 1 -3.07812,-2.29297 l -0.72461,-2.43164 a 3.2117913,3.2117913 0 0 1 -0.002,-0.008 c -0.62774,-2.12517 -2.45508,-3.54116 -4.50586,-3.76953 z M 71.107422,326.74219 h 255.974608 0.0254 0.0274 17.04101 a 3.2117913,3.2117913 0 0 1 3.21094,3.21093 v 34.13282 a 3.2117913,3.2117913 0 0 1 -3.21094,3.21093 H 71.107422 a 3.2117913,3.2117913 0 0 1 -3.210938,-3.21093 v -34.13282 a 3.2117913,3.2117913 0 0 1 3.210938,-3.21093 z m 17.238281,14.95508 c -2.972121,0 -5.279297,2.33061 -5.279297,5.32226 0,2.95668 2.380799,5.32227 5.365235,5.32227 2.972121,0 5.322265,-2.35015 5.322265,-5.32227 0,-2.97212 -2.350144,-5.32226 -5.322265,-5.32226 z m 238.923827,0 c -2.97212,0 -5.27148,2.32706 -5.27148,5.32226 0,2.95668 2.3808,5.32227 5.36523,5.32227 2.97212,0 5.32227,-2.35015 5.32227,-5.32227 0,-2.97257 -2.34878,-5.32226 -5.32227,-5.32226 z m 6.43945,51.23242 c -0.68322,-0.076 -1.3906,-0.0205 -2.10937,0.19336 a 3.2117913,3.2117913 0 0 1 -0.01,0.002 c -2.31772,0.68183 -3.67773,2.73933 -3.67773,5.0957 a 3.2117913,3.2117913 0 0 1 -3.21094,3.21094 H 90.146484 a 3.2117913,3.2117913 0 0 1 -3.210937,-3.20312 c -0.0058,-2.47031 -1.455234,-4.56681 -3.871094,-5.16797 a 3.2117913,3.2117913 0 0 1 -0.0039,-0.002 c -2.878075,-0.72062 -5.726208,0.98675 -6.447266,3.86719 a 3.2117913,3.2117913 0 0 1 0,0.004 l -0.521484,2.07422 a 3.2117913,3.2117913 0 0 1 -3.115235,2.42773 H 54.041016 c -2.984431,0 -5.320313,2.34517 -5.320313,5.32227 v 51.20117 c 0,2.9771 2.334992,5.32031 5.320313,5.32031 h 10.470703 a 3.2117913,3.2117913 0 0 1 3.107422,4.02148 l -1.664063,6.38477 c -0.74686,2.87394 0.927231,5.73156 3.800781,6.49023 0.450159,0.11674 0.901932,0.17188 1.351563,0.17188 2.361192,0 4.512373,-1.55137 5.152344,-3.98047 v -0.004 l 2.783203,-10.68164 a 3.2117913,3.2117913 0 0 1 3.107422,-2.40234 H 333.24219 a 3.2117913,3.2117913 0 0 1 3.11523,2.43164 l 2.6543,10.60742 a 3.2117913,3.2117913 0 0 1 0.002,0.004 c 0.60725,2.44032 2.7781,4.02539 5.15235,4.02539 0.44206,0 0.86952,-0.0508 1.26953,-0.1543 a 3.2117913,3.2117913 0 0 1 0.0254,-0.006 c 2.89013,-0.72221 4.59669,-3.56245 3.86914,-6.45117 a 3.2117913,3.2117913 0 0 1 -0.002,-0.008 l -1.61328,-6.46094 a 3.2117913,3.2117913 0 0 1 3.11524,-3.98828 h 10.41211 c 2.97301,0 5.32226,-2.34819 5.32226,-5.32031 v -51.20117 c 0,-2.97349 -2.34969,-5.32227 -5.32226,-5.32227 h -19.22657 a 3.2117913,3.2117913 0 0 1 -3.07812,-2.29297 l -0.72461,-2.43164 a 3.2117913,3.2117913 0 0 1 0,-0.004 c -0.63565,-2.14127 -2.45208,-3.54525 -4.50391,-3.77343 z M 62.574219,412.07617 h 273.041011 0.0274 0.0254 17.04101 a 3.2117913,3.2117913 0 0 1 3.21094,3.21094 v 34.13281 a 3.2117913,3.2117913 0 0 1 -3.21094,3.21094 h -0.002 -290.132811 a 3.2117913,3.2117913 0 0 1 -3.210938,-3.21094 v -34.13281 a 3.2117913,3.2117913 0 0 1 3.210938,-3.21094 z M 79.8125,427.03125 c -2.972117,0 -5.279297,2.33061 -5.279297,5.32227 0,2.95667 2.380799,5.32226 5.365234,5.32226 2.97212,0 5.322266,-2.35014 5.322266,-5.32226 0,-2.97212 -2.35015,-5.32227 -5.322266,-5.32227 z m 255.99219,0 c -2.97349,0 -5.27149,2.32661 -5.27149,5.32227 0,2.95668 2.3808,5.32226 5.36524,5.32226 2.97212,0 5.32226,-2.35014 5.32226,-5.32226 0,-2.97213 -2.35015,-5.32227 -5.32226,-5.32227 z" />
</g>
</svg>
